G04 DipTrace 3.0.0.2*
G04 BoardOutline.gbr*
%MOMM*%
G04 #@! TF.FileFunction,Profile*
G04 #@! TF.Part,Single*
%ADD11C,0.14*%
%FSLAX35Y35*%
G04*
G71*
G90*
G75*
G01*
G04 BoardOutline*
%LPD*%
X6292133Y7628600D2*
D11*
X6155767Y7492200D1*
X5937567Y7464933D1*
X5773900Y7628600D1*
X5392067Y7383100D1*
X5119300D1*
X5064767Y7274000D1*
X4928400Y7437667D1*
X4710200Y7464933D1*
X4382900Y7492200D1*
X4273800Y7383100D1*
X4164700Y7301300D1*
X3919200Y7274000D1*
X3619200D1*
X3373700Y7328567D1*
X3264600Y7437667D1*
X3237333Y7628600D1*
Y7792233D1*
X3155500Y8065000D1*
X3046400Y8201367D1*
X2800933Y8337733D1*
X2691833Y8310467D1*
X2500933Y8365000D1*
X2391833Y8392300D1*
X2255433Y8310467D1*
X2146333Y8337733D1*
X1900867Y8392300D1*
X1928133Y8092267D1*
X1846333Y8010433D1*
X1873600Y7655867D1*
Y7546767D1*
X1955433Y7410400D1*
X1928133D1*
X1982700Y7219467D1*
Y7110367D1*
X1846333Y7192200D1*
X1819033Y6646700D1*
X1791767Y6428500D1*
X1737233Y6101200D1*
X1709933Y5964833D1*
X1737233Y5801167D1*
X1709933Y5692067D1*
X1764500Y5582967D1*
X1709933Y5555700D1*
X1655400Y5282933D1*
X1628133Y4982933D1*
X1600833Y4655633D1*
X1546300Y4546533D1*
X1491733Y4382867D1*
X1519033Y4219233D1*
Y4137400D1*
Y4028300D1*
X1437200Y3891933D1*
X1382633Y3755567D1*
X1409933Y3619167D1*
X1464467Y3482800D1*
X1246267Y3400967D1*
X1219000Y3373700D1*
Y3210067D1*
Y3046400D1*
X1137167Y2882767D1*
X1028067Y2637267D1*
X1000800Y2473633D1*
X1137167Y2282700D1*
X1191733Y2119067D1*
X1137167Y1900867D1*
X1109900Y1737200D1*
Y1600833D1*
X1191733Y1355367D1*
X1273533Y1191700D1*
X1409933Y1137167D1*
X1437200Y1109900D1*
X2009967Y1082600D1*
X2528200D1*
X3210067Y1055333D1*
X4137400Y1028067D1*
X5473867Y1000800D1*
X7901333Y1028067D1*
X9101433Y1055333D1*
X10083333Y1109900D1*
X9946967Y4219233D1*
X10056067Y4355600D1*
X10028800Y4519267D1*
X10083333Y4710167D1*
X10110600Y4873833D1*
X10001500Y4982933D1*
X9837867Y5010200D1*
X9728767Y5228400D1*
X9756033Y5419333D1*
X9919700Y5801167D1*
X10110600Y6210300D1*
X10422737Y7333703D1*
X10421823Y7506937D1*
X10205287Y7687413D1*
X10127537Y7797767D1*
X9973343Y8001987D1*
X9948837Y8106140D1*
X9592837Y8081567D1*
X9588533Y8049947D1*
X8261030Y8025870D1*
X7595063Y8030877D1*
X7401813Y7835420D1*
X7163550Y7863920D1*
X6952650Y7797800D1*
X6708717Y7713747D1*
X6292133Y7628600D1*
M02*
