G04 DipTrace 3.0.0.2*
G04 BottomMask.gbr*
%MOMM*%
G04 #@! TF.FileFunction,Soldermask,Bot*
G04 #@! TF.Part,Single*
%ADD54C,1.704*%
%ADD58C,1.728*%
%ADD60C,1.728*%
%ADD62C,3.504*%
%ADD64C,1.804*%
%ADD66C,1.904*%
%ADD68R,1.904X1.904*%
%ADD70C,1.704*%
%ADD72R,1.704X1.704*%
%ADD74R,1.254X1.904*%
%ADD76O,1.254X1.904*%
%ADD78R,1.474X1.474*%
%ADD80C,1.474*%
%ADD82R,1.804X1.804*%
%ADD84C,1.804*%
%FSLAX35Y35*%
G04*
G71*
G90*
G75*
G01*
G04 BotMask*
%LPD*%
D84*
X5717790Y6969073D3*
D82*
Y7223073D3*
D84*
X7500567Y7489987D3*
D82*
X7246567D3*
D80*
X8267897Y7676823D3*
D78*
X8013897D3*
D80*
X3606923Y6855433D3*
D78*
X3352923D3*
D76*
X4937540Y1683313D3*
X4683540D3*
D74*
X4556540D3*
D76*
X4810540D3*
D72*
X6562640Y5324070D3*
D70*
Y5070070D3*
D72*
X9505850Y5308413D3*
D70*
Y5054413D3*
D68*
X9549370Y4583927D3*
D66*
Y4329927D3*
Y4075927D3*
Y3821927D3*
Y3567927D3*
Y3313927D3*
D68*
X6560047Y4590347D3*
D66*
Y4336347D3*
Y4082347D3*
Y3828347D3*
Y3574347D3*
Y3320347D3*
D82*
X9097703Y6894820D3*
D64*
Y6644820D3*
X9297703D3*
Y6894820D3*
D62*
X9568703Y6167820D3*
Y7371820D3*
D60*
X5763290Y5388860D3*
D58*
Y6404860D3*
D60*
X5365063Y5377910D3*
D58*
Y6393910D3*
D60*
X1953160Y5678873D3*
D58*
Y4662873D3*
D60*
X1972573Y4371377D3*
D58*
Y3355377D3*
D60*
X7563340Y5360220D3*
D58*
Y6376220D3*
D60*
X8002310Y6380047D3*
D58*
Y5364047D3*
D60*
X8442947Y6378453D3*
D58*
Y5362453D3*
D60*
X5144087Y1419180D3*
D58*
X6160087D3*
D60*
X4699633Y1149333D3*
D58*
X5715633D3*
D60*
X3350400Y1196953D3*
D58*
X4365853Y1163593D3*
D72*
X1977503Y2972920D3*
D54*
Y2522920D3*
X2627503D3*
D72*
Y2972920D3*
X1388187Y2151663D3*
D54*
Y1701663D3*
X2038187D3*
D72*
Y2151663D3*
X7758943Y4833760D3*
D70*
Y4579760D3*
Y4325760D3*
Y4071760D3*
Y3817760D3*
Y3563760D3*
Y3309760D3*
X8520943D3*
Y3563760D3*
Y3817760D3*
Y4071760D3*
Y4325760D3*
Y4579760D3*
Y4833760D3*
M02*
