G04 DipTrace 3.0.0.2*
G04 Bottom.gbr*
%MOMM*%
G04 #@! TF.FileFunction,Copper,L2,Bot*
G04 #@! TF.Part,Single*
G04 #@! TA.AperFunction,Conductor*
%ADD13C,0.254*%
%ADD14C,0.508*%
G04 #@! TA.AperFunction,ComponentPad*
%ADD17C,1.6*%
%ADD18R,1.6X1.6*%
%ADD19C,1.27*%
%ADD20R,1.27X1.27*%
%ADD21O,1.05X1.7*%
%ADD22R,1.05X1.7*%
%ADD23R,1.5X1.5*%
%ADD24C,1.5*%
%ADD25R,1.7X1.7*%
%ADD26C,1.7*%
%ADD27C,1.6*%
%ADD28C,3.3*%
%ADD29C,1.524*%
%ADD30C,1.524*%
%ADD32C,1.5*%
G04 #@! TA.AperFunction,ViaPad*
%ADD36C,1.016*%
%FSLAX35Y35*%
G04*
G71*
G90*
G75*
G01*
G04 Bottom*
%LPD*%
X6560047Y4590347D2*
D13*
X7748357D1*
X7758943Y4579760D1*
Y4325760D2*
X6570633D1*
X6560047Y4336347D1*
Y4082347D2*
X7748357D1*
X7758943Y4071760D1*
Y3817760D2*
X6570633D1*
X6560047Y3828347D1*
Y3574347D2*
X7748357D1*
X7758943Y3563760D1*
Y3309760D2*
X6570633D1*
X6560047Y3320347D1*
X9549370Y3313927D2*
X8525110D1*
X8520943Y3309760D1*
X9549370Y4329927D2*
X8525110D1*
X8520943Y4325760D1*
X1977503Y2972920D2*
X2627503D1*
X8225420D1*
X8315647Y3063147D1*
X9549370Y4075927D2*
X8525110D1*
X8520943Y4071760D1*
X1388187Y2151663D2*
X2038187D1*
X1723430Y3113630D2*
Y4809970D1*
X1973007Y5059547D1*
Y5659027D1*
X1953160Y5678873D1*
X1723430Y3113630D2*
X8133607D1*
X8252803Y3232827D1*
Y3803620D1*
X8520943Y4071760D1*
Y3563760D2*
X9545203D1*
X9549370Y3567927D1*
X8520943Y4579760D2*
X9545203D1*
X9549370Y4583927D1*
X8520943Y4579760D2*
X8368950D1*
X8256050Y4466860D1*
X6306027D1*
X6128857Y4644030D1*
X5942960D1*
X2038187Y1701663D2*
X1388187D1*
X1977503Y2522920D2*
X2627503D1*
X4201913D1*
X4687210Y2037623D1*
Y1686983D1*
X4683540Y1683313D1*
X6562640Y5324070D2*
X5828080D1*
X5763290Y5388860D1*
X7563340Y5360220D2*
X6598790D1*
X6562640Y5324070D1*
X7246567Y7489987D2*
D14*
X6450200D1*
X6264653Y7304440D1*
X5799157D1*
D13*
X5717790Y7223073D1*
X8520943Y4833760D2*
X9285197D1*
X9505850Y5054413D1*
X9568703Y7371820D2*
D14*
Y6167820D1*
X9297703Y6894820D2*
Y7100820D1*
X9568703Y7371820D1*
X8318900D1*
X8013897Y7676823D1*
X7687403D1*
X7500567Y7489987D1*
X5717790Y6969073D2*
X6979653D1*
X7500567Y7489987D1*
X3352923Y6855433D2*
Y6894810D1*
X3481940Y7023827D1*
X5308650D1*
X5482957Y6849520D1*
X5598237D1*
X5717790Y6969073D1*
X5763290Y6404860D2*
D13*
X7244787D1*
X7250380Y6410453D1*
X7355147D1*
X7510873Y6566180D1*
X7777597D1*
X3606923Y6855433D2*
X5222067D1*
X5324370Y6753130D1*
X8002310Y6380047D2*
X8198073D1*
X8356373Y6538347D1*
X8991230D1*
X9097703Y6644820D1*
X8442947Y6378453D2*
X9031337D1*
X9297703Y6644820D1*
X7171527Y6552057D2*
D14*
X7183333D1*
X7380270Y6748993D1*
X8757580D1*
X8520943Y3817760D2*
D13*
X9545203D1*
X9549370Y3821927D1*
X5425010Y1696773D2*
X5183580D1*
X4890113Y1403307D1*
X4445660D1*
X4365853Y1323500D1*
Y1163593D1*
D36*
X8315647Y3063147D3*
X1723430Y3113630D3*
D3*
X5942960Y4644030D3*
X7777597Y6566180D3*
X5324370Y6753130D3*
X7171527Y6552057D3*
X8757580Y6748993D3*
X5425010Y1696773D3*
D17*
X5717790Y6969073D3*
D18*
Y7223073D3*
D17*
X7500567Y7489987D3*
D18*
X7246567D3*
D19*
X8267897Y7676823D3*
D20*
X8013897D3*
D19*
X3606923Y6855433D3*
D20*
X3352923D3*
D21*
X4937540Y1683313D3*
X4683540D3*
D22*
X4556540D3*
D21*
X4810540D3*
D23*
X6562640Y5324070D3*
D24*
Y5070070D3*
D23*
X9505850Y5308413D3*
D24*
Y5054413D3*
D25*
X9549370Y4583927D3*
D26*
Y4329927D3*
Y4075927D3*
Y3821927D3*
Y3567927D3*
Y3313927D3*
D25*
X6560047Y4590347D3*
D26*
Y4336347D3*
Y4082347D3*
Y3828347D3*
Y3574347D3*
Y3320347D3*
D18*
X9097703Y6894820D3*
D27*
Y6644820D3*
X9297703D3*
Y6894820D3*
D28*
X9568703Y6167820D3*
Y7371820D3*
D29*
X5763290Y5388860D3*
D30*
Y6404860D3*
D29*
X5365063Y5377910D3*
D30*
Y6393910D3*
D29*
X1953160Y5678873D3*
D30*
Y4662873D3*
D29*
X1972573Y4371377D3*
D30*
Y3355377D3*
D29*
X7563340Y5360220D3*
D30*
Y6376220D3*
D29*
X8002310Y6380047D3*
D30*
Y5364047D3*
D29*
X8442947Y6378453D3*
D30*
Y5362453D3*
D29*
X5144087Y1419180D3*
D30*
X6160087D3*
D29*
X4699633Y1149333D3*
D30*
X5715633D3*
D29*
X3350400Y1196953D3*
D30*
X4365853Y1163593D3*
D23*
X1977503Y2972920D3*
D32*
Y2522920D3*
X2627503D3*
D23*
Y2972920D3*
X1388187Y2151663D3*
D32*
Y1701663D3*
X2038187D3*
D23*
Y2151663D3*
X7758943Y4833760D3*
D24*
Y4579760D3*
Y4325760D3*
Y4071760D3*
Y3817760D3*
Y3563760D3*
Y3309760D3*
X8520943D3*
Y3563760D3*
Y3817760D3*
Y4071760D3*
Y4325760D3*
Y4579760D3*
Y4833760D3*
M02*
