G04 DipTrace 3.0.0.2*
G04 Top.gbr*
%MOMM*%
G04 #@! TF.FileFunction,Copper,L1,Top*
G04 #@! TF.Part,Single*
G04 #@! TA.AperFunction,Conductor*
%ADD13C,0.254*%
%ADD14C,0.508*%
G04 #@! TA.AperFunction,CopperBalancing*
%ADD15C,0.635*%
%ADD16C,0.3302*%
G04 #@! TA.AperFunction,ComponentPad*
%ADD17C,1.6*%
%ADD18R,1.6X1.6*%
%ADD19C,1.27*%
%ADD20R,1.27X1.27*%
%ADD21O,1.05X1.7*%
%ADD22R,1.05X1.7*%
%ADD23R,1.5X1.5*%
%ADD24C,1.5*%
%ADD25R,1.7X1.7*%
%ADD26C,1.7*%
%ADD27C,1.6*%
%ADD28C,3.3*%
%ADD29C,1.524*%
%ADD30C,1.524*%
%ADD31R,1.6X2.7*%
G04 #@! TA.AperFunction,ComponentPad*
%ADD32C,1.5*%
%ADD34R,0.95X2.15*%
%ADD35R,3.25X2.15*%
G04 #@! TA.AperFunction,ViaPad*
%ADD36C,1.016*%
%FSLAX35Y35*%
G04*
G71*
G90*
G75*
G01*
G04 Top*
%LPD*%
X8002310Y5364047D2*
D13*
Y4823127D1*
X7758943Y4579760D1*
X8442947Y5362453D2*
Y5375123D1*
X8418753Y5399317D1*
Y5339463D1*
X8094297Y5015007D1*
Y4661113D1*
X7758943Y4325760D1*
X9549370Y3313927D2*
X9130277D1*
X9117563Y3301213D1*
X9080897D1*
X8515160Y2735477D1*
X7150377D1*
Y1836677D1*
X6463033Y1149333D1*
X5715633D1*
X2627503Y2972920D2*
X1977503D1*
X1972573Y3355377D2*
Y2967990D1*
X1977503Y2972920D1*
X8315647Y3063147D2*
Y4120463D1*
X8520943Y4325760D1*
X2038187Y2151663D2*
X2074700D1*
X1731320Y2495043D1*
Y3105740D1*
X1723430Y3113630D1*
X6160087Y1419180D2*
Y2306900D1*
X6652823Y2799637D1*
X8469313D1*
X9243283Y3573607D1*
X9543690D1*
X9549370Y3567927D1*
X5942960Y4644030D2*
Y4800013D1*
X5365063Y5377910D1*
X2038187Y1701663D2*
Y1751757D1*
X2254943Y1968513D1*
Y2522920D1*
X2627503D1*
X1977503D2*
X2627503D1*
X6562640Y5070070D2*
D14*
Y5324070D1*
X7563340Y5360220D2*
D13*
Y5390520D1*
X7606900D1*
X7756390Y5241030D1*
Y4831207D1*
X7758943Y4833760D1*
X6658583Y6510810D2*
D14*
Y5420013D1*
X6562640Y5324070D1*
X6658583Y7090810D2*
D13*
Y6510810D1*
X5717790Y7223073D2*
D14*
X6526320D1*
D13*
X6658583Y7090810D1*
X4683540Y1683313D2*
Y1973050D1*
X6077187Y3366697D1*
Y4584617D1*
X6562640Y5070070D1*
X1953160Y4662873D2*
D14*
Y4390790D1*
D13*
X1972573Y4371377D1*
X9505850Y5308413D2*
Y5054413D1*
X9568703Y6167820D2*
Y5882303D1*
X9427327Y5740927D1*
Y5386937D1*
X9505850Y5308413D1*
X3352923Y6855433D2*
D14*
X2812483D1*
X2183203Y6226153D1*
Y5619553D1*
X2156803Y5593153D1*
Y5307577D1*
X1986417Y5137190D1*
Y4662873D1*
X1953160D1*
X5717790Y6969073D2*
X5970320D1*
X6428583Y6510810D1*
X7777597Y6566180D2*
D13*
Y7186523D1*
X8267897Y7676823D1*
X5324370Y6753130D2*
Y6434603D1*
X5365063Y6393910D1*
X7563340Y6376220D2*
X7998483D1*
X8002310Y6380047D1*
X4937540Y1683313D2*
Y1567350D1*
X5085710Y1419180D1*
X5144087D1*
X9097703Y6894820D2*
D14*
Y7701773D1*
D13*
X9083437Y7716040D1*
X6888583Y6510810D2*
D14*
X7130280D1*
X7171527Y6552057D1*
X8757580Y6748993D2*
Y7670183D1*
X8803437Y7716040D1*
X4810540Y1683313D2*
D13*
Y1260240D1*
X4699633Y1149333D1*
X4556540Y1683313D2*
X3836760D1*
X3350400Y1196953D1*
X9549370Y3821927D2*
X9383693D1*
X8444730Y2882963D1*
X6634273D1*
X6062513Y2311203D1*
Y2334277D1*
X5425010Y1696773D1*
D36*
X8315647Y3063147D3*
X1723430Y3113630D3*
D3*
X5942960Y4644030D3*
X7777597Y6566180D3*
X5324370Y6753130D3*
X7171527Y6552057D3*
X8757580Y6748993D3*
X5425010Y1696773D3*
X7589547Y7835677D2*
D15*
X8644687D1*
X7509800Y7772510D2*
X7871650D1*
X8370770D2*
X8644687D1*
X7073607Y7709343D2*
X7348890D1*
X7430177D2*
X7871650D1*
X8406240D2*
X8644687D1*
X6903573Y7646177D2*
X7871650D1*
X8406613D2*
X8644687D1*
X6731180Y7583010D2*
X7087820D1*
X7627620D2*
X7871650D1*
X8372507D2*
X8644687D1*
X6385650Y7519843D2*
X7087820D1*
X7656393D2*
X7984263D1*
X8237567D2*
X8644687D1*
X6277750Y7456677D2*
X7087820D1*
X7655650D2*
X7921133D1*
X8174440D2*
X8653493D1*
X6206933Y7393510D2*
X7087820D1*
X7624893D2*
X7858007D1*
X8111187D2*
X8653493D1*
X6019160Y7330343D2*
X7794753D1*
X8048060D2*
X8653493D1*
X6019533Y7267177D2*
X6417350D1*
X6899850D2*
X7731627D1*
X7984933D2*
X8653493D1*
X6019903Y7204010D2*
X6417350D1*
X6899850D2*
X7687970D1*
X7921680D2*
X8653493D1*
X6020153Y7140843D2*
X6417350D1*
X6899850D2*
X7686233D1*
X7868970D2*
X8653493D1*
X6020527Y7077677D2*
X6417350D1*
X6899850D2*
X7686233D1*
X7868970D2*
X8653493D1*
X6069513Y7014510D2*
X6417350D1*
X6899850D2*
X7686233D1*
X7868970D2*
X8653493D1*
X6132643Y6951343D2*
X6417350D1*
X6899850D2*
X7686233D1*
X7868970D2*
X8653493D1*
X6195770Y6888177D2*
X7686233D1*
X7868970D2*
X8653493D1*
X6259023Y6825010D2*
X7686233D1*
X7868970D2*
X8653493D1*
X6322150Y6761843D2*
X7686233D1*
X7868970D2*
X8628687D1*
X6022633Y6698677D2*
X6096130D1*
X6385277D2*
X7686233D1*
X7868970D2*
X8638733D1*
X7652487Y7478030D2*
X7648747Y7454413D1*
X7641357Y7431670D1*
X7630500Y7410363D1*
X7616443Y7391017D1*
X7599537Y7374110D1*
X7580190Y7360053D1*
X7558883Y7349197D1*
X7536140Y7341807D1*
X7512523Y7338067D1*
X7488610D1*
X7464993Y7341807D1*
X7442250Y7349197D1*
X7420943Y7360053D1*
X7401597Y7374110D1*
X7398957Y7375677D1*
Y7337597D1*
X7094177D1*
Y7642377D1*
X7398957D1*
Y7603557D1*
X7420943Y7619920D1*
X7442250Y7630777D1*
X7464993Y7638167D1*
X7488610Y7641907D1*
X7512523D1*
X7536140Y7638167D1*
X7558883Y7630777D1*
X7580190Y7619920D1*
X7599537Y7605863D1*
X7616443Y7588957D1*
X7630500Y7569610D1*
X7641357Y7548303D1*
X7648747Y7525560D1*
X7652487Y7501943D1*
Y7478030D1*
X8403367Y7666160D2*
X8400033Y7645100D1*
X8393443Y7624820D1*
X8383763Y7605820D1*
X8371227Y7588570D1*
X8356150Y7573493D1*
X8338900Y7560957D1*
X8319900Y7551277D1*
X8299620Y7544687D1*
X8278560Y7541353D1*
X8257233D1*
X8253220Y7541827D1*
X7862653Y7151243D1*
X7862687Y6655330D1*
X7874617Y6641943D1*
X8696480Y6641967D1*
X8677573Y6655320D1*
X8663907Y6668987D1*
X8652543Y6684627D1*
X8643767Y6701850D1*
X8637793Y6720237D1*
X8634770Y6739327D1*
Y6758660D1*
X8637793Y6777750D1*
X8643767Y6796137D1*
X8652543Y6813360D1*
X8659813Y6823807D1*
X8659790Y7508637D1*
X8651047Y7508650D1*
Y7895977D1*
X7641230Y7881683D1*
X7416157Y7703793D1*
X7406847Y7700333D1*
X7396920Y7699917D1*
X7177480Y7750353D1*
X6727167Y7583443D1*
X6332807Y7511350D1*
X6136313Y7336767D1*
X6127220Y7332770D1*
X6117333Y7331783D1*
X6107083Y7334133D1*
X6012670Y7369503D1*
X6014717Y7056207D1*
X6027800Y7048187D1*
X6039467Y7038220D1*
X6387013Y6690673D1*
X7008473Y6690700D1*
Y6641960D1*
X7087400Y6641967D1*
X7099117Y6651720D1*
X7115600Y6661820D1*
X7133460Y6669217D1*
X7152257Y6673730D1*
X7171527Y6675247D1*
X7190797Y6673730D1*
X7209593Y6669217D1*
X7227453Y6661820D1*
X7243937Y6651720D1*
X7255667Y6641910D1*
X7680480Y6641967D1*
X7692513Y6655160D1*
X7692770Y7193200D1*
X7696670Y7212817D1*
X7705047Y7230983D1*
X7717430Y7246690D1*
X7718060Y7247277D1*
X8011653Y7540917D1*
X7878007Y7540933D1*
Y7812713D1*
X8149787D1*
Y7744127D1*
X8164567Y7765077D1*
X8179643Y7780153D1*
X8196893Y7792690D1*
X8215893Y7802370D1*
X8236173Y7808960D1*
X8257233Y7812293D1*
X8278560D1*
X8299620Y7808960D1*
X8319900Y7802370D1*
X8338900Y7792690D1*
X8356150Y7780153D1*
X8371227Y7765077D1*
X8383763Y7747827D1*
X8393443Y7728827D1*
X8400033Y7708547D1*
X8403367Y7687487D1*
Y7666160D1*
X6430043Y7270700D2*
X6893473D1*
Y6910920D1*
X6423693D1*
Y7270700D1*
X6430043D1*
X6159220Y6641877D2*
X6015747Y6785350D1*
X6016707Y6641967D1*
X6159210D1*
X7094263Y7642290D2*
D16*
X7398870Y7337683D1*
Y7642290D2*
X7094263Y7337683D1*
X6423793Y7270623D2*
X6893377Y6910997D1*
Y7270623D2*
X6423793Y6910997D1*
D17*
X5717790Y6969073D3*
D18*
Y7223073D3*
D17*
X7500567Y7489987D3*
D18*
X7246567D3*
D19*
X8267897Y7676823D3*
D20*
X8013897D3*
D19*
X3606923Y6855433D3*
D20*
X3352923D3*
D21*
X4937540Y1683313D3*
X4683540D3*
D22*
X4556540D3*
D21*
X4810540D3*
D23*
X6562640Y5324070D3*
D24*
Y5070070D3*
D23*
X9505850Y5308413D3*
D24*
Y5054413D3*
D25*
X9549370Y4583927D3*
D26*
Y4329927D3*
Y4075927D3*
Y3821927D3*
Y3567927D3*
Y3313927D3*
D25*
X6560047Y4590347D3*
D26*
Y4336347D3*
Y4082347D3*
Y3828347D3*
Y3574347D3*
Y3320347D3*
D18*
X9097703Y6894820D3*
D27*
Y6644820D3*
X9297703D3*
Y6894820D3*
D28*
X9568703Y6167820D3*
Y7371820D3*
D29*
X5763290Y5388860D3*
D30*
Y6404860D3*
D29*
X5365063Y5377910D3*
D30*
Y6393910D3*
D29*
X1953160Y5678873D3*
D30*
Y4662873D3*
D29*
X1972573Y4371377D3*
D30*
Y3355377D3*
D29*
X7563340Y5360220D3*
D30*
Y6376220D3*
D29*
X8002310Y6380047D3*
D30*
Y5364047D3*
D29*
X8442947Y6378453D3*
D30*
Y5362453D3*
D31*
X9083437Y7716040D3*
X8803437D3*
D29*
X5144087Y1419180D3*
D30*
X6160087D3*
D29*
X4699633Y1149333D3*
D30*
X5715633D3*
D29*
X3350400Y1196953D3*
D30*
X4365853Y1163593D3*
D23*
X1977503Y2972920D3*
D32*
Y2522920D3*
X2627503D3*
D23*
Y2972920D3*
X1388187Y2151663D3*
D32*
Y1701663D3*
X2038187D3*
D23*
Y2151663D3*
X7758943Y4833760D3*
D24*
Y4579760D3*
Y4325760D3*
Y4071760D3*
Y3817760D3*
Y3563760D3*
Y3309760D3*
X8520943D3*
Y3563760D3*
Y3817760D3*
Y4071760D3*
Y4325760D3*
Y4579760D3*
Y4833760D3*
D34*
X6428583Y6510810D3*
X6658583D3*
X6888583D3*
D35*
X6658583Y7090810D3*
M02*
