G04 DipTrace 3.0.0.2*
G04 BottomMask.gbr*
%MOMM*%
G04 #@! TF.FileFunction,Soldermask,Bot*
G04 #@! TF.Part,Single*
%AMOUTLINE1*5,1,4,0,0,2.55013,30.00054*%
%AMOUTLINE4*5,1,4,0,0,2.55013,-30.00054*%
%AMOUTLINE7*5,1,4,0,0,2.4087,-90.0*%
%AMOUTLINE10*5,1,4,0,0,2.4087,-180.0*%
%AMOUTLINE13*5,1,4,0,0,2.40866,-124.13655*%
%AMOUTLINE16*5,1,4,0,0,2.40871,-123.01836*%
%AMOUTLINE19*
4,1,16,
-0.78605,-0.82894,
-0.67479,-1.18015,
-0.41412,-1.45688,
-0.05918,-1.59306,
0.31967,-1.56178,
0.64746,-1.36922,
0.85923,-1.0535,
0.91136,-0.68878,
0.78605,0.82894,
0.67479,1.18015,
0.41412,1.45688,
0.05918,1.59306,
-0.31967,1.56178,
-0.64746,1.36922,
-0.85923,1.0535,
-0.91136,0.68878,
-0.78605,-0.82894,
0*%
%ADD36C,1.2*%
%ADD49R,3.4532X2.3532*%
%ADD51R,1.1532X2.3532*%
%ADD53R,1.7032X1.7032*%
%ADD55C,1.7032*%
%ADD57R,2.9032X1.8032*%
%ADD59C,1.7272*%
%ADD61C,1.7272*%
%ADD63C,1.4732*%
%ADD65C,1.9032*%
%ADD67R,1.9032X1.9032*%
%ADD69C,1.7032*%
%ADD71R,1.2532X1.9032*%
%ADD73O,1.2532X1.9032*%
%ADD75R,1.4732X1.4732*%
%ADD77C,1.4732*%
%ADD79C,1.8032*%
%ADD89OUTLINE1*%
%ADD92OUTLINE4*%
%ADD95OUTLINE7*%
%ADD98OUTLINE10*%
%ADD101OUTLINE13*%
%ADD104OUTLINE16*%
%ADD107OUTLINE19*%
%FSLAX35Y35*%
G04*
G71*
G90*
G75*
G01*
G04 BotMask*
%LPD*%
D79*
X4876307Y1868713D3*
D89*
X4942047Y2114060D3*
D79*
X2844520Y1551247D3*
D92*
X2599173Y1485507D3*
D77*
X2665323Y8031483D3*
D75*
X2411323D3*
D77*
X4139237Y8235800D3*
D75*
X3885237D3*
D73*
X3609400Y7090623D3*
X3355400D3*
D71*
X3228400D3*
D73*
X3482400D3*
D95*
X1753827Y9183070D3*
D69*
X1933433Y9003463D3*
D98*
X4471873Y9412100D3*
D69*
X4292267Y9232493D3*
D67*
X4208653Y4898273D3*
D65*
Y4644273D3*
Y4390273D3*
Y4136273D3*
Y3882273D3*
Y3628273D3*
D67*
X1332883Y4873297D3*
D65*
Y4619297D3*
Y4365297D3*
Y4111297D3*
Y3857297D3*
Y3603297D3*
D77*
X2879717Y8515007D3*
D63*
X2143683Y8712227D3*
D77*
X3502743Y8557823D3*
D63*
X4162657Y8938823D3*
D61*
X2400067Y2789367D3*
D59*
X1413620Y3032640D3*
D61*
X4558840Y5217987D3*
D59*
X4939587Y4276027D3*
D61*
X1669893Y2408407D3*
D59*
X2648580Y2135587D3*
D61*
X2495307Y2487773D3*
D59*
X1507793Y2726667D3*
D61*
X2304827Y3090960D3*
D59*
X1319180Y3337460D3*
D57*
X2987380Y1963953D3*
Y2243953D3*
D61*
X5416000Y5297353D3*
D59*
X5763493Y4342627D3*
D61*
X5146153Y5265607D3*
D59*
X5493647Y4310880D3*
D61*
X4860433Y5233860D3*
D59*
X5207927Y4279133D3*
D101*
X4839054Y3801021D3*
D55*
X4923867Y3359084D3*
X5672211Y3502704D3*
D101*
X5587397Y3944638D3*
D104*
X4720967Y3025065D3*
D55*
X4814383Y2584872D3*
X5559783Y2743062D3*
D104*
X5466363Y3183258D3*
D53*
X2463560Y5122747D3*
D69*
Y4868747D3*
Y4614747D3*
Y4360747D3*
Y4106747D3*
Y3852747D3*
Y3598747D3*
X3225560D3*
Y3852747D3*
Y4106747D3*
Y4360747D3*
Y4614747D3*
Y4868747D3*
Y5122747D3*
D51*
X3828667Y2297293D3*
X3598667D3*
X3368667D3*
D49*
X3598667Y2877293D3*
D69*
X3704757Y1556334D3*
X3904080Y1572794D3*
X4153230Y1593364D3*
X3455607Y1535764D3*
D107*
X3238683Y1307138D3*
X4404713Y1403414D3*
D36*
X4050920Y1374204D3*
X3592480Y1336351D3*
M02*
