M48
METRIC,0000.00
T01C0.483
T02C0.559
T03C0.711
T04C0.889
T05C0.9
T06C0.965
T07C1.0
T08C1.1
T09C1.2
%
T01
X+004635Y+003834
X+004765Y+004043
X+002895Y+003112
X+002625Y+002985
X+002670Y+001678
X+003638Y+001948
X+002848Y+007461
T02
X+002880Y+008515
X+003503Y+008558
X+004163Y+008939
X+002144Y+008712
T03
X+002665Y+008031
X+002411Y+008031
X+003885Y+008236
X+004139Y+008236
T04
X+003609Y+007091
X+003482Y+007091
X+003355Y+007091
X+003228Y+007091
T05
X+001754Y+009183
X+001933Y+009003
X+004292Y+009232
X+004472Y+009412
X+003226Y+005123
X+003226Y+004869
X+003226Y+004615
X+003226Y+004361
X+003226Y+004107
X+003226Y+003853
X+003226Y+003599
X+002464Y+003599
X+002464Y+003853
X+002464Y+004107
X+002464Y+004361
X+002464Y+004615
X+002464Y+004869
X+002464Y+005123
X+004839Y+003801
X+004924Y+003359
X+004721Y+003025
X+004814Y+002585
X+005560Y+002743
X+005466Y+003183
X+005672Y+003503
X+005587Y+003945
T06
X+002400Y+002789
X+002495Y+002488
X+002649Y+002136
X+002305Y+003091
X+001508Y+002727
X+001414Y+003033
X+001319Y+003337
X+001670Y+002408
X+004940Y+004276
X+005208Y+004279
X+005494Y+004311
X+005763Y+004343
X+005416Y+005297
X+005146Y+005266
X+004860Y+005234
X+004559Y+005218
T07
X+004876Y+001869
X+004942Y+002114
X+004411Y+001329G85X+004399Y+001478
X+004153Y+001593
X+003904Y+001573
X+003705Y+001556
X+003456Y+001536
X+003245Y+001232G85X+003233Y+001382
X+002845Y+001551
X+002599Y+001486
T08
X+004209Y+004898
X+004209Y+004644
X+004209Y+004390
X+004209Y+004136
X+004209Y+003882
X+004209Y+003628
X+001333Y+003603
X+001333Y+003857
X+001333Y+004111
X+001333Y+004365
X+001333Y+004619
X+001333Y+004873
T09
X+004051Y+001374
X+003592Y+001336
T00
M30
