G04 DipTrace 3.0.0.2*
G04 Top.gbr*
%MOMM*%
G04 #@! TF.FileFunction,Copper,L1,Top*
G04 #@! TF.Part,Single*
%AMOUTLINE0*5,1,4,0,0,2.26276,30.00054*%
%AMOUTLINE3*5,1,4,0,0,2.26276,-30.00054*%
%AMOUTLINE6*5,1,4,0,0,2.12133,-90.0*%
%AMOUTLINE9*5,1,4,0,0,2.12133,-180.0*%
%AMOUTLINE12*5,1,4,0,0,2.12129,-124.13655*%
%AMOUTLINE15*5,1,4,0,0,2.12134,-123.01836*%
%AMOUTLINE18*
4,1,16,
-0.68573,-0.80917,
-0.58493,-1.12737,
-0.35607,-1.37033,
-0.04443,-1.4899,
0.2882,-1.46243,
0.576,-1.29337,
0.76193,-1.01617,
0.80917,-0.68573,
0.68573,0.80917,
0.58493,1.12737,
0.35607,1.37033,
0.04443,1.4899,
-0.2882,1.46243,
-0.576,1.29337,
-0.76193,1.01617,
-0.80917,0.68573,
-0.68573,-0.80917,
0*%
G04 #@! TA.AperFunction,Conductor*
%ADD13C,0.254*%
%ADD14C,0.508*%
G04 #@! TA.AperFunction,ComponentPad*
%ADD17C,1.6*%
%ADD18C,1.27*%
%ADD19R,1.27X1.27*%
%ADD20O,1.05X1.7*%
%ADD21R,1.05X1.7*%
%ADD22C,1.5*%
%ADD23R,1.7X1.7*%
%ADD24C,1.7*%
%ADD25C,1.27*%
%ADD26C,1.524*%
%ADD27C,1.524*%
%ADD29C,1.5*%
%ADD30R,1.5X1.5*%
G04 #@! TA.AperFunction,ViaPad*
%ADD34C,1.016*%
G04 #@! TA.AperFunction,ComponentPad*
%ADD88OUTLINE0*%
%ADD91OUTLINE3*%
%ADD94OUTLINE6*%
%ADD97OUTLINE9*%
%ADD100OUTLINE12*%
%ADD103OUTLINE15*%
%ADD106OUTLINE18*%
%FSLAX35Y35*%
G04*
G71*
G90*
G75*
G01*
G04 Top*
%LPD*%
X4634727Y3833570D2*
D13*
Y3912893D1*
X4765193Y4043360D1*
X4939587Y4276027D2*
Y3901553D1*
X4839054Y3801021D1*
X4208653Y4390273D2*
X4368463D1*
X4482297Y4276440D1*
Y3263735D1*
X4720967Y3025065D1*
X3225560Y4360747D2*
X3048577D1*
X2895217Y4207387D1*
Y3111913D1*
X4923867Y3359083D2*
X4911130D1*
Y2681620D1*
X4814383Y2584873D1*
Y2241720D1*
X4942047Y2114060D1*
X1669893Y2408407D2*
X1947897D1*
X2466637Y1889667D1*
Y1618043D1*
X2599173Y1485507D1*
X3355400Y7090623D2*
Y7254997D1*
X3212683Y7397713D1*
X2911090D1*
X2847597Y7461207D1*
X2411323Y8031483D2*
Y8108853D1*
X2515630Y8213160D1*
X3862597D1*
X3885237Y8235800D1*
X3225560Y5122747D2*
X2810770D1*
X2704737Y5016713D1*
Y3064293D1*
X2625370Y2984927D1*
Y2995720D1*
X3455607Y1535764D2*
D14*
Y1765500D1*
X3638187Y1948080D1*
X2625370Y2984927D2*
D13*
Y2691050D1*
X2796900Y2519520D1*
Y2265547D1*
X2844520Y2217927D1*
Y1551247D1*
X2495307Y2487773D2*
Y2170307D1*
X2530027Y2135587D1*
X2648580D1*
X1332883Y4873297D2*
X1530667D1*
X1736463Y4667500D1*
Y2955337D1*
X1507793Y2726667D1*
X1332883Y4619297D2*
X1474917D1*
X1590527Y4503687D1*
Y3471920D1*
X1447667Y3329060D1*
X1327583D1*
X1319180Y3337460D1*
X2304827Y3090960D2*
X2352447D1*
X2527053Y2916353D1*
Y2694127D1*
X2733407Y2487773D1*
Y2217927D1*
X2781027Y2170307D1*
Y1789347D1*
X2669913Y1678233D1*
D34*
X4634727Y3833570D3*
X4765193Y4043360D3*
X2895217Y3111913D3*
X2847597Y7461207D3*
X2625370Y2984927D3*
X3638187Y1948080D3*
X2669913Y1678233D3*
D17*
X4876307Y1868713D3*
D88*
X4942047Y2114060D3*
D17*
X2844520Y1551247D3*
D91*
X2599173Y1485507D3*
D18*
X2665323Y8031483D3*
D19*
X2411323D3*
D18*
X4139237Y8235800D3*
D19*
X3885237D3*
D20*
X3609400Y7090623D3*
X3355400D3*
D21*
X3228400D3*
D20*
X3482400D3*
D94*
X1753827Y9183070D3*
D22*
X1933433Y9003463D3*
D97*
X4471873Y9412100D3*
D22*
X4292267Y9232493D3*
D23*
X4208653Y4898273D3*
D24*
Y4644273D3*
Y4390273D3*
Y4136273D3*
Y3882273D3*
Y3628273D3*
D23*
X1332883Y4873297D3*
D24*
Y4619297D3*
Y4365297D3*
Y4111297D3*
Y3857297D3*
Y3603297D3*
D18*
X2879717Y8515007D3*
D25*
X2143683Y8712227D3*
D18*
X3502743Y8557823D3*
D25*
X4162657Y8938823D3*
D26*
X2400067Y2789367D3*
D27*
X1413620Y3032640D3*
D26*
X4558840Y5217987D3*
D27*
X4939587Y4276027D3*
D26*
X1669893Y2408407D3*
D27*
X2648580Y2135587D3*
D26*
X2495307Y2487773D3*
D27*
X1507793Y2726667D3*
D26*
X2304827Y3090960D3*
D27*
X1319180Y3337460D3*
D26*
X5416000Y5297353D3*
D27*
X5763493Y4342627D3*
D26*
X5146153Y5265607D3*
D27*
X5493647Y4310880D3*
D26*
X4860433Y5233860D3*
D27*
X5207927Y4279133D3*
D100*
X4839054Y3801021D3*
D29*
X4923867Y3359084D3*
X5672211Y3502704D3*
D100*
X5587397Y3944638D3*
D103*
X4720967Y3025065D3*
D29*
X4814383Y2584872D3*
X5559783Y2743062D3*
D103*
X5466363Y3183258D3*
D30*
X2463560Y5122747D3*
D22*
Y4868747D3*
Y4614747D3*
Y4360747D3*
Y4106747D3*
Y3852747D3*
Y3598747D3*
X3225560D3*
Y3852747D3*
Y4106747D3*
Y4360747D3*
Y4614747D3*
Y4868747D3*
Y5122747D3*
X3704757Y1556334D3*
X3904080Y1572794D3*
X4153230Y1593364D3*
X3455607Y1535764D3*
D106*
X3238683Y1307138D3*
X4404713Y1403414D3*
M02*
