G04 DipTrace 3.3.1.2*
G04 Bottom.gbr*
%MOIN*%
G04 #@! TF.FileFunction,Copper,L2,Bot*
G04 #@! TF.Part,Single*
%AMOUTLINE0*
4,1,4,
-0.008483,-0.043727,
-0.043727,0.008483,
0.008483,0.043727,
0.043727,-0.008483,
-0.008483,-0.043727,
0*%
G04 #@! TA.AperFunction,Conductor*
%ADD13C,0.01*%
%ADD14C,0.02*%
G04 #@! TA.AperFunction,ComponentPad*
%ADD17C,0.062992*%
%ADD18R,0.062992X0.062992*%
%ADD19C,0.05*%
%ADD20R,0.05X0.05*%
%ADD21O,0.041339X0.066929*%
%ADD22R,0.041339X0.066929*%
%ADD23R,0.059055X0.059055*%
%ADD24C,0.059055*%
%ADD25R,0.066929X0.066929*%
%ADD26C,0.066929*%
%ADD27C,0.062992*%
%ADD28C,0.129921*%
%ADD29C,0.06*%
%ADD30C,0.06*%
%ADD32C,0.059055*%
G04 #@! TA.AperFunction,ViaPad*
%ADD36C,0.04*%
G04 #@! TA.AperFunction,ComponentPad*
%ADD90OUTLINE0*%
%FSLAX26Y26*%
G04*
G70*
G90*
G75*
G01*
G04 Bottom*
%LPD*%
X2582381Y1806908D2*
D13*
X3038677D1*
X3043559Y1802026D1*
Y1702026D2*
X2587262D1*
X2582381Y1706908D1*
Y1606908D2*
X3038677D1*
X3043559Y1602026D1*
X3456005Y1652052D2*
X3093585D1*
X3043559Y1602026D1*
Y1502026D2*
X2587262D1*
X2582381Y1506908D1*
Y1406908D2*
X3038677D1*
X3043559Y1402026D1*
Y1302026D2*
X2587262D1*
X2582381Y1306908D1*
X3556005Y2127013D2*
Y2127003D1*
X3506010Y2077008D1*
X3356026D1*
X3759280Y1304381D2*
X3345913D1*
X3343559Y1302026D1*
X3759280Y1704381D2*
X3345913D1*
X3343559Y1702026D1*
X778230Y1170126D2*
X1034135D1*
X3238039D1*
X3273562Y1205648D1*
X3759280Y1604381D2*
X3345913D1*
X3343559Y1602026D1*
X546215Y846797D2*
X802121D1*
X678201Y1225524D2*
Y1893374D1*
X776459Y1991633D1*
Y2227648D1*
X768646Y2235462D1*
X678201Y1225524D2*
X3201892D1*
X3248820Y1272451D1*
Y1507287D1*
X3343559Y1602026D1*
Y1402026D2*
X3756925D1*
X3759280Y1404381D1*
X3343559Y1802026D2*
X3756925D1*
X3759280Y1804381D1*
X3343559Y1802026D2*
X3293833D1*
X3250098Y1758291D1*
X2482373D1*
X2412621Y1828043D1*
X2339433D1*
X802121Y669631D2*
X546215D1*
X778230Y992961D2*
X1034135D1*
X1653982D1*
X1845043Y801899D1*
Y670102D1*
X1837348Y662407D1*
X2583402Y2095776D2*
X2294205D1*
X2268697Y2121283D1*
X2958630Y2110008D2*
X2597634D1*
X2583402Y2095776D1*
X2802664Y2948499D2*
D14*
X2539134D1*
X2466084Y2875449D1*
X2297054D1*
D13*
X2243938Y2822332D1*
X2958630Y2110008D2*
X2970320D1*
X3037310Y2176997D1*
X3505990D1*
X3556005Y2227013D1*
X3343559Y1902026D2*
X3654560D1*
X3742146Y1989612D1*
X3766891Y2901976D2*
D14*
Y2427961D1*
X3660198Y2714181D2*
Y2795283D1*
X3766891Y2901976D1*
X3274843D1*
X3154762Y3022056D1*
X3076222D1*
X3002664Y2948499D1*
X2355836Y2656566D2*
X2710731D1*
X3002664Y2948499D1*
X1319734Y2698675D2*
Y2714177D1*
X1370528Y2764971D1*
X2089705D1*
X2158329Y2696346D1*
X2316055D1*
X2355836Y2656566D1*
X3742146Y1989612D2*
D13*
X3593407D1*
X3556005Y2027013D1*
X2268697Y2521283D2*
X2851963D1*
X2854165Y2523486D1*
X2858853D1*
X2920163Y2584795D1*
X3061731D1*
X1419734Y2698675D2*
X2055617D1*
X2095894Y2658398D1*
X3118954Y2511514D2*
X3103105D1*
X3165428Y2573837D1*
X3539539D1*
X3581458Y2615756D1*
X3273685Y2510887D2*
X3555329D1*
X3660198Y2615756D1*
X2823121Y2579235D2*
D14*
X2827769D1*
X2905303Y2656769D1*
X3447551D1*
X3343559Y1502026D2*
D13*
X3756925D1*
X3759280Y1504381D1*
X2135516Y667706D2*
X2040465D1*
X1924927Y552168D1*
X1749945D1*
X1718525Y520748D1*
Y457793D1*
D36*
X3456005Y1652052D3*
X3356026Y2077008D3*
X3273562Y1205648D3*
X678201Y1225524D3*
D3*
X2339433Y1828043D3*
X3061731Y2584795D3*
X2095894Y2658398D3*
X2823121Y2579235D3*
X3447551Y2656769D3*
X2135516Y667706D3*
D17*
X2355836Y2656566D3*
D90*
X2243938Y2822332D3*
D17*
X3002664Y2948499D3*
D18*
X2802664D3*
D19*
X3254762Y3022056D3*
D20*
X3154762D3*
D19*
X1419734Y2698675D3*
D20*
X1319734D3*
D21*
X1949848Y662407D3*
X1837348D3*
D22*
X1781098D3*
D21*
X1893598D3*
D23*
X2583402Y2095776D3*
D24*
Y1995776D3*
D23*
X3742146Y2089612D3*
D24*
Y1989612D3*
D25*
X3759280Y1804381D3*
D26*
Y1704381D3*
Y1604381D3*
Y1504381D3*
Y1404381D3*
Y1304381D3*
D25*
X2582381Y1806908D3*
D26*
Y1706908D3*
Y1606908D3*
Y1506908D3*
Y1406908D3*
Y1306908D3*
D18*
X3581458Y2714181D3*
D27*
Y2615756D3*
X3660198D3*
Y2714181D3*
D28*
X3766891Y2427961D3*
Y2901976D3*
D25*
X3456005Y2227013D3*
D26*
X3556005D3*
X3456005Y2127013D3*
X3556005D3*
X3456005Y2027013D3*
X3556005D3*
D29*
X2268697Y2121283D3*
D30*
Y2521283D3*
D29*
X2111915Y2116972D3*
D30*
Y2516972D3*
D29*
X768646Y2235462D3*
D30*
Y1835462D3*
D29*
X776289Y1720699D3*
D30*
Y1320699D3*
D29*
X2958630Y2110008D3*
D30*
Y2510008D3*
D29*
X3118954Y2511514D3*
D30*
Y2111514D3*
D29*
X3273685Y2510887D3*
D30*
Y2110887D3*
D29*
X2024916Y558417D3*
D30*
X2424916D3*
D29*
X1849934Y452178D3*
D30*
X2249934D3*
D29*
X1318740Y470927D3*
D30*
X1718525Y457793D3*
D23*
X778230Y1170126D3*
D32*
Y992961D3*
X1034135D3*
D23*
Y1170126D3*
X546215Y846797D3*
D32*
Y669631D3*
X802121D3*
D23*
Y846797D3*
X3043559Y1902026D3*
D24*
Y1802026D3*
Y1702026D3*
Y1602026D3*
Y1502026D3*
Y1402026D3*
Y1302026D3*
X3343559D3*
Y1402026D3*
Y1502026D3*
Y1602026D3*
Y1702026D3*
Y1802026D3*
Y1902026D3*
M02*
