G04 DipTrace 3.3.1.2*
G04 TopAssy.gbr*
%MOIN*%
G04 #@! TF.FileFunction,Drawing,Top*
G04 #@! TF.Part,Single*
%ADD10C,0.009843*%
%ADD88C,0.003088*%
%ADD89C,0.004632*%
%FSLAX26Y26*%
G04*
G70*
G90*
G75*
G01*
G04 TopAssy*
%LPD*%
X3819119Y1883514D2*
D10*
Y1225247D1*
X2642220Y1886042D2*
Y1227774D1*
X4172434Y2389392D2*
Y2940545D1*
X3857417Y1653815D2*
D88*
X3837321D1*
Y1645193D1*
X3838294Y1642319D1*
X3839245Y1641368D1*
X3841146Y1640418D1*
X3844020D1*
X3845943Y1641368D1*
X3846894Y1642319D1*
X3847845Y1645193D1*
X3848817Y1642319D1*
X3849768Y1641368D1*
X3851669Y1640417D1*
X3853593D1*
X3855494Y1641368D1*
X3856467Y1642319D1*
X3857417Y1645193D1*
Y1653815D1*
X3847845D2*
Y1645193D1*
X3857417Y1628494D2*
X3856467Y1630417D1*
X3854543Y1632318D1*
X3852642Y1633291D1*
X3849768Y1634242D1*
X3844971D1*
X3842119Y1633291D1*
X3840195Y1632318D1*
X3838294Y1630417D1*
X3837321Y1628494D1*
Y1624669D1*
X3838294Y1622768D1*
X3840195Y1620845D1*
X3842119Y1619894D1*
X3844971Y1618943D1*
X3849768D1*
X3852642Y1619894D1*
X3854543Y1620845D1*
X3856467Y1622768D1*
X3857417Y1624669D1*
Y1628494D1*
X3837321Y1597447D2*
X3857417Y1605118D1*
X3837321Y1612768D1*
X3844020Y1609894D2*
Y1600321D1*
X3847845Y1591271D2*
Y1582671D1*
X3848817Y1579797D1*
X3849768Y1578824D1*
X3851669Y1577874D1*
X3853593D1*
X3855494Y1578824D1*
X3856467Y1579797D1*
X3857417Y1582671D1*
Y1591271D1*
X3837321D1*
X3847845Y1584572D2*
X3837321Y1577874D1*
X3857417Y1571698D2*
X3837321D1*
Y1564999D1*
X3838294Y1562125D1*
X3840195Y1560202D1*
X3842119Y1559251D1*
X3844971Y1558301D1*
X3849768D1*
X3852642Y1559251D1*
X3854543Y1560202D1*
X3856467Y1562125D1*
X3857417Y1564999D1*
Y1571698D1*
Y1520260D2*
Y1532685D1*
X3837321D1*
Y1520260D1*
X3847845Y1532685D2*
Y1525035D1*
X3857417Y1514084D2*
X3837321D1*
Y1507386D1*
X3838294Y1504512D1*
X3840195Y1502588D1*
X3842119Y1501638D1*
X3844971Y1500687D1*
X3849768D1*
X3852642Y1501638D1*
X3854543Y1502588D1*
X3856467Y1504512D1*
X3857417Y1507386D1*
Y1514084D1*
X3852642Y1480163D2*
X3854543Y1481114D1*
X3856467Y1483037D1*
X3857417Y1484939D1*
Y1488763D1*
X3856467Y1490687D1*
X3854543Y1492588D1*
X3852642Y1493561D1*
X3849768Y1494511D1*
X3844971D1*
X3842119Y1493561D1*
X3840195Y1492588D1*
X3838294Y1490687D1*
X3837321Y1488763D1*
Y1484939D1*
X3838294Y1483037D1*
X3840195Y1481114D1*
X3842119Y1480163D1*
X3844971D1*
Y1484939D1*
X3857417Y1461563D2*
Y1473988D1*
X3837321D1*
Y1461563D1*
X3847845Y1473988D2*
Y1466338D1*
X2680518Y1656342D2*
X2660422D1*
Y1647720D1*
X2661395Y1644846D1*
X2662346Y1643896D1*
X2664247Y1642945D1*
X2667121D1*
X2669044Y1643896D1*
X2669995Y1644846D1*
X2670946Y1647720D1*
X2671918Y1644846D1*
X2672869Y1643896D1*
X2674770Y1642945D1*
X2676694D1*
X2678595Y1643896D1*
X2679568Y1644846D1*
X2680518Y1647720D1*
Y1656342D1*
X2670946D2*
Y1647720D1*
X2680518Y1631021D2*
X2679568Y1632945D1*
X2677644Y1634846D1*
X2675743Y1635819D1*
X2672869Y1636769D1*
X2668072D1*
X2665220Y1635819D1*
X2663296Y1634846D1*
X2661395Y1632945D1*
X2660422Y1631021D1*
Y1627197D1*
X2661395Y1625295D1*
X2663296Y1623372D1*
X2665220Y1622421D1*
X2668072Y1621471D1*
X2672869D1*
X2675743Y1622421D1*
X2677644Y1623372D1*
X2679568Y1625295D1*
X2680518Y1627197D1*
Y1631021D1*
X2660422Y1599974D2*
X2680518Y1607646D1*
X2660422Y1615295D1*
X2667121Y1612421D2*
Y1602848D1*
X2670946Y1593799D2*
Y1585199D1*
X2671918Y1582325D1*
X2672869Y1581352D1*
X2674770Y1580401D1*
X2676694D1*
X2678595Y1581352D1*
X2679568Y1582325D1*
X2680518Y1585199D1*
Y1593799D1*
X2660422D1*
X2670946Y1587100D2*
X2660422Y1580401D1*
X2680518Y1574226D2*
X2660422D1*
Y1567527D1*
X2661395Y1564653D1*
X2663296Y1562730D1*
X2665220Y1561779D1*
X2668072Y1560828D1*
X2672869D1*
X2675743Y1561779D1*
X2677644Y1562730D1*
X2679568Y1564653D1*
X2680518Y1567527D1*
Y1574226D1*
Y1522788D2*
Y1535212D1*
X2660422D1*
Y1522788D1*
X2670946Y1535212D2*
Y1527563D1*
X2680518Y1516612D2*
X2660422D1*
Y1509913D1*
X2661395Y1507039D1*
X2663296Y1505116D1*
X2665220Y1504165D1*
X2668072Y1503215D1*
X2672869D1*
X2675743Y1504165D1*
X2677644Y1505116D1*
X2679568Y1507039D1*
X2680518Y1509913D1*
Y1516612D1*
X2675743Y1482691D2*
X2677644Y1483642D1*
X2679568Y1485565D1*
X2680518Y1487466D1*
Y1491291D1*
X2679568Y1493214D1*
X2677644Y1495116D1*
X2675743Y1496088D1*
X2672869Y1497039D1*
X2668072D1*
X2665220Y1496088D1*
X2663296Y1495116D1*
X2661395Y1493214D1*
X2660422Y1491291D1*
Y1487466D1*
X2661395Y1485565D1*
X2663296Y1483642D1*
X2665220Y1482691D1*
X2668072D1*
Y1487466D1*
X2680518Y1464091D2*
Y1476515D1*
X2660422D1*
Y1464091D1*
X2670946Y1476515D2*
Y1468866D1*
X4134267Y2721312D2*
D89*
Y2702675D1*
X4164411D1*
Y2721312D1*
X4148626Y2702675D2*
Y2714149D1*
X4134267Y2730576D2*
X4164411D1*
Y2740624D1*
X4162952Y2744935D1*
X4160100Y2747820D1*
X4157215Y2749246D1*
X4152937Y2750672D1*
X4145741D1*
X4141430Y2749246D1*
X4138578Y2747820D1*
X4135693Y2744935D1*
X4134267Y2740624D1*
Y2730576D1*
X4141430Y2781457D2*
X4138578Y2780031D1*
X4135693Y2777146D1*
X4134267Y2774294D1*
Y2768557D1*
X4135693Y2765672D1*
X4138578Y2762820D1*
X4141430Y2761361D1*
X4145741Y2759935D1*
X4152937D1*
X4157215Y2761361D1*
X4160100Y2762820D1*
X4162952Y2765672D1*
X4164411Y2768557D1*
Y2774294D1*
X4162952Y2777146D1*
X4160100Y2780031D1*
X4157215Y2781457D1*
X4152937D1*
Y2774294D1*
X4134267Y2809357D2*
Y2790721D1*
X4164411D1*
Y2809357D1*
X4148626Y2790721D2*
Y2802195D1*
X4134644Y2523548D2*
X4164788D1*
X4164789Y2536481D1*
X4163329Y2540792D1*
X4161903Y2542217D1*
X4159052Y2543643D1*
X4154741D1*
X4151855Y2542218D1*
X4150429Y2540792D1*
X4149004Y2536481D1*
X4147544Y2540792D1*
X4146118Y2542218D1*
X4143267Y2543643D1*
X4140381D1*
X4137530Y2542218D1*
X4136070Y2540792D1*
X4134644Y2536481D1*
Y2523548D1*
X4149003D2*
X4149004Y2536481D1*
X4134645Y2561529D2*
X4136070Y2558644D1*
X4138956Y2555792D1*
X4141807Y2554333D1*
X4146118Y2552907D1*
X4153315D1*
X4157592Y2554333D1*
X4160477Y2555792D1*
X4163329Y2558644D1*
X4164788Y2561529D1*
Y2567266D1*
X4163329Y2570118D1*
X4160477Y2573003D1*
X4157592Y2574429D1*
X4153315Y2575855D1*
X4146118D1*
X4141807Y2574429D1*
X4138956Y2573003D1*
X4136070Y2570118D1*
X4134645Y2567266D1*
Y2561529D1*
X4164788Y2608099D2*
X4134644Y2596592D1*
X4164788Y2585118D1*
X4154740Y2589429D2*
Y2603788D1*
X4149004Y2617363D2*
X4149003Y2630263D1*
X4147544Y2634574D1*
X4146118Y2636033D1*
X4143267Y2637459D1*
X4140381D1*
X4137530Y2636033D1*
X4136070Y2634574D1*
X4134644Y2630263D1*
Y2617363D1*
X4164788D1*
X4149003Y2627411D2*
X4164788Y2637459D1*
X4134644Y2646723D2*
X4164788D1*
Y2656771D1*
X4163329Y2661082D1*
X4160477Y2663967D1*
X4157592Y2665393D1*
X4153315Y2666819D1*
X4146118D1*
X4141807Y2665393D1*
X4138955Y2663967D1*
X4136070Y2661082D1*
X4134644Y2656771D1*
Y2646723D1*
M02*
