G04 DipTrace 3.0.0.2*
G04 BottomSilk.gbr*
%MOMM*%
G04 #@! TF.FileFunction,Legend,Bot*
G04 #@! TF.Part,Single*
%ADD10C,0.25*%
%ADD12C,0.0762*%
%ADD31O,0.39124X0.39193*%
%ADD81C,0.11765*%
%ADD82C,0.19608*%
%ADD83C,0.15686*%
%ADD84C,0.23529*%
%ADD86C,0.43137*%
%FSLAX35Y35*%
G04*
G71*
G90*
G75*
G01*
G04 BotSilk*
%LPD*%
X3112390Y2074033D2*
D10*
Y2133873D1*
X2862370Y2074033D2*
Y2133873D1*
D31*
X3926023Y2220600D3*
X3928663Y2447294D2*
D10*
X3268695D1*
X3928663Y2727293D2*
X3268695D1*
Y2447294D2*
Y2727293D1*
X3928663Y2447294D2*
Y2727293D1*
X3313380Y4645027D2*
D12*
X3648660D1*
X3732480D2*
X4060140D1*
X3313380Y4637407D2*
X3646055D1*
X3733658D2*
X4060140D1*
X3313380Y4629787D2*
X3643787D1*
X3735547D2*
X4060140D1*
X3313380Y4622167D2*
X3642343D1*
X3737520D2*
X4060140D1*
X3313380Y4614547D2*
X3641566D1*
X3738884D2*
X4060140D1*
X3313380Y4606927D2*
X3640962D1*
X3739860D2*
X4060140D1*
X3313380Y4599307D2*
X3639823D1*
X3741185D2*
X4060140D1*
X3313380Y4591687D2*
X3637588D1*
X3743501D2*
X4060140D1*
X3313380Y4584067D2*
X3496260D1*
X3527947D2*
X3633751D1*
X3747370D2*
X3855607D1*
X3884880D2*
X4060140D1*
X3313380Y4576447D2*
X3488640D1*
X3537748D2*
X3628373D1*
X3752764D2*
X3842548D1*
X3892500D2*
X4060140D1*
X3313380Y4568827D2*
X3481050D1*
X3548538D2*
X3615301D1*
X3765838D2*
X3830478D1*
X3900090D2*
X4060140D1*
X3313380Y4561207D2*
X3473727D1*
X3560213D2*
X3598603D1*
X3782536D2*
X3819293D1*
X3907383D2*
X4060140D1*
X3313380Y4553587D2*
X3467406D1*
X3572460D2*
X3580080D1*
X3801060D2*
X3808680D1*
X3913466D2*
X4060140D1*
X3313380Y4545967D2*
X3462253D1*
X3918084D2*
X4060140D1*
X3313380Y4538347D2*
X3460798D1*
X3917714D2*
X4060140D1*
X3313380Y4530727D2*
X3463425D1*
X3915560D2*
X4060140D1*
X3313380Y4523107D2*
X3467870D1*
X3911891D2*
X4060140D1*
X3313380Y4515487D2*
X3473112D1*
X3907309D2*
X4060140D1*
X3313380Y4507867D2*
X3478273D1*
X3902541D2*
X4060140D1*
X3313380Y4500247D2*
X3483372D1*
X3897604D2*
X4060140D1*
X3313380Y4492627D2*
X3488038D1*
X3892783D2*
X4060140D1*
X3313380Y4485007D2*
X3491755D1*
X3888571D2*
X4060140D1*
X3313380Y4477387D2*
X3491203D1*
X3887257D2*
X4060140D1*
X3313380Y4469767D2*
X3489210D1*
X3888858D2*
X4060140D1*
X3313380Y4462147D2*
X3486467D1*
X3891482D2*
X4060140D1*
X3313380Y4454527D2*
X3483722D1*
X3679140D2*
X3702000D1*
X3894748D2*
X4060140D1*
X3313380Y4446907D2*
X3481021D1*
X3661880D2*
X3719260D1*
X3898465D2*
X4060140D1*
X3313380Y4439287D2*
X3477916D1*
X3647615D2*
X3733495D1*
X3903436D2*
X4060140D1*
X3313380Y4431667D2*
X3470598D1*
X3636366D2*
X3744507D1*
X3910263D2*
X4060140D1*
X3313380Y4424047D2*
X3450593D1*
X3627314D2*
X3752854D1*
X3930419D2*
X4060140D1*
X3313380Y4416427D2*
X3422316D1*
X3620229D2*
X3759086D1*
X3958776D2*
X4060140D1*
X3313380Y4408807D2*
X3389580D1*
X3614622D2*
X3763772D1*
X3991560D2*
X4060140D1*
X3313380Y4401187D2*
X3389580D1*
X3612507D2*
X3767076D1*
X3991560D2*
X4060140D1*
X3313380Y4393567D2*
X3389580D1*
X3611084D2*
X3768980D1*
X3991560D2*
X4060140D1*
X3313380Y4385947D2*
X3389580D1*
X3609393D2*
X3769913D1*
X3991560D2*
X4060140D1*
X3313380Y4378327D2*
X3389580D1*
X3606573D2*
X3770321D1*
X3991560D2*
X4060140D1*
X3313380Y4370707D2*
X3389580D1*
X3602940D2*
X3770485D1*
X3991560D2*
X4060140D1*
X3313380Y4363087D2*
X3389580D1*
X3606487D2*
X3770517D1*
X3991560D2*
X4060140D1*
X3313380Y4355467D2*
X3389580D1*
X3608973D2*
X3770241D1*
X3991560D2*
X4060140D1*
X3313380Y4347847D2*
X3389580D1*
X3611320D2*
X3768980D1*
X3991560D2*
X4060140D1*
X3313380Y4340227D2*
X3389580D1*
X3614667D2*
X3765889D1*
X3991560D2*
X4060140D1*
X3313380Y4332607D2*
X3421399D1*
X3619210D2*
X3760842D1*
X3959741D2*
X4060140D1*
X3313380Y4324987D2*
X3445839D1*
X3624808D2*
X3754466D1*
X3935301D2*
X4060140D1*
X3313380Y4317367D2*
X3463972D1*
X3631790D2*
X3747413D1*
X3917168D2*
X4060140D1*
X3313380Y4309747D2*
X3471527D1*
X3639844D2*
X3740334D1*
X3909352D2*
X4060140D1*
X3313380Y4302127D2*
X3476678D1*
X3648083D2*
X3734331D1*
X3903463D2*
X4060140D1*
X3313380Y4294507D2*
X3480284D1*
X3656280D2*
X3729750D1*
X3898764D2*
X4060140D1*
X3313380Y4286887D2*
X3483612D1*
X3651585D2*
X3730093D1*
X3894657D2*
X4060140D1*
X3313380Y4279267D2*
X3487273D1*
X3647478D2*
X3732011D1*
X3891290D2*
X4060140D1*
X3313380Y4271647D2*
X3491528D1*
X3644129D2*
X3734947D1*
X3888744D2*
X4060140D1*
X3313380Y4264027D2*
X3496260D1*
X3641303D2*
X3738408D1*
X3890538D2*
X4060140D1*
X3313380Y4256407D2*
X3489818D1*
X3638303D2*
X3742076D1*
X3893921D2*
X4060140D1*
X3313380Y4248787D2*
X3484117D1*
X3634949D2*
X3745814D1*
X3898103D2*
X4060140D1*
X3313380Y4241167D2*
X3478737D1*
X3631366D2*
X3749362D1*
X3902819D2*
X4060140D1*
X3313380Y4233547D2*
X3473423D1*
X3627644D2*
X3752440D1*
X3907840D2*
X4060140D1*
X3313380Y4225927D2*
X3468338D1*
X3623877D2*
X3755150D1*
X3912500D2*
X4060140D1*
X3313380Y4218307D2*
X3463015D1*
X3620104D2*
X3758104D1*
X3916241D2*
X4060140D1*
X3313380Y4210687D2*
X3456977D1*
X3616572D2*
X3761416D1*
X3919022D2*
X4060140D1*
X3313380Y4203067D2*
X3450540D1*
X3613737D2*
X3764795D1*
X3917810D2*
X4060140D1*
X3313380Y4195447D2*
X3460765D1*
X3611897D2*
X3767870D1*
X3912860D2*
X4060140D1*
X3313380Y4187827D2*
X3470653D1*
X3564840D2*
X3580080D1*
X3610560D2*
X3770580D1*
X3801060D2*
X3816300D1*
X3906679D2*
X4060140D1*
X3313380Y4180207D2*
X3479723D1*
X3552274D2*
X3828621D1*
X3899706D2*
X4060140D1*
X3313380Y4172587D2*
X3488130D1*
X3539624D2*
X3840391D1*
X3892348D2*
X4060140D1*
X3313380Y4164967D2*
X3496260D1*
X3526740D2*
X3851462D1*
X3884829D2*
X4060140D1*
X3313380Y4157347D2*
X3862020D1*
X3877260D2*
X4060140D1*
X3313380Y4149727D2*
X4060140D1*
X3313380Y4142107D2*
X4060140D1*
X3313380Y4134487D2*
X4060140D1*
X3313380Y4126867D2*
X4060140D1*
X3313380Y4119247D2*
X4060140D1*
X3313380Y4111627D2*
X4060080D1*
X3313410Y4104007D2*
X4059500D1*
X3313678Y4096387D2*
X4058116D1*
X3314649Y4088767D2*
X3328620D1*
X3343860D2*
X3397200D1*
X3412440D2*
X3450540D1*
X3465780D2*
X3481020D1*
X3496260D2*
X3511500D1*
X3526740D2*
X3613265D1*
X3625830D2*
X3686760D1*
X3702000D2*
X3796435D1*
X3809000D2*
X3877260D1*
X3892500D2*
X4037250D1*
X4052520D2*
X4052178D1*
X3316475Y4081147D2*
X3313380D1*
X3328620D2*
X3343860D1*
X3359100D2*
X3381960D1*
X3397200D2*
X3412440D1*
X3427360D2*
X3465780D1*
X3496260D2*
X3511500D1*
X3526740D2*
X3557220D1*
X3572460D2*
X3603375D1*
X3618507D2*
X3625800D1*
X3649838D2*
X3671520D1*
X3686760D2*
X3709144D1*
X3724451D2*
X3786133D1*
X3802654D2*
X3814802D1*
X3839160D2*
X3863518D1*
X3877260D2*
X3892500D1*
X3906533D2*
X3939718D1*
X3954958D2*
X3967202D1*
X3999180D2*
X4013242D1*
X4037280D2*
X4044573D1*
X3325075Y4073527D2*
X3351480D1*
X3366720D2*
X3418533D1*
X3433676D2*
X3469297D1*
X3496260D2*
X3511500D1*
X3526740D2*
X3557220D1*
X3572460D2*
X3596445D1*
X3612156D2*
X3631922D1*
X3651727D2*
X3705810D1*
X3723461D2*
X3782071D1*
X3798129D2*
X3819259D1*
X3839160D2*
X3859061D1*
X3873212D2*
X3896548D1*
X3911936D2*
X3935261D1*
X3950501D2*
X3971659D1*
X3999180D2*
X4011352D1*
X4031156D2*
X4050924D1*
X3322719Y4065907D2*
X3423595D1*
X3438827D2*
X3471486D1*
X3496260D2*
X3511500D1*
X3526740D2*
X3557220D1*
X3572460D2*
X3591251D1*
X3607660D2*
X3636349D1*
X3653670D2*
X3696077D1*
X3718118D2*
X3779856D1*
X3795557D2*
X3821811D1*
X3839160D2*
X3856501D1*
X3869640D2*
X3900120D1*
X3916046D2*
X3932709D1*
X3947979D2*
X3974211D1*
X3999180D2*
X4009360D1*
X4026672D2*
X4055420D1*
X3374340Y4058287D2*
X3425163D1*
X3440401D2*
X3472593D1*
X3496260D2*
X3511500D1*
X3526740D2*
X3557101D1*
X3572430D2*
X3589715D1*
X3604655D2*
X3639327D1*
X3654707D2*
X3685197D1*
X3706588D2*
X3778851D1*
X3794314D2*
X3823048D1*
X3839160D2*
X3855204D1*
X3919093D2*
X3931501D1*
X3947099D2*
X3975448D1*
X3999180D2*
X4007910D1*
X4023946D2*
X4058425D1*
X3313380Y4050667D2*
X3359100D1*
X3374340D2*
X3423566D1*
X3438855D2*
X3473085D1*
X3496260D2*
X3511500D1*
X3526740D2*
X3556744D1*
X3572140D2*
X3589708D1*
X3604926D2*
X3638852D1*
X3654854D2*
X3676316D1*
X3695150D2*
X3778441D1*
X3793777D2*
X3823584D1*
X3839160D2*
X3900120D1*
X3918199D2*
X3931256D1*
X3947323D2*
X3975984D1*
X3999180D2*
X4006800D1*
X4022040D2*
X4058154D1*
X3313380Y4043047D2*
X3417169D1*
X3436074D2*
X3473284D1*
X3496260D2*
X3511500D1*
X3526740D2*
X3553172D1*
X3570962D2*
X3591151D1*
X3610146D2*
X3636667D1*
X3651582D2*
X3669826D1*
X3686277D2*
X3778285D1*
X3793563D2*
X3823797D1*
X3839160D2*
X3898719D1*
X3915810D2*
X3932221D1*
X3951898D2*
X3976197D1*
X3999180D2*
X4052934D1*
X3313380Y4035427D2*
X3351480D1*
X3366720D2*
X3401133D1*
X3432202D2*
X3473361D1*
X3496260D2*
X3511500D1*
X3526740D2*
X3541295D1*
X3568357D2*
X3593232D1*
X3624327D2*
X3633420D1*
X3646715D2*
X3669369D1*
X3679140D2*
X3778228D1*
X3793481D2*
X3823879D1*
X3839160D2*
X3896045D1*
X3912138D2*
X3934744D1*
X3963190D2*
X3976277D1*
X3999180D2*
X4018810D1*
X4029660D2*
X4038753D1*
X3313380Y4027807D2*
D3*
X3328620D2*
X3343860D1*
X3359100D2*
X3381960D1*
X3427680D2*
X3473400D1*
X3496260D2*
X3511500D1*
X3526740D2*
D3*
X3564840D2*
X3595320D1*
X3641040D2*
X3671520D1*
X3694380D2*
X3702000D1*
X3724860D2*
X3778200D1*
X3793440D2*
X3823920D1*
X3839160D2*
X3862020D1*
X3877260D2*
X3892500D1*
X3907740D2*
X3938220D1*
X3976320D2*
X3976305D1*
X3999180D2*
X4032713D1*
X3313380Y4020187D2*
X3976315D1*
X3999180D2*
X4045129D1*
X3313380Y4012567D2*
X3976318D1*
X3999180D2*
X4054507D1*
X3313380Y4004947D2*
X3976320D1*
X3999180D2*
X4057483D1*
X3313380Y3997327D2*
X3717240D1*
X3732480D2*
X3976320D1*
X3999180D2*
X4059039D1*
X3313380Y3989707D2*
X3717240D1*
X3732510D2*
X3976320D1*
X3999180D2*
X4059719D1*
X3313380Y3982087D2*
X3717240D1*
X3732800D2*
X3976320D1*
X3999180D2*
X4059988D1*
X3313380Y3974467D2*
X3717240D1*
X3733978D2*
X3976320D1*
X3999180D2*
X4060087D1*
X3313380Y3966847D2*
X3406027D1*
X3442600D2*
X3462465D1*
X3496260D2*
D3*
X3511500D2*
X3543187D1*
X3587700D2*
X3603230D1*
X3618470D2*
X3648660D1*
X3663900D2*
X3695848D1*
X3711088D2*
X3717240D1*
X3736583D2*
X3735897D1*
X3770260D2*
X3785820D1*
X3816300D2*
X3823920D1*
X3839160D2*
X3863518D1*
X3907740D2*
X3939718D1*
X3976320D2*
D3*
X3999180D2*
X4060122D1*
X3313380Y3959227D2*
X3400594D1*
X3412440D2*
X3435300D1*
X3448946D2*
X3477723D1*
X3511500D2*
X3537754D1*
X3549600D2*
X3604207D1*
X3619447D2*
X3641040D1*
X3663900D2*
X3691123D1*
X3706363D2*
X3717240D1*
X3740100D2*
X3750244D1*
X3776606D2*
X3816300D1*
X3839160D2*
X3859061D1*
X3869640D2*
X3935261D1*
X3953460D2*
X3976320D1*
X3999180D2*
X4060134D1*
X3313380Y3951607D2*
X3396214D1*
X3412440D2*
X3439348D1*
X3453471D2*
X3489098D1*
X3511500D2*
X3533376D1*
X3549600D2*
X3606035D1*
X3621275D2*
X3687600D1*
X3702840D2*
X3717240D1*
X3736612D2*
X3761109D1*
X3781131D2*
X3819817D1*
X3839160D2*
X3856509D1*
X3869640D2*
X3932709D1*
X3949943D2*
X3976320D1*
X3999180D2*
X4060138D1*
X3313380Y3943987D2*
X3393001D1*
X3412440D2*
X3442920D1*
X3456013D2*
X3492836D1*
X3511500D2*
X3530184D1*
X3549600D2*
X3608008D1*
X3623248D2*
X3656280D1*
X3671520D2*
X3684536D1*
X3699748D2*
X3717240D1*
X3734692D2*
X3766323D1*
X3783673D2*
X3822006D1*
X3839160D2*
X3855272D1*
X3869640D2*
X3931472D1*
X3947754D2*
X3976320D1*
X3999180D2*
X4060139D1*
X3313380Y3936367D2*
X3391002D1*
X3456966D2*
X3494823D1*
X3511500D2*
X3528320D1*
X3569796D2*
X3609452D1*
X3624692D2*
X3633420D1*
X3648660D2*
X3656280D1*
X3671520D2*
X3682028D1*
X3696969D2*
X3717240D1*
X3734561D2*
X3768039D1*
X3784626D2*
X3823113D1*
X3839160D2*
X3854736D1*
X3891441D2*
X3930936D1*
X3946647D2*
X3976320D1*
X3999180D2*
X4060140D1*
X3313380Y3928747D2*
X3442920D1*
X3456326D2*
X3495705D1*
X3511500D2*
X3527398D1*
X3549600D2*
X3580080D1*
X3585378D2*
X3610560D1*
X3625800D2*
X3680364D1*
X3694243D2*
X3717240D1*
X3735958D2*
X3766759D1*
X3783986D2*
X3823605D1*
X3839160D2*
X3854523D1*
X3869640D2*
X3900120D1*
X3908484D2*
X3930723D1*
X3946155D2*
X3976320D1*
X3999180D2*
X4060140D1*
X3313380Y3921127D2*
X3439348D1*
X3453941D2*
X3496068D1*
X3511500D2*
X3526980D1*
X3549600D2*
X3580080D1*
X3591026D2*
X3625800D1*
X3641040D2*
X3663900D1*
X3679140D2*
D3*
X3690810D2*
X3717240D1*
X3738022D2*
X3764888D1*
X3781601D2*
X3823810D1*
X3839160D2*
X3854441D1*
X3869640D2*
X3907740D1*
X3922980D2*
X3930641D1*
X3945950D2*
X3976320D1*
X3999180D2*
X4060140D1*
X3313380Y3913507D2*
X3397200D1*
X3412440D2*
X3435300D1*
X3450540D2*
X3496260D1*
X3511500D2*
X3526740D1*
X3549600D2*
X3580080D1*
X3595320D2*
X3618180D1*
X3641040D2*
X3663900D1*
X3686760D2*
X3717240D1*
X3740100D2*
X3762960D1*
X3778200D2*
X3823920D1*
X3839160D2*
X3854400D1*
X3869640D2*
X3900120D1*
X3915360D2*
X3930600D1*
X3945840D2*
X3976320D1*
X3999180D2*
X4060140D1*
X3368663Y6374893D2*
X5121263D1*
X3368663Y6367273D2*
X5121263D1*
X3368663Y6359653D2*
X5121263D1*
X3368663Y6352033D2*
X5121263D1*
X3368663Y6344413D2*
X5121263D1*
X3368663Y6336793D2*
X5121263D1*
X3368663Y6329173D2*
X5121263D1*
X3368663Y6321553D2*
X5121263D1*
X3368663Y6313933D2*
X5121263D1*
X3368663Y6306313D2*
X5121263D1*
X3368663Y6298693D2*
X5121263D1*
X3368663Y6291073D2*
X5121263D1*
X2560943Y6283453D2*
X2637143D1*
X3368663D2*
X5121263D1*
X2157083Y6275833D2*
X2240903D1*
X2332343D2*
X2416163D1*
X2544596D2*
X2654693D1*
X2774303D2*
X3002903D1*
X3041003D2*
X3277223D1*
X3368663D2*
X4839643D1*
X4938093D2*
X5121263D1*
X2157083Y6268213D2*
X2240903D1*
X2332343D2*
X2416163D1*
X2530251D2*
X2669905D1*
X2774303D2*
X3002903D1*
X3041003D2*
X3277223D1*
X3368663D2*
X4825678D1*
X4952297D2*
X5121263D1*
X2157083Y6260593D2*
X2240903D1*
X2332343D2*
X2416163D1*
X2518665D2*
X2682743D1*
X2774303D2*
X3002903D1*
X3041003D2*
X3277223D1*
X3368663D2*
X4813533D1*
X4965145D2*
X5121263D1*
X2157083Y6252973D2*
X2240903D1*
X2332343D2*
X2416163D1*
X2509358D2*
X2693075D1*
X2774303D2*
X3002903D1*
X3041003D2*
X3277223D1*
X3368663D2*
X4803370D1*
X4976191D2*
X5121263D1*
X2157083Y6245353D2*
X2240903D1*
X2332343D2*
X2416163D1*
X2502106D2*
X2700903D1*
X2774303D2*
X3002903D1*
X3041003D2*
X3277223D1*
X3368663D2*
X4794775D1*
X4985153D2*
X5121263D1*
X2157083Y6237733D2*
X2240903D1*
X2332343D2*
X2416163D1*
X2496961D2*
X2707297D1*
X2774303D2*
X3002903D1*
X3041003D2*
X3277223D1*
X3368663D2*
X4787589D1*
X4992418D2*
X5121263D1*
X2157083Y6230113D2*
X2240903D1*
X2332343D2*
X2416163D1*
X2493255D2*
X2713017D1*
X2774303D2*
X3002903D1*
X3041003D2*
X3277223D1*
X3368663D2*
X4034598D1*
X4050261D2*
X4781610D1*
X4998628D2*
X5121263D1*
X2157083Y6222493D2*
X2240903D1*
X2332343D2*
X2416163D1*
X2489870D2*
X2717980D1*
X2774303D2*
X3002903D1*
X3041003D2*
X3277223D1*
X3368663D2*
X4024296D1*
X4064637D2*
X4776162D1*
X4885043D2*
X4892663D1*
X5003822D2*
X5121263D1*
X2157083Y6214873D2*
X2240903D1*
X2332343D2*
X2416163D1*
X2486392D2*
X2578888D1*
X2619198D2*
X2722148D1*
X2926703D2*
X3002903D1*
X3041003D2*
X3277223D1*
X3368663D2*
X4019552D1*
X4074387D2*
X4771081D1*
X4871596D2*
X4906111D1*
X5008088D2*
X5121263D1*
X2157083Y6207253D2*
X2240903D1*
X2332343D2*
X2416163D1*
X2482989D2*
X2568999D1*
X2629118D2*
X2725503D1*
X2926703D2*
X3002903D1*
X3117203D2*
X3201023D1*
X3368663D2*
X4018511D1*
X4081031D2*
X4766984D1*
X4861786D2*
X4915921D1*
X5011481D2*
X5121263D1*
X2157083Y6199633D2*
X2240903D1*
X2332343D2*
X2416163D1*
X2479979D2*
X2562039D1*
X2636316D2*
X2728296D1*
X2926703D2*
X3002903D1*
X3117203D2*
X3201023D1*
X3368663D2*
X4018466D1*
X4085862D2*
X4763760D1*
X4855192D2*
X4922514D1*
X5014289D2*
X5121263D1*
X2157083Y6192013D2*
X2240903D1*
X2332343D2*
X2416163D1*
X2477327D2*
X2557341D1*
X2641716D2*
X2731025D1*
X2926703D2*
X3002903D1*
X3117203D2*
X3201023D1*
X3368663D2*
X4029260D1*
X4089535D2*
X4760794D1*
X4851018D2*
X4926718D1*
X5017023D2*
X5121263D1*
X2157083Y6184393D2*
X2240903D1*
X2332343D2*
X2416163D1*
X2474651D2*
X2553971D1*
X2645941D2*
X2733407D1*
X2926703D2*
X3002903D1*
X3117203D2*
X3201023D1*
X3368663D2*
X3545451D1*
X3618628D2*
X3650603D1*
X3726803D2*
X3841423D1*
X3929809D2*
X4040575D1*
X4092563D2*
X4107803D1*
X4196509D2*
X4374823D1*
X4455328D2*
X4549763D1*
X4576958D2*
X4625963D1*
X4702163D2*
X4758087D1*
X4848756D2*
X4929248D1*
X5019406D2*
X5121263D1*
X2157083Y6176773D2*
X2240903D1*
X2332343D2*
X2416163D1*
X2472320D2*
X2551013D1*
X2649057D2*
X2735164D1*
X2926703D2*
X3002903D1*
X3117203D2*
X3201023D1*
X3368663D2*
X3533642D1*
X3630731D2*
X3650603D1*
X3726803D2*
X3827487D1*
X3947050D2*
X4049624D1*
X4213750D2*
X4360858D1*
X4471861D2*
X4549763D1*
X4592514D2*
X4625963D1*
X4702163D2*
X4755592D1*
X4847656D2*
X4931290D1*
X5021163D2*
X5121263D1*
X2157083Y6169153D2*
X2240903D1*
X2332343D2*
X2416163D1*
X2470837D2*
X2548576D1*
X2651137D2*
X2736902D1*
X2926703D2*
X3002903D1*
X3117203D2*
X3201023D1*
X3368663D2*
X3524471D1*
X3641077D2*
X3650603D1*
X3726803D2*
X3815610D1*
X3960600D2*
X4056234D1*
X4227300D2*
X4348743D1*
X4484555D2*
X4549763D1*
X4603382D2*
X4625963D1*
X4702163D2*
X4752986D1*
X4846931D2*
X4933572D1*
X5022902D2*
X5121263D1*
X2157083Y6161533D2*
X2240903D1*
X2332343D2*
X2416163D1*
X2470071D2*
X2547050D1*
X2653006D2*
X2739072D1*
X2926703D2*
X3002903D1*
X3117203D2*
X3201023D1*
X3368663D2*
X3517736D1*
X3650603D2*
D3*
X3726803D2*
X3806419D1*
X3970556D2*
X4057095D1*
X4237256D2*
X4338818D1*
X4494383D2*
X4549763D1*
X4611225D2*
X4625963D1*
X4702163D2*
X4750683D1*
X4845779D2*
X4935707D1*
X5025072D2*
X5121263D1*
X2157083Y6153913D2*
X2240903D1*
X2332343D2*
X2416163D1*
X2469713D2*
X2546231D1*
X2655225D2*
X2741167D1*
X2926703D2*
X3002903D1*
X3117203D2*
X3201023D1*
X3368663D2*
X3512803D1*
X3726803D2*
X3799649D1*
X3977651D2*
X4054926D1*
X4138283D2*
X4161143D1*
X4244321D2*
X4330956D1*
X4502102D2*
X4549763D1*
X4617320D2*
X4625963D1*
X4702163D2*
X4749211D1*
X4843886D2*
X4937103D1*
X5027167D2*
X5121263D1*
X2157083Y6146293D2*
X2240903D1*
X2332343D2*
X2416163D1*
X2469503D2*
X2545703D1*
X2657338D2*
X2742550D1*
X2926703D2*
X3002903D1*
X3117203D2*
X3201023D1*
X3368663D2*
X3509393D1*
X3726803D2*
X3794446D1*
X3983220D2*
X4051972D1*
X4133588D2*
X4167266D1*
X4249623D2*
X4324921D1*
X4508294D2*
X4549763D1*
X4621592D2*
X4625963D1*
X4702163D2*
X4748450D1*
X4841908D2*
X4937834D1*
X5028550D2*
X5121263D1*
X2157083Y6138673D2*
X2416163D1*
X2658727D2*
X2743276D1*
X2804783D2*
X3002903D1*
X3117203D2*
X3201023D1*
X3368663D2*
X3507447D1*
X3612503D2*
X3620123D1*
X3726803D2*
X3790064D1*
X3871583D2*
X3909683D1*
X3988365D2*
X4048552D1*
X4129511D2*
X4171722D1*
X4253796D2*
X4320281D1*
X4389743D2*
X4435463D1*
X4513822D2*
X4549763D1*
X4624166D2*
X4625963D1*
X4702163D2*
X4748107D1*
X4840571D2*
X4938166D1*
X5029276D2*
X5121263D1*
X2157083Y6131053D2*
X2416163D1*
X2659455D2*
X2743606D1*
X2804783D2*
X3002903D1*
X3117203D2*
X3201023D1*
X3368663D2*
X3506498D1*
X3602863D2*
X3629763D1*
X3726803D2*
X3786264D1*
X3868066D2*
X3912288D1*
X3993255D2*
X4045159D1*
X4126430D2*
X4174274D1*
X4256861D2*
X4316735D1*
X4387138D2*
X4439271D1*
X4518931D2*
X4549763D1*
X4625963D2*
D3*
X4702163D2*
X4747967D1*
X4839862D2*
X4938302D1*
X5029606D2*
X5121263D1*
X2157083Y6123433D2*
X2416163D1*
X2659786D2*
X2743742D1*
X2804783D2*
X3002903D1*
X3117203D2*
X3201023D1*
X3368663D2*
X3506085D1*
X3595107D2*
X3637519D1*
X3726803D2*
X3783093D1*
X3865877D2*
X3914556D1*
X3997042D2*
X4042396D1*
X4124605D2*
X4175512D1*
X4258665D2*
X4313870D1*
X4384870D2*
X4442436D1*
X4523038D2*
X4549763D1*
X4702163D2*
X4747913D1*
X4839537D2*
X4938354D1*
X5029742D2*
X5121263D1*
X2157083Y6115813D2*
X2416163D1*
X2659922D2*
X2743794D1*
X2804783D2*
X3002903D1*
X3117203D2*
X3201023D1*
X3368663D2*
X3505920D1*
X3592281D2*
X3640345D1*
X3726803D2*
X3780380D1*
X3864740D2*
X3916001D1*
X3999533D2*
X4040733D1*
X4123697D2*
X4176047D1*
X4259529D2*
X4311115D1*
X4383426D2*
X4445370D1*
X4526265D2*
X4571423D1*
X4702163D2*
X4747894D1*
X4839403D2*
X4938373D1*
X5029794D2*
X5121263D1*
X2157083Y6108193D2*
X2416163D1*
X2659974D2*
X2743813D1*
X2804783D2*
X3002903D1*
X3117203D2*
X3201023D1*
X3368663D2*
X3505857D1*
X3590761D2*
X3641866D1*
X3726803D2*
X3777683D1*
X3863981D2*
X3916747D1*
X4001604D2*
X4040146D1*
X4123328D2*
X4176230D1*
X4259654D2*
X4308754D1*
X4382679D2*
X4447816D1*
X4529202D2*
X4587500D1*
X4702163D2*
X4747887D1*
X4839352D2*
X4938380D1*
X5029813D2*
X5121263D1*
X2157083Y6100573D2*
X2416163D1*
X2659993D2*
X2743820D1*
X2804783D2*
X3002903D1*
X3117203D2*
X3201023D1*
X3368663D2*
X3505835D1*
X3590079D2*
X3642548D1*
X3726803D2*
X3775343D1*
X3862811D2*
X3917084D1*
X4003911D2*
X4040767D1*
X4123465D2*
X4176013D1*
X4258812D2*
X4307262D1*
X4382343D2*
X4449349D1*
X4531642D2*
X4599827D1*
X4702163D2*
X4747884D1*
X4839333D2*
X4938382D1*
X5029820D2*
X5121263D1*
X2157083Y6092953D2*
X2416163D1*
X2660000D2*
X2743822D1*
X2804783D2*
X3002903D1*
X3117203D2*
X3201023D1*
X3368663D2*
X3505827D1*
X3589803D2*
X3642823D1*
X3726803D2*
X3773858D1*
X3860911D2*
X3917251D1*
X4006058D2*
X4042706D1*
X4124671D2*
X4174774D1*
X4256749D2*
X4306464D1*
X4382201D2*
X4450173D1*
X4533166D2*
X4605448D1*
X4702163D2*
X4747884D1*
X4839327D2*
X4938383D1*
X5029822D2*
X5121263D1*
X2157083Y6085333D2*
X2416163D1*
X2660002D2*
X2743823D1*
X2804783D2*
X3002903D1*
X3117203D2*
X3201023D1*
X3368663D2*
X3505825D1*
X3589700D2*
X3642927D1*
X3726803D2*
X3773093D1*
X3858930D2*
X3917572D1*
X4007460D2*
X4045631D1*
X4127716D2*
X4171717D1*
X4253519D2*
X4305851D1*
X4382123D2*
X4450703D1*
X4533946D2*
X4609503D1*
X4702163D2*
X4747883D1*
X4839354D2*
X4938383D1*
X5029823D2*
X5121263D1*
X2157083Y6077713D2*
X2416163D1*
X2659973D2*
X2743823D1*
X2804783D2*
X3002903D1*
X3117203D2*
X3201023D1*
X3368663D2*
X3505824D1*
X3589662D2*
X3642964D1*
X3726803D2*
X3772748D1*
X3857592D2*
X3918532D1*
X4008193D2*
X4049359D1*
X4132581D2*
X4166848D1*
X4248865D2*
X4304738D1*
X4534296D2*
X4612802D1*
X4702163D2*
X4747883D1*
X4839621D2*
X4938383D1*
X5029793D2*
X5121263D1*
X2157083Y6070093D2*
X2416163D1*
X2659706D2*
X2743794D1*
X2926703D2*
X3002903D1*
X3117203D2*
X3201023D1*
X3368663D2*
X3505823D1*
X3589650D2*
X3642977D1*
X3726803D2*
X3772607D1*
X3856882D2*
X3920096D1*
X4008525D2*
X4054550D1*
X4138283D2*
X4161143D1*
X4242427D2*
X4302858D1*
X4534439D2*
X4615383D1*
X4702163D2*
X4747913D1*
X4840592D2*
X4938354D1*
X5029526D2*
X5121263D1*
X2157083Y6062473D2*
X2240903D1*
X2332343D2*
X2416163D1*
X2658735D2*
X2743526D1*
X2926703D2*
X3002903D1*
X3117203D2*
X3201023D1*
X3368663D2*
X3505823D1*
X3589645D2*
X3642981D1*
X3726803D2*
X3772553D1*
X3856558D2*
X3921081D1*
X4008662D2*
X4062387D1*
X4235019D2*
X4300865D1*
X4534493D2*
X4616959D1*
X4702163D2*
X4748181D1*
X4842417D2*
X4938086D1*
X5028555D2*
X5121263D1*
X2157083Y6054853D2*
X2240903D1*
X2332343D2*
X2416163D1*
X2469503D2*
X2545703D1*
X2656910D2*
X2742555D1*
X2926703D2*
X3002903D1*
X3117203D2*
X3201023D1*
X3368663D2*
X3505823D1*
X3589644D2*
X3642983D1*
X3726803D2*
X3772534D1*
X3856453D2*
X3920586D1*
X4008714D2*
X4073321D1*
X4228154D2*
X4299414D1*
X4534513D2*
X4617757D1*
X4702163D2*
X4749152D1*
X4844371D2*
X4937115D1*
X5026730D2*
X5121263D1*
X2157083Y6047233D2*
X2240903D1*
X2332343D2*
X2416163D1*
X2469503D2*
X2546911D1*
X2654926D2*
X2740700D1*
X2926703D2*
X3002903D1*
X3117203D2*
X3201023D1*
X3368663D2*
X3505823D1*
X3589644D2*
X3642983D1*
X3726803D2*
X3772527D1*
X3856670D2*
X3919339D1*
X4008704D2*
X4086445D1*
X4222103D2*
X4450703D1*
X4534520D2*
X4618113D1*
X4702163D2*
X4750977D1*
X4845700D2*
X4935290D1*
X5024746D2*
X5121263D1*
X2157083Y6039613D2*
X2240903D1*
X2332343D2*
X2416163D1*
X2469533D2*
X2549068D1*
X2653329D2*
X2738478D1*
X2926703D2*
X3002903D1*
X3117203D2*
X3201023D1*
X3368663D2*
X3505823D1*
X3589643D2*
X3642983D1*
X3726803D2*
X3772554D1*
X3857622D2*
X3918333D1*
X4008442D2*
X4100729D1*
X4233211D2*
X4450703D1*
X4534522D2*
X4618258D1*
X4702163D2*
X4752961D1*
X4846436D2*
X4933306D1*
X5023149D2*
X5121263D1*
X2157083Y6031993D2*
X2240903D1*
X2332343D2*
X2416163D1*
X2469801D2*
X2552042D1*
X2651622D2*
X2736178D1*
X2926703D2*
X3002903D1*
X3117203D2*
X3201023D1*
X3368663D2*
X3505823D1*
X3589643D2*
X3642983D1*
X3726803D2*
X3772821D1*
X3859440D2*
X3917760D1*
X4007473D2*
X4191623D1*
X4242752D2*
X4450703D1*
X4534493D2*
X4618313D1*
X4702163D2*
X4754557D1*
X4847027D2*
X4931709D1*
X5021471D2*
X5121263D1*
X2157083Y6024373D2*
X2240903D1*
X2332343D2*
X2416163D1*
X2470802D2*
X2555499D1*
X2649176D2*
X2733617D1*
X2926703D2*
X3002903D1*
X3117203D2*
X3201023D1*
X3368663D2*
X3505823D1*
X3589643D2*
X3642983D1*
X3726803D2*
X3773792D1*
X3861392D2*
X3917488D1*
X4005649D2*
X4194829D1*
X4250478D2*
X4450674D1*
X4534226D2*
X4618333D1*
X4702163D2*
X4756265D1*
X4848162D2*
X4930002D1*
X5019293D2*
X5121263D1*
X2157083Y6016753D2*
X2240903D1*
X2332343D2*
X2416163D1*
X2472895D2*
X2559428D1*
X2645821D2*
X2731072D1*
X2926703D2*
X3002903D1*
X3117203D2*
X3201023D1*
X3368663D2*
X3505823D1*
X3589643D2*
X3642983D1*
X3726803D2*
X3775647D1*
X3862720D2*
X3917344D1*
X4003666D2*
X4196736D1*
X4256467D2*
X4450406D1*
X4533225D2*
X4618340D1*
X4702163D2*
X4758681D1*
X4850336D2*
X4927556D1*
X5016938D2*
X5121263D1*
X2157083Y6009133D2*
X2240903D1*
X2332343D2*
X2416163D1*
X2475849D2*
X2564153D1*
X2641368D2*
X2728608D1*
X2926703D2*
X3002903D1*
X3117203D2*
X3201023D1*
X3368663D2*
X3505823D1*
X3589643D2*
X3642983D1*
X3726803D2*
X3777868D1*
X3863456D2*
X3917031D1*
X4002069D2*
X4194623D1*
X4261063D2*
X4306214D1*
X4373296D2*
X4449405D1*
X4531132D2*
X4618342D1*
X4702163D2*
X4761769D1*
X4853576D2*
X4924201D1*
X5014557D2*
X5121263D1*
X2157083Y6001513D2*
X2240903D1*
X2332343D2*
X2416163D1*
X2479271D2*
X2569911D1*
X2635730D2*
X2725728D1*
X2926703D2*
X3002903D1*
X3117203D2*
X3201023D1*
X3368663D2*
X3505823D1*
X3589643D2*
X3642983D1*
X3726803D2*
X3780169D1*
X3864107D2*
X3915984D1*
X4000362D2*
X4191623D1*
X4264306D2*
X4307220D1*
X4378818D2*
X4447252D1*
X4528177D2*
X4618343D1*
X4702163D2*
X4765243D1*
X4857984D2*
X4919748D1*
X5011709D2*
X5121263D1*
X2157083Y5993893D2*
X2240903D1*
X2332343D2*
X2416163D1*
X2482932D2*
X2576183D1*
X2629523D2*
X2722193D1*
X2926703D2*
X3002903D1*
X3117203D2*
X3201023D1*
X3368663D2*
X3505823D1*
X3589643D2*
X3642983D1*
X3726803D2*
X3782730D1*
X3865078D2*
X3913571D1*
X3997916D2*
X4104996D1*
X4265901D2*
X4309314D1*
X4384069D2*
X4443741D1*
X4524755D2*
X4618343D1*
X4702163D2*
X4768923D1*
X4863605D2*
X4914110D1*
X5008186D2*
X5121263D1*
X2157083Y5986273D2*
X2240903D1*
X2332343D2*
X2416163D1*
X2486707D2*
X2717898D1*
X2774303D2*
X3002903D1*
X3117203D2*
X3201023D1*
X3368663D2*
X3505823D1*
X3589643D2*
X3642983D1*
X3726803D2*
X3785305D1*
X3868927D2*
X3909241D1*
X3994589D2*
X4077661D1*
X4266328D2*
X4312269D1*
X4390815D2*
X4438162D1*
X4521094D2*
X4618343D1*
X4702163D2*
X4772704D1*
X4869803D2*
X4907903D1*
X5003896D2*
X5121263D1*
X2157083Y5978653D2*
X2240903D1*
X2332343D2*
X2416163D1*
X2490770D2*
X2713061D1*
X2774303D2*
X3002903D1*
X3117203D2*
X3201023D1*
X3368663D2*
X3505823D1*
X3589643D2*
X3642983D1*
X3726803D2*
X3788036D1*
X3877299D2*
X3902586D1*
X3990353D2*
X4057890D1*
X4263037D2*
X4315751D1*
X4400629D2*
X4429938D1*
X4517290D2*
X4618343D1*
X4702163D2*
X4776799D1*
X4999031D2*
X5121263D1*
X2157083Y5971033D2*
X2240903D1*
X2332343D2*
X2416163D1*
X2495597D2*
X2708137D1*
X2774303D2*
X3002903D1*
X3117203D2*
X3201023D1*
X3368663D2*
X3505823D1*
X3589643D2*
X3642983D1*
X3726803D2*
X3791918D1*
X3886823D2*
X3894443D1*
X3985284D2*
X4044253D1*
X4257719D2*
X4319948D1*
X4412603D2*
X4420223D1*
X4512959D2*
X4618343D1*
X4702163D2*
X4781865D1*
X4993869D2*
X5121263D1*
X2157083Y5963413D2*
X2240903D1*
X2332343D2*
X2416163D1*
X2501772D2*
X2702570D1*
X2774303D2*
X3002903D1*
X3117203D2*
X3201023D1*
X3368663D2*
X3505823D1*
X3589643D2*
X3642983D1*
X3726803D2*
X3797605D1*
X3979372D2*
X4034785D1*
X4250193D2*
X4325695D1*
X4507161D2*
X4618343D1*
X4702163D2*
X4788802D1*
X4987569D2*
X5121263D1*
X2157083Y5955793D2*
X2240903D1*
X2332343D2*
X2416163D1*
X2509590D2*
X2695140D1*
X2774303D2*
X3002903D1*
X3117203D2*
X3201023D1*
X3368663D2*
X3505823D1*
X3589643D2*
X3642983D1*
X3726803D2*
X3805450D1*
X3971657D2*
X4028111D1*
X4240537D2*
X4333765D1*
X4499072D2*
X4618343D1*
X4702163D2*
X4798010D1*
X4978958D2*
X5121263D1*
X2157083Y5948173D2*
X2240903D1*
X2332343D2*
X2416163D1*
X2519524D2*
X2684904D1*
X2774303D2*
X3002903D1*
X3117203D2*
X3201023D1*
X3368663D2*
X3505823D1*
X3589643D2*
X3642983D1*
X3726803D2*
X3816260D1*
X3960749D2*
X4023260D1*
X4229723D2*
X4344317D1*
X4488513D2*
X4618343D1*
X4702163D2*
X4810026D1*
X4967037D2*
X5121263D1*
X2157083Y5940553D2*
X2240903D1*
X2332343D2*
X2416163D1*
X2532495D2*
X2671412D1*
X2774303D2*
X3002903D1*
X3117203D2*
X3201023D1*
X3368663D2*
X3505823D1*
X3589643D2*
X3642983D1*
X3726803D2*
X3831081D1*
X3945253D2*
X4019897D1*
X4176383D2*
X4184003D1*
X4241748D2*
X4358309D1*
X4474519D2*
X4618343D1*
X4702163D2*
X4826136D1*
X4949939D2*
X5121263D1*
X2157083Y5932933D2*
X2240903D1*
X2332343D2*
X2416163D1*
X2549314D2*
X2655015D1*
X2774303D2*
X3002903D1*
X3117203D2*
X3201023D1*
X3368663D2*
X3505823D1*
X3589643D2*
X3642983D1*
X3726803D2*
X3850153D1*
X3924894D2*
X4018003D1*
X4138604D2*
X4192216D1*
X4252439D2*
X4376598D1*
X4456229D2*
X4618343D1*
X4702163D2*
X4846794D1*
X4926762D2*
X5121263D1*
X2568563Y5925313D2*
X2637143D1*
X3368663D2*
X3871583D1*
X3902063D2*
X4017331D1*
X4110008D2*
X4198452D1*
X4261016D2*
X4397363D1*
X4435463D2*
X4869803D1*
X4900283D2*
X5121263D1*
X3368663Y5917693D2*
X4017922D1*
X4099185D2*
X4203248D1*
X4267239D2*
X5121263D1*
X3368663Y5910073D2*
X4019850D1*
X4095025D2*
X4204422D1*
X4271313D2*
X5121263D1*
X3368663Y5902453D2*
X4022743D1*
X4094363D2*
X4201691D1*
X4273955D2*
X5121263D1*
X3368663Y5894833D2*
X4026172D1*
X4096865D2*
X4197116D1*
X4273552D2*
X5121263D1*
X3368663Y5887213D2*
X4030124D1*
X4100183D2*
X4191623D1*
X4271772D2*
X5121263D1*
X3368663Y5879593D2*
X4035165D1*
X4268644D2*
X5121263D1*
X3368663Y5871973D2*
X4042410D1*
X4263658D2*
X5121263D1*
X3368663Y5864353D2*
X4053124D1*
X4256783D2*
X5121263D1*
X3368663Y5856733D2*
X4068932D1*
X4241521D2*
X5121263D1*
X3368663Y5849113D2*
X4090524D1*
X4221656D2*
X5121263D1*
X3368663Y5841493D2*
X4115423D1*
X4199243D2*
X5121263D1*
X3368663Y5833873D2*
X5121263D1*
X3368663Y5826253D2*
X5121263D1*
X3368663Y5818633D2*
X5121263D1*
X1480017Y4869643D2*
X2310597D1*
X1480017Y4862023D2*
X2314114D1*
X1480017Y4854403D2*
X2316303D1*
X1480017Y4846783D2*
X2317410D1*
X1480017Y4839163D2*
X2317901D1*
X1480017Y4831543D2*
X2318100D1*
X1480017Y4823923D2*
X2318175D1*
X1480017Y4816303D2*
X2318203D1*
X1480017Y4808683D2*
X1906707D1*
X2060344D2*
X2318212D1*
X1480017Y4801063D2*
X1906439D1*
X2054881D2*
X2258144D1*
X2272497D2*
X2318215D1*
X1480017Y4793443D2*
X1905468D1*
X2050235D2*
X2251437D1*
X2272497D2*
X2318216D1*
X1480017Y4785823D2*
X1903643D1*
X2046042D2*
X2243963D1*
X2272497D2*
X2318217D1*
X1480017Y4778203D2*
X1901689D1*
X2042085D2*
X2235753D1*
X2272497D2*
X2318217D1*
X1480017Y4770583D2*
X1900360D1*
X2038240D2*
X2227780D1*
X2272497D2*
X2318217D1*
X1480017Y4762963D2*
X1899654D1*
X2034683D2*
X2220748D1*
X2272497D2*
X2318217D1*
X1480017Y4755343D2*
X1899330D1*
X2031831D2*
X2214764D1*
X2272497D2*
X2318217D1*
X1480017Y4747723D2*
X1899197D1*
X2029850D2*
X2209016D1*
X2272497D2*
X2318217D1*
X1480017Y4740103D2*
X1899145D1*
X2027986D2*
X2202692D1*
X2272497D2*
X2318217D1*
X1480017Y4732483D2*
X1899127D1*
X2025511D2*
X2195766D1*
X2272497D2*
X2318217D1*
X1480017Y4724863D2*
X1899120D1*
X2022402D2*
X2188465D1*
X2272497D2*
X2318217D1*
X1480017Y4717243D2*
X1899118D1*
X2018921D2*
X2181007D1*
X2272497D2*
X2318217D1*
X1480017Y4709623D2*
X1899117D1*
X2015268D2*
X2173766D1*
X2272497D2*
X2318217D1*
X1480017Y4702003D2*
X1899117D1*
X2011754D2*
X2167701D1*
X2272497D2*
X2318217D1*
X1480017Y4694383D2*
X1899117D1*
X2008690D2*
X2163092D1*
X2272497D2*
X2318217D1*
X1480017Y4686763D2*
X1899117D1*
X2006014D2*
X2163462D1*
X2272497D2*
X2318217D1*
X1480017Y4679143D2*
X1899087D1*
X2003300D2*
X2165616D1*
X2272497D2*
X2318217D1*
X1480017Y4671523D2*
X1898819D1*
X2000697D2*
X2169285D1*
X2272497D2*
X2318217D1*
X1480017Y4663903D2*
X1897848D1*
X1998242D2*
X2173838D1*
X2272497D2*
X2318217D1*
X1480017Y4656283D2*
X1896023D1*
X1995652D2*
X2178368D1*
X2272497D2*
X2318217D1*
X1480017Y4648663D2*
X1894069D1*
X1993384D2*
X2182602D1*
X2272497D2*
X2318217D1*
X1480017Y4641043D2*
X1892710D1*
X1992182D2*
X2186628D1*
X2272497D2*
X2318217D1*
X1480017Y4633423D2*
X1891736D1*
X1992392D2*
X2190523D1*
X2272497D2*
X2318217D1*
X1480017Y4625803D2*
X1890412D1*
X1993874D2*
X2194374D1*
X2272497D2*
X2318217D1*
X1480017Y4618183D2*
X1888156D1*
X1995688D2*
X2198192D1*
X2272497D2*
X2318217D1*
X1480017Y4610563D2*
X1884911D1*
X1996963D2*
X2081997D1*
X2106324D2*
X2201983D1*
X2272497D2*
X2318217D1*
X1480017Y4602943D2*
X1880738D1*
X1997620D2*
X2074377D1*
X2109190D2*
X2205520D1*
X2272497D2*
X2318217D1*
X1480017Y4595323D2*
X1875948D1*
X1997639D2*
X2066757D1*
X2113019D2*
X2208366D1*
X2272497D2*
X2318217D1*
X1480017Y4587703D2*
X1871071D1*
X1996502D2*
X2059137D1*
X2116576D2*
X2210345D1*
X2272497D2*
X2318217D1*
X1480017Y4580083D2*
X1865808D1*
X1993488D2*
X2051546D1*
X2119614D2*
X2212177D1*
X2272497D2*
X2318217D1*
X1480017Y4572463D2*
X1859708D1*
X1988727D2*
X2044254D1*
X2122737D2*
X2214384D1*
X2272497D2*
X2318217D1*
X1480017Y4564843D2*
X1853124D1*
X1983328D2*
X2038171D1*
X2126119D2*
X2216493D1*
X2272497D2*
X2318217D1*
X1480017Y4557223D2*
X1846820D1*
X1978072D2*
X2033553D1*
X2129458D2*
X2217911D1*
X2272497D2*
X2318217D1*
X1480017Y4549603D2*
X1841167D1*
X1972621D2*
X2033632D1*
X2132219D2*
X2218906D1*
X2272497D2*
X2318217D1*
X1480017Y4541983D2*
X1835554D1*
X1966410D2*
X2034809D1*
X2134164D2*
X2220208D1*
X2272497D2*
X2318217D1*
X1480017Y4534363D2*
X1829313D1*
X1959525D2*
X2036622D1*
X2135984D2*
X2222169D1*
X2272497D2*
X2318217D1*
X1480017Y4526743D2*
X1822674D1*
X1952268D2*
X2038953D1*
X2138187D2*
X2224175D1*
X2272497D2*
X2318217D1*
X1480017Y4519123D2*
X1816351D1*
X1945023D2*
X2041153D1*
X2140294D2*
X2225523D1*
X2272497D2*
X2318217D1*
X1480017Y4511503D2*
X1810690D1*
X1938159D2*
X2042588D1*
X2141681D2*
X2226236D1*
X2272497D2*
X2318217D1*
X1480017Y4503883D2*
X1805075D1*
X1931412D2*
X2043336D1*
X2142409D2*
X2226562D1*
X2272497D2*
X2318217D1*
X1480017Y4496263D2*
X1798803D1*
X1923957D2*
X2043675D1*
X2142739D2*
X2226696D1*
X2272497D2*
X2318217D1*
X1480017Y4488643D2*
X1791926D1*
X1915982D2*
X2043814D1*
X2142875D2*
X2226748D1*
X2272497D2*
X2318217D1*
X1480017Y4481023D2*
X1784900D1*
X1908712D2*
X2043837D1*
X2142928D2*
X2226767D1*
X2272497D2*
X2318217D1*
X1480017Y4473403D2*
X1778385D1*
X1902534D2*
X2043589D1*
X2142947D2*
X2226773D1*
X2272497D2*
X2318217D1*
X1480017Y4465783D2*
X1772642D1*
X1896678D2*
X2042625D1*
X2142953D2*
X2226776D1*
X2272497D2*
X2318217D1*
X1480017Y4458163D2*
X1766994D1*
X1890305D2*
X2040772D1*
X2142956D2*
X2226776D1*
X2272497D2*
X2318217D1*
X1480017Y4450543D2*
X1760710D1*
X1883358D2*
X2038551D1*
X2142927D2*
X2226747D1*
X2272497D2*
X2318217D1*
X1480017Y4442923D2*
X1753799D1*
X1876050D2*
X2036251D1*
X2142659D2*
X2226479D1*
X2272497D2*
X2318217D1*
X1480017Y4435303D2*
X1746503D1*
X1868559D2*
X1925002D1*
X1936867D2*
X2033690D1*
X2141688D2*
X2225508D1*
X2272497D2*
X2318217D1*
X1480017Y4427683D2*
X1739017D1*
X1861019D2*
X1914788D1*
X1942924D2*
X2031115D1*
X2139833D2*
X2223683D1*
X2272497D2*
X2318217D1*
X1480017Y4420063D2*
X1731478D1*
X1853685D2*
X1910934D1*
X1947478D2*
X2028384D1*
X2137612D2*
X2221699D1*
X2272497D2*
X2318217D1*
X1480017Y4412443D2*
X1724144D1*
X1847042D2*
X1912072D1*
X1946735D2*
X2024532D1*
X2135311D2*
X2220103D1*
X2272497D2*
X2318217D1*
X1480017Y4404823D2*
X1717502D1*
X1841249D2*
X1914357D1*
X1944837D2*
X2019143D1*
X2132750D2*
X2218425D1*
X2272497D2*
X2318217D1*
X1480017Y4397203D2*
X1711709D1*
X1835584D2*
X2012626D1*
X2130205D2*
X2216277D1*
X2272497D2*
X2318217D1*
X1480017Y4389583D2*
X1706044D1*
X1829293D2*
X2005430D1*
X2127742D2*
X2214159D1*
X2272497D2*
X2318217D1*
X1480017Y4381963D2*
X1699753D1*
X1822380D2*
X1997438D1*
X2124891D2*
X2212511D1*
X2272497D2*
X2318217D1*
X1480017Y4374343D2*
X1692840D1*
X1815083D2*
X1987648D1*
X2121594D2*
X2210815D1*
X2272497D2*
X2318217D1*
X1480017Y4366723D2*
X1685543D1*
X1807597D2*
X1975098D1*
X2118002D2*
X2208630D1*
X2272497D2*
X2318217D1*
X1480017Y4359103D2*
X1678057D1*
X1800028D2*
X1853687D1*
X1883877D2*
X1960347D1*
X2114020D2*
X2206273D1*
X2272497D2*
X2318217D1*
X1480017Y4351483D2*
X1670488D1*
X1792427D2*
X1847044D1*
X1906737D2*
X1944837D1*
X2109284D2*
X2203891D1*
X2272497D2*
X2318217D1*
X1480017Y4343863D2*
X1662887D1*
X1784813D2*
X1841250D1*
X2103657D2*
X2201042D1*
X2272497D2*
X2318217D1*
X1480017Y4336243D2*
X1655244D1*
X1777196D2*
X1835584D1*
X2097875D2*
X2197520D1*
X2272497D2*
X2318217D1*
X1480017Y4328623D2*
X1647388D1*
X1769576D2*
X1829299D1*
X2092434D2*
X2193259D1*
X2272497D2*
X2318217D1*
X1480017Y4321003D2*
X1639035D1*
X1761986D2*
X1822426D1*
X2086655D2*
X2188691D1*
X2272497D2*
X2318217D1*
X1480017Y4313383D2*
X1630294D1*
X1754634D2*
X1815297D1*
X2079452D2*
X2184769D1*
X2272497D2*
X2318217D1*
X1480017Y4305763D2*
X1621574D1*
X1747985D2*
X1823237D1*
X2070705D2*
X2181324D1*
X2272497D2*
X2318217D1*
X1480017Y4298143D2*
X1612784D1*
X1742190D2*
X1832131D1*
X2061164D2*
X2177147D1*
X2272497D2*
X2318217D1*
X1480017Y4290523D2*
X1604160D1*
X1736524D2*
X1842906D1*
X2051023D2*
X2171653D1*
X2272497D2*
X2318217D1*
X1480017Y4282903D2*
X1597161D1*
X1730263D2*
X1856154D1*
X2039075D2*
X2165352D1*
X2272497D2*
X2318217D1*
X1480017Y4275283D2*
X1592006D1*
X1723647D2*
X1872503D1*
X2023756D2*
X2159168D1*
X2272497D2*
X2318217D1*
X1480017Y4267663D2*
X1592372D1*
X1717649D2*
X1892397D1*
X2004477D2*
X2153531D1*
X2272497D2*
X2318217D1*
X1480017Y4260043D2*
X1596755D1*
X1712664D2*
X1914357D1*
X1982937D2*
X2147668D1*
X2272497D2*
X2318217D1*
X1480017Y4252423D2*
X1601792D1*
X1711121D2*
X2140431D1*
X2272497D2*
X2318217D1*
X1480017Y4244803D2*
X1606613D1*
X1712391D2*
X2131672D1*
X2272497D2*
X2318217D1*
X1480017Y4237183D2*
X1610995D1*
X1714242D2*
X2122156D1*
X2272497D2*
X2318217D1*
X1480017Y4229563D2*
X1615086D1*
X1716371D2*
X2112371D1*
X2272497D2*
X2318217D1*
X1480017Y4221943D2*
X1619037D1*
X1718833D2*
X2102241D1*
X2272497D2*
X2318217D1*
X1480017Y4214323D2*
X1623137D1*
X1721114D2*
X1809174D1*
X1821739D2*
X2092066D1*
X2272497D2*
X2318217D1*
X1480017Y4206703D2*
X1627691D1*
X1722835D2*
X1812308D1*
X1835149D2*
X2081661D1*
X2272497D2*
X2318217D1*
X1480017Y4199083D2*
X1533357D1*
X1550064D2*
X1632605D1*
X1724591D2*
X1817108D1*
X1848997D2*
X2069612D1*
X2272497D2*
X2318217D1*
X1480017Y4191463D2*
X1533357D1*
X1552960D2*
X1637272D1*
X1727025D2*
X1822519D1*
X1865252D2*
X2054255D1*
X2272497D2*
X2318217D1*
X1480017Y4183843D2*
X1533357D1*
X1557057D2*
X1641586D1*
X1730120D2*
X1827779D1*
X1884953D2*
X2034963D1*
X2272497D2*
X2318217D1*
X1480017Y4176223D2*
X1533357D1*
X1561585D2*
X1645897D1*
X1733595D2*
X1833232D1*
X1906737D2*
X2013417D1*
X2272497D2*
X2318217D1*
X1480017Y4168603D2*
X1533357D1*
X1566448D2*
X1650769D1*
X1737276D2*
X1839443D1*
X2272497D2*
X2318217D1*
X1480017Y4160983D2*
X1533357D1*
X1571555D2*
X1656447D1*
X1741057D2*
X1846298D1*
X2272497D2*
X2318217D1*
X1480017Y4153363D2*
X1533357D1*
X1576533D2*
X1662219D1*
X1745093D2*
X1853347D1*
X2272497D2*
X2318217D1*
X1480017Y4145743D2*
X1533357D1*
X1581580D2*
X1667339D1*
X1749623D2*
X1860127D1*
X2272497D2*
X2318217D1*
X1480017Y4138123D2*
X1533357D1*
X1586756D2*
X1671583D1*
X1754558D2*
X1866841D1*
X2272497D2*
X2318217D1*
X1480017Y4130503D2*
X1533357D1*
X1591790D2*
X1674722D1*
X1759461D2*
X1874343D1*
X2272497D2*
X2318217D1*
X1480017Y4122883D2*
X1533357D1*
X1597083D2*
X1676567D1*
X1764478D2*
X1882849D1*
X2272497D2*
X2318217D1*
X1480017Y4115263D2*
X1533357D1*
X1602966D2*
X1677450D1*
X1769643D2*
X1892060D1*
X2272497D2*
X2318217D1*
X1480017Y4107643D2*
X1533357D1*
X1608849D2*
X1677583D1*
X1774672D2*
X1901917D1*
X2272437D2*
X2318217D1*
X1480017Y4100023D2*
X1533357D1*
X1614237D2*
X1676774D1*
X1779994D2*
X1911978D1*
X2271842D2*
X2318217D1*
X1480017Y4092403D2*
X1533357D1*
X1619444D2*
X1674980D1*
X1786144D2*
X1922308D1*
X2270413D2*
X2318217D1*
X1480017Y4084783D2*
X1533357D1*
X1624797D2*
X1672780D1*
X1793003D2*
X1934029D1*
X2263364D2*
X2318217D1*
X1480017Y4077163D2*
X1533357D1*
X1621249D2*
X1670488D1*
X1800281D2*
X1948062D1*
X2252764D2*
X2318217D1*
X1480017Y4069543D2*
X1533357D1*
X1618793D2*
X1667929D1*
X1807760D2*
X1964706D1*
X2238541D2*
X2318217D1*
X1480017Y4061923D2*
X1533357D1*
X1616714D2*
X1665385D1*
X1815356D2*
X1984821D1*
X2219818D2*
X2318217D1*
X1480017Y4054303D2*
X1533357D1*
X1614369D2*
X1662951D1*
X1823225D2*
X2010867D1*
X2194074D2*
X2318217D1*
X1480017Y4046683D2*
X1533357D1*
X1611948D2*
X1660339D1*
X1831839D2*
X2044339D1*
X2159655D2*
X2318217D1*
X1480017Y4039063D2*
X1533357D1*
X1609573D2*
X1657775D1*
X1841579D2*
X2081997D1*
X2120097D2*
X2318217D1*
X1480017Y4031443D2*
X1533357D1*
X1606984D2*
X1655335D1*
X1852391D2*
X2318217D1*
X1480017Y4023823D2*
X1533357D1*
X1604430D2*
X1652749D1*
X1864195D2*
X2318217D1*
X1480017Y4016203D2*
X1533357D1*
X1601993D2*
X1650423D1*
X1876866D2*
X2318217D1*
X1480017Y4008583D2*
X1533357D1*
X1599379D2*
X1648686D1*
X1890362D2*
X2318217D1*
X1480017Y4000963D2*
X1533357D1*
X1596815D2*
X1646955D1*
X1905367D2*
X2318217D1*
X1480017Y3993343D2*
X1533357D1*
X1594375D2*
X1644757D1*
X1922368D2*
X2318217D1*
X1480017Y3985723D2*
X1533357D1*
X1591789D2*
X1642395D1*
X1941650D2*
X2249227D1*
X2272497D2*
X2318217D1*
X1480017Y3978103D2*
X1533357D1*
X1589463D2*
X1640011D1*
X1964436D2*
X2224224D1*
X2272497D2*
X2318217D1*
X1480017Y3970483D2*
X1533357D1*
X1587726D2*
X1637192D1*
X1992833D2*
X2194763D1*
X2272497D2*
X2318217D1*
X1480017Y3962863D2*
X1533357D1*
X1585995D2*
X1633938D1*
X2027907D2*
X2159215D1*
X2272497D2*
X2318217D1*
X1480017Y3955243D2*
X1533357D1*
X1583797D2*
X1630618D1*
X2066757D2*
X2120097D1*
X2272497D2*
X2318217D1*
X1480017Y3947623D2*
X1533357D1*
X1581435D2*
X1627637D1*
X2272497D2*
X2318217D1*
X1480017Y3940003D2*
X1533357D1*
X1579081D2*
X1624995D1*
X2272497D2*
X2318217D1*
X1480017Y3932383D2*
X1533357D1*
X1576500D2*
X1622323D1*
X2272497D2*
X2318217D1*
X1480017Y3924763D2*
X1533357D1*
X1573949D2*
X1619993D1*
X2272497D2*
X2318217D1*
X1480017Y3917143D2*
X1533357D1*
X1571513D2*
X1618481D1*
X2272497D2*
X2318217D1*
X1480017Y3909523D2*
X1533357D1*
X1568899D2*
X1617448D1*
X2272467D2*
X2318217D1*
X1480017Y3901903D2*
X1533357D1*
X1566335D2*
X1616103D1*
X1906737D2*
D3*
X2272169D2*
X2318217D1*
X1480017Y3894283D2*
X1533357D1*
X1563895D2*
X1613869D1*
X1906707D2*
X1929597D1*
X2270811D2*
X2318217D1*
X1480017Y3886663D2*
X1533357D1*
X1561280D2*
X1610890D1*
X1906439D2*
X1945216D1*
X2268166D2*
X2318217D1*
X1480017Y3879043D2*
X1533357D1*
X1558715D2*
X1607687D1*
X1905468D2*
X1962326D1*
X2257986D2*
X2318217D1*
X1480017Y3871423D2*
X1533357D1*
X1556275D2*
X1604752D1*
X1903643D2*
X1983194D1*
X2240806D2*
X2318217D1*
X1480017Y3863803D2*
X1533357D1*
X1553690D2*
X1602126D1*
X1901689D2*
X2009608D1*
X2215473D2*
X2318217D1*
X1480017Y3856183D2*
X1533357D1*
X1551393D2*
X1599430D1*
X1900330D2*
X2040911D1*
X2184232D2*
X2318217D1*
X1480017Y3848563D2*
X1533357D1*
X1549918D2*
X1596834D1*
X1899356D2*
X2318217D1*
X1480017Y3840943D2*
X1533357D1*
X1549116D2*
X1594381D1*
X1898056D2*
X2318217D1*
X1480017Y3833323D2*
X1533357D1*
X1548597D2*
X1591792D1*
X1822917D2*
X1845777D1*
X1896033D2*
X2318217D1*
X1480017Y3825703D2*
X1589464D1*
X1819109D2*
X1853397D1*
X1893712D2*
X2318217D1*
X1480017Y3818083D2*
X1587726D1*
X1815944D2*
X1861017D1*
X1891497D2*
X2318217D1*
X1480017Y3810463D2*
X1585995D1*
X1813010D2*
X2318217D1*
X1480017Y3802843D2*
X1583797D1*
X1810565D2*
X2318217D1*
X1480017Y3795223D2*
X1581435D1*
X1809037D2*
X2318217D1*
X1480017Y3787603D2*
X1579081D1*
X1808255D2*
X2318217D1*
X1480017Y3779983D2*
X1576500D1*
X1807875D2*
X2318217D1*
X1480017Y3772363D2*
X1573949D1*
X1807464D2*
X2318217D1*
X1480017Y3764743D2*
X1571513D1*
X1806438D2*
X2318217D1*
X1480017Y3757123D2*
X1568899D1*
X1804563D2*
X2318217D1*
X1480017Y3749503D2*
X1566335D1*
X1802335D2*
X2318217D1*
X1480017Y3741883D2*
X1563895D1*
X1708617D2*
X1731477D1*
X1800003D2*
X2318217D1*
X1480017Y3734263D2*
X1561280D1*
X1707439D2*
X1739409D1*
X1797179D2*
X2318217D1*
X1480017Y3726643D2*
X1558715D1*
X1705550D2*
X1748212D1*
X1793704D2*
X2318217D1*
X1480017Y3719023D2*
X1556275D1*
X1703577D2*
X1758439D1*
X1789517D2*
X2318217D1*
X1480017Y3711403D2*
X1553690D1*
X1702242D2*
X1769577D1*
X1784817D2*
X2318217D1*
X1480017Y3703783D2*
X1551363D1*
X1701534D2*
X2318217D1*
X1480017Y3696163D2*
X1549626D1*
X1701211D2*
X2318217D1*
X1480017Y3688543D2*
X1547865D1*
X1701077D2*
X2318217D1*
X1480017Y3680923D2*
X1545429D1*
X1701025D2*
X2318217D1*
X1480017Y3673303D2*
X1542364D1*
X1701007D2*
X2318217D1*
X1480017Y3665683D2*
X1539126D1*
X1700970D2*
X2318217D1*
X1480017Y3658063D2*
X1536179D1*
X1700700D2*
X2318217D1*
X1480017Y3650443D2*
X1533549D1*
X1699728D2*
X2318217D1*
X1480017Y3642823D2*
X1530881D1*
X1697903D2*
X2318217D1*
X1480017Y3635203D2*
X1528551D1*
X1695949D2*
X2318217D1*
X1480017Y3627583D2*
X1527064D1*
X1694614D2*
X2318217D1*
X1480017Y3619963D2*
X1526258D1*
X1693868D2*
X2318217D1*
X1480017Y3612343D2*
X2318217D1*
X1480017Y3604723D2*
X2318217D1*
X1480017Y3597103D2*
X2318217D1*
X1480017Y3589483D2*
X2318217D1*
X1480017Y3581863D2*
X2318217D1*
X1480017Y3574243D2*
X2318217D1*
X1480017Y3566623D2*
X2318217D1*
X1480017Y3559003D2*
X2318217D1*
X3313380Y4645027D2*
Y4637407D1*
Y4629787D1*
Y4622167D1*
Y4614547D1*
Y4606927D1*
Y4599307D1*
Y4591687D1*
Y4584067D1*
Y4576447D1*
Y4568827D1*
Y4561207D1*
Y4553587D1*
Y4545967D1*
Y4538347D1*
Y4530727D1*
Y4523107D1*
Y4515487D1*
Y4507867D1*
Y4500247D1*
Y4492627D1*
Y4485007D1*
Y4477387D1*
Y4469767D1*
Y4462147D1*
Y4454527D1*
Y4446907D1*
Y4439287D1*
Y4431667D1*
Y4424047D1*
Y4416427D1*
Y4408807D1*
Y4401187D1*
Y4393567D1*
Y4385947D1*
Y4378327D1*
Y4370707D1*
Y4363087D1*
Y4355467D1*
Y4347847D1*
Y4340227D1*
Y4332607D1*
Y4324987D1*
Y4317367D1*
Y4309747D1*
Y4302127D1*
Y4294507D1*
Y4286887D1*
Y4279267D1*
Y4271647D1*
Y4264027D1*
Y4256407D1*
Y4248787D1*
Y4241167D1*
Y4233547D1*
Y4225927D1*
Y4218307D1*
Y4210687D1*
Y4203067D1*
Y4195447D1*
Y4187827D1*
Y4180207D1*
Y4172587D1*
Y4164967D1*
Y4157347D1*
Y4149727D1*
Y4142107D1*
Y4134487D1*
Y4126867D1*
Y4119247D1*
Y4111627D1*
X3313410Y4104007D1*
X3313678Y4096387D1*
X3314649Y4088767D1*
X3316475Y4081147D1*
X3318448Y4073527D1*
X3319893Y4065907D1*
X3321000Y4058287D1*
X3374340D1*
Y4050667D1*
X3648660Y4645027D2*
X3646055Y4637407D1*
X3643787Y4629787D1*
X3642343Y4622167D1*
X3641566Y4614547D1*
X3640962Y4606927D1*
X3639823Y4599307D1*
X3637588Y4591687D1*
X3633751Y4584067D1*
X3628373Y4576447D1*
X3615301Y4568827D1*
X3598603Y4561207D1*
X3580080Y4553587D1*
X3732480Y4645027D2*
X3733658Y4637407D1*
X3735547Y4629787D1*
X3737520Y4622167D1*
X3738884Y4614547D1*
X3739860Y4606927D1*
X3741185Y4599307D1*
X3743501Y4591687D1*
X3747370Y4584067D1*
X3752764Y4576447D1*
X3765838Y4568827D1*
X3782536Y4561207D1*
X3801060Y4553587D1*
X4060140Y4645027D2*
Y4637407D1*
Y4629787D1*
Y4622167D1*
Y4614547D1*
Y4606927D1*
Y4599307D1*
Y4591687D1*
Y4584067D1*
Y4576447D1*
Y4568827D1*
Y4561207D1*
Y4553587D1*
Y4545967D1*
Y4538347D1*
Y4530727D1*
Y4523107D1*
Y4515487D1*
Y4507867D1*
Y4500247D1*
Y4492627D1*
Y4485007D1*
Y4477387D1*
Y4469767D1*
Y4462147D1*
Y4454527D1*
Y4446907D1*
Y4439287D1*
Y4431667D1*
Y4424047D1*
Y4416427D1*
Y4408807D1*
Y4401187D1*
Y4393567D1*
Y4385947D1*
Y4378327D1*
Y4370707D1*
Y4363087D1*
Y4355467D1*
Y4347847D1*
Y4340227D1*
Y4332607D1*
Y4324987D1*
Y4317367D1*
Y4309747D1*
Y4302127D1*
Y4294507D1*
Y4286887D1*
Y4279267D1*
Y4271647D1*
Y4264027D1*
Y4256407D1*
Y4248787D1*
Y4241167D1*
Y4233547D1*
Y4225927D1*
Y4218307D1*
Y4210687D1*
Y4203067D1*
Y4195447D1*
Y4187827D1*
Y4180207D1*
Y4172587D1*
Y4164967D1*
Y4157347D1*
Y4149727D1*
Y4142107D1*
Y4134487D1*
Y4126867D1*
Y4119247D1*
X4060080Y4111627D1*
X4059500Y4104007D1*
X4058116Y4096387D1*
X4052178Y4088767D1*
X4044900Y4081147D1*
X4051022Y4073527D1*
X4055449Y4065907D1*
X4058427Y4058287D1*
X4058154Y4050667D1*
X4052935Y4043047D1*
X4038753Y4035427D1*
X4022040Y4027807D1*
X4060140Y4020187D1*
Y4012567D1*
Y4004947D1*
Y3997327D1*
Y3989707D1*
Y3982087D1*
Y3974467D1*
Y3966847D1*
Y3959227D1*
Y3951607D1*
Y3943987D1*
Y3936367D1*
Y3928747D1*
Y3921127D1*
Y3913507D1*
X3503880Y4591687D2*
X3496260Y4584067D1*
X3488640Y4576447D1*
X3481050Y4568827D1*
X3473727Y4561207D1*
X3467406Y4553587D1*
X3462253Y4545967D1*
X3460798Y4538347D1*
X3463425Y4530727D1*
X3467870Y4523107D1*
X3473112Y4515487D1*
X3478273Y4507867D1*
X3483372Y4500247D1*
X3488038Y4492627D1*
X3491755Y4485007D1*
X3491203Y4477387D1*
X3489210Y4469767D1*
X3486467Y4462147D1*
X3483722Y4454527D1*
X3481021Y4446907D1*
X3477916Y4439287D1*
X3470598Y4431667D1*
X3450593Y4424047D1*
X3422316Y4416427D1*
X3389580Y4408807D1*
Y4401187D1*
Y4393567D1*
Y4385947D1*
Y4378327D1*
Y4370707D1*
Y4363087D1*
Y4355467D1*
Y4347847D1*
Y4340227D1*
X3421399Y4332607D1*
X3445839Y4324987D1*
X3463972Y4317367D1*
X3471527Y4309747D1*
X3476678Y4302127D1*
X3480284Y4294507D1*
X3483612Y4286887D1*
X3487273Y4279267D1*
X3491528Y4271647D1*
X3496260Y4264027D1*
X3489818Y4256407D1*
X3484117Y4248787D1*
X3478737Y4241167D1*
X3473423Y4233547D1*
X3468338Y4225927D1*
X3463015Y4218307D1*
X3456977Y4210687D1*
X3450540Y4203067D1*
X3460765Y4195447D1*
X3470653Y4187827D1*
X3479723Y4180207D1*
X3488130Y4172587D1*
X3496260Y4164967D1*
X3519120Y4591687D2*
X3527947Y4584067D1*
X3537748Y4576447D1*
X3548538Y4568827D1*
X3560213Y4561207D1*
X3572460Y4553587D1*
X3869640Y4591687D2*
X3855607Y4584067D1*
X3842548Y4576447D1*
X3830478Y4568827D1*
X3819293Y4561207D1*
X3808680Y4553587D1*
X3877260Y4591687D2*
X3884880Y4584067D1*
X3892500Y4576447D1*
X3900090Y4568827D1*
X3907383Y4561207D1*
X3913466Y4553587D1*
X3918084Y4545967D1*
X3917714Y4538347D1*
X3915560Y4530727D1*
X3911891Y4523107D1*
X3907309Y4515487D1*
X3902541Y4507867D1*
X3897604Y4500247D1*
X3892783Y4492627D1*
X3888571Y4485007D1*
X3887257Y4477387D1*
X3888858Y4469767D1*
X3891482Y4462147D1*
X3894748Y4454527D1*
X3898465Y4446907D1*
X3903436Y4439287D1*
X3910263Y4431667D1*
X3930419Y4424047D1*
X3958776Y4416427D1*
X3991560Y4408807D1*
Y4401187D1*
Y4393567D1*
Y4385947D1*
Y4378327D1*
Y4370707D1*
Y4363087D1*
Y4355467D1*
Y4347847D1*
Y4340227D1*
X3959741Y4332607D1*
X3935301Y4324987D1*
X3917168Y4317367D1*
X3909352Y4309747D1*
X3903463Y4302127D1*
X3898764Y4294507D1*
X3894657Y4286887D1*
X3891290Y4279267D1*
X3888744Y4271647D1*
X3890538Y4264027D1*
X3893921Y4256407D1*
X3898103Y4248787D1*
X3902819Y4241167D1*
X3907840Y4233547D1*
X3912500Y4225927D1*
X3916241Y4218307D1*
X3919022Y4210687D1*
X3917810Y4203067D1*
X3912860Y4195447D1*
X3906679Y4187827D1*
X3899706Y4180207D1*
X3892348Y4172587D1*
X3884829Y4164967D1*
X3877260Y4157347D1*
X3679140Y4454527D2*
X3661880Y4446907D1*
X3647615Y4439287D1*
X3636366Y4431667D1*
X3627314Y4424047D1*
X3620229Y4416427D1*
X3614622Y4408807D1*
X3612507Y4401187D1*
X3611084Y4393567D1*
X3609393Y4385947D1*
X3606573Y4378327D1*
X3602940Y4370707D1*
X3606487Y4363087D1*
X3608973Y4355467D1*
X3611320Y4347847D1*
X3614667Y4340227D1*
X3619210Y4332607D1*
X3624808Y4324987D1*
X3631790Y4317367D1*
X3639844Y4309747D1*
X3648083Y4302127D1*
X3656280Y4294507D1*
X3651585Y4286887D1*
X3647478Y4279267D1*
X3644129Y4271647D1*
X3641303Y4264027D1*
X3638303Y4256407D1*
X3634949Y4248787D1*
X3631366Y4241167D1*
X3627644Y4233547D1*
X3623877Y4225927D1*
X3620104Y4218307D1*
X3616572Y4210687D1*
X3613737Y4203067D1*
X3611897Y4195447D1*
X3610560Y4187827D1*
X3702000Y4454527D2*
X3719260Y4446907D1*
X3733495Y4439287D1*
X3744507Y4431667D1*
X3752854Y4424047D1*
X3759086Y4416427D1*
X3763772Y4408807D1*
X3767076Y4401187D1*
X3768980Y4393567D1*
X3769913Y4385947D1*
X3770321Y4378327D1*
X3770485Y4370707D1*
X3770517Y4363087D1*
X3770241Y4355467D1*
X3768980Y4347847D1*
X3765889Y4340227D1*
X3760842Y4332607D1*
X3754466Y4324987D1*
X3747413Y4317367D1*
X3740334Y4309747D1*
X3734331Y4302127D1*
X3729750Y4294507D1*
X3730093Y4286887D1*
X3732011Y4279267D1*
X3734947Y4271647D1*
X3738408Y4264027D1*
X3742076Y4256407D1*
X3745814Y4248787D1*
X3749362Y4241167D1*
X3752440Y4233547D1*
X3755150Y4225927D1*
X3758104Y4218307D1*
X3761416Y4210687D1*
X3764795Y4203067D1*
X3767870Y4195447D1*
X3770580Y4187827D1*
X3564840D2*
X3552274Y4180207D1*
X3539624Y4172587D1*
X3526740Y4164967D1*
X3580080Y4187827D2*
X3801060D2*
X3816300D2*
X3828621Y4180207D1*
X3840391Y4172587D1*
X3851462Y4164967D1*
X3862020Y4157347D1*
X3336240Y4096387D2*
X3328620Y4088767D1*
X3336240Y4096387D2*
X3343860Y4088767D1*
X3404820Y4096387D2*
X3397200Y4088767D1*
X3404820Y4096387D2*
X3412440Y4088767D1*
X3458160Y4096387D2*
X3450540Y4088767D1*
X3458160Y4096387D2*
X3465780Y4088767D1*
X3496260Y4096387D2*
X3481020Y4088767D1*
X3465780Y4081147D1*
X3469297Y4073527D1*
X3471486Y4065907D1*
X3472593Y4058287D1*
X3473085Y4050667D1*
X3473284Y4043047D1*
X3473361Y4035427D1*
X3473400Y4027807D1*
X3496260Y4096387D2*
Y4088767D1*
Y4081147D1*
Y4073527D1*
Y4065907D1*
Y4058287D1*
Y4050667D1*
Y4043047D1*
Y4035427D1*
Y4027807D1*
X3511500Y4096387D2*
Y4088767D1*
Y4081147D1*
Y4073527D1*
Y4065907D1*
Y4058287D1*
Y4050667D1*
Y4043047D1*
Y4035427D1*
Y4027807D1*
X3526740Y4096387D2*
Y4088767D1*
Y4081147D1*
Y4073527D1*
Y4065907D1*
Y4058287D1*
Y4050667D1*
Y4043047D1*
Y4035427D1*
Y4027807D1*
X3625800Y4096387D2*
X3613265Y4088767D1*
X3603375Y4081147D1*
X3596445Y4073527D1*
X3591251Y4065907D1*
X3589715Y4058287D1*
X3589708Y4050667D1*
X3591151Y4043047D1*
X3593232Y4035427D1*
X3595320Y4027807D1*
X3633420Y4096387D2*
X3625830Y4088767D1*
X3618507Y4081147D1*
X3612156Y4073527D1*
X3607660Y4065907D1*
X3604655Y4058287D1*
X3604926Y4050667D1*
X3610146Y4043047D1*
X3624327Y4035427D1*
X3641040Y4027807D1*
X3694380Y4096387D2*
X3686760Y4088767D1*
X3694380Y4096387D2*
X3702000Y4088767D1*
X3808680Y4096387D2*
X3796435Y4088767D1*
X3786133Y4081147D1*
X3782071Y4073527D1*
X3779856Y4065907D1*
X3778851Y4058287D1*
X3778441Y4050667D1*
X3778285Y4043047D1*
X3778228Y4035427D1*
X3778200Y4027807D1*
X3816300Y4096387D2*
X3809000Y4088767D1*
X3802654Y4081147D1*
X3798129Y4073527D1*
X3795557Y4065907D1*
X3794314Y4058287D1*
X3793777Y4050667D1*
X3793563Y4043047D1*
X3793481Y4035427D1*
X3793440Y4027807D1*
X3884880Y4096387D2*
X3877260Y4088767D1*
X3884880Y4096387D2*
X3892500Y4088767D1*
X4029660Y4096387D2*
X4037250Y4088767D1*
X4044573Y4081147D1*
X4050924Y4073527D1*
X4055420Y4065907D1*
X4058425Y4058287D1*
X4058154Y4050667D1*
X4052934Y4043047D1*
X4038753Y4035427D1*
X4022040Y4027807D1*
X4060140Y4020187D1*
Y4012567D1*
Y4004947D1*
Y3997327D1*
Y3989707D1*
Y3982087D1*
Y3974467D1*
Y3966847D1*
Y3959227D1*
Y3951607D1*
Y3943987D1*
Y3936367D1*
Y3928747D1*
Y3921127D1*
Y3913507D1*
X4044900Y4096387D2*
X4052520Y4088767D1*
X3328620Y4081147D2*
X3325075Y4073527D1*
X3322719Y4065907D1*
X3321000Y4058287D1*
X3374340D1*
Y4050667D1*
X3343860Y4081147D2*
X3351480Y4073527D1*
Y4088767D2*
X3359100Y4081147D1*
X3366720Y4073527D1*
X3389580Y4088767D2*
X3381960Y4081147D1*
X3397200D2*
X3412440D2*
X3418533Y4073527D1*
X3423595Y4065907D1*
X3425163Y4058287D1*
X3423566Y4050667D1*
X3417169Y4043047D1*
X3401133Y4035427D1*
X3381960Y4027807D1*
X3420060Y4088767D2*
X3427360Y4081147D1*
X3433676Y4073527D1*
X3438827Y4065907D1*
X3440401Y4058287D1*
X3438855Y4050667D1*
X3436074Y4043047D1*
X3432202Y4035427D1*
X3427680Y4027807D1*
X3557220Y4088767D2*
Y4081147D1*
Y4073527D1*
Y4065907D1*
X3557101Y4058287D1*
X3556744Y4050667D1*
X3553172Y4043047D1*
X3541295Y4035427D1*
X3526740Y4027807D1*
X3572460Y4088767D2*
Y4081147D1*
Y4073527D1*
Y4065907D1*
X3572430Y4058287D1*
X3572140Y4050667D1*
X3570962Y4043047D1*
X3568357Y4035427D1*
X3564840Y4027807D1*
X3625800Y4081147D2*
X3631922Y4073527D1*
X3636349Y4065907D1*
X3639327Y4058287D1*
X3638852Y4050667D1*
X3636667Y4043047D1*
X3633420Y4035427D1*
X3648660Y4088767D2*
X3649838Y4081147D1*
X3651727Y4073527D1*
X3653670Y4065907D1*
X3654707Y4058287D1*
X3654854Y4050667D1*
X3651582Y4043047D1*
X3646715Y4035427D1*
X3641040Y4027807D1*
X3679140Y4088767D2*
X3671520Y4081147D1*
X3686760D2*
X3709620Y4088767D2*
X3709144Y4081147D1*
X3705810Y4073527D1*
X3696077Y4065907D1*
X3685197Y4058287D1*
X3676316Y4050667D1*
X3669826Y4043047D1*
X3669369Y4035427D1*
X3671520Y4027807D1*
X3724860Y4088767D2*
X3724451Y4081147D1*
X3723461Y4073527D1*
X3718118Y4065907D1*
X3706588Y4058287D1*
X3695150Y4050667D1*
X3686277Y4043047D1*
X3679140Y4035427D1*
X3694380Y4027807D1*
X3808680Y4088767D2*
X3814802Y4081147D1*
X3819259Y4073527D1*
X3821811Y4065907D1*
X3823048Y4058287D1*
X3823584Y4050667D1*
X3823797Y4043047D1*
X3823879Y4035427D1*
X3823920Y4027807D1*
X3839160Y4088767D2*
Y4081147D1*
Y4073527D1*
Y4065907D1*
Y4058287D1*
Y4050667D1*
Y4043047D1*
Y4035427D1*
Y4027807D1*
X3869640Y4088767D2*
X3863518Y4081147D1*
X3859061Y4073527D1*
X3856501Y4065907D1*
X3855204Y4058287D1*
X3854400Y4050667D1*
X3900120D1*
X3898719Y4043047D1*
X3896045Y4035427D1*
X3892500Y4027807D1*
X3877260Y4081147D2*
X3873212Y4073527D1*
X3869640Y4065907D1*
X3892500Y4081147D2*
X3896548Y4073527D1*
X3900120Y4065907D1*
Y4088767D2*
X3906533Y4081147D1*
X3911936Y4073527D1*
X3916046Y4065907D1*
X3919093Y4058287D1*
X3918199Y4050667D1*
X3915810Y4043047D1*
X3912138Y4035427D1*
X3907740Y4027807D1*
X3945840Y4088767D2*
X3939718Y4081147D1*
X3935261Y4073527D1*
X3932709Y4065907D1*
X3931501Y4058287D1*
X3931256Y4050667D1*
X3932221Y4043047D1*
X3934744Y4035427D1*
X3938220Y4027807D1*
X3961080Y4088767D2*
X3954958Y4081147D1*
X3950501Y4073527D1*
X3947979Y4065907D1*
X3947099Y4058287D1*
X3947323Y4050667D1*
X3951898Y4043047D1*
X3963190Y4035427D1*
X3976320Y4027807D1*
X3961080Y4088767D2*
X3967202Y4081147D1*
X3971659Y4073527D1*
X3974211Y4065907D1*
X3975448Y4058287D1*
X3975984Y4050667D1*
X3976197Y4043047D1*
X3976277Y4035427D1*
X3976305Y4027807D1*
X3976315Y4020187D1*
X3976318Y4012567D1*
X3976320Y4004947D1*
Y3997327D1*
Y3989707D1*
Y3982087D1*
Y3974467D1*
Y3966847D1*
Y3959227D1*
Y3951607D1*
Y3943987D1*
Y3936367D1*
Y3928747D1*
Y3921127D1*
Y3913507D1*
X3999180Y4088767D2*
Y4081147D1*
Y4073527D1*
Y4065907D1*
Y4058287D1*
Y4050667D1*
Y4043047D1*
Y4035427D1*
Y4027807D1*
Y4020187D1*
Y4012567D1*
Y4004947D1*
Y3997327D1*
Y3989707D1*
Y3982087D1*
Y3974467D1*
Y3966847D1*
Y3959227D1*
Y3951607D1*
Y3943987D1*
Y3936367D1*
Y3928747D1*
Y3921127D1*
Y3913507D1*
X4014420Y4088767D2*
X4013242Y4081147D1*
X4011352Y4073527D1*
X4009360Y4065907D1*
X4007910Y4058287D1*
X4006800Y4050667D1*
X4037280Y4081147D2*
X4031156Y4073527D1*
X4026672Y4065907D1*
X4023946Y4058287D1*
X4022040Y4050667D1*
X3313380D2*
Y4043047D1*
Y4035427D1*
Y4027807D1*
Y4020187D1*
Y4012567D1*
Y4004947D1*
Y3997327D1*
Y3989707D1*
Y3982087D1*
Y3974467D1*
Y3966847D1*
Y3959227D1*
Y3951607D1*
Y3943987D1*
Y3936367D1*
Y3928747D1*
Y3921127D1*
Y3913507D1*
X3359100Y4050667D2*
Y4043047D2*
X3351480Y4035427D1*
X3343860Y4027807D1*
X3374340Y4043047D2*
X3366720Y4035427D1*
X3359100Y4027807D1*
X4006800Y4043047D2*
X4018810Y4035427D1*
X4032713Y4027807D1*
X4045129Y4020187D1*
X4054507Y4012567D1*
X4057483Y4004947D1*
X4059039Y3997327D1*
X4059719Y3989707D1*
X4059988Y3982087D1*
X4060087Y3974467D1*
X4060122Y3966847D1*
X4060134Y3959227D1*
X4060138Y3951607D1*
X4060139Y3943987D1*
X4060140Y3936367D1*
Y3928747D1*
Y3921127D1*
Y3913507D1*
X4022040Y4043047D2*
X4029660Y4035427D1*
X3321000D2*
X3328620Y4027807D1*
X3709620Y4035427D2*
X3702000Y4027807D1*
X3717240Y4035427D2*
X3724860Y4027807D1*
X3869640Y4035427D2*
X3862020Y4027807D1*
X3869640Y4035427D2*
X3877260Y4027807D1*
X3717240Y4004947D2*
Y3997327D1*
Y3989707D1*
Y3982087D1*
Y3974467D1*
Y3966847D1*
Y3959227D1*
Y3951607D1*
Y3943987D1*
Y3936367D1*
Y3928747D1*
Y3921127D1*
Y3913507D1*
X3732480Y4004947D2*
Y3997327D1*
X3732510Y3989707D1*
X3732800Y3982087D1*
X3733978Y3974467D1*
X3736583Y3966847D1*
X3740100Y3959227D1*
X3736612Y3951607D1*
X3734692Y3943987D1*
X3734561Y3936367D1*
X3735958Y3928747D1*
X3738022Y3921127D1*
X3740100Y3913507D1*
X3412440Y3974467D2*
X3406027Y3966847D1*
X3400594Y3959227D1*
X3396214Y3951607D1*
X3393001Y3943987D1*
X3391002Y3936367D1*
X3389580Y3928747D1*
X3442920D1*
X3439348Y3921127D1*
X3435300Y3913507D1*
Y3974467D2*
X3442600Y3966847D1*
X3448946Y3959227D1*
X3453471Y3951607D1*
X3456013Y3943987D1*
X3456966Y3936367D1*
X3456326Y3928747D1*
X3453941Y3921127D1*
X3450540Y3913507D1*
X3442920Y3974467D2*
X3462465Y3966847D1*
X3477723Y3959227D1*
X3489098Y3951607D1*
X3492836Y3943987D1*
X3494823Y3936367D1*
X3495705Y3928747D1*
X3496068Y3921127D1*
X3496260Y3913507D1*
X3488640Y3974467D2*
X3496260Y3966847D1*
X3511500Y3974467D2*
Y3966847D1*
Y3959227D1*
Y3951607D1*
Y3943987D1*
Y3936367D1*
Y3928747D1*
Y3921127D1*
Y3913507D1*
X3549600Y3974467D2*
X3543187Y3966847D1*
X3537754Y3959227D1*
X3533376Y3951607D1*
X3530184Y3943987D1*
X3528320Y3936367D1*
X3527398Y3928747D1*
X3526980Y3921127D1*
X3526740Y3913507D1*
X3625800Y3974467D2*
X3587700Y3966847D1*
X3549600Y3959227D1*
Y3951607D1*
Y3943987D1*
X3569796Y3936367D1*
X3585378Y3928747D1*
X3591026Y3921127D1*
X3595320Y3913507D1*
X3602940Y3974467D2*
X3603230Y3966847D1*
X3604207Y3959227D1*
X3606035Y3951607D1*
X3608008Y3943987D1*
X3609452Y3936367D1*
X3610560Y3928747D1*
X3618180Y3974467D2*
X3618470Y3966847D1*
X3619447Y3959227D1*
X3621275Y3951607D1*
X3623248Y3943987D1*
X3624692Y3936367D1*
X3625800Y3928747D1*
X3656280Y3974467D2*
X3648660Y3966847D1*
X3641040Y3959227D1*
X3663900Y3974467D2*
Y3966847D1*
Y3959227D1*
X3702000Y3974467D2*
X3695848Y3966847D1*
X3691123Y3959227D1*
X3687600Y3951607D1*
X3684536Y3943987D1*
X3682028Y3936367D1*
X3680364Y3928747D1*
X3679140Y3921127D1*
X3717240Y3974467D2*
X3711088Y3966847D1*
X3706363Y3959227D1*
X3702840Y3951607D1*
X3699748Y3943987D1*
X3696969Y3936367D1*
X3694243Y3928747D1*
X3690810Y3921127D1*
X3686760Y3913507D1*
X3717240Y3974467D2*
X3735897Y3966847D1*
X3750244Y3959227D1*
X3761109Y3951607D1*
X3766323Y3943987D1*
X3768039Y3936367D1*
X3766759Y3928747D1*
X3764888Y3921127D1*
X3762960Y3913507D1*
Y3974467D2*
X3770260Y3966847D1*
X3776606Y3959227D1*
X3781131Y3951607D1*
X3783673Y3943987D1*
X3784626Y3936367D1*
X3783986Y3928747D1*
X3781601Y3921127D1*
X3778200Y3913507D1*
X3793440Y3974467D2*
X3785820Y3966847D1*
X3808680Y3974467D2*
X3816300Y3966847D1*
X3831540Y3974467D2*
X3823920Y3966847D1*
X3816300Y3959227D1*
X3819817Y3951607D1*
X3822006Y3943987D1*
X3823113Y3936367D1*
X3823605Y3928747D1*
X3823810Y3921127D1*
X3823920Y3913507D1*
X3839160Y3974467D2*
Y3966847D1*
Y3959227D1*
Y3951607D1*
Y3943987D1*
Y3936367D1*
Y3928747D1*
Y3921127D1*
Y3913507D1*
X3869640Y3974467D2*
X3863518Y3966847D1*
X3859061Y3959227D1*
X3856509Y3951607D1*
X3855272Y3943987D1*
X3854736Y3936367D1*
X3854523Y3928747D1*
X3854441Y3921127D1*
X3854400Y3913507D1*
X3945840Y3974467D2*
X3907740Y3966847D1*
X3869640Y3959227D1*
Y3951607D1*
Y3943987D1*
X3891441Y3936367D1*
X3908484Y3928747D1*
X3922980Y3921127D1*
X3915360Y3913507D1*
X3945840Y3974467D2*
X3939718Y3966847D1*
X3935261Y3959227D1*
X3932709Y3951607D1*
X3931472Y3943987D1*
X3930936Y3936367D1*
X3930723Y3928747D1*
X3930641Y3921127D1*
X3930600Y3913507D1*
X3412440Y3959227D2*
Y3951607D1*
Y3943987D1*
X3435300Y3959227D2*
X3439348Y3951607D1*
X3442920Y3943987D1*
X3953460Y3959227D2*
X3949943Y3951607D1*
X3947754Y3943987D1*
X3946647Y3936367D1*
X3946155Y3928747D1*
X3945950Y3921127D1*
X3945840Y3913507D1*
X3656280Y3951607D2*
Y3943987D1*
Y3936367D1*
X3671520Y3951607D2*
Y3943987D1*
Y3936367D1*
X3641040Y3943987D2*
X3633420Y3936367D1*
X3641040Y3943987D2*
X3648660Y3936367D1*
X3549600Y3928747D2*
Y3921127D1*
Y3913507D1*
X3580080Y3928747D2*
Y3921127D1*
Y3913507D1*
X3869640Y3928747D2*
Y3921127D1*
Y3913507D1*
X3900120Y3928747D2*
X3907740Y3921127D1*
X3900120Y3913507D1*
X3625800Y3921127D2*
X3618180Y3913507D1*
X3641040Y3928747D2*
Y3921127D1*
Y3913507D1*
X3663900Y3928747D2*
Y3921127D1*
Y3913507D1*
X3404820Y3921127D2*
X3397200Y3913507D1*
X3404820Y3921127D2*
X3412440Y3913507D1*
X3368663Y6374893D2*
Y6367273D1*
Y6359653D1*
Y6352033D1*
Y6344413D1*
Y6336793D1*
Y6329173D1*
Y6321553D1*
Y6313933D1*
Y6306313D1*
Y6298693D1*
Y6291073D1*
Y6283453D1*
Y6275833D1*
Y6268213D1*
Y6260593D1*
Y6252973D1*
Y6245353D1*
Y6237733D1*
Y6230113D1*
Y6222493D1*
Y6214873D1*
Y6207253D1*
Y6199633D1*
Y6192013D1*
Y6184393D1*
Y6176773D1*
Y6169153D1*
Y6161533D1*
Y6153913D1*
Y6146293D1*
Y6138673D1*
Y6131053D1*
Y6123433D1*
Y6115813D1*
Y6108193D1*
Y6100573D1*
Y6092953D1*
Y6085333D1*
Y6077713D1*
Y6070093D1*
Y6062473D1*
Y6054853D1*
Y6047233D1*
Y6039613D1*
Y6031993D1*
Y6024373D1*
Y6016753D1*
Y6009133D1*
Y6001513D1*
Y5993893D1*
Y5986273D1*
Y5978653D1*
Y5971033D1*
Y5963413D1*
Y5955793D1*
Y5948173D1*
Y5940553D1*
Y5932933D1*
Y5925313D1*
Y5917693D1*
Y5910073D1*
Y5902453D1*
Y5894833D1*
Y5887213D1*
Y5879593D1*
Y5871973D1*
Y5864353D1*
Y5856733D1*
Y5849113D1*
Y5841493D1*
Y5833873D1*
Y5826253D1*
Y5818633D1*
X5121263Y6374893D2*
Y6367273D1*
Y6359653D1*
Y6352033D1*
Y6344413D1*
Y6336793D1*
Y6329173D1*
Y6321553D1*
Y6313933D1*
Y6306313D1*
Y6298693D1*
Y6291073D1*
Y6283453D1*
Y6275833D1*
Y6268213D1*
Y6260593D1*
Y6252973D1*
Y6245353D1*
Y6237733D1*
Y6230113D1*
Y6222493D1*
Y6214873D1*
Y6207253D1*
Y6199633D1*
Y6192013D1*
Y6184393D1*
Y6176773D1*
Y6169153D1*
Y6161533D1*
Y6153913D1*
Y6146293D1*
Y6138673D1*
Y6131053D1*
Y6123433D1*
Y6115813D1*
Y6108193D1*
Y6100573D1*
Y6092953D1*
Y6085333D1*
Y6077713D1*
Y6070093D1*
Y6062473D1*
Y6054853D1*
Y6047233D1*
Y6039613D1*
Y6031993D1*
Y6024373D1*
Y6016753D1*
Y6009133D1*
Y6001513D1*
Y5993893D1*
Y5986273D1*
Y5978653D1*
Y5971033D1*
Y5963413D1*
Y5955793D1*
Y5948173D1*
Y5940553D1*
Y5932933D1*
Y5925313D1*
Y5917693D1*
Y5910073D1*
Y5902453D1*
Y5894833D1*
Y5887213D1*
Y5879593D1*
Y5871973D1*
Y5864353D1*
Y5856733D1*
Y5849113D1*
Y5841493D1*
Y5833873D1*
Y5826253D1*
Y5818633D1*
X2560943Y6283453D2*
X2544596Y6275833D1*
X2530251Y6268213D1*
X2518665Y6260593D1*
X2509358Y6252973D1*
X2502106Y6245353D1*
X2496961Y6237733D1*
X2493255Y6230113D1*
X2489870Y6222493D1*
X2486392Y6214873D1*
X2482989Y6207253D1*
X2479979Y6199633D1*
X2477327Y6192013D1*
X2474651Y6184393D1*
X2472320Y6176773D1*
X2470837Y6169153D1*
X2470071Y6161533D1*
X2469713Y6153913D1*
X2469503Y6146293D1*
X2637143Y6283453D2*
X2654693Y6275833D1*
X2669905Y6268213D1*
X2682743Y6260593D1*
X2693075Y6252973D1*
X2700903Y6245353D1*
X2707297Y6237733D1*
X2713017Y6230113D1*
X2717980Y6222493D1*
X2722148Y6214873D1*
X2725503Y6207253D1*
X2728296Y6199633D1*
X2731025Y6192013D1*
X2733407Y6184393D1*
X2735164Y6176773D1*
X2736902Y6169153D1*
X2739072Y6161533D1*
X2741167Y6153913D1*
X2742550Y6146293D1*
X2743276Y6138673D1*
X2743606Y6131053D1*
X2743742Y6123433D1*
X2743794Y6115813D1*
X2743813Y6108193D1*
X2743820Y6100573D1*
X2743822Y6092953D1*
X2743823Y6085333D1*
Y6077713D1*
X2743794Y6070093D1*
X2743526Y6062473D1*
X2742555Y6054853D1*
X2740700Y6047233D1*
X2738478Y6039613D1*
X2736178Y6031993D1*
X2733617Y6024373D1*
X2731072Y6016753D1*
X2728608Y6009133D1*
X2725728Y6001513D1*
X2722193Y5993893D1*
X2717898Y5986273D1*
X2713061Y5978653D1*
X2708137Y5971033D1*
X2702570Y5963413D1*
X2695140Y5955793D1*
X2684904Y5948173D1*
X2671412Y5940553D1*
X2655015Y5932933D1*
X2637143Y5925313D1*
X2157083Y6275833D2*
Y6268213D1*
Y6260593D1*
Y6252973D1*
Y6245353D1*
Y6237733D1*
Y6230113D1*
Y6222493D1*
Y6214873D1*
Y6207253D1*
Y6199633D1*
Y6192013D1*
Y6184393D1*
Y6176773D1*
Y6169153D1*
Y6161533D1*
Y6153913D1*
Y6146293D1*
Y6138673D1*
Y6131053D1*
Y6123433D1*
Y6115813D1*
Y6108193D1*
Y6100573D1*
Y6092953D1*
Y6085333D1*
Y6077713D1*
Y6070093D1*
Y6062473D1*
Y6054853D1*
Y6047233D1*
Y6039613D1*
Y6031993D1*
Y6024373D1*
Y6016753D1*
Y6009133D1*
Y6001513D1*
Y5993893D1*
Y5986273D1*
Y5978653D1*
Y5971033D1*
Y5963413D1*
Y5955793D1*
Y5948173D1*
Y5940553D1*
Y5932933D1*
X2240903Y6275833D2*
Y6268213D1*
Y6260593D1*
Y6252973D1*
Y6245353D1*
Y6237733D1*
Y6230113D1*
Y6222493D1*
Y6214873D1*
Y6207253D1*
Y6199633D1*
Y6192013D1*
Y6184393D1*
Y6176773D1*
Y6169153D1*
Y6161533D1*
Y6153913D1*
Y6146293D1*
X2332343Y6275833D2*
Y6268213D1*
Y6260593D1*
Y6252973D1*
Y6245353D1*
Y6237733D1*
Y6230113D1*
Y6222493D1*
Y6214873D1*
Y6207253D1*
Y6199633D1*
Y6192013D1*
Y6184393D1*
Y6176773D1*
Y6169153D1*
Y6161533D1*
Y6153913D1*
Y6146293D1*
X2416163Y6275833D2*
Y6268213D1*
Y6260593D1*
Y6252973D1*
Y6245353D1*
Y6237733D1*
Y6230113D1*
Y6222493D1*
Y6214873D1*
Y6207253D1*
Y6199633D1*
Y6192013D1*
Y6184393D1*
Y6176773D1*
Y6169153D1*
Y6161533D1*
Y6153913D1*
Y6146293D1*
Y6138673D1*
Y6131053D1*
Y6123433D1*
Y6115813D1*
Y6108193D1*
Y6100573D1*
Y6092953D1*
Y6085333D1*
Y6077713D1*
Y6070093D1*
Y6062473D1*
Y6054853D1*
Y6047233D1*
Y6039613D1*
Y6031993D1*
Y6024373D1*
Y6016753D1*
Y6009133D1*
Y6001513D1*
Y5993893D1*
Y5986273D1*
Y5978653D1*
Y5971033D1*
Y5963413D1*
Y5955793D1*
Y5948173D1*
Y5940553D1*
Y5932933D1*
X2774303Y6275833D2*
Y6268213D1*
Y6260593D1*
Y6252973D1*
Y6245353D1*
Y6237733D1*
Y6230113D1*
Y6222493D1*
X3002903Y6275833D2*
Y6268213D1*
Y6260593D1*
Y6252973D1*
Y6245353D1*
Y6237733D1*
Y6230113D1*
Y6222493D1*
Y6214873D1*
Y6207253D1*
Y6199633D1*
Y6192013D1*
Y6184393D1*
Y6176773D1*
Y6169153D1*
Y6161533D1*
Y6153913D1*
Y6146293D1*
Y6138673D1*
Y6131053D1*
Y6123433D1*
Y6115813D1*
Y6108193D1*
Y6100573D1*
Y6092953D1*
Y6085333D1*
Y6077713D1*
Y6070093D1*
Y6062473D1*
Y6054853D1*
Y6047233D1*
Y6039613D1*
Y6031993D1*
Y6024373D1*
Y6016753D1*
Y6009133D1*
Y6001513D1*
Y5993893D1*
Y5986273D1*
Y5978653D1*
Y5971033D1*
Y5963413D1*
Y5955793D1*
Y5948173D1*
Y5940553D1*
Y5932933D1*
X3041003Y6275833D2*
Y6268213D1*
Y6260593D1*
Y6252973D1*
Y6245353D1*
Y6237733D1*
Y6230113D1*
Y6222493D1*
Y6214873D1*
Y6207253D1*
X3117203D1*
Y6199633D1*
Y6192013D1*
Y6184393D1*
Y6176773D1*
Y6169153D1*
Y6161533D1*
Y6153913D1*
Y6146293D1*
Y6138673D1*
Y6131053D1*
Y6123433D1*
Y6115813D1*
Y6108193D1*
Y6100573D1*
Y6092953D1*
Y6085333D1*
Y6077713D1*
Y6070093D1*
Y6062473D1*
Y6054853D1*
Y6047233D1*
Y6039613D1*
Y6031993D1*
Y6024373D1*
Y6016753D1*
Y6009133D1*
Y6001513D1*
Y5993893D1*
Y5986273D1*
Y5978653D1*
Y5971033D1*
Y5963413D1*
Y5955793D1*
Y5948173D1*
Y5940553D1*
Y5932933D1*
X3277223Y6275833D2*
Y6268213D1*
Y6260593D1*
Y6252973D1*
Y6245353D1*
Y6237733D1*
Y6230113D1*
Y6222493D1*
Y6214873D1*
Y6207253D1*
X3201023D1*
Y6199633D1*
Y6192013D1*
Y6184393D1*
Y6176773D1*
Y6169153D1*
Y6161533D1*
Y6153913D1*
Y6146293D1*
Y6138673D1*
Y6131053D1*
Y6123433D1*
Y6115813D1*
Y6108193D1*
Y6100573D1*
Y6092953D1*
Y6085333D1*
Y6077713D1*
Y6070093D1*
Y6062473D1*
Y6054853D1*
Y6047233D1*
Y6039613D1*
Y6031993D1*
Y6024373D1*
Y6016753D1*
Y6009133D1*
Y6001513D1*
Y5993893D1*
Y5986273D1*
Y5978653D1*
Y5971033D1*
Y5963413D1*
Y5955793D1*
Y5948173D1*
Y5940553D1*
Y5932933D1*
X4854563Y6283453D2*
X4839643Y6275833D1*
X4825678Y6268213D1*
X4813533Y6260593D1*
X4803370Y6252973D1*
X4794775Y6245353D1*
X4787589Y6237733D1*
X4781610Y6230113D1*
X4776162Y6222493D1*
X4771081Y6214873D1*
X4766984Y6207253D1*
X4763760Y6199633D1*
X4760794Y6192013D1*
X4758087Y6184393D1*
X4755592Y6176773D1*
X4752986Y6169153D1*
X4750683Y6161533D1*
X4749211Y6153913D1*
X4748450Y6146293D1*
X4748107Y6138673D1*
X4747967Y6131053D1*
X4747913Y6123433D1*
X4747894Y6115813D1*
X4747887Y6108193D1*
X4747884Y6100573D1*
Y6092953D1*
X4747883Y6085333D1*
Y6077713D1*
X4747913Y6070093D1*
X4748181Y6062473D1*
X4749152Y6054853D1*
X4750977Y6047233D1*
X4752961Y6039613D1*
X4754557Y6031993D1*
X4756265Y6024373D1*
X4758681Y6016753D1*
X4761769Y6009133D1*
X4765243Y6001513D1*
X4768923Y5993893D1*
X4772704Y5986273D1*
X4776799Y5978653D1*
X4781865Y5971033D1*
X4788802Y5963413D1*
X4798010Y5955793D1*
X4810026Y5948173D1*
X4826136Y5940553D1*
X4846794Y5932933D1*
X4869803Y5925313D1*
X4923143Y6283453D2*
X4938093Y6275833D1*
X4952297Y6268213D1*
X4965145Y6260593D1*
X4976191Y6252973D1*
X4985153Y6245353D1*
X4992418Y6237733D1*
X4998628Y6230113D1*
X5003822Y6222493D1*
X5008088Y6214873D1*
X5011481Y6207253D1*
X5014289Y6199633D1*
X5017023Y6192013D1*
X5019406Y6184393D1*
X5021163Y6176773D1*
X5022902Y6169153D1*
X5025072Y6161533D1*
X5027167Y6153913D1*
X5028550Y6146293D1*
X5029276Y6138673D1*
X5029606Y6131053D1*
X5029742Y6123433D1*
X5029794Y6115813D1*
X5029813Y6108193D1*
X5029820Y6100573D1*
X5029822Y6092953D1*
X5029823Y6085333D1*
X5029793Y6077713D1*
X5029526Y6070093D1*
X5028555Y6062473D1*
X5026730Y6054853D1*
X5024746Y6047233D1*
X5023149Y6039613D1*
X5021471Y6031993D1*
X5019293Y6024373D1*
X5016938Y6016753D1*
X5014557Y6009133D1*
X5011709Y6001513D1*
X5008186Y5993893D1*
X5003896Y5986273D1*
X4999031Y5978653D1*
X4993869Y5971033D1*
X4987569Y5963413D1*
X4978958Y5955793D1*
X4967037Y5948173D1*
X4949939Y5940553D1*
X4926762Y5932933D1*
X4900283Y5925313D1*
X4046843Y6237733D2*
X4034598Y6230113D1*
X4024296Y6222493D1*
X4019552Y6214873D1*
X4018511Y6207253D1*
X4018466Y6199633D1*
X4029260Y6192013D1*
X4040575Y6184393D1*
X4049624Y6176773D1*
X4056234Y6169153D1*
X4057095Y6161533D1*
X4054926Y6153913D1*
X4051972Y6146293D1*
X4048552Y6138673D1*
X4045159Y6131053D1*
X4042396Y6123433D1*
X4040733Y6115813D1*
X4040146Y6108193D1*
X4040767Y6100573D1*
X4042706Y6092953D1*
X4045631Y6085333D1*
X4049359Y6077713D1*
X4054550Y6070093D1*
X4062387Y6062473D1*
X4073321Y6054853D1*
X4086445Y6047233D1*
X4100729Y6039613D1*
X4115423Y6031993D1*
X4031603Y6237733D2*
X4050261Y6230113D1*
X4064637Y6222493D1*
X4074387Y6214873D1*
X4081031Y6207253D1*
X4085862Y6199633D1*
X4089535Y6192013D1*
X4092563Y6184393D1*
X4885043Y6222493D2*
X4871596Y6214873D1*
X4861786Y6207253D1*
X4855192Y6199633D1*
X4851018Y6192013D1*
X4848756Y6184393D1*
X4847656Y6176773D1*
X4846931Y6169153D1*
X4845779Y6161533D1*
X4843886Y6153913D1*
X4841908Y6146293D1*
X4840571Y6138673D1*
X4839862Y6131053D1*
X4839537Y6123433D1*
X4839403Y6115813D1*
X4839352Y6108193D1*
X4839333Y6100573D1*
X4839327Y6092953D1*
X4839354Y6085333D1*
X4839621Y6077713D1*
X4840592Y6070093D1*
X4842417Y6062473D1*
X4844371Y6054853D1*
X4845700Y6047233D1*
X4846436Y6039613D1*
X4847027Y6031993D1*
X4848162Y6024373D1*
X4850336Y6016753D1*
X4853576Y6009133D1*
X4857984Y6001513D1*
X4863605Y5993893D1*
X4869803Y5986273D1*
X4892663Y6222493D2*
X4906111Y6214873D1*
X4915921Y6207253D1*
X4922514Y6199633D1*
X4926718Y6192013D1*
X4929248Y6184393D1*
X4931290Y6176773D1*
X4933572Y6169153D1*
X4935707Y6161533D1*
X4937103Y6153913D1*
X4937834Y6146293D1*
X4938166Y6138673D1*
X4938302Y6131053D1*
X4938354Y6123433D1*
X4938373Y6115813D1*
X4938380Y6108193D1*
X4938382Y6100573D1*
X4938383Y6092953D1*
Y6085333D1*
Y6077713D1*
X4938354Y6070093D1*
X4938086Y6062473D1*
X4937115Y6054853D1*
X4935290Y6047233D1*
X4933306Y6039613D1*
X4931709Y6031993D1*
X4930002Y6024373D1*
X4927556Y6016753D1*
X4924201Y6009133D1*
X4919748Y6001513D1*
X4914110Y5993893D1*
X4907903Y5986273D1*
X2591423Y6222493D2*
X2578888Y6214873D1*
X2568999Y6207253D1*
X2562039Y6199633D1*
X2557341Y6192013D1*
X2553971Y6184393D1*
X2551013Y6176773D1*
X2548576Y6169153D1*
X2547050Y6161533D1*
X2546231Y6153913D1*
X2545703Y6146293D1*
X2606663Y6222493D2*
X2619198Y6214873D1*
X2629118Y6207253D1*
X2636316Y6199633D1*
X2641716Y6192013D1*
X2645941Y6184393D1*
X2649057Y6176773D1*
X2651137Y6169153D1*
X2653006Y6161533D1*
X2655225Y6153913D1*
X2657338Y6146293D1*
X2658727Y6138673D1*
X2659455Y6131053D1*
X2659786Y6123433D1*
X2659922Y6115813D1*
X2659974Y6108193D1*
X2659993Y6100573D1*
X2660000Y6092953D1*
X2660002Y6085333D1*
X2659973Y6077713D1*
X2659706Y6070093D1*
X2658735Y6062473D1*
X2656910Y6054853D1*
X2654926Y6047233D1*
X2653329Y6039613D1*
X2651622Y6031993D1*
X2649176Y6024373D1*
X2645821Y6016753D1*
X2641368Y6009133D1*
X2635730Y6001513D1*
X2629523Y5993893D1*
X2926703Y6222493D2*
Y6214873D1*
Y6207253D1*
Y6199633D1*
Y6192013D1*
Y6184393D1*
Y6176773D1*
Y6169153D1*
Y6161533D1*
Y6153913D1*
Y6146293D1*
Y6138673D1*
X3559163Y6192013D2*
X3545451Y6184393D1*
X3533642Y6176773D1*
X3524471Y6169153D1*
X3517736Y6161533D1*
X3512803Y6153913D1*
X3509393Y6146293D1*
X3507447Y6138673D1*
X3506498Y6131053D1*
X3506085Y6123433D1*
X3505920Y6115813D1*
X3505857Y6108193D1*
X3505835Y6100573D1*
X3505827Y6092953D1*
X3505825Y6085333D1*
X3505824Y6077713D1*
X3505823Y6070093D1*
Y6062473D1*
Y6054853D1*
Y6047233D1*
Y6039613D1*
Y6031993D1*
Y6024373D1*
Y6016753D1*
Y6009133D1*
Y6001513D1*
Y5993893D1*
Y5986273D1*
Y5978653D1*
Y5971033D1*
Y5963413D1*
Y5955793D1*
Y5948173D1*
Y5940553D1*
Y5932933D1*
X3604883Y6192013D2*
X3618628Y6184393D1*
X3630731Y6176773D1*
X3641077Y6169153D1*
X3650603Y6161533D1*
Y6192013D2*
Y6184393D1*
Y6176773D1*
Y6169153D1*
Y6161533D1*
X3726803Y6192013D2*
Y6184393D1*
Y6176773D1*
Y6169153D1*
Y6161533D1*
Y6153913D1*
Y6146293D1*
Y6138673D1*
Y6131053D1*
Y6123433D1*
Y6115813D1*
Y6108193D1*
Y6100573D1*
Y6092953D1*
Y6085333D1*
Y6077713D1*
Y6070093D1*
Y6062473D1*
Y6054853D1*
Y6047233D1*
Y6039613D1*
Y6031993D1*
Y6024373D1*
Y6016753D1*
Y6009133D1*
Y6001513D1*
Y5993893D1*
Y5986273D1*
Y5978653D1*
Y5971033D1*
Y5963413D1*
Y5955793D1*
Y5948173D1*
Y5940553D1*
Y5932933D1*
X3856343Y6192013D2*
X3841423Y6184393D1*
X3827487Y6176773D1*
X3815610Y6169153D1*
X3806419Y6161533D1*
X3799649Y6153913D1*
X3794446Y6146293D1*
X3790064Y6138673D1*
X3786264Y6131053D1*
X3783093Y6123433D1*
X3780380Y6115813D1*
X3777683Y6108193D1*
X3775343Y6100573D1*
X3773858Y6092953D1*
X3773093Y6085333D1*
X3772748Y6077713D1*
X3772607Y6070093D1*
X3772553Y6062473D1*
X3772534Y6054853D1*
X3772527Y6047233D1*
X3772554Y6039613D1*
X3772821Y6031993D1*
X3773792Y6024373D1*
X3775647Y6016753D1*
X3777868Y6009133D1*
X3780169Y6001513D1*
X3782730Y5993893D1*
X3785305Y5986273D1*
X3788036Y5978653D1*
X3791918Y5971033D1*
X3797605Y5963413D1*
X3805450Y5955793D1*
X3816260Y5948173D1*
X3831081Y5940553D1*
X3850153Y5932933D1*
X3871583Y5925313D1*
X3909683Y6192013D2*
X3929809Y6184393D1*
X3947050Y6176773D1*
X3960600Y6169153D1*
X3970556Y6161533D1*
X3977651Y6153913D1*
X3983220Y6146293D1*
X3988365Y6138673D1*
X3993255Y6131053D1*
X3997042Y6123433D1*
X3999533Y6115813D1*
X4001604Y6108193D1*
X4003911Y6100573D1*
X4006058Y6092953D1*
X4007460Y6085333D1*
X4008193Y6077713D1*
X4008525Y6070093D1*
X4008662Y6062473D1*
X4008714Y6054853D1*
X4008704Y6047233D1*
X4008442Y6039613D1*
X4007473Y6031993D1*
X4005649Y6024373D1*
X4003666Y6016753D1*
X4002069Y6009133D1*
X4000362Y6001513D1*
X3997916Y5993893D1*
X3994589Y5986273D1*
X3990353Y5978653D1*
X3985284Y5971033D1*
X3979372Y5963413D1*
X3971657Y5955793D1*
X3960749Y5948173D1*
X3945253Y5940553D1*
X3924894Y5932933D1*
X3902063Y5925313D1*
X4115423Y6192013D2*
X4107803Y6184393D1*
X4176383Y6192013D2*
X4196509Y6184393D1*
X4213750Y6176773D1*
X4227300Y6169153D1*
X4237256Y6161533D1*
X4244321Y6153913D1*
X4249623Y6146293D1*
X4253796Y6138673D1*
X4256861Y6131053D1*
X4258665Y6123433D1*
X4259529Y6115813D1*
X4259654Y6108193D1*
X4258812Y6100573D1*
X4256749Y6092953D1*
X4253519Y6085333D1*
X4248865Y6077713D1*
X4242427Y6070093D1*
X4235019Y6062473D1*
X4228154Y6054853D1*
X4222103Y6047233D1*
X4233211Y6039613D1*
X4242752Y6031993D1*
X4250478Y6024373D1*
X4256467Y6016753D1*
X4261063Y6009133D1*
X4264306Y6001513D1*
X4265901Y5993893D1*
X4266328Y5986273D1*
X4263037Y5978653D1*
X4257719Y5971033D1*
X4250193Y5963413D1*
X4240537Y5955793D1*
X4229723Y5948173D1*
X4241748Y5940553D1*
X4252439Y5932933D1*
X4261016Y5925313D1*
X4267239Y5917693D1*
X4271313Y5910073D1*
X4273955Y5902453D1*
X4273552Y5894833D1*
X4271772Y5887213D1*
X4268644Y5879593D1*
X4263658Y5871973D1*
X4256783Y5864353D1*
X4241521Y5856733D1*
X4221656Y5849113D1*
X4199243Y5841493D1*
X4389743Y6192013D2*
X4374823Y6184393D1*
X4360858Y6176773D1*
X4348743Y6169153D1*
X4338818Y6161533D1*
X4330956Y6153913D1*
X4324921Y6146293D1*
X4320281Y6138673D1*
X4316735Y6131053D1*
X4313870Y6123433D1*
X4311115Y6115813D1*
X4308754Y6108193D1*
X4307262Y6100573D1*
X4306464Y6092953D1*
X4305851Y6085333D1*
X4304738Y6077713D1*
X4302858Y6070093D1*
X4300865Y6062473D1*
X4299414Y6054853D1*
X4298303Y6047233D1*
X4435463Y6192013D2*
X4455328Y6184393D1*
X4471861Y6176773D1*
X4484555Y6169153D1*
X4494383Y6161533D1*
X4502102Y6153913D1*
X4508294Y6146293D1*
X4513822Y6138673D1*
X4518931Y6131053D1*
X4523038Y6123433D1*
X4526265Y6115813D1*
X4529202Y6108193D1*
X4531642Y6100573D1*
X4533166Y6092953D1*
X4533946Y6085333D1*
X4534296Y6077713D1*
X4534439Y6070093D1*
X4534493Y6062473D1*
X4534513Y6054853D1*
X4534520Y6047233D1*
X4534522Y6039613D1*
X4534493Y6031993D1*
X4534226Y6024373D1*
X4533225Y6016753D1*
X4531132Y6009133D1*
X4528177Y6001513D1*
X4524755Y5993893D1*
X4521094Y5986273D1*
X4517290Y5978653D1*
X4512959Y5971033D1*
X4507161Y5963413D1*
X4499072Y5955793D1*
X4488513Y5948173D1*
X4474519Y5940553D1*
X4456229Y5932933D1*
X4435463Y5925313D1*
X4549763Y6192013D2*
Y6184393D1*
Y6176773D1*
Y6169153D1*
Y6161533D1*
Y6153913D1*
Y6146293D1*
Y6138673D1*
Y6131053D1*
Y6123433D1*
X4571423Y6115813D1*
X4587500Y6108193D1*
X4599827Y6100573D1*
X4605448Y6092953D1*
X4609503Y6085333D1*
X4612802Y6077713D1*
X4615383Y6070093D1*
X4616959Y6062473D1*
X4617757Y6054853D1*
X4618113Y6047233D1*
X4618258Y6039613D1*
X4618313Y6031993D1*
X4618333Y6024373D1*
X4618340Y6016753D1*
X4618342Y6009133D1*
X4618343Y6001513D1*
Y5993893D1*
Y5986273D1*
Y5978653D1*
Y5971033D1*
Y5963413D1*
Y5955793D1*
Y5948173D1*
Y5940553D1*
Y5932933D1*
X4557383Y6192013D2*
X4576958Y6184393D1*
X4592514Y6176773D1*
X4603382Y6169153D1*
X4611225Y6161533D1*
X4617320Y6153913D1*
X4621592Y6146293D1*
X4624166Y6138673D1*
X4625963Y6131053D1*
Y6192013D2*
Y6184393D1*
Y6176773D1*
Y6169153D1*
Y6161533D1*
Y6153913D1*
Y6146293D1*
Y6138673D1*
Y6131053D1*
X4702163Y6192013D2*
Y6184393D1*
Y6176773D1*
Y6169153D1*
Y6161533D1*
Y6153913D1*
Y6146293D1*
Y6138673D1*
Y6131053D1*
Y6123433D1*
Y6115813D1*
Y6108193D1*
Y6100573D1*
Y6092953D1*
Y6085333D1*
Y6077713D1*
Y6070093D1*
Y6062473D1*
Y6054853D1*
Y6047233D1*
Y6039613D1*
Y6031993D1*
Y6024373D1*
Y6016753D1*
Y6009133D1*
Y6001513D1*
Y5993893D1*
Y5986273D1*
Y5978653D1*
Y5971033D1*
Y5963413D1*
Y5955793D1*
Y5948173D1*
Y5940553D1*
Y5932933D1*
X4138283Y6153913D2*
X4133588Y6146293D1*
X4129511Y6138673D1*
X4126430Y6131053D1*
X4124605Y6123433D1*
X4123697Y6115813D1*
X4123328Y6108193D1*
X4123465Y6100573D1*
X4124671Y6092953D1*
X4127716Y6085333D1*
X4132581Y6077713D1*
X4138283Y6070093D1*
X4161143Y6153913D2*
X4167266Y6146293D1*
X4171722Y6138673D1*
X4174274Y6131053D1*
X4175512Y6123433D1*
X4176047Y6115813D1*
X4176230Y6108193D1*
X4176013Y6100573D1*
X4174774Y6092953D1*
X4171717Y6085333D1*
X4166848Y6077713D1*
X4161143Y6070093D1*
X2804783Y6138673D2*
Y6131053D1*
Y6123433D1*
Y6115813D1*
Y6108193D1*
Y6100573D1*
Y6092953D1*
Y6085333D1*
Y6077713D1*
X3612503Y6138673D2*
X3602863Y6131053D1*
X3595107Y6123433D1*
X3592281Y6115813D1*
X3590761Y6108193D1*
X3590079Y6100573D1*
X3589803Y6092953D1*
X3589700Y6085333D1*
X3589662Y6077713D1*
X3589650Y6070093D1*
X3589645Y6062473D1*
X3589644Y6054853D1*
Y6047233D1*
X3589643Y6039613D1*
Y6031993D1*
Y6024373D1*
Y6016753D1*
Y6009133D1*
Y6001513D1*
Y5993893D1*
Y5986273D1*
Y5978653D1*
Y5971033D1*
Y5963413D1*
Y5955793D1*
Y5948173D1*
Y5940553D1*
Y5932933D1*
X3620123Y6138673D2*
X3629763Y6131053D1*
X3637519Y6123433D1*
X3640345Y6115813D1*
X3641866Y6108193D1*
X3642548Y6100573D1*
X3642823Y6092953D1*
X3642927Y6085333D1*
X3642964Y6077713D1*
X3642977Y6070093D1*
X3642981Y6062473D1*
X3642983Y6054853D1*
Y6047233D1*
Y6039613D1*
Y6031993D1*
Y6024373D1*
Y6016753D1*
Y6009133D1*
Y6001513D1*
Y5993893D1*
Y5986273D1*
Y5978653D1*
Y5971033D1*
Y5963413D1*
Y5955793D1*
Y5948173D1*
Y5940553D1*
Y5932933D1*
X3871583Y6138673D2*
X3868066Y6131053D1*
X3865877Y6123433D1*
X3864740Y6115813D1*
X3863981Y6108193D1*
X3862811Y6100573D1*
X3860911Y6092953D1*
X3858930Y6085333D1*
X3857592Y6077713D1*
X3856882Y6070093D1*
X3856558Y6062473D1*
X3856453Y6054853D1*
X3856670Y6047233D1*
X3857622Y6039613D1*
X3859440Y6031993D1*
X3861392Y6024373D1*
X3862720Y6016753D1*
X3863456Y6009133D1*
X3864107Y6001513D1*
X3865078Y5993893D1*
X3868927Y5986273D1*
X3877299Y5978653D1*
X3886823Y5971033D1*
X3909683Y6138673D2*
X3912288Y6131053D1*
X3914556Y6123433D1*
X3916001Y6115813D1*
X3916747Y6108193D1*
X3917084Y6100573D1*
X3917251Y6092953D1*
X3917572Y6085333D1*
X3918532Y6077713D1*
X3920096Y6070093D1*
X3921081Y6062473D1*
X3920586Y6054853D1*
X3919339Y6047233D1*
X3918333Y6039613D1*
X3917760Y6031993D1*
X3917488Y6024373D1*
X3917344Y6016753D1*
X3917031Y6009133D1*
X3915984Y6001513D1*
X3913571Y5993893D1*
X3909241Y5986273D1*
X3902586Y5978653D1*
X3894443Y5971033D1*
X4389743Y6138673D2*
X4387138Y6131053D1*
X4384870Y6123433D1*
X4383426Y6115813D1*
X4382679Y6108193D1*
X4382343Y6100573D1*
X4382201Y6092953D1*
X4382123Y6085333D1*
X4435463Y6138673D2*
X4439271Y6131053D1*
X4442436Y6123433D1*
X4445370Y6115813D1*
X4447816Y6108193D1*
X4449349Y6100573D1*
X4450173Y6092953D1*
X4450703Y6085333D1*
X2926703Y6077713D2*
Y6070093D1*
Y6062473D1*
Y6054853D1*
Y6047233D1*
Y6039613D1*
Y6031993D1*
Y6024373D1*
Y6016753D1*
Y6009133D1*
Y6001513D1*
Y5993893D1*
Y5986273D1*
X2240903Y6070093D2*
Y6062473D1*
Y6054853D1*
Y6047233D1*
Y6039613D1*
Y6031993D1*
Y6024373D1*
Y6016753D1*
Y6009133D1*
Y6001513D1*
Y5993893D1*
Y5986273D1*
Y5978653D1*
Y5971033D1*
Y5963413D1*
Y5955793D1*
Y5948173D1*
Y5940553D1*
Y5932933D1*
X2332343Y6070093D2*
Y6062473D1*
Y6054853D1*
Y6047233D1*
Y6039613D1*
Y6031993D1*
Y6024373D1*
Y6016753D1*
Y6009133D1*
Y6001513D1*
Y5993893D1*
Y5986273D1*
Y5978653D1*
Y5971033D1*
Y5963413D1*
Y5955793D1*
Y5948173D1*
Y5940553D1*
Y5932933D1*
X2469503Y6054853D2*
Y6047233D1*
X2469533Y6039613D1*
X2469801Y6031993D1*
X2470802Y6024373D1*
X2472895Y6016753D1*
X2475849Y6009133D1*
X2479271Y6001513D1*
X2482932Y5993893D1*
X2486707Y5986273D1*
X2490770Y5978653D1*
X2495597Y5971033D1*
X2501772Y5963413D1*
X2509590Y5955793D1*
X2519524Y5948173D1*
X2532495Y5940553D1*
X2549314Y5932933D1*
X2568563Y5925313D1*
X2545703Y6054853D2*
X2546911Y6047233D1*
X2549068Y6039613D1*
X2552042Y6031993D1*
X2555499Y6024373D1*
X2559428Y6016753D1*
X2564153Y6009133D1*
X2569911Y6001513D1*
X2576183Y5993893D1*
X4450703Y6047233D2*
Y6039613D1*
Y6031993D1*
X4450674Y6024373D1*
X4450406Y6016753D1*
X4449405Y6009133D1*
X4447252Y6001513D1*
X4443741Y5993893D1*
X4438162Y5986273D1*
X4429938Y5978653D1*
X4420223Y5971033D1*
X4191623Y6031993D2*
X4194829Y6024373D1*
X4196736Y6016753D1*
X4194623Y6009133D1*
X4191623Y6001513D1*
X4305923Y6016753D2*
X4306214Y6009133D1*
X4307220Y6001513D1*
X4309314Y5993893D1*
X4312269Y5986273D1*
X4315751Y5978653D1*
X4319948Y5971033D1*
X4325695Y5963413D1*
X4333765Y5955793D1*
X4344317Y5948173D1*
X4358309Y5940553D1*
X4376598Y5932933D1*
X4397363Y5925313D1*
X4366883Y6016753D2*
X4373296Y6009133D1*
X4378818Y6001513D1*
X4384069Y5993893D1*
X4390815Y5986273D1*
X4400629Y5978653D1*
X4412603Y5971033D1*
X4138283Y6001513D2*
X4104996Y5993893D1*
X4077661Y5986273D1*
X4057890Y5978653D1*
X4044253Y5971033D1*
X4034785Y5963413D1*
X4028111Y5955793D1*
X4023260Y5948173D1*
X4019897Y5940553D1*
X4018003Y5932933D1*
X4017331Y5925313D1*
X4017922Y5917693D1*
X4019850Y5910073D1*
X4022743Y5902453D1*
X4026172Y5894833D1*
X4030124Y5887213D1*
X4035165Y5879593D1*
X4042410Y5871973D1*
X4053124Y5864353D1*
X4068932Y5856733D1*
X4090524Y5849113D1*
X4115423Y5841493D1*
X2774303Y5986273D2*
Y5978653D1*
Y5971033D1*
Y5963413D1*
Y5955793D1*
Y5948173D1*
Y5940553D1*
Y5932933D1*
X4176383Y5940553D2*
X4138604Y5932933D1*
X4110008Y5925313D1*
X4099185Y5917693D1*
X4095025Y5910073D1*
X4094363Y5902453D1*
X4096865Y5894833D1*
X4100183Y5887213D1*
X4184003Y5940553D2*
X4192216Y5932933D1*
X4198452Y5925313D1*
X4203248Y5917693D1*
X4204422Y5910073D1*
X4201691Y5902453D1*
X4197116Y5894833D1*
X4191623Y5887213D1*
X1480017Y4869643D2*
Y4862023D1*
Y4854403D1*
Y4846783D1*
Y4839163D1*
Y4831543D1*
Y4823923D1*
Y4816303D1*
Y4808683D1*
Y4801063D1*
Y4793443D1*
Y4785823D1*
Y4778203D1*
Y4770583D1*
Y4762963D1*
Y4755343D1*
Y4747723D1*
Y4740103D1*
Y4732483D1*
Y4724863D1*
Y4717243D1*
Y4709623D1*
Y4702003D1*
Y4694383D1*
Y4686763D1*
Y4679143D1*
Y4671523D1*
Y4663903D1*
Y4656283D1*
Y4648663D1*
Y4641043D1*
Y4633423D1*
Y4625803D1*
Y4618183D1*
Y4610563D1*
Y4602943D1*
Y4595323D1*
Y4587703D1*
Y4580083D1*
Y4572463D1*
Y4564843D1*
Y4557223D1*
Y4549603D1*
Y4541983D1*
Y4534363D1*
Y4526743D1*
Y4519123D1*
Y4511503D1*
Y4503883D1*
Y4496263D1*
Y4488643D1*
Y4481023D1*
Y4473403D1*
Y4465783D1*
Y4458163D1*
Y4450543D1*
Y4442923D1*
Y4435303D1*
Y4427683D1*
Y4420063D1*
Y4412443D1*
Y4404823D1*
Y4397203D1*
Y4389583D1*
Y4381963D1*
Y4374343D1*
Y4366723D1*
Y4359103D1*
Y4351483D1*
Y4343863D1*
Y4336243D1*
Y4328623D1*
Y4321003D1*
Y4313383D1*
Y4305763D1*
Y4298143D1*
Y4290523D1*
Y4282903D1*
Y4275283D1*
Y4267663D1*
Y4260043D1*
Y4252423D1*
Y4244803D1*
Y4237183D1*
Y4229563D1*
Y4221943D1*
Y4214323D1*
Y4206703D1*
Y4199083D1*
Y4191463D1*
Y4183843D1*
Y4176223D1*
Y4168603D1*
Y4160983D1*
Y4153363D1*
Y4145743D1*
Y4138123D1*
Y4130503D1*
Y4122883D1*
Y4115263D1*
Y4107643D1*
Y4100023D1*
Y4092403D1*
Y4084783D1*
Y4077163D1*
Y4069543D1*
Y4061923D1*
Y4054303D1*
Y4046683D1*
Y4039063D1*
Y4031443D1*
Y4023823D1*
Y4016203D1*
Y4008583D1*
Y4000963D1*
Y3993343D1*
Y3985723D1*
Y3978103D1*
Y3970483D1*
Y3962863D1*
Y3955243D1*
Y3947623D1*
Y3940003D1*
Y3932383D1*
Y3924763D1*
Y3917143D1*
Y3909523D1*
Y3901903D1*
Y3894283D1*
Y3886663D1*
Y3879043D1*
Y3871423D1*
Y3863803D1*
Y3856183D1*
Y3848563D1*
Y3840943D1*
Y3833323D1*
Y3825703D1*
Y3818083D1*
Y3810463D1*
Y3802843D1*
Y3795223D1*
Y3787603D1*
Y3779983D1*
Y3772363D1*
Y3764743D1*
Y3757123D1*
Y3749503D1*
Y3741883D1*
Y3734263D1*
Y3726643D1*
Y3719023D1*
Y3711403D1*
Y3703783D1*
Y3696163D1*
Y3688543D1*
Y3680923D1*
Y3673303D1*
Y3665683D1*
Y3658063D1*
Y3650443D1*
Y3642823D1*
Y3635203D1*
Y3627583D1*
Y3619963D1*
Y3612343D1*
Y3604723D1*
Y3597103D1*
Y3589483D1*
Y3581863D1*
Y3574243D1*
Y3566623D1*
Y3559003D1*
X2310597Y4869643D2*
X2314114Y4862023D1*
X2316303Y4854403D1*
X2317410Y4846783D1*
X2317901Y4839163D1*
X2318100Y4831543D1*
X2318175Y4823923D1*
X2318203Y4816303D1*
X2318212Y4808683D1*
X2318215Y4801063D1*
X2318216Y4793443D1*
X2318217Y4785823D1*
Y4778203D1*
Y4770583D1*
Y4762963D1*
Y4755343D1*
Y4747723D1*
Y4740103D1*
Y4732483D1*
Y4724863D1*
Y4717243D1*
Y4709623D1*
Y4702003D1*
Y4694383D1*
Y4686763D1*
Y4679143D1*
Y4671523D1*
Y4663903D1*
Y4656283D1*
Y4648663D1*
Y4641043D1*
Y4633423D1*
Y4625803D1*
Y4618183D1*
Y4610563D1*
Y4602943D1*
Y4595323D1*
Y4587703D1*
Y4580083D1*
Y4572463D1*
Y4564843D1*
Y4557223D1*
Y4549603D1*
Y4541983D1*
Y4534363D1*
Y4526743D1*
Y4519123D1*
Y4511503D1*
Y4503883D1*
Y4496263D1*
Y4488643D1*
Y4481023D1*
Y4473403D1*
Y4465783D1*
Y4458163D1*
Y4450543D1*
Y4442923D1*
Y4435303D1*
Y4427683D1*
Y4420063D1*
Y4412443D1*
Y4404823D1*
Y4397203D1*
Y4389583D1*
Y4381963D1*
Y4374343D1*
Y4366723D1*
Y4359103D1*
Y4351483D1*
Y4343863D1*
Y4336243D1*
Y4328623D1*
Y4321003D1*
Y4313383D1*
Y4305763D1*
Y4298143D1*
Y4290523D1*
Y4282903D1*
Y4275283D1*
Y4267663D1*
Y4260043D1*
Y4252423D1*
Y4244803D1*
Y4237183D1*
Y4229563D1*
Y4221943D1*
Y4214323D1*
Y4206703D1*
Y4199083D1*
Y4191463D1*
Y4183843D1*
Y4176223D1*
Y4168603D1*
Y4160983D1*
Y4153363D1*
Y4145743D1*
Y4138123D1*
Y4130503D1*
Y4122883D1*
Y4115263D1*
Y4107643D1*
Y4100023D1*
Y4092403D1*
Y4084783D1*
Y4077163D1*
Y4069543D1*
Y4061923D1*
Y4054303D1*
Y4046683D1*
Y4039063D1*
Y4031443D1*
Y4023823D1*
Y4016203D1*
Y4008583D1*
Y4000963D1*
Y3993343D1*
Y3985723D1*
Y3978103D1*
Y3970483D1*
Y3962863D1*
Y3955243D1*
Y3947623D1*
Y3940003D1*
Y3932383D1*
Y3924763D1*
Y3917143D1*
Y3909523D1*
Y3901903D1*
Y3894283D1*
Y3886663D1*
Y3879043D1*
Y3871423D1*
Y3863803D1*
Y3856183D1*
Y3848563D1*
Y3840943D1*
Y3833323D1*
Y3825703D1*
Y3818083D1*
Y3810463D1*
Y3802843D1*
Y3795223D1*
Y3787603D1*
Y3779983D1*
Y3772363D1*
Y3764743D1*
Y3757123D1*
Y3749503D1*
Y3741883D1*
Y3734263D1*
Y3726643D1*
Y3719023D1*
Y3711403D1*
Y3703783D1*
Y3696163D1*
Y3688543D1*
Y3680923D1*
Y3673303D1*
Y3665683D1*
Y3658063D1*
Y3650443D1*
Y3642823D1*
Y3635203D1*
Y3627583D1*
Y3619963D1*
Y3612343D1*
Y3604723D1*
Y3597103D1*
Y3589483D1*
Y3581863D1*
Y3574243D1*
Y3566623D1*
Y3559003D1*
X1906737Y4816303D2*
X1906707Y4808683D1*
X1906439Y4801063D1*
X1905468Y4793443D1*
X1903643Y4785823D1*
X1901689Y4778203D1*
X1900360Y4770583D1*
X1899654Y4762963D1*
X1899330Y4755343D1*
X1899197Y4747723D1*
X1899145Y4740103D1*
X1899127Y4732483D1*
X1899120Y4724863D1*
X1899118Y4717243D1*
X1899117Y4709623D1*
Y4702003D1*
Y4694383D1*
Y4686763D1*
X1899087Y4679143D1*
X1898819Y4671523D1*
X1897848Y4663903D1*
X1896023Y4656283D1*
X1894069Y4648663D1*
X1892710Y4641043D1*
X1891736Y4633423D1*
X1890412Y4625803D1*
X1888156Y4618183D1*
X1884911Y4610563D1*
X1880738Y4602943D1*
X1875948Y4595323D1*
X1871071Y4587703D1*
X1865808Y4580083D1*
X1859708Y4572463D1*
X1853124Y4564843D1*
X1846820Y4557223D1*
X1841167Y4549603D1*
X1835554Y4541983D1*
X1829313Y4534363D1*
X1822674Y4526743D1*
X1816351Y4519123D1*
X1810690Y4511503D1*
X1805075Y4503883D1*
X1798803Y4496263D1*
X1791926Y4488643D1*
X1784900Y4481023D1*
X1778385Y4473403D1*
X1772642Y4465783D1*
X1766994Y4458163D1*
X1760710Y4450543D1*
X1753799Y4442923D1*
X1746503Y4435303D1*
X1739017Y4427683D1*
X1731478Y4420063D1*
X1724144Y4412443D1*
X1717502Y4404823D1*
X1711709Y4397203D1*
X1706044Y4389583D1*
X1699753Y4381963D1*
X1692840Y4374343D1*
X1685543Y4366723D1*
X1678057Y4359103D1*
X1670488Y4351483D1*
X1662887Y4343863D1*
X1655244Y4336243D1*
X1647388Y4328623D1*
X1639035Y4321003D1*
X1630294Y4313383D1*
X1621574Y4305763D1*
X1612784Y4298143D1*
X1604160Y4290523D1*
X1597161Y4282903D1*
X1592006Y4275283D1*
X1592372Y4267663D1*
X1596755Y4260043D1*
X1601792Y4252423D1*
X1606613Y4244803D1*
X1610995Y4237183D1*
X1615086Y4229563D1*
X1619037Y4221943D1*
X1623137Y4214323D1*
X1627691Y4206703D1*
X1632605Y4199083D1*
X1637272Y4191463D1*
X1641586Y4183843D1*
X1645897Y4176223D1*
X1650769Y4168603D1*
X1656447Y4160983D1*
X1662219Y4153363D1*
X1667339Y4145743D1*
X1671583Y4138123D1*
X1674722Y4130503D1*
X1676567Y4122883D1*
X1677450Y4115263D1*
X1677583Y4107643D1*
X1676774Y4100023D1*
X1674980Y4092403D1*
X1672780Y4084783D1*
X1670488Y4077163D1*
X1667929Y4069543D1*
X1665385Y4061923D1*
X1662951Y4054303D1*
X1660339Y4046683D1*
X1657775Y4039063D1*
X1655335Y4031443D1*
X1652749Y4023823D1*
X1650423Y4016203D1*
X1648686Y4008583D1*
X1646955Y4000963D1*
X1644757Y3993343D1*
X1642395Y3985723D1*
X1640011Y3978103D1*
X1637192Y3970483D1*
X1633938Y3962863D1*
X1630618Y3955243D1*
X1627637Y3947623D1*
X1624995Y3940003D1*
X1622323Y3932383D1*
X1619993Y3924763D1*
X1618481Y3917143D1*
X1617448Y3909523D1*
X1616103Y3901903D1*
X1613869Y3894283D1*
X1610890Y3886663D1*
X1607687Y3879043D1*
X1604752Y3871423D1*
X1602126Y3863803D1*
X1599430Y3856183D1*
X1596834Y3848563D1*
X1594381Y3840943D1*
X1591792Y3833323D1*
X1589464Y3825703D1*
X1587726Y3818083D1*
X1585995Y3810463D1*
X1583797Y3802843D1*
X1581435Y3795223D1*
X1579081Y3787603D1*
X1576500Y3779983D1*
X1573949Y3772363D1*
X1571513Y3764743D1*
X1568899Y3757123D1*
X1566335Y3749503D1*
X1563895Y3741883D1*
X1561280Y3734263D1*
X1558715Y3726643D1*
X1556275Y3719023D1*
X1553690Y3711403D1*
X1551363Y3703783D1*
X1549626Y3696163D1*
X1547865Y3688543D1*
X1545429Y3680923D1*
X1542364Y3673303D1*
X1539126Y3665683D1*
X1536179Y3658063D1*
X1533549Y3650443D1*
X1530881Y3642823D1*
X1528551Y3635203D1*
X1527064Y3627583D1*
X1526258Y3619963D1*
X1525737Y3612343D1*
X2066757Y4816303D2*
X2060344Y4808683D1*
X2054881Y4801063D1*
X2050235Y4793443D1*
X2046042Y4785823D1*
X2042085Y4778203D1*
X2038240Y4770583D1*
X2034683Y4762963D1*
X2031831Y4755343D1*
X2029850Y4747723D1*
X2027986Y4740103D1*
X2025511Y4732483D1*
X2022402Y4724863D1*
X2018921Y4717243D1*
X2015268Y4709623D1*
X2011754Y4702003D1*
X2008690Y4694383D1*
X2006014Y4686763D1*
X2003300Y4679143D1*
X2000697Y4671523D1*
X1998242Y4663903D1*
X1995652Y4656283D1*
X1993384Y4648663D1*
X1992182Y4641043D1*
X1992392Y4633423D1*
X1993874Y4625803D1*
X1995688Y4618183D1*
X1996963Y4610563D1*
X1997620Y4602943D1*
X1997639Y4595323D1*
X1996502Y4587703D1*
X1993488Y4580083D1*
X1988727Y4572463D1*
X1983328Y4564843D1*
X1978072Y4557223D1*
X1972621Y4549603D1*
X1966410Y4541983D1*
X1959525Y4534363D1*
X1952268Y4526743D1*
X1945023Y4519123D1*
X1938159Y4511503D1*
X1931412Y4503883D1*
X1923957Y4496263D1*
X1915982Y4488643D1*
X1908712Y4481023D1*
X1902534Y4473403D1*
X1896678Y4465783D1*
X1890305Y4458163D1*
X1883358Y4450543D1*
X1876050Y4442923D1*
X1868559Y4435303D1*
X1861019Y4427683D1*
X1853685Y4420063D1*
X1847042Y4412443D1*
X1841249Y4404823D1*
X1835584Y4397203D1*
X1829293Y4389583D1*
X1822380Y4381963D1*
X1815083Y4374343D1*
X1807597Y4366723D1*
X1800028Y4359103D1*
X1792427Y4351483D1*
X1784813Y4343863D1*
X1777196Y4336243D1*
X1769576Y4328623D1*
X1761986Y4321003D1*
X1754634Y4313383D1*
X1747985Y4305763D1*
X1742190Y4298143D1*
X1736524Y4290523D1*
X1730263Y4282903D1*
X1723647Y4275283D1*
X1717649Y4267663D1*
X1712664Y4260043D1*
X1711121Y4252423D1*
X1712391Y4244803D1*
X1714242Y4237183D1*
X1716371Y4229563D1*
X1718833Y4221943D1*
X1721114Y4214323D1*
X1722835Y4206703D1*
X1724591Y4199083D1*
X1727025Y4191463D1*
X1730120Y4183843D1*
X1733595Y4176223D1*
X1737276Y4168603D1*
X1741057Y4160983D1*
X1745093Y4153363D1*
X1749623Y4145743D1*
X1754558Y4138123D1*
X1759461Y4130503D1*
X1764478Y4122883D1*
X1769643Y4115263D1*
X1774672Y4107643D1*
X1779994Y4100023D1*
X1786144Y4092403D1*
X1793003Y4084783D1*
X1800281Y4077163D1*
X1807760Y4069543D1*
X1815356Y4061923D1*
X1823225Y4054303D1*
X1831839Y4046683D1*
X1841579Y4039063D1*
X1852391Y4031443D1*
X1864195Y4023823D1*
X1876866Y4016203D1*
X1890362Y4008583D1*
X1905367Y4000963D1*
X1922368Y3993343D1*
X1941650Y3985723D1*
X1964436Y3978103D1*
X1992833Y3970483D1*
X2027907Y3962863D1*
X2066757Y3955243D1*
X2264877Y4808683D2*
X2258144Y4801063D1*
X2251437Y4793443D1*
X2243963Y4785823D1*
X2235753Y4778203D1*
X2227780Y4770583D1*
X2220748Y4762963D1*
X2214764Y4755343D1*
X2209016Y4747723D1*
X2202692Y4740103D1*
X2195766Y4732483D1*
X2188465Y4724863D1*
X2181007Y4717243D1*
X2173766Y4709623D1*
X2167701Y4702003D1*
X2163092Y4694383D1*
X2163462Y4686763D1*
X2165616Y4679143D1*
X2169285Y4671523D1*
X2173838Y4663903D1*
X2178368Y4656283D1*
X2182602Y4648663D1*
X2186628Y4641043D1*
X2190523Y4633423D1*
X2194374Y4625803D1*
X2198192Y4618183D1*
X2201983Y4610563D1*
X2205520Y4602943D1*
X2208366Y4595323D1*
X2210345Y4587703D1*
X2212177Y4580083D1*
X2214384Y4572463D1*
X2216493Y4564843D1*
X2217911Y4557223D1*
X2218906Y4549603D1*
X2220208Y4541983D1*
X2222169Y4534363D1*
X2224175Y4526743D1*
X2225523Y4519123D1*
X2226236Y4511503D1*
X2226562Y4503883D1*
X2226696Y4496263D1*
X2226748Y4488643D1*
X2226767Y4481023D1*
X2226773Y4473403D1*
X2226776Y4465783D1*
Y4458163D1*
X2226747Y4450543D1*
X2226479Y4442923D1*
X2225508Y4435303D1*
X2223683Y4427683D1*
X2221699Y4420063D1*
X2220103Y4412443D1*
X2218425Y4404823D1*
X2216277Y4397203D1*
X2214159Y4389583D1*
X2212511Y4381963D1*
X2210815Y4374343D1*
X2208630Y4366723D1*
X2206273Y4359103D1*
X2203891Y4351483D1*
X2201042Y4343863D1*
X2197520Y4336243D1*
X2193259Y4328623D1*
X2188691Y4321003D1*
X2184769Y4313383D1*
X2181324Y4305763D1*
X2177147Y4298143D1*
X2171653Y4290523D1*
X2165352Y4282903D1*
X2159168Y4275283D1*
X2153531Y4267663D1*
X2147668Y4260043D1*
X2140431Y4252423D1*
X2131672Y4244803D1*
X2122156Y4237183D1*
X2112371Y4229563D1*
X2102241Y4221943D1*
X2092066Y4214323D1*
X2081661Y4206703D1*
X2069612Y4199083D1*
X2054255Y4191463D1*
X2034963Y4183843D1*
X2013417Y4176223D1*
X2272497Y4808683D2*
Y4801063D1*
Y4793443D1*
Y4785823D1*
Y4778203D1*
Y4770583D1*
Y4762963D1*
Y4755343D1*
Y4747723D1*
Y4740103D1*
Y4732483D1*
Y4724863D1*
Y4717243D1*
Y4709623D1*
Y4702003D1*
Y4694383D1*
Y4686763D1*
Y4679143D1*
Y4671523D1*
Y4663903D1*
Y4656283D1*
Y4648663D1*
Y4641043D1*
Y4633423D1*
Y4625803D1*
Y4618183D1*
Y4610563D1*
Y4602943D1*
Y4595323D1*
Y4587703D1*
Y4580083D1*
Y4572463D1*
Y4564843D1*
Y4557223D1*
Y4549603D1*
Y4541983D1*
Y4534363D1*
Y4526743D1*
Y4519123D1*
Y4511503D1*
Y4503883D1*
Y4496263D1*
Y4488643D1*
Y4481023D1*
Y4473403D1*
Y4465783D1*
Y4458163D1*
Y4450543D1*
Y4442923D1*
Y4435303D1*
Y4427683D1*
Y4420063D1*
Y4412443D1*
Y4404823D1*
Y4397203D1*
Y4389583D1*
Y4381963D1*
Y4374343D1*
Y4366723D1*
Y4359103D1*
Y4351483D1*
Y4343863D1*
Y4336243D1*
Y4328623D1*
Y4321003D1*
Y4313383D1*
Y4305763D1*
Y4298143D1*
Y4290523D1*
Y4282903D1*
Y4275283D1*
Y4267663D1*
Y4260043D1*
Y4252423D1*
Y4244803D1*
Y4237183D1*
Y4229563D1*
Y4221943D1*
Y4214323D1*
Y4206703D1*
Y4199083D1*
Y4191463D1*
Y4183843D1*
Y4176223D1*
Y4168603D1*
Y4160983D1*
Y4153363D1*
Y4145743D1*
Y4138123D1*
Y4130503D1*
Y4122883D1*
Y4115263D1*
X2272437Y4107643D1*
X2271842Y4100023D1*
X2270413Y4092403D1*
X2263364Y4084783D1*
X2252764Y4077163D1*
X2238541Y4069543D1*
X2219818Y4061923D1*
X2194074Y4054303D1*
X2159655Y4046683D1*
X2120097Y4039063D1*
X2089617Y4618183D2*
X2081997Y4610563D1*
X2074377Y4602943D1*
X2066757Y4595323D1*
X2059137Y4587703D1*
X2051546Y4580083D1*
X2044254Y4572463D1*
X2038171Y4564843D1*
X2033553Y4557223D1*
X2033632Y4549603D1*
X2034809Y4541983D1*
X2036622Y4534363D1*
X2038953Y4526743D1*
X2041153Y4519123D1*
X2042588Y4511503D1*
X2043336Y4503883D1*
X2043675Y4496263D1*
X2043814Y4488643D1*
X2043837Y4481023D1*
X2043589Y4473403D1*
X2042625Y4465783D1*
X2040772Y4458163D1*
X2038551Y4450543D1*
X2036251Y4442923D1*
X2033690Y4435303D1*
X2031115Y4427683D1*
X2028384Y4420063D1*
X2024532Y4412443D1*
X2019143Y4404823D1*
X2012626Y4397203D1*
X2005430Y4389583D1*
X1997438Y4381963D1*
X1987648Y4374343D1*
X1975098Y4366723D1*
X1960347Y4359103D1*
X1944837Y4351483D1*
X2104857Y4618183D2*
X2106324Y4610563D1*
X2109190Y4602943D1*
X2113019Y4595323D1*
X2116576Y4587703D1*
X2119614Y4580083D1*
X2122737Y4572463D1*
X2126119Y4564843D1*
X2129458Y4557223D1*
X2132219Y4549603D1*
X2134164Y4541983D1*
X2135984Y4534363D1*
X2138187Y4526743D1*
X2140294Y4519123D1*
X2141681Y4511503D1*
X2142409Y4503883D1*
X2142739Y4496263D1*
X2142875Y4488643D1*
X2142928Y4481023D1*
X2142947Y4473403D1*
X2142953Y4465783D1*
X2142956Y4458163D1*
X2142927Y4450543D1*
X2142659Y4442923D1*
X2141688Y4435303D1*
X2139833Y4427683D1*
X2137612Y4420063D1*
X2135311Y4412443D1*
X2132750Y4404823D1*
X2130205Y4397203D1*
X2127742Y4389583D1*
X2124891Y4381963D1*
X2121594Y4374343D1*
X2118002Y4366723D1*
X2114020Y4359103D1*
X2109284Y4351483D1*
X2103657Y4343863D1*
X2097875Y4336243D1*
X2092434Y4328623D1*
X2086655Y4321003D1*
X2079452Y4313383D1*
X2070705Y4305763D1*
X2061164Y4298143D1*
X2051023Y4290523D1*
X2039075Y4282903D1*
X2023756Y4275283D1*
X2004477Y4267663D1*
X1982937Y4260043D1*
X1937217Y4442923D2*
X1925002Y4435303D1*
X1914788Y4427683D1*
X1910934Y4420063D1*
X1912072Y4412443D1*
X1914357Y4404823D1*
X1929597Y4442923D2*
X1936867Y4435303D1*
X1942924Y4427683D1*
X1947478Y4420063D1*
X1946735Y4412443D1*
X1944837Y4404823D1*
X1861017Y4366723D2*
X1853687Y4359103D1*
X1847044Y4351483D1*
X1841250Y4343863D1*
X1835584Y4336243D1*
X1829299Y4328623D1*
X1822426Y4321003D1*
X1815297Y4313383D1*
X1823237Y4305763D1*
X1832131Y4298143D1*
X1842906Y4290523D1*
X1856154Y4282903D1*
X1872503Y4275283D1*
X1892397Y4267663D1*
X1914357Y4260043D1*
X1861017Y4366723D2*
X1883877Y4359103D1*
X1906737Y4351483D1*
X1807677Y4221943D2*
X1809174Y4214323D1*
X1812308Y4206703D1*
X1817108Y4199083D1*
X1822519Y4191463D1*
X1827779Y4183843D1*
X1833232Y4176223D1*
X1839443Y4168603D1*
X1846298Y4160983D1*
X1853347Y4153363D1*
X1860127Y4145743D1*
X1866841Y4138123D1*
X1874343Y4130503D1*
X1882849Y4122883D1*
X1892060Y4115263D1*
X1901917Y4107643D1*
X1911978Y4100023D1*
X1922308Y4092403D1*
X1934029Y4084783D1*
X1948062Y4077163D1*
X1964706Y4069543D1*
X1984821Y4061923D1*
X2010867Y4054303D1*
X2044339Y4046683D1*
X2081997Y4039063D1*
X1807677Y4221943D2*
X1821739Y4214323D1*
X1835149Y4206703D1*
X1848997Y4199083D1*
X1865252Y4191463D1*
X1884953Y4183843D1*
X1906737Y4176223D1*
X1533357Y4206703D2*
Y4199083D1*
Y4191463D1*
Y4183843D1*
Y4176223D1*
Y4168603D1*
Y4160983D1*
Y4153363D1*
Y4145743D1*
Y4138123D1*
Y4130503D1*
Y4122883D1*
Y4115263D1*
Y4107643D1*
Y4100023D1*
Y4092403D1*
Y4084783D1*
Y4077163D1*
Y4069543D1*
Y4061923D1*
Y4054303D1*
Y4046683D1*
Y4039063D1*
Y4031443D1*
Y4023823D1*
Y4016203D1*
Y4008583D1*
Y4000963D1*
Y3993343D1*
Y3985723D1*
Y3978103D1*
Y3970483D1*
Y3962863D1*
Y3955243D1*
Y3947623D1*
Y3940003D1*
Y3932383D1*
Y3924763D1*
Y3917143D1*
Y3909523D1*
Y3901903D1*
Y3894283D1*
Y3886663D1*
Y3879043D1*
Y3871423D1*
Y3863803D1*
Y3856183D1*
Y3848563D1*
Y3840943D1*
Y3833323D1*
X1548597Y4206703D2*
X1550064Y4199083D1*
X1552960Y4191463D1*
X1557057Y4183843D1*
X1561585Y4176223D1*
X1566448Y4168603D1*
X1571555Y4160983D1*
X1576533Y4153363D1*
X1581580Y4145743D1*
X1586756Y4138123D1*
X1591790Y4130503D1*
X1597083Y4122883D1*
X1602966Y4115263D1*
X1608849Y4107643D1*
X1614237Y4100023D1*
X1619444Y4092403D1*
X1624797Y4084783D1*
X1621249Y4077163D1*
X1618793Y4069543D1*
X1616714Y4061923D1*
X1614369Y4054303D1*
X1611948Y4046683D1*
X1609573Y4039063D1*
X1606984Y4031443D1*
X1604430Y4023823D1*
X1601993Y4016203D1*
X1599379Y4008583D1*
X1596815Y4000963D1*
X1594375Y3993343D1*
X1591789Y3985723D1*
X1589463Y3978103D1*
X1587726Y3970483D1*
X1585995Y3962863D1*
X1583797Y3955243D1*
X1581435Y3947623D1*
X1579081Y3940003D1*
X1576500Y3932383D1*
X1573949Y3924763D1*
X1571513Y3917143D1*
X1568899Y3909523D1*
X1566335Y3901903D1*
X1563895Y3894283D1*
X1561280Y3886663D1*
X1558715Y3879043D1*
X1556275Y3871423D1*
X1553690Y3863803D1*
X1551393Y3856183D1*
X1549918Y3848563D1*
X1549116Y3840943D1*
X1548597Y3833323D1*
X2272497Y3993343D2*
X2249227Y3985723D1*
X2224224Y3978103D1*
X2194763Y3970483D1*
X2159215Y3962863D1*
X2120097Y3955243D1*
X2272497Y3993343D2*
Y3985723D1*
Y3978103D1*
Y3970483D1*
Y3962863D1*
Y3955243D1*
Y3947623D1*
Y3940003D1*
Y3932383D1*
Y3924763D1*
Y3917143D1*
X2272467Y3909523D1*
X2272169Y3901903D1*
X2270811Y3894283D1*
X2268166Y3886663D1*
X2257986Y3879043D1*
X2240806Y3871423D1*
X2215473Y3863803D1*
X2184232Y3856183D1*
X2150577Y3848563D1*
X1906737Y3901903D2*
X1906707Y3894283D1*
X1906439Y3886663D1*
X1905468Y3879043D1*
X1903643Y3871423D1*
X1901689Y3863803D1*
X1900330Y3856183D1*
X1899356Y3848563D1*
X1898056Y3840943D1*
X1896033Y3833323D1*
X1893712Y3825703D1*
X1891497Y3818083D1*
X1929597Y3894283D2*
X1945216Y3886663D1*
X1962326Y3879043D1*
X1983194Y3871423D1*
X2009608Y3863803D1*
X2040911Y3856183D1*
X2074377Y3848563D1*
X1822917Y3833323D2*
X1819109Y3825703D1*
X1815944Y3818083D1*
X1813010Y3810463D1*
X1810565Y3802843D1*
X1809037Y3795223D1*
X1808255Y3787603D1*
X1807875Y3779983D1*
X1807464Y3772363D1*
X1806438Y3764743D1*
X1804563Y3757123D1*
X1802335Y3749503D1*
X1800003Y3741883D1*
X1797179Y3734263D1*
X1793704Y3726643D1*
X1789517Y3719023D1*
X1784817Y3711403D1*
X1845777Y3833323D2*
X1853397Y3825703D1*
X1861017Y3818083D1*
X1708617Y3741883D2*
X1707439Y3734263D1*
X1705550Y3726643D1*
X1703577Y3719023D1*
X1702242Y3711403D1*
X1701534Y3703783D1*
X1701211Y3696163D1*
X1701077Y3688543D1*
X1701025Y3680923D1*
X1701007Y3673303D1*
X1700970Y3665683D1*
X1700700Y3658063D1*
X1699728Y3650443D1*
X1697903Y3642823D1*
X1695949Y3635203D1*
X1694614Y3627583D1*
X1693868Y3619963D1*
X1693377Y3612343D1*
X1731477Y3741883D2*
X1739409Y3734263D1*
X1748212Y3726643D1*
X1758439Y3719023D1*
X1769577Y3711403D1*
X3054709Y2399073D2*
D81*
X3021944D1*
X3010994Y2402780D1*
X3007287Y2406401D1*
X3003666Y2413645D1*
Y2420973D1*
X3007287Y2428217D1*
X3010994Y2431923D1*
X3021944Y2435545D1*
X3054709D1*
Y2358980D1*
X3029187Y2399073D2*
X3003666Y2358980D1*
X2980136Y2420889D2*
X2972808Y2424595D1*
X2961858Y2435461D1*
Y2358980D1*
X2938329Y2420889D2*
X2931001Y2424595D1*
X2920051Y2435461D1*
Y2358980D1*
X3364435Y2873209D2*
Y2818543D1*
X3360813Y2807593D1*
X3353485Y2800349D1*
X3342535Y2796643D1*
X3335291D1*
X3324341Y2800349D1*
X3317013Y2807593D1*
X3313391Y2818543D1*
Y2873209D1*
X3282534Y2873124D2*
X3242524D1*
X3264340Y2843981D1*
X3253390D1*
X3246146Y2840359D1*
X3242524Y2836737D1*
X3238818Y2825787D1*
Y2818543D1*
X3242524Y2807593D1*
X3249768Y2800265D1*
X3260718Y2796643D1*
X3271668D1*
X3282534Y2800265D1*
X3286156Y2803971D1*
X3289862Y2811215D1*
X4722558Y3451628D2*
D83*
X4678758D1*
X4664270Y3456457D1*
X4659328Y3461399D1*
X4654499Y3471057D1*
Y3485657D1*
X4659328Y3495316D1*
X4664270Y3500257D1*
X4678758Y3505087D1*
X4722558D1*
Y3402999D1*
X4623127Y3471057D2*
Y3402999D1*
Y3441857D2*
X4618185Y3456457D1*
X4608527Y3466228D1*
X4598756Y3471057D1*
X4584156D1*
X4528525D2*
X4538183Y3466228D1*
X4547954Y3456457D1*
X4552783Y3441857D1*
Y3432199D1*
X4547954Y3417599D1*
X4538183Y3407940D1*
X4528525Y3402999D1*
X4513925D1*
X4504154Y3407940D1*
X4494496Y3417599D1*
X4489554Y3432199D1*
Y3441857D1*
X4494496Y3456457D1*
X4504154Y3466228D1*
X4513925Y3471057D1*
X4528525D1*
X4399894Y3466228D2*
Y3388399D1*
X4404723Y3373911D1*
X4409552Y3368970D1*
X4419323Y3364140D1*
X4433923D1*
X4443582Y3368970D1*
X4399894Y3451628D2*
X4409552Y3461287D1*
X4419323Y3466228D1*
X4433923D1*
X4443582Y3461287D1*
X4453352Y3451628D1*
X4458182Y3437028D1*
Y3427257D1*
X4453352Y3412770D1*
X4443582Y3402999D1*
X4433923Y3398170D1*
X4419323D1*
X4409552Y3402999D1*
X4399894Y3412770D1*
X4368521Y3471057D2*
Y3402999D1*
Y3441857D2*
X4363580Y3456457D1*
X4353921Y3466228D1*
X4344151Y3471057D1*
X4329551D1*
X4239890D2*
Y3402999D1*
Y3456457D2*
X4249549Y3466228D1*
X4259320Y3471057D1*
X4273807D1*
X4283578Y3466228D1*
X4293236Y3456457D1*
X4298178Y3441857D1*
Y3432199D1*
X4293236Y3417599D1*
X4283578Y3407940D1*
X4273807Y3402999D1*
X4259320D1*
X4249549Y3407940D1*
X4239890Y3417599D1*
X4208518Y3471057D2*
Y3402999D1*
Y3451628D2*
X4193918Y3466228D1*
X4184147Y3471057D1*
X4169659D1*
X4159888Y3466228D1*
X4155059Y3451628D1*
Y3402999D1*
Y3451628D2*
X4140459Y3466228D1*
X4130688Y3471057D1*
X4116201D1*
X4106430Y3466228D1*
X4101488Y3451628D1*
Y3402999D1*
X4070116Y3471057D2*
Y3402999D1*
Y3451628D2*
X4055516Y3466228D1*
X4045745Y3471057D1*
X4031257D1*
X4021487Y3466228D1*
X4016657Y3451628D1*
Y3402999D1*
Y3451628D2*
X4002057Y3466228D1*
X3992287Y3471057D1*
X3977799D1*
X3968028Y3466228D1*
X3963087Y3451628D1*
Y3402999D1*
X3931714Y3505087D2*
X3926885Y3500257D1*
X3921943Y3505087D1*
X3926885Y3510028D1*
X3931714Y3505087D1*
X3926885Y3471057D2*
Y3402999D1*
X3890571Y3471057D2*
Y3402999D1*
Y3451628D2*
X3875971Y3466228D1*
X3866200Y3471057D1*
X3851712D1*
X3841942Y3466228D1*
X3837112Y3451628D1*
Y3402999D1*
X3747452Y3466228D2*
Y3388399D1*
X3752281Y3373911D1*
X3757111Y3368970D1*
X3766881Y3364140D1*
X3781481D1*
X3791140Y3368970D1*
X3747452Y3451628D2*
X3757111Y3461287D1*
X3766881Y3466228D1*
X3781481D1*
X3791140Y3461287D1*
X3800911Y3451628D1*
X3805740Y3437028D1*
Y3427257D1*
X3800911Y3412770D1*
X3791140Y3402999D1*
X3781481Y3398170D1*
X3766881D1*
X3757111Y3402999D1*
X3747452Y3412770D1*
X3617322Y3505087D2*
X3612493Y3500257D1*
X3607552Y3505087D1*
X3612493Y3510028D1*
X3617322Y3505087D1*
X3612493Y3471057D2*
Y3402999D1*
X3576179Y3471057D2*
Y3402999D1*
Y3451628D2*
X3561579Y3466228D1*
X3551808Y3471057D1*
X3537321D1*
X3527550Y3466228D1*
X3522721Y3451628D1*
Y3402999D1*
X3437890Y3456457D2*
X3442719Y3466228D1*
X3457319Y3471057D1*
X3471919D1*
X3486519Y3466228D1*
X3491348Y3456457D1*
X3486519Y3446799D1*
X3476748Y3441857D1*
X3452490Y3437028D1*
X3442719Y3432199D1*
X3437890Y3422428D1*
Y3417599D1*
X3442719Y3407940D1*
X3457319Y3402999D1*
X3471919D1*
X3486519Y3407940D1*
X3491348Y3417599D1*
X3391917Y3505087D2*
Y3422428D1*
X3387088Y3407940D1*
X3377317Y3402999D1*
X3367659D1*
X3406517Y3471057D2*
X3372488D1*
X3336286D2*
Y3402999D1*
Y3441857D2*
X3331345Y3456457D1*
X3321686Y3466228D1*
X3311915Y3471057D1*
X3297315D1*
X3265943D2*
Y3422428D1*
X3261114Y3407940D1*
X3251343Y3402999D1*
X3236743D1*
X3227084Y3407940D1*
X3212484Y3422428D1*
Y3471057D2*
Y3402999D1*
X3122712Y3456457D2*
X3132483Y3466228D1*
X3142253Y3471057D1*
X3156741D1*
X3166512Y3466228D1*
X3176170Y3456457D1*
X3181112Y3441857D1*
Y3432199D1*
X3176170Y3417599D1*
X3166512Y3407940D1*
X3156741Y3402999D1*
X3142253D1*
X3132483Y3407940D1*
X3122712Y3417599D1*
X3076739Y3505087D2*
Y3422428D1*
X3071910Y3407940D1*
X3062139Y3402999D1*
X3052481D1*
X3091339Y3471057D2*
X3057310D1*
X3021108Y3505087D2*
X3016279Y3500257D1*
X3011337Y3505087D1*
X3016279Y3510028D1*
X3021108Y3505087D1*
X3016279Y3471057D2*
Y3402999D1*
X2955706Y3471057D2*
X2965365Y3466228D1*
X2975136Y3456457D1*
X2979965Y3441857D1*
Y3432199D1*
X2975136Y3417599D1*
X2965365Y3407940D1*
X2955706Y3402999D1*
X2941106D1*
X2931336Y3407940D1*
X2921677Y3417599D1*
X2916736Y3432199D1*
Y3441857D1*
X2921677Y3456457D1*
X2931336Y3466228D1*
X2941106Y3471057D1*
X2955706D1*
X2885363D2*
Y3402999D1*
Y3451628D2*
X2870763Y3466228D1*
X2860992Y3471057D1*
X2846505D1*
X2836734Y3466228D1*
X2831905Y3451628D1*
Y3402999D1*
X2747074Y3456457D2*
X2751903Y3466228D1*
X2766503Y3471057D1*
X2781103D1*
X2795703Y3466228D1*
X2800532Y3456457D1*
X2795703Y3446799D1*
X2785932Y3441857D1*
X2761674Y3437028D1*
X2751903Y3432199D1*
X2747074Y3422428D1*
Y3417599D1*
X2751903Y3407940D1*
X2766503Y3402999D1*
X2781103D1*
X2795703Y3407940D1*
X2800532Y3417599D1*
X2710760Y3471057D2*
X2715701Y3466116D1*
X2710760Y3461287D1*
X2705930Y3466116D1*
X2710760Y3471057D1*
Y3412770D2*
X2715701Y3407828D1*
X2710760Y3402999D1*
X2705930Y3407828D1*
X2710760Y3412770D1*
X4823772Y3279354D2*
X4833431Y3274525D1*
X4843201Y3264754D1*
X4848031Y3250154D1*
Y3240496D1*
X4843201Y3225896D1*
X4833431Y3216237D1*
X4823772Y3211296D1*
X4809172D1*
X4799401Y3216237D1*
X4789743Y3225896D1*
X4784801Y3240496D1*
Y3250154D1*
X4789743Y3264754D1*
X4799401Y3274525D1*
X4809172Y3279354D1*
X4823772D1*
X4753429Y3313383D2*
X4748600Y3308554D1*
X4743658Y3313383D1*
X4748600Y3318325D1*
X4753429Y3313383D1*
X4748600Y3279354D2*
Y3211296D1*
X4697686Y3313383D2*
Y3230725D1*
X4692856Y3216237D1*
X4683086Y3211296D1*
X4673427D1*
X4712286Y3279354D2*
X4678256D1*
X4637225Y3221066D2*
X4642055Y3216125D1*
X4637225Y3211296D1*
X4632284Y3216125D1*
X4637225Y3221066D1*
X4600911Y3250154D2*
X4542623D1*
Y3259925D1*
X4547453Y3269696D1*
X4552282Y3274525D1*
X4562053Y3279354D1*
X4576653D1*
X4586311Y3274525D1*
X4596082Y3264754D1*
X4600911Y3250154D1*
Y3240496D1*
X4596082Y3225896D1*
X4586311Y3216237D1*
X4576653Y3211296D1*
X4562053D1*
X4552282Y3216237D1*
X4542623Y3225896D1*
X4452963Y3313383D2*
Y3211296D1*
Y3264754D2*
X4462622Y3274525D1*
X4472392Y3279354D1*
X4486992D1*
X4496651Y3274525D1*
X4506422Y3264754D1*
X4511251Y3250154D1*
Y3240496D1*
X4506422Y3225896D1*
X4496651Y3216237D1*
X4486992Y3211296D1*
X4472392D1*
X4462622Y3216237D1*
X4452963Y3225896D1*
X4421591Y3279354D2*
Y3230725D1*
X4416761Y3216237D1*
X4406991Y3211296D1*
X4392391D1*
X4382732Y3216237D1*
X4368132Y3230725D1*
Y3279354D2*
Y3211296D1*
X4336760D2*
X4268701Y3313271D1*
X4178929Y3264754D2*
X4188699Y3274525D1*
X4198470Y3279354D1*
X4212958D1*
X4222729Y3274525D1*
X4232387Y3264754D1*
X4237329Y3250154D1*
Y3240496D1*
X4232387Y3225896D1*
X4222729Y3216237D1*
X4212958Y3211296D1*
X4198470D1*
X4188699Y3216237D1*
X4178929Y3225896D1*
X4147556Y3250154D2*
X4089268D1*
Y3259925D1*
X4094098Y3269696D1*
X4098927Y3274525D1*
X4108698Y3279354D1*
X4123298D1*
X4132956Y3274525D1*
X4142727Y3264754D1*
X4147556Y3250154D1*
Y3240496D1*
X4142727Y3225896D1*
X4132956Y3216237D1*
X4123298Y3211296D1*
X4108698D1*
X4098927Y3216237D1*
X4089268Y3225896D1*
X4043296Y3313383D2*
Y3230725D1*
X4038467Y3216237D1*
X4028696Y3211296D1*
X4019037D1*
X4057896Y3279354D2*
X4023867D1*
X3987665Y3211296D2*
X3919606Y3313271D1*
X3863975Y3279354D2*
X3873634Y3274525D1*
X3883405Y3264754D1*
X3888234Y3250154D1*
Y3240496D1*
X3883405Y3225896D1*
X3873634Y3216237D1*
X3863975Y3211296D1*
X3849375D1*
X3839605Y3216237D1*
X3829946Y3225896D1*
X3825005Y3240496D1*
Y3250154D1*
X3829946Y3264754D1*
X3839605Y3274525D1*
X3849375Y3279354D1*
X3863975D1*
X3793632D2*
Y3177266D1*
Y3264754D2*
X3783861Y3274413D1*
X3774203Y3279354D1*
X3759603D1*
X3749832Y3274413D1*
X3740174Y3264754D1*
X3735232Y3250154D1*
Y3240383D1*
X3740174Y3225896D1*
X3749832Y3216125D1*
X3759603Y3211296D1*
X3774203D1*
X3783861Y3216125D1*
X3793632Y3225896D1*
X3703860Y3250154D2*
X3645572D1*
Y3259925D1*
X3650401Y3269696D1*
X3655230Y3274525D1*
X3665001Y3279354D1*
X3679601D1*
X3689260Y3274525D1*
X3699030Y3264754D1*
X3703860Y3250154D1*
Y3240496D1*
X3699030Y3225896D1*
X3689260Y3216237D1*
X3679601Y3211296D1*
X3665001D1*
X3655230Y3216237D1*
X3645572Y3225896D1*
X3614199Y3279354D2*
Y3211296D1*
Y3259925D2*
X3599599Y3274525D1*
X3589829Y3279354D1*
X3575341D1*
X3565570Y3274525D1*
X3560741Y3259925D1*
Y3211296D1*
X3529368Y3262283D2*
X3473214D1*
X3388383Y3264754D2*
X3393213Y3274525D1*
X3407813Y3279354D1*
X3422413D1*
X3437013Y3274525D1*
X3441842Y3264754D1*
X3437013Y3255096D1*
X3427242Y3250154D1*
X3402983Y3245325D1*
X3393213Y3240496D1*
X3388383Y3230725D1*
Y3225896D1*
X3393213Y3216237D1*
X3407813Y3211296D1*
X3422413D1*
X3437013Y3216237D1*
X3441842Y3225896D1*
X3332752Y3279354D2*
X3342411Y3274525D1*
X3352182Y3264754D1*
X3357011Y3250154D1*
Y3240496D1*
X3352182Y3225896D1*
X3342411Y3216237D1*
X3332752Y3211296D1*
X3318152D1*
X3308382Y3216237D1*
X3298723Y3225896D1*
X3293782Y3240496D1*
Y3250154D1*
X3298723Y3264754D1*
X3308382Y3274525D1*
X3318152Y3279354D1*
X3332752D1*
X3262409D2*
Y3230725D1*
X3257580Y3216237D1*
X3247809Y3211296D1*
X3233209D1*
X3223551Y3216237D1*
X3208951Y3230725D1*
Y3279354D2*
Y3211296D1*
X3177578Y3279354D2*
Y3211296D1*
Y3250154D2*
X3172637Y3264754D1*
X3162978Y3274525D1*
X3153207Y3279354D1*
X3138607D1*
X3048835Y3264754D2*
X3058606Y3274525D1*
X3068376Y3279354D1*
X3082864D1*
X3092635Y3274525D1*
X3102293Y3264754D1*
X3107235Y3250154D1*
Y3240496D1*
X3102293Y3225896D1*
X3092635Y3216237D1*
X3082864Y3211296D1*
X3068376D1*
X3058606Y3216237D1*
X3048835Y3225896D1*
X3017462Y3250154D2*
X2959175D1*
Y3259925D1*
X2964004Y3269696D1*
X2968833Y3274525D1*
X2978604Y3279354D1*
X2993204D1*
X3002862Y3274525D1*
X3012633Y3264754D1*
X3017462Y3250154D1*
Y3240496D1*
X3012633Y3225896D1*
X3002862Y3216237D1*
X2993204Y3211296D1*
X2978604D1*
X2968833Y3216237D1*
X2959175Y3225896D1*
X2927802Y3262283D2*
X2871648D1*
X2840276Y3279354D2*
Y3177266D1*
Y3264754D2*
X2830505Y3274413D1*
X2820846Y3279354D1*
X2806246D1*
X2796476Y3274413D1*
X2786817Y3264754D1*
X2781876Y3250154D1*
Y3240383D1*
X2786817Y3225896D1*
X2796476Y3216125D1*
X2806246Y3211296D1*
X2820846D1*
X2830505Y3216125D1*
X2840276Y3225896D1*
X2750503Y3279354D2*
Y3211296D1*
Y3250154D2*
X2745562Y3264754D1*
X2735903Y3274525D1*
X2726132Y3279354D1*
X2711532D1*
X2655901D2*
X2665560Y3274525D1*
X2675330Y3264754D1*
X2680160Y3250154D1*
Y3240496D1*
X2675330Y3225896D1*
X2665560Y3216237D1*
X2655901Y3211296D1*
X2641301D1*
X2631530Y3216237D1*
X2621872Y3225896D1*
X2616930Y3240496D1*
Y3250154D1*
X2621872Y3264754D1*
X2631530Y3274525D1*
X2641301Y3279354D1*
X2655901D1*
X2566129Y3313496D2*
X2561187Y3308666D1*
X2556358Y3313496D1*
X2561187Y3318325D1*
X2566129Y3313496D1*
X2561187Y3279466D2*
Y3196808D1*
X2566129Y3182208D1*
X2575787Y3177379D1*
X2585558D1*
X2524985Y3250154D2*
X2466698D1*
Y3259925D1*
X2471527Y3269696D1*
X2476356Y3274525D1*
X2486127Y3279354D1*
X2500727D1*
X2510385Y3274525D1*
X2520156Y3264754D1*
X2524985Y3250154D1*
Y3240496D1*
X2520156Y3225896D1*
X2510385Y3216237D1*
X2500727Y3211296D1*
X2486127D1*
X2476356Y3216237D1*
X2466698Y3225896D1*
X2376925Y3264754D2*
X2386696Y3274525D1*
X2396467Y3279354D1*
X2410954D1*
X2420725Y3274525D1*
X2430384Y3264754D1*
X2435325Y3250154D1*
Y3240496D1*
X2430384Y3225896D1*
X2420725Y3216237D1*
X2410954Y3211296D1*
X2396467D1*
X2386696Y3216237D1*
X2376925Y3225896D1*
X2330953Y3313383D2*
Y3230725D1*
X2326123Y3216237D1*
X2316353Y3211296D1*
X2306694D1*
X2345553Y3279354D2*
X2311523D1*
X2221863Y3264754D2*
X2226692Y3274525D1*
X2241292Y3279354D1*
X2255892D1*
X2270492Y3274525D1*
X2275322Y3264754D1*
X2270492Y3255096D1*
X2260722Y3250154D1*
X2236463Y3245325D1*
X2226692Y3240496D1*
X2221863Y3230725D1*
Y3225896D1*
X2226692Y3216237D1*
X2241292Y3211296D1*
X2255892D1*
X2270492Y3216237D1*
X2275322Y3225896D1*
X4660684Y5596468D2*
D86*
X4687245Y5583187D1*
X4714115Y5556318D1*
X4727395Y5516168D1*
Y5489607D1*
X4714115Y5449457D1*
X4687245Y5422896D1*
X4660684Y5409307D1*
X4620534D1*
X4593665Y5422896D1*
X4567104Y5449457D1*
X4553515Y5489607D1*
Y5516168D1*
X4567104Y5556318D1*
X4593665Y5583187D1*
X4620534Y5596468D1*
X4660684D1*
X4467240Y5690048D2*
X4453960Y5676768D1*
X4440371Y5690048D1*
X4453960Y5703637D1*
X4467240Y5690048D1*
X4453960Y5596468D2*
Y5409307D1*
X4313946Y5690048D2*
Y5462737D1*
X4300666Y5422896D1*
X4273796Y5409307D1*
X4247235D1*
X4354096Y5596468D2*
X4260516D1*
X4147680Y5436177D2*
X4160961Y5422587D1*
X4147680Y5409307D1*
X4134091Y5422587D1*
X4147680Y5436177D1*
X4047817Y5516168D2*
X3887526D1*
Y5543037D1*
X3900806Y5569907D1*
X3914086Y5583187D1*
X3940956Y5596468D1*
X3981106D1*
X4007667Y5583187D1*
X4034536Y5556318D1*
X4047817Y5516168D1*
Y5489607D1*
X4034536Y5449457D1*
X4007667Y5422896D1*
X3981106Y5409307D1*
X3940956D1*
X3914086Y5422896D1*
X3887526Y5449457D1*
X3640960Y5690048D2*
Y5409307D1*
Y5556318D2*
X3667521Y5583187D1*
X3694390Y5596468D1*
X3734540D1*
X3761101Y5583187D1*
X3787971Y5556318D1*
X3801251Y5516168D1*
Y5489607D1*
X3787971Y5449457D1*
X3761101Y5422896D1*
X3734540Y5409307D1*
X3694390D1*
X3667521Y5422896D1*
X3640960Y5449457D1*
X3554685Y5596468D2*
Y5462737D1*
X3541405Y5422896D1*
X3514535Y5409307D1*
X3474385D1*
X3447825Y5422896D1*
X3407675Y5462737D1*
Y5596468D2*
Y5409307D1*
X3321400D2*
X3134239Y5689739D1*
X2887365Y5556318D2*
X2914234Y5583187D1*
X2941104Y5596468D1*
X2980945D1*
X3007815Y5583187D1*
X3034376Y5556318D1*
X3047965Y5516168D1*
Y5489607D1*
X3034376Y5449457D1*
X3007815Y5422896D1*
X2980945Y5409307D1*
X2941104D1*
X2914234Y5422896D1*
X2887365Y5449457D1*
X2654080Y5556318D2*
X2667360Y5583187D1*
X2707510Y5596468D1*
X2747660D1*
X2787810Y5583187D1*
X2801090Y5556318D1*
X2787810Y5529757D1*
X2760940Y5516168D1*
X2694230Y5502887D1*
X2667360Y5489607D1*
X2654080Y5462737D1*
Y5449457D1*
X2667360Y5422896D1*
X2707510Y5409307D1*
X2747660D1*
X2787810Y5422896D1*
X2801090Y5449457D1*
X2567805Y5516168D2*
X2407514D1*
Y5543037D1*
X2420794Y5569907D1*
X2434075Y5583187D1*
X2460944Y5596468D1*
X2501094D1*
X2527655Y5583187D1*
X2554525Y5556318D1*
X2567805Y5516168D1*
Y5489607D1*
X2554525Y5449457D1*
X2527655Y5422896D1*
X2501094Y5409307D1*
X2460944D1*
X2434075Y5422896D1*
X2407514Y5449457D1*
X2281089Y5690048D2*
Y5462737D1*
X2267809Y5422896D1*
X2240939Y5409307D1*
X2214379D1*
X2321239Y5596468D2*
X2227659D1*
X5123219Y2881398D2*
D82*
X5092756Y2753789D1*
X5062433Y2881398D1*
X5032110Y2753789D1*
X5001646Y2881398D1*
X4889571Y2838862D2*
Y2753789D1*
Y2820612D2*
X4901644Y2832825D1*
X4913857Y2838862D1*
X4931967D1*
X4944180Y2832825D1*
X4956254Y2820612D1*
X4962430Y2802362D1*
Y2790289D1*
X4956254Y2772039D1*
X4944180Y2759966D1*
X4931967Y2753789D1*
X4913857D1*
X4901644Y2759966D1*
X4889571Y2772039D1*
X4850355Y2838862D2*
Y2753789D1*
Y2802362D2*
X4844178Y2820612D1*
X4832105Y2832825D1*
X4819892Y2838862D1*
X4801642D1*
X4762426D2*
Y2753789D1*
Y2814575D2*
X4744176Y2832825D1*
X4731963Y2838862D1*
X4713853D1*
X4701639Y2832825D1*
X4695603Y2814575D1*
Y2753789D1*
X4656387Y2881398D2*
X4650351Y2875362D1*
X4644174Y2881398D1*
X4650351Y2887575D1*
X4656387Y2881398D1*
X4650351Y2838862D2*
Y2753789D1*
X4604958Y2838862D2*
Y2753789D1*
Y2814575D2*
X4586708Y2832825D1*
X4574495Y2838862D1*
X4556385D1*
X4544172Y2832825D1*
X4538135Y2814575D1*
Y2753789D1*
X4426060Y2832825D2*
Y2735539D1*
X4432096Y2717429D1*
X4438133Y2711252D1*
X4450346Y2705216D1*
X4468596D1*
X4480669Y2711252D1*
X4426060Y2814575D2*
X4438133Y2826648D1*
X4450346Y2832825D1*
X4468596D1*
X4480669Y2826648D1*
X4492883Y2814575D1*
X4498919Y2796325D1*
Y2784112D1*
X4492883Y2766002D1*
X4480669Y2753789D1*
X4468596Y2747752D1*
X4450346D1*
X4438133Y2753789D1*
X4426060Y2766002D1*
X4380667Y2881258D2*
Y2796325D1*
Y2766002D2*
X4386844Y2759825D1*
X4380667Y2753789D1*
X4374631Y2759825D1*
X4380667Y2766002D1*
X5270537Y7924610D2*
D84*
Y7771478D1*
X5168449Y7924610D2*
Y7771478D1*
X5270537Y7851666D2*
X5168449D1*
X5033959Y7873566D2*
Y7771478D1*
Y7851666D2*
X5048447Y7866322D1*
X5063103Y7873566D1*
X5084834D1*
X5099490Y7866322D1*
X5113978Y7851666D1*
X5121390Y7829766D1*
Y7815278D1*
X5113978Y7793378D1*
X5099490Y7778891D1*
X5084834Y7771478D1*
X5063103D1*
X5048447Y7778891D1*
X5033959Y7793378D1*
X4986900Y7873566D2*
Y7771478D1*
Y7844422D2*
X4965000Y7866322D1*
X4950344Y7873566D1*
X4928612D1*
X4913956Y7866322D1*
X4906712Y7844422D1*
Y7771478D1*
X4772222Y7924610D2*
Y7771478D1*
Y7851666D2*
X4786710Y7866322D1*
X4801366Y7873566D1*
X4823266D1*
X4837754Y7866322D1*
X4852410Y7851666D1*
X4859654Y7829766D1*
Y7815278D1*
X4852410Y7793378D1*
X4837754Y7778891D1*
X4823266Y7771478D1*
X4801366D1*
X4786710Y7778891D1*
X4772222Y7793378D1*
X4644975Y7851666D2*
X4652219Y7866322D1*
X4674119Y7873566D1*
X4696019D1*
X4717919Y7866322D1*
X4725163Y7851666D1*
X4717919Y7837178D1*
X4703263Y7829766D1*
X4666875Y7822522D1*
X4652219Y7815278D1*
X4644975Y7800622D1*
Y7793378D1*
X4652219Y7778891D1*
X4674119Y7771478D1*
X4696019D1*
X4717919Y7778891D1*
X4725163Y7793378D1*
X4597917Y7847960D2*
X4513686D1*
X4430239Y7873566D2*
X4444727Y7866322D1*
X4459383Y7851666D1*
X4466627Y7829766D1*
Y7815278D1*
X4459383Y7793378D1*
X4444727Y7778891D1*
X4430239Y7771478D1*
X4408339D1*
X4393683Y7778891D1*
X4379196Y7793378D1*
X4371783Y7815278D1*
Y7829766D1*
X4379196Y7851666D1*
X4393683Y7866322D1*
X4408339Y7873566D1*
X4430239D1*
X4324724D2*
Y7771478D1*
Y7844422D2*
X4302824Y7866322D1*
X4288168Y7873566D1*
X4266437D1*
X4251781Y7866322D1*
X4244537Y7844422D1*
Y7771478D1*
X4049342Y7924610D2*
Y7771478D1*
X4002283Y7829766D2*
X3914852D1*
Y7844422D1*
X3922096Y7859078D1*
X3929339Y7866322D1*
X3943996Y7873566D1*
X3965896D1*
X3980383Y7866322D1*
X3995039Y7851666D1*
X4002283Y7829766D1*
Y7815278D1*
X3995039Y7793378D1*
X3980383Y7778891D1*
X3965896Y7771478D1*
X3943996D1*
X3929339Y7778891D1*
X3914852Y7793378D1*
X3780361Y7873566D2*
Y7771478D1*
Y7851666D2*
X3794849Y7866322D1*
X3809505Y7873566D1*
X3831237D1*
X3845893Y7866322D1*
X3860381Y7851666D1*
X3867793Y7829766D1*
Y7815278D1*
X3860381Y7793378D1*
X3845893Y7778891D1*
X3831237Y7771478D1*
X3809505D1*
X3794849Y7778891D1*
X3780361Y7793378D1*
X3733303Y7873566D2*
Y7771478D1*
Y7829766D2*
X3725890Y7851666D1*
X3711403Y7866322D1*
X3696746Y7873566D1*
X3674846D1*
X3627788D2*
Y7771478D1*
Y7844422D2*
X3605888Y7866322D1*
X3591231Y7873566D1*
X3569500D1*
X3554844Y7866322D1*
X3547600Y7844422D1*
Y7771478D1*
X3500541Y7924610D2*
X3493297Y7917366D1*
X3485885Y7924610D1*
X3493297Y7932022D1*
X3500541Y7924610D1*
X3493297Y7873566D2*
Y7771478D1*
X3438826Y7873566D2*
Y7771478D1*
Y7844422D2*
X3416926Y7866322D1*
X3402270Y7873566D1*
X3380538D1*
X3365882Y7866322D1*
X3358638Y7844422D1*
Y7771478D1*
X3224148Y7866322D2*
Y7749578D1*
X3231392Y7727847D1*
X3238636Y7720435D1*
X3253292Y7713191D1*
X3275192D1*
X3289680Y7720435D1*
X3224148Y7844422D2*
X3238636Y7858910D1*
X3253292Y7866322D1*
X3275192D1*
X3289680Y7858910D1*
X3304336Y7844422D1*
X3311580Y7822522D1*
Y7807866D1*
X3304336Y7786135D1*
X3289680Y7771478D1*
X3275192Y7764235D1*
X3253292D1*
X3238636Y7771478D1*
X3224148Y7786135D1*
X5104761Y2358427D2*
D83*
Y2256339D1*
Y2309797D2*
X5114419Y2319568D1*
X5124190Y2324397D1*
X5138790D1*
X5148449Y2319568D1*
X5158219Y2309797D1*
X5163049Y2295197D1*
Y2285539D1*
X5158219Y2270939D1*
X5148449Y2261280D1*
X5138790Y2256339D1*
X5124190D1*
X5114419Y2261280D1*
X5104761Y2270939D1*
X5015101Y2324397D2*
Y2256339D1*
Y2309797D2*
X5024759Y2319568D1*
X5034530Y2324397D1*
X5049018D1*
X5058788Y2319568D1*
X5068447Y2309797D1*
X5073388Y2295197D1*
Y2285539D1*
X5068447Y2270939D1*
X5058788Y2261280D1*
X5049018Y2256339D1*
X5034530D1*
X5024759Y2261280D1*
X5015101Y2270939D1*
X4983728Y2324397D2*
Y2256339D1*
Y2304968D2*
X4969128Y2319568D1*
X4959357Y2324397D1*
X4944870D1*
X4935099Y2319568D1*
X4930270Y2304968D1*
Y2256339D1*
Y2304968D2*
X4915670Y2319568D1*
X4905899Y2324397D1*
X4891411D1*
X4881640Y2319568D1*
X4876699Y2304968D1*
Y2256339D1*
X4787039Y2324397D2*
Y2256339D1*
Y2309797D2*
X4796697Y2319568D1*
X4806468Y2324397D1*
X4820956D1*
X4830726Y2319568D1*
X4840385Y2309797D1*
X4845326Y2295197D1*
Y2285539D1*
X4840385Y2270939D1*
X4830726Y2261280D1*
X4820956Y2256339D1*
X4806468D1*
X4796697Y2261280D1*
X4787039Y2270939D1*
X4697378Y2319568D2*
Y2241739D1*
X4702208Y2227251D1*
X4707037Y2222310D1*
X4716808Y2217480D1*
X4731408D1*
X4741066Y2222310D1*
X4697378Y2304968D2*
X4707037Y2314627D1*
X4716808Y2319568D1*
X4731408D1*
X4741066Y2314627D1*
X4750837Y2304968D1*
X4755666Y2290368D1*
Y2280597D1*
X4750837Y2266110D1*
X4741066Y2256339D1*
X4731408Y2251510D1*
X4716808D1*
X4707037Y2256339D1*
X4697378Y2266110D1*
X4666006Y2295197D2*
X4607718D1*
Y2304968D1*
X4612547Y2314739D1*
X4617377Y2319568D1*
X4627147Y2324397D1*
X4641747D1*
X4651406Y2319568D1*
X4661177Y2309797D1*
X4666006Y2295197D1*
Y2285539D1*
X4661177Y2270939D1*
X4651406Y2261280D1*
X4641747Y2256339D1*
X4627147D1*
X4617377Y2261280D1*
X4607718Y2270939D1*
X4462988Y2358427D2*
Y2275768D1*
X4458159Y2261280D1*
X4448388Y2256339D1*
X4438730D1*
X4477588Y2324397D2*
X4443559D1*
X4383099D2*
X4392757Y2319568D1*
X4402528Y2309797D1*
X4407357Y2295197D1*
Y2285539D1*
X4402528Y2270939D1*
X4392757Y2261280D1*
X4383099Y2256339D1*
X4368499D1*
X4358728Y2261280D1*
X4349070Y2270939D1*
X4344128Y2285539D1*
Y2295197D1*
X4349070Y2309797D1*
X4358728Y2319568D1*
X4368499Y2324397D1*
X4383099D1*
X4209057D2*
X4179969Y2256339D1*
X4189628Y2236910D1*
X4199398Y2227139D1*
X4209057Y2222310D1*
X4213998D1*
X4150769Y2324397D2*
X4179969Y2256339D1*
X4095138Y2324397D2*
X4104797Y2319568D1*
X4114567Y2309797D1*
X4119397Y2295197D1*
Y2285539D1*
X4114567Y2270939D1*
X4104797Y2261280D1*
X4095138Y2256339D1*
X4080538D1*
X4070767Y2261280D1*
X4061109Y2270939D1*
X4056167Y2285539D1*
Y2295197D1*
X4061109Y2309797D1*
X4070767Y2319568D1*
X4080538Y2324397D1*
X4095138D1*
X4024795D2*
Y2275768D1*
X4019966Y2261280D1*
X4010195Y2256339D1*
X3995595D1*
X3985936Y2261280D1*
X3971336Y2275768D1*
Y2324397D2*
Y2256339D1*
X3939964Y2324397D2*
Y2256339D1*
Y2295197D2*
X3935022Y2309797D1*
X3925364Y2319568D1*
X3915593Y2324397D1*
X3900993D1*
X4496705Y7575880D2*
D84*
X4511193D1*
X4525849Y7568636D1*
X4533093Y7546736D1*
Y7422748D1*
X4554993Y7524836D2*
X4503949D1*
X4413259D2*
X4427746Y7517592D1*
X4442402Y7502936D1*
X4449646Y7481036D1*
Y7466548D1*
X4442402Y7444648D1*
X4427746Y7430161D1*
X4413259Y7422748D1*
X4391359D1*
X4376702Y7430161D1*
X4362215Y7444648D1*
X4354802Y7466548D1*
Y7481036D1*
X4362215Y7502936D1*
X4376702Y7517592D1*
X4391359Y7524836D1*
X4413259D1*
X4307744D2*
Y7422748D1*
Y7481036D2*
X4300331Y7502936D1*
X4285844Y7517592D1*
X4271187Y7524836D1*
X4249287D1*
X4054093D2*
Y7422748D1*
Y7481036D2*
X4046681Y7502936D1*
X4032193Y7517592D1*
X4017537Y7524836D1*
X3995637D1*
X3948578Y7481036D2*
X3861146D1*
Y7495692D1*
X3868390Y7510348D1*
X3875634Y7517592D1*
X3890290Y7524836D1*
X3912190D1*
X3926678Y7517592D1*
X3941334Y7502936D1*
X3948578Y7481036D1*
Y7466548D1*
X3941334Y7444648D1*
X3926678Y7430161D1*
X3912190Y7422748D1*
X3890290D1*
X3875634Y7430161D1*
X3861146Y7444648D1*
X3726656Y7524836D2*
Y7422748D1*
Y7502936D2*
X3741144Y7517592D1*
X3755800Y7524836D1*
X3777531D1*
X3792188Y7517592D1*
X3806675Y7502936D1*
X3814088Y7481036D1*
Y7466548D1*
X3806675Y7444648D1*
X3792188Y7430161D1*
X3777531Y7422748D1*
X3755800D1*
X3741144Y7430161D1*
X3726656Y7444648D1*
X3679597Y7575880D2*
Y7422748D1*
X3632538Y7499230D2*
X3548308D1*
X3501249Y7524836D2*
X3472105Y7422748D1*
X3442961Y7524836D1*
X3413817Y7422748D1*
X3384673Y7524836D1*
X3301227D2*
X3315715Y7517592D1*
X3330371Y7502936D1*
X3337615Y7481036D1*
Y7466548D1*
X3330371Y7444648D1*
X3315715Y7430161D1*
X3301227Y7422748D1*
X3279327D1*
X3264671Y7430161D1*
X3250183Y7444648D1*
X3242771Y7466548D1*
Y7481036D1*
X3250183Y7502936D1*
X3264671Y7517592D1*
X3279327Y7524836D1*
X3301227D1*
X3195712D2*
Y7422748D1*
Y7481036D2*
X3188300Y7502936D1*
X3173812Y7517592D1*
X3159156Y7524836D1*
X3137256D1*
X3090197Y7575880D2*
Y7422748D1*
X2955707Y7575880D2*
Y7422748D1*
Y7502936D2*
X2970194Y7517592D1*
X2984850Y7524836D1*
X3006750D1*
X3021238Y7517592D1*
X3035894Y7502936D1*
X3043138Y7481036D1*
Y7466548D1*
X3035894Y7444648D1*
X3021238Y7430161D1*
X3006750Y7422748D1*
X2984850D1*
X2970194Y7430161D1*
X2955707Y7444648D1*
X2673080Y7524836D2*
Y7422748D1*
Y7502936D2*
X2687568Y7517592D1*
X2702224Y7524836D1*
X2723956D1*
X2738612Y7517592D1*
X2753100Y7502936D1*
X2760512Y7481036D1*
Y7466548D1*
X2753100Y7444648D1*
X2738612Y7430161D1*
X2723956Y7422748D1*
X2702224D1*
X2687568Y7430161D1*
X2673080Y7444648D1*
X2538422Y7502936D2*
X2553078Y7517592D1*
X2567734Y7524836D1*
X2589466D1*
X2604122Y7517592D1*
X2618609Y7502936D1*
X2626022Y7481036D1*
Y7466548D1*
X2618609Y7444648D1*
X2604122Y7430161D1*
X2589466Y7422748D1*
X2567734D1*
X2553078Y7430161D1*
X2538422Y7444648D1*
X2491363Y7575880D2*
Y7422748D1*
Y7495692D2*
X2469463Y7517592D1*
X2454807Y7524836D1*
X2432907D1*
X2418419Y7517592D1*
X2411175Y7495692D1*
Y7422748D1*
X2364116Y7575880D2*
X2356872Y7568636D1*
X2349460Y7575880D1*
X2356872Y7583292D1*
X2364116Y7575880D1*
X2356872Y7524836D2*
Y7422748D1*
X2302401Y7481036D2*
X2214970D1*
Y7495692D1*
X2222214Y7510348D1*
X2229457Y7517592D1*
X2244114Y7524836D1*
X2266014D1*
X2280501Y7517592D1*
X2295157Y7502936D1*
X2302401Y7481036D1*
Y7466548D1*
X2295157Y7444648D1*
X2280501Y7430161D1*
X2266014Y7422748D1*
X2244114D1*
X2229457Y7430161D1*
X2214970Y7444648D1*
X2167911Y7524836D2*
X2124111Y7422748D1*
X2080479Y7524836D1*
X2033421Y7481036D2*
X1945989D1*
Y7495692D1*
X1953233Y7510348D1*
X1960477Y7517592D1*
X1975133Y7524836D1*
X1997033D1*
X2011521Y7517592D1*
X2026177Y7502936D1*
X2033421Y7481036D1*
Y7466548D1*
X2026177Y7444648D1*
X2011521Y7430161D1*
X1997033Y7422748D1*
X1975133D1*
X1960477Y7430161D1*
X1945989Y7444648D1*
X1898930Y7524836D2*
Y7422748D1*
Y7495692D2*
X1877030Y7517592D1*
X1862374Y7524836D1*
X1840643D1*
X1825986Y7517592D1*
X1818743Y7495692D1*
Y7422748D1*
Y7495692D2*
X1796843Y7517592D1*
X1782186Y7524836D1*
X1760455D1*
X1745799Y7517592D1*
X1738386Y7495692D1*
Y7422748D1*
X1691328Y7481036D2*
X1603896D1*
Y7495692D1*
X1611140Y7510348D1*
X1618384Y7517592D1*
X1633040Y7524836D1*
X1654940D1*
X1669428Y7517592D1*
X1684084Y7502936D1*
X1691328Y7481036D1*
Y7466548D1*
X1684084Y7444648D1*
X1669428Y7430161D1*
X1654940Y7422748D1*
X1633040D1*
X1618384Y7430161D1*
X1603896Y7444648D1*
X1556837Y7524836D2*
Y7422748D1*
Y7495692D2*
X1534937Y7517592D1*
X1520281Y7524836D1*
X1498550D1*
X1483893Y7517592D1*
X1476650Y7495692D1*
Y7422748D1*
X1407691Y7575880D2*
Y7451892D1*
X1400447Y7430161D1*
X1385791Y7422748D1*
X1371303D1*
X1429591Y7524836D2*
X1378547D1*
X1317000Y7437405D2*
X1324244Y7429992D1*
X1317000Y7422748D1*
X1309588Y7429992D1*
X1317000Y7437405D1*
X4505233Y1804111D2*
D83*
Y1736052D1*
Y1774911D2*
X4500292Y1789511D1*
X4490633Y1799281D1*
X4480862Y1804111D1*
X4466262D1*
X4434890Y1774911D2*
X4376602D1*
Y1784681D1*
X4381431Y1794452D1*
X4386261Y1799281D1*
X4396031Y1804111D1*
X4410631D1*
X4420290Y1799281D1*
X4430061Y1789511D1*
X4434890Y1774911D1*
Y1765252D1*
X4430061Y1750652D1*
X4420290Y1740994D1*
X4410631Y1736052D1*
X4396031D1*
X4386261Y1740994D1*
X4376602Y1750652D1*
X4286942Y1804111D2*
Y1736052D1*
Y1789511D2*
X4296600Y1799281D1*
X4306371Y1804111D1*
X4320859D1*
X4330630Y1799281D1*
X4340288Y1789511D1*
X4345230Y1774911D1*
Y1765252D1*
X4340288Y1750652D1*
X4330630Y1740994D1*
X4320859Y1736052D1*
X4306371D1*
X4296600Y1740994D1*
X4286942Y1750652D1*
X4197282Y1838140D2*
Y1736052D1*
Y1789511D2*
X4206940Y1799281D1*
X4216711Y1804111D1*
X4231311D1*
X4240969Y1799281D1*
X4250740Y1789511D1*
X4255569Y1774911D1*
Y1765252D1*
X4250740Y1750652D1*
X4240969Y1740994D1*
X4231311Y1736052D1*
X4216711D1*
X4206940Y1740994D1*
X4197282Y1750652D1*
X4067152Y1838140D2*
X4062323Y1833311D1*
X4057381Y1838140D1*
X4062323Y1843081D1*
X4067152Y1838140D1*
X4062323Y1804111D2*
Y1736052D1*
X4026009Y1804111D2*
Y1736052D1*
Y1784681D2*
X4011409Y1799281D1*
X4001638Y1804111D1*
X3987150D1*
X3977379Y1799281D1*
X3972550Y1784681D1*
Y1736052D1*
X3887719Y1789511D2*
X3892548Y1799281D1*
X3907148Y1804111D1*
X3921748D1*
X3936348Y1799281D1*
X3941178Y1789511D1*
X3936348Y1779852D1*
X3926578Y1774911D1*
X3902319Y1770081D1*
X3892548Y1765252D1*
X3887719Y1755481D1*
Y1750652D1*
X3892548Y1740994D1*
X3907148Y1736052D1*
X3921748D1*
X3936348Y1740994D1*
X3941178Y1750652D1*
X3841747Y1838140D2*
Y1755481D1*
X3836917Y1740994D1*
X3827147Y1736052D1*
X3817488D1*
X3856347Y1804111D2*
X3822317D1*
X3786116D2*
Y1736052D1*
Y1774911D2*
X3781174Y1789511D1*
X3771516Y1799281D1*
X3761745Y1804111D1*
X3747145D1*
X3715772D2*
Y1755481D1*
X3710943Y1740994D1*
X3701172Y1736052D1*
X3686572D1*
X3676914Y1740994D1*
X3662314Y1755481D1*
Y1804111D2*
Y1736052D1*
X3572541Y1789511D2*
X3582312Y1799281D1*
X3592083Y1804111D1*
X3606570D1*
X3616341Y1799281D1*
X3626000Y1789511D1*
X3630941Y1774911D1*
Y1765252D1*
X3626000Y1750652D1*
X3616341Y1740994D1*
X3606570Y1736052D1*
X3592083D1*
X3582312Y1740994D1*
X3572541Y1750652D1*
X3526569Y1838140D2*
Y1755481D1*
X3521739Y1740994D1*
X3511969Y1736052D1*
X3502310D1*
X3541169Y1804111D2*
X3507139D1*
X3470938Y1838140D2*
X3466108Y1833311D1*
X3461167Y1838140D1*
X3466108Y1843081D1*
X3470938Y1838140D1*
X3466108Y1804111D2*
Y1736052D1*
X3405536Y1804111D2*
X3415194Y1799281D1*
X3424965Y1789511D1*
X3429794Y1774911D1*
Y1765252D1*
X3424965Y1750652D1*
X3415194Y1740994D1*
X3405536Y1736052D1*
X3390936D1*
X3381165Y1740994D1*
X3371507Y1750652D1*
X3366565Y1765252D1*
Y1774911D1*
X3371507Y1789511D1*
X3381165Y1799281D1*
X3390936Y1804111D1*
X3405536D1*
X3335193D2*
Y1736052D1*
Y1784681D2*
X3320593Y1799281D1*
X3310822Y1804111D1*
X3296334D1*
X3286563Y1799281D1*
X3281734Y1784681D1*
Y1736052D1*
X3196903Y1789511D2*
X3201732Y1799281D1*
X3216332Y1804111D1*
X3230932D1*
X3245532Y1799281D1*
X3250362Y1789511D1*
X3245532Y1779852D1*
X3235762Y1774911D1*
X3211503Y1770081D1*
X3201732Y1765252D1*
X3196903Y1755481D1*
Y1750652D1*
X3201732Y1740994D1*
X3216332Y1736052D1*
X3230932D1*
X3245532Y1740994D1*
X3250362Y1750652D1*
X3160589Y1838028D2*
Y1770081D1*
Y1745823D2*
X3165531Y1740881D1*
X3160589Y1736052D1*
X3155760Y1740881D1*
X3160589Y1745823D1*
X4628355Y2136227D2*
X4638126Y2145998D1*
X4647896Y2150827D1*
X4662384D1*
X4672155Y2145998D1*
X4681813Y2136227D1*
X4686755Y2121627D1*
Y2111969D1*
X4681813Y2097369D1*
X4672155Y2087710D1*
X4662384Y2082769D1*
X4647896D1*
X4638126Y2087710D1*
X4628355Y2097369D1*
X4572724Y2150827D2*
X4582382Y2145998D1*
X4592153Y2136227D1*
X4596982Y2121627D1*
Y2111969D1*
X4592153Y2097369D1*
X4582382Y2087710D1*
X4572724Y2082769D1*
X4558124D1*
X4548353Y2087710D1*
X4538695Y2097369D1*
X4533753Y2111969D1*
Y2121627D1*
X4538695Y2136227D1*
X4548353Y2145998D1*
X4558124Y2150827D1*
X4572724D1*
X4502380D2*
Y2082769D1*
Y2131398D2*
X4487780Y2145998D1*
X4478010Y2150827D1*
X4463522D1*
X4453751Y2145998D1*
X4448922Y2131398D1*
Y2082769D1*
Y2131398D2*
X4434322Y2145998D1*
X4424551Y2150827D1*
X4410064D1*
X4400293Y2145998D1*
X4395351Y2131398D1*
Y2082769D1*
X4363979Y2150827D2*
Y2048740D1*
Y2136227D2*
X4354208Y2145886D1*
X4344549Y2150827D1*
X4329949D1*
X4320179Y2145886D1*
X4310520Y2136227D1*
X4305579Y2121627D1*
Y2111857D1*
X4310520Y2097369D1*
X4320179Y2087598D1*
X4329949Y2082769D1*
X4344549D1*
X4354208Y2087598D1*
X4363979Y2097369D1*
X4274206Y2150827D2*
Y2102198D1*
X4269377Y2087710D1*
X4259606Y2082769D1*
X4245006D1*
X4235348Y2087710D1*
X4220748Y2102198D1*
Y2150827D2*
Y2082769D1*
X4174775Y2184857D2*
Y2102198D1*
X4169946Y2087710D1*
X4160175Y2082769D1*
X4150517D1*
X4189375Y2150827D2*
X4155346D1*
X4119144Y2121627D2*
X4060856D1*
Y2131398D1*
X4065686Y2141169D1*
X4070515Y2145998D1*
X4080286Y2150827D1*
X4094886D1*
X4104544Y2145998D1*
X4114315Y2136227D1*
X4119144Y2121627D1*
Y2111969D1*
X4114315Y2097369D1*
X4104544Y2087710D1*
X4094886Y2082769D1*
X4080286D1*
X4070515Y2087710D1*
X4060856Y2097369D1*
X4029484Y2150827D2*
Y2082769D1*
Y2121627D2*
X4024542Y2136227D1*
X4014884Y2145998D1*
X4005113Y2150827D1*
X3990513D1*
X5485494Y2512277D2*
Y2410189D1*
X5553553Y2512277D1*
Y2410189D1*
X5429863Y2478247D2*
X5439522Y2473418D1*
X5449292Y2463647D1*
X5454122Y2449047D1*
Y2439389D1*
X5449292Y2424789D1*
X5439522Y2415130D1*
X5429863Y2410189D1*
X5415263D1*
X5405492Y2415130D1*
X5395834Y2424789D1*
X5390892Y2439389D1*
Y2449047D1*
X5395834Y2463647D1*
X5405492Y2473418D1*
X5415263Y2478247D1*
X5429863D1*
X5344920Y2512277D2*
Y2429618D1*
X5340091Y2415130D1*
X5330320Y2410189D1*
X5320661D1*
X5359520Y2478247D2*
X5325491D1*
X5190532D2*
Y2410189D1*
Y2449047D2*
X5185590Y2463647D1*
X5175932Y2473418D1*
X5166161Y2478247D1*
X5151561D1*
X5120188Y2449047D2*
X5061901D1*
Y2458818D1*
X5066730Y2468589D1*
X5071559Y2473418D1*
X5081330Y2478247D1*
X5095930D1*
X5105588Y2473418D1*
X5115359Y2463647D1*
X5120188Y2449047D1*
Y2439389D1*
X5115359Y2424789D1*
X5105588Y2415130D1*
X5095930Y2410189D1*
X5081330D1*
X5071559Y2415130D1*
X5061901Y2424789D1*
X4977070Y2463647D2*
X4981899Y2473418D1*
X4996499Y2478247D1*
X5011099D1*
X5025699Y2473418D1*
X5030528Y2463647D1*
X5025699Y2453989D1*
X5015928Y2449047D1*
X4991670Y2444218D1*
X4981899Y2439389D1*
X4977070Y2429618D1*
Y2424789D1*
X4981899Y2415130D1*
X4996499Y2410189D1*
X5011099D1*
X5025699Y2415130D1*
X5030528Y2424789D1*
X4945697Y2478247D2*
Y2376160D1*
Y2463647D2*
X4935926Y2473306D1*
X4926268Y2478247D1*
X4911668D1*
X4901897Y2473306D1*
X4892239Y2463647D1*
X4887297Y2449047D1*
Y2439277D1*
X4892239Y2424789D1*
X4901897Y2415018D1*
X4911668Y2410189D1*
X4926268D1*
X4935926Y2415018D1*
X4945697Y2424789D1*
X4831666Y2478247D2*
X4841325Y2473418D1*
X4851095Y2463647D1*
X4855925Y2449047D1*
Y2439389D1*
X4851095Y2424789D1*
X4841325Y2415130D1*
X4831666Y2410189D1*
X4817066D1*
X4807295Y2415130D1*
X4797637Y2424789D1*
X4792695Y2439389D1*
Y2449047D1*
X4797637Y2463647D1*
X4807295Y2473418D1*
X4817066Y2478247D1*
X4831666D1*
X4761323D2*
Y2410189D1*
Y2458818D2*
X4746723Y2473418D1*
X4736952Y2478247D1*
X4722464D1*
X4712693Y2473418D1*
X4707864Y2458818D1*
Y2410189D1*
X4623033Y2463647D2*
X4627862Y2473418D1*
X4642462Y2478247D1*
X4657062D1*
X4671662Y2473418D1*
X4676492Y2463647D1*
X4671662Y2453989D1*
X4661892Y2449047D1*
X4637633Y2444218D1*
X4627862Y2439389D1*
X4623033Y2429618D1*
Y2424789D1*
X4627862Y2415130D1*
X4642462Y2410189D1*
X4657062D1*
X4671662Y2415130D1*
X4676492Y2424789D1*
X4591661Y2512277D2*
X4586831Y2507447D1*
X4581890Y2512277D1*
X4586831Y2517218D1*
X4591661Y2512277D1*
X4586831Y2478247D2*
Y2410189D1*
X4550517Y2512277D2*
Y2410189D1*
Y2463647D2*
X4540747Y2473418D1*
X4531088Y2478247D1*
X4516488D1*
X4506830Y2473418D1*
X4497059Y2463647D1*
X4492230Y2449047D1*
Y2439389D1*
X4497059Y2424789D1*
X4506830Y2415130D1*
X4516488Y2410189D1*
X4531088D1*
X4540747Y2415130D1*
X4550517Y2424789D1*
X4460857Y2512277D2*
Y2410189D1*
X4429485Y2449047D2*
X4371197D1*
Y2458818D1*
X4376026Y2468589D1*
X4380855Y2473418D1*
X4390626Y2478247D1*
X4405226D1*
X4414885Y2473418D1*
X4424655Y2463647D1*
X4429485Y2449047D1*
Y2439389D1*
X4424655Y2424789D1*
X4414885Y2415130D1*
X4405226Y2410189D1*
X4390626D1*
X4380855Y2415130D1*
X4371197Y2424789D1*
X4202209Y2512277D2*
X4211867D1*
X4221638Y2507447D1*
X4226467Y2492847D1*
Y2410189D1*
X4241067Y2478247D2*
X4207038D1*
X4146578D2*
X4156236Y2473418D1*
X4166007Y2463647D1*
X4170836Y2449047D1*
Y2439389D1*
X4166007Y2424789D1*
X4156236Y2415130D1*
X4146578Y2410189D1*
X4131978D1*
X4122207Y2415130D1*
X4112548Y2424789D1*
X4107607Y2439389D1*
Y2449047D1*
X4112548Y2463647D1*
X4122207Y2473418D1*
X4131978Y2478247D1*
X4146578D1*
X4076234D2*
Y2410189D1*
Y2449047D2*
X4071293Y2463647D1*
X4061634Y2473418D1*
X4051864Y2478247D1*
X4037264D1*
M02*
