G04 DipTrace 3.3.1.3*
G04 TopAssy.gbr*
%MOIN*%
G04 #@! TF.FileFunction,Drawing,Top*
G04 #@! TF.Part,Single*
%ADD10C,0.009843*%
%ADD83C,0.003088*%
%FSLAX26Y26*%
G04*
G70*
G90*
G75*
G01*
G04 TopAssy*
%LPD*%
X1753985Y2007288D2*
D10*
Y1349020D1*
X596795Y1953709D2*
Y1295441D1*
X1208487Y394306D2*
X1800225Y443161D1*
X1792284Y1777588D2*
D83*
X1772188D1*
Y1768966D1*
X1773161Y1766092D1*
X1774111Y1765142D1*
X1776013Y1764191D1*
X1778887D1*
X1780810Y1765142D1*
X1781761Y1766092D1*
X1782711Y1768966D1*
X1783684Y1766092D1*
X1784635Y1765142D1*
X1786536Y1764191D1*
X1788459D1*
X1790361Y1765142D1*
X1791333Y1766092D1*
X1792284Y1768966D1*
Y1777588D1*
X1782711D2*
Y1768966D1*
X1792284Y1752267D2*
X1791333Y1754191D1*
X1789410Y1756092D1*
X1787509Y1757065D1*
X1784635Y1758015D1*
X1779837D1*
X1776985Y1757065D1*
X1775062Y1756092D1*
X1773161Y1754191D1*
X1772188Y1752267D1*
Y1748443D1*
X1773161Y1746541D1*
X1775062Y1744618D1*
X1776985Y1743667D1*
X1779837Y1742717D1*
X1784635D1*
X1787509Y1743667D1*
X1789410Y1744618D1*
X1791333Y1746541D1*
X1792284Y1748443D1*
Y1752267D1*
X1772188Y1721220D2*
X1792284Y1728892D1*
X1772188Y1736541D1*
X1778887Y1733667D2*
Y1724094D1*
X1782711Y1715045D2*
Y1706445D1*
X1783684Y1703571D1*
X1784635Y1702598D1*
X1786536Y1701647D1*
X1788459D1*
X1790361Y1702598D1*
X1791333Y1703571D1*
X1792284Y1706445D1*
Y1715045D1*
X1772188D1*
X1782711Y1708346D2*
X1772188Y1701647D1*
X1792284Y1695472D2*
X1772188D1*
Y1688773D1*
X1773161Y1685899D1*
X1775062Y1683976D1*
X1776985Y1683025D1*
X1779837Y1682074D1*
X1784635D1*
X1787509Y1683025D1*
X1789410Y1683976D1*
X1791333Y1685899D1*
X1792284Y1688773D1*
Y1695472D1*
Y1644034D2*
Y1656458D1*
X1772188D1*
Y1644034D1*
X1782711Y1656458D2*
Y1648809D1*
X1792284Y1637858D2*
X1772188D1*
Y1631159D1*
X1773161Y1628285D1*
X1775062Y1626362D1*
X1776985Y1625411D1*
X1779837Y1624461D1*
X1784635D1*
X1787509Y1625411D1*
X1789410Y1626362D1*
X1791333Y1628285D1*
X1792284Y1631159D1*
Y1637858D1*
X1787509Y1603937D2*
X1789410Y1604888D1*
X1791333Y1606811D1*
X1792284Y1608712D1*
Y1612537D1*
X1791333Y1614460D1*
X1789410Y1616361D1*
X1787509Y1617334D1*
X1784635Y1618285D1*
X1779837D1*
X1776985Y1617334D1*
X1775062Y1616362D1*
X1773161Y1614460D1*
X1772188Y1612537D1*
Y1608712D1*
X1773161Y1606811D1*
X1775062Y1604888D1*
X1776985Y1603937D1*
X1779837D1*
Y1608712D1*
X1792284Y1585337D2*
Y1597761D1*
X1772188D1*
Y1585337D1*
X1782711Y1597761D2*
Y1590112D1*
X635094Y1724010D2*
X614998D1*
Y1715388D1*
X615970Y1712514D1*
X616921Y1711563D1*
X618822Y1710612D1*
X621696D1*
X623620Y1711563D1*
X624570Y1712514D1*
X625521Y1715388D1*
X626494Y1712514D1*
X627444Y1711563D1*
X629346Y1710612D1*
X631269D1*
X633170Y1711563D1*
X634143Y1712513D1*
X635094Y1715388D1*
Y1724010D1*
X625521D2*
Y1715388D1*
X635094Y1698689D2*
X634143Y1700612D1*
X632220Y1702513D1*
X630318Y1703486D1*
X627444Y1704437D1*
X622647D1*
X619795Y1703486D1*
X617872Y1702513D1*
X615970Y1700612D1*
X614998Y1698689D1*
Y1694864D1*
X615970Y1692963D1*
X617872Y1691039D1*
X619795Y1690089D1*
X622647Y1689138D1*
X627444D1*
X630318Y1690089D1*
X632220Y1691039D1*
X634143Y1692963D1*
X635094Y1694864D1*
Y1698689D1*
X614998Y1667642D2*
X635094Y1675313D1*
X614998Y1682962D1*
X621696Y1680088D2*
Y1670516D1*
X625521Y1661466D2*
Y1652866D1*
X626494Y1649992D1*
X627444Y1649019D1*
X629346Y1648069D1*
X631269D1*
X633170Y1649019D1*
X634143Y1649992D1*
X635094Y1652866D1*
Y1661466D1*
X614998D1*
X625521Y1654767D2*
X614998Y1648069D1*
X635094Y1641893D2*
X614998D1*
Y1635194D1*
X615970Y1632320D1*
X617872Y1630397D1*
X619795Y1629446D1*
X622647Y1628496D1*
X627444D1*
X630318Y1629446D1*
X632220Y1630397D1*
X634143Y1632320D1*
X635094Y1635194D1*
Y1641893D1*
Y1590455D2*
Y1602879D1*
X614998D1*
Y1590455D1*
X625521Y1602879D2*
Y1595230D1*
X635094Y1584279D2*
X614998D1*
Y1577581D1*
X615970Y1574706D1*
X617872Y1572783D1*
X619795Y1571832D1*
X622647Y1570882D1*
X627444D1*
X630318Y1571832D1*
X632220Y1572783D1*
X634143Y1574706D1*
X635094Y1577581D1*
Y1584279D1*
X630318Y1550358D2*
X632220Y1551309D1*
X634143Y1553232D1*
X635094Y1555133D1*
Y1558958D1*
X634143Y1560881D1*
X632220Y1562783D1*
X630318Y1563756D1*
X627444Y1564706D1*
X622647D1*
X619795Y1563756D1*
X617872Y1562783D1*
X615970Y1560881D1*
X614998Y1558958D1*
Y1555133D1*
X615970Y1553232D1*
X617872Y1551309D1*
X619795Y1550358D1*
X622647D1*
Y1555133D1*
X635094Y1531758D2*
Y1544182D1*
X614998D1*
Y1531758D1*
X625521Y1544182D2*
Y1536533D1*
X1740996Y411525D2*
X1728571D1*
Y391429D1*
X1740996D1*
X1728571Y401953D2*
X1736220D1*
X1758645Y411525D2*
Y391429D1*
Y401953D2*
X1756744Y403876D1*
X1754821Y404827D1*
X1751947D1*
X1750045Y403876D1*
X1748122Y401953D1*
X1747171Y399078D1*
Y397177D1*
X1748122Y394303D1*
X1750045Y392402D1*
X1751947Y391429D1*
X1754821D1*
X1756744Y392402D1*
X1758645Y394303D1*
X1776295Y403876D2*
Y388555D1*
X1775344Y385703D1*
X1774394Y384731D1*
X1772470Y383780D1*
X1769596D1*
X1767695Y384731D1*
X1776295Y401002D2*
X1774394Y402903D1*
X1772470Y403876D1*
X1769596D1*
X1767695Y402903D1*
X1765772Y401002D1*
X1764821Y398128D1*
Y396204D1*
X1765772Y393353D1*
X1767695Y391429D1*
X1769596Y390479D1*
X1772470D1*
X1774394Y391429D1*
X1776295Y393353D1*
X1782471Y399078D2*
X1793944D1*
Y401002D1*
X1792994Y402925D1*
X1792043Y403876D1*
X1790120Y404827D1*
X1787246D1*
X1785345Y403876D1*
X1783421Y401953D1*
X1782471Y399078D1*
Y397177D1*
X1783421Y394303D1*
X1785345Y392402D1*
X1787246Y391429D1*
X1790120D1*
X1792043Y392402D1*
X1793944Y394303D1*
M02*
