G04 DipTrace 3.3.1.3*
G04 BoardOutline.gbr*
%MOIN*%
G04 #@! TF.FileFunction,Profile*
G04 #@! TF.Part,Single*
%ADD11C,0.005512*%
%FSLAX26Y26*%
G04*
G70*
G90*
G75*
G01*
G04 BoardOutline*
%LPD*%
X2476903Y3003071D2*
D11*
X2423215Y2949370D1*
X2337310Y2938635D1*
X2272874Y3003071D1*
X2122546Y2906417D1*
X2015157D1*
X1993688Y2863465D1*
X1940000Y2927900D1*
X1854094Y2938635D1*
X1725236Y2949370D1*
X1682283Y2906417D1*
X1639331Y2874213D1*
X1542677Y2863465D1*
X1424567D1*
X1327913Y2884948D1*
X1284961Y2927900D1*
X1274226Y3003071D1*
Y3067493D1*
X1242008Y3174882D1*
X1199055Y3228570D1*
X1102415Y3282257D1*
X1059462Y3271522D1*
X984304Y3292992D1*
X941352Y3303740D1*
X887651Y3271522D1*
X844698Y3282257D1*
X748058Y3303740D1*
X758793Y3185617D1*
X726588Y3153399D1*
X737323Y3013806D1*
Y2970853D1*
X769541Y2917165D1*
X758793D1*
X780276Y2841995D1*
Y2799042D1*
X726588Y2831260D1*
X715840Y2616496D1*
X705105Y2530591D1*
X683635Y2401732D1*
X672887Y2348045D1*
X683635Y2283609D1*
X672887Y2240656D1*
X694370Y2197703D1*
X672887Y2186969D1*
X651417Y2079580D1*
X640682Y1961470D1*
X629934Y1832612D1*
X608465Y1789659D1*
X586982Y1725223D1*
X597730Y1660801D1*
Y1628583D1*
Y1585630D1*
X565512Y1531942D1*
X544029Y1478255D1*
X554777Y1424554D1*
X576247Y1370866D1*
X490341Y1338648D1*
X479606Y1327913D1*
Y1263491D1*
Y1199055D1*
X447388Y1134633D1*
X404436Y1037979D1*
X393701Y973556D1*
X447388Y898386D1*
X468871Y833963D1*
X447388Y748058D1*
X436654Y683622D1*
Y629934D1*
X468871Y533294D1*
X501076Y468858D1*
X554777Y447388D1*
X565512Y436654D1*
X791010Y425906D1*
X995039D1*
X1263491Y415171D1*
X1628583Y404436D1*
X2154751Y393701D1*
X3110446Y404436D1*
X3582927Y415171D1*
X3969501Y436654D1*
X3915814Y1660801D1*
X3958766Y1714488D1*
X3948031Y1778924D1*
X3969501Y1854081D1*
X3980236Y1918517D1*
X3937283Y1961470D1*
X3872861Y1972205D1*
X3829908Y2058110D1*
X3840643Y2133281D1*
X3905079Y2283609D1*
X3980236Y2444685D1*
X4103125Y2886970D1*
X4102765Y2955172D1*
X4017514Y3026226D1*
X3986904Y3069672D1*
X3926198Y3150073D1*
X3916550Y3191079D1*
X3776392Y3181404D1*
X3774698Y3168955D1*
X3252059Y3159476D1*
X2989867Y3161448D1*
X2913785Y3084496D1*
X2819980Y3095717D1*
X2736949Y3069685D1*
X2640912Y3036593D1*
X2476903Y3003071D1*
M02*
