G04 DipTrace 3.3.1.3*
G04 BottomMask.gbr*
%MOIN*%
G04 #@! TF.FileFunction,Soldermask,Bot*
G04 #@! TF.Part,Single*
%AMOUTLINE1*
4,1,4,
-0.009544,-0.049193,
-0.049193,0.009544,
0.009544,0.049193,
0.049193,-0.009544,
-0.009544,-0.049193,
0*%
%ADD25R,0.066929X0.066929*%
%ADD26C,0.066929*%
%ADD53C,0.066929*%
%ADD57C,0.067874*%
%ADD59C,0.067874*%
%ADD61C,0.137795*%
%ADD63C,0.070866*%
%ADD65C,0.074803*%
%ADD66R,0.074803X0.074803*%
%ADD69R,0.049213X0.074803*%
%ADD71O,0.049213X0.074803*%
%ADD73R,0.057874X0.057874*%
%ADD75C,0.057874*%
%ADD77R,0.070866X0.070866*%
%ADD79C,0.070866*%
%ADD91OUTLINE1*%
%FSLAX26Y26*%
G04*
G70*
G90*
G75*
G01*
G04 BotMask*
%LPD*%
D79*
X2355837Y2656565D3*
D91*
X2243938Y2822332D3*
D79*
X3002664Y2948499D3*
D77*
X2802664D3*
D75*
X3254762Y3022056D3*
D73*
X3154762D3*
D75*
X1419734Y2698675D3*
D73*
X1319734D3*
D71*
X1949848Y662407D3*
X1837348D3*
D69*
X1781098D3*
D71*
X1893598D3*
D25*
X2583402Y2095776D3*
D26*
Y1995776D3*
D25*
X3742146Y2089612D3*
D26*
Y1989612D3*
D66*
X3759280Y1804381D3*
D65*
Y1704381D3*
Y1604381D3*
Y1504381D3*
Y1404381D3*
Y1304381D3*
D66*
X2582381Y1806908D3*
D65*
Y1706908D3*
Y1606908D3*
Y1506908D3*
Y1406908D3*
Y1306908D3*
D77*
X3581458Y2714181D3*
D63*
Y2615756D3*
X3660198D3*
Y2714181D3*
D61*
X3766891Y2427961D3*
Y2901976D3*
D66*
X3456005Y2227013D3*
D65*
X3556005D3*
X3456005Y2127013D3*
X3556005D3*
X3456005Y2027013D3*
X3556005D3*
D59*
X2268697Y2121283D3*
D57*
Y2521283D3*
D59*
X2111915Y2116972D3*
D57*
Y2516972D3*
D59*
X768646Y2235462D3*
D57*
Y1835462D3*
D59*
X776289Y1720699D3*
D57*
Y1320699D3*
D59*
X2958630Y2110008D3*
D57*
Y2510008D3*
D59*
X3118954Y2511514D3*
D57*
Y2111514D3*
D59*
X3273685Y2510887D3*
D57*
Y2110887D3*
D59*
X2024916Y558417D3*
D57*
X2424916D3*
D59*
X1849934Y452178D3*
D57*
X2249934D3*
D59*
X1318740Y470927D3*
D57*
X1718525Y457792D3*
D25*
X778230Y1170126D3*
D53*
Y992961D3*
X1034135D3*
D25*
Y1170126D3*
X546215Y846797D3*
D53*
Y669631D3*
X802121D3*
D25*
Y846797D3*
X3043559Y1902026D3*
D26*
Y1802026D3*
Y1702026D3*
Y1602026D3*
Y1502026D3*
Y1402026D3*
Y1302026D3*
X3343559D3*
Y1402026D3*
Y1502026D3*
Y1602026D3*
Y1702026D3*
Y1802026D3*
Y1902026D3*
M02*
