G04 DipTrace 3.3.1.3*
G04 BottomSilk.gbr*
%MOIN*%
G04 #@! TF.FileFunction,Legend,Bot*
G04 #@! TF.Part,Single*
%ADD12C,0.003*%
%ADD81C,0.006176*%
%ADD82C,0.012351*%
%ADD83C,0.010807*%
%ADD84C,0.009264*%
%ADD86C,0.00772*%
%ADD87C,0.018527*%
%FSLAX26Y26*%
G04*
G70*
G90*
G75*
G01*
G04 BotSilk*
%LPD*%
X2859697Y1168201D2*
D12*
X3882697D1*
X2859697Y1165201D2*
X3882697D1*
X2859697Y1162201D2*
X3882697D1*
X2859697Y1159201D2*
X3882697D1*
X2859697Y1156201D2*
X3882697D1*
X2859697Y1153201D2*
X3882697D1*
X2859697Y1150201D2*
X3882697D1*
X2859697Y1147201D2*
X3882697D1*
X2859697Y1144201D2*
X3882697D1*
X2859697Y1141201D2*
X3882697D1*
X2859697Y1138201D2*
X3882697D1*
X2859697Y1135201D2*
X3882697D1*
X2859697Y1132201D2*
X3882697D1*
X2859697Y1129201D2*
X3882697D1*
X2859697Y1126201D2*
X3882697D1*
X2859697Y1123201D2*
X3882697D1*
X2859697Y1120201D2*
X3882697D1*
X2859697Y1117201D2*
X3882697D1*
X2859697Y1114201D2*
X3882697D1*
X2400697Y1111201D2*
X2424697D1*
X2859697D2*
X3882697D1*
X2391375Y1108201D2*
X2435044D1*
X2859697D2*
X3723835D1*
X3769149D2*
X3882697D1*
X2157697Y1105201D2*
X2205697D1*
X2259697D2*
X2307697D1*
X2383136D2*
X2444177D1*
X2514697D2*
X2649697D1*
X2667697D2*
X2805697D1*
X2859697D2*
X3715453D1*
X3775775D2*
X3882697D1*
X2157697Y1102201D2*
X2205697D1*
X2259697D2*
X2307697D1*
X2376492D2*
X2451389D1*
X2514697D2*
X2649697D1*
X2667697D2*
X2805697D1*
X2859697D2*
X3708172D1*
X3782053D2*
X3882697D1*
X2157697Y1099201D2*
X2205697D1*
X2259697D2*
X2307697D1*
X2371257D2*
X2456918D1*
X2514697D2*
X2649697D1*
X2667697D2*
X2805697D1*
X2859697D2*
X3702377D1*
X3787360D2*
X3882697D1*
X2157697Y1096201D2*
X2205697D1*
X2259697D2*
X2307697D1*
X2366991D2*
X2461304D1*
X2514697D2*
X2649697D1*
X2667697D2*
X2805697D1*
X2859697D2*
X3697875D1*
X3791663D2*
X3882697D1*
X2157697Y1093201D2*
X2205697D1*
X2259697D2*
X2307697D1*
X2363181D2*
X2465075D1*
X2514697D2*
X2649697D1*
X2667697D2*
X2805697D1*
X2859697D2*
X3694185D1*
X3795374D2*
X3882697D1*
X2157697Y1090201D2*
X2205697D1*
X2259697D2*
X2307697D1*
X2359626D2*
X2468374D1*
X2514697D2*
X2649697D1*
X2667697D2*
X2805697D1*
X2859697D2*
X3690984D1*
X3798915D2*
X3882697D1*
X2157697Y1087201D2*
X2205697D1*
X2259697D2*
X2307697D1*
X2356597D2*
X2471086D1*
X2514697D2*
X2649697D1*
X2667697D2*
X2805697D1*
X2859697D2*
X3688156D1*
X3802344D2*
X3882697D1*
X2157697Y1084201D2*
X2205697D1*
X2259697D2*
X2307697D1*
X2354212D2*
X2473529D1*
X2514697D2*
X2649697D1*
X2667697D2*
X2805697D1*
X2859697D2*
X3685567D1*
X3805316D2*
X3882697D1*
X2157697Y1081201D2*
X2205697D1*
X2259697D2*
X2307697D1*
X2352368D2*
X2475990D1*
X2514697D2*
X2649697D1*
X2667697D2*
X2805697D1*
X2859697D2*
X3683090D1*
X3807596D2*
X3882697D1*
X2157697Y1078201D2*
X2205697D1*
X2259697D2*
X2307697D1*
X2350950D2*
X2478266D1*
X2514697D2*
X2649697D1*
X2667697D2*
X2805697D1*
X2859697D2*
X3244876D1*
X3257518D2*
X3680952D1*
X3809255D2*
X3882697D1*
X2157697Y1075201D2*
X2205697D1*
X2259697D2*
X2307697D1*
X2349711D2*
X2480043D1*
X2514697D2*
X2649697D1*
X2667697D2*
X2805697D1*
X2859697D2*
X3240820D1*
X3264027D2*
X3679298D1*
X3810606D2*
X3882697D1*
X2157697Y1072201D2*
X2205697D1*
X2259697D2*
X2307697D1*
X2348242D2*
X2481403D1*
X2514697D2*
X2649697D1*
X2667697D2*
X2805697D1*
X2859697D2*
X3239221D1*
X3269024D2*
X3677821D1*
X3741697D2*
X3747697D1*
X3812123D2*
X3882697D1*
X2157697Y1069201D2*
X2205697D1*
X2259697D2*
X2307697D1*
X2346594D2*
X2400347D1*
X2425046D2*
X2482698D1*
X2601697D2*
X2649697D1*
X2667697D2*
X2805697D1*
X2859697D2*
X3238349D1*
X3272882D2*
X3676278D1*
X3736401D2*
X3753096D1*
X3813801D2*
X3882697D1*
X2157697Y1066201D2*
X2205697D1*
X2259697D2*
X2307697D1*
X2345225D2*
X2396988D1*
X2428405D2*
X2484066D1*
X2601697D2*
X2649697D1*
X2667697D2*
X2805697D1*
X2859697D2*
X3237953D1*
X3275804D2*
X3674538D1*
X3732042D2*
X3757745D1*
X3815270D2*
X3882697D1*
X2157697Y1063201D2*
X2205697D1*
X2259697D2*
X2307697D1*
X2344294D2*
X2393942D1*
X2431451D2*
X2485495D1*
X2601697D2*
X2649697D1*
X2712697D2*
X2760697D1*
X2859697D2*
X3237792D1*
X3278079D2*
X3672727D1*
X3728874D2*
X3761355D1*
X3816493D2*
X3882697D1*
X2157697Y1060201D2*
X2205697D1*
X2259697D2*
X2307697D1*
X2343497D2*
X2391303D1*
X2434090D2*
X2486956D1*
X2601697D2*
X2649697D1*
X2712697D2*
X2760697D1*
X2859697D2*
X3237730D1*
X3278922D2*
X3671292D1*
X3726644D2*
X3764007D1*
X3817732D2*
X3882697D1*
X2157697Y1057201D2*
X2205697D1*
X2259697D2*
X2307697D1*
X2342596D2*
X2389047D1*
X2436358D2*
X2488336D1*
X2601697D2*
X2649697D1*
X2712697D2*
X2760697D1*
X2859697D2*
X3237708D1*
X3279488D2*
X3670420D1*
X3725069D2*
X3765949D1*
X3819066D2*
X3882697D1*
X2157697Y1054201D2*
X2205697D1*
X2259697D2*
X2307697D1*
X2341741D2*
X2387404D1*
X2438095D2*
X2489451D1*
X2601697D2*
X2649697D1*
X2712697D2*
X2760697D1*
X2859697D2*
X3237700D1*
X3280155D2*
X3316006D1*
X3315262D2*
X3669887D1*
X3723856D2*
X3767292D1*
X3820382D2*
X3882697D1*
X2157697Y1051201D2*
X2205697D1*
X2259697D2*
X2307697D1*
X2341085D2*
X2386361D1*
X2439415D2*
X2490228D1*
X2601697D2*
X2649697D1*
X2712697D2*
X2760697D1*
X2859697D2*
X2961233D1*
X3003457D2*
X3024697D1*
X3068993D2*
X3135119D1*
X3190636D2*
X3237697D1*
X3281266D2*
X3298322D1*
X3332056D2*
X3447811D1*
X3496172D2*
X3543107D1*
X3568160D2*
X3591697D1*
X3634248D2*
X3669317D1*
X3722639D2*
X3768058D1*
X3821457D2*
X3882697D1*
X2157697Y1048201D2*
X2205697D1*
X2259697D2*
X2307697D1*
X2340414D2*
X2385521D1*
X2440591D2*
X2490949D1*
X2601697D2*
X2649697D1*
X2712697D2*
X2760697D1*
X2859697D2*
X2957501D1*
X3008582D2*
X3024697D1*
X3070772D2*
X3130991D1*
X3195229D2*
X3247495D1*
X3282697D2*
D3*
X3344316D2*
X3442207D1*
X3500021D2*
X3544862D1*
X3571904D2*
X3591697D1*
X3635301D2*
X3668511D1*
X3721317D2*
X3768443D1*
X3822118D2*
X3882697D1*
X2157697Y1045201D2*
X2205697D1*
X2259697D2*
X2307697D1*
X2339565D2*
X2384604D1*
X2441559D2*
X2491830D1*
X2601697D2*
X2649697D1*
X2712697D2*
X2760697D1*
X2859697D2*
X2953842D1*
X3012738D2*
X3024697D1*
X3070751D2*
X3126495D1*
X3200153D2*
X3254301D1*
X3352884D2*
X3437044D1*
X3504180D2*
X3545866D1*
X3575669D2*
X3591697D1*
X3636697D2*
X3667608D1*
X3720008D2*
X3768711D1*
X3822452D2*
X3882697D1*
X2157697Y1042201D2*
X2205697D1*
X2259697D2*
X2307697D1*
X2338742D2*
X2383744D1*
X2442161D2*
X2492765D1*
X2601697D2*
X2649697D1*
X2712697D2*
X2760697D1*
X2859697D2*
X2950804D1*
X3016252D2*
X3024697D1*
X3070392D2*
X3122200D1*
X3204817D2*
X3259033D1*
X3358961D2*
X3432312D1*
X3508424D2*
X3546354D1*
X3579089D2*
X3591697D1*
X3635312D2*
X3666692D1*
X3718935D2*
X3769158D1*
X3822613D2*
X3882697D1*
X2157697Y1039201D2*
X2205697D1*
X2259697D2*
X2307697D1*
X2338198D2*
X2383085D1*
X2442481D2*
X2493694D1*
X2601697D2*
X2649697D1*
X2712697D2*
X2760697D1*
X2859697D2*
X2948626D1*
X3019497D2*
X3024697D1*
X3070060D2*
X3118410D1*
X3208761D2*
X3260637D1*
X3363557D2*
X3428054D1*
X3512472D2*
X3546564D1*
X3581974D2*
X3591697D1*
X3634450D2*
X3665692D1*
X3718275D2*
X3769902D1*
X3822778D2*
X3882697D1*
X2157697Y1036201D2*
X2205697D1*
X2259697D2*
X2307697D1*
X2337912D2*
X2382414D1*
X2442724D2*
X2494699D1*
X2601697D2*
X2649697D1*
X2712697D2*
X2760697D1*
X2859697D2*
X2946998D1*
X3022289D2*
X3024697D1*
X3069861D2*
X3115110D1*
X3211809D2*
X3260740D1*
X3367030D2*
X3424331D1*
X3516111D2*
X3546648D1*
X3584266D2*
X3591697D1*
X3634014D2*
X3664794D1*
X3717941D2*
X3770679D1*
X3823184D2*
X3882697D1*
X2157697Y1033201D2*
X2205697D1*
X2259697D2*
X2307697D1*
X2337782D2*
X2381564D1*
X2443163D2*
X2495598D1*
X2601697D2*
X2649697D1*
X2712697D2*
X2760697D1*
X2859697D2*
X2945355D1*
X3024697D2*
D3*
X3069764D2*
X3112312D1*
X3214318D2*
X3260168D1*
X3369594D2*
X3421074D1*
X3519337D2*
X3546680D1*
X3586061D2*
X3591697D1*
X3633821D2*
X3664218D1*
X3717793D2*
X3771206D1*
X3823911D2*
X3882697D1*
X2157697Y1030201D2*
X2205697D1*
X2259697D2*
X2307697D1*
X2337727D2*
X2380734D1*
X2443903D2*
X2496175D1*
X2601697D2*
X2649697D1*
X2712697D2*
X2760697D1*
X2859697D2*
X2943636D1*
X3069723D2*
X3109969D1*
X3216569D2*
X3259025D1*
X3309697D2*
X3321697D1*
X3371600D2*
X3418309D1*
X3522090D2*
X3546691D1*
X3587446D2*
X3591697D1*
X3633743D2*
X3663920D1*
X3717732D2*
X3771485D1*
X3824683D2*
X3882697D1*
X2157697Y1027201D2*
X2205697D1*
X2259697D2*
X2307697D1*
X2337697D2*
X2380144D1*
X2444680D2*
X2496474D1*
X2601697D2*
X2649697D1*
X2712697D2*
X2760697D1*
X2859697D2*
X2942252D1*
X3069706D2*
X3107828D1*
X3218534D2*
X3257445D1*
X3307172D2*
X3322837D1*
X3373312D2*
X3416081D1*
X3524326D2*
X3546695D1*
X3588572D2*
X3591697D1*
X3633713D2*
X3663785D1*
X3717709D2*
X3771613D1*
X3825207D2*
X3882697D1*
X2157697Y1024201D2*
X2205697D1*
X2259697D2*
X2307697D1*
X2358697D2*
X2379697D1*
X2445206D2*
X2496609D1*
X2601697D2*
X2649697D1*
X2712697D2*
X2760697D1*
X2859697D2*
X2941416D1*
X3069700D2*
X3105829D1*
X3220269D2*
X3255695D1*
X3305033D2*
X3324114D1*
X3374888D2*
X3414314D1*
X3462697D2*
X3474697D1*
X3526186D2*
X3546696D1*
X3589682D2*
X3591697D1*
X3633702D2*
X3663730D1*
X3717701D2*
X3771665D1*
X3825497D2*
X3882697D1*
X2157697Y1021201D2*
X2205697D1*
X2259697D2*
X2307697D1*
X2445485D2*
X2496664D1*
X2601697D2*
X2649697D1*
X2712697D2*
X2760697D1*
X2859697D2*
X2940999D1*
X3069698D2*
X3104216D1*
X3156697D2*
X3168697D1*
X3221866D2*
X3254281D1*
X3303309D2*
X3325414D1*
X3376311D2*
X3412941D1*
X3458787D2*
X3478504D1*
X3527835D2*
X3546697D1*
X3590740D2*
X3591697D1*
X3633699D2*
X3663709D1*
X3717698D2*
X3771697D1*
X3825730D2*
X3882697D1*
X2157697Y1018201D2*
X2307697D1*
X2445613D2*
X2496685D1*
X2532697D2*
X2649697D1*
X2712697D2*
X2760697D1*
X2859697D2*
X2940815D1*
X2994697D2*
X3012697D1*
X3069697D2*
X3102947D1*
X3153813D2*
X3172133D1*
X3223302D2*
X3253428D1*
X3302053D2*
X3326582D1*
X3377431D2*
X3411809D1*
X3455775D2*
X3481225D1*
X3529303D2*
X3546697D1*
X3591697D2*
D3*
X3633697D2*
X3663701D1*
X3717697D2*
X3771810D1*
X3826165D2*
X3882697D1*
X2157697Y1015201D2*
X2307697D1*
X2445665D2*
X2496693D1*
X2532697D2*
X2649697D1*
X2712697D2*
X2760697D1*
X2859697D2*
X2940740D1*
X2992848D2*
X3015107D1*
X3069697D2*
X3101792D1*
X3151705D2*
X3175163D1*
X3224439D2*
X3252992D1*
X3301319D2*
X3327620D1*
X3378109D2*
X3410622D1*
X3453510D2*
X3483060D1*
X3530541D2*
X3546697D1*
X3633697D2*
X3663698D1*
X3717697D2*
X3772195D1*
X3826904D2*
X3882697D1*
X2157697Y1012201D2*
X2307697D1*
X2445686D2*
X2496696D1*
X2532697D2*
X2649697D1*
X2712697D2*
X2760697D1*
X2859697D2*
X2940712D1*
X2991243D2*
X3016873D1*
X3069697D2*
X3100831D1*
X3150114D2*
X3176461D1*
X3225224D2*
X3252690D1*
X3300957D2*
X3328671D1*
X3378449D2*
X3409311D1*
X3451678D2*
X3484565D1*
X3531617D2*
X3546697D1*
X3633697D2*
X3663697D1*
X3717697D2*
X3772914D1*
X3827680D2*
X3882697D1*
X2157697Y1009201D2*
X2307697D1*
X2445693D2*
X2496696D1*
X2532697D2*
X2649697D1*
X2712697D2*
X2760697D1*
X2859697D2*
X2940702D1*
X2990030D2*
X3017984D1*
X3069697D2*
X3100219D1*
X3148958D2*
X3177276D1*
X3225960D2*
X3252151D1*
X3300798D2*
X3329577D1*
X3378600D2*
X3408006D1*
X3450147D2*
X3486005D1*
X3532783D2*
X3556725D1*
X3633697D2*
X3663697D1*
X3717697D2*
X3773684D1*
X3828206D2*
X3882697D1*
X2157697Y1006201D2*
X2307697D1*
X2445696D2*
X2496697D1*
X2532697D2*
X2649697D1*
X2712697D2*
X2760697D1*
X2859697D2*
X2940699D1*
X2989311D2*
X3018853D1*
X3069697D2*
X3099807D1*
X3148278D2*
X3177983D1*
X3226935D2*
X3251096D1*
X3300734D2*
X3330055D1*
X3378661D2*
X3406934D1*
X3448986D2*
X3487361D1*
X3534086D2*
X3564797D1*
X3633697D2*
X3663697D1*
X3717697D2*
X3774207D1*
X3828485D2*
X3882697D1*
X2157697Y1003201D2*
X2307697D1*
X2445696D2*
X2496697D1*
X2532697D2*
X2649697D1*
X2712697D2*
X2760697D1*
X2859697D2*
X2940697D1*
X2988954D2*
X3019782D1*
X3069697D2*
X3099287D1*
X3147941D2*
X3178836D1*
X3228148D2*
X3249697D1*
X3300710D2*
X3329973D1*
X3378672D2*
X3406275D1*
X3448293D2*
X3488450D1*
X3535389D2*
X3570781D1*
X3633697D2*
X3663697D1*
X3717697D2*
X3774485D1*
X3828613D2*
X3882697D1*
X2157697Y1000201D2*
X2307697D1*
X2445697D2*
X2496697D1*
X2532697D2*
X2649697D1*
X2712697D2*
X2760697D1*
X2859697D2*
X2940697D1*
X2988797D2*
X3020636D1*
X3069697D2*
X3098512D1*
X3147780D2*
X3179656D1*
X3229413D2*
X3251082D1*
X3300713D2*
X3329379D1*
X3378575D2*
X3405941D1*
X3447947D2*
X3489116D1*
X3536460D2*
X3574979D1*
X3633697D2*
X3663697D1*
X3717697D2*
X3774613D1*
X3828665D2*
X3882697D1*
X2157697Y997201D2*
X2307697D1*
X2445697D2*
X2496697D1*
X2532697D2*
X2649697D1*
X2712697D2*
X2760697D1*
X2859697D2*
X2940697D1*
X2988734D2*
X3021190D1*
X3069697D2*
X3097710D1*
X3147615D2*
X3180198D1*
X3230468D2*
X3251955D1*
X3300816D2*
X3328560D1*
X3378184D2*
X3405793D1*
X3447795D2*
X3489452D1*
X3537119D2*
X3577880D1*
X3633697D2*
X3663697D1*
X3717697D2*
X3774654D1*
X3828674D2*
X3882697D1*
X2157697Y994201D2*
X2307697D1*
X2445697D2*
X2496697D1*
X2532697D2*
X2649697D1*
X2712697D2*
X2760697D1*
X2859697D2*
X2940697D1*
X2988710D2*
X3021480D1*
X3069697D2*
X3097073D1*
X3147222D2*
X3180482D1*
X3231122D2*
X3252496D1*
X3301209D2*
X3327663D1*
X3377361D2*
X3405721D1*
X3447731D2*
X3489607D1*
X3537453D2*
X3580017D1*
X3633697D2*
X3663697D1*
X3717697D2*
X3774568D1*
X3828576D2*
X3882697D1*
X2157697Y991201D2*
X2307697D1*
X2445697D2*
X2496697D1*
X2532697D2*
X2649697D1*
X2712697D2*
X2760697D1*
X2859697D2*
X2940697D1*
X2988701D2*
X3021611D1*
X3069697D2*
X3096410D1*
X3146609D2*
X3180612D1*
X3231453D2*
X3253084D1*
X3302044D2*
X3326569D1*
X3376210D2*
X3405583D1*
X3447697D2*
X3489697D1*
X3537601D2*
X3581774D1*
X3633697D2*
X3663697D1*
X3717697D2*
X3774193D1*
X3828196D2*
X3882697D1*
X2157697Y988201D2*
X2307697D1*
X2445697D2*
X2496697D1*
X2532697D2*
X2649697D1*
X2712697D2*
X2760697D1*
X2859697D2*
X2940697D1*
X2988698D2*
X3021665D1*
X3069697D2*
X3095563D1*
X3146030D2*
X3180665D1*
X3231601D2*
X3253998D1*
X3303312D2*
X3325291D1*
X3374957D2*
X3405112D1*
X3537661D2*
X3583270D1*
X3633697D2*
X3663697D1*
X3717697D2*
X3773478D1*
X3827478D2*
X3882697D1*
X2157697Y985201D2*
X2307697D1*
X2445697D2*
X2496697D1*
X2532697D2*
X2649697D1*
X2712697D2*
X2760697D1*
X2859697D2*
X2940697D1*
X2988697D2*
X3021685D1*
X3069697D2*
X3094741D1*
X3146683D2*
X3180697D1*
X3231661D2*
X3255285D1*
X3305045D2*
X3323970D1*
X3373792D2*
X3404083D1*
X3537684D2*
X3584417D1*
X3633697D2*
X3663697D1*
X3717697D2*
X3772709D1*
X3826710D2*
X3882697D1*
X2157697Y982201D2*
X2307697D1*
X2445697D2*
X2496697D1*
X2601697D2*
X2649697D1*
X2712697D2*
X2760697D1*
X2859697D2*
X2940697D1*
X2988697D2*
X3021693D1*
X3069697D2*
X3094198D1*
X3147697D2*
X3180810D1*
X3231684D2*
X3256931D1*
X3307257D2*
X3322762D1*
X3372642D2*
X3402697D1*
X3537693D2*
X3585104D1*
X3633697D2*
X3663697D1*
X3717697D2*
X3772186D1*
X3826186D2*
X3882697D1*
X2157697Y979201D2*
X2307697D1*
X2445697D2*
X2496697D1*
X2601697D2*
X2649697D1*
X2712697D2*
X2760697D1*
X2859697D2*
X2940697D1*
X2988697D2*
X3021696D1*
X3069697D2*
X3093912D1*
X3146312D2*
X3181183D1*
X3231693D2*
X3258829D1*
X3309697D2*
X3321697D1*
X3371082D2*
X3405697D1*
X3537695D2*
X3585447D1*
X3633697D2*
X3663697D1*
X3717697D2*
X3771908D1*
X3825897D2*
X3882697D1*
X2157697Y976201D2*
X2205697D1*
X2259697D2*
X2307697D1*
X2445685D2*
X2496685D1*
X2601697D2*
X2649697D1*
X2712697D2*
X2760697D1*
X2859697D2*
X2940697D1*
X2988697D2*
X3021696D1*
X3069697D2*
X3093782D1*
X3145450D2*
X3181797D1*
X3231695D2*
X3260855D1*
X3368853D2*
X3404312D1*
X3537696D2*
X3585599D1*
X3633697D2*
X3663697D1*
X3717697D2*
X3771781D1*
X3825664D2*
X3882697D1*
X2157697Y973201D2*
X2205697D1*
X2259697D2*
X2307697D1*
X2445580D2*
X2496580D1*
X2601697D2*
X2649697D1*
X2712697D2*
X2760697D1*
X2859697D2*
X2940697D1*
X2988697D2*
X3021697D1*
X3069697D2*
X3093729D1*
X3145014D2*
X3182184D1*
X3231696D2*
X3263334D1*
X3366029D2*
X3403450D1*
X3537697D2*
X3585661D1*
X3633697D2*
X3663697D1*
X3717697D2*
X3771728D1*
X3825229D2*
X3882697D1*
X2157697Y970201D2*
X2205697D1*
X2259697D2*
X2307697D1*
X2367697D2*
X2379697D1*
X2445197D2*
X2496197D1*
X2601697D2*
X2649697D1*
X2712697D2*
X2760697D1*
X2859697D2*
X2940697D1*
X2988697D2*
X3021697D1*
X3069697D2*
X3093708D1*
X3144821D2*
X3181989D1*
X3231697D2*
X3266676D1*
X3363064D2*
X3403014D1*
X3537697D2*
X3585684D1*
X3633697D2*
X3663709D1*
X3717697D2*
X3771696D1*
X3824490D2*
X3882697D1*
X2157697Y967201D2*
X2205697D1*
X2259697D2*
X2307697D1*
X2337697D2*
X2380160D1*
X2444479D2*
X2495479D1*
X2601697D2*
X2649697D1*
X2712697D2*
X2760697D1*
X2859697D2*
X2940697D1*
X2988697D2*
X3021697D1*
X3069697D2*
X3093712D1*
X3144743D2*
X3181498D1*
X3231697D2*
X3270908D1*
X3360647D2*
X3402821D1*
X3537697D2*
X3585692D1*
X3633697D2*
X3663814D1*
X3717697D2*
X3771584D1*
X3823714D2*
X3882697D1*
X2157697Y964201D2*
X2205697D1*
X2259697D2*
X2307697D1*
X2337697D2*
X2380916D1*
X2443710D2*
X2494698D1*
X2601697D2*
X2649697D1*
X2712697D2*
X2760697D1*
X2859697D2*
X2940697D1*
X2988697D2*
X3021697D1*
X3069697D2*
X3093815D1*
X3144725D2*
X3181102D1*
X3231697D2*
X3275733D1*
X3358774D2*
X3402740D1*
X3537697D2*
X3585695D1*
X3633697D2*
X3664196D1*
X3717709D2*
X3771199D1*
X3823188D2*
X3882697D1*
X2157697Y961201D2*
X2205697D1*
X2259697D2*
X2307697D1*
X2337697D2*
X2381798D1*
X2443186D2*
X2494069D1*
X2601697D2*
X2649697D1*
X2712697D2*
X2760697D1*
X2859697D2*
X2940697D1*
X2988697D2*
X3021697D1*
X3069697D2*
X3094197D1*
X3144820D2*
X3180877D1*
X3231697D2*
X3280510D1*
X3362303D2*
X3489697D1*
X3537697D2*
X3585696D1*
X3633697D2*
X3664927D1*
X3717814D2*
X3770479D1*
X3822909D2*
X3882697D1*
X2157697Y958201D2*
X2205697D1*
X2259697D2*
X2307697D1*
X2337697D2*
X2382706D1*
X2442897D2*
X2493409D1*
X2601697D2*
X2649697D1*
X2712697D2*
X2760697D1*
X2859697D2*
X2940697D1*
X2988697D2*
X3021697D1*
X3069697D2*
X3094915D1*
X3145198D2*
X3180770D1*
X3231685D2*
X3284758D1*
X3365886D2*
X3489697D1*
X3537697D2*
X3585697D1*
X3633697D2*
X3665801D1*
X3718208D2*
X3769710D1*
X3822769D2*
X3882697D1*
X2157697Y955201D2*
X2205697D1*
X2259697D2*
X2307697D1*
X2337709D2*
X2383715D1*
X2442664D2*
X2492563D1*
X2601697D2*
X2649697D1*
X2712697D2*
X2760697D1*
X2859697D2*
X2940697D1*
X2988697D2*
X3021697D1*
X3069697D2*
X3095684D1*
X3145915D2*
X3180724D1*
X3231580D2*
X3336697D1*
X3369286D2*
X3489697D1*
X3537697D2*
X3585697D1*
X3633697D2*
X3666707D1*
X3719032D2*
X3769175D1*
X3822611D2*
X3882697D1*
X2157697Y952201D2*
X2205697D1*
X2259697D2*
X2307697D1*
X2337826D2*
X2384729D1*
X2442229D2*
X2491729D1*
X2601697D2*
X2649697D1*
X2712697D2*
X2760697D1*
X2859697D2*
X2940697D1*
X2988697D2*
X3021697D1*
X3069697D2*
X3096219D1*
X3146684D2*
X3180695D1*
X3231197D2*
X3339467D1*
X3372405D2*
X3489697D1*
X3537697D2*
X3585697D1*
X3633697D2*
X3667703D1*
X3720184D2*
X3768791D1*
X3822197D2*
X3882697D1*
X2157697Y949201D2*
X2205697D1*
X2259697D2*
X2307697D1*
X2338314D2*
X2385792D1*
X2441467D2*
X2491080D1*
X2601697D2*
X2649697D1*
X2712697D2*
X2760697D1*
X2859697D2*
X2940697D1*
X2988697D2*
X3021697D1*
X3069697D2*
X3096603D1*
X3147207D2*
X3180583D1*
X3230479D2*
X3341518D1*
X3375116D2*
X3489697D1*
X3537685D2*
X3585697D1*
X3633697D2*
X3668612D1*
X3721437D2*
X3768281D1*
X3821366D2*
X3882697D1*
X2157697Y946201D2*
X2205697D1*
X2259697D2*
X2307697D1*
X2339414D2*
X2387203D1*
X2440479D2*
X2490401D1*
X2601697D2*
X2649697D1*
X2712697D2*
X2760697D1*
X2859697D2*
X2940697D1*
X2988697D2*
X3021697D1*
X3069697D2*
X3097112D1*
X3147485D2*
X3180198D1*
X3229698D2*
X3342022D1*
X3377324D2*
X3489685D1*
X3537580D2*
X3585697D1*
X3633697D2*
X3669293D1*
X3722590D2*
X3767487D1*
X3820211D2*
X3882697D1*
X2157697Y943201D2*
X2205697D1*
X2259697D2*
X2307697D1*
X2340902D2*
X2388943D1*
X2439165D2*
X2489447D1*
X2601697D2*
X2649697D1*
X2712697D2*
X2760697D1*
X2859697D2*
X2940697D1*
X2988697D2*
X3021697D1*
X3069697D2*
X3097883D1*
X3147613D2*
X3179479D1*
X3229069D2*
X3342246D1*
X3379083D2*
X3402107D1*
X3447709D2*
X3489580D1*
X3537186D2*
X3585697D1*
X3633697D2*
X3669985D1*
X3723634D2*
X3766487D1*
X3818957D2*
X3882697D1*
X2157697Y940201D2*
X2205697D1*
X2259697D2*
X2307697D1*
X2342206D2*
X2390790D1*
X2437220D2*
X2488230D1*
X2601697D2*
X2649697D1*
X2712697D2*
X2760697D1*
X2859697D2*
X2940697D1*
X2988697D2*
X3021697D1*
X3069697D2*
X3098685D1*
X3147677D2*
X3178710D1*
X3228409D2*
X3335716D1*
X3380454D2*
X3403873D1*
X3447826D2*
X3489186D1*
X3536362D2*
X3585697D1*
X3633697D2*
X3670944D1*
X3724813D2*
X3765168D1*
X3817792D2*
X3882697D1*
X2157697Y937201D2*
X2205697D1*
X2259697D2*
X2307697D1*
X2343125D2*
X2392822D1*
X2434611D2*
X2486863D1*
X2601697D2*
X2649697D1*
X2712697D2*
X2760697D1*
X2859697D2*
X2940697D1*
X2988697D2*
X3021697D1*
X3069697D2*
X3099321D1*
X3147803D2*
X3178175D1*
X3227563D2*
X3324164D1*
X3381561D2*
X3404984D1*
X3448314D2*
X3488362D1*
X3535210D2*
X3585697D1*
X3633697D2*
X3672151D1*
X3726342D2*
X3763220D1*
X3816654D2*
X3882697D1*
X2157697Y934201D2*
X2205697D1*
X2259697D2*
X2307697D1*
X2344018D2*
X2395175D1*
X2431368D2*
X2485425D1*
X2601697D2*
X2649697D1*
X2712697D2*
X2760697D1*
X2859697D2*
X2940697D1*
X2988697D2*
X3021697D1*
X3069697D2*
X3099984D1*
X3148204D2*
X3177779D1*
X3226729D2*
X3307579D1*
X3382537D2*
X3405865D1*
X3449426D2*
X3487198D1*
X3533957D2*
X3585697D1*
X3633697D2*
X3673425D1*
X3728599D2*
X3760611D1*
X3815222D2*
X3882697D1*
X2157697Y931201D2*
X2205697D1*
X2259697D2*
X2307697D1*
X2345310D2*
X2397697D1*
X2427697D2*
X2484030D1*
X2601697D2*
X2649697D1*
X2712697D2*
X2760697D1*
X2859697D2*
X2940697D1*
X2988697D2*
X3021697D1*
X3069697D2*
X3100842D1*
X3149066D2*
X3177141D1*
X3226069D2*
X3285067D1*
X3288697D2*
D3*
X3383335D2*
X3406900D1*
X3451054D2*
X3485816D1*
X3532792D2*
X3585697D1*
X3633697D2*
X3674598D1*
X3731860D2*
X3757368D1*
X3813575D2*
X3882697D1*
X2157697Y928201D2*
X2205697D1*
X2259697D2*
X2307697D1*
X2346976D2*
X2482719D1*
X2514697D2*
X2649697D1*
X2712697D2*
X2760697D1*
X2859697D2*
X2940697D1*
X2988697D2*
X3021697D1*
X3069697D2*
X3101770D1*
X3150563D2*
X3176104D1*
X3225295D2*
X3272166D1*
X3382901D2*
X3408135D1*
X3453074D2*
X3484041D1*
X3531654D2*
X3585697D1*
X3633697D2*
X3675739D1*
X3735697D2*
X3753697D1*
X3812117D2*
X3882697D1*
X2157697Y925201D2*
X2205697D1*
X2259697D2*
X2307697D1*
X2348691D2*
X2481271D1*
X2514697D2*
X2649697D1*
X2712697D2*
X2760697D1*
X2859697D2*
X2940697D1*
X2988697D2*
X3021697D1*
X3069697D2*
X3102707D1*
X3152659D2*
X3173375D1*
X3224053D2*
X3262647D1*
X3381990D2*
X3409420D1*
X3456013D2*
X3481789D1*
X3530210D2*
X3585697D1*
X3633697D2*
X3677183D1*
X3810911D2*
X3882697D1*
X2157697Y922201D2*
X2205697D1*
X2259697D2*
X2307697D1*
X2350338D2*
X2479379D1*
X2514697D2*
X2649697D1*
X2712697D2*
X2760697D1*
X2859697D2*
X2940697D1*
X2988697D2*
X3021697D1*
X3069697D2*
X3103817D1*
X3157346D2*
X3169790D1*
X3222395D2*
X3255916D1*
X3380755D2*
X3410584D1*
X3460409D2*
X3477070D1*
X3528470D2*
X3585697D1*
X3633697D2*
X3678935D1*
X3809778D2*
X3882697D1*
X2157697Y919201D2*
X2205697D1*
X2259697D2*
X2307697D1*
X2352015D2*
X2477202D1*
X2514697D2*
X2649697D1*
X2712697D2*
X2760697D1*
X2859697D2*
X2940697D1*
X2988697D2*
X3021697D1*
X3069697D2*
X3105122D1*
X3162697D2*
X3165697D1*
X3220594D2*
X3251072D1*
X3379261D2*
X3411644D1*
X3465697D2*
X3471697D1*
X3526723D2*
X3585697D1*
X3633697D2*
X3680787D1*
X3808818D2*
X3882697D1*
X2157697Y916201D2*
X2205697D1*
X2259697D2*
X2307697D1*
X2353938D2*
X2474971D1*
X2514697D2*
X2649697D1*
X2712697D2*
X2760697D1*
X2859697D2*
X2940697D1*
X2988697D2*
X3021697D1*
X3069697D2*
X3106639D1*
X3218672D2*
X3247364D1*
X3377401D2*
X3412917D1*
X3525063D2*
X3585697D1*
X3633697D2*
X3682841D1*
X3808174D2*
X3882697D1*
X2157697Y913201D2*
X2205697D1*
X2259697D2*
X2307697D1*
X2356288D2*
X2472681D1*
X2514697D2*
X2649697D1*
X2712697D2*
X2760697D1*
X2859697D2*
X2940697D1*
X2988697D2*
X3021697D1*
X3069697D2*
X3108589D1*
X3216660D2*
X3244514D1*
X3374976D2*
X3414716D1*
X3523381D2*
X3585697D1*
X3633697D2*
X3685336D1*
X3801697D2*
X3882697D1*
X2157697Y910201D2*
X2205697D1*
X2259697D2*
X2307697D1*
X2359047D2*
X2470244D1*
X2514697D2*
X2649697D1*
X2712697D2*
X2760697D1*
X2859697D2*
X2940697D1*
X2988697D2*
X3021697D1*
X3069697D2*
X3111195D1*
X3214675D2*
X3242498D1*
X3371858D2*
X3417248D1*
X3521445D2*
X3585697D1*
X3633697D2*
X3688318D1*
X3799967D2*
X3882697D1*
X2157697Y907201D2*
X2205697D1*
X2259697D2*
X2307697D1*
X2362199D2*
X2467374D1*
X2514697D2*
X2649697D1*
X2712697D2*
X2760697D1*
X2859697D2*
X2940697D1*
X2988697D2*
X3021697D1*
X3069697D2*
X3114391D1*
X3212465D2*
X3241056D1*
X3367990D2*
X3420411D1*
X3518989D2*
X3585697D1*
X3633697D2*
X3691645D1*
X3797421D2*
X3882697D1*
X2157697Y904201D2*
X2205697D1*
X2259697D2*
X2307697D1*
X2365697D2*
X2463937D1*
X2514697D2*
X2649697D1*
X2712697D2*
X2760697D1*
X2859697D2*
X2940697D1*
X2988697D2*
X3021697D1*
X3069697D2*
X3117967D1*
X3209545D2*
X3239831D1*
X3363697D2*
X3423974D1*
X3515824D2*
X3585697D1*
X3633697D2*
X3695245D1*
X3793927D2*
X3882697D1*
X2157697Y901201D2*
X2205697D1*
X2259697D2*
X2307697D1*
X2369618D2*
X2459721D1*
X2514697D2*
X2649697D1*
X2712697D2*
X2760697D1*
X2859697D2*
X2940697D1*
X2988697D2*
X3021697D1*
X3069697D2*
X3121976D1*
X3205569D2*
X3238845D1*
X3367263D2*
X3427979D1*
X3511719D2*
X3585697D1*
X3633697D2*
X3699625D1*
X3789504D2*
X3882697D1*
X2157697Y898201D2*
X2205697D1*
X2259697D2*
X2307697D1*
X2374415D2*
X2454254D1*
X2514697D2*
X2649697D1*
X2712697D2*
X2760697D1*
X2859697D2*
X2940697D1*
X2988697D2*
X3021697D1*
X3069697D2*
X3126768D1*
X3200145D2*
X3238236D1*
X3330697D2*
X3336697D1*
X3371286D2*
X3432768D1*
X3506450D2*
X3585697D1*
X3633697D2*
X3705535D1*
X3783822D2*
X3882697D1*
X2157697Y895201D2*
X2205697D1*
X2259697D2*
X2307697D1*
X2380390D2*
X2447677D1*
X2514697D2*
X2649697D1*
X2712697D2*
X2760697D1*
X2859697D2*
X2940697D1*
X2988697D2*
X3021697D1*
X3069697D2*
X3133384D1*
X3192373D2*
X3237926D1*
X3288697D2*
X3339930D1*
X3375388D2*
X3439385D1*
X3499572D2*
X3585697D1*
X3633697D2*
X3713522D1*
X3775774D2*
X3882697D1*
X2157697Y892201D2*
X2205697D1*
X2259697D2*
X2307697D1*
X2387309D2*
X2440696D1*
X2514697D2*
X2649697D1*
X2712697D2*
X2760697D1*
X2859697D2*
X2940697D1*
X2988697D2*
X3021697D1*
X3069697D2*
X3142711D1*
X3181486D2*
X3237787D1*
X3286172D2*
X3342409D1*
X3378858D2*
X3448711D1*
X3490723D2*
X3585697D1*
X3633697D2*
X3723895D1*
X3764336D2*
X3882697D1*
X2394697Y889201D2*
X2433697D1*
X2859697D2*
X3153697D1*
X3168697D2*
X3237730D1*
X3284033D2*
X3344172D1*
X3381497D2*
X3459697D1*
X3480697D2*
X3735697D1*
X3750697D2*
X3882697D1*
X2859697Y886201D2*
X3237720D1*
X3282309D2*
X3345550D1*
X3383544D2*
X3882697D1*
X2859697Y883201D2*
X3237818D1*
X3281065D2*
X3347032D1*
X3385189D2*
X3882697D1*
X2859697Y880201D2*
X3238198D1*
X3280436D2*
X3348697D1*
X3386507D2*
X3882697D1*
X2859697Y877201D2*
X3238927D1*
X3280238D2*
X3347174D1*
X3387683D2*
X3882697D1*
X2859697Y874201D2*
X3239801D1*
X3281331D2*
X3345697D1*
X3389079D2*
X3882697D1*
X2859697Y871201D2*
X3240719D1*
X3282979D2*
X3343589D1*
X3390697D2*
X3882697D1*
X2859697Y868201D2*
X3241832D1*
X3286989D2*
X3340444D1*
X3389198D2*
X3882697D1*
X2859697Y865201D2*
X3243228D1*
X3291697D2*
X3336697D1*
X3387940D2*
X3882697D1*
X2859697Y862201D2*
X3245022D1*
X3386668D2*
X3882697D1*
X2859697Y859201D2*
X3247308D1*
X3385205D2*
X3882697D1*
X2859697Y856201D2*
X3249965D1*
X3383374D2*
X3882697D1*
X2859697Y853201D2*
X3252937D1*
X3380962D2*
X3882697D1*
X2859697Y850201D2*
X3256491D1*
X3377802D2*
X3882697D1*
X2859697Y847201D2*
X3261278D1*
X3373528D2*
X3882697D1*
X2859697Y844201D2*
X3268389D1*
X3367191D2*
X3882697D1*
X2859697Y841201D2*
X3279589D1*
X3356789D2*
X3882697D1*
X2859697Y838201D2*
X3296060D1*
X3340893D2*
X3882697D1*
X2859697Y835201D2*
X3315697D1*
X3321697D2*
X3882697D1*
X2859697Y832201D2*
X3882697D1*
X2859697Y829201D2*
X3882697D1*
X2859697Y826201D2*
X3882697D1*
X2859697Y823201D2*
X3882697D1*
X2859697Y820201D2*
X3882697D1*
X2859697Y1168201D2*
Y1165201D1*
Y1162201D1*
Y1159201D1*
Y1156201D1*
Y1153201D1*
Y1150201D1*
Y1147201D1*
Y1144201D1*
Y1141201D1*
Y1138201D1*
Y1135201D1*
Y1132201D1*
Y1129201D1*
Y1126201D1*
Y1123201D1*
Y1120201D1*
Y1117201D1*
Y1114201D1*
Y1111201D1*
Y1108201D1*
Y1105201D1*
Y1102201D1*
Y1099201D1*
Y1096201D1*
Y1093201D1*
Y1090201D1*
Y1087201D1*
Y1084201D1*
Y1081201D1*
Y1078201D1*
Y1075201D1*
Y1072201D1*
Y1069201D1*
Y1066201D1*
Y1063201D1*
Y1060201D1*
Y1057201D1*
Y1054201D1*
Y1051201D1*
Y1048201D1*
Y1045201D1*
Y1042201D1*
Y1039201D1*
Y1036201D1*
Y1033201D1*
Y1030201D1*
Y1027201D1*
Y1024201D1*
Y1021201D1*
Y1018201D1*
Y1015201D1*
Y1012201D1*
Y1009201D1*
Y1006201D1*
Y1003201D1*
Y1000201D1*
Y997201D1*
Y994201D1*
Y991201D1*
Y988201D1*
Y985201D1*
Y982201D1*
Y979201D1*
Y976201D1*
Y973201D1*
Y970201D1*
Y967201D1*
Y964201D1*
Y961201D1*
Y958201D1*
Y955201D1*
Y952201D1*
Y949201D1*
Y946201D1*
Y943201D1*
Y940201D1*
Y937201D1*
Y934201D1*
Y931201D1*
Y928201D1*
Y925201D1*
Y922201D1*
Y919201D1*
Y916201D1*
Y913201D1*
Y910201D1*
Y907201D1*
Y904201D1*
Y901201D1*
Y898201D1*
Y895201D1*
Y892201D1*
Y889201D1*
Y886201D1*
Y883201D1*
Y880201D1*
Y877201D1*
Y874201D1*
Y871201D1*
Y868201D1*
Y865201D1*
Y862201D1*
Y859201D1*
Y856201D1*
Y853201D1*
Y850201D1*
Y847201D1*
Y844201D1*
Y841201D1*
Y838201D1*
Y835201D1*
Y832201D1*
Y829201D1*
Y826201D1*
Y823201D1*
Y820201D1*
X3882697Y1168201D2*
Y1165201D1*
Y1162201D1*
Y1159201D1*
Y1156201D1*
Y1153201D1*
Y1150201D1*
Y1147201D1*
Y1144201D1*
Y1141201D1*
Y1138201D1*
Y1135201D1*
Y1132201D1*
Y1129201D1*
Y1126201D1*
Y1123201D1*
Y1120201D1*
Y1117201D1*
Y1114201D1*
Y1111201D1*
Y1108201D1*
Y1105201D1*
Y1102201D1*
Y1099201D1*
Y1096201D1*
Y1093201D1*
Y1090201D1*
Y1087201D1*
Y1084201D1*
Y1081201D1*
Y1078201D1*
Y1075201D1*
Y1072201D1*
Y1069201D1*
Y1066201D1*
Y1063201D1*
Y1060201D1*
Y1057201D1*
Y1054201D1*
Y1051201D1*
Y1048201D1*
Y1045201D1*
Y1042201D1*
Y1039201D1*
Y1036201D1*
Y1033201D1*
Y1030201D1*
Y1027201D1*
Y1024201D1*
Y1021201D1*
Y1018201D1*
Y1015201D1*
Y1012201D1*
Y1009201D1*
Y1006201D1*
Y1003201D1*
Y1000201D1*
Y997201D1*
Y994201D1*
Y991201D1*
Y988201D1*
Y985201D1*
Y982201D1*
Y979201D1*
Y976201D1*
Y973201D1*
Y970201D1*
Y967201D1*
Y964201D1*
Y961201D1*
Y958201D1*
Y955201D1*
Y952201D1*
Y949201D1*
Y946201D1*
Y943201D1*
Y940201D1*
Y937201D1*
Y934201D1*
Y931201D1*
Y928201D1*
Y925201D1*
Y922201D1*
Y919201D1*
Y916201D1*
Y913201D1*
Y910201D1*
Y907201D1*
Y904201D1*
Y901201D1*
Y898201D1*
Y895201D1*
Y892201D1*
Y889201D1*
Y886201D1*
Y883201D1*
Y880201D1*
Y877201D1*
Y874201D1*
Y871201D1*
Y868201D1*
Y865201D1*
Y862201D1*
Y859201D1*
Y856201D1*
Y853201D1*
Y850201D1*
Y847201D1*
Y844201D1*
Y841201D1*
Y838201D1*
Y835201D1*
Y832201D1*
Y829201D1*
Y826201D1*
Y823201D1*
Y820201D1*
X2400697Y1111201D2*
X2391375Y1108201D1*
X2383136Y1105201D1*
X2376492Y1102201D1*
X2371257Y1099201D1*
X2366991Y1096201D1*
X2363181Y1093201D1*
X2359626Y1090201D1*
X2356597Y1087201D1*
X2354212Y1084201D1*
X2352368Y1081201D1*
X2350950Y1078201D1*
X2349711Y1075201D1*
X2348242Y1072201D1*
X2346594Y1069201D1*
X2345225Y1066201D1*
X2344294Y1063201D1*
X2343497Y1060201D1*
X2342596Y1057201D1*
X2341741Y1054201D1*
X2341085Y1051201D1*
X2340414Y1048201D1*
X2339565Y1045201D1*
X2338742Y1042201D1*
X2338198Y1039201D1*
X2337912Y1036201D1*
X2337782Y1033201D1*
X2337727Y1030201D1*
X2337697Y1027201D1*
X2358697Y1024201D1*
X2424697Y1111201D2*
X2435044Y1108201D1*
X2444177Y1105201D1*
X2451389Y1102201D1*
X2456918Y1099201D1*
X2461304Y1096201D1*
X2465075Y1093201D1*
X2468374Y1090201D1*
X2471086Y1087201D1*
X2473529Y1084201D1*
X2475990Y1081201D1*
X2478266Y1078201D1*
X2480043Y1075201D1*
X2481403Y1072201D1*
X2482698Y1069201D1*
X2484066Y1066201D1*
X2485495Y1063201D1*
X2486956Y1060201D1*
X2488336Y1057201D1*
X2489451Y1054201D1*
X2490228Y1051201D1*
X2490949Y1048201D1*
X2491830Y1045201D1*
X2492765Y1042201D1*
X2493694Y1039201D1*
X2494699Y1036201D1*
X2495598Y1033201D1*
X2496175Y1030201D1*
X2496474Y1027201D1*
X2496609Y1024201D1*
X2496664Y1021201D1*
X2496685Y1018201D1*
X2496693Y1015201D1*
X2496696Y1012201D1*
Y1009201D1*
X2496697Y1006201D1*
Y1003201D1*
Y1000201D1*
Y997201D1*
Y994201D1*
Y991201D1*
Y988201D1*
Y985201D1*
Y982201D1*
Y979201D1*
X2496685Y976201D1*
X2496580Y973201D1*
X2496197Y970201D1*
X2495479Y967201D1*
X2494698Y964201D1*
X2494069Y961201D1*
X2493409Y958201D1*
X2492563Y955201D1*
X2491729Y952201D1*
X2491080Y949201D1*
X2490401Y946201D1*
X2489447Y943201D1*
X2488230Y940201D1*
X2486863Y937201D1*
X2485425Y934201D1*
X2484030Y931201D1*
X2482719Y928201D1*
X2481271Y925201D1*
X2479379Y922201D1*
X2477202Y919201D1*
X2474971Y916201D1*
X2472681Y913201D1*
X2470244Y910201D1*
X2467374Y907201D1*
X2463937Y904201D1*
X2459721Y901201D1*
X2454254Y898201D1*
X2447677Y895201D1*
X2440696Y892201D1*
X2433697Y889201D1*
X3732697Y1111201D2*
X3723835Y1108201D1*
X3715453Y1105201D1*
X3708172Y1102201D1*
X3702377Y1099201D1*
X3697875Y1096201D1*
X3694185Y1093201D1*
X3690984Y1090201D1*
X3688156Y1087201D1*
X3685567Y1084201D1*
X3683090Y1081201D1*
X3680952Y1078201D1*
X3679298Y1075201D1*
X3677821Y1072201D1*
X3676278Y1069201D1*
X3674538Y1066201D1*
X3672727Y1063201D1*
X3671292Y1060201D1*
X3670420Y1057201D1*
X3669887Y1054201D1*
X3669317Y1051201D1*
X3668511Y1048201D1*
X3667608Y1045201D1*
X3666692Y1042201D1*
X3665692Y1039201D1*
X3664794Y1036201D1*
X3664218Y1033201D1*
X3663920Y1030201D1*
X3663785Y1027201D1*
X3663730Y1024201D1*
X3663709Y1021201D1*
X3663701Y1018201D1*
X3663698Y1015201D1*
X3663697Y1012201D1*
Y1009201D1*
Y1006201D1*
Y1003201D1*
Y1000201D1*
Y997201D1*
Y994201D1*
Y991201D1*
Y988201D1*
Y985201D1*
Y982201D1*
Y979201D1*
Y976201D1*
Y973201D1*
X3663709Y970201D1*
X3663814Y967201D1*
X3664196Y964201D1*
X3664927Y961201D1*
X3665801Y958201D1*
X3666707Y955201D1*
X3667703Y952201D1*
X3668612Y949201D1*
X3669293Y946201D1*
X3669985Y943201D1*
X3670944Y940201D1*
X3672151Y937201D1*
X3673425Y934201D1*
X3674598Y931201D1*
X3675739Y928201D1*
X3677183Y925201D1*
X3678935Y922201D1*
X3680787Y919201D1*
X3682841Y916201D1*
X3685336Y913201D1*
X3688318Y910201D1*
X3691645Y907201D1*
X3695245Y904201D1*
X3699625Y901201D1*
X3705535Y898201D1*
X3713522Y895201D1*
X3723895Y892201D1*
X3735697Y889201D1*
X3762697Y1111201D2*
X3769149Y1108201D1*
X3775775Y1105201D1*
X3782053Y1102201D1*
X3787360Y1099201D1*
X3791663Y1096201D1*
X3795374Y1093201D1*
X3798915Y1090201D1*
X3802344Y1087201D1*
X3805316Y1084201D1*
X3807596Y1081201D1*
X3809255Y1078201D1*
X3810606Y1075201D1*
X3812123Y1072201D1*
X3813801Y1069201D1*
X3815270Y1066201D1*
X3816493Y1063201D1*
X3817732Y1060201D1*
X3819066Y1057201D1*
X3820382Y1054201D1*
X3821457Y1051201D1*
X3822118Y1048201D1*
X3822452Y1045201D1*
X3822613Y1042201D1*
X3822778Y1039201D1*
X3823184Y1036201D1*
X3823911Y1033201D1*
X3824683Y1030201D1*
X3825207Y1027201D1*
X3825497Y1024201D1*
X3825730Y1021201D1*
X3826165Y1018201D1*
X3826904Y1015201D1*
X3827680Y1012201D1*
X3828206Y1009201D1*
X3828485Y1006201D1*
X3828613Y1003201D1*
X3828665Y1000201D1*
X3828674Y997201D1*
X3828576Y994201D1*
X3828196Y991201D1*
X3827478Y988201D1*
X3826710Y985201D1*
X3826186Y982201D1*
X3825897Y979201D1*
X3825664Y976201D1*
X3825229Y973201D1*
X3824490Y970201D1*
X3823714Y967201D1*
X3823188Y964201D1*
X3822909Y961201D1*
X3822769Y958201D1*
X3822611Y955201D1*
X3822197Y952201D1*
X3821366Y949201D1*
X3820211Y946201D1*
X3818957Y943201D1*
X3817792Y940201D1*
X3816654Y937201D1*
X3815222Y934201D1*
X3813575Y931201D1*
X3812117Y928201D1*
X3810911Y925201D1*
X3809778Y922201D1*
X3808818Y919201D1*
X3808174Y916201D1*
X3807697Y913201D1*
X3801697D1*
X3799967Y910201D1*
X3797421Y907201D1*
X3793927Y904201D1*
X3789504Y901201D1*
X3783822Y898201D1*
X3775774Y895201D1*
X3764336Y892201D1*
X3750697Y889201D1*
X2157697Y1105201D2*
Y1102201D1*
Y1099201D1*
Y1096201D1*
Y1093201D1*
Y1090201D1*
Y1087201D1*
Y1084201D1*
Y1081201D1*
Y1078201D1*
Y1075201D1*
Y1072201D1*
Y1069201D1*
Y1066201D1*
Y1063201D1*
Y1060201D1*
Y1057201D1*
Y1054201D1*
Y1051201D1*
Y1048201D1*
Y1045201D1*
Y1042201D1*
Y1039201D1*
Y1036201D1*
Y1033201D1*
Y1030201D1*
Y1027201D1*
Y1024201D1*
Y1021201D1*
Y1018201D1*
Y1015201D1*
Y1012201D1*
Y1009201D1*
Y1006201D1*
Y1003201D1*
Y1000201D1*
Y997201D1*
Y994201D1*
Y991201D1*
Y988201D1*
Y985201D1*
Y982201D1*
Y979201D1*
Y976201D1*
Y973201D1*
Y970201D1*
Y967201D1*
Y964201D1*
Y961201D1*
Y958201D1*
Y955201D1*
Y952201D1*
Y949201D1*
Y946201D1*
Y943201D1*
Y940201D1*
Y937201D1*
Y934201D1*
Y931201D1*
Y928201D1*
Y925201D1*
Y922201D1*
Y919201D1*
Y916201D1*
Y913201D1*
Y910201D1*
Y907201D1*
Y904201D1*
Y901201D1*
Y898201D1*
Y895201D1*
Y892201D1*
X2205697Y1105201D2*
Y1102201D1*
Y1099201D1*
Y1096201D1*
Y1093201D1*
Y1090201D1*
Y1087201D1*
Y1084201D1*
Y1081201D1*
Y1078201D1*
Y1075201D1*
Y1072201D1*
Y1069201D1*
Y1066201D1*
Y1063201D1*
Y1060201D1*
Y1057201D1*
Y1054201D1*
Y1051201D1*
Y1048201D1*
Y1045201D1*
Y1042201D1*
Y1039201D1*
Y1036201D1*
Y1033201D1*
Y1030201D1*
Y1027201D1*
Y1024201D1*
Y1021201D1*
Y1018201D1*
X2259697Y1105201D2*
Y1102201D1*
Y1099201D1*
Y1096201D1*
Y1093201D1*
Y1090201D1*
Y1087201D1*
Y1084201D1*
Y1081201D1*
Y1078201D1*
Y1075201D1*
Y1072201D1*
Y1069201D1*
Y1066201D1*
Y1063201D1*
Y1060201D1*
Y1057201D1*
Y1054201D1*
Y1051201D1*
Y1048201D1*
Y1045201D1*
Y1042201D1*
Y1039201D1*
Y1036201D1*
Y1033201D1*
Y1030201D1*
Y1027201D1*
Y1024201D1*
Y1021201D1*
Y1018201D1*
X2307697Y1105201D2*
Y1102201D1*
Y1099201D1*
Y1096201D1*
Y1093201D1*
Y1090201D1*
Y1087201D1*
Y1084201D1*
Y1081201D1*
Y1078201D1*
Y1075201D1*
Y1072201D1*
Y1069201D1*
Y1066201D1*
Y1063201D1*
Y1060201D1*
Y1057201D1*
Y1054201D1*
Y1051201D1*
Y1048201D1*
Y1045201D1*
Y1042201D1*
Y1039201D1*
Y1036201D1*
Y1033201D1*
Y1030201D1*
Y1027201D1*
Y1024201D1*
Y1021201D1*
Y1018201D1*
Y1015201D1*
Y1012201D1*
Y1009201D1*
Y1006201D1*
Y1003201D1*
Y1000201D1*
Y997201D1*
Y994201D1*
Y991201D1*
Y988201D1*
Y985201D1*
Y982201D1*
Y979201D1*
Y976201D1*
Y973201D1*
Y970201D1*
Y967201D1*
Y964201D1*
Y961201D1*
Y958201D1*
Y955201D1*
Y952201D1*
Y949201D1*
Y946201D1*
Y943201D1*
Y940201D1*
Y937201D1*
Y934201D1*
Y931201D1*
Y928201D1*
Y925201D1*
Y922201D1*
Y919201D1*
Y916201D1*
Y913201D1*
Y910201D1*
Y907201D1*
Y904201D1*
Y901201D1*
Y898201D1*
Y895201D1*
Y892201D1*
X2514697Y1105201D2*
Y1102201D1*
Y1099201D1*
Y1096201D1*
Y1093201D1*
Y1090201D1*
Y1087201D1*
Y1084201D1*
Y1081201D1*
Y1078201D1*
Y1075201D1*
Y1072201D1*
X2649697Y1105201D2*
Y1102201D1*
Y1099201D1*
Y1096201D1*
Y1093201D1*
Y1090201D1*
Y1087201D1*
Y1084201D1*
Y1081201D1*
Y1078201D1*
Y1075201D1*
Y1072201D1*
Y1069201D1*
Y1066201D1*
Y1063201D1*
Y1060201D1*
Y1057201D1*
Y1054201D1*
Y1051201D1*
Y1048201D1*
Y1045201D1*
Y1042201D1*
Y1039201D1*
Y1036201D1*
Y1033201D1*
Y1030201D1*
Y1027201D1*
Y1024201D1*
Y1021201D1*
Y1018201D1*
Y1015201D1*
Y1012201D1*
Y1009201D1*
Y1006201D1*
Y1003201D1*
Y1000201D1*
Y997201D1*
Y994201D1*
Y991201D1*
Y988201D1*
Y985201D1*
Y982201D1*
Y979201D1*
Y976201D1*
Y973201D1*
Y970201D1*
Y967201D1*
Y964201D1*
Y961201D1*
Y958201D1*
Y955201D1*
Y952201D1*
Y949201D1*
Y946201D1*
Y943201D1*
Y940201D1*
Y937201D1*
Y934201D1*
Y931201D1*
Y928201D1*
Y925201D1*
Y922201D1*
Y919201D1*
Y916201D1*
Y913201D1*
Y910201D1*
Y907201D1*
Y904201D1*
Y901201D1*
Y898201D1*
Y895201D1*
Y892201D1*
X2667697Y1105201D2*
Y1102201D1*
Y1099201D1*
Y1096201D1*
Y1093201D1*
Y1090201D1*
Y1087201D1*
Y1084201D1*
Y1081201D1*
Y1078201D1*
Y1075201D1*
Y1072201D1*
Y1069201D1*
Y1066201D1*
X2805697Y1105201D2*
Y1102201D1*
Y1099201D1*
Y1096201D1*
Y1093201D1*
Y1090201D1*
Y1087201D1*
Y1084201D1*
Y1081201D1*
Y1078201D1*
Y1075201D1*
Y1072201D1*
Y1069201D1*
Y1066201D1*
X3249697Y1081201D2*
X3244876Y1078201D1*
X3240820Y1075201D1*
X3239221Y1072201D1*
X3238349Y1069201D1*
X3237953Y1066201D1*
X3237792Y1063201D1*
X3237730Y1060201D1*
X3237708Y1057201D1*
X3237700Y1054201D1*
X3237697Y1051201D1*
X3247495Y1048201D1*
X3254301Y1045201D1*
X3259033Y1042201D1*
X3260637Y1039201D1*
X3260740Y1036201D1*
X3260168Y1033201D1*
X3259025Y1030201D1*
X3257445Y1027201D1*
X3255695Y1024201D1*
X3254281Y1021201D1*
X3253428Y1018201D1*
X3252992Y1015201D1*
X3252690Y1012201D1*
X3252151Y1009201D1*
X3251096Y1006201D1*
X3249697Y1003201D1*
X3251082Y1000201D1*
X3251955Y997201D1*
X3252496Y994201D1*
X3253084Y991201D1*
X3253998Y988201D1*
X3255285Y985201D1*
X3256931Y982201D1*
X3258829Y979201D1*
X3260855Y976201D1*
X3263334Y973201D1*
X3266676Y970201D1*
X3270908Y967201D1*
X3275733Y964201D1*
X3280510Y961201D1*
X3284758Y958201D1*
X3288697Y955201D1*
X3249697Y1081201D2*
X3257518Y1078201D1*
X3264027Y1075201D1*
X3269024Y1072201D1*
X3272882Y1069201D1*
X3275804Y1066201D1*
X3278079Y1063201D1*
X3278922Y1060201D1*
X3279488Y1057201D1*
X3280155Y1054201D1*
X3281266Y1051201D1*
X3282697Y1048201D1*
X3741697Y1072201D2*
X3736401Y1069201D1*
X3732042Y1066201D1*
X3728874Y1063201D1*
X3726644Y1060201D1*
X3725069Y1057201D1*
X3723856Y1054201D1*
X3722639Y1051201D1*
X3721317Y1048201D1*
X3720008Y1045201D1*
X3718935Y1042201D1*
X3718275Y1039201D1*
X3717941Y1036201D1*
X3717793Y1033201D1*
X3717732Y1030201D1*
X3717709Y1027201D1*
X3717701Y1024201D1*
X3717698Y1021201D1*
X3717697Y1018201D1*
Y1015201D1*
Y1012201D1*
Y1009201D1*
Y1006201D1*
Y1003201D1*
Y1000201D1*
Y997201D1*
Y994201D1*
Y991201D1*
Y988201D1*
Y985201D1*
Y982201D1*
Y979201D1*
Y976201D1*
Y973201D1*
Y970201D1*
Y967201D1*
X3717709Y964201D1*
X3717814Y961201D1*
X3718208Y958201D1*
X3719032Y955201D1*
X3720184Y952201D1*
X3721437Y949201D1*
X3722590Y946201D1*
X3723634Y943201D1*
X3724813Y940201D1*
X3726342Y937201D1*
X3728599Y934201D1*
X3731860Y931201D1*
X3735697Y928201D1*
X3747697Y1072201D2*
X3753096Y1069201D1*
X3757745Y1066201D1*
X3761355Y1063201D1*
X3764007Y1060201D1*
X3765949Y1057201D1*
X3767292Y1054201D1*
X3768058Y1051201D1*
X3768443Y1048201D1*
X3768711Y1045201D1*
X3769158Y1042201D1*
X3769902Y1039201D1*
X3770679Y1036201D1*
X3771206Y1033201D1*
X3771485Y1030201D1*
X3771613Y1027201D1*
X3771665Y1024201D1*
X3771697Y1021201D1*
X3771810Y1018201D1*
X3772195Y1015201D1*
X3772914Y1012201D1*
X3773684Y1009201D1*
X3774207Y1006201D1*
X3774485Y1003201D1*
X3774613Y1000201D1*
X3774654Y997201D1*
X3774568Y994201D1*
X3774193Y991201D1*
X3773478Y988201D1*
X3772709Y985201D1*
X3772186Y982201D1*
X3771908Y979201D1*
X3771781Y976201D1*
X3771728Y973201D1*
X3771696Y970201D1*
X3771584Y967201D1*
X3771199Y964201D1*
X3770479Y961201D1*
X3769710Y958201D1*
X3769175Y955201D1*
X3768791Y952201D1*
X3768281Y949201D1*
X3767487Y946201D1*
X3766487Y943201D1*
X3765168Y940201D1*
X3763220Y937201D1*
X3760611Y934201D1*
X3757368Y931201D1*
X3753697Y928201D1*
X2403697Y1072201D2*
X2400347Y1069201D1*
X2396988Y1066201D1*
X2393942Y1063201D1*
X2391303Y1060201D1*
X2389047Y1057201D1*
X2387404Y1054201D1*
X2386361Y1051201D1*
X2385521Y1048201D1*
X2384604Y1045201D1*
X2383744Y1042201D1*
X2383085Y1039201D1*
X2382414Y1036201D1*
X2381564Y1033201D1*
X2380734Y1030201D1*
X2380144Y1027201D1*
X2379697Y1024201D1*
X2421697Y1072201D2*
X2425046Y1069201D1*
X2428405Y1066201D1*
X2431451Y1063201D1*
X2434090Y1060201D1*
X2436358Y1057201D1*
X2438095Y1054201D1*
X2439415Y1051201D1*
X2440591Y1048201D1*
X2441559Y1045201D1*
X2442161Y1042201D1*
X2442481Y1039201D1*
X2442724Y1036201D1*
X2443163Y1033201D1*
X2443903Y1030201D1*
X2444680Y1027201D1*
X2445206Y1024201D1*
X2445485Y1021201D1*
X2445613Y1018201D1*
X2445665Y1015201D1*
X2445686Y1012201D1*
X2445693Y1009201D1*
X2445696Y1006201D1*
Y1003201D1*
X2445697Y1000201D1*
Y997201D1*
Y994201D1*
Y991201D1*
Y988201D1*
Y985201D1*
Y982201D1*
Y979201D1*
X2445685Y976201D1*
X2445580Y973201D1*
X2445197Y970201D1*
X2444479Y967201D1*
X2443710Y964201D1*
X2443186Y961201D1*
X2442897Y958201D1*
X2442664Y955201D1*
X2442229Y952201D1*
X2441467Y949201D1*
X2440479Y946201D1*
X2439165Y943201D1*
X2437220Y940201D1*
X2434611Y937201D1*
X2431368Y934201D1*
X2427697Y931201D1*
X2601697Y1072201D2*
Y1069201D1*
Y1066201D1*
Y1063201D1*
Y1060201D1*
Y1057201D1*
Y1054201D1*
Y1051201D1*
Y1048201D1*
Y1045201D1*
Y1042201D1*
Y1039201D1*
Y1036201D1*
Y1033201D1*
Y1030201D1*
Y1027201D1*
Y1024201D1*
Y1021201D1*
Y1018201D1*
X2712697Y1066201D2*
Y1063201D1*
Y1060201D1*
Y1057201D1*
Y1054201D1*
Y1051201D1*
Y1048201D1*
Y1045201D1*
Y1042201D1*
Y1039201D1*
Y1036201D1*
Y1033201D1*
Y1030201D1*
Y1027201D1*
Y1024201D1*
Y1021201D1*
Y1018201D1*
Y1015201D1*
Y1012201D1*
Y1009201D1*
Y1006201D1*
Y1003201D1*
Y1000201D1*
Y997201D1*
Y994201D1*
Y991201D1*
Y988201D1*
Y985201D1*
Y982201D1*
Y979201D1*
Y976201D1*
Y973201D1*
Y970201D1*
Y967201D1*
Y964201D1*
Y961201D1*
Y958201D1*
Y955201D1*
Y952201D1*
Y949201D1*
Y946201D1*
Y943201D1*
Y940201D1*
Y937201D1*
Y934201D1*
Y931201D1*
Y928201D1*
Y925201D1*
Y922201D1*
Y919201D1*
Y916201D1*
Y913201D1*
Y910201D1*
Y907201D1*
Y904201D1*
Y901201D1*
Y898201D1*
Y895201D1*
Y892201D1*
X2760697Y1066201D2*
Y1063201D1*
Y1060201D1*
Y1057201D1*
Y1054201D1*
Y1051201D1*
Y1048201D1*
Y1045201D1*
Y1042201D1*
Y1039201D1*
Y1036201D1*
Y1033201D1*
Y1030201D1*
Y1027201D1*
Y1024201D1*
Y1021201D1*
Y1018201D1*
Y1015201D1*
Y1012201D1*
Y1009201D1*
Y1006201D1*
Y1003201D1*
Y1000201D1*
Y997201D1*
Y994201D1*
Y991201D1*
Y988201D1*
Y985201D1*
Y982201D1*
Y979201D1*
Y976201D1*
Y973201D1*
Y970201D1*
Y967201D1*
Y964201D1*
Y961201D1*
Y958201D1*
Y955201D1*
Y952201D1*
Y949201D1*
Y946201D1*
Y943201D1*
Y940201D1*
Y937201D1*
Y934201D1*
Y931201D1*
Y928201D1*
Y925201D1*
Y922201D1*
Y919201D1*
Y916201D1*
Y913201D1*
Y910201D1*
Y907201D1*
Y904201D1*
Y901201D1*
Y898201D1*
Y895201D1*
Y892201D1*
X3336697Y1057201D2*
X3316006Y1054201D1*
X3298322Y1051201D1*
X3282697Y1048201D1*
X3294697Y1057201D2*
X3315262Y1054201D1*
X3332056Y1051201D1*
X3344316Y1048201D1*
X3352884Y1045201D1*
X3358961Y1042201D1*
X3363557Y1039201D1*
X3367030Y1036201D1*
X3369594Y1033201D1*
X3371600Y1030201D1*
X3373312Y1027201D1*
X3374888Y1024201D1*
X3376311Y1021201D1*
X3377431Y1018201D1*
X3378109Y1015201D1*
X3378449Y1012201D1*
X3378600Y1009201D1*
X3378661Y1006201D1*
X3378672Y1003201D1*
X3378575Y1000201D1*
X3378184Y997201D1*
X3377361Y994201D1*
X3376210Y991201D1*
X3374957Y988201D1*
X3373792Y985201D1*
X3372642Y982201D1*
X3371082Y979201D1*
X3368853Y976201D1*
X3366029Y973201D1*
X3363064Y970201D1*
X3360647Y967201D1*
X3358774Y964201D1*
X3362303Y961201D1*
X3365886Y958201D1*
X3369286Y955201D1*
X3372405Y952201D1*
X3375116Y949201D1*
X3377324Y946201D1*
X3379083Y943201D1*
X3380454Y940201D1*
X3381561Y937201D1*
X3382537Y934201D1*
X3383335Y931201D1*
X3382901Y928201D1*
X3381990Y925201D1*
X3380755Y922201D1*
X3379261Y919201D1*
X3377401Y916201D1*
X3374976Y913201D1*
X3371858Y910201D1*
X3367990Y907201D1*
X3363697Y904201D1*
X3367263Y901201D1*
X3371286Y898201D1*
X3375388Y895201D1*
X3378858Y892201D1*
X3381497Y889201D1*
X3383544Y886201D1*
X3385189Y883201D1*
X3386507Y880201D1*
X3387683Y877201D1*
X3389079Y874201D1*
X3390697Y871201D1*
X3389198Y868201D1*
X3387940Y865201D1*
X3386668Y862201D1*
X3385205Y859201D1*
X3383374Y856201D1*
X3380962Y853201D1*
X3377802Y850201D1*
X3373528Y847201D1*
X3367191Y844201D1*
X3356789Y841201D1*
X3340893Y838201D1*
X3321697Y835201D1*
X2964697Y1054201D2*
X2961233Y1051201D1*
X2957501Y1048201D1*
X2953842Y1045201D1*
X2950804Y1042201D1*
X2948626Y1039201D1*
X2946998Y1036201D1*
X2945355Y1033201D1*
X2943636Y1030201D1*
X2942252Y1027201D1*
X2941416Y1024201D1*
X2940999Y1021201D1*
X2940815Y1018201D1*
X2940740Y1015201D1*
X2940712Y1012201D1*
X2940702Y1009201D1*
X2940699Y1006201D1*
X2940697Y1003201D1*
Y1000201D1*
Y997201D1*
Y994201D1*
Y991201D1*
Y988201D1*
Y985201D1*
Y982201D1*
Y979201D1*
Y976201D1*
Y973201D1*
Y970201D1*
Y967201D1*
Y964201D1*
Y961201D1*
Y958201D1*
Y955201D1*
Y952201D1*
Y949201D1*
Y946201D1*
Y943201D1*
Y940201D1*
Y937201D1*
Y934201D1*
Y931201D1*
Y928201D1*
Y925201D1*
Y922201D1*
Y919201D1*
Y916201D1*
Y913201D1*
Y910201D1*
Y907201D1*
Y904201D1*
Y901201D1*
Y898201D1*
Y895201D1*
Y892201D1*
Y889201D1*
X2997697Y1054201D2*
X3003457Y1051201D1*
X3008582Y1048201D1*
X3012738Y1045201D1*
X3016252Y1042201D1*
X3019497Y1039201D1*
X3022289Y1036201D1*
X3024697Y1033201D1*
Y1054201D2*
Y1051201D1*
Y1048201D1*
Y1045201D1*
Y1042201D1*
Y1039201D1*
Y1036201D1*
Y1033201D1*
X3066697Y1054201D2*
X3068993Y1051201D1*
X3070772Y1048201D1*
X3070751Y1045201D1*
X3070392Y1042201D1*
X3070060Y1039201D1*
X3069861Y1036201D1*
X3069764Y1033201D1*
X3069723Y1030201D1*
X3069706Y1027201D1*
X3069700Y1024201D1*
X3069698Y1021201D1*
X3069697Y1018201D1*
Y1015201D1*
Y1012201D1*
Y1009201D1*
Y1006201D1*
Y1003201D1*
Y1000201D1*
Y997201D1*
Y994201D1*
Y991201D1*
Y988201D1*
Y985201D1*
Y982201D1*
Y979201D1*
Y976201D1*
Y973201D1*
Y970201D1*
Y967201D1*
Y964201D1*
Y961201D1*
Y958201D1*
Y955201D1*
Y952201D1*
Y949201D1*
Y946201D1*
Y943201D1*
Y940201D1*
Y937201D1*
Y934201D1*
Y931201D1*
Y928201D1*
Y925201D1*
Y922201D1*
Y919201D1*
Y916201D1*
Y913201D1*
Y910201D1*
Y907201D1*
Y904201D1*
Y901201D1*
Y898201D1*
Y895201D1*
Y892201D1*
Y889201D1*
X3138697Y1054201D2*
X3135119Y1051201D1*
X3130991Y1048201D1*
X3126495Y1045201D1*
X3122200Y1042201D1*
X3118410Y1039201D1*
X3115110Y1036201D1*
X3112312Y1033201D1*
X3109969Y1030201D1*
X3107828Y1027201D1*
X3105829Y1024201D1*
X3104216Y1021201D1*
X3102947Y1018201D1*
X3101792Y1015201D1*
X3100831Y1012201D1*
X3100219Y1009201D1*
X3099807Y1006201D1*
X3099287Y1003201D1*
X3098512Y1000201D1*
X3097710Y997201D1*
X3097073Y994201D1*
X3096410Y991201D1*
X3095563Y988201D1*
X3094741Y985201D1*
X3094198Y982201D1*
X3093912Y979201D1*
X3093782Y976201D1*
X3093729Y973201D1*
X3093708Y970201D1*
X3093712Y967201D1*
X3093815Y964201D1*
X3094197Y961201D1*
X3094915Y958201D1*
X3095684Y955201D1*
X3096219Y952201D1*
X3096603Y949201D1*
X3097112Y946201D1*
X3097883Y943201D1*
X3098685Y940201D1*
X3099321Y937201D1*
X3099984Y934201D1*
X3100842Y931201D1*
X3101770Y928201D1*
X3102707Y925201D1*
X3103817Y922201D1*
X3105122Y919201D1*
X3106639Y916201D1*
X3108589Y913201D1*
X3111195Y910201D1*
X3114391Y907201D1*
X3117967Y904201D1*
X3121976Y901201D1*
X3126768Y898201D1*
X3133384Y895201D1*
X3142711Y892201D1*
X3153697Y889201D1*
X3186697Y1054201D2*
X3190636Y1051201D1*
X3195229Y1048201D1*
X3200153Y1045201D1*
X3204817Y1042201D1*
X3208761Y1039201D1*
X3211809Y1036201D1*
X3214318Y1033201D1*
X3216569Y1030201D1*
X3218534Y1027201D1*
X3220269Y1024201D1*
X3221866Y1021201D1*
X3223302Y1018201D1*
X3224439Y1015201D1*
X3225224Y1012201D1*
X3225960Y1009201D1*
X3226935Y1006201D1*
X3228148Y1003201D1*
X3229413Y1000201D1*
X3230468Y997201D1*
X3231122Y994201D1*
X3231453Y991201D1*
X3231601Y988201D1*
X3231661Y985201D1*
X3231684Y982201D1*
X3231693Y979201D1*
X3231695Y976201D1*
X3231696Y973201D1*
X3231697Y970201D1*
Y967201D1*
Y964201D1*
Y961201D1*
X3231685Y958201D1*
X3231580Y955201D1*
X3231197Y952201D1*
X3230479Y949201D1*
X3229698Y946201D1*
X3229069Y943201D1*
X3228409Y940201D1*
X3227563Y937201D1*
X3226729Y934201D1*
X3226069Y931201D1*
X3225295Y928201D1*
X3224053Y925201D1*
X3222395Y922201D1*
X3220594Y919201D1*
X3218672Y916201D1*
X3216660Y913201D1*
X3214675Y910201D1*
X3212465Y907201D1*
X3209545Y904201D1*
X3205569Y901201D1*
X3200145Y898201D1*
X3192373Y895201D1*
X3181486Y892201D1*
X3168697Y889201D1*
X3453697Y1054201D2*
X3447811Y1051201D1*
X3442207Y1048201D1*
X3437044Y1045201D1*
X3432312Y1042201D1*
X3428054Y1039201D1*
X3424331Y1036201D1*
X3421074Y1033201D1*
X3418309Y1030201D1*
X3416081Y1027201D1*
X3414314Y1024201D1*
X3412941Y1021201D1*
X3411809Y1018201D1*
X3410622Y1015201D1*
X3409311Y1012201D1*
X3408006Y1009201D1*
X3406934Y1006201D1*
X3406275Y1003201D1*
X3405941Y1000201D1*
X3405793Y997201D1*
X3405721Y994201D1*
X3405583Y991201D1*
X3405112Y988201D1*
X3404083Y985201D1*
X3402697Y982201D1*
X3405697Y979201D1*
X3404312Y976201D1*
X3403450Y973201D1*
X3403014Y970201D1*
X3402821Y967201D1*
X3402740Y964201D1*
X3402697Y961201D1*
X3492697Y1054201D2*
X3496172Y1051201D1*
X3500021Y1048201D1*
X3504180Y1045201D1*
X3508424Y1042201D1*
X3512472Y1039201D1*
X3516111Y1036201D1*
X3519337Y1033201D1*
X3522090Y1030201D1*
X3524326Y1027201D1*
X3526186Y1024201D1*
X3527835Y1021201D1*
X3529303Y1018201D1*
X3530541Y1015201D1*
X3531617Y1012201D1*
X3532783Y1009201D1*
X3534086Y1006201D1*
X3535389Y1003201D1*
X3536460Y1000201D1*
X3537119Y997201D1*
X3537453Y994201D1*
X3537601Y991201D1*
X3537661Y988201D1*
X3537684Y985201D1*
X3537693Y982201D1*
X3537695Y979201D1*
X3537696Y976201D1*
X3537697Y973201D1*
Y970201D1*
Y967201D1*
Y964201D1*
Y961201D1*
Y958201D1*
Y955201D1*
Y952201D1*
X3537685Y949201D1*
X3537580Y946201D1*
X3537186Y943201D1*
X3536362Y940201D1*
X3535210Y937201D1*
X3533957Y934201D1*
X3532792Y931201D1*
X3531654Y928201D1*
X3530210Y925201D1*
X3528470Y922201D1*
X3526723Y919201D1*
X3525063Y916201D1*
X3523381Y913201D1*
X3521445Y910201D1*
X3518989Y907201D1*
X3515824Y904201D1*
X3511719Y901201D1*
X3506450Y898201D1*
X3499572Y895201D1*
X3490723Y892201D1*
X3480697Y889201D1*
X3540697Y1054201D2*
X3543107Y1051201D1*
X3544862Y1048201D1*
X3545866Y1045201D1*
X3546354Y1042201D1*
X3546564Y1039201D1*
X3546648Y1036201D1*
X3546680Y1033201D1*
X3546691Y1030201D1*
X3546695Y1027201D1*
X3546696Y1024201D1*
X3546697Y1021201D1*
Y1018201D1*
Y1015201D1*
Y1012201D1*
X3556725Y1009201D1*
X3564797Y1006201D1*
X3570781Y1003201D1*
X3574979Y1000201D1*
X3577880Y997201D1*
X3580017Y994201D1*
X3581774Y991201D1*
X3583270Y988201D1*
X3584417Y985201D1*
X3585104Y982201D1*
X3585447Y979201D1*
X3585599Y976201D1*
X3585661Y973201D1*
X3585684Y970201D1*
X3585692Y967201D1*
X3585695Y964201D1*
X3585696Y961201D1*
X3585697Y958201D1*
Y955201D1*
Y952201D1*
Y949201D1*
Y946201D1*
Y943201D1*
Y940201D1*
Y937201D1*
Y934201D1*
Y931201D1*
Y928201D1*
Y925201D1*
Y922201D1*
Y919201D1*
Y916201D1*
Y913201D1*
Y910201D1*
Y907201D1*
Y904201D1*
Y901201D1*
Y898201D1*
Y895201D1*
Y892201D1*
Y889201D1*
X3564697Y1054201D2*
X3568160Y1051201D1*
X3571904Y1048201D1*
X3575669Y1045201D1*
X3579089Y1042201D1*
X3581974Y1039201D1*
X3584266Y1036201D1*
X3586061Y1033201D1*
X3587446Y1030201D1*
X3588572Y1027201D1*
X3589682Y1024201D1*
X3590740Y1021201D1*
X3591697Y1018201D1*
Y1054201D2*
Y1051201D1*
Y1048201D1*
Y1045201D1*
Y1042201D1*
Y1039201D1*
Y1036201D1*
Y1033201D1*
Y1030201D1*
Y1027201D1*
Y1024201D1*
Y1021201D1*
Y1018201D1*
X3633697Y1054201D2*
X3634248Y1051201D1*
X3635301Y1048201D1*
X3636697Y1045201D1*
X3635312Y1042201D1*
X3634450Y1039201D1*
X3634014Y1036201D1*
X3633821Y1033201D1*
X3633743Y1030201D1*
X3633713Y1027201D1*
X3633702Y1024201D1*
X3633699Y1021201D1*
X3633697Y1018201D1*
Y1015201D1*
Y1012201D1*
Y1009201D1*
Y1006201D1*
Y1003201D1*
Y1000201D1*
Y997201D1*
Y994201D1*
Y991201D1*
Y988201D1*
Y985201D1*
Y982201D1*
Y979201D1*
Y976201D1*
Y973201D1*
Y970201D1*
Y967201D1*
Y964201D1*
Y961201D1*
Y958201D1*
Y955201D1*
Y952201D1*
Y949201D1*
Y946201D1*
Y943201D1*
Y940201D1*
Y937201D1*
Y934201D1*
Y931201D1*
Y928201D1*
Y925201D1*
Y922201D1*
Y919201D1*
Y916201D1*
Y913201D1*
Y910201D1*
Y907201D1*
Y904201D1*
Y901201D1*
Y898201D1*
Y895201D1*
Y892201D1*
Y889201D1*
X3309697Y1030201D2*
X3307172Y1027201D1*
X3305033Y1024201D1*
X3303309Y1021201D1*
X3302053Y1018201D1*
X3301319Y1015201D1*
X3300957Y1012201D1*
X3300798Y1009201D1*
X3300734Y1006201D1*
X3300710Y1003201D1*
X3300713Y1000201D1*
X3300816Y997201D1*
X3301209Y994201D1*
X3302044Y991201D1*
X3303312Y988201D1*
X3305045Y985201D1*
X3307257Y982201D1*
X3309697Y979201D1*
X3321697Y1030201D2*
X3322837Y1027201D1*
X3324114Y1024201D1*
X3325414Y1021201D1*
X3326582Y1018201D1*
X3327620Y1015201D1*
X3328671Y1012201D1*
X3329577Y1009201D1*
X3330055Y1006201D1*
X3329973Y1003201D1*
X3329379Y1000201D1*
X3328560Y997201D1*
X3327663Y994201D1*
X3326569Y991201D1*
X3325291Y988201D1*
X3323970Y985201D1*
X3322762Y982201D1*
X3321697Y979201D1*
X3462697Y1024201D2*
X3458787Y1021201D1*
X3455775Y1018201D1*
X3453510Y1015201D1*
X3451678Y1012201D1*
X3450147Y1009201D1*
X3448986Y1006201D1*
X3448293Y1003201D1*
X3447947Y1000201D1*
X3447795Y997201D1*
X3447731Y994201D1*
X3447697Y991201D1*
X3474697Y1024201D2*
X3478504Y1021201D1*
X3481225Y1018201D1*
X3483060Y1015201D1*
X3484565Y1012201D1*
X3486005Y1009201D1*
X3487361Y1006201D1*
X3488450Y1003201D1*
X3489116Y1000201D1*
X3489452Y997201D1*
X3489607Y994201D1*
X3489697Y991201D1*
X3156697Y1021201D2*
X3153813Y1018201D1*
X3151705Y1015201D1*
X3150114Y1012201D1*
X3148958Y1009201D1*
X3148278Y1006201D1*
X3147941Y1003201D1*
X3147780Y1000201D1*
X3147615Y997201D1*
X3147222Y994201D1*
X3146609Y991201D1*
X3146030Y988201D1*
X3146683Y985201D1*
X3147697Y982201D1*
X3146312Y979201D1*
X3145450Y976201D1*
X3145014Y973201D1*
X3144821Y970201D1*
X3144743Y967201D1*
X3144725Y964201D1*
X3144820Y961201D1*
X3145198Y958201D1*
X3145915Y955201D1*
X3146684Y952201D1*
X3147207Y949201D1*
X3147485Y946201D1*
X3147613Y943201D1*
X3147677Y940201D1*
X3147803Y937201D1*
X3148204Y934201D1*
X3149066Y931201D1*
X3150563Y928201D1*
X3152659Y925201D1*
X3157346Y922201D1*
X3162697Y919201D1*
X3168697Y1021201D2*
X3172133Y1018201D1*
X3175163Y1015201D1*
X3176461Y1012201D1*
X3177276Y1009201D1*
X3177983Y1006201D1*
X3178836Y1003201D1*
X3179656Y1000201D1*
X3180198Y997201D1*
X3180482Y994201D1*
X3180612Y991201D1*
X3180665Y988201D1*
X3180697Y985201D1*
X3180810Y982201D1*
X3181183Y979201D1*
X3181797Y976201D1*
X3182184Y973201D1*
X3181989Y970201D1*
X3181498Y967201D1*
X3181102Y964201D1*
X3180877Y961201D1*
X3180770Y958201D1*
X3180724Y955201D1*
X3180695Y952201D1*
X3180583Y949201D1*
X3180198Y946201D1*
X3179479Y943201D1*
X3178710Y940201D1*
X3178175Y937201D1*
X3177779Y934201D1*
X3177141Y931201D1*
X3176104Y928201D1*
X3173375Y925201D1*
X3169790Y922201D1*
X3165697Y919201D1*
X2532697Y1018201D2*
Y1015201D1*
Y1012201D1*
Y1009201D1*
Y1006201D1*
Y1003201D1*
Y1000201D1*
Y997201D1*
Y994201D1*
Y991201D1*
Y988201D1*
Y985201D1*
X2994697Y1018201D2*
X2992848Y1015201D1*
X2991243Y1012201D1*
X2990030Y1009201D1*
X2989311Y1006201D1*
X2988954Y1003201D1*
X2988797Y1000201D1*
X2988734Y997201D1*
X2988710Y994201D1*
X2988701Y991201D1*
X2988698Y988201D1*
X2988697Y985201D1*
Y982201D1*
Y979201D1*
Y976201D1*
Y973201D1*
Y970201D1*
Y967201D1*
Y964201D1*
Y961201D1*
Y958201D1*
Y955201D1*
Y952201D1*
Y949201D1*
Y946201D1*
Y943201D1*
Y940201D1*
Y937201D1*
Y934201D1*
Y931201D1*
Y928201D1*
Y925201D1*
Y922201D1*
Y919201D1*
Y916201D1*
Y913201D1*
Y910201D1*
Y907201D1*
Y904201D1*
Y901201D1*
Y898201D1*
Y895201D1*
Y892201D1*
Y889201D1*
X3012697Y1018201D2*
X3015107Y1015201D1*
X3016873Y1012201D1*
X3017984Y1009201D1*
X3018853Y1006201D1*
X3019782Y1003201D1*
X3020636Y1000201D1*
X3021190Y997201D1*
X3021480Y994201D1*
X3021611Y991201D1*
X3021665Y988201D1*
X3021685Y985201D1*
X3021693Y982201D1*
X3021696Y979201D1*
Y976201D1*
X3021697Y973201D1*
Y970201D1*
Y967201D1*
Y964201D1*
Y961201D1*
Y958201D1*
Y955201D1*
Y952201D1*
Y949201D1*
Y946201D1*
Y943201D1*
Y940201D1*
Y937201D1*
Y934201D1*
Y931201D1*
Y928201D1*
Y925201D1*
Y922201D1*
Y919201D1*
Y916201D1*
Y913201D1*
Y910201D1*
Y907201D1*
Y904201D1*
Y901201D1*
Y898201D1*
Y895201D1*
Y892201D1*
Y889201D1*
X2601697Y985201D2*
Y982201D1*
Y979201D1*
Y976201D1*
Y973201D1*
Y970201D1*
Y967201D1*
Y964201D1*
Y961201D1*
Y958201D1*
Y955201D1*
Y952201D1*
Y949201D1*
Y946201D1*
Y943201D1*
Y940201D1*
Y937201D1*
Y934201D1*
Y931201D1*
Y928201D1*
X2205697Y979201D2*
Y976201D1*
Y973201D1*
Y970201D1*
Y967201D1*
Y964201D1*
Y961201D1*
Y958201D1*
Y955201D1*
Y952201D1*
Y949201D1*
Y946201D1*
Y943201D1*
Y940201D1*
Y937201D1*
Y934201D1*
Y931201D1*
Y928201D1*
Y925201D1*
Y922201D1*
Y919201D1*
Y916201D1*
Y913201D1*
Y910201D1*
Y907201D1*
Y904201D1*
Y901201D1*
Y898201D1*
Y895201D1*
Y892201D1*
X2259697Y979201D2*
Y976201D1*
Y973201D1*
Y970201D1*
Y967201D1*
Y964201D1*
Y961201D1*
Y958201D1*
Y955201D1*
Y952201D1*
Y949201D1*
Y946201D1*
Y943201D1*
Y940201D1*
Y937201D1*
Y934201D1*
Y931201D1*
Y928201D1*
Y925201D1*
Y922201D1*
Y919201D1*
Y916201D1*
Y913201D1*
Y910201D1*
Y907201D1*
Y904201D1*
Y901201D1*
Y898201D1*
Y895201D1*
Y892201D1*
X2367697Y970201D2*
X2337697Y967201D1*
Y964201D1*
Y961201D1*
Y958201D1*
X2337709Y955201D1*
X2337826Y952201D1*
X2338314Y949201D1*
X2339414Y946201D1*
X2340902Y943201D1*
X2342206Y940201D1*
X2343125Y937201D1*
X2344018Y934201D1*
X2345310Y931201D1*
X2346976Y928201D1*
X2348691Y925201D1*
X2350338Y922201D1*
X2352015Y919201D1*
X2353938Y916201D1*
X2356288Y913201D1*
X2359047Y910201D1*
X2362199Y907201D1*
X2365697Y904201D1*
X2369618Y901201D1*
X2374415Y898201D1*
X2380390Y895201D1*
X2387309Y892201D1*
X2394697Y889201D1*
X2379697Y970201D2*
X2380160Y967201D1*
X2380916Y964201D1*
X2381798Y961201D1*
X2382706Y958201D1*
X2383715Y955201D1*
X2384729Y952201D1*
X2385792Y949201D1*
X2387203Y946201D1*
X2388943Y943201D1*
X2390790Y940201D1*
X2392822Y937201D1*
X2395175Y934201D1*
X2397697Y931201D1*
X3489697Y961201D2*
Y958201D1*
Y955201D1*
Y952201D1*
Y949201D1*
X3489685Y946201D1*
X3489580Y943201D1*
X3489186Y940201D1*
X3488362Y937201D1*
X3487198Y934201D1*
X3485816Y931201D1*
X3484041Y928201D1*
X3481789Y925201D1*
X3477070Y922201D1*
X3471697Y919201D1*
X3336697Y955201D2*
X3339467Y952201D1*
X3341518Y949201D1*
X3342022Y946201D1*
X3342246Y943201D1*
X3335716Y940201D1*
X3324164Y937201D1*
X3307579Y934201D1*
X3288697Y931201D1*
X3399697Y946201D2*
X3402107Y943201D1*
X3403873Y940201D1*
X3404984Y937201D1*
X3405865Y934201D1*
X3406900Y931201D1*
X3408135Y928201D1*
X3409420Y925201D1*
X3410584Y922201D1*
X3411644Y919201D1*
X3412917Y916201D1*
X3414716Y913201D1*
X3417248Y910201D1*
X3420411Y907201D1*
X3423974Y904201D1*
X3427979Y901201D1*
X3432768Y898201D1*
X3439385Y895201D1*
X3448711Y892201D1*
X3459697Y889201D1*
X3447697Y946201D2*
X3447709Y943201D1*
X3447826Y940201D1*
X3448314Y937201D1*
X3449426Y934201D1*
X3451054Y931201D1*
X3453074Y928201D1*
X3456013Y925201D1*
X3460409Y922201D1*
X3465697Y919201D1*
X3300697Y934201D2*
X3285067Y931201D1*
X3272166Y928201D1*
X3262647Y925201D1*
X3255916Y922201D1*
X3251072Y919201D1*
X3247364Y916201D1*
X3244514Y913201D1*
X3242498Y910201D1*
X3241056Y907201D1*
X3239831Y904201D1*
X3238845Y901201D1*
X3238236Y898201D1*
X3237926Y895201D1*
X3237787Y892201D1*
X3237730Y889201D1*
X3237720Y886201D1*
X3237818Y883201D1*
X3238198Y880201D1*
X3238927Y877201D1*
X3239801Y874201D1*
X3240719Y871201D1*
X3241832Y868201D1*
X3243228Y865201D1*
X3245022Y862201D1*
X3247308Y859201D1*
X3249965Y856201D1*
X3252937Y853201D1*
X3256491Y850201D1*
X3261278Y847201D1*
X3268389Y844201D1*
X3279589Y841201D1*
X3296060Y838201D1*
X3315697Y835201D1*
X2514697Y928201D2*
Y925201D1*
Y922201D1*
Y919201D1*
Y916201D1*
Y913201D1*
Y910201D1*
Y907201D1*
Y904201D1*
Y901201D1*
Y898201D1*
Y895201D1*
Y892201D1*
X3330697Y898201D2*
Y895201D1*
X3336697Y898201D2*
X3339930Y895201D1*
X3342409Y892201D1*
X3344172Y889201D1*
X3345550Y886201D1*
X3347032Y883201D1*
X3348697Y880201D1*
X3347174Y877201D1*
X3345697Y874201D1*
X3343589Y871201D1*
X3340444Y868201D1*
X3336697Y865201D1*
X3288697Y895201D2*
X3286172Y892201D1*
X3284033Y889201D1*
X3282309Y886201D1*
X3281065Y883201D1*
X3280436Y880201D1*
X3280238Y877201D1*
X3281331Y874201D1*
X3282979Y871201D1*
X3286989Y868201D1*
X3291697Y865201D1*
X3875627Y3122480D2*
D81*
Y3082288D1*
X3848832Y3122480D2*
X3875627Y3095686D1*
X3866076Y3105280D2*
X3848832Y3082288D1*
X3834580Y3086135D2*
X3836481Y3084190D1*
X3834580Y3082288D1*
X3832634Y3084190D1*
X3834580Y3086135D1*
X3781402Y3101434D2*
X3764158D1*
X3758454Y3103335D1*
X3756509Y3105280D1*
X3754607Y3109083D1*
Y3114831D1*
X3756509Y3118634D1*
X3758454Y3120579D1*
X3764158Y3122480D1*
X3781402D1*
Y3082288D1*
X3742256Y3122480D2*
X3740355Y3120579D1*
X3738409Y3122480D1*
X3740355Y3124426D1*
X3742256Y3122480D1*
X3740355Y3109083D2*
Y3082288D1*
X3726058Y3109083D2*
Y3082288D1*
Y3101434D2*
X3720310Y3107182D1*
X3716463Y3109083D1*
X3710759D1*
X3706912Y3107182D1*
X3705011Y3101434D1*
Y3082288D1*
X3686912Y3122480D2*
Y3089938D1*
X3685010Y3084234D1*
X3681164Y3082288D1*
X3677361D1*
X3692660Y3109083D2*
X3679262D1*
X3655459D2*
X3659262Y3107182D1*
X3663108Y3103335D1*
X3665010Y3097587D1*
Y3093784D1*
X3663108Y3088036D1*
X3659262Y3084234D1*
X3655459Y3082288D1*
X3649711D1*
X3645864Y3084234D1*
X3642062Y3088036D1*
X3640116Y3093784D1*
Y3097587D1*
X3642062Y3103335D1*
X3645864Y3107182D1*
X3649711Y3109083D1*
X3655459D1*
X3627765D2*
Y3082288D1*
Y3101434D2*
X3622017Y3107182D1*
X3618170Y3109083D1*
X3612466D1*
X3608620Y3107182D1*
X3606718Y3101434D1*
Y3082288D1*
X3571419Y3107182D2*
Y3076540D1*
X3573320Y3070836D1*
X3575221Y3068891D1*
X3579068Y3066990D1*
X3584816D1*
X3588619Y3068891D1*
X3571419Y3101434D2*
X3575221Y3105236D1*
X3579068Y3107182D1*
X3584816D1*
X3588619Y3105236D1*
X3592466Y3101434D1*
X3594367Y3095686D1*
Y3091839D1*
X3592466Y3086135D1*
X3588619Y3082288D1*
X3584816Y3080387D1*
X3579068D1*
X3575221Y3082288D1*
X3571419Y3086135D1*
X3518241Y3112886D2*
Y3114787D1*
X3516340Y3118634D1*
X3514439Y3120535D1*
X3510592Y3122436D1*
X3502943D1*
X3499140Y3120535D1*
X3497239Y3118634D1*
X3495293Y3114787D1*
Y3110984D1*
X3497239Y3107137D1*
X3501041Y3101434D1*
X3520187Y3082288D1*
X3493392D1*
X3469545Y3122436D2*
X3475293Y3120535D1*
X3479139Y3114787D1*
X3481041Y3105236D1*
Y3099488D1*
X3479139Y3089938D1*
X3475293Y3084190D1*
X3469545Y3082288D1*
X3465742D1*
X3459994Y3084190D1*
X3456192Y3089938D1*
X3454246Y3099488D1*
Y3105236D1*
X3456192Y3114787D1*
X3459994Y3120535D1*
X3465742Y3122436D1*
X3469545D1*
X3456192Y3114787D2*
X3479139Y3089938D1*
X3441895Y3114787D2*
X3438048Y3116732D1*
X3432300Y3122436D1*
Y3082288D1*
X3395055Y3109083D2*
X3397001Y3103335D1*
X3400803Y3099488D1*
X3406551Y3097587D1*
X3408452D1*
X3414200Y3099488D1*
X3418003Y3103335D1*
X3419948Y3109083D1*
Y3110984D1*
X3418003Y3116732D1*
X3414200Y3120535D1*
X3408452Y3122436D1*
X3406551D1*
X3400803Y3120535D1*
X3397001Y3116732D1*
X3395055Y3109083D1*
Y3099488D1*
X3397001Y3089938D1*
X3400803Y3084190D1*
X3406551Y3082288D1*
X3410354D1*
X3416102Y3084190D1*
X3418003Y3088036D1*
X3396145Y2862374D2*
X3386550Y2822182D1*
X3376999Y2862374D1*
X3367449Y2822182D1*
X3357854Y2862374D1*
X3322555Y2848977D2*
Y2822182D1*
Y2843229D2*
X3326357Y2847075D1*
X3330204Y2848977D1*
X3335908D1*
X3339754Y2847075D1*
X3343557Y2843229D1*
X3345503Y2837481D1*
Y2833678D1*
X3343557Y2827930D1*
X3339754Y2824127D1*
X3335908Y2822182D1*
X3330204D1*
X3326357Y2824127D1*
X3322555Y2827930D1*
X3310203Y2848977D2*
Y2822182D1*
Y2837481D2*
X3308258Y2843229D1*
X3304455Y2847075D1*
X3300608Y2848977D1*
X3294860D1*
X3282509D2*
Y2822182D1*
Y2841327D2*
X3276761Y2847075D1*
X3272914Y2848977D1*
X3267210D1*
X3263364Y2847075D1*
X3261462Y2841327D1*
Y2822182D1*
X3249111Y2862374D2*
X3247210Y2860473D1*
X3245264Y2862374D1*
X3247210Y2864319D1*
X3249111Y2862374D1*
X3247210Y2848977D2*
Y2822182D1*
X3232913Y2848977D2*
Y2822182D1*
Y2841327D2*
X3227165Y2847075D1*
X3223318Y2848977D1*
X3217614D1*
X3213767Y2847075D1*
X3211866Y2841327D1*
Y2822182D1*
X3176567Y2847075D2*
Y2816434D1*
X3178468Y2810730D1*
X3180369Y2808785D1*
X3184216Y2806883D1*
X3189964D1*
X3193767Y2808785D1*
X3176567Y2841327D2*
X3180369Y2845130D1*
X3184216Y2847075D1*
X3189964D1*
X3193767Y2845130D1*
X3197613Y2841327D1*
X3199515Y2835579D1*
Y2831733D1*
X3197613Y2826029D1*
X3193767Y2822182D1*
X3189964Y2820281D1*
X3184216D1*
X3180369Y2822182D1*
X3176567Y2826029D1*
X3162270Y2862330D2*
Y2835579D1*
Y2826029D2*
X3164215Y2824083D1*
X3162270Y2822182D1*
X3160369Y2824083D1*
X3162270Y2826029D1*
X3363172Y2793458D2*
Y2753266D1*
X3389967Y2793458D1*
Y2753266D1*
X3341270Y2780061D2*
X3345073Y2778159D1*
X3348919Y2774313D1*
X3350821Y2768565D1*
Y2764762D1*
X3348919Y2759014D1*
X3345073Y2755211D1*
X3341270Y2753266D1*
X3335522D1*
X3331675Y2755211D1*
X3327873Y2759014D1*
X3325927Y2764762D1*
Y2768565D1*
X3327873Y2774313D1*
X3331675Y2778159D1*
X3335522Y2780061D1*
X3341270D1*
X3307828Y2793458D2*
Y2760915D1*
X3305927Y2755211D1*
X3302080Y2753266D1*
X3298277D1*
X3313576Y2780061D2*
X3300179D1*
X3247045D2*
Y2753266D1*
Y2768565D2*
X3245100Y2774313D1*
X3241297Y2778159D1*
X3237450Y2780061D1*
X3231702D1*
X3219351Y2768565D2*
X3196403D1*
Y2772411D1*
X3198304Y2776258D1*
X3200206Y2778159D1*
X3204052Y2780061D1*
X3209800D1*
X3213603Y2778159D1*
X3217450Y2774313D1*
X3219351Y2768565D1*
Y2764762D1*
X3217450Y2759014D1*
X3213603Y2755211D1*
X3209800Y2753266D1*
X3204052D1*
X3200206Y2755211D1*
X3196403Y2759014D1*
X3163005Y2774313D2*
X3164906Y2778159D1*
X3170654Y2780061D1*
X3176402D1*
X3182150Y2778159D1*
X3184052Y2774313D1*
X3182150Y2770510D1*
X3178304Y2768565D1*
X3168753Y2766663D1*
X3164906Y2764762D1*
X3163005Y2760915D1*
Y2759014D1*
X3164906Y2755211D1*
X3170654Y2753266D1*
X3176402D1*
X3182150Y2755211D1*
X3184052Y2759014D1*
X3150654Y2780061D2*
Y2739869D1*
Y2774313D2*
X3146807Y2778115D1*
X3143004Y2780061D1*
X3137256D1*
X3133409Y2778115D1*
X3129607Y2774313D1*
X3127661Y2768565D1*
Y2764718D1*
X3129607Y2759014D1*
X3133409Y2755167D1*
X3137256Y2753266D1*
X3143004D1*
X3146807Y2755167D1*
X3150654Y2759014D1*
X3105759Y2780061D2*
X3109562Y2778159D1*
X3113409Y2774313D1*
X3115310Y2768565D1*
Y2764762D1*
X3113409Y2759014D1*
X3109562Y2755211D1*
X3105759Y2753266D1*
X3100011D1*
X3096165Y2755211D1*
X3092362Y2759014D1*
X3090417Y2764762D1*
Y2768565D1*
X3092362Y2774313D1*
X3096165Y2778159D1*
X3100011Y2780061D1*
X3105759D1*
X3078065D2*
Y2753266D1*
Y2772411D2*
X3072317Y2778159D1*
X3068470Y2780061D1*
X3062767D1*
X3058920Y2778159D1*
X3057019Y2772411D1*
Y2753266D1*
X3023621Y2774313D2*
X3025522Y2778159D1*
X3031270Y2780061D1*
X3037018D1*
X3042766Y2778159D1*
X3044667Y2774313D1*
X3042766Y2770510D1*
X3038919Y2768565D1*
X3029369Y2766663D1*
X3025522Y2764762D1*
X3023621Y2760915D1*
Y2759014D1*
X3025522Y2755211D1*
X3031270Y2753266D1*
X3037018D1*
X3042766Y2755211D1*
X3044667Y2759014D1*
X3011269Y2793458D2*
X3009368Y2791557D1*
X3007422Y2793458D1*
X3009368Y2795403D1*
X3011269Y2793458D1*
X3009368Y2780061D2*
Y2753266D1*
X2995071Y2793458D2*
Y2753266D1*
Y2774313D2*
X2991224Y2778159D1*
X2987422Y2780061D1*
X2981674D1*
X2977871Y2778159D1*
X2974024Y2774313D1*
X2972123Y2768565D1*
Y2764762D1*
X2974024Y2759014D1*
X2977871Y2755211D1*
X2981674Y2753266D1*
X2987422D1*
X2991224Y2755211D1*
X2995071Y2759014D1*
X2959772Y2793458D2*
Y2753266D1*
X2947420Y2768565D2*
X2924472D1*
Y2772411D1*
X2926374Y2776258D1*
X2928275Y2778159D1*
X2932122Y2780061D1*
X2937870D1*
X2941672Y2778159D1*
X2945519Y2774313D1*
X2947420Y2768565D1*
Y2764762D1*
X2945519Y2759014D1*
X2941672Y2755211D1*
X2937870Y2753266D1*
X2932122D1*
X2928275Y2755211D1*
X2924472Y2759014D1*
X3371434Y2716997D2*
X3375236D1*
X3379083Y2715096D1*
X3380984Y2709348D1*
Y2676805D1*
X3386732Y2703600D2*
X3373335D1*
X3349532D2*
X3353334Y2701699D1*
X3357181Y2697852D1*
X3359082Y2692104D1*
Y2688301D1*
X3357181Y2682553D1*
X3353334Y2678751D1*
X3349532Y2676805D1*
X3343784D1*
X3339937Y2678751D1*
X3336134Y2682553D1*
X3334189Y2688301D1*
Y2692104D1*
X3336134Y2697852D1*
X3339937Y2701699D1*
X3343784Y2703600D1*
X3349532D1*
X3321838D2*
Y2676805D1*
Y2692104D2*
X3319892Y2697852D1*
X3316090Y2701699D1*
X3312243Y2703600D1*
X3306495D1*
X3232315Y2716997D2*
Y2676805D1*
Y2697852D2*
X3236117Y2701699D1*
X3239964Y2703600D1*
X3245712D1*
X3249515Y2701699D1*
X3253361Y2697852D1*
X3255263Y2692104D1*
Y2688301D1*
X3253361Y2682553D1*
X3249515Y2678751D1*
X3245712Y2676805D1*
X3239964D1*
X3236117Y2678751D1*
X3232315Y2682553D1*
X3197015Y2703600D2*
Y2676805D1*
Y2697852D2*
X3200818Y2701699D1*
X3204665Y2703600D1*
X3210368D1*
X3214215Y2701699D1*
X3218018Y2697852D1*
X3219963Y2692104D1*
Y2688301D1*
X3218018Y2682553D1*
X3214215Y2678751D1*
X3210368Y2676805D1*
X3204665D1*
X3200818Y2678751D1*
X3197015Y2682553D1*
X3184664Y2703600D2*
Y2676805D1*
Y2695951D2*
X3178916Y2701699D1*
X3175069Y2703600D1*
X3169365D1*
X3165519Y2701699D1*
X3163617Y2695951D1*
Y2676805D1*
Y2695951D2*
X3157869Y2701699D1*
X3154022Y2703600D1*
X3148319D1*
X3144472Y2701699D1*
X3142526Y2695951D1*
Y2676805D1*
X3107227Y2703600D2*
Y2676805D1*
Y2697852D2*
X3111030Y2701699D1*
X3114876Y2703600D1*
X3120580D1*
X3124427Y2701699D1*
X3128230Y2697852D1*
X3130175Y2692104D1*
Y2688301D1*
X3128230Y2682553D1*
X3124427Y2678751D1*
X3120580Y2676805D1*
X3114876D1*
X3111030Y2678751D1*
X3107227Y2682553D1*
X3071928Y2701699D2*
Y2671057D1*
X3073829Y2665353D1*
X3075730Y2663408D1*
X3079577Y2661507D1*
X3085325D1*
X3089128Y2663408D1*
X3071928Y2695951D2*
X3075730Y2699753D1*
X3079577Y2701699D1*
X3085325D1*
X3089128Y2699753D1*
X3092974Y2695951D1*
X3094876Y2690203D1*
Y2686356D1*
X3092974Y2680652D1*
X3089128Y2676805D1*
X3085325Y2674904D1*
X3079577D1*
X3075730Y2676805D1*
X3071928Y2680652D1*
X3059576Y2692104D2*
X3036629D1*
Y2695951D1*
X3038530Y2699797D1*
X3040431Y2701699D1*
X3044278Y2703600D1*
X3050026D1*
X3053828Y2701699D1*
X3057675Y2697852D1*
X3059576Y2692104D1*
Y2688301D1*
X3057675Y2682553D1*
X3053828Y2678751D1*
X3050026Y2676805D1*
X3044278D1*
X3040431Y2678751D1*
X3036629Y2682553D1*
X2979648Y2716997D2*
Y2684455D1*
X2977747Y2678751D1*
X2973900Y2676805D1*
X2970098D1*
X2985396Y2703600D2*
X2971999D1*
X2948196D2*
X2951998Y2701699D1*
X2955845Y2697852D1*
X2957746Y2692104D1*
Y2688301D1*
X2955845Y2682553D1*
X2951998Y2678751D1*
X2948196Y2676805D1*
X2942448D1*
X2938601Y2678751D1*
X2934798Y2682553D1*
X2932853Y2688301D1*
Y2692104D1*
X2934798Y2697852D1*
X2938601Y2701699D1*
X2942448Y2703600D1*
X2948196D1*
X3381180Y2639561D2*
X3369729Y2612766D1*
X3373531Y2605117D1*
X3377378Y2601270D1*
X3381180Y2599369D1*
X3383126D1*
X3358233Y2639561D2*
X3369729Y2612766D1*
X3336331Y2639561D2*
X3340133Y2637659D1*
X3343980Y2633813D1*
X3345881Y2628065D1*
Y2624262D1*
X3343980Y2618514D1*
X3340133Y2614711D1*
X3336331Y2612766D1*
X3330583D1*
X3326736Y2614711D1*
X3322933Y2618514D1*
X3320988Y2624262D1*
Y2628065D1*
X3322933Y2633813D1*
X3326736Y2637659D1*
X3330583Y2639561D1*
X3336331D1*
X3308636D2*
Y2620415D1*
X3306735Y2614711D1*
X3302888Y2612766D1*
X3297140D1*
X3293338Y2614711D1*
X3287590Y2620415D1*
Y2639561D2*
Y2612766D1*
X3275238Y2639561D2*
Y2612766D1*
Y2628065D2*
X3273293Y2633813D1*
X3269490Y2637659D1*
X3265644Y2639561D1*
X3259895D1*
X3185671Y2633813D2*
X3189518Y2637659D1*
X3193365Y2639561D1*
X3199069D1*
X3202915Y2637659D1*
X3206718Y2633813D1*
X3208663Y2628065D1*
Y2624262D1*
X3206718Y2618514D1*
X3202915Y2614711D1*
X3199069Y2612766D1*
X3193365D1*
X3189518Y2614711D1*
X3185671Y2618514D1*
X3163769Y2639561D2*
X3167572Y2637659D1*
X3171419Y2633813D1*
X3173320Y2628065D1*
Y2624262D1*
X3171419Y2618514D1*
X3167572Y2614711D1*
X3163769Y2612766D1*
X3158021D1*
X3154174Y2614711D1*
X3150372Y2618514D1*
X3148426Y2624262D1*
Y2628065D1*
X3150372Y2633813D1*
X3154174Y2637659D1*
X3158021Y2639561D1*
X3163769D1*
X3136075D2*
Y2612766D1*
Y2631911D2*
X3130327Y2637659D1*
X3126480Y2639561D1*
X3120776D1*
X3116930Y2637659D1*
X3115028Y2631911D1*
Y2612766D1*
Y2631911D2*
X3109280Y2637659D1*
X3105434Y2639561D1*
X3099730D1*
X3095883Y2637659D1*
X3093938Y2631911D1*
Y2612766D1*
X3081586Y2639561D2*
Y2599369D1*
Y2633813D2*
X3077739Y2637615D1*
X3073937Y2639561D1*
X3068189D1*
X3064342Y2637615D1*
X3060539Y2633813D1*
X3058594Y2628065D1*
Y2624218D1*
X3060539Y2618514D1*
X3064342Y2614667D1*
X3068189Y2612766D1*
X3073937D1*
X3077739Y2614667D1*
X3081586Y2618514D1*
X3046243Y2639561D2*
Y2620415D1*
X3044341Y2614711D1*
X3040495Y2612766D1*
X3034747D1*
X3030944Y2614711D1*
X3025196Y2620415D1*
Y2639561D2*
Y2612766D1*
X3007097Y2652958D2*
Y2620415D1*
X3005195Y2614711D1*
X3001348Y2612766D1*
X2997546D1*
X3012845Y2639561D2*
X2999447D1*
X2985195Y2628065D2*
X2962247D1*
Y2631911D1*
X2964148Y2635758D1*
X2966049Y2637659D1*
X2969896Y2639561D1*
X2975644D1*
X2979447Y2637659D1*
X2983293Y2633813D1*
X2985195Y2628065D1*
Y2624262D1*
X2983293Y2618514D1*
X2979447Y2614711D1*
X2975644Y2612766D1*
X2969896D1*
X2966049Y2614711D1*
X2962247Y2618514D1*
X2949895Y2639561D2*
Y2612766D1*
Y2628065D2*
X2947950Y2633813D1*
X2944147Y2637659D1*
X2940300Y2639561D1*
X2934552D1*
X3617738Y2335858D2*
D86*
X3596238D1*
X3589053Y2338289D1*
X3586622Y2340666D1*
X3584245Y2345419D1*
Y2350228D1*
X3586622Y2354981D1*
X3589053Y2357413D1*
X3596238Y2359789D1*
X3617738D1*
Y2309549D1*
X3600992Y2335858D2*
X3584245Y2309549D1*
X3568806Y2328673D2*
X3540121D1*
Y2333481D1*
X3542497Y2338289D1*
X3544874Y2340666D1*
X3549682Y2343043D1*
X3556867D1*
X3561621Y2340666D1*
X3566429Y2335858D1*
X3568806Y2328673D1*
Y2323919D1*
X3566429Y2316734D1*
X3561621Y2311981D1*
X3556867Y2309549D1*
X3549682D1*
X3544874Y2311981D1*
X3540121Y2316734D1*
X3495997Y2343043D2*
Y2309549D1*
Y2335858D2*
X3500750Y2340666D1*
X3505558Y2343043D1*
X3512688D1*
X3517497Y2340666D1*
X3522250Y2335858D1*
X3524682Y2328673D1*
Y2323919D1*
X3522250Y2316734D1*
X3517497Y2311981D1*
X3512688Y2309549D1*
X3505558D1*
X3500750Y2311981D1*
X3495997Y2316734D1*
X3451873Y2359789D2*
Y2309549D1*
Y2335858D2*
X3456626Y2340666D1*
X3461434Y2343043D1*
X3468619D1*
X3473372Y2340666D1*
X3478181Y2335858D1*
X3480557Y2328673D1*
Y2323919D1*
X3478181Y2316734D1*
X3473372Y2311981D1*
X3468619Y2309549D1*
X3461434D1*
X3456626Y2311981D1*
X3451873Y2316734D1*
X3387832Y2359789D2*
X3385456Y2357413D1*
X3383024Y2359789D1*
X3385456Y2362221D1*
X3387832Y2359789D1*
X3385456Y2343043D2*
Y2309549D1*
X3367585Y2343043D2*
Y2309549D1*
Y2333481D2*
X3360400Y2340666D1*
X3355591Y2343043D1*
X3348461D1*
X3343653Y2340666D1*
X3341276Y2333481D1*
Y2309549D1*
X3299529Y2335858D2*
X3301905Y2340666D1*
X3309090Y2343043D1*
X3316275D1*
X3323460Y2340666D1*
X3325837Y2335858D1*
X3323460Y2331104D1*
X3318652Y2328673D1*
X3306714Y2326296D1*
X3301905Y2323919D1*
X3299529Y2319111D1*
Y2316734D1*
X3301905Y2311981D1*
X3309090Y2309549D1*
X3316275D1*
X3323460Y2311981D1*
X3325837Y2316734D1*
X3276904Y2359789D2*
Y2319111D1*
X3274528Y2311981D1*
X3269719Y2309549D1*
X3264966D1*
X3284090Y2343043D2*
X3267343D1*
X3249527D2*
Y2309549D1*
Y2328673D2*
X3247095Y2335858D1*
X3242342Y2340666D1*
X3237534Y2343043D1*
X3230348D1*
X3214909D2*
Y2319111D1*
X3212533Y2311981D1*
X3207724Y2309549D1*
X3200539D1*
X3195786Y2311981D1*
X3188601Y2319111D1*
Y2343043D2*
Y2309549D1*
X3144422Y2335858D2*
X3149230Y2340666D1*
X3154038Y2343043D1*
X3161168D1*
X3165977Y2340666D1*
X3170730Y2335858D1*
X3173162Y2328673D1*
Y2323919D1*
X3170730Y2316734D1*
X3165977Y2311981D1*
X3161168Y2309549D1*
X3154038D1*
X3149230Y2311981D1*
X3144422Y2316734D1*
X3121797Y2359789D2*
Y2319111D1*
X3119421Y2311981D1*
X3114612Y2309549D1*
X3109859D1*
X3128982Y2343043D2*
X3112236D1*
X3094420Y2359789D2*
X3092043Y2357413D1*
X3089611Y2359789D1*
X3092043Y2362221D1*
X3094420Y2359789D1*
X3092043Y2343043D2*
Y2309549D1*
X3062234Y2343043D2*
X3066987Y2340666D1*
X3071796Y2335858D1*
X3074172Y2328673D1*
Y2323919D1*
X3071796Y2316734D1*
X3066987Y2311981D1*
X3062234Y2309549D1*
X3055049D1*
X3050240Y2311981D1*
X3045487Y2316734D1*
X3043055Y2323919D1*
Y2328673D1*
X3045487Y2335858D1*
X3050240Y2340666D1*
X3055049Y2343043D1*
X3062234D1*
X3027616D2*
Y2309549D1*
Y2333481D2*
X3020431Y2340666D1*
X3015623Y2343043D1*
X3008493D1*
X3003684Y2340666D1*
X3001308Y2333481D1*
Y2309549D1*
X2959560Y2335858D2*
X2961937Y2340666D1*
X2969122Y2343043D1*
X2976307D1*
X2983492Y2340666D1*
X2985869Y2335858D1*
X2983492Y2331104D1*
X2978684Y2328673D1*
X2966745Y2326296D1*
X2961937Y2323919D1*
X2959560Y2319111D1*
Y2316734D1*
X2961937Y2311981D1*
X2969122Y2309549D1*
X2976307D1*
X2983492Y2311981D1*
X2985869Y2316734D1*
X2941744Y2314358D2*
X2944121Y2311926D1*
X2941744Y2309549D1*
X2939313Y2311926D1*
X2941744Y2314358D1*
X2338962Y2606935D2*
D84*
X2313095D1*
X2304540Y2609787D1*
X2301621Y2612705D1*
X2298770Y2618409D1*
Y2627031D1*
X2301621Y2632735D1*
X2304540Y2635653D1*
X2313095Y2638505D1*
X2338962D1*
Y2578217D1*
X2280242Y2618409D2*
Y2578217D1*
Y2601165D2*
X2277324Y2609787D1*
X2271620Y2615557D1*
X2265850Y2618409D1*
X2257228D1*
X2224375D2*
X2230079Y2615557D1*
X2235849Y2609787D1*
X2238701Y2601165D1*
Y2595461D1*
X2235849Y2586839D1*
X2230079Y2581135D1*
X2224375Y2578217D1*
X2215753D1*
X2209983Y2581135D1*
X2204279Y2586839D1*
X2201361Y2595461D1*
Y2601165D1*
X2204279Y2609787D1*
X2209983Y2615557D1*
X2215753Y2618409D1*
X2224375D1*
X2148412Y2615557D2*
Y2569595D1*
X2151264Y2561039D1*
X2154116Y2558121D1*
X2159886Y2555269D1*
X2168508D1*
X2174212Y2558121D1*
X2148412Y2606935D2*
X2154116Y2612639D1*
X2159886Y2615557D1*
X2168508D1*
X2174212Y2612639D1*
X2179982Y2606935D1*
X2182834Y2598313D1*
Y2592543D1*
X2179982Y2583987D1*
X2174212Y2578217D1*
X2168508Y2575365D1*
X2159886D1*
X2154116Y2578217D1*
X2148412Y2583987D1*
X2129885Y2618409D2*
Y2578217D1*
Y2601165D2*
X2126967Y2609787D1*
X2121263Y2615557D1*
X2115493Y2618409D1*
X2106871D1*
X2053922D2*
Y2578217D1*
Y2609787D2*
X2059626Y2615557D1*
X2065396Y2618409D1*
X2073951D1*
X2079722Y2615557D1*
X2085425Y2609787D1*
X2088344Y2601165D1*
Y2595461D1*
X2085425Y2586839D1*
X2079722Y2581135D1*
X2073951Y2578217D1*
X2065396D1*
X2059626Y2581135D1*
X2053922Y2586839D1*
X2035395Y2618409D2*
Y2578217D1*
Y2606935D2*
X2026773Y2615557D1*
X2021002Y2618409D1*
X2012447D1*
X2006677Y2615557D1*
X2003825Y2606935D1*
Y2578217D1*
Y2606935D2*
X1995203Y2615557D1*
X1989433Y2618409D1*
X1980877D1*
X1975107Y2615557D1*
X1972188Y2606935D1*
Y2578217D1*
X1953661Y2618409D2*
Y2578217D1*
Y2606935D2*
X1945039Y2615557D1*
X1939269Y2618409D1*
X1930713D1*
X1924943Y2615557D1*
X1922091Y2606935D1*
Y2578217D1*
Y2606935D2*
X1913469Y2615557D1*
X1907699Y2618409D1*
X1899143D1*
X1893373Y2615557D1*
X1890455Y2606935D1*
Y2578217D1*
X1871928Y2638505D2*
X1869076Y2635653D1*
X1866158Y2638505D1*
X1869076Y2641423D1*
X1871928Y2638505D1*
X1869076Y2618409D2*
Y2578217D1*
X1847631Y2618409D2*
Y2578217D1*
Y2606935D2*
X1839009Y2615557D1*
X1833239Y2618409D1*
X1824683D1*
X1818913Y2615557D1*
X1816061Y2606935D1*
Y2578217D1*
X1763112Y2615557D2*
Y2569595D1*
X1765964Y2561039D1*
X1768816Y2558121D1*
X1774586Y2555269D1*
X1783208D1*
X1788912Y2558121D1*
X1763112Y2606935D2*
X1768816Y2612639D1*
X1774586Y2615557D1*
X1783208D1*
X1788912Y2612639D1*
X1794682Y2606935D1*
X1797534Y2598313D1*
Y2592543D1*
X1794682Y2583987D1*
X1788912Y2578217D1*
X1783208Y2575365D1*
X1774586D1*
X1768816Y2578217D1*
X1763112Y2583987D1*
X1686264Y2638505D2*
X1683412Y2635653D1*
X1680493Y2638505D1*
X1683412Y2641423D1*
X1686264Y2638505D1*
X1683412Y2618409D2*
Y2578217D1*
X1661966Y2618409D2*
Y2578217D1*
Y2606935D2*
X1653344Y2615557D1*
X1647574Y2618409D1*
X1639018D1*
X1633248Y2615557D1*
X1630396Y2606935D1*
Y2578217D1*
X1580299Y2609787D2*
X1583151Y2615557D1*
X1591773Y2618409D1*
X1600395D1*
X1609017Y2615557D1*
X1611869Y2609787D1*
X1609017Y2604083D1*
X1603247Y2601165D1*
X1588921Y2598313D1*
X1583151Y2595461D1*
X1580299Y2589691D1*
Y2586839D1*
X1583151Y2581135D1*
X1591773Y2578217D1*
X1600395D1*
X1609017Y2581135D1*
X1611869Y2586839D1*
X1553150Y2638505D2*
Y2589691D1*
X1550298Y2581135D1*
X1544528Y2578217D1*
X1538824D1*
X1561772Y2618409D2*
X1541676D1*
X1520297D2*
Y2578217D1*
Y2601165D2*
X1517379Y2609787D1*
X1511675Y2615557D1*
X1505905Y2618409D1*
X1497283D1*
X1478756D2*
Y2589691D1*
X1475904Y2581135D1*
X1470134Y2578217D1*
X1461512D1*
X1455808Y2581135D1*
X1447186Y2589691D1*
Y2618409D2*
Y2578217D1*
X1394171Y2609787D2*
X1399941Y2615557D1*
X1405711Y2618409D1*
X1414267D1*
X1420037Y2615557D1*
X1425741Y2609787D1*
X1428659Y2601165D1*
Y2595461D1*
X1425741Y2586839D1*
X1420037Y2581135D1*
X1414267Y2578217D1*
X1405711D1*
X1399941Y2581135D1*
X1394171Y2586839D1*
X1367022Y2638505D2*
Y2589691D1*
X1364170Y2581135D1*
X1358399Y2578217D1*
X1352696D1*
X1375644Y2618409D2*
X1355548D1*
X1334169Y2638505D2*
X1331317Y2635653D1*
X1328398Y2638505D1*
X1331317Y2641423D1*
X1334169Y2638505D1*
X1331317Y2618409D2*
Y2578217D1*
X1295545Y2618409D2*
X1301249Y2615557D1*
X1307019Y2609787D1*
X1309871Y2601165D1*
Y2595461D1*
X1307019Y2586839D1*
X1301249Y2581135D1*
X1295545Y2578217D1*
X1286923D1*
X1281153Y2581135D1*
X1275449Y2586839D1*
X1272531Y2595461D1*
Y2601165D1*
X1275449Y2609787D1*
X1281153Y2615557D1*
X1286923Y2618409D1*
X1295545D1*
X1254004D2*
Y2578217D1*
Y2606935D2*
X1245382Y2615557D1*
X1239612Y2618409D1*
X1231056D1*
X1225286Y2615557D1*
X1222434Y2606935D1*
Y2578217D1*
X1172337Y2609787D2*
X1175189Y2615557D1*
X1183811Y2618409D1*
X1192433D1*
X1201055Y2615557D1*
X1203907Y2609787D1*
X1201055Y2604083D1*
X1195285Y2601165D1*
X1180959Y2598313D1*
X1175189Y2595461D1*
X1172337Y2589691D1*
Y2586839D1*
X1175189Y2581135D1*
X1183811Y2578217D1*
X1192433D1*
X1201055Y2581135D1*
X1203907Y2586839D1*
X1150892Y2618409D2*
X1153810Y2615491D1*
X1150892Y2612639D1*
X1148040Y2615491D1*
X1150892Y2618409D1*
Y2583987D2*
X1153810Y2581069D1*
X1150892Y2578217D1*
X1148040Y2581069D1*
X1150892Y2583987D1*
X2536587Y2456928D2*
X2542291Y2454076D1*
X2548061Y2448306D1*
X2550913Y2439683D1*
Y2433980D1*
X2548061Y2425358D1*
X2542291Y2419654D1*
X2536587Y2416736D1*
X2527965D1*
X2522195Y2419654D1*
X2516491Y2425358D1*
X2513573Y2433980D1*
Y2439683D1*
X2516491Y2448306D1*
X2522195Y2454076D1*
X2527965Y2456928D1*
X2536587D1*
X2495046Y2477024D2*
X2492194Y2474172D1*
X2489276Y2477024D1*
X2492194Y2479942D1*
X2495046Y2477024D1*
X2492194Y2456928D2*
Y2416736D1*
X2462127Y2477024D2*
Y2428210D1*
X2459275Y2419654D1*
X2453505Y2416736D1*
X2447801D1*
X2470749Y2456928D2*
X2450653D1*
X2426422Y2422506D2*
X2429274Y2419587D1*
X2426422Y2416736D1*
X2423504Y2419587D1*
X2426422Y2422506D1*
X2404976Y2439683D2*
X2370555D1*
Y2445454D1*
X2373406Y2451224D1*
X2376258Y2454076D1*
X2382029Y2456928D1*
X2390651D1*
X2396354Y2454076D1*
X2402125Y2448306D1*
X2404976Y2439683D1*
Y2433980D1*
X2402125Y2425358D1*
X2396354Y2419654D1*
X2390651Y2416736D1*
X2382029D1*
X2376258Y2419654D1*
X2370555Y2425358D1*
X2317606Y2477024D2*
Y2416736D1*
Y2448306D2*
X2323309Y2454076D1*
X2329080Y2456928D1*
X2337702D1*
X2343405Y2454076D1*
X2349176Y2448306D1*
X2352027Y2439683D1*
Y2433980D1*
X2349176Y2425358D1*
X2343405Y2419654D1*
X2337702Y2416736D1*
X2329080D1*
X2323309Y2419654D1*
X2317606Y2425358D1*
X2299079Y2456928D2*
Y2428210D1*
X2296227Y2419654D1*
X2290456Y2416736D1*
X2281834D1*
X2276131Y2419654D1*
X2267509Y2428210D1*
Y2456928D2*
Y2416736D1*
X2248981D2*
X2208789Y2476957D1*
X2155774Y2448306D2*
X2161544Y2454076D1*
X2167314Y2456928D1*
X2175870D1*
X2181640Y2454076D1*
X2187344Y2448306D1*
X2190262Y2439683D1*
Y2433980D1*
X2187344Y2425358D1*
X2181640Y2419654D1*
X2175870Y2416736D1*
X2167314D1*
X2161544Y2419654D1*
X2155774Y2425358D1*
X2137247Y2439683D2*
X2102825D1*
Y2445454D1*
X2105677Y2451224D1*
X2108529Y2454076D1*
X2114299Y2456928D1*
X2122921D1*
X2128625Y2454076D1*
X2134395Y2448306D1*
X2137247Y2439683D1*
Y2433980D1*
X2134395Y2425358D1*
X2128625Y2419654D1*
X2122921Y2416736D1*
X2114299D1*
X2108529Y2419654D1*
X2102825Y2425358D1*
X2075676Y2477024D2*
Y2428210D1*
X2072824Y2419654D1*
X2067054Y2416736D1*
X2061350D1*
X2084298Y2456928D2*
X2064202D1*
X2042823Y2416736D2*
X2002631Y2476957D1*
X1969778Y2456928D2*
X1975482Y2454076D1*
X1981252Y2448306D1*
X1984104Y2439683D1*
Y2433980D1*
X1981252Y2425358D1*
X1975482Y2419654D1*
X1969778Y2416736D1*
X1961156D1*
X1955386Y2419654D1*
X1949682Y2425358D1*
X1946764Y2433980D1*
Y2439683D1*
X1949682Y2448306D1*
X1955386Y2454076D1*
X1961156Y2456928D1*
X1969778D1*
X1928237D2*
Y2396640D1*
Y2448306D2*
X1922467Y2454009D1*
X1916763Y2456928D1*
X1908141D1*
X1902371Y2454009D1*
X1896667Y2448306D1*
X1893749Y2439683D1*
Y2433913D1*
X1896667Y2425358D1*
X1902371Y2419587D1*
X1908141Y2416736D1*
X1916763D1*
X1922467Y2419587D1*
X1928237Y2425358D1*
X1875222Y2439683D2*
X1840800D1*
Y2445454D1*
X1843652Y2451224D1*
X1846503Y2454076D1*
X1852274Y2456928D1*
X1860896D1*
X1866599Y2454076D1*
X1872370Y2448306D1*
X1875222Y2439683D1*
Y2433980D1*
X1872370Y2425358D1*
X1866599Y2419654D1*
X1860896Y2416736D1*
X1852274D1*
X1846503Y2419654D1*
X1840800Y2425358D1*
X1822273Y2456928D2*
Y2416736D1*
Y2445454D2*
X1813651Y2454076D1*
X1807880Y2456928D1*
X1799325D1*
X1793555Y2454076D1*
X1790703Y2445454D1*
Y2416736D1*
X1772176Y2446846D2*
X1739014D1*
X1688917Y2448306D2*
X1691769Y2454076D1*
X1700391Y2456928D1*
X1709013D1*
X1717635Y2454076D1*
X1720487Y2448306D1*
X1717635Y2442602D1*
X1711865Y2439683D1*
X1697539Y2436832D1*
X1691769Y2433980D1*
X1688917Y2428210D1*
Y2425358D1*
X1691769Y2419654D1*
X1700391Y2416736D1*
X1709013D1*
X1717635Y2419654D1*
X1720487Y2425358D1*
X1656064Y2456928D2*
X1661768Y2454076D1*
X1667538Y2448306D1*
X1670390Y2439683D1*
Y2433980D1*
X1667538Y2425358D1*
X1661768Y2419654D1*
X1656064Y2416736D1*
X1647442D1*
X1641672Y2419654D1*
X1635968Y2425358D1*
X1633050Y2433980D1*
Y2439683D1*
X1635968Y2448306D1*
X1641672Y2454076D1*
X1647442Y2456928D1*
X1656064D1*
X1614522D2*
Y2428210D1*
X1611671Y2419654D1*
X1605900Y2416736D1*
X1597278D1*
X1591575Y2419654D1*
X1582952Y2428210D1*
Y2456928D2*
Y2416736D1*
X1564425Y2456928D2*
Y2416736D1*
Y2439683D2*
X1561507Y2448306D1*
X1555803Y2454076D1*
X1550033Y2456928D1*
X1541411D1*
X1488396Y2448306D2*
X1494166Y2454076D1*
X1499936Y2456928D1*
X1508492D1*
X1514262Y2454076D1*
X1519966Y2448306D1*
X1522884Y2439683D1*
Y2433980D1*
X1519966Y2425358D1*
X1514262Y2419654D1*
X1508492Y2416736D1*
X1499936D1*
X1494166Y2419654D1*
X1488396Y2425358D1*
X1469869Y2439683D2*
X1435447D1*
Y2445454D1*
X1438299Y2451224D1*
X1441151Y2454076D1*
X1446921Y2456928D1*
X1455543D1*
X1461247Y2454076D1*
X1467017Y2448306D1*
X1469869Y2439683D1*
Y2433980D1*
X1467017Y2425358D1*
X1461247Y2419654D1*
X1455543Y2416736D1*
X1446921D1*
X1441151Y2419654D1*
X1435447Y2425358D1*
X1416920Y2446846D2*
X1383758D1*
X1365231Y2456928D2*
Y2396640D1*
Y2448306D2*
X1359461Y2454009D1*
X1353757Y2456928D1*
X1345135D1*
X1339365Y2454009D1*
X1333661Y2448306D1*
X1330743Y2439683D1*
Y2433913D1*
X1333661Y2425358D1*
X1339365Y2419587D1*
X1345135Y2416736D1*
X1353757D1*
X1359461Y2419587D1*
X1365231Y2425358D1*
X1312216Y2456928D2*
Y2416736D1*
Y2439683D2*
X1309297Y2448306D1*
X1303594Y2454076D1*
X1297824Y2456928D1*
X1289201D1*
X1256349D2*
X1262052Y2454076D1*
X1267822Y2448306D1*
X1270674Y2439683D1*
Y2433980D1*
X1267822Y2425358D1*
X1262052Y2419654D1*
X1256349Y2416736D1*
X1247726D1*
X1241956Y2419654D1*
X1236253Y2425358D1*
X1233334Y2433980D1*
Y2439683D1*
X1236253Y2448306D1*
X1241956Y2454076D1*
X1247726Y2456928D1*
X1256349D1*
X1203333Y2477090D2*
X1200415Y2474238D1*
X1197563Y2477090D1*
X1200415Y2479942D1*
X1203333Y2477090D1*
X1200415Y2456994D2*
Y2408180D1*
X1203333Y2399558D1*
X1209037Y2396706D1*
X1214807D1*
X1179036Y2439683D2*
X1144614D1*
Y2445454D1*
X1147466Y2451224D1*
X1150318Y2454076D1*
X1156088Y2456928D1*
X1164710D1*
X1170414Y2454076D1*
X1176184Y2448306D1*
X1179036Y2439683D1*
Y2433980D1*
X1176184Y2425358D1*
X1170414Y2419654D1*
X1164710Y2416736D1*
X1156088D1*
X1150318Y2419654D1*
X1144614Y2425358D1*
X1091599Y2448306D2*
X1097369Y2454076D1*
X1103139Y2456928D1*
X1111695D1*
X1117465Y2454076D1*
X1123169Y2448306D1*
X1126087Y2439683D1*
Y2433980D1*
X1123169Y2425358D1*
X1117465Y2419654D1*
X1111695Y2416736D1*
X1103139D1*
X1097369Y2419654D1*
X1091599Y2425358D1*
X1064450Y2477024D2*
Y2428210D1*
X1061598Y2419654D1*
X1055828Y2416736D1*
X1050124D1*
X1073072Y2456928D2*
X1052976D1*
X1000027Y2448306D2*
X1002879Y2454076D1*
X1011501Y2456928D1*
X1020123D1*
X1028745Y2454076D1*
X1031597Y2448306D1*
X1028745Y2442602D1*
X1022975Y2439683D1*
X1008649Y2436832D1*
X1002879Y2433980D1*
X1000027Y2428210D1*
Y2425358D1*
X1002879Y2419654D1*
X1011501Y2416736D1*
X1020123D1*
X1028745Y2419654D1*
X1031597Y2425358D1*
X3896439Y763272D2*
D83*
Y692936D1*
X3872993D1*
X3862934Y696341D1*
X3856202Y702995D1*
X3852875Y709727D1*
X3849548Y719709D1*
Y736500D1*
X3852875Y746559D1*
X3856202Y753213D1*
X3862934Y759945D1*
X3872993Y763272D1*
X3896439D1*
X3827933Y719709D2*
X3787774D1*
Y726441D1*
X3791101Y733172D1*
X3794429Y736500D1*
X3801160Y739827D1*
X3811219D1*
X3817874Y736500D1*
X3824606Y729768D1*
X3827933Y719709D1*
Y713054D1*
X3824606Y702995D1*
X3817874Y696341D1*
X3811219Y692936D1*
X3801160D1*
X3794429Y696341D1*
X3787774Y702995D1*
X3766159Y739827D2*
Y669491D1*
Y729768D2*
X3759427Y736422D1*
X3752773Y739827D1*
X3742714D1*
X3735982Y736422D1*
X3729328Y729768D1*
X3725923Y719709D1*
Y712977D1*
X3729328Y702995D1*
X3735982Y696263D1*
X3742714Y692936D1*
X3752773D1*
X3759427Y696263D1*
X3766159Y702995D1*
X3664149Y739827D2*
Y692936D1*
Y729768D2*
X3670804Y736500D1*
X3677535Y739827D1*
X3687517D1*
X3694249Y736500D1*
X3700903Y729768D1*
X3704308Y719709D1*
Y713054D1*
X3700903Y702995D1*
X3694249Y696341D1*
X3687517Y692936D1*
X3677535D1*
X3670804Y696341D1*
X3664149Y702995D1*
X3642534Y739827D2*
Y692936D1*
Y719709D2*
X3639130Y729768D1*
X3632475Y736500D1*
X3625743Y739827D1*
X3615684D1*
X3584010Y763272D2*
Y706323D1*
X3580683Y696341D1*
X3573951Y692936D1*
X3567297D1*
X3594069Y739827D2*
X3570624D1*
X3545682D2*
Y692936D1*
Y726441D2*
X3535623Y736500D1*
X3528891Y739827D1*
X3518909D1*
X3512177Y736500D1*
X3508850Y726441D1*
Y692936D1*
Y726441D2*
X3498791Y736500D1*
X3492059Y739827D1*
X3482078D1*
X3475346Y736500D1*
X3471941Y726441D1*
Y692936D1*
X3450326Y719709D2*
X3410167D1*
Y726441D1*
X3413495Y733172D1*
X3416822Y736500D1*
X3423554Y739827D1*
X3433613D1*
X3440267Y736500D1*
X3446999Y729768D1*
X3450326Y719709D1*
Y713054D1*
X3446999Y702995D1*
X3440267Y696341D1*
X3433613Y692936D1*
X3423554D1*
X3416822Y696341D1*
X3410167Y702995D1*
X3388553Y739827D2*
Y692936D1*
Y726441D2*
X3378493Y736500D1*
X3371762Y739827D1*
X3361780D1*
X3355048Y736500D1*
X3351721Y726441D1*
Y692936D1*
X3320047Y763272D2*
Y706323D1*
X3316720Y696341D1*
X3309988Y692936D1*
X3303333D1*
X3330106Y739827D2*
X3306661D1*
X3196964D2*
X3203618Y736500D1*
X3210350Y729768D1*
X3213677Y719709D1*
Y713054D1*
X3210350Y702995D1*
X3203618Y696341D1*
X3196964Y692936D1*
X3186905D1*
X3180173Y696341D1*
X3173518Y702995D1*
X3170114Y713054D1*
Y719709D1*
X3173518Y729768D1*
X3180173Y736500D1*
X3186905Y739827D1*
X3196964D1*
X3121726Y763272D2*
X3128381D1*
X3135112Y759945D1*
X3138440Y749886D1*
Y692936D1*
X3148499Y739827D2*
X3125053D1*
X2981852Y746559D2*
X2985179Y753213D1*
X2991911Y759945D1*
X2998565Y763272D1*
X3011952D1*
X3018684Y759945D1*
X3025338Y753213D1*
X3028743Y746559D1*
X3032070Y736500D1*
Y719709D1*
X3028743Y709727D1*
X3025338Y702995D1*
X3018684Y696341D1*
X3011952Y692936D1*
X2998565D1*
X2991911Y696341D1*
X2985179Y702995D1*
X2981852Y709727D1*
X2943523Y739827D2*
X2950178Y736500D1*
X2956910Y729768D1*
X2960237Y719709D1*
Y713054D1*
X2956910Y702995D1*
X2950178Y696341D1*
X2943523Y692936D1*
X2933464D1*
X2926733Y696341D1*
X2920078Y702995D1*
X2916674Y713054D1*
Y719709D1*
X2920078Y729768D1*
X2926733Y736500D1*
X2933464Y739827D1*
X2943523D1*
X2895059D2*
Y692936D1*
Y726441D2*
X2885000Y736500D1*
X2878268Y739827D1*
X2868286D1*
X2861554Y736500D1*
X2858227Y726441D1*
Y692936D1*
Y726441D2*
X2848168Y736500D1*
X2841436Y739827D1*
X2831454D1*
X2824723Y736500D1*
X2821318Y726441D1*
Y692936D1*
X2799703Y739827D2*
Y669491D1*
Y729768D2*
X2792971Y736422D1*
X2786317Y739827D1*
X2776258D1*
X2769526Y736422D1*
X2762871Y729768D1*
X2759467Y719709D1*
Y712977D1*
X2762871Y702995D1*
X2769526Y696263D1*
X2776258Y692936D1*
X2786317D1*
X2792971Y696263D1*
X2799703Y702995D1*
X2737852Y739827D2*
Y706323D1*
X2734525Y696341D1*
X2727793Y692936D1*
X2717734D1*
X2711079Y696341D1*
X2701020Y706323D1*
Y739827D2*
Y692936D1*
X2669346Y763272D2*
Y706323D1*
X2666019Y696341D1*
X2659287Y692936D1*
X2652633D1*
X2679405Y739827D2*
X2655960D1*
X2631018Y719709D2*
X2590859D1*
Y726441D1*
X2594186Y733172D1*
X2597513Y736500D1*
X2604245Y739827D1*
X2614304D1*
X2620959Y736500D1*
X2627691Y729768D1*
X2631018Y719709D1*
Y713054D1*
X2627691Y702995D1*
X2620959Y696341D1*
X2614304Y692936D1*
X2604245D1*
X2597513Y696341D1*
X2590859Y702995D1*
X2569244Y739827D2*
Y692936D1*
Y719709D2*
X2565839Y729768D1*
X2559185Y736500D1*
X2552453Y739827D1*
X2542394D1*
X2405847Y753213D2*
X2412502Y759945D1*
X2422561Y763272D1*
X2435947D1*
X2446006Y759945D1*
X2452738Y753213D1*
Y746559D1*
X2449333Y739827D1*
X2446006Y736500D1*
X2439351Y733172D1*
X2419233Y726441D1*
X2412502Y723113D1*
X2409174Y719709D1*
X2405847Y713054D1*
Y702995D1*
X2412502Y696341D1*
X2422561Y692936D1*
X2435947D1*
X2446006Y696341D1*
X2452738Y702995D1*
X2380828Y739827D2*
X2360787Y692936D1*
X2367441Y679550D1*
X2374173Y672818D1*
X2380828Y669491D1*
X2384232D1*
X2340669Y739827D2*
X2360787Y692936D1*
X2282222Y729768D2*
X2285549Y736500D1*
X2295608Y739827D1*
X2305667D1*
X2315727Y736500D1*
X2319054Y729768D1*
X2315727Y723113D1*
X2308995Y719709D1*
X2292281Y716382D1*
X2285549Y713054D1*
X2282222Y706323D1*
Y702995D1*
X2285549Y696341D1*
X2295608Y692936D1*
X2305667D1*
X2315727Y696341D1*
X2319054Y702995D1*
X2250548Y763272D2*
Y706323D1*
X2247221Y696341D1*
X2240489Y692936D1*
X2233835D1*
X2260607Y739827D2*
X2237162D1*
X2212220Y719709D2*
X2172061D1*
Y726441D1*
X2175388Y733172D1*
X2178715Y736500D1*
X2185447Y739827D1*
X2195506D1*
X2202161Y736500D1*
X2208892Y729768D1*
X2212220Y719709D1*
Y713054D1*
X2208892Y702995D1*
X2202161Y696341D1*
X2195506Y692936D1*
X2185447D1*
X2178715Y696341D1*
X2172061Y702995D1*
X2150446Y739827D2*
Y692936D1*
Y726441D2*
X2140387Y736500D1*
X2133655Y739827D1*
X2123673D1*
X2116942Y736500D1*
X2113614Y726441D1*
Y692936D1*
Y726441D2*
X2103555Y736500D1*
X2096823Y739827D1*
X2086842D1*
X2080110Y736500D1*
X2076705Y726441D1*
Y692936D1*
X2018259Y729768D2*
X2021586Y736500D1*
X2031645Y739827D1*
X2041704D1*
X2051763Y736500D1*
X2055090Y729768D1*
X2051763Y723113D1*
X2045031Y719709D1*
X2028318Y716382D1*
X2021586Y713054D1*
X2018259Y706323D1*
Y702995D1*
X2021586Y696341D1*
X2031645Y692936D1*
X2041704D1*
X2051763Y696341D1*
X2055090Y702995D1*
X3851539Y628091D2*
X3895025D1*
Y557755D1*
X3851539D1*
X3895025Y594587D2*
X3868253D1*
X3829924Y604646D2*
Y557755D1*
Y591260D2*
X3819865Y601319D1*
X3813133Y604646D1*
X3803151D1*
X3796420Y601319D1*
X3793092Y591260D1*
Y557755D1*
X3731319Y601319D2*
Y547696D1*
X3734646Y537714D1*
X3737973Y534310D1*
X3744705Y530983D1*
X3754764D1*
X3761418Y534310D1*
X3731319Y591260D2*
X3737973Y597914D1*
X3744705Y601319D1*
X3754764D1*
X3761418Y597914D1*
X3768150Y591260D1*
X3771477Y581200D1*
Y574469D1*
X3768150Y564487D1*
X3761418Y557755D1*
X3754764Y554428D1*
X3744705D1*
X3737973Y557755D1*
X3731319Y564487D1*
X3709704Y628091D2*
X3706376Y624764D1*
X3702972Y628091D1*
X3706376Y631496D1*
X3709704Y628091D1*
X3706376Y604646D2*
Y557755D1*
X3681357Y604646D2*
Y557755D1*
Y591260D2*
X3671298Y601319D1*
X3664566Y604646D1*
X3654584D1*
X3647853Y601319D1*
X3644525Y591260D1*
Y557755D1*
X3622910Y584528D2*
X3582752D1*
Y591260D1*
X3586079Y597991D1*
X3589406Y601319D1*
X3596138Y604646D1*
X3606197D1*
X3612851Y601319D1*
X3619583Y594587D1*
X3622910Y584528D1*
Y577873D1*
X3619583Y567814D1*
X3612851Y561160D1*
X3606197Y557755D1*
X3596138D1*
X3589406Y561160D1*
X3582752Y567814D1*
X3561137Y584528D2*
X3520978D1*
Y591260D1*
X3524305Y597991D1*
X3527632Y601319D1*
X3534364Y604646D1*
X3544423D1*
X3551078Y601319D1*
X3557809Y594587D1*
X3561137Y584528D1*
Y577873D1*
X3557809Y567814D1*
X3551078Y561160D1*
X3544423Y557755D1*
X3534364D1*
X3527632Y561160D1*
X3520978Y567814D1*
X3499363Y604646D2*
Y557755D1*
Y584528D2*
X3495958Y594587D1*
X3489304Y601319D1*
X3482572Y604646D1*
X3472513D1*
X3450898Y628091D2*
X3447571Y624764D1*
X3444166Y628091D1*
X3447571Y631496D1*
X3450898Y628091D1*
X3447571Y604646D2*
Y557755D1*
X3422551Y604646D2*
Y557755D1*
Y591260D2*
X3412492Y601319D1*
X3405760Y604646D1*
X3395779D1*
X3389047Y601319D1*
X3385720Y591260D1*
Y557755D1*
X3323946Y601319D2*
Y547696D1*
X3327273Y537714D1*
X3330600Y534310D1*
X3337332Y530983D1*
X3347391D1*
X3354046Y534310D1*
X3323946Y591260D2*
X3330600Y597914D1*
X3337332Y601319D1*
X3347391D1*
X3354046Y597914D1*
X3360777Y591260D1*
X3364105Y581200D1*
Y574469D1*
X3360777Y564487D1*
X3354046Y557755D1*
X3347391Y554428D1*
X3337332D1*
X3330600Y557755D1*
X3323946Y564487D1*
X3262397Y613215D2*
D84*
Y552927D1*
X3282493Y613215D2*
X3242301D1*
X3223774Y575875D2*
X3189352D1*
Y581645D1*
X3192204Y587415D1*
X3195056Y590267D1*
X3200826Y593119D1*
X3209448D1*
X3215152Y590267D1*
X3220922Y584497D1*
X3223774Y575875D1*
Y570171D1*
X3220922Y561549D1*
X3215152Y555845D1*
X3209448Y552927D1*
X3200826D1*
X3195056Y555845D1*
X3189352Y561549D1*
X3136337Y584497D2*
X3142107Y590267D1*
X3147877Y593119D1*
X3156433D1*
X3162203Y590267D1*
X3167907Y584497D1*
X3170825Y575875D1*
Y570171D1*
X3167907Y561549D1*
X3162203Y555845D1*
X3156433Y552927D1*
X3147877D1*
X3142107Y555845D1*
X3136337Y561549D1*
X3117809Y613215D2*
Y552927D1*
Y581645D2*
X3109187Y590267D1*
X3103417Y593119D1*
X3094795D1*
X3089091Y590267D1*
X3086240Y581645D1*
Y552927D1*
X3067712Y593119D2*
Y552927D1*
Y581645D2*
X3059090Y590267D1*
X3053320Y593119D1*
X3044765D1*
X3038994Y590267D1*
X3036142Y581645D1*
Y552927D1*
X3003290Y593119D2*
X3008993Y590267D1*
X3014763Y584497D1*
X3017615Y575875D1*
Y570171D1*
X3014763Y561549D1*
X3008993Y555845D1*
X3003290Y552927D1*
X2994667D1*
X2988897Y555845D1*
X2983194Y561549D1*
X2980275Y570171D1*
Y575875D1*
X2983194Y584497D1*
X2988897Y590267D1*
X2994667Y593119D1*
X3003290D1*
X2961748Y613215D2*
Y552927D1*
X2928895Y593119D2*
X2934599Y590267D1*
X2940369Y584497D1*
X2943221Y575875D1*
Y570171D1*
X2940369Y561549D1*
X2934599Y555845D1*
X2928895Y552927D1*
X2920273D1*
X2914503Y555845D1*
X2908799Y561549D1*
X2905881Y570171D1*
Y575875D1*
X2908799Y584497D1*
X2914503Y590267D1*
X2920273Y593119D1*
X2928895D1*
X2852932Y590267D2*
Y544305D1*
X2855784Y535749D1*
X2858636Y532831D1*
X2864406Y529979D1*
X2873028D1*
X2878732Y532831D1*
X2852932Y581645D2*
X2858636Y587349D1*
X2864406Y590267D1*
X2873028D1*
X2878732Y587349D1*
X2884502Y581645D1*
X2887354Y573023D1*
Y567253D1*
X2884502Y558697D1*
X2878732Y552927D1*
X2873028Y550075D1*
X2864406D1*
X2858636Y552927D1*
X2852932Y558697D1*
X2831487Y593119D2*
X2814309Y552927D1*
X2820013Y541453D1*
X2825783Y535683D1*
X2831487Y532831D1*
X2834405D1*
X2797065Y593119D2*
X2814309Y552927D1*
X1730019Y731411D2*
D86*
Y681171D1*
X1696525Y731411D2*
Y681171D1*
X1730019Y707480D2*
X1696525D1*
X1652401Y714665D2*
Y681171D1*
Y707480D2*
X1657154Y712288D1*
X1661963Y714665D1*
X1669093D1*
X1673901Y712288D1*
X1678654Y707480D1*
X1681086Y700295D1*
Y695541D1*
X1678654Y688356D1*
X1673901Y683603D1*
X1669093Y681171D1*
X1661963D1*
X1657154Y683603D1*
X1652401Y688356D1*
X1636962Y714665D2*
Y681171D1*
Y705103D2*
X1629777Y712288D1*
X1624969Y714665D1*
X1617839D1*
X1613030Y712288D1*
X1610654Y705103D1*
Y681171D1*
X1566530Y731411D2*
Y681171D1*
Y707480D2*
X1571283Y712288D1*
X1576091Y714665D1*
X1583276D1*
X1588029Y712288D1*
X1592838Y707480D1*
X1595215Y700295D1*
Y695541D1*
X1592838Y688356D1*
X1588029Y683603D1*
X1583276Y681171D1*
X1576091D1*
X1571283Y683603D1*
X1566530Y688356D1*
X1524782Y707480D2*
X1527159Y712288D1*
X1534344Y714665D1*
X1541529D1*
X1548714Y712288D1*
X1551090Y707480D1*
X1548714Y702726D1*
X1543905Y700295D1*
X1531967Y697918D1*
X1527159Y695541D1*
X1524782Y690733D1*
Y688356D1*
X1527159Y683603D1*
X1534344Y681171D1*
X1541529D1*
X1548714Y683603D1*
X1551090Y688356D1*
X1509343Y706264D2*
X1481708D1*
X1454331Y714665D2*
X1459084Y712288D1*
X1463892Y707480D1*
X1466269Y700295D1*
Y695541D1*
X1463892Y688356D1*
X1459084Y683603D1*
X1454331Y681171D1*
X1447146D1*
X1442337Y683603D1*
X1437584Y688356D1*
X1435152Y695541D1*
Y700295D1*
X1437584Y707480D1*
X1442337Y712288D1*
X1447146Y714665D1*
X1454331D1*
X1419713D2*
Y681171D1*
Y705103D2*
X1412528Y712288D1*
X1407719Y714665D1*
X1400590D1*
X1395781Y712288D1*
X1393405Y705103D1*
Y681171D1*
X1329364Y731411D2*
Y681171D1*
X1313925Y700295D2*
X1285240D1*
Y705103D1*
X1287617Y709912D1*
X1289993Y712288D1*
X1294802Y714665D1*
X1301987D1*
X1306740Y712288D1*
X1311548Y707480D1*
X1313925Y700295D1*
Y695541D1*
X1311548Y688356D1*
X1306740Y683603D1*
X1301987Y681171D1*
X1294802D1*
X1289993Y683603D1*
X1285240Y688356D1*
X1241116Y714665D2*
Y681171D1*
Y707480D2*
X1245869Y712288D1*
X1250678Y714665D1*
X1257807D1*
X1262616Y712288D1*
X1267369Y707480D1*
X1269801Y700295D1*
Y695541D1*
X1267369Y688356D1*
X1262616Y683603D1*
X1257807Y681171D1*
X1250678D1*
X1245869Y683603D1*
X1241116Y688356D1*
X1225677Y714665D2*
Y681171D1*
Y700295D2*
X1223245Y707480D1*
X1218492Y712288D1*
X1213683Y714665D1*
X1206498D1*
X1191059D2*
Y681171D1*
Y705103D2*
X1183874Y712288D1*
X1179066Y714665D1*
X1171936D1*
X1167127Y712288D1*
X1164751Y705103D1*
Y681171D1*
X1149311Y731411D2*
X1146935Y729035D1*
X1144503Y731411D1*
X1146935Y733843D1*
X1149311Y731411D1*
X1146935Y714665D2*
Y681171D1*
X1129064Y714665D2*
Y681171D1*
Y705103D2*
X1121879Y712288D1*
X1117070Y714665D1*
X1109941D1*
X1105132Y712288D1*
X1102755Y705103D1*
Y681171D1*
X1058631Y712288D2*
Y673986D1*
X1061008Y666857D1*
X1063385Y664425D1*
X1068193Y662048D1*
X1075378D1*
X1080131Y664425D1*
X1058631Y705103D2*
X1063385Y709856D1*
X1068193Y712288D1*
X1075378D1*
X1080131Y709856D1*
X1084940Y705103D1*
X1087316Y697918D1*
Y693110D1*
X1084940Y685980D1*
X1080131Y681171D1*
X1075378Y678795D1*
X1068193D1*
X1063385Y681171D1*
X1058631Y685980D1*
X975468Y731411D2*
X980221D1*
X985030Y729035D1*
X987406Y721850D1*
Y681171D1*
X994591Y714665D2*
X977844D1*
X948090D2*
X952844Y712288D1*
X957652Y707480D1*
X960029Y700295D1*
Y695541D1*
X957652Y688356D1*
X952844Y683603D1*
X948090Y681171D1*
X940905D1*
X936097Y683603D1*
X931344Y688356D1*
X928912Y695541D1*
Y700295D1*
X931344Y707480D1*
X936097Y712288D1*
X940905Y714665D1*
X948090D1*
X913473D2*
Y681171D1*
Y700295D2*
X911041Y707480D1*
X906288Y712288D1*
X901479Y714665D1*
X894294D1*
X1449393Y603394D2*
Y569901D1*
Y589024D2*
X1446961Y596209D1*
X1442208Y601018D1*
X1437399Y603394D1*
X1430214D1*
X1414775Y589024D2*
X1386090D1*
Y593833D1*
X1388467Y598641D1*
X1390843Y601018D1*
X1395652Y603394D1*
X1402837D1*
X1407590Y601018D1*
X1412399Y596209D1*
X1414775Y589024D1*
Y584271D1*
X1412399Y577086D1*
X1407590Y572333D1*
X1402837Y569901D1*
X1395652D1*
X1390843Y572333D1*
X1386090Y577086D1*
X1341966Y603394D2*
Y569901D1*
Y596209D2*
X1346719Y601018D1*
X1351528Y603394D1*
X1358658D1*
X1363466Y601018D1*
X1368219Y596209D1*
X1370651Y589024D1*
Y584271D1*
X1368219Y577086D1*
X1363466Y572333D1*
X1358658Y569901D1*
X1351528D1*
X1346719Y572333D1*
X1341966Y577086D1*
X1326527Y620141D2*
Y569901D1*
X1311088Y594993D2*
X1283453D1*
X1268014Y603394D2*
X1258452Y569901D1*
X1248890Y603394D1*
X1239329Y569901D1*
X1229767Y603394D1*
X1202390D2*
X1207143Y601018D1*
X1211951Y596209D1*
X1214328Y589024D1*
Y584271D1*
X1211951Y577086D1*
X1207143Y572333D1*
X1202390Y569901D1*
X1195205D1*
X1190396Y572333D1*
X1185643Y577086D1*
X1183211Y584271D1*
Y589024D1*
X1185643Y596209D1*
X1190396Y601018D1*
X1195205Y603394D1*
X1202390D1*
X1167772D2*
Y569901D1*
Y589024D2*
X1165340Y596209D1*
X1160587Y601018D1*
X1155778Y603394D1*
X1148593D1*
X1133154Y620141D2*
Y569901D1*
X1089030Y620141D2*
Y569901D1*
Y596209D2*
X1093783Y601018D1*
X1098592Y603394D1*
X1105777D1*
X1110530Y601018D1*
X1115338Y596209D1*
X1117715Y589024D1*
Y584271D1*
X1115338Y577086D1*
X1110530Y572333D1*
X1105777Y569901D1*
X1098592D1*
X1093783Y572333D1*
X1089030Y577086D1*
X996305Y603394D2*
Y569901D1*
Y596209D2*
X1001058Y601018D1*
X1005866Y603394D1*
X1012996D1*
X1017805Y601018D1*
X1022558Y596209D1*
X1024990Y589024D1*
Y584271D1*
X1022558Y577086D1*
X1017805Y572333D1*
X1012996Y569901D1*
X1005866D1*
X1001058Y572333D1*
X996305Y577086D1*
X952125Y596209D2*
X956934Y601018D1*
X961742Y603394D1*
X968872D1*
X973681Y601018D1*
X978434Y596209D1*
X980866Y589024D1*
Y584271D1*
X978434Y577086D1*
X973681Y572333D1*
X968872Y569901D1*
X961742D1*
X956934Y572333D1*
X952125Y577086D1*
X936686Y620141D2*
Y569901D1*
Y593833D2*
X929501Y601018D1*
X924693Y603394D1*
X917508D1*
X912754Y601018D1*
X910378Y593833D1*
Y569901D1*
X894939Y620141D2*
X892562Y617764D1*
X890130Y620141D1*
X892562Y622573D1*
X894939Y620141D1*
X892562Y603394D2*
Y569901D1*
X874691Y589024D2*
X846006D1*
Y593833D1*
X848383Y598641D1*
X850759Y601018D1*
X855568Y603394D1*
X862753D1*
X867506Y601018D1*
X872314Y596209D1*
X874691Y589024D1*
Y584271D1*
X872314Y577086D1*
X867506Y572333D1*
X862753Y569901D1*
X855568D1*
X850759Y572333D1*
X846006Y577086D1*
X830567Y603394D2*
X816197Y569901D1*
X801882Y603394D1*
X786443Y589024D2*
X757758D1*
Y593833D1*
X760134Y598641D1*
X762511Y601018D1*
X767319Y603394D1*
X774504D1*
X779258Y601018D1*
X784066Y596209D1*
X786443Y589024D1*
Y584271D1*
X784066Y577086D1*
X779258Y572333D1*
X774504Y569901D1*
X767319D1*
X762511Y572333D1*
X757758Y577086D1*
X742319Y603394D2*
Y569901D1*
Y593833D2*
X735134Y601018D1*
X730325Y603394D1*
X723195D1*
X718387Y601018D1*
X716010Y593833D1*
Y569901D1*
Y593833D2*
X708825Y601018D1*
X704017Y603394D1*
X696887D1*
X692079Y601018D1*
X689647Y593833D1*
Y569901D1*
X674207Y589024D2*
X645523D1*
Y593833D1*
X647899Y598641D1*
X650276Y601018D1*
X655084Y603394D1*
X662269D1*
X667022Y601018D1*
X671831Y596209D1*
X674207Y589024D1*
Y584271D1*
X671831Y577086D1*
X667022Y572333D1*
X662269Y569901D1*
X655084D1*
X650276Y572333D1*
X645523Y577086D1*
X630083Y603394D2*
Y569901D1*
Y593833D2*
X622898Y601018D1*
X618090Y603394D1*
X610960D1*
X606152Y601018D1*
X603775Y593833D1*
Y569901D1*
X581151Y620141D2*
Y579463D1*
X578774Y572333D1*
X573966Y569901D1*
X569212D1*
X588336Y603394D2*
X571589D1*
X551397Y574709D2*
X553773Y572278D1*
X551397Y569901D1*
X548965Y572278D1*
X551397Y574709D1*
X2157709Y1429564D2*
D87*
X2169116Y1423860D1*
X2180657Y1412320D1*
X2186360Y1395076D1*
Y1383668D1*
X2180657Y1366424D1*
X2169116Y1355016D1*
X2157709Y1349180D1*
X2140465D1*
X2128924Y1355016D1*
X2117517Y1366424D1*
X2111680Y1383668D1*
Y1395076D1*
X2117517Y1412320D1*
X2128924Y1423860D1*
X2140465Y1429564D1*
X2157709D1*
X2074626Y1469756D2*
X2068922Y1464052D1*
X2063086Y1469756D1*
X2068922Y1475592D1*
X2074626Y1469756D1*
X2068922Y1429564D2*
Y1349180D1*
X2008787Y1469756D2*
Y1372128D1*
X2003084Y1355016D1*
X1991543Y1349180D1*
X1980136D1*
X2026032Y1429564D2*
X1985840D1*
X1937378Y1360720D2*
X1943081Y1354884D1*
X1937378Y1349180D1*
X1931541Y1354884D1*
X1937378Y1360720D1*
X1894487Y1395076D2*
X1825643D1*
Y1406616D1*
X1831347Y1418156D1*
X1837051Y1423860D1*
X1848591Y1429564D1*
X1865835D1*
X1877243Y1423860D1*
X1888783Y1412320D1*
X1894487Y1395076D1*
Y1383668D1*
X1888783Y1366424D1*
X1877243Y1355016D1*
X1865835Y1349180D1*
X1848591D1*
X1837051Y1355016D1*
X1825643Y1366424D1*
X1719745Y1469756D2*
Y1349180D1*
Y1412320D2*
X1731153Y1423860D1*
X1742693Y1429564D1*
X1759937D1*
X1771345Y1423860D1*
X1782885Y1412320D1*
X1788589Y1395076D1*
Y1383668D1*
X1782885Y1366424D1*
X1771345Y1355016D1*
X1759937Y1349180D1*
X1742693D1*
X1731153Y1355016D1*
X1719745Y1366424D1*
X1682691Y1429564D2*
Y1372128D1*
X1676987Y1355016D1*
X1665447Y1349180D1*
X1648203D1*
X1636795Y1355016D1*
X1619551Y1372128D1*
Y1429564D2*
Y1349180D1*
X1582497D2*
X1502113Y1469623D1*
X1396082Y1412320D2*
X1407623Y1423860D1*
X1419163Y1429564D1*
X1436274D1*
X1447815Y1423860D1*
X1459222Y1412320D1*
X1465059Y1395076D1*
Y1383668D1*
X1459222Y1366424D1*
X1447815Y1355016D1*
X1436274Y1349180D1*
X1419163D1*
X1407623Y1355016D1*
X1396082Y1366424D1*
X1295888Y1412320D2*
X1301592Y1423860D1*
X1318836Y1429564D1*
X1336080D1*
X1353324Y1423860D1*
X1359028Y1412320D1*
X1353324Y1400912D1*
X1341784Y1395076D1*
X1313132Y1389372D1*
X1301592Y1383668D1*
X1295888Y1372128D1*
Y1366424D1*
X1301592Y1355016D1*
X1318836Y1349180D1*
X1336080D1*
X1353324Y1355016D1*
X1359028Y1366424D1*
X1258834Y1395076D2*
X1189990D1*
Y1406616D1*
X1195694Y1418156D1*
X1201398Y1423860D1*
X1212938Y1429564D1*
X1230182D1*
X1241590Y1423860D1*
X1253130Y1412320D1*
X1258834Y1395076D1*
Y1383668D1*
X1253130Y1366424D1*
X1241590Y1355016D1*
X1230182Y1349180D1*
X1212938D1*
X1201398Y1355016D1*
X1189990Y1366424D1*
X1135692Y1469756D2*
Y1372128D1*
X1129988Y1355016D1*
X1118448Y1349180D1*
X1107040D1*
X1152936Y1429564D2*
X1112744D1*
X2565441Y1926649D2*
D83*
X2568768Y1933304D1*
X2575500Y1940036D1*
X2582154Y1943363D1*
X2595541D1*
X2602273Y1940036D1*
X2608927Y1933304D1*
X2612332Y1926649D1*
X2615659Y1916590D1*
Y1899799D1*
X2612332Y1889818D1*
X2608927Y1883086D1*
X2602273Y1876431D1*
X2595541Y1873027D1*
X2582154D1*
X2575500Y1876431D1*
X2568768Y1883086D1*
X2565441Y1889818D1*
X2527112Y1919917D2*
X2533767Y1916590D1*
X2540499Y1909858D1*
X2543826Y1899799D1*
Y1893145D1*
X2540499Y1883086D1*
X2533767Y1876431D1*
X2527112Y1873027D1*
X2517053D1*
X2510322Y1876431D1*
X2503667Y1883086D1*
X2500263Y1893145D1*
Y1899799D1*
X2503667Y1909858D1*
X2510322Y1916590D1*
X2517053Y1919917D1*
X2527112D1*
X2478648D2*
Y1873027D1*
Y1906531D2*
X2468589Y1916590D1*
X2461857Y1919917D1*
X2451875D1*
X2445143Y1916590D1*
X2441816Y1906531D1*
Y1873027D1*
Y1906531D2*
X2431757Y1916590D1*
X2425025Y1919917D1*
X2415043D1*
X2408312Y1916590D1*
X2404907Y1906531D1*
Y1873027D1*
X2383292Y1919917D2*
Y1849581D1*
Y1909858D2*
X2376560Y1916513D1*
X2369906Y1919917D1*
X2359847D1*
X2353115Y1916513D1*
X2346460Y1909858D1*
X2343056Y1899799D1*
Y1893068D1*
X2346460Y1883086D1*
X2353115Y1876354D1*
X2359847Y1873027D1*
X2369906D1*
X2376560Y1876354D1*
X2383292Y1883086D1*
X2321441Y1919917D2*
Y1886413D1*
X2318114Y1876431D1*
X2311382Y1873027D1*
X2301323D1*
X2294668Y1876431D1*
X2284609Y1886413D1*
Y1919917D2*
Y1873027D1*
X2252935Y1943363D2*
Y1886413D1*
X2249608Y1876431D1*
X2242876Y1873027D1*
X2236222D1*
X2262994Y1919917D2*
X2239549D1*
X2214607Y1899799D2*
X2174448D1*
Y1906531D1*
X2177775Y1913263D1*
X2181102Y1916590D1*
X2187834Y1919917D1*
X2197893D1*
X2204548Y1916590D1*
X2211280Y1909858D1*
X2214607Y1899799D1*
Y1893145D1*
X2211280Y1883086D1*
X2204548Y1876431D1*
X2197893Y1873027D1*
X2187834D1*
X2181102Y1876431D1*
X2174448Y1883086D1*
X2152833Y1919917D2*
Y1873027D1*
Y1899799D2*
X2149428Y1909858D1*
X2142774Y1916590D1*
X2136042Y1919917D1*
X2125983D1*
X2033000Y1879759D2*
X2036327Y1876354D1*
X2033000Y1873027D1*
X2029595Y1876354D1*
X2033000Y1879759D1*
X1893048Y1933304D2*
X1899702Y1940036D1*
X1909761Y1943363D1*
X1923148D1*
X1933207Y1940036D1*
X1939939Y1933304D1*
Y1926649D1*
X1936534Y1919917D1*
X1933207Y1916590D1*
X1926552Y1913263D1*
X1906434Y1906531D1*
X1899702Y1903204D1*
X1896375Y1899799D1*
X1893048Y1893145D1*
Y1883086D1*
X1899702Y1876431D1*
X1909761Y1873027D1*
X1923148D1*
X1933207Y1876431D1*
X1939939Y1883086D1*
X1854720Y1919917D2*
X1861374Y1916590D1*
X1868106Y1909858D1*
X1871433Y1899799D1*
Y1893145D1*
X1868106Y1883086D1*
X1861374Y1876431D1*
X1854720Y1873027D1*
X1844660D1*
X1837929Y1876431D1*
X1831274Y1883086D1*
X1827870Y1893145D1*
Y1899799D1*
X1831274Y1909858D1*
X1837929Y1916590D1*
X1844660Y1919917D1*
X1854720D1*
X1779482Y1943363D2*
X1786137D1*
X1792868Y1940036D1*
X1796196Y1929977D1*
Y1873027D1*
X1806255Y1919917D2*
X1782809D1*
X1747808Y1943363D2*
Y1886413D1*
X1744481Y1876431D1*
X1737749Y1873027D1*
X1731095D1*
X1757867Y1919917D2*
X1734422D1*
X1709480D2*
X1696093Y1873027D1*
X1682707Y1919917D1*
X1669321Y1873027D1*
X1655934Y1919917D1*
X1594161D2*
Y1873027D1*
Y1909858D2*
X1600815Y1916590D1*
X1607547Y1919917D1*
X1617529D1*
X1624260Y1916590D1*
X1630915Y1909858D1*
X1634320Y1899799D1*
Y1893145D1*
X1630915Y1883086D1*
X1624260Y1876431D1*
X1617529Y1873027D1*
X1607547D1*
X1600815Y1876431D1*
X1594161Y1883086D1*
X1572546Y1919917D2*
Y1873027D1*
Y1899799D2*
X1569141Y1909858D1*
X1562487Y1916590D1*
X1555755Y1919917D1*
X1545696D1*
X1524081Y1899799D2*
X1483922D1*
Y1906531D1*
X1487249Y1913263D1*
X1490576Y1916590D1*
X1497308Y1919917D1*
X1507367D1*
X1514022Y1916590D1*
X1520754Y1909858D1*
X1524081Y1899799D1*
Y1893145D1*
X1520754Y1883086D1*
X1514022Y1876431D1*
X1507367Y1873027D1*
X1497308D1*
X1490576Y1876431D1*
X1483922Y1883086D1*
X1390938Y1879759D2*
X1394266Y1876354D1*
X1390938Y1873027D1*
X1387534Y1876354D1*
X1390938Y1879759D1*
X1254392Y1943363D2*
X1297878D1*
Y1873027D1*
X1254392D1*
X1297878Y1909858D2*
X1271105D1*
X1232777Y1919917D2*
Y1873027D1*
Y1906531D2*
X1222718Y1916590D1*
X1215986Y1919917D1*
X1206004D1*
X1199272Y1916590D1*
X1195945Y1906531D1*
Y1873027D1*
Y1906531D2*
X1185886Y1916590D1*
X1179154Y1919917D1*
X1169172D1*
X1162441Y1916590D1*
X1159036Y1906531D1*
Y1873027D1*
X1137421Y1943363D2*
Y1873027D1*
Y1909858D2*
X1130689Y1916590D1*
X1124035Y1919917D1*
X1113976D1*
X1107321Y1916590D1*
X1100589Y1909858D1*
X1097262Y1899799D1*
Y1893145D1*
X1100589Y1883086D1*
X1107321Y1876431D1*
X1113976Y1873027D1*
X1124035D1*
X1130689Y1876431D1*
X1137421Y1883086D1*
X1075647Y1899799D2*
X1035488D1*
Y1906531D1*
X1038816Y1913263D1*
X1042143Y1916590D1*
X1048875Y1919917D1*
X1058934D1*
X1065588Y1916590D1*
X1072320Y1909858D1*
X1075647Y1899799D1*
Y1893145D1*
X1072320Y1883086D1*
X1065588Y1876431D1*
X1058934Y1873027D1*
X1048875D1*
X1042143Y1876431D1*
X1035488Y1883086D1*
X973715Y1943363D2*
Y1873027D1*
Y1909858D2*
X980369Y1916590D1*
X987101Y1919917D1*
X997160D1*
X1003814Y1916590D1*
X1010546Y1909858D1*
X1013873Y1899799D1*
Y1893145D1*
X1010546Y1883086D1*
X1003814Y1876431D1*
X997160Y1873027D1*
X987101D1*
X980369Y1876431D1*
X973715Y1883086D1*
X911941Y1943363D2*
Y1873027D1*
Y1909858D2*
X918595Y1916590D1*
X925327Y1919917D1*
X935386D1*
X942041Y1916590D1*
X948772Y1909858D1*
X952100Y1899799D1*
Y1893145D1*
X948772Y1883086D1*
X942041Y1876431D1*
X935386Y1873027D1*
X925327D1*
X918595Y1876431D1*
X911941Y1883086D1*
X890326Y1899799D2*
X850167D1*
Y1906531D1*
X853494Y1913263D1*
X856821Y1916590D1*
X863553Y1919917D1*
X873612D1*
X880267Y1916590D1*
X886999Y1909858D1*
X890326Y1899799D1*
Y1893145D1*
X886999Y1883086D1*
X880267Y1876431D1*
X873612Y1873027D1*
X863553D1*
X856821Y1876431D1*
X850167Y1883086D1*
X788393Y1943363D2*
Y1873027D1*
Y1909858D2*
X795048Y1916590D1*
X801780Y1919917D1*
X811839D1*
X818493Y1916590D1*
X825225Y1909858D1*
X828552Y1899799D1*
Y1893145D1*
X825225Y1883086D1*
X818493Y1876431D1*
X811839Y1873027D1*
X801780D1*
X795048Y1876431D1*
X788393Y1883086D1*
X2221053Y1789184D2*
X2264539D1*
Y1718848D1*
X2221053D1*
X2264539Y1755680D2*
X2237766D1*
X2199438Y1765739D2*
Y1718848D1*
Y1752353D2*
X2189379Y1762412D1*
X2182647Y1765739D1*
X2172665D1*
X2165933Y1762412D1*
X2162606Y1752353D1*
Y1718848D1*
X2100832Y1762412D2*
Y1708789D1*
X2104160Y1698808D1*
X2107487Y1695403D1*
X2114219Y1692076D1*
X2124278D1*
X2130932Y1695403D1*
X2100832Y1752353D2*
X2107487Y1759007D1*
X2114219Y1762412D1*
X2124278D1*
X2130932Y1759007D1*
X2137664Y1752353D1*
X2140991Y1742294D1*
Y1735562D1*
X2137664Y1725580D1*
X2130932Y1718848D1*
X2124278Y1715521D1*
X2114219D1*
X2107487Y1718848D1*
X2100832Y1725580D1*
X2079218Y1789184D2*
X2075890Y1785857D1*
X2072486Y1789184D1*
X2075890Y1792589D1*
X2079218Y1789184D1*
X2075890Y1765739D2*
Y1718848D1*
X2050871Y1765739D2*
Y1718848D1*
Y1752353D2*
X2040812Y1762412D1*
X2034080Y1765739D1*
X2024098D1*
X2017366Y1762412D1*
X2014039Y1752353D1*
Y1718848D1*
X1992424Y1745621D2*
X1952265D1*
Y1752353D1*
X1955593Y1759085D1*
X1958920Y1762412D1*
X1965652Y1765739D1*
X1975711D1*
X1982365Y1762412D1*
X1989097Y1755680D1*
X1992424Y1745621D1*
Y1738966D1*
X1989097Y1728907D1*
X1982365Y1722253D1*
X1975711Y1718848D1*
X1965652D1*
X1958920Y1722253D1*
X1952265Y1728907D1*
X1930650Y1745621D2*
X1890492D1*
Y1752353D1*
X1893819Y1759085D1*
X1897146Y1762412D1*
X1903878Y1765739D1*
X1913937D1*
X1920591Y1762412D1*
X1927323Y1755680D1*
X1930650Y1745621D1*
Y1738966D1*
X1927323Y1728907D1*
X1920591Y1722253D1*
X1913937Y1718848D1*
X1903878D1*
X1897146Y1722253D1*
X1890492Y1728907D1*
X1868877Y1765739D2*
Y1718848D1*
Y1745621D2*
X1865472Y1755680D1*
X1858818Y1762412D1*
X1852086Y1765739D1*
X1842027D1*
X1820412Y1789184D2*
X1817084Y1785857D1*
X1813680Y1789184D1*
X1817084Y1792589D1*
X1820412Y1789184D1*
X1817084Y1765739D2*
Y1718848D1*
X1792065Y1765739D2*
Y1718848D1*
Y1752353D2*
X1782006Y1762412D1*
X1775274Y1765739D1*
X1765292D1*
X1758561Y1762412D1*
X1755233Y1752353D1*
Y1718848D1*
X1693460Y1762412D2*
Y1708789D1*
X1696787Y1698808D1*
X1700114Y1695403D1*
X1706846Y1692076D1*
X1716905D1*
X1723559Y1695403D1*
X1693460Y1752353D2*
X1700114Y1759007D1*
X1706846Y1762412D1*
X1716905D1*
X1723559Y1759007D1*
X1730291Y1752353D1*
X1733618Y1742294D1*
Y1735562D1*
X1730291Y1725580D1*
X1723559Y1718848D1*
X1716905Y1715521D1*
X1706846D1*
X1700114Y1718848D1*
X1693460Y1725580D1*
X1603693Y1777597D2*
D84*
Y1717309D1*
X1623789Y1777597D2*
X1583597D1*
X1565070Y1740257D2*
X1530648D1*
Y1746027D1*
X1533500Y1751797D1*
X1536352Y1754649D1*
X1542122Y1757501D1*
X1550744D1*
X1556448Y1754649D1*
X1562218Y1748879D1*
X1565070Y1740257D1*
Y1734553D1*
X1562218Y1725931D1*
X1556448Y1720227D1*
X1550744Y1717309D1*
X1542122D1*
X1536352Y1720227D1*
X1530648Y1725931D1*
X1477633Y1748879D2*
X1483403Y1754649D1*
X1489173Y1757501D1*
X1497729D1*
X1503499Y1754649D1*
X1509203Y1748879D1*
X1512121Y1740257D1*
Y1734553D1*
X1509203Y1725931D1*
X1503499Y1720227D1*
X1497729Y1717309D1*
X1489173D1*
X1483403Y1720227D1*
X1477633Y1725931D1*
X1459106Y1777597D2*
Y1717309D1*
Y1746027D2*
X1450484Y1754649D1*
X1444714Y1757501D1*
X1436092D1*
X1430388Y1754649D1*
X1427536Y1746027D1*
Y1717309D1*
X1409009Y1757501D2*
Y1717309D1*
Y1746027D2*
X1400387Y1754649D1*
X1394617Y1757501D1*
X1386061D1*
X1380291Y1754649D1*
X1377439Y1746027D1*
Y1717309D1*
X1344586Y1757501D2*
X1350290Y1754649D1*
X1356060Y1748879D1*
X1358912Y1740257D1*
Y1734553D1*
X1356060Y1725931D1*
X1350290Y1720227D1*
X1344586Y1717309D1*
X1335964D1*
X1330194Y1720227D1*
X1324490Y1725931D1*
X1321572Y1734553D1*
Y1740257D1*
X1324490Y1748879D1*
X1330194Y1754649D1*
X1335964Y1757501D1*
X1344586D1*
X1303045Y1777597D2*
Y1717309D1*
X1270192Y1757501D2*
X1275896Y1754649D1*
X1281666Y1748879D1*
X1284518Y1740257D1*
Y1734553D1*
X1281666Y1725931D1*
X1275896Y1720227D1*
X1270192Y1717309D1*
X1261570D1*
X1255800Y1720227D1*
X1250096Y1725931D1*
X1247178Y1734553D1*
Y1740257D1*
X1250096Y1748879D1*
X1255800Y1754649D1*
X1261570Y1757501D1*
X1270192D1*
X1194229Y1754649D2*
Y1708687D1*
X1197081Y1700131D1*
X1199932Y1697213D1*
X1205703Y1694361D1*
X1214325D1*
X1220028Y1697213D1*
X1194229Y1746027D2*
X1199932Y1751731D1*
X1205703Y1754649D1*
X1214325D1*
X1220028Y1751731D1*
X1225799Y1746027D1*
X1228650Y1737405D1*
Y1731635D1*
X1225799Y1723079D1*
X1220028Y1717309D1*
X1214325Y1714457D1*
X1205703D1*
X1199932Y1717309D1*
X1194229Y1723079D1*
X1172783Y1757501D2*
X1155606Y1717309D1*
X1161309Y1705835D1*
X1167079Y1700065D1*
X1172783Y1697213D1*
X1175702D1*
X1138361Y1757501D2*
X1155606Y1717309D1*
X2049900Y2063871D2*
D82*
X2015412D1*
X2004004Y2067674D1*
X2000113Y2071565D1*
X1996311Y2079170D1*
Y2090666D1*
X2000113Y2098271D1*
X2004004Y2102162D1*
X2015412Y2105965D1*
X2049900D1*
Y2025581D1*
X1971608Y2079170D2*
Y2025581D1*
Y2056178D2*
X1967717Y2067674D1*
X1960112Y2075367D1*
X1952418Y2079170D1*
X1940922D1*
X1897118D2*
X1904723Y2075367D1*
X1912417Y2067674D1*
X1916220Y2056178D1*
Y2048573D1*
X1912417Y2037077D1*
X1904723Y2029471D1*
X1897118Y2025581D1*
X1885622D1*
X1877929Y2029471D1*
X1870324Y2037077D1*
X1866433Y2048573D1*
Y2056178D1*
X1870324Y2067674D1*
X1877929Y2075367D1*
X1885622Y2079170D1*
X1897118D1*
X1795834Y2075367D2*
Y2014084D1*
X1799637Y2002677D1*
X1803439Y1998786D1*
X1811133Y1994983D1*
X1822629D1*
X1830234Y1998786D1*
X1795834Y2063871D2*
X1803439Y2071476D1*
X1811133Y2075367D1*
X1822629D1*
X1830234Y2071476D1*
X1837927Y2063871D1*
X1841730Y2052375D1*
Y2044682D1*
X1837927Y2033274D1*
X1830234Y2025581D1*
X1822629Y2021778D1*
X1811133D1*
X1803439Y2025581D1*
X1795834Y2033274D1*
X1771131Y2079170D2*
Y2025581D1*
Y2056178D2*
X1767240Y2067674D1*
X1759635Y2075367D1*
X1751942Y2079170D1*
X1740446D1*
X1669847D2*
Y2025581D1*
Y2067674D2*
X1677452Y2075367D1*
X1685146Y2079170D1*
X1696553D1*
X1704247Y2075367D1*
X1711852Y2067674D1*
X1715743Y2056178D1*
Y2048573D1*
X1711852Y2037077D1*
X1704247Y2029471D1*
X1696553Y2025581D1*
X1685146D1*
X1677452Y2029471D1*
X1669847Y2037077D1*
X1645144Y2079170D2*
Y2025581D1*
Y2063871D2*
X1633648Y2075367D1*
X1625955Y2079170D1*
X1614547D1*
X1606854Y2075367D1*
X1603051Y2063871D1*
Y2025581D1*
Y2063871D2*
X1591555Y2075367D1*
X1583861Y2079170D1*
X1572454D1*
X1564760Y2075367D1*
X1560869Y2063871D1*
Y2025581D1*
X1494073Y2067674D2*
X1497876Y2075367D1*
X1509372Y2079170D1*
X1520868D1*
X1532364Y2075367D1*
X1536166Y2067674D1*
X1532364Y2060069D1*
X1524670Y2056178D1*
X1505569Y2052375D1*
X1497876Y2048573D1*
X1494073Y2040879D1*
Y2037077D1*
X1497876Y2029471D1*
X1509372Y2025581D1*
X1520868D1*
X1532364Y2029471D1*
X1536166Y2037077D1*
X1391609Y2105965D2*
X1387806Y2102162D1*
X1383915Y2105965D1*
X1387806Y2109855D1*
X1391609Y2105965D1*
X1387806Y2079170D2*
Y2025581D1*
X1359213Y2079170D2*
Y2025581D1*
Y2063871D2*
X1347716Y2075367D1*
X1340023Y2079170D1*
X1328615D1*
X1320922Y2075367D1*
X1317119Y2063871D1*
Y2025581D1*
X1288525Y2079170D2*
X1292416Y2075279D1*
X1288525Y2071476D1*
X1284723Y2075279D1*
X1288525Y2079170D1*
Y2033274D2*
X1292416Y2029383D1*
X1288525Y2025581D1*
X1284723Y2029383D1*
X1288525Y2033274D1*
M02*
