M48
INCH
T01C0.019
T02C0.028
T03C0.035
T04C0.0354
T05C0.0362
T06C0.038
T07C0.0433
T08C0.0906
%
T01
X+034560Y+016521
X+033560Y+020770
X+030617Y+025848
X+028231Y+025792
X+034476Y+026568
X+020959Y+026584
X+023394Y+018280
X+032736Y+012056
X+025436Y+005022
X+006782Y+012255
T02
X+032548Y+030221
X+031548Y+030221
X+014197Y+026987
X+013197Y+026987
T03
X+019498Y+006624
X+018936Y+006624
X+018373Y+006624
X+017811Y+006624
T04
X+023558Y+026566
X+022439Y+028223
X+028027Y+029485
X+030027Y+029485
X+025834Y+020958
X+025834Y+019958
X+030436Y+019020
X+030436Y+018020
X+030436Y+017020
X+030436Y+016020
X+030436Y+015020
X+030436Y+014020
X+030436Y+013020
X+033436Y+013020
X+033436Y+014020
X+033436Y+015020
X+033436Y+016020
X+033436Y+017020
X+033436Y+018020
X+033436Y+019020
X+037421Y+019896
X+037421Y+020896
X+010341Y+011701
X+010341Y+009930
X+007782Y+009930
X+008021Y+008468
X+008021Y+006696
X+005462Y+006696
X+005462Y+008468
X+007782Y+011701
T05
X+035815Y+027142
X+036602Y+027142
X+036602Y+026158
X+035815Y+026158
T06
X+022687Y+021213
X+021119Y+021170
X+021119Y+025170
X+022687Y+025213
X+029586Y+025100
X+031190Y+025115
X+032737Y+025109
X+032737Y+021109
X+031190Y+021115
X+029586Y+021100
X+024249Y+005584
X+022499Y+004522
X+020249Y+005584
X+018499Y+004522
X+017185Y+004578
X+013187Y+004709
X+007763Y+013207
X+007763Y+017207
X+007686Y+018355
X+007686Y+022355
T07
X+037593Y+018044
X+037593Y+017044
X+037593Y+016044
X+037593Y+015044
X+037593Y+014044
X+037593Y+013044
X+035560Y+020270
X+035560Y+021270
X+035560Y+022270
X+034560Y+022270
X+034560Y+021270
X+034560Y+020270
X+025824Y+018069
X+025824Y+017069
X+025824Y+016069
X+025824Y+015069
X+025824Y+014069
X+025824Y+013069
T08
X+037669Y+024280
X+037669Y+029020
T00
M30
