G04 DipTrace 3.3.1.3*
G04 BoardOutline.gbr*
%MOIN*%
G04 #@! TF.FileFunction,Profile*
G04 #@! TF.Part,Single*
%ADD11C,0.005512*%
%FSLAX26Y26*%
G04*
G70*
G90*
G75*
G01*
G04 BoardOutline*
%LPD*%
X506188Y2880939D2*
D11*
X499939Y3030923D1*
X556183Y3130913D1*
X574931Y3455878D1*
X424947Y3630860D1*
X393700Y3693354D1*
X399949Y3787094D1*
X462443Y3830839D1*
X493690D1*
Y4068314D1*
X537435Y4124558D1*
X749913Y4130808D1*
X893648Y4055815D1*
X999886Y3943327D1*
X1037382Y3893333D1*
X1868545D1*
X1962285Y3999571D1*
X2068524Y4087062D1*
X2168514Y4118309D1*
X2324747Y4124558D1*
X2399739Y4087062D1*
X2412238Y4049566D1*
Y3818340D1*
X2462233D1*
X2505978Y3768346D1*
Y3668356D1*
X2424737Y3562117D1*
X2349745Y3474627D1*
X2330997Y3449629D1*
X2343495Y3162159D1*
X2393490Y3043422D1*
X2399739Y2918435D1*
X2287251Y2737204D1*
X2418487Y2649713D1*
X2537225Y2455983D1*
X2612217Y1812301D1*
X2543474Y1293606D1*
X2393490Y718666D1*
X2380991D1*
X2281002Y893648D1*
X2262254D1*
X2137267Y506188D1*
X2124768Y499939D1*
X1968535Y631175D1*
X1956036Y624926D1*
X1949787Y443695D1*
X1349850Y393700D1*
X1312354Y462443D1*
X1199865Y449944D1*
X1137372Y462443D1*
X1024884Y624926D1*
X968640Y506188D1*
X943642Y499939D1*
X881149Y793658D1*
X868650D1*
X806157Y631175D1*
X787409Y612427D1*
X556183Y1099876D1*
X406199Y1793553D1*
X399949Y2343495D1*
X474941Y2549724D1*
X562432Y2687209D1*
X618676Y2724705D1*
X524936Y2824695D1*
X506188Y2880939D1*
X2488670Y1770655D2*
M02*
