G04 DipTrace 3.3.1.3*
G04 BottomSilk.gbr*
%MOIN*%
G04 #@! TF.FileFunction,Legend,Bot*
G04 #@! TF.Part,Single*
%ADD10C,0.009843*%
%ADD12C,0.003*%
%ADD31C,0.015403*%
%ADD77C,0.004632*%
%ADD78C,0.009264*%
%ADD79C,0.006176*%
%ADD81C,0.016983*%
%ADD82C,0.00772*%
%FSLAX26Y26*%
G04*
G70*
G90*
G75*
G01*
G04 BotSilk*
%LPD*%
X1449061Y893241D2*
D10*
Y916800D1*
X1350628Y893241D2*
Y916800D1*
D31*
X1850630Y857216D3*
X1851670Y946448D2*
D10*
X1591840D1*
X1851670Y1056696D2*
X1591840D1*
Y946448D2*
Y1056696D1*
X1851670Y946448D2*
Y1056696D1*
X1478196Y1830451D2*
D12*
X1610196D1*
X1643196D2*
X1772196D1*
X1478196Y1827451D2*
X1609170D1*
X1643660D2*
X1772196D1*
X1478196Y1824451D2*
X1608278D1*
X1644403D2*
X1772196D1*
X1478196Y1821451D2*
X1607709D1*
X1645180D2*
X1772196D1*
X1478196Y1818451D2*
X1607403D1*
X1645717D2*
X1772196D1*
X1478196Y1815451D2*
X1607165D1*
X1646102D2*
X1772196D1*
X1478196Y1812451D2*
X1606717D1*
X1646623D2*
X1772196D1*
X1478196Y1809451D2*
X1605837D1*
X1647535D2*
X1772196D1*
X1478196Y1806451D2*
X1550196D1*
X1562671D2*
X1604327D1*
X1649058D2*
X1691671D1*
X1703196D2*
X1772196D1*
X1478196Y1803451D2*
X1547196D1*
X1566530D2*
X1602209D1*
X1651182D2*
X1686530D1*
X1706196D2*
X1772196D1*
X1478196Y1800451D2*
X1544208D1*
X1570778D2*
X1597063D1*
X1656329D2*
X1681778D1*
X1709184D2*
X1772196D1*
X1478196Y1797451D2*
X1541325D1*
X1575374D2*
X1590489D1*
X1662903D2*
X1677374D1*
X1712055D2*
X1772196D1*
X1478196Y1794451D2*
X1538836D1*
X1580196D2*
X1583196D1*
X1670196D2*
X1673196D1*
X1714450D2*
X1772196D1*
X1478196Y1791451D2*
X1536807D1*
X1716268D2*
X1772196D1*
X1478196Y1788451D2*
X1536235D1*
X1716123D2*
X1772196D1*
X1478196Y1785451D2*
X1537269D1*
X1715275D2*
X1772196D1*
X1478196Y1782451D2*
X1539019D1*
X1713830D2*
X1772196D1*
X1478196Y1779451D2*
X1541083D1*
X1712026D2*
X1772196D1*
X1478196Y1776451D2*
X1543114D1*
X1710149D2*
X1772196D1*
X1478196Y1773451D2*
X1545122D1*
X1708205D2*
X1772196D1*
X1478196Y1770451D2*
X1546959D1*
X1706307D2*
X1772196D1*
X1478196Y1767451D2*
X1548422D1*
X1704649D2*
X1772196D1*
X1478196Y1764451D2*
X1548205D1*
X1704132D2*
X1772196D1*
X1478196Y1761451D2*
X1547420D1*
X1704762D2*
X1772196D1*
X1478196Y1758451D2*
X1546340D1*
X1705795D2*
X1772196D1*
X1478196Y1755451D2*
X1545260D1*
X1622196D2*
X1631196D1*
X1707081D2*
X1772196D1*
X1478196Y1752451D2*
X1544196D1*
X1615401D2*
X1637991D1*
X1708544D2*
X1772196D1*
X1478196Y1749451D2*
X1542974D1*
X1609785D2*
X1643596D1*
X1710502D2*
X1772196D1*
X1478196Y1746451D2*
X1540093D1*
X1605356D2*
X1647931D1*
X1713189D2*
X1772196D1*
X1478196Y1743451D2*
X1532217D1*
X1601792D2*
X1651218D1*
X1721125D2*
X1772196D1*
X1478196Y1740451D2*
X1521084D1*
X1599003D2*
X1653671D1*
X1732289D2*
X1772196D1*
X1478196Y1737451D2*
X1508196D1*
X1596795D2*
X1655516D1*
X1745196D2*
X1772196D1*
X1478196Y1734451D2*
X1508196D1*
X1595963D2*
X1656817D1*
X1745196D2*
X1772196D1*
X1478196Y1731451D2*
X1508196D1*
X1595402D2*
X1657566D1*
X1745196D2*
X1772196D1*
X1478196Y1728451D2*
X1508196D1*
X1594737D2*
X1657934D1*
X1745196D2*
X1772196D1*
X1478196Y1725451D2*
X1508196D1*
X1593626D2*
X1658094D1*
X1745196D2*
X1772196D1*
X1478196Y1722451D2*
X1508196D1*
X1592196D2*
X1658159D1*
X1745196D2*
X1772196D1*
X1478196Y1719451D2*
X1508196D1*
X1593593D2*
X1658171D1*
X1745196D2*
X1772196D1*
X1478196Y1716451D2*
X1508196D1*
X1594571D2*
X1658063D1*
X1745196D2*
X1772196D1*
X1478196Y1713451D2*
X1508196D1*
X1595495D2*
X1657566D1*
X1745196D2*
X1772196D1*
X1478196Y1710451D2*
X1508196D1*
X1596813D2*
X1656349D1*
X1745196D2*
X1772196D1*
X1478196Y1707451D2*
X1520723D1*
X1598601D2*
X1654362D1*
X1732669D2*
X1772196D1*
X1478196Y1704451D2*
X1530345D1*
X1600805D2*
X1651852D1*
X1723047D2*
X1772196D1*
X1478196Y1701451D2*
X1537484D1*
X1603554D2*
X1649075D1*
X1715908D2*
X1772196D1*
X1478196Y1698451D2*
X1540459D1*
X1606725D2*
X1646288D1*
X1712831D2*
X1772196D1*
X1478196Y1695451D2*
X1542487D1*
X1609969D2*
X1643925D1*
X1710512D2*
X1772196D1*
X1478196Y1692451D2*
X1543906D1*
X1613196D2*
X1642121D1*
X1708662D2*
X1772196D1*
X1478196Y1689451D2*
X1545216D1*
X1611348D2*
X1642256D1*
X1707045D2*
X1772196D1*
X1478196Y1686451D2*
X1546658D1*
X1609731D2*
X1643011D1*
X1705720D2*
X1772196D1*
X1478196Y1683451D2*
X1548333D1*
X1608412D2*
X1644167D1*
X1704717D2*
X1772196D1*
X1478196Y1680451D2*
X1550196D1*
X1607299D2*
X1645530D1*
X1705424D2*
X1772196D1*
X1478196Y1677451D2*
X1547660D1*
X1606118D2*
X1646974D1*
X1706756D2*
X1772196D1*
X1478196Y1674451D2*
X1545415D1*
X1604798D2*
X1648446D1*
X1708402D2*
X1772196D1*
X1478196Y1671451D2*
X1543297D1*
X1603387D2*
X1649843D1*
X1710259D2*
X1772196D1*
X1478196Y1668451D2*
X1541205D1*
X1601922D2*
X1651054D1*
X1712235D2*
X1772196D1*
X1478196Y1665451D2*
X1539203D1*
X1600439D2*
X1652121D1*
X1714070D2*
X1772196D1*
X1478196Y1662451D2*
X1537107D1*
X1598954D2*
X1653284D1*
X1715543D2*
X1772196D1*
X1478196Y1659451D2*
X1534730D1*
X1597563D2*
X1654588D1*
X1716638D2*
X1772196D1*
X1478196Y1656451D2*
X1532196D1*
X1596447D2*
X1655919D1*
X1716161D2*
X1772196D1*
X1478196Y1653451D2*
X1536222D1*
X1595722D2*
X1657129D1*
X1714212D2*
X1772196D1*
X1478196Y1650451D2*
X1540115D1*
X1577196D2*
X1583196D1*
X1595196D2*
X1658196D1*
X1670196D2*
X1676196D1*
X1711779D2*
X1772196D1*
X1478196Y1647451D2*
X1543686D1*
X1572249D2*
X1681047D1*
X1709033D2*
X1772196D1*
X1478196Y1644451D2*
X1546995D1*
X1567269D2*
X1685681D1*
X1706136D2*
X1772196D1*
X1478196Y1641451D2*
X1550196D1*
X1562196D2*
X1690039D1*
X1703176D2*
X1772196D1*
X1478196Y1638451D2*
X1694196D1*
X1700196D2*
X1772196D1*
X1478196Y1635451D2*
X1772196D1*
X1478196Y1632451D2*
X1772196D1*
X1478196Y1629451D2*
X1772196D1*
X1478196Y1626451D2*
X1772196D1*
X1478196Y1623451D2*
X1772196D1*
X1478196Y1620451D2*
X1772173D1*
X1478208Y1617451D2*
X1771944D1*
X1478313Y1614451D2*
X1771399D1*
X1478696Y1611451D2*
X1484196D1*
X1490196D2*
X1511196D1*
X1517196D2*
X1532196D1*
X1538196D2*
X1544196D1*
X1550196D2*
X1556196D1*
X1562196D2*
X1596261D1*
X1601208D2*
X1625196D1*
X1631196D2*
X1668375D1*
X1673322D2*
X1700196D1*
X1706196D2*
X1763184D1*
X1769196D2*
X1769061D1*
X1479415Y1608451D2*
X1478196D1*
X1484196D2*
X1490196D1*
X1496196D2*
X1505196D1*
X1511196D2*
X1517196D1*
X1523070D2*
X1538196D1*
X1550196D2*
X1556196D1*
X1562196D2*
X1574196D1*
X1580196D2*
X1592367D1*
X1598325D2*
X1601196D1*
X1610660D2*
X1619196D1*
X1625196D2*
X1634009D1*
X1640035D2*
X1664319D1*
X1670824D2*
X1675606D1*
X1685196D2*
X1694786D1*
X1700196D2*
X1706196D1*
X1711721D2*
X1724786D1*
X1730786D2*
X1735606D1*
X1748196D2*
X1753732D1*
X1763196D2*
X1766067D1*
X1482800Y1605451D2*
X1493196D1*
X1499196D2*
X1519595D1*
X1525557D2*
X1539581D1*
X1550196D2*
X1556196D1*
X1562196D2*
X1574196D1*
X1580196D2*
X1589639D1*
X1595824D2*
X1603606D1*
X1611403D2*
X1632696D1*
X1639645D2*
X1662720D1*
X1669042D2*
X1677361D1*
X1685196D2*
X1693031D1*
X1698602D2*
X1707790D1*
X1713848D2*
X1723031D1*
X1729031D2*
X1737361D1*
X1748196D2*
X1752988D1*
X1760785D2*
X1768568D1*
X1481873Y1602451D2*
X1521588D1*
X1527585D2*
X1540442D1*
X1550196D2*
X1556196D1*
X1562196D2*
X1574196D1*
X1580196D2*
X1587594D1*
X1594054D2*
X1605349D1*
X1612168D2*
X1628864D1*
X1637542D2*
X1661848D1*
X1668030D2*
X1678366D1*
X1685196D2*
X1692023D1*
X1697196D2*
X1709196D1*
X1715466D2*
X1722026D1*
X1728038D2*
X1738366D1*
X1748196D2*
X1752204D1*
X1759020D2*
X1770338D1*
X1502196Y1599451D2*
X1522205D1*
X1528204D2*
X1540879D1*
X1550196D2*
X1556196D1*
X1562196D2*
X1574149D1*
X1580184D2*
X1586990D1*
X1592871D2*
X1606522D1*
X1612577D2*
X1624581D1*
X1633002D2*
X1661452D1*
X1667540D2*
X1678853D1*
X1685196D2*
X1691513D1*
X1716666D2*
X1721551D1*
X1727692D2*
X1738853D1*
X1748196D2*
X1751633D1*
X1757946D2*
X1771521D1*
X1478196Y1596451D2*
X1496196D1*
X1502196D2*
X1521576D1*
X1527596D2*
X1541072D1*
X1550196D2*
X1556196D1*
X1562196D2*
X1574009D1*
X1580070D2*
X1586987D1*
X1592978D2*
X1606335D1*
X1612635D2*
X1621084D1*
X1628499D2*
X1661291D1*
X1667329D2*
X1679064D1*
X1685196D2*
X1709196D1*
X1716314D2*
X1721454D1*
X1727780D2*
X1739064D1*
X1748196D2*
X1751196D1*
X1757196D2*
X1771414D1*
X1478196Y1593451D2*
X1519058D1*
X1526501D2*
X1541150D1*
X1550196D2*
X1556196D1*
X1562196D2*
X1572602D1*
X1579606D2*
X1587555D1*
X1595033D2*
X1605475D1*
X1611346D2*
X1618529D1*
X1625006D2*
X1661230D1*
X1667245D2*
X1679148D1*
X1685196D2*
X1708645D1*
X1715373D2*
X1721834D1*
X1729581D2*
X1739148D1*
X1748196D2*
X1769359D1*
X1478196Y1590451D2*
X1493196D1*
X1499196D2*
X1512745D1*
X1524977D2*
X1541181D1*
X1550196D2*
X1556196D1*
X1562196D2*
X1567927D1*
X1578581D2*
X1588374D1*
X1600616D2*
X1604196D1*
X1609430D2*
X1618349D1*
X1622196D2*
X1661207D1*
X1667212D2*
X1679180D1*
X1685196D2*
X1707592D1*
X1713928D2*
X1722827D1*
X1734027D2*
X1739179D1*
X1748196D2*
X1755925D1*
X1760196D2*
X1763776D1*
X1478196Y1587451D2*
D3*
X1484196D2*
X1490196D1*
X1496196D2*
X1505196D1*
X1523196D2*
X1541196D1*
X1550196D2*
X1556196D1*
X1562196D2*
D3*
X1577196D2*
X1589196D1*
X1607196D2*
X1619196D1*
X1628196D2*
X1631196D1*
X1640196D2*
X1661196D1*
X1667196D2*
X1679196D1*
X1685196D2*
X1694196D1*
X1700196D2*
X1706196D1*
X1712196D2*
X1724196D1*
X1739196D2*
X1739190D1*
X1748196D2*
X1761398D1*
X1478196Y1584451D2*
X1739194D1*
X1748196D2*
X1766286D1*
X1478196Y1581451D2*
X1739195D1*
X1748196D2*
X1769978D1*
X1478196Y1578451D2*
X1739196D1*
X1748196D2*
X1771150D1*
X1478196Y1575451D2*
X1637196D1*
X1643196D2*
X1739196D1*
X1748196D2*
X1771763D1*
X1478196Y1572451D2*
X1637196D1*
X1643208D2*
X1739196D1*
X1748196D2*
X1772030D1*
X1478196Y1569451D2*
X1637196D1*
X1643322D2*
X1739196D1*
X1748196D2*
X1772136D1*
X1478196Y1566451D2*
X1637196D1*
X1643786D2*
X1739196D1*
X1748196D2*
X1772175D1*
X1478196Y1563451D2*
X1514671D1*
X1529070D2*
X1536891D1*
X1550196D2*
D3*
X1556196D2*
X1568671D1*
X1586196D2*
X1592310D1*
X1598310D2*
X1610196D1*
X1616196D2*
X1628774D1*
X1634774D2*
X1637196D1*
X1644811D2*
X1644542D1*
X1658070D2*
X1664196D1*
X1676196D2*
X1679196D1*
X1685196D2*
X1694786D1*
X1712196D2*
X1724786D1*
X1739196D2*
D3*
X1748196D2*
X1772189D1*
X1478196Y1560451D2*
X1512532D1*
X1517196D2*
X1526196D1*
X1531568D2*
X1542898D1*
X1556196D2*
X1566532D1*
X1571196D2*
X1592695D1*
X1598695D2*
X1607196D1*
X1616196D2*
X1626914D1*
X1632914D2*
X1637196D1*
X1646196D2*
X1650190D1*
X1660568D2*
X1676196D1*
X1685196D2*
X1693031D1*
X1697196D2*
X1723031D1*
X1730196D2*
X1739196D1*
X1748196D2*
X1772194D1*
X1478196Y1557451D2*
X1510808D1*
X1517196D2*
X1527790D1*
X1533350D2*
X1547376D1*
X1556196D2*
X1564809D1*
X1571196D2*
X1593414D1*
X1599414D2*
X1625527D1*
X1631527D2*
X1637196D1*
X1644823D2*
X1654467D1*
X1662350D2*
X1677581D1*
X1685196D2*
X1692026D1*
X1697196D2*
X1722026D1*
X1728811D2*
X1739196D1*
X1748196D2*
X1772195D1*
X1478196Y1554451D2*
X1509543D1*
X1517196D2*
X1529196D1*
X1534351D2*
X1548848D1*
X1556196D2*
X1563552D1*
X1571196D2*
X1594191D1*
X1600191D2*
X1613196D1*
X1619196D2*
X1624321D1*
X1630309D2*
X1637196D1*
X1644067D2*
X1656520D1*
X1663351D2*
X1678442D1*
X1685196D2*
X1691539D1*
X1697196D2*
X1721539D1*
X1727950D2*
X1739196D1*
X1748196D2*
X1772196D1*
X1478196Y1551451D2*
X1508756D1*
X1534726D2*
X1549630D1*
X1556196D2*
X1562818D1*
X1579147D2*
X1594760D1*
X1600760D2*
X1604196D1*
X1610196D2*
X1613196D1*
X1619196D2*
X1623333D1*
X1629215D2*
X1637196D1*
X1644015D2*
X1657196D1*
X1663726D2*
X1678879D1*
X1685196D2*
X1691328D1*
X1705779D2*
X1721328D1*
X1727514D2*
X1739196D1*
X1748196D2*
X1772196D1*
X1478196Y1548451D2*
X1529196D1*
X1534474D2*
X1549978D1*
X1556196D2*
X1562455D1*
X1571196D2*
X1583196D1*
X1585282D2*
X1595196D1*
X1601196D2*
X1622678D1*
X1628142D2*
X1637196D1*
X1644565D2*
X1656692D1*
X1663474D2*
X1679072D1*
X1685196D2*
X1691244D1*
X1697196D2*
X1709196D1*
X1712489D2*
X1721244D1*
X1727320D2*
X1739196D1*
X1748196D2*
X1772196D1*
X1478196Y1545451D2*
X1527790D1*
X1533535D2*
X1550120D1*
X1556196D2*
X1562291D1*
X1571196D2*
X1583196D1*
X1587506D2*
X1601196D1*
X1607196D2*
X1616196D1*
X1622196D2*
D3*
X1626790D2*
X1637196D1*
X1645378D2*
X1655955D1*
X1662535D2*
X1679153D1*
X1685196D2*
X1691212D1*
X1697196D2*
X1712196D1*
X1718196D2*
X1721212D1*
X1727239D2*
X1739196D1*
X1748196D2*
X1772196D1*
X1478196Y1542451D2*
X1511196D1*
X1517196D2*
X1526196D1*
X1532196D2*
X1550196D1*
X1556196D2*
X1562196D1*
X1571196D2*
X1583196D1*
X1589196D2*
X1598196D1*
X1607196D2*
X1616196D1*
X1625196D2*
X1637196D1*
X1646196D2*
X1655196D1*
X1661196D2*
X1679196D1*
X1685196D2*
X1691196D1*
X1697196D2*
X1709196D1*
X1715196D2*
X1721196D1*
X1727196D2*
X1739196D1*
X1748196D2*
X1772196D1*
X915396Y2546724D2*
X1416396D1*
X915396Y2543724D2*
X1416396D1*
X915396Y2540724D2*
X1416396D1*
X915396Y2537724D2*
X1416396D1*
X915396Y2534724D2*
X1416396D1*
X915396Y2531724D2*
X1416396D1*
X915396Y2528724D2*
X1416396D1*
X915396Y2525724D2*
X1416396D1*
X915396Y2522724D2*
X1416396D1*
X915396Y2519724D2*
X1416396D1*
X915396Y2516724D2*
X1416396D1*
X915396Y2513724D2*
X1416396D1*
X915396Y2510724D2*
X1416396D1*
X915396Y2507724D2*
X1110997D1*
X1130102D2*
X1416396D1*
X1992396D2*
X2019396D1*
X915396Y2504724D2*
X951396D1*
X984396D2*
X1017396D1*
X1053396D2*
X1103360D1*
X1139215D2*
X1188396D1*
X1278396D2*
X1290396D1*
X1383396D2*
X1416396D1*
X1985498D2*
X2025832D1*
X915396Y2501724D2*
X951396D1*
X984396D2*
X1017396D1*
X1053396D2*
X1096854D1*
X1146376D2*
X1188396D1*
X1278396D2*
X1290396D1*
X1383396D2*
X1416396D1*
X1979603D2*
X2031467D1*
X915396Y2498724D2*
X951396D1*
X984396D2*
X1017396D1*
X1053396D2*
X1091597D1*
X1151977D2*
X1188396D1*
X1278396D2*
X1290396D1*
X1383396D2*
X1416396D1*
X1974825D2*
X2035935D1*
X915396Y2495724D2*
X951396D1*
X984396D2*
X1017396D1*
X1053396D2*
X1087479D1*
X1156274D2*
X1188396D1*
X1278396D2*
X1290396D1*
X1383396D2*
X1416396D1*
X1971105D2*
X2039334D1*
X915396Y2492724D2*
X951396D1*
X984396D2*
X1017396D1*
X1053396D2*
X1084299D1*
X1159447D2*
X1188396D1*
X1278396D2*
X1290396D1*
X1383396D2*
X1416396D1*
X1968168D2*
X2041947D1*
X915396Y2489724D2*
X951396D1*
X984396D2*
X1017396D1*
X1053396D2*
X1081892D1*
X1161997D2*
X1188396D1*
X1278396D2*
X1290396D1*
X1383396D2*
X1416396D1*
X1965693D2*
X2044210D1*
X915396Y2486724D2*
X951396D1*
X984396D2*
X1017396D1*
X1053396D2*
X1080054D1*
X1164261D2*
X1188396D1*
X1278396D2*
X1290396D1*
X1383396D2*
X1416396D1*
X1668396D2*
X1686396D1*
X1963626D2*
X2046345D1*
X915396Y2483724D2*
X951396D1*
X984396D2*
X1017396D1*
X1053396D2*
X1078654D1*
X1166231D2*
X1188396D1*
X1278396D2*
X1290396D1*
X1383396D2*
X1416396D1*
X1668396D2*
X1689270D1*
X1961849D2*
X2048250D1*
X915396Y2480724D2*
X951396D1*
X984396D2*
X1017396D1*
X1053396D2*
X1077513D1*
X1113396D2*
X1128396D1*
X1167967D2*
X1245396D1*
X1278396D2*
X1290396D1*
X1383396D2*
X1416396D1*
X1668396D2*
X1691768D1*
X1960235D2*
X2001997D1*
X2010396D2*
X2049873D1*
X915396Y2477724D2*
X951396D1*
X984396D2*
X1017396D1*
X1053396D2*
X1076322D1*
X1110522D2*
X1131641D1*
X1169577D2*
X1245396D1*
X1278396D2*
X1317396D1*
X1353396D2*
X1416396D1*
X1668396D2*
X1693549D1*
X1958781D2*
X1997348D1*
X2013384D2*
X2051186D1*
X915396Y2474724D2*
X951396D1*
X984396D2*
X1017396D1*
X1053396D2*
X1075011D1*
X1108012D2*
X1134213D1*
X1171118D2*
X1245396D1*
X1278396D2*
X1317396D1*
X1353396D2*
X1416396D1*
X1668396D2*
X1694565D1*
X1957549D2*
X1993737D1*
X2016267D2*
X2052284D1*
X915396Y2471724D2*
X951396D1*
X984396D2*
X1017396D1*
X1053396D2*
X1073705D1*
X1106125D2*
X1136244D1*
X1172626D2*
X1245396D1*
X1278396D2*
X1317396D1*
X1353396D2*
X1416396D1*
X1620396D2*
D3*
X1668396D2*
X1695078D1*
X1719396D2*
D3*
X1821396D2*
D3*
X1956486D2*
X1991086D1*
X2018767D2*
X2053357D1*
X915396Y2468724D2*
X951396D1*
X984396D2*
X1017396D1*
X1053396D2*
X1072633D1*
X1104730D2*
X1137875D1*
X1174024D2*
X1245396D1*
X1278396D2*
X1317396D1*
X1353396D2*
X1416396D1*
X1488396D2*
X1512396D1*
X1527396D2*
X1554396D1*
X1608982D2*
X1635396D1*
X1668396D2*
X1695396D1*
X1704396D2*
X1737396D1*
X1812752D2*
X1836396D1*
X1872396D2*
X1884396D1*
X1905396D2*
X1929396D1*
X1955426D2*
X1989144D1*
X2020561D2*
X2054295D1*
X915396Y2465724D2*
X951396D1*
X984396D2*
X1017396D1*
X1053396D2*
X1071962D1*
X1103522D2*
X1139091D1*
X1175134D2*
X1245396D1*
X1278396D2*
X1317396D1*
X1353396D2*
X1416396D1*
X1484022D2*
X1516989D1*
X1527396D2*
X1557396D1*
X1600049D2*
X1640794D1*
X1668396D2*
X1742806D1*
X1805530D2*
X1841806D1*
X1873780D2*
X1888769D1*
X1905396D2*
X1930802D1*
X1954506D2*
X1987801D1*
X2021679D2*
X2054986D1*
X915396Y2462724D2*
X951396D1*
X984396D2*
X1017396D1*
X1053396D2*
X1071514D1*
X1102541D2*
X1139906D1*
X1175809D2*
X1245396D1*
X1278396D2*
X1317396D1*
X1353396D2*
X1416396D1*
X1480278D2*
X1521396D1*
X1527396D2*
X1556011D1*
X1593629D2*
X1645443D1*
X1676282D2*
X1747549D1*
X1799877D2*
X1846560D1*
X1874642D2*
X1892516D1*
X1905396D2*
X1932396D1*
X1953921D2*
X1987035D1*
X2022551D2*
X2055671D1*
X915396Y2459724D2*
X951396D1*
X984396D2*
X1017396D1*
X1053396D2*
X1070902D1*
X1101934D2*
X1140641D1*
X1176148D2*
X1245396D1*
X1278396D2*
X1317396D1*
X1353396D2*
X1416396D1*
X1477342D2*
X1555149D1*
X1589237D2*
X1649054D1*
X1682317D2*
X1751448D1*
X1795489D2*
X1850553D1*
X1875078D2*
X1895489D1*
X1905396D2*
X1931011D1*
X1953608D2*
X1986650D1*
X2023481D2*
X2056525D1*
X915396Y2456724D2*
X951396D1*
X984396D2*
X1017396D1*
X1053396D2*
X1069814D1*
X1101623D2*
X1141514D1*
X1176310D2*
X1245396D1*
X1278396D2*
X1317396D1*
X1353396D2*
X1416396D1*
X1475037D2*
X1554713D1*
X1586270D2*
X1651717D1*
X1685271D2*
X1754541D1*
X1791960D2*
X1853923D1*
X1875271D2*
X1897664D1*
X1905396D2*
X1930149D1*
X1953367D2*
X1986381D1*
X2024334D2*
X2057350D1*
X915396Y2453724D2*
X951396D1*
X984396D2*
X1017396D1*
X1053396D2*
X1068396D1*
X1101479D2*
X1142346D1*
X1176477D2*
X1245396D1*
X1278396D2*
X1317396D1*
X1353396D2*
X1416396D1*
X1474193D2*
X1554520D1*
X1584197D2*
X1653765D1*
X1683379D2*
X1756916D1*
X1789177D2*
X1856646D1*
X1875350D2*
X1899396D1*
X1905396D2*
X1929713D1*
X1952929D2*
X1985934D1*
X2024889D2*
X2057894D1*
X915396Y2450724D2*
X951396D1*
X984396D2*
X1017396D1*
X1053396D2*
X1086396D1*
X1101396D2*
X1142893D1*
X1176882D2*
X1245396D1*
X1278396D2*
X1317396D1*
X1353396D2*
X1416396D1*
X1473735D2*
X1554441D1*
X1582706D2*
X1655490D1*
X1681948D2*
X1713985D1*
X1724806D2*
X1758731D1*
X1787184D2*
X1858618D1*
X1875379D2*
X1929520D1*
X1952189D2*
X1985191D1*
X2025178D2*
X2058180D1*
X915396Y2447724D2*
X951396D1*
X984396D2*
X1017396D1*
X1053396D2*
X1143180D1*
X1177609D2*
X1245396D1*
X1278396D2*
X1317396D1*
X1353396D2*
X1416396D1*
X1473529D2*
X1554412D1*
X1581543D2*
X1656986D1*
X1681095D2*
X1712231D1*
X1726572D2*
X1760022D1*
X1785750D2*
X1815510D1*
X1826331D2*
X1860044D1*
X1875390D2*
X1929441D1*
X1951412D2*
X1984413D1*
X2025309D2*
X2058310D1*
X915396Y2444724D2*
X951396D1*
X1053396D2*
X1143310D1*
X1178381D2*
X1200396D1*
X1278396D2*
X1317396D1*
X1353396D2*
X1416396D1*
X1473445D2*
X1506985D1*
X1521871D2*
X1554401D1*
X1580434D2*
X1611871D1*
X1625818D2*
X1658234D1*
X1680566D2*
X1711226D1*
X1727691D2*
X1760768D1*
X1784517D2*
X1812906D1*
X1830224D2*
X1861275D1*
X1875394D2*
X1929412D1*
X1950886D2*
X1983887D1*
X2025363D2*
X2058364D1*
X915396Y2441724D2*
X951396D1*
X1053396D2*
X1143364D1*
X1178905D2*
X1200396D1*
X1278396D2*
X1317396D1*
X1353396D2*
X1416396D1*
X1473413D2*
X1505219D1*
X1522720D2*
X1554397D1*
X1579395D2*
X1609732D1*
X1627678D2*
X1659302D1*
X1679921D2*
X1710739D1*
X1728643D2*
X1761134D1*
X1783426D2*
X1810742D1*
X1832953D2*
X1862365D1*
X1875395D2*
X1929401D1*
X1950607D2*
X1983607D1*
X2025384D2*
X2058384D1*
X915396Y2438724D2*
X951396D1*
X1053396D2*
X1143384D1*
X1179184D2*
X1200396D1*
X1278396D2*
X1317396D1*
X1353396D2*
X1416396D1*
X1473401D2*
X1504109D1*
X1523879D2*
X1554396D1*
X1578424D2*
X1608008D1*
X1629065D2*
X1660364D1*
X1678820D2*
X1710528D1*
X1729887D2*
X1761294D1*
X1782435D2*
X1809011D1*
X1834997D2*
X1863356D1*
X1875396D2*
X1929397D1*
X1950480D2*
X1983480D1*
X2025392D2*
X2058392D1*
X915396Y2435724D2*
X951396D1*
X1053396D2*
X1143392D1*
X1179311D2*
X1200396D1*
X1278396D2*
X1317396D1*
X1353396D2*
X1416396D1*
X1473397D2*
X1503239D1*
X1525123D2*
X1554396D1*
X1577402D2*
X1606752D1*
X1630270D2*
X1661285D1*
X1677396D2*
X1710456D1*
X1731396D2*
X1761346D1*
X1781406D2*
X1807752D1*
X1835716D2*
X1864385D1*
X1883821D2*
X1929396D1*
X1950427D2*
X1983427D1*
X2025394D2*
X2058394D1*
X915396Y2432724D2*
X951396D1*
X1053396D2*
X1143394D1*
X1179364D2*
X1200396D1*
X1278396D2*
X1317396D1*
X1353396D2*
X1416396D1*
X1473396D2*
X1502310D1*
X1526171D2*
X1554396D1*
X1576497D2*
X1606018D1*
X1631250D2*
X1661870D1*
X1678780D2*
X1710530D1*
X1729999D2*
X1761265D1*
X1780498D2*
X1807015D1*
X1836107D2*
X1865293D1*
X1889871D2*
X1929396D1*
X1950407D2*
X1983407D1*
X2025395D2*
X2058395D1*
X915396Y2429724D2*
X951396D1*
X1053396D2*
X1143395D1*
X1179373D2*
X1200396D1*
X1278396D2*
X1317396D1*
X1353396D2*
X1416396D1*
X1473396D2*
X1501457D1*
X1526822D2*
X1554396D1*
X1575918D2*
X1605655D1*
X1631857D2*
X1662171D1*
X1679654D2*
X1710903D1*
X1729023D2*
X1760880D1*
X1779919D2*
X1806635D1*
X1836290D2*
X1865873D1*
X1894315D2*
X1929396D1*
X1950399D2*
X1983399D1*
X2025395D2*
X2058395D1*
X915396Y2426724D2*
X951396D1*
X1053396D2*
X1143395D1*
X1179274D2*
X1200396D1*
X1278396D2*
X1317396D1*
X1353396D2*
X1416396D1*
X1473396D2*
X1500902D1*
X1527153D2*
X1554396D1*
X1575619D2*
X1605497D1*
X1632167D2*
X1662307D1*
X1680207D2*
X1711643D1*
X1728123D2*
X1760047D1*
X1779619D2*
X1806396D1*
X1812396D2*
X1815396D1*
X1836396D2*
X1866172D1*
X1896429D2*
X1929396D1*
X1950409D2*
X1983409D1*
X2025395D2*
X2058395D1*
X915396Y2423724D2*
X951396D1*
X1053396D2*
X1143395D1*
X1178895D2*
X1200396D1*
X1278396D2*
X1317396D1*
X1353396D2*
X1416396D1*
X1473396D2*
X1500613D1*
X1527300D2*
X1554396D1*
X1575484D2*
X1605433D1*
X1632306D2*
X1662363D1*
X1680888D2*
X1712535D1*
X1726896D2*
X1758779D1*
X1779484D2*
X1866307D1*
X1898006D2*
X1929396D1*
X1950513D2*
X1983513D1*
X2025396D2*
X2058396D1*
X915396Y2420724D2*
X951396D1*
X1053396D2*
X1143396D1*
X1178177D2*
X1245396D1*
X1278396D2*
X1317396D1*
X1353396D2*
X1416396D1*
X1473396D2*
X1500482D1*
X1527360D2*
X1554396D1*
X1575428D2*
X1605409D1*
X1632362D2*
X1662384D1*
X1682091D2*
X1713396D1*
X1725396D2*
X1757050D1*
X1779428D2*
X1866363D1*
X1899216D2*
X1929396D1*
X1950895D2*
X1983895D1*
X2025396D2*
X2058384D1*
X915396Y2417724D2*
X951396D1*
X984396D2*
X1017396D1*
X1053396D2*
X1143384D1*
X1177408D2*
X1245396D1*
X1278396D2*
X1317396D1*
X1353396D2*
X1416396D1*
X1473396D2*
X1500428D1*
X1527383D2*
X1554396D1*
X1575407D2*
X1605400D1*
X1632384D2*
X1662392D1*
X1683842D2*
X1754914D1*
X1779407D2*
X1866384D1*
X1900334D2*
X1929396D1*
X1951614D2*
X1984614D1*
X2025384D2*
X2058278D1*
X915396Y2414724D2*
X951396D1*
X984396D2*
X1017396D1*
X1053396D2*
X1143278D1*
X1176885D2*
X1245396D1*
X1278396D2*
X1317396D1*
X1353396D2*
X1416396D1*
X1473396D2*
X1500407D1*
X1527391D2*
X1554396D1*
X1575400D2*
X1605397D1*
X1632391D2*
X1662394D1*
X1686156D2*
X1752893D1*
X1779400D2*
X1866392D1*
X1901275D2*
X1929396D1*
X1952383D2*
X1985383D1*
X2025278D2*
X2057896D1*
X915396Y2411724D2*
X951396D1*
X984396D2*
X1017396D1*
X1053396D2*
X1089396D1*
X1101407D2*
X1142896D1*
X1176607D2*
X1245396D1*
X1278396D2*
X1317396D1*
X1353396D2*
X1416396D1*
X1473396D2*
X1500399D1*
X1527394D2*
X1554396D1*
X1575397D2*
X1605396D1*
X1632394D2*
X1662395D1*
X1689511D2*
X1751308D1*
X1779397D2*
X1866394D1*
X1901866D2*
X1929396D1*
X1952906D2*
X1985906D1*
X2024896D2*
X2057178D1*
X915396Y2408724D2*
X951396D1*
X984396D2*
X1017396D1*
X1053396D2*
X1068396D1*
X1101513D2*
X1142166D1*
X1176468D2*
X1245396D1*
X1278396D2*
X1317396D1*
X1353396D2*
X1416396D1*
X1473396D2*
X1500397D1*
X1527395D2*
X1554396D1*
X1575396D2*
X1605396D1*
X1632395D2*
X1662395D1*
X1694351D2*
X1751568D1*
X1779396D2*
X1866395D1*
X1902170D2*
X1929396D1*
X1953196D2*
X1986196D1*
X2024178D2*
X2056408D1*
X915396Y2405724D2*
X951396D1*
X984396D2*
X1017396D1*
X1053396D2*
X1069433D1*
X1101907D2*
X1141291D1*
X1176310D2*
X1245396D1*
X1278396D2*
X1317396D1*
X1353396D2*
X1416396D1*
X1473396D2*
X1500396D1*
X1527395D2*
X1554396D1*
X1575396D2*
X1605396D1*
X1632384D2*
X1662395D1*
X1700538D2*
X1753431D1*
X1836396D2*
X1866395D1*
X1902307D2*
X1929396D1*
X1953429D2*
X1986429D1*
X2023397D2*
X2055873D1*
X915396Y2402724D2*
X951396D1*
X984396D2*
X1017396D1*
X1053396D2*
X1070431D1*
X1102731D2*
X1140374D1*
X1175896D2*
X1245396D1*
X1278396D2*
X1317396D1*
X1353396D2*
X1416396D1*
X1473396D2*
X1500396D1*
X1527395D2*
X1554396D1*
X1575407D2*
X1605407D1*
X1632278D2*
X1662396D1*
X1707396D2*
X1728396D1*
X1734396D2*
X1755709D1*
X1836396D2*
X1866384D1*
X1902362D2*
X1929396D1*
X1953864D2*
X1986875D1*
X2022756D2*
X2055490D1*
X915396Y2399724D2*
X951396D1*
X984396D2*
X1017396D1*
X1053396D2*
X1071382D1*
X1103894D2*
X1139272D1*
X1175064D2*
X1245396D1*
X1278396D2*
X1317396D1*
X1353396D2*
X1416396D1*
X1473396D2*
X1500396D1*
X1527396D2*
X1554396D1*
X1575513D2*
X1605513D1*
X1631896D2*
X1662384D1*
X1737396D2*
X1757951D1*
X1836396D2*
X1866278D1*
X1902384D2*
X1929396D1*
X1954614D2*
X1987719D1*
X2021990D2*
X2054968D1*
X915396Y2396724D2*
X951396D1*
X984396D2*
X1017396D1*
X1053396D2*
X1072406D1*
X1105253D2*
X1137981D1*
X1173898D2*
X1245396D1*
X1278396D2*
X1317396D1*
X1353396D2*
X1416396D1*
X1473396D2*
X1500396D1*
X1527396D2*
X1554396D1*
X1575895D2*
X1605895D1*
X1631178D2*
X1662278D1*
X1740396D2*
X1759730D1*
X1794396D2*
X1806396D1*
X1836384D2*
X1865896D1*
X1902392D2*
X1929396D1*
X1955496D2*
X1988881D1*
X2020759D2*
X2054092D1*
X915396Y2393724D2*
X951396D1*
X984396D2*
X1017396D1*
X1053396D2*
X1073413D1*
X1106799D2*
X1136572D1*
X1172550D2*
X1245396D1*
X1278396D2*
X1317396D1*
X1353396D2*
X1416396D1*
X1473396D2*
X1500396D1*
X1527396D2*
X1554396D1*
X1576625D2*
X1606625D1*
X1630397D2*
X1661896D1*
X1732078D2*
X1761072D1*
X1779396D2*
X1806871D1*
X1836267D2*
X1865166D1*
X1902394D2*
X1929396D1*
X1956404D2*
X1990152D1*
X2019186D2*
X2052920D1*
X915396Y2390724D2*
X951396D1*
X984396D2*
X1017396D1*
X1053396D2*
X1074385D1*
X1108659D2*
X1135033D1*
X1171109D2*
X1245396D1*
X1278396D2*
X1317396D1*
X1353396D2*
X1416396D1*
X1473396D2*
X1500396D1*
X1527396D2*
X1554396D1*
X1577500D2*
X1607509D1*
X1629759D2*
X1661166D1*
X1720207D2*
X1762160D1*
X1779871D2*
X1807729D1*
X1835768D2*
X1864291D1*
X1902395D2*
X1929396D1*
X1957413D2*
X1991340D1*
X2017704D2*
X2051659D1*
X915396Y2387724D2*
X951396D1*
X984396D2*
X1017396D1*
X1053396D2*
X1075520D1*
X1110926D2*
X1133298D1*
X1169622D2*
X1245396D1*
X1278396D2*
X1317396D1*
X1353396D2*
X1416396D1*
X1473396D2*
X1500396D1*
X1527396D2*
X1554396D1*
X1578405D2*
X1608498D1*
X1629017D2*
X1660279D1*
X1706447D2*
X1763017D1*
X1780720D2*
X1808977D1*
X1834560D2*
X1863386D1*
X1902395D2*
X1929396D1*
X1958427D2*
X1992396D1*
X2016396D2*
X2050492D1*
X915396Y2384724D2*
X951396D1*
X984396D2*
X1017396D1*
X1053396D2*
X1076923D1*
X1113396D2*
X1131396D1*
X1168035D2*
X1245396D1*
X1278396D2*
X1317396D1*
X1353396D2*
X1416396D1*
X1473396D2*
X1500396D1*
X1527396D2*
X1554396D1*
X1579414D2*
X1609817D1*
X1627859D2*
X1659268D1*
X1694384D2*
X1762695D1*
X1781891D2*
X1810574D1*
X1832642D2*
X1862377D1*
X1902395D2*
X1929396D1*
X1959503D2*
X2049353D1*
X915396Y2381724D2*
X951396D1*
X984396D2*
X1017396D1*
X1053396D2*
X1078720D1*
X1166240D2*
X1188396D1*
X1278396D2*
X1317396D1*
X1353396D2*
X1416396D1*
X1473396D2*
X1500396D1*
X1527396D2*
X1554396D1*
X1580428D2*
X1611396D1*
X1626396D2*
X1657889D1*
X1685648D2*
X1762068D1*
X1783240D2*
X1812396D1*
X1830396D2*
X1861364D1*
X1902396D2*
X1929396D1*
X1961008D2*
X2047909D1*
X915396Y2378724D2*
X951396D1*
X984396D2*
X1017396D1*
X1053396D2*
X1081006D1*
X1164191D2*
X1188396D1*
X1278396D2*
X1317396D1*
X1353396D2*
X1416396D1*
X1473396D2*
X1500396D1*
X1527396D2*
X1554396D1*
X1581503D2*
X1656251D1*
X1679777D2*
X1761171D1*
X1784694D2*
X1860288D1*
X1902396D2*
X1929396D1*
X1963036D2*
X2046157D1*
X915396Y2375724D2*
X951396D1*
X984396D2*
X1017396D1*
X1053396D2*
X1083651D1*
X1161867D2*
X1188396D1*
X1278396D2*
X1317396D1*
X1353396D2*
X1416396D1*
X1473396D2*
X1500396D1*
X1527396D2*
X1554396D1*
X1583019D2*
X1654695D1*
X1675375D2*
X1759728D1*
X1786274D2*
X1858772D1*
X1902396D2*
X1929396D1*
X1965324D2*
X2044305D1*
X915396Y2372724D2*
X951396D1*
X984396D2*
X1017396D1*
X1053396D2*
X1086507D1*
X1159044D2*
X1188396D1*
X1278396D2*
X1317396D1*
X1353396D2*
X1416396D1*
X1473396D2*
X1500396D1*
X1527396D2*
X1554396D1*
X1585141D2*
X1653085D1*
X1673441D2*
X1757638D1*
X1788162D2*
X1856650D1*
X1902396D2*
X1929396D1*
X1967798D2*
X2042251D1*
X915396Y2369724D2*
X951396D1*
X984396D2*
X1017396D1*
X1053396D2*
X1089585D1*
X1155602D2*
X1188396D1*
X1278396D2*
X1317396D1*
X1353396D2*
X1416396D1*
X1473396D2*
X1500396D1*
X1527396D2*
X1554396D1*
X1587730D2*
X1650989D1*
X1672315D2*
X1755104D1*
X1790516D2*
X1854061D1*
X1902396D2*
X1929396D1*
X1970706D2*
X2039709D1*
X915396Y2366724D2*
X951396D1*
X984396D2*
X1017396D1*
X1053396D2*
X1093288D1*
X1151154D2*
X1188396D1*
X1278396D2*
X1317396D1*
X1353396D2*
X1416396D1*
X1473396D2*
X1500396D1*
X1527396D2*
X1554396D1*
X1590768D2*
X1648156D1*
X1671772D2*
X1752396D1*
X1793505D2*
X1851023D1*
X1902396D2*
X1929396D1*
X1974266D2*
X2036289D1*
X915396Y2363724D2*
X951396D1*
X984396D2*
X1017396D1*
X1053396D2*
X1098414D1*
X1144669D2*
X1188396D1*
X1278396D2*
X1317396D1*
X1353396D2*
X1416396D1*
X1473396D2*
X1500396D1*
X1527396D2*
X1554396D1*
X1594619D2*
X1644153D1*
X1671540D2*
X1756769D1*
X1797584D2*
X1847172D1*
X1902396D2*
X1929396D1*
X1978893D2*
X2031292D1*
X915396Y2360724D2*
X951396D1*
X984396D2*
X1017396D1*
X1053396D2*
X1105381D1*
X1135705D2*
X1188396D1*
X1278396D2*
X1317396D1*
X1353396D2*
X1416396D1*
X1473396D2*
X1500396D1*
X1527396D2*
X1554396D1*
X1599641D2*
X1638674D1*
X1671448D2*
X1712290D1*
X1737270D2*
X1760513D1*
X1803097D2*
X1842150D1*
X1902396D2*
X1929396D1*
X1985128D2*
X2024380D1*
X915396Y2357724D2*
X1113396D1*
X1125396D2*
X1416396D1*
X1605396D2*
X1632396D1*
X1671414D2*
X1704540D1*
X1739756D2*
X1763450D1*
X1809396D2*
X1836396D1*
X1992396D2*
X2016396D1*
X915396Y2354724D2*
X1416396D1*
X1671402D2*
X1698890D1*
X1741784D2*
X1765754D1*
X915396Y2351724D2*
X1416396D1*
X1671409D2*
X1696380D1*
X1742310D2*
X1766598D1*
X915396Y2348724D2*
X1416396D1*
X1671513D2*
X1697628D1*
X1741204D2*
X1767044D1*
X915396Y2345724D2*
X1416396D1*
X1671907D2*
X1700768D1*
X1738047D2*
X1767145D1*
X915396Y2342724D2*
X1416396D1*
X1672743D2*
X1704396D1*
X1734396D2*
X1766835D1*
X915396Y2339724D2*
X1416396D1*
X1674023D2*
X1766031D1*
X915396Y2336724D2*
X1416396D1*
X1675881D2*
X1764762D1*
X915396Y2333724D2*
X1416396D1*
X1678646D2*
X1762908D1*
X915396Y2330724D2*
X1416396D1*
X1682502D2*
X1760145D1*
X915396Y2327724D2*
X1416396D1*
X1687327D2*
X1756301D1*
X915396Y2324724D2*
X1416396D1*
X1692748D2*
X1751547D1*
X915396Y2321724D2*
X1416396D1*
X1698396D2*
X1746396D1*
X915396Y2318724D2*
X1416396D1*
X915396Y2315724D2*
X1416396D1*
X915396Y2312724D2*
X1416396D1*
X756399Y1850140D2*
X1083399D1*
X756399Y1847140D2*
X1084784D1*
X756399Y1844140D2*
X1085646D1*
X756399Y1841140D2*
X1086082D1*
X756399Y1838140D2*
X1086275D1*
X756399Y1835140D2*
X1086354D1*
X756399Y1832140D2*
X1086383D1*
X756399Y1829140D2*
X1086394D1*
X756399Y1826140D2*
X924388D1*
X984875D2*
X1086398D1*
X756399Y1823140D2*
X924282D1*
X982724D2*
X1062749D1*
X1068399D2*
X1086399D1*
X756399Y1820140D2*
X923900D1*
X980895D2*
X1060108D1*
X1068399D2*
X1086399D1*
X756399Y1817140D2*
X923181D1*
X979244D2*
X1057166D1*
X1068399D2*
X1086399D1*
X756399Y1814140D2*
X922412D1*
X977686D2*
X1053934D1*
X1068399D2*
X1086399D1*
X756399Y1811140D2*
X921889D1*
X976173D2*
X1050795D1*
X1068399D2*
X1086399D1*
X756399Y1808140D2*
X921611D1*
X974772D2*
X1048026D1*
X1068399D2*
X1086399D1*
X756399Y1805140D2*
X921484D1*
X973649D2*
X1045670D1*
X1068399D2*
X1086399D1*
X756399Y1802140D2*
X921431D1*
X972869D2*
X1043407D1*
X1068399D2*
X1086399D1*
X756399Y1799140D2*
X921411D1*
X972136D2*
X1040917D1*
X1068399D2*
X1086399D1*
X756399Y1796140D2*
X921403D1*
X971161D2*
X1038191D1*
X1068399D2*
X1086399D1*
X756399Y1793140D2*
X921401D1*
X969937D2*
X1035316D1*
X1068399D2*
X1086399D1*
X756399Y1790140D2*
X921400D1*
X968567D2*
X1032380D1*
X1068399D2*
X1086399D1*
X756399Y1787140D2*
X921400D1*
X967128D2*
X1029529D1*
X1068399D2*
X1086399D1*
X756399Y1784140D2*
X921400D1*
X965745D2*
X1027141D1*
X1068399D2*
X1086399D1*
X756399Y1781140D2*
X921399D1*
X964538D2*
X1025327D1*
X1068399D2*
X1086399D1*
X756399Y1778140D2*
X921399D1*
X963485D2*
X1025472D1*
X1068399D2*
X1086399D1*
X756399Y1775140D2*
X921388D1*
X962417D2*
X1026320D1*
X1068399D2*
X1086399D1*
X756399Y1772140D2*
X921282D1*
X961392D2*
X1027765D1*
X1068399D2*
X1086399D1*
X756399Y1769140D2*
X920900D1*
X960425D2*
X1029557D1*
X1068399D2*
X1086399D1*
X756399Y1766140D2*
X920181D1*
X959406D2*
X1031341D1*
X1068399D2*
X1086399D1*
X756399Y1763140D2*
X919412D1*
X958512D2*
X1033008D1*
X1068399D2*
X1086399D1*
X756399Y1760140D2*
X918877D1*
X958039D2*
X1034593D1*
X1068399D2*
X1086399D1*
X756399Y1757140D2*
X918494D1*
X958122D2*
X1036126D1*
X1068399D2*
X1086399D1*
X756399Y1754140D2*
X917972D1*
X958706D2*
X1037643D1*
X1068399D2*
X1086399D1*
X756399Y1751140D2*
X917084D1*
X959420D2*
X1039145D1*
X1068399D2*
X1086399D1*
X756399Y1748140D2*
X915807D1*
X959922D2*
X993399D1*
X1002977D2*
X1040638D1*
X1068399D2*
X1086399D1*
X756399Y1745140D2*
X914164D1*
X960180D2*
X990399D1*
X1004106D2*
X1042031D1*
X1068399D2*
X1086399D1*
X756399Y1742140D2*
X912278D1*
X960188D2*
X987399D1*
X1005613D2*
X1043151D1*
X1068399D2*
X1086399D1*
X756399Y1739140D2*
X910358D1*
X959740D2*
X984399D1*
X1007013D2*
X1043930D1*
X1068399D2*
X1086399D1*
X756399Y1736140D2*
X908286D1*
X958554D2*
X981411D1*
X1008209D2*
X1044652D1*
X1068399D2*
X1086399D1*
X756399Y1733140D2*
X905884D1*
X956679D2*
X978540D1*
X1009439D2*
X1045521D1*
X1068399D2*
X1086399D1*
X756399Y1730140D2*
X903292D1*
X954554D2*
X976145D1*
X1010771D2*
X1046351D1*
X1068399D2*
X1086399D1*
X756399Y1727140D2*
X900810D1*
X952484D2*
X974327D1*
X1012085D2*
X1046909D1*
X1068399D2*
X1086399D1*
X756399Y1724140D2*
X898585D1*
X950338D2*
X974358D1*
X1013172D2*
X1047301D1*
X1068399D2*
X1086399D1*
X756399Y1721140D2*
X896375D1*
X947893D2*
X974822D1*
X1013938D2*
X1047813D1*
X1068399D2*
X1086399D1*
X756399Y1718140D2*
X893918D1*
X945182D2*
X975536D1*
X1014654D2*
X1048586D1*
X1068399D2*
X1086399D1*
X756399Y1715140D2*
X891304D1*
X942325D2*
X976453D1*
X1015522D2*
X1049375D1*
X1068399D2*
X1086399D1*
X756399Y1712140D2*
X888814D1*
X939473D2*
X977319D1*
X1016351D2*
X1049906D1*
X1068399D2*
X1086399D1*
X756399Y1709140D2*
X886586D1*
X936770D2*
X977884D1*
X1016897D2*
X1050187D1*
X1068399D2*
X1086399D1*
X756399Y1706140D2*
X884375D1*
X934114D2*
X978179D1*
X1017184D2*
X1050315D1*
X1068399D2*
X1086399D1*
X756399Y1703140D2*
X881906D1*
X931179D2*
X978312D1*
X1017314D2*
X1050368D1*
X1068399D2*
X1086399D1*
X756399Y1700140D2*
X879199D1*
X928039D2*
X978367D1*
X1017368D2*
X1050388D1*
X1068399D2*
X1086399D1*
X756399Y1697140D2*
X876432D1*
X925177D2*
X978376D1*
X1017388D2*
X1050396D1*
X1068399D2*
X1086399D1*
X756399Y1694140D2*
X873867D1*
X922745D2*
X978278D1*
X1017396D2*
X1050398D1*
X1068399D2*
X1086399D1*
X756399Y1691140D2*
X871606D1*
X920439D2*
X977899D1*
X1017398D2*
X1050399D1*
X1068399D2*
X1086399D1*
X756399Y1688140D2*
X869383D1*
X917930D2*
X977169D1*
X1017399D2*
X1050399D1*
X1068399D2*
X1086399D1*
X756399Y1685140D2*
X866909D1*
X915195D2*
X976295D1*
X1017388D2*
X1050388D1*
X1068399D2*
X1086399D1*
X756399Y1682140D2*
X864188D1*
X912318D2*
X975389D1*
X1017282D2*
X1050282D1*
X1068399D2*
X1086399D1*
X756399Y1679140D2*
X861315D1*
X909369D2*
X931590D1*
X936262D2*
X974381D1*
X1016900D2*
X1049900D1*
X1068399D2*
X1086399D1*
X756399Y1676140D2*
X858368D1*
X906400D2*
X927569D1*
X938647D2*
X973367D1*
X1016170D2*
X1049181D1*
X1068399D2*
X1086399D1*
X756399Y1673140D2*
X855400D1*
X903513D2*
X926052D1*
X940440D2*
X972292D1*
X1015295D2*
X1048401D1*
X1068399D2*
X1086399D1*
X756399Y1670140D2*
X852513D1*
X900898D2*
X926500D1*
X940147D2*
X970776D1*
X1014390D2*
X1047772D1*
X1068399D2*
X1086399D1*
X756399Y1667140D2*
X849898D1*
X898617D2*
X927399D1*
X939399D2*
X968654D1*
X1013381D2*
X1047111D1*
X1068399D2*
X1086399D1*
X756399Y1664140D2*
X847617D1*
X896387D2*
X966088D1*
X1012379D2*
X1046266D1*
X1068399D2*
X1086399D1*
X756399Y1661140D2*
X845387D1*
X893910D2*
X963255D1*
X1011409D2*
X1045432D1*
X1068399D2*
X1086399D1*
X756399Y1658140D2*
X842910D1*
X891188D2*
X960109D1*
X1010287D2*
X1044783D1*
X1068399D2*
X1086399D1*
X756399Y1655140D2*
X840188D1*
X888315D2*
X956254D1*
X1008989D2*
X1044115D1*
X1068399D2*
X1086399D1*
X756399Y1652140D2*
X837315D1*
X885368D2*
X951314D1*
X1007575D2*
X1043255D1*
X1068399D2*
X1086399D1*
X756399Y1649140D2*
X834368D1*
X882388D2*
X903514D1*
X915399D2*
X945506D1*
X1006007D2*
X1042327D1*
X1068399D2*
X1086399D1*
X756399Y1646140D2*
X831388D1*
X879396D2*
X900898D1*
X924399D2*
X939399D1*
X1004142D2*
X1041389D1*
X1068399D2*
X1086399D1*
X756399Y1643140D2*
X828396D1*
X876398D2*
X898617D1*
X1001927D2*
X1040268D1*
X1068399D2*
X1086399D1*
X756399Y1640140D2*
X825386D1*
X873399D2*
X896387D1*
X999651D2*
X1038881D1*
X1068399D2*
X1086399D1*
X756399Y1637140D2*
X822294D1*
X870399D2*
X893912D1*
X997509D2*
X1037203D1*
X1068399D2*
X1086399D1*
X756399Y1634140D2*
X819005D1*
X867411D2*
X891206D1*
X995234D2*
X1035405D1*
X1068399D2*
X1086399D1*
X756399Y1631140D2*
X815564D1*
X864517D2*
X888399D1*
X992398D2*
X1033861D1*
X1068399D2*
X1086399D1*
X756399Y1628140D2*
X812131D1*
X861899D2*
X891525D1*
X988954D2*
X1032505D1*
X1068399D2*
X1086399D1*
X756399Y1625140D2*
X808670D1*
X859617D2*
X895027D1*
X985198D2*
X1030860D1*
X1068399D2*
X1086399D1*
X756399Y1622140D2*
X805275D1*
X857387D2*
X899269D1*
X981205D2*
X1028697D1*
X1068399D2*
X1086399D1*
X756399Y1619140D2*
X802519D1*
X854922D2*
X904485D1*
X976501D2*
X1026217D1*
X1068399D2*
X1086399D1*
X756399Y1616140D2*
X800490D1*
X852317D2*
X910922D1*
X970470D2*
X1023782D1*
X1068399D2*
X1086399D1*
X756399Y1613140D2*
X800634D1*
X849955D2*
X918754D1*
X962880D2*
X1021563D1*
X1068399D2*
X1086399D1*
X756399Y1610140D2*
X802360D1*
X847993D2*
X927399D1*
X954399D2*
X1019254D1*
X1068399D2*
X1086399D1*
X756399Y1607140D2*
X804343D1*
X847385D2*
X1016405D1*
X1068399D2*
X1086399D1*
X756399Y1604140D2*
X806241D1*
X847885D2*
X1012957D1*
X1068399D2*
X1086399D1*
X756399Y1601140D2*
X807966D1*
X848614D2*
X1009210D1*
X1068399D2*
X1086399D1*
X756399Y1598140D2*
X809577D1*
X849452D2*
X1005358D1*
X1068399D2*
X1086399D1*
X756399Y1595140D2*
X811132D1*
X850422D2*
X1001370D1*
X1068399D2*
X1086399D1*
X756399Y1592140D2*
X812746D1*
X851320D2*
X885989D1*
X890936D2*
X997364D1*
X1068399D2*
X1086399D1*
X756399Y1589140D2*
X814539D1*
X851997D2*
X887223D1*
X896216D2*
X993267D1*
X1068399D2*
X1086399D1*
X756399Y1586140D2*
X777399D1*
X783977D2*
X816473D1*
X852689D2*
X889113D1*
X901667D2*
X988523D1*
X1068399D2*
X1086399D1*
X756399Y1583140D2*
X777399D1*
X785117D2*
X818311D1*
X853647D2*
X891243D1*
X908067D2*
X982478D1*
X1068399D2*
X1086399D1*
X756399Y1580140D2*
X777399D1*
X786730D2*
X820009D1*
X854865D2*
X893314D1*
X915823D2*
X974882D1*
X1068399D2*
X1086399D1*
X756399Y1577140D2*
X777399D1*
X788513D2*
X821707D1*
X856233D2*
X895461D1*
X924399D2*
X966399D1*
X1068399D2*
X1086399D1*
X756399Y1574140D2*
X777399D1*
X790428D2*
X823625D1*
X857683D2*
X897906D1*
X1068399D2*
X1086399D1*
X756399Y1571140D2*
X777399D1*
X792438D2*
X825860D1*
X859171D2*
X900605D1*
X1068399D2*
X1086399D1*
X756399Y1568140D2*
X777399D1*
X794398D2*
X828133D1*
X860760D2*
X903380D1*
X1068399D2*
X1086399D1*
X756399Y1565140D2*
X777399D1*
X796385D2*
X830148D1*
X862544D2*
X906049D1*
X1068399D2*
X1086399D1*
X756399Y1562140D2*
X777399D1*
X798423D2*
X831819D1*
X864487D2*
X908692D1*
X1068399D2*
X1086399D1*
X756399Y1559140D2*
X777399D1*
X800405D2*
X833055D1*
X866417D2*
X911646D1*
X1068399D2*
X1086399D1*
X756399Y1556140D2*
X777399D1*
X802489D2*
X833782D1*
X868392D2*
X914995D1*
X1068399D2*
X1086399D1*
X756399Y1553140D2*
X777399D1*
X804805D2*
X834129D1*
X870425D2*
X918621D1*
X1068399D2*
X1086399D1*
X756399Y1550140D2*
X777399D1*
X807121D2*
X834182D1*
X872406D2*
X922502D1*
X1068376D2*
X1086399D1*
X756399Y1547140D2*
X777399D1*
X809242D2*
X833863D1*
X874501D2*
X926463D1*
X1068142D2*
X1086399D1*
X756399Y1544140D2*
X777399D1*
X811292D2*
X833157D1*
X876922D2*
X930530D1*
X1067579D2*
X1086399D1*
X756399Y1541140D2*
X777399D1*
X813399D2*
X832291D1*
X879623D2*
X935144D1*
X1064804D2*
X1086399D1*
X756399Y1538140D2*
X777399D1*
X812003D2*
X831388D1*
X882488D2*
X940669D1*
X1060631D2*
X1086399D1*
X756399Y1535140D2*
X777399D1*
X811036D2*
X830381D1*
X885432D2*
X947222D1*
X1055031D2*
X1086399D1*
X756399Y1532140D2*
X777399D1*
X810218D2*
X829379D1*
X888423D2*
X955141D1*
X1047660D2*
X1086399D1*
X756399Y1529140D2*
X777399D1*
X809294D2*
X828421D1*
X891521D2*
X965396D1*
X1037525D2*
X1086399D1*
X756399Y1526140D2*
X777399D1*
X808341D2*
X827392D1*
X894912D2*
X978574D1*
X1023974D2*
X1086399D1*
X756399Y1523140D2*
X777399D1*
X807406D2*
X826383D1*
X898747D2*
X993399D1*
X1008399D2*
X1086399D1*
X756399Y1520140D2*
X777399D1*
X806387D2*
X825422D1*
X903004D2*
X1086399D1*
X756399Y1517140D2*
X777399D1*
X805381D2*
X824405D1*
X907651D2*
X1086399D1*
X756399Y1514140D2*
X777399D1*
X804422D2*
X823489D1*
X912639D2*
X1086399D1*
X756399Y1511140D2*
X777399D1*
X803393D2*
X822805D1*
X917953D2*
X1086399D1*
X756399Y1508140D2*
X777399D1*
X802383D2*
X822123D1*
X923860D2*
X1086399D1*
X756399Y1505140D2*
X777399D1*
X801422D2*
X821258D1*
X930554D2*
X1086399D1*
X756399Y1502140D2*
X777399D1*
X800405D2*
X820328D1*
X938145D2*
X1059238D1*
X1068399D2*
X1086399D1*
X756399Y1499140D2*
X777399D1*
X799489D2*
X819390D1*
X947116D2*
X1049395D1*
X1068399D2*
X1086399D1*
X756399Y1496140D2*
X777399D1*
X798805D2*
X818280D1*
X958295D2*
X1037796D1*
X1068399D2*
X1086399D1*
X756399Y1493140D2*
X777399D1*
X798123D2*
X816998D1*
X972104D2*
X1023800D1*
X1068399D2*
X1086399D1*
X756399Y1490140D2*
X777399D1*
X797258D2*
X815691D1*
X987399D2*
X1008399D1*
X1068399D2*
X1086399D1*
X756399Y1487140D2*
X777399D1*
X796328D2*
X814518D1*
X1068399D2*
X1086399D1*
X756399Y1484140D2*
X777399D1*
X795401D2*
X813478D1*
X1068399D2*
X1086399D1*
X756399Y1481140D2*
X777399D1*
X794385D2*
X812426D1*
X1068399D2*
X1086399D1*
X756399Y1478140D2*
X777399D1*
X793381D2*
X811508D1*
X1068399D2*
X1086399D1*
X756399Y1475140D2*
X777399D1*
X792421D2*
X810913D1*
X1068399D2*
X1086399D1*
X756399Y1472140D2*
X777399D1*
X791393D2*
X810506D1*
X1068388D2*
X1086399D1*
X756399Y1469140D2*
X777399D1*
X790383D2*
X809977D1*
X924399D2*
D3*
X1068271D2*
X1086399D1*
X756399Y1466140D2*
X777399D1*
X789422D2*
X809097D1*
X924388D2*
X933399D1*
X1067736D2*
X1086399D1*
X756399Y1463140D2*
X777399D1*
X788393D2*
X807924D1*
X924282D2*
X939549D1*
X1066694D2*
X1086399D1*
X756399Y1460140D2*
X777399D1*
X787383D2*
X806663D1*
X923900D2*
X946285D1*
X1062687D2*
X1086399D1*
X756399Y1457140D2*
X777399D1*
X786422D2*
X805508D1*
X923181D2*
X954501D1*
X1055923D2*
X1086399D1*
X756399Y1454140D2*
X777399D1*
X785405D2*
X804474D1*
X922412D2*
X964900D1*
X1045949D2*
X1086399D1*
X756399Y1451140D2*
X777399D1*
X784500D2*
X803413D1*
X921877D2*
X977224D1*
X1033649D2*
X1086399D1*
X756399Y1448140D2*
X777399D1*
X783920D2*
X802391D1*
X921494D2*
X1086399D1*
X756399Y1445140D2*
X777399D1*
X783604D2*
X801425D1*
X920982D2*
X1086399D1*
X756399Y1442140D2*
X777399D1*
X783399D2*
X800405D1*
X891399D2*
X900399D1*
X920185D2*
X1086399D1*
X756399Y1439140D2*
X799489D1*
X889900D2*
X903399D1*
X919272D2*
X1086399D1*
X756399Y1436140D2*
X798805D1*
X888654D2*
X906399D1*
X918399D2*
X1086399D1*
X756399Y1433140D2*
X798123D1*
X887499D2*
X1086399D1*
X756399Y1430140D2*
X797258D1*
X886537D2*
X1086399D1*
X756399Y1427140D2*
X796328D1*
X885935D2*
X1086399D1*
X756399Y1424140D2*
X795401D1*
X885627D2*
X1086399D1*
X756399Y1421140D2*
X794385D1*
X885477D2*
X1086399D1*
X756399Y1418140D2*
X793381D1*
X885316D2*
X1086399D1*
X756399Y1415140D2*
X792421D1*
X884912D2*
X1086399D1*
X756399Y1412140D2*
X791393D1*
X884174D2*
X1086399D1*
X756399Y1409140D2*
X790383D1*
X883296D2*
X1086399D1*
X756399Y1406140D2*
X789422D1*
X846399D2*
X855399D1*
X882378D2*
X1086399D1*
X756399Y1403140D2*
X788393D1*
X845936D2*
X858523D1*
X881266D2*
X1086399D1*
X756399Y1400140D2*
X787383D1*
X845192D2*
X861988D1*
X879899D2*
X1086399D1*
X756399Y1397140D2*
X786422D1*
X844415D2*
X866014D1*
X878250D2*
X1086399D1*
X756399Y1394140D2*
X785405D1*
X843890D2*
X870399D1*
X876399D2*
X1086399D1*
X756399Y1391140D2*
X784489D1*
X843611D2*
X1086399D1*
X756399Y1388140D2*
X783805D1*
X843484D2*
X1086399D1*
X756399Y1385140D2*
X783111D1*
X843431D2*
X1086399D1*
X756399Y1382140D2*
X782152D1*
X843411D2*
X1086399D1*
X756399Y1379140D2*
X780946D1*
X843403D2*
X1086399D1*
X756399Y1376140D2*
X779671D1*
X843389D2*
X1086399D1*
X756399Y1373140D2*
X778510D1*
X843283D2*
X1086399D1*
X756399Y1370140D2*
X777475D1*
X842900D2*
X1086399D1*
X756399Y1367140D2*
X776425D1*
X842181D2*
X1086399D1*
X756399Y1364140D2*
X775508D1*
X841412D2*
X1086399D1*
X756399Y1361140D2*
X774922D1*
X840887D2*
X1086399D1*
X756399Y1358140D2*
X774605D1*
X840593D2*
X1086399D1*
X756399Y1355140D2*
X1086399D1*
X756399Y1352140D2*
X1086399D1*
X756399Y1349140D2*
X1086399D1*
X756399Y1346140D2*
X1086399D1*
X756399Y1343140D2*
X1086399D1*
X756399Y1340140D2*
X1086399D1*
X756399Y1337140D2*
X1086399D1*
X756399Y1334140D2*
X1086399D1*
X1478196Y1830451D2*
Y1827451D1*
Y1824451D1*
Y1821451D1*
Y1818451D1*
Y1815451D1*
Y1812451D1*
Y1809451D1*
Y1806451D1*
Y1803451D1*
Y1800451D1*
Y1797451D1*
Y1794451D1*
Y1791451D1*
Y1788451D1*
Y1785451D1*
Y1782451D1*
Y1779451D1*
Y1776451D1*
Y1773451D1*
Y1770451D1*
Y1767451D1*
Y1764451D1*
Y1761451D1*
Y1758451D1*
Y1755451D1*
Y1752451D1*
Y1749451D1*
Y1746451D1*
Y1743451D1*
Y1740451D1*
Y1737451D1*
Y1734451D1*
Y1731451D1*
Y1728451D1*
Y1725451D1*
Y1722451D1*
Y1719451D1*
Y1716451D1*
Y1713451D1*
Y1710451D1*
Y1707451D1*
Y1704451D1*
Y1701451D1*
Y1698451D1*
Y1695451D1*
Y1692451D1*
Y1689451D1*
Y1686451D1*
Y1683451D1*
Y1680451D1*
Y1677451D1*
Y1674451D1*
Y1671451D1*
Y1668451D1*
Y1665451D1*
Y1662451D1*
Y1659451D1*
Y1656451D1*
Y1653451D1*
Y1650451D1*
Y1647451D1*
Y1644451D1*
Y1641451D1*
Y1638451D1*
Y1635451D1*
Y1632451D1*
Y1629451D1*
Y1626451D1*
Y1623451D1*
Y1620451D1*
X1478208Y1617451D1*
X1478313Y1614451D1*
X1478696Y1611451D1*
X1479415Y1608451D1*
X1480191Y1605451D1*
X1480760Y1602451D1*
X1481196Y1599451D1*
X1502196D1*
Y1596451D1*
X1610196Y1830451D2*
X1609170Y1827451D1*
X1608278Y1824451D1*
X1607709Y1821451D1*
X1607403Y1818451D1*
X1607165Y1815451D1*
X1606717Y1812451D1*
X1605837Y1809451D1*
X1604327Y1806451D1*
X1602209Y1803451D1*
X1597063Y1800451D1*
X1590489Y1797451D1*
X1583196Y1794451D1*
X1643196Y1830451D2*
X1643660Y1827451D1*
X1644403Y1824451D1*
X1645180Y1821451D1*
X1645717Y1818451D1*
X1646102Y1815451D1*
X1646623Y1812451D1*
X1647535Y1809451D1*
X1649058Y1806451D1*
X1651182Y1803451D1*
X1656329Y1800451D1*
X1662903Y1797451D1*
X1670196Y1794451D1*
X1772196Y1830451D2*
Y1827451D1*
Y1824451D1*
Y1821451D1*
Y1818451D1*
Y1815451D1*
Y1812451D1*
Y1809451D1*
Y1806451D1*
Y1803451D1*
Y1800451D1*
Y1797451D1*
Y1794451D1*
Y1791451D1*
Y1788451D1*
Y1785451D1*
Y1782451D1*
Y1779451D1*
Y1776451D1*
Y1773451D1*
Y1770451D1*
Y1767451D1*
Y1764451D1*
Y1761451D1*
Y1758451D1*
Y1755451D1*
Y1752451D1*
Y1749451D1*
Y1746451D1*
Y1743451D1*
Y1740451D1*
Y1737451D1*
Y1734451D1*
Y1731451D1*
Y1728451D1*
Y1725451D1*
Y1722451D1*
Y1719451D1*
Y1716451D1*
Y1713451D1*
Y1710451D1*
Y1707451D1*
Y1704451D1*
Y1701451D1*
Y1698451D1*
Y1695451D1*
Y1692451D1*
Y1689451D1*
Y1686451D1*
Y1683451D1*
Y1680451D1*
Y1677451D1*
Y1674451D1*
Y1671451D1*
Y1668451D1*
Y1665451D1*
Y1662451D1*
Y1659451D1*
Y1656451D1*
Y1653451D1*
Y1650451D1*
Y1647451D1*
Y1644451D1*
Y1641451D1*
Y1638451D1*
Y1635451D1*
Y1632451D1*
Y1629451D1*
Y1626451D1*
Y1623451D1*
X1772173Y1620451D1*
X1771944Y1617451D1*
X1771399Y1614451D1*
X1769061Y1611451D1*
X1766196Y1608451D1*
X1768606Y1605451D1*
X1770349Y1602451D1*
X1771522Y1599451D1*
X1771414Y1596451D1*
X1769359Y1593451D1*
X1763776Y1590451D1*
X1757196Y1587451D1*
X1772196Y1584451D1*
Y1581451D1*
Y1578451D1*
Y1575451D1*
Y1572451D1*
Y1569451D1*
Y1566451D1*
Y1563451D1*
Y1560451D1*
Y1557451D1*
Y1554451D1*
Y1551451D1*
Y1548451D1*
Y1545451D1*
Y1542451D1*
X1553196Y1809451D2*
X1550196Y1806451D1*
X1547196Y1803451D1*
X1544208Y1800451D1*
X1541325Y1797451D1*
X1538836Y1794451D1*
X1536807Y1791451D1*
X1536235Y1788451D1*
X1537269Y1785451D1*
X1539019Y1782451D1*
X1541083Y1779451D1*
X1543114Y1776451D1*
X1545122Y1773451D1*
X1546959Y1770451D1*
X1548422Y1767451D1*
X1548205Y1764451D1*
X1547420Y1761451D1*
X1546340Y1758451D1*
X1545260Y1755451D1*
X1544196Y1752451D1*
X1542974Y1749451D1*
X1540093Y1746451D1*
X1532217Y1743451D1*
X1521084Y1740451D1*
X1508196Y1737451D1*
Y1734451D1*
Y1731451D1*
Y1728451D1*
Y1725451D1*
Y1722451D1*
Y1719451D1*
Y1716451D1*
Y1713451D1*
Y1710451D1*
X1520723Y1707451D1*
X1530345Y1704451D1*
X1537484Y1701451D1*
X1540459Y1698451D1*
X1542487Y1695451D1*
X1543906Y1692451D1*
X1545216Y1689451D1*
X1546658Y1686451D1*
X1548333Y1683451D1*
X1550196Y1680451D1*
X1547660Y1677451D1*
X1545415Y1674451D1*
X1543297Y1671451D1*
X1541205Y1668451D1*
X1539203Y1665451D1*
X1537107Y1662451D1*
X1534730Y1659451D1*
X1532196Y1656451D1*
X1536222Y1653451D1*
X1540115Y1650451D1*
X1543686Y1647451D1*
X1546995Y1644451D1*
X1550196Y1641451D1*
X1559196Y1809451D2*
X1562671Y1806451D1*
X1566530Y1803451D1*
X1570778Y1800451D1*
X1575374Y1797451D1*
X1580196Y1794451D1*
X1697196Y1809451D2*
X1691671Y1806451D1*
X1686530Y1803451D1*
X1681778Y1800451D1*
X1677374Y1797451D1*
X1673196Y1794451D1*
X1700196Y1809451D2*
X1703196Y1806451D1*
X1706196Y1803451D1*
X1709184Y1800451D1*
X1712055Y1797451D1*
X1714450Y1794451D1*
X1716268Y1791451D1*
X1716123Y1788451D1*
X1715275Y1785451D1*
X1713830Y1782451D1*
X1712026Y1779451D1*
X1710149Y1776451D1*
X1708205Y1773451D1*
X1706307Y1770451D1*
X1704649Y1767451D1*
X1704132Y1764451D1*
X1704762Y1761451D1*
X1705795Y1758451D1*
X1707081Y1755451D1*
X1708544Y1752451D1*
X1710502Y1749451D1*
X1713189Y1746451D1*
X1721125Y1743451D1*
X1732289Y1740451D1*
X1745196Y1737451D1*
Y1734451D1*
Y1731451D1*
Y1728451D1*
Y1725451D1*
Y1722451D1*
Y1719451D1*
Y1716451D1*
Y1713451D1*
Y1710451D1*
X1732669Y1707451D1*
X1723047Y1704451D1*
X1715908Y1701451D1*
X1712831Y1698451D1*
X1710512Y1695451D1*
X1708662Y1692451D1*
X1707045Y1689451D1*
X1705720Y1686451D1*
X1704717Y1683451D1*
X1705424Y1680451D1*
X1706756Y1677451D1*
X1708402Y1674451D1*
X1710259Y1671451D1*
X1712235Y1668451D1*
X1714070Y1665451D1*
X1715543Y1662451D1*
X1716638Y1659451D1*
X1716161Y1656451D1*
X1714212Y1653451D1*
X1711779Y1650451D1*
X1709033Y1647451D1*
X1706136Y1644451D1*
X1703176Y1641451D1*
X1700196Y1638451D1*
X1622196Y1755451D2*
X1615401Y1752451D1*
X1609785Y1749451D1*
X1605356Y1746451D1*
X1601792Y1743451D1*
X1599003Y1740451D1*
X1596795Y1737451D1*
X1595963Y1734451D1*
X1595402Y1731451D1*
X1594737Y1728451D1*
X1593626Y1725451D1*
X1592196Y1722451D1*
X1593593Y1719451D1*
X1594571Y1716451D1*
X1595495Y1713451D1*
X1596813Y1710451D1*
X1598601Y1707451D1*
X1600805Y1704451D1*
X1603554Y1701451D1*
X1606725Y1698451D1*
X1609969Y1695451D1*
X1613196Y1692451D1*
X1611348Y1689451D1*
X1609731Y1686451D1*
X1608412Y1683451D1*
X1607299Y1680451D1*
X1606118Y1677451D1*
X1604798Y1674451D1*
X1603387Y1671451D1*
X1601922Y1668451D1*
X1600439Y1665451D1*
X1598954Y1662451D1*
X1597563Y1659451D1*
X1596447Y1656451D1*
X1595722Y1653451D1*
X1595196Y1650451D1*
X1631196Y1755451D2*
X1637991Y1752451D1*
X1643596Y1749451D1*
X1647931Y1746451D1*
X1651218Y1743451D1*
X1653671Y1740451D1*
X1655516Y1737451D1*
X1656817Y1734451D1*
X1657566Y1731451D1*
X1657934Y1728451D1*
X1658094Y1725451D1*
X1658159Y1722451D1*
X1658171Y1719451D1*
X1658063Y1716451D1*
X1657566Y1713451D1*
X1656349Y1710451D1*
X1654362Y1707451D1*
X1651852Y1704451D1*
X1649075Y1701451D1*
X1646288Y1698451D1*
X1643925Y1695451D1*
X1642121Y1692451D1*
X1642256Y1689451D1*
X1643011Y1686451D1*
X1644167Y1683451D1*
X1645530Y1680451D1*
X1646974Y1677451D1*
X1648446Y1674451D1*
X1649843Y1671451D1*
X1651054Y1668451D1*
X1652121Y1665451D1*
X1653284Y1662451D1*
X1654588Y1659451D1*
X1655919Y1656451D1*
X1657129Y1653451D1*
X1658196Y1650451D1*
X1577196D2*
X1572249Y1647451D1*
X1567269Y1644451D1*
X1562196Y1641451D1*
X1583196Y1650451D2*
X1670196D2*
X1676196D2*
X1681047Y1647451D1*
X1685681Y1644451D1*
X1690039Y1641451D1*
X1694196Y1638451D1*
X1487196Y1614451D2*
X1484196Y1611451D1*
X1487196Y1614451D2*
X1490196Y1611451D1*
X1514196Y1614451D2*
X1511196Y1611451D1*
X1514196Y1614451D2*
X1517196Y1611451D1*
X1535196Y1614451D2*
X1532196Y1611451D1*
X1535196Y1614451D2*
X1538196Y1611451D1*
X1550196Y1614451D2*
X1544196Y1611451D1*
X1538196Y1608451D1*
X1539581Y1605451D1*
X1540442Y1602451D1*
X1540879Y1599451D1*
X1541072Y1596451D1*
X1541150Y1593451D1*
X1541181Y1590451D1*
X1541196Y1587451D1*
X1550196Y1614451D2*
Y1611451D1*
Y1608451D1*
Y1605451D1*
Y1602451D1*
Y1599451D1*
Y1596451D1*
Y1593451D1*
Y1590451D1*
Y1587451D1*
X1556196Y1614451D2*
Y1611451D1*
Y1608451D1*
Y1605451D1*
Y1602451D1*
Y1599451D1*
Y1596451D1*
Y1593451D1*
Y1590451D1*
Y1587451D1*
X1562196Y1614451D2*
Y1611451D1*
Y1608451D1*
Y1605451D1*
Y1602451D1*
Y1599451D1*
Y1596451D1*
Y1593451D1*
Y1590451D1*
Y1587451D1*
X1601196Y1614451D2*
X1596261Y1611451D1*
X1592367Y1608451D1*
X1589639Y1605451D1*
X1587594Y1602451D1*
X1586990Y1599451D1*
X1586987Y1596451D1*
X1587555Y1593451D1*
X1588374Y1590451D1*
X1589196Y1587451D1*
X1604196Y1614451D2*
X1601208Y1611451D1*
X1598325Y1608451D1*
X1595824Y1605451D1*
X1594054Y1602451D1*
X1592871Y1599451D1*
X1592978Y1596451D1*
X1595033Y1593451D1*
X1600616Y1590451D1*
X1607196Y1587451D1*
X1628196Y1614451D2*
X1625196Y1611451D1*
X1628196Y1614451D2*
X1631196Y1611451D1*
X1673196Y1614451D2*
X1668375Y1611451D1*
X1664319Y1608451D1*
X1662720Y1605451D1*
X1661848Y1602451D1*
X1661452Y1599451D1*
X1661291Y1596451D1*
X1661230Y1593451D1*
X1661207Y1590451D1*
X1661196Y1587451D1*
X1676196Y1614451D2*
X1673322Y1611451D1*
X1670824Y1608451D1*
X1669042Y1605451D1*
X1668030Y1602451D1*
X1667540Y1599451D1*
X1667329Y1596451D1*
X1667245Y1593451D1*
X1667212Y1590451D1*
X1667196Y1587451D1*
X1703196Y1614451D2*
X1700196Y1611451D1*
X1703196Y1614451D2*
X1706196Y1611451D1*
X1760196Y1614451D2*
X1763184Y1611451D1*
X1766067Y1608451D1*
X1768568Y1605451D1*
X1770338Y1602451D1*
X1771521Y1599451D1*
X1771414Y1596451D1*
X1769359Y1593451D1*
X1763776Y1590451D1*
X1757196Y1587451D1*
X1772196Y1584451D1*
Y1581451D1*
Y1578451D1*
Y1575451D1*
Y1572451D1*
Y1569451D1*
Y1566451D1*
Y1563451D1*
Y1560451D1*
Y1557451D1*
Y1554451D1*
Y1551451D1*
Y1548451D1*
Y1545451D1*
Y1542451D1*
X1766196Y1614451D2*
X1769196Y1611451D1*
X1484196Y1608451D2*
X1482800Y1605451D1*
X1481873Y1602451D1*
X1481196Y1599451D1*
X1502196D1*
Y1596451D1*
X1490196Y1608451D2*
X1493196Y1605451D1*
Y1611451D2*
X1496196Y1608451D1*
X1499196Y1605451D1*
X1508196Y1611451D2*
X1505196Y1608451D1*
X1511196D2*
X1517196D2*
X1519595Y1605451D1*
X1521588Y1602451D1*
X1522205Y1599451D1*
X1521576Y1596451D1*
X1519058Y1593451D1*
X1512745Y1590451D1*
X1505196Y1587451D1*
X1520196Y1611451D2*
X1523070Y1608451D1*
X1525557Y1605451D1*
X1527585Y1602451D1*
X1528204Y1599451D1*
X1527596Y1596451D1*
X1526501Y1593451D1*
X1524977Y1590451D1*
X1523196Y1587451D1*
X1574196Y1611451D2*
Y1608451D1*
Y1605451D1*
Y1602451D1*
X1574149Y1599451D1*
X1574009Y1596451D1*
X1572602Y1593451D1*
X1567927Y1590451D1*
X1562196Y1587451D1*
X1580196Y1611451D2*
Y1608451D1*
Y1605451D1*
Y1602451D1*
X1580184Y1599451D1*
X1580070Y1596451D1*
X1579606Y1593451D1*
X1578581Y1590451D1*
X1577196Y1587451D1*
X1601196Y1608451D2*
X1603606Y1605451D1*
X1605349Y1602451D1*
X1606522Y1599451D1*
X1606335Y1596451D1*
X1605475Y1593451D1*
X1604196Y1590451D1*
X1610196Y1611451D2*
X1610660Y1608451D1*
X1611403Y1605451D1*
X1612168Y1602451D1*
X1612577Y1599451D1*
X1612635Y1596451D1*
X1611346Y1593451D1*
X1609430Y1590451D1*
X1607196Y1587451D1*
X1622196Y1611451D2*
X1619196Y1608451D1*
X1625196D2*
X1634196Y1611451D2*
X1634009Y1608451D1*
X1632696Y1605451D1*
X1628864Y1602451D1*
X1624581Y1599451D1*
X1621084Y1596451D1*
X1618529Y1593451D1*
X1618349Y1590451D1*
X1619196Y1587451D1*
X1640196Y1611451D2*
X1640035Y1608451D1*
X1639645Y1605451D1*
X1637542Y1602451D1*
X1633002Y1599451D1*
X1628499Y1596451D1*
X1625006Y1593451D1*
X1622196Y1590451D1*
X1628196Y1587451D1*
X1673196Y1611451D2*
X1675606Y1608451D1*
X1677361Y1605451D1*
X1678366Y1602451D1*
X1678853Y1599451D1*
X1679064Y1596451D1*
X1679148Y1593451D1*
X1679180Y1590451D1*
X1679196Y1587451D1*
X1685196Y1611451D2*
Y1608451D1*
Y1605451D1*
Y1602451D1*
Y1599451D1*
Y1596451D1*
Y1593451D1*
Y1590451D1*
Y1587451D1*
X1697196Y1611451D2*
X1694786Y1608451D1*
X1693031Y1605451D1*
X1692023Y1602451D1*
X1691513Y1599451D1*
X1691196Y1596451D1*
X1709196D1*
X1708645Y1593451D1*
X1707592Y1590451D1*
X1706196Y1587451D1*
X1700196Y1608451D2*
X1698602Y1605451D1*
X1697196Y1602451D1*
X1706196Y1608451D2*
X1707790Y1605451D1*
X1709196Y1602451D1*
Y1611451D2*
X1711721Y1608451D1*
X1713848Y1605451D1*
X1715466Y1602451D1*
X1716666Y1599451D1*
X1716314Y1596451D1*
X1715373Y1593451D1*
X1713928Y1590451D1*
X1712196Y1587451D1*
X1727196Y1611451D2*
X1724786Y1608451D1*
X1723031Y1605451D1*
X1722026Y1602451D1*
X1721551Y1599451D1*
X1721454Y1596451D1*
X1721834Y1593451D1*
X1722827Y1590451D1*
X1724196Y1587451D1*
X1733196Y1611451D2*
X1730786Y1608451D1*
X1729031Y1605451D1*
X1728038Y1602451D1*
X1727692Y1599451D1*
X1727780Y1596451D1*
X1729581Y1593451D1*
X1734027Y1590451D1*
X1739196Y1587451D1*
X1733196Y1611451D2*
X1735606Y1608451D1*
X1737361Y1605451D1*
X1738366Y1602451D1*
X1738853Y1599451D1*
X1739064Y1596451D1*
X1739148Y1593451D1*
X1739179Y1590451D1*
X1739190Y1587451D1*
X1739194Y1584451D1*
X1739195Y1581451D1*
X1739196Y1578451D1*
Y1575451D1*
Y1572451D1*
Y1569451D1*
Y1566451D1*
Y1563451D1*
Y1560451D1*
Y1557451D1*
Y1554451D1*
Y1551451D1*
Y1548451D1*
Y1545451D1*
Y1542451D1*
X1748196Y1611451D2*
Y1608451D1*
Y1605451D1*
Y1602451D1*
Y1599451D1*
Y1596451D1*
Y1593451D1*
Y1590451D1*
Y1587451D1*
Y1584451D1*
Y1581451D1*
Y1578451D1*
Y1575451D1*
Y1572451D1*
Y1569451D1*
Y1566451D1*
Y1563451D1*
Y1560451D1*
Y1557451D1*
Y1554451D1*
Y1551451D1*
Y1548451D1*
Y1545451D1*
Y1542451D1*
X1754196Y1611451D2*
X1753732Y1608451D1*
X1752988Y1605451D1*
X1752204Y1602451D1*
X1751633Y1599451D1*
X1751196Y1596451D1*
X1763196Y1608451D2*
X1760785Y1605451D1*
X1759020Y1602451D1*
X1757946Y1599451D1*
X1757196Y1596451D1*
X1478196D2*
Y1593451D1*
Y1590451D1*
Y1587451D1*
Y1584451D1*
Y1581451D1*
Y1578451D1*
Y1575451D1*
Y1572451D1*
Y1569451D1*
Y1566451D1*
Y1563451D1*
Y1560451D1*
Y1557451D1*
Y1554451D1*
Y1551451D1*
Y1548451D1*
Y1545451D1*
Y1542451D1*
X1496196Y1596451D2*
Y1593451D2*
X1493196Y1590451D1*
X1490196Y1587451D1*
X1502196Y1593451D2*
X1499196Y1590451D1*
X1496196Y1587451D1*
X1751196Y1593451D2*
X1755925Y1590451D1*
X1761398Y1587451D1*
X1766286Y1584451D1*
X1769978Y1581451D1*
X1771150Y1578451D1*
X1771763Y1575451D1*
X1772030Y1572451D1*
X1772136Y1569451D1*
X1772175Y1566451D1*
X1772189Y1563451D1*
X1772194Y1560451D1*
X1772195Y1557451D1*
X1772196Y1554451D1*
Y1551451D1*
Y1548451D1*
Y1545451D1*
Y1542451D1*
X1757196Y1593451D2*
X1760196Y1590451D1*
X1481196D2*
X1484196Y1587451D1*
X1634196Y1590451D2*
X1631196Y1587451D1*
X1637196Y1590451D2*
X1640196Y1587451D1*
X1697196Y1590451D2*
X1694196Y1587451D1*
X1697196Y1590451D2*
X1700196Y1587451D1*
X1637196Y1578451D2*
Y1575451D1*
Y1572451D1*
Y1569451D1*
Y1566451D1*
Y1563451D1*
Y1560451D1*
Y1557451D1*
Y1554451D1*
Y1551451D1*
Y1548451D1*
Y1545451D1*
Y1542451D1*
X1643196Y1578451D2*
Y1575451D1*
X1643208Y1572451D1*
X1643322Y1569451D1*
X1643786Y1566451D1*
X1644811Y1563451D1*
X1646196Y1560451D1*
X1644823Y1557451D1*
X1644067Y1554451D1*
X1644015Y1551451D1*
X1644565Y1548451D1*
X1645378Y1545451D1*
X1646196Y1542451D1*
X1517196Y1566451D2*
X1514671Y1563451D1*
X1512532Y1560451D1*
X1510808Y1557451D1*
X1509543Y1554451D1*
X1508756Y1551451D1*
X1508196Y1548451D1*
X1529196D1*
X1527790Y1545451D1*
X1526196Y1542451D1*
Y1566451D2*
X1529070Y1563451D1*
X1531568Y1560451D1*
X1533350Y1557451D1*
X1534351Y1554451D1*
X1534726Y1551451D1*
X1534474Y1548451D1*
X1533535Y1545451D1*
X1532196Y1542451D1*
X1529196Y1566451D2*
X1536891Y1563451D1*
X1542898Y1560451D1*
X1547376Y1557451D1*
X1548848Y1554451D1*
X1549630Y1551451D1*
X1549978Y1548451D1*
X1550120Y1545451D1*
X1550196Y1542451D1*
X1547196Y1566451D2*
X1550196Y1563451D1*
X1556196Y1566451D2*
Y1563451D1*
Y1560451D1*
Y1557451D1*
Y1554451D1*
Y1551451D1*
Y1548451D1*
Y1545451D1*
Y1542451D1*
X1571196Y1566451D2*
X1568671Y1563451D1*
X1566532Y1560451D1*
X1564809Y1557451D1*
X1563552Y1554451D1*
X1562818Y1551451D1*
X1562455Y1548451D1*
X1562291Y1545451D1*
X1562196Y1542451D1*
X1601196Y1566451D2*
X1586196Y1563451D1*
X1571196Y1560451D1*
Y1557451D1*
Y1554451D1*
X1579147Y1551451D1*
X1585282Y1548451D1*
X1587506Y1545451D1*
X1589196Y1542451D1*
X1592196Y1566451D2*
X1592310Y1563451D1*
X1592695Y1560451D1*
X1593414Y1557451D1*
X1594191Y1554451D1*
X1594760Y1551451D1*
X1595196Y1548451D1*
X1598196Y1566451D2*
X1598310Y1563451D1*
X1598695Y1560451D1*
X1599414Y1557451D1*
X1600191Y1554451D1*
X1600760Y1551451D1*
X1601196Y1548451D1*
X1613196Y1566451D2*
X1610196Y1563451D1*
X1607196Y1560451D1*
X1616196Y1566451D2*
Y1563451D1*
Y1560451D1*
X1631196Y1566451D2*
X1628774Y1563451D1*
X1626914Y1560451D1*
X1625527Y1557451D1*
X1624321Y1554451D1*
X1623333Y1551451D1*
X1622678Y1548451D1*
X1622196Y1545451D1*
X1637196Y1566451D2*
X1634774Y1563451D1*
X1632914Y1560451D1*
X1631527Y1557451D1*
X1630309Y1554451D1*
X1629215Y1551451D1*
X1628142Y1548451D1*
X1626790Y1545451D1*
X1625196Y1542451D1*
X1637196Y1566451D2*
X1644542Y1563451D1*
X1650190Y1560451D1*
X1654467Y1557451D1*
X1656520Y1554451D1*
X1657196Y1551451D1*
X1656692Y1548451D1*
X1655955Y1545451D1*
X1655196Y1542451D1*
Y1566451D2*
X1658070Y1563451D1*
X1660568Y1560451D1*
X1662350Y1557451D1*
X1663351Y1554451D1*
X1663726Y1551451D1*
X1663474Y1548451D1*
X1662535Y1545451D1*
X1661196Y1542451D1*
X1667196Y1566451D2*
X1664196Y1563451D1*
X1673196Y1566451D2*
X1676196Y1563451D1*
X1682196Y1566451D2*
X1679196Y1563451D1*
X1676196Y1560451D1*
X1677581Y1557451D1*
X1678442Y1554451D1*
X1678879Y1551451D1*
X1679072Y1548451D1*
X1679153Y1545451D1*
X1679196Y1542451D1*
X1685196Y1566451D2*
Y1563451D1*
Y1560451D1*
Y1557451D1*
Y1554451D1*
Y1551451D1*
Y1548451D1*
Y1545451D1*
Y1542451D1*
X1697196Y1566451D2*
X1694786Y1563451D1*
X1693031Y1560451D1*
X1692026Y1557451D1*
X1691539Y1554451D1*
X1691328Y1551451D1*
X1691244Y1548451D1*
X1691212Y1545451D1*
X1691196Y1542451D1*
X1727196Y1566451D2*
X1712196Y1563451D1*
X1697196Y1560451D1*
Y1557451D1*
Y1554451D1*
X1705779Y1551451D1*
X1712489Y1548451D1*
X1718196Y1545451D1*
X1715196Y1542451D1*
X1727196Y1566451D2*
X1724786Y1563451D1*
X1723031Y1560451D1*
X1722026Y1557451D1*
X1721539Y1554451D1*
X1721328Y1551451D1*
X1721244Y1548451D1*
X1721212Y1545451D1*
X1721196Y1542451D1*
X1517196Y1560451D2*
Y1557451D1*
Y1554451D1*
X1526196Y1560451D2*
X1527790Y1557451D1*
X1529196Y1554451D1*
X1730196Y1560451D2*
X1728811Y1557451D1*
X1727950Y1554451D1*
X1727514Y1551451D1*
X1727320Y1548451D1*
X1727239Y1545451D1*
X1727196Y1542451D1*
X1613196Y1557451D2*
Y1554451D1*
Y1551451D1*
X1619196Y1557451D2*
Y1554451D1*
Y1551451D1*
X1607196Y1554451D2*
X1604196Y1551451D1*
X1607196Y1554451D2*
X1610196Y1551451D1*
X1571196Y1548451D2*
Y1545451D1*
Y1542451D1*
X1583196Y1548451D2*
Y1545451D1*
Y1542451D1*
X1697196Y1548451D2*
Y1545451D1*
Y1542451D1*
X1709196Y1548451D2*
X1712196Y1545451D1*
X1709196Y1542451D1*
X1601196Y1545451D2*
X1598196Y1542451D1*
X1607196Y1548451D2*
Y1545451D1*
Y1542451D1*
X1616196Y1548451D2*
Y1545451D1*
Y1542451D1*
X1514196Y1545451D2*
X1511196Y1542451D1*
X1514196Y1545451D2*
X1517196Y1542451D1*
X915396Y2546724D2*
Y2543724D1*
Y2540724D1*
Y2537724D1*
Y2534724D1*
Y2531724D1*
Y2528724D1*
Y2525724D1*
Y2522724D1*
Y2519724D1*
Y2516724D1*
Y2513724D1*
Y2510724D1*
Y2507724D1*
Y2504724D1*
Y2501724D1*
Y2498724D1*
Y2495724D1*
Y2492724D1*
Y2489724D1*
Y2486724D1*
Y2483724D1*
Y2480724D1*
Y2477724D1*
Y2474724D1*
Y2471724D1*
Y2468724D1*
Y2465724D1*
Y2462724D1*
Y2459724D1*
Y2456724D1*
Y2453724D1*
Y2450724D1*
Y2447724D1*
Y2444724D1*
Y2441724D1*
Y2438724D1*
Y2435724D1*
Y2432724D1*
Y2429724D1*
Y2426724D1*
Y2423724D1*
Y2420724D1*
Y2417724D1*
Y2414724D1*
Y2411724D1*
Y2408724D1*
Y2405724D1*
Y2402724D1*
Y2399724D1*
Y2396724D1*
Y2393724D1*
Y2390724D1*
Y2387724D1*
Y2384724D1*
Y2381724D1*
Y2378724D1*
Y2375724D1*
Y2372724D1*
Y2369724D1*
Y2366724D1*
Y2363724D1*
Y2360724D1*
Y2357724D1*
Y2354724D1*
Y2351724D1*
Y2348724D1*
Y2345724D1*
Y2342724D1*
Y2339724D1*
Y2336724D1*
Y2333724D1*
Y2330724D1*
Y2327724D1*
Y2324724D1*
Y2321724D1*
Y2318724D1*
Y2315724D1*
Y2312724D1*
X1416396Y2546724D2*
Y2543724D1*
Y2540724D1*
Y2537724D1*
Y2534724D1*
Y2531724D1*
Y2528724D1*
Y2525724D1*
Y2522724D1*
Y2519724D1*
Y2516724D1*
Y2513724D1*
Y2510724D1*
Y2507724D1*
Y2504724D1*
Y2501724D1*
Y2498724D1*
Y2495724D1*
Y2492724D1*
Y2489724D1*
Y2486724D1*
Y2483724D1*
Y2480724D1*
Y2477724D1*
Y2474724D1*
Y2471724D1*
Y2468724D1*
Y2465724D1*
Y2462724D1*
Y2459724D1*
Y2456724D1*
Y2453724D1*
Y2450724D1*
Y2447724D1*
Y2444724D1*
Y2441724D1*
Y2438724D1*
Y2435724D1*
Y2432724D1*
Y2429724D1*
Y2426724D1*
Y2423724D1*
Y2420724D1*
Y2417724D1*
Y2414724D1*
Y2411724D1*
Y2408724D1*
Y2405724D1*
Y2402724D1*
Y2399724D1*
Y2396724D1*
Y2393724D1*
Y2390724D1*
Y2387724D1*
Y2384724D1*
Y2381724D1*
Y2378724D1*
Y2375724D1*
Y2372724D1*
Y2369724D1*
Y2366724D1*
Y2363724D1*
Y2360724D1*
Y2357724D1*
Y2354724D1*
Y2351724D1*
Y2348724D1*
Y2345724D1*
Y2342724D1*
Y2339724D1*
Y2336724D1*
Y2333724D1*
Y2330724D1*
Y2327724D1*
Y2324724D1*
Y2321724D1*
Y2318724D1*
Y2315724D1*
Y2312724D1*
X1119396Y2510724D2*
X1110997Y2507724D1*
X1103360Y2504724D1*
X1096854Y2501724D1*
X1091597Y2498724D1*
X1087479Y2495724D1*
X1084299Y2492724D1*
X1081892Y2489724D1*
X1080054Y2486724D1*
X1078654Y2483724D1*
X1077513Y2480724D1*
X1076322Y2477724D1*
X1075011Y2474724D1*
X1073705Y2471724D1*
X1072633Y2468724D1*
X1071962Y2465724D1*
X1071514Y2462724D1*
X1070902Y2459724D1*
X1069814Y2456724D1*
X1068396Y2453724D1*
X1086396Y2450724D1*
X1119396Y2510724D2*
X1130102Y2507724D1*
X1139215Y2504724D1*
X1146376Y2501724D1*
X1151977Y2498724D1*
X1156274Y2495724D1*
X1159447Y2492724D1*
X1161997Y2489724D1*
X1164261Y2486724D1*
X1166231Y2483724D1*
X1167967Y2480724D1*
X1169577Y2477724D1*
X1171118Y2474724D1*
X1172626Y2471724D1*
X1174024Y2468724D1*
X1175134Y2465724D1*
X1175809Y2462724D1*
X1176148Y2459724D1*
X1176310Y2456724D1*
X1176477Y2453724D1*
X1176882Y2450724D1*
X1177609Y2447724D1*
X1178381Y2444724D1*
X1178905Y2441724D1*
X1179184Y2438724D1*
X1179311Y2435724D1*
X1179364Y2432724D1*
X1179373Y2429724D1*
X1179274Y2426724D1*
X1178895Y2423724D1*
X1178177Y2420724D1*
X1177408Y2417724D1*
X1176885Y2414724D1*
X1176607Y2411724D1*
X1176468Y2408724D1*
X1176310Y2405724D1*
X1175896Y2402724D1*
X1175064Y2399724D1*
X1173898Y2396724D1*
X1172550Y2393724D1*
X1171109Y2390724D1*
X1169622Y2387724D1*
X1168035Y2384724D1*
X1166240Y2381724D1*
X1164191Y2378724D1*
X1161867Y2375724D1*
X1159044Y2372724D1*
X1155602Y2369724D1*
X1151154Y2366724D1*
X1144669Y2363724D1*
X1135705Y2360724D1*
X1125396Y2357724D1*
X1992396Y2507724D2*
X1985498Y2504724D1*
X1979603Y2501724D1*
X1974825Y2498724D1*
X1971105Y2495724D1*
X1968168Y2492724D1*
X1965693Y2489724D1*
X1963626Y2486724D1*
X1961849Y2483724D1*
X1960235Y2480724D1*
X1958781Y2477724D1*
X1957549Y2474724D1*
X1956486Y2471724D1*
X1955426Y2468724D1*
X1954506Y2465724D1*
X1953921Y2462724D1*
X1953608Y2459724D1*
X1953367Y2456724D1*
X1952929Y2453724D1*
X1952189Y2450724D1*
X1951412Y2447724D1*
X1950886Y2444724D1*
X1950607Y2441724D1*
X1950480Y2438724D1*
X1950427Y2435724D1*
X1950407Y2432724D1*
X1950399Y2429724D1*
X1950409Y2426724D1*
X1950513Y2423724D1*
X1950895Y2420724D1*
X1951614Y2417724D1*
X1952383Y2414724D1*
X1952906Y2411724D1*
X1953196Y2408724D1*
X1953429Y2405724D1*
X1953864Y2402724D1*
X1954614Y2399724D1*
X1955496Y2396724D1*
X1956404Y2393724D1*
X1957413Y2390724D1*
X1958427Y2387724D1*
X1959503Y2384724D1*
X1961008Y2381724D1*
X1963036Y2378724D1*
X1965324Y2375724D1*
X1967798Y2372724D1*
X1970706Y2369724D1*
X1974266Y2366724D1*
X1978893Y2363724D1*
X1985128Y2360724D1*
X1992396Y2357724D1*
X2019396Y2507724D2*
X2025832Y2504724D1*
X2031467Y2501724D1*
X2035935Y2498724D1*
X2039334Y2495724D1*
X2041947Y2492724D1*
X2044210Y2489724D1*
X2046345Y2486724D1*
X2048250Y2483724D1*
X2049873Y2480724D1*
X2051186Y2477724D1*
X2052284Y2474724D1*
X2053357Y2471724D1*
X2054295Y2468724D1*
X2054986Y2465724D1*
X2055671Y2462724D1*
X2056525Y2459724D1*
X2057350Y2456724D1*
X2057894Y2453724D1*
X2058180Y2450724D1*
X2058310Y2447724D1*
X2058364Y2444724D1*
X2058384Y2441724D1*
X2058392Y2438724D1*
X2058394Y2435724D1*
X2058395Y2432724D1*
Y2429724D1*
Y2426724D1*
X2058396Y2423724D1*
X2058384Y2420724D1*
X2058278Y2417724D1*
X2057896Y2414724D1*
X2057178Y2411724D1*
X2056408Y2408724D1*
X2055873Y2405724D1*
X2055490Y2402724D1*
X2054968Y2399724D1*
X2054092Y2396724D1*
X2052920Y2393724D1*
X2051659Y2390724D1*
X2050492Y2387724D1*
X2049353Y2384724D1*
X2047909Y2381724D1*
X2046157Y2378724D1*
X2044305Y2375724D1*
X2042251Y2372724D1*
X2039709Y2369724D1*
X2036289Y2366724D1*
X2031292Y2363724D1*
X2024380Y2360724D1*
X2016396Y2357724D1*
X951396Y2507724D2*
Y2504724D1*
Y2501724D1*
Y2498724D1*
Y2495724D1*
Y2492724D1*
Y2489724D1*
Y2486724D1*
Y2483724D1*
Y2480724D1*
Y2477724D1*
Y2474724D1*
Y2471724D1*
Y2468724D1*
Y2465724D1*
Y2462724D1*
Y2459724D1*
Y2456724D1*
Y2453724D1*
Y2450724D1*
Y2447724D1*
Y2444724D1*
Y2441724D1*
Y2438724D1*
Y2435724D1*
Y2432724D1*
Y2429724D1*
Y2426724D1*
Y2423724D1*
Y2420724D1*
Y2417724D1*
Y2414724D1*
Y2411724D1*
Y2408724D1*
Y2405724D1*
Y2402724D1*
Y2399724D1*
Y2396724D1*
Y2393724D1*
Y2390724D1*
Y2387724D1*
Y2384724D1*
Y2381724D1*
Y2378724D1*
Y2375724D1*
Y2372724D1*
Y2369724D1*
Y2366724D1*
Y2363724D1*
Y2360724D1*
X984396Y2507724D2*
Y2504724D1*
Y2501724D1*
Y2498724D1*
Y2495724D1*
Y2492724D1*
Y2489724D1*
Y2486724D1*
Y2483724D1*
Y2480724D1*
Y2477724D1*
Y2474724D1*
Y2471724D1*
Y2468724D1*
Y2465724D1*
Y2462724D1*
Y2459724D1*
Y2456724D1*
Y2453724D1*
Y2450724D1*
Y2447724D1*
X1017396Y2507724D2*
Y2504724D1*
Y2501724D1*
Y2498724D1*
Y2495724D1*
Y2492724D1*
Y2489724D1*
Y2486724D1*
Y2483724D1*
Y2480724D1*
Y2477724D1*
Y2474724D1*
Y2471724D1*
Y2468724D1*
Y2465724D1*
Y2462724D1*
Y2459724D1*
Y2456724D1*
Y2453724D1*
Y2450724D1*
Y2447724D1*
X1053396Y2507724D2*
Y2504724D1*
Y2501724D1*
Y2498724D1*
Y2495724D1*
Y2492724D1*
Y2489724D1*
Y2486724D1*
Y2483724D1*
Y2480724D1*
Y2477724D1*
Y2474724D1*
Y2471724D1*
Y2468724D1*
Y2465724D1*
Y2462724D1*
Y2459724D1*
Y2456724D1*
Y2453724D1*
Y2450724D1*
Y2447724D1*
Y2444724D1*
Y2441724D1*
Y2438724D1*
Y2435724D1*
Y2432724D1*
Y2429724D1*
Y2426724D1*
Y2423724D1*
Y2420724D1*
Y2417724D1*
Y2414724D1*
Y2411724D1*
Y2408724D1*
Y2405724D1*
Y2402724D1*
Y2399724D1*
Y2396724D1*
Y2393724D1*
Y2390724D1*
Y2387724D1*
Y2384724D1*
Y2381724D1*
Y2378724D1*
Y2375724D1*
Y2372724D1*
Y2369724D1*
Y2366724D1*
Y2363724D1*
Y2360724D1*
X1188396Y2507724D2*
Y2504724D1*
Y2501724D1*
Y2498724D1*
Y2495724D1*
Y2492724D1*
Y2489724D1*
Y2486724D1*
Y2483724D1*
Y2480724D1*
X1278396Y2507724D2*
Y2504724D1*
Y2501724D1*
Y2498724D1*
Y2495724D1*
Y2492724D1*
Y2489724D1*
Y2486724D1*
Y2483724D1*
Y2480724D1*
Y2477724D1*
Y2474724D1*
Y2471724D1*
Y2468724D1*
Y2465724D1*
Y2462724D1*
Y2459724D1*
Y2456724D1*
Y2453724D1*
Y2450724D1*
Y2447724D1*
Y2444724D1*
Y2441724D1*
Y2438724D1*
Y2435724D1*
Y2432724D1*
Y2429724D1*
Y2426724D1*
Y2423724D1*
Y2420724D1*
Y2417724D1*
Y2414724D1*
Y2411724D1*
Y2408724D1*
Y2405724D1*
Y2402724D1*
Y2399724D1*
Y2396724D1*
Y2393724D1*
Y2390724D1*
Y2387724D1*
Y2384724D1*
Y2381724D1*
Y2378724D1*
Y2375724D1*
Y2372724D1*
Y2369724D1*
Y2366724D1*
Y2363724D1*
Y2360724D1*
Y2357724D1*
X1290396Y2507724D2*
Y2504724D1*
Y2501724D1*
Y2498724D1*
Y2495724D1*
Y2492724D1*
Y2489724D1*
Y2486724D1*
Y2483724D1*
Y2480724D1*
Y2477724D1*
X1317396D1*
Y2474724D1*
Y2471724D1*
Y2468724D1*
Y2465724D1*
Y2462724D1*
Y2459724D1*
Y2456724D1*
Y2453724D1*
Y2450724D1*
Y2447724D1*
Y2444724D1*
Y2441724D1*
Y2438724D1*
Y2435724D1*
Y2432724D1*
Y2429724D1*
Y2426724D1*
Y2423724D1*
Y2420724D1*
Y2417724D1*
Y2414724D1*
Y2411724D1*
Y2408724D1*
Y2405724D1*
Y2402724D1*
Y2399724D1*
Y2396724D1*
Y2393724D1*
Y2390724D1*
Y2387724D1*
Y2384724D1*
Y2381724D1*
Y2378724D1*
Y2375724D1*
Y2372724D1*
Y2369724D1*
Y2366724D1*
Y2363724D1*
Y2360724D1*
X1383396Y2507724D2*
Y2504724D1*
Y2501724D1*
Y2498724D1*
Y2495724D1*
Y2492724D1*
Y2489724D1*
Y2486724D1*
Y2483724D1*
Y2480724D1*
Y2477724D1*
X1353396D1*
Y2474724D1*
Y2471724D1*
Y2468724D1*
Y2465724D1*
Y2462724D1*
Y2459724D1*
Y2456724D1*
Y2453724D1*
Y2450724D1*
Y2447724D1*
Y2444724D1*
Y2441724D1*
Y2438724D1*
Y2435724D1*
Y2432724D1*
Y2429724D1*
Y2426724D1*
Y2423724D1*
Y2420724D1*
Y2417724D1*
Y2414724D1*
Y2411724D1*
Y2408724D1*
Y2405724D1*
Y2402724D1*
Y2399724D1*
Y2396724D1*
Y2393724D1*
Y2390724D1*
Y2387724D1*
Y2384724D1*
Y2381724D1*
Y2378724D1*
Y2375724D1*
Y2372724D1*
Y2369724D1*
Y2366724D1*
Y2363724D1*
Y2360724D1*
X1668396Y2486724D2*
Y2483724D1*
Y2480724D1*
Y2477724D1*
Y2474724D1*
Y2471724D1*
Y2468724D1*
Y2465724D1*
X1676282Y2462724D1*
X1682317Y2459724D1*
X1685271Y2456724D1*
X1683379Y2453724D1*
X1681948Y2450724D1*
X1681095Y2447724D1*
X1680566Y2444724D1*
X1679921Y2441724D1*
X1678820Y2438724D1*
X1677396Y2435724D1*
X1678780Y2432724D1*
X1679654Y2429724D1*
X1680207Y2426724D1*
X1680888Y2423724D1*
X1682091Y2420724D1*
X1683842Y2417724D1*
X1686156Y2414724D1*
X1689511Y2411724D1*
X1694351Y2408724D1*
X1700538Y2405724D1*
X1707396Y2402724D1*
X1686396Y2486724D2*
X1689270Y2483724D1*
X1691768Y2480724D1*
X1693549Y2477724D1*
X1694565Y2474724D1*
X1695078Y2471724D1*
X1695396Y2468724D1*
X1113396Y2480724D2*
X1110522Y2477724D1*
X1108012Y2474724D1*
X1106125Y2471724D1*
X1104730Y2468724D1*
X1103522Y2465724D1*
X1102541Y2462724D1*
X1101934Y2459724D1*
X1101623Y2456724D1*
X1101479Y2453724D1*
X1101396Y2450724D1*
X1128396Y2480724D2*
X1131641Y2477724D1*
X1134213Y2474724D1*
X1136244Y2471724D1*
X1137875Y2468724D1*
X1139091Y2465724D1*
X1139906Y2462724D1*
X1140641Y2459724D1*
X1141514Y2456724D1*
X1142346Y2453724D1*
X1142893Y2450724D1*
X1143180Y2447724D1*
X1143310Y2444724D1*
X1143364Y2441724D1*
X1143384Y2438724D1*
X1143392Y2435724D1*
X1143394Y2432724D1*
X1143395Y2429724D1*
Y2426724D1*
Y2423724D1*
X1143396Y2420724D1*
X1143384Y2417724D1*
X1143278Y2414724D1*
X1142896Y2411724D1*
X1142166Y2408724D1*
X1141291Y2405724D1*
X1140374Y2402724D1*
X1139272Y2399724D1*
X1137981Y2396724D1*
X1136572Y2393724D1*
X1135033Y2390724D1*
X1133298Y2387724D1*
X1131396Y2384724D1*
X1245396Y2480724D2*
Y2477724D1*
Y2474724D1*
Y2471724D1*
Y2468724D1*
Y2465724D1*
Y2462724D1*
Y2459724D1*
Y2456724D1*
Y2453724D1*
Y2450724D1*
Y2447724D1*
X2007396Y2483724D2*
X2001997Y2480724D1*
X1997348Y2477724D1*
X1993737Y2474724D1*
X1991086Y2471724D1*
X1989144Y2468724D1*
X1987801Y2465724D1*
X1987035Y2462724D1*
X1986650Y2459724D1*
X1986381Y2456724D1*
X1985934Y2453724D1*
X1985191Y2450724D1*
X1984413Y2447724D1*
X1983887Y2444724D1*
X1983607Y2441724D1*
X1983480Y2438724D1*
X1983427Y2435724D1*
X1983407Y2432724D1*
X1983399Y2429724D1*
X1983409Y2426724D1*
X1983513Y2423724D1*
X1983895Y2420724D1*
X1984614Y2417724D1*
X1985383Y2414724D1*
X1985906Y2411724D1*
X1986196Y2408724D1*
X1986429Y2405724D1*
X1986875Y2402724D1*
X1987719Y2399724D1*
X1988881Y2396724D1*
X1990152Y2393724D1*
X1991340Y2390724D1*
X1992396Y2387724D1*
X2007396Y2483724D2*
X2010396Y2480724D1*
X2013384Y2477724D1*
X2016267Y2474724D1*
X2018767Y2471724D1*
X2020561Y2468724D1*
X2021679Y2465724D1*
X2022551Y2462724D1*
X2023481Y2459724D1*
X2024334Y2456724D1*
X2024889Y2453724D1*
X2025178Y2450724D1*
X2025309Y2447724D1*
X2025363Y2444724D1*
X2025384Y2441724D1*
X2025392Y2438724D1*
X2025394Y2435724D1*
X2025395Y2432724D1*
Y2429724D1*
Y2426724D1*
X2025396Y2423724D1*
Y2420724D1*
X2025384Y2417724D1*
X2025278Y2414724D1*
X2024896Y2411724D1*
X2024178Y2408724D1*
X2023397Y2405724D1*
X2022756Y2402724D1*
X2021990Y2399724D1*
X2020759Y2396724D1*
X2019186Y2393724D1*
X2017704Y2390724D1*
X2016396Y2387724D1*
X1620396Y2471724D2*
X1608982Y2468724D1*
X1600049Y2465724D1*
X1593629Y2462724D1*
X1589237Y2459724D1*
X1586270Y2456724D1*
X1584197Y2453724D1*
X1582706Y2450724D1*
X1581543Y2447724D1*
X1580434Y2444724D1*
X1579395Y2441724D1*
X1578424Y2438724D1*
X1577402Y2435724D1*
X1576497Y2432724D1*
X1575918Y2429724D1*
X1575619Y2426724D1*
X1575484Y2423724D1*
X1575428Y2420724D1*
X1575407Y2417724D1*
X1575400Y2414724D1*
X1575397Y2411724D1*
X1575396Y2408724D1*
Y2405724D1*
X1575407Y2402724D1*
X1575513Y2399724D1*
X1575895Y2396724D1*
X1576625Y2393724D1*
X1577500Y2390724D1*
X1578405Y2387724D1*
X1579414Y2384724D1*
X1580428Y2381724D1*
X1581503Y2378724D1*
X1583019Y2375724D1*
X1585141Y2372724D1*
X1587730Y2369724D1*
X1590768Y2366724D1*
X1594619Y2363724D1*
X1599641Y2360724D1*
X1605396Y2357724D1*
X1719396Y2471724D2*
X1704396Y2468724D1*
X1821396Y2471724D2*
X1812752Y2468724D1*
X1805530Y2465724D1*
X1799877Y2462724D1*
X1795489Y2459724D1*
X1791960Y2456724D1*
X1789177Y2453724D1*
X1787184Y2450724D1*
X1785750Y2447724D1*
X1784517Y2444724D1*
X1783426Y2441724D1*
X1782435Y2438724D1*
X1781406Y2435724D1*
X1780498Y2432724D1*
X1779919Y2429724D1*
X1779619Y2426724D1*
X1779484Y2423724D1*
X1779428Y2420724D1*
X1779407Y2417724D1*
X1779400Y2414724D1*
X1779397Y2411724D1*
X1779396Y2408724D1*
X1488396Y2468724D2*
X1484022Y2465724D1*
X1480278Y2462724D1*
X1477342Y2459724D1*
X1475037Y2456724D1*
X1474193Y2453724D1*
X1473735Y2450724D1*
X1473529Y2447724D1*
X1473445Y2444724D1*
X1473413Y2441724D1*
X1473401Y2438724D1*
X1473397Y2435724D1*
X1473396Y2432724D1*
Y2429724D1*
Y2426724D1*
Y2423724D1*
Y2420724D1*
Y2417724D1*
Y2414724D1*
Y2411724D1*
Y2408724D1*
Y2405724D1*
Y2402724D1*
Y2399724D1*
Y2396724D1*
Y2393724D1*
Y2390724D1*
Y2387724D1*
Y2384724D1*
Y2381724D1*
Y2378724D1*
Y2375724D1*
Y2372724D1*
Y2369724D1*
Y2366724D1*
Y2363724D1*
Y2360724D1*
X1512396Y2468724D2*
X1516989Y2465724D1*
X1521396Y2462724D1*
X1527396Y2468724D2*
Y2465724D1*
Y2462724D1*
X1554396Y2468724D2*
X1557396Y2465724D1*
X1556011Y2462724D1*
X1555149Y2459724D1*
X1554713Y2456724D1*
X1554520Y2453724D1*
X1554441Y2450724D1*
X1554412Y2447724D1*
X1554401Y2444724D1*
X1554397Y2441724D1*
X1554396Y2438724D1*
Y2435724D1*
Y2432724D1*
Y2429724D1*
Y2426724D1*
Y2423724D1*
Y2420724D1*
Y2417724D1*
Y2414724D1*
Y2411724D1*
Y2408724D1*
Y2405724D1*
Y2402724D1*
Y2399724D1*
Y2396724D1*
Y2393724D1*
Y2390724D1*
Y2387724D1*
Y2384724D1*
Y2381724D1*
Y2378724D1*
Y2375724D1*
Y2372724D1*
Y2369724D1*
Y2366724D1*
Y2363724D1*
Y2360724D1*
X1635396Y2468724D2*
X1640794Y2465724D1*
X1645443Y2462724D1*
X1649054Y2459724D1*
X1651717Y2456724D1*
X1653765Y2453724D1*
X1655490Y2450724D1*
X1656986Y2447724D1*
X1658234Y2444724D1*
X1659302Y2441724D1*
X1660364Y2438724D1*
X1661285Y2435724D1*
X1661870Y2432724D1*
X1662171Y2429724D1*
X1662307Y2426724D1*
X1662363Y2423724D1*
X1662384Y2420724D1*
X1662392Y2417724D1*
X1662394Y2414724D1*
X1662395Y2411724D1*
Y2408724D1*
Y2405724D1*
X1662396Y2402724D1*
X1662384Y2399724D1*
X1662278Y2396724D1*
X1661896Y2393724D1*
X1661166Y2390724D1*
X1660279Y2387724D1*
X1659268Y2384724D1*
X1657889Y2381724D1*
X1656251Y2378724D1*
X1654695Y2375724D1*
X1653085Y2372724D1*
X1650989Y2369724D1*
X1648156Y2366724D1*
X1644153Y2363724D1*
X1638674Y2360724D1*
X1632396Y2357724D1*
X1737396Y2468724D2*
X1742806Y2465724D1*
X1747549Y2462724D1*
X1751448Y2459724D1*
X1754541Y2456724D1*
X1756916Y2453724D1*
X1758731Y2450724D1*
X1760022Y2447724D1*
X1760768Y2444724D1*
X1761134Y2441724D1*
X1761294Y2438724D1*
X1761346Y2435724D1*
X1761265Y2432724D1*
X1760880Y2429724D1*
X1760047Y2426724D1*
X1758779Y2423724D1*
X1757050Y2420724D1*
X1754914Y2417724D1*
X1752893Y2414724D1*
X1751308Y2411724D1*
X1751568Y2408724D1*
X1753431Y2405724D1*
X1755709Y2402724D1*
X1757951Y2399724D1*
X1759730Y2396724D1*
X1761072Y2393724D1*
X1762160Y2390724D1*
X1763017Y2387724D1*
X1762695Y2384724D1*
X1762068Y2381724D1*
X1761171Y2378724D1*
X1759728Y2375724D1*
X1757638Y2372724D1*
X1755104Y2369724D1*
X1752396Y2366724D1*
X1756769Y2363724D1*
X1760513Y2360724D1*
X1763450Y2357724D1*
X1765754Y2354724D1*
X1766598Y2351724D1*
X1767044Y2348724D1*
X1767145Y2345724D1*
X1766835Y2342724D1*
X1766031Y2339724D1*
X1764762Y2336724D1*
X1762908Y2333724D1*
X1760145Y2330724D1*
X1756301Y2327724D1*
X1751547Y2324724D1*
X1746396Y2321724D1*
X1836396Y2468724D2*
X1841806Y2465724D1*
X1846560Y2462724D1*
X1850553Y2459724D1*
X1853923Y2456724D1*
X1856646Y2453724D1*
X1858618Y2450724D1*
X1860044Y2447724D1*
X1861275Y2444724D1*
X1862365Y2441724D1*
X1863356Y2438724D1*
X1864385Y2435724D1*
X1865293Y2432724D1*
X1865873Y2429724D1*
X1866172Y2426724D1*
X1866307Y2423724D1*
X1866363Y2420724D1*
X1866384Y2417724D1*
X1866392Y2414724D1*
X1866394Y2411724D1*
X1866395Y2408724D1*
Y2405724D1*
X1866384Y2402724D1*
X1866278Y2399724D1*
X1865896Y2396724D1*
X1865166Y2393724D1*
X1864291Y2390724D1*
X1863386Y2387724D1*
X1862377Y2384724D1*
X1861364Y2381724D1*
X1860288Y2378724D1*
X1858772Y2375724D1*
X1856650Y2372724D1*
X1854061Y2369724D1*
X1851023Y2366724D1*
X1847172Y2363724D1*
X1842150Y2360724D1*
X1836396Y2357724D1*
X1872396Y2468724D2*
X1873780Y2465724D1*
X1874642Y2462724D1*
X1875078Y2459724D1*
X1875271Y2456724D1*
X1875350Y2453724D1*
X1875379Y2450724D1*
X1875390Y2447724D1*
X1875394Y2444724D1*
X1875395Y2441724D1*
X1875396Y2438724D1*
X1883821Y2435724D1*
X1889871Y2432724D1*
X1894315Y2429724D1*
X1896429Y2426724D1*
X1898006Y2423724D1*
X1899216Y2420724D1*
X1900334Y2417724D1*
X1901275Y2414724D1*
X1901866Y2411724D1*
X1902170Y2408724D1*
X1902307Y2405724D1*
X1902362Y2402724D1*
X1902384Y2399724D1*
X1902392Y2396724D1*
X1902394Y2393724D1*
X1902395Y2390724D1*
Y2387724D1*
Y2384724D1*
X1902396Y2381724D1*
Y2378724D1*
Y2375724D1*
Y2372724D1*
Y2369724D1*
Y2366724D1*
Y2363724D1*
Y2360724D1*
X1884396Y2468724D2*
X1888769Y2465724D1*
X1892516Y2462724D1*
X1895489Y2459724D1*
X1897664Y2456724D1*
X1899396Y2453724D1*
X1905396Y2468724D2*
Y2465724D1*
Y2462724D1*
Y2459724D1*
Y2456724D1*
Y2453724D1*
X1929396Y2468724D2*
X1930802Y2465724D1*
X1932396Y2462724D1*
X1931011Y2459724D1*
X1930149Y2456724D1*
X1929713Y2453724D1*
X1929520Y2450724D1*
X1929441Y2447724D1*
X1929412Y2444724D1*
X1929401Y2441724D1*
X1929397Y2438724D1*
X1929396Y2435724D1*
Y2432724D1*
Y2429724D1*
Y2426724D1*
Y2423724D1*
Y2420724D1*
Y2417724D1*
Y2414724D1*
Y2411724D1*
Y2408724D1*
Y2405724D1*
Y2402724D1*
Y2399724D1*
Y2396724D1*
Y2393724D1*
Y2390724D1*
Y2387724D1*
Y2384724D1*
Y2381724D1*
Y2378724D1*
Y2375724D1*
Y2372724D1*
Y2369724D1*
Y2366724D1*
Y2363724D1*
Y2360724D1*
X1716396Y2453724D2*
X1713985Y2450724D1*
X1712231Y2447724D1*
X1711226Y2444724D1*
X1710739Y2441724D1*
X1710528Y2438724D1*
X1710456Y2435724D1*
X1710530Y2432724D1*
X1710903Y2429724D1*
X1711643Y2426724D1*
X1712535Y2423724D1*
X1713396Y2420724D1*
X1722396Y2453724D2*
X1724806Y2450724D1*
X1726572Y2447724D1*
X1727691Y2444724D1*
X1728643Y2441724D1*
X1729887Y2438724D1*
X1731396Y2435724D1*
X1729999Y2432724D1*
X1729023Y2429724D1*
X1728123Y2426724D1*
X1726896Y2423724D1*
X1725396Y2420724D1*
X1818396Y2450724D2*
X1815510Y2447724D1*
X1812906Y2444724D1*
X1810742Y2441724D1*
X1809011Y2438724D1*
X1807752Y2435724D1*
X1807015Y2432724D1*
X1806635Y2429724D1*
X1806396Y2426724D1*
X1821396Y2450724D2*
X1826331Y2447724D1*
X1830224Y2444724D1*
X1832953Y2441724D1*
X1834997Y2438724D1*
X1835716Y2435724D1*
X1836107Y2432724D1*
X1836290Y2429724D1*
X1836396Y2426724D1*
X1200396Y2447724D2*
Y2444724D1*
Y2441724D1*
Y2438724D1*
Y2435724D1*
Y2432724D1*
Y2429724D1*
Y2426724D1*
Y2423724D1*
Y2420724D1*
X1509396Y2447724D2*
X1506985Y2444724D1*
X1505219Y2441724D1*
X1504109Y2438724D1*
X1503239Y2435724D1*
X1502310Y2432724D1*
X1501457Y2429724D1*
X1500902Y2426724D1*
X1500613Y2423724D1*
X1500482Y2420724D1*
X1500428Y2417724D1*
X1500407Y2414724D1*
X1500399Y2411724D1*
X1500397Y2408724D1*
X1500396Y2405724D1*
Y2402724D1*
Y2399724D1*
Y2396724D1*
Y2393724D1*
Y2390724D1*
Y2387724D1*
Y2384724D1*
Y2381724D1*
Y2378724D1*
Y2375724D1*
Y2372724D1*
Y2369724D1*
Y2366724D1*
Y2363724D1*
Y2360724D1*
X1521396Y2447724D2*
X1521871Y2444724D1*
X1522720Y2441724D1*
X1523879Y2438724D1*
X1525123Y2435724D1*
X1526171Y2432724D1*
X1526822Y2429724D1*
X1527153Y2426724D1*
X1527300Y2423724D1*
X1527360Y2420724D1*
X1527383Y2417724D1*
X1527391Y2414724D1*
X1527394Y2411724D1*
X1527395Y2408724D1*
Y2405724D1*
Y2402724D1*
X1527396Y2399724D1*
Y2396724D1*
Y2393724D1*
Y2390724D1*
Y2387724D1*
Y2384724D1*
Y2381724D1*
Y2378724D1*
Y2375724D1*
Y2372724D1*
Y2369724D1*
Y2366724D1*
Y2363724D1*
Y2360724D1*
X1614396Y2447724D2*
X1611871Y2444724D1*
X1609732Y2441724D1*
X1608008Y2438724D1*
X1606752Y2435724D1*
X1606018Y2432724D1*
X1605655Y2429724D1*
X1605497Y2426724D1*
X1605433Y2423724D1*
X1605409Y2420724D1*
X1605400Y2417724D1*
X1605397Y2414724D1*
X1605396Y2411724D1*
Y2408724D1*
Y2405724D1*
X1605407Y2402724D1*
X1605513Y2399724D1*
X1605895Y2396724D1*
X1606625Y2393724D1*
X1607509Y2390724D1*
X1608498Y2387724D1*
X1609817Y2384724D1*
X1611396Y2381724D1*
X1623396Y2447724D2*
X1625818Y2444724D1*
X1627678Y2441724D1*
X1629065Y2438724D1*
X1630270Y2435724D1*
X1631250Y2432724D1*
X1631857Y2429724D1*
X1632167Y2426724D1*
X1632306Y2423724D1*
X1632362Y2420724D1*
X1632384Y2417724D1*
X1632391Y2414724D1*
X1632394Y2411724D1*
X1632395Y2408724D1*
X1632384Y2405724D1*
X1632278Y2402724D1*
X1631896Y2399724D1*
X1631178Y2396724D1*
X1630397Y2393724D1*
X1629759Y2390724D1*
X1629017Y2387724D1*
X1627859Y2384724D1*
X1626396Y2381724D1*
X1812396Y2426724D2*
X1815396D2*
X1245396Y2420724D2*
Y2417724D1*
Y2414724D1*
Y2411724D1*
Y2408724D1*
Y2405724D1*
Y2402724D1*
Y2399724D1*
Y2396724D1*
Y2393724D1*
Y2390724D1*
Y2387724D1*
Y2384724D1*
X984396Y2417724D2*
Y2414724D1*
Y2411724D1*
Y2408724D1*
Y2405724D1*
Y2402724D1*
Y2399724D1*
Y2396724D1*
Y2393724D1*
Y2390724D1*
Y2387724D1*
Y2384724D1*
Y2381724D1*
Y2378724D1*
Y2375724D1*
Y2372724D1*
Y2369724D1*
Y2366724D1*
Y2363724D1*
Y2360724D1*
X1017396Y2417724D2*
Y2414724D1*
Y2411724D1*
Y2408724D1*
Y2405724D1*
Y2402724D1*
Y2399724D1*
Y2396724D1*
Y2393724D1*
Y2390724D1*
Y2387724D1*
Y2384724D1*
Y2381724D1*
Y2378724D1*
Y2375724D1*
Y2372724D1*
Y2369724D1*
Y2366724D1*
Y2363724D1*
Y2360724D1*
X1110396Y2414724D2*
X1089396Y2411724D1*
X1068396Y2408724D1*
X1069433Y2405724D1*
X1070431Y2402724D1*
X1071382Y2399724D1*
X1072406Y2396724D1*
X1073413Y2393724D1*
X1074385Y2390724D1*
X1075520Y2387724D1*
X1076923Y2384724D1*
X1078720Y2381724D1*
X1081006Y2378724D1*
X1083651Y2375724D1*
X1086507Y2372724D1*
X1089585Y2369724D1*
X1093288Y2366724D1*
X1098414Y2363724D1*
X1105381Y2360724D1*
X1113396Y2357724D1*
X1101396Y2414724D2*
X1101407Y2411724D1*
X1101513Y2408724D1*
X1101907Y2405724D1*
X1102731Y2402724D1*
X1103894Y2399724D1*
X1105253Y2396724D1*
X1106799Y2393724D1*
X1108659Y2390724D1*
X1110926Y2387724D1*
X1113396Y2384724D1*
X1836396Y2408724D2*
Y2405724D1*
Y2402724D1*
Y2399724D1*
X1836384Y2396724D1*
X1836267Y2393724D1*
X1835768Y2390724D1*
X1834560Y2387724D1*
X1832642Y2384724D1*
X1830396Y2381724D1*
X1731396Y2405724D2*
X1728396Y2402724D1*
X1731396Y2405724D2*
X1734396Y2402724D1*
X1737396Y2399724D1*
X1740396Y2396724D1*
X1732078Y2393724D1*
X1720207Y2390724D1*
X1706447Y2387724D1*
X1694384Y2384724D1*
X1685648Y2381724D1*
X1679777Y2378724D1*
X1675375Y2375724D1*
X1673441Y2372724D1*
X1672315Y2369724D1*
X1671772Y2366724D1*
X1671540Y2363724D1*
X1671448Y2360724D1*
X1671414Y2357724D1*
X1671402Y2354724D1*
X1671409Y2351724D1*
X1671513Y2348724D1*
X1671907Y2345724D1*
X1672743Y2342724D1*
X1674023Y2339724D1*
X1675881Y2336724D1*
X1678646Y2333724D1*
X1682502Y2330724D1*
X1687327Y2327724D1*
X1692748Y2324724D1*
X1698396Y2321724D1*
X1794396Y2396724D2*
X1779396Y2393724D1*
X1779871Y2390724D1*
X1780720Y2387724D1*
X1781891Y2384724D1*
X1783240Y2381724D1*
X1784694Y2378724D1*
X1786274Y2375724D1*
X1788162Y2372724D1*
X1790516Y2369724D1*
X1793505Y2366724D1*
X1797584Y2363724D1*
X1803097Y2360724D1*
X1809396Y2357724D1*
X1806396Y2396724D2*
X1806871Y2393724D1*
X1807729Y2390724D1*
X1808977Y2387724D1*
X1810574Y2384724D1*
X1812396Y2381724D1*
X1188396Y2384724D2*
Y2381724D1*
Y2378724D1*
Y2375724D1*
Y2372724D1*
Y2369724D1*
Y2366724D1*
Y2363724D1*
Y2360724D1*
Y2357724D1*
X1722396Y2363724D2*
X1712290Y2360724D1*
X1704540Y2357724D1*
X1698890Y2354724D1*
X1696380Y2351724D1*
X1697628Y2348724D1*
X1700768Y2345724D1*
X1704396Y2342724D1*
X1734396Y2363724D2*
X1737270Y2360724D1*
X1739756Y2357724D1*
X1741784Y2354724D1*
X1742310Y2351724D1*
X1741204Y2348724D1*
X1738047Y2345724D1*
X1734396Y2342724D1*
X756399Y1850140D2*
Y1847140D1*
Y1844140D1*
Y1841140D1*
Y1838140D1*
Y1835140D1*
Y1832140D1*
Y1829140D1*
Y1826140D1*
Y1823140D1*
Y1820140D1*
Y1817140D1*
Y1814140D1*
Y1811140D1*
Y1808140D1*
Y1805140D1*
Y1802140D1*
Y1799140D1*
Y1796140D1*
Y1793140D1*
Y1790140D1*
Y1787140D1*
Y1784140D1*
Y1781140D1*
Y1778140D1*
Y1775140D1*
Y1772140D1*
Y1769140D1*
Y1766140D1*
Y1763140D1*
Y1760140D1*
Y1757140D1*
Y1754140D1*
Y1751140D1*
Y1748140D1*
Y1745140D1*
Y1742140D1*
Y1739140D1*
Y1736140D1*
Y1733140D1*
Y1730140D1*
Y1727140D1*
Y1724140D1*
Y1721140D1*
Y1718140D1*
Y1715140D1*
Y1712140D1*
Y1709140D1*
Y1706140D1*
Y1703140D1*
Y1700140D1*
Y1697140D1*
Y1694140D1*
Y1691140D1*
Y1688140D1*
Y1685140D1*
Y1682140D1*
Y1679140D1*
Y1676140D1*
Y1673140D1*
Y1670140D1*
Y1667140D1*
Y1664140D1*
Y1661140D1*
Y1658140D1*
Y1655140D1*
Y1652140D1*
Y1649140D1*
Y1646140D1*
Y1643140D1*
Y1640140D1*
Y1637140D1*
Y1634140D1*
Y1631140D1*
Y1628140D1*
Y1625140D1*
Y1622140D1*
Y1619140D1*
Y1616140D1*
Y1613140D1*
Y1610140D1*
Y1607140D1*
Y1604140D1*
Y1601140D1*
Y1598140D1*
Y1595140D1*
Y1592140D1*
Y1589140D1*
Y1586140D1*
Y1583140D1*
Y1580140D1*
Y1577140D1*
Y1574140D1*
Y1571140D1*
Y1568140D1*
Y1565140D1*
Y1562140D1*
Y1559140D1*
Y1556140D1*
Y1553140D1*
Y1550140D1*
Y1547140D1*
Y1544140D1*
Y1541140D1*
Y1538140D1*
Y1535140D1*
Y1532140D1*
Y1529140D1*
Y1526140D1*
Y1523140D1*
Y1520140D1*
Y1517140D1*
Y1514140D1*
Y1511140D1*
Y1508140D1*
Y1505140D1*
Y1502140D1*
Y1499140D1*
Y1496140D1*
Y1493140D1*
Y1490140D1*
Y1487140D1*
Y1484140D1*
Y1481140D1*
Y1478140D1*
Y1475140D1*
Y1472140D1*
Y1469140D1*
Y1466140D1*
Y1463140D1*
Y1460140D1*
Y1457140D1*
Y1454140D1*
Y1451140D1*
Y1448140D1*
Y1445140D1*
Y1442140D1*
Y1439140D1*
Y1436140D1*
Y1433140D1*
Y1430140D1*
Y1427140D1*
Y1424140D1*
Y1421140D1*
Y1418140D1*
Y1415140D1*
Y1412140D1*
Y1409140D1*
Y1406140D1*
Y1403140D1*
Y1400140D1*
Y1397140D1*
Y1394140D1*
Y1391140D1*
Y1388140D1*
Y1385140D1*
Y1382140D1*
Y1379140D1*
Y1376140D1*
Y1373140D1*
Y1370140D1*
Y1367140D1*
Y1364140D1*
Y1361140D1*
Y1358140D1*
Y1355140D1*
Y1352140D1*
Y1349140D1*
Y1346140D1*
Y1343140D1*
Y1340140D1*
Y1337140D1*
Y1334140D1*
X1083399Y1850140D2*
X1084784Y1847140D1*
X1085646Y1844140D1*
X1086082Y1841140D1*
X1086275Y1838140D1*
X1086354Y1835140D1*
X1086383Y1832140D1*
X1086394Y1829140D1*
X1086398Y1826140D1*
X1086399Y1823140D1*
Y1820140D1*
Y1817140D1*
Y1814140D1*
Y1811140D1*
Y1808140D1*
Y1805140D1*
Y1802140D1*
Y1799140D1*
Y1796140D1*
Y1793140D1*
Y1790140D1*
Y1787140D1*
Y1784140D1*
Y1781140D1*
Y1778140D1*
Y1775140D1*
Y1772140D1*
Y1769140D1*
Y1766140D1*
Y1763140D1*
Y1760140D1*
Y1757140D1*
Y1754140D1*
Y1751140D1*
Y1748140D1*
Y1745140D1*
Y1742140D1*
Y1739140D1*
Y1736140D1*
Y1733140D1*
Y1730140D1*
Y1727140D1*
Y1724140D1*
Y1721140D1*
Y1718140D1*
Y1715140D1*
Y1712140D1*
Y1709140D1*
Y1706140D1*
Y1703140D1*
Y1700140D1*
Y1697140D1*
Y1694140D1*
Y1691140D1*
Y1688140D1*
Y1685140D1*
Y1682140D1*
Y1679140D1*
Y1676140D1*
Y1673140D1*
Y1670140D1*
Y1667140D1*
Y1664140D1*
Y1661140D1*
Y1658140D1*
Y1655140D1*
Y1652140D1*
Y1649140D1*
Y1646140D1*
Y1643140D1*
Y1640140D1*
Y1637140D1*
Y1634140D1*
Y1631140D1*
Y1628140D1*
Y1625140D1*
Y1622140D1*
Y1619140D1*
Y1616140D1*
Y1613140D1*
Y1610140D1*
Y1607140D1*
Y1604140D1*
Y1601140D1*
Y1598140D1*
Y1595140D1*
Y1592140D1*
Y1589140D1*
Y1586140D1*
Y1583140D1*
Y1580140D1*
Y1577140D1*
Y1574140D1*
Y1571140D1*
Y1568140D1*
Y1565140D1*
Y1562140D1*
Y1559140D1*
Y1556140D1*
Y1553140D1*
Y1550140D1*
Y1547140D1*
Y1544140D1*
Y1541140D1*
Y1538140D1*
Y1535140D1*
Y1532140D1*
Y1529140D1*
Y1526140D1*
Y1523140D1*
Y1520140D1*
Y1517140D1*
Y1514140D1*
Y1511140D1*
Y1508140D1*
Y1505140D1*
Y1502140D1*
Y1499140D1*
Y1496140D1*
Y1493140D1*
Y1490140D1*
Y1487140D1*
Y1484140D1*
Y1481140D1*
Y1478140D1*
Y1475140D1*
Y1472140D1*
Y1469140D1*
Y1466140D1*
Y1463140D1*
Y1460140D1*
Y1457140D1*
Y1454140D1*
Y1451140D1*
Y1448140D1*
Y1445140D1*
Y1442140D1*
Y1439140D1*
Y1436140D1*
Y1433140D1*
Y1430140D1*
Y1427140D1*
Y1424140D1*
Y1421140D1*
Y1418140D1*
Y1415140D1*
Y1412140D1*
Y1409140D1*
Y1406140D1*
Y1403140D1*
Y1400140D1*
Y1397140D1*
Y1394140D1*
Y1391140D1*
Y1388140D1*
Y1385140D1*
Y1382140D1*
Y1379140D1*
Y1376140D1*
Y1373140D1*
Y1370140D1*
Y1367140D1*
Y1364140D1*
Y1361140D1*
Y1358140D1*
Y1355140D1*
Y1352140D1*
Y1349140D1*
Y1346140D1*
Y1343140D1*
Y1340140D1*
Y1337140D1*
Y1334140D1*
X924399Y1829140D2*
X924388Y1826140D1*
X924282Y1823140D1*
X923900Y1820140D1*
X923181Y1817140D1*
X922412Y1814140D1*
X921889Y1811140D1*
X921611Y1808140D1*
X921484Y1805140D1*
X921431Y1802140D1*
X921411Y1799140D1*
X921403Y1796140D1*
X921401Y1793140D1*
X921400Y1790140D1*
Y1787140D1*
Y1784140D1*
X921399Y1781140D1*
Y1778140D1*
X921388Y1775140D1*
X921282Y1772140D1*
X920900Y1769140D1*
X920181Y1766140D1*
X919412Y1763140D1*
X918877Y1760140D1*
X918494Y1757140D1*
X917972Y1754140D1*
X917084Y1751140D1*
X915807Y1748140D1*
X914164Y1745140D1*
X912278Y1742140D1*
X910358Y1739140D1*
X908286Y1736140D1*
X905884Y1733140D1*
X903292Y1730140D1*
X900810Y1727140D1*
X898585Y1724140D1*
X896375Y1721140D1*
X893918Y1718140D1*
X891304Y1715140D1*
X888814Y1712140D1*
X886586Y1709140D1*
X884375Y1706140D1*
X881906Y1703140D1*
X879199Y1700140D1*
X876432Y1697140D1*
X873867Y1694140D1*
X871606Y1691140D1*
X869383Y1688140D1*
X866909Y1685140D1*
X864188Y1682140D1*
X861315Y1679140D1*
X858368Y1676140D1*
X855400Y1673140D1*
X852513Y1670140D1*
X849898Y1667140D1*
X847617Y1664140D1*
X845387Y1661140D1*
X842910Y1658140D1*
X840188Y1655140D1*
X837315Y1652140D1*
X834368Y1649140D1*
X831388Y1646140D1*
X828396Y1643140D1*
X825386Y1640140D1*
X822294Y1637140D1*
X819005Y1634140D1*
X815564Y1631140D1*
X812131Y1628140D1*
X808670Y1625140D1*
X805275Y1622140D1*
X802519Y1619140D1*
X800490Y1616140D1*
X800634Y1613140D1*
X802360Y1610140D1*
X804343Y1607140D1*
X806241Y1604140D1*
X807966Y1601140D1*
X809577Y1598140D1*
X811132Y1595140D1*
X812746Y1592140D1*
X814539Y1589140D1*
X816473Y1586140D1*
X818311Y1583140D1*
X820009Y1580140D1*
X821707Y1577140D1*
X823625Y1574140D1*
X825860Y1571140D1*
X828133Y1568140D1*
X830148Y1565140D1*
X831819Y1562140D1*
X833055Y1559140D1*
X833782Y1556140D1*
X834129Y1553140D1*
X834182Y1550140D1*
X833863Y1547140D1*
X833157Y1544140D1*
X832291Y1541140D1*
X831388Y1538140D1*
X830381Y1535140D1*
X829379Y1532140D1*
X828421Y1529140D1*
X827392Y1526140D1*
X826383Y1523140D1*
X825422Y1520140D1*
X824405Y1517140D1*
X823489Y1514140D1*
X822805Y1511140D1*
X822123Y1508140D1*
X821258Y1505140D1*
X820328Y1502140D1*
X819390Y1499140D1*
X818280Y1496140D1*
X816998Y1493140D1*
X815691Y1490140D1*
X814518Y1487140D1*
X813478Y1484140D1*
X812426Y1481140D1*
X811508Y1478140D1*
X810913Y1475140D1*
X810506Y1472140D1*
X809977Y1469140D1*
X809097Y1466140D1*
X807924Y1463140D1*
X806663Y1460140D1*
X805508Y1457140D1*
X804474Y1454140D1*
X803413Y1451140D1*
X802391Y1448140D1*
X801425Y1445140D1*
X800405Y1442140D1*
X799489Y1439140D1*
X798805Y1436140D1*
X798123Y1433140D1*
X797258Y1430140D1*
X796328Y1427140D1*
X795401Y1424140D1*
X794385Y1421140D1*
X793381Y1418140D1*
X792421Y1415140D1*
X791393Y1412140D1*
X790383Y1409140D1*
X789422Y1406140D1*
X788393Y1403140D1*
X787383Y1400140D1*
X786422Y1397140D1*
X785405Y1394140D1*
X784489Y1391140D1*
X783805Y1388140D1*
X783111Y1385140D1*
X782152Y1382140D1*
X780946Y1379140D1*
X779671Y1376140D1*
X778510Y1373140D1*
X777475Y1370140D1*
X776425Y1367140D1*
X775508Y1364140D1*
X774922Y1361140D1*
X774605Y1358140D1*
X774399Y1355140D1*
X987399Y1829140D2*
X984875Y1826140D1*
X982724Y1823140D1*
X980895Y1820140D1*
X979244Y1817140D1*
X977686Y1814140D1*
X976173Y1811140D1*
X974772Y1808140D1*
X973649Y1805140D1*
X972869Y1802140D1*
X972136Y1799140D1*
X971161Y1796140D1*
X969937Y1793140D1*
X968567Y1790140D1*
X967128Y1787140D1*
X965745Y1784140D1*
X964538Y1781140D1*
X963485Y1778140D1*
X962417Y1775140D1*
X961392Y1772140D1*
X960425Y1769140D1*
X959406Y1766140D1*
X958512Y1763140D1*
X958039Y1760140D1*
X958122Y1757140D1*
X958706Y1754140D1*
X959420Y1751140D1*
X959922Y1748140D1*
X960180Y1745140D1*
X960188Y1742140D1*
X959740Y1739140D1*
X958554Y1736140D1*
X956679Y1733140D1*
X954554Y1730140D1*
X952484Y1727140D1*
X950338Y1724140D1*
X947893Y1721140D1*
X945182Y1718140D1*
X942325Y1715140D1*
X939473Y1712140D1*
X936770Y1709140D1*
X934114Y1706140D1*
X931179Y1703140D1*
X928039Y1700140D1*
X925177Y1697140D1*
X922745Y1694140D1*
X920439Y1691140D1*
X917930Y1688140D1*
X915195Y1685140D1*
X912318Y1682140D1*
X909369Y1679140D1*
X906400Y1676140D1*
X903513Y1673140D1*
X900898Y1670140D1*
X898617Y1667140D1*
X896387Y1664140D1*
X893910Y1661140D1*
X891188Y1658140D1*
X888315Y1655140D1*
X885368Y1652140D1*
X882388Y1649140D1*
X879396Y1646140D1*
X876398Y1643140D1*
X873399Y1640140D1*
X870399Y1637140D1*
X867411Y1634140D1*
X864517Y1631140D1*
X861899Y1628140D1*
X859617Y1625140D1*
X857387Y1622140D1*
X854922Y1619140D1*
X852317Y1616140D1*
X849955Y1613140D1*
X847993Y1610140D1*
X847385Y1607140D1*
X847885Y1604140D1*
X848614Y1601140D1*
X849452Y1598140D1*
X850422Y1595140D1*
X851320Y1592140D1*
X851997Y1589140D1*
X852689Y1586140D1*
X853647Y1583140D1*
X854865Y1580140D1*
X856233Y1577140D1*
X857683Y1574140D1*
X859171Y1571140D1*
X860760Y1568140D1*
X862544Y1565140D1*
X864487Y1562140D1*
X866417Y1559140D1*
X868392Y1556140D1*
X870425Y1553140D1*
X872406Y1550140D1*
X874501Y1547140D1*
X876922Y1544140D1*
X879623Y1541140D1*
X882488Y1538140D1*
X885432Y1535140D1*
X888423Y1532140D1*
X891521Y1529140D1*
X894912Y1526140D1*
X898747Y1523140D1*
X903004Y1520140D1*
X907651Y1517140D1*
X912639Y1514140D1*
X917953Y1511140D1*
X923860Y1508140D1*
X930554Y1505140D1*
X938145Y1502140D1*
X947116Y1499140D1*
X958295Y1496140D1*
X972104Y1493140D1*
X987399Y1490140D1*
X1065399Y1826140D2*
X1062749Y1823140D1*
X1060108Y1820140D1*
X1057166Y1817140D1*
X1053934Y1814140D1*
X1050795Y1811140D1*
X1048026Y1808140D1*
X1045670Y1805140D1*
X1043407Y1802140D1*
X1040917Y1799140D1*
X1038191Y1796140D1*
X1035316Y1793140D1*
X1032380Y1790140D1*
X1029529Y1787140D1*
X1027141Y1784140D1*
X1025327Y1781140D1*
X1025472Y1778140D1*
X1026320Y1775140D1*
X1027765Y1772140D1*
X1029557Y1769140D1*
X1031341Y1766140D1*
X1033008Y1763140D1*
X1034593Y1760140D1*
X1036126Y1757140D1*
X1037643Y1754140D1*
X1039145Y1751140D1*
X1040638Y1748140D1*
X1042031Y1745140D1*
X1043151Y1742140D1*
X1043930Y1739140D1*
X1044652Y1736140D1*
X1045521Y1733140D1*
X1046351Y1730140D1*
X1046909Y1727140D1*
X1047301Y1724140D1*
X1047813Y1721140D1*
X1048586Y1718140D1*
X1049375Y1715140D1*
X1049906Y1712140D1*
X1050187Y1709140D1*
X1050315Y1706140D1*
X1050368Y1703140D1*
X1050388Y1700140D1*
X1050396Y1697140D1*
X1050398Y1694140D1*
X1050399Y1691140D1*
Y1688140D1*
X1050388Y1685140D1*
X1050282Y1682140D1*
X1049900Y1679140D1*
X1049181Y1676140D1*
X1048401Y1673140D1*
X1047772Y1670140D1*
X1047111Y1667140D1*
X1046266Y1664140D1*
X1045432Y1661140D1*
X1044783Y1658140D1*
X1044115Y1655140D1*
X1043255Y1652140D1*
X1042327Y1649140D1*
X1041389Y1646140D1*
X1040268Y1643140D1*
X1038881Y1640140D1*
X1037203Y1637140D1*
X1035405Y1634140D1*
X1033861Y1631140D1*
X1032505Y1628140D1*
X1030860Y1625140D1*
X1028697Y1622140D1*
X1026217Y1619140D1*
X1023782Y1616140D1*
X1021563Y1613140D1*
X1019254Y1610140D1*
X1016405Y1607140D1*
X1012957Y1604140D1*
X1009210Y1601140D1*
X1005358Y1598140D1*
X1001370Y1595140D1*
X997364Y1592140D1*
X993267Y1589140D1*
X988523Y1586140D1*
X982478Y1583140D1*
X974882Y1580140D1*
X966399Y1577140D1*
X1068399Y1826140D2*
Y1823140D1*
Y1820140D1*
Y1817140D1*
Y1814140D1*
Y1811140D1*
Y1808140D1*
Y1805140D1*
Y1802140D1*
Y1799140D1*
Y1796140D1*
Y1793140D1*
Y1790140D1*
Y1787140D1*
Y1784140D1*
Y1781140D1*
Y1778140D1*
Y1775140D1*
Y1772140D1*
Y1769140D1*
Y1766140D1*
Y1763140D1*
Y1760140D1*
Y1757140D1*
Y1754140D1*
Y1751140D1*
Y1748140D1*
Y1745140D1*
Y1742140D1*
Y1739140D1*
Y1736140D1*
Y1733140D1*
Y1730140D1*
Y1727140D1*
Y1724140D1*
Y1721140D1*
Y1718140D1*
Y1715140D1*
Y1712140D1*
Y1709140D1*
Y1706140D1*
Y1703140D1*
Y1700140D1*
Y1697140D1*
Y1694140D1*
Y1691140D1*
Y1688140D1*
Y1685140D1*
Y1682140D1*
Y1679140D1*
Y1676140D1*
Y1673140D1*
Y1670140D1*
Y1667140D1*
Y1664140D1*
Y1661140D1*
Y1658140D1*
Y1655140D1*
Y1652140D1*
Y1649140D1*
Y1646140D1*
Y1643140D1*
Y1640140D1*
Y1637140D1*
Y1634140D1*
Y1631140D1*
Y1628140D1*
Y1625140D1*
Y1622140D1*
Y1619140D1*
Y1616140D1*
Y1613140D1*
Y1610140D1*
Y1607140D1*
Y1604140D1*
Y1601140D1*
Y1598140D1*
Y1595140D1*
Y1592140D1*
Y1589140D1*
Y1586140D1*
Y1583140D1*
Y1580140D1*
Y1577140D1*
Y1574140D1*
Y1571140D1*
Y1568140D1*
Y1565140D1*
Y1562140D1*
Y1559140D1*
Y1556140D1*
Y1553140D1*
X1068376Y1550140D1*
X1068142Y1547140D1*
X1067579Y1544140D1*
X1064804Y1541140D1*
X1060631Y1538140D1*
X1055031Y1535140D1*
X1047660Y1532140D1*
X1037525Y1529140D1*
X1023974Y1526140D1*
X1008399Y1523140D1*
X996399Y1751140D2*
X993399Y1748140D1*
X990399Y1745140D1*
X987399Y1742140D1*
X984399Y1739140D1*
X981411Y1736140D1*
X978540Y1733140D1*
X976145Y1730140D1*
X974327Y1727140D1*
X974358Y1724140D1*
X974822Y1721140D1*
X975536Y1718140D1*
X976453Y1715140D1*
X977319Y1712140D1*
X977884Y1709140D1*
X978179Y1706140D1*
X978312Y1703140D1*
X978367Y1700140D1*
X978376Y1697140D1*
X978278Y1694140D1*
X977899Y1691140D1*
X977169Y1688140D1*
X976295Y1685140D1*
X975389Y1682140D1*
X974381Y1679140D1*
X973367Y1676140D1*
X972292Y1673140D1*
X970776Y1670140D1*
X968654Y1667140D1*
X966088Y1664140D1*
X963255Y1661140D1*
X960109Y1658140D1*
X956254Y1655140D1*
X951314Y1652140D1*
X945506Y1649140D1*
X939399Y1646140D1*
X1002399Y1751140D2*
X1002977Y1748140D1*
X1004106Y1745140D1*
X1005613Y1742140D1*
X1007013Y1739140D1*
X1008209Y1736140D1*
X1009439Y1733140D1*
X1010771Y1730140D1*
X1012085Y1727140D1*
X1013172Y1724140D1*
X1013938Y1721140D1*
X1014654Y1718140D1*
X1015522Y1715140D1*
X1016351Y1712140D1*
X1016897Y1709140D1*
X1017184Y1706140D1*
X1017314Y1703140D1*
X1017368Y1700140D1*
X1017388Y1697140D1*
X1017396Y1694140D1*
X1017398Y1691140D1*
X1017399Y1688140D1*
X1017388Y1685140D1*
X1017282Y1682140D1*
X1016900Y1679140D1*
X1016170Y1676140D1*
X1015295Y1673140D1*
X1014390Y1670140D1*
X1013381Y1667140D1*
X1012379Y1664140D1*
X1011409Y1661140D1*
X1010287Y1658140D1*
X1008989Y1655140D1*
X1007575Y1652140D1*
X1006007Y1649140D1*
X1004142Y1646140D1*
X1001927Y1643140D1*
X999651Y1640140D1*
X997509Y1637140D1*
X995234Y1634140D1*
X992398Y1631140D1*
X988954Y1628140D1*
X985198Y1625140D1*
X981205Y1622140D1*
X976501Y1619140D1*
X970470Y1616140D1*
X962880Y1613140D1*
X954399Y1610140D1*
X936399Y1682140D2*
X931590Y1679140D1*
X927569Y1676140D1*
X926052Y1673140D1*
X926500Y1670140D1*
X927399Y1667140D1*
X933399Y1682140D2*
X936262Y1679140D1*
X938647Y1676140D1*
X940440Y1673140D1*
X940147Y1670140D1*
X939399Y1667140D1*
X906399Y1652140D2*
X903514Y1649140D1*
X900898Y1646140D1*
X898617Y1643140D1*
X896387Y1640140D1*
X893912Y1637140D1*
X891206Y1634140D1*
X888399Y1631140D1*
X891525Y1628140D1*
X895027Y1625140D1*
X899269Y1622140D1*
X904485Y1619140D1*
X910922Y1616140D1*
X918754Y1613140D1*
X927399Y1610140D1*
X906399Y1652140D2*
X915399Y1649140D1*
X924399Y1646140D1*
X885399Y1595140D2*
X885989Y1592140D1*
X887223Y1589140D1*
X889113Y1586140D1*
X891243Y1583140D1*
X893314Y1580140D1*
X895461Y1577140D1*
X897906Y1574140D1*
X900605Y1571140D1*
X903380Y1568140D1*
X906049Y1565140D1*
X908692Y1562140D1*
X911646Y1559140D1*
X914995Y1556140D1*
X918621Y1553140D1*
X922502Y1550140D1*
X926463Y1547140D1*
X930530Y1544140D1*
X935144Y1541140D1*
X940669Y1538140D1*
X947222Y1535140D1*
X955141Y1532140D1*
X965396Y1529140D1*
X978574Y1526140D1*
X993399Y1523140D1*
X885399Y1595140D2*
X890936Y1592140D1*
X896216Y1589140D1*
X901667Y1586140D1*
X908067Y1583140D1*
X915823Y1580140D1*
X924399Y1577140D1*
X777399Y1589140D2*
Y1586140D1*
Y1583140D1*
Y1580140D1*
Y1577140D1*
Y1574140D1*
Y1571140D1*
Y1568140D1*
Y1565140D1*
Y1562140D1*
Y1559140D1*
Y1556140D1*
Y1553140D1*
Y1550140D1*
Y1547140D1*
Y1544140D1*
Y1541140D1*
Y1538140D1*
Y1535140D1*
Y1532140D1*
Y1529140D1*
Y1526140D1*
Y1523140D1*
Y1520140D1*
Y1517140D1*
Y1514140D1*
Y1511140D1*
Y1508140D1*
Y1505140D1*
Y1502140D1*
Y1499140D1*
Y1496140D1*
Y1493140D1*
Y1490140D1*
Y1487140D1*
Y1484140D1*
Y1481140D1*
Y1478140D1*
Y1475140D1*
Y1472140D1*
Y1469140D1*
Y1466140D1*
Y1463140D1*
Y1460140D1*
Y1457140D1*
Y1454140D1*
Y1451140D1*
Y1448140D1*
Y1445140D1*
Y1442140D1*
X783399Y1589140D2*
X783977Y1586140D1*
X785117Y1583140D1*
X786730Y1580140D1*
X788513Y1577140D1*
X790428Y1574140D1*
X792438Y1571140D1*
X794398Y1568140D1*
X796385Y1565140D1*
X798423Y1562140D1*
X800405Y1559140D1*
X802489Y1556140D1*
X804805Y1553140D1*
X807121Y1550140D1*
X809242Y1547140D1*
X811292Y1544140D1*
X813399Y1541140D1*
X812003Y1538140D1*
X811036Y1535140D1*
X810218Y1532140D1*
X809294Y1529140D1*
X808341Y1526140D1*
X807406Y1523140D1*
X806387Y1520140D1*
X805381Y1517140D1*
X804422Y1514140D1*
X803393Y1511140D1*
X802383Y1508140D1*
X801422Y1505140D1*
X800405Y1502140D1*
X799489Y1499140D1*
X798805Y1496140D1*
X798123Y1493140D1*
X797258Y1490140D1*
X796328Y1487140D1*
X795401Y1484140D1*
X794385Y1481140D1*
X793381Y1478140D1*
X792421Y1475140D1*
X791393Y1472140D1*
X790383Y1469140D1*
X789422Y1466140D1*
X788393Y1463140D1*
X787383Y1460140D1*
X786422Y1457140D1*
X785405Y1454140D1*
X784500Y1451140D1*
X783920Y1448140D1*
X783604Y1445140D1*
X783399Y1442140D1*
X1068399Y1505140D2*
X1059238Y1502140D1*
X1049395Y1499140D1*
X1037796Y1496140D1*
X1023800Y1493140D1*
X1008399Y1490140D1*
X1068399Y1505140D2*
Y1502140D1*
Y1499140D1*
Y1496140D1*
Y1493140D1*
Y1490140D1*
Y1487140D1*
Y1484140D1*
Y1481140D1*
Y1478140D1*
Y1475140D1*
X1068388Y1472140D1*
X1068271Y1469140D1*
X1067736Y1466140D1*
X1066694Y1463140D1*
X1062687Y1460140D1*
X1055923Y1457140D1*
X1045949Y1454140D1*
X1033649Y1451140D1*
X1020399Y1448140D1*
X924399Y1469140D2*
X924388Y1466140D1*
X924282Y1463140D1*
X923900Y1460140D1*
X923181Y1457140D1*
X922412Y1454140D1*
X921877Y1451140D1*
X921494Y1448140D1*
X920982Y1445140D1*
X920185Y1442140D1*
X919272Y1439140D1*
X918399Y1436140D1*
X933399Y1466140D2*
X939549Y1463140D1*
X946285Y1460140D1*
X954501Y1457140D1*
X964900Y1454140D1*
X977224Y1451140D1*
X990399Y1448140D1*
X891399Y1442140D2*
X889900Y1439140D1*
X888654Y1436140D1*
X887499Y1433140D1*
X886537Y1430140D1*
X885935Y1427140D1*
X885627Y1424140D1*
X885477Y1421140D1*
X885316Y1418140D1*
X884912Y1415140D1*
X884174Y1412140D1*
X883296Y1409140D1*
X882378Y1406140D1*
X881266Y1403140D1*
X879899Y1400140D1*
X878250Y1397140D1*
X876399Y1394140D1*
X900399Y1442140D2*
X903399Y1439140D1*
X906399Y1436140D1*
X846399Y1406140D2*
X845936Y1403140D1*
X845192Y1400140D1*
X844415Y1397140D1*
X843890Y1394140D1*
X843611Y1391140D1*
X843484Y1388140D1*
X843431Y1385140D1*
X843411Y1382140D1*
X843403Y1379140D1*
X843389Y1376140D1*
X843283Y1373140D1*
X842900Y1370140D1*
X842181Y1367140D1*
X841412Y1364140D1*
X840887Y1361140D1*
X840593Y1358140D1*
X840399Y1355140D1*
X855399Y1406140D2*
X858523Y1403140D1*
X861988Y1400140D1*
X866014Y1397140D1*
X870399Y1394140D1*
X1426352Y1021209D2*
D77*
X1413452D1*
X1409141Y1022668D1*
X1407682Y1024094D1*
X1406256Y1026946D1*
Y1029831D1*
X1407682Y1032683D1*
X1409141Y1034142D1*
X1413452Y1035568D1*
X1426352D1*
Y1005424D1*
X1416304Y1021209D2*
X1406256Y1005424D1*
X1396992Y1029798D2*
X1394107Y1031257D1*
X1389796Y1035535D1*
Y1005424D1*
X1380533Y1029798D2*
X1377648Y1031257D1*
X1373337Y1035535D1*
Y1005424D1*
X1629533Y1118073D2*
Y1096552D1*
X1628107Y1092240D1*
X1625222Y1089389D1*
X1620911Y1087929D1*
X1618059D1*
X1613748Y1089389D1*
X1610863Y1092240D1*
X1609437Y1096552D1*
Y1118073D1*
X1597288Y1118040D2*
X1581536D1*
X1590125Y1106566D1*
X1585814D1*
X1582962Y1105140D1*
X1581536Y1103714D1*
X1580077Y1099403D1*
Y1096552D1*
X1581536Y1092240D1*
X1584388Y1089355D1*
X1588699Y1087929D1*
X1593010D1*
X1597288Y1089355D1*
X1598714Y1090815D1*
X1600173Y1093666D1*
X2001744Y1360609D2*
D79*
X1984500D1*
X1978796Y1362510D1*
X1976850Y1364455D1*
X1974949Y1368258D1*
Y1374006D1*
X1976850Y1377809D1*
X1978796Y1379754D1*
X1984500Y1381655D1*
X2001744D1*
Y1341463D1*
X1962598Y1368258D2*
Y1341463D1*
Y1356762D2*
X1960652Y1362510D1*
X1956850Y1366357D1*
X1953003Y1368258D1*
X1947255D1*
X1925353D2*
X1929155Y1366357D1*
X1933002Y1362510D1*
X1934903Y1356762D1*
Y1352959D1*
X1933002Y1347211D1*
X1929155Y1343409D1*
X1925353Y1341463D1*
X1919605D1*
X1915758Y1343409D1*
X1911955Y1347211D1*
X1910010Y1352959D1*
Y1356762D1*
X1911955Y1362510D1*
X1915758Y1366357D1*
X1919605Y1368258D1*
X1925353D1*
X1874711Y1366357D2*
Y1335715D1*
X1876612Y1330012D1*
X1878513Y1328066D1*
X1882360Y1326165D1*
X1888108D1*
X1891911Y1328066D1*
X1874711Y1360609D2*
X1878513Y1364411D1*
X1882360Y1366357D1*
X1888108D1*
X1891911Y1364411D1*
X1895757Y1360609D1*
X1897659Y1354861D1*
Y1351014D1*
X1895757Y1345310D1*
X1891911Y1341463D1*
X1888108Y1339562D1*
X1882360D1*
X1878513Y1341463D1*
X1874711Y1345310D1*
X1862359Y1368258D2*
Y1341463D1*
Y1356762D2*
X1860414Y1362510D1*
X1856611Y1366357D1*
X1852765Y1368258D1*
X1847016D1*
X1811717D2*
Y1341463D1*
Y1362510D2*
X1815520Y1366357D1*
X1819366Y1368258D1*
X1825070D1*
X1828917Y1366357D1*
X1832720Y1362510D1*
X1834665Y1356762D1*
Y1352959D1*
X1832720Y1347211D1*
X1828917Y1343409D1*
X1825070Y1341463D1*
X1819366D1*
X1815520Y1343409D1*
X1811717Y1347211D1*
X1799366Y1368258D2*
Y1341463D1*
Y1360609D2*
X1793618Y1366357D1*
X1789771Y1368258D1*
X1784067D1*
X1780220Y1366357D1*
X1778319Y1360609D1*
Y1341463D1*
Y1360609D2*
X1772571Y1366357D1*
X1768724Y1368258D1*
X1763021D1*
X1759174Y1366357D1*
X1757228Y1360609D1*
Y1341463D1*
X1744877Y1368258D2*
Y1341463D1*
Y1360609D2*
X1739129Y1366357D1*
X1735282Y1368258D1*
X1729578D1*
X1725732Y1366357D1*
X1723830Y1360609D1*
Y1341463D1*
Y1360609D2*
X1718082Y1366357D1*
X1714235Y1368258D1*
X1708532D1*
X1704685Y1366357D1*
X1702739Y1360609D1*
Y1341463D1*
X1690388Y1381655D2*
X1688487Y1379754D1*
X1686541Y1381655D1*
X1688487Y1383601D1*
X1690388Y1381655D1*
X1688487Y1368258D2*
Y1341463D1*
X1674190Y1368258D2*
Y1341463D1*
Y1360609D2*
X1668442Y1366357D1*
X1664595Y1368258D1*
X1658891D1*
X1655044Y1366357D1*
X1653143Y1360609D1*
Y1341463D1*
X1617844Y1366357D2*
Y1335715D1*
X1619745Y1330012D1*
X1621646Y1328066D1*
X1625493Y1326165D1*
X1631241D1*
X1635044Y1328066D1*
X1617844Y1360609D2*
X1621646Y1364411D1*
X1625493Y1366357D1*
X1631241D1*
X1635044Y1364411D1*
X1638891Y1360609D1*
X1640792Y1354861D1*
Y1351014D1*
X1638891Y1345310D1*
X1635044Y1341463D1*
X1631241Y1339562D1*
X1625493D1*
X1621646Y1341463D1*
X1617844Y1345310D1*
X1566612Y1381655D2*
X1564710Y1379754D1*
X1562765Y1381655D1*
X1564710Y1383601D1*
X1566612Y1381655D1*
X1564710Y1368258D2*
Y1341463D1*
X1550414Y1368258D2*
Y1341463D1*
Y1360609D2*
X1544666Y1366357D1*
X1540819Y1368258D1*
X1535115D1*
X1531268Y1366357D1*
X1529367Y1360609D1*
Y1341463D1*
X1495969Y1362510D2*
X1497870Y1366357D1*
X1503618Y1368258D1*
X1509366D1*
X1515114Y1366357D1*
X1517016Y1362510D1*
X1515114Y1358707D1*
X1511267Y1356762D1*
X1501717Y1354861D1*
X1497870Y1352959D1*
X1495969Y1349113D1*
Y1347211D1*
X1497870Y1343409D1*
X1503618Y1341463D1*
X1509366D1*
X1515114Y1343409D1*
X1517016Y1347211D1*
X1477869Y1381655D2*
Y1349113D1*
X1475968Y1343409D1*
X1472121Y1341463D1*
X1468319D1*
X1483617Y1368258D2*
X1470220D1*
X1455967D2*
Y1341463D1*
Y1356762D2*
X1454022Y1362510D1*
X1450219Y1366357D1*
X1446373Y1368258D1*
X1440625D1*
X1428273D2*
Y1349113D1*
X1426372Y1343409D1*
X1422525Y1341463D1*
X1416777D1*
X1412975Y1343409D1*
X1407227Y1349113D1*
Y1368258D2*
Y1341463D1*
X1371883Y1362510D2*
X1375730Y1366357D1*
X1379577Y1368258D1*
X1385280D1*
X1389127Y1366357D1*
X1392930Y1362510D1*
X1394875Y1356762D1*
Y1352959D1*
X1392930Y1347211D1*
X1389127Y1343409D1*
X1385280Y1341463D1*
X1379577D1*
X1375730Y1343409D1*
X1371883Y1347211D1*
X1353784Y1381655D2*
Y1349113D1*
X1351882Y1343409D1*
X1348036Y1341463D1*
X1344233D1*
X1359532Y1368258D2*
X1346134D1*
X1331882Y1381655D2*
X1329980Y1379754D1*
X1328035Y1381655D1*
X1329980Y1383601D1*
X1331882Y1381655D1*
X1329980Y1368258D2*
Y1341463D1*
X1306133Y1368258D2*
X1309936Y1366357D1*
X1313782Y1362510D1*
X1315684Y1356762D1*
Y1352959D1*
X1313782Y1347211D1*
X1309936Y1343409D1*
X1306133Y1341463D1*
X1300385D1*
X1296538Y1343409D1*
X1292736Y1347211D1*
X1290790Y1352959D1*
Y1356762D1*
X1292736Y1362510D1*
X1296538Y1366357D1*
X1300385Y1368258D1*
X1306133D1*
X1278439D2*
Y1341463D1*
Y1360609D2*
X1272691Y1366357D1*
X1268844Y1368258D1*
X1263140D1*
X1259293Y1366357D1*
X1257392Y1360609D1*
Y1341463D1*
X1223994Y1362510D2*
X1225895Y1366357D1*
X1231643Y1368258D1*
X1237391D1*
X1243139Y1366357D1*
X1245041Y1362510D1*
X1243139Y1358707D1*
X1239293Y1356762D1*
X1229742Y1354861D1*
X1225895Y1352959D1*
X1223994Y1349113D1*
Y1347211D1*
X1225895Y1343409D1*
X1231643Y1341463D1*
X1237391D1*
X1243139Y1343409D1*
X1245041Y1347211D1*
X1209697Y1368258D2*
X1211643Y1366313D1*
X1209697Y1364411D1*
X1207796Y1366313D1*
X1209697Y1368258D1*
Y1345310D2*
X1211643Y1343365D1*
X1209697Y1341463D1*
X1207796Y1343365D1*
X1209697Y1345310D1*
X2041592Y1292784D2*
X2045394Y1290883D1*
X2049241Y1287036D1*
X2051143Y1281288D1*
Y1277486D1*
X2049241Y1271738D1*
X2045394Y1267935D1*
X2041592Y1265990D1*
X2035844D1*
X2031997Y1267935D1*
X2028195Y1271738D1*
X2026249Y1277486D1*
Y1281288D1*
X2028195Y1287036D1*
X2031997Y1290883D1*
X2035844Y1292784D1*
X2041592D1*
X2013898Y1306182D2*
X2011996Y1304280D1*
X2010051Y1306182D1*
X2011996Y1308127D1*
X2013898Y1306182D1*
X2011996Y1292784D2*
Y1265990D1*
X1991952Y1306182D2*
Y1273639D1*
X1990050Y1267935D1*
X1986203Y1265990D1*
X1982401D1*
X1997700Y1292784D2*
X1984302D1*
X1968148Y1269836D2*
X1970050Y1267891D1*
X1968148Y1265990D1*
X1966203Y1267891D1*
X1968148Y1269836D1*
X1953851Y1281288D2*
X1930903D1*
Y1285135D1*
X1932805Y1288982D1*
X1934706Y1290883D1*
X1938553Y1292784D1*
X1944301D1*
X1948103Y1290883D1*
X1951950Y1287036D1*
X1953851Y1281288D1*
Y1277486D1*
X1951950Y1271738D1*
X1948103Y1267935D1*
X1944301Y1265990D1*
X1938553D1*
X1934706Y1267935D1*
X1930903Y1271738D1*
X1895604Y1306182D2*
Y1265990D1*
Y1287036D2*
X1899407Y1290883D1*
X1903253Y1292784D1*
X1909002D1*
X1912804Y1290883D1*
X1916651Y1287036D1*
X1918552Y1281288D1*
Y1277486D1*
X1916651Y1271738D1*
X1912804Y1267935D1*
X1909002Y1265990D1*
X1903253D1*
X1899407Y1267935D1*
X1895604Y1271738D1*
X1883253Y1292784D2*
Y1273639D1*
X1881352Y1267935D1*
X1877505Y1265990D1*
X1871757D1*
X1867954Y1267935D1*
X1862206Y1273639D1*
Y1292784D2*
Y1265990D1*
X1849855D2*
X1823060Y1306137D1*
X1787717Y1287036D2*
X1791563Y1290883D1*
X1795410Y1292784D1*
X1801114D1*
X1804961Y1290883D1*
X1808763Y1287036D1*
X1810709Y1281288D1*
Y1277486D1*
X1808763Y1271738D1*
X1804961Y1267935D1*
X1801114Y1265990D1*
X1795410D1*
X1791563Y1267935D1*
X1787717Y1271738D1*
X1775365Y1281288D2*
X1752417D1*
Y1285135D1*
X1754319Y1288982D1*
X1756220Y1290883D1*
X1760067Y1292784D1*
X1765815D1*
X1769617Y1290883D1*
X1773464Y1287036D1*
X1775365Y1281288D1*
Y1277486D1*
X1773464Y1271738D1*
X1769617Y1267935D1*
X1765815Y1265990D1*
X1760067D1*
X1756220Y1267935D1*
X1752417Y1271738D1*
X1734318Y1306182D2*
Y1273639D1*
X1732417Y1267935D1*
X1728570Y1265990D1*
X1724767D1*
X1740066Y1292784D2*
X1726669D1*
X1712416Y1265990D2*
X1685621Y1306137D1*
X1663719Y1292784D2*
X1667522Y1290883D1*
X1671368Y1287036D1*
X1673270Y1281288D1*
Y1277486D1*
X1671368Y1271738D1*
X1667522Y1267935D1*
X1663719Y1265990D1*
X1657971D1*
X1654124Y1267935D1*
X1650322Y1271738D1*
X1648376Y1277486D1*
Y1281288D1*
X1650322Y1287036D1*
X1654124Y1290883D1*
X1657971Y1292784D1*
X1663719D1*
X1636025D2*
Y1252592D1*
Y1287036D2*
X1632178Y1290839D1*
X1628376Y1292784D1*
X1622628D1*
X1618781Y1290839D1*
X1614978Y1287036D1*
X1613033Y1281288D1*
Y1277441D1*
X1614978Y1271738D1*
X1618781Y1267891D1*
X1622628Y1265990D1*
X1628376D1*
X1632178Y1267891D1*
X1636025Y1271738D1*
X1600681Y1281288D2*
X1577734D1*
Y1285135D1*
X1579635Y1288982D1*
X1581536Y1290883D1*
X1585383Y1292784D1*
X1591131D1*
X1594933Y1290883D1*
X1598780Y1287036D1*
X1600681Y1281288D1*
Y1277486D1*
X1598780Y1271738D1*
X1594933Y1267935D1*
X1591131Y1265990D1*
X1585383D1*
X1581536Y1267935D1*
X1577734Y1271738D1*
X1565382Y1292784D2*
Y1265990D1*
Y1285135D2*
X1559634Y1290883D1*
X1555787Y1292784D1*
X1550084D1*
X1546237Y1290883D1*
X1544336Y1285135D1*
Y1265990D1*
X1531984Y1286063D2*
X1509876D1*
X1476478Y1287036D2*
X1478380Y1290883D1*
X1484128Y1292784D1*
X1489876D1*
X1495624Y1290883D1*
X1497525Y1287036D1*
X1495624Y1283234D1*
X1491777Y1281288D1*
X1482226Y1279387D1*
X1478380Y1277486D1*
X1476478Y1273639D1*
Y1271738D1*
X1478380Y1267935D1*
X1484128Y1265990D1*
X1489876D1*
X1495624Y1267935D1*
X1497525Y1271738D1*
X1454576Y1292784D2*
X1458379Y1290883D1*
X1462226Y1287036D1*
X1464127Y1281288D1*
Y1277486D1*
X1462226Y1271738D1*
X1458379Y1267935D1*
X1454576Y1265990D1*
X1448828D1*
X1444981Y1267935D1*
X1441179Y1271738D1*
X1439233Y1277486D1*
Y1281288D1*
X1441179Y1287036D1*
X1444981Y1290883D1*
X1448828Y1292784D1*
X1454576D1*
X1426882D2*
Y1273639D1*
X1424981Y1267935D1*
X1421134Y1265990D1*
X1415386D1*
X1411583Y1267935D1*
X1405835Y1273639D1*
Y1292784D2*
Y1265990D1*
X1393484Y1292784D2*
Y1265990D1*
Y1281288D2*
X1391539Y1287036D1*
X1387736Y1290883D1*
X1383889Y1292784D1*
X1378141D1*
X1342798Y1287036D2*
X1346644Y1290883D1*
X1350491Y1292784D1*
X1356195D1*
X1360042Y1290883D1*
X1363844Y1287036D1*
X1365790Y1281288D1*
Y1277486D1*
X1363844Y1271738D1*
X1360042Y1267935D1*
X1356195Y1265990D1*
X1350491D1*
X1346644Y1267935D1*
X1342798Y1271738D1*
X1330446Y1281288D2*
X1307498D1*
Y1285135D1*
X1309400Y1288982D1*
X1311301Y1290883D1*
X1315148Y1292784D1*
X1320896D1*
X1324698Y1290883D1*
X1328545Y1287036D1*
X1330446Y1281288D1*
Y1277486D1*
X1328545Y1271738D1*
X1324698Y1267935D1*
X1320896Y1265990D1*
X1315148D1*
X1311301Y1267935D1*
X1307498Y1271738D1*
X1295147Y1286063D2*
X1273039D1*
X1260688Y1292784D2*
Y1252592D1*
Y1287036D2*
X1256841Y1290839D1*
X1253038Y1292784D1*
X1247290D1*
X1243444Y1290839D1*
X1239641Y1287036D1*
X1237696Y1281288D1*
Y1277441D1*
X1239641Y1271738D1*
X1243444Y1267891D1*
X1247290Y1265990D1*
X1253038D1*
X1256841Y1267891D1*
X1260688Y1271738D1*
X1225344Y1292784D2*
Y1265990D1*
Y1281288D2*
X1223399Y1287036D1*
X1219596Y1290883D1*
X1215749Y1292784D1*
X1210001D1*
X1188099D2*
X1191902Y1290883D1*
X1195749Y1287036D1*
X1197650Y1281288D1*
Y1277486D1*
X1195749Y1271738D1*
X1191902Y1267935D1*
X1188099Y1265990D1*
X1182351D1*
X1178505Y1267935D1*
X1174702Y1271738D1*
X1172757Y1277486D1*
Y1281288D1*
X1174702Y1287036D1*
X1178505Y1290883D1*
X1182351Y1292784D1*
X1188099D1*
X1152756Y1306226D2*
X1150810Y1304325D1*
X1148909Y1306226D1*
X1150810Y1308127D1*
X1152756Y1306226D1*
X1150810Y1292828D2*
Y1260286D1*
X1152756Y1254538D1*
X1156558Y1252636D1*
X1160405D1*
X1136558Y1281288D2*
X1113610D1*
Y1285135D1*
X1115511Y1288982D1*
X1117412Y1290883D1*
X1121259Y1292784D1*
X1127007D1*
X1130810Y1290883D1*
X1134656Y1287036D1*
X1136558Y1281288D1*
Y1277486D1*
X1134656Y1271738D1*
X1130810Y1267935D1*
X1127007Y1265990D1*
X1121259D1*
X1117412Y1267935D1*
X1113610Y1271738D1*
X1078266Y1287036D2*
X1082113Y1290883D1*
X1085960Y1292784D1*
X1091664D1*
X1095510Y1290883D1*
X1099313Y1287036D1*
X1101258Y1281288D1*
Y1277486D1*
X1099313Y1271738D1*
X1095510Y1267935D1*
X1091664Y1265990D1*
X1085960D1*
X1082113Y1267935D1*
X1078266Y1271738D1*
X1060167Y1306182D2*
Y1273639D1*
X1058266Y1267935D1*
X1054419Y1265990D1*
X1050616D1*
X1065915Y1292784D2*
X1052518D1*
X1017218Y1287036D2*
X1019120Y1290883D1*
X1024868Y1292784D1*
X1030616D1*
X1036364Y1290883D1*
X1038265Y1287036D1*
X1036364Y1283234D1*
X1032517Y1281288D1*
X1022966Y1279387D1*
X1019120Y1277486D1*
X1017218Y1273639D1*
Y1271738D1*
X1019120Y1267935D1*
X1024868Y1265990D1*
X1030616D1*
X1036364Y1267935D1*
X1038265Y1271738D1*
X1977384Y2205034D2*
D81*
X1987841Y2199805D1*
X1998420Y2189227D1*
X2003648Y2173420D1*
Y2162963D1*
X1998420Y2147156D1*
X1987841Y2136699D1*
X1977384Y2131348D1*
X1961577D1*
X1950998Y2136699D1*
X1940541Y2147156D1*
X1935191Y2162963D1*
Y2173420D1*
X1940541Y2189227D1*
X1950998Y2199805D1*
X1961577Y2205034D1*
X1977384D1*
X1901225Y2241876D2*
X1895997Y2236648D1*
X1890646Y2241876D1*
X1895997Y2247227D1*
X1901225Y2241876D1*
X1895997Y2205034D2*
Y2131348D1*
X1840873Y2241876D2*
Y2152384D1*
X1835645Y2136699D1*
X1825066Y2131348D1*
X1814609D1*
X1856680Y2205034D2*
X1819837D1*
X1775414Y2141927D2*
X1780643Y2136577D1*
X1775414Y2131348D1*
X1770064Y2136577D1*
X1775414Y2141927D1*
X1736098Y2173420D2*
X1672991D1*
Y2183998D1*
X1678219Y2194577D1*
X1683448Y2199805D1*
X1694026Y2205034D1*
X1709834D1*
X1720291Y2199805D1*
X1730869Y2189227D1*
X1736098Y2173420D1*
Y2162963D1*
X1730869Y2147156D1*
X1720291Y2136699D1*
X1709834Y2131348D1*
X1694026D1*
X1683448Y2136699D1*
X1672991Y2147156D1*
X1575918Y2241876D2*
Y2131348D1*
Y2189227D2*
X1586375Y2199805D1*
X1596953Y2205034D1*
X1612760D1*
X1623217Y2199805D1*
X1633796Y2189227D1*
X1639025Y2173420D1*
Y2162963D1*
X1633796Y2147156D1*
X1623217Y2136699D1*
X1612760Y2131348D1*
X1596953D1*
X1586375Y2136699D1*
X1575918Y2147156D1*
X1541951Y2205034D2*
Y2152384D1*
X1536723Y2136699D1*
X1526144Y2131348D1*
X1510337D1*
X1499880Y2136699D1*
X1484073Y2152384D1*
Y2205034D2*
Y2131348D1*
X1450107D2*
X1376422Y2241755D1*
X1279227Y2189227D2*
X1289805Y2199805D1*
X1300384Y2205034D1*
X1316070D1*
X1326648Y2199805D1*
X1337105Y2189227D1*
X1342455Y2173420D1*
Y2162963D1*
X1337105Y2147156D1*
X1326648Y2136699D1*
X1316070Y2131348D1*
X1300384D1*
X1289805Y2136699D1*
X1279227Y2147156D1*
X1187382Y2189227D2*
X1192611Y2199805D1*
X1208418Y2205034D1*
X1224225D1*
X1240032Y2199805D1*
X1245261Y2189227D1*
X1240032Y2178770D1*
X1229453Y2173420D1*
X1203189Y2168191D1*
X1192611Y2162963D1*
X1187382Y2152384D1*
Y2147156D1*
X1192611Y2136699D1*
X1208418Y2131348D1*
X1224225D1*
X1240032Y2136699D1*
X1245261Y2147156D1*
X1153416Y2173420D2*
X1090309D1*
Y2183998D1*
X1095538Y2194577D1*
X1100766Y2199805D1*
X1111345Y2205034D1*
X1127152D1*
X1137609Y2199805D1*
X1148187Y2189227D1*
X1153416Y2173420D1*
Y2162963D1*
X1148187Y2147156D1*
X1137609Y2136699D1*
X1127152Y2131348D1*
X1111345D1*
X1100766Y2136699D1*
X1090309Y2147156D1*
X1040536Y2241876D2*
Y2152384D1*
X1035307Y2136699D1*
X1024729Y2131348D1*
X1014272D1*
X1056343Y2205034D2*
X1019500D1*
X2459453Y2092258D2*
D82*
X2447459Y2042018D1*
X2435521Y2092258D1*
X2423583Y2042018D1*
X2411590Y2092258D1*
X2367465Y2075512D2*
Y2042018D1*
Y2068327D2*
X2372219Y2073135D1*
X2377027Y2075512D1*
X2384157D1*
X2388965Y2073135D1*
X2393718Y2068327D1*
X2396150Y2061142D1*
Y2056388D1*
X2393718Y2049203D1*
X2388965Y2044450D1*
X2384157Y2042018D1*
X2377027D1*
X2372219Y2044450D1*
X2367465Y2049203D1*
X2352026Y2075512D2*
Y2042018D1*
Y2061142D2*
X2349594Y2068327D1*
X2344841Y2073135D1*
X2340033Y2075512D1*
X2332848D1*
X2317408D2*
Y2042018D1*
Y2065950D2*
X2310223Y2073135D1*
X2305415Y2075512D1*
X2298285D1*
X2293477Y2073135D1*
X2291100Y2065950D1*
Y2042018D1*
X2275661Y2092258D2*
X2273284Y2089882D1*
X2270852Y2092258D1*
X2273284Y2094690D1*
X2275661Y2092258D1*
X2273284Y2075512D2*
Y2042018D1*
X2255413Y2075512D2*
Y2042018D1*
Y2065950D2*
X2248228Y2073135D1*
X2243420Y2075512D1*
X2236290D1*
X2231481Y2073135D1*
X2229105Y2065950D1*
Y2042018D1*
X2184981Y2073135D2*
Y2034833D1*
X2187357Y2027704D1*
X2189734Y2025272D1*
X2194542Y2022895D1*
X2201727D1*
X2206481Y2025272D1*
X2184981Y2065950D2*
X2189734Y2070703D1*
X2194542Y2073135D1*
X2201727D1*
X2206481Y2070703D1*
X2211289Y2065950D1*
X2213666Y2058765D1*
Y2053957D1*
X2211289Y2046827D1*
X2206481Y2042018D1*
X2201727Y2039642D1*
X2194542D1*
X2189734Y2042018D1*
X2184981Y2046827D1*
X2167110Y2092203D2*
Y2058765D1*
Y2046827D2*
X2169541Y2044395D1*
X2167110Y2042018D1*
X2164733Y2044395D1*
X2167110Y2046827D1*
X2217484Y3121625D2*
D78*
Y3061337D1*
X2177292Y3121625D2*
Y3061337D1*
X2217484Y3092907D2*
X2177292D1*
X2124343Y3101529D2*
Y3061337D1*
Y3092907D2*
X2130046Y3098677D1*
X2135817Y3101529D1*
X2144372D1*
X2150142Y3098677D1*
X2155846Y3092907D1*
X2158764Y3084285D1*
Y3078581D1*
X2155846Y3069959D1*
X2150142Y3064255D1*
X2144372Y3061337D1*
X2135817D1*
X2130046Y3064255D1*
X2124343Y3069959D1*
X2105815Y3101529D2*
Y3061337D1*
Y3090055D2*
X2097193Y3098677D1*
X2091423Y3101529D1*
X2082868D1*
X2077097Y3098677D1*
X2074246Y3090055D1*
Y3061337D1*
X2021297Y3121625D2*
Y3061337D1*
Y3092907D2*
X2027000Y3098677D1*
X2032771Y3101529D1*
X2041393D1*
X2047096Y3098677D1*
X2052867Y3092907D1*
X2055718Y3084285D1*
Y3078581D1*
X2052867Y3069959D1*
X2047096Y3064255D1*
X2041393Y3061337D1*
X2032771D1*
X2027000Y3064255D1*
X2021297Y3069959D1*
X1971200Y3092907D2*
X1974051Y3098677D1*
X1982673Y3101529D1*
X1991296D1*
X1999918Y3098677D1*
X2002769Y3092907D1*
X1999918Y3087203D1*
X1994147Y3084285D1*
X1979822Y3081433D1*
X1974051Y3078581D1*
X1971200Y3072811D1*
Y3069959D1*
X1974051Y3064255D1*
X1982673Y3061337D1*
X1991296D1*
X1999918Y3064255D1*
X2002769Y3069959D1*
X1952672Y3091448D2*
X1919511D1*
X1886658Y3101529D2*
X1892362Y3098677D1*
X1898132Y3092907D1*
X1900984Y3084285D1*
Y3078581D1*
X1898132Y3069959D1*
X1892362Y3064255D1*
X1886658Y3061337D1*
X1878036D1*
X1872266Y3064255D1*
X1866562Y3069959D1*
X1863644Y3078581D1*
Y3084285D1*
X1866562Y3092907D1*
X1872266Y3098677D1*
X1878036Y3101529D1*
X1886658D1*
X1845116D2*
Y3061337D1*
Y3090055D2*
X1836494Y3098677D1*
X1830724Y3101529D1*
X1822169D1*
X1816398Y3098677D1*
X1813546Y3090055D1*
Y3061337D1*
X1736698Y3121625D2*
Y3061337D1*
X1718171Y3084285D2*
X1683749D1*
Y3090055D1*
X1686601Y3095825D1*
X1689453Y3098677D1*
X1695223Y3101529D1*
X1703845D1*
X1709549Y3098677D1*
X1715319Y3092907D1*
X1718171Y3084285D1*
Y3078581D1*
X1715319Y3069959D1*
X1709549Y3064255D1*
X1703845Y3061337D1*
X1695223D1*
X1689453Y3064255D1*
X1683749Y3069959D1*
X1630800Y3101529D2*
Y3061337D1*
Y3092907D2*
X1636504Y3098677D1*
X1642274Y3101529D1*
X1650830D1*
X1656600Y3098677D1*
X1662304Y3092907D1*
X1665222Y3084285D1*
Y3078581D1*
X1662304Y3069959D1*
X1656600Y3064255D1*
X1650830Y3061337D1*
X1642274D1*
X1636504Y3064255D1*
X1630800Y3069959D1*
X1612273Y3101529D2*
Y3061337D1*
Y3084285D2*
X1609355Y3092907D1*
X1603651Y3098677D1*
X1597881Y3101529D1*
X1589259D1*
X1570732D2*
Y3061337D1*
Y3090055D2*
X1562110Y3098677D1*
X1556340Y3101529D1*
X1547784D1*
X1542014Y3098677D1*
X1539162Y3090055D1*
Y3061337D1*
X1520635Y3121625D2*
X1517783Y3118773D1*
X1514865Y3121625D1*
X1517783Y3124543D1*
X1520635Y3121625D1*
X1517783Y3101529D2*
Y3061337D1*
X1496338Y3101529D2*
Y3061337D1*
Y3090055D2*
X1487716Y3098677D1*
X1481945Y3101529D1*
X1473390D1*
X1467620Y3098677D1*
X1464768Y3090055D1*
Y3061337D1*
X1411819Y3098677D2*
Y3052715D1*
X1414671Y3044159D1*
X1417522Y3041241D1*
X1423293Y3038389D1*
X1431915D1*
X1437618Y3041241D1*
X1411819Y3090055D2*
X1417522Y3095759D1*
X1423293Y3098677D1*
X1431915D1*
X1437618Y3095759D1*
X1443389Y3090055D1*
X1446241Y3081433D1*
Y3075663D1*
X1443389Y3067107D1*
X1437618Y3061337D1*
X1431915Y3058485D1*
X1423293D1*
X1417522Y3061337D1*
X1411819Y3067107D1*
X2395942Y1930109D2*
D79*
Y1889917D1*
Y1910964D2*
X2399744Y1914811D1*
X2403591Y1916712D1*
X2409339D1*
X2413142Y1914811D1*
X2416988Y1910964D1*
X2418890Y1905216D1*
Y1901413D1*
X2416988Y1895665D1*
X2413142Y1891863D1*
X2409339Y1889917D1*
X2403591D1*
X2399744Y1891863D1*
X2395942Y1895665D1*
X2360643Y1916712D2*
Y1889917D1*
Y1910964D2*
X2364445Y1914811D1*
X2368292Y1916712D1*
X2373996D1*
X2377842Y1914811D1*
X2381645Y1910964D1*
X2383590Y1905216D1*
Y1901413D1*
X2381645Y1895665D1*
X2377842Y1891863D1*
X2373996Y1889917D1*
X2368292D1*
X2364445Y1891863D1*
X2360643Y1895665D1*
X2348291Y1916712D2*
Y1889917D1*
Y1909063D2*
X2342543Y1914811D1*
X2338696Y1916712D1*
X2332993D1*
X2329146Y1914811D1*
X2327244Y1909063D1*
Y1889917D1*
Y1909063D2*
X2321496Y1914811D1*
X2317650Y1916712D1*
X2311946D1*
X2308099Y1914811D1*
X2306154Y1909063D1*
Y1889917D1*
X2270854Y1916712D2*
Y1889917D1*
Y1910964D2*
X2274657Y1914811D1*
X2278504Y1916712D1*
X2284207D1*
X2288054Y1914811D1*
X2291857Y1910964D1*
X2293802Y1905216D1*
Y1901413D1*
X2291857Y1895665D1*
X2288054Y1891863D1*
X2284207Y1889917D1*
X2278504D1*
X2274657Y1891863D1*
X2270854Y1895665D1*
X2235555Y1914811D2*
Y1884169D1*
X2237456Y1878466D1*
X2239358Y1876520D1*
X2243204Y1874619D1*
X2248952D1*
X2252755Y1876520D1*
X2235555Y1909063D2*
X2239358Y1912865D1*
X2243204Y1914811D1*
X2248952D1*
X2252755Y1912865D1*
X2256602Y1909063D1*
X2258503Y1903315D1*
Y1899468D1*
X2256602Y1893764D1*
X2252755Y1889917D1*
X2248952Y1888016D1*
X2243204D1*
X2239358Y1889917D1*
X2235555Y1893764D1*
X2223204Y1905216D2*
X2200256D1*
Y1909063D1*
X2202157Y1912910D1*
X2204058Y1914811D1*
X2207905Y1916712D1*
X2213653D1*
X2217456Y1914811D1*
X2221302Y1910964D1*
X2223204Y1905216D1*
Y1901413D1*
X2221302Y1895665D1*
X2217456Y1891863D1*
X2213653Y1889917D1*
X2207905D1*
X2204058Y1891863D1*
X2200256Y1895665D1*
X2143275Y1930109D2*
Y1897567D1*
X2141374Y1891863D1*
X2137527Y1889917D1*
X2133725D1*
X2149024Y1916712D2*
X2135626D1*
X2111823D2*
X2115625Y1914811D1*
X2119472Y1910964D1*
X2121374Y1905216D1*
Y1901413D1*
X2119472Y1895665D1*
X2115625Y1891863D1*
X2111823Y1889917D1*
X2106075D1*
X2102228Y1891863D1*
X2098426Y1895665D1*
X2096480Y1901413D1*
Y1905216D1*
X2098426Y1910964D1*
X2102228Y1914811D1*
X2106075Y1916712D1*
X2111823D1*
X2043302D2*
X2031851Y1889917D1*
X2035653Y1882268D1*
X2039500Y1878421D1*
X2043302Y1876520D1*
X2045248D1*
X2020355Y1916712D2*
X2031851Y1889917D1*
X1998453Y1916712D2*
X2002255Y1914811D1*
X2006102Y1910964D1*
X2008003Y1905216D1*
Y1901413D1*
X2006102Y1895665D1*
X2002255Y1891863D1*
X1998453Y1889917D1*
X1992705D1*
X1988858Y1891863D1*
X1985055Y1895665D1*
X1983110Y1901413D1*
Y1905216D1*
X1985055Y1910964D1*
X1988858Y1914811D1*
X1992705Y1916712D1*
X1998453D1*
X1970758D2*
Y1897567D1*
X1968857Y1891863D1*
X1965010Y1889917D1*
X1959262D1*
X1955460Y1891863D1*
X1949712Y1897567D1*
Y1916712D2*
Y1889917D1*
X1937360Y1916712D2*
Y1889917D1*
Y1905216D2*
X1935415Y1910964D1*
X1931612Y1914811D1*
X1927766Y1916712D1*
X1922018D1*
X1912825Y2984330D2*
D78*
X1918529D1*
X1924299Y2981478D1*
X1927151Y2972856D1*
Y2924042D1*
X1935773Y2964234D2*
X1915677D1*
X1879972D2*
X1885676Y2961382D1*
X1891446Y2955612D1*
X1894298Y2946990D1*
Y2941286D1*
X1891446Y2932664D1*
X1885676Y2926960D1*
X1879972Y2924042D1*
X1871350D1*
X1865580Y2926960D1*
X1859876Y2932664D1*
X1856958Y2941286D1*
Y2946990D1*
X1859876Y2955612D1*
X1865580Y2961382D1*
X1871350Y2964234D1*
X1879972D1*
X1838431D2*
Y2924042D1*
Y2946990D2*
X1835513Y2955612D1*
X1829809Y2961382D1*
X1824039Y2964234D1*
X1815417D1*
X1738569D2*
Y2924042D1*
Y2946990D2*
X1735650Y2955612D1*
X1729947Y2961382D1*
X1724176Y2964234D1*
X1715554D1*
X1697027Y2946990D2*
X1662605D1*
Y2952760D1*
X1665457Y2958530D1*
X1668309Y2961382D1*
X1674079Y2964234D1*
X1682701D1*
X1688405Y2961382D1*
X1694175Y2955612D1*
X1697027Y2946990D1*
Y2941286D1*
X1694175Y2932664D1*
X1688405Y2926960D1*
X1682701Y2924042D1*
X1674079D1*
X1668309Y2926960D1*
X1662605Y2932664D1*
X1609656Y2964234D2*
Y2924042D1*
Y2955612D2*
X1615360Y2961382D1*
X1621130Y2964234D1*
X1629686D1*
X1635456Y2961382D1*
X1641160Y2955612D1*
X1644078Y2946990D1*
Y2941286D1*
X1641160Y2932664D1*
X1635456Y2926960D1*
X1629686Y2924042D1*
X1621130D1*
X1615360Y2926960D1*
X1609656Y2932664D1*
X1591129Y2984330D2*
Y2924042D1*
X1572602Y2954153D2*
X1539441D1*
X1520913Y2964234D2*
X1509439Y2924042D1*
X1497966Y2964234D1*
X1486492Y2924042D1*
X1475018Y2964234D1*
X1442165D2*
X1447868Y2961382D1*
X1453639Y2955612D1*
X1456491Y2946990D1*
Y2941286D1*
X1453639Y2932664D1*
X1447868Y2926960D1*
X1442165Y2924042D1*
X1433543D1*
X1427772Y2926960D1*
X1422069Y2932664D1*
X1419150Y2941286D1*
Y2946990D1*
X1422069Y2955612D1*
X1427772Y2961382D1*
X1433543Y2964234D1*
X1442165D1*
X1400623D2*
Y2924042D1*
Y2946990D2*
X1397705Y2955612D1*
X1392001Y2961382D1*
X1386231Y2964234D1*
X1377609D1*
X1359082Y2984330D2*
Y2924042D1*
X1306133Y2984330D2*
Y2924042D1*
Y2955612D2*
X1311837Y2961382D1*
X1317607Y2964234D1*
X1326229D1*
X1331933Y2961382D1*
X1337703Y2955612D1*
X1340555Y2946990D1*
Y2941286D1*
X1337703Y2932664D1*
X1331933Y2926960D1*
X1326229Y2924042D1*
X1317607D1*
X1311837Y2926960D1*
X1306133Y2932664D1*
X1194863Y2964234D2*
Y2924042D1*
Y2955612D2*
X1200567Y2961382D1*
X1206337Y2964234D1*
X1214893D1*
X1220663Y2961382D1*
X1226367Y2955612D1*
X1229285Y2946990D1*
Y2941286D1*
X1226367Y2932664D1*
X1220663Y2926960D1*
X1214893Y2924042D1*
X1206337D1*
X1200567Y2926960D1*
X1194863Y2932664D1*
X1141848Y2955612D2*
X1147618Y2961382D1*
X1153388Y2964234D1*
X1161944D1*
X1167714Y2961382D1*
X1173418Y2955612D1*
X1176336Y2946990D1*
Y2941286D1*
X1173418Y2932664D1*
X1167714Y2926960D1*
X1161944Y2924042D1*
X1153388D1*
X1147618Y2926960D1*
X1141848Y2932664D1*
X1123321Y2984330D2*
Y2924042D1*
Y2952760D2*
X1114698Y2961382D1*
X1108928Y2964234D1*
X1100306D1*
X1094602Y2961382D1*
X1091751Y2952760D1*
Y2924042D1*
X1073223Y2984330D2*
X1070372Y2981478D1*
X1067453Y2984330D1*
X1070372Y2987248D1*
X1073223Y2984330D1*
X1070372Y2964234D2*
Y2924042D1*
X1048926Y2946990D2*
X1014504D1*
Y2952760D1*
X1017356Y2958530D1*
X1020208Y2961382D1*
X1025978Y2964234D1*
X1034600D1*
X1040304Y2961382D1*
X1046074Y2955612D1*
X1048926Y2946990D1*
Y2941286D1*
X1046074Y2932664D1*
X1040304Y2926960D1*
X1034600Y2924042D1*
X1025978D1*
X1020208Y2926960D1*
X1014504Y2932664D1*
X995977Y2964234D2*
X978733Y2924042D1*
X961555Y2964234D1*
X943028Y2946990D2*
X908606D1*
Y2952760D1*
X911458Y2958530D1*
X914310Y2961382D1*
X920080Y2964234D1*
X928702D1*
X934406Y2961382D1*
X940176Y2955612D1*
X943028Y2946990D1*
Y2941286D1*
X940176Y2932664D1*
X934406Y2926960D1*
X928702Y2924042D1*
X920080D1*
X914310Y2926960D1*
X908606Y2932664D1*
X890079Y2964234D2*
Y2924042D1*
Y2952760D2*
X881457Y2961382D1*
X875687Y2964234D1*
X867131D1*
X861361Y2961382D1*
X858509Y2952760D1*
Y2924042D1*
Y2952760D2*
X849887Y2961382D1*
X844117Y2964234D1*
X835561D1*
X829791Y2961382D1*
X826873Y2952760D1*
Y2924042D1*
X808346Y2946990D2*
X773924D1*
Y2952760D1*
X776776Y2958530D1*
X779628Y2961382D1*
X785398Y2964234D1*
X794020D1*
X799724Y2961382D1*
X805494Y2955612D1*
X808346Y2946990D1*
Y2941286D1*
X805494Y2932664D1*
X799724Y2926960D1*
X794020Y2924042D1*
X785398D1*
X779628Y2926960D1*
X773924Y2932664D1*
X755397Y2964234D2*
Y2924042D1*
Y2952760D2*
X746775Y2961382D1*
X741005Y2964234D1*
X732449D1*
X726679Y2961382D1*
X723827Y2952760D1*
Y2924042D1*
X696678Y2984330D2*
Y2935516D1*
X693826Y2926960D1*
X688056Y2924042D1*
X682352D1*
X705300Y2964234D2*
X685204D1*
X660973Y2929812D2*
X663825Y2926894D1*
X660973Y2924042D1*
X658055Y2926894D1*
X660973Y2929812D1*
X1922432Y1224426D2*
D79*
Y1197631D1*
Y1212930D2*
X1920487Y1218678D1*
X1916684Y1222525D1*
X1912837Y1224426D1*
X1907089D1*
X1894738Y1212930D2*
X1871790D1*
Y1216777D1*
X1873691Y1220623D1*
X1875593Y1222525D1*
X1879439Y1224426D1*
X1885187D1*
X1888990Y1222525D1*
X1892837Y1218678D1*
X1894738Y1212930D1*
Y1209127D1*
X1892837Y1203379D1*
X1888990Y1199577D1*
X1885187Y1197631D1*
X1879439D1*
X1875593Y1199577D1*
X1871790Y1203379D1*
X1836491Y1224426D2*
Y1197631D1*
Y1218678D2*
X1840293Y1222525D1*
X1844140Y1224426D1*
X1849844D1*
X1853691Y1222525D1*
X1857493Y1218678D1*
X1859439Y1212930D1*
Y1209127D1*
X1857493Y1203379D1*
X1853691Y1199577D1*
X1849844Y1197631D1*
X1844140D1*
X1840293Y1199577D1*
X1836491Y1203379D1*
X1801191Y1237823D2*
Y1197631D1*
Y1218678D2*
X1804994Y1222525D1*
X1808841Y1224426D1*
X1814589D1*
X1818391Y1222525D1*
X1822238Y1218678D1*
X1824139Y1212930D1*
Y1209127D1*
X1822238Y1203379D1*
X1818391Y1199577D1*
X1814589Y1197631D1*
X1808841D1*
X1804994Y1199577D1*
X1801191Y1203379D1*
X1749959Y1237823D2*
X1748058Y1235922D1*
X1746113Y1237823D1*
X1748058Y1239769D1*
X1749959Y1237823D1*
X1748058Y1224426D2*
Y1197631D1*
X1733761Y1224426D2*
Y1197631D1*
Y1216777D2*
X1728013Y1222525D1*
X1724166Y1224426D1*
X1718463D1*
X1714616Y1222525D1*
X1712714Y1216777D1*
Y1197631D1*
X1679316Y1218678D2*
X1681218Y1222525D1*
X1686966Y1224426D1*
X1692714D1*
X1698462Y1222525D1*
X1700363Y1218678D1*
X1698462Y1214875D1*
X1694615Y1212930D1*
X1685064Y1211029D1*
X1681218Y1209127D1*
X1679316Y1205281D1*
Y1203379D1*
X1681218Y1199577D1*
X1686966Y1197631D1*
X1692714D1*
X1698462Y1199577D1*
X1700363Y1203379D1*
X1661217Y1237823D2*
Y1205281D1*
X1659316Y1199577D1*
X1655469Y1197631D1*
X1651666D1*
X1666965Y1224426D2*
X1653568D1*
X1639315D2*
Y1197631D1*
Y1212930D2*
X1637370Y1218678D1*
X1633567Y1222525D1*
X1629720Y1224426D1*
X1623972D1*
X1611621D2*
Y1205281D1*
X1609720Y1199577D1*
X1605873Y1197631D1*
X1600125D1*
X1596322Y1199577D1*
X1590574Y1205281D1*
Y1224426D2*
Y1197631D1*
X1555231Y1218678D2*
X1559077Y1222525D1*
X1562924Y1224426D1*
X1568628D1*
X1572475Y1222525D1*
X1576277Y1218678D1*
X1578223Y1212930D1*
Y1209127D1*
X1576277Y1203379D1*
X1572475Y1199577D1*
X1568628Y1197631D1*
X1562924D1*
X1559077Y1199577D1*
X1555231Y1203379D1*
X1537131Y1237823D2*
Y1205281D1*
X1535230Y1199577D1*
X1531383Y1197631D1*
X1527581D1*
X1542879Y1224426D2*
X1529482D1*
X1515229Y1237823D2*
X1513328Y1235922D1*
X1511383Y1237823D1*
X1513328Y1239769D1*
X1515229Y1237823D1*
X1513328Y1224426D2*
Y1197631D1*
X1489481Y1224426D2*
X1493283Y1222525D1*
X1497130Y1218678D1*
X1499031Y1212930D1*
Y1209127D1*
X1497130Y1203379D1*
X1493283Y1199577D1*
X1489481Y1197631D1*
X1483733D1*
X1479886Y1199577D1*
X1476083Y1203379D1*
X1474138Y1209127D1*
Y1212930D1*
X1476083Y1218678D1*
X1479886Y1222525D1*
X1483733Y1224426D1*
X1489481D1*
X1461786D2*
Y1197631D1*
Y1216777D2*
X1456038Y1222525D1*
X1452192Y1224426D1*
X1446488D1*
X1442641Y1222525D1*
X1440740Y1216777D1*
Y1197631D1*
X1407342Y1218678D2*
X1409243Y1222525D1*
X1414991Y1224426D1*
X1420739D1*
X1426487Y1222525D1*
X1428388Y1218678D1*
X1426487Y1214875D1*
X1422640Y1212930D1*
X1413090Y1211029D1*
X1409243Y1209127D1*
X1407342Y1205281D1*
Y1203379D1*
X1409243Y1199577D1*
X1414991Y1197631D1*
X1420739D1*
X1426487Y1199577D1*
X1428388Y1203379D1*
X1393045Y1237779D2*
Y1211029D1*
Y1201478D2*
X1394990Y1199533D1*
X1393045Y1197631D1*
X1391143Y1199533D1*
X1393045Y1201478D1*
X2252126Y1836380D2*
X2255973Y1840227D1*
X2259819Y1842128D1*
X2265523D1*
X2269370Y1840227D1*
X2273172Y1836380D1*
X2275118Y1830632D1*
Y1826829D1*
X2273172Y1821081D1*
X2269370Y1817279D1*
X2265523Y1815333D1*
X2259819D1*
X2255973Y1817279D1*
X2252126Y1821081D1*
X2230224Y1842128D2*
X2234026Y1840227D1*
X2237873Y1836380D1*
X2239774Y1830632D1*
Y1826829D1*
X2237873Y1821081D1*
X2234026Y1817279D1*
X2230224Y1815333D1*
X2224476D1*
X2220629Y1817279D1*
X2216826Y1821081D1*
X2214881Y1826829D1*
Y1830632D1*
X2216826Y1836380D1*
X2220629Y1840227D1*
X2224476Y1842128D1*
X2230224D1*
X2202530D2*
Y1815333D1*
Y1834479D2*
X2196782Y1840227D1*
X2192935Y1842128D1*
X2187231D1*
X2183384Y1840227D1*
X2181483Y1834479D1*
Y1815333D1*
Y1834479D2*
X2175735Y1840227D1*
X2171888Y1842128D1*
X2166184D1*
X2162338Y1840227D1*
X2160392Y1834479D1*
Y1815333D1*
X2148041Y1842128D2*
Y1801936D1*
Y1836380D2*
X2144194Y1840183D1*
X2140391Y1842128D1*
X2134643D1*
X2130797Y1840183D1*
X2126994Y1836380D1*
X2125049Y1830632D1*
Y1826785D1*
X2126994Y1821081D1*
X2130797Y1817235D1*
X2134643Y1815333D1*
X2140391D1*
X2144194Y1817235D1*
X2148041Y1821081D1*
X2112697Y1842128D2*
Y1822983D1*
X2110796Y1817279D1*
X2106949Y1815333D1*
X2101201D1*
X2097399Y1817279D1*
X2091651Y1822983D1*
Y1842128D2*
Y1815333D1*
X2073551Y1855525D2*
Y1822983D1*
X2071650Y1817279D1*
X2067803Y1815333D1*
X2064001D1*
X2079299Y1842128D2*
X2065902D1*
X2051649Y1830632D2*
X2028701D1*
Y1834479D1*
X2030603Y1838326D1*
X2032504Y1840227D1*
X2036351Y1842128D1*
X2042099D1*
X2045901Y1840227D1*
X2049748Y1836380D1*
X2051649Y1830632D1*
Y1826829D1*
X2049748Y1821081D1*
X2045901Y1817279D1*
X2042099Y1815333D1*
X2036351D1*
X2032504Y1817279D1*
X2028701Y1821081D1*
X2016350Y1842128D2*
Y1815333D1*
Y1830632D2*
X2014404Y1836380D1*
X2010602Y1840227D1*
X2006755Y1842128D1*
X2001007D1*
X2447436Y1996930D2*
Y1956738D1*
X2471551Y1996930D1*
Y1956738D1*
X2427724Y1983532D2*
X2431146Y1981631D1*
X2434608Y1977784D1*
X2436319Y1972036D1*
Y1968234D1*
X2434608Y1962486D1*
X2431146Y1958683D1*
X2427724Y1956738D1*
X2422551D1*
X2419089Y1958683D1*
X2415666Y1962486D1*
X2413915Y1968234D1*
Y1972036D1*
X2415666Y1977784D1*
X2419089Y1981631D1*
X2422551Y1983532D1*
X2427724D1*
X2397626Y1996930D2*
Y1964387D1*
X2395915Y1958683D1*
X2392453Y1956738D1*
X2389030D1*
X2402799Y1983532D2*
X2390742D1*
X2342921D2*
Y1956738D1*
Y1972036D2*
X2341170Y1977784D1*
X2337748Y1981631D1*
X2334286Y1983532D1*
X2329113D1*
X2317997Y1972036D2*
X2297344D1*
Y1975883D1*
X2299055Y1979730D1*
X2300766Y1981631D1*
X2304228Y1983532D1*
X2309401D1*
X2312823Y1981631D1*
X2316285Y1977784D1*
X2317997Y1972036D1*
Y1968234D1*
X2316285Y1962486D1*
X2312823Y1958683D1*
X2309401Y1956738D1*
X2304228D1*
X2300766Y1958683D1*
X2297344Y1962486D1*
X2267285Y1977784D2*
X2268996Y1981631D1*
X2274170Y1983532D1*
X2279343D1*
X2284516Y1981631D1*
X2286227Y1977784D1*
X2284516Y1973982D1*
X2281054Y1972036D1*
X2272459Y1970135D1*
X2268996Y1968234D1*
X2267285Y1964387D1*
Y1962486D1*
X2268996Y1958683D1*
X2274170Y1956738D1*
X2279343D1*
X2284516Y1958683D1*
X2286227Y1962486D1*
X2256169Y1983532D2*
Y1943340D1*
Y1977784D2*
X2252707Y1981587D1*
X2249285Y1983532D1*
X2244111D1*
X2240649Y1981587D1*
X2237227Y1977784D1*
X2235476Y1972036D1*
Y1968189D1*
X2237227Y1962486D1*
X2240649Y1958639D1*
X2244111Y1956738D1*
X2249285D1*
X2252707Y1958639D1*
X2256169Y1962486D1*
X2215764Y1983532D2*
X2219187Y1981631D1*
X2222649Y1977784D1*
X2224360Y1972036D1*
Y1968234D1*
X2222649Y1962486D1*
X2219187Y1958683D1*
X2215764Y1956738D1*
X2210591D1*
X2207129Y1958683D1*
X2203707Y1962486D1*
X2201956Y1968234D1*
Y1972036D1*
X2203707Y1977784D1*
X2207129Y1981631D1*
X2210591Y1983532D1*
X2215764D1*
X2190840D2*
Y1956738D1*
Y1975883D2*
X2185666Y1981631D1*
X2182204Y1983532D1*
X2177071D1*
X2173609Y1981631D1*
X2171898Y1975883D1*
Y1956738D1*
X2141839Y1977784D2*
X2143550Y1981631D1*
X2148724Y1983532D1*
X2153897D1*
X2159070Y1981631D1*
X2160781Y1977784D1*
X2159070Y1973982D1*
X2155608Y1972036D1*
X2147013Y1970135D1*
X2143550Y1968234D1*
X2141839Y1964387D1*
Y1962486D1*
X2143550Y1958683D1*
X2148724Y1956738D1*
X2153897D1*
X2159070Y1958683D1*
X2160781Y1962486D1*
X2130723Y1996930D2*
X2129012Y1995028D1*
X2127261Y1996930D1*
X2129012Y1998875D1*
X2130723Y1996930D1*
X2129012Y1983532D2*
Y1956738D1*
X2116145Y1996930D2*
Y1956738D1*
Y1977784D2*
X2112683Y1981631D1*
X2109260Y1983532D1*
X2104087D1*
X2100665Y1981631D1*
X2097203Y1977784D1*
X2095492Y1972036D1*
Y1968234D1*
X2097203Y1962486D1*
X2100665Y1958683D1*
X2104087Y1956738D1*
X2109260D1*
X2112683Y1958683D1*
X2116145Y1962486D1*
X2084375Y1996930D2*
Y1956738D1*
X2073259Y1972036D2*
X2052606D1*
Y1975883D1*
X2054317Y1979730D1*
X2056028Y1981631D1*
X2059490Y1983532D1*
X2064664D1*
X2068086Y1981631D1*
X2071548Y1977784D1*
X2073259Y1972036D1*
Y1968234D1*
X2071548Y1962486D1*
X2068086Y1958683D1*
X2064664Y1956738D1*
X2059490D1*
X2056028Y1958683D1*
X2052606Y1962486D1*
X1992728Y1996930D2*
X1996151D1*
X1999613Y1995028D1*
X2001324Y1989280D1*
Y1956738D1*
X2006497Y1983532D2*
X1994439D1*
X1973017D2*
X1976439Y1981631D1*
X1979901Y1977784D1*
X1981612Y1972036D1*
Y1968234D1*
X1979901Y1962486D1*
X1976439Y1958683D1*
X1973017Y1956738D1*
X1967843D1*
X1964381Y1958683D1*
X1960959Y1962486D1*
X1959208Y1968234D1*
Y1972036D1*
X1960959Y1977784D1*
X1964381Y1981631D1*
X1967843Y1983532D1*
X1973017D1*
X1948092D2*
Y1956738D1*
Y1972036D2*
X1946341Y1977784D1*
X1942918Y1981631D1*
X1939456Y1983532D1*
X1934283D1*
X2244829Y1388799D2*
X2285021D1*
X2244829Y1364683D2*
X2271623Y1388799D1*
X2262029Y1380203D2*
X2285021Y1364683D1*
X2281174Y1351856D2*
X2283119Y1353567D1*
X2285021Y1351856D1*
X2283119Y1350105D1*
X2281174Y1351856D1*
X2265875Y1303996D2*
Y1288476D1*
X2263974Y1283343D1*
X2262029Y1281592D1*
X2258226Y1279881D1*
X2252478D1*
X2248675Y1281592D1*
X2246730Y1283343D1*
X2244829Y1288476D1*
Y1303996D1*
X2285021D1*
X2244829Y1268765D2*
X2246730Y1267054D1*
X2244829Y1265303D1*
X2242883Y1267054D1*
X2244829Y1268765D1*
X2258226Y1267054D2*
X2285021D1*
X2258226Y1254186D2*
X2285021D1*
X2265875D2*
X2260127Y1249013D1*
X2258226Y1245551D1*
Y1240418D1*
X2260127Y1236955D1*
X2265875Y1235244D1*
X2285021D1*
X2244829Y1218955D2*
X2277371D1*
X2283075Y1217244D1*
X2285021Y1213782D1*
Y1210359D1*
X2258226Y1224128D2*
Y1212070D1*
Y1190648D2*
X2260127Y1194070D1*
X2263974Y1197532D1*
X2269722Y1199243D1*
X2273525D1*
X2279273Y1197532D1*
X2283075Y1194070D1*
X2285021Y1190648D1*
Y1185474D1*
X2283075Y1182012D1*
X2279273Y1178590D1*
X2273525Y1176839D1*
X2269722D1*
X2263974Y1178590D1*
X2260127Y1182012D1*
X2258226Y1185474D1*
Y1190648D1*
Y1165723D2*
X2285021D1*
X2265875D2*
X2260127Y1160550D1*
X2258226Y1157087D1*
Y1151954D1*
X2260127Y1148492D1*
X2265875Y1146781D1*
X2285021D1*
X2260127Y1115011D2*
X2290769D1*
X2296472Y1116723D1*
X2298418Y1118434D1*
X2300319Y1121896D1*
Y1127069D1*
X2298418Y1130491D1*
X2265875Y1115011D2*
X2262073Y1118434D1*
X2260127Y1121896D1*
Y1127069D1*
X2262073Y1130491D1*
X2265875Y1133953D1*
X2271623Y1135665D1*
X2275470D1*
X2281174Y1133953D1*
X2285021Y1130491D1*
X2286922Y1127069D1*
Y1121896D1*
X2285021Y1118434D1*
X2281174Y1115011D1*
X2254423Y1067152D2*
X2252522D1*
X2248675Y1065440D1*
X2246774Y1063729D1*
X2244873Y1060267D1*
Y1053383D1*
X2246774Y1049961D1*
X2248675Y1048249D1*
X2252522Y1046498D1*
X2256325D1*
X2260172Y1048249D1*
X2265875Y1051672D1*
X2285021Y1068902D1*
Y1044787D1*
X2244873Y1023325D2*
X2246774Y1028498D1*
X2252522Y1031960D1*
X2262073Y1033671D1*
X2267821D1*
X2277371Y1031960D1*
X2283119Y1028498D1*
X2285021Y1023325D1*
Y1019902D1*
X2283119Y1014729D1*
X2277371Y1011307D1*
X2267821Y1009556D1*
X2262073D1*
X2252522Y1011307D1*
X2246774Y1014729D1*
X2244873Y1019902D1*
Y1023325D1*
X2252522Y1011307D2*
X2277371Y1031960D1*
X2252522Y998440D2*
X2250577Y994978D1*
X2244873Y989804D1*
X2285021D1*
X2258226Y956284D2*
X2263974Y958035D1*
X2267821Y961457D1*
X2269722Y966630D1*
Y968342D1*
X2267821Y973515D1*
X2263974Y976937D1*
X2258226Y978688D1*
X2256325D1*
X2250577Y976937D1*
X2246774Y973515D1*
X2244873Y968342D1*
Y966630D1*
X2246774Y961457D1*
X2250577Y958035D1*
X2258226Y956284D1*
X2267821D1*
X2277371Y958035D1*
X2283119Y961457D1*
X2285021Y966630D1*
Y970053D1*
X2283119Y975226D1*
X2279273Y976937D1*
M02*
