G04 DipTrace 3.3.1.3*
G04 Bottom.gbr*
%MOIN*%
G04 #@! TF.FileFunction,Copper,L2,Bot*
G04 #@! TF.Part,Single*
%AMOUTLINE0*
4,1,4,
0.038575,0.022271,
0.022271,-0.038575,
-0.038575,-0.022271,
-0.022271,0.038575,
0.038575,0.022271,
0*%
%AMOUTLINE3*
4,1,4,
0.002276,0.044484,
0.044484,-0.002276,
-0.002276,-0.044484,
-0.044484,0.002276,
0.002276,0.044484,
0*%
%AMOUTLINE6*
4,1,4,
0.0,-0.041758,
-0.041758,0.0,
0.0,0.041758,
0.041758,0.0,
0.0,-0.041758,
0*%
%AMOUTLINE9*
4,1,4,
-0.041758,0.0,
0.0,0.041758,
0.041758,0.0,
0.0,-0.041758,
-0.041758,0.0,
0*%
%AMOUTLINE12*
4,1,4,
-0.023433,-0.034564,
-0.034564,0.023433,
0.023433,0.034564,
0.034564,-0.023433,
-0.023433,-0.034564,
0*%
%AMOUTLINE15*
4,1,4,
-0.022754,-0.035014,
-0.035014,0.022754,
0.022754,0.035014,
0.035014,-0.022754,
-0.022754,-0.035014,
0*%
%AMOUTLINE18*
4,1,16,
-0.026904,-0.031936,
-0.022899,-0.044452,
-0.01386,-0.053991,
-0.001577,-0.058663,
0.011516,-0.057543,
0.022827,-0.050853,
0.030115,-0.039918,
0.031936,-0.026904,
0.026904,0.031936,
0.022899,0.044452,
0.01386,0.053991,
0.001577,0.058663,
-0.011516,0.057543,
-0.022827,0.050853,
-0.030115,0.039918,
-0.031936,0.026904,
-0.026904,-0.031936,
0*%
G04 #@! TA.AperFunction,Conductor*
%ADD13C,0.01*%
%ADD14C,0.015*%
%ADD15C,0.02*%
G04 #@! TA.AperFunction,CopperBalancing*
%ADD16C,0.025*%
%ADD17C,0.013*%
G04 #@! TA.AperFunction,ComponentPad*
%ADD18C,0.062992*%
%ADD19C,0.05*%
%ADD20R,0.05X0.05*%
%ADD21O,0.041339X0.066929*%
%ADD22R,0.041339X0.066929*%
%ADD23C,0.059055*%
%ADD24R,0.066929X0.066929*%
%ADD25C,0.066929*%
%ADD26C,0.06*%
%ADD27C,0.06*%
%ADD28R,0.106299X0.062992*%
G04 #@! TA.AperFunction,ComponentPad*
%ADD29C,0.059055*%
%ADD30R,0.059055X0.059055*%
%ADD32R,0.037402X0.096457*%
%ADD33R,0.139764X0.09252*%
G04 #@! TA.AperFunction,ViaPad*
%ADD34C,0.04*%
G04 #@! TA.AperFunction,ComponentPad*
%ADD84OUTLINE0*%
%ADD87OUTLINE3*%
%ADD90OUTLINE6*%
%ADD93OUTLINE9*%
%ADD96OUTLINE12*%
%ADD99OUTLINE15*%
%ADD102OUTLINE18*%
%FSLAX26Y26*%
G04*
G70*
G90*
G75*
G01*
G04 Bottom*
%LPD*%
X592234Y1389074D2*
D13*
X1064108D1*
X1093564Y1418529D1*
X1143621D1*
X1168556D1*
X1224863Y1474836D1*
X1799802D1*
X1806052Y1481086D1*
X1899792D1*
X1999781Y1581075D1*
X2318498D1*
X1443621Y1818529D2*
X1825291D1*
X1836915Y1830154D1*
Y1820550D1*
X1977361D1*
X2106584Y1691327D1*
X2432336Y1560560D2*
X2390934D1*
X2294712Y1464338D1*
X2229007D1*
X2181017Y1512328D1*
X1836915Y1730154D2*
X1455246D1*
X1443621Y1718529D1*
X2087271Y1193617D2*
X2284476D1*
X2337601Y1246742D1*
X1443621Y1718529D2*
X1349818D1*
X1306104Y1674815D1*
X592234Y1489074D2*
X1051620D1*
X1081075Y1518529D1*
X1143621D1*
X1343548D1*
X1393595Y1568577D1*
X1793553D1*
X1806052Y1581075D1*
X1899792D1*
X1924789Y1606073D1*
X2281002D1*
X2299750Y1624821D1*
X2318498D1*
X2508915Y1815238D1*
Y1864987D1*
X1443621Y1918529D2*
X1825291D1*
X1836915Y1930154D1*
X1506083Y3624611D2*
Y2980929D1*
X1687314Y2799697D1*
X1443621Y1618529D2*
X1825291D1*
X1836915Y1630154D1*
Y1530154D2*
X1455246D1*
X1443621Y1518529D1*
X656162Y2174763D2*
Y2205999D1*
X693669Y2243506D1*
X1587325D1*
X1721750Y887398D2*
D14*
Y1115745D1*
Y887398D2*
Y859340D1*
X1718561Y856151D1*
Y1001886D1*
X1800217D1*
X1946496Y855608D1*
X2151535D1*
X2214408Y1338338D2*
X2417495D1*
X2465728Y1386570D1*
X2124051Y1020311D2*
X2321255D1*
X2374381Y1073437D1*
X1143621Y2018529D2*
Y2024779D1*
X1056130D1*
X1024884Y1993532D1*
X818655D1*
X756162Y2056025D1*
Y2074763D1*
X1349850Y1399844D2*
X1633949Y1115745D1*
X1721750D1*
Y887398D2*
Y846842D1*
X1687314Y812406D1*
X512438Y3705852D2*
X583149Y3635141D1*
Y3624611D1*
X871861D1*
X921856Y3574616D1*
X1349849D1*
X1393595Y3618362D1*
X1263570Y2943432D2*
Y2945432D1*
X1393595Y3618362D2*
Y3012175D1*
X1906041Y2499729D1*
X2187262D1*
X2205998Y2480993D1*
Y2430986D1*
D13*
Y2281014D1*
X2262254Y2224758D1*
Y2143516D1*
X2443485Y1962285D1*
X2518477D1*
X2568472Y1912291D1*
Y1743558D1*
X2518477Y1693564D1*
Y1439319D1*
X2465728Y1386570D1*
X2393490Y3718351D2*
D14*
X2322779Y3647640D1*
X2316530D1*
X1874794Y3205905D1*
X1806052D1*
X1724810Y3287146D1*
Y3362138D1*
X1712301D1*
X1443621Y2018529D2*
X1449871Y2024779D1*
X1887293D1*
X1912291Y2049776D1*
X2012280D1*
X2049776Y2087272D1*
X1574826Y768661D2*
X1762306D1*
X1990494D1*
X2096732Y662422D1*
X2099771D1*
X1812301Y887398D2*
X1806052D1*
Y812406D1*
X1762306Y768661D1*
X556162Y2074763D2*
X687388Y1943537D1*
X1024884D1*
X1049881Y1968535D1*
X1393627D1*
X1443621Y2018529D1*
X1106115Y3362138D2*
Y3012186D1*
X1331102Y2787199D1*
Y2762201D1*
X1443590Y2649713D1*
X1581075D1*
X2049776Y2181012D1*
Y2087272D1*
X708639Y1033161D2*
X879121D1*
X1218612Y693670D1*
Y568681D1*
X1852493Y3824611D2*
D13*
Y3752294D1*
X1799802Y3699603D1*
Y3374637D1*
X1812301Y3362138D1*
X1678923Y620994D2*
Y633317D1*
X1618571Y693669D1*
X1381096D1*
X1249860Y824905D1*
Y962390D1*
X1137372Y1074878D1*
Y1118624D1*
X1087378Y1168618D1*
X1056131D1*
X592234Y1889074D2*
X1114166D1*
X1143621Y1918529D1*
X592234Y1789074D2*
X1114166D1*
X1143621Y1818529D1*
X718666Y1337351D2*
Y1287356D1*
X737414Y1268608D1*
Y1162369D1*
X713030Y1137986D1*
X688338D1*
X1081128Y1062380D2*
X1099875D1*
X1206115Y956141D1*
Y806157D1*
X1337351Y674920D1*
X1539832D1*
X1600469Y614284D1*
X2318498Y2430986D2*
X2362243D1*
X2430986Y2362243D1*
Y2243506D1*
X2449734Y2262253D1*
X2462233D1*
X2262248Y2430986D2*
Y2349750D1*
X2324747Y2287251D1*
Y2187262D1*
X2330997D1*
X1143621Y1718529D2*
Y1724810D1*
X1112375Y1693564D1*
X596724D1*
X592234Y1689074D1*
X2149748Y2430986D2*
Y2193528D1*
X2199760Y2143517D1*
X2187262D1*
X1776990Y629381D2*
Y644700D1*
D15*
X1701024Y720666D1*
X1510333D1*
X1399844Y831154D1*
Y849902D1*
X1631199Y887398D2*
X1531081D1*
X1462338Y956141D1*
X1374847D1*
X1362348Y968640D1*
D13*
X1399844D1*
Y960138D1*
X1443621Y1418529D2*
X1825291D1*
X1836915Y1430154D1*
X756162Y2174763D2*
X824905Y2106020D1*
X1518582D1*
X592234Y1589074D2*
X1064129D1*
X1093585Y1618529D1*
X1143621D1*
X1337309D1*
X1387346Y1668566D1*
X1787304D1*
X1799802Y1681065D1*
X1893543D1*
X1943537Y1631070D1*
X2206010D1*
X2244721Y1669781D1*
Y1747665D1*
D34*
X2318498Y1581075D3*
X1306104Y1674815D3*
X1687314Y2799697D3*
X1587325Y2243506D3*
X1349850Y1399844D3*
X1687314Y812406D3*
X1263570Y2943432D3*
X1574826Y768661D3*
X718666Y1337351D3*
X1518582Y2106020D3*
X1335371Y1339478D2*
D16*
X1985436D1*
X1335766Y1314609D2*
X1985041D1*
X1336124Y1289741D2*
X1984683D1*
X1336519Y1264872D2*
X1984288D1*
X1336877Y1240003D2*
X1964875D1*
X1337272Y1215134D2*
X1957087D1*
X1337630Y1190266D2*
X1620852D1*
X1822642D2*
X1962363D1*
X1338025Y1165397D2*
X1620852D1*
X1822642D2*
X1967637D1*
X1338385Y1140528D2*
X1620852D1*
X1822642D2*
X1978977D1*
X1338779Y1115659D2*
X1620852D1*
X1822642D2*
X1982027D1*
X1339138Y1090791D2*
X1620852D1*
X1822642D2*
X1981669D1*
X1339533Y1065922D2*
X1620852D1*
X1822642D2*
X1981273D1*
X1339892Y1041053D2*
X1620852D1*
X1822642D2*
X1980915D1*
X1484003Y1016184D2*
X1980520D1*
X1649357Y991315D2*
X1980161D1*
X1337751Y1020134D2*
X1481494D1*
Y994621D1*
X1634220Y994523D1*
X1640187Y993577D1*
X1645932Y991710D1*
X1651315Y988968D1*
X1656203Y985417D1*
X1660474Y981145D1*
X1662352Y978760D1*
X1665959Y976890D1*
X1982422D1*
X1984873Y1138060D1*
X1980852Y1141061D1*
X1977775Y1144305D1*
X1975243Y1147993D1*
X1973319Y1152029D1*
X1972049Y1156326D1*
X1959413Y1216292D1*
X1959180Y1220758D1*
X1959649Y1225205D1*
X1960808Y1229525D1*
X1962628Y1233611D1*
X1965065Y1237360D1*
X1968058Y1240683D1*
X1971535Y1243497D1*
X1975409Y1245730D1*
X1979585Y1247333D1*
X1986562Y1248903D1*
X1988301Y1364319D1*
X1464417Y1364347D1*
X1457167Y1362106D1*
X1448174Y1360680D1*
X1439069D1*
X1430075Y1362106D1*
X1422968Y1364346D1*
X1332506Y1364347D1*
X1337721Y1020137D1*
X1625205Y1190504D2*
X1820132D1*
Y1040985D1*
X1623368D1*
Y1190504D1*
X1625205D1*
X1623397Y1190482D2*
D17*
X1820103Y1041006D1*
Y1190482D2*
X1623397Y1041006D1*
D18*
X2099771Y662422D3*
D84*
X2151535Y855608D3*
D18*
X1218612Y568681D3*
D87*
X1084601Y717144D3*
D19*
X1206115Y3362138D3*
D20*
X1106115D3*
D19*
X1812301D3*
D20*
X1712301D3*
D21*
X2318498Y2430986D3*
X2205998D3*
D22*
X2149748D3*
D21*
X2262248D3*
D90*
X512438Y3705852D3*
D23*
X583149Y3635141D3*
D93*
X2393490Y3718351D3*
D23*
X2322779Y3647640D3*
D24*
X1836915Y1930154D3*
D25*
Y1830154D3*
Y1730154D3*
Y1630154D3*
Y1530154D3*
Y1430154D3*
D24*
X592234Y1889074D3*
D25*
Y1789074D3*
Y1689074D3*
Y1589074D3*
Y1489074D3*
Y1389074D3*
D24*
X756162Y2174763D3*
D25*
Y2074763D3*
X656162Y2174763D3*
Y2074763D3*
X556162Y2174763D3*
Y2074763D3*
D26*
X1393595Y3618362D3*
D27*
X1044372Y3813409D3*
D26*
X1506083Y3624611D3*
D27*
X1852493Y3824611D3*
D26*
X1099876Y949892D3*
D27*
X708639Y1033161D3*
D26*
X2049776Y2087272D3*
D27*
X2106584Y1691327D3*
D26*
X1149870Y831154D3*
D27*
X758532Y913947D3*
D26*
X1056131Y1168618D3*
D27*
X665266Y1253617D3*
D26*
X1081128Y1062380D3*
D27*
X688338Y1137986D3*
D28*
X1399844Y849902D3*
Y960138D3*
D26*
X2462233Y2262253D3*
D27*
X2508915Y1864987D3*
D26*
X2330997Y2187262D3*
D27*
X2379327Y1790193D3*
D26*
X2187262Y2143517D3*
D27*
X2244721Y1747665D3*
D96*
X2181017Y1512328D3*
D29*
X2214408Y1338338D3*
X2465728Y1386570D3*
D96*
X2432336Y1560560D3*
D99*
X2087271Y1193617D3*
D29*
X2124051Y1020311D3*
X2374381Y1073437D3*
D99*
X2337601Y1246742D3*
D30*
X1143621Y2018529D3*
D23*
Y1918529D3*
Y1818529D3*
Y1718529D3*
Y1618529D3*
Y1518529D3*
Y1418529D3*
X1443621D3*
Y1518529D3*
Y1618529D3*
Y1718529D3*
Y1818529D3*
Y1918529D3*
Y2018529D3*
D32*
X1812301Y887398D3*
X1721750D3*
X1631199D3*
D33*
X1721750Y1115745D3*
D23*
X1600469Y614284D3*
X1678923Y620994D3*
X1776990Y629381D3*
X1502402Y605897D3*
D102*
X1417264Y515636D3*
X1876218Y554889D3*
M02*
