M48
INCH
T01C0.019
T02C0.028
T03C0.035
T04C0.0354
T05C0.038
T06C0.0394
T07C0.0433
T08C0.0472
%
T01
X+023185Y+015811
X+015186Y+021060
X+015873Y+022435
X+016873Y+027997
X+012636Y+029434
X+013061Y+016748
X+013498Y+013998
X+007187Y+013374
X+015748Y+007687
X+016873Y+008124
T02
X+012061Y+033621
X+011061Y+033621
X+017123Y+033621
X+018123Y+033621
T03
X+023185Y+024310
X+022622Y+024310
X+022060Y+024310
X+021497Y+024310
T04
X+020998Y+006624
X+021515Y+008556
X+021241Y+010203
X+020873Y+011936
X+022144Y+013383
X+023376Y+012467
X+023744Y+010734
X+024657Y+013866
X+024323Y+015606
X+021810Y+015123
X+014436Y+015185
X+014436Y+014185
X+014436Y+016185
X+014436Y+017185
X+014436Y+018185
X+014436Y+019185
X+014436Y+020185
X+011436Y+020185
X+011436Y+019185
X+011436Y+018185
X+011436Y+017185
X+011436Y+016185
X+011436Y+015185
X+011436Y+014185
X+010846Y+007171
X+012186Y+005687
X+005831Y+036351
X+005124Y+037059
X+023228Y+036476
X+023935Y+037184
T05
X+013936Y+036184
X+015061Y+036246
X+018525Y+038246
X+010444Y+038134
X+020498Y+020873
X+021873Y+021435
X+023310Y+021873
X+024622Y+022623
X+025089Y+018650
X+023793Y+017902
X+022447Y+017477
X+021066Y+016913
X+010561Y+011686
X+010811Y+010624
X+010999Y+009499
X+011499Y+008312
X+007585Y+009139
X+007086Y+010332
X+006883Y+011380
X+006653Y+012536
T06
X+016005Y+006143
X+016789Y+006210
X+017770Y+006294
X+018787Y+005255G85X+018737Y+005843
X+015024Y+006059
X+014198Y+004862G85X+014147Y+005451
T07
X+018369Y+019302
X+018369Y+018302
X+018369Y+017302
X+018369Y+016302
X+018369Y+015302
X+018369Y+014302
X+005922Y+013891
X+005922Y+014891
X+005922Y+015891
X+005922Y+016891
X+005922Y+017891
X+005922Y+018891
X+005562Y+020748
X+006562Y+020748
X+006562Y+021748
X+005562Y+021748
X+007562Y+021748
X+007562Y+020748
T08
X+017370Y+005430
X+015565Y+005275
T00
M30
