G04 DipTrace 3.3.1.3*
G04 Top.gbr*
%MOIN*%
G04 #@! TF.FileFunction,Copper,L1,Top*
G04 #@! TF.Part,Single*
%AMOUTLINE0*
4,1,4,
0.038575,0.022271,
0.022271,-0.038575,
-0.038575,-0.022271,
-0.022271,0.038575,
0.038575,0.022271,
0*%
%AMOUTLINE3*
4,1,4,
0.002276,0.044484,
0.044484,-0.002276,
-0.002276,-0.044484,
-0.044484,0.002276,
0.002276,0.044484,
0*%
%AMOUTLINE6*
4,1,4,
0.0,-0.041758,
-0.041758,0.0,
0.0,0.041758,
0.041758,0.0,
0.0,-0.041758,
0*%
%AMOUTLINE9*
4,1,4,
-0.041758,0.0,
0.0,0.041758,
0.041758,0.0,
0.0,-0.041758,
-0.041758,0.0,
0*%
%AMOUTLINE12*
4,1,4,
-0.023433,-0.034564,
-0.034564,0.023433,
0.023433,0.034564,
0.034564,-0.023433,
-0.023433,-0.034564,
0*%
%AMOUTLINE15*
4,1,4,
-0.022754,-0.035014,
-0.035014,0.022754,
0.022754,0.035014,
0.035014,-0.022754,
-0.022754,-0.035014,
0*%
%AMOUTLINE18*
4,1,16,
-0.026904,-0.031936,
-0.022899,-0.044452,
-0.01386,-0.053991,
-0.001577,-0.058663,
0.011516,-0.057543,
0.022827,-0.050853,
0.030115,-0.039918,
0.031936,-0.026904,
0.026904,0.031936,
0.022899,0.044452,
0.01386,0.053991,
0.001577,0.058663,
-0.011516,0.057543,
-0.022827,0.050853,
-0.030115,0.039918,
-0.031936,0.026904,
-0.026904,-0.031936,
0*%
G04 #@! TA.AperFunction,Conductor*
%ADD13C,0.01*%
%ADD14C,0.015*%
%ADD15C,0.02*%
G04 #@! TA.AperFunction,ComponentPad*
%ADD18C,0.062992*%
%ADD19C,0.05*%
%ADD20R,0.05X0.05*%
%ADD21O,0.041339X0.066929*%
%ADD22R,0.041339X0.066929*%
%ADD23C,0.059055*%
%ADD24R,0.066929X0.066929*%
%ADD25C,0.066929*%
%ADD26C,0.06*%
%ADD27C,0.06*%
%ADD29C,0.059055*%
%ADD30R,0.059055X0.059055*%
G04 #@! TA.AperFunction,ViaPad*
%ADD34C,0.04*%
G04 #@! TA.AperFunction,ComponentPad*
%ADD84OUTLINE0*%
%ADD87OUTLINE3*%
%ADD90OUTLINE6*%
%ADD93OUTLINE9*%
%ADD96OUTLINE12*%
%ADD99OUTLINE15*%
%ADD102OUTLINE18*%
%FSLAX26Y26*%
G04*
G70*
G90*
G75*
G01*
G04 Top*
%LPD*%
X656162Y2074763D2*
D13*
X656183D1*
X912396Y1818550D1*
Y1493585D1*
X987451Y1418529D1*
X1143621D1*
X2318498Y1581075D2*
Y1649818D1*
X2380991Y1712312D1*
Y1790193D1*
X2379327D1*
X2106584Y1691327D2*
Y1586760D1*
X2181017Y1512328D1*
X1836915Y1730154D2*
X1862336D1*
X1937288Y1655203D1*
Y1343600D1*
X2087271Y1193617D1*
X1306104Y1674815D2*
X1299855D1*
Y1462338D1*
X1306104Y1456088D1*
Y1156120D1*
X1099876Y949892D1*
X1687314Y2799697D2*
Y2787199D1*
X1836915Y2637598D1*
Y1930154D1*
X1587325Y2243506D2*
X1624821Y2206010D1*
Y1742249D1*
X1836915Y1530154D1*
X2124051Y1020311D2*
D14*
Y883092D1*
X2151535Y855608D1*
X2214408Y1338338D2*
Y1110669D1*
X2124051Y1020311D1*
X1143621Y2018529D2*
X1243611D1*
X1268608Y1993532D1*
X1306104D1*
X1349850Y1949787D1*
Y1399844D1*
X1149870Y831154D2*
Y782413D1*
X1084601Y717144D1*
X1687314Y812406D2*
X1231112D1*
X1212364Y831154D1*
X1149870D1*
X2205998Y2430986D2*
Y2493491D1*
X2162264Y2537225D1*
X2049776D1*
X1643569Y2943432D1*
X1263570D1*
D15*
Y2129806D1*
X1368598Y2024779D1*
X1106115Y3362138D2*
D14*
Y3212154D1*
X1562317D1*
X1712301Y3362138D1*
X556162Y2074763D2*
X799907Y1831018D1*
Y1124429D1*
X708639Y1033161D1*
X1502402Y605897D2*
X1502944Y612427D1*
Y696779D1*
X1574826Y768661D1*
X1218612Y568681D2*
Y556182D1*
X1274857Y612427D1*
X1502944D1*
X1044372Y3813409D2*
D13*
Y3586374D1*
X1206115Y3424632D1*
Y3362138D1*
X1056131Y1168618D2*
X1013204D1*
X758532Y913947D1*
X592234Y1889074D2*
X691888D1*
X756162Y1824800D1*
Y1318603D1*
X691176Y1253617D1*
X665266D1*
X592234Y1789074D2*
X679399D1*
X718666Y1749808D1*
Y1337351D1*
X556162Y2174763D2*
Y2174742D1*
X499939Y2118519D1*
Y1731060D1*
X537435Y1693564D1*
X587745D1*
X592234Y1689074D1*
X1176079Y1176868D2*
Y1181117D1*
X1518582Y2106020D2*
Y2087283D1*
X1531070D1*
X1562327Y2056025D1*
Y1537235D1*
X1443621Y1418529D1*
D34*
X2318498Y1581075D3*
X1306104Y1674815D3*
X1687314Y2799697D3*
X1587325Y2243506D3*
X1349850Y1399844D3*
X1687314Y812406D3*
X1263570Y2943432D3*
X1574826Y768661D3*
X718666Y1337351D3*
X1518582Y2106020D3*
D18*
X2099771Y662422D3*
D84*
X2151535Y855608D3*
D18*
X1218612Y568681D3*
D87*
X1084601Y717144D3*
D19*
X1206115Y3362138D3*
D20*
X1106115D3*
D19*
X1812301D3*
D20*
X1712301D3*
D21*
X2318498Y2430986D3*
X2205998D3*
D22*
X2149748D3*
D21*
X2262248D3*
D90*
X512438Y3705852D3*
D23*
X583149Y3635141D3*
D93*
X2393490Y3718351D3*
D23*
X2322779Y3647640D3*
D24*
X1836915Y1930154D3*
D25*
Y1830154D3*
Y1730154D3*
Y1630154D3*
Y1530154D3*
Y1430154D3*
D24*
X592234Y1889074D3*
D25*
Y1789074D3*
Y1689074D3*
Y1589074D3*
Y1489074D3*
Y1389074D3*
D24*
X756162Y2174763D3*
D25*
Y2074763D3*
X656162Y2174763D3*
Y2074763D3*
X556162Y2174763D3*
Y2074763D3*
D26*
X1393595Y3618362D3*
D27*
X1044372Y3813409D3*
D26*
X1506083Y3624611D3*
D27*
X1852493Y3824611D3*
D26*
X1099876Y949892D3*
D27*
X708639Y1033161D3*
D26*
X2049776Y2087272D3*
D27*
X2106584Y1691327D3*
D26*
X1149870Y831154D3*
D27*
X758532Y913947D3*
D26*
X1056131Y1168618D3*
D27*
X665266Y1253617D3*
D26*
X1081128Y1062380D3*
D27*
X688338Y1137986D3*
D26*
X2462233Y2262253D3*
D27*
X2508915Y1864987D3*
D26*
X2330997Y2187262D3*
D27*
X2379327Y1790193D3*
D26*
X2187262Y2143517D3*
D27*
X2244721Y1747665D3*
D96*
X2181017Y1512328D3*
D29*
X2214408Y1338338D3*
X2465728Y1386570D3*
D96*
X2432336Y1560560D3*
D99*
X2087271Y1193617D3*
D29*
X2124051Y1020311D3*
X2374381Y1073437D3*
D99*
X2337601Y1246742D3*
D30*
X1143621Y2018529D3*
D23*
Y1918529D3*
Y1818529D3*
Y1718529D3*
Y1618529D3*
Y1518529D3*
Y1418529D3*
X1443621D3*
Y1518529D3*
Y1618529D3*
Y1718529D3*
Y1818529D3*
Y1918529D3*
Y2018529D3*
X1600469Y614284D3*
X1678923Y620994D3*
X1776990Y629381D3*
X1502402Y605897D3*
D102*
X1417264Y515636D3*
X1876218Y554889D3*
M02*
