G04 DipTrace 3.3.1.3*
G04 Top.gbr*
%MOIN*%
G04 #@! TF.FileFunction,Copper,L1,Top*
G04 #@! TF.Part,Single*
%AMOUTLINE0*
4,1,4,
0.038575,0.022272,
0.022272,-0.038575,
-0.038575,-0.022272,
-0.022272,0.038575,
0.038575,0.022272,
0*%
%AMOUTLINE3*
4,1,4,
0.002276,0.044484,
0.044484,-0.002276,
-0.002276,-0.044484,
-0.044484,0.002276,
0.002276,0.044484,
0*%
%AMOUTLINE6*
4,1,4,
0.0,-0.041759,
-0.041759,0.0,
0.0,0.041759,
0.041759,0.0,
0.0,-0.041759,
0*%
%AMOUTLINE9*
4,1,4,
-0.041759,0.0,
0.0,0.041759,
0.041759,0.0,
0.0,-0.041759,
-0.041759,0.0,
0*%
%AMOUTLINE12*
4,1,4,
-0.023433,-0.034563,
-0.034563,0.023433,
0.023433,0.034563,
0.034563,-0.023433,
-0.023433,-0.034563,
0*%
%AMOUTLINE15*
4,1,4,
-0.022755,-0.035014,
-0.035014,0.022755,
0.022755,0.035014,
0.035014,-0.022755,
-0.022755,-0.035014,
0*%
%AMOUTLINE18*
4,1,16,
-0.026904,-0.031936,
-0.022899,-0.044451,
-0.01386,-0.053991,
-0.001577,-0.058663,
0.011516,-0.057543,
0.022827,-0.050853,
0.030114,-0.039919,
0.031936,-0.026904,
0.026904,0.031936,
0.022899,0.044451,
0.01386,0.053991,
0.001577,0.058663,
-0.011516,0.057543,
-0.022827,0.050853,
-0.030114,0.039919,
-0.031936,0.026904,
-0.026904,-0.031936,
0*%
G04 #@! TA.AperFunction,Conductor*
%ADD13C,0.01*%
%ADD14C,0.015*%
%ADD15C,0.02*%
G04 #@! TA.AperFunction,ComponentPad*
%ADD18C,0.062992*%
%ADD19C,0.05*%
%ADD20R,0.05X0.05*%
%ADD21O,0.041339X0.066929*%
%ADD22R,0.041339X0.066929*%
%ADD23C,0.059055*%
%ADD24R,0.066929X0.066929*%
%ADD25C,0.066929*%
%ADD26C,0.06*%
%ADD27C,0.06*%
%ADD29C,0.059055*%
%ADD30R,0.059055X0.059055*%
G04 #@! TA.AperFunction,ViaPad*
%ADD34C,0.04*%
G04 #@! TA.AperFunction,ComponentPad*
%ADD85OUTLINE0*%
%ADD88OUTLINE3*%
%ADD91OUTLINE6*%
%ADD94OUTLINE9*%
%ADD97OUTLINE12*%
%ADD100OUTLINE15*%
%ADD103OUTLINE18*%
%FSLAX26Y26*%
G04*
G70*
G90*
G75*
G01*
G04 Top*
%LPD*%
X656162Y2074763D2*
D13*
X656183D1*
X912396Y1818550D1*
Y1493585D1*
X987451Y1418529D1*
X1143621D1*
X2318498Y1568577D2*
Y1649818D1*
X2380991Y1712312D1*
Y1746448D1*
X2379327D1*
X2106585Y1672579D2*
Y1586760D1*
X2181019Y1512327D1*
X1836915Y1730154D2*
X1862336D1*
X1937288Y1655203D1*
Y1343600D1*
X2087271Y1193617D1*
X1306104Y1674815D2*
X1299855D1*
Y1462338D1*
X1306104Y1456088D1*
Y1156120D1*
X1099876Y949892D1*
X1687314Y2799697D2*
Y2787199D1*
X1836915Y2637598D1*
Y1930154D1*
X1587325Y2243506D2*
X1624821Y2206010D1*
Y1742249D1*
X1836915Y1530154D1*
X2124050Y1020310D2*
D14*
Y883092D1*
X2151535Y855608D1*
X2214410Y1338336D2*
Y1110670D1*
X2124050Y1020310D1*
X1143621Y2018529D2*
X1243611D1*
X1268608Y1993532D1*
X1307682D1*
X1349850Y1951364D1*
Y1399844D1*
X1149871Y831154D2*
Y788661D1*
X1065855Y704645D1*
X1687314Y812406D2*
X1231112D1*
X1212364Y831154D1*
X1149871D1*
X2087260Y2299750D2*
Y2493491D1*
X2043527Y2537225D1*
X2049776D1*
X1643569Y2943432D1*
X1263570D1*
D15*
Y2098560D1*
X1349850Y2012280D1*
Y1951364D1*
X1106115Y3362138D2*
D14*
Y3212154D1*
X1562317D1*
X1712301Y3362138D1*
X556162Y2074763D2*
X799907Y1831018D1*
Y1124430D1*
X708640Y1033162D1*
X1502402Y605897D2*
Y612427D1*
Y696237D1*
X1574826Y768661D1*
X1199865Y556183D2*
X1218613D1*
X1274857Y612427D1*
X1502402D1*
X1044372Y3813409D2*
D13*
Y3586375D1*
X1206115Y3424632D1*
Y3362138D1*
X1056130Y1168619D2*
X1013204D1*
X758532Y913947D1*
X592234Y1889074D2*
X691888D1*
X756162Y1824800D1*
Y1318603D1*
X691175Y1253616D1*
X665267D1*
X592234Y1789074D2*
X679399D1*
X718666Y1749808D1*
Y1337351D1*
X556162Y2174763D2*
Y2174742D1*
X499939Y2118519D1*
Y1731060D1*
X537435Y1693564D1*
X587745D1*
X592234Y1689074D1*
X1176079Y1176868D2*
Y1181117D1*
X1518582Y2106020D2*
Y2087283D1*
X1531070D1*
X1562327Y2056025D1*
Y1537235D1*
X1443621Y1418529D1*
D34*
X2318498Y1568577D3*
X1306104Y1674815D3*
X1687314Y2799697D3*
X1587325Y2243506D3*
X1349850Y1399844D3*
X1687314Y812406D3*
X1263570Y2943432D3*
X1574826Y768661D3*
X718666Y1337351D3*
X1518582Y2106020D3*
D18*
X2099771Y662422D3*
D85*
X2151535Y855608D3*
D18*
X1199865Y556183D3*
D88*
X1065855Y704645D3*
D19*
X1206115Y3362138D3*
D20*
X1106115D3*
D19*
X1812301D3*
D20*
X1712301D3*
D21*
X2199760Y2299750D3*
X2087260D3*
D22*
X2031011D3*
D21*
X2143511D3*
D91*
X512438Y3705852D3*
D23*
X583149Y3635141D3*
D94*
X2393490Y3718351D3*
D23*
X2322779Y3647640D3*
D24*
X1836915Y1930154D3*
D25*
Y1830154D3*
Y1730154D3*
Y1630154D3*
Y1530154D3*
Y1430154D3*
D24*
X592234Y1889074D3*
D25*
Y1789074D3*
Y1689074D3*
Y1589074D3*
Y1489074D3*
Y1389074D3*
D24*
X756162Y2174763D3*
D25*
Y2074763D3*
X656162Y2174763D3*
Y2074763D3*
X556162Y2174763D3*
Y2074763D3*
D26*
X1393595Y3618361D3*
D27*
X1044372Y3813409D3*
D26*
X1506083Y3624611D3*
D27*
X1852493Y3824611D3*
D26*
X1099876Y949892D3*
D27*
X708640Y1033162D3*
D26*
X2049776Y2068524D3*
D27*
X2106585Y1672579D3*
D26*
X1149871Y831154D3*
D27*
X758532Y913947D3*
D26*
X1056130Y1168619D3*
D27*
X665267Y1253616D3*
D26*
X1081128Y1062380D3*
D27*
X688338Y1137986D3*
D26*
X2462233Y2193511D3*
D27*
X2508915Y1796243D3*
D26*
X2330997Y2143516D3*
D27*
X2379327Y1746448D3*
D26*
X2187262Y2099771D3*
D27*
X2244721Y1703920D3*
D97*
X2181019Y1512326D3*
D29*
X2214410Y1338336D3*
X2465729Y1386568D3*
D97*
X2432338Y1560558D3*
D100*
X2087272Y1193616D3*
D29*
X2124050Y1020310D3*
X2374381Y1073436D3*
D100*
X2337602Y1246742D3*
D30*
X1143621Y2018529D3*
D23*
Y1918529D3*
Y1818529D3*
Y1718529D3*
Y1618529D3*
Y1518529D3*
Y1418529D3*
X1443621D3*
Y1518529D3*
Y1618529D3*
Y1718529D3*
Y1818529D3*
Y1918529D3*
Y2018529D3*
X1600469Y614288D3*
X1678923Y620998D3*
X1776990Y629385D3*
X1502402Y605901D3*
D103*
X1417264Y515640D3*
X1876218Y554893D3*
M02*
