G04 DipTrace 3.3.1.3*
G04 TopAssy.gbr*
%MOIN*%
G04 #@! TF.FileFunction,Drawing,Top*
G04 #@! TF.Part,Single*
%ADD10C,0.009843*%
%ADD83C,0.003088*%
%FSLAX26Y26*%
G04*
G70*
G90*
G75*
G01*
G04 TopAssy*
%LPD*%
X1896754Y2009288D2*
D10*
Y1351020D1*
X652073Y1968208D2*
Y1309940D1*
X1351332Y395421D2*
X1942923Y446018D1*
X1935053Y1779588D2*
D83*
X1914957D1*
Y1770966D1*
X1915930Y1768092D1*
X1916880Y1767142D1*
X1918782Y1766191D1*
X1921656D1*
X1923579Y1767142D1*
X1924530Y1768092D1*
X1925480Y1770966D1*
X1926453Y1768092D1*
X1927404Y1767142D1*
X1929305Y1766191D1*
X1931228D1*
X1933130Y1767142D1*
X1934102Y1768092D1*
X1935053Y1770966D1*
Y1779588D1*
X1925480D2*
Y1770966D1*
X1935053Y1754267D2*
X1934102Y1756191D1*
X1932179Y1758092D1*
X1930278Y1759065D1*
X1927404Y1760015D1*
X1922606D1*
X1919754Y1759065D1*
X1917831Y1758092D1*
X1915930Y1756191D1*
X1914957Y1754267D1*
Y1750443D1*
X1915930Y1748541D1*
X1917831Y1746618D1*
X1919754Y1745667D1*
X1922606Y1744717D1*
X1927404D1*
X1930278Y1745667D1*
X1932179Y1746618D1*
X1934102Y1748541D1*
X1935053Y1750443D1*
Y1754267D1*
X1914957Y1723220D2*
X1935053Y1730892D1*
X1914957Y1738541D1*
X1921656Y1735667D2*
Y1726094D1*
X1925480Y1717045D2*
Y1708445D1*
X1926453Y1705571D1*
X1927404Y1704598D1*
X1929305Y1703647D1*
X1931228D1*
X1933130Y1704598D1*
X1934102Y1705571D1*
X1935053Y1708445D1*
Y1717045D1*
X1914957D1*
X1925480Y1710346D2*
X1914957Y1703647D1*
X1935053Y1697472D2*
X1914957D1*
Y1690773D1*
X1915930Y1687899D1*
X1917831Y1685976D1*
X1919754Y1685025D1*
X1922606Y1684074D1*
X1927404D1*
X1930278Y1685025D1*
X1932179Y1685976D1*
X1934102Y1687899D1*
X1935053Y1690773D1*
Y1697472D1*
Y1646034D2*
Y1658458D1*
X1914957D1*
Y1646034D1*
X1925480Y1658458D2*
Y1650809D1*
X1935053Y1639858D2*
X1914957D1*
Y1633159D1*
X1915930Y1630285D1*
X1917831Y1628362D1*
X1919754Y1627411D1*
X1922606Y1626461D1*
X1927404D1*
X1930278Y1627411D1*
X1932179Y1628362D1*
X1934102Y1630285D1*
X1935053Y1633159D1*
Y1639858D1*
X1930278Y1605937D2*
X1932179Y1606888D1*
X1934102Y1608811D1*
X1935053Y1610712D1*
Y1614537D1*
X1934102Y1616460D1*
X1932179Y1618361D1*
X1930278Y1619334D1*
X1927404Y1620285D1*
X1922606D1*
X1919754Y1619334D1*
X1917831Y1618362D1*
X1915930Y1616460D1*
X1914957Y1614537D1*
Y1610712D1*
X1915930Y1608811D1*
X1917831Y1606888D1*
X1919754Y1605937D1*
X1922606D1*
Y1610712D1*
X1935053Y1587337D2*
Y1599761D1*
X1914957D1*
Y1587337D1*
X1925480Y1599761D2*
Y1592112D1*
X690372Y1738508D2*
X670276D1*
Y1729886D1*
X671249Y1727012D1*
X672199Y1726062D1*
X674100Y1725111D1*
X676975D1*
X678898Y1726062D1*
X679849Y1727012D1*
X680799Y1729886D1*
X681772Y1727012D1*
X682723Y1726062D1*
X684624Y1725111D1*
X686547D1*
X688448Y1726062D1*
X689421Y1727012D1*
X690372Y1729886D1*
Y1738508D1*
X680799D2*
Y1729886D1*
X690372Y1713187D2*
X689421Y1715111D1*
X687498Y1717012D1*
X685597Y1717985D1*
X682723Y1718935D1*
X677925D1*
X675073Y1717985D1*
X673150Y1717012D1*
X671249Y1715111D1*
X670276Y1713187D1*
Y1709363D1*
X671249Y1707461D1*
X673150Y1705538D1*
X675073Y1704587D1*
X677925Y1703637D1*
X682723D1*
X685597Y1704587D1*
X687498Y1705538D1*
X689421Y1707461D1*
X690372Y1709363D1*
Y1713187D1*
X670276Y1682140D2*
X690372Y1689812D1*
X670276Y1697461D1*
X676975Y1694587D2*
Y1685014D1*
X680799Y1675965D2*
Y1667365D1*
X681772Y1664491D1*
X682723Y1663518D1*
X684624Y1662567D1*
X686547D1*
X688448Y1663518D1*
X689421Y1664491D1*
X690372Y1667365D1*
Y1675965D1*
X670276D1*
X680799Y1669266D2*
X670276Y1662567D1*
X690372Y1656392D2*
X670276D1*
Y1649693D1*
X671249Y1646819D1*
X673150Y1644896D1*
X675073Y1643945D1*
X677925Y1642994D1*
X682723D1*
X685597Y1643945D1*
X687498Y1644896D1*
X689421Y1646819D1*
X690372Y1649693D1*
Y1656392D1*
Y1604954D2*
Y1617378D1*
X670276D1*
Y1604954D1*
X680799Y1617378D2*
Y1609729D1*
X690372Y1598778D2*
X670276D1*
Y1592079D1*
X671249Y1589205D1*
X673150Y1587282D1*
X675073Y1586331D1*
X677925Y1585381D1*
X682723D1*
X685597Y1586331D1*
X687498Y1587282D1*
X689421Y1589205D1*
X690372Y1592079D1*
Y1598778D1*
X685597Y1564857D2*
X687498Y1565807D1*
X689421Y1567731D1*
X690372Y1569632D1*
Y1573457D1*
X689421Y1575380D1*
X687498Y1577281D1*
X685597Y1578254D1*
X682723Y1579205D1*
X677925D1*
X675073Y1578254D1*
X673150Y1577281D1*
X671249Y1575380D1*
X670276Y1573457D1*
Y1569632D1*
X671249Y1567731D1*
X673150Y1565807D1*
X675073Y1564857D1*
X677925D1*
Y1569632D1*
X690372Y1546257D2*
Y1558681D1*
X670276D1*
Y1546257D1*
X680799Y1558681D2*
Y1551032D1*
X1883772Y414157D2*
X1871348D1*
Y394060D1*
X1883772D1*
X1871348Y404584D2*
X1878997D1*
X1901422Y414157D2*
Y394060D1*
Y404584D2*
X1899521Y406507D1*
X1897597Y407458D1*
X1894723D1*
X1892822Y406507D1*
X1890899Y404584D1*
X1889948Y401710D1*
Y399809D1*
X1890899Y396935D1*
X1892822Y395033D1*
X1894723Y394060D1*
X1897597D1*
X1899521Y395033D1*
X1901422Y396935D1*
X1919072Y406507D2*
Y391186D1*
X1918121Y388335D1*
X1917170Y387362D1*
X1915247Y386411D1*
X1912373D1*
X1910472Y387362D1*
X1919072Y403633D2*
X1917170Y405534D1*
X1915247Y406507D1*
X1912373D1*
X1910472Y405534D1*
X1908548Y403633D1*
X1907598Y400759D1*
Y398836D1*
X1908548Y395984D1*
X1910472Y394060D1*
X1912373Y393110D1*
X1915247D1*
X1917170Y394060D1*
X1919072Y395984D1*
X1925247Y401710D2*
X1936721D1*
Y403633D1*
X1935771Y405557D1*
X1934820Y406507D1*
X1932897Y407458D1*
X1930023D1*
X1928121Y406507D1*
X1926198Y404584D1*
X1925247Y401710D1*
Y399809D1*
X1926198Y396935D1*
X1928121Y395033D1*
X1930023Y394060D1*
X1932897D1*
X1934820Y395033D1*
X1936721Y396935D1*
M02*
