G04 DipTrace 3.3.1.3*
G04 TopMask.gbr*
%MOIN*%
G04 #@! TF.FileFunction,Soldermask,Top*
G04 #@! TF.Part,Single*
%AMOUTLINE1*
4,1,4,
0.0434,0.025058,
0.025058,-0.0434,
-0.0434,-0.025058,
-0.025058,0.0434,
0.0434,0.025058,
0*%
%AMOUTLINE4*
4,1,4,
0.00256,0.050049,
0.050049,-0.00256,
-0.00256,-0.050049,
-0.050049,0.00256,
0.00256,0.050049,
0*%
%AMOUTLINE7*
4,1,4,
0.0,-0.047331,
-0.047331,0.0,
0.0,0.047331,
0.047331,0.0,
0.0,-0.047331,
0*%
%AMOUTLINE10*
4,1,4,
-0.047331,0.0,
0.0,0.047331,
0.047331,0.0,
0.0,-0.047331,
-0.047331,0.0,
0*%
%AMOUTLINE13*
4,1,4,
-0.02656,-0.039175,
-0.039175,0.02656,
0.02656,0.039175,
0.039175,-0.02656,
-0.02656,-0.039175,
0*%
%AMOUTLINE16*
4,1,4,
-0.025791,-0.039687,
-0.039687,0.025791,
0.025791,0.039687,
0.039687,-0.025791,
-0.025791,-0.039687,
0*%
%AMOUTLINE19*
4,1,16,
-0.030792,-0.032714,
-0.026377,-0.046509,
-0.016101,-0.057354,
-0.002138,-0.062665,
0.012747,-0.061392,
0.025607,-0.053786,
0.033891,-0.041355,
0.035899,-0.027011,
0.030792,0.032714,
0.026377,0.046509,
0.016101,0.057354,
0.002138,0.062665,
-0.012747,0.061392,
-0.025607,0.053786,
-0.033891,0.041355,
-0.035899,0.027011,
-0.030792,-0.032714,
0*%
%ADD36C,0.047244*%
%ADD51R,0.066935X0.066935*%
%ADD53C,0.066935*%
%ADD57C,0.06788*%
%ADD59C,0.06788*%
%ADD61C,0.074809*%
%ADD63R,0.074809X0.074809*%
%ADD65C,0.066935*%
%ADD67R,0.049219X0.074809*%
%ADD69O,0.049219X0.074809*%
%ADD71R,0.05788X0.05788*%
%ADD73C,0.05788*%
%ADD75C,0.070872*%
%ADD86OUTLINE1*%
%ADD89OUTLINE4*%
%ADD92OUTLINE7*%
%ADD95OUTLINE10*%
%ADD98OUTLINE13*%
%ADD101OUTLINE16*%
%ADD104OUTLINE19*%
%FSLAX26Y26*%
G04*
G70*
G90*
G75*
G01*
G04 TopMask*
%LPD*%
D75*
X2099771Y662422D3*
D86*
X2151535Y855608D3*
D75*
X1199865Y556183D3*
D89*
X1065855Y704645D3*
D73*
X1206115Y3362138D3*
D71*
X1106115D3*
D73*
X1812301D3*
D71*
X1712301D3*
D69*
X2199760Y2299750D3*
X2087260D3*
D67*
X2031011D3*
D69*
X2143511D3*
D92*
X512438Y3705852D3*
D65*
X583149Y3635141D3*
D95*
X2393490Y3718351D3*
D65*
X2322779Y3647640D3*
D63*
X1836915Y1930154D3*
D61*
Y1830154D3*
Y1730154D3*
Y1630154D3*
Y1530154D3*
Y1430154D3*
D63*
X592234Y1889074D3*
D61*
Y1789074D3*
Y1689074D3*
Y1589074D3*
Y1489074D3*
Y1389074D3*
D63*
X756162Y2174763D3*
D61*
Y2074763D3*
X656162Y2174763D3*
Y2074763D3*
X556162Y2174763D3*
Y2074763D3*
D59*
X1393595Y3618361D3*
D57*
X1044372Y3813409D3*
D59*
X1506083Y3624611D3*
D57*
X1852493Y3824611D3*
D59*
X1099876Y949892D3*
D57*
X708640Y1033162D3*
D59*
X2049776Y2068524D3*
D57*
X2106585Y1672579D3*
D59*
X1149871Y831154D3*
D57*
X758532Y913947D3*
D59*
X1056130Y1168619D3*
D57*
X665267Y1253616D3*
D59*
X1081128Y1062380D3*
D57*
X688338Y1137986D3*
D59*
X2462233Y2193511D3*
D57*
X2508915Y1796243D3*
D59*
X2330997Y2143516D3*
D57*
X2379327Y1746448D3*
D59*
X2187262Y2099771D3*
D57*
X2244721Y1703920D3*
D98*
X2181019Y1512326D3*
D53*
X2214410Y1338336D3*
X2465729Y1386568D3*
D98*
X2432338Y1560558D3*
D101*
X2087272Y1193616D3*
D53*
X2124050Y1020310D3*
X2374381Y1073436D3*
D101*
X2337602Y1246742D3*
D51*
X1143621Y2018529D3*
D65*
Y1918529D3*
Y1818529D3*
Y1718529D3*
Y1618529D3*
Y1518529D3*
Y1418529D3*
X1443621D3*
Y1518529D3*
Y1618529D3*
Y1718529D3*
Y1818529D3*
Y1918529D3*
Y2018529D3*
X1600469Y614288D3*
X1678923Y620998D3*
X1776990Y629385D3*
X1502402Y605901D3*
D104*
X1417264Y515640D3*
X1876218Y554893D3*
D36*
X1736962Y542983D3*
X1556519Y527550D3*
M02*
