G04 DipTrace 3.3.1.3*
G04 Top.gbr*
%MOIN*%
G04 #@! TF.FileFunction,Copper,L1,Top*
G04 #@! TF.Part,Single*
%AMOUTLINE0*
4,1,4,
0.038575,0.022272,
0.022272,-0.038575,
-0.038575,-0.022272,
-0.022272,0.038575,
0.038575,0.022272,
0*%
%AMOUTLINE3*
4,1,4,
-0.042341,0.013828,
0.013828,0.042341,
0.042341,-0.013828,
-0.013828,-0.042341,
-0.042341,0.013828,
0*%
%AMOUTLINE6*
4,1,4,
0.0,-0.041759,
-0.041759,0.0,
0.0,0.041759,
0.041759,0.0,
0.0,-0.041759,
0*%
%AMOUTLINE9*
4,1,4,
-0.041759,0.0,
0.0,0.041759,
0.041759,0.0,
0.0,-0.041759,
-0.041759,0.0,
0*%
%AMOUTLINE12*
4,1,4,
-0.023433,-0.034563,
-0.034563,0.023433,
0.023433,0.034563,
0.034563,-0.023433,
-0.023433,-0.034563,
0*%
%AMOUTLINE15*
4,1,4,
-0.022755,-0.035014,
-0.035014,0.022755,
0.022755,0.035014,
0.035014,-0.022755,
-0.022755,-0.035014,
0*%
%AMOUTLINE18*
4,1,16,
-0.026997,-0.031857,
-0.023029,-0.044385,
-0.014018,-0.05395,
-0.001749,-0.058657,
0.011346,-0.057576,
0.022677,-0.05092,
0.029997,-0.040007,
0.031857,-0.026997,
0.026997,0.031857,
0.023029,0.044385,
0.014018,0.05395,
0.001749,0.058657,
-0.011346,0.057576,
-0.022677,0.05092,
-0.029997,0.040007,
-0.031857,0.026997,
-0.026997,-0.031857,
0*%
G04 #@! TA.AperFunction,Conductor*
%ADD13C,0.01*%
%ADD14C,0.015*%
G04 #@! TA.AperFunction,ComponentPad*
%ADD18C,0.062992*%
%ADD19C,0.05*%
%ADD20R,0.05X0.05*%
%ADD21O,0.041339X0.066929*%
%ADD22R,0.041339X0.066929*%
%ADD23C,0.059055*%
%ADD24R,0.066929X0.066929*%
%ADD25C,0.066929*%
%ADD26C,0.06*%
%ADD27C,0.06*%
%ADD29C,0.059055*%
%ADD30R,0.059055X0.059055*%
G04 #@! TA.AperFunction,ViaPad*
%ADD34C,0.04*%
G04 #@! TA.AperFunction,ComponentPad*
%ADD86OUTLINE0*%
%ADD89OUTLINE3*%
%ADD92OUTLINE6*%
%ADD95OUTLINE9*%
%ADD98OUTLINE12*%
%ADD101OUTLINE15*%
%ADD104OUTLINE18*%
%FSLAX26Y26*%
G04*
G70*
G90*
G75*
G01*
G04 Top*
%LPD*%
X713393Y1985283D2*
D13*
Y1872784D1*
X775876Y1810301D1*
Y1485335D1*
X844682Y1416529D1*
X1000852D1*
X2088238Y1591574D2*
Y1622582D1*
X2162553Y1696897D1*
X1944419Y1683175D2*
Y1518216D1*
X1926507Y1500305D1*
X1694146Y1728154D2*
X1719567D1*
X1794519Y1653203D1*
Y1280645D1*
X1879914Y1195250D1*
X1163335Y1710312D2*
Y1097876D1*
X1113340Y1047881D1*
X1544545Y2797697D2*
Y2785199D1*
X1694146Y2635598D1*
Y1928154D1*
X1144587Y2054025D2*
X1141462Y2050901D1*
X1232078Y1960285D1*
Y1585304D1*
X1300852Y1516529D1*
X1959898Y1326315D2*
D14*
X1933216Y1326330D1*
X1916693Y1021944D2*
Y921938D1*
X1958329Y880304D1*
X1959898Y1326315D2*
Y1065148D1*
X1916693Y1021944D1*
X1933216Y1038465D2*
X1916693Y1021944D1*
X1000852Y2016529D2*
X1100842D1*
X1125839Y1991532D1*
X1163335D1*
X1207081Y1947787D1*
Y1397844D1*
X1314473Y2791284D2*
Y2862249D1*
X1264536Y2912186D1*
X1145798D1*
X1120801Y2937183D1*
X1082094Y791658D2*
Y673238D1*
X1022493Y613637D1*
X1314473Y2791284D2*
Y2148919D1*
X1225829Y2060275D1*
Y2022779D1*
X1394561Y810406D2*
Y804157D1*
X1094592D1*
X1082094Y791658D1*
X942791Y3136704D2*
Y3185913D1*
X967032Y3210154D1*
X1517562D1*
X1529321Y3198396D1*
X613393Y1985283D2*
X657138Y1941537D1*
Y1200432D1*
X604464Y1147758D1*
X1360175Y604346D2*
Y694779D1*
X1369564Y704167D1*
X1432057Y766661D1*
X1200831Y704167D2*
X1369564D1*
X1010760Y919497D2*
D13*
X997455D1*
X990036Y912078D1*
X700650D1*
X627157Y1032843D2*
Y1080393D1*
X694634Y1147871D1*
Y1816550D1*
X536956Y1774575D2*
X580376D1*
X625892Y1729060D1*
Y1300621D1*
X570852Y1245582D1*
X957107Y1141621D2*
X1075844Y1022884D1*
Y879149D1*
X1138338Y747913D2*
X1132088D1*
X1119590Y735414D1*
Y616676D1*
X613393Y2085283D2*
X544661D1*
X475907Y2016529D1*
Y1735624D1*
X536956Y1674575D1*
X1033310Y1174868D2*
Y1179117D1*
X1375813Y2091522D2*
Y2085283D1*
X1388301D1*
X1419558Y2054025D1*
Y1535235D1*
X1300852Y1416529D1*
D34*
X2088238Y1591574D3*
X1163335Y1710312D3*
X1113340Y1047881D3*
X1544545Y2797697D3*
X1144587Y2054025D3*
X1207081Y1397844D3*
X1120801Y2937183D3*
X1225829Y2022779D3*
X1394561Y810406D3*
X1432057Y766661D3*
X694634Y1816550D3*
X1075844Y879149D3*
X1138338Y747913D3*
X1119590Y616676D3*
X1375813Y2091522D3*
D18*
X1906565Y687117D3*
D86*
X1958329Y880304D3*
D18*
X1200831Y704167D3*
D89*
X1022493Y613637D3*
D19*
X1042791Y3136704D3*
D20*
X942791D3*
D19*
X1629321Y3198396D3*
D20*
X1529321D3*
D21*
X1426973Y2791284D3*
X1314473D3*
D22*
X1258224D3*
D21*
X1370724D3*
D92*
X690183Y3615082D3*
D23*
X760894Y3544371D3*
D95*
X1760280Y3705251D3*
D23*
X1689569Y3634540D3*
D24*
X1694146Y1928154D3*
D25*
Y1828154D3*
Y1728154D3*
Y1628154D3*
Y1528154D3*
Y1428154D3*
D24*
X536956Y1874575D3*
D25*
Y1774575D3*
Y1674575D3*
Y1574575D3*
Y1474575D3*
Y1374575D3*
D24*
X813393Y2085283D3*
D25*
Y1985283D3*
X713393Y2085283D3*
Y1985283D3*
X613393Y2085283D3*
Y1985283D3*
D26*
X1188333Y3297645D3*
D27*
X801962Y3401172D3*
D26*
X1338317Y3303894D3*
D27*
X1684726Y3503894D3*
D26*
X988354Y1035382D3*
D27*
X604464Y1147758D3*
D26*
X1794519Y2054025D3*
D27*
X1944419Y1683175D3*
D26*
X1082094Y791658D3*
D27*
X700650Y912078D3*
D26*
X1010760Y919497D3*
D27*
X627157Y1032843D3*
D26*
X957107Y1141621D3*
D27*
X570852Y1245582D3*
D26*
X2131983Y2085272D3*
D27*
X2268792Y1709396D3*
D26*
X2025745Y2072773D3*
D27*
X2162553Y1696897D3*
D26*
X1913256Y2060275D3*
D27*
X2050065Y1684398D3*
D98*
X1926507Y1500305D3*
D29*
X1959898Y1326315D3*
X2211217Y1374547D3*
D98*
X2177826Y1548537D3*
D101*
X1879915Y1195249D3*
D29*
X1916693Y1021943D3*
X2167024Y1075069D3*
D101*
X2130245Y1248375D3*
D30*
X1000852Y2016529D3*
D23*
Y1916529D3*
Y1816529D3*
Y1716529D3*
Y1616529D3*
Y1516529D3*
Y1416529D3*
X1300852D3*
Y1516529D3*
Y1616529D3*
Y1716529D3*
Y1816529D3*
Y1916529D3*
Y2016529D3*
X1458266Y612444D3*
X1536739Y618925D3*
X1634830Y627023D3*
X1360175Y604346D3*
D104*
X1274772Y514335D3*
X1733839Y552240D3*
M02*
