G04 DipTrace 3.3.1.3*
G04 TopMask.gbr*
%MOIN*%
G04 #@! TF.FileFunction,Soldermask,Top*
G04 #@! TF.Part,Single*
%AMOUTLINE1*
4,1,4,
0.0434,0.025058,
0.025058,-0.0434,
-0.0434,-0.025058,
-0.025058,0.0434,
0.0434,0.025058,
0*%
%AMOUTLINE4*
4,1,4,
-0.047638,0.015558,
0.015558,0.047638,
0.047638,-0.015558,
-0.015558,-0.047638,
-0.047638,0.015558,
0*%
%AMOUTLINE7*
4,1,4,
0.0,-0.047331,
-0.047331,0.0,
0.0,0.047331,
0.047331,0.0,
0.0,-0.047331,
0*%
%AMOUTLINE10*
4,1,4,
-0.047331,0.0,
0.0,0.047331,
0.047331,0.0,
0.0,-0.047331,
-0.047331,0.0,
0*%
%AMOUTLINE13*
4,1,4,
-0.02656,-0.039175,
-0.039175,0.02656,
0.02656,0.039175,
0.039175,-0.02656,
-0.02656,-0.039175,
0*%
%AMOUTLINE16*
4,1,4,
-0.025791,-0.039687,
-0.039687,0.025791,
0.025791,0.039687,
0.039687,-0.025791,
-0.025791,-0.039687,
0*%
%AMOUTLINE19*
4,1,16,
-0.030887,-0.032624,
-0.026513,-0.046432,
-0.01627,-0.057306,
-0.002321,-0.062658,
0.012567,-0.061429,
0.025448,-0.053862,
0.03377,-0.041454,
0.03582,-0.027116,
0.030887,0.032624,
0.026513,0.046432,
0.01627,0.057306,
0.002321,0.062658,
-0.012567,0.061429,
-0.025448,0.053862,
-0.03377,0.041454,
-0.03582,0.027116,
-0.030887,-0.032624,
0*%
%ADD36C,0.047244*%
%ADD51R,0.066935X0.066935*%
%ADD53C,0.066935*%
%ADD57C,0.06788*%
%ADD59C,0.06788*%
%ADD61C,0.074809*%
%ADD63R,0.074809X0.074809*%
%ADD65C,0.066935*%
%ADD67R,0.049219X0.074809*%
%ADD69O,0.049219X0.074809*%
%ADD71R,0.05788X0.05788*%
%ADD73C,0.05788*%
%ADD75C,0.070872*%
%ADD87OUTLINE1*%
%ADD90OUTLINE4*%
%ADD93OUTLINE7*%
%ADD96OUTLINE10*%
%ADD99OUTLINE13*%
%ADD102OUTLINE16*%
%ADD105OUTLINE19*%
%FSLAX26Y26*%
G04*
G70*
G90*
G75*
G01*
G04 TopMask*
%LPD*%
D75*
X1906565Y687117D3*
D87*
X1958329Y880304D3*
D75*
X1200831Y704167D3*
D90*
X1022493Y613637D3*
D73*
X1042791Y3136704D3*
D71*
X942791D3*
D73*
X1629321Y3198396D3*
D71*
X1529321D3*
D69*
X1426973Y2791284D3*
X1314473D3*
D67*
X1258224D3*
D69*
X1370724D3*
D93*
X690183Y3615082D3*
D65*
X760894Y3544371D3*
D96*
X1760280Y3705251D3*
D65*
X1689569Y3634540D3*
D63*
X1694146Y1928154D3*
D61*
Y1828154D3*
Y1728154D3*
Y1628154D3*
Y1528154D3*
Y1428154D3*
D63*
X536956Y1874575D3*
D61*
Y1774575D3*
Y1674575D3*
Y1574575D3*
Y1474575D3*
Y1374575D3*
D63*
X813393Y2085283D3*
D61*
Y1985283D3*
X713393Y2085283D3*
Y1985283D3*
X613393Y2085283D3*
Y1985283D3*
D59*
X1188333Y3297645D3*
D57*
X801962Y3401172D3*
D59*
X1338317Y3303894D3*
D57*
X1684726Y3503894D3*
D59*
X988354Y1035382D3*
D57*
X604464Y1147758D3*
D59*
X1794519Y2054025D3*
D57*
X1944419Y1683175D3*
D59*
X1082094Y791658D3*
D57*
X700650Y912078D3*
D59*
X1010760Y919497D3*
D57*
X627157Y1032843D3*
D59*
X957107Y1141621D3*
D57*
X570852Y1245582D3*
D59*
X2131983Y2085272D3*
D57*
X2268792Y1709396D3*
D59*
X2025745Y2072773D3*
D57*
X2162553Y1696897D3*
D59*
X1913256Y2060275D3*
D57*
X2050065Y1684398D3*
D99*
X1926507Y1500305D3*
D53*
X1959898Y1326315D3*
X2211217Y1374547D3*
D99*
X2177826Y1548537D3*
D102*
X1879915Y1195249D3*
D53*
X1916693Y1021943D3*
X2167024Y1075069D3*
D102*
X2130245Y1248375D3*
D51*
X1000852Y2016529D3*
D65*
Y1916529D3*
Y1816529D3*
Y1716529D3*
Y1616529D3*
Y1516529D3*
Y1416529D3*
X1300852D3*
Y1516529D3*
Y1616529D3*
Y1716529D3*
Y1816529D3*
Y1916529D3*
Y2016529D3*
X1458266Y612444D3*
X1536739Y618925D3*
X1634830Y627023D3*
X1360175Y604346D3*
D105*
X1274772Y514335D3*
X1733839Y552240D3*
D36*
X1594550Y540740D3*
X1414062Y525837D3*
M02*
