G04 DipTrace 3.3.1.3*
G04 TopSilk.gbr*
%MOIN*%
G04 #@! TF.FileFunction,Legend,Top*
G04 #@! TF.Part,Single*
%ADD10C,0.009843*%
%ADD12C,0.003*%
%ADD77C,0.004632*%
%ADD78C,0.006176*%
%ADD79C,0.010807*%
%ADD82C,0.009264*%
%ADD83C,0.018527*%
%ADD84C,0.012351*%
%FSLAX26Y26*%
G04*
G70*
G90*
G75*
G01*
G04 TopSilk*
%LPD*%
X2021428Y883983D2*
D10*
X1959381Y652372D1*
X1905512Y915049D2*
X1843466Y683438D1*
G03X1959381Y652372I57928J-15645D01*
G01*
X2021428Y883983D2*
G03X1905512Y915049I-57928J15645D01*
G01*
X977595Y658148D2*
X1191387Y766650D1*
X1031936Y551154D2*
X1245729Y659657D1*
G03X1191387Y766650I-27073J53546D01*
G01*
X977595Y658148D2*
G03X1031936Y551154I27073J-53546D01*
G01*
X892797Y3061766D2*
Y3211642D1*
X893022Y3061466D2*
G03X893022Y3211942I99796J75238D01*
G01*
X1479327Y3123458D2*
Y3273333D1*
X1479552Y3123158D2*
G03X1479552Y3273633I99796J75238D01*
G01*
X1247297Y2852375D2*
Y2844477D1*
X1220724Y2866288D2*
Y2716280D1*
X1247297Y2738091D2*
Y2730193D1*
Y2852375D2*
G02X1461865Y2791284I98651J-60865D01*
G01*
X1247297Y2730193D2*
G03X1461865Y2791284I98651J60865D01*
G01*
X760901Y3473660D2*
X831605Y3544364D1*
X619472Y3615089D2*
X760901Y3473660D1*
X619472Y3615089D2*
X690176Y3685793D1*
X831605Y3544364D1*
X1618858Y3634533D2*
X1689562Y3563829D1*
X1760287Y3775962D2*
X1618858Y3634533D1*
X1760287Y3775962D2*
X1830991Y3705258D1*
X1689562Y3563829D1*
X1744148Y1978127D2*
X1644146D1*
Y1378181D1*
X1744148D1*
Y1978127D1*
X586958Y1924548D2*
X486956D1*
Y1324603D1*
X586958D1*
Y1924548D1*
X863393Y1935283D2*
X563393D1*
Y2135283D1*
X863393D1*
Y1935283D1*
X911676Y3423536D2*
X1104508Y3371877D1*
X1078619Y3275282D2*
X1104508Y3371877D1*
X885787Y3326940D2*
X1078619Y3275282D1*
X885787Y3326940D2*
X911676Y3423536D1*
X1622959Y3410498D2*
X1450072Y3310684D1*
X1400084Y3397290D2*
X1450072Y3310684D1*
X1572971Y3497104D2*
X1400084Y3397290D1*
X1572971Y3497104D2*
X1622959Y3410498D1*
X709406Y1149609D2*
X900989Y1093518D1*
X883589Y1033480D2*
X901167Y1093466D1*
X691828Y1089622D2*
X883411Y1033531D1*
X691651Y1089674D2*
X709229Y1149661D1*
X1877907Y1764334D2*
X1803099Y1949428D1*
X1860968Y1973038D2*
X1803015Y1949600D1*
X1935839Y1787773D2*
X1861031Y1972866D1*
X1935923Y1787600D2*
X1877970Y1764162D1*
X805599Y911713D2*
X995950Y851615D1*
X977321Y791969D2*
X996126Y851561D1*
X786794Y852121D2*
X977144Y792023D1*
X786617Y852175D2*
X805423Y911767D1*
X732101Y1034432D2*
X923560Y977851D1*
X905994Y917856D2*
X923738Y977799D1*
X714357Y974488D2*
X905816Y917908D1*
X714179Y974540D2*
X731923Y1034484D1*
X675710Y1249725D2*
X868492Y1197832D1*
X852427Y1137429D2*
X868671Y1197783D1*
X659467Y1189371D2*
X852249Y1137478D1*
X659288Y1189421D2*
X675532Y1249774D1*
X2205170Y1792854D2*
X2136878Y1980456D1*
X2195546Y2001988D2*
X2136819Y1980630D1*
X2263898Y1814212D2*
X2195605Y2001813D1*
X2263957Y1814038D2*
X2205229Y1792680D1*
X2098931Y1780356D2*
X2030639Y1967957D1*
X2089307Y1989489D2*
X2030580Y1968131D1*
X2157659Y1801713D2*
X2089366Y1989315D1*
X2157718Y1801539D2*
X2098990Y1780181D1*
X1986443Y1767857D2*
X1918151Y1955458D1*
X1976819Y1976990D2*
X1918092Y1955633D1*
X2045171Y1789215D2*
X1976878Y1976816D1*
X2045230Y1789040D2*
X1986502Y1767683D1*
X1970215Y1520312D2*
X2005549Y1336184D1*
X2006734Y1330028D2*
X2172450Y1361837D1*
X2135931Y1552121D1*
X1970215Y1520312D2*
X2135931Y1552121D1*
X2000630Y1434933D2*
G02X2000630Y1434933I71871J0D01*
G01*
X1923213Y1216116D2*
X1962141Y1032686D1*
X1963442Y1026576D2*
X2128507Y1061609D1*
X2088314Y1251149D1*
X1923213Y1216116D2*
X2088314Y1251149D1*
X1955284Y1132752D2*
G02X1955284Y1132752I71877J0D01*
G01*
X1253219Y2102356D2*
Y1330703D1*
X1048486D2*
X1253219D1*
X1048486Y2102356D2*
Y1330703D1*
Y2102356D2*
X1127226D1*
X1253219D2*
X1174478D1*
X1127226D2*
G03X1174478Y2102356I23626J13D01*
G01*
X885878Y2569721D2*
D12*
X981878D1*
X870209Y2566721D2*
X933878D1*
X856095Y2563721D2*
X912878D1*
X933878D2*
X981878D1*
X1875878D2*
X1899878D1*
X843884Y2560721D2*
X895430D1*
X912878D2*
X981764D1*
X1866083D2*
X1911047D1*
X833308Y2557721D2*
X884483D1*
X899285D2*
X981380D1*
X1857479D2*
X1920419D1*
X824029Y2554721D2*
X873878D1*
X885878D2*
X980661D1*
X1850155D2*
X1927902D1*
X815922Y2551721D2*
X861878D1*
X873878D2*
X979891D1*
X1843974D2*
X1870119D1*
X1904699D2*
X1933940D1*
X808783Y2548721D2*
X855878D1*
X864878D2*
X979368D1*
X1838903D2*
X1862017D1*
X1914197D2*
X1939039D1*
X802259Y2545721D2*
X846890D1*
X855878D2*
X979090D1*
X1834777D2*
X1855060D1*
X1922089D2*
X1943441D1*
X796148Y2542721D2*
X841004D1*
X849878D2*
X978962D1*
X1302878D2*
X1305878D1*
X1831245D2*
X1849210D1*
X1928564D2*
X1947228D1*
X790546Y2539721D2*
X835468D1*
X843878D2*
X978908D1*
X1302878D2*
X1305878D1*
X1828019D2*
X1844080D1*
X1933767D2*
X1950597D1*
X785626Y2536721D2*
X830494D1*
X837878D2*
X978878D1*
X1302878D2*
X1305878D1*
X1359878D2*
X1395878D1*
X1401878D2*
X1428878D1*
X1449878D2*
X1458878D1*
X1479878D2*
X1488878D1*
X1506878D2*
X1524878D1*
X1557878D2*
X1569878D1*
X1581878D2*
X1632878D1*
X1650878D2*
X1674878D1*
X1689878D2*
X1701878D1*
X1722878D2*
X1731878D1*
X1824941D2*
X1839427D1*
X1937948D2*
X1953657D1*
X781219Y2533721D2*
X825878D1*
X831878D2*
X910732D1*
X1302878D2*
X1305878D1*
X1359878D2*
X1395878D1*
X1401878D2*
X1433252D1*
X1449878D2*
X1458878D1*
X1479878D2*
X1488878D1*
X1502969D2*
X1529137D1*
X1556379D2*
X1570916D1*
X1581878D2*
X1632878D1*
X1646969D2*
X1677755D1*
X1689878D2*
X1703739D1*
X1722878D2*
X1731878D1*
X1822014D2*
X1835317D1*
X1851878D2*
X1869878D1*
X1905878D2*
X1923878D1*
X1941500D2*
X1956341D1*
X777007Y2530721D2*
X819878D1*
X825878D2*
X892098D1*
X1302878D2*
X1305878D1*
X1359878D2*
X1395878D1*
X1401878D2*
X1436996D1*
X1449878D2*
X1458878D1*
X1479878D2*
X1488878D1*
X1499968D2*
X1532497D1*
X1555122D2*
X1571914D1*
X1581878D2*
X1632878D1*
X1643968D2*
X1680290D1*
X1689878D2*
X1705461D1*
X1722878D2*
X1731878D1*
X1819384D2*
X1831986D1*
X1850379D2*
X1872289D1*
X1904030D2*
X1926289D1*
X1944723D2*
X1958635D1*
X773025Y2527721D2*
X816878D1*
X822878D2*
X876042D1*
X975878D2*
X1011878D1*
X1029878D2*
X1083878D1*
X1176878D2*
X1215878D1*
X1302878D2*
X1305878D1*
X1359878D2*
X1395878D1*
X1401878D2*
X1439933D1*
X1449878D2*
X1458878D1*
X1479878D2*
X1488878D1*
X1497809D2*
X1535094D1*
X1553861D2*
X1572865D1*
X1581878D2*
X1632878D1*
X1641809D2*
X1682263D1*
X1689878D2*
X1707162D1*
X1722878D2*
X1731878D1*
X1817110D2*
X1829363D1*
X1849145D2*
X1874043D1*
X1902425D2*
X1928043D1*
X1947709D2*
X1960770D1*
X769429Y2524721D2*
X862864D1*
X974494D2*
X1010853D1*
X1028853D2*
X1096665D1*
X1169620D2*
X1222100D1*
X1302878D2*
X1305878D1*
X1359878D2*
X1368878D1*
X1401878D2*
X1410878D1*
X1428301D2*
X1442237D1*
X1449878D2*
X1458878D1*
X1479878D2*
X1488878D1*
X1496359D2*
X1510354D1*
X1525430D2*
X1536019D1*
X1552516D2*
X1573889D1*
X1596878D2*
X1605878D1*
X1623878D2*
X1632878D1*
X1640359D2*
X1654354D1*
X1668753D2*
X1683878D1*
X1689878D2*
X1708993D1*
X1722878D2*
X1731878D1*
X1814984D2*
X1827082D1*
X1848095D2*
X1858430D1*
X1866327D2*
X1875048D1*
X1901224D2*
X1909002D1*
X1920755D2*
X1929048D1*
X1950361D2*
X1962855D1*
X766224Y2521721D2*
X807878D1*
X813878D2*
X852161D1*
X973620D2*
X1009960D1*
X1027960D2*
X1106366D1*
X1163260D2*
X1227462D1*
X1302878D2*
X1305878D1*
X1359878D2*
X1368878D1*
X1401878D2*
X1410878D1*
X1430170D2*
X1443081D1*
X1449878D2*
X1458878D1*
X1479878D2*
X1488878D1*
X1495546D2*
X1508215D1*
X1526483D2*
X1536541D1*
X1551184D2*
X1574896D1*
X1596878D2*
X1605878D1*
X1623878D2*
X1632878D1*
X1639546D2*
X1652215D1*
X1671251D2*
X1710943D1*
X1722878D2*
X1731878D1*
X1812900D2*
X1824925D1*
X1847255D2*
X1856483D1*
X1868274D2*
X1875524D1*
X1900610D2*
X1909467D1*
X1920290D2*
X1929524D1*
X1952643D2*
X1964742D1*
X763468Y2518721D2*
X804878D1*
X810878D2*
X843383D1*
X973079D2*
X1009380D1*
X1027380D2*
X1112933D1*
X1158042D2*
X1231716D1*
X1302878D2*
X1305878D1*
X1359878D2*
X1368878D1*
X1401878D2*
X1410878D1*
X1431641D2*
X1443539D1*
X1449878D2*
X1458878D1*
X1479878D2*
X1488878D1*
X1495155D2*
X1506491D1*
X1527878D2*
X1536878D1*
X1550002D2*
X1575868D1*
X1596878D2*
X1605878D1*
X1623878D2*
X1632878D1*
X1639155D2*
X1650491D1*
X1673032D2*
X1712778D1*
X1722878D2*
X1731878D1*
X1811014D2*
X1822910D1*
X1847693D2*
X1854878D1*
X1869878D2*
X1875617D1*
X1900659D2*
X1910493D1*
X1919263D2*
X1929605D1*
X1954760D2*
X1966347D1*
X761142Y2515721D2*
X835971D1*
X972503D2*
X1008980D1*
X1026980D2*
X1117665D1*
X1153836D2*
X1234793D1*
X1302878D2*
X1305878D1*
X1359878D2*
X1392878D1*
X1401878D2*
X1410878D1*
X1433177D2*
X1443745D1*
X1449878D2*
X1458878D1*
X1479867D2*
X1488878D1*
X1494985D2*
X1505246D1*
X1548958D2*
X1561430D1*
X1566878D2*
X1576991D1*
X1596878D2*
X1605878D1*
X1623878D2*
X1632878D1*
X1638985D2*
X1649246D1*
X1674045D2*
X1714389D1*
X1722878D2*
X1731878D1*
X1809398D2*
X1820915D1*
X1848705D2*
X1875202D1*
X1901443D2*
X1911878D1*
X1917878D2*
X1929395D1*
X1956751D2*
X1967553D1*
X759006Y2512721D2*
X829428D1*
X971706D2*
X1008465D1*
X1026465D2*
X1119836D1*
X1150280D2*
X1236971D1*
X1302878D2*
X1305878D1*
X1359878D2*
X1392878D1*
X1401878D2*
X1410878D1*
X1434878D2*
X1443829D1*
X1449878D2*
X1458890D1*
X1479761D2*
X1488878D1*
X1494918D2*
X1504618D1*
X1547893D2*
X1559483D1*
X1566878D2*
X1578277D1*
X1596878D2*
X1605878D1*
X1623878D2*
X1632878D1*
X1638918D2*
X1648618D1*
X1674523D2*
X1715733D1*
X1722878D2*
X1731878D1*
X1808087D2*
X1818976D1*
X1850309D2*
X1874027D1*
X1903019D2*
X1927605D1*
X1958360D2*
X1968267D1*
X757021Y2509721D2*
X798878D1*
X804878D2*
X823553D1*
X970908D2*
X1007693D1*
X1025693D2*
X1121345D1*
X1147145D2*
X1238522D1*
X1302878D2*
X1305878D1*
X1359878D2*
X1392878D1*
X1401878D2*
X1410878D1*
X1433356D2*
X1443849D1*
X1449878D2*
X1458996D1*
X1479367D2*
X1488878D1*
X1494892D2*
X1504650D1*
X1546870D2*
X1557878D1*
X1566878D2*
X1579586D1*
X1596878D2*
X1605878D1*
X1623878D2*
X1632878D1*
X1638892D2*
X1648661D1*
X1674617D2*
X1701878D1*
X1708354D2*
X1716878D1*
X1722878D2*
X1731878D1*
X1806990D2*
X1817386D1*
X1852404D2*
X1872168D1*
X1905338D2*
X1924969D1*
X1959628D2*
X1968622D1*
X755515Y2506721D2*
X795878D1*
X801878D2*
X818284D1*
X970362D2*
X1006903D1*
X1024903D2*
X1122189D1*
X1144432D2*
X1239713D1*
X1302878D2*
X1305878D1*
X1359878D2*
X1368878D1*
X1401878D2*
X1410878D1*
X1431879D2*
X1443755D1*
X1449878D2*
X1459380D1*
X1478534D2*
X1488878D1*
X1494895D2*
X1505324D1*
X1545892D2*
X1580760D1*
X1596878D2*
X1605878D1*
X1623878D2*
X1632878D1*
X1638895D2*
X1649450D1*
X1674202D2*
X1701878D1*
X1709215D2*
X1731878D1*
X1805917D2*
X1816125D1*
X1854522D2*
X1870160D1*
X1878878D2*
X1890878D1*
X1907864D2*
X1922179D1*
X1960796D2*
X1968779D1*
X754628Y2503721D2*
X813514D1*
X969975D2*
X1006372D1*
X1024372D2*
X1122595D1*
X1142127D2*
X1240822D1*
X1302878D2*
X1305878D1*
X1359878D2*
X1368878D1*
X1401878D2*
X1410878D1*
X1429771D2*
X1443365D1*
X1449890D2*
X1460124D1*
X1477294D2*
X1488867D1*
X1494997D2*
X1506501D1*
X1527878D2*
X1536878D1*
X1544767D2*
X1581800D1*
X1596878D2*
X1605878D1*
X1623878D2*
X1632878D1*
X1639009D2*
X1651090D1*
X1673026D2*
X1701878D1*
X1710479D2*
X1731878D1*
X1804991D2*
X1814972D1*
X1827878D2*
X1839878D1*
X1856137D2*
X1868581D1*
X1876430D2*
X1894674D1*
X1909804D2*
X1919760D1*
X1938878D2*
X1947878D1*
X1961861D2*
X1968842D1*
X754191Y2500721D2*
X792878D1*
X798878D2*
X809254D1*
X969464D2*
X1006079D1*
X1024079D2*
X1122769D1*
X1139989D2*
X1186468D1*
X1200753D2*
X1241759D1*
X1302878D2*
X1305878D1*
X1359878D2*
X1368878D1*
X1401878D2*
X1410878D1*
X1426626D2*
X1442531D1*
X1450007D2*
X1461017D1*
X1475699D2*
X1488750D1*
X1495402D2*
X1508070D1*
X1524878D2*
X1536403D1*
X1543480D2*
X1582864D1*
X1596878D2*
X1605878D1*
X1623878D2*
X1632878D1*
X1639507D2*
X1653685D1*
X1671119D2*
X1683403D1*
X1689878D2*
X1701878D1*
X1712117D2*
X1731878D1*
X1804405D2*
X1814001D1*
X1824645D2*
X1842753D1*
X1857083D2*
X1867586D1*
X1874483D2*
X1897727D1*
X1910935D2*
X1918794D1*
X1935645D2*
X1951788D1*
X1962844D2*
X1968865D1*
X754000Y2497721D2*
X792878D1*
X798878D2*
X805620D1*
X968692D2*
X1005846D1*
X1023846D2*
X1059867D1*
X1083878D2*
X1122838D1*
X1137902D2*
X1181725D1*
X1203251D2*
X1242350D1*
X1302878D2*
X1305878D1*
X1359878D2*
X1395878D1*
X1401878D2*
X1410878D1*
X1422878D2*
X1441263D1*
X1450519D2*
X1461878D1*
X1473878D2*
X1488238D1*
X1496354D2*
X1509878D1*
X1521878D2*
X1535530D1*
X1542182D2*
X1583896D1*
X1596878D2*
X1605878D1*
X1623878D2*
X1632878D1*
X1640737D2*
X1656878D1*
X1668878D2*
X1682519D1*
X1689878D2*
X1701878D1*
X1713999D2*
X1731878D1*
X1804103D2*
X1813295D1*
X1822178D2*
X1845251D1*
X1857548D2*
X1866878D1*
X1872878D2*
X1898840D1*
X1911488D2*
X1918269D1*
X1933178D2*
X1954789D1*
X1963869D2*
X1968874D1*
X753923Y2494721D2*
X802639D1*
X967903D2*
X1005411D1*
X1023411D2*
X1059761D1*
X1086878D2*
X1122853D1*
X1136015D2*
X1177826D1*
X1205032D2*
X1242653D1*
X1302878D2*
X1305878D1*
X1359878D2*
X1395878D1*
X1401878D2*
X1439531D1*
X1451490D2*
X1487267D1*
X1497763D2*
X1534141D1*
X1541106D2*
X1551878D1*
X1573430D2*
X1584945D1*
X1596878D2*
X1605878D1*
X1623878D2*
X1632878D1*
X1642838D2*
X1681015D1*
X1689878D2*
X1701878D1*
X1715892D2*
X1731878D1*
X1803967D2*
X1812606D1*
X1820529D2*
X1847021D1*
X1857750D2*
X1879430D1*
X1890878D2*
X1899438D1*
X1911728D2*
X1918032D1*
X1931529D2*
X1956937D1*
X1964776D2*
X1968877D1*
X753894Y2491721D2*
X800210D1*
X967372D2*
X1004672D1*
X1022672D2*
X1059377D1*
X1089878D2*
X1122757D1*
X1134410D2*
X1174733D1*
X1206048D2*
X1242790D1*
X1302878D2*
X1305878D1*
X1359878D2*
X1395878D1*
X1401878D2*
X1437318D1*
X1454208D2*
X1484549D1*
X1500972D2*
X1531942D1*
X1540397D2*
X1551878D1*
X1574483D2*
X1586288D1*
X1596878D2*
X1605878D1*
X1623878D2*
X1632878D1*
X1645811D2*
X1678917D1*
X1689878D2*
X1701878D1*
X1717835D2*
X1731878D1*
X1803911D2*
X1811750D1*
X1819629D2*
X1827878D1*
X1839878D2*
X1848203D1*
X1857831D2*
X1880483D1*
X1893878D2*
X1899695D1*
X1911823D2*
X1917935D1*
X1930629D2*
X1938878D1*
X1950327D2*
X1958588D1*
X1965356D2*
X1968878D1*
X753884Y2488721D2*
X798032D1*
X967079D2*
X1003895D1*
X1021895D2*
X1058633D1*
X1087931D2*
X1122377D1*
X1133192D2*
X1172358D1*
X1206561D2*
X1242847D1*
X1302878D2*
X1305878D1*
X1359878D2*
X1395878D1*
X1401878D2*
X1434878D1*
X1457789D2*
X1480968D1*
X1505170D2*
X1528703D1*
X1539878D2*
X1551878D1*
X1575878D2*
X1587878D1*
X1596878D2*
X1605878D1*
X1623878D2*
X1632878D1*
X1649618D2*
X1674229D1*
X1689878D2*
X1701878D1*
X1719878D2*
X1731878D1*
X1803890D2*
X1810925D1*
X1819311D2*
X1824878D1*
X1839878D2*
X1848092D1*
X1857862D2*
X1881878D1*
X1890878D2*
X1899675D1*
X1911859D2*
X1917898D1*
X1930311D2*
X1935878D1*
X1949274D2*
X1958776D1*
X1965655D2*
X1968878D1*
X753880Y2485721D2*
X796042D1*
X966846D2*
X1003358D1*
X1021358D2*
X1057740D1*
X1085951D2*
X1121648D1*
X1132372D2*
X1170531D1*
X1206878D2*
X1242878D1*
X1302878D2*
X1305878D1*
X1461878D2*
X1476878D1*
X1509878D2*
X1524878D1*
X1653878D2*
X1668878D1*
X1803883D2*
X1810392D1*
X1819359D2*
X1827878D1*
X1839878D2*
X1847404D1*
X1857873D2*
X1866878D1*
X1873571D2*
X1899410D1*
X1911872D2*
X1917885D1*
X1930359D2*
X1938878D1*
X1947878D2*
X1958263D1*
X1965790D2*
X1968878D1*
X753879Y2482721D2*
X794341D1*
X966411D2*
X1002973D1*
X1020973D2*
X1056878D1*
X1083878D2*
X1120762D1*
X1131635D2*
X1169135D1*
X1302878D2*
X1305878D1*
X1803880D2*
X1810211D1*
X1820804D2*
X1846113D1*
X1857877D2*
X1866878D1*
X1875083D2*
X1897726D1*
X1911853D2*
X1917881D1*
X1931690D2*
X1957055D1*
X1965846D2*
X1968878D1*
X753879Y2479721D2*
X793817D1*
X965672D2*
X1002463D1*
X1020463D2*
X1119751D1*
X1130760D2*
X1168007D1*
X1302878D2*
X1305878D1*
X1803879D2*
X1810463D1*
X1823080D2*
X1844135D1*
X1857878D2*
X1866878D1*
X1877298D2*
X1895471D1*
X1911632D2*
X1917879D1*
X1933582D2*
X1955113D1*
X1965867D2*
X1968878D1*
X753879Y2476721D2*
X794446D1*
X964895D2*
X1001692D1*
X1019692D2*
X1118361D1*
X1129928D2*
X1166922D1*
X1302878D2*
X1305878D1*
X1803879D2*
X1811128D1*
X1825813D2*
X1841661D1*
X1857878D2*
X1866878D1*
X1879362D2*
X1893397D1*
X1911105D2*
X1917867D1*
X1935595D2*
X1952653D1*
X1965863D2*
X1968878D1*
X753890Y2473721D2*
X795478D1*
X964358D2*
X1000903D1*
X1018903D2*
X1116617D1*
X1129381D2*
X1165993D1*
X1302878D2*
X1305878D1*
X1803879D2*
X1811877D1*
X1828153D2*
X1839476D1*
X1857878D2*
X1866878D1*
X1880688D2*
X1892070D1*
X1908903D2*
X1917750D1*
X1937165D2*
X1950473D1*
X1965760D2*
X1968878D1*
X754007Y2470721D2*
X796775D1*
X963973D2*
X1000360D1*
X1018372D2*
X1114655D1*
X1129094D2*
X1165406D1*
X1302878D2*
X1305878D1*
X1803890D2*
X1812405D1*
X1829604D2*
X1838100D1*
X1857878D2*
X1866878D1*
X1881372D2*
X1891386D1*
X1906080D2*
X1917250D1*
X1938094D2*
X1949099D1*
X1965379D2*
X1968878D1*
X754495Y2467721D2*
X798297D1*
X963463D2*
X999974D1*
X1018079D2*
X1112116D1*
X1128964D2*
X1165103D1*
X1302878D2*
X1305878D1*
X1356878D2*
X1392878D1*
X1407878D2*
X1431878D1*
X1449878D2*
X1458878D1*
X1476878D2*
X1488878D1*
X1494878D2*
X1506878D1*
X1527878D2*
X1536878D1*
X1542878D2*
X1572878D1*
X1602878D2*
X1617878D1*
X1626878D2*
X1680878D1*
X1695878D2*
X1719878D1*
X1737878D2*
X1749878D1*
X1767878D2*
X1779878D1*
X1803996D2*
X1812786D1*
X1830340D2*
X1837420D1*
X1857878D2*
X1866878D1*
X1881679D2*
X1891078D1*
X1903028D2*
X1916020D1*
X1938552D2*
X1948396D1*
X1964649D2*
X1968878D1*
X755608Y2464721D2*
X800156D1*
X962692D2*
X999464D1*
X1017846D2*
X1108498D1*
X1128910D2*
X1164979D1*
X1302878D2*
X1305878D1*
X1356878D2*
X1392878D1*
X1404993D2*
X1434764D1*
X1449878D2*
X1458878D1*
X1476878D2*
X1488878D1*
X1494878D2*
X1508739D1*
X1527878D2*
X1536878D1*
X1542878D2*
X1576788D1*
X1602403D2*
X1618342D1*
X1626878D2*
X1680878D1*
X1693004D2*
X1723788D1*
X1737878D2*
X1751379D1*
X1767878D2*
X1779878D1*
X1804378D2*
X1813306D1*
X1830667D2*
X1837328D1*
X1857878D2*
X1866878D1*
X1881804D2*
X1890949D1*
X1899949D2*
X1913928D1*
X1938752D2*
X1948082D1*
X1963774D2*
X1968878D1*
X757213Y2461721D2*
X802471D1*
X961903D2*
X998692D1*
X1017411D2*
X1103822D1*
X1128890D2*
X1165040D1*
X1203878D2*
X1239878D1*
X1302878D2*
X1305878D1*
X1356878D2*
X1392878D1*
X1402389D2*
X1437368D1*
X1449878D2*
X1458878D1*
X1476878D2*
X1488878D1*
X1494878D2*
X1510461D1*
X1527878D2*
X1536878D1*
X1542878D2*
X1579789D1*
X1601554D2*
X1619098D1*
X1626878D2*
X1680878D1*
X1690505D2*
X1726789D1*
X1737878D2*
X1753122D1*
X1767878D2*
X1779878D1*
X1805108D2*
X1814182D1*
X1830812D2*
X1837694D1*
X1857878D2*
X1866878D1*
X1881852D2*
X1890878D1*
X1896878D2*
X1911035D1*
X1938820D2*
X1947954D1*
X1962857D2*
X1968878D1*
X759005Y2458721D2*
X805128D1*
X961360D2*
X997903D1*
X1016672D2*
X1098478D1*
X1128882D2*
X1165530D1*
X1201881D2*
X1238379D1*
X1302878D2*
X1305878D1*
X1356878D2*
X1392878D1*
X1400225D2*
X1439532D1*
X1449878D2*
X1458878D1*
X1476878D2*
X1488878D1*
X1494878D2*
X1512162D1*
X1527878D2*
X1536878D1*
X1542878D2*
X1581948D1*
X1600395D2*
X1619980D1*
X1626878D2*
X1680878D1*
X1688713D2*
X1728948D1*
X1737878D2*
X1754861D1*
X1767878D2*
X1779878D1*
X1805983D2*
X1815366D1*
X1830980D2*
X1839873D1*
X1857878D2*
X1866878D1*
X1881869D2*
X1907528D1*
X1938721D2*
X1947894D1*
X1961755D2*
X1968867D1*
X761024Y2455721D2*
X807976D1*
X960974D2*
X997372D1*
X1015895D2*
X1092878D1*
X1128892D2*
X1166492D1*
X1199545D2*
X1237122D1*
X1302878D2*
X1305878D1*
X1356878D2*
X1368878D1*
X1398494D2*
X1411456D1*
X1428301D2*
X1441263D1*
X1449878D2*
X1458878D1*
X1476878D2*
X1488878D1*
X1494878D2*
X1513993D1*
X1527878D2*
X1536878D1*
X1542878D2*
X1551878D1*
X1569301D2*
X1583398D1*
X1599139D2*
X1620888D1*
X1641878D2*
X1653878D1*
X1668878D2*
X1680878D1*
X1687632D2*
X1702004D1*
X1716753D2*
X1730398D1*
X1737878D2*
X1756514D1*
X1767878D2*
X1779878D1*
X1806900D2*
X1816720D1*
X1831497D2*
X1842684D1*
X1857878D2*
X1866878D1*
X1881875D2*
X1903843D1*
X1938419D2*
X1947759D1*
X1960464D2*
X1968761D1*
X763417Y2452721D2*
X810926D1*
X960464D2*
X997079D1*
X1015358D2*
X1050878D1*
X1128996D2*
X1169209D1*
X1196189D2*
X1235849D1*
X1302878D2*
X1305878D1*
X1356878D2*
X1368878D1*
X1397235D2*
X1409587D1*
X1430170D2*
X1442522D1*
X1449878D2*
X1458878D1*
X1476878D2*
X1488878D1*
X1494878D2*
X1515943D1*
X1527878D2*
X1536878D1*
X1542878D2*
X1551878D1*
X1571170D2*
X1584211D1*
X1597986D2*
X1621897D1*
X1641878D2*
X1653878D1*
X1668878D2*
X1680878D1*
X1686878D2*
X1699506D1*
X1719251D2*
X1731211D1*
X1737878D2*
X1758166D1*
X1767878D2*
X1779878D1*
X1808002D2*
X1818164D1*
X1832722D2*
X1845731D1*
X1857878D2*
X1866878D1*
X1881878D2*
X1900363D1*
X1936604D2*
X1947253D1*
X1959053D2*
X1968367D1*
X766107Y2449721D2*
X814008D1*
X959692D2*
X996846D1*
X1014973D2*
X1050867D1*
X1129390D2*
X1172789D1*
X1191447D2*
X1234387D1*
X1302878D2*
X1305878D1*
X1356878D2*
X1368878D1*
X1396501D2*
X1408116D1*
X1431641D2*
X1443256D1*
X1449878D2*
X1458878D1*
X1476878D2*
X1488878D1*
X1494878D2*
X1517778D1*
X1527878D2*
X1536878D1*
X1542878D2*
X1551878D1*
X1572641D2*
X1584602D1*
X1596953D2*
X1622899D1*
X1641878D2*
X1653878D1*
X1668878D2*
X1697725D1*
X1721032D2*
X1731602D1*
X1737878D2*
X1759949D1*
X1767878D2*
X1779878D1*
X1809293D2*
X1819651D1*
X1834711D2*
X1848809D1*
X1857878D2*
X1866878D1*
X1881878D2*
X1897213D1*
X1933856D2*
X1946033D1*
X1957497D2*
X1967543D1*
X768980Y2446721D2*
X817394D1*
X958903D2*
X996411D1*
X1014463D2*
X1050761D1*
X1130214D2*
X1176878D1*
X1185878D2*
X1232568D1*
X1302878D2*
X1305878D1*
X1356878D2*
X1389878D1*
X1396138D2*
X1406580D1*
X1433177D2*
X1443619D1*
X1449878D2*
X1458878D1*
X1476878D2*
X1488878D1*
X1494878D2*
X1519389D1*
X1527878D2*
X1536878D1*
X1542878D2*
X1551878D1*
X1574177D2*
X1584772D1*
X1595892D2*
X1605878D1*
X1611327D2*
X1623869D1*
X1641878D2*
X1653878D1*
X1668878D2*
X1696712D1*
X1722033D2*
X1731772D1*
X1737878D2*
X1761878D1*
X1767878D2*
X1779878D1*
X1810693D2*
X1821251D1*
X1837234D2*
X1851878D1*
X1857878D2*
X1866878D1*
X1881878D2*
X1894589D1*
X1930680D2*
X1944045D1*
X1955727D2*
X1966380D1*
X772029Y2443721D2*
X821227D1*
X958372D2*
X995672D1*
X1013692D2*
X1050379D1*
X1131377D2*
X1230272D1*
X1302878D2*
X1305878D1*
X1356878D2*
X1389878D1*
X1395980D2*
X1404878D1*
X1434878D2*
X1443777D1*
X1449878D2*
X1458890D1*
X1476878D2*
X1488878D1*
X1494878D2*
X1503878D1*
X1509403D2*
X1520733D1*
X1527878D2*
X1536878D1*
X1542878D2*
X1551878D1*
X1575878D2*
X1584839D1*
X1594869D2*
X1605878D1*
X1613274D2*
X1624991D1*
X1641878D2*
X1653878D1*
X1668878D2*
X1696234D1*
X1722417D2*
X1731839D1*
X1737878D2*
X1746878D1*
X1753456D2*
X1779878D1*
X1812154D2*
X1823140D1*
X1840128D2*
X1866878D1*
X1881878D2*
X1892756D1*
X1927865D2*
X1941535D1*
X1953789D2*
X1965021D1*
X775402Y2440721D2*
X825495D1*
X958079D2*
X994895D1*
X1012903D2*
X1049660D1*
X1132736D2*
X1227624D1*
X1302878D2*
X1305878D1*
X1356878D2*
X1389878D1*
X1395927D2*
X1406389D1*
X1433368D2*
X1443829D1*
X1449878D2*
X1459007D1*
X1476867D2*
X1488878D1*
X1494878D2*
X1503878D1*
X1511554D2*
X1521878D1*
X1527878D2*
X1536878D1*
X1542878D2*
X1551878D1*
X1574370D2*
X1584853D1*
X1593892D2*
X1605878D1*
X1614878D2*
X1626277D1*
X1641878D2*
X1653878D1*
X1668878D2*
X1696152D1*
X1722223D2*
X1731865D1*
X1737878D2*
X1746878D1*
X1754596D2*
X1779878D1*
X1813648D2*
X1825465D1*
X1843426D2*
X1866878D1*
X1881878D2*
X1891723D1*
X1925568D2*
X1938758D1*
X1951848D2*
X1963486D1*
X779229Y2437721D2*
X830235D1*
X957846D2*
X994358D1*
X1012360D2*
X1048891D1*
X1134294D2*
X1224767D1*
X1302878D2*
X1305878D1*
X1356878D2*
X1389878D1*
X1396009D2*
X1407752D1*
X1432005D2*
X1443748D1*
X1449878D2*
X1459506D1*
X1476753D2*
X1488867D1*
X1494878D2*
X1503878D1*
X1513395D2*
X1536878D1*
X1542878D2*
X1551878D1*
X1573040D2*
X1584757D1*
X1592767D2*
X1627586D1*
X1641878D2*
X1653878D1*
X1668878D2*
X1696362D1*
X1721359D2*
X1731862D1*
X1737878D2*
X1746878D1*
X1756198D2*
X1779878D1*
X1815250D2*
X1828126D1*
X1847102D2*
X1866878D1*
X1881878D2*
X1891226D1*
X1924699D2*
X1935959D1*
X1949757D2*
X1961723D1*
X783495Y2434721D2*
X835512D1*
X957411D2*
X993973D1*
X1011974D2*
X1048368D1*
X1136268D2*
X1221713D1*
X1302878D2*
X1305878D1*
X1356878D2*
X1368878D1*
X1396394D2*
X1409397D1*
X1430360D2*
X1443363D1*
X1449890D2*
X1460714D1*
X1476289D2*
X1488761D1*
X1494878D2*
X1503878D1*
X1515139D2*
X1536878D1*
X1542878D2*
X1551878D1*
X1571555D2*
X1584366D1*
X1591480D2*
X1628760D1*
X1641878D2*
X1653878D1*
X1668878D2*
X1680878D1*
X1687004D2*
X1697847D1*
X1719687D2*
X1731748D1*
X1737878D2*
X1746878D1*
X1757886D2*
X1779878D1*
X1817140D2*
X1830975D1*
X1850743D2*
X1866878D1*
X1881878D2*
X1891012D1*
X1924228D2*
X1933489D1*
X1947227D2*
X1959787D1*
X788236Y2431721D2*
X841256D1*
X956671D2*
X993461D1*
X1011461D2*
X1048090D1*
X1138992D2*
X1218225D1*
X1302878D2*
X1305878D1*
X1356878D2*
X1368878D1*
X1397227D2*
X1411516D1*
X1428241D2*
X1442530D1*
X1450007D2*
X1462632D1*
X1475263D2*
X1488367D1*
X1494878D2*
X1503878D1*
X1516986D2*
X1536878D1*
X1542878D2*
X1551878D1*
X1569878D2*
X1583531D1*
X1590171D2*
X1629800D1*
X1641878D2*
X1653878D1*
X1668878D2*
X1680878D1*
X1687506D2*
X1701134D1*
X1717079D2*
X1731250D1*
X1737878D2*
X1746878D1*
X1759524D2*
X1779878D1*
X1819465D2*
X1833926D1*
X1853762D2*
X1866878D1*
X1881878D2*
X1890927D1*
X1924015D2*
X1931708D1*
X1944065D2*
X1957836D1*
X793501Y2428721D2*
X847491D1*
X955887D2*
X992664D1*
X1010665D2*
X1047962D1*
X1142598D2*
X1213902D1*
X1302878D2*
X1305878D1*
X1356878D2*
X1368878D1*
X1398518D2*
X1413878D1*
X1425878D2*
X1441239D1*
X1450519D2*
X1464878D1*
X1473878D2*
X1487520D1*
X1494878D2*
X1503878D1*
X1518951D2*
X1536878D1*
X1542878D2*
X1582263D1*
X1588988D2*
X1630853D1*
X1641878D2*
X1653878D1*
X1668878D2*
X1680878D1*
X1688736D2*
X1704878D1*
X1713878D2*
X1730020D1*
X1737878D2*
X1746878D1*
X1761198D2*
X1779878D1*
X1822126D2*
X1837017D1*
X1856163D2*
X1866878D1*
X1881878D2*
X1890896D1*
X1923917D2*
X1930630D1*
X1940181D2*
X1955651D1*
X799138Y2425721D2*
X854274D1*
X955316D2*
X991751D1*
X1009751D2*
X1047908D1*
X1147150D2*
X1208457D1*
X1302878D2*
X1305878D1*
X1356878D2*
X1368878D1*
X1400487D2*
X1439270D1*
X1451490D2*
X1486137D1*
X1494878D2*
X1503878D1*
X1520875D2*
X1536878D1*
X1542878D2*
X1580531D1*
X1587864D2*
X1599327D1*
X1620878D2*
X1631778D1*
X1641878D2*
X1653878D1*
X1668878D2*
X1680878D1*
X1690838D2*
X1727919D1*
X1737878D2*
X1746878D1*
X1763111D2*
X1779878D1*
X1824987D2*
X1840472D1*
X1857050D2*
X1866878D1*
X1881878D2*
X1890884D1*
X1923756D2*
X1929878D1*
X1935878D2*
X1952853D1*
X804991Y2422721D2*
X861636D1*
X954878D2*
X990878D1*
X1008878D2*
X1047878D1*
X1152707D2*
X1201945D1*
X1302878D2*
X1305878D1*
X1356878D2*
X1368878D1*
X1403677D2*
X1436080D1*
X1454208D2*
X1483941D1*
X1494878D2*
X1503878D1*
X1522829D2*
X1536878D1*
X1542878D2*
X1578318D1*
X1586488D2*
X1598274D1*
X1620878D2*
X1632409D1*
X1641878D2*
X1653878D1*
X1668878D2*
X1680878D1*
X1693811D2*
X1724946D1*
X1737878D2*
X1746878D1*
X1765398D2*
X1779878D1*
X1828032D2*
X1844495D1*
X1857553D2*
X1866878D1*
X1881878D2*
X1890880D1*
X1923424D2*
X1949425D1*
X811045Y2419721D2*
X869880D1*
X1158878D2*
X1194878D1*
X1302878D2*
X1305878D1*
X1356878D2*
X1368878D1*
X1408348D2*
X1431409D1*
X1457789D2*
X1480703D1*
X1494878D2*
X1503878D1*
X1524878D2*
X1536878D1*
X1542878D2*
X1575878D1*
X1584878D2*
X1596878D1*
X1620878D2*
X1632878D1*
X1641878D2*
X1653878D1*
X1668878D2*
X1680878D1*
X1697618D2*
X1721139D1*
X1737878D2*
X1746878D1*
X1767878D2*
X1779878D1*
X1831402D2*
X1848878D1*
X1857878D2*
X1866878D1*
X1881878D2*
X1890879D1*
X1921811D2*
X1945674D1*
X817532Y2416721D2*
X879489D1*
X1302878D2*
X1305878D1*
X1413878D2*
X1425878D1*
X1461878D2*
X1476878D1*
X1701878D2*
X1716878D1*
X1835241D2*
X1866878D1*
X1881878D2*
X1890879D1*
X1917199D2*
X1941707D1*
X824858Y2413721D2*
X890788D1*
X1302878D2*
X1305878D1*
X1839621D2*
X1866878D1*
X1881878D2*
X1890879D1*
X1910618D2*
X1937220D1*
X833354Y2410721D2*
X904443D1*
X1302878D2*
X1305878D1*
X1844816D2*
X1866878D1*
X1881878D2*
X1890878D1*
X1902878D2*
X1931999D1*
X843210Y2407721D2*
X921867D1*
X1302878D2*
X1305878D1*
X1851054D2*
X1866878D1*
X1881878D2*
X1925976D1*
X854637Y2404721D2*
X944289D1*
X1041878D2*
D3*
X1857878D2*
X1866878D1*
X1881878D2*
X1919149D1*
X868123Y2401721D2*
X971109D1*
X1011878D2*
X1041878D1*
X1881878D2*
X1911878D1*
X884462Y2398721D2*
X1028359D1*
X903847Y2395721D2*
X1011963D1*
X924878Y2392721D2*
X993878D1*
X636151Y2321938D2*
X1077151D1*
X636151Y2318938D2*
X1077151D1*
X636151Y2315938D2*
X1077151D1*
X636151Y2312938D2*
X1077151D1*
X636151Y2309938D2*
X1077151D1*
X636151Y2306938D2*
X1077151D1*
X636151Y2303938D2*
X1077151D1*
X636151Y2300938D2*
X1077151D1*
X636151Y2297938D2*
X1077151D1*
X1266151D2*
X1275151D1*
X636151Y2294938D2*
X684289D1*
X704911D2*
X1077151D1*
X1101151D2*
X1161151D1*
X1167151D2*
X1227151D1*
X1259356D2*
X1281935D1*
X1317151D2*
X1338151D1*
X1359151D2*
X1380151D1*
X636151Y2291938D2*
X678896D1*
X710025D2*
X1077151D1*
X1101151D2*
X1161151D1*
X1167151D2*
X1227151D1*
X1253740D2*
X1287446D1*
X1317151D2*
X1338151D1*
X1359151D2*
X1380151D1*
X636151Y2288938D2*
X674497D1*
X714087D2*
X1077151D1*
X1101151D2*
X1161151D1*
X1167151D2*
X1227151D1*
X1249311D2*
X1291492D1*
X1317151D2*
X1338151D1*
X1359151D2*
X1380151D1*
X636151Y2285938D2*
X671215D1*
X717319D2*
X1077151D1*
X1101151D2*
X1161151D1*
X1167151D2*
X1227151D1*
X1245736D2*
X1294337D1*
X1317151D2*
X1338151D1*
X1359151D2*
X1380151D1*
X636151Y2282938D2*
X668612D1*
X720168D2*
X1077151D1*
X1101151D2*
X1161151D1*
X1167151D2*
X1227151D1*
X1242841D2*
X1296369D1*
X1317151D2*
X1338151D1*
X1359151D2*
X1380151D1*
X636151Y2279938D2*
X666411D1*
X693151D2*
X696151D1*
X722602D2*
X904216D1*
X915116D2*
X1077151D1*
X1101151D2*
X1161151D1*
X1167151D2*
X1227151D1*
X1240563D2*
X1297847D1*
X1317151D2*
X1338151D1*
X1359151D2*
X1380151D1*
X636151Y2276938D2*
X664718D1*
X689918D2*
X699385D1*
X724352D2*
X900320D1*
X914788D2*
X1077151D1*
X1101151D2*
X1161151D1*
X1167151D2*
X1188151D1*
X1238790D2*
X1267216D1*
X1275037D2*
X1299006D1*
X1317151D2*
X1338151D1*
X1359151D2*
X1380151D1*
X636151Y2273938D2*
X663418D1*
X687451D2*
X701852D1*
X725449D2*
X897560D1*
X914015D2*
X1077151D1*
X1119151D2*
X1140151D1*
X1167151D2*
X1188151D1*
X1237504D2*
X1263323D1*
X1277641D2*
X1300102D1*
X1317151D2*
X1338151D1*
X1359151D2*
X1380151D1*
X636151Y2270938D2*
X662252D1*
X685802D2*
X703500D1*
X726312D2*
X895646D1*
X911118D2*
X1077151D1*
X1119151D2*
X1140151D1*
X1167151D2*
X1188151D1*
X1236659D2*
X1260594D1*
X1279805D2*
X1301035D1*
X1317151D2*
X1338151D1*
X1359151D2*
X1380151D1*
X636151Y2267938D2*
X661288D1*
X684890D2*
X704424D1*
X727239D2*
X741151D1*
X759151D2*
X772216D1*
X780151D2*
X804289D1*
X820611D2*
X867753D1*
X891151D2*
X894151D1*
X908013D2*
X937342D1*
X956550D2*
X987151D1*
X1005151D2*
X1015254D1*
X1031087D2*
X1077151D1*
X1119151D2*
X1140151D1*
X1167151D2*
X1188151D1*
X1235913D2*
X1258550D1*
X1281536D2*
X1301589D1*
X1317151D2*
X1338151D1*
X1359151D2*
X1380151D1*
X636151Y2264938D2*
X660686D1*
X684455D2*
X704965D1*
X728091D2*
X741151D1*
X759151D2*
X768311D1*
X780151D2*
X798896D1*
X826655D2*
X863104D1*
X905326D2*
X930939D1*
X961199D2*
X987151D1*
X1005151D2*
X1011360D1*
X1034980D2*
X1077151D1*
X1119151D2*
X1140151D1*
X1167151D2*
X1188151D1*
X1235035D2*
X1257831D1*
X1282795D2*
X1301853D1*
X1317151D2*
X1338151D1*
X1359151D2*
X1380151D1*
X636151Y2261938D2*
X660379D1*
X684256D2*
X705534D1*
X728645D2*
X741151D1*
X759151D2*
X765468D1*
X780116D2*
X794509D1*
X831213D2*
X859493D1*
X904365D2*
X926323D1*
X964810D2*
X987151D1*
X1005151D2*
X1008151D1*
X1037709D2*
X1077151D1*
X1119151D2*
X1140151D1*
X1167151D2*
X1188151D1*
X1234202D2*
X1257441D1*
X1283532D2*
X1300901D1*
X1317151D2*
X1338151D1*
X1359151D2*
X1380151D1*
X636151Y2258938D2*
X660241D1*
X684077D2*
X706327D1*
X728934D2*
X741151D1*
X759151D2*
X763251D1*
X779788D2*
X791332D1*
X834596D2*
X856842D1*
X876151D2*
X885151D1*
X904845D2*
X923185D1*
X967473D2*
X987151D1*
X1039753D2*
X1077151D1*
X1119151D2*
X1140151D1*
X1167151D2*
X1188151D1*
X1233654D2*
X1257265D1*
X1283912D2*
X1297426D1*
X1317151D2*
X1338151D1*
X1359151D2*
X1380151D1*
X636151Y2255938D2*
X660185D1*
X683667D2*
X707124D1*
X729065D2*
X741151D1*
X759151D2*
X761220D1*
X779015D2*
X789099D1*
X807151D2*
X819151D1*
X836993D2*
X854899D1*
X874767D2*
X885151D1*
X905790D2*
X921032D1*
X942151D2*
X951151D1*
X969521D2*
X987151D1*
X1014151D2*
X1017151D1*
X1040472D2*
X1077151D1*
X1119151D2*
X1140151D1*
X1167151D2*
X1218151D1*
X1233367D2*
X1257193D1*
X1284151D2*
X1293151D1*
X1317151D2*
X1380151D1*
X636151Y2252938D2*
X660163D1*
X682938D2*
X707657D1*
X729119D2*
X741151D1*
X759151D2*
D3*
X776003D2*
X787524D1*
X806688D2*
X820536D1*
X838570D2*
X853568D1*
X873905D2*
X885151D1*
X906927D2*
X919605D1*
X940767D2*
X951615D1*
X971246D2*
X987151D1*
X1011382D2*
X1018988D1*
X1040862D2*
X1077151D1*
X1119151D2*
X1140151D1*
X1167151D2*
X1218151D1*
X1233237D2*
X1257166D1*
X1317151D2*
X1380151D1*
X636151Y2249938D2*
X660155D1*
X682178D2*
X707938D1*
X729140D2*
X741151D1*
X772503D2*
X786323D1*
X805943D2*
X821398D1*
X839443D2*
X852908D1*
X873481D2*
X885151D1*
X907831D2*
X918808D1*
X939905D2*
X952359D1*
X972730D2*
X987151D1*
X1009331D2*
X1020488D1*
X1041038D2*
X1077151D1*
X1119151D2*
X1140151D1*
X1167151D2*
X1218151D1*
X1233183D2*
X1257156D1*
X1317151D2*
X1380151D1*
X636151Y2246938D2*
X660153D1*
X681759D2*
X708067D1*
X729148D2*
X741151D1*
X769411D2*
X785210D1*
X805159D2*
X821835D1*
X839871D2*
X852928D1*
X873402D2*
X885151D1*
X908341D2*
X918423D1*
X939457D2*
X953136D1*
X973873D2*
X987151D1*
X1008705D2*
X1021631D1*
X1041110D2*
X1077151D1*
X1119151D2*
X1140151D1*
X1167151D2*
X1218151D1*
X1233163D2*
X1257153D1*
X1317151D2*
X1380151D1*
X636151Y2243938D2*
X660152D1*
X681863D2*
X708108D1*
X729150D2*
X741151D1*
X767173D2*
X784271D1*
X804588D2*
X822035D1*
X840156D2*
X853601D1*
X873787D2*
X885151D1*
X907631D2*
X918256D1*
X939158D2*
X953661D1*
X974559D2*
X987151D1*
X1008379D2*
X1021397D1*
X1041137D2*
X1077151D1*
X1119151D2*
X1140151D1*
X1167151D2*
X1218151D1*
X1233155D2*
X1257152D1*
X1317151D2*
X1380151D1*
X636151Y2240938D2*
X660152D1*
X682454D2*
X708023D1*
X729151D2*
X741151D1*
X765606D2*
X783680D1*
X804151D2*
X822151D1*
X840610D2*
X854793D1*
X874782D2*
X885151D1*
X906446D2*
X918190D1*
X938710D2*
X953940D1*
X974902D2*
X987151D1*
X1008238D2*
X1020926D1*
X1041146D2*
X1077151D1*
X1119151D2*
X1140151D1*
X1167151D2*
X1218151D1*
X1233153D2*
X1257152D1*
X1317151D2*
X1380151D1*
X636151Y2237938D2*
X660151D1*
X683170D2*
X707648D1*
X729151D2*
X741151D1*
X764324D2*
X783377D1*
X841356D2*
X856381D1*
X876151D2*
X885151D1*
X904564D2*
X918165D1*
X938067D2*
X954067D1*
X975054D2*
X987151D1*
X1008183D2*
X1020545D1*
X1041150D2*
X1077151D1*
X1119151D2*
X1140151D1*
X1167151D2*
X1218151D1*
X1233164D2*
X1257151D1*
X1317151D2*
X1380151D1*
X636151Y2234938D2*
X660151D1*
X683673D2*
X706932D1*
X729140D2*
X741151D1*
X763314D2*
X783240D1*
X842142D2*
X858021D1*
X901976D2*
X918156D1*
X937669D2*
X954120D1*
X975115D2*
X987151D1*
X1008162D2*
X1020327D1*
X1041151D2*
X1077151D1*
X1119151D2*
X1140151D1*
X1167151D2*
X1188151D1*
X1233269D2*
X1257151D1*
X1317151D2*
X1338151D1*
X1359151D2*
X1380151D1*
X636151Y2231938D2*
X660163D1*
X683944D2*
X706164D1*
X729034D2*
X741151D1*
X762695D2*
X783184D1*
X842714D2*
X859355D1*
X895379D2*
X918153D1*
X937861D2*
X954140D1*
X975139D2*
X987151D1*
X1008155D2*
X1020223D1*
X1041151D2*
X1077151D1*
X1119151D2*
X1140151D1*
X1167151D2*
X1188151D1*
X1233651D2*
X1257163D1*
X1284151D2*
X1302151D1*
X1317151D2*
X1338151D1*
X1359151D2*
X1380151D1*
X636151Y2228938D2*
X660269D1*
X684080D2*
X705629D1*
X728652D2*
X741151D1*
X762382D2*
X783175D1*
X804151D2*
X859021D1*
X886725D2*
X918152D1*
X938351D2*
X954148D1*
X975147D2*
X987151D1*
X1008153D2*
X1020179D1*
X1041151D2*
X1077151D1*
X1119151D2*
X1140151D1*
X1167151D2*
X1188151D1*
X1234369D2*
X1257269D1*
X1283676D2*
X1302140D1*
X1317151D2*
X1338151D1*
X1359151D2*
X1380151D1*
X636151Y2225938D2*
X660651D1*
X684238D2*
X705246D1*
X727933D2*
X741151D1*
X762242D2*
X783273D1*
X804163D2*
X857237D1*
X878394D2*
X918152D1*
X938746D2*
X954138D1*
X975138D2*
X987151D1*
X1008152D2*
X1020161D1*
X1041151D2*
X1077151D1*
X1119151D2*
X1140151D1*
X1167151D2*
X1188151D1*
X1235150D2*
X1257674D1*
X1282815D2*
X1302034D1*
X1317151D2*
X1338151D1*
X1359151D2*
X1380151D1*
X636151Y2222938D2*
X661381D1*
X684663D2*
X704713D1*
X727153D2*
X741151D1*
X762185D2*
X783664D1*
X804269D2*
X855217D1*
X872573D2*
X918163D1*
X938972D2*
X954034D1*
X975034D2*
X987151D1*
X1008152D2*
X1020155D1*
X1041151D2*
X1077151D1*
X1119151D2*
X1140151D1*
X1167151D2*
X1188151D1*
X1235779D2*
X1258622D1*
X1281539D2*
X1301652D1*
X1317151D2*
X1338151D1*
X1359151D2*
X1380151D1*
X636151Y2219938D2*
X662268D1*
X685618D2*
X703712D1*
X726512D2*
X741151D1*
X762163D2*
X784487D1*
X804674D2*
X822128D1*
X829371D2*
X853227D1*
X868344D2*
X918269D1*
X939102D2*
X953640D1*
X974640D2*
X987151D1*
X1008151D2*
X1020153D1*
X1041151D2*
X1077151D1*
X1119151D2*
X1140151D1*
X1167151D2*
X1188151D1*
X1236451D2*
X1260326D1*
X1279804D2*
X1300922D1*
X1317151D2*
X1338151D1*
X1359151D2*
X1380151D1*
X636151Y2216938D2*
X663279D1*
X687325D2*
X701988D1*
X725734D2*
X741151D1*
X762156D2*
X785650D1*
X805622D2*
X821899D1*
X834736D2*
X851231D1*
X878440D2*
X918663D1*
X939376D2*
X952807D1*
X973816D2*
X987151D1*
X1008151D2*
X1020152D1*
X1041151D2*
X1077151D1*
X1119151D2*
X1140151D1*
X1167151D2*
X1188151D1*
X1237414D2*
X1262946D1*
X1277591D2*
X1300047D1*
X1317151D2*
X1338151D1*
X1359151D2*
X1380151D1*
X636151Y2213938D2*
X664669D1*
X689945D2*
X699361D1*
X724401D2*
X741151D1*
X762153D2*
X786997D1*
X807326D2*
X821355D1*
X838733D2*
X849151D1*
X888966D2*
X919498D1*
X939943D2*
X951567D1*
X972653D2*
X987151D1*
X1008151D2*
X1020152D1*
X1041151D2*
X1077151D1*
X1119151D2*
X1140151D1*
X1167151D2*
X1227151D1*
X1238736D2*
X1266151D1*
X1275151D2*
X1299118D1*
X1317151D2*
X1338151D1*
X1359151D2*
X1380151D1*
X636151Y2210938D2*
X666413D1*
X693151D2*
X696151D1*
X722455D2*
X741151D1*
X762152D2*
X788450D1*
X809946D2*
X819017D1*
X838276D2*
X851248D1*
X897860D2*
X920767D1*
X942284D2*
X949972D1*
X971282D2*
X987151D1*
X1008151D2*
X1020151D1*
X1041151D2*
X1077151D1*
X1119151D2*
X1140151D1*
X1167151D2*
X1227151D1*
X1240497D2*
X1297910D1*
X1317151D2*
X1338151D1*
X1359151D2*
X1380151D1*
X636151Y2207938D2*
X668375D1*
X720189D2*
X741151D1*
X762152D2*
X790054D1*
X813151D2*
X816151D1*
X837167D2*
X853814D1*
X904056D2*
X922520D1*
X945151D2*
X948151D1*
X969618D2*
X987151D1*
X1008151D2*
X1020151D1*
X1041151D2*
X1077151D1*
X1119151D2*
X1140151D1*
X1167151D2*
X1227151D1*
X1242782D2*
X1296226D1*
X1317151D2*
X1338151D1*
X1359151D2*
X1380151D1*
X636151Y2204938D2*
X670913D1*
X717614D2*
X741151D1*
X762151D2*
X792151D1*
X835507D2*
X857225D1*
X908510D2*
X924900D1*
X967251D2*
X987151D1*
X1008151D2*
X1020151D1*
X1041151D2*
X1077151D1*
X1119151D2*
X1140151D1*
X1167151D2*
X1227151D1*
X1245551D2*
X1293967D1*
X1317151D2*
X1338151D1*
X1359151D2*
X1380151D1*
X636151Y2201938D2*
X674518D1*
X714264D2*
X741151D1*
X762151D2*
X795239D1*
X831769D2*
X861151D1*
X910294D2*
X928000D1*
X963728D2*
X987151D1*
X1008151D2*
X1020151D1*
X1041151D2*
X1077151D1*
X1119151D2*
X1140151D1*
X1167151D2*
X1227151D1*
X1249006D2*
X1291018D1*
X1317151D2*
X1338151D1*
X1359151D2*
X1380151D1*
X636151Y2198938D2*
X679113D1*
X709946D2*
X741151D1*
X762151D2*
X799432D1*
X827173D2*
X857252D1*
X870151D2*
X885151D1*
X911321D2*
X931861D1*
X959169D2*
X987151D1*
X1008151D2*
X1020151D1*
X1041151D2*
X1077151D1*
X1119151D2*
X1140151D1*
X1167151D2*
X1227151D1*
X1253613D2*
X1286954D1*
X1317151D2*
X1338151D1*
X1359151D2*
X1380151D1*
X636151Y2195938D2*
X684151D1*
X705151D2*
X804151D1*
X822151D2*
X853861D1*
X868204D2*
X889294D1*
X911813D2*
X936151D1*
X954151D2*
X1077151D1*
X1119151D2*
X1140151D1*
X1167151D2*
X1227151D1*
X1259533D2*
X1281447D1*
X1317151D2*
X1338151D1*
X1359151D2*
X1380151D1*
X636151Y2192938D2*
X851124D1*
X866224D2*
X892336D1*
X912010D2*
X1077151D1*
X1266151D2*
X1275151D1*
X636151Y2189938D2*
X850119D1*
X864151D2*
X893094D1*
X911976D2*
X1077151D1*
X636151Y2186938D2*
X849687D1*
X867151D2*
X892309D1*
X911507D2*
X1077151D1*
X636151Y2183938D2*
X849660D1*
X870151D2*
X891151D1*
X910585D2*
X1077151D1*
X636151Y2180938D2*
X850842D1*
X908141D2*
X1077151D1*
X636151Y2177938D2*
X854065D1*
X904648D2*
X1077151D1*
X636151Y2174938D2*
X858677D1*
X899802D2*
X1077151D1*
X636151Y2171938D2*
X864151D1*
X894151D2*
X1077151D1*
X636151Y2168938D2*
X1077151D1*
X636151Y2165938D2*
X1077151D1*
X885878Y2569721D2*
X870209Y2566721D1*
X856095Y2563721D1*
X843884Y2560721D1*
X833308Y2557721D1*
X824029Y2554721D1*
X815922Y2551721D1*
X808783Y2548721D1*
X802259Y2545721D1*
X796148Y2542721D1*
X790546Y2539721D1*
X785626Y2536721D1*
X781219Y2533721D1*
X777007Y2530721D1*
X773025Y2527721D1*
X769429Y2524721D1*
X766224Y2521721D1*
X763468Y2518721D1*
X761142Y2515721D1*
X759006Y2512721D1*
X757021Y2509721D1*
X755515Y2506721D1*
X754628Y2503721D1*
X754191Y2500721D1*
X754000Y2497721D1*
X753923Y2494721D1*
X753894Y2491721D1*
X753884Y2488721D1*
X753880Y2485721D1*
X753879Y2482721D1*
Y2479721D1*
Y2476721D1*
X753890Y2473721D1*
X754007Y2470721D1*
X754495Y2467721D1*
X755608Y2464721D1*
X757213Y2461721D1*
X759005Y2458721D1*
X761024Y2455721D1*
X763417Y2452721D1*
X766107Y2449721D1*
X768980Y2446721D1*
X772029Y2443721D1*
X775402Y2440721D1*
X779229Y2437721D1*
X783495Y2434721D1*
X788236Y2431721D1*
X793501Y2428721D1*
X799138Y2425721D1*
X804991Y2422721D1*
X811045Y2419721D1*
X817532Y2416721D1*
X824858Y2413721D1*
X833354Y2410721D1*
X843210Y2407721D1*
X854637Y2404721D1*
X868123Y2401721D1*
X884462Y2398721D1*
X903847Y2395721D1*
X924878Y2392721D1*
X981878Y2569721D2*
X933878D2*
Y2566721D1*
Y2563721D1*
X915878Y2566721D2*
X912878Y2563721D1*
X933878D2*
X981878D2*
X981764Y2560721D1*
X981380Y2557721D1*
X980661Y2554721D1*
X979891Y2551721D1*
X979368Y2548721D1*
X979090Y2545721D1*
X978962Y2542721D1*
X978908Y2539721D1*
X978878Y2536721D1*
X1875878Y2563721D2*
X1866083Y2560721D1*
X1857479Y2557721D1*
X1850155Y2554721D1*
X1843974Y2551721D1*
X1838903Y2548721D1*
X1834777Y2545721D1*
X1831245Y2542721D1*
X1828019Y2539721D1*
X1824941Y2536721D1*
X1822014Y2533721D1*
X1819384Y2530721D1*
X1817110Y2527721D1*
X1814984Y2524721D1*
X1812900Y2521721D1*
X1811014Y2518721D1*
X1809398Y2515721D1*
X1808087Y2512721D1*
X1806990Y2509721D1*
X1805917Y2506721D1*
X1804991Y2503721D1*
X1804405Y2500721D1*
X1804103Y2497721D1*
X1803967Y2494721D1*
X1803911Y2491721D1*
X1803890Y2488721D1*
X1803883Y2485721D1*
X1803880Y2482721D1*
X1803879Y2479721D1*
Y2476721D1*
Y2473721D1*
X1803890Y2470721D1*
X1803996Y2467721D1*
X1804378Y2464721D1*
X1805108Y2461721D1*
X1805983Y2458721D1*
X1806900Y2455721D1*
X1808002Y2452721D1*
X1809293Y2449721D1*
X1810693Y2446721D1*
X1812154Y2443721D1*
X1813648Y2440721D1*
X1815250Y2437721D1*
X1817140Y2434721D1*
X1819465Y2431721D1*
X1822126Y2428721D1*
X1824987Y2425721D1*
X1828032Y2422721D1*
X1831402Y2419721D1*
X1835241Y2416721D1*
X1839621Y2413721D1*
X1844816Y2410721D1*
X1851054Y2407721D1*
X1857878Y2404721D1*
X1899878Y2563721D2*
X1911047Y2560721D1*
X1920419Y2557721D1*
X1927902Y2554721D1*
X1933940Y2551721D1*
X1939039Y2548721D1*
X1943441Y2545721D1*
X1947228Y2542721D1*
X1950597Y2539721D1*
X1953657Y2536721D1*
X1956341Y2533721D1*
X1958635Y2530721D1*
X1960770Y2527721D1*
X1962855Y2524721D1*
X1964742Y2521721D1*
X1966347Y2518721D1*
X1967553Y2515721D1*
X1968267Y2512721D1*
X1968622Y2509721D1*
X1968779Y2506721D1*
X1968842Y2503721D1*
X1968865Y2500721D1*
X1968874Y2497721D1*
X1968877Y2494721D1*
X1968878Y2491721D1*
Y2488721D1*
Y2485721D1*
Y2482721D1*
Y2479721D1*
Y2476721D1*
Y2473721D1*
Y2470721D1*
Y2467721D1*
Y2464721D1*
Y2461721D1*
X1968867Y2458721D1*
X1968761Y2455721D1*
X1968367Y2452721D1*
X1967543Y2449721D1*
X1966380Y2446721D1*
X1965021Y2443721D1*
X1963486Y2440721D1*
X1961723Y2437721D1*
X1959787Y2434721D1*
X1957836Y2431721D1*
X1955651Y2428721D1*
X1952853Y2425721D1*
X1949425Y2422721D1*
X1945674Y2419721D1*
X1941707Y2416721D1*
X1937220Y2413721D1*
X1931999Y2410721D1*
X1925976Y2407721D1*
X1919149Y2404721D1*
X1911878Y2401721D1*
X906878Y2563721D2*
X895430Y2560721D1*
X884483Y2557721D1*
X873878Y2554721D1*
X912878Y2560721D2*
X899285Y2557721D1*
X885878Y2554721D1*
X867878D2*
X861878Y2551721D1*
X855878Y2548721D1*
X873878Y2551721D2*
X864878Y2548721D1*
X1878878Y2554721D2*
X1870119Y2551721D1*
X1862017Y2548721D1*
X1855060Y2545721D1*
X1849210Y2542721D1*
X1844080Y2539721D1*
X1839427Y2536721D1*
X1835317Y2533721D1*
X1831986Y2530721D1*
X1829363Y2527721D1*
X1827082Y2524721D1*
X1824925Y2521721D1*
X1822910Y2518721D1*
X1820915Y2515721D1*
X1818976Y2512721D1*
X1817386Y2509721D1*
X1816125Y2506721D1*
X1814972Y2503721D1*
X1814001Y2500721D1*
X1813295Y2497721D1*
X1812606Y2494721D1*
X1811750Y2491721D1*
X1810925Y2488721D1*
X1810392Y2485721D1*
X1810211Y2482721D1*
X1810463Y2479721D1*
X1811128Y2476721D1*
X1811877Y2473721D1*
X1812405Y2470721D1*
X1812786Y2467721D1*
X1813306Y2464721D1*
X1814182Y2461721D1*
X1815366Y2458721D1*
X1816720Y2455721D1*
X1818164Y2452721D1*
X1819651Y2449721D1*
X1821251Y2446721D1*
X1823140Y2443721D1*
X1825465Y2440721D1*
X1828126Y2437721D1*
X1830975Y2434721D1*
X1833926Y2431721D1*
X1837017Y2428721D1*
X1840472Y2425721D1*
X1844495Y2422721D1*
X1848878Y2419721D1*
X1893878Y2554721D2*
X1904699Y2551721D1*
X1914197Y2548721D1*
X1922089Y2545721D1*
X1928564Y2542721D1*
X1933767Y2539721D1*
X1937948Y2536721D1*
X1941500Y2533721D1*
X1944723Y2530721D1*
X1947709Y2527721D1*
X1950361Y2524721D1*
X1952643Y2521721D1*
X1954760Y2518721D1*
X1956751Y2515721D1*
X1958360Y2512721D1*
X1959628Y2509721D1*
X1960796Y2506721D1*
X1961861Y2503721D1*
X1962844Y2500721D1*
X1963869Y2497721D1*
X1964776Y2494721D1*
X1965356Y2491721D1*
X1965655Y2488721D1*
X1965790Y2485721D1*
X1965846Y2482721D1*
X1965867Y2479721D1*
X1965863Y2476721D1*
X1965760Y2473721D1*
X1965379Y2470721D1*
X1964649Y2467721D1*
X1963774Y2464721D1*
X1962857Y2461721D1*
X1961755Y2458721D1*
X1960464Y2455721D1*
X1959053Y2452721D1*
X1957497Y2449721D1*
X1955727Y2446721D1*
X1953789Y2443721D1*
X1951848Y2440721D1*
X1949757Y2437721D1*
X1947227Y2434721D1*
X1944065Y2431721D1*
X1940181Y2428721D1*
X1935878Y2425721D1*
X852878Y2548721D2*
X846890Y2545721D1*
X841004Y2542721D1*
X835468Y2539721D1*
X830494Y2536721D1*
X825878Y2533721D1*
X855878Y2545721D2*
X849878Y2542721D1*
X843878Y2539721D1*
X837878Y2536721D1*
X831878Y2533721D1*
X1302878Y2542721D2*
Y2539721D1*
Y2536721D1*
Y2533721D1*
Y2530721D1*
Y2527721D1*
Y2524721D1*
Y2521721D1*
Y2518721D1*
Y2515721D1*
Y2512721D1*
Y2509721D1*
Y2506721D1*
Y2503721D1*
Y2500721D1*
Y2497721D1*
Y2494721D1*
Y2491721D1*
Y2488721D1*
Y2485721D1*
Y2482721D1*
Y2479721D1*
Y2476721D1*
Y2473721D1*
Y2470721D1*
Y2467721D1*
Y2464721D1*
Y2461721D1*
Y2458721D1*
Y2455721D1*
Y2452721D1*
Y2449721D1*
Y2446721D1*
Y2443721D1*
Y2440721D1*
Y2437721D1*
Y2434721D1*
Y2431721D1*
Y2428721D1*
Y2425721D1*
Y2422721D1*
Y2419721D1*
Y2416721D1*
Y2413721D1*
Y2410721D1*
Y2407721D1*
X1305878Y2542721D2*
Y2539721D1*
Y2536721D1*
Y2533721D1*
Y2530721D1*
Y2527721D1*
Y2524721D1*
Y2521721D1*
Y2518721D1*
Y2515721D1*
Y2512721D1*
Y2509721D1*
Y2506721D1*
Y2503721D1*
Y2500721D1*
Y2497721D1*
Y2494721D1*
Y2491721D1*
Y2488721D1*
Y2485721D1*
Y2482721D1*
Y2479721D1*
Y2476721D1*
Y2473721D1*
Y2470721D1*
Y2467721D1*
Y2464721D1*
Y2461721D1*
Y2458721D1*
Y2455721D1*
Y2452721D1*
Y2449721D1*
Y2446721D1*
Y2443721D1*
Y2440721D1*
Y2437721D1*
Y2434721D1*
Y2431721D1*
Y2428721D1*
Y2425721D1*
Y2422721D1*
Y2419721D1*
Y2416721D1*
Y2413721D1*
Y2410721D1*
Y2407721D1*
X1359878Y2536721D2*
Y2533721D1*
Y2530721D1*
Y2527721D1*
Y2524721D1*
Y2521721D1*
Y2518721D1*
Y2515721D1*
Y2512721D1*
Y2509721D1*
Y2506721D1*
Y2503721D1*
Y2500721D1*
Y2497721D1*
Y2494721D1*
Y2491721D1*
Y2488721D1*
X1395878Y2536721D2*
Y2533721D1*
Y2530721D1*
Y2527721D1*
Y2524721D1*
X1368878D1*
Y2521721D1*
Y2518721D1*
Y2515721D1*
X1392878D1*
Y2512721D1*
Y2509721D1*
Y2506721D1*
X1368878D1*
Y2503721D1*
Y2500721D1*
Y2497721D1*
X1395878D1*
Y2494721D1*
Y2491721D1*
Y2488721D1*
X1401878Y2536721D2*
Y2533721D1*
Y2530721D1*
Y2527721D1*
Y2524721D1*
Y2521721D1*
Y2518721D1*
Y2515721D1*
Y2512721D1*
Y2509721D1*
Y2506721D1*
Y2503721D1*
Y2500721D1*
Y2497721D1*
Y2494721D1*
Y2491721D1*
Y2488721D1*
X1428878Y2536721D2*
X1433252Y2533721D1*
X1436996Y2530721D1*
X1439933Y2527721D1*
X1442237Y2524721D1*
X1443081Y2521721D1*
X1443539Y2518721D1*
X1443745Y2515721D1*
X1443829Y2512721D1*
X1443849Y2509721D1*
X1443755Y2506721D1*
X1443365Y2503721D1*
X1442531Y2500721D1*
X1441263Y2497721D1*
X1439531Y2494721D1*
X1437318Y2491721D1*
X1434878Y2488721D1*
X1449878Y2536721D2*
Y2533721D1*
Y2530721D1*
Y2527721D1*
Y2524721D1*
Y2521721D1*
Y2518721D1*
Y2515721D1*
Y2512721D1*
Y2509721D1*
Y2506721D1*
X1449890Y2503721D1*
X1450007Y2500721D1*
X1450519Y2497721D1*
X1451490Y2494721D1*
X1454208Y2491721D1*
X1457789Y2488721D1*
X1461878Y2485721D1*
X1458878Y2536721D2*
Y2533721D1*
Y2530721D1*
Y2527721D1*
Y2524721D1*
Y2521721D1*
Y2518721D1*
Y2515721D1*
X1458890Y2512721D1*
X1458996Y2509721D1*
X1459380Y2506721D1*
X1460124Y2503721D1*
X1461017Y2500721D1*
X1461878Y2497721D1*
X1479878Y2536721D2*
Y2533721D1*
Y2530721D1*
Y2527721D1*
Y2524721D1*
Y2521721D1*
Y2518721D1*
X1479867Y2515721D1*
X1479761Y2512721D1*
X1479367Y2509721D1*
X1478534Y2506721D1*
X1477294Y2503721D1*
X1475699Y2500721D1*
X1473878Y2497721D1*
X1488878Y2536721D2*
Y2533721D1*
Y2530721D1*
Y2527721D1*
Y2524721D1*
Y2521721D1*
Y2518721D1*
Y2515721D1*
Y2512721D1*
Y2509721D1*
Y2506721D1*
X1488867Y2503721D1*
X1488750Y2500721D1*
X1488238Y2497721D1*
X1487267Y2494721D1*
X1484549Y2491721D1*
X1480968Y2488721D1*
X1476878Y2485721D1*
X1506878Y2536721D2*
X1502969Y2533721D1*
X1499968Y2530721D1*
X1497809Y2527721D1*
X1496359Y2524721D1*
X1495546Y2521721D1*
X1495155Y2518721D1*
X1494985Y2515721D1*
X1494918Y2512721D1*
X1494892Y2509721D1*
X1494895Y2506721D1*
X1494997Y2503721D1*
X1495402Y2500721D1*
X1496354Y2497721D1*
X1497763Y2494721D1*
X1500972Y2491721D1*
X1505170Y2488721D1*
X1509878Y2485721D1*
X1524878Y2536721D2*
X1529137Y2533721D1*
X1532497Y2530721D1*
X1535094Y2527721D1*
X1536019Y2524721D1*
X1536541Y2521721D1*
X1536878Y2518721D1*
X1557878Y2536721D2*
X1556379Y2533721D1*
X1555122Y2530721D1*
X1553861Y2527721D1*
X1552516Y2524721D1*
X1551184Y2521721D1*
X1550002Y2518721D1*
X1548958Y2515721D1*
X1547893Y2512721D1*
X1546870Y2509721D1*
X1545892Y2506721D1*
X1544767Y2503721D1*
X1543480Y2500721D1*
X1542182Y2497721D1*
X1541106Y2494721D1*
X1540397Y2491721D1*
X1539878Y2488721D1*
X1569878Y2536721D2*
X1570916Y2533721D1*
X1571914Y2530721D1*
X1572865Y2527721D1*
X1573889Y2524721D1*
X1574896Y2521721D1*
X1575868Y2518721D1*
X1576991Y2515721D1*
X1578277Y2512721D1*
X1579586Y2509721D1*
X1580760Y2506721D1*
X1581800Y2503721D1*
X1582864Y2500721D1*
X1583896Y2497721D1*
X1584945Y2494721D1*
X1586288Y2491721D1*
X1587878Y2488721D1*
X1581878Y2536721D2*
Y2533721D1*
Y2530721D1*
Y2527721D1*
Y2524721D1*
X1596878D1*
Y2521721D1*
Y2518721D1*
Y2515721D1*
Y2512721D1*
Y2509721D1*
Y2506721D1*
Y2503721D1*
Y2500721D1*
Y2497721D1*
Y2494721D1*
Y2491721D1*
Y2488721D1*
X1632878Y2536721D2*
Y2533721D1*
Y2530721D1*
Y2527721D1*
Y2524721D1*
Y2521721D1*
Y2518721D1*
Y2515721D1*
Y2512721D1*
Y2509721D1*
Y2506721D1*
Y2503721D1*
Y2500721D1*
Y2497721D1*
Y2494721D1*
Y2491721D1*
Y2488721D1*
X1650878Y2536721D2*
X1646969Y2533721D1*
X1643968Y2530721D1*
X1641809Y2527721D1*
X1640359Y2524721D1*
X1639546Y2521721D1*
X1639155Y2518721D1*
X1638985Y2515721D1*
X1638918Y2512721D1*
X1638892Y2509721D1*
X1638895Y2506721D1*
X1639009Y2503721D1*
X1639507Y2500721D1*
X1640737Y2497721D1*
X1642838Y2494721D1*
X1645811Y2491721D1*
X1649618Y2488721D1*
X1653878Y2485721D1*
X1674878Y2536721D2*
X1677755Y2533721D1*
X1680290Y2530721D1*
X1682263Y2527721D1*
X1683878Y2524721D1*
X1689878Y2536721D2*
Y2533721D1*
Y2530721D1*
Y2527721D1*
Y2524721D1*
X1701878Y2536721D2*
X1703739Y2533721D1*
X1705461Y2530721D1*
X1707162Y2527721D1*
X1708993Y2524721D1*
X1710943Y2521721D1*
X1712778Y2518721D1*
X1714389Y2515721D1*
X1715733Y2512721D1*
X1716878Y2509721D1*
X1722878Y2536721D2*
Y2533721D1*
Y2530721D1*
Y2527721D1*
Y2524721D1*
Y2521721D1*
Y2518721D1*
Y2515721D1*
Y2512721D1*
Y2509721D1*
X1731878Y2536721D2*
Y2533721D1*
Y2530721D1*
Y2527721D1*
Y2524721D1*
Y2521721D1*
Y2518721D1*
Y2515721D1*
Y2512721D1*
Y2509721D1*
Y2506721D1*
Y2503721D1*
Y2500721D1*
Y2497721D1*
Y2494721D1*
Y2491721D1*
Y2488721D1*
X930878Y2536721D2*
X910732Y2533721D1*
X892098Y2530721D1*
X876042Y2527721D1*
X862864Y2524721D1*
X852161Y2521721D1*
X843383Y2518721D1*
X835971Y2515721D1*
X829428Y2512721D1*
X823553Y2509721D1*
X818284Y2506721D1*
X813514Y2503721D1*
X809254Y2500721D1*
X805620Y2497721D1*
X802639Y2494721D1*
X800210Y2491721D1*
X798032Y2488721D1*
X796042Y2485721D1*
X794341Y2482721D1*
X793817Y2479721D1*
X794446Y2476721D1*
X795478Y2473721D1*
X796775Y2470721D1*
X798297Y2467721D1*
X800156Y2464721D1*
X802471Y2461721D1*
X805128Y2458721D1*
X807976Y2455721D1*
X810926Y2452721D1*
X814008Y2449721D1*
X817394Y2446721D1*
X821227Y2443721D1*
X825495Y2440721D1*
X830235Y2437721D1*
X835512Y2434721D1*
X841256Y2431721D1*
X847491Y2428721D1*
X854274Y2425721D1*
X861636Y2422721D1*
X869880Y2419721D1*
X879489Y2416721D1*
X890788Y2413721D1*
X904443Y2410721D1*
X921867Y2407721D1*
X944289Y2404721D1*
X971109Y2401721D1*
X999878Y2398721D1*
X1851878Y2533721D2*
X1850379Y2530721D1*
X1849145Y2527721D1*
X1848095Y2524721D1*
X1847255Y2521721D1*
X1847693Y2518721D1*
X1848705Y2515721D1*
X1850309Y2512721D1*
X1852404Y2509721D1*
X1854522Y2506721D1*
X1856137Y2503721D1*
X1857083Y2500721D1*
X1857548Y2497721D1*
X1857750Y2494721D1*
X1857831Y2491721D1*
X1857862Y2488721D1*
X1857873Y2485721D1*
X1857877Y2482721D1*
X1857878Y2479721D1*
Y2476721D1*
Y2473721D1*
Y2470721D1*
Y2467721D1*
Y2464721D1*
Y2461721D1*
Y2458721D1*
Y2455721D1*
Y2452721D1*
Y2449721D1*
Y2446721D1*
X1869878Y2533721D2*
X1872289Y2530721D1*
X1874043Y2527721D1*
X1875048Y2524721D1*
X1875524Y2521721D1*
X1875617Y2518721D1*
X1875202Y2515721D1*
X1874027Y2512721D1*
X1872168Y2509721D1*
X1870160Y2506721D1*
X1868581Y2503721D1*
X1867586Y2500721D1*
X1866878Y2497721D1*
X1905878Y2533721D2*
X1904030Y2530721D1*
X1902425Y2527721D1*
X1901224Y2524721D1*
X1900610Y2521721D1*
X1900659Y2518721D1*
X1901443Y2515721D1*
X1903019Y2512721D1*
X1905338Y2509721D1*
X1907864Y2506721D1*
X1909804Y2503721D1*
X1910935Y2500721D1*
X1911488Y2497721D1*
X1911728Y2494721D1*
X1911823Y2491721D1*
X1911859Y2488721D1*
X1911872Y2485721D1*
X1911853Y2482721D1*
X1911632Y2479721D1*
X1911105Y2476721D1*
X1908903Y2473721D1*
X1906080Y2470721D1*
X1903028Y2467721D1*
X1899949Y2464721D1*
X1896878Y2461721D1*
X1923878Y2533721D2*
X1926289Y2530721D1*
X1928043Y2527721D1*
X1929048Y2524721D1*
X1929524Y2521721D1*
X1929605Y2518721D1*
X1929395Y2515721D1*
X1927605Y2512721D1*
X1924969Y2509721D1*
X1922179Y2506721D1*
X1919760Y2503721D1*
X1918794Y2500721D1*
X1918269Y2497721D1*
X1918032Y2494721D1*
X1917935Y2491721D1*
X1917898Y2488721D1*
X1917885Y2485721D1*
X1917881Y2482721D1*
X1917879Y2479721D1*
X1917867Y2476721D1*
X1917750Y2473721D1*
X1917250Y2470721D1*
X1916020Y2467721D1*
X1913928Y2464721D1*
X1911035Y2461721D1*
X1907528Y2458721D1*
X1903843Y2455721D1*
X1900363Y2452721D1*
X1897213Y2449721D1*
X1894589Y2446721D1*
X1892756Y2443721D1*
X1891723Y2440721D1*
X1891226Y2437721D1*
X1891012Y2434721D1*
X1890927Y2431721D1*
X1890896Y2428721D1*
X1890884Y2425721D1*
X1890880Y2422721D1*
X1890879Y2419721D1*
Y2416721D1*
Y2413721D1*
X1890878Y2410721D1*
X822878Y2533721D2*
X819878Y2530721D1*
X816878Y2527721D1*
X825878Y2530721D2*
X822878Y2527721D1*
X975878D2*
X974494Y2524721D1*
X973620Y2521721D1*
X973079Y2518721D1*
X972503Y2515721D1*
X971706Y2512721D1*
X970908Y2509721D1*
X970362Y2506721D1*
X969975Y2503721D1*
X969464Y2500721D1*
X968692Y2497721D1*
X967903Y2494721D1*
X967372Y2491721D1*
X967079Y2488721D1*
X966846Y2485721D1*
X966411Y2482721D1*
X965672Y2479721D1*
X964895Y2476721D1*
X964358Y2473721D1*
X963973Y2470721D1*
X963463Y2467721D1*
X962692Y2464721D1*
X961903Y2461721D1*
X961360Y2458721D1*
X960974Y2455721D1*
X960464Y2452721D1*
X959692Y2449721D1*
X958903Y2446721D1*
X958372Y2443721D1*
X958079Y2440721D1*
X957846Y2437721D1*
X957411Y2434721D1*
X956671Y2431721D1*
X955887Y2428721D1*
X955316Y2425721D1*
X954878Y2422721D1*
X1011878Y2527721D2*
X1010853Y2524721D1*
X1009960Y2521721D1*
X1009380Y2518721D1*
X1008980Y2515721D1*
X1008465Y2512721D1*
X1007693Y2509721D1*
X1006903Y2506721D1*
X1006372Y2503721D1*
X1006079Y2500721D1*
X1005846Y2497721D1*
X1005411Y2494721D1*
X1004672Y2491721D1*
X1003895Y2488721D1*
X1003358Y2485721D1*
X1002973Y2482721D1*
X1002463Y2479721D1*
X1001692Y2476721D1*
X1000903Y2473721D1*
X1000360Y2470721D1*
X999974Y2467721D1*
X999464Y2464721D1*
X998692Y2461721D1*
X997903Y2458721D1*
X997372Y2455721D1*
X997079Y2452721D1*
X996846Y2449721D1*
X996411Y2446721D1*
X995672Y2443721D1*
X994895Y2440721D1*
X994358Y2437721D1*
X993973Y2434721D1*
X993461Y2431721D1*
X992664Y2428721D1*
X991751Y2425721D1*
X990878Y2422721D1*
X1029878Y2527721D2*
X1028853Y2524721D1*
X1027960Y2521721D1*
X1027380Y2518721D1*
X1026980Y2515721D1*
X1026465Y2512721D1*
X1025693Y2509721D1*
X1024903Y2506721D1*
X1024372Y2503721D1*
X1024079Y2500721D1*
X1023846Y2497721D1*
X1023411Y2494721D1*
X1022672Y2491721D1*
X1021895Y2488721D1*
X1021358Y2485721D1*
X1020973Y2482721D1*
X1020463Y2479721D1*
X1019692Y2476721D1*
X1018903Y2473721D1*
X1018372Y2470721D1*
X1018079Y2467721D1*
X1017846Y2464721D1*
X1017411Y2461721D1*
X1016672Y2458721D1*
X1015895Y2455721D1*
X1015358Y2452721D1*
X1014973Y2449721D1*
X1014463Y2446721D1*
X1013692Y2443721D1*
X1012903Y2440721D1*
X1012360Y2437721D1*
X1011974Y2434721D1*
X1011461Y2431721D1*
X1010665Y2428721D1*
X1009751Y2425721D1*
X1008878Y2422721D1*
X1083878Y2527721D2*
X1096665Y2524721D1*
X1106366Y2521721D1*
X1112933Y2518721D1*
X1117665Y2515721D1*
X1119836Y2512721D1*
X1121345Y2509721D1*
X1122189Y2506721D1*
X1122595Y2503721D1*
X1122769Y2500721D1*
X1122838Y2497721D1*
X1122853Y2494721D1*
X1122757Y2491721D1*
X1122377Y2488721D1*
X1121648Y2485721D1*
X1120762Y2482721D1*
X1119751Y2479721D1*
X1118361Y2476721D1*
X1116617Y2473721D1*
X1114655Y2470721D1*
X1112116Y2467721D1*
X1108498Y2464721D1*
X1103822Y2461721D1*
X1098478Y2458721D1*
X1092878Y2455721D1*
X1176878Y2527721D2*
X1169620Y2524721D1*
X1163260Y2521721D1*
X1158042Y2518721D1*
X1153836Y2515721D1*
X1150280Y2512721D1*
X1147145Y2509721D1*
X1144432Y2506721D1*
X1142127Y2503721D1*
X1139989Y2500721D1*
X1137902Y2497721D1*
X1136015Y2494721D1*
X1134410Y2491721D1*
X1133192Y2488721D1*
X1132372Y2485721D1*
X1131635Y2482721D1*
X1130760Y2479721D1*
X1129928Y2476721D1*
X1129381Y2473721D1*
X1129094Y2470721D1*
X1128964Y2467721D1*
X1128910Y2464721D1*
X1128890Y2461721D1*
X1128882Y2458721D1*
X1128892Y2455721D1*
X1128996Y2452721D1*
X1129390Y2449721D1*
X1130214Y2446721D1*
X1131377Y2443721D1*
X1132736Y2440721D1*
X1134294Y2437721D1*
X1136268Y2434721D1*
X1138992Y2431721D1*
X1142598Y2428721D1*
X1147150Y2425721D1*
X1152707Y2422721D1*
X1158878Y2419721D1*
X1215878Y2527721D2*
X1222100Y2524721D1*
X1227462Y2521721D1*
X1231716Y2518721D1*
X1234793Y2515721D1*
X1236971Y2512721D1*
X1238522Y2509721D1*
X1239713Y2506721D1*
X1240822Y2503721D1*
X1241759Y2500721D1*
X1242350Y2497721D1*
X1242653Y2494721D1*
X1242790Y2491721D1*
X1242847Y2488721D1*
X1242878Y2485721D1*
X1410878Y2527721D2*
Y2524721D1*
Y2521721D1*
Y2518721D1*
Y2515721D1*
Y2512721D1*
Y2509721D1*
Y2506721D1*
Y2503721D1*
Y2500721D1*
Y2497721D1*
X1425878Y2527721D2*
X1428301Y2524721D1*
X1430170Y2521721D1*
X1431641Y2518721D1*
X1433177Y2515721D1*
X1434878Y2512721D1*
X1433356Y2509721D1*
X1431879Y2506721D1*
X1429771Y2503721D1*
X1426626Y2500721D1*
X1422878Y2497721D1*
X1512878Y2527721D2*
X1510354Y2524721D1*
X1508215Y2521721D1*
X1506491Y2518721D1*
X1505246Y2515721D1*
X1504618Y2512721D1*
X1504650Y2509721D1*
X1505324Y2506721D1*
X1506501Y2503721D1*
X1508070Y2500721D1*
X1509878Y2497721D1*
X1524878Y2527721D2*
X1525430Y2524721D1*
X1526483Y2521721D1*
X1527878Y2518721D1*
X1605878Y2527721D2*
Y2524721D1*
Y2521721D1*
Y2518721D1*
Y2515721D1*
Y2512721D1*
Y2509721D1*
Y2506721D1*
Y2503721D1*
Y2500721D1*
Y2497721D1*
Y2494721D1*
Y2491721D1*
Y2488721D1*
X1623878Y2527721D2*
Y2524721D1*
Y2521721D1*
Y2518721D1*
Y2515721D1*
Y2512721D1*
Y2509721D1*
Y2506721D1*
Y2503721D1*
Y2500721D1*
Y2497721D1*
Y2494721D1*
Y2491721D1*
Y2488721D1*
X1656878Y2527721D2*
X1654354Y2524721D1*
X1652215Y2521721D1*
X1650491Y2518721D1*
X1649246Y2515721D1*
X1648618Y2512721D1*
X1648661Y2509721D1*
X1649450Y2506721D1*
X1651090Y2503721D1*
X1653685Y2500721D1*
X1656878Y2497721D1*
X1665878Y2527721D2*
X1668753Y2524721D1*
X1671251Y2521721D1*
X1673032Y2518721D1*
X1674045Y2515721D1*
X1674523Y2512721D1*
X1674617Y2509721D1*
X1674202Y2506721D1*
X1673026Y2503721D1*
X1671119Y2500721D1*
X1668878Y2497721D1*
X1860878Y2527721D2*
X1858430Y2524721D1*
X1856483Y2521721D1*
X1854878Y2518721D1*
X1863878Y2527721D2*
X1866327Y2524721D1*
X1868274Y2521721D1*
X1869878Y2518721D1*
X1908878Y2527721D2*
X1909002Y2524721D1*
X1909467Y2521721D1*
X1910493Y2518721D1*
X1911878Y2515721D1*
X1920878Y2527721D2*
X1920755Y2524721D1*
X1920290Y2521721D1*
X1919263Y2518721D1*
X1917878Y2515721D1*
X810878Y2524721D2*
X807878Y2521721D1*
X804878Y2518721D1*
X816878Y2524721D2*
X813878Y2521721D1*
X810878Y2518721D1*
X1563878D2*
X1561430Y2515721D1*
X1559483Y2512721D1*
X1557878Y2509721D1*
X1566878Y2518721D2*
Y2515721D1*
Y2512721D1*
Y2509721D1*
X801878Y2512721D2*
X798878Y2509721D1*
X795878Y2506721D1*
X807878Y2512721D2*
X804878Y2509721D1*
X801878Y2506721D1*
X1701878Y2512721D2*
Y2509721D1*
Y2506721D1*
Y2503721D1*
Y2500721D1*
Y2497721D1*
Y2494721D1*
Y2491721D1*
Y2488721D1*
X1707878Y2512721D2*
X1708354Y2509721D1*
X1709215Y2506721D1*
X1710479Y2503721D1*
X1712117Y2500721D1*
X1713999Y2497721D1*
X1715892Y2494721D1*
X1717835Y2491721D1*
X1719878Y2488721D1*
X1878878Y2506721D2*
X1876430Y2503721D1*
X1874483Y2500721D1*
X1872878Y2497721D1*
X1890878Y2506721D2*
X1894674Y2503721D1*
X1897727Y2500721D1*
X1898840Y2497721D1*
X1899438Y2494721D1*
X1899695Y2491721D1*
X1899675Y2488721D1*
X1899410Y2485721D1*
X1897726Y2482721D1*
X1895471Y2479721D1*
X1893397Y2476721D1*
X1892070Y2473721D1*
X1891386Y2470721D1*
X1891078Y2467721D1*
X1890949Y2464721D1*
X1890878Y2461721D1*
X1527878Y2503721D2*
X1524878Y2500721D1*
X1521878Y2497721D1*
X1536878Y2503721D2*
X1536403Y2500721D1*
X1535530Y2497721D1*
X1534141Y2494721D1*
X1531942Y2491721D1*
X1528703Y2488721D1*
X1524878Y2485721D1*
X1827878Y2503721D2*
X1824645Y2500721D1*
X1822178Y2497721D1*
X1820529Y2494721D1*
X1819629Y2491721D1*
X1819311Y2488721D1*
X1819359Y2485721D1*
X1820804Y2482721D1*
X1823080Y2479721D1*
X1825813Y2476721D1*
X1828153Y2473721D1*
X1829604Y2470721D1*
X1830340Y2467721D1*
X1830667Y2464721D1*
X1830812Y2461721D1*
X1830980Y2458721D1*
X1831497Y2455721D1*
X1832722Y2452721D1*
X1834711Y2449721D1*
X1837234Y2446721D1*
X1840128Y2443721D1*
X1843426Y2440721D1*
X1847102Y2437721D1*
X1850743Y2434721D1*
X1853762Y2431721D1*
X1856163Y2428721D1*
X1857050Y2425721D1*
X1857553Y2422721D1*
X1857878Y2419721D1*
X1839878Y2503721D2*
X1842753Y2500721D1*
X1845251Y2497721D1*
X1847021Y2494721D1*
X1848203Y2491721D1*
X1848092Y2488721D1*
X1847404Y2485721D1*
X1846113Y2482721D1*
X1844135Y2479721D1*
X1841661Y2476721D1*
X1839476Y2473721D1*
X1838100Y2470721D1*
X1837420Y2467721D1*
X1837328Y2464721D1*
X1837694Y2461721D1*
X1839873Y2458721D1*
X1842684Y2455721D1*
X1845731Y2452721D1*
X1848809Y2449721D1*
X1851878Y2446721D1*
X1938878Y2503721D2*
X1935645Y2500721D1*
X1933178Y2497721D1*
X1931529Y2494721D1*
X1930629Y2491721D1*
X1930311Y2488721D1*
X1930359Y2485721D1*
X1931690Y2482721D1*
X1933582Y2479721D1*
X1935595Y2476721D1*
X1937165Y2473721D1*
X1938094Y2470721D1*
X1938552Y2467721D1*
X1938752Y2464721D1*
X1938820Y2461721D1*
X1938721Y2458721D1*
X1938419Y2455721D1*
X1936604Y2452721D1*
X1933856Y2449721D1*
X1930680Y2446721D1*
X1927865Y2443721D1*
X1925568Y2440721D1*
X1924699Y2437721D1*
X1924228Y2434721D1*
X1924015Y2431721D1*
X1923917Y2428721D1*
X1923756Y2425721D1*
X1923424Y2422721D1*
X1921811Y2419721D1*
X1917199Y2416721D1*
X1910618Y2413721D1*
X1902878Y2410721D1*
X1947878Y2503721D2*
X1951788Y2500721D1*
X1954789Y2497721D1*
X1956937Y2494721D1*
X1958588Y2491721D1*
X1958776Y2488721D1*
X1958263Y2485721D1*
X1957055Y2482721D1*
X1955113Y2479721D1*
X1952653Y2476721D1*
X1950473Y2473721D1*
X1949099Y2470721D1*
X1948396Y2467721D1*
X1948082Y2464721D1*
X1947954Y2461721D1*
X1947894Y2458721D1*
X1947759Y2455721D1*
X1947253Y2452721D1*
X1946033Y2449721D1*
X1944045Y2446721D1*
X1941535Y2443721D1*
X1938758Y2440721D1*
X1935959Y2437721D1*
X1933489Y2434721D1*
X1931708Y2431721D1*
X1930630Y2428721D1*
X1929878Y2425721D1*
X792878Y2503721D2*
Y2500721D1*
Y2497721D1*
X798878Y2503721D2*
Y2500721D1*
Y2497721D1*
X1191878Y2503721D2*
X1186468Y2500721D1*
X1181725Y2497721D1*
X1177826Y2494721D1*
X1174733Y2491721D1*
X1172358Y2488721D1*
X1170531Y2485721D1*
X1169135Y2482721D1*
X1168007Y2479721D1*
X1166922Y2476721D1*
X1165993Y2473721D1*
X1165406Y2470721D1*
X1165103Y2467721D1*
X1164979Y2464721D1*
X1165040Y2461721D1*
X1165530Y2458721D1*
X1166492Y2455721D1*
X1169209Y2452721D1*
X1172789Y2449721D1*
X1176878Y2446721D1*
X1197878Y2503721D2*
X1200753Y2500721D1*
X1203251Y2497721D1*
X1205032Y2494721D1*
X1206048Y2491721D1*
X1206561Y2488721D1*
X1206878Y2485721D1*
X1683878Y2503721D2*
X1683403Y2500721D1*
X1682519Y2497721D1*
X1681015Y2494721D1*
X1678917Y2491721D1*
X1674229Y2488721D1*
X1668878Y2485721D1*
X1689878Y2503721D2*
Y2500721D1*
Y2497721D1*
Y2494721D1*
Y2491721D1*
Y2488721D1*
X1059878Y2500721D2*
X1059867Y2497721D1*
X1059761Y2494721D1*
X1059377Y2491721D1*
X1058633Y2488721D1*
X1057740Y2485721D1*
X1056878Y2482721D1*
X1080878Y2500721D2*
X1083878Y2497721D1*
X1086878Y2494721D1*
X1089878Y2491721D1*
X1087931Y2488721D1*
X1085951Y2485721D1*
X1083878Y2482721D1*
X1551878Y2497721D2*
Y2494721D1*
Y2491721D1*
Y2488721D1*
X1572878Y2497721D2*
X1573430Y2494721D1*
X1574483Y2491721D1*
X1575878Y2488721D1*
X1878878Y2497721D2*
X1879430Y2494721D1*
X1880483Y2491721D1*
X1881878Y2488721D1*
X1887878Y2497721D2*
X1890878Y2494721D1*
X1893878Y2491721D1*
X1890878Y2488721D1*
X1830878Y2494721D2*
X1827878Y2491721D1*
X1824878Y2488721D1*
X1827878Y2485721D1*
X1839878Y2494721D2*
Y2491721D1*
Y2488721D1*
Y2485721D1*
X1941878Y2494721D2*
X1938878Y2491721D1*
X1935878Y2488721D1*
X1938878Y2485721D1*
X1950878Y2494721D2*
X1950327Y2491721D1*
X1949274Y2488721D1*
X1947878Y2485721D1*
X1866878Y2488721D2*
Y2485721D1*
Y2482721D1*
Y2479721D1*
Y2476721D1*
Y2473721D1*
Y2470721D1*
Y2467721D1*
Y2464721D1*
Y2461721D1*
Y2458721D1*
Y2455721D1*
Y2452721D1*
Y2449721D1*
Y2446721D1*
Y2443721D1*
Y2440721D1*
Y2437721D1*
Y2434721D1*
Y2431721D1*
Y2428721D1*
Y2425721D1*
Y2422721D1*
Y2419721D1*
Y2416721D1*
Y2413721D1*
Y2410721D1*
Y2407721D1*
Y2404721D1*
X1872878Y2488721D2*
X1873571Y2485721D1*
X1875083Y2482721D1*
X1877298Y2479721D1*
X1879362Y2476721D1*
X1880688Y2473721D1*
X1881372Y2470721D1*
X1881679Y2467721D1*
X1881804Y2464721D1*
X1881852Y2461721D1*
X1881869Y2458721D1*
X1881875Y2455721D1*
X1881878Y2452721D1*
Y2449721D1*
Y2446721D1*
Y2443721D1*
Y2440721D1*
Y2437721D1*
Y2434721D1*
Y2431721D1*
Y2428721D1*
Y2425721D1*
Y2422721D1*
Y2419721D1*
Y2416721D1*
Y2413721D1*
Y2410721D1*
Y2407721D1*
Y2404721D1*
Y2401721D1*
X1356878Y2467721D2*
Y2464721D1*
Y2461721D1*
Y2458721D1*
Y2455721D1*
Y2452721D1*
Y2449721D1*
Y2446721D1*
Y2443721D1*
Y2440721D1*
Y2437721D1*
Y2434721D1*
Y2431721D1*
Y2428721D1*
Y2425721D1*
Y2422721D1*
Y2419721D1*
X1392878Y2467721D2*
Y2464721D1*
Y2461721D1*
Y2458721D1*
Y2455721D1*
X1368878D1*
Y2452721D1*
Y2449721D1*
Y2446721D1*
X1389878D1*
Y2443721D1*
Y2440721D1*
Y2437721D1*
Y2434721D1*
X1368878D1*
Y2431721D1*
Y2428721D1*
Y2425721D1*
Y2422721D1*
Y2419721D1*
X1407878Y2467721D2*
X1404993Y2464721D1*
X1402389Y2461721D1*
X1400225Y2458721D1*
X1398494Y2455721D1*
X1397235Y2452721D1*
X1396501Y2449721D1*
X1396138Y2446721D1*
X1395980Y2443721D1*
X1395927Y2440721D1*
X1396009Y2437721D1*
X1396394Y2434721D1*
X1397227Y2431721D1*
X1398518Y2428721D1*
X1400487Y2425721D1*
X1403677Y2422721D1*
X1408348Y2419721D1*
X1413878Y2416721D1*
X1431878Y2467721D2*
X1434764Y2464721D1*
X1437368Y2461721D1*
X1439532Y2458721D1*
X1441263Y2455721D1*
X1442522Y2452721D1*
X1443256Y2449721D1*
X1443619Y2446721D1*
X1443777Y2443721D1*
X1443829Y2440721D1*
X1443748Y2437721D1*
X1443363Y2434721D1*
X1442530Y2431721D1*
X1441239Y2428721D1*
X1439270Y2425721D1*
X1436080Y2422721D1*
X1431409Y2419721D1*
X1425878Y2416721D1*
X1449878Y2467721D2*
Y2464721D1*
Y2461721D1*
Y2458721D1*
Y2455721D1*
Y2452721D1*
Y2449721D1*
Y2446721D1*
Y2443721D1*
Y2440721D1*
Y2437721D1*
X1449890Y2434721D1*
X1450007Y2431721D1*
X1450519Y2428721D1*
X1451490Y2425721D1*
X1454208Y2422721D1*
X1457789Y2419721D1*
X1461878Y2416721D1*
X1458878Y2467721D2*
Y2464721D1*
Y2461721D1*
Y2458721D1*
Y2455721D1*
Y2452721D1*
Y2449721D1*
Y2446721D1*
X1458890Y2443721D1*
X1459007Y2440721D1*
X1459506Y2437721D1*
X1460714Y2434721D1*
X1462632Y2431721D1*
X1464878Y2428721D1*
X1476878Y2467721D2*
Y2464721D1*
Y2461721D1*
Y2458721D1*
Y2455721D1*
Y2452721D1*
Y2449721D1*
Y2446721D1*
Y2443721D1*
X1476867Y2440721D1*
X1476753Y2437721D1*
X1476289Y2434721D1*
X1475263Y2431721D1*
X1473878Y2428721D1*
X1488878Y2467721D2*
Y2464721D1*
Y2461721D1*
Y2458721D1*
Y2455721D1*
Y2452721D1*
Y2449721D1*
Y2446721D1*
Y2443721D1*
Y2440721D1*
X1488867Y2437721D1*
X1488761Y2434721D1*
X1488367Y2431721D1*
X1487520Y2428721D1*
X1486137Y2425721D1*
X1483941Y2422721D1*
X1480703Y2419721D1*
X1476878Y2416721D1*
X1494878Y2467721D2*
Y2464721D1*
Y2461721D1*
Y2458721D1*
Y2455721D1*
Y2452721D1*
Y2449721D1*
Y2446721D1*
Y2443721D1*
Y2440721D1*
Y2437721D1*
Y2434721D1*
Y2431721D1*
Y2428721D1*
Y2425721D1*
Y2422721D1*
Y2419721D1*
X1506878Y2467721D2*
X1508739Y2464721D1*
X1510461Y2461721D1*
X1512162Y2458721D1*
X1513993Y2455721D1*
X1515943Y2452721D1*
X1517778Y2449721D1*
X1519389Y2446721D1*
X1520733Y2443721D1*
X1521878Y2440721D1*
X1527878Y2467721D2*
Y2464721D1*
Y2461721D1*
Y2458721D1*
Y2455721D1*
Y2452721D1*
Y2449721D1*
Y2446721D1*
Y2443721D1*
Y2440721D1*
X1536878Y2467721D2*
Y2464721D1*
Y2461721D1*
Y2458721D1*
Y2455721D1*
Y2452721D1*
Y2449721D1*
Y2446721D1*
Y2443721D1*
Y2440721D1*
Y2437721D1*
Y2434721D1*
Y2431721D1*
Y2428721D1*
Y2425721D1*
Y2422721D1*
Y2419721D1*
X1542878Y2467721D2*
Y2464721D1*
Y2461721D1*
Y2458721D1*
Y2455721D1*
Y2452721D1*
Y2449721D1*
Y2446721D1*
Y2443721D1*
Y2440721D1*
Y2437721D1*
Y2434721D1*
Y2431721D1*
Y2428721D1*
Y2425721D1*
Y2422721D1*
Y2419721D1*
X1572878Y2467721D2*
X1576788Y2464721D1*
X1579789Y2461721D1*
X1581948Y2458721D1*
X1583398Y2455721D1*
X1584211Y2452721D1*
X1584602Y2449721D1*
X1584772Y2446721D1*
X1584839Y2443721D1*
X1584853Y2440721D1*
X1584757Y2437721D1*
X1584366Y2434721D1*
X1583531Y2431721D1*
X1582263Y2428721D1*
X1580531Y2425721D1*
X1578318Y2422721D1*
X1575878Y2419721D1*
X1602878Y2467721D2*
X1602403Y2464721D1*
X1601554Y2461721D1*
X1600395Y2458721D1*
X1599139Y2455721D1*
X1597986Y2452721D1*
X1596953Y2449721D1*
X1595892Y2446721D1*
X1594869Y2443721D1*
X1593892Y2440721D1*
X1592767Y2437721D1*
X1591480Y2434721D1*
X1590171Y2431721D1*
X1588988Y2428721D1*
X1587864Y2425721D1*
X1586488Y2422721D1*
X1584878Y2419721D1*
X1617878Y2467721D2*
X1618342Y2464721D1*
X1619098Y2461721D1*
X1619980Y2458721D1*
X1620888Y2455721D1*
X1621897Y2452721D1*
X1622899Y2449721D1*
X1623869Y2446721D1*
X1624991Y2443721D1*
X1626277Y2440721D1*
X1627586Y2437721D1*
X1628760Y2434721D1*
X1629800Y2431721D1*
X1630853Y2428721D1*
X1631778Y2425721D1*
X1632409Y2422721D1*
X1632878Y2419721D1*
X1626878Y2467721D2*
Y2464721D1*
Y2461721D1*
Y2458721D1*
Y2455721D1*
X1641878D1*
Y2452721D1*
Y2449721D1*
Y2446721D1*
Y2443721D1*
Y2440721D1*
Y2437721D1*
Y2434721D1*
Y2431721D1*
Y2428721D1*
Y2425721D1*
Y2422721D1*
Y2419721D1*
X1680878Y2467721D2*
Y2464721D1*
Y2461721D1*
Y2458721D1*
Y2455721D1*
Y2452721D1*
X1695878Y2467721D2*
X1693004Y2464721D1*
X1690505Y2461721D1*
X1688713Y2458721D1*
X1687632Y2455721D1*
X1686878Y2452721D1*
X1719878Y2467721D2*
X1723788Y2464721D1*
X1726789Y2461721D1*
X1728948Y2458721D1*
X1730398Y2455721D1*
X1731211Y2452721D1*
X1731602Y2449721D1*
X1731772Y2446721D1*
X1731839Y2443721D1*
X1731865Y2440721D1*
X1731862Y2437721D1*
X1731748Y2434721D1*
X1731250Y2431721D1*
X1730020Y2428721D1*
X1727919Y2425721D1*
X1724946Y2422721D1*
X1721139Y2419721D1*
X1716878Y2416721D1*
X1737878Y2467721D2*
Y2464721D1*
Y2461721D1*
Y2458721D1*
Y2455721D1*
Y2452721D1*
Y2449721D1*
Y2446721D1*
Y2443721D1*
Y2440721D1*
Y2437721D1*
Y2434721D1*
Y2431721D1*
Y2428721D1*
Y2425721D1*
Y2422721D1*
Y2419721D1*
X1749878Y2467721D2*
X1751379Y2464721D1*
X1753122Y2461721D1*
X1754861Y2458721D1*
X1756514Y2455721D1*
X1758166Y2452721D1*
X1759949Y2449721D1*
X1761878Y2446721D1*
X1767878Y2467721D2*
Y2464721D1*
Y2461721D1*
Y2458721D1*
Y2455721D1*
Y2452721D1*
Y2449721D1*
Y2446721D1*
X1779878Y2467721D2*
Y2464721D1*
Y2461721D1*
Y2458721D1*
Y2455721D1*
Y2452721D1*
Y2449721D1*
Y2446721D1*
Y2443721D1*
Y2440721D1*
Y2437721D1*
Y2434721D1*
Y2431721D1*
Y2428721D1*
Y2425721D1*
Y2422721D1*
Y2419721D1*
X1203878Y2461721D2*
X1201881Y2458721D1*
X1199545Y2455721D1*
X1196189Y2452721D1*
X1191447Y2449721D1*
X1185878Y2446721D1*
X1239878Y2461721D2*
X1238379Y2458721D1*
X1237122Y2455721D1*
X1235849Y2452721D1*
X1234387Y2449721D1*
X1232568Y2446721D1*
X1230272Y2443721D1*
X1227624Y2440721D1*
X1224767Y2437721D1*
X1221713Y2434721D1*
X1218225Y2431721D1*
X1213902Y2428721D1*
X1208457Y2425721D1*
X1201945Y2422721D1*
X1194878Y2419721D1*
X1413878Y2458721D2*
X1411456Y2455721D1*
X1409587Y2452721D1*
X1408116Y2449721D1*
X1406580Y2446721D1*
X1404878Y2443721D1*
X1406389Y2440721D1*
X1407752Y2437721D1*
X1409397Y2434721D1*
X1411516Y2431721D1*
X1413878Y2428721D1*
X1425878Y2458721D2*
X1428301Y2455721D1*
X1430170Y2452721D1*
X1431641Y2449721D1*
X1433177Y2446721D1*
X1434878Y2443721D1*
X1433368Y2440721D1*
X1432005Y2437721D1*
X1430360Y2434721D1*
X1428241Y2431721D1*
X1425878Y2428721D1*
X1551878Y2458721D2*
Y2455721D1*
Y2452721D1*
Y2449721D1*
Y2446721D1*
Y2443721D1*
Y2440721D1*
Y2437721D1*
Y2434721D1*
Y2431721D1*
X1566878Y2458721D2*
X1569301Y2455721D1*
X1571170Y2452721D1*
X1572641Y2449721D1*
X1574177Y2446721D1*
X1575878Y2443721D1*
X1574370Y2440721D1*
X1573040Y2437721D1*
X1571555Y2434721D1*
X1569878Y2431721D1*
X1653878Y2458721D2*
Y2455721D1*
Y2452721D1*
Y2449721D1*
Y2446721D1*
Y2443721D1*
Y2440721D1*
Y2437721D1*
Y2434721D1*
Y2431721D1*
Y2428721D1*
Y2425721D1*
Y2422721D1*
Y2419721D1*
X1668878Y2458721D2*
Y2455721D1*
Y2452721D1*
Y2449721D1*
Y2446721D1*
Y2443721D1*
Y2440721D1*
Y2437721D1*
Y2434721D1*
Y2431721D1*
Y2428721D1*
Y2425721D1*
Y2422721D1*
Y2419721D1*
X1704878Y2458721D2*
X1702004Y2455721D1*
X1699506Y2452721D1*
X1697725Y2449721D1*
X1696712Y2446721D1*
X1696234Y2443721D1*
X1696152Y2440721D1*
X1696362Y2437721D1*
X1697847Y2434721D1*
X1701134Y2431721D1*
X1704878Y2428721D1*
X1713878Y2458721D2*
X1716753Y2455721D1*
X1719251Y2452721D1*
X1721032Y2449721D1*
X1722033Y2446721D1*
X1722417Y2443721D1*
X1722223Y2440721D1*
X1721359Y2437721D1*
X1719687Y2434721D1*
X1717079Y2431721D1*
X1713878Y2428721D1*
X1050878Y2455721D2*
Y2452721D1*
X1050867Y2449721D1*
X1050761Y2446721D1*
X1050379Y2443721D1*
X1049660Y2440721D1*
X1048891Y2437721D1*
X1048368Y2434721D1*
X1048090Y2431721D1*
X1047962Y2428721D1*
X1047908Y2425721D1*
X1047878Y2422721D1*
X1605878Y2449721D2*
Y2446721D1*
Y2443721D1*
Y2440721D1*
X1608878Y2449721D2*
X1611327Y2446721D1*
X1613274Y2443721D1*
X1614878Y2440721D1*
X1503878Y2446721D2*
Y2443721D1*
Y2440721D1*
Y2437721D1*
Y2434721D1*
Y2431721D1*
Y2428721D1*
Y2425721D1*
Y2422721D1*
Y2419721D1*
X1506878Y2446721D2*
X1509403Y2443721D1*
X1511554Y2440721D1*
X1513395Y2437721D1*
X1515139Y2434721D1*
X1516986Y2431721D1*
X1518951Y2428721D1*
X1520875Y2425721D1*
X1522829Y2422721D1*
X1524878Y2419721D1*
X1746878Y2446721D2*
Y2443721D1*
Y2440721D1*
Y2437721D1*
Y2434721D1*
Y2431721D1*
Y2428721D1*
Y2425721D1*
Y2422721D1*
Y2419721D1*
X1752878Y2446721D2*
X1753456Y2443721D1*
X1754596Y2440721D1*
X1756198Y2437721D1*
X1757886Y2434721D1*
X1759524Y2431721D1*
X1761198Y2428721D1*
X1763111Y2425721D1*
X1765398Y2422721D1*
X1767878Y2419721D1*
X1680878Y2437721D2*
Y2434721D1*
Y2431721D1*
Y2428721D1*
Y2425721D1*
Y2422721D1*
Y2419721D1*
X1686878Y2437721D2*
X1687004Y2434721D1*
X1687506Y2431721D1*
X1688736Y2428721D1*
X1690838Y2425721D1*
X1693811Y2422721D1*
X1697618Y2419721D1*
X1701878Y2416721D1*
X1599878Y2428721D2*
X1599327Y2425721D1*
X1598274Y2422721D1*
X1596878Y2419721D1*
X1620878Y2428721D2*
Y2425721D1*
Y2422721D1*
Y2419721D1*
X1041878Y2404721D2*
X1011878Y2401721D1*
X981878Y2398721D1*
X1041878Y2401721D2*
X1028359Y2398721D1*
X1011963Y2395721D1*
X993878Y2392721D1*
X636151Y2321938D2*
Y2318938D1*
Y2315938D1*
Y2312938D1*
Y2309938D1*
Y2306938D1*
Y2303938D1*
Y2300938D1*
Y2297938D1*
Y2294938D1*
Y2291938D1*
Y2288938D1*
Y2285938D1*
Y2282938D1*
Y2279938D1*
Y2276938D1*
Y2273938D1*
Y2270938D1*
Y2267938D1*
Y2264938D1*
Y2261938D1*
Y2258938D1*
Y2255938D1*
Y2252938D1*
Y2249938D1*
Y2246938D1*
Y2243938D1*
Y2240938D1*
Y2237938D1*
Y2234938D1*
Y2231938D1*
Y2228938D1*
Y2225938D1*
Y2222938D1*
Y2219938D1*
Y2216938D1*
Y2213938D1*
Y2210938D1*
Y2207938D1*
Y2204938D1*
Y2201938D1*
Y2198938D1*
Y2195938D1*
Y2192938D1*
Y2189938D1*
Y2186938D1*
Y2183938D1*
Y2180938D1*
Y2177938D1*
Y2174938D1*
Y2171938D1*
Y2168938D1*
Y2165938D1*
X1077151Y2321938D2*
Y2318938D1*
Y2315938D1*
Y2312938D1*
Y2309938D1*
Y2306938D1*
Y2303938D1*
Y2300938D1*
Y2297938D1*
Y2294938D1*
Y2291938D1*
Y2288938D1*
Y2285938D1*
Y2282938D1*
Y2279938D1*
Y2276938D1*
Y2273938D1*
Y2270938D1*
Y2267938D1*
Y2264938D1*
Y2261938D1*
Y2258938D1*
Y2255938D1*
Y2252938D1*
Y2249938D1*
Y2246938D1*
Y2243938D1*
Y2240938D1*
Y2237938D1*
Y2234938D1*
Y2231938D1*
Y2228938D1*
Y2225938D1*
Y2222938D1*
Y2219938D1*
Y2216938D1*
Y2213938D1*
Y2210938D1*
Y2207938D1*
Y2204938D1*
Y2201938D1*
Y2198938D1*
Y2195938D1*
Y2192938D1*
Y2189938D1*
Y2186938D1*
Y2183938D1*
Y2180938D1*
Y2177938D1*
Y2174938D1*
Y2171938D1*
Y2168938D1*
Y2165938D1*
X1266151Y2297938D2*
X1259356Y2294938D1*
X1253740Y2291938D1*
X1249311Y2288938D1*
X1245736Y2285938D1*
X1242841Y2282938D1*
X1240563Y2279938D1*
X1238790Y2276938D1*
X1237504Y2273938D1*
X1236659Y2270938D1*
X1235913Y2267938D1*
X1235035Y2264938D1*
X1234202Y2261938D1*
X1233654Y2258938D1*
X1233367Y2255938D1*
X1233237Y2252938D1*
X1233183Y2249938D1*
X1233163Y2246938D1*
X1233155Y2243938D1*
X1233153Y2240938D1*
X1233164Y2237938D1*
X1233269Y2234938D1*
X1233651Y2231938D1*
X1234369Y2228938D1*
X1235150Y2225938D1*
X1235779Y2222938D1*
X1236451Y2219938D1*
X1237414Y2216938D1*
X1238736Y2213938D1*
X1240497Y2210938D1*
X1242782Y2207938D1*
X1245551Y2204938D1*
X1249006Y2201938D1*
X1253613Y2198938D1*
X1259533Y2195938D1*
X1266151Y2192938D1*
X1275151Y2297938D2*
X1281935Y2294938D1*
X1287446Y2291938D1*
X1291492Y2288938D1*
X1294337Y2285938D1*
X1296369Y2282938D1*
X1297847Y2279938D1*
X1299006Y2276938D1*
X1300102Y2273938D1*
X1301035Y2270938D1*
X1301589Y2267938D1*
X1301853Y2264938D1*
X1300901Y2261938D1*
X1297426Y2258938D1*
X1293151Y2255938D1*
X690151Y2297938D2*
X684289Y2294938D1*
X678896Y2291938D1*
X674497Y2288938D1*
X671215Y2285938D1*
X668612Y2282938D1*
X666411Y2279938D1*
X664718Y2276938D1*
X663418Y2273938D1*
X662252Y2270938D1*
X661288Y2267938D1*
X660686Y2264938D1*
X660379Y2261938D1*
X660241Y2258938D1*
X660185Y2255938D1*
X660163Y2252938D1*
X660155Y2249938D1*
X660153Y2246938D1*
X660152Y2243938D1*
Y2240938D1*
X660151Y2237938D1*
Y2234938D1*
X660163Y2231938D1*
X660269Y2228938D1*
X660651Y2225938D1*
X661381Y2222938D1*
X662268Y2219938D1*
X663279Y2216938D1*
X664669Y2213938D1*
X666413Y2210938D1*
X668375Y2207938D1*
X670913Y2204938D1*
X674518Y2201938D1*
X679113Y2198938D1*
X684151Y2195938D1*
X699151Y2297938D2*
X704911Y2294938D1*
X710025Y2291938D1*
X714087Y2288938D1*
X717319Y2285938D1*
X720168Y2282938D1*
X722602Y2279938D1*
X724352Y2276938D1*
X725449Y2273938D1*
X726312Y2270938D1*
X727239Y2267938D1*
X728091Y2264938D1*
X728645Y2261938D1*
X728934Y2258938D1*
X729065Y2255938D1*
X729119Y2252938D1*
X729140Y2249938D1*
X729148Y2246938D1*
X729150Y2243938D1*
X729151Y2240938D1*
Y2237938D1*
X729140Y2234938D1*
X729034Y2231938D1*
X728652Y2228938D1*
X727933Y2225938D1*
X727153Y2222938D1*
X726512Y2219938D1*
X725734Y2216938D1*
X724401Y2213938D1*
X722455Y2210938D1*
X720189Y2207938D1*
X717614Y2204938D1*
X714264Y2201938D1*
X709946Y2198938D1*
X705151Y2195938D1*
X1101151Y2294938D2*
Y2291938D1*
Y2288938D1*
Y2285938D1*
Y2282938D1*
Y2279938D1*
Y2276938D1*
Y2273938D1*
X1119151D1*
Y2270938D1*
Y2267938D1*
Y2264938D1*
Y2261938D1*
Y2258938D1*
Y2255938D1*
Y2252938D1*
Y2249938D1*
Y2246938D1*
Y2243938D1*
Y2240938D1*
Y2237938D1*
Y2234938D1*
Y2231938D1*
Y2228938D1*
Y2225938D1*
Y2222938D1*
Y2219938D1*
Y2216938D1*
Y2213938D1*
Y2210938D1*
Y2207938D1*
Y2204938D1*
Y2201938D1*
Y2198938D1*
Y2195938D1*
X1161151Y2294938D2*
Y2291938D1*
Y2288938D1*
Y2285938D1*
Y2282938D1*
Y2279938D1*
Y2276938D1*
Y2273938D1*
X1140151D1*
Y2270938D1*
Y2267938D1*
Y2264938D1*
Y2261938D1*
Y2258938D1*
Y2255938D1*
Y2252938D1*
Y2249938D1*
Y2246938D1*
Y2243938D1*
Y2240938D1*
Y2237938D1*
Y2234938D1*
Y2231938D1*
Y2228938D1*
Y2225938D1*
Y2222938D1*
Y2219938D1*
Y2216938D1*
Y2213938D1*
Y2210938D1*
Y2207938D1*
Y2204938D1*
Y2201938D1*
Y2198938D1*
Y2195938D1*
X1167151Y2294938D2*
Y2291938D1*
Y2288938D1*
Y2285938D1*
Y2282938D1*
Y2279938D1*
Y2276938D1*
Y2273938D1*
Y2270938D1*
Y2267938D1*
Y2264938D1*
Y2261938D1*
Y2258938D1*
Y2255938D1*
Y2252938D1*
Y2249938D1*
Y2246938D1*
Y2243938D1*
Y2240938D1*
Y2237938D1*
Y2234938D1*
Y2231938D1*
Y2228938D1*
Y2225938D1*
Y2222938D1*
Y2219938D1*
Y2216938D1*
Y2213938D1*
Y2210938D1*
Y2207938D1*
Y2204938D1*
Y2201938D1*
Y2198938D1*
Y2195938D1*
X1227151Y2294938D2*
Y2291938D1*
Y2288938D1*
Y2285938D1*
Y2282938D1*
Y2279938D1*
X1317151Y2294938D2*
Y2291938D1*
Y2288938D1*
Y2285938D1*
Y2282938D1*
Y2279938D1*
Y2276938D1*
Y2273938D1*
Y2270938D1*
Y2267938D1*
Y2264938D1*
Y2261938D1*
Y2258938D1*
Y2255938D1*
Y2252938D1*
Y2249938D1*
Y2246938D1*
Y2243938D1*
Y2240938D1*
Y2237938D1*
Y2234938D1*
Y2231938D1*
Y2228938D1*
Y2225938D1*
Y2222938D1*
Y2219938D1*
Y2216938D1*
Y2213938D1*
Y2210938D1*
Y2207938D1*
Y2204938D1*
Y2201938D1*
Y2198938D1*
Y2195938D1*
X1338151Y2294938D2*
Y2291938D1*
Y2288938D1*
Y2285938D1*
Y2282938D1*
Y2279938D1*
Y2276938D1*
Y2273938D1*
Y2270938D1*
Y2267938D1*
Y2264938D1*
Y2261938D1*
Y2258938D1*
X1359151Y2294938D2*
Y2291938D1*
Y2288938D1*
Y2285938D1*
Y2282938D1*
Y2279938D1*
Y2276938D1*
Y2273938D1*
Y2270938D1*
Y2267938D1*
Y2264938D1*
Y2261938D1*
Y2258938D1*
X1380151Y2294938D2*
Y2291938D1*
Y2288938D1*
Y2285938D1*
Y2282938D1*
Y2279938D1*
Y2276938D1*
Y2273938D1*
Y2270938D1*
Y2267938D1*
Y2264938D1*
Y2261938D1*
Y2258938D1*
Y2255938D1*
Y2252938D1*
Y2249938D1*
Y2246938D1*
Y2243938D1*
Y2240938D1*
Y2237938D1*
Y2234938D1*
Y2231938D1*
Y2228938D1*
Y2225938D1*
Y2222938D1*
Y2219938D1*
Y2216938D1*
Y2213938D1*
Y2210938D1*
Y2207938D1*
Y2204938D1*
Y2201938D1*
Y2198938D1*
Y2195938D1*
X693151Y2279938D2*
X689918Y2276938D1*
X687451Y2273938D1*
X685802Y2270938D1*
X684890Y2267938D1*
X684455Y2264938D1*
X684256Y2261938D1*
X684077Y2258938D1*
X683667Y2255938D1*
X682938Y2252938D1*
X682178Y2249938D1*
X681759Y2246938D1*
X681863Y2243938D1*
X682454Y2240938D1*
X683170Y2237938D1*
X683673Y2234938D1*
X683944Y2231938D1*
X684080Y2228938D1*
X684238Y2225938D1*
X684663Y2222938D1*
X685618Y2219938D1*
X687325Y2216938D1*
X689945Y2213938D1*
X693151Y2210938D1*
X696151Y2279938D2*
X699385Y2276938D1*
X701852Y2273938D1*
X703500Y2270938D1*
X704424Y2267938D1*
X704965Y2264938D1*
X705534Y2261938D1*
X706327Y2258938D1*
X707124Y2255938D1*
X707657Y2252938D1*
X707938Y2249938D1*
X708067Y2246938D1*
X708108Y2243938D1*
X708023Y2240938D1*
X707648Y2237938D1*
X706932Y2234938D1*
X706164Y2231938D1*
X705629Y2228938D1*
X705246Y2225938D1*
X704713Y2222938D1*
X703712Y2219938D1*
X701988Y2216938D1*
X699361Y2213938D1*
X696151Y2210938D1*
X909151Y2282938D2*
X904216Y2279938D1*
X900320Y2276938D1*
X897560Y2273938D1*
X895646Y2270938D1*
X894151Y2267938D1*
X915151Y2282938D2*
X915116Y2279938D1*
X914788Y2276938D1*
X914015Y2273938D1*
X911118Y2270938D1*
X908013Y2267938D1*
X905326Y2264938D1*
X904365Y2261938D1*
X904845Y2258938D1*
X905790Y2255938D1*
X906927Y2252938D1*
X907831Y2249938D1*
X908341Y2246938D1*
X907631Y2243938D1*
X906446Y2240938D1*
X904564Y2237938D1*
X901976Y2234938D1*
X895379Y2231938D1*
X886725Y2228938D1*
X878394Y2225938D1*
X872573Y2222938D1*
X868344Y2219938D1*
X878440Y2216938D1*
X888966Y2213938D1*
X897860Y2210938D1*
X904056Y2207938D1*
X908510Y2204938D1*
X910294Y2201938D1*
X911321Y2198938D1*
X911813Y2195938D1*
X912010Y2192938D1*
X911976Y2189938D1*
X911507Y2186938D1*
X910585Y2183938D1*
X908141Y2180938D1*
X904648Y2177938D1*
X899802Y2174938D1*
X894151Y2171938D1*
X1188151Y2279938D2*
Y2276938D1*
Y2273938D1*
Y2270938D1*
Y2267938D1*
Y2264938D1*
Y2261938D1*
Y2258938D1*
Y2255938D1*
X1218151D1*
Y2252938D1*
Y2249938D1*
Y2246938D1*
Y2243938D1*
Y2240938D1*
Y2237938D1*
Y2234938D1*
X1188151D1*
Y2231938D1*
Y2228938D1*
Y2225938D1*
Y2222938D1*
Y2219938D1*
Y2216938D1*
Y2213938D1*
X1272151Y2279938D2*
X1267216Y2276938D1*
X1263323Y2273938D1*
X1260594Y2270938D1*
X1258550Y2267938D1*
X1257831Y2264938D1*
X1257441Y2261938D1*
X1257265Y2258938D1*
X1257193Y2255938D1*
X1257166Y2252938D1*
X1257156Y2249938D1*
X1257153Y2246938D1*
X1257152Y2243938D1*
Y2240938D1*
X1257151Y2237938D1*
Y2234938D1*
X1257163Y2231938D1*
X1257269Y2228938D1*
X1257674Y2225938D1*
X1258622Y2222938D1*
X1260326Y2219938D1*
X1262946Y2216938D1*
X1266151Y2213938D1*
X1272151Y2279938D2*
X1275037Y2276938D1*
X1277641Y2273938D1*
X1279805Y2270938D1*
X1281536Y2267938D1*
X1282795Y2264938D1*
X1283532Y2261938D1*
X1283912Y2258938D1*
X1284151Y2255938D1*
X741151Y2270938D2*
Y2267938D1*
Y2264938D1*
Y2261938D1*
Y2258938D1*
Y2255938D1*
Y2252938D1*
Y2249938D1*
Y2246938D1*
Y2243938D1*
Y2240938D1*
Y2237938D1*
Y2234938D1*
Y2231938D1*
Y2228938D1*
Y2225938D1*
Y2222938D1*
Y2219938D1*
Y2216938D1*
Y2213938D1*
Y2210938D1*
Y2207938D1*
Y2204938D1*
Y2201938D1*
Y2198938D1*
X759151Y2270938D2*
Y2267938D1*
Y2264938D1*
Y2261938D1*
Y2258938D1*
Y2255938D1*
Y2252938D1*
X777151Y2270938D2*
X772216Y2267938D1*
X768311Y2264938D1*
X765468Y2261938D1*
X763251Y2258938D1*
X761220Y2255938D1*
X759151Y2252938D1*
X780151Y2270938D2*
Y2267938D1*
Y2264938D1*
X780116Y2261938D1*
X779788Y2258938D1*
X779015Y2255938D1*
X776003Y2252938D1*
X772503Y2249938D1*
X769411Y2246938D1*
X767173Y2243938D1*
X765606Y2240938D1*
X764324Y2237938D1*
X763314Y2234938D1*
X762695Y2231938D1*
X762382Y2228938D1*
X762242Y2225938D1*
X762185Y2222938D1*
X762163Y2219938D1*
X762156Y2216938D1*
X762153Y2213938D1*
X762152Y2210938D1*
Y2207938D1*
X762151Y2204938D1*
Y2201938D1*
Y2198938D1*
X810151Y2270938D2*
X804289Y2267938D1*
X798896Y2264938D1*
X794509Y2261938D1*
X791332Y2258938D1*
X789099Y2255938D1*
X787524Y2252938D1*
X786323Y2249938D1*
X785210Y2246938D1*
X784271Y2243938D1*
X783680Y2240938D1*
X783377Y2237938D1*
X783240Y2234938D1*
X783184Y2231938D1*
X783175Y2228938D1*
X783273Y2225938D1*
X783664Y2222938D1*
X784487Y2219938D1*
X785650Y2216938D1*
X786997Y2213938D1*
X788450Y2210938D1*
X790054Y2207938D1*
X792151Y2204938D1*
X795239Y2201938D1*
X799432Y2198938D1*
X804151Y2195938D1*
X813151Y2270938D2*
X820611Y2267938D1*
X826655Y2264938D1*
X831213Y2261938D1*
X834596Y2258938D1*
X836993Y2255938D1*
X838570Y2252938D1*
X839443Y2249938D1*
X839871Y2246938D1*
X840156Y2243938D1*
X840610Y2240938D1*
X841356Y2237938D1*
X842142Y2234938D1*
X842714Y2231938D1*
X843151Y2228938D1*
X873151Y2270938D2*
X867753Y2267938D1*
X863104Y2264938D1*
X859493Y2261938D1*
X856842Y2258938D1*
X854899Y2255938D1*
X853568Y2252938D1*
X852908Y2249938D1*
X852928Y2246938D1*
X853601Y2243938D1*
X854793Y2240938D1*
X856381Y2237938D1*
X858021Y2234938D1*
X859355Y2231938D1*
X859021Y2228938D1*
X857237Y2225938D1*
X855217Y2222938D1*
X853227Y2219938D1*
X851231Y2216938D1*
X849151Y2213938D1*
X851248Y2210938D1*
X853814Y2207938D1*
X857225Y2204938D1*
X861151Y2201938D1*
X857252Y2198938D1*
X853861Y2195938D1*
X851124Y2192938D1*
X850119Y2189938D1*
X849687Y2186938D1*
X849660Y2183938D1*
X850842Y2180938D1*
X854065Y2177938D1*
X858677Y2174938D1*
X864151Y2171938D1*
X888151Y2270938D2*
X891151Y2267938D1*
X945151Y2270938D2*
X937342Y2267938D1*
X930939Y2264938D1*
X926323Y2261938D1*
X923185Y2258938D1*
X921032Y2255938D1*
X919605Y2252938D1*
X918808Y2249938D1*
X918423Y2246938D1*
X918256Y2243938D1*
X918190Y2240938D1*
X918165Y2237938D1*
X918156Y2234938D1*
X918153Y2231938D1*
X918152Y2228938D1*
Y2225938D1*
X918163Y2222938D1*
X918269Y2219938D1*
X918663Y2216938D1*
X919498Y2213938D1*
X920767Y2210938D1*
X922520Y2207938D1*
X924900Y2204938D1*
X928000Y2201938D1*
X931861Y2198938D1*
X936151Y2195938D1*
X951151Y2270938D2*
X956550Y2267938D1*
X961199Y2264938D1*
X964810Y2261938D1*
X967473Y2258938D1*
X969521Y2255938D1*
X971246Y2252938D1*
X972730Y2249938D1*
X973873Y2246938D1*
X974559Y2243938D1*
X974902Y2240938D1*
X975054Y2237938D1*
X975115Y2234938D1*
X975139Y2231938D1*
X975147Y2228938D1*
X975138Y2225938D1*
X975034Y2222938D1*
X974640Y2219938D1*
X973816Y2216938D1*
X972653Y2213938D1*
X971282Y2210938D1*
X969618Y2207938D1*
X967251Y2204938D1*
X963728Y2201938D1*
X959169Y2198938D1*
X954151Y2195938D1*
X987151Y2270938D2*
Y2267938D1*
Y2264938D1*
Y2261938D1*
Y2258938D1*
Y2255938D1*
Y2252938D1*
Y2249938D1*
Y2246938D1*
Y2243938D1*
Y2240938D1*
Y2237938D1*
Y2234938D1*
Y2231938D1*
Y2228938D1*
Y2225938D1*
Y2222938D1*
Y2219938D1*
Y2216938D1*
Y2213938D1*
Y2210938D1*
Y2207938D1*
Y2204938D1*
Y2201938D1*
Y2198938D1*
X1005151Y2270938D2*
Y2267938D1*
Y2264938D1*
Y2261938D1*
X1020151Y2270938D2*
X1015254Y2267938D1*
X1011360Y2264938D1*
X1008151Y2261938D1*
X1026151Y2270938D2*
X1031087Y2267938D1*
X1034980Y2264938D1*
X1037709Y2261938D1*
X1039753Y2258938D1*
X1040472Y2255938D1*
X1040862Y2252938D1*
X1041038Y2249938D1*
X1041110Y2246938D1*
X1041137Y2243938D1*
X1041146Y2240938D1*
X1041150Y2237938D1*
X1041151Y2234938D1*
Y2231938D1*
Y2228938D1*
Y2225938D1*
Y2222938D1*
Y2219938D1*
Y2216938D1*
Y2213938D1*
Y2210938D1*
Y2207938D1*
Y2204938D1*
Y2201938D1*
Y2198938D1*
X876151Y2258938D2*
X874767Y2255938D1*
X873905Y2252938D1*
X873481Y2249938D1*
X873402Y2246938D1*
X873787Y2243938D1*
X874782Y2240938D1*
X876151Y2237938D1*
X885151Y2258938D2*
Y2255938D1*
Y2252938D1*
Y2249938D1*
Y2246938D1*
Y2243938D1*
Y2240938D1*
Y2237938D1*
X807151Y2255938D2*
X806688Y2252938D1*
X805943Y2249938D1*
X805159Y2246938D1*
X804588Y2243938D1*
X804151Y2240938D1*
X819151Y2255938D2*
X820536Y2252938D1*
X821398Y2249938D1*
X821835Y2246938D1*
X822035Y2243938D1*
X822151Y2240938D1*
X942151Y2255938D2*
X940767Y2252938D1*
X939905Y2249938D1*
X939457Y2246938D1*
X939158Y2243938D1*
X938710Y2240938D1*
X938067Y2237938D1*
X937669Y2234938D1*
X937861Y2231938D1*
X938351Y2228938D1*
X938746Y2225938D1*
X938972Y2222938D1*
X939102Y2219938D1*
X939376Y2216938D1*
X939943Y2213938D1*
X942284Y2210938D1*
X945151Y2207938D1*
X951151Y2255938D2*
X951615Y2252938D1*
X952359Y2249938D1*
X953136Y2246938D1*
X953661Y2243938D1*
X953940Y2240938D1*
X954067Y2237938D1*
X954120Y2234938D1*
X954140Y2231938D1*
X954148Y2228938D1*
X954138Y2225938D1*
X954034Y2222938D1*
X953640Y2219938D1*
X952807Y2216938D1*
X951567Y2213938D1*
X949972Y2210938D1*
X948151Y2207938D1*
X1014151Y2255938D2*
X1011382Y2252938D1*
X1009331Y2249938D1*
X1008705Y2246938D1*
X1008379Y2243938D1*
X1008238Y2240938D1*
X1008183Y2237938D1*
X1008162Y2234938D1*
X1008155Y2231938D1*
X1008153Y2228938D1*
X1008152Y2225938D1*
Y2222938D1*
X1008151Y2219938D1*
Y2216938D1*
Y2213938D1*
Y2210938D1*
Y2207938D1*
Y2204938D1*
Y2201938D1*
Y2198938D1*
X1017151Y2255938D2*
X1018988Y2252938D1*
X1020488Y2249938D1*
X1021631Y2246938D1*
X1021397Y2243938D1*
X1020926Y2240938D1*
X1020545Y2237938D1*
X1020327Y2234938D1*
X1020223Y2231938D1*
X1020179Y2228938D1*
X1020161Y2225938D1*
X1020155Y2222938D1*
X1020153Y2219938D1*
X1020152Y2216938D1*
Y2213938D1*
X1020151Y2210938D1*
Y2207938D1*
Y2204938D1*
Y2201938D1*
Y2198938D1*
X1338151Y2237938D2*
Y2234938D1*
Y2231938D1*
Y2228938D1*
Y2225938D1*
Y2222938D1*
Y2219938D1*
Y2216938D1*
Y2213938D1*
Y2210938D1*
Y2207938D1*
Y2204938D1*
Y2201938D1*
Y2198938D1*
Y2195938D1*
X1359151Y2237938D2*
Y2234938D1*
Y2231938D1*
Y2228938D1*
Y2225938D1*
Y2222938D1*
Y2219938D1*
Y2216938D1*
Y2213938D1*
Y2210938D1*
Y2207938D1*
Y2204938D1*
Y2201938D1*
Y2198938D1*
Y2195938D1*
X1284151Y2231938D2*
X1283676Y2228938D1*
X1282815Y2225938D1*
X1281539Y2222938D1*
X1279804Y2219938D1*
X1277591Y2216938D1*
X1275151Y2213938D1*
X1302151Y2231938D2*
X1302140Y2228938D1*
X1302034Y2225938D1*
X1301652Y2222938D1*
X1300922Y2219938D1*
X1300047Y2216938D1*
X1299118Y2213938D1*
X1297910Y2210938D1*
X1296226Y2207938D1*
X1293967Y2204938D1*
X1291018Y2201938D1*
X1286954Y2198938D1*
X1281447Y2195938D1*
X1275151Y2192938D1*
X804151Y2228938D2*
X804163Y2225938D1*
X804269Y2222938D1*
X804674Y2219938D1*
X805622Y2216938D1*
X807326Y2213938D1*
X809946Y2210938D1*
X813151Y2207938D1*
X822151Y2222938D2*
X822128Y2219938D1*
X821899Y2216938D1*
X821355Y2213938D1*
X819017Y2210938D1*
X816151Y2207938D1*
X822151Y2222938D2*
X829371Y2219938D1*
X834736Y2216938D1*
X838733Y2213938D1*
X838276Y2210938D1*
X837167Y2207938D1*
X835507Y2204938D1*
X831769Y2201938D1*
X827173Y2198938D1*
X822151Y2195938D1*
X1227151Y2213938D2*
Y2210938D1*
Y2207938D1*
Y2204938D1*
Y2201938D1*
Y2198938D1*
Y2195938D1*
X870151Y2198938D2*
X868204Y2195938D1*
X866224Y2192938D1*
X864151Y2189938D1*
X867151Y2186938D1*
X870151Y2183938D1*
X885151Y2198938D2*
X889294Y2195938D1*
X892336Y2192938D1*
X893094Y2189938D1*
X892309Y2186938D1*
X891151Y2183938D1*
X2017776Y989058D2*
D77*
X2016350Y991910D1*
X2013465Y994795D1*
X2010613Y996221D1*
X2004876D1*
X2001991Y994795D1*
X1999139Y991910D1*
X1997680Y989058D1*
X1996254Y984747D1*
Y977551D1*
X1997680Y973273D1*
X1999139Y970388D1*
X2001991Y967536D1*
X2004876Y966077D1*
X2010613D1*
X2013465Y967536D1*
X2016350Y970388D1*
X2017776Y973273D1*
X2027039Y990451D2*
X2029924Y991910D1*
X2034235Y996188D1*
Y966077D1*
X961721Y705093D2*
X960295Y707945D1*
X957410Y710830D1*
X954558Y712256D1*
X948821D1*
X945936Y710830D1*
X943084Y707945D1*
X941625Y705093D1*
X940199Y700782D1*
Y693586D1*
X941625Y689308D1*
X943084Y686423D1*
X945936Y683571D1*
X948821Y682112D1*
X954558D1*
X957410Y683571D1*
X960295Y686423D1*
X961721Y689308D1*
X972443Y705060D2*
Y706486D1*
X973869Y709371D1*
X975295Y710797D1*
X978180Y712223D1*
X983917D1*
X986769Y710797D1*
X988195Y709371D1*
X989654Y706486D1*
Y703634D1*
X988195Y700749D1*
X985343Y696471D1*
X970984Y682112D1*
X991080D1*
X974565Y3201536D2*
Y3171392D1*
X984613D1*
X988924Y3172851D1*
X991809Y3175703D1*
X993235Y3178588D1*
X994661Y3182866D1*
Y3190062D1*
X993235Y3194373D1*
X991809Y3197225D1*
X988924Y3200110D1*
X984613Y3201536D1*
X974565D1*
X1003925Y3195766D2*
X1006810Y3197225D1*
X1011121Y3201503D1*
Y3171392D1*
X1558205Y3259924D2*
Y3229780D1*
X1568253D1*
X1572564Y3231239D1*
X1575449Y3234091D1*
X1576875Y3236976D1*
X1578301Y3241254D1*
Y3248450D1*
X1576875Y3252761D1*
X1575449Y3255613D1*
X1572564Y3258498D1*
X1568253Y3259924D1*
X1558205D1*
X1589023Y3252728D2*
Y3254154D1*
X1590449Y3257039D1*
X1591875Y3258465D1*
X1594760Y3259891D1*
X1600497D1*
X1603349Y3258465D1*
X1604775Y3257039D1*
X1606234Y3254154D1*
Y3251302D1*
X1604775Y3248417D1*
X1601923Y3244139D1*
X1587564Y3229780D1*
X1607660D1*
X1316567Y2721650D2*
Y2691506D1*
X1326615D1*
X1330926Y2692965D1*
X1333811Y2695817D1*
X1335237Y2698702D1*
X1336663Y2702980D1*
Y2710176D1*
X1335237Y2714487D1*
X1333811Y2717339D1*
X1330926Y2720224D1*
X1326615Y2721650D1*
X1316567D1*
X1348811Y2721617D2*
X1364563D1*
X1355974Y2710143D1*
X1360285D1*
X1363137Y2708717D1*
X1364563Y2707291D1*
X1366022Y2702980D1*
Y2700128D1*
X1364563Y2695817D1*
X1361711Y2692932D1*
X1357400Y2691506D1*
X1353089D1*
X1348811Y2692932D1*
X1347385Y2694391D1*
X1345926Y2697243D1*
X1714107Y2051222D2*
Y2028274D1*
X1712681Y2023963D1*
X1711221Y2022537D1*
X1708370Y2021078D1*
X1705485D1*
X1702633Y2022537D1*
X1701207Y2023963D1*
X1699748Y2028274D1*
Y2031126D1*
X1726255Y2051189D2*
X1742007D1*
X1733418Y2039715D1*
X1737729D1*
X1740581Y2038289D1*
X1742007Y2036863D1*
X1743466Y2032552D1*
Y2029700D1*
X1742007Y2025389D1*
X1739155Y2022504D1*
X1734844Y2021078D1*
X1730533D1*
X1726255Y2022504D1*
X1724829Y2023963D1*
X1723370Y2026815D1*
X437466Y1910152D2*
Y1887204D1*
X436040Y1882893D1*
X434581Y1881467D1*
X431729Y1880008D1*
X428844D1*
X425992Y1881467D1*
X424566Y1882893D1*
X423107Y1887204D1*
Y1890056D1*
X461088Y1880008D2*
Y1910119D1*
X446729Y1890056D1*
X468251D1*
X569137Y2179217D2*
Y2156269D1*
X567711Y2151958D1*
X566252Y2150532D1*
X563400Y2149073D1*
X560515D1*
X557663Y2150532D1*
X556237Y2151958D1*
X554778Y2156269D1*
Y2159121D1*
X595611Y2174905D2*
X594185Y2177757D1*
X589874Y2179183D1*
X587022D1*
X582711Y2177757D1*
X579826Y2173446D1*
X578400Y2166283D1*
Y2159121D1*
X579826Y2153384D1*
X582711Y2150498D1*
X587022Y2149073D1*
X588448D1*
X592726Y2150498D1*
X595611Y2153384D1*
X597037Y2157695D1*
Y2159121D1*
X595611Y2163432D1*
X592726Y2166283D1*
X588448Y2167709D1*
X587022D1*
X582711Y2166283D1*
X579826Y2163432D1*
X578400Y2159121D1*
X1001872Y3448246D2*
X1014772D1*
X1019083Y3449705D1*
X1020542Y3451131D1*
X1021968Y3453983D1*
Y3456868D1*
X1020542Y3459720D1*
X1019083Y3461179D1*
X1014772Y3462605D1*
X1001872D1*
Y3432461D1*
X1011920Y3448246D2*
X1021968Y3432461D1*
X1031232Y3456835D2*
X1034117Y3458294D1*
X1038428Y3462572D1*
Y3432461D1*
X1430538Y3494712D2*
X1443438D1*
X1447749Y3496171D1*
X1449208Y3497597D1*
X1450634Y3500449D1*
Y3503334D1*
X1449208Y3506186D1*
X1447749Y3507645D1*
X1443438Y3509071D1*
X1430538D1*
Y3478927D1*
X1440586Y3494712D2*
X1450634Y3478927D1*
X1461357Y3501875D2*
Y3503301D1*
X1462782Y3506186D1*
X1464208Y3507612D1*
X1467093Y3509038D1*
X1472830D1*
X1475682Y3507612D1*
X1477108Y3506186D1*
X1478567Y3503301D1*
Y3500449D1*
X1477108Y3497564D1*
X1474256Y3493286D1*
X1459897Y3478927D1*
X1479993D1*
X520503Y1176037D2*
X533403D1*
X537714Y1177496D1*
X539173Y1178922D1*
X540599Y1181774D1*
Y1184659D1*
X539173Y1187511D1*
X537714Y1188970D1*
X533403Y1190396D1*
X520503D1*
Y1160252D1*
X530551Y1176037D2*
X540599Y1160252D1*
X564222D2*
Y1190363D1*
X549863Y1170300D1*
X571385D1*
X1900510Y1738980D2*
X1913410D1*
X1917721Y1740439D1*
X1919180Y1741865D1*
X1920606Y1744717D1*
Y1747602D1*
X1919180Y1750454D1*
X1917721Y1751913D1*
X1913410Y1753339D1*
X1900510D1*
Y1723195D1*
X1910558Y1738980D2*
X1920606Y1723195D1*
X1947081Y1749028D2*
X1945655Y1751879D1*
X1941344Y1753305D1*
X1938492D1*
X1934181Y1751879D1*
X1931296Y1747568D1*
X1929870Y1740405D1*
Y1733243D1*
X1931296Y1727506D1*
X1934181Y1724621D1*
X1938492Y1723195D1*
X1939918D1*
X1944196Y1724621D1*
X1947081Y1727506D1*
X1948507Y1731817D1*
Y1733243D1*
X1947081Y1737554D1*
X1944196Y1740405D1*
X1939918Y1741831D1*
X1938492D1*
X1934181Y1740405D1*
X1931296Y1737554D1*
X1929870Y1733243D1*
X634758Y958730D2*
X647658D1*
X651969Y960189D1*
X653428Y961615D1*
X654854Y964467D1*
Y967352D1*
X653428Y970204D1*
X651969Y971663D1*
X647658Y973089D1*
X634758D1*
Y942945D1*
X644806Y958730D2*
X654854Y942945D1*
X669855D2*
X684214Y973056D1*
X664118D1*
X562339Y1079962D2*
X575239D1*
X579550Y1081422D1*
X581009Y1082848D1*
X582435Y1085699D1*
Y1088585D1*
X581009Y1091436D1*
X579550Y1092896D1*
X575239Y1094322D1*
X562339D1*
Y1064178D1*
X572387Y1079962D2*
X582435Y1064178D1*
X598862Y1094288D2*
X594584Y1092862D1*
X593125Y1090010D1*
Y1087125D1*
X594584Y1084274D1*
X597436Y1082814D1*
X603173Y1081388D1*
X607484Y1079962D1*
X610336Y1077077D1*
X611762Y1074226D1*
Y1069914D1*
X610336Y1067063D1*
X608910Y1065603D1*
X604599Y1064178D1*
X598862D1*
X594584Y1065603D1*
X593125Y1067063D1*
X591699Y1069914D1*
Y1074226D1*
X593125Y1077077D1*
X596010Y1079962D1*
X600288Y1081388D1*
X606025Y1082814D1*
X608910Y1084274D1*
X610336Y1087125D1*
Y1090010D1*
X608910Y1092862D1*
X604599Y1094288D1*
X598862D1*
X500727Y1288465D2*
X513627D1*
X517938Y1289924D1*
X519397Y1291350D1*
X520823Y1294202D1*
Y1297087D1*
X519397Y1299939D1*
X517938Y1301398D1*
X513627Y1302824D1*
X500727D1*
Y1272680D1*
X510775Y1288465D2*
X520823Y1272680D1*
X548757Y1292776D2*
X547298Y1288465D1*
X544446Y1285580D1*
X540135Y1284154D1*
X538709D1*
X534398Y1285580D1*
X531546Y1288465D1*
X530087Y1292776D1*
Y1294202D1*
X531546Y1298513D1*
X534398Y1301365D1*
X538709Y1302791D1*
X540135D1*
X544446Y1301365D1*
X547298Y1298513D1*
X548757Y1292776D1*
Y1285580D1*
X547298Y1278417D1*
X544446Y1274106D1*
X540135Y1272680D1*
X537283D1*
X532972Y1274106D1*
X531546Y1276991D1*
X2229761Y1767776D2*
X2242661D1*
X2246972Y1769235D1*
X2248431Y1770661D1*
X2249857Y1773513D1*
Y1776398D1*
X2248431Y1779250D1*
X2246972Y1780709D1*
X2242661Y1782135D1*
X2229761D1*
Y1751991D1*
X2239809Y1767776D2*
X2249857Y1751991D1*
X2259120Y1776365D2*
X2262005Y1777824D1*
X2266316Y1782102D1*
Y1751991D1*
X2277039Y1774939D2*
Y1776365D1*
X2278465Y1779250D1*
X2279891Y1780676D1*
X2282776Y1782102D1*
X2288513D1*
X2291365Y1780676D1*
X2292791Y1779250D1*
X2294250Y1776365D1*
Y1773513D1*
X2292791Y1770628D1*
X2289939Y1766350D1*
X2275580Y1751991D1*
X2295676D1*
X2113620Y1755277D2*
X2126520D1*
X2130831Y1756737D1*
X2132290Y1758163D1*
X2133716Y1761014D1*
Y1763899D1*
X2132290Y1766751D1*
X2130831Y1768211D1*
X2126520Y1769636D1*
X2113620D1*
Y1739492D1*
X2123668Y1755277D2*
X2133716Y1739492D1*
X2142980Y1763866D2*
X2145865Y1765325D1*
X2150176Y1769603D1*
Y1739492D1*
X2162325Y1769603D2*
X2178076D1*
X2169488Y1758129D1*
X2173799D1*
X2176650Y1756703D1*
X2178076Y1755277D1*
X2179536Y1750966D1*
Y1748115D1*
X2178076Y1743803D1*
X2175225Y1740918D1*
X2170914Y1739492D1*
X2166602D1*
X2162325Y1740918D1*
X2160899Y1742378D1*
X2159440Y1745229D1*
X2000175Y1742535D2*
X2013075D1*
X2017386Y1743994D1*
X2018845Y1745420D1*
X2020271Y1748272D1*
Y1751157D1*
X2018845Y1754009D1*
X2017386Y1755468D1*
X2013075Y1756894D1*
X2000175D1*
Y1726750D1*
X2010223Y1742535D2*
X2020271Y1726750D1*
X2029535Y1751124D2*
X2032420Y1752583D1*
X2036731Y1756861D1*
Y1726750D1*
X2060353D2*
Y1756861D1*
X2045994Y1736798D1*
X2067516D1*
X2049384Y1578957D2*
X2046532Y1581842D1*
X2042221Y1583268D1*
X2036484D1*
X2032173Y1581842D1*
X2029288Y1578957D1*
Y1576105D1*
X2030747Y1573220D1*
X2032173Y1571794D1*
X2035025Y1570368D1*
X2043647Y1567483D1*
X2046532Y1566057D1*
X2047958Y1564598D1*
X2049384Y1561746D1*
Y1557435D1*
X2046532Y1554583D1*
X2042221Y1553124D1*
X2036484D1*
X2032173Y1554583D1*
X2029288Y1557435D1*
X2058648Y1577498D2*
X2061533Y1578957D1*
X2065844Y1583235D1*
Y1553124D1*
X1997306Y1279238D2*
X1994454Y1282123D1*
X1990143Y1283549D1*
X1984406D1*
X1980095Y1282123D1*
X1977210Y1279238D1*
Y1276386D1*
X1978669Y1273501D1*
X1980095Y1272075D1*
X1982947Y1270649D1*
X1991569Y1267764D1*
X1994454Y1266338D1*
X1995880Y1264878D1*
X1997306Y1262027D1*
Y1257716D1*
X1994454Y1254864D1*
X1990143Y1253405D1*
X1984406D1*
X1980095Y1254864D1*
X1977210Y1257716D1*
X2008028Y1276352D2*
Y1277778D1*
X2009454Y1280663D1*
X2010880Y1282089D1*
X2013765Y1283515D1*
X2019502D1*
X2022354Y1282089D1*
X2023780Y1280663D1*
X2025239Y1277778D1*
Y1274926D1*
X2023780Y1272041D1*
X2020928Y1267764D1*
X2006569Y1253405D1*
X2026665D1*
X983380Y2091344D2*
Y2069822D1*
X984806Y2065511D1*
X987691Y2062659D1*
X992002Y2061200D1*
X994854D1*
X999165Y2062659D1*
X1002050Y2065511D1*
X1003476Y2069822D1*
Y2091344D1*
X1012740Y2085574D2*
X1015625Y2087033D1*
X1019936Y2091311D1*
Y2061200D1*
X1478915Y700485D2*
Y678963D1*
X1480341Y674652D1*
X1483226Y671800D1*
X1487537Y670341D1*
X1490389D1*
X1494700Y671800D1*
X1497585Y674652D1*
X1499011Y678963D1*
Y700485D1*
X1522634Y670341D2*
Y700451D1*
X1508275Y680389D1*
X1529797D1*
X603318Y3730130D2*
D78*
X624321D1*
X612869Y3714831D1*
X618617D1*
X622419Y3712930D1*
X624321Y3711028D1*
X626266Y3705280D1*
Y3701478D1*
X624321Y3695730D1*
X620518Y3691883D1*
X614770Y3689982D1*
X609022D1*
X603318Y3691883D1*
X601417Y3693828D1*
X599472Y3697631D1*
X640519Y3693828D2*
X638618Y3691883D1*
X640519Y3689982D1*
X642464Y3691883D1*
X640519Y3693828D1*
X658663Y3730130D2*
X679665D1*
X668213Y3714831D1*
X673961D1*
X677764Y3712930D1*
X679665Y3711028D1*
X681610Y3705280D1*
Y3701478D1*
X679665Y3695730D1*
X675862Y3691883D1*
X670114Y3689982D1*
X664366D1*
X658663Y3691883D1*
X656761Y3693828D1*
X654816Y3697631D1*
X693962Y3730174D2*
X709260Y3689982D1*
X724559Y3730174D1*
X1808769Y3813510D2*
X1806867Y3817313D1*
X1803021Y3821160D1*
X1799218Y3823061D1*
X1791569D1*
X1787722Y3821160D1*
X1783919Y3817313D1*
X1781974Y3813510D1*
X1780073Y3807762D1*
Y3798167D1*
X1781974Y3792464D1*
X1783919Y3788617D1*
X1787722Y3784814D1*
X1791569Y3782869D1*
X1799218D1*
X1803021Y3784814D1*
X1806867Y3788617D1*
X1808769Y3792464D1*
Y3798167D1*
X1799218D1*
X1847915Y3823061D2*
Y3782869D1*
X1821120Y3823061D1*
Y3782869D1*
X1860266Y3823061D2*
Y3782869D1*
X1873663D1*
X1879411Y3784814D1*
X1883258Y3788617D1*
X1885159Y3792464D1*
X1887061Y3798167D1*
Y3807762D1*
X1885159Y3813510D1*
X1883258Y3817313D1*
X1879411Y3821160D1*
X1873663Y3823061D1*
X1860266D1*
X1481054Y2178783D2*
D79*
X1474732Y2175456D1*
X1468337Y2168724D1*
X1465176Y2158665D1*
Y2152010D1*
X1468337Y2141951D1*
X1474732Y2135297D1*
X1481054Y2131892D1*
X1490610D1*
X1497005Y2135297D1*
X1503327Y2141951D1*
X1506561Y2152010D1*
Y2158665D1*
X1503327Y2168724D1*
X1497005Y2175456D1*
X1490610Y2178783D1*
X1481054D1*
X1527095Y2202228D2*
X1530256Y2198901D1*
X1533491Y2202228D1*
X1530256Y2205633D1*
X1527095Y2202228D1*
X1530256Y2178783D2*
Y2131892D1*
X1563581Y2202228D2*
Y2145278D1*
X1566742Y2135297D1*
X1573137Y2131892D1*
X1579459D1*
X1554025Y2178783D2*
X1576298D1*
X1603154Y2138624D2*
X1599993Y2135219D1*
X1603154Y2131892D1*
X1606388Y2135219D1*
X1603154Y2138624D1*
X1626922Y2158665D2*
X1665073D1*
Y2165397D1*
X1661912Y2172128D1*
X1658752Y2175456D1*
X1652356Y2178783D1*
X1642800D1*
X1636478Y2175456D1*
X1630083Y2168724D1*
X1626922Y2158665D1*
Y2152010D1*
X1630083Y2141951D1*
X1636478Y2135297D1*
X1642800Y2131892D1*
X1652356D1*
X1658752Y2135297D1*
X1665073Y2141951D1*
X1723758Y2202228D2*
Y2131892D1*
Y2168724D2*
X1717437Y2175456D1*
X1711041Y2178783D1*
X1701485D1*
X1695164Y2175456D1*
X1688768Y2168724D1*
X1685607Y2158665D1*
Y2152010D1*
X1688768Y2141951D1*
X1695164Y2135297D1*
X1701485Y2131892D1*
X1711041D1*
X1717437Y2135297D1*
X1723758Y2141951D1*
X1744293Y2178783D2*
Y2145278D1*
X1747453Y2135297D1*
X1753849Y2131892D1*
X1763405D1*
X1769727Y2135297D1*
X1779283Y2145278D1*
Y2178783D2*
Y2131892D1*
X649023Y1893968D2*
D78*
X652870Y1895914D1*
X658618Y1901618D1*
Y1861470D1*
X682465Y1901618D2*
X676717Y1899716D1*
X672870Y1893968D1*
X670969Y1884418D1*
Y1878670D1*
X672870Y1869119D1*
X676717Y1863371D1*
X682465Y1861470D1*
X686268D1*
X692016Y1863371D1*
X695818Y1869119D1*
X697764Y1878670D1*
Y1884418D1*
X695818Y1893968D1*
X692016Y1899716D1*
X686268Y1901618D1*
X682465D1*
X695818Y1893968D2*
X672870Y1869119D1*
X676302Y1783744D2*
X674356Y1777996D1*
X670554Y1774149D1*
X664806Y1772248D1*
X662905D1*
X657157Y1774149D1*
X653354Y1777996D1*
X651409Y1783744D1*
Y1785645D1*
X653354Y1791393D1*
X657157Y1795195D1*
X662905Y1797097D1*
X664806D1*
X670554Y1795195D1*
X674356Y1791393D1*
X676302Y1783744D1*
Y1774149D1*
X674356Y1764598D1*
X670554Y1758850D1*
X664806Y1756949D1*
X661003D1*
X655255Y1758850D1*
X653354Y1762697D1*
X650211Y1698103D2*
Y1671353D1*
Y1661802D2*
X648266Y1659857D1*
X650211Y1657955D1*
X652112Y1659857D1*
X650211Y1661802D1*
X664464Y1679002D2*
X681664D1*
X687412Y1680948D1*
X689357Y1682849D1*
X691258Y1686651D1*
Y1690498D1*
X689357Y1694301D1*
X687412Y1696246D1*
X681664Y1698147D1*
X664464D1*
Y1657955D1*
X677861Y1679002D2*
X691258Y1657955D1*
X730404Y1692399D2*
X726602Y1696246D1*
X720854Y1698147D1*
X713205D1*
X707457Y1696246D1*
X703610Y1692399D1*
Y1688597D1*
X705555Y1684750D1*
X707457Y1682849D1*
X711259Y1680948D1*
X722755Y1677101D1*
X726602Y1675200D1*
X728503Y1673254D1*
X730404Y1669452D1*
Y1663704D1*
X726602Y1659901D1*
X720854Y1657955D1*
X713205D1*
X707457Y1659901D1*
X703610Y1663704D1*
X756153Y1698147D2*
Y1657955D1*
X742756Y1698147D2*
X769551D1*
X656245Y1602254D2*
X650541Y1600353D1*
X648596Y1596550D1*
Y1592704D1*
X650541Y1588901D1*
X654344Y1586956D1*
X661993Y1585054D1*
X667741Y1583153D1*
X671544Y1579306D1*
X673445Y1575504D1*
Y1569756D1*
X671544Y1565953D1*
X669643Y1564008D1*
X663895Y1562106D1*
X656245D1*
X650541Y1564008D1*
X648596Y1565953D1*
X646695Y1569756D1*
Y1575504D1*
X648596Y1579306D1*
X652443Y1583153D1*
X658147Y1585054D1*
X665796Y1586956D1*
X669643Y1588901D1*
X671544Y1592704D1*
Y1596550D1*
X669643Y1600353D1*
X663895Y1602254D1*
X656245D1*
X656631Y1455929D2*
X675777Y1496077D1*
X648982D1*
X675072Y1394524D2*
X673170Y1398327D1*
X667422Y1400228D1*
X663620D1*
X657872Y1398327D1*
X654025Y1392579D1*
X652124Y1383028D1*
Y1373477D1*
X654025Y1365828D1*
X657872Y1361981D1*
X663620Y1360080D1*
X665521D1*
X671225Y1361981D1*
X675072Y1365828D1*
X676973Y1371576D1*
Y1373477D1*
X675072Y1379226D1*
X671225Y1383028D1*
X665521Y1384929D1*
X663620D1*
X657872Y1383028D1*
X654025Y1379226D1*
X652124Y1373477D1*
X1594834Y1942115D2*
X1589086Y1940214D1*
X1585239Y1934466D1*
X1583338Y1924915D1*
Y1919167D1*
X1585239Y1909617D1*
X1589086Y1903869D1*
X1594834Y1901967D1*
X1598636D1*
X1604384Y1903869D1*
X1608187Y1909617D1*
X1610132Y1919167D1*
Y1924915D1*
X1608187Y1934466D1*
X1604384Y1940214D1*
X1598636Y1942115D1*
X1594834D1*
X1608187Y1934466D2*
X1585239Y1909617D1*
X1588052Y1840186D2*
X1591898Y1842132D1*
X1597646Y1847836D1*
Y1807688D1*
X1586854Y1740864D2*
Y1742765D1*
X1588755Y1746612D1*
X1590657Y1748513D1*
X1594503Y1750414D1*
X1602153D1*
X1605955Y1748513D1*
X1607856Y1746612D1*
X1609802Y1742765D1*
Y1738962D1*
X1607856Y1735116D1*
X1604054Y1729412D1*
X1584909Y1710267D1*
X1611703D1*
X1590326Y1646708D2*
X1611329D1*
X1599877Y1631410D1*
X1605625D1*
X1609427Y1629508D1*
X1611329Y1627607D1*
X1613274Y1621859D1*
Y1618057D1*
X1611329Y1612308D1*
X1607526Y1608462D1*
X1601778Y1606560D1*
X1596030D1*
X1590326Y1608462D1*
X1588425Y1610407D1*
X1586479Y1614210D1*
X1605625Y1510710D2*
Y1550858D1*
X1586479Y1524107D1*
X1615175D1*
X1614106Y1439295D2*
X1595005D1*
X1593103Y1422095D1*
X1595005Y1423996D1*
X1600753Y1425942D1*
X1606457D1*
X1612205Y1423996D1*
X1616051Y1420194D1*
X1617953Y1414446D1*
Y1410643D1*
X1616051Y1404895D1*
X1612205Y1401048D1*
X1606457Y1399147D1*
X1600753D1*
X1595005Y1401048D1*
X1593103Y1402994D1*
X1591158Y1406796D1*
X746073Y798631D2*
X757569Y771836D1*
X769021Y798631D1*
X804320Y806280D2*
X802419Y810083D1*
X796671Y811984D1*
X792868D1*
X787120Y810083D1*
X783273Y804335D1*
X781372Y794784D1*
Y785233D1*
X783273Y777584D1*
X787120Y773737D1*
X792868Y771836D1*
X794769D1*
X800473Y773737D1*
X804320Y777584D1*
X806221Y783332D1*
Y785233D1*
X804320Y790981D1*
X800473Y794784D1*
X794769Y796685D1*
X792868D1*
X787120Y794784D1*
X783273Y790981D1*
X781372Y785233D1*
X1148440Y1381142D2*
D82*
X1128344Y1401795D1*
X1148440Y1422448D1*
X1198514Y1439122D2*
Y1488188D1*
X1148440Y1504863D2*
X1128344Y1525516D1*
X1148440Y1546169D1*
X1188565Y1656698D2*
X1128278Y1635985D1*
X1188565Y1615332D1*
X1168469Y1623092D2*
Y1648938D1*
X1128277Y1691459D2*
X1188565D1*
X1128277Y1673373D2*
Y1709545D1*
Y1744306D2*
X1188565D1*
X1128277Y1726220D2*
Y1762393D1*
Y1779067D2*
X1188565D1*
X1128277Y1831914D2*
X1188565D1*
X1128277Y1795741D1*
X1188565D1*
X1128277Y1848589D2*
X1156996Y1869242D1*
X1188565D1*
X1128277Y1889895D2*
X1156996Y1869242D1*
X1128344Y1919462D2*
X1131196Y1911762D1*
X1136900Y1909136D1*
X1142670D1*
X1148373Y1911762D1*
X1151292Y1916896D1*
X1154144Y1927222D1*
X1156996Y1934982D1*
X1162766Y1940116D1*
X1168469Y1942682D1*
X1177092D1*
X1182795Y1940116D1*
X1185714Y1937549D1*
X1188565Y1929789D1*
Y1919462D1*
X1185714Y1911762D1*
X1182795Y1909136D1*
X1177092Y1906569D1*
X1168469D1*
X1162766Y1909136D1*
X1156996Y1914329D1*
X1154144Y1922029D1*
X1151292Y1932356D1*
X1148373Y1937549D1*
X1142670Y1940116D1*
X1136900D1*
X1131196Y1937549D1*
X1128344Y1929789D1*
Y1919462D1*
X1188565Y1985203D2*
X1128344D1*
X1168469Y1959357D1*
Y1998096D1*
X522400Y1966840D2*
D78*
Y1982360D1*
X520499Y1987494D1*
X518554Y1989244D1*
X514751Y1990956D1*
X509003D1*
X505200Y1989245D1*
X503255Y1987494D1*
X501354Y1982360D1*
Y1966840D1*
X541546D1*
X520499Y2002072D2*
Y2017552D1*
X518554Y2022725D1*
X516652Y2024476D1*
X512850Y2026187D1*
X509003D1*
X505200Y2024476D1*
X503255Y2022725D1*
X501354Y2017552D1*
Y2002072D1*
X541546D1*
X520499Y2014129D2*
X541546Y2026187D1*
X501354Y2047650D2*
X503255Y2044188D1*
X507102Y2040765D1*
X510904Y2039014D1*
X516652Y2037303D1*
X526247D1*
X531951Y2039014D1*
X535798Y2040765D1*
X539600Y2044188D1*
X541546Y2047650D1*
Y2054534D1*
X539600Y2057956D1*
X535798Y2061418D1*
X531951Y2063130D1*
X526247Y2064841D1*
X516652D1*
X510904Y2063130D1*
X507102Y2061418D1*
X503255Y2057956D1*
X501354Y2054534D1*
Y2047650D1*
X510904Y2101783D2*
X507102Y2100072D1*
X503255Y2096610D1*
X501354Y2093188D1*
Y2086303D1*
X503255Y2082841D1*
X507102Y2079419D1*
X510904Y2077668D1*
X516652Y2075957D1*
X526247D1*
X531951Y2077668D1*
X535798Y2079419D1*
X539600Y2082841D1*
X541546Y2086303D1*
Y2093188D1*
X539600Y2096610D1*
X535798Y2100072D1*
X531951Y2101783D1*
X526247D1*
Y2093188D1*
X1467238Y2331722D2*
D79*
X1470565Y2328394D1*
X1473969Y2331722D1*
X1470565Y2335126D1*
X1467238Y2331722D1*
X1470565Y2308276D2*
Y2261386D1*
X1495584Y2308276D2*
Y2237940D1*
Y2298217D2*
X1502316Y2304872D1*
X1508971Y2308276D1*
X1519030D1*
X1525762Y2304872D1*
X1532416Y2298217D1*
X1535821Y2288158D1*
Y2281426D1*
X1532416Y2271445D1*
X1525762Y2264713D1*
X1519030Y2261386D1*
X1508971D1*
X1502316Y2264713D1*
X1495584Y2271445D1*
X1597672Y2298217D2*
X1590940Y2304949D1*
X1584208Y2308276D1*
X1574226D1*
X1567495Y2304949D1*
X1560840Y2298217D1*
X1557436Y2288158D1*
Y2281504D1*
X1560840Y2271445D1*
X1567495Y2264790D1*
X1574226Y2261386D1*
X1584208D1*
X1590940Y2264790D1*
X1597672Y2271445D1*
X1619287Y2288158D2*
X1659446D1*
Y2294890D1*
X1656118Y2301622D1*
X1652791Y2304949D1*
X1646059Y2308276D1*
X1636000D1*
X1629346Y2304949D1*
X1622614Y2298217D1*
X1619287Y2288158D1*
Y2281504D1*
X1622614Y2271445D1*
X1629346Y2264790D1*
X1636000Y2261386D1*
X1646059D1*
X1652791Y2264790D1*
X1659446Y2271445D1*
X1707833Y2331722D2*
X1701179D1*
X1694447Y2328394D1*
X1691120Y2318335D1*
Y2261386D1*
X1681060Y2308276D2*
X1704506D1*
X1732775Y2268117D2*
X1729448Y2264713D1*
X1732775Y2261386D1*
X1736180Y2264713D1*
X1732775Y2268117D1*
X1774508Y2308276D2*
X1767854Y2304949D1*
X1761122Y2298217D1*
X1757795Y2288158D1*
Y2281504D1*
X1761122Y2271445D1*
X1767854Y2264790D1*
X1774508Y2261386D1*
X1784567D1*
X1791299Y2264790D1*
X1797954Y2271445D1*
X1801358Y2281504D1*
Y2288158D1*
X1797954Y2298217D1*
X1791299Y2304949D1*
X1784567Y2308276D1*
X1774508D1*
X1822973D2*
Y2261386D1*
Y2288158D2*
X1826378Y2298217D1*
X1833032Y2304949D1*
X1839764Y2308276D1*
X1849823D1*
X1911597Y2304949D2*
Y2251327D1*
X1908270Y2241345D1*
X1904942Y2237940D1*
X1898211Y2234613D1*
X1888152D1*
X1881497Y2237940D1*
X1911597Y2294890D2*
X1904942Y2301544D1*
X1898211Y2304949D1*
X1888152D1*
X1881497Y2301544D1*
X1874765Y2294890D1*
X1871438Y2284831D1*
Y2278099D1*
X1874765Y2268117D1*
X1881497Y2261386D1*
X1888152Y2258058D1*
X1898211D1*
X1904942Y2261386D1*
X1911597Y2268117D1*
X1027394Y1308619D2*
D83*
Y1188043D1*
X1096238D1*
X1133292Y1233938D2*
X1202136D1*
Y1245479D1*
X1196432Y1257019D1*
X1190728Y1262723D1*
X1179188Y1268427D1*
X1161944D1*
X1150536Y1262723D1*
X1138996Y1251182D1*
X1133292Y1233938D1*
Y1222531D1*
X1138996Y1205287D1*
X1150536Y1193879D1*
X1161944Y1188043D1*
X1179188D1*
X1190728Y1193879D1*
X1202136Y1205287D1*
X1308034Y1268427D2*
Y1188043D1*
Y1251182D2*
X1296626Y1262723D1*
X1285086Y1268427D1*
X1267974D1*
X1256434Y1262723D1*
X1245026Y1251182D1*
X1239190Y1233938D1*
Y1222531D1*
X1245026Y1205287D1*
X1256434Y1193879D1*
X1267974Y1188043D1*
X1285086D1*
X1296626Y1193879D1*
X1308034Y1205287D1*
X1345088Y1268427D2*
Y1188043D1*
Y1233938D2*
X1350924Y1251182D1*
X1362332Y1262723D1*
X1373872Y1268427D1*
X1391116D1*
X1428170D2*
Y1188043D1*
Y1245479D2*
X1445415Y1262723D1*
X1456955Y1268427D1*
X1474066D1*
X1485607Y1262723D1*
X1491310Y1245479D1*
Y1188043D1*
X1391365Y1102664D2*
D84*
X1387563Y1110357D1*
X1376067Y1114160D1*
X1364571D1*
X1353075Y1110357D1*
X1349272Y1102664D1*
X1353075Y1095059D1*
X1360768Y1091168D1*
X1379869Y1087365D1*
X1387563Y1083563D1*
X1391365Y1075869D1*
Y1072067D1*
X1387563Y1064462D1*
X1376067Y1060571D1*
X1364571D1*
X1353075Y1064462D1*
X1349272Y1072067D1*
X1416068Y1140955D2*
Y1060571D1*
X1454359Y1114160D2*
X1416068Y1075869D1*
X1431367Y1091168D2*
X1458161Y1060571D1*
X1482864Y1140955D2*
X1486667Y1137152D1*
X1490558Y1140955D1*
X1486667Y1144846D1*
X1482864Y1140955D1*
X1486667Y1114160D2*
Y1060571D1*
X1515260Y1140955D2*
Y1060571D1*
X1539963Y1140955D2*
Y1060571D1*
X1606759Y1102664D2*
X1602957Y1110357D1*
X1591461Y1114160D1*
X1579965D1*
X1568469Y1110357D1*
X1564666Y1102664D1*
X1568469Y1095059D1*
X1576162Y1091168D1*
X1595263Y1087365D1*
X1602957Y1083563D1*
X1606759Y1075869D1*
Y1072067D1*
X1602957Y1064462D1*
X1591461Y1060571D1*
X1579965D1*
X1568469Y1064462D1*
X1564666Y1072067D1*
X1159639Y997220D2*
Y932134D1*
X1163062Y920727D1*
X1169986Y916836D1*
X1176831D1*
X1149293Y970425D2*
X1173408D1*
X1199063Y997220D2*
Y916836D1*
Y955126D2*
X1209409Y966622D1*
X1216334Y970425D1*
X1226680D1*
X1233525Y966622D1*
X1236947Y955126D1*
Y916836D1*
X1300486Y970425D2*
Y916836D1*
Y958929D2*
X1293641Y966622D1*
X1286717Y970425D1*
X1276450D1*
X1269526Y966622D1*
X1262681Y958929D1*
X1259179Y947433D1*
Y939828D1*
X1262681Y928332D1*
X1269526Y920727D1*
X1276450Y916836D1*
X1286717D1*
X1293641Y920727D1*
X1300486Y928332D1*
X1333065Y997220D2*
Y932134D1*
X1336487Y920727D1*
X1343411Y916836D1*
X1350256D1*
X1322718Y970425D2*
X1346833D1*
X1442474Y997220D2*
X1445896Y993417D1*
X1449398Y997220D1*
X1445896Y1001111D1*
X1442474Y997220D1*
X1445896Y970425D2*
Y916836D1*
X1471630Y970425D2*
Y916836D1*
Y955126D2*
X1481977Y966622D1*
X1488901Y970425D1*
X1499168D1*
X1506092Y966622D1*
X1509514Y955126D1*
Y916836D1*
X1573053Y997220D2*
Y916836D1*
Y958929D2*
X1566208Y966622D1*
X1559284Y970425D1*
X1548938D1*
X1542093Y966622D1*
X1535169Y958929D1*
X1531747Y947433D1*
Y939828D1*
X1535169Y928332D1*
X1542093Y920727D1*
X1548938Y916836D1*
X1559284D1*
X1566208Y920727D1*
X1573053Y928332D1*
X1595286Y970425D2*
Y932134D1*
X1598708Y920727D1*
X1605632Y916836D1*
X1615978D1*
X1622823Y920727D1*
X1633169Y932134D1*
Y970425D2*
Y916836D1*
X1693286Y958929D2*
X1689864Y966622D1*
X1679517Y970425D1*
X1669171D1*
X1658824Y966622D1*
X1655402Y958929D1*
X1658824Y951324D1*
X1665748Y947433D1*
X1682940Y943630D1*
X1689864Y939828D1*
X1693286Y932134D1*
Y928332D1*
X1689864Y920727D1*
X1679517Y916836D1*
X1669171D1*
X1658824Y920727D1*
X1655402Y928332D1*
X1725865Y997220D2*
Y932134D1*
X1729287Y920727D1*
X1736211Y916836D1*
X1743056D1*
X1715518Y970425D2*
X1739634D1*
X1765288D2*
Y916836D1*
Y947433D2*
X1768790Y958929D1*
X1775635Y966622D1*
X1782559Y970425D1*
X1792906D1*
X1818640D2*
X1839253Y916836D1*
X1832409Y901537D1*
X1825485Y893844D1*
X1818640Y890041D1*
X1815138D1*
X1859946Y970425D2*
X1839253Y916836D1*
X1530503Y839189D2*
Y785599D1*
Y823890D2*
X1541999Y835386D1*
X1549693Y839189D1*
X1561100D1*
X1568794Y835386D1*
X1572596Y823890D1*
Y785599D1*
X1597299Y816197D2*
X1643195D1*
Y823890D1*
X1639392Y831584D1*
X1635590Y835386D1*
X1627896Y839189D1*
X1616400D1*
X1608795Y835386D1*
X1601102Y827693D1*
X1597299Y816197D1*
Y808592D1*
X1601102Y797095D1*
X1608795Y789490D1*
X1616400Y785599D1*
X1627896D1*
X1635590Y789490D1*
X1643195Y797095D1*
X1667898Y816197D2*
X1713794D1*
Y823890D1*
X1709991Y831584D1*
X1706188Y835386D1*
X1698495Y839189D1*
X1686999D1*
X1679394Y835386D1*
X1671700Y827693D1*
X1667898Y816197D1*
Y808592D1*
X1671700Y797095D1*
X1679394Y789490D1*
X1686999Y785599D1*
X1698495D1*
X1706188Y789490D1*
X1713794Y797095D1*
X1784392Y865983D2*
Y785599D1*
Y827693D2*
X1776787Y835386D1*
X1769094Y839189D1*
X1757597D1*
X1749992Y835386D1*
X1742299Y827693D1*
X1738496Y816197D1*
Y808592D1*
X1742299Y797095D1*
X1749992Y789490D1*
X1757597Y785599D1*
X1769094D1*
X1776787Y789490D1*
X1784392Y797095D1*
X1851188Y827693D2*
X1847386Y835386D1*
X1835890Y839189D1*
X1824394D1*
X1812897Y835386D1*
X1809095Y827693D1*
X1812897Y820088D1*
X1820591Y816197D1*
X1839692Y812394D1*
X1847386Y808592D1*
X1851188Y800898D1*
Y797095D1*
X1847386Y789490D1*
X1835890Y785599D1*
X1824394D1*
X1812897Y789490D1*
X1809095Y797095D1*
X2023491Y1433459D2*
D77*
X2034965Y1443507D1*
X2046439Y1433459D1*
X2055702Y1408422D2*
X2082961D1*
X2092225Y1433459D2*
X2103699Y1443507D1*
X2115173Y1433459D1*
X1977785Y1130274D2*
X1989259Y1140322D1*
X2000733Y1130274D1*
X2009996Y1105237D2*
X2037255D1*
X2046519Y1130274D2*
X2057993Y1140322D1*
X2069467Y1130274D1*
M02*
