G04 DipTrace 3.3.1.3*
G04 Bottom.gbr*
%MOIN*%
G04 #@! TF.FileFunction,Copper,L2,Bot*
G04 #@! TF.Part,Single*
%AMOUTLINE0*
4,1,4,
0.042866,0.024749,
0.024749,-0.042866,
-0.042866,-0.024749,
-0.024749,0.042866,
0.042866,0.024749,
0*%
%AMOUTLINE3*
4,1,4,
-0.047475,0.014004,
0.014004,0.047475,
0.047475,-0.014004,
-0.014004,-0.047475,
-0.047475,0.014004,
0*%
%AMOUTLINE6*
4,1,4,
-0.042945,-0.02461,
-0.02461,0.042945,
0.042945,0.02461,
0.02461,-0.042945,
-0.042945,-0.02461,
0*%
%AMOUTLINE9*
4,1,4,
0.0,-0.041759,
-0.041759,0.0,
0.0,0.041759,
0.041759,0.0,
0.0,-0.041759,
0*%
%AMOUTLINE12*
4,1,4,
-0.041759,0.0,
0.0,0.041759,
0.041759,0.0,
0.0,-0.041759,
-0.041759,0.0,
0*%
%AMOUTLINE15*
4,1,4,
-0.027776,-0.04097,
-0.04097,0.027776,
0.027776,0.04097,
0.04097,-0.027776,
-0.027776,-0.04097,
0*%
%AMOUTLINE18*
4,1,4,
-0.026971,-0.041504,
-0.041504,0.026971,
0.026971,0.041504,
0.041504,-0.026971,
-0.026971,-0.041504,
0*%
%AMOUTLINE21*
4,1,16,
-0.042584,-0.03111,
-0.036537,-0.050202,
-0.022804,-0.064778,
-0.004106,-0.071954,
0.015853,-0.070306,
0.033119,-0.060161,
0.044276,-0.043529,
0.04711,-0.023703,
0.042584,0.03111,
0.036537,0.050202,
0.022804,0.064778,
0.004106,0.071954,
-0.015853,0.070306,
-0.033119,0.060161,
-0.044276,0.043529,
-0.04711,0.023703,
-0.042584,-0.03111,
0*%
%AMOUTLINE24*
4,1,16,
-0.042626,-0.030612,
-0.036577,-0.049703,
-0.022845,-0.064281,
-0.004147,-0.071455,
0.015811,-0.069807,
0.033079,-0.059663,
0.044235,-0.04303,
0.04707,-0.023206,
0.042626,0.030612,
0.036577,0.049703,
0.022845,0.064281,
0.004147,0.071455,
-0.015811,0.069807,
-0.033079,0.059663,
-0.044235,0.04303,
-0.04707,0.023206,
-0.042626,-0.030612,
0*%
G04 #@! TA.AperFunction,Conductor*
%ADD13C,0.01*%
%ADD14C,0.015*%
%ADD15C,0.02*%
G04 #@! TA.AperFunction,CopperBalancing*
%ADD16C,0.025*%
%ADD17C,0.013*%
G04 #@! TA.AperFunction,ComponentPad*
%ADD18C,0.07*%
%ADD19C,0.05*%
%ADD20R,0.05X0.05*%
%ADD21C,0.06*%
%ADD22R,0.06X0.06*%
%ADD23O,0.041339X0.085*%
%ADD24R,0.041339X0.085*%
%ADD25R,0.106299X0.08*%
G04 #@! TA.AperFunction,ComponentPad*
%ADD26C,0.059055*%
%ADD27R,0.066929X0.066929*%
%ADD28C,0.066929*%
%ADD29C,0.07*%
%ADD30R,0.065X0.065*%
%ADD31C,0.065*%
%ADD33R,0.037402X0.11*%
%ADD34R,0.127953X0.11*%
G04 #@! TA.AperFunction,ViaPad*
%ADD35C,0.04*%
G04 #@! TA.AperFunction,ComponentPad*
%ADD89OUTLINE0*%
%ADD92OUTLINE3*%
%ADD95OUTLINE6*%
%ADD98OUTLINE9*%
%ADD101OUTLINE12*%
%ADD104OUTLINE15*%
%ADD107OUTLINE18*%
%ADD110OUTLINE21*%
%ADD113OUTLINE24*%
%FSLAX26Y26*%
G04*
G70*
G90*
G75*
G01*
G04 Bottom*
%LPD*%
X536956Y1374575D2*
D13*
X921339D1*
X963293Y1416529D1*
X1000852D1*
X1038285D1*
X1089840Y1468085D1*
X1652281D1*
X1663283Y1479086D1*
X1757023D1*
X1861305Y1583368D1*
X2089085D1*
X1300852Y1816529D2*
X1682522D1*
X1694146Y1828154D1*
Y1818550D1*
D14*
X1809044D1*
X1944419Y1683175D1*
X2177873Y1548560D2*
D13*
Y1572864D1*
X2102371Y1497363D1*
X1929407D1*
X1926461Y1500309D1*
X1694146Y1728154D2*
X1312477D1*
X1300852Y1716529D1*
X1879864Y1195256D2*
X2077141D1*
X2130287Y1248401D1*
X1300852Y1716529D2*
Y1710312D1*
X1163335D1*
X1113340Y1047881D2*
X968842D1*
Y1049573D1*
X536956Y1474575D2*
X908851D1*
X950805Y1516529D1*
X1000852D1*
X1200779D1*
X1250826Y1566577D1*
X1650784D1*
X1663283Y1579075D1*
X1757023D1*
X1788270Y1610322D1*
X2031994D1*
X2050742Y1629070D1*
X2181978D1*
X2262304Y1709396D1*
X2268792D1*
X1300852Y1916529D2*
X1682522D1*
X1694146Y1928154D1*
X1338317Y3303894D2*
Y3003926D1*
X1544545Y2797697D1*
X1300852Y1616529D2*
X1682522D1*
X1694146Y1628154D1*
Y1528154D2*
X1312477D1*
X1300852Y1516529D1*
X713393Y2111254D2*
Y2079012D1*
X733751Y2058654D1*
X903980D1*
X911432Y2066107D1*
X1132506D1*
X1144587Y2054025D1*
X1578981Y872898D2*
D14*
Y1126271D1*
Y872898D2*
Y857340D1*
X1575792Y854151D1*
Y999886D1*
X1828902D1*
X1949151Y879637D1*
X1964326D1*
X1959859Y1326285D2*
X2162964D1*
X2211221Y1374543D1*
X1916650Y1021917D2*
X2113872D1*
X2167024Y1075069D1*
X1000852Y2016529D2*
X813393D1*
Y2011254D1*
X1204371Y1415973D2*
X1494073Y1126271D1*
X1578981D1*
X690183Y3615082D2*
X760894Y3544371D1*
X807333D1*
X1009149Y3342554D1*
X1143423D1*
X1188333Y3297645D1*
X1120801Y2937183D2*
Y2943432D1*
X1188333Y3297645D2*
Y3103915D1*
X1308221Y2984027D1*
Y2791272D1*
X1225829Y2022779D2*
X1219579Y2016529D1*
X1000852D1*
X1578981Y872898D2*
D15*
Y791469D1*
X1760280Y3705251D2*
D14*
X1689569Y3634540D1*
X1688112D1*
X1535029Y3481457D1*
Y3204104D1*
X1529321Y3198396D1*
X1300852Y2016529D2*
X1307102Y2022779D1*
X1744524D1*
X1788270Y2066524D1*
Y2047776D1*
X1800768D1*
X1794519Y2054025D1*
X613393Y2011254D2*
Y1972784D1*
X639342Y1946835D1*
X899911D1*
X919611Y1966535D1*
X1250857D1*
X1300852Y2016529D1*
X942791Y3136704D2*
Y2981857D1*
X1276935Y2647713D1*
X1438306D1*
X1794519Y2291501D1*
Y2054025D1*
X584951Y1161948D2*
X617262D1*
X1092360Y686850D1*
X1190634D1*
Y698036D1*
X1409746Y752445D2*
X1617771D1*
X1662842Y797516D1*
X1816869D1*
X1912562Y701823D1*
Y686451D1*
X1669581Y872872D2*
X1662842D1*
Y797516D1*
X801962Y3401172D2*
D13*
X885318D1*
X1054557Y3231934D1*
Y3148470D1*
X1042791Y3136704D1*
X1684726Y3503894D2*
X1633247D1*
Y3202322D1*
X1629321Y3198396D1*
X684905Y924683D2*
Y895128D1*
X763377Y816655D1*
X911050D1*
X1082793Y644913D1*
X1247815D1*
X1289728Y686825D1*
X1468843D1*
X1536739Y618928D1*
X536956Y1874575D2*
X958898D1*
X1000852Y1916529D1*
X694634Y1816550D2*
X594981D1*
X536956Y1874575D1*
Y1774575D2*
X958898D1*
X1000852Y1816529D1*
X1075844Y879149D2*
X1119221Y835772D1*
Y741502D1*
X1116798Y610046D2*
X1242960D1*
X1297209Y664296D1*
X1406419D1*
X1458267Y612449D1*
X1452022Y2791272D2*
X1469729D1*
D14*
X2131983Y2129018D1*
Y2085272D1*
X1383221Y2791272D2*
D13*
Y2751556D1*
D14*
X1415558Y2719218D1*
X1491788D1*
X2025745Y2185262D1*
Y2072773D1*
X1000852Y1716529D2*
D13*
Y1710312D1*
X969606Y1679065D1*
X541445D1*
X536956Y1674575D1*
X1239522Y2791272D2*
X1243186D1*
D14*
Y2738207D1*
X1298470Y2682922D1*
X1465591D1*
X1913256Y2235256D1*
Y2060275D1*
X1634833Y627077D2*
Y642088D1*
X1560941Y715980D1*
X1301507D1*
X1257075Y760411D1*
Y835411D1*
X1773826Y702819D2*
X1710575D1*
X1634833Y627077D1*
X1257075Y970629D2*
D13*
X1298049D1*
D15*
X1369453Y899225D1*
X1462103D1*
D13*
X1488430Y872898D1*
X1300852Y1416529D2*
X1682522D1*
X1694146Y1428154D1*
X813393Y2111254D2*
Y2091522D1*
X1375813D1*
X536956Y1574575D2*
X921360D1*
X963314Y1616529D1*
X1000852D1*
X1194540D1*
X1244577Y1666566D1*
X1644535D1*
X1657033Y1679065D1*
X1750773D1*
X1800768Y1629070D1*
X2006997D1*
X2044493Y1666566D1*
Y1684398D1*
X2050065D1*
D35*
X2089085Y1583368D3*
X1163335Y1710312D3*
X1113340Y1047881D3*
X1544545Y2797697D3*
X1144587Y2054025D3*
X1204371Y1415973D3*
X1120801Y2937183D3*
X1225829Y2022779D3*
X1578981Y791469D3*
X1409746Y752445D3*
X694634Y1816550D3*
X1075844Y879149D3*
X1119221Y741502D3*
X1116798Y610046D3*
X1369453Y899225D3*
X1375813Y2091522D3*
X1192602Y1337478D2*
D16*
X1842667D1*
X1192997Y1312609D2*
X1842272D1*
X1193355Y1287741D2*
X1841914D1*
X1193750Y1262872D2*
X1841519D1*
X1194108Y1238003D2*
X1822106D1*
X1194503Y1213134D2*
X1814318D1*
X1194861Y1188266D2*
X1484004D1*
X1673952D2*
X1819594D1*
X1195256Y1163397D2*
X1484004D1*
X1673952D2*
X1824868D1*
X1195616Y1138528D2*
X1484004D1*
X1673952D2*
X1836208D1*
X1196010Y1113659D2*
X1484004D1*
X1673952D2*
X1839258D1*
X1196369Y1088791D2*
X1484004D1*
X1673952D2*
X1838899D1*
X1196764Y1063922D2*
X1484004D1*
X1673952D2*
X1838504D1*
X1341234Y1039053D2*
X1838146D1*
X1341234Y1014184D2*
X1837751D1*
X1341234Y989315D2*
X1837392D1*
X1194624Y1039129D2*
X1338725D1*
Y984406D1*
X1348237Y974889D1*
X1839653Y974890D1*
X1842104Y1136060D1*
X1838083Y1139061D1*
X1835006Y1142306D1*
X1832473Y1145993D1*
X1830549Y1150031D1*
X1829279Y1154327D1*
X1816642Y1214293D1*
X1816410Y1218759D1*
X1816878Y1223207D1*
X1818037Y1227525D1*
X1819857Y1231611D1*
X1822294Y1235360D1*
X1825288Y1238683D1*
X1828764Y1241497D1*
X1832638Y1243731D1*
X1836814Y1245333D1*
X1843792Y1246903D1*
X1845532Y1362319D1*
X1321648Y1362347D1*
X1314398Y1360106D1*
X1305405Y1358680D1*
X1296300D1*
X1287306Y1360106D1*
X1280199Y1362346D1*
X1189737Y1362347D1*
X1194633Y1039163D1*
X1488342Y1209771D2*
X1671457D1*
Y1042771D1*
X1486504D1*
Y1209771D1*
X1488342D1*
X1486531Y1209747D2*
D17*
X1671431Y1042794D1*
Y1209747D2*
X1486531Y1042794D1*
D18*
X1912562Y686451D3*
D89*
X1964326Y879637D3*
D18*
X1190634Y698036D3*
D92*
X1014981Y602401D3*
D19*
X1042791Y3136704D3*
D20*
X942791D3*
D21*
X1629321Y3198396D3*
D22*
X1529321D3*
D23*
X1452020Y2791260D3*
X1308219D3*
D24*
X1239520D3*
D23*
X1383219D3*
D25*
X1257075Y835411D3*
Y970629D3*
D18*
X1826209Y895838D3*
D95*
X1773826Y702819D3*
D98*
X690183Y3615082D3*
D26*
X760894Y3544371D3*
D101*
X1760280Y3705251D3*
D26*
X1689569Y3634540D3*
D27*
X1694146Y1928154D3*
D28*
Y1828154D3*
Y1728154D3*
Y1628154D3*
Y1528154D3*
Y1428154D3*
D27*
X536956Y1874575D3*
D28*
Y1774575D3*
Y1674575D3*
Y1574575D3*
Y1474575D3*
Y1374575D3*
D27*
X813393Y2111254D3*
D28*
Y2011254D3*
X713393Y2111254D3*
Y2011254D3*
X613393Y2111254D3*
Y2011254D3*
D18*
X1188333Y3297645D3*
D29*
X801962Y3401172D3*
D18*
X1338317Y3303894D3*
D29*
X1684726Y3503894D3*
D18*
X968840Y1049573D3*
D29*
X584951Y1161948D3*
D18*
X1794519Y2054025D3*
D29*
X1944419Y1683175D3*
D18*
X1066348Y804263D3*
D29*
X684905Y924683D3*
D18*
X997456Y938123D3*
D29*
X613852Y1051469D3*
D18*
X955333Y1162020D3*
D29*
X569078Y1265981D3*
D18*
X2131983Y2085272D3*
D29*
X2268792Y1709396D3*
D18*
X2025745Y2072773D3*
D29*
X2162553Y1696897D3*
D18*
X1913256Y2060275D3*
D29*
X2050065Y1684398D3*
D104*
X1926462Y1500309D3*
D18*
X1959860Y1326286D3*
X2211222Y1374544D3*
D104*
X2177874Y1548560D3*
D107*
X1879864Y1195256D3*
D18*
X1916650Y1021918D3*
X2167024Y1075070D3*
D107*
X2130286Y1248402D3*
D30*
X1000852Y2016529D3*
D31*
Y1916529D3*
Y1816529D3*
Y1716529D3*
Y1616529D3*
Y1516529D3*
Y1416529D3*
X1300852D3*
Y1516529D3*
Y1616529D3*
Y1716529D3*
Y1816529D3*
Y1916529D3*
Y2016529D3*
D33*
X1669581Y872872D3*
X1578981Y872898D3*
X1488430D3*
D34*
X1578981Y1126271D3*
D31*
X1458267Y612449D3*
X1536739Y618928D3*
X1634833Y627077D3*
X1360175Y604351D3*
D110*
X1274784Y514368D3*
D113*
X1733823Y552270D3*
M02*
