G04 DipTrace 3.3.1.3*
G04 BottomMask.gbr*
%MOIN*%
G04 #@! TF.FileFunction,Soldermask,Bot*
G04 #@! TF.Part,Single*
%AMOUTLINE1*
4,1,4,
0.047692,0.027535,
0.027535,-0.047692,
-0.047692,-0.027535,
-0.027535,0.047692,
0.047692,0.027535,
0*%
%AMOUTLINE4*
4,1,4,
-0.052819,0.01558,
0.01558,0.052819,
0.052819,-0.01558,
-0.01558,-0.052819,
-0.052819,0.01558,
0*%
%AMOUTLINE7*
4,1,4,
-0.047779,-0.027381,
-0.027381,0.047779,
0.047779,0.027381,
0.027381,-0.047779,
-0.047779,-0.027381,
0*%
%AMOUTLINE10*
4,1,4,
0.0,-0.047331,
-0.047331,0.0,
0.0,0.047331,
0.047331,0.0,
0.0,-0.047331,
0*%
%AMOUTLINE13*
4,1,4,
-0.047331,0.0,
0.0,0.047331,
0.047331,0.0,
0.0,-0.047331,
-0.047331,0.0,
0*%
%AMOUTLINE16*
4,1,4,
-0.030902,-0.045582,
-0.045582,0.030902,
0.030902,0.045582,
0.045582,-0.030902,
-0.030902,-0.045582,
0*%
%AMOUTLINE19*
4,1,4,
-0.030007,-0.046176,
-0.046176,0.030007,
0.030007,0.046176,
0.046176,-0.030007,
-0.030007,-0.046176,
0*%
%AMOUTLINE22*
4,1,16,
-0.046474,-0.031877,
-0.040021,-0.052249,
-0.025056,-0.068134,
-0.004678,-0.075955,
0.017074,-0.074158,
0.035891,-0.063103,
0.048049,-0.044977,
0.051073,-0.023822,
0.046474,0.031877,
0.040021,0.052249,
0.025056,0.068134,
0.004678,0.075955,
-0.017074,0.074158,
-0.035891,0.063103,
-0.048049,0.044977,
-0.051073,0.023822,
-0.046474,-0.031877,
0*%
%AMOUTLINE25*
4,1,16,
-0.046516,-0.031378,
-0.040062,-0.051751,
-0.025096,-0.067637,
-0.004719,-0.075456,
0.017031,-0.07366,
0.03585,-0.062604,
0.048008,-0.044478,
0.051033,-0.023324,
0.046516,0.031378,
0.040062,0.051751,
0.025096,0.067637,
0.004719,0.075456,
-0.017031,0.07366,
-0.03585,0.062604,
-0.048008,0.044478,
-0.051033,0.023324,
-0.046516,-0.031378,
0*%
%ADD37C,0.047244*%
%ADD48R,0.135833X0.11788*%
%ADD50R,0.045282X0.11788*%
%ADD52C,0.07288*%
%ADD54R,0.07288X0.07288*%
%ADD56C,0.07788*%
%ADD58C,0.074809*%
%ADD60R,0.074809X0.074809*%
%ADD62C,0.066935*%
%ADD64R,0.114179X0.08788*%
%ADD66R,0.049219X0.09288*%
%ADD68O,0.049219X0.09288*%
%ADD70R,0.06788X0.06788*%
%ADD72C,0.06788*%
%ADD74R,0.05788X0.05788*%
%ADD76C,0.05788*%
%ADD78C,0.07788*%
%ADD90OUTLINE1*%
%ADD93OUTLINE4*%
%ADD96OUTLINE7*%
%ADD99OUTLINE10*%
%ADD102OUTLINE13*%
%ADD105OUTLINE16*%
%ADD108OUTLINE19*%
%ADD111OUTLINE22*%
%ADD114OUTLINE25*%
%FSLAX26Y26*%
G04*
G70*
G90*
G75*
G01*
G04 BotMask*
%LPD*%
D78*
X1912562Y686451D3*
D90*
X1964326Y879637D3*
D78*
X1190634Y698036D3*
D93*
X1014981Y602401D3*
D76*
X1042791Y3136704D3*
D74*
X942791D3*
D72*
X1629321Y3198396D3*
D70*
X1529321D3*
D68*
X1452020Y2791260D3*
X1308219D3*
D66*
X1239520D3*
D68*
X1383219D3*
D64*
X1257075Y835411D3*
Y970629D3*
D78*
X1826209Y895838D3*
D96*
X1773826Y702819D3*
D99*
X690183Y3615082D3*
D62*
X760894Y3544371D3*
D102*
X1760280Y3705251D3*
D62*
X1689569Y3634540D3*
D60*
X1694146Y1928154D3*
D58*
Y1828154D3*
Y1728154D3*
Y1628154D3*
Y1528154D3*
Y1428154D3*
D60*
X536956Y1874575D3*
D58*
Y1774575D3*
Y1674575D3*
Y1574575D3*
Y1474575D3*
Y1374575D3*
D60*
X813393Y2111254D3*
D58*
Y2011254D3*
X713393Y2111254D3*
Y2011254D3*
X613393Y2111254D3*
Y2011254D3*
D78*
X1188333Y3297645D3*
D56*
X801962Y3401172D3*
D78*
X1338317Y3303894D3*
D56*
X1684726Y3503894D3*
D78*
X968840Y1049573D3*
D56*
X584951Y1161948D3*
D78*
X1794519Y2054025D3*
D56*
X1944419Y1683175D3*
D78*
X1066348Y804263D3*
D56*
X684905Y924683D3*
D78*
X997456Y938123D3*
D56*
X613852Y1051469D3*
D78*
X955333Y1162020D3*
D56*
X569078Y1265981D3*
D78*
X2131983Y2085272D3*
D56*
X2268792Y1709396D3*
D78*
X2025745Y2072773D3*
D56*
X2162553Y1696897D3*
D78*
X1913256Y2060275D3*
D56*
X2050065Y1684398D3*
D105*
X1926462Y1500309D3*
D78*
X1959860Y1326286D3*
X2211222Y1374544D3*
D105*
X2177874Y1548560D3*
D108*
X1879864Y1195256D3*
D78*
X1916650Y1021918D3*
X2167024Y1075070D3*
D108*
X2130286Y1248402D3*
D54*
X1000852Y2016529D3*
D52*
Y1916529D3*
Y1816529D3*
Y1716529D3*
Y1616529D3*
Y1516529D3*
Y1416529D3*
X1300852D3*
Y1516529D3*
Y1616529D3*
Y1716529D3*
Y1816529D3*
Y1916529D3*
Y2016529D3*
D50*
X1669581Y872872D3*
X1578981Y872898D3*
X1488430D3*
D48*
X1578981Y1126271D3*
D52*
X1458267Y612449D3*
X1536739Y618928D3*
X1634833Y627077D3*
X1360175Y604351D3*
D111*
X1274784Y514368D3*
D114*
X1733823Y552270D3*
D37*
X1594550Y540743D3*
X1414062Y525842D3*
M02*
