M48
INCH
T01C0.019
T02C0.028
T03C0.035
T04C0.0354
T05C0.038
T06C0.0394
T07C0.0433
T08C0.0472
%
T01
X+020891Y+015834
X+013758Y+020915
X+012258Y+020228
X+011446Y+020540
X+011633Y+017103
X+012044Y+014160
X+011133Y+010479
X+010758Y+008791
X+011192Y+007415
X+011168Y+006100
X+014097Y+007524
X+013695Y+008992
X+015790Y+007915
X+006946Y+018166
X+011208Y+029372
X+015445Y+027977
T02
X+010428Y+031367
X+009428Y+031367
X+015293Y+031984
X+016293Y+031984
T03
X+014520Y+027913
X+013832Y+027913
X+013082Y+027913
X+012395Y+027913
T04
X+019126Y+006865
X+017738Y+007028
X+018262Y+008958
X+019643Y+008796
X+019166Y+010219
X+018799Y+011953
X+019599Y+013263
X+019265Y+015003
X+021779Y+015486
X+022112Y+013745
X+021303Y+012484
X+021670Y+010751
X+013009Y+014165
X+013009Y+015165
X+013009Y+016165
X+013009Y+017165
X+013009Y+018165
X+013009Y+019165
X+013009Y+020165
X+010009Y+020165
X+010009Y+019165
X+010009Y+018165
X+010009Y+017165
X+010009Y+016165
X+010009Y+015165
X+010009Y+014165
X+011906Y+006980
X+010150Y+006024
X+007609Y+035444
X+006902Y+036151
X+016896Y+036345
X+017603Y+037053
T05
X+011883Y+032976
X+013383Y+033039
X+016847Y+035039
X+008020Y+034012
X+017945Y+020540
X+019133Y+020603
X+020257Y+020728
X+021320Y+020853
X+021626Y+016969
X+022688Y+017094
X+020501Y+016844
X+019444Y+016832
X+009553Y+011620
X+009688Y+010496
X+009975Y+009381
X+010663Y+008043
X+006849Y+009247
X+006139Y+010515
X+005850Y+011619
X+005691Y+012660
T06
X+014583Y+006124
X+015367Y+006189
X+016348Y+006271
X+017363Y+005228G85X+017314Y+005817
X+013602Y+006044
X+012772Y+004849G85X+012724Y+005438
T07
X+016941Y+019282
X+016941Y+018282
X+016941Y+017282
X+016941Y+016282
X+016941Y+015282
X+016941Y+014282
X+008134Y+020113
X+008134Y+021113
X+007134Y+021113
X+007134Y+020113
X+006134Y+020113
X+006134Y+021113
X+005370Y+018746
X+005370Y+017746
X+005370Y+016746
X+005370Y+015746
X+005370Y+014746
X+005370Y+013746
T08
X+015946Y+005407
X+014141Y+005258
T00
M30
