G04 DipTrace 3.3.1.3*
G04 Top.gbr*
%MOIN*%
G04 #@! TF.FileFunction,Copper,L1,Top*
G04 #@! TF.Part,Single*
%AMOUTLINE0*
4,1,4,
0.042866,0.024749,
0.024749,-0.042866,
-0.042866,-0.024749,
-0.024749,0.042866,
0.042866,0.024749,
0*%
%AMOUTLINE3*
4,1,4,
-0.047475,0.014004,
0.014004,0.047475,
0.047475,-0.014004,
-0.014004,-0.047475,
-0.047475,0.014004,
0*%
%AMOUTLINE6*
4,1,4,
-0.042945,-0.02461,
-0.02461,0.042945,
0.042945,0.02461,
0.02461,-0.042945,
-0.042945,-0.02461,
0*%
%AMOUTLINE9*
4,1,4,
0.0,-0.041759,
-0.041759,0.0,
0.0,0.041759,
0.041759,0.0,
0.0,-0.041759,
0*%
%AMOUTLINE12*
4,1,4,
-0.041759,0.0,
0.0,0.041759,
0.041759,0.0,
0.0,-0.041759,
-0.041759,0.0,
0*%
%AMOUTLINE15*
4,1,4,
-0.027776,-0.04097,
-0.04097,0.027776,
0.027776,0.04097,
0.04097,-0.027776,
-0.027776,-0.04097,
0*%
%AMOUTLINE18*
4,1,4,
-0.026971,-0.041504,
-0.041504,0.026971,
0.026971,0.041504,
0.041504,-0.026971,
-0.026971,-0.041504,
0*%
%AMOUTLINE21*
4,1,16,
-0.042584,-0.03111,
-0.036537,-0.050202,
-0.022804,-0.064778,
-0.004106,-0.071954,
0.015853,-0.070306,
0.033119,-0.060161,
0.044276,-0.043529,
0.04711,-0.023703,
0.042584,0.03111,
0.036537,0.050202,
0.022804,0.064778,
0.004106,0.071954,
-0.015853,0.070306,
-0.033119,0.060161,
-0.044276,0.043529,
-0.04711,0.023703,
-0.042584,-0.03111,
0*%
%AMOUTLINE24*
4,1,16,
-0.042626,-0.030612,
-0.036577,-0.049703,
-0.022845,-0.064281,
-0.004147,-0.071455,
0.015811,-0.069807,
0.033079,-0.059663,
0.044235,-0.04303,
0.04707,-0.023206,
0.042626,0.030612,
0.036577,0.049703,
0.022845,0.064281,
0.004147,0.071455,
-0.015811,0.069807,
-0.033079,0.059663,
-0.044235,0.04303,
-0.04707,0.023206,
-0.042626,-0.030612,
0*%
G04 #@! TA.AperFunction,Conductor*
%ADD13C,0.01*%
%ADD14C,0.015*%
%ADD15C,0.02*%
G04 #@! TA.AperFunction,ComponentPad*
%ADD18C,0.07*%
%ADD19C,0.05*%
%ADD20R,0.05X0.05*%
%ADD21C,0.06*%
%ADD22R,0.06X0.06*%
%ADD23O,0.041339X0.085*%
%ADD24R,0.041339X0.085*%
%ADD26C,0.059055*%
%ADD27R,0.066929X0.066929*%
%ADD28C,0.066929*%
%ADD29C,0.07*%
%ADD30R,0.065X0.065*%
%ADD31C,0.065*%
G04 #@! TA.AperFunction,ViaPad*
%ADD35C,0.04*%
G04 #@! TA.AperFunction,ComponentPad*
%ADD89OUTLINE0*%
%ADD92OUTLINE3*%
%ADD95OUTLINE6*%
%ADD98OUTLINE9*%
%ADD101OUTLINE12*%
%ADD104OUTLINE15*%
%ADD107OUTLINE18*%
%ADD110OUTLINE21*%
%ADD113OUTLINE24*%
%FSLAX26Y26*%
G04*
G70*
G90*
G75*
G01*
G04 Top*
%LPD*%
X713393Y2011254D2*
D13*
Y1872784D1*
X775876Y1810301D1*
Y1485335D1*
X844682Y1416529D1*
X1000852D1*
X2089085Y1583368D2*
Y1623428D1*
X2162553Y1696897D1*
X1944419Y1683175D2*
Y1518267D1*
X1926461Y1500309D1*
X1694146Y1728154D2*
X1719567D1*
X1794519Y1653203D1*
Y1280602D1*
X1879864Y1195256D1*
X1163335Y1710312D2*
Y1097876D1*
X1113340Y1047881D1*
X1544545Y2797697D2*
Y2785199D1*
X1694146Y2635598D1*
Y1928154D1*
X1144587Y2054025D2*
X1141462Y2050901D1*
X1232078Y1960285D1*
Y1585304D1*
X1300852Y1516529D1*
X1959859Y1326285D2*
D14*
X1933216Y1326330D1*
X1916650Y1021917D2*
Y927312D1*
X1964326Y879637D1*
X1959859Y1326285D2*
Y1065125D1*
X1916650Y1021917D1*
X1933216Y1038465D2*
X1916650Y1021917D1*
X1000852Y2016529D2*
Y2002461D1*
X1111334D1*
X1204371Y1909424D1*
Y1415973D1*
X1308221Y2791272D2*
Y2868501D1*
X1264536Y2912186D1*
X1145798D1*
X1120801Y2937183D1*
X1308221Y2791272D2*
Y2142667D1*
X1225829Y2060275D1*
Y2022779D1*
X1014981Y602402D2*
Y752894D1*
X1066348Y804263D1*
X1578981Y791469D2*
D15*
X1079142D1*
D13*
X1066348Y804263D1*
X942791Y3136704D2*
D14*
Y3185913D1*
X967032Y3210154D1*
X1517562D1*
X1529321Y3198396D1*
X613393Y2011254D2*
X657138Y1967508D1*
Y1234136D1*
X584951Y1161948D1*
X1360175Y604351D2*
Y702875D1*
X1409746Y752445D1*
X1190634Y698036D2*
X1266490D1*
X1360175Y604351D1*
X997457Y938123D2*
D13*
Y920623D1*
X993397Y924683D1*
X684905D1*
X613852Y1051468D2*
Y1067088D1*
X694634Y1147871D1*
Y1816550D1*
X536956Y1774575D2*
X580376D1*
X625892Y1729060D1*
Y1322794D1*
X569079Y1265981D1*
X955333Y1162020D2*
X1075844Y1041510D1*
Y879149D1*
X1119221Y741502D2*
X1116798D1*
Y610046D1*
X613393Y2111254D2*
X591641D1*
X475907Y1995520D1*
Y1735624D1*
X536956Y1674575D1*
X1369453Y899225D2*
D15*
X1803607D1*
D13*
X1826209Y921827D1*
Y895838D1*
X1033310Y1174868D2*
Y1179117D1*
X1375813Y2091522D2*
Y2085283D1*
X1388301D1*
X1419558Y2054025D1*
Y1535235D1*
X1300852Y1416529D1*
D35*
X2089085Y1583368D3*
X1163335Y1710312D3*
X1113340Y1047881D3*
X1544545Y2797697D3*
X1144587Y2054025D3*
X1204371Y1415973D3*
X1120801Y2937183D3*
X1225829Y2022779D3*
X1578981Y791469D3*
X1409746Y752445D3*
X694634Y1816550D3*
X1075844Y879149D3*
X1119221Y741502D3*
X1116798Y610046D3*
X1369453Y899225D3*
X1375813Y2091522D3*
D18*
X1912562Y686451D3*
D89*
X1964326Y879637D3*
D18*
X1190634Y698036D3*
D92*
X1014981Y602401D3*
D19*
X1042791Y3136704D3*
D20*
X942791D3*
D21*
X1629321Y3198396D3*
D22*
X1529321D3*
D23*
X1452020Y2791260D3*
X1308219D3*
D24*
X1239520D3*
D23*
X1383219D3*
D18*
X1826209Y895838D3*
D95*
X1773826Y702819D3*
D98*
X690183Y3615082D3*
D26*
X760894Y3544371D3*
D101*
X1760280Y3705251D3*
D26*
X1689569Y3634540D3*
D27*
X1694146Y1928154D3*
D28*
Y1828154D3*
Y1728154D3*
Y1628154D3*
Y1528154D3*
Y1428154D3*
D27*
X536956Y1874575D3*
D28*
Y1774575D3*
Y1674575D3*
Y1574575D3*
Y1474575D3*
Y1374575D3*
D27*
X813393Y2111254D3*
D28*
Y2011254D3*
X713393Y2111254D3*
Y2011254D3*
X613393Y2111254D3*
Y2011254D3*
D18*
X1188333Y3297645D3*
D29*
X801962Y3401172D3*
D18*
X1338317Y3303894D3*
D29*
X1684726Y3503894D3*
D18*
X968840Y1049573D3*
D29*
X584951Y1161948D3*
D18*
X1794519Y2054025D3*
D29*
X1944419Y1683175D3*
D18*
X1066348Y804263D3*
D29*
X684905Y924683D3*
D18*
X997456Y938123D3*
D29*
X613852Y1051469D3*
D18*
X955333Y1162020D3*
D29*
X569078Y1265981D3*
D18*
X2131983Y2085272D3*
D29*
X2268792Y1709396D3*
D18*
X2025745Y2072773D3*
D29*
X2162553Y1696897D3*
D18*
X1913256Y2060275D3*
D29*
X2050065Y1684398D3*
D104*
X1926462Y1500309D3*
D18*
X1959860Y1326286D3*
X2211222Y1374544D3*
D104*
X2177874Y1548560D3*
D107*
X1879864Y1195256D3*
D18*
X1916650Y1021918D3*
X2167024Y1075070D3*
D107*
X2130286Y1248402D3*
D30*
X1000852Y2016529D3*
D31*
Y1916529D3*
Y1816529D3*
Y1716529D3*
Y1616529D3*
Y1516529D3*
Y1416529D3*
X1300852D3*
Y1516529D3*
Y1616529D3*
Y1716529D3*
Y1816529D3*
Y1916529D3*
Y2016529D3*
X1458267Y612449D3*
X1536739Y618928D3*
X1634833Y627077D3*
X1360175Y604351D3*
D110*
X1274784Y514368D3*
D113*
X1733823Y552270D3*
M02*
