G04 DipTrace 3.3.1.3*
G04 TopSilk.gbr*
%MOIN*%
G04 #@! TF.FileFunction,Legend,Top*
G04 #@! TF.Part,Single*
%ADD10C,0.009843*%
%ADD12C,0.003*%
%ADD80C,0.004632*%
%ADD81C,0.006176*%
%ADD84C,0.009264*%
%ADD85C,0.010807*%
%ADD86C,0.018527*%
%ADD87C,0.012351*%
%FSLAX26Y26*%
G04*
G70*
G90*
G75*
G01*
G04 TopSilk*
%LPD*%
X2027426Y883313D2*
D10*
X1965379Y651708D1*
X1911509Y914379D2*
X1849462Y682774D1*
G03X1965379Y651708I57929J-15642D01*
G01*
X2027426Y883313D2*
G03X1911509Y914379I-57929J15642D01*
G01*
X968840Y645594D2*
X1179417Y760227D1*
X1026198Y540209D2*
X1236775Y654843D1*
G03X1179417Y760227I-28573J52750D01*
G01*
X968840Y645594D2*
G03X1026198Y540209I28573J-52750D01*
G01*
X892797Y3061766D2*
Y3211642D1*
X893022Y3061466D2*
G03X893022Y3211942I99796J75238D01*
G01*
X1479327Y3123458D2*
Y3273333D1*
X1479552Y3123158D2*
G03X1479552Y3273633I99796J75238D01*
G01*
X1183220Y2897528D2*
Y2678772D1*
X1233221Y2860102D2*
G02X1495734Y2791339I123595J-63632D01*
G01*
X1233221Y2728837D2*
G03X1495734Y2791339I125541J55257D01*
G01*
X1710708Y699362D2*
X1773503Y930730D1*
X1826532Y667927D2*
X1889327Y899295D1*
G03X1773503Y930730I-57884J15823D01*
G01*
X1710708Y699362D2*
G03X1826532Y667927I57884J-15823D01*
G01*
X760901Y3473660D2*
X831605Y3544364D1*
X619472Y3615089D2*
X760901Y3473660D1*
X619472Y3615089D2*
X690176Y3685793D1*
X831605Y3544364D1*
X1618858Y3634533D2*
X1689562Y3563829D1*
X1760287Y3775962D2*
X1618858Y3634533D1*
X1760287Y3775962D2*
X1830991Y3705258D1*
X1689562Y3563829D1*
X1744148Y1978127D2*
X1644146D1*
Y1378181D1*
X1744148D1*
Y1978127D1*
X586958Y1924548D2*
X486956D1*
Y1324603D1*
X586958D1*
Y1924548D1*
X863393Y1961254D2*
X563393D1*
Y2161254D1*
X863393D1*
Y1961254D1*
X906794Y3405441D2*
X1099656Y3353764D1*
X1082040Y3287303D2*
X1098242Y3347673D1*
X888996Y3339032D2*
X1081858Y3287355D1*
X888813Y3339066D2*
X906612Y3405475D1*
X1613584Y3426736D2*
X1440690Y3326917D1*
X1406170Y3386371D2*
X1437400Y3332236D1*
X1579230Y3486271D2*
X1406336Y3386452D1*
X1579396Y3486379D2*
X1613750Y3426844D1*
X689885Y1163792D2*
X881472Y1107712D1*
X862363Y1041674D2*
X879929Y1101657D1*
X670549Y1097809D2*
X862181Y1041728D1*
X670368Y1097864D2*
X689703Y1163847D1*
X1877913Y1764339D2*
X1803082Y1949452D1*
X1866764Y1975374D2*
X1808799Y1951965D1*
X1941640Y1790085D2*
X1866830Y1975198D1*
X1941706Y1789908D2*
X1877979Y1764163D1*
X789852Y924322D2*
X980226Y864225D1*
X959730Y798606D2*
X978510Y858208D1*
X769131Y858760D2*
X959550Y798663D1*
X768950Y858817D2*
X789672Y924379D1*
X718789Y1053063D2*
X910255Y996483D1*
X890932Y930497D2*
X908668Y990432D1*
X699284Y987114D2*
X890750Y930552D1*
X699102Y987169D2*
X718607Y1053100D1*
X673920Y1270120D2*
X866733Y1218228D1*
X849030Y1151792D2*
X865273Y1212157D1*
X656080Y1203737D2*
X848848Y1151844D1*
X655898Y1203789D2*
X673737Y1270172D1*
X2205165Y1792820D2*
X2136877Y1980445D1*
X2201422Y2004121D2*
X2142688Y1982764D1*
X2269772Y1816363D2*
X2201484Y2003988D1*
X2269834Y1816184D2*
X2205227Y1792642D1*
X2098926Y1780322D2*
X2030638Y1967947D1*
X2095183Y1991623D2*
X2036449Y1970265D1*
X2163533Y1803864D2*
X2095245Y1991489D1*
X2163595Y1803686D2*
X2098988Y1780143D1*
X1986438Y1767823D2*
X1918150Y1955448D1*
X1982695Y1979124D2*
X1923961Y1957766D1*
X2051045Y1791365D2*
X1982757Y1978990D1*
X2051107Y1791187D2*
X1986500Y1767645D1*
X1970192Y1520307D2*
X2005543Y1336202D1*
X2006734Y1330028D2*
X2172453Y1361821D1*
X2135947Y1552100D1*
X1970192Y1520307D2*
X2135947Y1552100D1*
X2000637Y1434950D2*
G02X2000637Y1434950I71875J0D01*
G01*
X1923203Y1216097D2*
X1962115Y1032698D1*
X1963424Y1026578D2*
X2128527Y1061603D1*
X2088306Y1251123D1*
X1923203Y1216097D2*
X2088306Y1251123D1*
X1955314Y1132745D2*
G02X1955314Y1132745I71860J0D01*
G01*
X1253235Y2102356D2*
Y1330703D1*
X1048470D2*
X1253235D1*
X1048470Y2102356D2*
Y1330703D1*
Y2102356D2*
X1127237D1*
X1253235D2*
X1174468D1*
X1127237D2*
G03X1174468Y2102356I23616J3D01*
G01*
X885878Y2490250D2*
D12*
X981878D1*
X870209Y2487250D2*
X933878D1*
X856095Y2484250D2*
X912878D1*
X933878D2*
X981878D1*
X1875878D2*
X1899878D1*
X843884Y2481250D2*
X895430D1*
X912878D2*
X981764D1*
X1866083D2*
X1911047D1*
X833308Y2478250D2*
X884483D1*
X899285D2*
X981380D1*
X1857479D2*
X1920419D1*
X824029Y2475250D2*
X873878D1*
X885878D2*
X980661D1*
X1850155D2*
X1927902D1*
X815922Y2472250D2*
X861878D1*
X873878D2*
X979891D1*
X1843974D2*
X1870119D1*
X1904699D2*
X1933940D1*
X808783Y2469250D2*
X855878D1*
X864878D2*
X979368D1*
X1838903D2*
X1862017D1*
X1914197D2*
X1939039D1*
X802259Y2466250D2*
X846890D1*
X855878D2*
X979090D1*
X1834777D2*
X1855060D1*
X1922089D2*
X1943441D1*
X796148Y2463250D2*
X841004D1*
X849878D2*
X978962D1*
X1302878D2*
X1305878D1*
X1831245D2*
X1849210D1*
X1928564D2*
X1947228D1*
X790546Y2460250D2*
X835468D1*
X843878D2*
X978908D1*
X1302878D2*
X1305878D1*
X1828019D2*
X1844080D1*
X1933767D2*
X1950597D1*
X785626Y2457250D2*
X830494D1*
X837878D2*
X978878D1*
X1302878D2*
X1305878D1*
X1359878D2*
X1395878D1*
X1401878D2*
X1428878D1*
X1449878D2*
X1458878D1*
X1479878D2*
X1488878D1*
X1506878D2*
X1524878D1*
X1557878D2*
X1569878D1*
X1581878D2*
X1632878D1*
X1650878D2*
X1674878D1*
X1689878D2*
X1701878D1*
X1722878D2*
X1731878D1*
X1824941D2*
X1839427D1*
X1937948D2*
X1953657D1*
X781219Y2454250D2*
X825878D1*
X831878D2*
X910732D1*
X1302878D2*
X1305878D1*
X1359878D2*
X1395878D1*
X1401878D2*
X1433252D1*
X1449878D2*
X1458878D1*
X1479878D2*
X1488878D1*
X1502969D2*
X1529137D1*
X1556379D2*
X1570916D1*
X1581878D2*
X1632878D1*
X1646969D2*
X1677755D1*
X1689878D2*
X1703739D1*
X1722878D2*
X1731878D1*
X1822014D2*
X1835317D1*
X1851878D2*
X1869878D1*
X1905878D2*
X1923878D1*
X1941500D2*
X1956341D1*
X777007Y2451250D2*
X819878D1*
X825878D2*
X892098D1*
X1302878D2*
X1305878D1*
X1359878D2*
X1395878D1*
X1401878D2*
X1436996D1*
X1449878D2*
X1458878D1*
X1479878D2*
X1488878D1*
X1499968D2*
X1532497D1*
X1555122D2*
X1571914D1*
X1581878D2*
X1632878D1*
X1643968D2*
X1680290D1*
X1689878D2*
X1705461D1*
X1722878D2*
X1731878D1*
X1819384D2*
X1831986D1*
X1850379D2*
X1872289D1*
X1904030D2*
X1926289D1*
X1944723D2*
X1958635D1*
X773025Y2448250D2*
X816878D1*
X822878D2*
X876042D1*
X975878D2*
X1011878D1*
X1029878D2*
X1083878D1*
X1176878D2*
X1215878D1*
X1302878D2*
X1305878D1*
X1359878D2*
X1395878D1*
X1401878D2*
X1439933D1*
X1449878D2*
X1458878D1*
X1479878D2*
X1488878D1*
X1497809D2*
X1535094D1*
X1553861D2*
X1572865D1*
X1581878D2*
X1632878D1*
X1641809D2*
X1682263D1*
X1689878D2*
X1707162D1*
X1722878D2*
X1731878D1*
X1817110D2*
X1829363D1*
X1849145D2*
X1874043D1*
X1902425D2*
X1928043D1*
X1947709D2*
X1960770D1*
X769429Y2445250D2*
X862864D1*
X974494D2*
X1010853D1*
X1028853D2*
X1096665D1*
X1169620D2*
X1222100D1*
X1302878D2*
X1305878D1*
X1359878D2*
X1368878D1*
X1401878D2*
X1410878D1*
X1428301D2*
X1442237D1*
X1449878D2*
X1458878D1*
X1479878D2*
X1488878D1*
X1496359D2*
X1510354D1*
X1525430D2*
X1536019D1*
X1552516D2*
X1573889D1*
X1596878D2*
X1605878D1*
X1623878D2*
X1632878D1*
X1640359D2*
X1654354D1*
X1668753D2*
X1683878D1*
X1689878D2*
X1708993D1*
X1722878D2*
X1731878D1*
X1814984D2*
X1827082D1*
X1848095D2*
X1858430D1*
X1866327D2*
X1875048D1*
X1901224D2*
X1909002D1*
X1920755D2*
X1929048D1*
X1950361D2*
X1962855D1*
X766224Y2442250D2*
X807878D1*
X813878D2*
X852161D1*
X973620D2*
X1009960D1*
X1027960D2*
X1106366D1*
X1163260D2*
X1227462D1*
X1302878D2*
X1305878D1*
X1359878D2*
X1368878D1*
X1401878D2*
X1410878D1*
X1430170D2*
X1443081D1*
X1449878D2*
X1458878D1*
X1479878D2*
X1488878D1*
X1495546D2*
X1508215D1*
X1526483D2*
X1536541D1*
X1551184D2*
X1574896D1*
X1596878D2*
X1605878D1*
X1623878D2*
X1632878D1*
X1639546D2*
X1652215D1*
X1671251D2*
X1710943D1*
X1722878D2*
X1731878D1*
X1812900D2*
X1824925D1*
X1847255D2*
X1856483D1*
X1868274D2*
X1875524D1*
X1900610D2*
X1909467D1*
X1920290D2*
X1929524D1*
X1952643D2*
X1964742D1*
X763468Y2439250D2*
X804878D1*
X810878D2*
X843383D1*
X973079D2*
X1009380D1*
X1027380D2*
X1112933D1*
X1158042D2*
X1231716D1*
X1302878D2*
X1305878D1*
X1359878D2*
X1368878D1*
X1401878D2*
X1410878D1*
X1431641D2*
X1443539D1*
X1449878D2*
X1458878D1*
X1479878D2*
X1488878D1*
X1495155D2*
X1506491D1*
X1527878D2*
X1536878D1*
X1550002D2*
X1575868D1*
X1596878D2*
X1605878D1*
X1623878D2*
X1632878D1*
X1639155D2*
X1650491D1*
X1673032D2*
X1712778D1*
X1722878D2*
X1731878D1*
X1811014D2*
X1822910D1*
X1847693D2*
X1854878D1*
X1869878D2*
X1875617D1*
X1900659D2*
X1910493D1*
X1919263D2*
X1929605D1*
X1954760D2*
X1966347D1*
X761142Y2436250D2*
X835971D1*
X972503D2*
X1008980D1*
X1026980D2*
X1117665D1*
X1153836D2*
X1234793D1*
X1302878D2*
X1305878D1*
X1359878D2*
X1392878D1*
X1401878D2*
X1410878D1*
X1433177D2*
X1443745D1*
X1449878D2*
X1458878D1*
X1479867D2*
X1488878D1*
X1494985D2*
X1505246D1*
X1548958D2*
X1561430D1*
X1566878D2*
X1576991D1*
X1596878D2*
X1605878D1*
X1623878D2*
X1632878D1*
X1638985D2*
X1649246D1*
X1674045D2*
X1714389D1*
X1722878D2*
X1731878D1*
X1809398D2*
X1820915D1*
X1848705D2*
X1875202D1*
X1901443D2*
X1911878D1*
X1917878D2*
X1929395D1*
X1956751D2*
X1967553D1*
X759006Y2433250D2*
X829428D1*
X971706D2*
X1008465D1*
X1026465D2*
X1119836D1*
X1150280D2*
X1236971D1*
X1302878D2*
X1305878D1*
X1359878D2*
X1392878D1*
X1401878D2*
X1410878D1*
X1434878D2*
X1443829D1*
X1449878D2*
X1458890D1*
X1479761D2*
X1488878D1*
X1494918D2*
X1504618D1*
X1547893D2*
X1559483D1*
X1566878D2*
X1578277D1*
X1596878D2*
X1605878D1*
X1623878D2*
X1632878D1*
X1638918D2*
X1648618D1*
X1674523D2*
X1715733D1*
X1722878D2*
X1731878D1*
X1808087D2*
X1818976D1*
X1850309D2*
X1874027D1*
X1903019D2*
X1927605D1*
X1958360D2*
X1968267D1*
X757021Y2430250D2*
X798878D1*
X804878D2*
X823553D1*
X970908D2*
X1007693D1*
X1025693D2*
X1121345D1*
X1147145D2*
X1238522D1*
X1302878D2*
X1305878D1*
X1359878D2*
X1392878D1*
X1401878D2*
X1410878D1*
X1433356D2*
X1443849D1*
X1449878D2*
X1458996D1*
X1479367D2*
X1488878D1*
X1494892D2*
X1504650D1*
X1546870D2*
X1557878D1*
X1566878D2*
X1579586D1*
X1596878D2*
X1605878D1*
X1623878D2*
X1632878D1*
X1638892D2*
X1648661D1*
X1674617D2*
X1701878D1*
X1708354D2*
X1716878D1*
X1722878D2*
X1731878D1*
X1806990D2*
X1817386D1*
X1852404D2*
X1872168D1*
X1905338D2*
X1924969D1*
X1959628D2*
X1968622D1*
X755515Y2427250D2*
X795878D1*
X801878D2*
X818284D1*
X970362D2*
X1006903D1*
X1024903D2*
X1122189D1*
X1144432D2*
X1239713D1*
X1302878D2*
X1305878D1*
X1359878D2*
X1368878D1*
X1401878D2*
X1410878D1*
X1431879D2*
X1443755D1*
X1449878D2*
X1459380D1*
X1478534D2*
X1488878D1*
X1494895D2*
X1505324D1*
X1545892D2*
X1580760D1*
X1596878D2*
X1605878D1*
X1623878D2*
X1632878D1*
X1638895D2*
X1649450D1*
X1674202D2*
X1701878D1*
X1709215D2*
X1731878D1*
X1805917D2*
X1816125D1*
X1854522D2*
X1870160D1*
X1878878D2*
X1890878D1*
X1907864D2*
X1922179D1*
X1960796D2*
X1968779D1*
X754628Y2424250D2*
X813514D1*
X969975D2*
X1006372D1*
X1024372D2*
X1122595D1*
X1142127D2*
X1240822D1*
X1302878D2*
X1305878D1*
X1359878D2*
X1368878D1*
X1401878D2*
X1410878D1*
X1429771D2*
X1443365D1*
X1449890D2*
X1460124D1*
X1477294D2*
X1488867D1*
X1494997D2*
X1506501D1*
X1527878D2*
X1536878D1*
X1544767D2*
X1581800D1*
X1596878D2*
X1605878D1*
X1623878D2*
X1632878D1*
X1639009D2*
X1651090D1*
X1673026D2*
X1701878D1*
X1710479D2*
X1731878D1*
X1804991D2*
X1814972D1*
X1827878D2*
X1839878D1*
X1856137D2*
X1868581D1*
X1876430D2*
X1894674D1*
X1909804D2*
X1919760D1*
X1938878D2*
X1947878D1*
X1961861D2*
X1968842D1*
X754191Y2421250D2*
X792878D1*
X798878D2*
X809254D1*
X969464D2*
X1006079D1*
X1024079D2*
X1122769D1*
X1139989D2*
X1186468D1*
X1200753D2*
X1241759D1*
X1302878D2*
X1305878D1*
X1359878D2*
X1368878D1*
X1401878D2*
X1410878D1*
X1426626D2*
X1442531D1*
X1450007D2*
X1461017D1*
X1475699D2*
X1488750D1*
X1495402D2*
X1508070D1*
X1524878D2*
X1536403D1*
X1543480D2*
X1582864D1*
X1596878D2*
X1605878D1*
X1623878D2*
X1632878D1*
X1639507D2*
X1653685D1*
X1671119D2*
X1683403D1*
X1689878D2*
X1701878D1*
X1712117D2*
X1731878D1*
X1804405D2*
X1814001D1*
X1824645D2*
X1842753D1*
X1857083D2*
X1867586D1*
X1874483D2*
X1897727D1*
X1910935D2*
X1918794D1*
X1935645D2*
X1951788D1*
X1962844D2*
X1968865D1*
X754000Y2418250D2*
X792878D1*
X798878D2*
X805620D1*
X968692D2*
X1005846D1*
X1023846D2*
X1059867D1*
X1083878D2*
X1122838D1*
X1137902D2*
X1181725D1*
X1203251D2*
X1242350D1*
X1302878D2*
X1305878D1*
X1359878D2*
X1395878D1*
X1401878D2*
X1410878D1*
X1422878D2*
X1441263D1*
X1450519D2*
X1461878D1*
X1473878D2*
X1488238D1*
X1496354D2*
X1509878D1*
X1521878D2*
X1535530D1*
X1542182D2*
X1583896D1*
X1596878D2*
X1605878D1*
X1623878D2*
X1632878D1*
X1640737D2*
X1656878D1*
X1668878D2*
X1682519D1*
X1689878D2*
X1701878D1*
X1713999D2*
X1731878D1*
X1804103D2*
X1813295D1*
X1822178D2*
X1845251D1*
X1857548D2*
X1866878D1*
X1872878D2*
X1898840D1*
X1911488D2*
X1918269D1*
X1933178D2*
X1954789D1*
X1963869D2*
X1968874D1*
X753923Y2415250D2*
X802639D1*
X967903D2*
X1005411D1*
X1023411D2*
X1059761D1*
X1086878D2*
X1122853D1*
X1136015D2*
X1177826D1*
X1205032D2*
X1242653D1*
X1302878D2*
X1305878D1*
X1359878D2*
X1395878D1*
X1401878D2*
X1439531D1*
X1451490D2*
X1487267D1*
X1497763D2*
X1534141D1*
X1541106D2*
X1551878D1*
X1573430D2*
X1584945D1*
X1596878D2*
X1605878D1*
X1623878D2*
X1632878D1*
X1642838D2*
X1681015D1*
X1689878D2*
X1701878D1*
X1715892D2*
X1731878D1*
X1803967D2*
X1812606D1*
X1820529D2*
X1847021D1*
X1857750D2*
X1879430D1*
X1890878D2*
X1899438D1*
X1911728D2*
X1918032D1*
X1931529D2*
X1956937D1*
X1964776D2*
X1968877D1*
X753894Y2412250D2*
X800210D1*
X967372D2*
X1004672D1*
X1022672D2*
X1059377D1*
X1089878D2*
X1122757D1*
X1134410D2*
X1174733D1*
X1206048D2*
X1242790D1*
X1302878D2*
X1305878D1*
X1359878D2*
X1395878D1*
X1401878D2*
X1437318D1*
X1454208D2*
X1484549D1*
X1500972D2*
X1531942D1*
X1540397D2*
X1551878D1*
X1574483D2*
X1586288D1*
X1596878D2*
X1605878D1*
X1623878D2*
X1632878D1*
X1645811D2*
X1678917D1*
X1689878D2*
X1701878D1*
X1717835D2*
X1731878D1*
X1803911D2*
X1811750D1*
X1819629D2*
X1827878D1*
X1839878D2*
X1848203D1*
X1857831D2*
X1880483D1*
X1893878D2*
X1899695D1*
X1911823D2*
X1917935D1*
X1930629D2*
X1938878D1*
X1950327D2*
X1958588D1*
X1965356D2*
X1968878D1*
X753884Y2409250D2*
X798032D1*
X967079D2*
X1003895D1*
X1021895D2*
X1058633D1*
X1087931D2*
X1122377D1*
X1133192D2*
X1172358D1*
X1206561D2*
X1242847D1*
X1302878D2*
X1305878D1*
X1359878D2*
X1395878D1*
X1401878D2*
X1434878D1*
X1457789D2*
X1480968D1*
X1505170D2*
X1528703D1*
X1539878D2*
X1551878D1*
X1575878D2*
X1587878D1*
X1596878D2*
X1605878D1*
X1623878D2*
X1632878D1*
X1649618D2*
X1674229D1*
X1689878D2*
X1701878D1*
X1719878D2*
X1731878D1*
X1803890D2*
X1810925D1*
X1819311D2*
X1824878D1*
X1839878D2*
X1848092D1*
X1857862D2*
X1881878D1*
X1890878D2*
X1899675D1*
X1911859D2*
X1917898D1*
X1930311D2*
X1935878D1*
X1949274D2*
X1958776D1*
X1965655D2*
X1968878D1*
X753880Y2406250D2*
X796042D1*
X966846D2*
X1003358D1*
X1021358D2*
X1057740D1*
X1085951D2*
X1121648D1*
X1132372D2*
X1170531D1*
X1206878D2*
X1242878D1*
X1302878D2*
X1305878D1*
X1461878D2*
X1476878D1*
X1509878D2*
X1524878D1*
X1653878D2*
X1668878D1*
X1803883D2*
X1810392D1*
X1819359D2*
X1827878D1*
X1839878D2*
X1847404D1*
X1857873D2*
X1866878D1*
X1873571D2*
X1899410D1*
X1911872D2*
X1917885D1*
X1930359D2*
X1938878D1*
X1947878D2*
X1958263D1*
X1965790D2*
X1968878D1*
X753879Y2403250D2*
X794341D1*
X966411D2*
X1002973D1*
X1020973D2*
X1056878D1*
X1083878D2*
X1120762D1*
X1131635D2*
X1169135D1*
X1302878D2*
X1305878D1*
X1803880D2*
X1810211D1*
X1820804D2*
X1846113D1*
X1857877D2*
X1866878D1*
X1875083D2*
X1897726D1*
X1911853D2*
X1917881D1*
X1931690D2*
X1957055D1*
X1965846D2*
X1968878D1*
X753879Y2400250D2*
X793817D1*
X965672D2*
X1002463D1*
X1020463D2*
X1119751D1*
X1130760D2*
X1168007D1*
X1302878D2*
X1305878D1*
X1803879D2*
X1810463D1*
X1823080D2*
X1844135D1*
X1857878D2*
X1866878D1*
X1877298D2*
X1895471D1*
X1911632D2*
X1917879D1*
X1933582D2*
X1955113D1*
X1965867D2*
X1968878D1*
X753879Y2397250D2*
X794446D1*
X964895D2*
X1001692D1*
X1019692D2*
X1118361D1*
X1129928D2*
X1166922D1*
X1302878D2*
X1305878D1*
X1803879D2*
X1811128D1*
X1825813D2*
X1841661D1*
X1857878D2*
X1866878D1*
X1879362D2*
X1893397D1*
X1911105D2*
X1917867D1*
X1935595D2*
X1952653D1*
X1965863D2*
X1968878D1*
X753890Y2394250D2*
X795478D1*
X964358D2*
X1000903D1*
X1018903D2*
X1116617D1*
X1129381D2*
X1165993D1*
X1302878D2*
X1305878D1*
X1803879D2*
X1811877D1*
X1828153D2*
X1839476D1*
X1857878D2*
X1866878D1*
X1880688D2*
X1892070D1*
X1908903D2*
X1917750D1*
X1937165D2*
X1950473D1*
X1965760D2*
X1968878D1*
X754007Y2391250D2*
X796775D1*
X963973D2*
X1000360D1*
X1018372D2*
X1114655D1*
X1129094D2*
X1165406D1*
X1302878D2*
X1305878D1*
X1803890D2*
X1812405D1*
X1829604D2*
X1838100D1*
X1857878D2*
X1866878D1*
X1881372D2*
X1891386D1*
X1906080D2*
X1917250D1*
X1938094D2*
X1949099D1*
X1965379D2*
X1968878D1*
X754495Y2388250D2*
X798297D1*
X963463D2*
X999974D1*
X1018079D2*
X1112116D1*
X1128964D2*
X1165103D1*
X1302878D2*
X1305878D1*
X1356878D2*
X1392878D1*
X1407878D2*
X1431878D1*
X1449878D2*
X1458878D1*
X1476878D2*
X1488878D1*
X1494878D2*
X1506878D1*
X1527878D2*
X1536878D1*
X1542878D2*
X1572878D1*
X1602878D2*
X1617878D1*
X1626878D2*
X1680878D1*
X1695878D2*
X1719878D1*
X1737878D2*
X1749878D1*
X1767878D2*
X1779878D1*
X1803996D2*
X1812786D1*
X1830340D2*
X1837420D1*
X1857878D2*
X1866878D1*
X1881679D2*
X1891078D1*
X1903028D2*
X1916020D1*
X1938552D2*
X1948396D1*
X1964649D2*
X1968878D1*
X755608Y2385250D2*
X800156D1*
X962692D2*
X999464D1*
X1017846D2*
X1108498D1*
X1128910D2*
X1164979D1*
X1302878D2*
X1305878D1*
X1356878D2*
X1392878D1*
X1404993D2*
X1434764D1*
X1449878D2*
X1458878D1*
X1476878D2*
X1488878D1*
X1494878D2*
X1508739D1*
X1527878D2*
X1536878D1*
X1542878D2*
X1576788D1*
X1602403D2*
X1618342D1*
X1626878D2*
X1680878D1*
X1693004D2*
X1723788D1*
X1737878D2*
X1751379D1*
X1767878D2*
X1779878D1*
X1804378D2*
X1813306D1*
X1830667D2*
X1837328D1*
X1857878D2*
X1866878D1*
X1881804D2*
X1890949D1*
X1899949D2*
X1913928D1*
X1938752D2*
X1948082D1*
X1963774D2*
X1968878D1*
X757213Y2382250D2*
X802471D1*
X961903D2*
X998692D1*
X1017411D2*
X1103822D1*
X1128890D2*
X1165040D1*
X1203878D2*
X1239878D1*
X1302878D2*
X1305878D1*
X1356878D2*
X1392878D1*
X1402389D2*
X1437368D1*
X1449878D2*
X1458878D1*
X1476878D2*
X1488878D1*
X1494878D2*
X1510461D1*
X1527878D2*
X1536878D1*
X1542878D2*
X1579789D1*
X1601554D2*
X1619098D1*
X1626878D2*
X1680878D1*
X1690505D2*
X1726789D1*
X1737878D2*
X1753122D1*
X1767878D2*
X1779878D1*
X1805108D2*
X1814182D1*
X1830812D2*
X1837694D1*
X1857878D2*
X1866878D1*
X1881852D2*
X1890878D1*
X1896878D2*
X1911035D1*
X1938820D2*
X1947954D1*
X1962857D2*
X1968878D1*
X759005Y2379250D2*
X805128D1*
X961360D2*
X997903D1*
X1016672D2*
X1098478D1*
X1128882D2*
X1165530D1*
X1201881D2*
X1238379D1*
X1302878D2*
X1305878D1*
X1356878D2*
X1392878D1*
X1400225D2*
X1439532D1*
X1449878D2*
X1458878D1*
X1476878D2*
X1488878D1*
X1494878D2*
X1512162D1*
X1527878D2*
X1536878D1*
X1542878D2*
X1581948D1*
X1600395D2*
X1619980D1*
X1626878D2*
X1680878D1*
X1688713D2*
X1728948D1*
X1737878D2*
X1754861D1*
X1767878D2*
X1779878D1*
X1805983D2*
X1815366D1*
X1830980D2*
X1839873D1*
X1857878D2*
X1866878D1*
X1881869D2*
X1907528D1*
X1938721D2*
X1947894D1*
X1961755D2*
X1968867D1*
X761024Y2376250D2*
X807976D1*
X960974D2*
X997372D1*
X1015895D2*
X1092878D1*
X1128892D2*
X1166492D1*
X1199545D2*
X1237122D1*
X1302878D2*
X1305878D1*
X1356878D2*
X1368878D1*
X1398494D2*
X1411456D1*
X1428301D2*
X1441263D1*
X1449878D2*
X1458878D1*
X1476878D2*
X1488878D1*
X1494878D2*
X1513993D1*
X1527878D2*
X1536878D1*
X1542878D2*
X1551878D1*
X1569301D2*
X1583398D1*
X1599139D2*
X1620888D1*
X1641878D2*
X1653878D1*
X1668878D2*
X1680878D1*
X1687632D2*
X1702004D1*
X1716753D2*
X1730398D1*
X1737878D2*
X1756514D1*
X1767878D2*
X1779878D1*
X1806900D2*
X1816720D1*
X1831497D2*
X1842684D1*
X1857878D2*
X1866878D1*
X1881875D2*
X1903843D1*
X1938419D2*
X1947759D1*
X1960464D2*
X1968761D1*
X763417Y2373250D2*
X810926D1*
X960464D2*
X997079D1*
X1015358D2*
X1050878D1*
X1128996D2*
X1169209D1*
X1196189D2*
X1235849D1*
X1302878D2*
X1305878D1*
X1356878D2*
X1368878D1*
X1397235D2*
X1409587D1*
X1430170D2*
X1442522D1*
X1449878D2*
X1458878D1*
X1476878D2*
X1488878D1*
X1494878D2*
X1515943D1*
X1527878D2*
X1536878D1*
X1542878D2*
X1551878D1*
X1571170D2*
X1584211D1*
X1597986D2*
X1621897D1*
X1641878D2*
X1653878D1*
X1668878D2*
X1680878D1*
X1686878D2*
X1699506D1*
X1719251D2*
X1731211D1*
X1737878D2*
X1758166D1*
X1767878D2*
X1779878D1*
X1808002D2*
X1818164D1*
X1832722D2*
X1845731D1*
X1857878D2*
X1866878D1*
X1881878D2*
X1900363D1*
X1936604D2*
X1947253D1*
X1959053D2*
X1968367D1*
X766107Y2370250D2*
X814008D1*
X959692D2*
X996846D1*
X1014973D2*
X1050867D1*
X1129390D2*
X1172789D1*
X1191447D2*
X1234387D1*
X1302878D2*
X1305878D1*
X1356878D2*
X1368878D1*
X1396501D2*
X1408116D1*
X1431641D2*
X1443256D1*
X1449878D2*
X1458878D1*
X1476878D2*
X1488878D1*
X1494878D2*
X1517778D1*
X1527878D2*
X1536878D1*
X1542878D2*
X1551878D1*
X1572641D2*
X1584602D1*
X1596953D2*
X1622899D1*
X1641878D2*
X1653878D1*
X1668878D2*
X1697725D1*
X1721032D2*
X1731602D1*
X1737878D2*
X1759949D1*
X1767878D2*
X1779878D1*
X1809293D2*
X1819651D1*
X1834711D2*
X1848809D1*
X1857878D2*
X1866878D1*
X1881878D2*
X1897213D1*
X1933856D2*
X1946033D1*
X1957497D2*
X1967543D1*
X768980Y2367250D2*
X817394D1*
X958903D2*
X996411D1*
X1014463D2*
X1050761D1*
X1130214D2*
X1176878D1*
X1185878D2*
X1232568D1*
X1302878D2*
X1305878D1*
X1356878D2*
X1389878D1*
X1396138D2*
X1406580D1*
X1433177D2*
X1443619D1*
X1449878D2*
X1458878D1*
X1476878D2*
X1488878D1*
X1494878D2*
X1519389D1*
X1527878D2*
X1536878D1*
X1542878D2*
X1551878D1*
X1574177D2*
X1584772D1*
X1595892D2*
X1605878D1*
X1611327D2*
X1623869D1*
X1641878D2*
X1653878D1*
X1668878D2*
X1696712D1*
X1722033D2*
X1731772D1*
X1737878D2*
X1761878D1*
X1767878D2*
X1779878D1*
X1810693D2*
X1821251D1*
X1837234D2*
X1851878D1*
X1857878D2*
X1866878D1*
X1881878D2*
X1894589D1*
X1930680D2*
X1944045D1*
X1955727D2*
X1966380D1*
X772029Y2364250D2*
X821227D1*
X958372D2*
X995672D1*
X1013692D2*
X1050379D1*
X1131377D2*
X1230272D1*
X1302878D2*
X1305878D1*
X1356878D2*
X1389878D1*
X1395980D2*
X1404878D1*
X1434878D2*
X1443777D1*
X1449878D2*
X1458890D1*
X1476878D2*
X1488878D1*
X1494878D2*
X1503878D1*
X1509403D2*
X1520733D1*
X1527878D2*
X1536878D1*
X1542878D2*
X1551878D1*
X1575878D2*
X1584839D1*
X1594869D2*
X1605878D1*
X1613274D2*
X1624991D1*
X1641878D2*
X1653878D1*
X1668878D2*
X1696234D1*
X1722417D2*
X1731839D1*
X1737878D2*
X1746878D1*
X1753456D2*
X1779878D1*
X1812154D2*
X1823140D1*
X1840128D2*
X1866878D1*
X1881878D2*
X1892756D1*
X1927865D2*
X1941535D1*
X1953789D2*
X1965021D1*
X775402Y2361250D2*
X825495D1*
X958079D2*
X994895D1*
X1012903D2*
X1049660D1*
X1132736D2*
X1227624D1*
X1302878D2*
X1305878D1*
X1356878D2*
X1389878D1*
X1395927D2*
X1406389D1*
X1433368D2*
X1443829D1*
X1449878D2*
X1459007D1*
X1476867D2*
X1488878D1*
X1494878D2*
X1503878D1*
X1511554D2*
X1521878D1*
X1527878D2*
X1536878D1*
X1542878D2*
X1551878D1*
X1574370D2*
X1584853D1*
X1593892D2*
X1605878D1*
X1614878D2*
X1626277D1*
X1641878D2*
X1653878D1*
X1668878D2*
X1696152D1*
X1722223D2*
X1731865D1*
X1737878D2*
X1746878D1*
X1754596D2*
X1779878D1*
X1813648D2*
X1825465D1*
X1843426D2*
X1866878D1*
X1881878D2*
X1891723D1*
X1925568D2*
X1938758D1*
X1951848D2*
X1963486D1*
X779229Y2358250D2*
X830235D1*
X957846D2*
X994358D1*
X1012360D2*
X1048891D1*
X1134294D2*
X1224767D1*
X1302878D2*
X1305878D1*
X1356878D2*
X1389878D1*
X1396009D2*
X1407752D1*
X1432005D2*
X1443748D1*
X1449878D2*
X1459506D1*
X1476753D2*
X1488867D1*
X1494878D2*
X1503878D1*
X1513395D2*
X1536878D1*
X1542878D2*
X1551878D1*
X1573040D2*
X1584757D1*
X1592767D2*
X1627586D1*
X1641878D2*
X1653878D1*
X1668878D2*
X1696362D1*
X1721359D2*
X1731862D1*
X1737878D2*
X1746878D1*
X1756198D2*
X1779878D1*
X1815250D2*
X1828126D1*
X1847102D2*
X1866878D1*
X1881878D2*
X1891226D1*
X1924699D2*
X1935959D1*
X1949757D2*
X1961723D1*
X783495Y2355250D2*
X835512D1*
X957411D2*
X993973D1*
X1011974D2*
X1048368D1*
X1136268D2*
X1221713D1*
X1302878D2*
X1305878D1*
X1356878D2*
X1368878D1*
X1396394D2*
X1409397D1*
X1430360D2*
X1443363D1*
X1449890D2*
X1460714D1*
X1476289D2*
X1488761D1*
X1494878D2*
X1503878D1*
X1515139D2*
X1536878D1*
X1542878D2*
X1551878D1*
X1571555D2*
X1584366D1*
X1591480D2*
X1628760D1*
X1641878D2*
X1653878D1*
X1668878D2*
X1680878D1*
X1687004D2*
X1697847D1*
X1719687D2*
X1731748D1*
X1737878D2*
X1746878D1*
X1757886D2*
X1779878D1*
X1817140D2*
X1830975D1*
X1850743D2*
X1866878D1*
X1881878D2*
X1891012D1*
X1924228D2*
X1933489D1*
X1947227D2*
X1959787D1*
X788236Y2352250D2*
X841256D1*
X956671D2*
X993461D1*
X1011461D2*
X1048090D1*
X1138992D2*
X1218225D1*
X1302878D2*
X1305878D1*
X1356878D2*
X1368878D1*
X1397227D2*
X1411516D1*
X1428241D2*
X1442530D1*
X1450007D2*
X1462632D1*
X1475263D2*
X1488367D1*
X1494878D2*
X1503878D1*
X1516986D2*
X1536878D1*
X1542878D2*
X1551878D1*
X1569878D2*
X1583531D1*
X1590171D2*
X1629800D1*
X1641878D2*
X1653878D1*
X1668878D2*
X1680878D1*
X1687506D2*
X1701134D1*
X1717079D2*
X1731250D1*
X1737878D2*
X1746878D1*
X1759524D2*
X1779878D1*
X1819465D2*
X1833926D1*
X1853762D2*
X1866878D1*
X1881878D2*
X1890927D1*
X1924015D2*
X1931708D1*
X1944065D2*
X1957836D1*
X793501Y2349250D2*
X847491D1*
X955887D2*
X992664D1*
X1010665D2*
X1047962D1*
X1142598D2*
X1213902D1*
X1302878D2*
X1305878D1*
X1356878D2*
X1368878D1*
X1398518D2*
X1413878D1*
X1425878D2*
X1441239D1*
X1450519D2*
X1464878D1*
X1473878D2*
X1487520D1*
X1494878D2*
X1503878D1*
X1518951D2*
X1536878D1*
X1542878D2*
X1582263D1*
X1588988D2*
X1630853D1*
X1641878D2*
X1653878D1*
X1668878D2*
X1680878D1*
X1688736D2*
X1704878D1*
X1713878D2*
X1730020D1*
X1737878D2*
X1746878D1*
X1761198D2*
X1779878D1*
X1822126D2*
X1837017D1*
X1856163D2*
X1866878D1*
X1881878D2*
X1890896D1*
X1923917D2*
X1930630D1*
X1940181D2*
X1955651D1*
X799138Y2346250D2*
X854274D1*
X955316D2*
X991751D1*
X1009751D2*
X1047908D1*
X1147150D2*
X1208457D1*
X1302878D2*
X1305878D1*
X1356878D2*
X1368878D1*
X1400487D2*
X1439270D1*
X1451490D2*
X1486137D1*
X1494878D2*
X1503878D1*
X1520875D2*
X1536878D1*
X1542878D2*
X1580531D1*
X1587864D2*
X1599327D1*
X1620878D2*
X1631778D1*
X1641878D2*
X1653878D1*
X1668878D2*
X1680878D1*
X1690838D2*
X1727919D1*
X1737878D2*
X1746878D1*
X1763111D2*
X1779878D1*
X1824987D2*
X1840472D1*
X1857050D2*
X1866878D1*
X1881878D2*
X1890884D1*
X1923756D2*
X1929878D1*
X1935878D2*
X1952853D1*
X804991Y2343250D2*
X861636D1*
X954878D2*
X990878D1*
X1008878D2*
X1047878D1*
X1152707D2*
X1201945D1*
X1302878D2*
X1305878D1*
X1356878D2*
X1368878D1*
X1403677D2*
X1436080D1*
X1454208D2*
X1483941D1*
X1494878D2*
X1503878D1*
X1522829D2*
X1536878D1*
X1542878D2*
X1578318D1*
X1586488D2*
X1598274D1*
X1620878D2*
X1632409D1*
X1641878D2*
X1653878D1*
X1668878D2*
X1680878D1*
X1693811D2*
X1724946D1*
X1737878D2*
X1746878D1*
X1765398D2*
X1779878D1*
X1828032D2*
X1844495D1*
X1857553D2*
X1866878D1*
X1881878D2*
X1890880D1*
X1923424D2*
X1949425D1*
X811045Y2340250D2*
X869880D1*
X1158878D2*
X1194878D1*
X1302878D2*
X1305878D1*
X1356878D2*
X1368878D1*
X1408348D2*
X1431409D1*
X1457789D2*
X1480703D1*
X1494878D2*
X1503878D1*
X1524878D2*
X1536878D1*
X1542878D2*
X1575878D1*
X1584878D2*
X1596878D1*
X1620878D2*
X1632878D1*
X1641878D2*
X1653878D1*
X1668878D2*
X1680878D1*
X1697618D2*
X1721139D1*
X1737878D2*
X1746878D1*
X1767878D2*
X1779878D1*
X1831402D2*
X1848878D1*
X1857878D2*
X1866878D1*
X1881878D2*
X1890879D1*
X1921811D2*
X1945674D1*
X817532Y2337250D2*
X879489D1*
X1302878D2*
X1305878D1*
X1413878D2*
X1425878D1*
X1461878D2*
X1476878D1*
X1701878D2*
X1716878D1*
X1835241D2*
X1866878D1*
X1881878D2*
X1890879D1*
X1917199D2*
X1941707D1*
X824858Y2334250D2*
X890788D1*
X1302878D2*
X1305878D1*
X1839621D2*
X1866878D1*
X1881878D2*
X1890879D1*
X1910618D2*
X1937220D1*
X833354Y2331250D2*
X904443D1*
X1302878D2*
X1305878D1*
X1844816D2*
X1866878D1*
X1881878D2*
X1890878D1*
X1902878D2*
X1931999D1*
X843210Y2328250D2*
X921867D1*
X1302878D2*
X1305878D1*
X1851054D2*
X1866878D1*
X1881878D2*
X1925976D1*
X854637Y2325250D2*
X944289D1*
X1041878D2*
D3*
X1857878D2*
X1866878D1*
X1881878D2*
X1919149D1*
X868123Y2322250D2*
X971109D1*
X1011878D2*
X1041878D1*
X1881878D2*
X1911878D1*
X884462Y2319250D2*
X1028359D1*
X903847Y2316250D2*
X1011963D1*
X924878Y2313250D2*
X993878D1*
X885878Y2490250D2*
X870209Y2487250D1*
X856095Y2484250D1*
X843884Y2481250D1*
X833308Y2478250D1*
X824029Y2475250D1*
X815922Y2472250D1*
X808783Y2469250D1*
X802259Y2466250D1*
X796148Y2463250D1*
X790546Y2460250D1*
X785626Y2457250D1*
X781219Y2454250D1*
X777007Y2451250D1*
X773025Y2448250D1*
X769429Y2445250D1*
X766224Y2442250D1*
X763468Y2439250D1*
X761142Y2436250D1*
X759006Y2433250D1*
X757021Y2430250D1*
X755515Y2427250D1*
X754628Y2424250D1*
X754191Y2421250D1*
X754000Y2418250D1*
X753923Y2415250D1*
X753894Y2412250D1*
X753884Y2409250D1*
X753880Y2406250D1*
X753879Y2403250D1*
Y2400250D1*
Y2397250D1*
X753890Y2394250D1*
X754007Y2391250D1*
X754495Y2388250D1*
X755608Y2385250D1*
X757213Y2382250D1*
X759005Y2379250D1*
X761024Y2376250D1*
X763417Y2373250D1*
X766107Y2370250D1*
X768980Y2367250D1*
X772029Y2364250D1*
X775402Y2361250D1*
X779229Y2358250D1*
X783495Y2355250D1*
X788236Y2352250D1*
X793501Y2349250D1*
X799138Y2346250D1*
X804991Y2343250D1*
X811045Y2340250D1*
X817532Y2337250D1*
X824858Y2334250D1*
X833354Y2331250D1*
X843210Y2328250D1*
X854637Y2325250D1*
X868123Y2322250D1*
X884462Y2319250D1*
X903847Y2316250D1*
X924878Y2313250D1*
X981878Y2490250D2*
X933878D2*
Y2487250D1*
Y2484250D1*
X915878Y2487250D2*
X912878Y2484250D1*
X933878D2*
X981878D2*
X981764Y2481250D1*
X981380Y2478250D1*
X980661Y2475250D1*
X979891Y2472250D1*
X979368Y2469250D1*
X979090Y2466250D1*
X978962Y2463250D1*
X978908Y2460250D1*
X978878Y2457250D1*
X1875878Y2484250D2*
X1866083Y2481250D1*
X1857479Y2478250D1*
X1850155Y2475250D1*
X1843974Y2472250D1*
X1838903Y2469250D1*
X1834777Y2466250D1*
X1831245Y2463250D1*
X1828019Y2460250D1*
X1824941Y2457250D1*
X1822014Y2454250D1*
X1819384Y2451250D1*
X1817110Y2448250D1*
X1814984Y2445250D1*
X1812900Y2442250D1*
X1811014Y2439250D1*
X1809398Y2436250D1*
X1808087Y2433250D1*
X1806990Y2430250D1*
X1805917Y2427250D1*
X1804991Y2424250D1*
X1804405Y2421250D1*
X1804103Y2418250D1*
X1803967Y2415250D1*
X1803911Y2412250D1*
X1803890Y2409250D1*
X1803883Y2406250D1*
X1803880Y2403250D1*
X1803879Y2400250D1*
Y2397250D1*
Y2394250D1*
X1803890Y2391250D1*
X1803996Y2388250D1*
X1804378Y2385250D1*
X1805108Y2382250D1*
X1805983Y2379250D1*
X1806900Y2376250D1*
X1808002Y2373250D1*
X1809293Y2370250D1*
X1810693Y2367250D1*
X1812154Y2364250D1*
X1813648Y2361250D1*
X1815250Y2358250D1*
X1817140Y2355250D1*
X1819465Y2352250D1*
X1822126Y2349250D1*
X1824987Y2346250D1*
X1828032Y2343250D1*
X1831402Y2340250D1*
X1835241Y2337250D1*
X1839621Y2334250D1*
X1844816Y2331250D1*
X1851054Y2328250D1*
X1857878Y2325250D1*
X1899878Y2484250D2*
X1911047Y2481250D1*
X1920419Y2478250D1*
X1927902Y2475250D1*
X1933940Y2472250D1*
X1939039Y2469250D1*
X1943441Y2466250D1*
X1947228Y2463250D1*
X1950597Y2460250D1*
X1953657Y2457250D1*
X1956341Y2454250D1*
X1958635Y2451250D1*
X1960770Y2448250D1*
X1962855Y2445250D1*
X1964742Y2442250D1*
X1966347Y2439250D1*
X1967553Y2436250D1*
X1968267Y2433250D1*
X1968622Y2430250D1*
X1968779Y2427250D1*
X1968842Y2424250D1*
X1968865Y2421250D1*
X1968874Y2418250D1*
X1968877Y2415250D1*
X1968878Y2412250D1*
Y2409250D1*
Y2406250D1*
Y2403250D1*
Y2400250D1*
Y2397250D1*
Y2394250D1*
Y2391250D1*
Y2388250D1*
Y2385250D1*
Y2382250D1*
X1968867Y2379250D1*
X1968761Y2376250D1*
X1968367Y2373250D1*
X1967543Y2370250D1*
X1966380Y2367250D1*
X1965021Y2364250D1*
X1963486Y2361250D1*
X1961723Y2358250D1*
X1959787Y2355250D1*
X1957836Y2352250D1*
X1955651Y2349250D1*
X1952853Y2346250D1*
X1949425Y2343250D1*
X1945674Y2340250D1*
X1941707Y2337250D1*
X1937220Y2334250D1*
X1931999Y2331250D1*
X1925976Y2328250D1*
X1919149Y2325250D1*
X1911878Y2322250D1*
X906878Y2484250D2*
X895430Y2481250D1*
X884483Y2478250D1*
X873878Y2475250D1*
X912878Y2481250D2*
X899285Y2478250D1*
X885878Y2475250D1*
X867878D2*
X861878Y2472250D1*
X855878Y2469250D1*
X873878Y2472250D2*
X864878Y2469250D1*
X1878878Y2475250D2*
X1870119Y2472250D1*
X1862017Y2469250D1*
X1855060Y2466250D1*
X1849210Y2463250D1*
X1844080Y2460250D1*
X1839427Y2457250D1*
X1835317Y2454250D1*
X1831986Y2451250D1*
X1829363Y2448250D1*
X1827082Y2445250D1*
X1824925Y2442250D1*
X1822910Y2439250D1*
X1820915Y2436250D1*
X1818976Y2433250D1*
X1817386Y2430250D1*
X1816125Y2427250D1*
X1814972Y2424250D1*
X1814001Y2421250D1*
X1813295Y2418250D1*
X1812606Y2415250D1*
X1811750Y2412250D1*
X1810925Y2409250D1*
X1810392Y2406250D1*
X1810211Y2403250D1*
X1810463Y2400250D1*
X1811128Y2397250D1*
X1811877Y2394250D1*
X1812405Y2391250D1*
X1812786Y2388250D1*
X1813306Y2385250D1*
X1814182Y2382250D1*
X1815366Y2379250D1*
X1816720Y2376250D1*
X1818164Y2373250D1*
X1819651Y2370250D1*
X1821251Y2367250D1*
X1823140Y2364250D1*
X1825465Y2361250D1*
X1828126Y2358250D1*
X1830975Y2355250D1*
X1833926Y2352250D1*
X1837017Y2349250D1*
X1840472Y2346250D1*
X1844495Y2343250D1*
X1848878Y2340250D1*
X1893878Y2475250D2*
X1904699Y2472250D1*
X1914197Y2469250D1*
X1922089Y2466250D1*
X1928564Y2463250D1*
X1933767Y2460250D1*
X1937948Y2457250D1*
X1941500Y2454250D1*
X1944723Y2451250D1*
X1947709Y2448250D1*
X1950361Y2445250D1*
X1952643Y2442250D1*
X1954760Y2439250D1*
X1956751Y2436250D1*
X1958360Y2433250D1*
X1959628Y2430250D1*
X1960796Y2427250D1*
X1961861Y2424250D1*
X1962844Y2421250D1*
X1963869Y2418250D1*
X1964776Y2415250D1*
X1965356Y2412250D1*
X1965655Y2409250D1*
X1965790Y2406250D1*
X1965846Y2403250D1*
X1965867Y2400250D1*
X1965863Y2397250D1*
X1965760Y2394250D1*
X1965379Y2391250D1*
X1964649Y2388250D1*
X1963774Y2385250D1*
X1962857Y2382250D1*
X1961755Y2379250D1*
X1960464Y2376250D1*
X1959053Y2373250D1*
X1957497Y2370250D1*
X1955727Y2367250D1*
X1953789Y2364250D1*
X1951848Y2361250D1*
X1949757Y2358250D1*
X1947227Y2355250D1*
X1944065Y2352250D1*
X1940181Y2349250D1*
X1935878Y2346250D1*
X852878Y2469250D2*
X846890Y2466250D1*
X841004Y2463250D1*
X835468Y2460250D1*
X830494Y2457250D1*
X825878Y2454250D1*
X855878Y2466250D2*
X849878Y2463250D1*
X843878Y2460250D1*
X837878Y2457250D1*
X831878Y2454250D1*
X1302878Y2463250D2*
Y2460250D1*
Y2457250D1*
Y2454250D1*
Y2451250D1*
Y2448250D1*
Y2445250D1*
Y2442250D1*
Y2439250D1*
Y2436250D1*
Y2433250D1*
Y2430250D1*
Y2427250D1*
Y2424250D1*
Y2421250D1*
Y2418250D1*
Y2415250D1*
Y2412250D1*
Y2409250D1*
Y2406250D1*
Y2403250D1*
Y2400250D1*
Y2397250D1*
Y2394250D1*
Y2391250D1*
Y2388250D1*
Y2385250D1*
Y2382250D1*
Y2379250D1*
Y2376250D1*
Y2373250D1*
Y2370250D1*
Y2367250D1*
Y2364250D1*
Y2361250D1*
Y2358250D1*
Y2355250D1*
Y2352250D1*
Y2349250D1*
Y2346250D1*
Y2343250D1*
Y2340250D1*
Y2337250D1*
Y2334250D1*
Y2331250D1*
Y2328250D1*
X1305878Y2463250D2*
Y2460250D1*
Y2457250D1*
Y2454250D1*
Y2451250D1*
Y2448250D1*
Y2445250D1*
Y2442250D1*
Y2439250D1*
Y2436250D1*
Y2433250D1*
Y2430250D1*
Y2427250D1*
Y2424250D1*
Y2421250D1*
Y2418250D1*
Y2415250D1*
Y2412250D1*
Y2409250D1*
Y2406250D1*
Y2403250D1*
Y2400250D1*
Y2397250D1*
Y2394250D1*
Y2391250D1*
Y2388250D1*
Y2385250D1*
Y2382250D1*
Y2379250D1*
Y2376250D1*
Y2373250D1*
Y2370250D1*
Y2367250D1*
Y2364250D1*
Y2361250D1*
Y2358250D1*
Y2355250D1*
Y2352250D1*
Y2349250D1*
Y2346250D1*
Y2343250D1*
Y2340250D1*
Y2337250D1*
Y2334250D1*
Y2331250D1*
Y2328250D1*
X1359878Y2457250D2*
Y2454250D1*
Y2451250D1*
Y2448250D1*
Y2445250D1*
Y2442250D1*
Y2439250D1*
Y2436250D1*
Y2433250D1*
Y2430250D1*
Y2427250D1*
Y2424250D1*
Y2421250D1*
Y2418250D1*
Y2415250D1*
Y2412250D1*
Y2409250D1*
X1395878Y2457250D2*
Y2454250D1*
Y2451250D1*
Y2448250D1*
Y2445250D1*
X1368878D1*
Y2442250D1*
Y2439250D1*
Y2436250D1*
X1392878D1*
Y2433250D1*
Y2430250D1*
Y2427250D1*
X1368878D1*
Y2424250D1*
Y2421250D1*
Y2418250D1*
X1395878D1*
Y2415250D1*
Y2412250D1*
Y2409250D1*
X1401878Y2457250D2*
Y2454250D1*
Y2451250D1*
Y2448250D1*
Y2445250D1*
Y2442250D1*
Y2439250D1*
Y2436250D1*
Y2433250D1*
Y2430250D1*
Y2427250D1*
Y2424250D1*
Y2421250D1*
Y2418250D1*
Y2415250D1*
Y2412250D1*
Y2409250D1*
X1428878Y2457250D2*
X1433252Y2454250D1*
X1436996Y2451250D1*
X1439933Y2448250D1*
X1442237Y2445250D1*
X1443081Y2442250D1*
X1443539Y2439250D1*
X1443745Y2436250D1*
X1443829Y2433250D1*
X1443849Y2430250D1*
X1443755Y2427250D1*
X1443365Y2424250D1*
X1442531Y2421250D1*
X1441263Y2418250D1*
X1439531Y2415250D1*
X1437318Y2412250D1*
X1434878Y2409250D1*
X1449878Y2457250D2*
Y2454250D1*
Y2451250D1*
Y2448250D1*
Y2445250D1*
Y2442250D1*
Y2439250D1*
Y2436250D1*
Y2433250D1*
Y2430250D1*
Y2427250D1*
X1449890Y2424250D1*
X1450007Y2421250D1*
X1450519Y2418250D1*
X1451490Y2415250D1*
X1454208Y2412250D1*
X1457789Y2409250D1*
X1461878Y2406250D1*
X1458878Y2457250D2*
Y2454250D1*
Y2451250D1*
Y2448250D1*
Y2445250D1*
Y2442250D1*
Y2439250D1*
Y2436250D1*
X1458890Y2433250D1*
X1458996Y2430250D1*
X1459380Y2427250D1*
X1460124Y2424250D1*
X1461017Y2421250D1*
X1461878Y2418250D1*
X1479878Y2457250D2*
Y2454250D1*
Y2451250D1*
Y2448250D1*
Y2445250D1*
Y2442250D1*
Y2439250D1*
X1479867Y2436250D1*
X1479761Y2433250D1*
X1479367Y2430250D1*
X1478534Y2427250D1*
X1477294Y2424250D1*
X1475699Y2421250D1*
X1473878Y2418250D1*
X1488878Y2457250D2*
Y2454250D1*
Y2451250D1*
Y2448250D1*
Y2445250D1*
Y2442250D1*
Y2439250D1*
Y2436250D1*
Y2433250D1*
Y2430250D1*
Y2427250D1*
X1488867Y2424250D1*
X1488750Y2421250D1*
X1488238Y2418250D1*
X1487267Y2415250D1*
X1484549Y2412250D1*
X1480968Y2409250D1*
X1476878Y2406250D1*
X1506878Y2457250D2*
X1502969Y2454250D1*
X1499968Y2451250D1*
X1497809Y2448250D1*
X1496359Y2445250D1*
X1495546Y2442250D1*
X1495155Y2439250D1*
X1494985Y2436250D1*
X1494918Y2433250D1*
X1494892Y2430250D1*
X1494895Y2427250D1*
X1494997Y2424250D1*
X1495402Y2421250D1*
X1496354Y2418250D1*
X1497763Y2415250D1*
X1500972Y2412250D1*
X1505170Y2409250D1*
X1509878Y2406250D1*
X1524878Y2457250D2*
X1529137Y2454250D1*
X1532497Y2451250D1*
X1535094Y2448250D1*
X1536019Y2445250D1*
X1536541Y2442250D1*
X1536878Y2439250D1*
X1557878Y2457250D2*
X1556379Y2454250D1*
X1555122Y2451250D1*
X1553861Y2448250D1*
X1552516Y2445250D1*
X1551184Y2442250D1*
X1550002Y2439250D1*
X1548958Y2436250D1*
X1547893Y2433250D1*
X1546870Y2430250D1*
X1545892Y2427250D1*
X1544767Y2424250D1*
X1543480Y2421250D1*
X1542182Y2418250D1*
X1541106Y2415250D1*
X1540397Y2412250D1*
X1539878Y2409250D1*
X1569878Y2457250D2*
X1570916Y2454250D1*
X1571914Y2451250D1*
X1572865Y2448250D1*
X1573889Y2445250D1*
X1574896Y2442250D1*
X1575868Y2439250D1*
X1576991Y2436250D1*
X1578277Y2433250D1*
X1579586Y2430250D1*
X1580760Y2427250D1*
X1581800Y2424250D1*
X1582864Y2421250D1*
X1583896Y2418250D1*
X1584945Y2415250D1*
X1586288Y2412250D1*
X1587878Y2409250D1*
X1581878Y2457250D2*
Y2454250D1*
Y2451250D1*
Y2448250D1*
Y2445250D1*
X1596878D1*
Y2442250D1*
Y2439250D1*
Y2436250D1*
Y2433250D1*
Y2430250D1*
Y2427250D1*
Y2424250D1*
Y2421250D1*
Y2418250D1*
Y2415250D1*
Y2412250D1*
Y2409250D1*
X1632878Y2457250D2*
Y2454250D1*
Y2451250D1*
Y2448250D1*
Y2445250D1*
Y2442250D1*
Y2439250D1*
Y2436250D1*
Y2433250D1*
Y2430250D1*
Y2427250D1*
Y2424250D1*
Y2421250D1*
Y2418250D1*
Y2415250D1*
Y2412250D1*
Y2409250D1*
X1650878Y2457250D2*
X1646969Y2454250D1*
X1643968Y2451250D1*
X1641809Y2448250D1*
X1640359Y2445250D1*
X1639546Y2442250D1*
X1639155Y2439250D1*
X1638985Y2436250D1*
X1638918Y2433250D1*
X1638892Y2430250D1*
X1638895Y2427250D1*
X1639009Y2424250D1*
X1639507Y2421250D1*
X1640737Y2418250D1*
X1642838Y2415250D1*
X1645811Y2412250D1*
X1649618Y2409250D1*
X1653878Y2406250D1*
X1674878Y2457250D2*
X1677755Y2454250D1*
X1680290Y2451250D1*
X1682263Y2448250D1*
X1683878Y2445250D1*
X1689878Y2457250D2*
Y2454250D1*
Y2451250D1*
Y2448250D1*
Y2445250D1*
X1701878Y2457250D2*
X1703739Y2454250D1*
X1705461Y2451250D1*
X1707162Y2448250D1*
X1708993Y2445250D1*
X1710943Y2442250D1*
X1712778Y2439250D1*
X1714389Y2436250D1*
X1715733Y2433250D1*
X1716878Y2430250D1*
X1722878Y2457250D2*
Y2454250D1*
Y2451250D1*
Y2448250D1*
Y2445250D1*
Y2442250D1*
Y2439250D1*
Y2436250D1*
Y2433250D1*
Y2430250D1*
X1731878Y2457250D2*
Y2454250D1*
Y2451250D1*
Y2448250D1*
Y2445250D1*
Y2442250D1*
Y2439250D1*
Y2436250D1*
Y2433250D1*
Y2430250D1*
Y2427250D1*
Y2424250D1*
Y2421250D1*
Y2418250D1*
Y2415250D1*
Y2412250D1*
Y2409250D1*
X930878Y2457250D2*
X910732Y2454250D1*
X892098Y2451250D1*
X876042Y2448250D1*
X862864Y2445250D1*
X852161Y2442250D1*
X843383Y2439250D1*
X835971Y2436250D1*
X829428Y2433250D1*
X823553Y2430250D1*
X818284Y2427250D1*
X813514Y2424250D1*
X809254Y2421250D1*
X805620Y2418250D1*
X802639Y2415250D1*
X800210Y2412250D1*
X798032Y2409250D1*
X796042Y2406250D1*
X794341Y2403250D1*
X793817Y2400250D1*
X794446Y2397250D1*
X795478Y2394250D1*
X796775Y2391250D1*
X798297Y2388250D1*
X800156Y2385250D1*
X802471Y2382250D1*
X805128Y2379250D1*
X807976Y2376250D1*
X810926Y2373250D1*
X814008Y2370250D1*
X817394Y2367250D1*
X821227Y2364250D1*
X825495Y2361250D1*
X830235Y2358250D1*
X835512Y2355250D1*
X841256Y2352250D1*
X847491Y2349250D1*
X854274Y2346250D1*
X861636Y2343250D1*
X869880Y2340250D1*
X879489Y2337250D1*
X890788Y2334250D1*
X904443Y2331250D1*
X921867Y2328250D1*
X944289Y2325250D1*
X971109Y2322250D1*
X999878Y2319250D1*
X1851878Y2454250D2*
X1850379Y2451250D1*
X1849145Y2448250D1*
X1848095Y2445250D1*
X1847255Y2442250D1*
X1847693Y2439250D1*
X1848705Y2436250D1*
X1850309Y2433250D1*
X1852404Y2430250D1*
X1854522Y2427250D1*
X1856137Y2424250D1*
X1857083Y2421250D1*
X1857548Y2418250D1*
X1857750Y2415250D1*
X1857831Y2412250D1*
X1857862Y2409250D1*
X1857873Y2406250D1*
X1857877Y2403250D1*
X1857878Y2400250D1*
Y2397250D1*
Y2394250D1*
Y2391250D1*
Y2388250D1*
Y2385250D1*
Y2382250D1*
Y2379250D1*
Y2376250D1*
Y2373250D1*
Y2370250D1*
Y2367250D1*
X1869878Y2454250D2*
X1872289Y2451250D1*
X1874043Y2448250D1*
X1875048Y2445250D1*
X1875524Y2442250D1*
X1875617Y2439250D1*
X1875202Y2436250D1*
X1874027Y2433250D1*
X1872168Y2430250D1*
X1870160Y2427250D1*
X1868581Y2424250D1*
X1867586Y2421250D1*
X1866878Y2418250D1*
X1905878Y2454250D2*
X1904030Y2451250D1*
X1902425Y2448250D1*
X1901224Y2445250D1*
X1900610Y2442250D1*
X1900659Y2439250D1*
X1901443Y2436250D1*
X1903019Y2433250D1*
X1905338Y2430250D1*
X1907864Y2427250D1*
X1909804Y2424250D1*
X1910935Y2421250D1*
X1911488Y2418250D1*
X1911728Y2415250D1*
X1911823Y2412250D1*
X1911859Y2409250D1*
X1911872Y2406250D1*
X1911853Y2403250D1*
X1911632Y2400250D1*
X1911105Y2397250D1*
X1908903Y2394250D1*
X1906080Y2391250D1*
X1903028Y2388250D1*
X1899949Y2385250D1*
X1896878Y2382250D1*
X1923878Y2454250D2*
X1926289Y2451250D1*
X1928043Y2448250D1*
X1929048Y2445250D1*
X1929524Y2442250D1*
X1929605Y2439250D1*
X1929395Y2436250D1*
X1927605Y2433250D1*
X1924969Y2430250D1*
X1922179Y2427250D1*
X1919760Y2424250D1*
X1918794Y2421250D1*
X1918269Y2418250D1*
X1918032Y2415250D1*
X1917935Y2412250D1*
X1917898Y2409250D1*
X1917885Y2406250D1*
X1917881Y2403250D1*
X1917879Y2400250D1*
X1917867Y2397250D1*
X1917750Y2394250D1*
X1917250Y2391250D1*
X1916020Y2388250D1*
X1913928Y2385250D1*
X1911035Y2382250D1*
X1907528Y2379250D1*
X1903843Y2376250D1*
X1900363Y2373250D1*
X1897213Y2370250D1*
X1894589Y2367250D1*
X1892756Y2364250D1*
X1891723Y2361250D1*
X1891226Y2358250D1*
X1891012Y2355250D1*
X1890927Y2352250D1*
X1890896Y2349250D1*
X1890884Y2346250D1*
X1890880Y2343250D1*
X1890879Y2340250D1*
Y2337250D1*
Y2334250D1*
X1890878Y2331250D1*
X822878Y2454250D2*
X819878Y2451250D1*
X816878Y2448250D1*
X825878Y2451250D2*
X822878Y2448250D1*
X975878D2*
X974494Y2445250D1*
X973620Y2442250D1*
X973079Y2439250D1*
X972503Y2436250D1*
X971706Y2433250D1*
X970908Y2430250D1*
X970362Y2427250D1*
X969975Y2424250D1*
X969464Y2421250D1*
X968692Y2418250D1*
X967903Y2415250D1*
X967372Y2412250D1*
X967079Y2409250D1*
X966846Y2406250D1*
X966411Y2403250D1*
X965672Y2400250D1*
X964895Y2397250D1*
X964358Y2394250D1*
X963973Y2391250D1*
X963463Y2388250D1*
X962692Y2385250D1*
X961903Y2382250D1*
X961360Y2379250D1*
X960974Y2376250D1*
X960464Y2373250D1*
X959692Y2370250D1*
X958903Y2367250D1*
X958372Y2364250D1*
X958079Y2361250D1*
X957846Y2358250D1*
X957411Y2355250D1*
X956671Y2352250D1*
X955887Y2349250D1*
X955316Y2346250D1*
X954878Y2343250D1*
X1011878Y2448250D2*
X1010853Y2445250D1*
X1009960Y2442250D1*
X1009380Y2439250D1*
X1008980Y2436250D1*
X1008465Y2433250D1*
X1007693Y2430250D1*
X1006903Y2427250D1*
X1006372Y2424250D1*
X1006079Y2421250D1*
X1005846Y2418250D1*
X1005411Y2415250D1*
X1004672Y2412250D1*
X1003895Y2409250D1*
X1003358Y2406250D1*
X1002973Y2403250D1*
X1002463Y2400250D1*
X1001692Y2397250D1*
X1000903Y2394250D1*
X1000360Y2391250D1*
X999974Y2388250D1*
X999464Y2385250D1*
X998692Y2382250D1*
X997903Y2379250D1*
X997372Y2376250D1*
X997079Y2373250D1*
X996846Y2370250D1*
X996411Y2367250D1*
X995672Y2364250D1*
X994895Y2361250D1*
X994358Y2358250D1*
X993973Y2355250D1*
X993461Y2352250D1*
X992664Y2349250D1*
X991751Y2346250D1*
X990878Y2343250D1*
X1029878Y2448250D2*
X1028853Y2445250D1*
X1027960Y2442250D1*
X1027380Y2439250D1*
X1026980Y2436250D1*
X1026465Y2433250D1*
X1025693Y2430250D1*
X1024903Y2427250D1*
X1024372Y2424250D1*
X1024079Y2421250D1*
X1023846Y2418250D1*
X1023411Y2415250D1*
X1022672Y2412250D1*
X1021895Y2409250D1*
X1021358Y2406250D1*
X1020973Y2403250D1*
X1020463Y2400250D1*
X1019692Y2397250D1*
X1018903Y2394250D1*
X1018372Y2391250D1*
X1018079Y2388250D1*
X1017846Y2385250D1*
X1017411Y2382250D1*
X1016672Y2379250D1*
X1015895Y2376250D1*
X1015358Y2373250D1*
X1014973Y2370250D1*
X1014463Y2367250D1*
X1013692Y2364250D1*
X1012903Y2361250D1*
X1012360Y2358250D1*
X1011974Y2355250D1*
X1011461Y2352250D1*
X1010665Y2349250D1*
X1009751Y2346250D1*
X1008878Y2343250D1*
X1083878Y2448250D2*
X1096665Y2445250D1*
X1106366Y2442250D1*
X1112933Y2439250D1*
X1117665Y2436250D1*
X1119836Y2433250D1*
X1121345Y2430250D1*
X1122189Y2427250D1*
X1122595Y2424250D1*
X1122769Y2421250D1*
X1122838Y2418250D1*
X1122853Y2415250D1*
X1122757Y2412250D1*
X1122377Y2409250D1*
X1121648Y2406250D1*
X1120762Y2403250D1*
X1119751Y2400250D1*
X1118361Y2397250D1*
X1116617Y2394250D1*
X1114655Y2391250D1*
X1112116Y2388250D1*
X1108498Y2385250D1*
X1103822Y2382250D1*
X1098478Y2379250D1*
X1092878Y2376250D1*
X1176878Y2448250D2*
X1169620Y2445250D1*
X1163260Y2442250D1*
X1158042Y2439250D1*
X1153836Y2436250D1*
X1150280Y2433250D1*
X1147145Y2430250D1*
X1144432Y2427250D1*
X1142127Y2424250D1*
X1139989Y2421250D1*
X1137902Y2418250D1*
X1136015Y2415250D1*
X1134410Y2412250D1*
X1133192Y2409250D1*
X1132372Y2406250D1*
X1131635Y2403250D1*
X1130760Y2400250D1*
X1129928Y2397250D1*
X1129381Y2394250D1*
X1129094Y2391250D1*
X1128964Y2388250D1*
X1128910Y2385250D1*
X1128890Y2382250D1*
X1128882Y2379250D1*
X1128892Y2376250D1*
X1128996Y2373250D1*
X1129390Y2370250D1*
X1130214Y2367250D1*
X1131377Y2364250D1*
X1132736Y2361250D1*
X1134294Y2358250D1*
X1136268Y2355250D1*
X1138992Y2352250D1*
X1142598Y2349250D1*
X1147150Y2346250D1*
X1152707Y2343250D1*
X1158878Y2340250D1*
X1215878Y2448250D2*
X1222100Y2445250D1*
X1227462Y2442250D1*
X1231716Y2439250D1*
X1234793Y2436250D1*
X1236971Y2433250D1*
X1238522Y2430250D1*
X1239713Y2427250D1*
X1240822Y2424250D1*
X1241759Y2421250D1*
X1242350Y2418250D1*
X1242653Y2415250D1*
X1242790Y2412250D1*
X1242847Y2409250D1*
X1242878Y2406250D1*
X1410878Y2448250D2*
Y2445250D1*
Y2442250D1*
Y2439250D1*
Y2436250D1*
Y2433250D1*
Y2430250D1*
Y2427250D1*
Y2424250D1*
Y2421250D1*
Y2418250D1*
X1425878Y2448250D2*
X1428301Y2445250D1*
X1430170Y2442250D1*
X1431641Y2439250D1*
X1433177Y2436250D1*
X1434878Y2433250D1*
X1433356Y2430250D1*
X1431879Y2427250D1*
X1429771Y2424250D1*
X1426626Y2421250D1*
X1422878Y2418250D1*
X1512878Y2448250D2*
X1510354Y2445250D1*
X1508215Y2442250D1*
X1506491Y2439250D1*
X1505246Y2436250D1*
X1504618Y2433250D1*
X1504650Y2430250D1*
X1505324Y2427250D1*
X1506501Y2424250D1*
X1508070Y2421250D1*
X1509878Y2418250D1*
X1524878Y2448250D2*
X1525430Y2445250D1*
X1526483Y2442250D1*
X1527878Y2439250D1*
X1605878Y2448250D2*
Y2445250D1*
Y2442250D1*
Y2439250D1*
Y2436250D1*
Y2433250D1*
Y2430250D1*
Y2427250D1*
Y2424250D1*
Y2421250D1*
Y2418250D1*
Y2415250D1*
Y2412250D1*
Y2409250D1*
X1623878Y2448250D2*
Y2445250D1*
Y2442250D1*
Y2439250D1*
Y2436250D1*
Y2433250D1*
Y2430250D1*
Y2427250D1*
Y2424250D1*
Y2421250D1*
Y2418250D1*
Y2415250D1*
Y2412250D1*
Y2409250D1*
X1656878Y2448250D2*
X1654354Y2445250D1*
X1652215Y2442250D1*
X1650491Y2439250D1*
X1649246Y2436250D1*
X1648618Y2433250D1*
X1648661Y2430250D1*
X1649450Y2427250D1*
X1651090Y2424250D1*
X1653685Y2421250D1*
X1656878Y2418250D1*
X1665878Y2448250D2*
X1668753Y2445250D1*
X1671251Y2442250D1*
X1673032Y2439250D1*
X1674045Y2436250D1*
X1674523Y2433250D1*
X1674617Y2430250D1*
X1674202Y2427250D1*
X1673026Y2424250D1*
X1671119Y2421250D1*
X1668878Y2418250D1*
X1860878Y2448250D2*
X1858430Y2445250D1*
X1856483Y2442250D1*
X1854878Y2439250D1*
X1863878Y2448250D2*
X1866327Y2445250D1*
X1868274Y2442250D1*
X1869878Y2439250D1*
X1908878Y2448250D2*
X1909002Y2445250D1*
X1909467Y2442250D1*
X1910493Y2439250D1*
X1911878Y2436250D1*
X1920878Y2448250D2*
X1920755Y2445250D1*
X1920290Y2442250D1*
X1919263Y2439250D1*
X1917878Y2436250D1*
X810878Y2445250D2*
X807878Y2442250D1*
X804878Y2439250D1*
X816878Y2445250D2*
X813878Y2442250D1*
X810878Y2439250D1*
X1563878D2*
X1561430Y2436250D1*
X1559483Y2433250D1*
X1557878Y2430250D1*
X1566878Y2439250D2*
Y2436250D1*
Y2433250D1*
Y2430250D1*
X801878Y2433250D2*
X798878Y2430250D1*
X795878Y2427250D1*
X807878Y2433250D2*
X804878Y2430250D1*
X801878Y2427250D1*
X1701878Y2433250D2*
Y2430250D1*
Y2427250D1*
Y2424250D1*
Y2421250D1*
Y2418250D1*
Y2415250D1*
Y2412250D1*
Y2409250D1*
X1707878Y2433250D2*
X1708354Y2430250D1*
X1709215Y2427250D1*
X1710479Y2424250D1*
X1712117Y2421250D1*
X1713999Y2418250D1*
X1715892Y2415250D1*
X1717835Y2412250D1*
X1719878Y2409250D1*
X1878878Y2427250D2*
X1876430Y2424250D1*
X1874483Y2421250D1*
X1872878Y2418250D1*
X1890878Y2427250D2*
X1894674Y2424250D1*
X1897727Y2421250D1*
X1898840Y2418250D1*
X1899438Y2415250D1*
X1899695Y2412250D1*
X1899675Y2409250D1*
X1899410Y2406250D1*
X1897726Y2403250D1*
X1895471Y2400250D1*
X1893397Y2397250D1*
X1892070Y2394250D1*
X1891386Y2391250D1*
X1891078Y2388250D1*
X1890949Y2385250D1*
X1890878Y2382250D1*
X1527878Y2424250D2*
X1524878Y2421250D1*
X1521878Y2418250D1*
X1536878Y2424250D2*
X1536403Y2421250D1*
X1535530Y2418250D1*
X1534141Y2415250D1*
X1531942Y2412250D1*
X1528703Y2409250D1*
X1524878Y2406250D1*
X1827878Y2424250D2*
X1824645Y2421250D1*
X1822178Y2418250D1*
X1820529Y2415250D1*
X1819629Y2412250D1*
X1819311Y2409250D1*
X1819359Y2406250D1*
X1820804Y2403250D1*
X1823080Y2400250D1*
X1825813Y2397250D1*
X1828153Y2394250D1*
X1829604Y2391250D1*
X1830340Y2388250D1*
X1830667Y2385250D1*
X1830812Y2382250D1*
X1830980Y2379250D1*
X1831497Y2376250D1*
X1832722Y2373250D1*
X1834711Y2370250D1*
X1837234Y2367250D1*
X1840128Y2364250D1*
X1843426Y2361250D1*
X1847102Y2358250D1*
X1850743Y2355250D1*
X1853762Y2352250D1*
X1856163Y2349250D1*
X1857050Y2346250D1*
X1857553Y2343250D1*
X1857878Y2340250D1*
X1839878Y2424250D2*
X1842753Y2421250D1*
X1845251Y2418250D1*
X1847021Y2415250D1*
X1848203Y2412250D1*
X1848092Y2409250D1*
X1847404Y2406250D1*
X1846113Y2403250D1*
X1844135Y2400250D1*
X1841661Y2397250D1*
X1839476Y2394250D1*
X1838100Y2391250D1*
X1837420Y2388250D1*
X1837328Y2385250D1*
X1837694Y2382250D1*
X1839873Y2379250D1*
X1842684Y2376250D1*
X1845731Y2373250D1*
X1848809Y2370250D1*
X1851878Y2367250D1*
X1938878Y2424250D2*
X1935645Y2421250D1*
X1933178Y2418250D1*
X1931529Y2415250D1*
X1930629Y2412250D1*
X1930311Y2409250D1*
X1930359Y2406250D1*
X1931690Y2403250D1*
X1933582Y2400250D1*
X1935595Y2397250D1*
X1937165Y2394250D1*
X1938094Y2391250D1*
X1938552Y2388250D1*
X1938752Y2385250D1*
X1938820Y2382250D1*
X1938721Y2379250D1*
X1938419Y2376250D1*
X1936604Y2373250D1*
X1933856Y2370250D1*
X1930680Y2367250D1*
X1927865Y2364250D1*
X1925568Y2361250D1*
X1924699Y2358250D1*
X1924228Y2355250D1*
X1924015Y2352250D1*
X1923917Y2349250D1*
X1923756Y2346250D1*
X1923424Y2343250D1*
X1921811Y2340250D1*
X1917199Y2337250D1*
X1910618Y2334250D1*
X1902878Y2331250D1*
X1947878Y2424250D2*
X1951788Y2421250D1*
X1954789Y2418250D1*
X1956937Y2415250D1*
X1958588Y2412250D1*
X1958776Y2409250D1*
X1958263Y2406250D1*
X1957055Y2403250D1*
X1955113Y2400250D1*
X1952653Y2397250D1*
X1950473Y2394250D1*
X1949099Y2391250D1*
X1948396Y2388250D1*
X1948082Y2385250D1*
X1947954Y2382250D1*
X1947894Y2379250D1*
X1947759Y2376250D1*
X1947253Y2373250D1*
X1946033Y2370250D1*
X1944045Y2367250D1*
X1941535Y2364250D1*
X1938758Y2361250D1*
X1935959Y2358250D1*
X1933489Y2355250D1*
X1931708Y2352250D1*
X1930630Y2349250D1*
X1929878Y2346250D1*
X792878Y2424250D2*
Y2421250D1*
Y2418250D1*
X798878Y2424250D2*
Y2421250D1*
Y2418250D1*
X1191878Y2424250D2*
X1186468Y2421250D1*
X1181725Y2418250D1*
X1177826Y2415250D1*
X1174733Y2412250D1*
X1172358Y2409250D1*
X1170531Y2406250D1*
X1169135Y2403250D1*
X1168007Y2400250D1*
X1166922Y2397250D1*
X1165993Y2394250D1*
X1165406Y2391250D1*
X1165103Y2388250D1*
X1164979Y2385250D1*
X1165040Y2382250D1*
X1165530Y2379250D1*
X1166492Y2376250D1*
X1169209Y2373250D1*
X1172789Y2370250D1*
X1176878Y2367250D1*
X1197878Y2424250D2*
X1200753Y2421250D1*
X1203251Y2418250D1*
X1205032Y2415250D1*
X1206048Y2412250D1*
X1206561Y2409250D1*
X1206878Y2406250D1*
X1683878Y2424250D2*
X1683403Y2421250D1*
X1682519Y2418250D1*
X1681015Y2415250D1*
X1678917Y2412250D1*
X1674229Y2409250D1*
X1668878Y2406250D1*
X1689878Y2424250D2*
Y2421250D1*
Y2418250D1*
Y2415250D1*
Y2412250D1*
Y2409250D1*
X1059878Y2421250D2*
X1059867Y2418250D1*
X1059761Y2415250D1*
X1059377Y2412250D1*
X1058633Y2409250D1*
X1057740Y2406250D1*
X1056878Y2403250D1*
X1080878Y2421250D2*
X1083878Y2418250D1*
X1086878Y2415250D1*
X1089878Y2412250D1*
X1087931Y2409250D1*
X1085951Y2406250D1*
X1083878Y2403250D1*
X1551878Y2418250D2*
Y2415250D1*
Y2412250D1*
Y2409250D1*
X1572878Y2418250D2*
X1573430Y2415250D1*
X1574483Y2412250D1*
X1575878Y2409250D1*
X1878878Y2418250D2*
X1879430Y2415250D1*
X1880483Y2412250D1*
X1881878Y2409250D1*
X1887878Y2418250D2*
X1890878Y2415250D1*
X1893878Y2412250D1*
X1890878Y2409250D1*
X1830878Y2415250D2*
X1827878Y2412250D1*
X1824878Y2409250D1*
X1827878Y2406250D1*
X1839878Y2415250D2*
Y2412250D1*
Y2409250D1*
Y2406250D1*
X1941878Y2415250D2*
X1938878Y2412250D1*
X1935878Y2409250D1*
X1938878Y2406250D1*
X1950878Y2415250D2*
X1950327Y2412250D1*
X1949274Y2409250D1*
X1947878Y2406250D1*
X1866878Y2409250D2*
Y2406250D1*
Y2403250D1*
Y2400250D1*
Y2397250D1*
Y2394250D1*
Y2391250D1*
Y2388250D1*
Y2385250D1*
Y2382250D1*
Y2379250D1*
Y2376250D1*
Y2373250D1*
Y2370250D1*
Y2367250D1*
Y2364250D1*
Y2361250D1*
Y2358250D1*
Y2355250D1*
Y2352250D1*
Y2349250D1*
Y2346250D1*
Y2343250D1*
Y2340250D1*
Y2337250D1*
Y2334250D1*
Y2331250D1*
Y2328250D1*
Y2325250D1*
X1872878Y2409250D2*
X1873571Y2406250D1*
X1875083Y2403250D1*
X1877298Y2400250D1*
X1879362Y2397250D1*
X1880688Y2394250D1*
X1881372Y2391250D1*
X1881679Y2388250D1*
X1881804Y2385250D1*
X1881852Y2382250D1*
X1881869Y2379250D1*
X1881875Y2376250D1*
X1881878Y2373250D1*
Y2370250D1*
Y2367250D1*
Y2364250D1*
Y2361250D1*
Y2358250D1*
Y2355250D1*
Y2352250D1*
Y2349250D1*
Y2346250D1*
Y2343250D1*
Y2340250D1*
Y2337250D1*
Y2334250D1*
Y2331250D1*
Y2328250D1*
Y2325250D1*
Y2322250D1*
X1356878Y2388250D2*
Y2385250D1*
Y2382250D1*
Y2379250D1*
Y2376250D1*
Y2373250D1*
Y2370250D1*
Y2367250D1*
Y2364250D1*
Y2361250D1*
Y2358250D1*
Y2355250D1*
Y2352250D1*
Y2349250D1*
Y2346250D1*
Y2343250D1*
Y2340250D1*
X1392878Y2388250D2*
Y2385250D1*
Y2382250D1*
Y2379250D1*
Y2376250D1*
X1368878D1*
Y2373250D1*
Y2370250D1*
Y2367250D1*
X1389878D1*
Y2364250D1*
Y2361250D1*
Y2358250D1*
Y2355250D1*
X1368878D1*
Y2352250D1*
Y2349250D1*
Y2346250D1*
Y2343250D1*
Y2340250D1*
X1407878Y2388250D2*
X1404993Y2385250D1*
X1402389Y2382250D1*
X1400225Y2379250D1*
X1398494Y2376250D1*
X1397235Y2373250D1*
X1396501Y2370250D1*
X1396138Y2367250D1*
X1395980Y2364250D1*
X1395927Y2361250D1*
X1396009Y2358250D1*
X1396394Y2355250D1*
X1397227Y2352250D1*
X1398518Y2349250D1*
X1400487Y2346250D1*
X1403677Y2343250D1*
X1408348Y2340250D1*
X1413878Y2337250D1*
X1431878Y2388250D2*
X1434764Y2385250D1*
X1437368Y2382250D1*
X1439532Y2379250D1*
X1441263Y2376250D1*
X1442522Y2373250D1*
X1443256Y2370250D1*
X1443619Y2367250D1*
X1443777Y2364250D1*
X1443829Y2361250D1*
X1443748Y2358250D1*
X1443363Y2355250D1*
X1442530Y2352250D1*
X1441239Y2349250D1*
X1439270Y2346250D1*
X1436080Y2343250D1*
X1431409Y2340250D1*
X1425878Y2337250D1*
X1449878Y2388250D2*
Y2385250D1*
Y2382250D1*
Y2379250D1*
Y2376250D1*
Y2373250D1*
Y2370250D1*
Y2367250D1*
Y2364250D1*
Y2361250D1*
Y2358250D1*
X1449890Y2355250D1*
X1450007Y2352250D1*
X1450519Y2349250D1*
X1451490Y2346250D1*
X1454208Y2343250D1*
X1457789Y2340250D1*
X1461878Y2337250D1*
X1458878Y2388250D2*
Y2385250D1*
Y2382250D1*
Y2379250D1*
Y2376250D1*
Y2373250D1*
Y2370250D1*
Y2367250D1*
X1458890Y2364250D1*
X1459007Y2361250D1*
X1459506Y2358250D1*
X1460714Y2355250D1*
X1462632Y2352250D1*
X1464878Y2349250D1*
X1476878Y2388250D2*
Y2385250D1*
Y2382250D1*
Y2379250D1*
Y2376250D1*
Y2373250D1*
Y2370250D1*
Y2367250D1*
Y2364250D1*
X1476867Y2361250D1*
X1476753Y2358250D1*
X1476289Y2355250D1*
X1475263Y2352250D1*
X1473878Y2349250D1*
X1488878Y2388250D2*
Y2385250D1*
Y2382250D1*
Y2379250D1*
Y2376250D1*
Y2373250D1*
Y2370250D1*
Y2367250D1*
Y2364250D1*
Y2361250D1*
X1488867Y2358250D1*
X1488761Y2355250D1*
X1488367Y2352250D1*
X1487520Y2349250D1*
X1486137Y2346250D1*
X1483941Y2343250D1*
X1480703Y2340250D1*
X1476878Y2337250D1*
X1494878Y2388250D2*
Y2385250D1*
Y2382250D1*
Y2379250D1*
Y2376250D1*
Y2373250D1*
Y2370250D1*
Y2367250D1*
Y2364250D1*
Y2361250D1*
Y2358250D1*
Y2355250D1*
Y2352250D1*
Y2349250D1*
Y2346250D1*
Y2343250D1*
Y2340250D1*
X1506878Y2388250D2*
X1508739Y2385250D1*
X1510461Y2382250D1*
X1512162Y2379250D1*
X1513993Y2376250D1*
X1515943Y2373250D1*
X1517778Y2370250D1*
X1519389Y2367250D1*
X1520733Y2364250D1*
X1521878Y2361250D1*
X1527878Y2388250D2*
Y2385250D1*
Y2382250D1*
Y2379250D1*
Y2376250D1*
Y2373250D1*
Y2370250D1*
Y2367250D1*
Y2364250D1*
Y2361250D1*
X1536878Y2388250D2*
Y2385250D1*
Y2382250D1*
Y2379250D1*
Y2376250D1*
Y2373250D1*
Y2370250D1*
Y2367250D1*
Y2364250D1*
Y2361250D1*
Y2358250D1*
Y2355250D1*
Y2352250D1*
Y2349250D1*
Y2346250D1*
Y2343250D1*
Y2340250D1*
X1542878Y2388250D2*
Y2385250D1*
Y2382250D1*
Y2379250D1*
Y2376250D1*
Y2373250D1*
Y2370250D1*
Y2367250D1*
Y2364250D1*
Y2361250D1*
Y2358250D1*
Y2355250D1*
Y2352250D1*
Y2349250D1*
Y2346250D1*
Y2343250D1*
Y2340250D1*
X1572878Y2388250D2*
X1576788Y2385250D1*
X1579789Y2382250D1*
X1581948Y2379250D1*
X1583398Y2376250D1*
X1584211Y2373250D1*
X1584602Y2370250D1*
X1584772Y2367250D1*
X1584839Y2364250D1*
X1584853Y2361250D1*
X1584757Y2358250D1*
X1584366Y2355250D1*
X1583531Y2352250D1*
X1582263Y2349250D1*
X1580531Y2346250D1*
X1578318Y2343250D1*
X1575878Y2340250D1*
X1602878Y2388250D2*
X1602403Y2385250D1*
X1601554Y2382250D1*
X1600395Y2379250D1*
X1599139Y2376250D1*
X1597986Y2373250D1*
X1596953Y2370250D1*
X1595892Y2367250D1*
X1594869Y2364250D1*
X1593892Y2361250D1*
X1592767Y2358250D1*
X1591480Y2355250D1*
X1590171Y2352250D1*
X1588988Y2349250D1*
X1587864Y2346250D1*
X1586488Y2343250D1*
X1584878Y2340250D1*
X1617878Y2388250D2*
X1618342Y2385250D1*
X1619098Y2382250D1*
X1619980Y2379250D1*
X1620888Y2376250D1*
X1621897Y2373250D1*
X1622899Y2370250D1*
X1623869Y2367250D1*
X1624991Y2364250D1*
X1626277Y2361250D1*
X1627586Y2358250D1*
X1628760Y2355250D1*
X1629800Y2352250D1*
X1630853Y2349250D1*
X1631778Y2346250D1*
X1632409Y2343250D1*
X1632878Y2340250D1*
X1626878Y2388250D2*
Y2385250D1*
Y2382250D1*
Y2379250D1*
Y2376250D1*
X1641878D1*
Y2373250D1*
Y2370250D1*
Y2367250D1*
Y2364250D1*
Y2361250D1*
Y2358250D1*
Y2355250D1*
Y2352250D1*
Y2349250D1*
Y2346250D1*
Y2343250D1*
Y2340250D1*
X1680878Y2388250D2*
Y2385250D1*
Y2382250D1*
Y2379250D1*
Y2376250D1*
Y2373250D1*
X1695878Y2388250D2*
X1693004Y2385250D1*
X1690505Y2382250D1*
X1688713Y2379250D1*
X1687632Y2376250D1*
X1686878Y2373250D1*
X1719878Y2388250D2*
X1723788Y2385250D1*
X1726789Y2382250D1*
X1728948Y2379250D1*
X1730398Y2376250D1*
X1731211Y2373250D1*
X1731602Y2370250D1*
X1731772Y2367250D1*
X1731839Y2364250D1*
X1731865Y2361250D1*
X1731862Y2358250D1*
X1731748Y2355250D1*
X1731250Y2352250D1*
X1730020Y2349250D1*
X1727919Y2346250D1*
X1724946Y2343250D1*
X1721139Y2340250D1*
X1716878Y2337250D1*
X1737878Y2388250D2*
Y2385250D1*
Y2382250D1*
Y2379250D1*
Y2376250D1*
Y2373250D1*
Y2370250D1*
Y2367250D1*
Y2364250D1*
Y2361250D1*
Y2358250D1*
Y2355250D1*
Y2352250D1*
Y2349250D1*
Y2346250D1*
Y2343250D1*
Y2340250D1*
X1749878Y2388250D2*
X1751379Y2385250D1*
X1753122Y2382250D1*
X1754861Y2379250D1*
X1756514Y2376250D1*
X1758166Y2373250D1*
X1759949Y2370250D1*
X1761878Y2367250D1*
X1767878Y2388250D2*
Y2385250D1*
Y2382250D1*
Y2379250D1*
Y2376250D1*
Y2373250D1*
Y2370250D1*
Y2367250D1*
X1779878Y2388250D2*
Y2385250D1*
Y2382250D1*
Y2379250D1*
Y2376250D1*
Y2373250D1*
Y2370250D1*
Y2367250D1*
Y2364250D1*
Y2361250D1*
Y2358250D1*
Y2355250D1*
Y2352250D1*
Y2349250D1*
Y2346250D1*
Y2343250D1*
Y2340250D1*
X1203878Y2382250D2*
X1201881Y2379250D1*
X1199545Y2376250D1*
X1196189Y2373250D1*
X1191447Y2370250D1*
X1185878Y2367250D1*
X1239878Y2382250D2*
X1238379Y2379250D1*
X1237122Y2376250D1*
X1235849Y2373250D1*
X1234387Y2370250D1*
X1232568Y2367250D1*
X1230272Y2364250D1*
X1227624Y2361250D1*
X1224767Y2358250D1*
X1221713Y2355250D1*
X1218225Y2352250D1*
X1213902Y2349250D1*
X1208457Y2346250D1*
X1201945Y2343250D1*
X1194878Y2340250D1*
X1413878Y2379250D2*
X1411456Y2376250D1*
X1409587Y2373250D1*
X1408116Y2370250D1*
X1406580Y2367250D1*
X1404878Y2364250D1*
X1406389Y2361250D1*
X1407752Y2358250D1*
X1409397Y2355250D1*
X1411516Y2352250D1*
X1413878Y2349250D1*
X1425878Y2379250D2*
X1428301Y2376250D1*
X1430170Y2373250D1*
X1431641Y2370250D1*
X1433177Y2367250D1*
X1434878Y2364250D1*
X1433368Y2361250D1*
X1432005Y2358250D1*
X1430360Y2355250D1*
X1428241Y2352250D1*
X1425878Y2349250D1*
X1551878Y2379250D2*
Y2376250D1*
Y2373250D1*
Y2370250D1*
Y2367250D1*
Y2364250D1*
Y2361250D1*
Y2358250D1*
Y2355250D1*
Y2352250D1*
X1566878Y2379250D2*
X1569301Y2376250D1*
X1571170Y2373250D1*
X1572641Y2370250D1*
X1574177Y2367250D1*
X1575878Y2364250D1*
X1574370Y2361250D1*
X1573040Y2358250D1*
X1571555Y2355250D1*
X1569878Y2352250D1*
X1653878Y2379250D2*
Y2376250D1*
Y2373250D1*
Y2370250D1*
Y2367250D1*
Y2364250D1*
Y2361250D1*
Y2358250D1*
Y2355250D1*
Y2352250D1*
Y2349250D1*
Y2346250D1*
Y2343250D1*
Y2340250D1*
X1668878Y2379250D2*
Y2376250D1*
Y2373250D1*
Y2370250D1*
Y2367250D1*
Y2364250D1*
Y2361250D1*
Y2358250D1*
Y2355250D1*
Y2352250D1*
Y2349250D1*
Y2346250D1*
Y2343250D1*
Y2340250D1*
X1704878Y2379250D2*
X1702004Y2376250D1*
X1699506Y2373250D1*
X1697725Y2370250D1*
X1696712Y2367250D1*
X1696234Y2364250D1*
X1696152Y2361250D1*
X1696362Y2358250D1*
X1697847Y2355250D1*
X1701134Y2352250D1*
X1704878Y2349250D1*
X1713878Y2379250D2*
X1716753Y2376250D1*
X1719251Y2373250D1*
X1721032Y2370250D1*
X1722033Y2367250D1*
X1722417Y2364250D1*
X1722223Y2361250D1*
X1721359Y2358250D1*
X1719687Y2355250D1*
X1717079Y2352250D1*
X1713878Y2349250D1*
X1050878Y2376250D2*
Y2373250D1*
X1050867Y2370250D1*
X1050761Y2367250D1*
X1050379Y2364250D1*
X1049660Y2361250D1*
X1048891Y2358250D1*
X1048368Y2355250D1*
X1048090Y2352250D1*
X1047962Y2349250D1*
X1047908Y2346250D1*
X1047878Y2343250D1*
X1605878Y2370250D2*
Y2367250D1*
Y2364250D1*
Y2361250D1*
X1608878Y2370250D2*
X1611327Y2367250D1*
X1613274Y2364250D1*
X1614878Y2361250D1*
X1503878Y2367250D2*
Y2364250D1*
Y2361250D1*
Y2358250D1*
Y2355250D1*
Y2352250D1*
Y2349250D1*
Y2346250D1*
Y2343250D1*
Y2340250D1*
X1506878Y2367250D2*
X1509403Y2364250D1*
X1511554Y2361250D1*
X1513395Y2358250D1*
X1515139Y2355250D1*
X1516986Y2352250D1*
X1518951Y2349250D1*
X1520875Y2346250D1*
X1522829Y2343250D1*
X1524878Y2340250D1*
X1746878Y2367250D2*
Y2364250D1*
Y2361250D1*
Y2358250D1*
Y2355250D1*
Y2352250D1*
Y2349250D1*
Y2346250D1*
Y2343250D1*
Y2340250D1*
X1752878Y2367250D2*
X1753456Y2364250D1*
X1754596Y2361250D1*
X1756198Y2358250D1*
X1757886Y2355250D1*
X1759524Y2352250D1*
X1761198Y2349250D1*
X1763111Y2346250D1*
X1765398Y2343250D1*
X1767878Y2340250D1*
X1680878Y2358250D2*
Y2355250D1*
Y2352250D1*
Y2349250D1*
Y2346250D1*
Y2343250D1*
Y2340250D1*
X1686878Y2358250D2*
X1687004Y2355250D1*
X1687506Y2352250D1*
X1688736Y2349250D1*
X1690838Y2346250D1*
X1693811Y2343250D1*
X1697618Y2340250D1*
X1701878Y2337250D1*
X1599878Y2349250D2*
X1599327Y2346250D1*
X1598274Y2343250D1*
X1596878Y2340250D1*
X1620878Y2349250D2*
Y2346250D1*
Y2343250D1*
Y2340250D1*
X1041878Y2325250D2*
X1011878Y2322250D1*
X981878Y2319250D1*
X1041878Y2322250D2*
X1028359Y2319250D1*
X1011963Y2316250D1*
X993878Y2313250D1*
X2023773Y988387D2*
D80*
X2022347Y991239D1*
X2019462Y994124D1*
X2016610Y995550D1*
X2010873D1*
X2007988Y994124D1*
X2005136Y991239D1*
X2003677Y988387D1*
X2002251Y984076D1*
Y976880D1*
X2003677Y972602D1*
X2005136Y969717D1*
X2007988Y966865D1*
X2010873Y965406D1*
X2016610D1*
X2019462Y966865D1*
X2022347Y969717D1*
X2023773Y972602D1*
X2033037Y989780D2*
X2035922Y991239D1*
X2040233Y995517D1*
Y965406D1*
X980998Y712277D2*
X979572Y715128D1*
X976687Y718014D1*
X973835Y719439D1*
X968098D1*
X965213Y718014D1*
X962361Y715128D1*
X960902Y712277D1*
X959476Y707966D1*
Y700769D1*
X960902Y696492D1*
X962361Y693606D1*
X965213Y690755D1*
X968098Y689295D1*
X973835D1*
X976687Y690755D1*
X979572Y693606D1*
X980998Y696492D1*
X991720Y712243D2*
Y713669D1*
X993146Y716554D1*
X994572Y717980D1*
X997457Y719406D1*
X1003194D1*
X1006046Y717980D1*
X1007472Y716554D1*
X1008931Y713669D1*
Y710817D1*
X1007472Y707932D1*
X1004620Y703654D1*
X990261Y689295D1*
X1010357D1*
X974565Y3201536D2*
Y3171392D1*
X984613D1*
X988924Y3172851D1*
X991809Y3175703D1*
X993235Y3178588D1*
X994661Y3182866D1*
Y3190062D1*
X993235Y3194373D1*
X991809Y3197225D1*
X988924Y3200110D1*
X984613Y3201536D1*
X974565D1*
X1003925Y3195766D2*
X1006810Y3197225D1*
X1011121Y3201503D1*
Y3171392D1*
X1558205Y3259924D2*
Y3229780D1*
X1568253D1*
X1572564Y3231239D1*
X1575449Y3234091D1*
X1576875Y3236976D1*
X1578301Y3241254D1*
Y3248450D1*
X1576875Y3252761D1*
X1575449Y3255613D1*
X1572564Y3258498D1*
X1568253Y3259924D1*
X1558205D1*
X1589023Y3252728D2*
Y3254154D1*
X1590449Y3257039D1*
X1591875Y3258465D1*
X1594760Y3259891D1*
X1600497D1*
X1603349Y3258465D1*
X1604775Y3257039D1*
X1606234Y3254154D1*
Y3251302D1*
X1604775Y3248417D1*
X1601923Y3244139D1*
X1587564Y3229780D1*
X1607660D1*
X1105798Y2800309D2*
Y2770165D1*
X1115846D1*
X1120157Y2771624D1*
X1123042Y2774476D1*
X1124468Y2777361D1*
X1125894Y2781639D1*
Y2788835D1*
X1124468Y2793146D1*
X1123042Y2795998D1*
X1120157Y2798883D1*
X1115846Y2800309D1*
X1105798D1*
X1138042Y2800276D2*
X1153794D1*
X1145205Y2788802D1*
X1149516D1*
X1152368Y2787376D1*
X1153794Y2785950D1*
X1155253Y2781639D1*
Y2778787D1*
X1153794Y2774476D1*
X1150942Y2771591D1*
X1146631Y2770165D1*
X1142320D1*
X1138042Y2771591D1*
X1136616Y2773050D1*
X1135157Y2775902D1*
X1846591Y1018263D2*
X1827921D1*
Y988119D1*
Y1003904D2*
X1839395D1*
X1857314Y1011067D2*
Y1012493D1*
X1858740Y1015378D1*
X1860166Y1016804D1*
X1863051Y1018230D1*
X1868788D1*
X1871640Y1016804D1*
X1873066Y1015378D1*
X1874525Y1012493D1*
Y1009641D1*
X1873066Y1006756D1*
X1870214Y1002478D1*
X1855855Y988119D1*
X1875951D1*
X1714107Y2051222D2*
Y2028274D1*
X1712681Y2023963D1*
X1711221Y2022537D1*
X1708370Y2021078D1*
X1705485D1*
X1702633Y2022537D1*
X1701207Y2023963D1*
X1699748Y2028274D1*
Y2031126D1*
X1726255Y2051189D2*
X1742007D1*
X1733418Y2039715D1*
X1737729D1*
X1740581Y2038289D1*
X1742007Y2036863D1*
X1743466Y2032552D1*
Y2029700D1*
X1742007Y2025389D1*
X1739155Y2022504D1*
X1734844Y2021078D1*
X1730533D1*
X1726255Y2022504D1*
X1724829Y2023963D1*
X1723370Y2026815D1*
X437466Y1910152D2*
Y1887204D1*
X436040Y1882893D1*
X434581Y1881467D1*
X431729Y1880008D1*
X428844D1*
X425992Y1881467D1*
X424566Y1882893D1*
X423107Y1887204D1*
Y1890056D1*
X461088Y1880008D2*
Y1910119D1*
X446729Y1890056D1*
X468251D1*
X569137Y2205188D2*
Y2182240D1*
X567711Y2177929D1*
X566252Y2176503D1*
X563400Y2175044D1*
X560515D1*
X557663Y2176503D1*
X556237Y2177929D1*
X554778Y2182240D1*
Y2185092D1*
X595611Y2200877D2*
X594185Y2203729D1*
X589874Y2205154D1*
X587022D1*
X582711Y2203729D1*
X579826Y2199418D1*
X578400Y2192255D1*
Y2185092D1*
X579826Y2179355D1*
X582711Y2176470D1*
X587022Y2175044D1*
X588448D1*
X592726Y2176470D1*
X595611Y2179355D1*
X597037Y2183666D1*
Y2185092D1*
X595611Y2189403D1*
X592726Y2192255D1*
X588448Y2193681D1*
X587022D1*
X582711Y2192255D1*
X579826Y2189403D1*
X578400Y2185092D1*
X1001872Y3453246D2*
X1014772D1*
X1019083Y3454705D1*
X1020542Y3456131D1*
X1021968Y3458983D1*
Y3461868D1*
X1020542Y3464720D1*
X1019083Y3466179D1*
X1014772Y3467605D1*
X1001872D1*
Y3437461D1*
X1011920Y3453246D2*
X1021968Y3437461D1*
X1031232Y3461835D2*
X1034117Y3463294D1*
X1038428Y3467572D1*
Y3437461D1*
X1430538Y3499712D2*
X1443438D1*
X1447749Y3501171D1*
X1449208Y3502597D1*
X1450634Y3505449D1*
Y3508334D1*
X1449208Y3511186D1*
X1447749Y3512645D1*
X1443438Y3514071D1*
X1430538D1*
Y3483927D1*
X1440586Y3499712D2*
X1450634Y3483927D1*
X1461357Y3506875D2*
Y3508301D1*
X1462782Y3511186D1*
X1464208Y3512612D1*
X1467093Y3514038D1*
X1472830D1*
X1475682Y3512612D1*
X1477108Y3511186D1*
X1478567Y3508301D1*
Y3505449D1*
X1477108Y3502564D1*
X1474256Y3498286D1*
X1459897Y3483927D1*
X1479993D1*
X743123Y1104760D2*
X756023D1*
X760334Y1106220D1*
X761793Y1107645D1*
X763219Y1110497D1*
Y1113382D1*
X761793Y1116234D1*
X760334Y1117693D1*
X756023Y1119119D1*
X743123D1*
Y1088975D1*
X753171Y1104760D2*
X763219Y1088975D1*
X786841D2*
Y1119086D1*
X772482Y1099023D1*
X794004D1*
X1900510Y1743980D2*
X1913410D1*
X1917721Y1745439D1*
X1919180Y1746865D1*
X1920606Y1749717D1*
Y1752602D1*
X1919180Y1755454D1*
X1917721Y1756913D1*
X1913410Y1758339D1*
X1900510D1*
Y1728195D1*
X1910558Y1743980D2*
X1920606Y1728195D1*
X1947081Y1754028D2*
X1945655Y1756879D1*
X1941344Y1758305D1*
X1938492D1*
X1934181Y1756879D1*
X1931296Y1752568D1*
X1929870Y1745405D1*
Y1738243D1*
X1931296Y1732506D1*
X1934181Y1729621D1*
X1938492Y1728195D1*
X1939918D1*
X1944196Y1729621D1*
X1947081Y1732506D1*
X1948507Y1736817D1*
Y1738243D1*
X1947081Y1742554D1*
X1944196Y1745405D1*
X1939918Y1746831D1*
X1938492D1*
X1934181Y1745405D1*
X1931296Y1742554D1*
X1929870Y1738243D1*
X849615Y862808D2*
X862515D1*
X866826Y864267D1*
X868285Y865693D1*
X869711Y868545D1*
Y871430D1*
X868285Y874282D1*
X866826Y875741D1*
X862515Y877167D1*
X849615D1*
Y847023D1*
X859663Y862808D2*
X869711Y847023D1*
X884712D2*
X899071Y877133D1*
X878975D1*
X775203Y991835D2*
X788103D1*
X792414Y993294D1*
X793873Y994720D1*
X795299Y997572D1*
Y1000457D1*
X793873Y1003309D1*
X792414Y1004768D1*
X788103Y1006194D1*
X775203D1*
Y976050D1*
X785251Y991835D2*
X795299Y976050D1*
X811725Y1006161D2*
X807447Y1004735D1*
X805988Y1001883D1*
Y998998D1*
X807447Y996146D1*
X810299Y994687D1*
X816036Y993261D1*
X820347Y991835D1*
X823199Y988950D1*
X824625Y986098D1*
Y981787D1*
X823199Y978935D1*
X821773Y977476D1*
X817462Y976050D1*
X811725D1*
X807447Y977476D1*
X805988Y978935D1*
X804562Y981787D1*
Y986098D1*
X805988Y988950D1*
X808873Y991835D1*
X813151Y993261D1*
X818888Y994687D1*
X821773Y996146D1*
X823199Y998998D1*
Y1001883D1*
X821773Y1004735D1*
X817462Y1006161D1*
X811725D1*
X738142Y1210902D2*
X751042D1*
X755353Y1212361D1*
X756812Y1213787D1*
X758238Y1216639D1*
Y1219524D1*
X756812Y1222376D1*
X755353Y1223835D1*
X751042Y1225261D1*
X738142D1*
Y1195117D1*
X748190Y1210902D2*
X758238Y1195117D1*
X786171Y1215213D2*
X784712Y1210902D1*
X781860Y1208017D1*
X777549Y1206591D1*
X776123D1*
X771812Y1208017D1*
X768961Y1210902D1*
X767501Y1215213D1*
Y1216639D1*
X768961Y1220950D1*
X771812Y1223802D1*
X776123Y1225228D1*
X777549D1*
X781860Y1223802D1*
X784712Y1220950D1*
X786171Y1215213D1*
Y1208017D1*
X784712Y1200854D1*
X781860Y1196543D1*
X777549Y1195117D1*
X774698D1*
X770387Y1196543D1*
X768961Y1199428D1*
X2229761Y1772776D2*
X2242661D1*
X2246972Y1774235D1*
X2248431Y1775661D1*
X2249857Y1778513D1*
Y1781398D1*
X2248431Y1784250D1*
X2246972Y1785709D1*
X2242661Y1787135D1*
X2229761D1*
Y1756991D1*
X2239809Y1772776D2*
X2249857Y1756991D1*
X2259120Y1781365D2*
X2262005Y1782824D1*
X2266316Y1787102D1*
Y1756991D1*
X2277039Y1779939D2*
Y1781365D1*
X2278465Y1784250D1*
X2279891Y1785676D1*
X2282776Y1787102D1*
X2288513D1*
X2291365Y1785676D1*
X2292791Y1784250D1*
X2294250Y1781365D1*
Y1778513D1*
X2292791Y1775628D1*
X2289939Y1771350D1*
X2275580Y1756991D1*
X2295676D1*
X2113620Y1760277D2*
X2126520D1*
X2130831Y1761737D1*
X2132290Y1763163D1*
X2133716Y1766014D1*
Y1768899D1*
X2132290Y1771751D1*
X2130831Y1773211D1*
X2126520Y1774636D1*
X2113620D1*
Y1744492D1*
X2123668Y1760277D2*
X2133716Y1744492D1*
X2142980Y1768866D2*
X2145865Y1770325D1*
X2150176Y1774603D1*
Y1744492D1*
X2162325Y1774603D2*
X2178076D1*
X2169488Y1763129D1*
X2173799D1*
X2176650Y1761703D1*
X2178076Y1760277D1*
X2179536Y1755966D1*
Y1753115D1*
X2178076Y1748803D1*
X2175225Y1745918D1*
X2170914Y1744492D1*
X2166602D1*
X2162325Y1745918D1*
X2160899Y1747378D1*
X2159440Y1750229D1*
X2000175Y1747535D2*
X2013075D1*
X2017386Y1748994D1*
X2018845Y1750420D1*
X2020271Y1753272D1*
Y1756157D1*
X2018845Y1759009D1*
X2017386Y1760468D1*
X2013075Y1761894D1*
X2000175D1*
Y1731750D1*
X2010223Y1747535D2*
X2020271Y1731750D1*
X2029535Y1756124D2*
X2032420Y1757583D1*
X2036731Y1761861D1*
Y1731750D1*
X2060353D2*
Y1761861D1*
X2045994Y1741798D1*
X2067516D1*
X2214189Y1482985D2*
X2211337Y1485870D1*
X2207026Y1487296D1*
X2201289D1*
X2196978Y1485870D1*
X2194093Y1482985D1*
Y1480133D1*
X2195552Y1477248D1*
X2196978Y1475822D1*
X2199830Y1474396D1*
X2208452Y1471511D1*
X2211337Y1470085D1*
X2212763Y1468626D1*
X2214189Y1465774D1*
Y1461463D1*
X2211337Y1458611D1*
X2207026Y1457152D1*
X2201289D1*
X2196978Y1458611D1*
X2194093Y1461463D1*
X2223452Y1481526D2*
X2226337Y1482985D1*
X2230648Y1487263D1*
Y1457152D1*
X2187059Y1178516D2*
X2184207Y1181401D1*
X2179896Y1182827D1*
X2174159D1*
X2169848Y1181401D1*
X2166963Y1178516D1*
Y1175664D1*
X2168422Y1172779D1*
X2169848Y1171353D1*
X2172700Y1169927D1*
X2181322Y1167042D1*
X2184207Y1165616D1*
X2185633Y1164157D1*
X2187059Y1161305D1*
Y1156994D1*
X2184207Y1154142D1*
X2179896Y1152683D1*
X2174159D1*
X2169848Y1154142D1*
X2166963Y1156994D1*
X2197782Y1175631D2*
Y1177057D1*
X2199208Y1179942D1*
X2200634Y1181368D1*
X2203519Y1182794D1*
X2209256D1*
X2212108Y1181368D1*
X2213534Y1179942D1*
X2214993Y1177057D1*
Y1174205D1*
X2213534Y1171320D1*
X2210682Y1167042D1*
X2196323Y1152683D1*
X2216419D1*
X983380Y2091344D2*
Y2069822D1*
X984806Y2065511D1*
X987691Y2062659D1*
X992002Y2061200D1*
X994854D1*
X999165Y2062659D1*
X1002050Y2065511D1*
X1003476Y2069822D1*
Y2091344D1*
X1012740Y2085574D2*
X1015625Y2087033D1*
X1019936Y2091311D1*
Y2061200D1*
X1478917Y703510D2*
Y681989D1*
X1480343Y677678D1*
X1483228Y674826D1*
X1487539Y673366D1*
X1490391D1*
X1494702Y674826D1*
X1497587Y677678D1*
X1499013Y681989D1*
Y703510D1*
X1522635Y673366D2*
Y703477D1*
X1508276Y683414D1*
X1529798D1*
X603318Y3730130D2*
D81*
X624321D1*
X612869Y3714831D1*
X618617D1*
X622419Y3712930D1*
X624321Y3711028D1*
X626266Y3705280D1*
Y3701478D1*
X624321Y3695730D1*
X620518Y3691883D1*
X614770Y3689982D1*
X609022D1*
X603318Y3691883D1*
X601417Y3693828D1*
X599472Y3697631D1*
X640519Y3693828D2*
X638618Y3691883D1*
X640519Y3689982D1*
X642464Y3691883D1*
X640519Y3693828D1*
X658663Y3730130D2*
X679665D1*
X668213Y3714831D1*
X673961D1*
X677764Y3712930D1*
X679665Y3711028D1*
X681610Y3705280D1*
Y3701478D1*
X679665Y3695730D1*
X675862Y3691883D1*
X670114Y3689982D1*
X664366D1*
X658663Y3691883D1*
X656761Y3693828D1*
X654816Y3697631D1*
X693962Y3730174D2*
X709260Y3689982D1*
X724559Y3730174D1*
X1808769Y3813510D2*
X1806867Y3817313D1*
X1803021Y3821160D1*
X1799218Y3823061D1*
X1791569D1*
X1787722Y3821160D1*
X1783919Y3817313D1*
X1781974Y3813510D1*
X1780073Y3807762D1*
Y3798167D1*
X1781974Y3792464D1*
X1783919Y3788617D1*
X1787722Y3784814D1*
X1791569Y3782869D1*
X1799218D1*
X1803021Y3784814D1*
X1806867Y3788617D1*
X1808769Y3792464D1*
Y3798167D1*
X1799218D1*
X1847915Y3823061D2*
Y3782869D1*
X1821120Y3823061D1*
Y3782869D1*
X1860266Y3823061D2*
Y3782869D1*
X1873663D1*
X1879411Y3784814D1*
X1883258Y3788617D1*
X1885159Y3792464D1*
X1887061Y3798167D1*
Y3807762D1*
X1885159Y3813510D1*
X1883258Y3817313D1*
X1879411Y3821160D1*
X1873663Y3823061D1*
X1860266D1*
X649023Y1893968D2*
X652870Y1895914D1*
X658618Y1901618D1*
Y1861470D1*
X682465Y1901618D2*
X676717Y1899716D1*
X672870Y1893968D1*
X670969Y1884418D1*
Y1878670D1*
X672870Y1869119D1*
X676717Y1863371D1*
X682465Y1861470D1*
X686268D1*
X692016Y1863371D1*
X695818Y1869119D1*
X697764Y1878670D1*
Y1884418D1*
X695818Y1893968D1*
X692016Y1899716D1*
X686268Y1901618D1*
X682465D1*
X695818Y1893968D2*
X672870Y1869119D1*
X676302Y1783744D2*
X674356Y1777996D1*
X670554Y1774149D1*
X664806Y1772248D1*
X662905D1*
X657157Y1774149D1*
X653354Y1777996D1*
X651409Y1783744D1*
Y1785645D1*
X653354Y1791393D1*
X657157Y1795195D1*
X662905Y1797097D1*
X664806D1*
X670554Y1795195D1*
X674356Y1791393D1*
X676302Y1783744D1*
Y1774149D1*
X674356Y1764598D1*
X670554Y1758850D1*
X664806Y1756949D1*
X661003D1*
X655255Y1758850D1*
X653354Y1762697D1*
X650211Y1698103D2*
Y1671353D1*
Y1661802D2*
X648266Y1659857D1*
X650211Y1657955D1*
X652112Y1659857D1*
X650211Y1661802D1*
X664464Y1679002D2*
X681664D1*
X687412Y1680948D1*
X689357Y1682849D1*
X691258Y1686651D1*
Y1690498D1*
X689357Y1694301D1*
X687412Y1696246D1*
X681664Y1698147D1*
X664464D1*
Y1657955D1*
X677861Y1679002D2*
X691258Y1657955D1*
X730404Y1692399D2*
X726602Y1696246D1*
X720854Y1698147D1*
X713205D1*
X707457Y1696246D1*
X703610Y1692399D1*
Y1688597D1*
X705555Y1684750D1*
X707457Y1682849D1*
X711259Y1680948D1*
X722755Y1677101D1*
X726602Y1675200D1*
X728503Y1673254D1*
X730404Y1669452D1*
Y1663704D1*
X726602Y1659901D1*
X720854Y1657955D1*
X713205D1*
X707457Y1659901D1*
X703610Y1663704D1*
X756153Y1698147D2*
Y1657955D1*
X742756Y1698147D2*
X769551D1*
X656245Y1602254D2*
X650541Y1600353D1*
X648596Y1596550D1*
Y1592704D1*
X650541Y1588901D1*
X654344Y1586956D1*
X661993Y1585054D1*
X667741Y1583153D1*
X671544Y1579306D1*
X673445Y1575504D1*
Y1569756D1*
X671544Y1565953D1*
X669643Y1564008D1*
X663895Y1562106D1*
X656245D1*
X650541Y1564008D1*
X648596Y1565953D1*
X646695Y1569756D1*
Y1575504D1*
X648596Y1579306D1*
X652443Y1583153D1*
X658147Y1585054D1*
X665796Y1586956D1*
X669643Y1588901D1*
X671544Y1592704D1*
Y1596550D1*
X669643Y1600353D1*
X663895Y1602254D1*
X656245D1*
X656631Y1455929D2*
X675777Y1496077D1*
X648982D1*
X675072Y1394524D2*
X673170Y1398327D1*
X667422Y1400228D1*
X663620D1*
X657872Y1398327D1*
X654025Y1392579D1*
X652124Y1383028D1*
Y1373477D1*
X654025Y1365828D1*
X657872Y1361981D1*
X663620Y1360080D1*
X665521D1*
X671225Y1361981D1*
X675072Y1365828D1*
X676973Y1371576D1*
Y1373477D1*
X675072Y1379226D1*
X671225Y1383028D1*
X665521Y1384929D1*
X663620D1*
X657872Y1383028D1*
X654025Y1379226D1*
X652124Y1373477D1*
X1594834Y1942115D2*
X1589086Y1940214D1*
X1585239Y1934466D1*
X1583338Y1924915D1*
Y1919167D1*
X1585239Y1909617D1*
X1589086Y1903869D1*
X1594834Y1901967D1*
X1598636D1*
X1604384Y1903869D1*
X1608187Y1909617D1*
X1610132Y1919167D1*
Y1924915D1*
X1608187Y1934466D1*
X1604384Y1940214D1*
X1598636Y1942115D1*
X1594834D1*
X1608187Y1934466D2*
X1585239Y1909617D1*
X1588052Y1840186D2*
X1591898Y1842132D1*
X1597646Y1847836D1*
Y1807688D1*
X1586854Y1740864D2*
Y1742765D1*
X1588755Y1746612D1*
X1590657Y1748513D1*
X1594503Y1750414D1*
X1602153D1*
X1605955Y1748513D1*
X1607856Y1746612D1*
X1609802Y1742765D1*
Y1738962D1*
X1607856Y1735116D1*
X1604054Y1729412D1*
X1584909Y1710267D1*
X1611703D1*
X1590326Y1646708D2*
X1611329D1*
X1599877Y1631410D1*
X1605625D1*
X1609427Y1629508D1*
X1611329Y1627607D1*
X1613274Y1621859D1*
Y1618057D1*
X1611329Y1612308D1*
X1607526Y1608462D1*
X1601778Y1606560D1*
X1596030D1*
X1590326Y1608462D1*
X1588425Y1610407D1*
X1586479Y1614210D1*
X1605625Y1510710D2*
Y1550858D1*
X1586479Y1524107D1*
X1615175D1*
X1614106Y1439295D2*
X1595005D1*
X1593103Y1422095D1*
X1595005Y1423996D1*
X1600753Y1425942D1*
X1606457D1*
X1612205Y1423996D1*
X1616051Y1420194D1*
X1617953Y1414446D1*
Y1410643D1*
X1616051Y1404895D1*
X1612205Y1401048D1*
X1606457Y1399147D1*
X1600753D1*
X1595005Y1401048D1*
X1593103Y1402994D1*
X1591158Y1406796D1*
X742444Y782516D2*
D80*
X751066Y762420D1*
X759655Y782516D1*
X786129Y788253D2*
X784703Y791105D1*
X780392Y792531D1*
X777540D1*
X773229Y791105D1*
X770344Y786794D1*
X768918Y779631D1*
Y772468D1*
X770344Y766731D1*
X773229Y763846D1*
X777540Y762420D1*
X778966D1*
X783244Y763846D1*
X786129Y766731D1*
X787555Y771042D1*
Y772468D1*
X786129Y776779D1*
X783244Y779631D1*
X778966Y781057D1*
X777540D1*
X773229Y779631D1*
X770344Y776779D1*
X768918Y772468D1*
X798245Y765305D2*
X796819Y763846D1*
X798245Y762420D1*
X799704Y763846D1*
X798245Y765305D1*
X808967Y786794D2*
X811852Y788253D1*
X816163Y792531D1*
Y762420D1*
X1769667Y821589D2*
X1766815D1*
X1763930Y820163D1*
X1762504Y815852D1*
Y791445D1*
X1758193Y811541D2*
X1768241D1*
X1778931D2*
Y797182D1*
X1780357Y792904D1*
X1783242Y791445D1*
X1787553D1*
X1790405Y792904D1*
X1794716Y797182D1*
Y811541D2*
Y791445D1*
X1819764Y807230D2*
X1818338Y810115D1*
X1814027Y811541D1*
X1809716D1*
X1805405Y810115D1*
X1803979Y807230D1*
X1805405Y804378D1*
X1808290Y802919D1*
X1815453Y801493D1*
X1818338Y800067D1*
X1819764Y797182D1*
Y795756D1*
X1818338Y792904D1*
X1814027Y791445D1*
X1809716D1*
X1805405Y792904D1*
X1803979Y795756D1*
X1829028Y802919D2*
X1846239D1*
Y805804D1*
X1844813Y808689D1*
X1843387Y810115D1*
X1840502Y811541D1*
X1836191D1*
X1833339Y810115D1*
X1830454Y807230D1*
X1829028Y802919D1*
Y800067D1*
X1830454Y795756D1*
X1833339Y792904D1*
X1836191Y791445D1*
X1840502D1*
X1843387Y792904D1*
X1846239Y795756D1*
X1148440Y1381142D2*
D84*
X1128344Y1401795D1*
X1148440Y1422448D1*
X1198514Y1439122D2*
Y1488188D1*
X1148440Y1504863D2*
X1128344Y1525516D1*
X1148440Y1546169D1*
X1188565Y1656698D2*
X1128278Y1635985D1*
X1188565Y1615332D1*
X1168469Y1623092D2*
Y1648938D1*
X1128277Y1691459D2*
X1188565D1*
X1128277Y1673373D2*
Y1709545D1*
Y1744306D2*
X1188565D1*
X1128277Y1726220D2*
Y1762393D1*
Y1779067D2*
X1188565D1*
X1128277Y1831914D2*
X1188565D1*
X1128277Y1795741D1*
X1188565D1*
X1128277Y1848589D2*
X1156996Y1869242D1*
X1188565D1*
X1128277Y1889895D2*
X1156996Y1869242D1*
X1128344Y1919462D2*
X1131196Y1911762D1*
X1136900Y1909136D1*
X1142670D1*
X1148373Y1911762D1*
X1151292Y1916896D1*
X1154144Y1927222D1*
X1156996Y1934982D1*
X1162766Y1940116D1*
X1168469Y1942682D1*
X1177092D1*
X1182795Y1940116D1*
X1185714Y1937549D1*
X1188565Y1929789D1*
Y1919462D1*
X1185714Y1911762D1*
X1182795Y1909136D1*
X1177092Y1906569D1*
X1168469D1*
X1162766Y1909136D1*
X1156996Y1914329D1*
X1154144Y1922029D1*
X1151292Y1932356D1*
X1148373Y1937549D1*
X1142670Y1940116D1*
X1136900D1*
X1131196Y1937549D1*
X1128344Y1929789D1*
Y1919462D1*
X1188565Y1985203D2*
X1128344D1*
X1168469Y1959357D1*
Y1998096D1*
X522400Y1992812D2*
D81*
Y2008331D1*
X520499Y2013465D1*
X518554Y2015216D1*
X514751Y2016927D1*
X509003D1*
X505200Y2015216D1*
X503255Y2013465D1*
X501354Y2008331D1*
Y1992812D1*
X541546D1*
X520499Y2028043D2*
Y2043523D1*
X518554Y2048696D1*
X516652Y2050447D1*
X512850Y2052158D1*
X509003D1*
X505200Y2050447D1*
X503255Y2048696D1*
X501354Y2043523D1*
Y2028043D1*
X541546D1*
X520499Y2040101D2*
X541546Y2052158D1*
X501354Y2073621D2*
X503255Y2070159D1*
X507102Y2066737D1*
X510904Y2064986D1*
X516652Y2063274D1*
X526247D1*
X531951Y2064986D1*
X535798Y2066736D1*
X539600Y2070159D1*
X541546Y2073621D1*
Y2080505D1*
X539600Y2083928D1*
X535798Y2087390D1*
X531951Y2089101D1*
X526247Y2090812D1*
X516652D1*
X510904Y2089101D1*
X507102Y2087390D1*
X503255Y2083928D1*
X501354Y2080505D1*
Y2073621D1*
X510904Y2127755D2*
X507102Y2126043D1*
X503255Y2122581D1*
X501354Y2119159D1*
Y2112275D1*
X503255Y2108813D1*
X507102Y2105390D1*
X510904Y2103639D1*
X516652Y2101928D1*
X526247D1*
X531951Y2103639D1*
X535798Y2105390D1*
X539600Y2108813D1*
X541546Y2112275D1*
Y2119159D1*
X539600Y2122581D1*
X535798Y2126043D1*
X531951Y2127754D1*
X526247D1*
Y2119159D1*
X1433776Y2241794D2*
D85*
X1437103Y2238467D1*
X1440507Y2241794D1*
X1437103Y2245198D1*
X1433776Y2241794D1*
X1437103Y2218348D2*
Y2171458D1*
X1462122Y2218348D2*
Y2148012D1*
Y2208289D2*
X1468854Y2214944D1*
X1475509Y2218348D1*
X1485568D1*
X1492300Y2214944D1*
X1498954Y2208289D1*
X1502359Y2198230D1*
Y2191499D1*
X1498954Y2181517D1*
X1492300Y2174785D1*
X1485568Y2171458D1*
X1475509D1*
X1468854Y2174785D1*
X1462122Y2181517D1*
X1564210Y2208289D2*
X1557478Y2215021D1*
X1550746Y2218348D1*
X1540764D1*
X1534033Y2215021D1*
X1527378Y2208289D1*
X1523974Y2198230D1*
Y2191576D1*
X1527378Y2181517D1*
X1534033Y2174862D1*
X1540764Y2171458D1*
X1550746D1*
X1557478Y2174862D1*
X1564210Y2181517D1*
X1585825Y2198230D2*
X1625984D1*
Y2204962D1*
X1622656Y2211694D1*
X1619329Y2215021D1*
X1612597Y2218348D1*
X1602538D1*
X1595884Y2215021D1*
X1589152Y2208289D1*
X1585825Y2198230D1*
Y2191576D1*
X1589152Y2181517D1*
X1595884Y2174862D1*
X1602538Y2171458D1*
X1612597D1*
X1619329Y2174862D1*
X1625984Y2181517D1*
X1674371Y2241794D2*
X1667717D1*
X1660985Y2238467D1*
X1657658Y2228408D1*
Y2171458D1*
X1647599Y2218348D2*
X1671044D1*
X1699313Y2178190D2*
X1695986Y2174785D1*
X1699313Y2171458D1*
X1702718Y2174785D1*
X1699313Y2178190D1*
X1741046Y2218348D2*
X1734392Y2215021D1*
X1727660Y2208289D1*
X1724333Y2198230D1*
Y2191576D1*
X1727660Y2181517D1*
X1734392Y2174862D1*
X1741046Y2171458D1*
X1751105D1*
X1757837Y2174862D1*
X1764492Y2181517D1*
X1767896Y2191576D1*
Y2198230D1*
X1764492Y2208289D1*
X1757837Y2215021D1*
X1751105Y2218348D1*
X1741046D1*
X1789511D2*
Y2171458D1*
Y2198230D2*
X1792916Y2208289D1*
X1799570Y2215021D1*
X1806302Y2218348D1*
X1816361D1*
X1878135Y2215021D2*
Y2161399D1*
X1874808Y2151417D1*
X1871480Y2148012D1*
X1864749Y2144685D1*
X1854690D1*
X1848035Y2148012D1*
X1878135Y2204962D2*
X1871480Y2211617D1*
X1864749Y2215021D1*
X1854690D1*
X1848035Y2211617D1*
X1841303Y2204962D1*
X1837976Y2194903D1*
Y2188171D1*
X1841303Y2178190D1*
X1848035Y2171458D1*
X1854690Y2168131D1*
X1864749D1*
X1871480Y2171458D1*
X1878135Y2178190D1*
X1022251Y1298863D2*
D86*
Y1178287D1*
X1091095D1*
X1128149Y1224182D2*
X1196993D1*
Y1235723D1*
X1191289Y1247263D1*
X1185585Y1252967D1*
X1174045Y1258671D1*
X1156801D1*
X1145393Y1252967D1*
X1133853Y1241427D1*
X1128149Y1224182D1*
Y1212775D1*
X1133853Y1195531D1*
X1145393Y1184123D1*
X1156801Y1178287D1*
X1174045D1*
X1185585Y1184123D1*
X1196993Y1195531D1*
X1302891Y1258671D2*
Y1178287D1*
Y1241427D2*
X1291483Y1252967D1*
X1279943Y1258671D1*
X1262831D1*
X1251291Y1252967D1*
X1239883Y1241427D1*
X1234047Y1224182D1*
Y1212775D1*
X1239883Y1195531D1*
X1251291Y1184123D1*
X1262831Y1178287D1*
X1279943D1*
X1291483Y1184123D1*
X1302891Y1195531D1*
X1339945Y1258671D2*
Y1178287D1*
Y1224182D2*
X1345781Y1241427D1*
X1357189Y1252967D1*
X1368729Y1258671D1*
X1385973D1*
X1423027D2*
Y1178287D1*
Y1235723D2*
X1440271Y1252967D1*
X1451812Y1258671D1*
X1468923D1*
X1480463Y1252967D1*
X1486167Y1235723D1*
Y1178287D1*
X1346486Y1105590D2*
D87*
X1342683Y1113284D1*
X1331187Y1117086D1*
X1319691D1*
X1308195Y1113284D1*
X1304393Y1105590D1*
X1308195Y1097985D1*
X1315889Y1094094D1*
X1334990Y1090292D1*
X1342683Y1086489D1*
X1346486Y1078796D1*
Y1074993D1*
X1342683Y1067388D1*
X1331187Y1063497D1*
X1319691D1*
X1308195Y1067388D1*
X1304393Y1074993D1*
X1371189Y1143881D2*
Y1063497D1*
X1409480Y1117086D2*
X1371189Y1078796D1*
X1386487Y1094094D2*
X1413282Y1063497D1*
X1437985Y1143881D2*
X1441787Y1140079D1*
X1445678Y1143881D1*
X1441787Y1147772D1*
X1437985Y1143881D1*
X1441787Y1117086D2*
Y1063497D1*
X1470381Y1143881D2*
Y1063497D1*
X1495084Y1143881D2*
Y1063497D1*
X1561880Y1105590D2*
X1558078Y1113284D1*
X1546581Y1117086D1*
X1535085D1*
X1523589Y1113284D1*
X1519787Y1105590D1*
X1523589Y1097985D1*
X1531283Y1094094D1*
X1550384Y1090292D1*
X1558078Y1086489D1*
X1561880Y1078796D1*
Y1074993D1*
X1558078Y1067388D1*
X1546581Y1063497D1*
X1535085D1*
X1523589Y1067388D1*
X1519787Y1074993D1*
X1059146Y1012163D2*
Y947078D1*
X1062568Y935670D1*
X1069492Y931779D1*
X1076337D1*
X1048800Y985369D2*
X1072915D1*
X1098570Y1012163D2*
Y931779D1*
Y970070D2*
X1108916Y981566D1*
X1115840Y985369D1*
X1126187D1*
X1133031Y981566D1*
X1136454Y970070D1*
Y931779D1*
X1199992Y985369D2*
Y931779D1*
Y973872D2*
X1193148Y981566D1*
X1186224Y985369D1*
X1175957D1*
X1169033Y981566D1*
X1162188Y973872D1*
X1158686Y962376D1*
Y954771D1*
X1162188Y943275D1*
X1169033Y935670D1*
X1175957Y931779D1*
X1186224D1*
X1193148Y935670D1*
X1199992Y943275D1*
X1232571Y1012163D2*
Y947078D1*
X1235994Y935670D1*
X1242918Y931779D1*
X1249762D1*
X1222225Y985369D2*
X1246340D1*
X1341980Y1012163D2*
X1345402Y1008361D1*
X1348904Y1012163D1*
X1345402Y1016054D1*
X1341980Y1012163D1*
X1345402Y985369D2*
Y931779D1*
X1371137Y985369D2*
Y931779D1*
Y970070D2*
X1381483Y981566D1*
X1388408Y985369D1*
X1398674D1*
X1405599Y981566D1*
X1409021Y970070D1*
Y931779D1*
X1472560Y1012163D2*
Y931779D1*
Y973872D2*
X1465715Y981566D1*
X1458791Y985369D1*
X1448444D1*
X1441600Y981566D1*
X1434676Y973872D1*
X1431253Y962376D1*
Y954771D1*
X1434676Y943275D1*
X1441600Y935670D1*
X1448444Y931779D1*
X1458791D1*
X1465715Y935670D1*
X1472560Y943275D1*
X1494792Y985369D2*
Y947078D1*
X1498214Y935670D1*
X1505139Y931779D1*
X1515485D1*
X1522330Y935670D1*
X1532676Y947078D1*
Y985369D2*
Y931779D1*
X1592793Y973872D2*
X1589370Y981566D1*
X1579024Y985369D1*
X1568677D1*
X1558331Y981566D1*
X1554909Y973872D1*
X1558331Y966267D1*
X1565255Y962376D1*
X1582446Y958574D1*
X1589370Y954771D1*
X1592793Y947078D1*
Y943275D1*
X1589370Y935670D1*
X1579024Y931779D1*
X1568677D1*
X1558331Y935670D1*
X1554909Y943275D1*
X1625371Y1012163D2*
Y947078D1*
X1628794Y935670D1*
X1635718Y931779D1*
X1642563D1*
X1615025Y985369D2*
X1639140D1*
X1664795D2*
Y931779D1*
Y962376D2*
X1668297Y973872D1*
X1675142Y981566D1*
X1682066Y985369D1*
X1692412D1*
X1718147D2*
X1738760Y931779D1*
X1731915Y916481D1*
X1724991Y908787D1*
X1718147Y904985D1*
X1714645D1*
X1759453Y985369D2*
X1738760Y931779D1*
X1375378Y866506D2*
Y812917D1*
Y851208D2*
X1386874Y862704D1*
X1394568Y866506D1*
X1405976D1*
X1413669Y862704D1*
X1417472Y851208D1*
Y812917D1*
X1442174Y843514D2*
X1488070D1*
Y851208D1*
X1484268Y858901D1*
X1480465Y862704D1*
X1472772Y866506D1*
X1461276D1*
X1453670Y862704D1*
X1445977Y855010D1*
X1442174Y843514D1*
Y835909D1*
X1445977Y824413D1*
X1453670Y816808D1*
X1461276Y812917D1*
X1472772D1*
X1480465Y816808D1*
X1488070Y824413D1*
X1512773Y843514D2*
X1558669D1*
Y851208D1*
X1554866Y858901D1*
X1551064Y862704D1*
X1543370Y866506D1*
X1531874D1*
X1524269Y862704D1*
X1516576Y855010D1*
X1512773Y843514D1*
Y835909D1*
X1516576Y824413D1*
X1524269Y816808D1*
X1531874Y812917D1*
X1543370D1*
X1551064Y816808D1*
X1558669Y824413D1*
X1629267Y893301D2*
Y812917D1*
Y855010D2*
X1621662Y862704D1*
X1613969Y866506D1*
X1602473D1*
X1594868Y862704D1*
X1587174Y855010D1*
X1583372Y843514D1*
Y835909D1*
X1587174Y824413D1*
X1594868Y816808D1*
X1602473Y812917D1*
X1613969D1*
X1621662Y816808D1*
X1629267Y824413D1*
X1696064Y855010D2*
X1692261Y862704D1*
X1680765Y866506D1*
X1669269D1*
X1657773Y862704D1*
X1653970Y855010D1*
X1657773Y847405D1*
X1665466Y843514D1*
X1684567Y839712D1*
X1692261Y835909D1*
X1696064Y828216D1*
Y824413D1*
X1692261Y816808D1*
X1680765Y812917D1*
X1669269D1*
X1657773Y816808D1*
X1653970Y824413D1*
X1081631Y662514D2*
D80*
X1078746Y665399D1*
X1075861Y666825D1*
X1071583D1*
X1068698Y665399D1*
X1065846Y662514D1*
X1064387Y658203D1*
Y655351D1*
X1065846Y651040D1*
X1068698Y648188D1*
X1071583Y646729D1*
X1075861D1*
X1078746Y648188D1*
X1081631Y651040D1*
X1108106Y666825D2*
Y646729D1*
Y662514D2*
X1105254Y665399D1*
X1102369Y666825D1*
X1098091D1*
X1095206Y665399D1*
X1092354Y662514D1*
X1090895Y658203D1*
Y655351D1*
X1092354Y651040D1*
X1095206Y648188D1*
X1098091Y646729D1*
X1102369D1*
X1105254Y648188D1*
X1108106Y651040D1*
X1117369Y666825D2*
Y636681D1*
Y662514D2*
X1120254Y665365D1*
X1123106Y666825D1*
X1127417D1*
X1130302Y665365D1*
X1133154Y662514D1*
X1134613Y658203D1*
Y655317D1*
X1133154Y651040D1*
X1130302Y648155D1*
X1127417Y646729D1*
X1123106D1*
X1120254Y648155D1*
X1117369Y651040D1*
X1924707Y788693D2*
X1921822Y791578D1*
X1918937Y793004D1*
X1914659D1*
X1911774Y791578D1*
X1908923Y788693D1*
X1907463Y784382D1*
Y781530D1*
X1908923Y777219D1*
X1911774Y774367D1*
X1914659Y772908D1*
X1918937D1*
X1921822Y774367D1*
X1924707Y777219D1*
X1951182Y793004D2*
Y772908D1*
Y788693D2*
X1948330Y791578D1*
X1945445Y793004D1*
X1941167D1*
X1938282Y791578D1*
X1935430Y788693D1*
X1933971Y784382D1*
Y781530D1*
X1935430Y777219D1*
X1938282Y774367D1*
X1941167Y772908D1*
X1945445D1*
X1948330Y774367D1*
X1951182Y777219D1*
X1960446Y793004D2*
Y762860D1*
Y788693D2*
X1963331Y791545D1*
X1966182Y793004D1*
X1970494D1*
X1973379Y791545D1*
X1976230Y788693D1*
X1977690Y784382D1*
Y781497D1*
X1976230Y777219D1*
X1973379Y774334D1*
X1970494Y772908D1*
X1966182D1*
X1963331Y774334D1*
X1960446Y777219D1*
X2023515Y1433453D2*
X2034989Y1443501D1*
X2046463Y1433453D1*
X2055726Y1408416D2*
X2082985D1*
X2092249Y1433453D2*
X2103723Y1443501D1*
X2115197Y1433453D1*
X1977814Y1130274D2*
X1989287Y1140322D1*
X2000761Y1130274D1*
X2010025Y1105237D2*
X2037284D1*
X2046547Y1130274D2*
X2058021Y1140322D1*
X2069495Y1130274D1*
M02*
