G04 DipTrace 3.0.0.2*
G04 BottomSilk.gbr*
%MOMM*%
G04 #@! TF.FileFunction,Legend,Bot*
G04 #@! TF.Part,Single*
%ADD12C,0.0762*%
%ADD80C,0.15686*%
%ADD81C,0.31373*%
%ADD82C,0.23529*%
%ADD83C,0.27451*%
%ADD85C,0.19608*%
%FSLAX35Y35*%
G04*
G71*
G90*
G75*
G01*
G04 BotSilk*
%LPD*%
X1976540Y8249283D2*
D12*
X2487080D1*
X2616620D2*
X3119540D1*
X1976540Y8241663D2*
X2486790D1*
X2616910D2*
X3119540D1*
X1976540Y8234043D2*
X2485813D1*
X2617887D2*
X3119540D1*
X1976540Y8226423D2*
X2483987D1*
X2619713D2*
X3119540D1*
X1976540Y8218803D2*
X2482033D1*
X2621667D2*
X3119540D1*
X1976540Y8211183D2*
X2480674D1*
X2623026D2*
X3119540D1*
X1976540Y8203563D2*
X2479699D1*
X2624001D2*
X3119540D1*
X1976540Y8195943D2*
X2478405D1*
X2625295D2*
X3119540D1*
X1976540Y8188323D2*
X2476446D1*
X2627254D2*
X3119540D1*
X1976540Y8180703D2*
X2474441D1*
X2629259D2*
X3119540D1*
X1976540Y8173083D2*
X2473064D1*
X2630607D2*
X3119540D1*
X1976540Y8165463D2*
X2266100D1*
X2290167D2*
X2472053D1*
X2631379D2*
X2813533D1*
X2837600D2*
X3119540D1*
X1976540Y8157843D2*
X2258480D1*
X2299944D2*
X2470399D1*
X2632330D2*
X2803726D1*
X2845220D2*
X3119540D1*
X1976540Y8150223D2*
X2250860D1*
X2310538D2*
X2467674D1*
X2634017D2*
X2792894D1*
X2852840D2*
X3119540D1*
X1976540Y8142603D2*
X2243240D1*
X2321615D2*
X2459504D1*
X2642196D2*
X2781113D1*
X2860460D2*
X3119540D1*
X1976540Y8134983D2*
X2235620D1*
X2333165D2*
X2447698D1*
X2654662D2*
X2768715D1*
X2868080D2*
X3119540D1*
X1976540Y8127363D2*
X2227970D1*
X2345510D2*
X2432369D1*
X2670626D2*
X2756285D1*
X2875700D2*
X3119540D1*
X1976540Y8119743D2*
X2220112D1*
X2358888D2*
X2414587D1*
X2688820D2*
X2743731D1*
X2883320D2*
X3119540D1*
X1976540Y8112123D2*
X2211848D1*
X2372780D2*
X2395640D1*
X2708060D2*
X2730920D1*
X2890940D2*
X3119540D1*
X1976540Y8104503D2*
X2203970D1*
X2898560D2*
X3119540D1*
X1976540Y8096883D2*
X2197293D1*
X2906180D2*
X3119540D1*
X1976540Y8089263D2*
X2196360D1*
X2913800D2*
X3119540D1*
X1976540Y8081643D2*
X2199456D1*
X2906470D2*
X3119540D1*
X1976540Y8074023D2*
X2203390D1*
X2899827D2*
X3119540D1*
X1976540Y8066403D2*
X2208203D1*
X2894033D2*
X3119540D1*
X1976540Y8058783D2*
X2213896D1*
X2888397D2*
X3119540D1*
X1976540Y8051163D2*
X2219715D1*
X2882374D2*
X3119540D1*
X1976540Y8043543D2*
X2225142D1*
X2876432D2*
X3119540D1*
X1976540Y8035923D2*
X2230630D1*
X2870960D2*
X3119540D1*
X1976540Y8028303D2*
X2236597D1*
X2865457D2*
X3119540D1*
X1976540Y8020683D2*
X2242513D1*
X2859515D2*
X3119540D1*
X1976540Y8013063D2*
X2247913D1*
X2853919D2*
X3119540D1*
X1976540Y8005443D2*
X2253125D1*
X2849175D2*
X3119540D1*
X1976540Y7997823D2*
X2258480D1*
X2847693D2*
X3119540D1*
X1976540Y7990203D2*
X2253785D1*
X2849241D2*
X3119540D1*
X1976540Y7982583D2*
X2249678D1*
X2851839D2*
X3119540D1*
X1976540Y7974963D2*
X2246329D1*
X2855094D2*
X3119540D1*
X1976540Y7967343D2*
X2243503D1*
X2858688D2*
X3119540D1*
X1976540Y7959723D2*
X2240503D1*
X2862408D2*
X3119540D1*
X1976540Y7952103D2*
X2237149D1*
X2509940D2*
X2593760D1*
X2866194D2*
X3119540D1*
X1976540Y7944483D2*
X2233566D1*
X2496198D2*
X2607502D1*
X2869987D2*
X3119540D1*
X1976540Y7936863D2*
X2229725D1*
X2484121D2*
X2619579D1*
X2873919D2*
X3119540D1*
X1976540Y7929243D2*
X2224708D1*
X2473949D2*
X2629751D1*
X2878972D2*
X3119540D1*
X1976540Y7921623D2*
X2217861D1*
X2465121D2*
X2638579D1*
X2885836D2*
X3119540D1*
X1976540Y7914003D2*
X2197787D1*
X2457234D2*
X2646466D1*
X2905912D2*
X3119540D1*
X1976540Y7906383D2*
X2169356D1*
X2450402D2*
X2653298D1*
X2934343D2*
X3119540D1*
X1976540Y7898763D2*
X2134985D1*
X2444795D2*
X2658876D1*
X2968715D2*
X3119540D1*
X1976540Y7891143D2*
X2098460D1*
X2440101D2*
X2663331D1*
X3005240D2*
X3119540D1*
X1976540Y7883523D2*
X2098460D1*
X2435923D2*
X2666806D1*
X3005240D2*
X3119540D1*
X1976540Y7875903D2*
X2098460D1*
X2432228D2*
X2669647D1*
X3005240D2*
X3119540D1*
X1976540Y7868283D2*
X2098460D1*
X2429353D2*
X2672393D1*
X3005240D2*
X3119540D1*
X1976540Y7860663D2*
X2098460D1*
X2427621D2*
X2674750D1*
X3005240D2*
X3119540D1*
X1976540Y7853043D2*
X2098460D1*
X2426752D2*
X2676242D1*
X3005240D2*
X3119540D1*
X1976540Y7845423D2*
X2098460D1*
X2426367D2*
X2677010D1*
X3005240D2*
X3119540D1*
X1976540Y7837803D2*
X2098460D1*
X2426211D2*
X2677325D1*
X3005240D2*
X3119540D1*
X1976540Y7830183D2*
X2098460D1*
X2426182D2*
X2677199D1*
X3005240D2*
X3119540D1*
X1976540Y7822563D2*
X2098460D1*
X2426429D2*
X2676281D1*
X3005240D2*
X3119540D1*
X1976540Y7814943D2*
X2098460D1*
X2427422D2*
X2674446D1*
X3005240D2*
X3119540D1*
X1976540Y7807323D2*
X2098579D1*
X2429513D2*
X2672231D1*
X3005240D2*
X3119540D1*
X1976540Y7799703D2*
X2099204D1*
X2432466D2*
X2669904D1*
X3005240D2*
X3119540D1*
X1976540Y7792083D2*
X2100365D1*
X2435918D2*
X2667075D1*
X3005240D2*
X3119540D1*
X1976540Y7784463D2*
X2119225D1*
X2439817D2*
X2663530D1*
X3005240D2*
X3119540D1*
X1976540Y7776843D2*
X2145159D1*
X2444325D2*
X2658974D1*
X2967022D2*
X3119540D1*
X1976540Y7769223D2*
X2172819D1*
X2449509D2*
X2653168D1*
X2933909D2*
X3119540D1*
X1976540Y7761603D2*
X2194965D1*
X2455407D2*
X2646450D1*
X2909719D2*
X3119540D1*
X1976540Y7753983D2*
X2211655D1*
X2462543D2*
X2639197D1*
X2892138D2*
X3119540D1*
X1976540Y7746363D2*
X2219098D1*
X2470870D2*
X2631498D1*
X2884636D2*
X3119540D1*
X1976540Y7738743D2*
X2224763D1*
X2479697D2*
X2623295D1*
X2878917D2*
X3119540D1*
X1976540Y7731123D2*
X2229140D1*
X2487968D2*
X2615409D1*
X2874295D2*
X3119540D1*
X1976540Y7723503D2*
X2232540D1*
X2494957D2*
X2608652D1*
X2870159D2*
X3119540D1*
X1976540Y7715883D2*
X2235368D1*
X2496634D2*
X2607035D1*
X2866239D2*
X3119540D1*
X1976540Y7708263D2*
X2238363D1*
X2494824D2*
X2608863D1*
X2862412D2*
X3119540D1*
X1976540Y7700643D2*
X2241684D1*
X2492065D2*
X2611630D1*
X2858862D2*
X3119540D1*
X1976540Y7693023D2*
X2244997D1*
X2488703D2*
X2614965D1*
X2856043D2*
X3119540D1*
X1976540Y7685403D2*
X2247688D1*
X2485078D2*
X2618354D1*
X2854360D2*
X3119540D1*
X1976540Y7677783D2*
X2249064D1*
X2481327D2*
X2621372D1*
X2853796D2*
X3119540D1*
X1976540Y7670163D2*
X2249387D1*
X2477546D2*
X2624061D1*
X2854652D2*
X3119540D1*
X1976540Y7662543D2*
X2246142D1*
X2473768D2*
X2627007D1*
X2857323D2*
X3119540D1*
X1976540Y7654923D2*
X2241376D1*
X2470205D2*
X2630341D1*
X2861341D2*
X3119540D1*
X1976540Y7647303D2*
X2235994D1*
X2467122D2*
X2633917D1*
X2865871D2*
X3119540D1*
X1976540Y7639683D2*
X2230779D1*
X2464411D2*
X2637637D1*
X2870963D2*
X3119540D1*
X1976540Y7632063D2*
X2225599D1*
X2461457D2*
X2641403D1*
X2876770D2*
X3119540D1*
X1976540Y7624443D2*
X2220361D1*
X2458120D2*
X2645176D1*
X2882632D2*
X3119540D1*
X1976540Y7616823D2*
X2215302D1*
X2454543D2*
X2648737D1*
X2888045D2*
X3119540D1*
X1976540Y7609203D2*
X2209999D1*
X2450823D2*
X2651818D1*
X2893270D2*
X3119540D1*
X1976540Y7601583D2*
X2204172D1*
X2447057D2*
X2654529D1*
X2898208D2*
X3119540D1*
X1976540Y7593963D2*
X2198907D1*
X2443255D2*
X2657484D1*
X2902476D2*
X3119540D1*
X1976540Y7586343D2*
X2194894D1*
X2439456D2*
X2660820D1*
X2903680D2*
X3119540D1*
X1976540Y7578723D2*
X2194493D1*
X2435671D2*
X2664397D1*
X2900946D2*
X3119540D1*
X1976540Y7571103D2*
X2202465D1*
X2432134D2*
X2668093D1*
X2896197D2*
X3119540D1*
X1976540Y7563483D2*
X2211045D1*
X2372780D2*
D3*
X2429298D2*
X2671662D1*
X2730920D2*
D3*
X2889968D2*
X3119540D1*
X1976540Y7555863D2*
X2219491D1*
X2358747D2*
X2388020D1*
X2427457D2*
X2674822D1*
X2715680D2*
X2746160D1*
X2882947D2*
X3119540D1*
X1976540Y7548243D2*
X2227599D1*
X2345664D2*
X2403260D1*
X2426120D2*
X2677580D1*
X2700440D2*
X2756705D1*
X2875564D2*
X3119540D1*
X1976540Y7540623D2*
X2235456D1*
X2333398D2*
X2767838D1*
X2868032D2*
X3119540D1*
X1976540Y7533003D2*
X2243177D1*
X2321609D2*
X2779707D1*
X2860444D2*
X3119540D1*
X1976540Y7525383D2*
X2250837D1*
X2310230D2*
X2791937D1*
X2852835D2*
X3119540D1*
X1976540Y7517763D2*
X2258472D1*
X2299376D2*
X2803619D1*
X2845218D2*
X3119540D1*
X1976540Y7510143D2*
X2266100D1*
X2288960D2*
X2814740D1*
X2837600D2*
X3119540D1*
X1976540Y7502523D2*
X3119540D1*
X1976540Y7494903D2*
X3119540D1*
X1976540Y7487283D2*
X3119540D1*
X1976540Y7479663D2*
X3119540D1*
X1976540Y7472043D2*
X3119540D1*
X1976540Y7464423D2*
X3119540D1*
X1976540Y7456803D2*
X3119540D1*
X1976540Y7449183D2*
X3119540D1*
X1976540Y7441563D2*
X3119540D1*
X1976540Y7433943D2*
X3119540D1*
X1976540Y7426323D2*
X3119540D1*
X1976540Y7418703D2*
X3119540D1*
X1976540Y7411083D2*
X2007645D1*
X2028353D2*
X2106080D1*
X2125915D2*
X2189900D1*
X2205140D2*
X2228000D1*
X2250860D2*
X2281340D1*
X2295082D2*
X2359038D1*
X2372780D2*
X2435238D1*
X2453575D2*
X2550842D1*
X2567875D2*
X2718965D1*
X2730920D2*
X2759999D1*
X2776640D2*
X2838210D1*
X2859850D2*
X2946068D1*
X2967140D2*
X2997620D1*
X3012860D2*
X3077105D1*
X3096680D2*
X3119540D1*
X1976540Y7403463D2*
X1994771D1*
X2040161D2*
X2090840D1*
X2142180D2*
X2174660D1*
X2220380D2*
X2228000D1*
X2250860D2*
X2281340D1*
X2299539D2*
X2354581D1*
X2372780D2*
X2423191D1*
X2469810D2*
X2533329D1*
X2584110D2*
X2703439D1*
X2746160D2*
X2749705D1*
X2776640D2*
X2825251D1*
X2872809D2*
X2934998D1*
X2982380D2*
X2990000D1*
X3012860D2*
X3061579D1*
X3111920D2*
X3119540D1*
X1976540Y7395843D2*
X1984744D1*
X2007020D2*
X2029880D1*
X2049332D2*
X2075600D1*
X2113700D2*
X2121320D1*
X2153903D2*
X2182280D1*
X2197520D2*
X2205140D1*
X2250860D2*
X2281340D1*
X2302091D2*
X2352029D1*
X2372780D2*
X2413317D1*
X2441360D2*
X2456600D1*
X2482850D2*
X2517560D1*
X2548040D2*
X2570900D1*
X2597150D2*
X2692839D1*
X2730920D2*
X2738540D1*
X2776640D2*
X2815230D1*
X2837600D2*
X2860460D1*
X2882830D2*
X2926950D1*
X2959520D2*
X2967140D1*
X3012860D2*
X3050979D1*
X3081440D2*
X3089060D1*
X1976540Y7388223D2*
D3*
X2000896D2*
X2036004D1*
X2056067D2*
X2083220D1*
X2098460D2*
X2131250D1*
X2161876D2*
X2214780D1*
X2250860D2*
X2281340D1*
X2303328D2*
X2350792D1*
X2372780D2*
X2405728D1*
X2434325D2*
X2462722D1*
X2489552D2*
X2578520D1*
X2603733D2*
X2685967D1*
X2721280D2*
X2744662D1*
X2776640D2*
X2808261D1*
X2831476D2*
X2866584D1*
X2889799D2*
X2921315D1*
X2952195D2*
X2975353D1*
X3012860D2*
X3044107D1*
X3071800D2*
X3097273D1*
X1996412Y7380603D2*
X2040488D1*
X2061000D2*
X2138872D1*
X2167344D2*
X2222536D1*
X2250860D2*
X2281340D1*
X2303864D2*
X2350256D1*
X2372780D2*
X2399817D1*
X2429115D2*
X2467179D1*
X2492231D2*
X2586140D1*
X2605956D2*
X2680951D1*
X2713524D2*
X2749119D1*
X2776640D2*
X2803052D1*
X2826992D2*
X2871068D1*
X2895008D2*
X2917583D1*
X2946841D2*
X2981619D1*
X3012860D2*
X3039091D1*
X3064044D2*
X3103539D1*
X1993686Y7372983D2*
X2043214D1*
X2064410D2*
X2144358D1*
X2170967D2*
X2225362D1*
X2250860D2*
X2281340D1*
X2304077D2*
X2350043D1*
X2372780D2*
X2397668D1*
X2427525D2*
X2469731D1*
X2493660D2*
X2569777D1*
X2603709D2*
X2679220D1*
X2710698D2*
X2751671D1*
X2776640D2*
X2801225D1*
X2824266D2*
X2873794D1*
X2896834D2*
X2915504D1*
X2942830D2*
X2985807D1*
X3012860D2*
X3037360D1*
X3061218D2*
X3107727D1*
X1991780Y7365363D2*
X2045120D1*
X2066326D2*
X2148011D1*
X2172963D2*
X2226882D1*
X2250860D2*
X2281340D1*
X2304157D2*
X2349963D1*
X2372780D2*
X2396504D1*
X2426699D2*
X2470968D1*
X2494297D2*
X2551983D1*
X2592997D2*
X2678280D1*
X2709178D2*
X2752908D1*
X2776640D2*
X2800233D1*
X2822360D2*
X2875700D1*
X2897824D2*
X2914503D1*
X2940161D2*
X2988094D1*
X3012860D2*
X3036420D1*
X3059698D2*
X3110014D1*
X2067007Y7357743D2*
X2150404D1*
X2173673D2*
X2227564D1*
X2250860D2*
X2281340D1*
X2304215D2*
X2349905D1*
X2372780D2*
X2396008D1*
X2426340D2*
X2471474D1*
X2494552D2*
X2535854D1*
X2577383D2*
X2677855D1*
X2708496D2*
X2753444D1*
X2776640D2*
X2799769D1*
X2898242D2*
X2914101D1*
X2938722D2*
X2988932D1*
X3012860D2*
X3035995D1*
X3059045D2*
X3110852D1*
X1976540Y7350123D2*
X2045120D1*
X2066420D2*
X2150286D1*
X2173095D2*
X2227840D1*
X2250860D2*
X2281340D1*
X2304523D2*
X2349568D1*
X2372750D2*
X2396092D1*
X2426288D2*
X2471389D1*
X2494619D2*
X2524035D1*
X2560442D2*
X2677681D1*
X2708220D2*
X2753657D1*
X2776640D2*
X2875700D1*
X2898126D2*
X2914197D1*
X2940262D2*
X2988375D1*
X3012860D2*
X3035851D1*
X3059097D2*
X3110295D1*
X1976540Y7342503D2*
X2043989D1*
X2064463D2*
X2147543D1*
X2171141D2*
X2227944D1*
X2250860D2*
X2281340D1*
X2305793D2*
X2348760D1*
X2372482D2*
X2397280D1*
X2427107D2*
X2470202D1*
X2494355D2*
X2515462D1*
X2545832D2*
X2677616D1*
X2708116D2*
X2753737D1*
X2776640D2*
X2874569D1*
X2896926D2*
X2915134D1*
X2942547D2*
X2986157D1*
X3012860D2*
X3036083D1*
X3059769D2*
X3108077D1*
X1976540Y7334883D2*
X2040149D1*
X2061273D2*
X2140730D1*
X2167922D2*
X2228011D1*
X2250860D2*
X2281370D1*
X2308861D2*
X2344905D1*
X2371452D2*
X2399621D1*
X2429160D2*
X2467164D1*
X2493068D2*
X2513079D1*
X2532800D2*
X2677592D1*
X2708079D2*
X2753795D1*
X2776640D2*
X2870729D1*
X2893828D2*
X2917263D1*
X2946116D2*
X2981899D1*
X3012860D2*
X3037388D1*
X3063567D2*
X3103819D1*
X1976540Y7327263D2*
X2031781D1*
X2056582D2*
X2083220D1*
X2098460D2*
X2131682D1*
X2162942D2*
X2228314D1*
X2250860D2*
X2281660D1*
X2313734D2*
X2335847D1*
X2369045D2*
X2405826D1*
X2438065D2*
X2462301D1*
X2490607D2*
X2514907D1*
X2540420D2*
X2586140D1*
X2601380D2*
X2677584D1*
X2708066D2*
X2754095D1*
X2776640D2*
X2862361D1*
X2888498D2*
X2920766D1*
X2952021D2*
X2975270D1*
X3012860D2*
X3039934D1*
X3071925D2*
X3097190D1*
X1976540Y7319643D2*
D3*
X2007020D2*
X2022260D1*
X2049665D2*
X2075600D1*
X2113700D2*
X2121320D1*
X2154847D2*
X2229496D1*
X2250860D2*
X2282838D1*
X2319440D2*
X2324419D1*
X2364717D2*
X2414699D1*
X2448980D2*
X2456600D1*
X2483702D2*
X2522723D1*
X2548040D2*
X2570900D1*
X2609000D2*
X2677581D1*
X2708062D2*
X2755276D1*
X2776640D2*
X2809922D1*
X2837600D2*
X2852840D1*
X2880949D2*
X2926342D1*
X2959520D2*
X2967140D1*
X3012860D2*
X3048166D1*
X3081440D2*
X3089060D1*
X3119540D2*
D3*
X1976540Y7312023D2*
X1984160D1*
X2040409D2*
X2090840D1*
X2142986D2*
X2232102D1*
X2250860D2*
X2285443D1*
X2304200D2*
X2311820D1*
X2358062D2*
X2427009D1*
X2474608D2*
X2534247D1*
X2590188D2*
X2677580D1*
X2708061D2*
X2757882D1*
X2776640D2*
X2822889D1*
X2871282D2*
X2934566D1*
X2982380D2*
X2990000D1*
X3012860D2*
X3059902D1*
X3108348D2*
X3119540D1*
X1976540Y7304403D2*
X1999400D1*
X2029880D2*
X2106080D1*
X2128940D2*
X2235620D1*
X2250860D2*
X2288960D1*
X2304200D2*
X2327060D1*
X2349920D2*
X2441360D1*
X2464220D2*
X2548040D1*
X2570900D2*
X2677580D1*
X2708060D2*
X2761400D1*
X2776640D2*
X2837600D1*
X2860460D2*
X2944280D1*
X2967140D2*
X2990000D1*
X3012860D2*
X3073820D1*
X3096680D2*
X3119540D1*
X1976540Y7296783D2*
X2990000D1*
X3012860D2*
X3119540D1*
X1976540Y7289163D2*
X2990000D1*
X3012860D2*
X3119540D1*
X1976540Y7281543D2*
X2990000D1*
X3012860D2*
X3119540D1*
X1976540Y7273923D2*
X2593760D1*
X2616620D2*
X2990000D1*
X3012860D2*
X3119540D1*
X1976540Y7266303D2*
X2593760D1*
X2616620D2*
X2990000D1*
X3012860D2*
X3119540D1*
X1976540Y7258683D2*
X2593760D1*
X2616620D2*
X2990000D1*
X3012860D2*
X3119540D1*
X1976540Y7251063D2*
X2593760D1*
X2616620D2*
X2990000D1*
X3012860D2*
X3119540D1*
X1976540Y7243443D2*
X2593760D1*
X2616620D2*
X2990000D1*
X3012860D2*
X3119540D1*
X1976540Y7235823D2*
X2593760D1*
X2616620D2*
X2990000D1*
X3012860D2*
X3119540D1*
X1976540Y7228203D2*
X2121610D1*
X2171955D2*
X2209821D1*
X2250860D2*
X2258480D1*
X2281340D2*
X2327380D1*
X2388020D2*
X2409412D1*
X2432272D2*
X2488548D1*
X2510230D2*
X2557158D1*
X2577342D2*
X2593760D1*
X2616620D2*
X2624240D1*
X2667255D2*
X2697501D1*
X2738540D2*
X2753780D1*
X2776640D2*
X2815947D1*
X2883320D2*
X2939365D1*
X2982380D2*
X2990000D1*
X3012860D2*
X3119540D1*
X1976540Y7220583D2*
X2114997D1*
X2181845D2*
X2224700D1*
X2281340D2*
X2321034D1*
X2395640D2*
X2414137D1*
X2436997D2*
X2483823D1*
X2511207D2*
X2552671D1*
X2575423D2*
X2593760D1*
X2677145D2*
X2712410D1*
X2776640D2*
X2810514D1*
X2890940D2*
X2929475D1*
X3012860D2*
X3119540D1*
X1976540Y7212963D2*
X2109501D1*
X2136560D2*
X2167040D1*
X2188775D2*
X2238943D1*
X2281340D2*
X2316509D1*
X2334680D2*
X2417660D1*
X2440520D2*
X2480300D1*
X2513063D2*
X2549852D1*
X2573183D2*
X2593760D1*
X2624240D2*
X2654720D1*
X2684075D2*
X2726946D1*
X2776640D2*
X2806136D1*
X2854983D2*
X2922545D1*
X2951900D2*
X2982380D1*
X3012860D2*
X3119540D1*
X1976540Y7205343D2*
X2105104D1*
X2133015D2*
X2170585D1*
X2193969D2*
X2250469D1*
X2281340D2*
X2313937D1*
X2334680D2*
X2420752D1*
X2443612D2*
X2477208D1*
X2515285D2*
X2547643D1*
X2570877D2*
X2593760D1*
X2621635D2*
X2659415D1*
X2689269D2*
X2738037D1*
X2776640D2*
X2802944D1*
X2822360D2*
X2917351D1*
X2946068D2*
X2984985D1*
X3012860D2*
X3119540D1*
X1976540Y7197723D2*
X2101906D1*
X2130659D2*
X2172941D1*
X2195795D2*
X2254628D1*
X2281340D2*
X2312694D1*
X2334680D2*
X2423509D1*
X2446369D2*
X2474451D1*
X2494700D2*
D3*
X2517585D2*
X2545253D1*
X2568314D2*
X2593760D1*
X2619367D2*
X2663463D1*
X2691095D2*
X2746381D1*
X2776640D2*
X2801080D1*
X2834441D2*
X2915525D1*
X2941549D2*
X2987253D1*
X3012860D2*
X3119540D1*
X1976540Y7190103D2*
X2100034D1*
X2128940D2*
X2174660D1*
X2196785D2*
X2256855D1*
X2281340D2*
X2312157D1*
X2334680D2*
X2426022D1*
X2448882D2*
X2471938D1*
X2491153D2*
X2502320D1*
X2520147D2*
X2542818D1*
X2565769D2*
X2593760D1*
X2617952D2*
X2666275D1*
X2692085D2*
X2753780D1*
X2776640D2*
X2800160D1*
X2851098D2*
X2914535D1*
X2941603D2*
X2988697D1*
X3012860D2*
X3119540D1*
X1976540Y7182483D2*
X2099068D1*
X2197232D2*
X2257849D1*
X2281340D2*
X2311943D1*
X2363375D2*
X2428663D1*
X2451495D2*
X2469325D1*
X2488696D2*
X2503498D1*
X2522714D2*
X2540432D1*
X2563305D2*
X2593760D1*
X2617474D2*
X2667833D1*
X2692502D2*
X2750263D1*
X2776640D2*
X2799757D1*
X2868813D2*
X2914088D1*
X2942514D2*
X2989444D1*
X3012860D2*
X3119540D1*
X1976540Y7174863D2*
X2174660D1*
X2197384D2*
X2258249D1*
X2281340D2*
X2311863D1*
X2334680D2*
X2365160D1*
X2383798D2*
X2431237D1*
X2453820D2*
X2467000D1*
X2486618D2*
X2505417D1*
X2525360D2*
X2537806D1*
X2560454D2*
X2593760D1*
X2618138D2*
X2666358D1*
X2692416D2*
X2748074D1*
X2776640D2*
X2799595D1*
X2829980D2*
X2860460D1*
X2882426D2*
X2913906D1*
X2943357D2*
X2989780D1*
X3012860D2*
X3119540D1*
X1976540Y7167243D2*
X2174035D1*
X2197155D2*
X2258399D1*
X2281340D2*
X2311835D1*
X2334993D2*
X2372196D1*
X2397005D2*
X2433680D1*
X2455412D2*
X2465408D1*
X2484272D2*
X2507657D1*
X2528764D2*
X2535192D1*
X2557187D2*
X2593760D1*
X2620117D2*
X2664381D1*
X2691484D2*
X2746967D1*
X2776640D2*
X2799533D1*
X2829980D2*
X2868288D1*
X2892420D2*
X2913838D1*
X2943862D2*
X2989918D1*
X3012860D2*
X3119540D1*
X1976540Y7159623D2*
X2172636D1*
X2195913D2*
X2258453D1*
X2281340D2*
X2311825D1*
X2336176D2*
X2377409D1*
X2406728D2*
X2436268D1*
X2456600D2*
X2464220D1*
X2481829D2*
X2509969D1*
X2532800D2*
D3*
X2553892D2*
X2593760D1*
X2623215D2*
X2661997D1*
X2689392D2*
X2746475D1*
X2776640D2*
X2799511D1*
X2829980D2*
X2871697D1*
X2896075D2*
X2913813D1*
X2944109D2*
X2989971D1*
X3012860D2*
X3119540D1*
X1976540Y7152003D2*
X2166698D1*
X2192855D2*
X2258471D1*
X2281340D2*
X2311822D1*
X2338782D2*
X2379122D1*
X2405438D2*
X2438585D1*
X2479241D2*
X2512568D1*
X2551157D2*
X2593760D1*
X2627245D2*
X2658700D1*
X2686250D2*
X2746276D1*
X2776640D2*
X2799504D1*
X2829980D2*
X2870441D1*
X2896701D2*
X2913804D1*
X2944215D2*
X2989990D1*
X3012860D2*
X3119540D1*
X1976540Y7144383D2*
X2106080D1*
X2128940D2*
X2159420D1*
X2187985D2*
X2258477D1*
X2281340D2*
X2311820D1*
X2342300D2*
X2380400D1*
X2400874D2*
X2440174D1*
X2475862D2*
X2515172D1*
X2549356D2*
X2593760D1*
X2631860D2*
X2654720D1*
X2682204D2*
X2746199D1*
X2776640D2*
X2799501D1*
X2829980D2*
X2868080D1*
X2894229D2*
X2913801D1*
X2944257D2*
X2989997D1*
X3012860D2*
X3119540D1*
X1976540Y7136763D2*
X2106080D1*
X2182280D2*
X2258480D1*
X2281340D2*
X2311820D1*
X2395640D2*
X2441360D1*
X2471840D2*
X2517560D1*
X2548040D2*
X2593760D1*
X2616620D2*
D3*
X2677580D2*
X2746160D1*
X2776640D2*
X2799500D1*
X2890940D2*
X2913800D1*
X2944280D2*
X2990000D1*
X3012860D2*
X3119540D1*
X7264390Y2967990D2*
X9862810D1*
X7264390Y2960370D2*
X9862810D1*
X7264390Y2952750D2*
X9862810D1*
X7264390Y2945130D2*
X9862810D1*
X7264390Y2937510D2*
X9862810D1*
X7264390Y2929890D2*
X9862810D1*
X7264390Y2922270D2*
X9862810D1*
X7264390Y2914650D2*
X9862810D1*
X7264390Y2907030D2*
X9862810D1*
X7264390Y2899410D2*
X9862810D1*
X7264390Y2891790D2*
X9862810D1*
X7264390Y2884170D2*
X9862810D1*
X7264390Y2876550D2*
X9862810D1*
X7264390Y2868930D2*
X9862810D1*
X7264390Y2861310D2*
X9862810D1*
X7264390Y2853690D2*
X9862810D1*
X7264390Y2846070D2*
X9862810D1*
X7264390Y2838450D2*
X9862810D1*
X7264390Y2830830D2*
X9862810D1*
X6098530Y2823210D2*
X6159490D1*
X7264390D2*
X9862810D1*
X6074853Y2815590D2*
X6185772D1*
X7264390D2*
X9459300D1*
X9574398D2*
X9862810D1*
X5481310Y2807970D2*
X5603230D1*
X5740390D2*
X5862310D1*
X6053925D2*
X6208968D1*
X6388090D2*
X6730990D1*
X6776710D2*
X7127230D1*
X7264390D2*
X9438012D1*
X9591229D2*
X9862810D1*
X5481310Y2800350D2*
X5603230D1*
X5740390D2*
X5862310D1*
X6037050D2*
X6227287D1*
X6388090D2*
X6730990D1*
X6776710D2*
X7127230D1*
X7264390D2*
X9419516D1*
X9607174D2*
X9862810D1*
X5481310Y2792730D2*
X5603230D1*
X5740390D2*
X5862310D1*
X6023752D2*
X6241332D1*
X6388090D2*
X6730990D1*
X6776710D2*
X7127230D1*
X7264390D2*
X9404797D1*
X9620654D2*
X9862810D1*
X5481310Y2785110D2*
X5603230D1*
X5740390D2*
X5862310D1*
X6012917D2*
X6252473D1*
X6388090D2*
X6730990D1*
X6776710D2*
X7127230D1*
X7264390D2*
X9393361D1*
X9631585D2*
X9862810D1*
X5481310Y2777490D2*
X5603230D1*
X5740390D2*
X5862310D1*
X6003239D2*
X6262051D1*
X6388090D2*
X6730990D1*
X6776710D2*
X7127230D1*
X7264390D2*
X9383991D1*
X9641010D2*
X9862810D1*
X5481310Y2769870D2*
X5603230D1*
X5740390D2*
X5862310D1*
X5994209D2*
X6270431D1*
X6388090D2*
X6730990D1*
X6776710D2*
X7127230D1*
X7264390D2*
X9375858D1*
X9650004D2*
X9862810D1*
X5481310Y2762250D2*
X5603230D1*
X5740390D2*
X5862310D1*
X5986517D2*
X6277318D1*
X6388090D2*
X6730990D1*
X6776710D2*
X7127230D1*
X7264390D2*
X9368677D1*
X9658713D2*
X9862810D1*
X5481310Y2754630D2*
X5603230D1*
X5740390D2*
X5862310D1*
X5980457D2*
X6283523D1*
X6388090D2*
X6730990D1*
X6776710D2*
X7127230D1*
X7264390D2*
X9362100D1*
X9666263D2*
X9862810D1*
X5481310Y2747010D2*
X5603230D1*
X5740390D2*
X5862310D1*
X5975774D2*
X6289775D1*
X6388090D2*
X6730990D1*
X6776710D2*
X7127230D1*
X7264390D2*
X9355810D1*
X9672055D2*
X9862810D1*
X5481310Y2739390D2*
X5603230D1*
X5740390D2*
X5862310D1*
X5972173D2*
X6295556D1*
X6388090D2*
X6730990D1*
X6776710D2*
X7127230D1*
X7264390D2*
X8242745D1*
X8274855D2*
X9350378D1*
X9676268D2*
X9862810D1*
X5481310Y2731770D2*
X5603230D1*
X5740390D2*
X5862310D1*
X5969027D2*
X6300069D1*
X6388090D2*
X6730990D1*
X6776710D2*
X7127230D1*
X7264390D2*
X8232443D1*
X8291388D2*
X9346178D1*
X9679700D2*
X9862810D1*
X5481310Y2724150D2*
X5603230D1*
X5740390D2*
X5862310D1*
X5965296D2*
X6303523D1*
X6388090D2*
X6730990D1*
X6776710D2*
X7127230D1*
X7264390D2*
X8228381D1*
X8304082D2*
X9342427D1*
X9504670D2*
X9519910D1*
X9683552D2*
X9862810D1*
X5481310Y2716530D2*
X5603230D1*
X5740390D2*
X5862310D1*
X5961108D2*
X6097643D1*
X6160377D2*
X6306813D1*
X6609070D2*
X6730990D1*
X6776710D2*
X7127230D1*
X7264390D2*
X8226166D1*
X8313879D2*
X9338507D1*
X9491218D2*
X9533623D1*
X9687815D2*
X9862810D1*
X5481310Y2708910D2*
X5603230D1*
X5740390D2*
X5862310D1*
X5957632D2*
X6089110D1*
X6168910D2*
X6310288D1*
X6609070D2*
X6730990D1*
X6776710D2*
X7127230D1*
X7264390D2*
X8225161D1*
X8321301D2*
X9334086D1*
X9480148D2*
X9545431D1*
X9691547D2*
X9862810D1*
X5481310Y2701290D2*
X5603230D1*
X5740390D2*
X5862310D1*
X5955266D2*
X6081373D1*
X6176647D2*
X6313918D1*
X6609070D2*
X6730990D1*
X6891010D2*
X7012930D1*
X7264390D2*
X8224751D1*
X8327082D2*
X9329488D1*
X9472100D2*
X9554602D1*
X9694651D2*
X9862810D1*
X5481310Y2693670D2*
X5603230D1*
X5740390D2*
X5862310D1*
X5953243D2*
X6074671D1*
X6183349D2*
X6317627D1*
X6609070D2*
X6730990D1*
X6891010D2*
X7012930D1*
X7264390D2*
X8224595D1*
X8329223D2*
X9325841D1*
X9466435D2*
X9561337D1*
X9697798D2*
X9862810D1*
X5481310Y2686050D2*
X5603230D1*
X5740390D2*
X5862310D1*
X5950954D2*
X6068940D1*
X6189110D2*
X6321132D1*
X6609070D2*
X6730990D1*
X6891010D2*
X7012930D1*
X7264390D2*
X8224539D1*
X8330659D2*
X9323628D1*
X9462435D2*
X9566270D1*
X9701188D2*
X9862810D1*
X5481310Y2678430D2*
X5603230D1*
X5740390D2*
X5862310D1*
X5948783D2*
X6064767D1*
X6193521D2*
X6323966D1*
X6609070D2*
X6730990D1*
X6891010D2*
X7012930D1*
X7264390D2*
X8224519D1*
X8332355D2*
X8423415D1*
X8421525D2*
X9322274D1*
X9459355D2*
X9569680D1*
X9704530D2*
X9862810D1*
X5481310Y2670810D2*
X5603230D1*
X5740390D2*
X5862310D1*
X5947115D2*
X6062116D1*
X6196875D2*
X6325940D1*
X6609070D2*
X6730990D1*
X6891010D2*
X7012930D1*
X7264390D2*
X7522292D1*
X7629540D2*
X7683490D1*
X7796002D2*
X7963962D1*
X8104975D2*
X8224510D1*
X8335176D2*
X8378498D1*
X8464183D2*
X8758200D1*
X8881037D2*
X9000252D1*
X9063888D2*
X9123670D1*
X9231751D2*
X9320826D1*
X9456262D2*
X9571626D1*
X9707262D2*
X9862810D1*
X5481310Y2663190D2*
X5603230D1*
X5740390D2*
X5862310D1*
X5945411D2*
X6059984D1*
X6199861D2*
X6327772D1*
X6609070D2*
X6730990D1*
X6891010D2*
X7012930D1*
X7264390D2*
X7512813D1*
X7642559D2*
X7683490D1*
X7800521D2*
X7953476D1*
X8116641D2*
X8249397D1*
X8338810D2*
D3*
X8495322D2*
X8743967D1*
X8890814D2*
X9004709D1*
X9073397D2*
X9123670D1*
X9234425D2*
X9318779D1*
X9452905D2*
X9572605D1*
X9708940D2*
X9862810D1*
X5481310Y2655570D2*
X5603230D1*
X5740390D2*
X5862310D1*
X5943254D2*
X6057654D1*
X6202319D2*
X6330008D1*
X6609070D2*
X6730990D1*
X6891010D2*
X7012930D1*
X7264390D2*
X7503518D1*
X7653115D2*
X7683490D1*
X7800467D2*
X7942057D1*
X8129148D2*
X8266685D1*
X8517086D2*
X8730851D1*
X8901378D2*
X9007261D1*
X9082960D2*
X9123670D1*
X9237970D2*
X9316484D1*
X9449579D2*
X9573286D1*
X9709789D2*
X9862810D1*
X5481310Y2647950D2*
X5603230D1*
X5740390D2*
X5862310D1*
X5941164D2*
X6055469D1*
X6203850D2*
X6332384D1*
X6609070D2*
X6730990D1*
X6891010D2*
X7012930D1*
X7264390D2*
X7495802D1*
X7662039D2*
X7683490D1*
X7799556D2*
X7931148D1*
X8140995D2*
X8278703D1*
X8532522D2*
X8718834D1*
X8912158D2*
X9008498D1*
X9091647D2*
X9123670D1*
X9234453D2*
X9314158D1*
X9446854D2*
X9574422D1*
X9710196D2*
X9862810D1*
X5481310Y2640330D2*
X5603230D1*
X5740390D2*
X5862310D1*
X5939783D2*
X6053797D1*
X6204662D2*
X6334743D1*
X6609070D2*
X6730990D1*
X6891010D2*
X7012930D1*
X7264390D2*
X7490270D1*
X7670282D2*
X7683490D1*
X7798713D2*
X7921521D1*
X8151014D2*
X8282779D1*
X8544196D2*
X8708016D1*
X8922440D2*
X9009034D1*
X9098974D2*
X9123670D1*
X9232264D2*
X9311618D1*
X9445179D2*
X9576310D1*
X9710617D2*
X9862810D1*
X5481310Y2632710D2*
X5603230D1*
X5740390D2*
X5862310D1*
X5939057D2*
X6052092D1*
X6205280D2*
X6337296D1*
X6609070D2*
X6730990D1*
X6891010D2*
X7012930D1*
X7264390D2*
X7486135D1*
X7677375D2*
X7683490D1*
X7798208D2*
X7913138D1*
X8158755D2*
X8283040D1*
X8553016D2*
X8698560D1*
X8931683D2*
X9009247D1*
X9104795D2*
X9123670D1*
X9231157D2*
X9309338D1*
X9444331D2*
X9578286D1*
X9711647D2*
X9862810D1*
X5481310Y2625090D2*
X5603230D1*
X5740390D2*
X5862310D1*
X5938727D2*
X6049933D1*
X6206394D2*
X6339580D1*
X6609070D2*
X6730990D1*
X6891010D2*
X7012930D1*
X7264390D2*
X7481961D1*
X7683490D2*
D3*
X7797961D2*
X7906033D1*
X8165128D2*
X8281587D1*
X8559529D2*
X8690288D1*
X8939875D2*
X9009327D1*
X9109356D2*
X9123670D1*
X9230665D2*
X9307874D1*
X9443954D2*
X9579623D1*
X9713493D2*
X9862810D1*
X5481310Y2617470D2*
X5603230D1*
X5740390D2*
X5862310D1*
X5938586D2*
X6047823D1*
X6208274D2*
X6341045D1*
X6609070D2*
X6730990D1*
X6891010D2*
X7012930D1*
X7264390D2*
X7477594D1*
X7797856D2*
X7900082D1*
X8170844D2*
X8278683D1*
X8407390D2*
X8437870D1*
X8564624D2*
X8683265D1*
X8946869D2*
X9009355D1*
X9112873D2*
X9123670D1*
X9230467D2*
X9307116D1*
X9443800D2*
X9580332D1*
X9715454D2*
X9862810D1*
X5481310Y2609850D2*
X5603230D1*
X5740390D2*
X5862310D1*
X5938510D2*
X6046325D1*
X6210247D2*
X6341804D1*
X6609070D2*
X6730990D1*
X6891010D2*
X7012930D1*
X7264390D2*
X7474079D1*
X7797814D2*
X7894643D1*
X8175836D2*
X8274669D1*
X8400977D2*
X8440765D1*
X8568973D2*
X8677606D1*
X8952549D2*
X9009365D1*
X9115734D2*
X9123670D1*
X9230391D2*
X9306774D1*
X9443742D2*
X9580656D1*
X9716785D2*
X9862810D1*
X5481310Y2602230D2*
X5603230D1*
X5740390D2*
X5862310D1*
X5991850D2*
X6045190D1*
X6211583D2*
X6342146D1*
X6609070D2*
X6730990D1*
X6891010D2*
X7012930D1*
X7264390D2*
X7471957D1*
X7797798D2*
X7889566D1*
X8180243D2*
X8270225D1*
X8395544D2*
X8444010D1*
X8572975D2*
X8673117D1*
X8796010D2*
X8826490D1*
X8957272D2*
X9009368D1*
X9118552D2*
X9123670D1*
X9230364D2*
X9306633D1*
X9443721D2*
X9580790D1*
X9717522D2*
X9862810D1*
X5481310Y2594610D2*
X5603230D1*
X5740390D2*
X5862310D1*
X6212292D2*
X6342287D1*
X6609070D2*
X6730990D1*
X6891010D2*
X7012930D1*
X7264390D2*
X7470896D1*
X7797793D2*
X7885470D1*
X8018770D2*
X8049250D1*
X8184300D2*
X8266633D1*
X8391166D2*
X8447310D1*
X8576591D2*
X8669630D1*
X8786080D2*
X8836160D1*
X8961461D2*
X9009370D1*
X9121240D2*
X9123670D1*
X9230355D2*
X9306580D1*
X9443714D2*
X9580871D1*
X9718114D2*
X9862810D1*
X5481310Y2586990D2*
X5862310D1*
X6212616D2*
X6342340D1*
X6433810D2*
X6730990D1*
X6891010D2*
X7012930D1*
X7264390D2*
X7470429D1*
X7607290D2*
X7653010D1*
X7797791D2*
X7882246D1*
X8011445D2*
X8057977D1*
X8187948D2*
X8264468D1*
X8387974D2*
X8450279D1*
X8579435D2*
X8666756D1*
X8778429D2*
X8843072D1*
X8965189D2*
X9009370D1*
X9123670D2*
D3*
X9230352D2*
X9306560D1*
X9443711D2*
X9581158D1*
X9719219D2*
X9862810D1*
X5481310Y2579370D2*
X5862310D1*
X6212750D2*
X6342360D1*
X6433810D2*
X6730990D1*
X6891010D2*
X7012930D1*
X7264390D2*
X7470240D1*
X7602595D2*
X7659132D1*
X7797790D2*
X7879311D1*
X8006091D2*
X8065675D1*
X8190836D2*
X8263359D1*
X8386110D2*
X8452915D1*
X8581156D2*
X8663740D1*
X8772675D2*
X8847733D1*
X8968334D2*
X9009370D1*
X9230350D2*
X9306553D1*
X9443710D2*
X9582135D1*
X9721095D2*
X9862810D1*
X5481310Y2571750D2*
X5862310D1*
X6212801D2*
X6342367D1*
X6433810D2*
X6730990D1*
X6891010D2*
X7012930D1*
X7264390D2*
X7470169D1*
X7598517D2*
X7663619D1*
X7797790D2*
X7876871D1*
X8002050D2*
X8068971D1*
X8192830D2*
X8262593D1*
X8385190D2*
X8455585D1*
X8582020D2*
X8660411D1*
X8768021D2*
X8851554D1*
X8971068D2*
X9009370D1*
X9230350D2*
X9306551D1*
X9443710D2*
X9583963D1*
X9723068D2*
X9862810D1*
X5481310Y2564130D2*
X5862310D1*
X6212820D2*
X6342369D1*
X6433810D2*
X6730990D1*
X6891010D2*
X7012930D1*
X7264390D2*
X7470143D1*
X7595437D2*
X7666438D1*
X7797790D2*
X7875317D1*
X7999114D2*
X8071041D1*
X8194698D2*
X8261224D1*
X8384787D2*
X8457885D1*
X8582404D2*
X8657095D1*
X8764133D2*
X8855213D1*
X8974030D2*
X9034842D1*
X9230350D2*
X9306550D1*
X9443710D2*
X9585917D1*
X9724403D2*
X9862810D1*
X5481310Y2556510D2*
X5862310D1*
X6212827D2*
X6342370D1*
X6433810D2*
X6730990D1*
X6891010D2*
X7012930D1*
X7264390D2*
X7470134D1*
X7593611D2*
X7668647D1*
X7797790D2*
X7874269D1*
X7997387D2*
X8072838D1*
X8197175D2*
X8258545D1*
X8384625D2*
X8459099D1*
X8582559D2*
X8654373D1*
X8761184D2*
X8858656D1*
X8977339D2*
X9055344D1*
X9230350D2*
X9306550D1*
X9443710D2*
X9587246D1*
X9725112D2*
X9862810D1*
X5481310Y2548890D2*
X5862310D1*
X6212829D2*
X6342370D1*
X6433810D2*
X6730990D1*
X6891010D2*
X7012930D1*
X7264390D2*
X7470131D1*
X7592704D2*
X7671007D1*
X7797790D2*
X7872949D1*
X7996529D2*
X8075003D1*
X8200255D2*
X8254990D1*
X8384563D2*
X8458892D1*
X8582588D2*
X8652699D1*
X8759425D2*
X8861423D1*
X8980649D2*
X9070543D1*
X9230350D2*
X9306550D1*
X9443710D2*
X9587953D1*
X9725436D2*
X9862810D1*
X5481310Y2541270D2*
X5862310D1*
X6212830D2*
X6342370D1*
X6433810D2*
X6730990D1*
X6891010D2*
X7012930D1*
X7264390D2*
X7470130D1*
X7592305D2*
X7673174D1*
X7797790D2*
X7870981D1*
X7996122D2*
X8077086D1*
X8203468D2*
X8258507D1*
X8384571D2*
X8457382D1*
X8582341D2*
X8651851D1*
X8758546D2*
X8863114D1*
X8983368D2*
X9081208D1*
X9230350D2*
X9306550D1*
X9443710D2*
X9588276D1*
X9725570D2*
X9862810D1*
X5481310Y2533650D2*
X5862310D1*
X6212830D2*
X6342370D1*
X6433810D2*
X6730990D1*
X6891010D2*
X7012930D1*
X7264390D2*
X7470130D1*
X7592144D2*
X7674583D1*
X7797790D2*
X7868943D1*
X7995702D2*
X8078462D1*
X8206150D2*
X8260726D1*
X8384831D2*
X8455301D1*
X8581348D2*
X8651474D1*
X8758158D2*
X8863969D1*
X8985042D2*
X9088575D1*
X9230350D2*
X9306550D1*
X9443710D2*
X9588380D1*
X9725592D2*
X9862810D1*
X5481310Y2526030D2*
X5862310D1*
X6212830D2*
X6342370D1*
X6433810D2*
X6730990D1*
X6891010D2*
X7012930D1*
X7264390D2*
X7470130D1*
X7592083D2*
X7675318D1*
X7797790D2*
X7867326D1*
X7994703D2*
X8079185D1*
X8207809D2*
X8262101D1*
X8385830D2*
X8453025D1*
X8579257D2*
X8651290D1*
X8757997D2*
X8864362D1*
X8985889D2*
X9094003D1*
X9230350D2*
X9306550D1*
X9443710D2*
X9588164D1*
X9725342D2*
X9862810D1*
X5481310Y2518410D2*
X5862310D1*
X6212830D2*
X6342370D1*
X6433810D2*
X6730990D1*
X6891010D2*
X7012930D1*
X7264390D2*
X7470130D1*
X7592061D2*
X7675651D1*
X7797790D2*
X7865642D1*
X7993146D2*
X8079514D1*
X8208652D2*
X8263593D1*
X8387952D2*
X8450245D1*
X8576333D2*
X8650942D1*
X8757910D2*
X8864590D1*
X8986267D2*
X9098467D1*
X9230350D2*
X9306550D1*
X9443710D2*
X9587211D1*
X9724378D2*
X9862810D1*
X5481310Y2510790D2*
X5862310D1*
X6212830D2*
X6342370D1*
X6433810D2*
X6730990D1*
X6891010D2*
X7012930D1*
X7264390D2*
X7470130D1*
X7592054D2*
X7675788D1*
X7797790D2*
X7863491D1*
X7991676D2*
X8079649D1*
X8209027D2*
X8265915D1*
X8391172D2*
X8446998D1*
X8573150D2*
X8649743D1*
X8986420D2*
X9102266D1*
X9230350D2*
X9306550D1*
X9443710D2*
X9585393D1*
X9722555D2*
X9862810D1*
X5481310Y2503170D2*
X5862310D1*
X6212830D2*
X6342370D1*
X6433810D2*
X6730990D1*
X6891010D2*
X7012930D1*
X7264390D2*
X7470130D1*
X7592051D2*
X7675841D1*
X7797790D2*
X7861403D1*
X7993334D2*
X8079731D1*
X8209180D2*
X8269183D1*
X8395574D2*
X8443643D1*
X8570192D2*
X8647131D1*
X8986478D2*
X9105178D1*
X9230350D2*
X9306550D1*
X9443710D2*
X9583441D1*
X9720602D2*
X9862810D1*
X5481310Y2495550D2*
X5862310D1*
X6212830D2*
X6342370D1*
X6609070D2*
X6730990D1*
X6891010D2*
X7012930D1*
X7264390D2*
X7470130D1*
X7592050D2*
X7675860D1*
X7797790D2*
X7860022D1*
X7995910D2*
X8080018D1*
X8209238D2*
X8273365D1*
X8401193D2*
X8440576D1*
X8567271D2*
X8643610D1*
X8986499D2*
X9106923D1*
X9230350D2*
X9306550D1*
X9443710D2*
X9582113D1*
X9719273D2*
X9862810D1*
X5481310Y2487930D2*
X5862310D1*
X6212830D2*
X6342370D1*
X6609070D2*
X6730990D1*
X6891010D2*
X7012930D1*
X7264390D2*
X7470130D1*
X7592050D2*
X7675867D1*
X7797790D2*
X7859297D1*
X7992393D2*
X8080966D1*
X8209259D2*
X8278187D1*
X8407390D2*
X8437870D1*
X8563307D2*
X8651230D1*
X8986506D2*
X9107796D1*
X9230350D2*
X9306550D1*
X9443710D2*
X9581407D1*
X9718537D2*
X9862810D1*
X5481310Y2480310D2*
X5603230D1*
X5740390D2*
X5862310D1*
X6212800D2*
X6342340D1*
X6609070D2*
X6730990D1*
X6891010D2*
X7012930D1*
X7264390D2*
X7470130D1*
X7592050D2*
X7675869D1*
X7797790D2*
X7858967D1*
X7990204D2*
X8082525D1*
X8209266D2*
X8283333D1*
X8557647D2*
X8647713D1*
X8986509D2*
X9108182D1*
X9230350D2*
X9306550D1*
X9443710D2*
X9581084D1*
X9717946D2*
X9862810D1*
X5481310Y2472690D2*
X5603230D1*
X5740390D2*
X5862310D1*
X6212532D2*
X6342072D1*
X6609070D2*
X6730990D1*
X6891010D2*
X7012930D1*
X7264390D2*
X7470130D1*
X7592050D2*
X7675870D1*
X7797790D2*
X7858831D1*
X7989097D2*
X8083508D1*
X8209269D2*
X8289627D1*
X8550474D2*
X8645524D1*
X8986510D2*
X9108338D1*
X9230350D2*
X9306550D1*
X9443710D2*
X9580950D1*
X9716841D2*
X9862810D1*
X5481310Y2465070D2*
X5603230D1*
X5740390D2*
X5862310D1*
X6014710D2*
X6045190D1*
X6211561D2*
X6341101D1*
X6609070D2*
X6730990D1*
X6891010D2*
X7012930D1*
X7264390D2*
X7470130D1*
X7592050D2*
X7675870D1*
X7797790D2*
X7858779D1*
X7988605D2*
X8083013D1*
X8209270D2*
X8298117D1*
X8542943D2*
X8644417D1*
X8986510D2*
X9108398D1*
X9230350D2*
X9306580D1*
X9443710D2*
X9580869D1*
X9714965D2*
X9862810D1*
X5481310Y2457450D2*
X5603230D1*
X5740390D2*
X5862310D1*
X5938510D2*
X6046368D1*
X6209736D2*
X6339276D1*
X6609070D2*
X6730990D1*
X6891010D2*
X7012930D1*
X7264390D2*
X7470130D1*
X7592050D2*
X7675870D1*
X7797790D2*
X7858790D1*
X7988407D2*
X8081766D1*
X8209270D2*
X8308865D1*
X8536804D2*
X8643925D1*
X8986510D2*
X9108419D1*
X9230350D2*
X9306848D1*
X9443710D2*
X9580582D1*
X9712992D2*
X9862810D1*
X5481310Y2449830D2*
X5603230D1*
X5740390D2*
X5862310D1*
X5938510D2*
X6048287D1*
X6207783D2*
X6337293D1*
X6609070D2*
X6730990D1*
X6891010D2*
X7012930D1*
X7264390D2*
X7470130D1*
X7592050D2*
X7675870D1*
X7797790D2*
X7859051D1*
X7988361D2*
X8080760D1*
X8209270D2*
X8321122D1*
X8532047D2*
X8643720D1*
X8986510D2*
X9108426D1*
X9230350D2*
X9307819D1*
X9443740D2*
X9579605D1*
X9711657D2*
X9862810D1*
X5481310Y2442210D2*
X5603230D1*
X5740390D2*
X5862310D1*
X5938510D2*
X6050527D1*
X6206454D2*
X6335696D1*
X6609070D2*
X6730990D1*
X6891010D2*
X7012930D1*
X7264390D2*
X7470130D1*
X7592050D2*
X7675870D1*
X7797790D2*
X7860020D1*
X7988602D2*
X8080187D1*
X8209270D2*
X8333255D1*
X8541008D2*
X8864590D1*
X8986510D2*
X9108429D1*
X9230350D2*
X9309674D1*
X9444008D2*
X9577777D1*
X9710948D2*
X9862810D1*
X5481310Y2434590D2*
X5603230D1*
X5740390D2*
X5862310D1*
X5938510D2*
X6052833D1*
X6205717D2*
X6334018D1*
X6609070D2*
X6730990D1*
X6891010D2*
X7012930D1*
X7264390D2*
X7470130D1*
X7592050D2*
X7675870D1*
X7797790D2*
X7861844D1*
X7989563D2*
X8079915D1*
X8209240D2*
X8344044D1*
X8550110D2*
X8864590D1*
X8986510D2*
X9108430D1*
X9230350D2*
X9311895D1*
X9445009D2*
X9575823D1*
X9710594D2*
X9862810D1*
X5481310Y2426970D2*
X5603230D1*
X5740390D2*
X5862310D1*
X5938540D2*
X6055396D1*
X6205126D2*
X6331870D1*
X6609070D2*
X6730990D1*
X6891010D2*
X7012930D1*
X7264390D2*
X7470130D1*
X7592050D2*
X7675870D1*
X7797790D2*
X7863798D1*
X7991385D2*
X8079800D1*
X8208972D2*
X8475970D1*
X8558747D2*
X8864590D1*
X8986510D2*
X9108430D1*
X9230350D2*
X9314195D1*
X9447101D2*
X9574464D1*
X9710192D2*
X9862810D1*
X5481310Y2419350D2*
X5603230D1*
X5740390D2*
X5862310D1*
X5938837D2*
X6057971D1*
X6204021D2*
X6329753D1*
X6609070D2*
X6730990D1*
X6891010D2*
X7012930D1*
X7264390D2*
X7470130D1*
X7592050D2*
X7675870D1*
X7797790D2*
X7865156D1*
X7993338D2*
X8079726D1*
X8208001D2*
X8483005D1*
X8566670D2*
X8864590D1*
X8986510D2*
X9108430D1*
X9230350D2*
X9316727D1*
X9450026D2*
X9573489D1*
X9709140D2*
X9862810D1*
X5481310Y2411730D2*
X5603230D1*
X5740390D2*
X5862310D1*
X5940076D2*
X6060673D1*
X6202085D2*
X6328104D1*
X6609070D2*
X6730990D1*
X6891010D2*
X7012930D1*
X7264390D2*
X7470130D1*
X7592050D2*
X7675870D1*
X7797790D2*
X7866131D1*
X7994667D2*
X8079441D1*
X8206176D2*
X8488215D1*
X8573554D2*
X8864590D1*
X8986480D2*
X9108430D1*
X9230350D2*
X9319034D1*
X9453210D2*
X9572195D1*
X9707028D2*
X9862810D1*
X5481310Y2404110D2*
X5603230D1*
X5740390D2*
X5862310D1*
X5942873D2*
X6064257D1*
X6199577D2*
X6326378D1*
X6609070D2*
X6730990D1*
X6891010D2*
X7012930D1*
X7264390D2*
X7470130D1*
X7592050D2*
X7675870D1*
X7797790D2*
X7867425D1*
X7995373D2*
X8078464D1*
X8204193D2*
X8489497D1*
X8579162D2*
X8864560D1*
X8986212D2*
X9108430D1*
X9230350D2*
X9320764D1*
X9456138D2*
X9570177D1*
X9704097D2*
X9862810D1*
X5481310Y2396490D2*
X5603230D1*
X5740390D2*
X5862310D1*
X5946651D2*
X6068675D1*
X6196240D2*
X6323956D1*
X6609070D2*
X6730990D1*
X6891010D2*
X7012930D1*
X7264390D2*
X7470130D1*
X7592050D2*
X7675870D1*
X7797790D2*
X7869384D1*
X7995696D2*
X8076637D1*
X8202596D2*
X8490064D1*
X8583632D2*
X8642112D1*
X8757940D2*
X8864292D1*
X8985211D2*
X9108430D1*
X9230350D2*
X9322523D1*
X9458791D2*
X9567636D1*
X9700911D2*
X9862810D1*
X5481310Y2388870D2*
X5603230D1*
X5740390D2*
X5862310D1*
X5949964D2*
X6073365D1*
X6191298D2*
X6320865D1*
X6609070D2*
X6730990D1*
X6891010D2*
X7012930D1*
X7264390D2*
X7470130D1*
X7592050D2*
X7675870D1*
X7797790D2*
X7871419D1*
X7995860D2*
X8074683D1*
X8200918D2*
X8473480D1*
X8587113D2*
X8646599D1*
X8758237D2*
X8863291D1*
X8983119D2*
X9108430D1*
X9230350D2*
X9324958D1*
X9461784D2*
X9564286D1*
X9697952D2*
X9862810D1*
X5481310Y2381250D2*
X5603230D1*
X5740390D2*
X5862310D1*
X5952297D2*
X6078529D1*
X6184672D2*
X6317391D1*
X6609070D2*
X6730990D1*
X6891010D2*
X7012930D1*
X7264390D2*
X7470130D1*
X7592050D2*
X7675870D1*
X7797790D2*
X7873034D1*
X7996179D2*
X8073324D1*
X8198770D2*
X8444136D1*
X8589926D2*
X8649418D1*
X8759476D2*
X8861199D1*
X8980194D2*
X9108430D1*
X9230350D2*
X9328023D1*
X9465670D2*
X9559340D1*
X9695061D2*
X9862810D1*
X5481310Y2373630D2*
X5603230D1*
X5740390D2*
X5862310D1*
X5954566D2*
X6084504D1*
X6176435D2*
X6313741D1*
X6609070D2*
X6730990D1*
X6891010D2*
X7012930D1*
X7264390D2*
X7470130D1*
X7592050D2*
X7675870D1*
X7797790D2*
X7874719D1*
X7997199D2*
X8072320D1*
X8196653D2*
X8402010D1*
X8592405D2*
X8651657D1*
X8762302D2*
X8858244D1*
X8977010D2*
X9108430D1*
X9230350D2*
X9331260D1*
X9471401D2*
X9552713D1*
X9691424D2*
X9862810D1*
X5481310Y2366010D2*
X5603230D1*
X5740390D2*
X5862310D1*
X5957849D2*
X6090910D1*
X6167110D2*
X6310197D1*
X6609070D2*
X6730990D1*
X6891010D2*
X7012930D1*
X7264390D2*
X7470130D1*
X7592050D2*
X7675870D1*
X7797790D2*
X7876899D1*
X7999387D2*
X8070698D1*
X8194975D2*
X8344830D1*
X8354050D2*
D3*
X8594432D2*
X8654285D1*
X8766438D2*
X8854733D1*
X8974052D2*
X9108430D1*
X9230350D2*
X9334238D1*
X9479685D2*
X9544476D1*
X9687241D2*
X9862810D1*
X5481310Y2358390D2*
X5603230D1*
X5740390D2*
X5862310D1*
X5962080D2*
X6306865D1*
X6388090D2*
X6730990D1*
X6891010D2*
X7012930D1*
X7264390D2*
X7470130D1*
X7592050D2*
X7675870D1*
X7797790D2*
X7879255D1*
X8003191D2*
X8068063D1*
X8193010D2*
X8312062D1*
X8593328D2*
X8657423D1*
X8771569D2*
X8850225D1*
X8971161D2*
X9108430D1*
X9230350D2*
X9337136D1*
X9489430D2*
X9535150D1*
X9683538D2*
X9862810D1*
X5481310Y2350770D2*
X5603230D1*
X5740390D2*
X5862310D1*
X5966434D2*
X6303189D1*
X6388090D2*
X6730990D1*
X6891010D2*
X7012930D1*
X7264390D2*
X7470130D1*
X7592050D2*
X7675870D1*
X7797790D2*
X7881636D1*
X8008513D2*
X8061132D1*
X8189855D2*
X8287883D1*
X8591016D2*
X8660687D1*
X8779033D2*
X8844503D1*
X8967495D2*
X9108430D1*
X9230350D2*
X9340804D1*
X9680414D2*
X9862810D1*
X5481310Y2343150D2*
X5603230D1*
X5740390D2*
X5862310D1*
X5970618D2*
X6298382D1*
X6388090D2*
X6730990D1*
X6891010D2*
X7012930D1*
X7264390D2*
X7470130D1*
X7592050D2*
X7675870D1*
X7797790D2*
X7884455D1*
X8020419D2*
X8052025D1*
X8185642D2*
X8270786D1*
X8587878D2*
X8663644D1*
X8790199D2*
X8832517D1*
X8963073D2*
X9108430D1*
X9230350D2*
X9345256D1*
X9677002D2*
X9862810D1*
X5481310Y2335530D2*
X5603230D1*
X5740390D2*
X5862310D1*
X5974879D2*
X6292854D1*
X6388090D2*
X6730990D1*
X6891010D2*
X7012930D1*
X7264390D2*
X7470130D1*
X7592050D2*
X7675870D1*
X7797790D2*
X7887769D1*
X8034010D2*
X8041630D1*
X8181069D2*
X8258483D1*
X8584082D2*
X8666336D1*
X8803630D2*
X8818870D1*
X8958637D2*
X9108430D1*
X9230350D2*
X9349960D1*
X9672613D2*
X9862810D1*
X5481310Y2327910D2*
X5603230D1*
X5740390D2*
X5862310D1*
X5979761D2*
X6287186D1*
X6388090D2*
X6730990D1*
X6891010D2*
X7012930D1*
X7264390D2*
X7470130D1*
X7592050D2*
X7675870D1*
X7797790D2*
X7891624D1*
X8176188D2*
X8249064D1*
X8579358D2*
X8669570D1*
X8954421D2*
X9108430D1*
X9230350D2*
X9355177D1*
X9667148D2*
X9862810D1*
X5481310Y2320290D2*
X5603230D1*
X5740390D2*
X5862310D1*
X5985731D2*
X6281370D1*
X6388090D2*
X6730990D1*
X6891010D2*
X7012930D1*
X7264390D2*
X7470130D1*
X7592050D2*
X7675870D1*
X7797790D2*
X7896577D1*
X8171075D2*
X8241826D1*
X8573200D2*
X8674140D1*
X8950148D2*
X9108430D1*
X9230350D2*
X9361514D1*
X9661165D2*
X9862810D1*
X5481310Y2312670D2*
X5603230D1*
X5740390D2*
X5862310D1*
X5992740D2*
X6275180D1*
X6388090D2*
X6730990D1*
X6891010D2*
X7012930D1*
X7264390D2*
X7470130D1*
X7592050D2*
X7675870D1*
X7797790D2*
X7903196D1*
X8166035D2*
X8236704D1*
X8565279D2*
X8680570D1*
X8945231D2*
X9108430D1*
X9230350D2*
X9369087D1*
X9654796D2*
X9862810D1*
X5481310Y2305050D2*
X5603230D1*
X5740390D2*
X5862310D1*
X6000744D2*
X6267891D1*
X6388090D2*
X6730990D1*
X6891010D2*
X7012930D1*
X7264390D2*
X7470130D1*
X7592050D2*
X7675870D1*
X7797790D2*
X7911312D1*
X8160422D2*
X8233041D1*
X8555456D2*
X8688604D1*
X8938992D2*
X9108430D1*
X9230350D2*
X9377539D1*
X9647163D2*
X9862810D1*
X5481310Y2297430D2*
X5603230D1*
X5740390D2*
X5862310D1*
X6009630D2*
X6259159D1*
X6388090D2*
X6730990D1*
X6891010D2*
X7012930D1*
X7264390D2*
X7470130D1*
X7592050D2*
X7675870D1*
X7797790D2*
X7920396D1*
X8153006D2*
X8229931D1*
X8544550D2*
X8697654D1*
X8930952D2*
X9108430D1*
X9230350D2*
X9386682D1*
X9637724D2*
X9862810D1*
X5481310Y2289810D2*
X5603230D1*
X5740390D2*
X5862310D1*
X6019590D2*
X6248451D1*
X6388090D2*
X6730990D1*
X6891010D2*
X7012930D1*
X7264390D2*
X7470130D1*
X7592050D2*
X7675870D1*
X7797790D2*
X7930580D1*
X8142904D2*
X8227426D1*
X8553608D2*
X8707827D1*
X8920527D2*
X9108430D1*
X9230350D2*
X9397807D1*
X9626250D2*
X9862810D1*
X5481310Y2282190D2*
X5603230D1*
X5740390D2*
X5862310D1*
X6031774D2*
X6234566D1*
X6388090D2*
X6730990D1*
X6891010D2*
X7012930D1*
X7264390D2*
X7470130D1*
X7592050D2*
X7675870D1*
X7797790D2*
X7942750D1*
X8129129D2*
X8225879D1*
X8460730D2*
X8475970D1*
X8563826D2*
X8719992D1*
X8907142D2*
X9108430D1*
X9230350D2*
X9412819D1*
X9611721D2*
X9862810D1*
X5481310Y2274570D2*
X5603230D1*
X5740390D2*
X5862310D1*
X6046951D2*
X6217860D1*
X6388090D2*
X6730990D1*
X6891010D2*
X7012930D1*
X7264390D2*
X7470130D1*
X7592050D2*
X7675870D1*
X7797790D2*
X7959556D1*
X8109387D2*
X8225091D1*
X8354050D2*
X8484183D1*
X8574244D2*
X8736797D1*
X8889674D2*
X9108430D1*
X9230350D2*
X9433105D1*
X9591244D2*
X9862810D1*
X5481310Y2266950D2*
X5603230D1*
X5740390D2*
X5862310D1*
X6064525D2*
X6200127D1*
X6388090D2*
X6730990D1*
X6891010D2*
X7012930D1*
X7264390D2*
X7470130D1*
X7592050D2*
X7675870D1*
X7797790D2*
X7983247D1*
X8081734D2*
X8224739D1*
X8347637D2*
X8490478D1*
X8583060D2*
X8760487D1*
X8867196D2*
X9108430D1*
X9230350D2*
X9459453D1*
X9562179D2*
X9862810D1*
X6083290Y2259330D2*
X6182350D1*
X7264390D2*
X8011150D1*
X8049250D2*
X8224595D1*
X8342204D2*
X8494957D1*
X8589763D2*
X8788390D1*
X8841730D2*
X9489430D1*
X9527530D2*
X9862810D1*
X7264390Y2251710D2*
X8224570D1*
X8337826D2*
X8498458D1*
X8594962D2*
X9862810D1*
X7264390Y2244090D2*
X8224818D1*
X8334664D2*
X8502221D1*
X8599139D2*
X9862810D1*
X7264390Y2236470D2*
X8225782D1*
X8333068D2*
X8506450D1*
X8602489D2*
X9862810D1*
X7264390Y2228850D2*
X8227635D1*
X8332564D2*
X8502583D1*
X8605475D2*
X9862810D1*
X7264390Y2221230D2*
X8229855D1*
X8335341D2*
X8498832D1*
X8609019D2*
X9862810D1*
X7264390Y2213610D2*
X8232185D1*
X8339527D2*
X8493476D1*
X8613130D2*
X9862810D1*
X7264390Y2205990D2*
X8235014D1*
X8349712D2*
X8485488D1*
X8609322D2*
X9862810D1*
X7264390Y2198370D2*
X8238560D1*
X8361670D2*
X8475970D1*
X8606127D2*
X9862810D1*
X7264390Y2190750D2*
X8243116D1*
X8602896D2*
X9862810D1*
X7264390Y2183130D2*
X8248922D1*
X8599182D2*
X9862810D1*
X7264390Y2175510D2*
X8255670D1*
X8594530D2*
X9862810D1*
X7264390Y2167890D2*
X8263221D1*
X8588403D2*
X9862810D1*
X7264390Y2160270D2*
X8272247D1*
X8580378D2*
X9862810D1*
X7264390Y2152650D2*
X8284407D1*
X8569522D2*
X9862810D1*
X7264390Y2145030D2*
X8302468D1*
X8553425D2*
X9862810D1*
X7264390Y2137410D2*
X8330915D1*
X8527004D2*
X9862810D1*
X7264390Y2129790D2*
X8372754D1*
X8486629D2*
X9862810D1*
X7264390Y2122170D2*
X8422630D1*
X8437870D2*
X9862810D1*
X7264390Y2114550D2*
X9862810D1*
X7264390Y2106930D2*
X9862810D1*
X7264390Y2099310D2*
X9862810D1*
X7264390Y2091690D2*
X9862810D1*
X7264390Y2084070D2*
X9862810D1*
X1976540Y8249283D2*
Y8241663D1*
Y8234043D1*
Y8226423D1*
Y8218803D1*
Y8211183D1*
Y8203563D1*
Y8195943D1*
Y8188323D1*
Y8180703D1*
Y8173083D1*
Y8165463D1*
Y8157843D1*
Y8150223D1*
Y8142603D1*
Y8134983D1*
Y8127363D1*
Y8119743D1*
Y8112123D1*
Y8104503D1*
Y8096883D1*
Y8089263D1*
Y8081643D1*
Y8074023D1*
Y8066403D1*
Y8058783D1*
Y8051163D1*
Y8043543D1*
Y8035923D1*
Y8028303D1*
Y8020683D1*
Y8013063D1*
Y8005443D1*
Y7997823D1*
Y7990203D1*
Y7982583D1*
Y7974963D1*
Y7967343D1*
Y7959723D1*
Y7952103D1*
Y7944483D1*
Y7936863D1*
Y7929243D1*
Y7921623D1*
Y7914003D1*
Y7906383D1*
Y7898763D1*
Y7891143D1*
Y7883523D1*
Y7875903D1*
Y7868283D1*
Y7860663D1*
Y7853043D1*
Y7845423D1*
Y7837803D1*
Y7830183D1*
Y7822563D1*
Y7814943D1*
Y7807323D1*
Y7799703D1*
Y7792083D1*
Y7784463D1*
Y7776843D1*
Y7769223D1*
Y7761603D1*
Y7753983D1*
Y7746363D1*
Y7738743D1*
Y7731123D1*
Y7723503D1*
Y7715883D1*
Y7708263D1*
Y7700643D1*
Y7693023D1*
Y7685403D1*
Y7677783D1*
Y7670163D1*
Y7662543D1*
Y7654923D1*
Y7647303D1*
Y7639683D1*
Y7632063D1*
Y7624443D1*
Y7616823D1*
Y7609203D1*
Y7601583D1*
Y7593963D1*
Y7586343D1*
Y7578723D1*
Y7571103D1*
Y7563483D1*
Y7555863D1*
Y7548243D1*
Y7540623D1*
Y7533003D1*
Y7525383D1*
Y7517763D1*
Y7510143D1*
Y7502523D1*
Y7494903D1*
Y7487283D1*
Y7479663D1*
Y7472043D1*
Y7464423D1*
Y7456803D1*
Y7449183D1*
Y7441563D1*
Y7433943D1*
Y7426323D1*
Y7418703D1*
Y7411083D1*
Y7403463D1*
Y7395843D1*
Y7388223D1*
X2487080Y8249283D2*
X2486790Y8241663D1*
X2485813Y8234043D1*
X2483987Y8226423D1*
X2482033Y8218803D1*
X2480674Y8211183D1*
X2479699Y8203563D1*
X2478405Y8195943D1*
X2476446Y8188323D1*
X2474441Y8180703D1*
X2473064Y8173083D1*
X2472053Y8165463D1*
X2470399Y8157843D1*
X2467674Y8150223D1*
X2459504Y8142603D1*
X2447698Y8134983D1*
X2432369Y8127363D1*
X2414587Y8119743D1*
X2395640Y8112123D1*
X2616620Y8249283D2*
X2616910Y8241663D1*
X2617887Y8234043D1*
X2619713Y8226423D1*
X2621667Y8218803D1*
X2623026Y8211183D1*
X2624001Y8203563D1*
X2625295Y8195943D1*
X2627254Y8188323D1*
X2629259Y8180703D1*
X2630607Y8173083D1*
X2631379Y8165463D1*
X2632330Y8157843D1*
X2634017Y8150223D1*
X2642196Y8142603D1*
X2654662Y8134983D1*
X2670626Y8127363D1*
X2688820Y8119743D1*
X2708060Y8112123D1*
X3119540Y8249283D2*
Y8241663D1*
Y8234043D1*
Y8226423D1*
Y8218803D1*
Y8211183D1*
Y8203563D1*
Y8195943D1*
Y8188323D1*
Y8180703D1*
Y8173083D1*
Y8165463D1*
Y8157843D1*
Y8150223D1*
Y8142603D1*
Y8134983D1*
Y8127363D1*
Y8119743D1*
Y8112123D1*
Y8104503D1*
Y8096883D1*
Y8089263D1*
Y8081643D1*
Y8074023D1*
Y8066403D1*
Y8058783D1*
Y8051163D1*
Y8043543D1*
Y8035923D1*
Y8028303D1*
Y8020683D1*
Y8013063D1*
Y8005443D1*
Y7997823D1*
Y7990203D1*
Y7982583D1*
Y7974963D1*
Y7967343D1*
Y7959723D1*
Y7952103D1*
Y7944483D1*
Y7936863D1*
Y7929243D1*
Y7921623D1*
Y7914003D1*
Y7906383D1*
Y7898763D1*
Y7891143D1*
Y7883523D1*
Y7875903D1*
Y7868283D1*
Y7860663D1*
Y7853043D1*
Y7845423D1*
Y7837803D1*
Y7830183D1*
Y7822563D1*
Y7814943D1*
Y7807323D1*
Y7799703D1*
Y7792083D1*
Y7784463D1*
Y7776843D1*
Y7769223D1*
Y7761603D1*
Y7753983D1*
Y7746363D1*
Y7738743D1*
Y7731123D1*
Y7723503D1*
Y7715883D1*
Y7708263D1*
Y7700643D1*
Y7693023D1*
Y7685403D1*
Y7677783D1*
Y7670163D1*
Y7662543D1*
Y7654923D1*
Y7647303D1*
Y7639683D1*
Y7632063D1*
Y7624443D1*
Y7616823D1*
Y7609203D1*
Y7601583D1*
Y7593963D1*
Y7586343D1*
Y7578723D1*
Y7571103D1*
Y7563483D1*
Y7555863D1*
Y7548243D1*
Y7540623D1*
Y7533003D1*
Y7525383D1*
Y7517763D1*
Y7510143D1*
Y7502523D1*
Y7494903D1*
Y7487283D1*
Y7479663D1*
Y7472043D1*
Y7464423D1*
Y7456803D1*
Y7449183D1*
Y7441563D1*
Y7433943D1*
Y7426323D1*
Y7418703D1*
Y7411083D1*
Y7403463D1*
X2273720Y8173083D2*
X2266100Y8165463D1*
X2258480Y8157843D1*
X2250860Y8150223D1*
X2243240Y8142603D1*
X2235620Y8134983D1*
X2227970Y8127363D1*
X2220112Y8119743D1*
X2211848Y8112123D1*
X2203970Y8104503D1*
X2197293Y8096883D1*
X2196360Y8089263D1*
X2199456Y8081643D1*
X2203390Y8074023D1*
X2208203Y8066403D1*
X2213896Y8058783D1*
X2219715Y8051163D1*
X2225142Y8043543D1*
X2230630Y8035923D1*
X2236597Y8028303D1*
X2242513Y8020683D1*
X2247913Y8013063D1*
X2253125Y8005443D1*
X2258480Y7997823D1*
X2253785Y7990203D1*
X2249678Y7982583D1*
X2246329Y7974963D1*
X2243503Y7967343D1*
X2240503Y7959723D1*
X2237149Y7952103D1*
X2233566Y7944483D1*
X2229725Y7936863D1*
X2224708Y7929243D1*
X2217861Y7921623D1*
X2197787Y7914003D1*
X2169356Y7906383D1*
X2134985Y7898763D1*
X2098460Y7891143D1*
Y7883523D1*
Y7875903D1*
Y7868283D1*
Y7860663D1*
Y7853043D1*
Y7845423D1*
Y7837803D1*
Y7830183D1*
Y7822563D1*
Y7814943D1*
X2098579Y7807323D1*
X2099204Y7799703D1*
X2100365Y7792083D1*
X2119225Y7784463D1*
X2145159Y7776843D1*
X2172819Y7769223D1*
X2194965Y7761603D1*
X2211655Y7753983D1*
X2219098Y7746363D1*
X2224763Y7738743D1*
X2229140Y7731123D1*
X2232540Y7723503D1*
X2235368Y7715883D1*
X2238363Y7708263D1*
X2241684Y7700643D1*
X2244997Y7693023D1*
X2247688Y7685403D1*
X2249064Y7677783D1*
X2249387Y7670163D1*
X2246142Y7662543D1*
X2241376Y7654923D1*
X2235994Y7647303D1*
X2230779Y7639683D1*
X2225599Y7632063D1*
X2220361Y7624443D1*
X2215302Y7616823D1*
X2209999Y7609203D1*
X2204172Y7601583D1*
X2198907Y7593963D1*
X2194894Y7586343D1*
X2194493Y7578723D1*
X2202465Y7571103D1*
X2211045Y7563483D1*
X2219491Y7555863D1*
X2227599Y7548243D1*
X2235456Y7540623D1*
X2243177Y7533003D1*
X2250837Y7525383D1*
X2258472Y7517763D1*
X2266100Y7510143D1*
X2281340Y8173083D2*
X2290167Y8165463D1*
X2299944Y8157843D1*
X2310538Y8150223D1*
X2321615Y8142603D1*
X2333165Y8134983D1*
X2345510Y8127363D1*
X2358888Y8119743D1*
X2372780Y8112123D1*
X2822360Y8173083D2*
X2813533Y8165463D1*
X2803726Y8157843D1*
X2792894Y8150223D1*
X2781113Y8142603D1*
X2768715Y8134983D1*
X2756285Y8127363D1*
X2743731Y8119743D1*
X2730920Y8112123D1*
X2829980Y8173083D2*
X2837600Y8165463D1*
X2845220Y8157843D1*
X2852840Y8150223D1*
X2860460Y8142603D1*
X2868080Y8134983D1*
X2875700Y8127363D1*
X2883320Y8119743D1*
X2890940Y8112123D1*
X2898560Y8104503D1*
X2906180Y8096883D1*
X2913800Y8089263D1*
X2906470Y8081643D1*
X2899827Y8074023D1*
X2894033Y8066403D1*
X2888397Y8058783D1*
X2882374Y8051163D1*
X2876432Y8043543D1*
X2870960Y8035923D1*
X2865457Y8028303D1*
X2859515Y8020683D1*
X2853919Y8013063D1*
X2849175Y8005443D1*
X2847693Y7997823D1*
X2849241Y7990203D1*
X2851839Y7982583D1*
X2855094Y7974963D1*
X2858688Y7967343D1*
X2862408Y7959723D1*
X2866194Y7952103D1*
X2869987Y7944483D1*
X2873919Y7936863D1*
X2878972Y7929243D1*
X2885836Y7921623D1*
X2905912Y7914003D1*
X2934343Y7906383D1*
X2968715Y7898763D1*
X3005240Y7891143D1*
Y7883523D1*
Y7875903D1*
Y7868283D1*
Y7860663D1*
Y7853043D1*
Y7845423D1*
Y7837803D1*
Y7830183D1*
Y7822563D1*
Y7814943D1*
Y7807323D1*
Y7799703D1*
Y7792083D1*
Y7784463D1*
X2967022Y7776843D1*
X2933909Y7769223D1*
X2909719Y7761603D1*
X2892138Y7753983D1*
X2884636Y7746363D1*
X2878917Y7738743D1*
X2874295Y7731123D1*
X2870159Y7723503D1*
X2866239Y7715883D1*
X2862412Y7708263D1*
X2858862Y7700643D1*
X2856043Y7693023D1*
X2854360Y7685403D1*
X2853796Y7677783D1*
X2854652Y7670163D1*
X2857323Y7662543D1*
X2861341Y7654923D1*
X2865871Y7647303D1*
X2870963Y7639683D1*
X2876770Y7632063D1*
X2882632Y7624443D1*
X2888045Y7616823D1*
X2893270Y7609203D1*
X2898208Y7601583D1*
X2902476Y7593963D1*
X2903680Y7586343D1*
X2900946Y7578723D1*
X2896197Y7571103D1*
X2889968Y7563483D1*
X2882947Y7555863D1*
X2875564Y7548243D1*
X2868032Y7540623D1*
X2860444Y7533003D1*
X2852835Y7525383D1*
X2845218Y7517763D1*
X2837600Y7510143D1*
X2509940Y7952103D2*
X2496198Y7944483D1*
X2484121Y7936863D1*
X2473949Y7929243D1*
X2465121Y7921623D1*
X2457234Y7914003D1*
X2450402Y7906383D1*
X2444795Y7898763D1*
X2440101Y7891143D1*
X2435923Y7883523D1*
X2432228Y7875903D1*
X2429353Y7868283D1*
X2427621Y7860663D1*
X2426752Y7853043D1*
X2426367Y7845423D1*
X2426211Y7837803D1*
X2426182Y7830183D1*
X2426429Y7822563D1*
X2427422Y7814943D1*
X2429513Y7807323D1*
X2432466Y7799703D1*
X2435918Y7792083D1*
X2439817Y7784463D1*
X2444325Y7776843D1*
X2449509Y7769223D1*
X2455407Y7761603D1*
X2462543Y7753983D1*
X2470870Y7746363D1*
X2479697Y7738743D1*
X2487968Y7731123D1*
X2494957Y7723503D1*
X2496634Y7715883D1*
X2494824Y7708263D1*
X2492065Y7700643D1*
X2488703Y7693023D1*
X2485078Y7685403D1*
X2481327Y7677783D1*
X2477546Y7670163D1*
X2473768Y7662543D1*
X2470205Y7654923D1*
X2467122Y7647303D1*
X2464411Y7639683D1*
X2461457Y7632063D1*
X2458120Y7624443D1*
X2454543Y7616823D1*
X2450823Y7609203D1*
X2447057Y7601583D1*
X2443255Y7593963D1*
X2439456Y7586343D1*
X2435671Y7578723D1*
X2432134Y7571103D1*
X2429298Y7563483D1*
X2427457Y7555863D1*
X2426120Y7548243D1*
X2593760Y7952103D2*
X2607502Y7944483D1*
X2619579Y7936863D1*
X2629751Y7929243D1*
X2638579Y7921623D1*
X2646466Y7914003D1*
X2653298Y7906383D1*
X2658876Y7898763D1*
X2663331Y7891143D1*
X2666806Y7883523D1*
X2669647Y7875903D1*
X2672393Y7868283D1*
X2674750Y7860663D1*
X2676242Y7853043D1*
X2677010Y7845423D1*
X2677325Y7837803D1*
X2677199Y7830183D1*
X2676281Y7822563D1*
X2674446Y7814943D1*
X2672231Y7807323D1*
X2669904Y7799703D1*
X2667075Y7792083D1*
X2663530Y7784463D1*
X2658974Y7776843D1*
X2653168Y7769223D1*
X2646450Y7761603D1*
X2639197Y7753983D1*
X2631498Y7746363D1*
X2623295Y7738743D1*
X2615409Y7731123D1*
X2608652Y7723503D1*
X2607035Y7715883D1*
X2608863Y7708263D1*
X2611630Y7700643D1*
X2614965Y7693023D1*
X2618354Y7685403D1*
X2621372Y7677783D1*
X2624061Y7670163D1*
X2627007Y7662543D1*
X2630341Y7654923D1*
X2633917Y7647303D1*
X2637637Y7639683D1*
X2641403Y7632063D1*
X2645176Y7624443D1*
X2648737Y7616823D1*
X2651818Y7609203D1*
X2654529Y7601583D1*
X2657484Y7593963D1*
X2660820Y7586343D1*
X2664397Y7578723D1*
X2668093Y7571103D1*
X2671662Y7563483D1*
X2674822Y7555863D1*
X2677580Y7548243D1*
X2372780Y7563483D2*
X2358747Y7555863D1*
X2345664Y7548243D1*
X2333398Y7540623D1*
X2321609Y7533003D1*
X2310230Y7525383D1*
X2299376Y7517763D1*
X2288960Y7510143D1*
X2730920Y7563483D2*
X2715680Y7555863D1*
X2700440Y7548243D1*
X2388020Y7555863D2*
X2403260Y7548243D1*
X2746160Y7555863D2*
X2756705Y7548243D1*
X2767838Y7540623D1*
X2779707Y7533003D1*
X2791937Y7525383D1*
X2803619Y7517763D1*
X2814740Y7510143D1*
X2022260Y7418703D2*
X2007645Y7411083D1*
X1994771Y7403463D1*
X1984744Y7395843D1*
X1976540Y7388223D1*
X2014640Y7418703D2*
X2028353Y7411083D1*
X2040161Y7403463D1*
X2049332Y7395843D1*
X2056067Y7388223D1*
X2061000Y7380603D1*
X2064410Y7372983D1*
X2066326Y7365363D1*
X2067007Y7357743D1*
X2066420Y7350123D1*
X2064463Y7342503D1*
X2061273Y7334883D1*
X2056582Y7327263D1*
X2049665Y7319643D1*
X2040409Y7312023D1*
X2029880Y7304403D1*
X2121320Y7418703D2*
X2106080Y7411083D1*
X2090840Y7403463D1*
X2075600Y7395843D1*
X2083220Y7388223D1*
X2106080Y7418703D2*
X2125915Y7411083D1*
X2142180Y7403463D1*
X2153903Y7395843D1*
X2161876Y7388223D1*
X2167344Y7380603D1*
X2170967Y7372983D1*
X2172963Y7365363D1*
X2173673Y7357743D1*
X2173095Y7350123D1*
X2171141Y7342503D1*
X2167922Y7334883D1*
X2162942Y7327263D1*
X2154847Y7319643D1*
X2142986Y7312023D1*
X2128940Y7304403D1*
X2205140Y7418703D2*
X2189900Y7411083D1*
X2174660Y7403463D1*
X2182280Y7395843D1*
X2189900Y7418703D2*
X2205140Y7411083D1*
X2220380Y7403463D1*
X2228000Y7418703D2*
Y7411083D1*
Y7403463D1*
X2250860Y7418703D2*
Y7411083D1*
Y7403463D1*
Y7395843D1*
Y7388223D1*
Y7380603D1*
Y7372983D1*
Y7365363D1*
Y7357743D1*
Y7350123D1*
Y7342503D1*
Y7334883D1*
Y7327263D1*
Y7319643D1*
Y7312023D1*
Y7304403D1*
X2281340Y7418703D2*
Y7411083D1*
Y7403463D1*
Y7395843D1*
Y7388223D1*
Y7380603D1*
Y7372983D1*
Y7365363D1*
Y7357743D1*
Y7350123D1*
Y7342503D1*
X2281370Y7334883D1*
X2281660Y7327263D1*
X2282838Y7319643D1*
X2285443Y7312023D1*
X2288960Y7304403D1*
Y7418703D2*
X2295082Y7411083D1*
X2299539Y7403463D1*
X2302091Y7395843D1*
X2303328Y7388223D1*
X2303864Y7380603D1*
X2304077Y7372983D1*
X2304157Y7365363D1*
X2304215Y7357743D1*
X2304523Y7350123D1*
X2305793Y7342503D1*
X2308861Y7334883D1*
X2313734Y7327263D1*
X2319440Y7319643D1*
X2365160Y7418703D2*
X2359038Y7411083D1*
X2354581Y7403463D1*
X2352029Y7395843D1*
X2350792Y7388223D1*
X2350256Y7380603D1*
X2350043Y7372983D1*
X2349963Y7365363D1*
X2349905Y7357743D1*
X2349568Y7350123D1*
X2348760Y7342503D1*
X2344905Y7334883D1*
X2335847Y7327263D1*
X2324419Y7319643D1*
X2311820Y7312023D1*
X2327060Y7304403D1*
X2372780Y7418703D2*
Y7411083D1*
Y7403463D1*
Y7395843D1*
Y7388223D1*
Y7380603D1*
Y7372983D1*
Y7365363D1*
Y7357743D1*
X2372750Y7350123D1*
X2372482Y7342503D1*
X2371452Y7334883D1*
X2369045Y7327263D1*
X2364717Y7319643D1*
X2358062Y7312023D1*
X2349920Y7304403D1*
X2448980Y7418703D2*
X2435238Y7411083D1*
X2423191Y7403463D1*
X2413317Y7395843D1*
X2405728Y7388223D1*
X2399817Y7380603D1*
X2397668Y7372983D1*
X2396504Y7365363D1*
X2396008Y7357743D1*
X2396092Y7350123D1*
X2397280Y7342503D1*
X2399621Y7334883D1*
X2405826Y7327263D1*
X2414699Y7319643D1*
X2427009Y7312023D1*
X2441360Y7304403D1*
X2433740Y7418703D2*
X2453575Y7411083D1*
X2469810Y7403463D1*
X2482850Y7395843D1*
X2489552Y7388223D1*
X2492231Y7380603D1*
X2493660Y7372983D1*
X2494297Y7365363D1*
X2494552Y7357743D1*
X2494619Y7350123D1*
X2494355Y7342503D1*
X2493068Y7334883D1*
X2490607Y7327263D1*
X2483702Y7319643D1*
X2474608Y7312023D1*
X2464220Y7304403D1*
X2570900Y7418703D2*
X2550842Y7411083D1*
X2533329Y7403463D1*
X2517560Y7395843D1*
X2548040Y7418703D2*
X2567875Y7411083D1*
X2584110Y7403463D1*
X2597150Y7395843D1*
X2603733Y7388223D1*
X2605956Y7380603D1*
X2603709Y7372983D1*
X2592997Y7365363D1*
X2577383Y7357743D1*
X2560442Y7350123D1*
X2545832Y7342503D1*
X2532800Y7334883D1*
X2540420Y7327263D1*
X2548040Y7319643D1*
X2738540Y7418703D2*
X2718965Y7411083D1*
X2703439Y7403463D1*
X2692839Y7395843D1*
X2685967Y7388223D1*
X2680951Y7380603D1*
X2679220Y7372983D1*
X2678280Y7365363D1*
X2677855Y7357743D1*
X2677681Y7350123D1*
X2677616Y7342503D1*
X2677592Y7334883D1*
X2677584Y7327263D1*
X2677581Y7319643D1*
X2677580Y7312023D1*
Y7304403D1*
X2715680Y7418703D2*
X2730920Y7411083D1*
X2746160Y7403463D1*
X2769020Y7418703D2*
X2759999Y7411083D1*
X2749705Y7403463D1*
X2738540Y7395843D1*
X2744662Y7388223D1*
X2749119Y7380603D1*
X2751671Y7372983D1*
X2752908Y7365363D1*
X2753444Y7357743D1*
X2753657Y7350123D1*
X2753737Y7342503D1*
X2753795Y7334883D1*
X2754095Y7327263D1*
X2755276Y7319643D1*
X2757882Y7312023D1*
X2761400Y7304403D1*
X2776640Y7418703D2*
Y7411083D1*
Y7403463D1*
Y7395843D1*
Y7388223D1*
Y7380603D1*
Y7372983D1*
Y7365363D1*
Y7357743D1*
Y7350123D1*
Y7342503D1*
Y7334883D1*
Y7327263D1*
Y7319643D1*
Y7312023D1*
Y7304403D1*
X2852840Y7418703D2*
X2838210Y7411083D1*
X2825251Y7403463D1*
X2815230Y7395843D1*
X2808261Y7388223D1*
X2803052Y7380603D1*
X2801225Y7372983D1*
X2800233Y7365363D1*
X2799769Y7357743D1*
X2799500Y7350123D1*
X2875700D1*
X2874569Y7342503D1*
X2870729Y7334883D1*
X2862361Y7327263D1*
X2852840Y7319643D1*
X2845220Y7418703D2*
X2859850Y7411083D1*
X2872809Y7403463D1*
X2882830Y7395843D1*
X2889799Y7388223D1*
X2895008Y7380603D1*
X2896834Y7372983D1*
X2897824Y7365363D1*
X2898242Y7357743D1*
X2898126Y7350123D1*
X2896926Y7342503D1*
X2893828Y7334883D1*
X2888498Y7327263D1*
X2880949Y7319643D1*
X2871282Y7312023D1*
X2860460Y7304403D1*
X2959520Y7418703D2*
X2946068Y7411083D1*
X2934998Y7403463D1*
X2926950Y7395843D1*
X2921315Y7388223D1*
X2917583Y7380603D1*
X2915504Y7372983D1*
X2914503Y7365363D1*
X2914101Y7357743D1*
X2914197Y7350123D1*
X2915134Y7342503D1*
X2917263Y7334883D1*
X2920766Y7327263D1*
X2926342Y7319643D1*
X2934566Y7312023D1*
X2944280Y7304403D1*
X2951900Y7418703D2*
X2967140Y7411083D1*
X2982380Y7403463D1*
X3005240Y7418703D2*
X2997620Y7411083D1*
X2990000Y7403463D1*
X3012860Y7418703D2*
Y7411083D1*
Y7403463D1*
Y7395843D1*
Y7388223D1*
Y7380603D1*
Y7372983D1*
Y7365363D1*
Y7357743D1*
Y7350123D1*
Y7342503D1*
Y7334883D1*
Y7327263D1*
Y7319643D1*
Y7312023D1*
Y7304403D1*
Y7296783D1*
Y7289163D1*
Y7281543D1*
Y7273923D1*
Y7266303D1*
Y7258683D1*
Y7251063D1*
Y7243443D1*
Y7235823D1*
Y7228203D1*
Y7220583D1*
Y7212963D1*
Y7205343D1*
Y7197723D1*
Y7190103D1*
Y7182483D1*
Y7174863D1*
Y7167243D1*
Y7159623D1*
Y7152003D1*
Y7144383D1*
Y7136763D1*
X3096680Y7418703D2*
X3077105Y7411083D1*
X3061579Y7403463D1*
X3050979Y7395843D1*
X3044107Y7388223D1*
X3039091Y7380603D1*
X3037360Y7372983D1*
X3036420Y7365363D1*
X3035995Y7357743D1*
X3035851Y7350123D1*
X3036083Y7342503D1*
X3037388Y7334883D1*
X3039934Y7327263D1*
X3048166Y7319643D1*
X3059902Y7312023D1*
X3073820Y7304403D1*
X3081440Y7418703D2*
X3096680Y7411083D1*
X3111920Y7403463D1*
X2007020Y7395843D2*
X2000896Y7388223D1*
X1996412Y7380603D1*
X1993686Y7372983D1*
X1991780Y7365363D1*
X2029880Y7395843D2*
X2036004Y7388223D1*
X2040488Y7380603D1*
X2043214Y7372983D1*
X2045120Y7365363D1*
X2113700Y7395843D2*
X2098460Y7388223D1*
X2121320Y7395843D2*
X2131250Y7388223D1*
X2138872Y7380603D1*
X2144358Y7372983D1*
X2148011Y7365363D1*
X2150404Y7357743D1*
X2150286Y7350123D1*
X2147543Y7342503D1*
X2140730Y7334883D1*
X2131682Y7327263D1*
X2121320Y7319643D1*
X2197520Y7395843D2*
X2205140D2*
X2214780Y7388223D1*
X2222536Y7380603D1*
X2225362Y7372983D1*
X2226882Y7365363D1*
X2227564Y7357743D1*
X2227840Y7350123D1*
X2227944Y7342503D1*
X2228011Y7334883D1*
X2228314Y7327263D1*
X2229496Y7319643D1*
X2232102Y7312023D1*
X2235620Y7304403D1*
X2441360Y7395843D2*
X2434325Y7388223D1*
X2429115Y7380603D1*
X2427525Y7372983D1*
X2426699Y7365363D1*
X2426340Y7357743D1*
X2426288Y7350123D1*
X2427107Y7342503D1*
X2429160Y7334883D1*
X2438065Y7327263D1*
X2448980Y7319643D1*
X2456600Y7395843D2*
X2462722Y7388223D1*
X2467179Y7380603D1*
X2469731Y7372983D1*
X2470968Y7365363D1*
X2471474Y7357743D1*
X2471389Y7350123D1*
X2470202Y7342503D1*
X2467164Y7334883D1*
X2462301Y7327263D1*
X2456600Y7319643D1*
X2548040Y7395843D2*
X2570900D2*
X2578520Y7388223D1*
X2586140Y7380603D1*
X2569777Y7372983D1*
X2551983Y7365363D1*
X2535854Y7357743D1*
X2524035Y7350123D1*
X2515462Y7342503D1*
X2513079Y7334883D1*
X2514907Y7327263D1*
X2522723Y7319643D1*
X2534247Y7312023D1*
X2548040Y7304403D1*
X2730920Y7395843D2*
X2721280Y7388223D1*
X2713524Y7380603D1*
X2710698Y7372983D1*
X2709178Y7365363D1*
X2708496Y7357743D1*
X2708220Y7350123D1*
X2708116Y7342503D1*
X2708079Y7334883D1*
X2708066Y7327263D1*
X2708062Y7319643D1*
X2708061Y7312023D1*
X2708060Y7304403D1*
X2837600Y7395843D2*
X2831476Y7388223D1*
X2826992Y7380603D1*
X2824266Y7372983D1*
X2822360Y7365363D1*
X2860460Y7395843D2*
X2866584Y7388223D1*
X2871068Y7380603D1*
X2873794Y7372983D1*
X2875700Y7365363D1*
X2959520Y7395843D2*
X2952195Y7388223D1*
X2946841Y7380603D1*
X2942830Y7372983D1*
X2940161Y7365363D1*
X2938722Y7357743D1*
X2940262Y7350123D1*
X2942547Y7342503D1*
X2946116Y7334883D1*
X2952021Y7327263D1*
X2959520Y7319643D1*
X2967140Y7395843D2*
X2975353Y7388223D1*
X2981619Y7380603D1*
X2985807Y7372983D1*
X2988094Y7365363D1*
X2988932Y7357743D1*
X2988375Y7350123D1*
X2986157Y7342503D1*
X2981899Y7334883D1*
X2975270Y7327263D1*
X2967140Y7319643D1*
X3081440Y7395843D2*
X3071800Y7388223D1*
X3064044Y7380603D1*
X3061218Y7372983D1*
X3059698Y7365363D1*
X3059045Y7357743D1*
X3059097Y7350123D1*
X3059769Y7342503D1*
X3063567Y7334883D1*
X3071925Y7327263D1*
X3081440Y7319643D1*
X3089060Y7395843D2*
X3097273Y7388223D1*
X3103539Y7380603D1*
X3107727Y7372983D1*
X3110014Y7365363D1*
X3110852Y7357743D1*
X3110295Y7350123D1*
X3108077Y7342503D1*
X3103819Y7334883D1*
X3097190Y7327263D1*
X3089060Y7319643D1*
X1976540Y7350123D2*
Y7342503D1*
Y7334883D1*
Y7327263D1*
Y7319643D1*
Y7312023D1*
Y7304403D1*
Y7296783D1*
Y7289163D1*
Y7281543D1*
Y7273923D1*
Y7266303D1*
Y7258683D1*
Y7251063D1*
Y7243443D1*
Y7235823D1*
Y7228203D1*
Y7220583D1*
Y7212963D1*
Y7205343D1*
Y7197723D1*
Y7190103D1*
Y7182483D1*
Y7174863D1*
Y7167243D1*
Y7159623D1*
Y7152003D1*
Y7144383D1*
Y7136763D1*
X2045120Y7350123D2*
X2043989Y7342503D1*
X2040149Y7334883D1*
X2031781Y7327263D1*
X2022260Y7319643D1*
X2090840Y7334883D2*
X2083220Y7327263D1*
X2075600Y7319643D1*
X2090840Y7312023D1*
X2106080Y7304403D1*
X2083220Y7334883D2*
X2098460Y7327263D1*
X2113700Y7319643D1*
X2601380Y7334883D2*
X2586140Y7327263D1*
X2570900Y7319643D1*
X2593760Y7334883D2*
X2601380Y7327263D1*
X2609000Y7319643D1*
X2590188Y7312023D1*
X2570900Y7304403D1*
X1999400Y7327263D2*
X2007020Y7319643D1*
X2799500Y7327263D2*
X2809922Y7319643D1*
X2822889Y7312023D1*
X2837600Y7304403D1*
X2829980Y7327263D2*
X2837600Y7319643D1*
X3119540D2*
X3108348Y7312023D1*
X3096680Y7304403D1*
X1984160Y7312023D2*
X1999400Y7304403D1*
X2304200Y7312023D2*
Y7304403D1*
X2982380Y7312023D2*
X2967140Y7304403D1*
X2990000Y7312023D2*
Y7304403D1*
Y7296783D1*
Y7289163D1*
Y7281543D1*
Y7273923D1*
Y7266303D1*
Y7258683D1*
Y7251063D1*
Y7243443D1*
Y7235823D1*
Y7228203D1*
X3119540Y7312023D2*
Y7304403D1*
Y7296783D1*
Y7289163D1*
Y7281543D1*
Y7273923D1*
Y7266303D1*
Y7258683D1*
Y7251063D1*
Y7243443D1*
Y7235823D1*
Y7228203D1*
Y7220583D1*
Y7212963D1*
Y7205343D1*
Y7197723D1*
Y7190103D1*
Y7182483D1*
Y7174863D1*
Y7167243D1*
Y7159623D1*
Y7152003D1*
Y7144383D1*
Y7136763D1*
X2593760Y7281543D2*
Y7273923D1*
Y7266303D1*
Y7258683D1*
Y7251063D1*
Y7243443D1*
Y7235823D1*
Y7228203D1*
Y7220583D1*
Y7212963D1*
Y7205343D1*
Y7197723D1*
Y7190103D1*
Y7182483D1*
Y7174863D1*
Y7167243D1*
Y7159623D1*
Y7152003D1*
Y7144383D1*
Y7136763D1*
X2616620Y7281543D2*
Y7273923D1*
Y7266303D1*
Y7258683D1*
Y7251063D1*
Y7243443D1*
Y7235823D1*
Y7228203D1*
X2128940Y7235823D2*
X2121610Y7228203D1*
X2114997Y7220583D1*
X2109501Y7212963D1*
X2105104Y7205343D1*
X2101906Y7197723D1*
X2100034Y7190103D1*
X2099068Y7182483D1*
X2098460Y7174863D1*
X2174660D1*
X2174035Y7167243D1*
X2172636Y7159623D1*
X2166698Y7152003D1*
X2159420Y7144383D1*
Y7235823D2*
X2171955Y7228203D1*
X2181845Y7220583D1*
X2188775Y7212963D1*
X2193969Y7205343D1*
X2195795Y7197723D1*
X2196785Y7190103D1*
X2197232Y7182483D1*
X2197384Y7174863D1*
X2197155Y7167243D1*
X2195913Y7159623D1*
X2192855Y7152003D1*
X2187985Y7144383D1*
X2182280Y7136763D1*
X2197520Y7235823D2*
X2209821Y7228203D1*
X2224700Y7220583D1*
X2238943Y7212963D1*
X2250469Y7205343D1*
X2254628Y7197723D1*
X2256855Y7190103D1*
X2257849Y7182483D1*
X2258249Y7174863D1*
X2258399Y7167243D1*
X2258453Y7159623D1*
X2258471Y7152003D1*
X2258477Y7144383D1*
X2258480Y7136763D1*
X2243240Y7235823D2*
X2250860Y7228203D1*
X2266100Y7235823D2*
X2258480Y7228203D1*
X2281340Y7235823D2*
Y7228203D1*
Y7220583D1*
Y7212963D1*
Y7205343D1*
Y7197723D1*
Y7190103D1*
Y7182483D1*
Y7174863D1*
Y7167243D1*
Y7159623D1*
Y7152003D1*
Y7144383D1*
Y7136763D1*
X2334680Y7235823D2*
X2327380Y7228203D1*
X2321034Y7220583D1*
X2316509Y7212963D1*
X2313937Y7205343D1*
X2312694Y7197723D1*
X2312157Y7190103D1*
X2311943Y7182483D1*
X2311863Y7174863D1*
X2311835Y7167243D1*
X2311825Y7159623D1*
X2311822Y7152003D1*
X2311820Y7144383D1*
Y7136763D1*
X2380400Y7235823D2*
X2388020Y7228203D1*
X2395640Y7220583D1*
X2334680Y7212963D1*
Y7205343D1*
Y7197723D1*
Y7190103D1*
X2363375Y7182483D1*
X2383798Y7174863D1*
X2397005Y7167243D1*
X2406728Y7159623D1*
X2405438Y7152003D1*
X2400874Y7144383D1*
X2395640Y7136763D1*
X2403260Y7235823D2*
X2409412Y7228203D1*
X2414137Y7220583D1*
X2417660Y7212963D1*
X2420752Y7205343D1*
X2423509Y7197723D1*
X2426022Y7190103D1*
X2428663Y7182483D1*
X2431237Y7174863D1*
X2433680Y7167243D1*
X2436268Y7159623D1*
X2438585Y7152003D1*
X2440174Y7144383D1*
X2441360Y7136763D1*
X2426120Y7235823D2*
X2432272Y7228203D1*
X2436997Y7220583D1*
X2440520Y7212963D1*
X2443612Y7205343D1*
X2446369Y7197723D1*
X2448882Y7190103D1*
X2451495Y7182483D1*
X2453820Y7174863D1*
X2455412Y7167243D1*
X2456600Y7159623D1*
X2494700Y7235823D2*
X2488548Y7228203D1*
X2483823Y7220583D1*
X2480300Y7212963D1*
X2477208Y7205343D1*
X2474451Y7197723D1*
X2471938Y7190103D1*
X2469325Y7182483D1*
X2467000Y7174863D1*
X2465408Y7167243D1*
X2464220Y7159623D1*
X2509940Y7235823D2*
X2510230Y7228203D1*
X2511207Y7220583D1*
X2513063Y7212963D1*
X2515285Y7205343D1*
X2517585Y7197723D1*
X2520147Y7190103D1*
X2522714Y7182483D1*
X2525360Y7174863D1*
X2528764Y7167243D1*
X2532800Y7159623D1*
X2563280Y7235823D2*
X2557158Y7228203D1*
X2552671Y7220583D1*
X2549852Y7212963D1*
X2547643Y7205343D1*
X2545253Y7197723D1*
X2542818Y7190103D1*
X2540432Y7182483D1*
X2537806Y7174863D1*
X2535192Y7167243D1*
X2532800Y7159623D1*
X2578520Y7235823D2*
X2577342Y7228203D1*
X2575423Y7220583D1*
X2573183Y7212963D1*
X2570877Y7205343D1*
X2568314Y7197723D1*
X2565769Y7190103D1*
X2563305Y7182483D1*
X2560454Y7174863D1*
X2557187Y7167243D1*
X2553892Y7159623D1*
X2551157Y7152003D1*
X2549356Y7144383D1*
X2548040Y7136763D1*
X2631860Y7235823D2*
X2624240Y7228203D1*
X2654720Y7235823D2*
X2667255Y7228203D1*
X2677145Y7220583D1*
X2684075Y7212963D1*
X2689269Y7205343D1*
X2691095Y7197723D1*
X2692085Y7190103D1*
X2692502Y7182483D1*
X2692416Y7174863D1*
X2691484Y7167243D1*
X2689392Y7159623D1*
X2686250Y7152003D1*
X2682204Y7144383D1*
X2677580Y7136763D1*
X2685200Y7235823D2*
X2697501Y7228203D1*
X2712410Y7220583D1*
X2726946Y7212963D1*
X2738037Y7205343D1*
X2746381Y7197723D1*
X2753780Y7190103D1*
X2750263Y7182483D1*
X2748074Y7174863D1*
X2746967Y7167243D1*
X2746475Y7159623D1*
X2746276Y7152003D1*
X2746199Y7144383D1*
X2746160Y7136763D1*
X2730920Y7235823D2*
X2738540Y7228203D1*
X2761400Y7235823D2*
X2753780Y7228203D1*
X2776640Y7235823D2*
Y7228203D1*
Y7220583D1*
Y7212963D1*
Y7205343D1*
Y7197723D1*
Y7190103D1*
Y7182483D1*
Y7174863D1*
Y7167243D1*
Y7159623D1*
Y7152003D1*
Y7144383D1*
Y7136763D1*
X2822360Y7235823D2*
X2815947Y7228203D1*
X2810514Y7220583D1*
X2806136Y7212963D1*
X2802944Y7205343D1*
X2801080Y7197723D1*
X2800160Y7190103D1*
X2799757Y7182483D1*
X2799595Y7174863D1*
X2799533Y7167243D1*
X2799511Y7159623D1*
X2799504Y7152003D1*
X2799501Y7144383D1*
X2799500Y7136763D1*
X2875700Y7235823D2*
X2883320Y7228203D1*
X2890940Y7220583D1*
X2854983Y7212963D1*
X2822360Y7205343D1*
X2834441Y7197723D1*
X2851098Y7190103D1*
X2868813Y7182483D1*
X2882426Y7174863D1*
X2892420Y7167243D1*
X2896075Y7159623D1*
X2896701Y7152003D1*
X2894229Y7144383D1*
X2890940Y7136763D1*
X2951900Y7235823D2*
X2939365Y7228203D1*
X2929475Y7220583D1*
X2922545Y7212963D1*
X2917351Y7205343D1*
X2915525Y7197723D1*
X2914535Y7190103D1*
X2914088Y7182483D1*
X2913906Y7174863D1*
X2913838Y7167243D1*
X2913813Y7159623D1*
X2913804Y7152003D1*
X2913801Y7144383D1*
X2913800Y7136763D1*
X2974760Y7235823D2*
X2982380Y7228203D1*
X2136560Y7212963D2*
X2133015Y7205343D1*
X2130659Y7197723D1*
X2128940Y7190103D1*
X2167040Y7212963D2*
X2170585Y7205343D1*
X2172941Y7197723D1*
X2174660Y7190103D1*
X2624240Y7212963D2*
X2621635Y7205343D1*
X2619367Y7197723D1*
X2617952Y7190103D1*
X2617474Y7182483D1*
X2618138Y7174863D1*
X2620117Y7167243D1*
X2623215Y7159623D1*
X2627245Y7152003D1*
X2631860Y7144383D1*
X2654720Y7212963D2*
X2659415Y7205343D1*
X2663463Y7197723D1*
X2666275Y7190103D1*
X2667833Y7182483D1*
X2666358Y7174863D1*
X2664381Y7167243D1*
X2661997Y7159623D1*
X2658700Y7152003D1*
X2654720Y7144383D1*
X2951900Y7212963D2*
X2946068Y7205343D1*
X2941549Y7197723D1*
X2941603Y7190103D1*
X2942514Y7182483D1*
X2943357Y7174863D1*
X2943862Y7167243D1*
X2944109Y7159623D1*
X2944215Y7152003D1*
X2944257Y7144383D1*
X2944280Y7136763D1*
X2982380Y7212963D2*
X2984985Y7205343D1*
X2987253Y7197723D1*
X2988697Y7190103D1*
X2989444Y7182483D1*
X2989780Y7174863D1*
X2989918Y7167243D1*
X2989971Y7159623D1*
X2989990Y7152003D1*
X2989997Y7144383D1*
X2990000Y7136763D1*
X2494700Y7197723D2*
X2491153Y7190103D1*
X2488696Y7182483D1*
X2486618Y7174863D1*
X2484272Y7167243D1*
X2481829Y7159623D1*
X2479241Y7152003D1*
X2475862Y7144383D1*
X2471840Y7136763D1*
X2502320Y7190103D2*
X2503498Y7182483D1*
X2505417Y7174863D1*
X2507657Y7167243D1*
X2509969Y7159623D1*
X2512568Y7152003D1*
X2515172Y7144383D1*
X2517560Y7136763D1*
X2334680Y7174863D2*
X2334993Y7167243D1*
X2336176Y7159623D1*
X2338782Y7152003D1*
X2342300Y7144383D1*
X2365160Y7174863D2*
X2372196Y7167243D1*
X2377409Y7159623D1*
X2379122Y7152003D1*
X2380400Y7144383D1*
X2829980Y7174863D2*
Y7167243D1*
Y7159623D1*
Y7152003D1*
Y7144383D1*
X2860460Y7174863D2*
X2868288Y7167243D1*
X2871697Y7159623D1*
X2870441Y7152003D1*
X2868080Y7144383D1*
X2106080Y7152003D2*
Y7144383D1*
Y7136763D1*
X2121320Y7152003D2*
X2128940Y7144383D1*
X2616620Y7136763D2*
X7264390Y2967990D2*
Y2960370D1*
Y2952750D1*
Y2945130D1*
Y2937510D1*
Y2929890D1*
Y2922270D1*
Y2914650D1*
Y2907030D1*
Y2899410D1*
Y2891790D1*
Y2884170D1*
Y2876550D1*
Y2868930D1*
Y2861310D1*
Y2853690D1*
Y2846070D1*
Y2838450D1*
Y2830830D1*
Y2823210D1*
Y2815590D1*
Y2807970D1*
Y2800350D1*
Y2792730D1*
Y2785110D1*
Y2777490D1*
Y2769870D1*
Y2762250D1*
Y2754630D1*
Y2747010D1*
Y2739390D1*
Y2731770D1*
Y2724150D1*
Y2716530D1*
Y2708910D1*
Y2701290D1*
Y2693670D1*
Y2686050D1*
Y2678430D1*
Y2670810D1*
Y2663190D1*
Y2655570D1*
Y2647950D1*
Y2640330D1*
Y2632710D1*
Y2625090D1*
Y2617470D1*
Y2609850D1*
Y2602230D1*
Y2594610D1*
Y2586990D1*
Y2579370D1*
Y2571750D1*
Y2564130D1*
Y2556510D1*
Y2548890D1*
Y2541270D1*
Y2533650D1*
Y2526030D1*
Y2518410D1*
Y2510790D1*
Y2503170D1*
Y2495550D1*
Y2487930D1*
Y2480310D1*
Y2472690D1*
Y2465070D1*
Y2457450D1*
Y2449830D1*
Y2442210D1*
Y2434590D1*
Y2426970D1*
Y2419350D1*
Y2411730D1*
Y2404110D1*
Y2396490D1*
Y2388870D1*
Y2381250D1*
Y2373630D1*
Y2366010D1*
Y2358390D1*
Y2350770D1*
Y2343150D1*
Y2335530D1*
Y2327910D1*
Y2320290D1*
Y2312670D1*
Y2305050D1*
Y2297430D1*
Y2289810D1*
Y2282190D1*
Y2274570D1*
Y2266950D1*
Y2259330D1*
Y2251710D1*
Y2244090D1*
Y2236470D1*
Y2228850D1*
Y2221230D1*
Y2213610D1*
Y2205990D1*
Y2198370D1*
Y2190750D1*
Y2183130D1*
Y2175510D1*
Y2167890D1*
Y2160270D1*
Y2152650D1*
Y2145030D1*
Y2137410D1*
Y2129790D1*
Y2122170D1*
Y2114550D1*
Y2106930D1*
Y2099310D1*
Y2091690D1*
Y2084070D1*
X9862810Y2967990D2*
Y2960370D1*
Y2952750D1*
Y2945130D1*
Y2937510D1*
Y2929890D1*
Y2922270D1*
Y2914650D1*
Y2907030D1*
Y2899410D1*
Y2891790D1*
Y2884170D1*
Y2876550D1*
Y2868930D1*
Y2861310D1*
Y2853690D1*
Y2846070D1*
Y2838450D1*
Y2830830D1*
Y2823210D1*
Y2815590D1*
Y2807970D1*
Y2800350D1*
Y2792730D1*
Y2785110D1*
Y2777490D1*
Y2769870D1*
Y2762250D1*
Y2754630D1*
Y2747010D1*
Y2739390D1*
Y2731770D1*
Y2724150D1*
Y2716530D1*
Y2708910D1*
Y2701290D1*
Y2693670D1*
Y2686050D1*
Y2678430D1*
Y2670810D1*
Y2663190D1*
Y2655570D1*
Y2647950D1*
Y2640330D1*
Y2632710D1*
Y2625090D1*
Y2617470D1*
Y2609850D1*
Y2602230D1*
Y2594610D1*
Y2586990D1*
Y2579370D1*
Y2571750D1*
Y2564130D1*
Y2556510D1*
Y2548890D1*
Y2541270D1*
Y2533650D1*
Y2526030D1*
Y2518410D1*
Y2510790D1*
Y2503170D1*
Y2495550D1*
Y2487930D1*
Y2480310D1*
Y2472690D1*
Y2465070D1*
Y2457450D1*
Y2449830D1*
Y2442210D1*
Y2434590D1*
Y2426970D1*
Y2419350D1*
Y2411730D1*
Y2404110D1*
Y2396490D1*
Y2388870D1*
Y2381250D1*
Y2373630D1*
Y2366010D1*
Y2358390D1*
Y2350770D1*
Y2343150D1*
Y2335530D1*
Y2327910D1*
Y2320290D1*
Y2312670D1*
Y2305050D1*
Y2297430D1*
Y2289810D1*
Y2282190D1*
Y2274570D1*
Y2266950D1*
Y2259330D1*
Y2251710D1*
Y2244090D1*
Y2236470D1*
Y2228850D1*
Y2221230D1*
Y2213610D1*
Y2205990D1*
Y2198370D1*
Y2190750D1*
Y2183130D1*
Y2175510D1*
Y2167890D1*
Y2160270D1*
Y2152650D1*
Y2145030D1*
Y2137410D1*
Y2129790D1*
Y2122170D1*
Y2114550D1*
Y2106930D1*
Y2099310D1*
Y2091690D1*
Y2084070D1*
X6098530Y2823210D2*
X6074853Y2815590D1*
X6053925Y2807970D1*
X6037050Y2800350D1*
X6023752Y2792730D1*
X6012917Y2785110D1*
X6003239Y2777490D1*
X5994209Y2769870D1*
X5986517Y2762250D1*
X5980457Y2754630D1*
X5975774Y2747010D1*
X5972173Y2739390D1*
X5969027Y2731770D1*
X5965296Y2724150D1*
X5961108Y2716530D1*
X5957632Y2708910D1*
X5955266Y2701290D1*
X5953243Y2693670D1*
X5950954Y2686050D1*
X5948783Y2678430D1*
X5947115Y2670810D1*
X5945411Y2663190D1*
X5943254Y2655570D1*
X5941164Y2647950D1*
X5939783Y2640330D1*
X5939057Y2632710D1*
X5938727Y2625090D1*
X5938586Y2617470D1*
X5938510Y2609850D1*
X5991850Y2602230D1*
X6159490Y2823210D2*
X6185772Y2815590D1*
X6208968Y2807970D1*
X6227287Y2800350D1*
X6241332Y2792730D1*
X6252473Y2785110D1*
X6262051Y2777490D1*
X6270431Y2769870D1*
X6277318Y2762250D1*
X6283523Y2754630D1*
X6289775Y2747010D1*
X6295556Y2739390D1*
X6300069Y2731770D1*
X6303523Y2724150D1*
X6306813Y2716530D1*
X6310288Y2708910D1*
X6313918Y2701290D1*
X6317627Y2693670D1*
X6321132Y2686050D1*
X6323966Y2678430D1*
X6325940Y2670810D1*
X6327772Y2663190D1*
X6330008Y2655570D1*
X6332384Y2647950D1*
X6334743Y2640330D1*
X6337296Y2632710D1*
X6339580Y2625090D1*
X6341045Y2617470D1*
X6341804Y2609850D1*
X6342146Y2602230D1*
X6342287Y2594610D1*
X6342340Y2586990D1*
X6342360Y2579370D1*
X6342367Y2571750D1*
X6342369Y2564130D1*
X6342370Y2556510D1*
Y2548890D1*
Y2541270D1*
Y2533650D1*
Y2526030D1*
Y2518410D1*
Y2510790D1*
Y2503170D1*
Y2495550D1*
Y2487930D1*
X6342340Y2480310D1*
X6342072Y2472690D1*
X6341101Y2465070D1*
X6339276Y2457450D1*
X6337293Y2449830D1*
X6335696Y2442210D1*
X6334018Y2434590D1*
X6331870Y2426970D1*
X6329753Y2419350D1*
X6328104Y2411730D1*
X6326378Y2404110D1*
X6323956Y2396490D1*
X6320865Y2388870D1*
X6317391Y2381250D1*
X6313741Y2373630D1*
X6310197Y2366010D1*
X6306865Y2358390D1*
X6303189Y2350770D1*
X6298382Y2343150D1*
X6292854Y2335530D1*
X6287186Y2327910D1*
X6281370Y2320290D1*
X6275180Y2312670D1*
X6267891Y2305050D1*
X6259159Y2297430D1*
X6248451Y2289810D1*
X6234566Y2282190D1*
X6217860Y2274570D1*
X6200127Y2266950D1*
X6182350Y2259330D1*
X9481810Y2823210D2*
X9459300Y2815590D1*
X9438012Y2807970D1*
X9419516Y2800350D1*
X9404797Y2792730D1*
X9393361Y2785110D1*
X9383991Y2777490D1*
X9375858Y2769870D1*
X9368677Y2762250D1*
X9362100Y2754630D1*
X9355810Y2747010D1*
X9350378Y2739390D1*
X9346178Y2731770D1*
X9342427Y2724150D1*
X9338507Y2716530D1*
X9334086Y2708910D1*
X9329488Y2701290D1*
X9325841Y2693670D1*
X9323628Y2686050D1*
X9322274Y2678430D1*
X9320826Y2670810D1*
X9318779Y2663190D1*
X9316484Y2655570D1*
X9314158Y2647950D1*
X9311618Y2640330D1*
X9309338Y2632710D1*
X9307874Y2625090D1*
X9307116Y2617470D1*
X9306774Y2609850D1*
X9306633Y2602230D1*
X9306580Y2594610D1*
X9306560Y2586990D1*
X9306553Y2579370D1*
X9306551Y2571750D1*
X9306550Y2564130D1*
Y2556510D1*
Y2548890D1*
Y2541270D1*
Y2533650D1*
Y2526030D1*
Y2518410D1*
Y2510790D1*
Y2503170D1*
Y2495550D1*
Y2487930D1*
Y2480310D1*
Y2472690D1*
X9306580Y2465070D1*
X9306848Y2457450D1*
X9307819Y2449830D1*
X9309674Y2442210D1*
X9311895Y2434590D1*
X9314195Y2426970D1*
X9316727Y2419350D1*
X9319034Y2411730D1*
X9320764Y2404110D1*
X9322523Y2396490D1*
X9324958Y2388870D1*
X9328023Y2381250D1*
X9331260Y2373630D1*
X9334238Y2366010D1*
X9337136Y2358390D1*
X9340804Y2350770D1*
X9345256Y2343150D1*
X9349960Y2335530D1*
X9355177Y2327910D1*
X9361514Y2320290D1*
X9369087Y2312670D1*
X9377539Y2305050D1*
X9386682Y2297430D1*
X9397807Y2289810D1*
X9412819Y2282190D1*
X9433105Y2274570D1*
X9459453Y2266950D1*
X9489430Y2259330D1*
X9558010Y2823210D2*
X9574398Y2815590D1*
X9591229Y2807970D1*
X9607174Y2800350D1*
X9620654Y2792730D1*
X9631585Y2785110D1*
X9641010Y2777490D1*
X9650004Y2769870D1*
X9658713Y2762250D1*
X9666263Y2754630D1*
X9672055Y2747010D1*
X9676268Y2739390D1*
X9679700Y2731770D1*
X9683552Y2724150D1*
X9687815Y2716530D1*
X9691547Y2708910D1*
X9694651Y2701290D1*
X9697798Y2693670D1*
X9701188Y2686050D1*
X9704530Y2678430D1*
X9707262Y2670810D1*
X9708940Y2663190D1*
X9709789Y2655570D1*
X9710196Y2647950D1*
X9710617Y2640330D1*
X9711647Y2632710D1*
X9713493Y2625090D1*
X9715454Y2617470D1*
X9716785Y2609850D1*
X9717522Y2602230D1*
X9718114Y2594610D1*
X9719219Y2586990D1*
X9721095Y2579370D1*
X9723068Y2571750D1*
X9724403Y2564130D1*
X9725112Y2556510D1*
X9725436Y2548890D1*
X9725570Y2541270D1*
X9725592Y2533650D1*
X9725342Y2526030D1*
X9724378Y2518410D1*
X9722555Y2510790D1*
X9720602Y2503170D1*
X9719273Y2495550D1*
X9718537Y2487930D1*
X9717946Y2480310D1*
X9716841Y2472690D1*
X9714965Y2465070D1*
X9712992Y2457450D1*
X9711657Y2449830D1*
X9710948Y2442210D1*
X9710594Y2434590D1*
X9710192Y2426970D1*
X9709140Y2419350D1*
X9707028Y2411730D1*
X9704097Y2404110D1*
X9700911Y2396490D1*
X9697952Y2388870D1*
X9695061Y2381250D1*
X9691424Y2373630D1*
X9687241Y2366010D1*
X9683538Y2358390D1*
X9680414Y2350770D1*
X9677002Y2343150D1*
X9672613Y2335530D1*
X9667148Y2327910D1*
X9661165Y2320290D1*
X9654796Y2312670D1*
X9647163Y2305050D1*
X9637724Y2297430D1*
X9626250Y2289810D1*
X9611721Y2282190D1*
X9591244Y2274570D1*
X9562179Y2266950D1*
X9527530Y2259330D1*
X5481310Y2807970D2*
Y2800350D1*
Y2792730D1*
Y2785110D1*
Y2777490D1*
Y2769870D1*
Y2762250D1*
Y2754630D1*
Y2747010D1*
Y2739390D1*
Y2731770D1*
Y2724150D1*
Y2716530D1*
Y2708910D1*
Y2701290D1*
Y2693670D1*
Y2686050D1*
Y2678430D1*
Y2670810D1*
Y2663190D1*
Y2655570D1*
Y2647950D1*
Y2640330D1*
Y2632710D1*
Y2625090D1*
Y2617470D1*
Y2609850D1*
Y2602230D1*
Y2594610D1*
Y2586990D1*
Y2579370D1*
Y2571750D1*
Y2564130D1*
Y2556510D1*
Y2548890D1*
Y2541270D1*
Y2533650D1*
Y2526030D1*
Y2518410D1*
Y2510790D1*
Y2503170D1*
Y2495550D1*
Y2487930D1*
Y2480310D1*
Y2472690D1*
Y2465070D1*
Y2457450D1*
Y2449830D1*
Y2442210D1*
Y2434590D1*
Y2426970D1*
Y2419350D1*
Y2411730D1*
Y2404110D1*
Y2396490D1*
Y2388870D1*
Y2381250D1*
Y2373630D1*
Y2366010D1*
Y2358390D1*
Y2350770D1*
Y2343150D1*
Y2335530D1*
Y2327910D1*
Y2320290D1*
Y2312670D1*
Y2305050D1*
Y2297430D1*
Y2289810D1*
Y2282190D1*
Y2274570D1*
Y2266950D1*
X5603230Y2807970D2*
Y2800350D1*
Y2792730D1*
Y2785110D1*
Y2777490D1*
Y2769870D1*
Y2762250D1*
Y2754630D1*
Y2747010D1*
Y2739390D1*
Y2731770D1*
Y2724150D1*
Y2716530D1*
Y2708910D1*
Y2701290D1*
Y2693670D1*
Y2686050D1*
Y2678430D1*
Y2670810D1*
Y2663190D1*
Y2655570D1*
Y2647950D1*
Y2640330D1*
Y2632710D1*
Y2625090D1*
Y2617470D1*
Y2609850D1*
Y2602230D1*
Y2594610D1*
Y2586990D1*
X5740390Y2807970D2*
Y2800350D1*
Y2792730D1*
Y2785110D1*
Y2777490D1*
Y2769870D1*
Y2762250D1*
Y2754630D1*
Y2747010D1*
Y2739390D1*
Y2731770D1*
Y2724150D1*
Y2716530D1*
Y2708910D1*
Y2701290D1*
Y2693670D1*
Y2686050D1*
Y2678430D1*
Y2670810D1*
Y2663190D1*
Y2655570D1*
Y2647950D1*
Y2640330D1*
Y2632710D1*
Y2625090D1*
Y2617470D1*
Y2609850D1*
Y2602230D1*
Y2594610D1*
Y2586990D1*
X5862310Y2807970D2*
Y2800350D1*
Y2792730D1*
Y2785110D1*
Y2777490D1*
Y2769870D1*
Y2762250D1*
Y2754630D1*
Y2747010D1*
Y2739390D1*
Y2731770D1*
Y2724150D1*
Y2716530D1*
Y2708910D1*
Y2701290D1*
Y2693670D1*
Y2686050D1*
Y2678430D1*
Y2670810D1*
Y2663190D1*
Y2655570D1*
Y2647950D1*
Y2640330D1*
Y2632710D1*
Y2625090D1*
Y2617470D1*
Y2609850D1*
Y2602230D1*
Y2594610D1*
Y2586990D1*
Y2579370D1*
Y2571750D1*
Y2564130D1*
Y2556510D1*
Y2548890D1*
Y2541270D1*
Y2533650D1*
Y2526030D1*
Y2518410D1*
Y2510790D1*
Y2503170D1*
Y2495550D1*
Y2487930D1*
Y2480310D1*
Y2472690D1*
Y2465070D1*
Y2457450D1*
Y2449830D1*
Y2442210D1*
Y2434590D1*
Y2426970D1*
Y2419350D1*
Y2411730D1*
Y2404110D1*
Y2396490D1*
Y2388870D1*
Y2381250D1*
Y2373630D1*
Y2366010D1*
Y2358390D1*
Y2350770D1*
Y2343150D1*
Y2335530D1*
Y2327910D1*
Y2320290D1*
Y2312670D1*
Y2305050D1*
Y2297430D1*
Y2289810D1*
Y2282190D1*
Y2274570D1*
Y2266950D1*
X6388090Y2807970D2*
Y2800350D1*
Y2792730D1*
Y2785110D1*
Y2777490D1*
Y2769870D1*
Y2762250D1*
Y2754630D1*
Y2747010D1*
Y2739390D1*
Y2731770D1*
Y2724150D1*
X6730990Y2807970D2*
Y2800350D1*
Y2792730D1*
Y2785110D1*
Y2777490D1*
Y2769870D1*
Y2762250D1*
Y2754630D1*
Y2747010D1*
Y2739390D1*
Y2731770D1*
Y2724150D1*
Y2716530D1*
Y2708910D1*
Y2701290D1*
Y2693670D1*
Y2686050D1*
Y2678430D1*
Y2670810D1*
Y2663190D1*
Y2655570D1*
Y2647950D1*
Y2640330D1*
Y2632710D1*
Y2625090D1*
Y2617470D1*
Y2609850D1*
Y2602230D1*
Y2594610D1*
Y2586990D1*
Y2579370D1*
Y2571750D1*
Y2564130D1*
Y2556510D1*
Y2548890D1*
Y2541270D1*
Y2533650D1*
Y2526030D1*
Y2518410D1*
Y2510790D1*
Y2503170D1*
Y2495550D1*
Y2487930D1*
Y2480310D1*
Y2472690D1*
Y2465070D1*
Y2457450D1*
Y2449830D1*
Y2442210D1*
Y2434590D1*
Y2426970D1*
Y2419350D1*
Y2411730D1*
Y2404110D1*
Y2396490D1*
Y2388870D1*
Y2381250D1*
Y2373630D1*
Y2366010D1*
Y2358390D1*
Y2350770D1*
Y2343150D1*
Y2335530D1*
Y2327910D1*
Y2320290D1*
Y2312670D1*
Y2305050D1*
Y2297430D1*
Y2289810D1*
Y2282190D1*
Y2274570D1*
Y2266950D1*
X6776710Y2807970D2*
Y2800350D1*
Y2792730D1*
Y2785110D1*
Y2777490D1*
Y2769870D1*
Y2762250D1*
Y2754630D1*
Y2747010D1*
Y2739390D1*
Y2731770D1*
Y2724150D1*
Y2716530D1*
Y2708910D1*
X7127230Y2807970D2*
Y2800350D1*
Y2792730D1*
Y2785110D1*
Y2777490D1*
Y2769870D1*
Y2762250D1*
Y2754630D1*
Y2747010D1*
Y2739390D1*
Y2731770D1*
Y2724150D1*
Y2716530D1*
Y2708910D1*
X8254990Y2747010D2*
X8242745Y2739390D1*
X8232443Y2731770D1*
X8228381Y2724150D1*
X8226166Y2716530D1*
X8225161Y2708910D1*
X8224751Y2701290D1*
X8224595Y2693670D1*
X8224539Y2686050D1*
X8224519Y2678430D1*
X8224510Y2670810D1*
X8249397Y2663190D1*
X8266685Y2655570D1*
X8278703Y2647950D1*
X8282779Y2640330D1*
X8283040Y2632710D1*
X8281587Y2625090D1*
X8278683Y2617470D1*
X8274669Y2609850D1*
X8270225Y2602230D1*
X8266633Y2594610D1*
X8264468Y2586990D1*
X8263359Y2579370D1*
X8262593Y2571750D1*
X8261224Y2564130D1*
X8258545Y2556510D1*
X8254990Y2548890D1*
X8258507Y2541270D1*
X8260726Y2533650D1*
X8262101Y2526030D1*
X8263593Y2518410D1*
X8265915Y2510790D1*
X8269183Y2503170D1*
X8273365Y2495550D1*
X8278187Y2487930D1*
X8283333Y2480310D1*
X8289627Y2472690D1*
X8298117Y2465070D1*
X8308865Y2457450D1*
X8321122Y2449830D1*
X8333255Y2442210D1*
X8344044Y2434590D1*
X8354050Y2426970D1*
X8254990Y2747010D2*
X8274855Y2739390D1*
X8291388Y2731770D1*
X8304082Y2724150D1*
X8313879Y2716530D1*
X8321301Y2708910D1*
X8327082Y2701290D1*
X8329223Y2693670D1*
X8330659Y2686050D1*
X8332355Y2678430D1*
X8335176Y2670810D1*
X8338810Y2663190D1*
X9504670Y2724150D2*
X9491218Y2716530D1*
X9480148Y2708910D1*
X9472100Y2701290D1*
X9466435Y2693670D1*
X9462435Y2686050D1*
X9459355Y2678430D1*
X9456262Y2670810D1*
X9452905Y2663190D1*
X9449579Y2655570D1*
X9446854Y2647950D1*
X9445179Y2640330D1*
X9444331Y2632710D1*
X9443954Y2625090D1*
X9443800Y2617470D1*
X9443742Y2609850D1*
X9443721Y2602230D1*
X9443714Y2594610D1*
X9443711Y2586990D1*
X9443710Y2579370D1*
Y2571750D1*
Y2564130D1*
Y2556510D1*
Y2548890D1*
Y2541270D1*
Y2533650D1*
Y2526030D1*
Y2518410D1*
Y2510790D1*
Y2503170D1*
Y2495550D1*
Y2487930D1*
Y2480310D1*
Y2472690D1*
Y2465070D1*
Y2457450D1*
X9443740Y2449830D1*
X9444008Y2442210D1*
X9445009Y2434590D1*
X9447101Y2426970D1*
X9450026Y2419350D1*
X9453210Y2411730D1*
X9456138Y2404110D1*
X9458791Y2396490D1*
X9461784Y2388870D1*
X9465670Y2381250D1*
X9471401Y2373630D1*
X9479685Y2366010D1*
X9489430Y2358390D1*
X9519910Y2724150D2*
X9533623Y2716530D1*
X9545431Y2708910D1*
X9554602Y2701290D1*
X9561337Y2693670D1*
X9566270Y2686050D1*
X9569680Y2678430D1*
X9571626Y2670810D1*
X9572605Y2663190D1*
X9573286Y2655570D1*
X9574422Y2647950D1*
X9576310Y2640330D1*
X9578286Y2632710D1*
X9579623Y2625090D1*
X9580332Y2617470D1*
X9580656Y2609850D1*
X9580790Y2602230D1*
X9580871Y2594610D1*
X9581158Y2586990D1*
X9582135Y2579370D1*
X9583963Y2571750D1*
X9585917Y2564130D1*
X9587246Y2556510D1*
X9587953Y2548890D1*
X9588276Y2541270D1*
X9588380Y2533650D1*
X9588164Y2526030D1*
X9587211Y2518410D1*
X9585393Y2510790D1*
X9583441Y2503170D1*
X9582113Y2495550D1*
X9581407Y2487930D1*
X9581084Y2480310D1*
X9580950Y2472690D1*
X9580869Y2465070D1*
X9580582Y2457450D1*
X9579605Y2449830D1*
X9577777Y2442210D1*
X9575823Y2434590D1*
X9574464Y2426970D1*
X9573489Y2419350D1*
X9572195Y2411730D1*
X9570177Y2404110D1*
X9567636Y2396490D1*
X9564286Y2388870D1*
X9559340Y2381250D1*
X9552713Y2373630D1*
X9544476Y2366010D1*
X9535150Y2358390D1*
X6106150Y2724150D2*
X6097643Y2716530D1*
X6089110Y2708910D1*
X6081373Y2701290D1*
X6074671Y2693670D1*
X6068940Y2686050D1*
X6064767Y2678430D1*
X6062116Y2670810D1*
X6059984Y2663190D1*
X6057654Y2655570D1*
X6055469Y2647950D1*
X6053797Y2640330D1*
X6052092Y2632710D1*
X6049933Y2625090D1*
X6047823Y2617470D1*
X6046325Y2609850D1*
X6045190Y2602230D1*
X6151870Y2724150D2*
X6160377Y2716530D1*
X6168910Y2708910D1*
X6176647Y2701290D1*
X6183349Y2693670D1*
X6189110Y2686050D1*
X6193521Y2678430D1*
X6196875Y2670810D1*
X6199861Y2663190D1*
X6202319Y2655570D1*
X6203850Y2647950D1*
X6204662Y2640330D1*
X6205280Y2632710D1*
X6206394Y2625090D1*
X6208274Y2617470D1*
X6210247Y2609850D1*
X6211583Y2602230D1*
X6212292Y2594610D1*
X6212616Y2586990D1*
X6212750Y2579370D1*
X6212801Y2571750D1*
X6212820Y2564130D1*
X6212827Y2556510D1*
X6212829Y2548890D1*
X6212830Y2541270D1*
Y2533650D1*
Y2526030D1*
Y2518410D1*
Y2510790D1*
Y2503170D1*
Y2495550D1*
Y2487930D1*
X6212800Y2480310D1*
X6212532Y2472690D1*
X6211561Y2465070D1*
X6209736Y2457450D1*
X6207783Y2449830D1*
X6206454Y2442210D1*
X6205717Y2434590D1*
X6205126Y2426970D1*
X6204021Y2419350D1*
X6202085Y2411730D1*
X6199577Y2404110D1*
X6196240Y2396490D1*
X6191298Y2388870D1*
X6184672Y2381250D1*
X6176435Y2373630D1*
X6167110Y2366010D1*
X6609070Y2724150D2*
Y2716530D1*
Y2708910D1*
Y2701290D1*
Y2693670D1*
Y2686050D1*
Y2678430D1*
Y2670810D1*
Y2663190D1*
Y2655570D1*
Y2647950D1*
Y2640330D1*
Y2632710D1*
Y2625090D1*
Y2617470D1*
Y2609850D1*
Y2602230D1*
Y2594610D1*
Y2586990D1*
X6891010Y2708910D2*
Y2701290D1*
Y2693670D1*
Y2686050D1*
Y2678430D1*
Y2670810D1*
Y2663190D1*
Y2655570D1*
Y2647950D1*
Y2640330D1*
Y2632710D1*
Y2625090D1*
Y2617470D1*
Y2609850D1*
Y2602230D1*
Y2594610D1*
Y2586990D1*
Y2579370D1*
Y2571750D1*
Y2564130D1*
Y2556510D1*
Y2548890D1*
Y2541270D1*
Y2533650D1*
Y2526030D1*
Y2518410D1*
Y2510790D1*
Y2503170D1*
Y2495550D1*
Y2487930D1*
Y2480310D1*
Y2472690D1*
Y2465070D1*
Y2457450D1*
Y2449830D1*
Y2442210D1*
Y2434590D1*
Y2426970D1*
Y2419350D1*
Y2411730D1*
Y2404110D1*
Y2396490D1*
Y2388870D1*
Y2381250D1*
Y2373630D1*
Y2366010D1*
Y2358390D1*
Y2350770D1*
Y2343150D1*
Y2335530D1*
Y2327910D1*
Y2320290D1*
Y2312670D1*
Y2305050D1*
Y2297430D1*
Y2289810D1*
Y2282190D1*
Y2274570D1*
Y2266950D1*
X7012930Y2708910D2*
Y2701290D1*
Y2693670D1*
Y2686050D1*
Y2678430D1*
Y2670810D1*
Y2663190D1*
Y2655570D1*
Y2647950D1*
Y2640330D1*
Y2632710D1*
Y2625090D1*
Y2617470D1*
Y2609850D1*
Y2602230D1*
Y2594610D1*
Y2586990D1*
Y2579370D1*
Y2571750D1*
Y2564130D1*
Y2556510D1*
Y2548890D1*
Y2541270D1*
Y2533650D1*
Y2526030D1*
Y2518410D1*
Y2510790D1*
Y2503170D1*
Y2495550D1*
Y2487930D1*
Y2480310D1*
Y2472690D1*
Y2465070D1*
Y2457450D1*
Y2449830D1*
Y2442210D1*
Y2434590D1*
Y2426970D1*
Y2419350D1*
Y2411730D1*
Y2404110D1*
Y2396490D1*
Y2388870D1*
Y2381250D1*
Y2373630D1*
Y2366010D1*
Y2358390D1*
Y2350770D1*
Y2343150D1*
Y2335530D1*
Y2327910D1*
Y2320290D1*
Y2312670D1*
Y2305050D1*
Y2297430D1*
Y2289810D1*
Y2282190D1*
Y2274570D1*
Y2266950D1*
X8475970Y2686050D2*
X8423415Y2678430D1*
X8378498Y2670810D1*
X8338810Y2663190D1*
X8369290Y2686050D2*
X8421525Y2678430D1*
X8464183Y2670810D1*
X8495322Y2663190D1*
X8517086Y2655570D1*
X8532522Y2647950D1*
X8544196Y2640330D1*
X8553016Y2632710D1*
X8559529Y2625090D1*
X8564624Y2617470D1*
X8568973Y2609850D1*
X8572975Y2602230D1*
X8576591Y2594610D1*
X8579435Y2586990D1*
X8581156Y2579370D1*
X8582020Y2571750D1*
X8582404Y2564130D1*
X8582559Y2556510D1*
X8582588Y2548890D1*
X8582341Y2541270D1*
X8581348Y2533650D1*
X8579257Y2526030D1*
X8576333Y2518410D1*
X8573150Y2510790D1*
X8570192Y2503170D1*
X8567271Y2495550D1*
X8563307Y2487930D1*
X8557647Y2480310D1*
X8550474Y2472690D1*
X8542943Y2465070D1*
X8536804Y2457450D1*
X8532047Y2449830D1*
X8541008Y2442210D1*
X8550110Y2434590D1*
X8558747Y2426970D1*
X8566670Y2419350D1*
X8573554Y2411730D1*
X8579162Y2404110D1*
X8583632Y2396490D1*
X8587113Y2388870D1*
X8589926Y2381250D1*
X8592405Y2373630D1*
X8594432Y2366010D1*
X8593328Y2358390D1*
X8591016Y2350770D1*
X8587878Y2343150D1*
X8584082Y2335530D1*
X8579358Y2327910D1*
X8573200Y2320290D1*
X8565279Y2312670D1*
X8555456Y2305050D1*
X8544550Y2297430D1*
X8553608Y2289810D1*
X8563826Y2282190D1*
X8574244Y2274570D1*
X8583060Y2266950D1*
X8589763Y2259330D1*
X8594962Y2251710D1*
X8599139Y2244090D1*
X8602489Y2236470D1*
X8605475Y2228850D1*
X8609019Y2221230D1*
X8613130Y2213610D1*
X8609322Y2205990D1*
X8606127Y2198370D1*
X8602896Y2190750D1*
X8599182Y2183130D1*
X8594530Y2175510D1*
X8588403Y2167890D1*
X8580378Y2160270D1*
X8569522Y2152650D1*
X8553425Y2145030D1*
X8527004Y2137410D1*
X8486629Y2129790D1*
X8437870Y2122170D1*
X7531090Y2678430D2*
X7522292Y2670810D1*
X7512813Y2663190D1*
X7503518Y2655570D1*
X7495802Y2647950D1*
X7490270Y2640330D1*
X7486135Y2632710D1*
X7481961Y2625090D1*
X7477594Y2617470D1*
X7474079Y2609850D1*
X7471957Y2602230D1*
X7470896Y2594610D1*
X7470429Y2586990D1*
X7470240Y2579370D1*
X7470169Y2571750D1*
X7470143Y2564130D1*
X7470134Y2556510D1*
X7470131Y2548890D1*
X7470130Y2541270D1*
Y2533650D1*
Y2526030D1*
Y2518410D1*
Y2510790D1*
Y2503170D1*
Y2495550D1*
Y2487930D1*
Y2480310D1*
Y2472690D1*
Y2465070D1*
Y2457450D1*
Y2449830D1*
Y2442210D1*
Y2434590D1*
Y2426970D1*
Y2419350D1*
Y2411730D1*
Y2404110D1*
Y2396490D1*
Y2388870D1*
Y2381250D1*
Y2373630D1*
Y2366010D1*
Y2358390D1*
Y2350770D1*
Y2343150D1*
Y2335530D1*
Y2327910D1*
Y2320290D1*
Y2312670D1*
Y2305050D1*
Y2297430D1*
Y2289810D1*
Y2282190D1*
Y2274570D1*
Y2266950D1*
Y2259330D1*
X7614910Y2678430D2*
X7629540Y2670810D1*
X7642559Y2663190D1*
X7653115Y2655570D1*
X7662039Y2647950D1*
X7670282Y2640330D1*
X7677375Y2632710D1*
X7683490Y2625090D1*
Y2678430D2*
Y2670810D1*
Y2663190D1*
Y2655570D1*
Y2647950D1*
Y2640330D1*
Y2632710D1*
Y2625090D1*
X7790170Y2678430D2*
X7796002Y2670810D1*
X7800521Y2663190D1*
X7800467Y2655570D1*
X7799556Y2647950D1*
X7798713Y2640330D1*
X7798208Y2632710D1*
X7797961Y2625090D1*
X7797856Y2617470D1*
X7797814Y2609850D1*
X7797798Y2602230D1*
X7797793Y2594610D1*
X7797791Y2586990D1*
X7797790Y2579370D1*
Y2571750D1*
Y2564130D1*
Y2556510D1*
Y2548890D1*
Y2541270D1*
Y2533650D1*
Y2526030D1*
Y2518410D1*
Y2510790D1*
Y2503170D1*
Y2495550D1*
Y2487930D1*
Y2480310D1*
Y2472690D1*
Y2465070D1*
Y2457450D1*
Y2449830D1*
Y2442210D1*
Y2434590D1*
Y2426970D1*
Y2419350D1*
Y2411730D1*
Y2404110D1*
Y2396490D1*
Y2388870D1*
Y2381250D1*
Y2373630D1*
Y2366010D1*
Y2358390D1*
Y2350770D1*
Y2343150D1*
Y2335530D1*
Y2327910D1*
Y2320290D1*
Y2312670D1*
Y2305050D1*
Y2297430D1*
Y2289810D1*
Y2282190D1*
Y2274570D1*
Y2266950D1*
Y2259330D1*
X7973050Y2678430D2*
X7963962Y2670810D1*
X7953476Y2663190D1*
X7942057Y2655570D1*
X7931148Y2647950D1*
X7921521Y2640330D1*
X7913138Y2632710D1*
X7906033Y2625090D1*
X7900082Y2617470D1*
X7894643Y2609850D1*
X7889566Y2602230D1*
X7885470Y2594610D1*
X7882246Y2586990D1*
X7879311Y2579370D1*
X7876871Y2571750D1*
X7875317Y2564130D1*
X7874269Y2556510D1*
X7872949Y2548890D1*
X7870981Y2541270D1*
X7868943Y2533650D1*
X7867326Y2526030D1*
X7865642Y2518410D1*
X7863491Y2510790D1*
X7861403Y2503170D1*
X7860022Y2495550D1*
X7859297Y2487930D1*
X7858967Y2480310D1*
X7858831Y2472690D1*
X7858779Y2465070D1*
X7858790Y2457450D1*
X7859051Y2449830D1*
X7860020Y2442210D1*
X7861844Y2434590D1*
X7863798Y2426970D1*
X7865156Y2419350D1*
X7866131Y2411730D1*
X7867425Y2404110D1*
X7869384Y2396490D1*
X7871419Y2388870D1*
X7873034Y2381250D1*
X7874719Y2373630D1*
X7876899Y2366010D1*
X7879255Y2358390D1*
X7881636Y2350770D1*
X7884455Y2343150D1*
X7887769Y2335530D1*
X7891624Y2327910D1*
X7896577Y2320290D1*
X7903196Y2312670D1*
X7911312Y2305050D1*
X7920396Y2297430D1*
X7930580Y2289810D1*
X7942750Y2282190D1*
X7959556Y2274570D1*
X7983247Y2266950D1*
X8011150Y2259330D1*
X8094970Y2678430D2*
X8104975Y2670810D1*
X8116641Y2663190D1*
X8129148Y2655570D1*
X8140995Y2647950D1*
X8151014Y2640330D1*
X8158755Y2632710D1*
X8165128Y2625090D1*
X8170844Y2617470D1*
X8175836Y2609850D1*
X8180243Y2602230D1*
X8184300Y2594610D1*
X8187948Y2586990D1*
X8190836Y2579370D1*
X8192830Y2571750D1*
X8194698Y2564130D1*
X8197175Y2556510D1*
X8200255Y2548890D1*
X8203468Y2541270D1*
X8206150Y2533650D1*
X8207809Y2526030D1*
X8208652Y2518410D1*
X8209027Y2510790D1*
X8209180Y2503170D1*
X8209238Y2495550D1*
X8209259Y2487930D1*
X8209266Y2480310D1*
X8209269Y2472690D1*
X8209270Y2465070D1*
Y2457450D1*
Y2449830D1*
Y2442210D1*
X8209240Y2434590D1*
X8208972Y2426970D1*
X8208001Y2419350D1*
X8206176Y2411730D1*
X8204193Y2404110D1*
X8202596Y2396490D1*
X8200918Y2388870D1*
X8198770Y2381250D1*
X8196653Y2373630D1*
X8194975Y2366010D1*
X8193010Y2358390D1*
X8189855Y2350770D1*
X8185642Y2343150D1*
X8181069Y2335530D1*
X8176188Y2327910D1*
X8171075Y2320290D1*
X8166035Y2312670D1*
X8160422Y2305050D1*
X8153006Y2297430D1*
X8142904Y2289810D1*
X8129129Y2282190D1*
X8109387Y2274570D1*
X8081734Y2266950D1*
X8049250Y2259330D1*
X8773150Y2678430D2*
X8758200Y2670810D1*
X8743967Y2663190D1*
X8730851Y2655570D1*
X8718834Y2647950D1*
X8708016Y2640330D1*
X8698560Y2632710D1*
X8690288Y2625090D1*
X8683265Y2617470D1*
X8677606Y2609850D1*
X8673117Y2602230D1*
X8669630Y2594610D1*
X8666756Y2586990D1*
X8663740Y2579370D1*
X8660411Y2571750D1*
X8657095Y2564130D1*
X8654373Y2556510D1*
X8652699Y2548890D1*
X8651851Y2541270D1*
X8651474Y2533650D1*
X8651290Y2526030D1*
X8650942Y2518410D1*
X8649743Y2510790D1*
X8647131Y2503170D1*
X8643610Y2495550D1*
X8651230Y2487930D1*
X8647713Y2480310D1*
X8645524Y2472690D1*
X8644417Y2465070D1*
X8643925Y2457450D1*
X8643720Y2449830D1*
X8643610Y2442210D1*
X8872210Y2678430D2*
X8881037Y2670810D1*
X8890814Y2663190D1*
X8901378Y2655570D1*
X8912158Y2647950D1*
X8922440Y2640330D1*
X8931683Y2632710D1*
X8939875Y2625090D1*
X8946869Y2617470D1*
X8952549Y2609850D1*
X8957272Y2602230D1*
X8961461Y2594610D1*
X8965189Y2586990D1*
X8968334Y2579370D1*
X8971068Y2571750D1*
X8974030Y2564130D1*
X8977339Y2556510D1*
X8980649Y2548890D1*
X8983368Y2541270D1*
X8985042Y2533650D1*
X8985889Y2526030D1*
X8986267Y2518410D1*
X8986420Y2510790D1*
X8986478Y2503170D1*
X8986499Y2495550D1*
X8986506Y2487930D1*
X8986509Y2480310D1*
X8986510Y2472690D1*
Y2465070D1*
Y2457450D1*
Y2449830D1*
Y2442210D1*
Y2434590D1*
Y2426970D1*
Y2419350D1*
X8986480Y2411730D1*
X8986212Y2404110D1*
X8985211Y2396490D1*
X8983119Y2388870D1*
X8980194Y2381250D1*
X8977010Y2373630D1*
X8974052Y2366010D1*
X8971161Y2358390D1*
X8967495Y2350770D1*
X8963073Y2343150D1*
X8958637Y2335530D1*
X8954421Y2327910D1*
X8950148Y2320290D1*
X8945231Y2312670D1*
X8938992Y2305050D1*
X8930952Y2297430D1*
X8920527Y2289810D1*
X8907142Y2282190D1*
X8889674Y2274570D1*
X8867196Y2266950D1*
X8841730Y2259330D1*
X8994130Y2678430D2*
X9000252Y2670810D1*
X9004709Y2663190D1*
X9007261Y2655570D1*
X9008498Y2647950D1*
X9009034Y2640330D1*
X9009247Y2632710D1*
X9009327Y2625090D1*
X9009355Y2617470D1*
X9009365Y2609850D1*
X9009368Y2602230D1*
X9009370Y2594610D1*
Y2586990D1*
Y2579370D1*
Y2571750D1*
X9034842Y2564130D1*
X9055344Y2556510D1*
X9070543Y2548890D1*
X9081208Y2541270D1*
X9088575Y2533650D1*
X9094003Y2526030D1*
X9098467Y2518410D1*
X9102266Y2510790D1*
X9105178Y2503170D1*
X9106923Y2495550D1*
X9107796Y2487930D1*
X9108182Y2480310D1*
X9108338Y2472690D1*
X9108398Y2465070D1*
X9108419Y2457450D1*
X9108426Y2449830D1*
X9108429Y2442210D1*
X9108430Y2434590D1*
Y2426970D1*
Y2419350D1*
Y2411730D1*
Y2404110D1*
Y2396490D1*
Y2388870D1*
Y2381250D1*
Y2373630D1*
Y2366010D1*
Y2358390D1*
Y2350770D1*
Y2343150D1*
Y2335530D1*
Y2327910D1*
Y2320290D1*
Y2312670D1*
Y2305050D1*
Y2297430D1*
Y2289810D1*
Y2282190D1*
Y2274570D1*
Y2266950D1*
Y2259330D1*
X9055090Y2678430D2*
X9063888Y2670810D1*
X9073397Y2663190D1*
X9082960Y2655570D1*
X9091647Y2647950D1*
X9098974Y2640330D1*
X9104795Y2632710D1*
X9109356Y2625090D1*
X9112873Y2617470D1*
X9115734Y2609850D1*
X9118552Y2602230D1*
X9121240Y2594610D1*
X9123670Y2586990D1*
Y2678430D2*
Y2670810D1*
Y2663190D1*
Y2655570D1*
Y2647950D1*
Y2640330D1*
Y2632710D1*
Y2625090D1*
Y2617470D1*
Y2609850D1*
Y2602230D1*
Y2594610D1*
Y2586990D1*
X9230350Y2678430D2*
X9231751Y2670810D1*
X9234425Y2663190D1*
X9237970Y2655570D1*
X9234453Y2647950D1*
X9232264Y2640330D1*
X9231157Y2632710D1*
X9230665Y2625090D1*
X9230467Y2617470D1*
X9230391Y2609850D1*
X9230364Y2602230D1*
X9230355Y2594610D1*
X9230352Y2586990D1*
X9230350Y2579370D1*
Y2571750D1*
Y2564130D1*
Y2556510D1*
Y2548890D1*
Y2541270D1*
Y2533650D1*
Y2526030D1*
Y2518410D1*
Y2510790D1*
Y2503170D1*
Y2495550D1*
Y2487930D1*
Y2480310D1*
Y2472690D1*
Y2465070D1*
Y2457450D1*
Y2449830D1*
Y2442210D1*
Y2434590D1*
Y2426970D1*
Y2419350D1*
Y2411730D1*
Y2404110D1*
Y2396490D1*
Y2388870D1*
Y2381250D1*
Y2373630D1*
Y2366010D1*
Y2358390D1*
Y2350770D1*
Y2343150D1*
Y2335530D1*
Y2327910D1*
Y2320290D1*
Y2312670D1*
Y2305050D1*
Y2297430D1*
Y2289810D1*
Y2282190D1*
Y2274570D1*
Y2266950D1*
Y2259330D1*
X8407390Y2617470D2*
X8400977Y2609850D1*
X8395544Y2602230D1*
X8391166Y2594610D1*
X8387974Y2586990D1*
X8386110Y2579370D1*
X8385190Y2571750D1*
X8384787Y2564130D1*
X8384625Y2556510D1*
X8384563Y2548890D1*
X8384571Y2541270D1*
X8384831Y2533650D1*
X8385830Y2526030D1*
X8387952Y2518410D1*
X8391172Y2510790D1*
X8395574Y2503170D1*
X8401193Y2495550D1*
X8407390Y2487930D1*
X8437870Y2617470D2*
X8440765Y2609850D1*
X8444010Y2602230D1*
X8447310Y2594610D1*
X8450279Y2586990D1*
X8452915Y2579370D1*
X8455585Y2571750D1*
X8457885Y2564130D1*
X8459099Y2556510D1*
X8458892Y2548890D1*
X8457382Y2541270D1*
X8455301Y2533650D1*
X8453025Y2526030D1*
X8450245Y2518410D1*
X8446998Y2510790D1*
X8443643Y2503170D1*
X8440576Y2495550D1*
X8437870Y2487930D1*
X8796010Y2602230D2*
X8786080Y2594610D1*
X8778429Y2586990D1*
X8772675Y2579370D1*
X8768021Y2571750D1*
X8764133Y2564130D1*
X8761184Y2556510D1*
X8759425Y2548890D1*
X8758546Y2541270D1*
X8758158Y2533650D1*
X8757997Y2526030D1*
X8757910Y2518410D1*
X8826490Y2602230D2*
X8836160Y2594610D1*
X8843072Y2586990D1*
X8847733Y2579370D1*
X8851554Y2571750D1*
X8855213Y2564130D1*
X8858656Y2556510D1*
X8861423Y2548890D1*
X8863114Y2541270D1*
X8863969Y2533650D1*
X8864362Y2526030D1*
X8864590Y2518410D1*
X8018770Y2594610D2*
X8011445Y2586990D1*
X8006091Y2579370D1*
X8002050Y2571750D1*
X7999114Y2564130D1*
X7997387Y2556510D1*
X7996529Y2548890D1*
X7996122Y2541270D1*
X7995702Y2533650D1*
X7994703Y2526030D1*
X7993146Y2518410D1*
X7991676Y2510790D1*
X7993334Y2503170D1*
X7995910Y2495550D1*
X7992393Y2487930D1*
X7990204Y2480310D1*
X7989097Y2472690D1*
X7988605Y2465070D1*
X7988407Y2457450D1*
X7988361Y2449830D1*
X7988602Y2442210D1*
X7989563Y2434590D1*
X7991385Y2426970D1*
X7993338Y2419350D1*
X7994667Y2411730D1*
X7995373Y2404110D1*
X7995696Y2396490D1*
X7995860Y2388870D1*
X7996179Y2381250D1*
X7997199Y2373630D1*
X7999387Y2366010D1*
X8003191Y2358390D1*
X8008513Y2350770D1*
X8020419Y2343150D1*
X8034010Y2335530D1*
X8049250Y2594610D2*
X8057977Y2586990D1*
X8065675Y2579370D1*
X8068971Y2571750D1*
X8071041Y2564130D1*
X8072838Y2556510D1*
X8075003Y2548890D1*
X8077086Y2541270D1*
X8078462Y2533650D1*
X8079185Y2526030D1*
X8079514Y2518410D1*
X8079649Y2510790D1*
X8079731Y2503170D1*
X8080018Y2495550D1*
X8080966Y2487930D1*
X8082525Y2480310D1*
X8083508Y2472690D1*
X8083013Y2465070D1*
X8081766Y2457450D1*
X8080760Y2449830D1*
X8080187Y2442210D1*
X8079915Y2434590D1*
X8079800Y2426970D1*
X8079726Y2419350D1*
X8079441Y2411730D1*
X8078464Y2404110D1*
X8076637Y2396490D1*
X8074683Y2388870D1*
X8073324Y2381250D1*
X8072320Y2373630D1*
X8070698Y2366010D1*
X8068063Y2358390D1*
X8061132Y2350770D1*
X8052025Y2343150D1*
X8041630Y2335530D1*
X6433810Y2586990D2*
Y2579370D1*
Y2571750D1*
Y2564130D1*
Y2556510D1*
Y2548890D1*
Y2541270D1*
Y2533650D1*
Y2526030D1*
Y2518410D1*
Y2510790D1*
Y2503170D1*
X7607290Y2586990D2*
X7602595Y2579370D1*
X7598517Y2571750D1*
X7595437Y2564130D1*
X7593611Y2556510D1*
X7592704Y2548890D1*
X7592305Y2541270D1*
X7592144Y2533650D1*
X7592083Y2526030D1*
X7592061Y2518410D1*
X7592054Y2510790D1*
X7592051Y2503170D1*
X7592050Y2495550D1*
Y2487930D1*
Y2480310D1*
Y2472690D1*
Y2465070D1*
Y2457450D1*
Y2449830D1*
Y2442210D1*
Y2434590D1*
Y2426970D1*
Y2419350D1*
Y2411730D1*
Y2404110D1*
Y2396490D1*
Y2388870D1*
Y2381250D1*
Y2373630D1*
Y2366010D1*
Y2358390D1*
Y2350770D1*
Y2343150D1*
Y2335530D1*
Y2327910D1*
Y2320290D1*
Y2312670D1*
Y2305050D1*
Y2297430D1*
Y2289810D1*
Y2282190D1*
Y2274570D1*
Y2266950D1*
Y2259330D1*
X7653010Y2586990D2*
X7659132Y2579370D1*
X7663619Y2571750D1*
X7666438Y2564130D1*
X7668647Y2556510D1*
X7671007Y2548890D1*
X7673174Y2541270D1*
X7674583Y2533650D1*
X7675318Y2526030D1*
X7675651Y2518410D1*
X7675788Y2510790D1*
X7675841Y2503170D1*
X7675860Y2495550D1*
X7675867Y2487930D1*
X7675869Y2480310D1*
X7675870Y2472690D1*
Y2465070D1*
Y2457450D1*
Y2449830D1*
Y2442210D1*
Y2434590D1*
Y2426970D1*
Y2419350D1*
Y2411730D1*
Y2404110D1*
Y2396490D1*
Y2388870D1*
Y2381250D1*
Y2373630D1*
Y2366010D1*
Y2358390D1*
Y2350770D1*
Y2343150D1*
Y2335530D1*
Y2327910D1*
Y2320290D1*
Y2312670D1*
Y2305050D1*
Y2297430D1*
Y2289810D1*
Y2282190D1*
Y2274570D1*
Y2266950D1*
Y2259330D1*
X6609070Y2503170D2*
Y2495550D1*
Y2487930D1*
Y2480310D1*
Y2472690D1*
Y2465070D1*
Y2457450D1*
Y2449830D1*
Y2442210D1*
Y2434590D1*
Y2426970D1*
Y2419350D1*
Y2411730D1*
Y2404110D1*
Y2396490D1*
Y2388870D1*
Y2381250D1*
Y2373630D1*
Y2366010D1*
Y2358390D1*
X5603230Y2487930D2*
Y2480310D1*
Y2472690D1*
Y2465070D1*
Y2457450D1*
Y2449830D1*
Y2442210D1*
Y2434590D1*
Y2426970D1*
Y2419350D1*
Y2411730D1*
Y2404110D1*
Y2396490D1*
Y2388870D1*
Y2381250D1*
Y2373630D1*
Y2366010D1*
Y2358390D1*
Y2350770D1*
Y2343150D1*
Y2335530D1*
Y2327910D1*
Y2320290D1*
Y2312670D1*
Y2305050D1*
Y2297430D1*
Y2289810D1*
Y2282190D1*
Y2274570D1*
Y2266950D1*
X5740390Y2487930D2*
Y2480310D1*
Y2472690D1*
Y2465070D1*
Y2457450D1*
Y2449830D1*
Y2442210D1*
Y2434590D1*
Y2426970D1*
Y2419350D1*
Y2411730D1*
Y2404110D1*
Y2396490D1*
Y2388870D1*
Y2381250D1*
Y2373630D1*
Y2366010D1*
Y2358390D1*
Y2350770D1*
Y2343150D1*
Y2335530D1*
Y2327910D1*
Y2320290D1*
Y2312670D1*
Y2305050D1*
Y2297430D1*
Y2289810D1*
Y2282190D1*
Y2274570D1*
Y2266950D1*
X6014710Y2465070D2*
X5938510Y2457450D1*
Y2449830D1*
Y2442210D1*
Y2434590D1*
X5938540Y2426970D1*
X5938837Y2419350D1*
X5940076Y2411730D1*
X5942873Y2404110D1*
X5946651Y2396490D1*
X5949964Y2388870D1*
X5952297Y2381250D1*
X5954566Y2373630D1*
X5957849Y2366010D1*
X5962080Y2358390D1*
X5966434Y2350770D1*
X5970618Y2343150D1*
X5974879Y2335530D1*
X5979761Y2327910D1*
X5985731Y2320290D1*
X5992740Y2312670D1*
X6000744Y2305050D1*
X6009630Y2297430D1*
X6019590Y2289810D1*
X6031774Y2282190D1*
X6046951Y2274570D1*
X6064525Y2266950D1*
X6083290Y2259330D1*
X6045190Y2465070D2*
X6046368Y2457450D1*
X6048287Y2449830D1*
X6050527Y2442210D1*
X6052833Y2434590D1*
X6055396Y2426970D1*
X6057971Y2419350D1*
X6060673Y2411730D1*
X6064257Y2404110D1*
X6068675Y2396490D1*
X6073365Y2388870D1*
X6078529Y2381250D1*
X6084504Y2373630D1*
X6090910Y2366010D1*
X8864590Y2442210D2*
Y2434590D1*
Y2426970D1*
Y2419350D1*
Y2411730D1*
X8864560Y2404110D1*
X8864292Y2396490D1*
X8863291Y2388870D1*
X8861199Y2381250D1*
X8858244Y2373630D1*
X8854733Y2366010D1*
X8850225Y2358390D1*
X8844503Y2350770D1*
X8832517Y2343150D1*
X8818870Y2335530D1*
X8475970Y2426970D2*
X8483005Y2419350D1*
X8488215Y2411730D1*
X8489497Y2404110D1*
X8490064Y2396490D1*
X8473480Y2388870D1*
X8444136Y2381250D1*
X8402010Y2373630D1*
X8354050Y2366010D1*
X8635990Y2404110D2*
X8642112Y2396490D1*
X8646599Y2388870D1*
X8649418Y2381250D1*
X8651657Y2373630D1*
X8654285Y2366010D1*
X8657423Y2358390D1*
X8660687Y2350770D1*
X8663644Y2343150D1*
X8666336Y2335530D1*
X8669570Y2327910D1*
X8674140Y2320290D1*
X8680570Y2312670D1*
X8688604Y2305050D1*
X8697654Y2297430D1*
X8707827Y2289810D1*
X8719992Y2282190D1*
X8736797Y2274570D1*
X8760487Y2266950D1*
X8788390Y2259330D1*
X8757910Y2404110D2*
X8757940Y2396490D1*
X8758237Y2388870D1*
X8759476Y2381250D1*
X8762302Y2373630D1*
X8766438Y2366010D1*
X8771569Y2358390D1*
X8779033Y2350770D1*
X8790199Y2343150D1*
X8803630Y2335530D1*
X8384530Y2373630D2*
X8344830Y2366010D1*
X8312062Y2358390D1*
X8287883Y2350770D1*
X8270786Y2343150D1*
X8258483Y2335530D1*
X8249064Y2327910D1*
X8241826Y2320290D1*
X8236704Y2312670D1*
X8233041Y2305050D1*
X8229931Y2297430D1*
X8227426Y2289810D1*
X8225879Y2282190D1*
X8225091Y2274570D1*
X8224739Y2266950D1*
X8224595Y2259330D1*
X8224570Y2251710D1*
X8224818Y2244090D1*
X8225782Y2236470D1*
X8227635Y2228850D1*
X8229855Y2221230D1*
X8232185Y2213610D1*
X8235014Y2205990D1*
X8238560Y2198370D1*
X8243116Y2190750D1*
X8248922Y2183130D1*
X8255670Y2175510D1*
X8263221Y2167890D1*
X8272247Y2160270D1*
X8284407Y2152650D1*
X8302468Y2145030D1*
X8330915Y2137410D1*
X8372754Y2129790D1*
X8422630Y2122170D1*
X6388090Y2358390D2*
Y2350770D1*
Y2343150D1*
Y2335530D1*
Y2327910D1*
Y2320290D1*
Y2312670D1*
Y2305050D1*
Y2297430D1*
Y2289810D1*
Y2282190D1*
Y2274570D1*
Y2266950D1*
X8460730Y2282190D2*
Y2274570D1*
X8475970Y2282190D2*
X8484183Y2274570D1*
X8490478Y2266950D1*
X8494957Y2259330D1*
X8498458Y2251710D1*
X8502221Y2244090D1*
X8506450Y2236470D1*
X8502583Y2228850D1*
X8498832Y2221230D1*
X8493476Y2213610D1*
X8485488Y2205990D1*
X8475970Y2198370D1*
X8354050Y2274570D2*
X8347637Y2266950D1*
X8342204Y2259330D1*
X8337826Y2251710D1*
X8334664Y2244090D1*
X8333068Y2236470D1*
X8332564Y2228850D1*
X8335341Y2221230D1*
X8339527Y2213610D1*
X8349712Y2205990D1*
X8361670Y2198370D1*
X9849569Y7931860D2*
D80*
Y7829772D1*
X9781511Y7931860D2*
X9849569Y7863801D1*
X9825311Y7888172D2*
X9781511Y7829772D1*
X9745309Y7839543D2*
X9750138Y7834601D1*
X9745309Y7829772D1*
X9740368Y7834601D1*
X9745309Y7839543D1*
X9610238Y7878401D2*
X9566438D1*
X9551950Y7883231D1*
X9547009Y7888172D1*
X9542179Y7897831D1*
Y7912431D1*
X9547009Y7922089D1*
X9551950Y7927031D1*
X9566438Y7931860D1*
X9610238D1*
Y7829772D1*
X9510807Y7931860D2*
X9505978Y7927031D1*
X9501036Y7931860D1*
X9505978Y7936801D1*
X9510807Y7931860D1*
X9505978Y7897831D2*
Y7829772D1*
X9469664Y7897831D2*
Y7829772D1*
Y7878401D2*
X9455064Y7893001D1*
X9445293Y7897831D1*
X9430805D1*
X9421034Y7893001D1*
X9416205Y7878401D1*
Y7829772D1*
X9370233Y7931860D2*
Y7849201D1*
X9365403Y7834714D1*
X9355633Y7829772D1*
X9345974D1*
X9384833Y7897831D2*
X9350803D1*
X9290343D2*
X9300001Y7893001D1*
X9309772Y7883231D1*
X9314601Y7868631D1*
Y7858972D1*
X9309772Y7844372D1*
X9300001Y7834714D1*
X9290343Y7829772D1*
X9275743D1*
X9265972Y7834714D1*
X9256314Y7844372D1*
X9251372Y7858972D1*
Y7868631D1*
X9256314Y7883231D1*
X9265972Y7893001D1*
X9275743Y7897831D1*
X9290343D1*
X9220000D2*
Y7829772D1*
Y7878401D2*
X9205400Y7893001D1*
X9195629Y7897831D1*
X9181141D1*
X9171370Y7893001D1*
X9166541Y7878401D1*
Y7829772D1*
X9076881Y7893001D2*
Y7815172D1*
X9081710Y7800685D1*
X9086539Y7795743D1*
X9096310Y7790914D1*
X9110910D1*
X9120569Y7795743D1*
X9076881Y7878401D2*
X9086539Y7888060D1*
X9096310Y7893001D1*
X9110910D1*
X9120569Y7888060D1*
X9130339Y7878401D1*
X9135169Y7863801D1*
Y7854031D1*
X9130339Y7839543D1*
X9120569Y7829772D1*
X9110910Y7824943D1*
X9096310D1*
X9086539Y7829772D1*
X9076881Y7839543D1*
X8941810Y7907489D2*
Y7912318D1*
X8936981Y7922089D1*
X8932151Y7926918D1*
X8922381Y7931748D1*
X8902951D1*
X8893293Y7926918D1*
X8888464Y7922089D1*
X8883522Y7912318D1*
Y7902660D1*
X8888464Y7892889D1*
X8898122Y7878401D1*
X8946751Y7829772D1*
X8878693D1*
X8818120Y7931748D2*
X8832720Y7926918D1*
X8842491Y7912318D1*
X8847320Y7888060D1*
Y7873460D1*
X8842491Y7849201D1*
X8832720Y7834601D1*
X8818120Y7829772D1*
X8808462D1*
X8793862Y7834601D1*
X8784203Y7849201D1*
X8779262Y7873460D1*
Y7888060D1*
X8784203Y7912318D1*
X8793862Y7926918D1*
X8808462Y7931748D1*
X8818120D1*
X8784203Y7912318D2*
X8842491Y7849201D1*
X8747889Y7912318D2*
X8738119Y7917260D1*
X8723519Y7931748D1*
Y7829772D1*
X8667887Y7931748D2*
X8682375Y7926918D1*
X8687317Y7917260D1*
Y7907489D1*
X8682375Y7897831D1*
X8672717Y7892889D1*
X8653287Y7888060D1*
X8638687Y7883231D1*
X8629029Y7873460D1*
X8624200Y7863801D1*
Y7849201D1*
X8629029Y7839543D1*
X8633858Y7834601D1*
X8648458Y7829772D1*
X8667887D1*
X8682375Y7834601D1*
X8687317Y7839543D1*
X8692146Y7849201D1*
Y7863801D1*
X8687317Y7873460D1*
X8677546Y7883231D1*
X8663058Y7888060D1*
X8643629Y7892889D1*
X8633858Y7897831D1*
X8629029Y7907489D1*
Y7917260D1*
X8633858Y7926918D1*
X8648458Y7931748D1*
X8667887D1*
X8563474Y7287063D2*
X8539103Y7184976D1*
X8514845Y7287063D1*
X8490586Y7184976D1*
X8466216Y7287063D1*
X8376555Y7253034D2*
Y7184976D1*
Y7238434D2*
X8386214Y7248205D1*
X8395985Y7253034D1*
X8410472D1*
X8420243Y7248205D1*
X8429902Y7238434D1*
X8434843Y7223834D1*
Y7214176D1*
X8429902Y7199576D1*
X8420243Y7189917D1*
X8410472Y7184976D1*
X8395985D1*
X8386214Y7189917D1*
X8376555Y7199576D1*
X8345183Y7253034D2*
Y7184976D1*
Y7223834D2*
X8340241Y7238434D1*
X8330583Y7248205D1*
X8320812Y7253034D1*
X8306212D1*
X8274839D2*
Y7184976D1*
Y7233605D2*
X8260239Y7248205D1*
X8250469Y7253034D1*
X8235981D1*
X8226210Y7248205D1*
X8221381Y7233605D1*
Y7184976D1*
X8190008Y7287063D2*
X8185179Y7282234D1*
X8180238Y7287063D1*
X8185179Y7292005D1*
X8190008Y7287063D1*
X8185179Y7253034D2*
Y7184976D1*
X8148865Y7253034D2*
Y7184976D1*
Y7233605D2*
X8134265Y7248205D1*
X8124494Y7253034D1*
X8110007D1*
X8100236Y7248205D1*
X8095407Y7233605D1*
Y7184976D1*
X8005746Y7248205D2*
Y7170376D1*
X8010576Y7155888D1*
X8015405Y7150946D1*
X8025176Y7146117D1*
X8039776D1*
X8049434Y7150946D1*
X8005746Y7233605D2*
X8015405Y7243263D1*
X8025176Y7248205D1*
X8039776D1*
X8049434Y7243263D1*
X8059205Y7233605D1*
X8064034Y7219005D1*
Y7209234D1*
X8059205Y7194746D1*
X8049434Y7184976D1*
X8039776Y7180146D1*
X8025176D1*
X8015405Y7184976D1*
X8005746Y7194746D1*
X7969432Y7286951D2*
Y7219005D1*
Y7194746D2*
X7974374Y7189805D1*
X7969432Y7184976D1*
X7964603Y7189805D1*
X7969432Y7194746D1*
X8686077Y7080270D2*
Y6978182D1*
X8754135Y7080270D1*
Y6978182D1*
X8630446Y7046241D2*
X8640104Y7041411D1*
X8649875Y7031641D1*
X8654704Y7017041D1*
Y7007382D1*
X8649875Y6992782D1*
X8640104Y6983124D1*
X8630446Y6978182D1*
X8615846D1*
X8606075Y6983124D1*
X8596417Y6992782D1*
X8591475Y7007382D1*
Y7017041D1*
X8596417Y7031641D1*
X8606075Y7041411D1*
X8615846Y7046241D1*
X8630446D1*
X8545503Y7080270D2*
Y6997611D1*
X8540673Y6983124D1*
X8530903Y6978182D1*
X8521244D1*
X8560103Y7046241D2*
X8526073D1*
X8391115D2*
Y6978182D1*
Y7017041D2*
X8386173Y7031641D1*
X8376515Y7041411D1*
X8366744Y7046241D1*
X8352144D1*
X8320771Y7017041D2*
X8262484D1*
Y7026811D1*
X8267313Y7036582D1*
X8272142Y7041411D1*
X8281913Y7046241D1*
X8296513D1*
X8306171Y7041411D1*
X8315942Y7031641D1*
X8320771Y7017041D1*
Y7007382D1*
X8315942Y6992782D1*
X8306171Y6983124D1*
X8296513Y6978182D1*
X8281913D1*
X8272142Y6983124D1*
X8262484Y6992782D1*
X8177653Y7031641D2*
X8182482Y7041411D1*
X8197082Y7046241D1*
X8211682D1*
X8226282Y7041411D1*
X8231111Y7031641D1*
X8226282Y7021982D1*
X8216511Y7017041D1*
X8192253Y7012211D1*
X8182482Y7007382D1*
X8177653Y6997611D1*
Y6992782D1*
X8182482Y6983124D1*
X8197082Y6978182D1*
X8211682D1*
X8226282Y6983124D1*
X8231111Y6992782D1*
X8146280Y7046241D2*
Y6944153D1*
Y7031641D2*
X8136509Y7041299D1*
X8126851Y7046241D1*
X8112251D1*
X8102480Y7041299D1*
X8092821Y7031641D1*
X8087880Y7017041D1*
Y7007270D1*
X8092821Y6992782D1*
X8102480Y6983011D1*
X8112251Y6978182D1*
X8126851D1*
X8136509Y6983011D1*
X8146280Y6992782D1*
X8032249Y7046241D2*
X8041907Y7041411D1*
X8051678Y7031641D1*
X8056507Y7017041D1*
Y7007382D1*
X8051678Y6992782D1*
X8041907Y6983124D1*
X8032249Y6978182D1*
X8017649D1*
X8007878Y6983124D1*
X7998220Y6992782D1*
X7993278Y7007382D1*
Y7017041D1*
X7998220Y7031641D1*
X8007878Y7041411D1*
X8017649Y7046241D1*
X8032249D1*
X7961906D2*
Y6978182D1*
Y7026811D2*
X7947306Y7041411D1*
X7937535Y7046241D1*
X7923047D1*
X7913276Y7041411D1*
X7908447Y7026811D1*
Y6978182D1*
X7823616Y7031641D2*
X7828445Y7041411D1*
X7843045Y7046241D1*
X7857645D1*
X7872245Y7041411D1*
X7877075Y7031641D1*
X7872245Y7021982D1*
X7862475Y7017041D1*
X7838216Y7012211D1*
X7828445Y7007382D1*
X7823616Y6997611D1*
Y6992782D1*
X7828445Y6983124D1*
X7843045Y6978182D1*
X7857645D1*
X7872245Y6983124D1*
X7877075Y6992782D1*
X7792244Y7080270D2*
X7787414Y7075441D1*
X7782473Y7080270D1*
X7787414Y7085211D1*
X7792244Y7080270D1*
X7787414Y7046241D2*
Y6978182D1*
X7751100Y7080270D2*
Y6978182D1*
Y7031641D2*
X7741330Y7041411D1*
X7731671Y7046241D1*
X7717071D1*
X7707413Y7041411D1*
X7697642Y7031641D1*
X7692813Y7017041D1*
Y7007382D1*
X7697642Y6992782D1*
X7707413Y6983124D1*
X7717071Y6978182D1*
X7731671D1*
X7741330Y6983124D1*
X7751100Y6992782D1*
X7661440Y7080270D2*
Y6978182D1*
X7630067Y7017041D2*
X7571780D1*
Y7026811D1*
X7576609Y7036582D1*
X7581438Y7041411D1*
X7591209Y7046241D1*
X7605809D1*
X7615467Y7041411D1*
X7625238Y7031641D1*
X7630067Y7017041D1*
Y7007382D1*
X7625238Y6992782D1*
X7615467Y6983124D1*
X7605809Y6978182D1*
X7591209D1*
X7581438Y6983124D1*
X7571780Y6992782D1*
X8722935Y6901933D2*
X8732593D1*
X8742364Y6897104D1*
X8747193Y6882504D1*
Y6799846D1*
X8761793Y6867904D2*
X8727764D1*
X8667304D2*
X8676962Y6863075D1*
X8686733Y6853304D1*
X8691562Y6838704D1*
Y6829046D1*
X8686733Y6814446D1*
X8676962Y6804787D1*
X8667304Y6799846D1*
X8652704D1*
X8642933Y6804787D1*
X8633275Y6814446D1*
X8628333Y6829046D1*
Y6838704D1*
X8633275Y6853304D1*
X8642933Y6863075D1*
X8652704Y6867904D1*
X8667304D1*
X8596961D2*
Y6799846D1*
Y6838704D2*
X8592019Y6853304D1*
X8582361Y6863075D1*
X8572590Y6867904D1*
X8557990D1*
X8369573Y6901933D2*
Y6799846D1*
Y6853304D2*
X8379231Y6863075D1*
X8389002Y6867904D1*
X8403602D1*
X8413260Y6863075D1*
X8423031Y6853304D1*
X8427860Y6838704D1*
Y6829046D1*
X8423031Y6814446D1*
X8413260Y6804787D1*
X8403602Y6799846D1*
X8389002D1*
X8379231Y6804787D1*
X8369573Y6814446D1*
X8279912Y6867904D2*
Y6799846D1*
Y6853304D2*
X8289571Y6863075D1*
X8299341Y6867904D1*
X8313829D1*
X8323600Y6863075D1*
X8333258Y6853304D1*
X8338200Y6838704D1*
Y6829046D1*
X8333258Y6814446D1*
X8323600Y6804787D1*
X8313829Y6799846D1*
X8299341D1*
X8289571Y6804787D1*
X8279912Y6814446D1*
X8248540Y6867904D2*
Y6799846D1*
Y6848475D2*
X8233940Y6863075D1*
X8224169Y6867904D1*
X8209681D1*
X8199910Y6863075D1*
X8195081Y6848475D1*
Y6799846D1*
Y6848475D2*
X8180481Y6863075D1*
X8170710Y6867904D1*
X8156223D1*
X8146452Y6863075D1*
X8141510Y6848475D1*
Y6799846D1*
X8051850Y6867904D2*
Y6799846D1*
Y6853304D2*
X8061509Y6863075D1*
X8071279Y6867904D1*
X8085767D1*
X8095538Y6863075D1*
X8105196Y6853304D1*
X8110138Y6838704D1*
Y6829046D1*
X8105196Y6814446D1*
X8095538Y6804787D1*
X8085767Y6799846D1*
X8071279D1*
X8061509Y6804787D1*
X8051850Y6814446D1*
X7962190Y6863075D2*
Y6785246D1*
X7967019Y6770758D1*
X7971848Y6765816D1*
X7981619Y6760987D1*
X7996219D1*
X8005878Y6765816D1*
X7962190Y6848475D2*
X7971848Y6858133D1*
X7981619Y6863075D1*
X7996219D1*
X8005878Y6858133D1*
X8015648Y6848475D1*
X8020478Y6833875D1*
Y6824104D1*
X8015648Y6809616D1*
X8005878Y6799846D1*
X7996219Y6795016D1*
X7981619D1*
X7971848Y6799846D1*
X7962190Y6809616D1*
X7930817Y6838704D2*
X7872530D1*
Y6848475D1*
X7877359Y6858246D1*
X7882188Y6863075D1*
X7891959Y6867904D1*
X7906559D1*
X7916217Y6863075D1*
X7925988Y6853304D1*
X7930817Y6838704D1*
Y6829046D1*
X7925988Y6814446D1*
X7916217Y6804787D1*
X7906559Y6799846D1*
X7891959D1*
X7882188Y6804787D1*
X7872530Y6814446D1*
X7727800Y6901933D2*
Y6819275D1*
X7722971Y6804787D1*
X7713200Y6799846D1*
X7703542D1*
X7742400Y6867904D2*
X7708371D1*
X7647911D2*
X7657569Y6863075D1*
X7667340Y6853304D1*
X7672169Y6838704D1*
Y6829046D1*
X7667340Y6814446D1*
X7657569Y6804787D1*
X7647911Y6799846D1*
X7633311D1*
X7623540Y6804787D1*
X7613881Y6814446D1*
X7608940Y6829046D1*
Y6838704D1*
X7613881Y6853304D1*
X7623540Y6863075D1*
X7633311Y6867904D1*
X7647911D1*
X8604832Y6705244D2*
X8575744Y6637186D1*
X8585402Y6617756D1*
X8595173Y6607986D1*
X8604832Y6603156D1*
X8609773D1*
X8546544Y6705244D2*
X8575744Y6637186D1*
X8490913Y6705244D2*
X8500571Y6700415D1*
X8510342Y6690644D1*
X8515171Y6676044D1*
Y6666386D1*
X8510342Y6651786D1*
X8500571Y6642127D1*
X8490913Y6637186D1*
X8476313D1*
X8466542Y6642127D1*
X8456884Y6651786D1*
X8451942Y6666386D1*
Y6676044D1*
X8456884Y6690644D1*
X8466542Y6700415D1*
X8476313Y6705244D1*
X8490913D1*
X8420570D2*
Y6656615D1*
X8415740Y6642127D1*
X8405970Y6637186D1*
X8391370D1*
X8381711Y6642127D1*
X8367111Y6656615D1*
Y6705244D2*
Y6637186D1*
X8335739Y6705244D2*
Y6637186D1*
Y6676044D2*
X8330797Y6690644D1*
X8321139Y6700415D1*
X8311368Y6705244D1*
X8296768D1*
X8108238Y6690644D2*
X8118009Y6700415D1*
X8127780Y6705244D1*
X8142267D1*
X8152038Y6700415D1*
X8161697Y6690644D1*
X8166638Y6676044D1*
Y6666386D1*
X8161697Y6651786D1*
X8152038Y6642127D1*
X8142267Y6637186D1*
X8127780D1*
X8118009Y6642127D1*
X8108238Y6651786D1*
X8052607Y6705244D2*
X8062266Y6700415D1*
X8072036Y6690644D1*
X8076866Y6676044D1*
Y6666386D1*
X8072036Y6651786D1*
X8062266Y6642127D1*
X8052607Y6637186D1*
X8038007D1*
X8028236Y6642127D1*
X8018578Y6651786D1*
X8013636Y6666386D1*
Y6676044D1*
X8018578Y6690644D1*
X8028236Y6700415D1*
X8038007Y6705244D1*
X8052607D1*
X7982264D2*
Y6637186D1*
Y6685815D2*
X7967664Y6700415D1*
X7957893Y6705244D1*
X7943405D1*
X7933635Y6700415D1*
X7928805Y6685815D1*
Y6637186D1*
Y6685815D2*
X7914205Y6700415D1*
X7904435Y6705244D1*
X7889947D1*
X7880176Y6700415D1*
X7875235Y6685815D1*
Y6637186D1*
X7843862Y6705244D2*
Y6603156D1*
Y6690644D2*
X7834091Y6700303D1*
X7824433Y6705244D1*
X7809833D1*
X7800062Y6700303D1*
X7790404Y6690644D1*
X7785462Y6676044D1*
Y6666273D1*
X7790404Y6651786D1*
X7800062Y6642015D1*
X7809833Y6637186D1*
X7824433D1*
X7834091Y6642015D1*
X7843862Y6651786D1*
X7754090Y6705244D2*
Y6656615D1*
X7749260Y6642127D1*
X7739490Y6637186D1*
X7724890D1*
X7715231Y6642127D1*
X7700631Y6656615D1*
Y6705244D2*
Y6637186D1*
X7654658Y6739273D2*
Y6656615D1*
X7649829Y6642127D1*
X7640058Y6637186D1*
X7630400D1*
X7669258Y6705244D2*
X7635229D1*
X7599027Y6676044D2*
X7540740D1*
Y6685815D1*
X7545569Y6695586D1*
X7550398Y6700415D1*
X7560169Y6705244D1*
X7574769D1*
X7584427Y6700415D1*
X7594198Y6690644D1*
X7599027Y6676044D1*
Y6666386D1*
X7594198Y6651786D1*
X7584427Y6642127D1*
X7574769Y6637186D1*
X7560169D1*
X7550398Y6642127D1*
X7540740Y6651786D1*
X7509367Y6705244D2*
Y6637186D1*
Y6676044D2*
X7504426Y6690644D1*
X7494767Y6700415D1*
X7484996Y6705244D1*
X7470396D1*
X8848977Y6427091D2*
X8805290D1*
X8790690Y6432032D1*
X8785748Y6436861D1*
X8780919Y6446520D1*
Y6456291D1*
X8785748Y6465949D1*
X8790690Y6470891D1*
X8805290Y6475720D1*
X8848977D1*
Y6373632D1*
X8814948Y6427091D2*
X8780919Y6373632D1*
X8749546Y6412491D2*
X8691259D1*
Y6422261D1*
X8696088Y6432032D1*
X8700917Y6436861D1*
X8710688Y6441691D1*
X8725288D1*
X8734946Y6436861D1*
X8744717Y6427091D1*
X8749546Y6412491D1*
Y6402832D1*
X8744717Y6388232D1*
X8734946Y6378574D1*
X8725288Y6373632D1*
X8710688D1*
X8700917Y6378574D1*
X8691259Y6388232D1*
X8601599Y6441691D2*
Y6373632D1*
Y6427091D2*
X8611257Y6436861D1*
X8621028Y6441691D1*
X8635515D1*
X8645286Y6436861D1*
X8654945Y6427091D1*
X8659886Y6412491D1*
Y6402832D1*
X8654945Y6388232D1*
X8645286Y6378574D1*
X8635515Y6373632D1*
X8621028D1*
X8611257Y6378574D1*
X8601599Y6388232D1*
X8511938Y6475720D2*
Y6373632D1*
Y6427091D2*
X8521597Y6436861D1*
X8531368Y6441691D1*
X8545968D1*
X8555626Y6436861D1*
X8565397Y6427091D1*
X8570226Y6412491D1*
Y6402832D1*
X8565397Y6388232D1*
X8555626Y6378574D1*
X8545968Y6373632D1*
X8531368D1*
X8521597Y6378574D1*
X8511938Y6388232D1*
X8381809Y6475720D2*
X8376979Y6470891D1*
X8372038Y6475720D1*
X8376979Y6480661D1*
X8381809Y6475720D1*
X8376979Y6441691D2*
Y6373632D1*
X8340665Y6441691D2*
Y6373632D1*
Y6422261D2*
X8326065Y6436861D1*
X8316295Y6441691D1*
X8301807D1*
X8292036Y6436861D1*
X8287207Y6422261D1*
Y6373632D1*
X8202376Y6427091D2*
X8207205Y6436861D1*
X8221805Y6441691D1*
X8236405D1*
X8251005Y6436861D1*
X8255834Y6427091D1*
X8251005Y6417432D1*
X8241234Y6412491D1*
X8216976Y6407661D1*
X8207205Y6402832D1*
X8202376Y6393061D1*
Y6388232D1*
X8207205Y6378574D1*
X8221805Y6373632D1*
X8236405D1*
X8251005Y6378574D1*
X8255834Y6388232D1*
X8156403Y6475720D2*
Y6393061D1*
X8151574Y6378574D1*
X8141803Y6373632D1*
X8132145D1*
X8171003Y6441691D2*
X8136974D1*
X8100772D2*
Y6373632D1*
Y6412491D2*
X8095831Y6427091D1*
X8086172Y6436861D1*
X8076401Y6441691D1*
X8061801D1*
X8030429D2*
Y6393061D1*
X8025600Y6378574D1*
X8015829Y6373632D1*
X8001229D1*
X7991570Y6378574D1*
X7976970Y6393061D1*
Y6441691D2*
Y6373632D1*
X7887198Y6427091D2*
X7896969Y6436861D1*
X7906739Y6441691D1*
X7921227D1*
X7930998Y6436861D1*
X7940656Y6427091D1*
X7945598Y6412491D1*
Y6402832D1*
X7940656Y6388232D1*
X7930998Y6378574D1*
X7921227Y6373632D1*
X7906739D1*
X7896969Y6378574D1*
X7887198Y6388232D1*
X7841225Y6475720D2*
Y6393061D1*
X7836396Y6378574D1*
X7826625Y6373632D1*
X7816967D1*
X7855825Y6441691D2*
X7821796D1*
X7785594Y6475720D2*
X7780765Y6470891D1*
X7775824Y6475720D1*
X7780765Y6480661D1*
X7785594Y6475720D1*
X7780765Y6441691D2*
Y6373632D1*
X7720193Y6441691D2*
X7729851Y6436861D1*
X7739622Y6427091D1*
X7744451Y6412491D1*
Y6402832D1*
X7739622Y6388232D1*
X7729851Y6378574D1*
X7720193Y6373632D1*
X7705593D1*
X7695822Y6378574D1*
X7686163Y6388232D1*
X7681222Y6402832D1*
Y6412491D1*
X7686163Y6427091D1*
X7695822Y6436861D1*
X7705593Y6441691D1*
X7720193D1*
X7649849D2*
Y6373632D1*
Y6422261D2*
X7635249Y6436861D1*
X7625478Y6441691D1*
X7610991D1*
X7601220Y6436861D1*
X7596391Y6422261D1*
Y6373632D1*
X7511560Y6427091D2*
X7516389Y6436861D1*
X7530989Y6441691D1*
X7545589D1*
X7560189Y6436861D1*
X7565018Y6427091D1*
X7560189Y6417432D1*
X7550418Y6412491D1*
X7526160Y6407661D1*
X7516389Y6402832D1*
X7511560Y6393061D1*
Y6388232D1*
X7516389Y6378574D1*
X7530989Y6373632D1*
X7545589D1*
X7560189Y6378574D1*
X7565018Y6388232D1*
X7475358Y6383403D2*
X7480187Y6378461D1*
X7475358Y6373632D1*
X7470416Y6378461D1*
X7475358Y6383403D1*
X5941722Y6479516D2*
D82*
X5876022D1*
X5854291Y6486759D1*
X5846879Y6494172D1*
X5839635Y6508659D1*
Y6530559D1*
X5846879Y6545047D1*
X5854291Y6552459D1*
X5876022Y6559703D1*
X5941722D1*
Y6406572D1*
X5792576Y6508659D2*
Y6406572D1*
Y6464859D2*
X5785164Y6486759D1*
X5770676Y6501416D1*
X5756020Y6508659D1*
X5734120D1*
X5650673D2*
X5665161Y6501416D1*
X5679817Y6486759D1*
X5687061Y6464859D1*
Y6450372D1*
X5679817Y6428472D1*
X5665161Y6413984D1*
X5650673Y6406572D1*
X5628773D1*
X5614117Y6413984D1*
X5599629Y6428472D1*
X5592217Y6450372D1*
Y6464859D1*
X5599629Y6486759D1*
X5614117Y6501416D1*
X5628773Y6508659D1*
X5650673D1*
X5457727Y6501416D2*
Y6384672D1*
X5464971Y6362940D1*
X5472214Y6355528D1*
X5486871Y6348284D1*
X5508771D1*
X5523258Y6355528D1*
X5457727Y6479516D2*
X5472214Y6494003D1*
X5486871Y6501416D1*
X5508771D1*
X5523258Y6494003D1*
X5537914Y6479516D1*
X5545158Y6457616D1*
Y6442959D1*
X5537914Y6421228D1*
X5523258Y6406572D1*
X5508771Y6399328D1*
X5486871D1*
X5472214Y6406572D1*
X5457727Y6421228D1*
X5410668Y6508659D2*
Y6406572D1*
Y6464859D2*
X5403256Y6486759D1*
X5388768Y6501416D1*
X5374112Y6508659D1*
X5352212D1*
X5217721D2*
Y6406572D1*
Y6486759D2*
X5232209Y6501416D1*
X5246865Y6508659D1*
X5268597D1*
X5283253Y6501416D1*
X5297741Y6486759D1*
X5305153Y6464859D1*
Y6450372D1*
X5297741Y6428472D1*
X5283253Y6413984D1*
X5268597Y6406572D1*
X5246865D1*
X5232209Y6413984D1*
X5217721Y6428472D1*
X5170663Y6508659D2*
Y6406572D1*
Y6479516D2*
X5148763Y6501416D1*
X5134106Y6508659D1*
X5112375D1*
X5097719Y6501416D1*
X5090475Y6479516D1*
Y6406572D1*
Y6479516D2*
X5068575Y6501416D1*
X5053919Y6508659D1*
X5032187D1*
X5017531Y6501416D1*
X5010119Y6479516D1*
Y6406572D1*
X4963060Y6508659D2*
Y6406572D1*
Y6479516D2*
X4941160Y6501416D1*
X4926504Y6508659D1*
X4904772D1*
X4890116Y6501416D1*
X4882872Y6479516D1*
Y6406572D1*
Y6479516D2*
X4860972Y6501416D1*
X4846316Y6508659D1*
X4824584D1*
X4809928Y6501416D1*
X4802516Y6479516D1*
Y6406572D1*
X4755457Y6559703D2*
X4748213Y6552459D1*
X4740801Y6559703D1*
X4748213Y6567116D1*
X4755457Y6559703D1*
X4748213Y6508659D2*
Y6406572D1*
X4693742Y6508659D2*
Y6406572D1*
Y6479516D2*
X4671842Y6501416D1*
X4657186Y6508659D1*
X4635454D1*
X4620798Y6501416D1*
X4613554Y6479516D1*
Y6406572D1*
X4479064Y6501416D2*
Y6384672D1*
X4486308Y6362940D1*
X4493552Y6355528D1*
X4508208Y6348284D1*
X4530108D1*
X4544596Y6355528D1*
X4479064Y6479516D2*
X4493552Y6494003D1*
X4508208Y6501416D1*
X4530108D1*
X4544596Y6494003D1*
X4559252Y6479516D1*
X4566496Y6457616D1*
Y6442959D1*
X4559252Y6421228D1*
X4544596Y6406572D1*
X4530108Y6399328D1*
X4508208D1*
X4493552Y6406572D1*
X4479064Y6421228D1*
X4283870Y6559703D2*
X4276626Y6552459D1*
X4269213Y6559703D1*
X4276626Y6567116D1*
X4283870Y6559703D1*
X4276626Y6508659D2*
Y6406572D1*
X4222155Y6508659D2*
Y6406572D1*
Y6479516D2*
X4200255Y6501416D1*
X4185598Y6508659D1*
X4163867D1*
X4149211Y6501416D1*
X4141967Y6479516D1*
Y6406572D1*
X4014720Y6486759D2*
X4021964Y6501416D1*
X4043864Y6508659D1*
X4065764D1*
X4087664Y6501416D1*
X4094908Y6486759D1*
X4087664Y6472272D1*
X4073008Y6464859D1*
X4036620Y6457616D1*
X4021964Y6450372D1*
X4014720Y6435716D1*
Y6428472D1*
X4021964Y6413984D1*
X4043864Y6406572D1*
X4065764D1*
X4087664Y6413984D1*
X4094908Y6428472D1*
X3945762Y6559703D2*
Y6435716D1*
X3938518Y6413984D1*
X3923862Y6406572D1*
X3909374D1*
X3967662Y6508659D2*
X3916618D1*
X3862315D2*
Y6406572D1*
Y6464859D2*
X3854903Y6486759D1*
X3840415Y6501416D1*
X3825759Y6508659D1*
X3803859D1*
X3756800D2*
Y6435716D1*
X3749556Y6413984D1*
X3734900Y6406572D1*
X3713000D1*
X3698512Y6413984D1*
X3676612Y6435716D1*
Y6508659D2*
Y6406572D1*
X3541954Y6486759D2*
X3556610Y6501416D1*
X3571266Y6508659D1*
X3592997D1*
X3607654Y6501416D1*
X3622141Y6486759D1*
X3629554Y6464859D1*
Y6450372D1*
X3622141Y6428472D1*
X3607654Y6413984D1*
X3592997Y6406572D1*
X3571266D1*
X3556610Y6413984D1*
X3541954Y6428472D1*
X3472995Y6559703D2*
Y6435716D1*
X3465751Y6413984D1*
X3451095Y6406572D1*
X3436607D1*
X3494895Y6508659D2*
X3443851D1*
X3389548Y6559703D2*
X3382304Y6552459D1*
X3374892Y6559703D1*
X3382304Y6567116D1*
X3389548Y6559703D1*
X3382304Y6508659D2*
Y6406572D1*
X3291446Y6508659D2*
X3305933Y6501416D1*
X3320589Y6486759D1*
X3327833Y6464859D1*
Y6450372D1*
X3320589Y6428472D1*
X3305933Y6413984D1*
X3291446Y6406572D1*
X3269546D1*
X3254889Y6413984D1*
X3240402Y6428472D1*
X3232989Y6450372D1*
Y6464859D1*
X3240402Y6486759D1*
X3254889Y6501416D1*
X3269546Y6508659D1*
X3291446D1*
X3185931D2*
Y6406572D1*
Y6479516D2*
X3164031Y6501416D1*
X3149374Y6508659D1*
X3127643D1*
X3112987Y6501416D1*
X3105743Y6479516D1*
Y6406572D1*
X2978496Y6486759D2*
X2985740Y6501416D1*
X3007640Y6508659D1*
X3029540D1*
X3051440Y6501416D1*
X3058684Y6486759D1*
X3051440Y6472272D1*
X3036784Y6464859D1*
X3000396Y6457616D1*
X2985740Y6450372D1*
X2978496Y6435716D1*
Y6428472D1*
X2985740Y6413984D1*
X3007640Y6406572D1*
X3029540D1*
X3051440Y6413984D1*
X3058684Y6428472D1*
X2924025Y6508659D2*
X2931438Y6501247D1*
X2924025Y6494003D1*
X2916781Y6501247D1*
X2924025Y6508659D1*
Y6421228D2*
X2931438Y6413816D1*
X2924025Y6406572D1*
X2916781Y6413816D1*
X2924025Y6421228D1*
X6439165Y6230259D2*
X6453653Y6223016D1*
X6468309Y6208359D1*
X6475553Y6186459D1*
Y6171972D1*
X6468309Y6150072D1*
X6453653Y6135584D1*
X6439165Y6128172D1*
X6417265D1*
X6402609Y6135584D1*
X6388121Y6150072D1*
X6380709Y6171972D1*
Y6186459D1*
X6388121Y6208359D1*
X6402609Y6223016D1*
X6417265Y6230259D1*
X6439165D1*
X6333650Y6281303D2*
X6326406Y6274059D1*
X6318994Y6281303D1*
X6326406Y6288716D1*
X6333650Y6281303D1*
X6326406Y6230259D2*
Y6128172D1*
X6250035Y6281303D2*
Y6157316D1*
X6242791Y6135584D1*
X6228135Y6128172D1*
X6213647D1*
X6271935Y6230259D2*
X6220891D1*
X6159345Y6142828D2*
X6166588Y6135416D1*
X6159345Y6128172D1*
X6151932Y6135416D1*
X6159345Y6142828D1*
X6104873Y6186459D2*
X6017442D1*
Y6201116D1*
X6024686Y6215772D1*
X6031930Y6223016D1*
X6046586Y6230259D1*
X6068486D1*
X6082973Y6223016D1*
X6097630Y6208359D1*
X6104873Y6186459D1*
Y6171972D1*
X6097630Y6150072D1*
X6082973Y6135584D1*
X6068486Y6128172D1*
X6046586D1*
X6031930Y6135584D1*
X6017442Y6150072D1*
X5882952Y6281303D2*
Y6128172D1*
Y6208359D2*
X5897439Y6223016D1*
X5912095Y6230259D1*
X5933995D1*
X5948483Y6223016D1*
X5963139Y6208359D1*
X5970383Y6186459D1*
Y6171972D1*
X5963139Y6150072D1*
X5948483Y6135584D1*
X5933995Y6128172D1*
X5912095D1*
X5897439Y6135584D1*
X5882952Y6150072D1*
X5835893Y6230259D2*
Y6157316D1*
X5828649Y6135584D1*
X5813993Y6128172D1*
X5792093D1*
X5777605Y6135584D1*
X5755705Y6157316D1*
Y6230259D2*
Y6128172D1*
X5708646D2*
X5606559Y6281135D1*
X5471900Y6208359D2*
X5486556Y6223016D1*
X5501212Y6230259D1*
X5522944D1*
X5537600Y6223016D1*
X5552087Y6208359D1*
X5559500Y6186459D1*
Y6171972D1*
X5552087Y6150072D1*
X5537600Y6135584D1*
X5522944Y6128172D1*
X5501212D1*
X5486556Y6135584D1*
X5471900Y6150072D1*
X5424841Y6186459D2*
X5337409D1*
Y6201116D1*
X5344653Y6215772D1*
X5351897Y6223016D1*
X5366553Y6230259D1*
X5388453D1*
X5402941Y6223016D1*
X5417597Y6208359D1*
X5424841Y6186459D1*
Y6171972D1*
X5417597Y6150072D1*
X5402941Y6135584D1*
X5388453Y6128172D1*
X5366553D1*
X5351897Y6135584D1*
X5337409Y6150072D1*
X5268451Y6281303D2*
Y6157316D1*
X5261207Y6135584D1*
X5246551Y6128172D1*
X5232063D1*
X5290351Y6230259D2*
X5239307D1*
X5185004Y6128172D2*
X5082916Y6281135D1*
X4999470Y6230259D2*
X5013957Y6223016D1*
X5028614Y6208359D1*
X5035857Y6186459D1*
Y6171972D1*
X5028614Y6150072D1*
X5013957Y6135584D1*
X4999470Y6128172D1*
X4977570D1*
X4962914Y6135584D1*
X4948426Y6150072D1*
X4941014Y6171972D1*
Y6186459D1*
X4948426Y6208359D1*
X4962914Y6223016D1*
X4977570Y6230259D1*
X4999470D1*
X4893955D2*
Y6077128D1*
Y6208359D2*
X4879299Y6222847D1*
X4864811Y6230259D1*
X4842911D1*
X4828255Y6222847D1*
X4813767Y6208359D1*
X4806355Y6186459D1*
Y6171803D1*
X4813767Y6150072D1*
X4828255Y6135416D1*
X4842911Y6128172D1*
X4864811D1*
X4879299Y6135416D1*
X4893955Y6150072D1*
X4759296Y6186459D2*
X4671864D1*
Y6201116D1*
X4679108Y6215772D1*
X4686352Y6223016D1*
X4701008Y6230259D1*
X4722908D1*
X4737396Y6223016D1*
X4752052Y6208359D1*
X4759296Y6186459D1*
Y6171972D1*
X4752052Y6150072D1*
X4737396Y6135584D1*
X4722908Y6128172D1*
X4701008D1*
X4686352Y6135584D1*
X4671864Y6150072D1*
X4624806Y6230259D2*
Y6128172D1*
Y6201116D2*
X4602906Y6223016D1*
X4588249Y6230259D1*
X4566518D1*
X4551862Y6223016D1*
X4544618Y6201116D1*
Y6128172D1*
X4497559Y6204653D2*
X4413328D1*
X4286082Y6208359D2*
X4293326Y6223016D1*
X4315226Y6230259D1*
X4337126D1*
X4359026Y6223016D1*
X4366270Y6208359D1*
X4359026Y6193872D1*
X4344370Y6186459D1*
X4307982Y6179216D1*
X4293326Y6171972D1*
X4286082Y6157316D1*
Y6150072D1*
X4293326Y6135584D1*
X4315226Y6128172D1*
X4337126D1*
X4359026Y6135584D1*
X4366270Y6150072D1*
X4202635Y6230259D2*
X4217123Y6223016D1*
X4231779Y6208359D1*
X4239023Y6186459D1*
Y6171972D1*
X4231779Y6150072D1*
X4217123Y6135584D1*
X4202635Y6128172D1*
X4180735D1*
X4166079Y6135584D1*
X4151591Y6150072D1*
X4144179Y6171972D1*
Y6186459D1*
X4151591Y6208359D1*
X4166079Y6223016D1*
X4180735Y6230259D1*
X4202635D1*
X4097120D2*
Y6157316D1*
X4089876Y6135584D1*
X4075220Y6128172D1*
X4053320D1*
X4038833Y6135584D1*
X4016933Y6157316D1*
Y6230259D2*
Y6128172D1*
X3969874Y6230259D2*
Y6128172D1*
Y6186459D2*
X3962462Y6208359D1*
X3947974Y6223016D1*
X3933318Y6230259D1*
X3911418D1*
X3776759Y6208359D2*
X3791415Y6223016D1*
X3806071Y6230259D1*
X3827803D1*
X3842459Y6223016D1*
X3856947Y6208359D1*
X3864359Y6186459D1*
Y6171972D1*
X3856947Y6150072D1*
X3842459Y6135584D1*
X3827803Y6128172D1*
X3806071D1*
X3791415Y6135584D1*
X3776759Y6150072D1*
X3729700Y6186459D2*
X3642268D1*
Y6201116D1*
X3649512Y6215772D1*
X3656756Y6223016D1*
X3671412Y6230259D1*
X3693312D1*
X3707800Y6223016D1*
X3722456Y6208359D1*
X3729700Y6186459D1*
Y6171972D1*
X3722456Y6150072D1*
X3707800Y6135584D1*
X3693312Y6128172D1*
X3671412D1*
X3656756Y6135584D1*
X3642268Y6150072D1*
X3595210Y6204653D2*
X3510979D1*
X3463920Y6230259D2*
Y6077128D1*
Y6208359D2*
X3449264Y6222847D1*
X3434776Y6230259D1*
X3412876D1*
X3398220Y6222847D1*
X3383732Y6208359D1*
X3376320Y6186459D1*
Y6171803D1*
X3383732Y6150072D1*
X3398220Y6135416D1*
X3412876Y6128172D1*
X3434776D1*
X3449264Y6135416D1*
X3463920Y6150072D1*
X3329261Y6230259D2*
Y6128172D1*
Y6186459D2*
X3321849Y6208359D1*
X3307361Y6223016D1*
X3292705Y6230259D1*
X3270805D1*
X3187359D2*
X3201846Y6223016D1*
X3216502Y6208359D1*
X3223746Y6186459D1*
Y6171972D1*
X3216502Y6150072D1*
X3201846Y6135584D1*
X3187359Y6128172D1*
X3165459D1*
X3150802Y6135584D1*
X3136315Y6150072D1*
X3128902Y6171972D1*
Y6186459D1*
X3136315Y6208359D1*
X3150802Y6223016D1*
X3165459Y6230259D1*
X3187359D1*
X3052700Y6281472D2*
X3045287Y6274228D1*
X3038044Y6281472D1*
X3045287Y6288716D1*
X3052700Y6281472D1*
X3045287Y6230428D2*
Y6106440D1*
X3052700Y6084540D1*
X3067187Y6077296D1*
X3081844D1*
X2990985Y6186459D2*
X2903553D1*
Y6201116D1*
X2910797Y6215772D1*
X2918041Y6223016D1*
X2932697Y6230259D1*
X2954597D1*
X2969085Y6223016D1*
X2983741Y6208359D1*
X2990985Y6186459D1*
Y6171972D1*
X2983741Y6150072D1*
X2969085Y6135584D1*
X2954597Y6128172D1*
X2932697D1*
X2918041Y6135584D1*
X2903553Y6150072D1*
X2768894Y6208359D2*
X2783551Y6223016D1*
X2798207Y6230259D1*
X2819938D1*
X2834594Y6223016D1*
X2849082Y6208359D1*
X2856494Y6186459D1*
Y6171972D1*
X2849082Y6150072D1*
X2834594Y6135584D1*
X2819938Y6128172D1*
X2798207D1*
X2783551Y6135584D1*
X2768894Y6150072D1*
X2699936Y6281303D2*
Y6157316D1*
X2692692Y6135584D1*
X2678036Y6128172D1*
X2663548D1*
X2721836Y6230259D2*
X2670792D1*
X2536301Y6208359D2*
X2543545Y6223016D1*
X2565445Y6230259D1*
X2587345D1*
X2609245Y6223016D1*
X2616489Y6208359D1*
X2609245Y6193872D1*
X2594589Y6186459D1*
X2558201Y6179216D1*
X2543545Y6171972D1*
X2536301Y6157316D1*
Y6150072D1*
X2543545Y6135584D1*
X2565445Y6128172D1*
X2587345D1*
X2609245Y6135584D1*
X2616489Y6150072D1*
X9897714Y1939472D2*
D83*
Y1760818D1*
X9838163D1*
X9812613Y1769466D1*
X9795514Y1786368D1*
X9787063Y1803467D1*
X9778612Y1828820D1*
Y1871469D1*
X9787063Y1897019D1*
X9795514Y1913922D1*
X9812613Y1931020D1*
X9838163Y1939472D1*
X9897714D1*
X9723710Y1828820D2*
X9621706D1*
Y1845919D1*
X9630157Y1863018D1*
X9638609Y1871469D1*
X9655707Y1879920D1*
X9681257D1*
X9698160Y1871469D1*
X9715259Y1854370D1*
X9723710Y1828820D1*
Y1811918D1*
X9715259Y1786368D1*
X9698160Y1769466D1*
X9681257Y1760818D1*
X9655707D1*
X9638609Y1769466D1*
X9621706Y1786368D1*
X9566804Y1879920D2*
Y1701267D1*
Y1854370D2*
X9549706Y1871273D1*
X9532803Y1879920D1*
X9507253D1*
X9490154Y1871273D1*
X9473252Y1854370D1*
X9464604Y1828820D1*
Y1811722D1*
X9473252Y1786368D1*
X9490154Y1769269D1*
X9507253Y1760818D1*
X9532803D1*
X9549706Y1769269D1*
X9566804Y1786368D1*
X9307699Y1879920D2*
Y1760818D1*
Y1854370D2*
X9324601Y1871469D1*
X9341700Y1879920D1*
X9367054D1*
X9384152Y1871469D1*
X9401055Y1854370D1*
X9409702Y1828820D1*
Y1811918D1*
X9401055Y1786368D1*
X9384152Y1769466D1*
X9367054Y1760818D1*
X9341700D1*
X9324601Y1769466D1*
X9307699Y1786368D1*
X9252797Y1879920D2*
Y1760818D1*
Y1828820D2*
X9244149Y1854370D1*
X9227247Y1871469D1*
X9210148Y1879920D1*
X9184598D1*
X9104146Y1939472D2*
Y1794819D1*
X9095695Y1769466D1*
X9078596Y1760818D1*
X9061694D1*
X9129696Y1879920D2*
X9070145D1*
X9006792D2*
Y1760818D1*
Y1845919D2*
X8981242Y1871469D1*
X8964143Y1879920D1*
X8938790D1*
X8921691Y1871469D1*
X8913240Y1845919D1*
Y1760818D1*
Y1845919D2*
X8887690Y1871469D1*
X8870591Y1879920D1*
X8845237D1*
X8828138Y1871469D1*
X8819491Y1845919D1*
Y1760818D1*
X8764589Y1828820D2*
X8662585D1*
Y1845919D1*
X8671036Y1863018D1*
X8679488Y1871469D1*
X8696586Y1879920D1*
X8722136D1*
X8739039Y1871469D1*
X8756138Y1854370D1*
X8764589Y1828820D1*
Y1811918D1*
X8756138Y1786368D1*
X8739039Y1769466D1*
X8722136Y1760818D1*
X8696586D1*
X8679488Y1769466D1*
X8662585Y1786368D1*
X8607683Y1879920D2*
Y1760818D1*
Y1845919D2*
X8582133Y1871469D1*
X8565035Y1879920D1*
X8539681D1*
X8522582Y1871469D1*
X8514131Y1845919D1*
Y1760818D1*
X8433679Y1939472D2*
Y1794819D1*
X8425228Y1769466D1*
X8408129Y1760818D1*
X8391227D1*
X8459229Y1879920D2*
X8399678D1*
X8121047D2*
X8137950Y1871469D1*
X8155049Y1854370D1*
X8163500Y1828820D1*
Y1811918D1*
X8155049Y1786368D1*
X8137950Y1769466D1*
X8121047Y1760818D1*
X8095497D1*
X8078399Y1769466D1*
X8061496Y1786368D1*
X8052849Y1811918D1*
Y1828820D1*
X8061496Y1854370D1*
X8078399Y1871469D1*
X8095497Y1879920D1*
X8121047D1*
X7929944Y1939472D2*
X7946847D1*
X7963946Y1931020D1*
X7972397Y1905470D1*
Y1760818D1*
X7997947Y1879920D2*
X7938396D1*
X7574664Y1897019D2*
X7583115Y1913922D1*
X7600214Y1931020D1*
X7617116Y1939472D1*
X7651117D1*
X7668216Y1931020D1*
X7685119Y1913922D1*
X7693766Y1897019D1*
X7702217Y1871469D1*
Y1828820D1*
X7693766Y1803467D1*
X7685119Y1786368D1*
X7668216Y1769466D1*
X7651117Y1760818D1*
X7617116D1*
X7600214Y1769466D1*
X7583115Y1786368D1*
X7574664Y1803467D1*
X7477310Y1879920D2*
X7494212Y1871469D1*
X7511311Y1854370D1*
X7519762Y1828820D1*
Y1811918D1*
X7511311Y1786368D1*
X7494212Y1769466D1*
X7477310Y1760818D1*
X7451760D1*
X7434661Y1769466D1*
X7417758Y1786368D1*
X7409111Y1811918D1*
Y1828820D1*
X7417758Y1854370D1*
X7434661Y1871469D1*
X7451760Y1879920D1*
X7477310D1*
X7354209D2*
Y1760818D1*
Y1845919D2*
X7328659Y1871469D1*
X7311560Y1879920D1*
X7286207D1*
X7269108Y1871469D1*
X7260657Y1845919D1*
Y1760818D1*
Y1845919D2*
X7235107Y1871469D1*
X7218008Y1879920D1*
X7192654D1*
X7175555Y1871469D1*
X7166908Y1845919D1*
Y1760818D1*
X7112006Y1879920D2*
Y1701267D1*
Y1854370D2*
X7094907Y1871273D1*
X7078005Y1879920D1*
X7052455D1*
X7035356Y1871273D1*
X7018453Y1854370D1*
X7009806Y1828820D1*
Y1811722D1*
X7018453Y1786368D1*
X7035356Y1769269D1*
X7052455Y1760818D1*
X7078005D1*
X7094907Y1769269D1*
X7112006Y1786368D1*
X6954904Y1879920D2*
Y1794819D1*
X6946453Y1769466D1*
X6929354Y1760818D1*
X6903804D1*
X6886901Y1769466D1*
X6861351Y1794819D1*
Y1879920D2*
Y1760818D1*
X6780899Y1939472D2*
Y1794819D1*
X6772448Y1769466D1*
X6755349Y1760818D1*
X6738447D1*
X6806449Y1879920D2*
X6746898D1*
X6683545Y1828820D2*
X6581542D1*
Y1845919D1*
X6589993Y1863018D1*
X6598444Y1871469D1*
X6615543Y1879920D1*
X6641093D1*
X6657995Y1871469D1*
X6675094Y1854370D1*
X6683545Y1828820D1*
Y1811918D1*
X6675094Y1786368D1*
X6657995Y1769466D1*
X6641093Y1760818D1*
X6615543D1*
X6598444Y1769466D1*
X6581542Y1786368D1*
X6526640Y1879920D2*
Y1760818D1*
Y1828820D2*
X6517992Y1854370D1*
X6501090Y1871469D1*
X6483991Y1879920D1*
X6458441D1*
X6111612Y1913922D2*
X6128514Y1931020D1*
X6154064Y1939472D1*
X6188065D1*
X6213615Y1931020D1*
X6230714Y1913922D1*
Y1897019D1*
X6222066Y1879920D1*
X6213615Y1871469D1*
X6196713Y1863018D1*
X6145613Y1845919D1*
X6128514Y1837468D1*
X6120063Y1828820D1*
X6111612Y1811918D1*
Y1786368D1*
X6128514Y1769466D1*
X6154064Y1760818D1*
X6188065D1*
X6213615Y1769466D1*
X6230714Y1786368D1*
X6048062Y1879920D2*
X5997159Y1760818D1*
X6014061Y1726817D1*
X6031160Y1709718D1*
X6048062Y1701267D1*
X6056710D1*
X5946059Y1879920D2*
X5997159Y1760818D1*
X5797604Y1854370D2*
X5806055Y1871469D1*
X5831605Y1879920D1*
X5857155D1*
X5882705Y1871469D1*
X5891157Y1854370D1*
X5882705Y1837468D1*
X5865607Y1828820D1*
X5823154Y1820369D1*
X5806055Y1811918D1*
X5797604Y1794819D1*
Y1786368D1*
X5806055Y1769466D1*
X5831605Y1760818D1*
X5857155D1*
X5882705Y1769466D1*
X5891157Y1786368D1*
X5717152Y1939472D2*
Y1794819D1*
X5708701Y1769466D1*
X5691602Y1760818D1*
X5674700D1*
X5742702Y1879920D2*
X5683151D1*
X5619798Y1828820D2*
X5517795D1*
Y1845919D1*
X5526246Y1863018D1*
X5534697Y1871469D1*
X5551796Y1879920D1*
X5577346D1*
X5594248Y1871469D1*
X5611347Y1854370D1*
X5619798Y1828820D1*
Y1811918D1*
X5611347Y1786368D1*
X5594248Y1769466D1*
X5577346Y1760818D1*
X5551796D1*
X5534697Y1769466D1*
X5517795Y1786368D1*
X5462893Y1879920D2*
Y1760818D1*
Y1845919D2*
X5437343Y1871469D1*
X5420244Y1879920D1*
X5394890D1*
X5377791Y1871469D1*
X5369340Y1845919D1*
Y1760818D1*
Y1845919D2*
X5343790Y1871469D1*
X5326691Y1879920D1*
X5301338D1*
X5284239Y1871469D1*
X5275591Y1845919D1*
Y1760818D1*
X5127137Y1854370D2*
X5135588Y1871469D1*
X5161138Y1879920D1*
X5186688D1*
X5212238Y1871469D1*
X5220690Y1854370D1*
X5212238Y1837468D1*
X5195140Y1828820D1*
X5152687Y1820369D1*
X5135588Y1811918D1*
X5127137Y1794819D1*
Y1786368D1*
X5135588Y1769466D1*
X5161138Y1760818D1*
X5186688D1*
X5212238Y1769466D1*
X5220690Y1786368D1*
X9783669Y1596112D2*
X9894124D1*
Y1417458D1*
X9783669D1*
X9894124Y1511010D2*
X9826121D1*
X9728767Y1536560D2*
Y1417458D1*
Y1502559D2*
X9703217Y1528109D1*
X9686118Y1536560D1*
X9660765D1*
X9643666Y1528109D1*
X9635215Y1502559D1*
Y1417458D1*
X9478309Y1528109D2*
Y1391908D1*
X9486761Y1366555D1*
X9495212Y1357907D1*
X9512311Y1349456D1*
X9537861D1*
X9554763Y1357907D1*
X9478309Y1502559D2*
X9495212Y1519462D1*
X9512311Y1528109D1*
X9537861D1*
X9554763Y1519462D1*
X9571862Y1502559D1*
X9580313Y1477009D1*
Y1459910D1*
X9571862Y1434557D1*
X9554763Y1417458D1*
X9537861Y1409007D1*
X9512311D1*
X9495212Y1417458D1*
X9478309Y1434557D1*
X9423407Y1596112D2*
X9414956Y1587660D1*
X9406309Y1596112D1*
X9414956Y1604759D1*
X9423407Y1596112D1*
X9414956Y1536560D2*
Y1417458D1*
X9351407Y1536560D2*
Y1417458D1*
Y1502559D2*
X9325857Y1528109D1*
X9308758Y1536560D1*
X9283404D1*
X9266305Y1528109D1*
X9257854Y1502559D1*
Y1417458D1*
X9202952Y1485460D2*
X9100949D1*
Y1502559D1*
X9109400Y1519658D1*
X9117851Y1528109D1*
X9134950Y1536560D1*
X9160500D1*
X9177402Y1528109D1*
X9194501Y1511010D1*
X9202952Y1485460D1*
Y1468558D1*
X9194501Y1443008D1*
X9177402Y1426106D1*
X9160500Y1417458D1*
X9134950D1*
X9117851Y1426106D1*
X9100949Y1443008D1*
X9046047Y1485460D2*
X8944043D1*
Y1502559D1*
X8952495Y1519658D1*
X8960946Y1528109D1*
X8978045Y1536560D1*
X9003595D1*
X9020497Y1528109D1*
X9037596Y1511010D1*
X9046047Y1485460D1*
Y1468558D1*
X9037596Y1443008D1*
X9020497Y1426106D1*
X9003595Y1417458D1*
X8978045D1*
X8960946Y1426106D1*
X8944043Y1443008D1*
X8889142Y1536560D2*
Y1417458D1*
Y1485460D2*
X8880494Y1511010D1*
X8863592Y1528109D1*
X8846493Y1536560D1*
X8820943D1*
X8766041Y1596112D2*
X8757590Y1587660D1*
X8748942Y1596112D1*
X8757590Y1604759D1*
X8766041Y1596112D1*
X8757590Y1536560D2*
Y1417458D1*
X8694040Y1536560D2*
Y1417458D1*
Y1502559D2*
X8668490Y1528109D1*
X8651391Y1536560D1*
X8626038D1*
X8608939Y1528109D1*
X8600488Y1502559D1*
Y1417458D1*
X8443582Y1528109D2*
Y1391908D1*
X8452033Y1366555D1*
X8460484Y1357907D1*
X8477583Y1349456D1*
X8503133D1*
X8520036Y1357907D1*
X8443582Y1502559D2*
X8460484Y1519462D1*
X8477583Y1528109D1*
X8503133D1*
X8520036Y1519462D1*
X8537134Y1502559D1*
X8545586Y1477009D1*
Y1459910D1*
X8537134Y1434557D1*
X8520036Y1417458D1*
X8503133Y1409007D1*
X8477583D1*
X8460484Y1417458D1*
X8443582Y1434557D1*
X8287248Y1558327D2*
D82*
Y1405195D1*
X8338292Y1558327D2*
X8236204D1*
X8189145Y1463483D2*
X8101714D1*
Y1478139D1*
X8108958Y1492795D1*
X8116201Y1500039D1*
X8130858Y1507283D1*
X8152758D1*
X8167245Y1500039D1*
X8181901Y1485383D1*
X8189145Y1463483D1*
Y1448995D1*
X8181901Y1427095D1*
X8167245Y1412607D1*
X8152758Y1405195D1*
X8130858D1*
X8116201Y1412607D1*
X8101714Y1427095D1*
X7967055Y1485383D2*
X7981711Y1500039D1*
X7996367Y1507283D1*
X8018099D1*
X8032755Y1500039D1*
X8047243Y1485383D1*
X8054655Y1463483D1*
Y1448995D1*
X8047243Y1427095D1*
X8032755Y1412607D1*
X8018099Y1405195D1*
X7996367D1*
X7981711Y1412607D1*
X7967055Y1427095D1*
X7919996Y1558327D2*
Y1405195D1*
Y1478139D2*
X7898096Y1500039D1*
X7883440Y1507283D1*
X7861540D1*
X7847052Y1500039D1*
X7839808Y1478139D1*
Y1405195D1*
X7792750Y1507283D2*
Y1405195D1*
Y1478139D2*
X7770850Y1500039D1*
X7756193Y1507283D1*
X7734462D1*
X7719806Y1500039D1*
X7712562Y1478139D1*
Y1405195D1*
X7629115Y1507283D2*
X7643603Y1500039D1*
X7658259Y1485383D1*
X7665503Y1463483D1*
Y1448995D1*
X7658259Y1427095D1*
X7643603Y1412607D1*
X7629115Y1405195D1*
X7607215D1*
X7592559Y1412607D1*
X7578072Y1427095D1*
X7570659Y1448995D1*
Y1463483D1*
X7578072Y1485383D1*
X7592559Y1500039D1*
X7607215Y1507283D1*
X7629115D1*
X7523600Y1558327D2*
Y1405195D1*
X7440154Y1507283D2*
X7454642Y1500039D1*
X7469298Y1485383D1*
X7476542Y1463483D1*
Y1448995D1*
X7469298Y1427095D1*
X7454642Y1412607D1*
X7440154Y1405195D1*
X7418254D1*
X7403598Y1412607D1*
X7389110Y1427095D1*
X7381698Y1448995D1*
Y1463483D1*
X7389110Y1485383D1*
X7403598Y1500039D1*
X7418254Y1507283D1*
X7440154D1*
X7247207Y1500039D2*
Y1383295D1*
X7254451Y1361563D1*
X7261695Y1354151D1*
X7276351Y1346907D1*
X7298251D1*
X7312739Y1354151D1*
X7247207Y1478139D2*
X7261695Y1492627D1*
X7276351Y1500039D1*
X7298251D1*
X7312739Y1492627D1*
X7327395Y1478139D1*
X7334639Y1456239D1*
Y1441583D1*
X7327395Y1419851D1*
X7312739Y1405195D1*
X7298251Y1397951D1*
X7276351D1*
X7261695Y1405195D1*
X7247207Y1419851D1*
X7192736Y1507283D2*
X7149105Y1405195D1*
X7163592Y1376051D1*
X7178249Y1361395D1*
X7192736Y1354151D1*
X7200149D1*
X7105305Y1507283D2*
X7149105Y1405195D1*
X4356661Y1743505D2*
D85*
Y1615895D1*
X4271588Y1743505D2*
Y1615895D1*
X4356661Y1682718D2*
X4271588D1*
X4159513Y1700968D2*
Y1615895D1*
Y1682718D2*
X4171586Y1694932D1*
X4183799Y1700968D1*
X4201909D1*
X4214122Y1694932D1*
X4226195Y1682718D1*
X4232372Y1664468D1*
Y1652395D1*
X4226195Y1634145D1*
X4214122Y1622072D1*
X4201909Y1615895D1*
X4183799D1*
X4171586Y1622072D1*
X4159513Y1634145D1*
X4120297Y1700968D2*
Y1615895D1*
Y1676682D2*
X4102047Y1694932D1*
X4089833Y1700968D1*
X4071724D1*
X4059510Y1694932D1*
X4053474Y1676682D1*
Y1615895D1*
X3941399Y1743505D2*
Y1615895D1*
Y1682718D2*
X3953472Y1694932D1*
X3965685Y1700968D1*
X3983935D1*
X3996008Y1694932D1*
X4008222Y1682718D1*
X4014258Y1664468D1*
Y1652395D1*
X4008222Y1634145D1*
X3996008Y1622072D1*
X3983935Y1615895D1*
X3965685D1*
X3953472Y1622072D1*
X3941399Y1634145D1*
X3835360Y1682718D2*
X3841396Y1694932D1*
X3859646Y1700968D1*
X3877896D1*
X3896146Y1694932D1*
X3902183Y1682718D1*
X3896146Y1670645D1*
X3883933Y1664468D1*
X3853610Y1658432D1*
X3841396Y1652395D1*
X3835360Y1640182D1*
Y1634145D1*
X3841396Y1622072D1*
X3859646Y1615895D1*
X3877896D1*
X3896146Y1622072D1*
X3902183Y1634145D1*
X3796144Y1679630D2*
X3725952D1*
X3656413Y1700968D2*
X3668486Y1694932D1*
X3680700Y1682718D1*
X3686736Y1664468D1*
Y1652395D1*
X3680700Y1634145D1*
X3668486Y1622072D1*
X3656413Y1615895D1*
X3638163D1*
X3625950Y1622072D1*
X3613877Y1634145D1*
X3607700Y1652395D1*
Y1664468D1*
X3613877Y1682718D1*
X3625950Y1694932D1*
X3638163Y1700968D1*
X3656413D1*
X3568484D2*
Y1615895D1*
Y1676682D2*
X3550234Y1694932D1*
X3538020Y1700968D1*
X3519911D1*
X3507697Y1694932D1*
X3501661Y1676682D1*
Y1615895D1*
X3338999Y1743505D2*
Y1615895D1*
X3299783Y1664468D2*
X3226923D1*
Y1676682D1*
X3232960Y1688895D1*
X3238996Y1694932D1*
X3251210Y1700968D1*
X3269460D1*
X3281533Y1694932D1*
X3293746Y1682718D1*
X3299783Y1664468D1*
Y1652395D1*
X3293746Y1634145D1*
X3281533Y1622072D1*
X3269460Y1615895D1*
X3251210D1*
X3238996Y1622072D1*
X3226923Y1634145D1*
X3114848Y1700968D2*
Y1615895D1*
Y1682718D2*
X3126921Y1694932D1*
X3139135Y1700968D1*
X3157244D1*
X3169458Y1694932D1*
X3181531Y1682718D1*
X3187708Y1664468D1*
Y1652395D1*
X3181531Y1634145D1*
X3169458Y1622072D1*
X3157244Y1615895D1*
X3139135D1*
X3126921Y1622072D1*
X3114848Y1634145D1*
X3075632Y1700968D2*
Y1615895D1*
Y1664468D2*
X3069455Y1682718D1*
X3057382Y1694932D1*
X3045169Y1700968D1*
X3026919D1*
X2987703D2*
Y1615895D1*
Y1676682D2*
X2969453Y1694932D1*
X2957240Y1700968D1*
X2939130D1*
X2926917Y1694932D1*
X2920880Y1676682D1*
Y1615895D1*
X2881664Y1743505D2*
X2875628Y1737468D1*
X2869451Y1743505D1*
X2875628Y1749682D1*
X2881664Y1743505D1*
X2875628Y1700968D2*
Y1615895D1*
X2830235Y1700968D2*
Y1615895D1*
Y1676682D2*
X2811985Y1694932D1*
X2799772Y1700968D1*
X2781662D1*
X2769449Y1694932D1*
X2763412Y1676682D1*
Y1615895D1*
X2651337Y1694932D2*
Y1597645D1*
X2657374Y1579536D1*
X2663410Y1573359D1*
X2675624Y1567322D1*
X2693874D1*
X2705947Y1573359D1*
X2651337Y1676682D2*
X2663410Y1688755D1*
X2675624Y1694932D1*
X2693874D1*
X2705947Y1688755D1*
X2718160Y1676682D1*
X2724197Y1658432D1*
Y1646218D1*
X2718160Y1628109D1*
X2705947Y1615895D1*
X2693874Y1609859D1*
X2675624D1*
X2663410Y1615895D1*
X2651337Y1628109D1*
X2440102Y1743505D2*
X2452175D1*
X2464388Y1737468D1*
X2470425Y1719218D1*
Y1615895D1*
X2488675Y1700968D2*
X2446138D1*
X2370563D2*
X2382636Y1694932D1*
X2394850Y1682718D1*
X2400886Y1664468D1*
Y1652395D1*
X2394850Y1634145D1*
X2382636Y1622072D1*
X2370563Y1615895D1*
X2352313D1*
X2340100Y1622072D1*
X2328026Y1634145D1*
X2321850Y1652395D1*
Y1664468D1*
X2328026Y1682718D1*
X2340100Y1694932D1*
X2352313Y1700968D1*
X2370563D1*
X2282634D2*
Y1615895D1*
Y1664468D2*
X2276457Y1682718D1*
X2264384Y1694932D1*
X2252170Y1700968D1*
X2233920D1*
X3628535Y1426012D2*
Y1340939D1*
Y1389512D2*
X3622358Y1407762D1*
X3610285Y1419975D1*
X3598071Y1426012D1*
X3579821D1*
X3540606Y1389512D2*
X3467746D1*
Y1401725D1*
X3473782Y1413939D1*
X3479819Y1419975D1*
X3492032Y1426012D1*
X3510282D1*
X3522356Y1419975D1*
X3534569Y1407762D1*
X3540606Y1389512D1*
Y1377439D1*
X3534569Y1359189D1*
X3522356Y1347116D1*
X3510282Y1340939D1*
X3492032D1*
X3479819Y1347116D1*
X3467746Y1359189D1*
X3355671Y1426012D2*
Y1340939D1*
Y1407762D2*
X3367744Y1419975D1*
X3379957Y1426012D1*
X3398067D1*
X3410280Y1419975D1*
X3422353Y1407762D1*
X3428530Y1389512D1*
Y1377439D1*
X3422353Y1359189D1*
X3410280Y1347116D1*
X3398067Y1340939D1*
X3379957D1*
X3367744Y1347116D1*
X3355671Y1359189D1*
X3316455Y1468548D2*
Y1340939D1*
X3277239Y1404673D2*
X3207047D1*
X3167831Y1426012D2*
X3143545Y1340939D1*
X3119258Y1426012D1*
X3094972Y1340939D1*
X3070685Y1426012D1*
X3001146D2*
X3013219Y1419975D1*
X3025433Y1407762D1*
X3031469Y1389512D1*
Y1377439D1*
X3025433Y1359189D1*
X3013219Y1347116D1*
X3001146Y1340939D1*
X2982896D1*
X2970683Y1347116D1*
X2958610Y1359189D1*
X2952433Y1377439D1*
Y1389512D1*
X2958610Y1407762D1*
X2970683Y1419975D1*
X2982896Y1426012D1*
X3001146D1*
X2913217D2*
Y1340939D1*
Y1389512D2*
X2907040Y1407762D1*
X2894967Y1419975D1*
X2882754Y1426012D1*
X2864504D1*
X2825288Y1468548D2*
Y1340939D1*
X2713213Y1468548D2*
Y1340939D1*
Y1407762D2*
X2725286Y1419975D1*
X2737499Y1426012D1*
X2755749D1*
X2767822Y1419975D1*
X2780036Y1407762D1*
X2786072Y1389512D1*
Y1377439D1*
X2780036Y1359189D1*
X2767822Y1347116D1*
X2755749Y1340939D1*
X2737499D1*
X2725286Y1347116D1*
X2713213Y1359189D1*
X2477691Y1426012D2*
Y1340939D1*
Y1407762D2*
X2489764Y1419975D1*
X2501977Y1426012D1*
X2520087D1*
X2532301Y1419975D1*
X2544374Y1407762D1*
X2550551Y1389512D1*
Y1377439D1*
X2544374Y1359189D1*
X2532301Y1347116D1*
X2520087Y1340939D1*
X2501977D1*
X2489764Y1347116D1*
X2477691Y1359189D1*
X2365475Y1407762D2*
X2377689Y1419975D1*
X2389902Y1426012D1*
X2408012D1*
X2420225Y1419975D1*
X2432298Y1407762D1*
X2438475Y1389512D1*
Y1377439D1*
X2432298Y1359189D1*
X2420225Y1347116D1*
X2408012Y1340939D1*
X2389902D1*
X2377689Y1347116D1*
X2365475Y1359189D1*
X2326260Y1468548D2*
Y1340939D1*
Y1401725D2*
X2308010Y1419975D1*
X2295796Y1426012D1*
X2277546D1*
X2265473Y1419975D1*
X2259437Y1401725D1*
Y1340939D1*
X2220221Y1468548D2*
X2214184Y1462512D1*
X2208007Y1468548D1*
X2214184Y1474725D1*
X2220221Y1468548D1*
X2214184Y1426012D2*
Y1340939D1*
X2168792Y1389512D2*
X2095932D1*
Y1401725D1*
X2101969Y1413939D1*
X2108005Y1419975D1*
X2120219Y1426012D1*
X2138469D1*
X2150542Y1419975D1*
X2162755Y1407762D1*
X2168792Y1389512D1*
Y1377439D1*
X2162755Y1359189D1*
X2150542Y1347116D1*
X2138469Y1340939D1*
X2120219D1*
X2108005Y1347116D1*
X2095932Y1359189D1*
X2056716Y1426012D2*
X2020216Y1340939D1*
X1983857Y1426012D1*
X1944641Y1389512D2*
X1871781D1*
Y1401725D1*
X1877818Y1413939D1*
X1883855Y1419975D1*
X1896068Y1426012D1*
X1914318D1*
X1926391Y1419975D1*
X1938605Y1407762D1*
X1944641Y1389512D1*
Y1377439D1*
X1938605Y1359189D1*
X1926391Y1347116D1*
X1914318Y1340939D1*
X1896068D1*
X1883855Y1347116D1*
X1871781Y1359189D1*
X1832566Y1426012D2*
Y1340939D1*
Y1401725D2*
X1814316Y1419975D1*
X1802102Y1426012D1*
X1783993D1*
X1771779Y1419975D1*
X1765743Y1401725D1*
Y1340939D1*
Y1401725D2*
X1747493Y1419975D1*
X1735279Y1426012D1*
X1717170D1*
X1704956Y1419975D1*
X1698779Y1401725D1*
Y1340939D1*
X1659564Y1389512D2*
X1586704D1*
Y1401725D1*
X1592740Y1413939D1*
X1598777Y1419975D1*
X1610990Y1426012D1*
X1629240D1*
X1641314Y1419975D1*
X1653527Y1407762D1*
X1659564Y1389512D1*
Y1377439D1*
X1653527Y1359189D1*
X1641314Y1347116D1*
X1629240Y1340939D1*
X1610990D1*
X1598777Y1347116D1*
X1586704Y1359189D1*
X1547488Y1426012D2*
Y1340939D1*
Y1401725D2*
X1529238Y1419975D1*
X1517025Y1426012D1*
X1498915D1*
X1486702Y1419975D1*
X1480665Y1401725D1*
Y1340939D1*
X1423199Y1468548D2*
Y1365225D1*
X1417163Y1347116D1*
X1404949Y1340939D1*
X1392876D1*
X1441449Y1426012D2*
X1398913D1*
X1347624Y1353152D2*
X1353661Y1346975D1*
X1347624Y1340939D1*
X1341447Y1346975D1*
X1347624Y1353152D1*
X5111408Y4027815D2*
D81*
X5130725Y4018156D1*
X5150266Y3998615D1*
X5159925Y3969415D1*
Y3950098D1*
X5150266Y3920898D1*
X5130725Y3901581D1*
X5111408Y3891698D1*
X5082208D1*
X5062666Y3901581D1*
X5043349Y3920898D1*
X5033466Y3950098D1*
Y3969415D1*
X5043349Y3998615D1*
X5062666Y4018156D1*
X5082208Y4027815D1*
X5111408D1*
X4970721Y4095873D2*
X4961063Y4086215D1*
X4951180Y4095873D1*
X4961063Y4105756D1*
X4970721Y4095873D1*
X4961063Y4027815D2*
Y3891698D1*
X4859234Y4095873D2*
Y3930556D1*
X4849576Y3901581D1*
X4830034Y3891698D1*
X4810718D1*
X4888434Y4027815D2*
X4820376D1*
X4738314Y3911239D2*
X4747972Y3901356D1*
X4738314Y3891698D1*
X4728431Y3901356D1*
X4738314Y3911239D1*
X4665686Y3969415D2*
X4549110D1*
Y3988956D1*
X4558769Y4008498D1*
X4568427Y4018156D1*
X4587969Y4027815D1*
X4617169D1*
X4636486Y4018156D1*
X4656027Y3998615D1*
X4665686Y3969415D1*
Y3950098D1*
X4656027Y3920898D1*
X4636486Y3901581D1*
X4617169Y3891698D1*
X4587969D1*
X4568427Y3901581D1*
X4549110Y3920898D1*
X4369790Y4095873D2*
Y3891698D1*
Y3998615D2*
X4389107Y4018156D1*
X4408648Y4027815D1*
X4437848D1*
X4457165Y4018156D1*
X4476707Y3998615D1*
X4486365Y3969415D1*
Y3950098D1*
X4476707Y3920898D1*
X4457165Y3901581D1*
X4437848Y3891698D1*
X4408648D1*
X4389107Y3901581D1*
X4369790Y3920898D1*
X4307045Y4027815D2*
Y3930556D1*
X4297386Y3901581D1*
X4277845Y3891698D1*
X4248645D1*
X4229328Y3901581D1*
X4200128Y3930556D1*
Y4027815D2*
Y3891698D1*
X4137383D2*
X4001266Y4095649D1*
X3821721Y3998615D2*
X3841262Y4018156D1*
X3860804Y4027815D1*
X3889779D1*
X3909321Y4018156D1*
X3928638Y3998615D1*
X3938521Y3969415D1*
Y3950098D1*
X3928638Y3920898D1*
X3909321Y3901581D1*
X3889779Y3891698D1*
X3860804D1*
X3841262Y3901581D1*
X3821721Y3920898D1*
X3652059Y3998615D2*
X3661717Y4018156D1*
X3690917Y4027815D1*
X3720117D1*
X3749317Y4018156D1*
X3758976Y3998615D1*
X3749317Y3979298D1*
X3729776Y3969415D1*
X3681259Y3959756D1*
X3661717Y3950098D1*
X3652059Y3930556D1*
Y3920898D1*
X3661717Y3901581D1*
X3690917Y3891698D1*
X3720117D1*
X3749317Y3901581D1*
X3758976Y3920898D1*
X3589314Y3969415D2*
X3472738D1*
Y3988956D1*
X3482397Y4008498D1*
X3492055Y4018156D1*
X3511597Y4027815D1*
X3540797D1*
X3560114Y4018156D1*
X3579655Y3998615D1*
X3589314Y3969415D1*
Y3950098D1*
X3579655Y3920898D1*
X3560114Y3901581D1*
X3540797Y3891698D1*
X3511597D1*
X3492055Y3901581D1*
X3472738Y3920898D1*
X3380793Y4095873D2*
Y3930556D1*
X3371135Y3901581D1*
X3351593Y3891698D1*
X3332276D1*
X3409993Y4027815D2*
X3341935D1*
X6516980Y4894449D2*
D83*
X6525431Y4911352D1*
X6542530Y4928450D1*
X6559432Y4936902D1*
X6593433D1*
X6610532Y4928450D1*
X6627435Y4911352D1*
X6636082Y4894449D1*
X6644533Y4868899D1*
Y4826250D1*
X6636082Y4800897D1*
X6627435Y4783798D1*
X6610532Y4766896D1*
X6593433Y4758248D1*
X6559432D1*
X6542530Y4766896D1*
X6525431Y4783798D1*
X6516980Y4800897D1*
X6419626Y4877350D2*
X6436528Y4868899D1*
X6453627Y4851800D1*
X6462078Y4826250D1*
Y4809348D1*
X6453627Y4783798D1*
X6436528Y4766896D1*
X6419626Y4758248D1*
X6394076D1*
X6376977Y4766896D1*
X6360074Y4783798D1*
X6351427Y4809348D1*
Y4826250D1*
X6360074Y4851800D1*
X6376977Y4868899D1*
X6394076Y4877350D1*
X6419626D1*
X6296525D2*
Y4758248D1*
Y4843349D2*
X6270975Y4868899D1*
X6253876Y4877350D1*
X6228523D1*
X6211424Y4868899D1*
X6202973Y4843349D1*
Y4758248D1*
Y4843349D2*
X6177423Y4868899D1*
X6160324Y4877350D1*
X6134970D1*
X6117871Y4868899D1*
X6109224Y4843349D1*
Y4758248D1*
X6054322Y4877350D2*
Y4698697D1*
Y4851800D2*
X6037223Y4868703D1*
X6020321Y4877350D1*
X5994771D1*
X5977672Y4868703D1*
X5960769Y4851800D1*
X5952122Y4826250D1*
Y4809152D1*
X5960769Y4783798D1*
X5977672Y4766699D1*
X5994771Y4758248D1*
X6020321D1*
X6037223Y4766699D1*
X6054322Y4783798D1*
X5897220Y4877350D2*
Y4792249D1*
X5888769Y4766896D1*
X5871670Y4758248D1*
X5846120D1*
X5829217Y4766896D1*
X5803667Y4792249D1*
Y4877350D2*
Y4758248D1*
X5723215Y4936902D2*
Y4792249D1*
X5714764Y4766896D1*
X5697665Y4758248D1*
X5680763D1*
X5748765Y4877350D2*
X5689214D1*
X5625861Y4826250D2*
X5523858D1*
Y4843349D1*
X5532309Y4860448D1*
X5540760Y4868899D1*
X5557859Y4877350D1*
X5583409D1*
X5600311Y4868899D1*
X5617410Y4851800D1*
X5625861Y4826250D1*
Y4809348D1*
X5617410Y4783798D1*
X5600311Y4766896D1*
X5583409Y4758248D1*
X5557859D1*
X5540760Y4766896D1*
X5523858Y4783798D1*
X5468956Y4877350D2*
Y4758248D1*
Y4826250D2*
X5460308Y4851800D1*
X5443406Y4868899D1*
X5426307Y4877350D1*
X5400757D1*
X5164579Y4775347D2*
X5173030Y4766699D1*
X5164579Y4758248D1*
X5155931Y4766699D1*
X5164579Y4775347D1*
X4809102Y4911352D2*
X4826004Y4928450D1*
X4851554Y4936902D1*
X4885555D1*
X4911105Y4928450D1*
X4928204Y4911352D1*
Y4894449D1*
X4919556Y4877350D1*
X4911105Y4868899D1*
X4894203Y4860448D1*
X4843103Y4843349D1*
X4826004Y4834898D1*
X4817553Y4826250D1*
X4809102Y4809348D1*
Y4783798D1*
X4826004Y4766896D1*
X4851554Y4758248D1*
X4885555D1*
X4911105Y4766896D1*
X4928204Y4783798D1*
X4711748Y4877350D2*
X4728650Y4868899D1*
X4745749Y4851800D1*
X4754200Y4826250D1*
Y4809348D1*
X4745749Y4783798D1*
X4728650Y4766896D1*
X4711748Y4758248D1*
X4686198D1*
X4669099Y4766896D1*
X4652196Y4783798D1*
X4643549Y4809348D1*
Y4826250D1*
X4652196Y4851800D1*
X4669099Y4868899D1*
X4686198Y4877350D1*
X4711748D1*
X4520644Y4936902D2*
X4537547D1*
X4554646Y4928450D1*
X4563097Y4902900D1*
Y4758248D1*
X4588647Y4877350D2*
X4529096D1*
X4440192Y4936902D2*
Y4792249D1*
X4431741Y4766896D1*
X4414642Y4758248D1*
X4397740D1*
X4465742Y4877350D2*
X4406191D1*
X4342838D2*
X4308837Y4758248D1*
X4274836Y4877350D1*
X4240835Y4758248D1*
X4206834Y4877350D1*
X4049928D2*
Y4758248D1*
Y4851800D2*
X4066830Y4868899D1*
X4083929Y4877350D1*
X4109283D1*
X4126382Y4868899D1*
X4143284Y4851800D1*
X4151932Y4826250D1*
Y4809348D1*
X4143284Y4783798D1*
X4126382Y4766896D1*
X4109283Y4758248D1*
X4083929D1*
X4066830Y4766896D1*
X4049928Y4783798D1*
X3995026Y4877350D2*
Y4758248D1*
Y4826250D2*
X3986379Y4851800D1*
X3969476Y4868899D1*
X3952377Y4877350D1*
X3926827D1*
X3871925Y4826250D2*
X3769922D1*
Y4843349D1*
X3778373Y4860448D1*
X3786824Y4868899D1*
X3803923Y4877350D1*
X3829473D1*
X3846375Y4868899D1*
X3863474Y4851800D1*
X3871925Y4826250D1*
Y4809348D1*
X3863474Y4783798D1*
X3846375Y4766896D1*
X3829473Y4758248D1*
X3803923D1*
X3786824Y4766896D1*
X3769922Y4783798D1*
X3533744Y4775347D2*
X3542195Y4766699D1*
X3533744Y4758248D1*
X3525096Y4766699D1*
X3533744Y4775347D1*
X3186914Y4936902D2*
X3297369D1*
Y4758248D1*
X3186914D1*
X3297369Y4851800D2*
X3229367D1*
X3132013Y4877350D2*
Y4758248D1*
Y4843349D2*
X3106463Y4868899D1*
X3089364Y4877350D1*
X3064010D1*
X3046911Y4868899D1*
X3038460Y4843349D1*
Y4758248D1*
Y4843349D2*
X3012910Y4868899D1*
X2995811Y4877350D1*
X2970458D1*
X2953359Y4868899D1*
X2944711Y4843349D1*
Y4758248D1*
X2889809Y4936902D2*
Y4758248D1*
Y4851800D2*
X2872711Y4868899D1*
X2855808Y4877350D1*
X2830258D1*
X2813356Y4868899D1*
X2796257Y4851800D1*
X2787806Y4826250D1*
Y4809348D1*
X2796257Y4783798D1*
X2813356Y4766896D1*
X2830258Y4758248D1*
X2855808D1*
X2872711Y4766896D1*
X2889809Y4783798D1*
X2732904Y4826250D2*
X2630901D1*
Y4843349D1*
X2639352Y4860448D1*
X2647803Y4868899D1*
X2664902Y4877350D1*
X2690452D1*
X2707354Y4868899D1*
X2724453Y4851800D1*
X2732904Y4826250D1*
Y4809348D1*
X2724453Y4783798D1*
X2707354Y4766896D1*
X2690452Y4758248D1*
X2664902D1*
X2647803Y4766896D1*
X2630901Y4783798D1*
X2473995Y4936902D2*
Y4758248D1*
Y4851800D2*
X2490897Y4868899D1*
X2507996Y4877350D1*
X2533546D1*
X2550449Y4868899D1*
X2567547Y4851800D1*
X2575999Y4826250D1*
Y4809348D1*
X2567547Y4783798D1*
X2550449Y4766896D1*
X2533546Y4758248D1*
X2507996D1*
X2490897Y4766896D1*
X2473995Y4783798D1*
X2317090Y4936902D2*
Y4758248D1*
Y4851800D2*
X2333992Y4868899D1*
X2351091Y4877350D1*
X2376641D1*
X2393543Y4868899D1*
X2410642Y4851800D1*
X2419093Y4826250D1*
Y4809348D1*
X2410642Y4783798D1*
X2393543Y4766896D1*
X2376641Y4758248D1*
X2351091D1*
X2333992Y4766896D1*
X2317090Y4783798D1*
X2262188Y4826250D2*
X2160184D1*
Y4843349D1*
X2168635Y4860448D1*
X2177087Y4868899D1*
X2194185Y4877350D1*
X2219735D1*
X2236638Y4868899D1*
X2253737Y4851800D1*
X2262188Y4826250D1*
Y4809348D1*
X2253737Y4783798D1*
X2236638Y4766896D1*
X2219735Y4758248D1*
X2194185D1*
X2177087Y4766896D1*
X2160184Y4783798D1*
X2003279Y4936902D2*
Y4758248D1*
Y4851800D2*
X2020181Y4868899D1*
X2037280Y4877350D1*
X2062830D1*
X2079732Y4868899D1*
X2096831Y4851800D1*
X2105282Y4826250D1*
Y4809348D1*
X2096831Y4783798D1*
X2079732Y4766896D1*
X2062830Y4758248D1*
X2037280D1*
X2020181Y4766896D1*
X2003279Y4783798D1*
X5642234Y4545288D2*
X5752689D1*
Y4366635D1*
X5642234D1*
X5752689Y4460187D2*
X5684686D1*
X5587332Y4485737D2*
Y4366635D1*
Y4451736D2*
X5561782Y4477286D1*
X5544683Y4485737D1*
X5519330D1*
X5502231Y4477286D1*
X5493780Y4451736D1*
Y4366635D1*
X5336874Y4477286D2*
Y4341085D1*
X5345326Y4315731D1*
X5353777Y4307084D1*
X5370876Y4298632D1*
X5396426D1*
X5413328Y4307084D1*
X5336874Y4451736D2*
X5353777Y4468638D1*
X5370876Y4477286D1*
X5396426D1*
X5413328Y4468638D1*
X5430427Y4451736D1*
X5438878Y4426186D1*
Y4409087D1*
X5430427Y4383734D1*
X5413328Y4366635D1*
X5396426Y4358184D1*
X5370876D1*
X5353777Y4366635D1*
X5336874Y4383734D1*
X5281972Y4545288D2*
X5273521Y4536837D1*
X5264874Y4545288D1*
X5273521Y4553936D1*
X5281972Y4545288D1*
X5273521Y4485737D2*
Y4366635D1*
X5209972Y4485737D2*
Y4366635D1*
Y4451736D2*
X5184422Y4477286D1*
X5167323Y4485737D1*
X5141969D1*
X5124870Y4477286D1*
X5116419Y4451736D1*
Y4366635D1*
X5061517Y4434637D2*
X4959514D1*
Y4451736D1*
X4967965Y4468835D1*
X4976416Y4477286D1*
X4993515Y4485737D1*
X5019065D1*
X5035967Y4477286D1*
X5053066Y4460187D1*
X5061517Y4434637D1*
Y4417735D1*
X5053066Y4392185D1*
X5035967Y4375282D1*
X5019065Y4366635D1*
X4993515D1*
X4976416Y4375282D1*
X4959514Y4392185D1*
X4904612Y4434637D2*
X4802608D1*
Y4451736D1*
X4811060Y4468835D1*
X4819511Y4477286D1*
X4836610Y4485737D1*
X4862160D1*
X4879062Y4477286D1*
X4896161Y4460187D1*
X4904612Y4434637D1*
Y4417735D1*
X4896161Y4392185D1*
X4879062Y4375282D1*
X4862160Y4366635D1*
X4836610D1*
X4819511Y4375282D1*
X4802608Y4392185D1*
X4747707Y4485737D2*
Y4366635D1*
Y4434637D2*
X4739059Y4460187D1*
X4722157Y4477286D1*
X4705058Y4485737D1*
X4679508D1*
X4624606Y4545288D2*
X4616155Y4536837D1*
X4607507Y4545288D1*
X4616155Y4553936D1*
X4624606Y4545288D1*
X4616155Y4485737D2*
Y4366635D1*
X4552605Y4485737D2*
Y4366635D1*
Y4451736D2*
X4527055Y4477286D1*
X4509956Y4485737D1*
X4484603D1*
X4467504Y4477286D1*
X4459053Y4451736D1*
Y4366635D1*
X4302147Y4477286D2*
Y4341085D1*
X4310598Y4315731D1*
X4319050Y4307084D1*
X4336148Y4298632D1*
X4361698D1*
X4378601Y4307084D1*
X4302147Y4451736D2*
X4319050Y4468638D1*
X4336148Y4477286D1*
X4361698D1*
X4378601Y4468638D1*
X4395700Y4451736D1*
X4404151Y4426186D1*
Y4409087D1*
X4395700Y4383734D1*
X4378601Y4366635D1*
X4361698Y4358184D1*
X4336148D1*
X4319050Y4366635D1*
X4302147Y4383734D1*
X4074141Y4515857D2*
D82*
Y4362725D1*
X4125185Y4515857D2*
X4023097D1*
X3976039Y4421013D2*
X3888607D1*
Y4435669D1*
X3895851Y4450325D1*
X3903095Y4457569D1*
X3917751Y4464813D1*
X3939651D1*
X3954139Y4457569D1*
X3968795Y4442913D1*
X3976039Y4421013D1*
Y4406525D1*
X3968795Y4384625D1*
X3954139Y4370137D1*
X3939651Y4362725D1*
X3917751D1*
X3903095Y4370137D1*
X3888607Y4384625D1*
X3753948Y4442913D2*
X3768604Y4457569D1*
X3783261Y4464813D1*
X3804992D1*
X3819648Y4457569D1*
X3834136Y4442913D1*
X3841548Y4421013D1*
Y4406525D1*
X3834136Y4384625D1*
X3819648Y4370137D1*
X3804992Y4362725D1*
X3783261D1*
X3768604Y4370137D1*
X3753948Y4384625D1*
X3706889Y4515857D2*
Y4362725D1*
Y4435669D2*
X3684989Y4457569D1*
X3670333Y4464813D1*
X3648433D1*
X3633946Y4457569D1*
X3626702Y4435669D1*
Y4362725D1*
X3579643Y4464813D2*
Y4362725D1*
Y4435669D2*
X3557743Y4457569D1*
X3543087Y4464813D1*
X3521355D1*
X3506699Y4457569D1*
X3499455Y4435669D1*
Y4362725D1*
X3416009Y4464813D2*
X3430496Y4457569D1*
X3445153Y4442913D1*
X3452396Y4421013D1*
Y4406525D1*
X3445153Y4384625D1*
X3430496Y4370137D1*
X3416009Y4362725D1*
X3394109D1*
X3379453Y4370137D1*
X3364965Y4384625D1*
X3357553Y4406525D1*
Y4421013D1*
X3364965Y4442913D1*
X3379453Y4457569D1*
X3394109Y4464813D1*
X3416009D1*
X3310494Y4515857D2*
Y4362725D1*
X3227047Y4464813D2*
X3241535Y4457569D1*
X3256191Y4442913D1*
X3263435Y4421013D1*
Y4406525D1*
X3256191Y4384625D1*
X3241535Y4370137D1*
X3227047Y4362725D1*
X3205147D1*
X3190491Y4370137D1*
X3176003Y4384625D1*
X3168591Y4406525D1*
Y4421013D1*
X3176003Y4442913D1*
X3190491Y4457569D1*
X3205147Y4464813D1*
X3227047D1*
X3034101Y4457569D2*
Y4340825D1*
X3041345Y4319093D1*
X3048588Y4311681D1*
X3063245Y4304437D1*
X3085145D1*
X3099632Y4311681D1*
X3034101Y4435669D2*
X3048588Y4450157D1*
X3063245Y4457569D1*
X3085145D1*
X3099632Y4450157D1*
X3114288Y4435669D1*
X3121532Y4413769D1*
Y4399113D1*
X3114288Y4377381D1*
X3099632Y4362725D1*
X3085145Y4355481D1*
X3063245D1*
X3048588Y4362725D1*
X3034101Y4377381D1*
X2979630Y4464813D2*
X2935998Y4362725D1*
X2950486Y4333581D1*
X2965142Y4318925D1*
X2979630Y4311681D1*
X2987042D1*
X2892198Y4464813D2*
X2935998Y4362725D1*
X5318620Y5274740D2*
D81*
X5231020D1*
X5202044Y5284398D1*
X5192161Y5294281D1*
X5182503Y5313598D1*
Y5342798D1*
X5192161Y5362115D1*
X5202044Y5371998D1*
X5231020Y5381657D1*
X5318620D1*
Y5177481D1*
X5119758Y5313598D2*
Y5177481D1*
Y5255198D2*
X5109874Y5284398D1*
X5090558Y5303940D1*
X5071016Y5313598D1*
X5041816D1*
X4930554D2*
X4949871Y5303940D1*
X4969412Y5284398D1*
X4979071Y5255198D1*
Y5235881D1*
X4969412Y5206681D1*
X4949871Y5187364D1*
X4930554Y5177481D1*
X4901354D1*
X4881812Y5187364D1*
X4862495Y5206681D1*
X4852612Y5235881D1*
Y5255198D1*
X4862495Y5284398D1*
X4881812Y5303940D1*
X4901354Y5313598D1*
X4930554D1*
X4673292Y5303940D2*
Y5148281D1*
X4682950Y5119306D1*
X4692609Y5109423D1*
X4712150Y5099764D1*
X4741350D1*
X4760667Y5109423D1*
X4673292Y5274740D2*
X4692609Y5294057D1*
X4712150Y5303940D1*
X4741350D1*
X4760667Y5294057D1*
X4780209Y5274740D1*
X4789867Y5245540D1*
Y5225998D1*
X4780209Y5197023D1*
X4760667Y5177481D1*
X4741350Y5167823D1*
X4712150D1*
X4692609Y5177481D1*
X4673292Y5197023D1*
X4610547Y5313598D2*
Y5177481D1*
Y5255198D2*
X4600664Y5284398D1*
X4581347Y5303940D1*
X4561805Y5313598D1*
X4532605D1*
X4353285D2*
Y5177481D1*
Y5284398D2*
X4372602Y5303940D1*
X4392143Y5313598D1*
X4421119D1*
X4440660Y5303940D1*
X4459977Y5284398D1*
X4469860Y5255198D1*
Y5235881D1*
X4459977Y5206681D1*
X4440660Y5187364D1*
X4421119Y5177481D1*
X4392143D1*
X4372602Y5187364D1*
X4353285Y5206681D1*
X4290540Y5313598D2*
Y5177481D1*
Y5274740D2*
X4261340Y5303940D1*
X4241798Y5313598D1*
X4212823D1*
X4193281Y5303940D1*
X4183623Y5274740D1*
Y5177481D1*
Y5274740D2*
X4154423Y5303940D1*
X4134881Y5313598D1*
X4105906D1*
X4086364Y5303940D1*
X4076481Y5274740D1*
Y5177481D1*
X3906819Y5284398D2*
X3916478Y5303940D1*
X3945678Y5313598D1*
X3974878D1*
X4004078Y5303940D1*
X4013736Y5284398D1*
X4004078Y5265081D1*
X3984536Y5255198D1*
X3936019Y5245540D1*
X3916478Y5235881D1*
X3906819Y5216340D1*
Y5206681D1*
X3916478Y5187364D1*
X3945678Y5177481D1*
X3974878D1*
X4004078Y5187364D1*
X4013736Y5206681D1*
X3646560Y5381657D2*
X3636901Y5371998D1*
X3627018Y5381657D1*
X3636901Y5391540D1*
X3646560Y5381657D1*
X3636901Y5313598D2*
Y5177481D1*
X3564273Y5313598D2*
Y5177481D1*
Y5274740D2*
X3535073Y5303940D1*
X3515532Y5313598D1*
X3486556D1*
X3467015Y5303940D1*
X3457356Y5274740D1*
Y5177481D1*
X3384728Y5313598D2*
X3394611Y5303715D1*
X3384728Y5294057D1*
X3375070Y5303715D1*
X3384728Y5313598D1*
Y5197023D2*
X3394611Y5187140D1*
X3384728Y5177481D1*
X3375070Y5187140D1*
X3384728Y5197023D1*
M02*
