G04 DipTrace 3.0.0.2*
G04 BottomMask.gbr*
%MOMM*%
G04 #@! TF.FileFunction,Soldermask,Bot*
G04 #@! TF.Part,Single*
%ADD54C,1.7032*%
%ADD58C,1.7272*%
%ADD60C,1.7272*%
%ADD62C,3.5032*%
%ADD64C,1.8032*%
%ADD66C,1.9032*%
%ADD68R,1.9032X1.9032*%
%ADD70C,1.7032*%
%ADD72R,1.7032X1.7032*%
%ADD74R,1.2532X1.9032*%
%ADD76O,1.2532X1.9032*%
%ADD78R,1.4732X1.4732*%
%ADD80C,1.4732*%
%ADD82R,1.8032X1.8032*%
%ADD84C,1.8032*%
%FSLAX35Y35*%
G04*
G71*
G90*
G75*
G01*
G04 BotMask*
%LPD*%
D84*
X5717750Y6969033D3*
D82*
Y7223033D3*
D84*
X7500527Y7489947D3*
D82*
X7246527D3*
D80*
X8267857Y7676783D3*
D78*
X8013857D3*
D80*
X3606883Y6855393D3*
D78*
X3352883D3*
D76*
X4937500Y1683273D3*
X4683500D3*
D74*
X4556500D3*
D76*
X4810500D3*
D72*
X6562600Y5324030D3*
D70*
Y5070030D3*
D72*
X9505810Y5308373D3*
D70*
Y5054373D3*
D68*
X9549330Y4583887D3*
D66*
Y4329887D3*
Y4075887D3*
Y3821887D3*
Y3567887D3*
Y3313887D3*
D68*
X6560007Y4590307D3*
D66*
Y4336307D3*
Y4082307D3*
Y3828307D3*
Y3574307D3*
Y3320307D3*
D82*
X9097663Y6894780D3*
D64*
Y6644780D3*
X9297663D3*
Y6894780D3*
D62*
X9568663Y6167780D3*
Y7371780D3*
D60*
X5763250Y5388820D3*
D58*
Y6404820D3*
D60*
X5365023Y5377870D3*
D58*
Y6393870D3*
D60*
X1953120Y5678833D3*
D58*
Y4662833D3*
D60*
X1972533Y4371337D3*
D58*
Y3355337D3*
D60*
X7563300Y5360180D3*
D58*
Y6376180D3*
D60*
X8002270Y6380007D3*
D58*
Y5364007D3*
D60*
X8442907Y6378413D3*
D58*
Y5362413D3*
D60*
X5144047Y1419140D3*
D58*
X6160047D3*
D60*
X4699593Y1149293D3*
D58*
X5715593D3*
D60*
X3350361Y1196914D3*
D58*
X4365813Y1163553D3*
D72*
X1921463Y2972880D3*
D54*
Y2522880D3*
X2683463D3*
D72*
Y2972880D3*
X1332147Y2151623D3*
D54*
Y1701623D3*
X2094147D3*
D72*
Y2151623D3*
X7758903Y4833720D3*
D70*
Y4579720D3*
Y4325720D3*
Y4071720D3*
Y3817720D3*
Y3563720D3*
Y3309720D3*
X8520903D3*
Y3563720D3*
Y3817720D3*
Y4071720D3*
Y4325720D3*
Y4579720D3*
Y4833720D3*
M02*
