G04 DipTrace 3.0.0.2*
G04 Bottom.gbr*
%MOMM*%
G04 #@! TF.FileFunction,Copper,L2,Bot*
G04 #@! TF.Part,Single*
G04 #@! TA.AperFunction,Conductor*
%ADD13C,0.254*%
G04 #@! TA.AperFunction,ComponentPad*
%ADD14C,1.6*%
%ADD15R,1.6X1.6*%
%ADD16C,1.27*%
%ADD17R,1.27X1.27*%
%ADD18O,1.05X1.7*%
%ADD19R,1.05X1.7*%
%ADD20R,1.5X1.5*%
%ADD21C,1.5*%
%ADD22R,1.7X1.7*%
%ADD23C,1.7*%
%ADD24C,1.6*%
%ADD25C,3.3*%
%ADD26C,1.27*%
%ADD28C,1.5*%
G04 #@! TA.AperFunction,ViaPad*
%ADD32C,1.016*%
%FSLAX35Y35*%
G04*
G71*
G90*
G75*
G01*
G04 Bottom*
%LPD*%
X6560007Y4590307D2*
D13*
X7748317D1*
X7758903Y4579720D1*
Y4325720D2*
X6570593D1*
X6560007Y4336307D1*
Y4082307D2*
X7748317D1*
X7758903Y4071720D1*
Y3817720D2*
X6570593D1*
X6560007Y3828307D1*
Y3574307D2*
X7748317D1*
X7758903Y3563720D1*
Y3309720D2*
X6570593D1*
X6560007Y3320307D1*
X9549330Y3313887D2*
X8525070D1*
X8520903Y3309720D1*
X9549330Y4329887D2*
X8525070D1*
X8520903Y4325720D1*
X1921463Y2874880D2*
X2683463D1*
X8127380D1*
X8315607Y3063107D1*
X9549330Y4075887D2*
X8525070D1*
X8520903Y4071720D1*
X1332147Y2053623D2*
X2094147D1*
X1723390Y3113590D2*
Y4809930D1*
X1972967Y5059507D1*
Y5372540D1*
X2005070Y5404643D1*
X1723390Y3113590D2*
X8133567D1*
X8252763Y3232787D1*
Y3803580D1*
X8520903Y4071720D1*
Y3563720D2*
X9545163D1*
X9549330Y3567887D1*
X8520903Y4579720D2*
X9545163D1*
X9549330Y4583887D1*
X8520903Y4579720D2*
X8368910D1*
X8242987Y4453797D1*
X6319010D1*
X6128817Y4643990D1*
X5942920D1*
X2094147Y1799623D2*
X1332147D1*
X1921463Y2620880D2*
X2683463D1*
X4103873D1*
X4687170Y2037583D1*
Y1686944D1*
X4683500Y1683273D1*
X6562600Y5324030D2*
X5955040D1*
X5763250Y5515820D1*
X7572823Y5553847D2*
X6792417D1*
X6562600Y5324030D1*
X7246527Y7489947D2*
X6450160D1*
X6264613Y7304400D1*
X5799117D1*
X5717750Y7223033D1*
X8520903Y4833720D2*
X9285157D1*
X9505810Y5054373D1*
X9568663Y7371780D2*
Y6167780D1*
X9297663Y6894780D2*
Y7100780D1*
X9568663Y7371780D1*
X8318860D1*
X8013857Y7676783D1*
X7687363D1*
X7500527Y7489947D1*
X5717750Y6969033D2*
X6979613D1*
X7500527Y7489947D1*
X3352883Y6855393D2*
Y6894770D1*
X3481900Y7023787D1*
X5308610D1*
X5482917Y6849480D1*
X5598197D1*
X5717750Y6969033D1*
X5763250Y6277820D2*
X7117747D1*
X7250340Y6410413D1*
X7355107D1*
X7455110Y6510417D1*
X7997990D1*
X3606883Y6855393D2*
X5222027D1*
X5324330Y6753090D1*
X7997507Y6314913D2*
X8233137D1*
X8340363Y6422140D1*
X8875023D1*
X9097663Y6644780D1*
X8428620Y6313320D2*
X8966203D1*
X9297663Y6644780D1*
X7171487Y6552017D2*
X7183293D1*
X7321040Y6689763D1*
X8757540D1*
X8520903Y3817720D2*
X9545163D1*
X9549330Y3821887D1*
X5967030Y1651423D2*
X5369193D1*
X5032343Y1314573D1*
Y1311717D1*
X4938400Y1217773D1*
X4408883D1*
D32*
X8315607Y3063107D3*
X1723390Y3113590D3*
D3*
X5942920Y4643990D3*
X7997990Y6510417D3*
X5324330Y6753090D3*
X7171487Y6552017D3*
X8757540Y6689763D3*
X5967030Y1651423D3*
D14*
X5717750Y6969033D3*
D15*
Y7223033D3*
D14*
X7500527Y7489947D3*
D15*
X7246527D3*
D16*
X8267857Y7676783D3*
D17*
X8013857D3*
D16*
X3606883Y6855393D3*
D17*
X3352883D3*
D18*
X4937500Y1683273D3*
X4683500D3*
D19*
X4556500D3*
D18*
X4810500D3*
D20*
X6562600Y5324030D3*
D21*
Y5070030D3*
D20*
X9505810Y5308373D3*
D21*
Y5054373D3*
D22*
X9549330Y4583887D3*
D23*
Y4329887D3*
Y4075887D3*
Y3821887D3*
Y3567887D3*
Y3313887D3*
D22*
X6560007Y4590307D3*
D23*
Y4336307D3*
Y4082307D3*
Y3828307D3*
Y3574307D3*
Y3320307D3*
D15*
X9097663Y6894780D3*
D24*
Y6644780D3*
X9297663D3*
Y6894780D3*
D25*
X9568663Y6167780D3*
Y7371780D3*
D16*
X5763250Y5515820D3*
D26*
Y6277820D3*
D16*
X5365023Y5504870D3*
D26*
Y6266870D3*
D16*
X2005070Y5404643D3*
D26*
Y4642643D3*
D16*
X1972533Y4244337D3*
D26*
Y3482337D3*
D16*
X7572823Y5553847D3*
D26*
Y6315847D3*
D16*
X7997507Y6314913D3*
D26*
Y5552913D3*
D16*
X8428620Y6313320D3*
D26*
Y5551320D3*
D16*
X5363297Y1437290D3*
D26*
X6125297D3*
D16*
X5490040Y1192613D3*
D26*
X6252040D3*
D16*
X3646883Y1217773D3*
D26*
X4408883D3*
D20*
X1921463Y2874880D3*
D28*
Y2620880D3*
X2683463D3*
D20*
Y2874880D3*
X1332147Y2053623D3*
D28*
Y1799623D3*
X2094147D3*
D20*
Y2053623D3*
X7758903Y4833720D3*
D21*
Y4579720D3*
Y4325720D3*
Y4071720D3*
Y3817720D3*
Y3563720D3*
Y3309720D3*
X8520903D3*
Y3563720D3*
Y3817720D3*
Y4071720D3*
Y4325720D3*
Y4579720D3*
Y4833720D3*
M02*
