G04 DipTrace 3.0.0.2*
G04 BottomSilk.gbr*
%MOMM*%
G04 #@! TF.FileFunction,Legend,Bot*
G04 #@! TF.Part,Single*
%ADD12C,0.0762*%
%ADD86C,0.15686*%
%ADD87C,0.31373*%
%ADD88C,0.23529*%
%ADD89C,0.27451*%
%ADD91C,0.19608*%
%ADD92C,0.47059*%
%FSLAX35Y35*%
G04*
G71*
G90*
G75*
G01*
G04 BotSilk*
%LPD*%
X7264390Y2967990D2*
D12*
X9862810D1*
X7264390Y2960370D2*
X9862810D1*
X7264390Y2952750D2*
X9862810D1*
X7264390Y2945130D2*
X9862810D1*
X7264390Y2937510D2*
X9862810D1*
X7264390Y2929890D2*
X9862810D1*
X7264390Y2922270D2*
X9862810D1*
X7264390Y2914650D2*
X9862810D1*
X7264390Y2907030D2*
X9862810D1*
X7264390Y2899410D2*
X9862810D1*
X7264390Y2891790D2*
X9862810D1*
X7264390Y2884170D2*
X9862810D1*
X7264390Y2876550D2*
X9862810D1*
X7264390Y2868930D2*
X9862810D1*
X7264390Y2861310D2*
X9862810D1*
X7264390Y2853690D2*
X9862810D1*
X7264390Y2846070D2*
X9862810D1*
X7264390Y2838450D2*
X9862810D1*
X7264390Y2830830D2*
X9862810D1*
X6098530Y2823210D2*
X6159490D1*
X7264390D2*
X9862810D1*
X6074853Y2815590D2*
X6185772D1*
X7264390D2*
X9459300D1*
X9574398D2*
X9862810D1*
X5481310Y2807970D2*
X5603230D1*
X5740390D2*
X5862310D1*
X6053925D2*
X6208968D1*
X6388090D2*
X6730990D1*
X6776710D2*
X7127230D1*
X7264390D2*
X9438012D1*
X9591229D2*
X9862810D1*
X5481310Y2800350D2*
X5603230D1*
X5740390D2*
X5862310D1*
X6037050D2*
X6227287D1*
X6388090D2*
X6730990D1*
X6776710D2*
X7127230D1*
X7264390D2*
X9419516D1*
X9607174D2*
X9862810D1*
X5481310Y2792730D2*
X5603230D1*
X5740390D2*
X5862310D1*
X6023752D2*
X6241332D1*
X6388090D2*
X6730990D1*
X6776710D2*
X7127230D1*
X7264390D2*
X9404797D1*
X9620654D2*
X9862810D1*
X5481310Y2785110D2*
X5603230D1*
X5740390D2*
X5862310D1*
X6012917D2*
X6252473D1*
X6388090D2*
X6730990D1*
X6776710D2*
X7127230D1*
X7264390D2*
X9393361D1*
X9631585D2*
X9862810D1*
X5481310Y2777490D2*
X5603230D1*
X5740390D2*
X5862310D1*
X6003239D2*
X6262051D1*
X6388090D2*
X6730990D1*
X6776710D2*
X7127230D1*
X7264390D2*
X9383991D1*
X9641010D2*
X9862810D1*
X5481310Y2769870D2*
X5603230D1*
X5740390D2*
X5862310D1*
X5994209D2*
X6270431D1*
X6388090D2*
X6730990D1*
X6776710D2*
X7127230D1*
X7264390D2*
X9375858D1*
X9650004D2*
X9862810D1*
X5481310Y2762250D2*
X5603230D1*
X5740390D2*
X5862310D1*
X5986517D2*
X6277318D1*
X6388090D2*
X6730990D1*
X6776710D2*
X7127230D1*
X7264390D2*
X9368677D1*
X9658713D2*
X9862810D1*
X5481310Y2754630D2*
X5603230D1*
X5740390D2*
X5862310D1*
X5980457D2*
X6283523D1*
X6388090D2*
X6730990D1*
X6776710D2*
X7127230D1*
X7264390D2*
X9362100D1*
X9666263D2*
X9862810D1*
X5481310Y2747010D2*
X5603230D1*
X5740390D2*
X5862310D1*
X5975774D2*
X6289775D1*
X6388090D2*
X6730990D1*
X6776710D2*
X7127230D1*
X7264390D2*
X9355810D1*
X9672055D2*
X9862810D1*
X5481310Y2739390D2*
X5603230D1*
X5740390D2*
X5862310D1*
X5972173D2*
X6295556D1*
X6388090D2*
X6730990D1*
X6776710D2*
X7127230D1*
X7264390D2*
X8242745D1*
X8274855D2*
X9350378D1*
X9676268D2*
X9862810D1*
X5481310Y2731770D2*
X5603230D1*
X5740390D2*
X5862310D1*
X5969027D2*
X6300069D1*
X6388090D2*
X6730990D1*
X6776710D2*
X7127230D1*
X7264390D2*
X8232443D1*
X8291388D2*
X9346178D1*
X9679700D2*
X9862810D1*
X5481310Y2724150D2*
X5603230D1*
X5740390D2*
X5862310D1*
X5965296D2*
X6303523D1*
X6388090D2*
X6730990D1*
X6776710D2*
X7127230D1*
X7264390D2*
X8228381D1*
X8304082D2*
X9342427D1*
X9504670D2*
X9519910D1*
X9683552D2*
X9862810D1*
X5481310Y2716530D2*
X5603230D1*
X5740390D2*
X5862310D1*
X5961108D2*
X6097643D1*
X6160377D2*
X6306813D1*
X6609070D2*
X6730990D1*
X6776710D2*
X7127230D1*
X7264390D2*
X8226166D1*
X8313879D2*
X9338507D1*
X9491218D2*
X9533623D1*
X9687815D2*
X9862810D1*
X5481310Y2708910D2*
X5603230D1*
X5740390D2*
X5862310D1*
X5957632D2*
X6089110D1*
X6168910D2*
X6310288D1*
X6609070D2*
X6730990D1*
X6776710D2*
X7127230D1*
X7264390D2*
X8225161D1*
X8321301D2*
X9334086D1*
X9480148D2*
X9545431D1*
X9691547D2*
X9862810D1*
X5481310Y2701290D2*
X5603230D1*
X5740390D2*
X5862310D1*
X5955266D2*
X6081373D1*
X6176647D2*
X6313918D1*
X6609070D2*
X6730990D1*
X6891010D2*
X7012930D1*
X7264390D2*
X8224751D1*
X8327082D2*
X9329488D1*
X9472100D2*
X9554602D1*
X9694651D2*
X9862810D1*
X5481310Y2693670D2*
X5603230D1*
X5740390D2*
X5862310D1*
X5953243D2*
X6074671D1*
X6183349D2*
X6317627D1*
X6609070D2*
X6730990D1*
X6891010D2*
X7012930D1*
X7264390D2*
X8224595D1*
X8329223D2*
X9325841D1*
X9466435D2*
X9561337D1*
X9697798D2*
X9862810D1*
X5481310Y2686050D2*
X5603230D1*
X5740390D2*
X5862310D1*
X5950954D2*
X6068940D1*
X6189110D2*
X6321132D1*
X6609070D2*
X6730990D1*
X6891010D2*
X7012930D1*
X7264390D2*
X8224539D1*
X8330659D2*
X9323628D1*
X9462435D2*
X9566270D1*
X9701188D2*
X9862810D1*
X5481310Y2678430D2*
X5603230D1*
X5740390D2*
X5862310D1*
X5948783D2*
X6064767D1*
X6193521D2*
X6323966D1*
X6609070D2*
X6730990D1*
X6891010D2*
X7012930D1*
X7264390D2*
X8224519D1*
X8332355D2*
X8423415D1*
X8421525D2*
X9322274D1*
X9459355D2*
X9569680D1*
X9704530D2*
X9862810D1*
X5481310Y2670810D2*
X5603230D1*
X5740390D2*
X5862310D1*
X5947115D2*
X6062116D1*
X6196875D2*
X6325940D1*
X6609070D2*
X6730990D1*
X6891010D2*
X7012930D1*
X7264390D2*
X7522292D1*
X7629540D2*
X7683490D1*
X7796002D2*
X7963962D1*
X8104975D2*
X8224510D1*
X8335176D2*
X8378498D1*
X8464183D2*
X8758200D1*
X8881037D2*
X9000252D1*
X9063888D2*
X9123670D1*
X9231751D2*
X9320826D1*
X9456262D2*
X9571626D1*
X9707262D2*
X9862810D1*
X5481310Y2663190D2*
X5603230D1*
X5740390D2*
X5862310D1*
X5945411D2*
X6059984D1*
X6199861D2*
X6327772D1*
X6609070D2*
X6730990D1*
X6891010D2*
X7012930D1*
X7264390D2*
X7512813D1*
X7642559D2*
X7683490D1*
X7800521D2*
X7953476D1*
X8116641D2*
X8249397D1*
X8338810D2*
D3*
X8495322D2*
X8743967D1*
X8890814D2*
X9004709D1*
X9073397D2*
X9123670D1*
X9234425D2*
X9318779D1*
X9452905D2*
X9572605D1*
X9708940D2*
X9862810D1*
X5481310Y2655570D2*
X5603230D1*
X5740390D2*
X5862310D1*
X5943254D2*
X6057654D1*
X6202319D2*
X6330008D1*
X6609070D2*
X6730990D1*
X6891010D2*
X7012930D1*
X7264390D2*
X7503518D1*
X7653115D2*
X7683490D1*
X7800467D2*
X7942057D1*
X8129148D2*
X8266685D1*
X8517086D2*
X8730851D1*
X8901378D2*
X9007261D1*
X9082960D2*
X9123670D1*
X9237970D2*
X9316484D1*
X9449579D2*
X9573286D1*
X9709789D2*
X9862810D1*
X5481310Y2647950D2*
X5603230D1*
X5740390D2*
X5862310D1*
X5941164D2*
X6055469D1*
X6203850D2*
X6332384D1*
X6609070D2*
X6730990D1*
X6891010D2*
X7012930D1*
X7264390D2*
X7495802D1*
X7662039D2*
X7683490D1*
X7799556D2*
X7931148D1*
X8140995D2*
X8278703D1*
X8532522D2*
X8718834D1*
X8912158D2*
X9008498D1*
X9091647D2*
X9123670D1*
X9234453D2*
X9314158D1*
X9446854D2*
X9574422D1*
X9710196D2*
X9862810D1*
X5481310Y2640330D2*
X5603230D1*
X5740390D2*
X5862310D1*
X5939783D2*
X6053797D1*
X6204662D2*
X6334743D1*
X6609070D2*
X6730990D1*
X6891010D2*
X7012930D1*
X7264390D2*
X7490270D1*
X7670282D2*
X7683490D1*
X7798713D2*
X7921521D1*
X8151014D2*
X8282779D1*
X8544196D2*
X8708016D1*
X8922440D2*
X9009034D1*
X9098974D2*
X9123670D1*
X9232264D2*
X9311618D1*
X9445179D2*
X9576310D1*
X9710617D2*
X9862810D1*
X5481310Y2632710D2*
X5603230D1*
X5740390D2*
X5862310D1*
X5939057D2*
X6052092D1*
X6205280D2*
X6337296D1*
X6609070D2*
X6730990D1*
X6891010D2*
X7012930D1*
X7264390D2*
X7486135D1*
X7677375D2*
X7683490D1*
X7798208D2*
X7913138D1*
X8158755D2*
X8283040D1*
X8553016D2*
X8698560D1*
X8931683D2*
X9009247D1*
X9104795D2*
X9123670D1*
X9231157D2*
X9309338D1*
X9444331D2*
X9578286D1*
X9711647D2*
X9862810D1*
X5481310Y2625090D2*
X5603230D1*
X5740390D2*
X5862310D1*
X5938727D2*
X6049933D1*
X6206394D2*
X6339580D1*
X6609070D2*
X6730990D1*
X6891010D2*
X7012930D1*
X7264390D2*
X7481961D1*
X7683490D2*
D3*
X7797961D2*
X7906033D1*
X8165128D2*
X8281587D1*
X8559529D2*
X8690288D1*
X8939875D2*
X9009327D1*
X9109356D2*
X9123670D1*
X9230665D2*
X9307874D1*
X9443954D2*
X9579623D1*
X9713493D2*
X9862810D1*
X5481310Y2617470D2*
X5603230D1*
X5740390D2*
X5862310D1*
X5938586D2*
X6047823D1*
X6208274D2*
X6341045D1*
X6609070D2*
X6730990D1*
X6891010D2*
X7012930D1*
X7264390D2*
X7477594D1*
X7797856D2*
X7900082D1*
X8170844D2*
X8278683D1*
X8407390D2*
X8437870D1*
X8564624D2*
X8683265D1*
X8946869D2*
X9009355D1*
X9112873D2*
X9123670D1*
X9230467D2*
X9307116D1*
X9443800D2*
X9580332D1*
X9715454D2*
X9862810D1*
X5481310Y2609850D2*
X5603230D1*
X5740390D2*
X5862310D1*
X5938510D2*
X6046325D1*
X6210247D2*
X6341804D1*
X6609070D2*
X6730990D1*
X6891010D2*
X7012930D1*
X7264390D2*
X7474079D1*
X7797814D2*
X7894643D1*
X8175836D2*
X8274669D1*
X8400977D2*
X8440765D1*
X8568973D2*
X8677606D1*
X8952549D2*
X9009365D1*
X9115734D2*
X9123670D1*
X9230391D2*
X9306774D1*
X9443742D2*
X9580656D1*
X9716785D2*
X9862810D1*
X5481310Y2602230D2*
X5603230D1*
X5740390D2*
X5862310D1*
X5991850D2*
X6045190D1*
X6211583D2*
X6342146D1*
X6609070D2*
X6730990D1*
X6891010D2*
X7012930D1*
X7264390D2*
X7471957D1*
X7797798D2*
X7889566D1*
X8180243D2*
X8270225D1*
X8395544D2*
X8444010D1*
X8572975D2*
X8673117D1*
X8796010D2*
X8826490D1*
X8957272D2*
X9009368D1*
X9118552D2*
X9123670D1*
X9230364D2*
X9306633D1*
X9443721D2*
X9580790D1*
X9717522D2*
X9862810D1*
X5481310Y2594610D2*
X5603230D1*
X5740390D2*
X5862310D1*
X6212292D2*
X6342287D1*
X6609070D2*
X6730990D1*
X6891010D2*
X7012930D1*
X7264390D2*
X7470896D1*
X7797793D2*
X7885470D1*
X8018770D2*
X8049250D1*
X8184300D2*
X8266633D1*
X8391166D2*
X8447310D1*
X8576591D2*
X8669630D1*
X8786080D2*
X8836160D1*
X8961461D2*
X9009370D1*
X9121240D2*
X9123670D1*
X9230355D2*
X9306580D1*
X9443714D2*
X9580871D1*
X9718114D2*
X9862810D1*
X5481310Y2586990D2*
X5862310D1*
X6212616D2*
X6342340D1*
X6433810D2*
X6730990D1*
X6891010D2*
X7012930D1*
X7264390D2*
X7470429D1*
X7607290D2*
X7653010D1*
X7797791D2*
X7882246D1*
X8011445D2*
X8057977D1*
X8187948D2*
X8264468D1*
X8387974D2*
X8450279D1*
X8579435D2*
X8666756D1*
X8778429D2*
X8843072D1*
X8965189D2*
X9009370D1*
X9123670D2*
D3*
X9230352D2*
X9306560D1*
X9443711D2*
X9581158D1*
X9719219D2*
X9862810D1*
X5481310Y2579370D2*
X5862310D1*
X6212750D2*
X6342360D1*
X6433810D2*
X6730990D1*
X6891010D2*
X7012930D1*
X7264390D2*
X7470240D1*
X7602595D2*
X7659132D1*
X7797790D2*
X7879311D1*
X8006091D2*
X8065675D1*
X8190836D2*
X8263359D1*
X8386110D2*
X8452915D1*
X8581156D2*
X8663740D1*
X8772675D2*
X8847733D1*
X8968334D2*
X9009370D1*
X9230350D2*
X9306553D1*
X9443710D2*
X9582135D1*
X9721095D2*
X9862810D1*
X5481310Y2571750D2*
X5862310D1*
X6212801D2*
X6342367D1*
X6433810D2*
X6730990D1*
X6891010D2*
X7012930D1*
X7264390D2*
X7470169D1*
X7598517D2*
X7663619D1*
X7797790D2*
X7876871D1*
X8002050D2*
X8068971D1*
X8192830D2*
X8262593D1*
X8385190D2*
X8455585D1*
X8582020D2*
X8660411D1*
X8768021D2*
X8851554D1*
X8971068D2*
X9009370D1*
X9230350D2*
X9306551D1*
X9443710D2*
X9583963D1*
X9723068D2*
X9862810D1*
X5481310Y2564130D2*
X5862310D1*
X6212820D2*
X6342369D1*
X6433810D2*
X6730990D1*
X6891010D2*
X7012930D1*
X7264390D2*
X7470143D1*
X7595437D2*
X7666438D1*
X7797790D2*
X7875317D1*
X7999114D2*
X8071041D1*
X8194698D2*
X8261224D1*
X8384787D2*
X8457885D1*
X8582404D2*
X8657095D1*
X8764133D2*
X8855213D1*
X8974030D2*
X9034842D1*
X9230350D2*
X9306550D1*
X9443710D2*
X9585917D1*
X9724403D2*
X9862810D1*
X5481310Y2556510D2*
X5862310D1*
X6212827D2*
X6342370D1*
X6433810D2*
X6730990D1*
X6891010D2*
X7012930D1*
X7264390D2*
X7470134D1*
X7593611D2*
X7668647D1*
X7797790D2*
X7874269D1*
X7997387D2*
X8072838D1*
X8197175D2*
X8258545D1*
X8384625D2*
X8459099D1*
X8582559D2*
X8654373D1*
X8761184D2*
X8858656D1*
X8977339D2*
X9055344D1*
X9230350D2*
X9306550D1*
X9443710D2*
X9587246D1*
X9725112D2*
X9862810D1*
X5481310Y2548890D2*
X5862310D1*
X6212829D2*
X6342370D1*
X6433810D2*
X6730990D1*
X6891010D2*
X7012930D1*
X7264390D2*
X7470131D1*
X7592704D2*
X7671007D1*
X7797790D2*
X7872949D1*
X7996529D2*
X8075003D1*
X8200255D2*
X8254990D1*
X8384563D2*
X8458892D1*
X8582588D2*
X8652699D1*
X8759425D2*
X8861423D1*
X8980649D2*
X9070543D1*
X9230350D2*
X9306550D1*
X9443710D2*
X9587953D1*
X9725436D2*
X9862810D1*
X5481310Y2541270D2*
X5862310D1*
X6212830D2*
X6342370D1*
X6433810D2*
X6730990D1*
X6891010D2*
X7012930D1*
X7264390D2*
X7470130D1*
X7592305D2*
X7673174D1*
X7797790D2*
X7870981D1*
X7996122D2*
X8077086D1*
X8203468D2*
X8258507D1*
X8384571D2*
X8457382D1*
X8582341D2*
X8651851D1*
X8758546D2*
X8863114D1*
X8983368D2*
X9081208D1*
X9230350D2*
X9306550D1*
X9443710D2*
X9588276D1*
X9725570D2*
X9862810D1*
X5481310Y2533650D2*
X5862310D1*
X6212830D2*
X6342370D1*
X6433810D2*
X6730990D1*
X6891010D2*
X7012930D1*
X7264390D2*
X7470130D1*
X7592144D2*
X7674583D1*
X7797790D2*
X7868943D1*
X7995702D2*
X8078462D1*
X8206150D2*
X8260726D1*
X8384831D2*
X8455301D1*
X8581348D2*
X8651474D1*
X8758158D2*
X8863969D1*
X8985042D2*
X9088575D1*
X9230350D2*
X9306550D1*
X9443710D2*
X9588380D1*
X9725592D2*
X9862810D1*
X5481310Y2526030D2*
X5862310D1*
X6212830D2*
X6342370D1*
X6433810D2*
X6730990D1*
X6891010D2*
X7012930D1*
X7264390D2*
X7470130D1*
X7592083D2*
X7675318D1*
X7797790D2*
X7867326D1*
X7994703D2*
X8079185D1*
X8207809D2*
X8262101D1*
X8385830D2*
X8453025D1*
X8579257D2*
X8651290D1*
X8757997D2*
X8864362D1*
X8985889D2*
X9094003D1*
X9230350D2*
X9306550D1*
X9443710D2*
X9588164D1*
X9725342D2*
X9862810D1*
X5481310Y2518410D2*
X5862310D1*
X6212830D2*
X6342370D1*
X6433810D2*
X6730990D1*
X6891010D2*
X7012930D1*
X7264390D2*
X7470130D1*
X7592061D2*
X7675651D1*
X7797790D2*
X7865642D1*
X7993146D2*
X8079514D1*
X8208652D2*
X8263593D1*
X8387952D2*
X8450245D1*
X8576333D2*
X8650942D1*
X8757910D2*
X8864590D1*
X8986267D2*
X9098467D1*
X9230350D2*
X9306550D1*
X9443710D2*
X9587211D1*
X9724378D2*
X9862810D1*
X5481310Y2510790D2*
X5862310D1*
X6212830D2*
X6342370D1*
X6433810D2*
X6730990D1*
X6891010D2*
X7012930D1*
X7264390D2*
X7470130D1*
X7592054D2*
X7675788D1*
X7797790D2*
X7863491D1*
X7991676D2*
X8079649D1*
X8209027D2*
X8265915D1*
X8391172D2*
X8446998D1*
X8573150D2*
X8649743D1*
X8986420D2*
X9102266D1*
X9230350D2*
X9306550D1*
X9443710D2*
X9585393D1*
X9722555D2*
X9862810D1*
X5481310Y2503170D2*
X5862310D1*
X6212830D2*
X6342370D1*
X6433810D2*
X6730990D1*
X6891010D2*
X7012930D1*
X7264390D2*
X7470130D1*
X7592051D2*
X7675841D1*
X7797790D2*
X7861403D1*
X7993334D2*
X8079731D1*
X8209180D2*
X8269183D1*
X8395574D2*
X8443643D1*
X8570192D2*
X8647131D1*
X8986478D2*
X9105178D1*
X9230350D2*
X9306550D1*
X9443710D2*
X9583441D1*
X9720602D2*
X9862810D1*
X5481310Y2495550D2*
X5862310D1*
X6212830D2*
X6342370D1*
X6609070D2*
X6730990D1*
X6891010D2*
X7012930D1*
X7264390D2*
X7470130D1*
X7592050D2*
X7675860D1*
X7797790D2*
X7860022D1*
X7995910D2*
X8080018D1*
X8209238D2*
X8273365D1*
X8401193D2*
X8440576D1*
X8567271D2*
X8643610D1*
X8986499D2*
X9106923D1*
X9230350D2*
X9306550D1*
X9443710D2*
X9582113D1*
X9719273D2*
X9862810D1*
X5481310Y2487930D2*
X5862310D1*
X6212830D2*
X6342370D1*
X6609070D2*
X6730990D1*
X6891010D2*
X7012930D1*
X7264390D2*
X7470130D1*
X7592050D2*
X7675867D1*
X7797790D2*
X7859297D1*
X7992393D2*
X8080966D1*
X8209259D2*
X8278187D1*
X8407390D2*
X8437870D1*
X8563307D2*
X8651230D1*
X8986506D2*
X9107796D1*
X9230350D2*
X9306550D1*
X9443710D2*
X9581407D1*
X9718537D2*
X9862810D1*
X5481310Y2480310D2*
X5603230D1*
X5740390D2*
X5862310D1*
X6212800D2*
X6342340D1*
X6609070D2*
X6730990D1*
X6891010D2*
X7012930D1*
X7264390D2*
X7470130D1*
X7592050D2*
X7675869D1*
X7797790D2*
X7858967D1*
X7990204D2*
X8082525D1*
X8209266D2*
X8283333D1*
X8557647D2*
X8647713D1*
X8986509D2*
X9108182D1*
X9230350D2*
X9306550D1*
X9443710D2*
X9581084D1*
X9717946D2*
X9862810D1*
X5481310Y2472690D2*
X5603230D1*
X5740390D2*
X5862310D1*
X6212532D2*
X6342072D1*
X6609070D2*
X6730990D1*
X6891010D2*
X7012930D1*
X7264390D2*
X7470130D1*
X7592050D2*
X7675870D1*
X7797790D2*
X7858831D1*
X7989097D2*
X8083508D1*
X8209269D2*
X8289627D1*
X8550474D2*
X8645524D1*
X8986510D2*
X9108338D1*
X9230350D2*
X9306550D1*
X9443710D2*
X9580950D1*
X9716841D2*
X9862810D1*
X5481310Y2465070D2*
X5603230D1*
X5740390D2*
X5862310D1*
X6014710D2*
X6045190D1*
X6211561D2*
X6341101D1*
X6609070D2*
X6730990D1*
X6891010D2*
X7012930D1*
X7264390D2*
X7470130D1*
X7592050D2*
X7675870D1*
X7797790D2*
X7858779D1*
X7988605D2*
X8083013D1*
X8209270D2*
X8298117D1*
X8542943D2*
X8644417D1*
X8986510D2*
X9108398D1*
X9230350D2*
X9306580D1*
X9443710D2*
X9580869D1*
X9714965D2*
X9862810D1*
X5481310Y2457450D2*
X5603230D1*
X5740390D2*
X5862310D1*
X5938510D2*
X6046368D1*
X6209736D2*
X6339276D1*
X6609070D2*
X6730990D1*
X6891010D2*
X7012930D1*
X7264390D2*
X7470130D1*
X7592050D2*
X7675870D1*
X7797790D2*
X7858790D1*
X7988407D2*
X8081766D1*
X8209270D2*
X8308865D1*
X8536804D2*
X8643925D1*
X8986510D2*
X9108419D1*
X9230350D2*
X9306848D1*
X9443710D2*
X9580582D1*
X9712992D2*
X9862810D1*
X5481310Y2449830D2*
X5603230D1*
X5740390D2*
X5862310D1*
X5938510D2*
X6048287D1*
X6207783D2*
X6337293D1*
X6609070D2*
X6730990D1*
X6891010D2*
X7012930D1*
X7264390D2*
X7470130D1*
X7592050D2*
X7675870D1*
X7797790D2*
X7859051D1*
X7988361D2*
X8080760D1*
X8209270D2*
X8321122D1*
X8532047D2*
X8643720D1*
X8986510D2*
X9108426D1*
X9230350D2*
X9307819D1*
X9443740D2*
X9579605D1*
X9711657D2*
X9862810D1*
X5481310Y2442210D2*
X5603230D1*
X5740390D2*
X5862310D1*
X5938510D2*
X6050527D1*
X6206454D2*
X6335696D1*
X6609070D2*
X6730990D1*
X6891010D2*
X7012930D1*
X7264390D2*
X7470130D1*
X7592050D2*
X7675870D1*
X7797790D2*
X7860020D1*
X7988602D2*
X8080187D1*
X8209270D2*
X8333255D1*
X8541008D2*
X8864590D1*
X8986510D2*
X9108429D1*
X9230350D2*
X9309674D1*
X9444008D2*
X9577777D1*
X9710948D2*
X9862810D1*
X5481310Y2434590D2*
X5603230D1*
X5740390D2*
X5862310D1*
X5938510D2*
X6052833D1*
X6205717D2*
X6334018D1*
X6609070D2*
X6730990D1*
X6891010D2*
X7012930D1*
X7264390D2*
X7470130D1*
X7592050D2*
X7675870D1*
X7797790D2*
X7861844D1*
X7989563D2*
X8079915D1*
X8209240D2*
X8344044D1*
X8550110D2*
X8864590D1*
X8986510D2*
X9108430D1*
X9230350D2*
X9311895D1*
X9445009D2*
X9575823D1*
X9710594D2*
X9862810D1*
X5481310Y2426970D2*
X5603230D1*
X5740390D2*
X5862310D1*
X5938540D2*
X6055396D1*
X6205126D2*
X6331870D1*
X6609070D2*
X6730990D1*
X6891010D2*
X7012930D1*
X7264390D2*
X7470130D1*
X7592050D2*
X7675870D1*
X7797790D2*
X7863798D1*
X7991385D2*
X8079800D1*
X8208972D2*
X8475970D1*
X8558747D2*
X8864590D1*
X8986510D2*
X9108430D1*
X9230350D2*
X9314195D1*
X9447101D2*
X9574464D1*
X9710192D2*
X9862810D1*
X5481310Y2419350D2*
X5603230D1*
X5740390D2*
X5862310D1*
X5938837D2*
X6057971D1*
X6204021D2*
X6329753D1*
X6609070D2*
X6730990D1*
X6891010D2*
X7012930D1*
X7264390D2*
X7470130D1*
X7592050D2*
X7675870D1*
X7797790D2*
X7865156D1*
X7993338D2*
X8079726D1*
X8208001D2*
X8483005D1*
X8566670D2*
X8864590D1*
X8986510D2*
X9108430D1*
X9230350D2*
X9316727D1*
X9450026D2*
X9573489D1*
X9709140D2*
X9862810D1*
X5481310Y2411730D2*
X5603230D1*
X5740390D2*
X5862310D1*
X5940076D2*
X6060673D1*
X6202085D2*
X6328104D1*
X6609070D2*
X6730990D1*
X6891010D2*
X7012930D1*
X7264390D2*
X7470130D1*
X7592050D2*
X7675870D1*
X7797790D2*
X7866131D1*
X7994667D2*
X8079441D1*
X8206176D2*
X8488215D1*
X8573554D2*
X8864590D1*
X8986480D2*
X9108430D1*
X9230350D2*
X9319034D1*
X9453210D2*
X9572195D1*
X9707028D2*
X9862810D1*
X5481310Y2404110D2*
X5603230D1*
X5740390D2*
X5862310D1*
X5942873D2*
X6064257D1*
X6199577D2*
X6326378D1*
X6609070D2*
X6730990D1*
X6891010D2*
X7012930D1*
X7264390D2*
X7470130D1*
X7592050D2*
X7675870D1*
X7797790D2*
X7867425D1*
X7995373D2*
X8078464D1*
X8204193D2*
X8489497D1*
X8579162D2*
X8864560D1*
X8986212D2*
X9108430D1*
X9230350D2*
X9320764D1*
X9456138D2*
X9570177D1*
X9704097D2*
X9862810D1*
X5481310Y2396490D2*
X5603230D1*
X5740390D2*
X5862310D1*
X5946651D2*
X6068675D1*
X6196240D2*
X6323956D1*
X6609070D2*
X6730990D1*
X6891010D2*
X7012930D1*
X7264390D2*
X7470130D1*
X7592050D2*
X7675870D1*
X7797790D2*
X7869384D1*
X7995696D2*
X8076637D1*
X8202596D2*
X8490064D1*
X8583632D2*
X8642112D1*
X8757940D2*
X8864292D1*
X8985211D2*
X9108430D1*
X9230350D2*
X9322523D1*
X9458791D2*
X9567636D1*
X9700911D2*
X9862810D1*
X5481310Y2388870D2*
X5603230D1*
X5740390D2*
X5862310D1*
X5949964D2*
X6073365D1*
X6191298D2*
X6320865D1*
X6609070D2*
X6730990D1*
X6891010D2*
X7012930D1*
X7264390D2*
X7470130D1*
X7592050D2*
X7675870D1*
X7797790D2*
X7871419D1*
X7995860D2*
X8074683D1*
X8200918D2*
X8473480D1*
X8587113D2*
X8646599D1*
X8758237D2*
X8863291D1*
X8983119D2*
X9108430D1*
X9230350D2*
X9324958D1*
X9461784D2*
X9564286D1*
X9697952D2*
X9862810D1*
X5481310Y2381250D2*
X5603230D1*
X5740390D2*
X5862310D1*
X5952297D2*
X6078529D1*
X6184672D2*
X6317391D1*
X6609070D2*
X6730990D1*
X6891010D2*
X7012930D1*
X7264390D2*
X7470130D1*
X7592050D2*
X7675870D1*
X7797790D2*
X7873034D1*
X7996179D2*
X8073324D1*
X8198770D2*
X8444136D1*
X8589926D2*
X8649418D1*
X8759476D2*
X8861199D1*
X8980194D2*
X9108430D1*
X9230350D2*
X9328023D1*
X9465670D2*
X9559340D1*
X9695061D2*
X9862810D1*
X5481310Y2373630D2*
X5603230D1*
X5740390D2*
X5862310D1*
X5954566D2*
X6084504D1*
X6176435D2*
X6313741D1*
X6609070D2*
X6730990D1*
X6891010D2*
X7012930D1*
X7264390D2*
X7470130D1*
X7592050D2*
X7675870D1*
X7797790D2*
X7874719D1*
X7997199D2*
X8072320D1*
X8196653D2*
X8402010D1*
X8592405D2*
X8651657D1*
X8762302D2*
X8858244D1*
X8977010D2*
X9108430D1*
X9230350D2*
X9331260D1*
X9471401D2*
X9552713D1*
X9691424D2*
X9862810D1*
X5481310Y2366010D2*
X5603230D1*
X5740390D2*
X5862310D1*
X5957849D2*
X6090910D1*
X6167110D2*
X6310197D1*
X6609070D2*
X6730990D1*
X6891010D2*
X7012930D1*
X7264390D2*
X7470130D1*
X7592050D2*
X7675870D1*
X7797790D2*
X7876899D1*
X7999387D2*
X8070698D1*
X8194975D2*
X8344830D1*
X8354050D2*
D3*
X8594432D2*
X8654285D1*
X8766438D2*
X8854733D1*
X8974052D2*
X9108430D1*
X9230350D2*
X9334238D1*
X9479685D2*
X9544476D1*
X9687241D2*
X9862810D1*
X5481310Y2358390D2*
X5603230D1*
X5740390D2*
X5862310D1*
X5962080D2*
X6306865D1*
X6388090D2*
X6730990D1*
X6891010D2*
X7012930D1*
X7264390D2*
X7470130D1*
X7592050D2*
X7675870D1*
X7797790D2*
X7879255D1*
X8003191D2*
X8068063D1*
X8193010D2*
X8312062D1*
X8593328D2*
X8657423D1*
X8771569D2*
X8850225D1*
X8971161D2*
X9108430D1*
X9230350D2*
X9337136D1*
X9489430D2*
X9535150D1*
X9683538D2*
X9862810D1*
X5481310Y2350770D2*
X5603230D1*
X5740390D2*
X5862310D1*
X5966434D2*
X6303189D1*
X6388090D2*
X6730990D1*
X6891010D2*
X7012930D1*
X7264390D2*
X7470130D1*
X7592050D2*
X7675870D1*
X7797790D2*
X7881636D1*
X8008513D2*
X8061132D1*
X8189855D2*
X8287883D1*
X8591016D2*
X8660687D1*
X8779033D2*
X8844503D1*
X8967495D2*
X9108430D1*
X9230350D2*
X9340804D1*
X9680414D2*
X9862810D1*
X5481310Y2343150D2*
X5603230D1*
X5740390D2*
X5862310D1*
X5970618D2*
X6298382D1*
X6388090D2*
X6730990D1*
X6891010D2*
X7012930D1*
X7264390D2*
X7470130D1*
X7592050D2*
X7675870D1*
X7797790D2*
X7884455D1*
X8020419D2*
X8052025D1*
X8185642D2*
X8270786D1*
X8587878D2*
X8663644D1*
X8790199D2*
X8832517D1*
X8963073D2*
X9108430D1*
X9230350D2*
X9345256D1*
X9677002D2*
X9862810D1*
X5481310Y2335530D2*
X5603230D1*
X5740390D2*
X5862310D1*
X5974879D2*
X6292854D1*
X6388090D2*
X6730990D1*
X6891010D2*
X7012930D1*
X7264390D2*
X7470130D1*
X7592050D2*
X7675870D1*
X7797790D2*
X7887769D1*
X8034010D2*
X8041630D1*
X8181069D2*
X8258483D1*
X8584082D2*
X8666336D1*
X8803630D2*
X8818870D1*
X8958637D2*
X9108430D1*
X9230350D2*
X9349960D1*
X9672613D2*
X9862810D1*
X5481310Y2327910D2*
X5603230D1*
X5740390D2*
X5862310D1*
X5979761D2*
X6287186D1*
X6388090D2*
X6730990D1*
X6891010D2*
X7012930D1*
X7264390D2*
X7470130D1*
X7592050D2*
X7675870D1*
X7797790D2*
X7891624D1*
X8176188D2*
X8249064D1*
X8579358D2*
X8669570D1*
X8954421D2*
X9108430D1*
X9230350D2*
X9355177D1*
X9667148D2*
X9862810D1*
X5481310Y2320290D2*
X5603230D1*
X5740390D2*
X5862310D1*
X5985731D2*
X6281370D1*
X6388090D2*
X6730990D1*
X6891010D2*
X7012930D1*
X7264390D2*
X7470130D1*
X7592050D2*
X7675870D1*
X7797790D2*
X7896577D1*
X8171075D2*
X8241826D1*
X8573200D2*
X8674140D1*
X8950148D2*
X9108430D1*
X9230350D2*
X9361514D1*
X9661165D2*
X9862810D1*
X5481310Y2312670D2*
X5603230D1*
X5740390D2*
X5862310D1*
X5992740D2*
X6275180D1*
X6388090D2*
X6730990D1*
X6891010D2*
X7012930D1*
X7264390D2*
X7470130D1*
X7592050D2*
X7675870D1*
X7797790D2*
X7903196D1*
X8166035D2*
X8236704D1*
X8565279D2*
X8680570D1*
X8945231D2*
X9108430D1*
X9230350D2*
X9369087D1*
X9654796D2*
X9862810D1*
X5481310Y2305050D2*
X5603230D1*
X5740390D2*
X5862310D1*
X6000744D2*
X6267891D1*
X6388090D2*
X6730990D1*
X6891010D2*
X7012930D1*
X7264390D2*
X7470130D1*
X7592050D2*
X7675870D1*
X7797790D2*
X7911312D1*
X8160422D2*
X8233041D1*
X8555456D2*
X8688604D1*
X8938992D2*
X9108430D1*
X9230350D2*
X9377539D1*
X9647163D2*
X9862810D1*
X5481310Y2297430D2*
X5603230D1*
X5740390D2*
X5862310D1*
X6009630D2*
X6259159D1*
X6388090D2*
X6730990D1*
X6891010D2*
X7012930D1*
X7264390D2*
X7470130D1*
X7592050D2*
X7675870D1*
X7797790D2*
X7920396D1*
X8153006D2*
X8229931D1*
X8544550D2*
X8697654D1*
X8930952D2*
X9108430D1*
X9230350D2*
X9386682D1*
X9637724D2*
X9862810D1*
X5481310Y2289810D2*
X5603230D1*
X5740390D2*
X5862310D1*
X6019590D2*
X6248451D1*
X6388090D2*
X6730990D1*
X6891010D2*
X7012930D1*
X7264390D2*
X7470130D1*
X7592050D2*
X7675870D1*
X7797790D2*
X7930580D1*
X8142904D2*
X8227426D1*
X8553608D2*
X8707827D1*
X8920527D2*
X9108430D1*
X9230350D2*
X9397807D1*
X9626250D2*
X9862810D1*
X5481310Y2282190D2*
X5603230D1*
X5740390D2*
X5862310D1*
X6031774D2*
X6234566D1*
X6388090D2*
X6730990D1*
X6891010D2*
X7012930D1*
X7264390D2*
X7470130D1*
X7592050D2*
X7675870D1*
X7797790D2*
X7942750D1*
X8129129D2*
X8225879D1*
X8460730D2*
X8475970D1*
X8563826D2*
X8719992D1*
X8907142D2*
X9108430D1*
X9230350D2*
X9412819D1*
X9611721D2*
X9862810D1*
X5481310Y2274570D2*
X5603230D1*
X5740390D2*
X5862310D1*
X6046951D2*
X6217860D1*
X6388090D2*
X6730990D1*
X6891010D2*
X7012930D1*
X7264390D2*
X7470130D1*
X7592050D2*
X7675870D1*
X7797790D2*
X7959556D1*
X8109387D2*
X8225091D1*
X8354050D2*
X8484183D1*
X8574244D2*
X8736797D1*
X8889674D2*
X9108430D1*
X9230350D2*
X9433105D1*
X9591244D2*
X9862810D1*
X5481310Y2266950D2*
X5603230D1*
X5740390D2*
X5862310D1*
X6064525D2*
X6200127D1*
X6388090D2*
X6730990D1*
X6891010D2*
X7012930D1*
X7264390D2*
X7470130D1*
X7592050D2*
X7675870D1*
X7797790D2*
X7983247D1*
X8081734D2*
X8224739D1*
X8347637D2*
X8490478D1*
X8583060D2*
X8760487D1*
X8867196D2*
X9108430D1*
X9230350D2*
X9459453D1*
X9562179D2*
X9862810D1*
X6083290Y2259330D2*
X6182350D1*
X7264390D2*
X8011150D1*
X8049250D2*
X8224595D1*
X8342204D2*
X8494957D1*
X8589763D2*
X8788390D1*
X8841730D2*
X9489430D1*
X9527530D2*
X9862810D1*
X7264390Y2251710D2*
X8224570D1*
X8337826D2*
X8498458D1*
X8594962D2*
X9862810D1*
X7264390Y2244090D2*
X8224818D1*
X8334664D2*
X8502221D1*
X8599139D2*
X9862810D1*
X7264390Y2236470D2*
X8225782D1*
X8333068D2*
X8506450D1*
X8602489D2*
X9862810D1*
X7264390Y2228850D2*
X8227635D1*
X8332564D2*
X8502583D1*
X8605475D2*
X9862810D1*
X7264390Y2221230D2*
X8229855D1*
X8335341D2*
X8498832D1*
X8609019D2*
X9862810D1*
X7264390Y2213610D2*
X8232185D1*
X8339527D2*
X8493476D1*
X8613130D2*
X9862810D1*
X7264390Y2205990D2*
X8235014D1*
X8349712D2*
X8485488D1*
X8609322D2*
X9862810D1*
X7264390Y2198370D2*
X8238560D1*
X8361670D2*
X8475970D1*
X8606127D2*
X9862810D1*
X7264390Y2190750D2*
X8243116D1*
X8602896D2*
X9862810D1*
X7264390Y2183130D2*
X8248922D1*
X8599182D2*
X9862810D1*
X7264390Y2175510D2*
X8255670D1*
X8594530D2*
X9862810D1*
X7264390Y2167890D2*
X8263221D1*
X8588403D2*
X9862810D1*
X7264390Y2160270D2*
X8272247D1*
X8580378D2*
X9862810D1*
X7264390Y2152650D2*
X8284407D1*
X8569522D2*
X9862810D1*
X7264390Y2145030D2*
X8302468D1*
X8553425D2*
X9862810D1*
X7264390Y2137410D2*
X8330915D1*
X8527004D2*
X9862810D1*
X7264390Y2129790D2*
X8372754D1*
X8486629D2*
X9862810D1*
X7264390Y2122170D2*
X8422630D1*
X8437870D2*
X9862810D1*
X7264390Y2114550D2*
X9862810D1*
X7264390Y2106930D2*
X9862810D1*
X7264390Y2099310D2*
X9862810D1*
X7264390Y2091690D2*
X9862810D1*
X7264390Y2084070D2*
X9862810D1*
X7264390Y2967990D2*
Y2960370D1*
Y2952750D1*
Y2945130D1*
Y2937510D1*
Y2929890D1*
Y2922270D1*
Y2914650D1*
Y2907030D1*
Y2899410D1*
Y2891790D1*
Y2884170D1*
Y2876550D1*
Y2868930D1*
Y2861310D1*
Y2853690D1*
Y2846070D1*
Y2838450D1*
Y2830830D1*
Y2823210D1*
Y2815590D1*
Y2807970D1*
Y2800350D1*
Y2792730D1*
Y2785110D1*
Y2777490D1*
Y2769870D1*
Y2762250D1*
Y2754630D1*
Y2747010D1*
Y2739390D1*
Y2731770D1*
Y2724150D1*
Y2716530D1*
Y2708910D1*
Y2701290D1*
Y2693670D1*
Y2686050D1*
Y2678430D1*
Y2670810D1*
Y2663190D1*
Y2655570D1*
Y2647950D1*
Y2640330D1*
Y2632710D1*
Y2625090D1*
Y2617470D1*
Y2609850D1*
Y2602230D1*
Y2594610D1*
Y2586990D1*
Y2579370D1*
Y2571750D1*
Y2564130D1*
Y2556510D1*
Y2548890D1*
Y2541270D1*
Y2533650D1*
Y2526030D1*
Y2518410D1*
Y2510790D1*
Y2503170D1*
Y2495550D1*
Y2487930D1*
Y2480310D1*
Y2472690D1*
Y2465070D1*
Y2457450D1*
Y2449830D1*
Y2442210D1*
Y2434590D1*
Y2426970D1*
Y2419350D1*
Y2411730D1*
Y2404110D1*
Y2396490D1*
Y2388870D1*
Y2381250D1*
Y2373630D1*
Y2366010D1*
Y2358390D1*
Y2350770D1*
Y2343150D1*
Y2335530D1*
Y2327910D1*
Y2320290D1*
Y2312670D1*
Y2305050D1*
Y2297430D1*
Y2289810D1*
Y2282190D1*
Y2274570D1*
Y2266950D1*
Y2259330D1*
Y2251710D1*
Y2244090D1*
Y2236470D1*
Y2228850D1*
Y2221230D1*
Y2213610D1*
Y2205990D1*
Y2198370D1*
Y2190750D1*
Y2183130D1*
Y2175510D1*
Y2167890D1*
Y2160270D1*
Y2152650D1*
Y2145030D1*
Y2137410D1*
Y2129790D1*
Y2122170D1*
Y2114550D1*
Y2106930D1*
Y2099310D1*
Y2091690D1*
Y2084070D1*
X9862810Y2967990D2*
Y2960370D1*
Y2952750D1*
Y2945130D1*
Y2937510D1*
Y2929890D1*
Y2922270D1*
Y2914650D1*
Y2907030D1*
Y2899410D1*
Y2891790D1*
Y2884170D1*
Y2876550D1*
Y2868930D1*
Y2861310D1*
Y2853690D1*
Y2846070D1*
Y2838450D1*
Y2830830D1*
Y2823210D1*
Y2815590D1*
Y2807970D1*
Y2800350D1*
Y2792730D1*
Y2785110D1*
Y2777490D1*
Y2769870D1*
Y2762250D1*
Y2754630D1*
Y2747010D1*
Y2739390D1*
Y2731770D1*
Y2724150D1*
Y2716530D1*
Y2708910D1*
Y2701290D1*
Y2693670D1*
Y2686050D1*
Y2678430D1*
Y2670810D1*
Y2663190D1*
Y2655570D1*
Y2647950D1*
Y2640330D1*
Y2632710D1*
Y2625090D1*
Y2617470D1*
Y2609850D1*
Y2602230D1*
Y2594610D1*
Y2586990D1*
Y2579370D1*
Y2571750D1*
Y2564130D1*
Y2556510D1*
Y2548890D1*
Y2541270D1*
Y2533650D1*
Y2526030D1*
Y2518410D1*
Y2510790D1*
Y2503170D1*
Y2495550D1*
Y2487930D1*
Y2480310D1*
Y2472690D1*
Y2465070D1*
Y2457450D1*
Y2449830D1*
Y2442210D1*
Y2434590D1*
Y2426970D1*
Y2419350D1*
Y2411730D1*
Y2404110D1*
Y2396490D1*
Y2388870D1*
Y2381250D1*
Y2373630D1*
Y2366010D1*
Y2358390D1*
Y2350770D1*
Y2343150D1*
Y2335530D1*
Y2327910D1*
Y2320290D1*
Y2312670D1*
Y2305050D1*
Y2297430D1*
Y2289810D1*
Y2282190D1*
Y2274570D1*
Y2266950D1*
Y2259330D1*
Y2251710D1*
Y2244090D1*
Y2236470D1*
Y2228850D1*
Y2221230D1*
Y2213610D1*
Y2205990D1*
Y2198370D1*
Y2190750D1*
Y2183130D1*
Y2175510D1*
Y2167890D1*
Y2160270D1*
Y2152650D1*
Y2145030D1*
Y2137410D1*
Y2129790D1*
Y2122170D1*
Y2114550D1*
Y2106930D1*
Y2099310D1*
Y2091690D1*
Y2084070D1*
X6098530Y2823210D2*
X6074853Y2815590D1*
X6053925Y2807970D1*
X6037050Y2800350D1*
X6023752Y2792730D1*
X6012917Y2785110D1*
X6003239Y2777490D1*
X5994209Y2769870D1*
X5986517Y2762250D1*
X5980457Y2754630D1*
X5975774Y2747010D1*
X5972173Y2739390D1*
X5969027Y2731770D1*
X5965296Y2724150D1*
X5961108Y2716530D1*
X5957632Y2708910D1*
X5955266Y2701290D1*
X5953243Y2693670D1*
X5950954Y2686050D1*
X5948783Y2678430D1*
X5947115Y2670810D1*
X5945411Y2663190D1*
X5943254Y2655570D1*
X5941164Y2647950D1*
X5939783Y2640330D1*
X5939057Y2632710D1*
X5938727Y2625090D1*
X5938586Y2617470D1*
X5938510Y2609850D1*
X5991850Y2602230D1*
X6159490Y2823210D2*
X6185772Y2815590D1*
X6208968Y2807970D1*
X6227287Y2800350D1*
X6241332Y2792730D1*
X6252473Y2785110D1*
X6262051Y2777490D1*
X6270431Y2769870D1*
X6277318Y2762250D1*
X6283523Y2754630D1*
X6289775Y2747010D1*
X6295556Y2739390D1*
X6300069Y2731770D1*
X6303523Y2724150D1*
X6306813Y2716530D1*
X6310288Y2708910D1*
X6313918Y2701290D1*
X6317627Y2693670D1*
X6321132Y2686050D1*
X6323966Y2678430D1*
X6325940Y2670810D1*
X6327772Y2663190D1*
X6330008Y2655570D1*
X6332384Y2647950D1*
X6334743Y2640330D1*
X6337296Y2632710D1*
X6339580Y2625090D1*
X6341045Y2617470D1*
X6341804Y2609850D1*
X6342146Y2602230D1*
X6342287Y2594610D1*
X6342340Y2586990D1*
X6342360Y2579370D1*
X6342367Y2571750D1*
X6342369Y2564130D1*
X6342370Y2556510D1*
Y2548890D1*
Y2541270D1*
Y2533650D1*
Y2526030D1*
Y2518410D1*
Y2510790D1*
Y2503170D1*
Y2495550D1*
Y2487930D1*
X6342340Y2480310D1*
X6342072Y2472690D1*
X6341101Y2465070D1*
X6339276Y2457450D1*
X6337293Y2449830D1*
X6335696Y2442210D1*
X6334018Y2434590D1*
X6331870Y2426970D1*
X6329753Y2419350D1*
X6328104Y2411730D1*
X6326378Y2404110D1*
X6323956Y2396490D1*
X6320865Y2388870D1*
X6317391Y2381250D1*
X6313741Y2373630D1*
X6310197Y2366010D1*
X6306865Y2358390D1*
X6303189Y2350770D1*
X6298382Y2343150D1*
X6292854Y2335530D1*
X6287186Y2327910D1*
X6281370Y2320290D1*
X6275180Y2312670D1*
X6267891Y2305050D1*
X6259159Y2297430D1*
X6248451Y2289810D1*
X6234566Y2282190D1*
X6217860Y2274570D1*
X6200127Y2266950D1*
X6182350Y2259330D1*
X9481810Y2823210D2*
X9459300Y2815590D1*
X9438012Y2807970D1*
X9419516Y2800350D1*
X9404797Y2792730D1*
X9393361Y2785110D1*
X9383991Y2777490D1*
X9375858Y2769870D1*
X9368677Y2762250D1*
X9362100Y2754630D1*
X9355810Y2747010D1*
X9350378Y2739390D1*
X9346178Y2731770D1*
X9342427Y2724150D1*
X9338507Y2716530D1*
X9334086Y2708910D1*
X9329488Y2701290D1*
X9325841Y2693670D1*
X9323628Y2686050D1*
X9322274Y2678430D1*
X9320826Y2670810D1*
X9318779Y2663190D1*
X9316484Y2655570D1*
X9314158Y2647950D1*
X9311618Y2640330D1*
X9309338Y2632710D1*
X9307874Y2625090D1*
X9307116Y2617470D1*
X9306774Y2609850D1*
X9306633Y2602230D1*
X9306580Y2594610D1*
X9306560Y2586990D1*
X9306553Y2579370D1*
X9306551Y2571750D1*
X9306550Y2564130D1*
Y2556510D1*
Y2548890D1*
Y2541270D1*
Y2533650D1*
Y2526030D1*
Y2518410D1*
Y2510790D1*
Y2503170D1*
Y2495550D1*
Y2487930D1*
Y2480310D1*
Y2472690D1*
X9306580Y2465070D1*
X9306848Y2457450D1*
X9307819Y2449830D1*
X9309674Y2442210D1*
X9311895Y2434590D1*
X9314195Y2426970D1*
X9316727Y2419350D1*
X9319034Y2411730D1*
X9320764Y2404110D1*
X9322523Y2396490D1*
X9324958Y2388870D1*
X9328023Y2381250D1*
X9331260Y2373630D1*
X9334238Y2366010D1*
X9337136Y2358390D1*
X9340804Y2350770D1*
X9345256Y2343150D1*
X9349960Y2335530D1*
X9355177Y2327910D1*
X9361514Y2320290D1*
X9369087Y2312670D1*
X9377539Y2305050D1*
X9386682Y2297430D1*
X9397807Y2289810D1*
X9412819Y2282190D1*
X9433105Y2274570D1*
X9459453Y2266950D1*
X9489430Y2259330D1*
X9558010Y2823210D2*
X9574398Y2815590D1*
X9591229Y2807970D1*
X9607174Y2800350D1*
X9620654Y2792730D1*
X9631585Y2785110D1*
X9641010Y2777490D1*
X9650004Y2769870D1*
X9658713Y2762250D1*
X9666263Y2754630D1*
X9672055Y2747010D1*
X9676268Y2739390D1*
X9679700Y2731770D1*
X9683552Y2724150D1*
X9687815Y2716530D1*
X9691547Y2708910D1*
X9694651Y2701290D1*
X9697798Y2693670D1*
X9701188Y2686050D1*
X9704530Y2678430D1*
X9707262Y2670810D1*
X9708940Y2663190D1*
X9709789Y2655570D1*
X9710196Y2647950D1*
X9710617Y2640330D1*
X9711647Y2632710D1*
X9713493Y2625090D1*
X9715454Y2617470D1*
X9716785Y2609850D1*
X9717522Y2602230D1*
X9718114Y2594610D1*
X9719219Y2586990D1*
X9721095Y2579370D1*
X9723068Y2571750D1*
X9724403Y2564130D1*
X9725112Y2556510D1*
X9725436Y2548890D1*
X9725570Y2541270D1*
X9725592Y2533650D1*
X9725342Y2526030D1*
X9724378Y2518410D1*
X9722555Y2510790D1*
X9720602Y2503170D1*
X9719273Y2495550D1*
X9718537Y2487930D1*
X9717946Y2480310D1*
X9716841Y2472690D1*
X9714965Y2465070D1*
X9712992Y2457450D1*
X9711657Y2449830D1*
X9710948Y2442210D1*
X9710594Y2434590D1*
X9710192Y2426970D1*
X9709140Y2419350D1*
X9707028Y2411730D1*
X9704097Y2404110D1*
X9700911Y2396490D1*
X9697952Y2388870D1*
X9695061Y2381250D1*
X9691424Y2373630D1*
X9687241Y2366010D1*
X9683538Y2358390D1*
X9680414Y2350770D1*
X9677002Y2343150D1*
X9672613Y2335530D1*
X9667148Y2327910D1*
X9661165Y2320290D1*
X9654796Y2312670D1*
X9647163Y2305050D1*
X9637724Y2297430D1*
X9626250Y2289810D1*
X9611721Y2282190D1*
X9591244Y2274570D1*
X9562179Y2266950D1*
X9527530Y2259330D1*
X5481310Y2807970D2*
Y2800350D1*
Y2792730D1*
Y2785110D1*
Y2777490D1*
Y2769870D1*
Y2762250D1*
Y2754630D1*
Y2747010D1*
Y2739390D1*
Y2731770D1*
Y2724150D1*
Y2716530D1*
Y2708910D1*
Y2701290D1*
Y2693670D1*
Y2686050D1*
Y2678430D1*
Y2670810D1*
Y2663190D1*
Y2655570D1*
Y2647950D1*
Y2640330D1*
Y2632710D1*
Y2625090D1*
Y2617470D1*
Y2609850D1*
Y2602230D1*
Y2594610D1*
Y2586990D1*
Y2579370D1*
Y2571750D1*
Y2564130D1*
Y2556510D1*
Y2548890D1*
Y2541270D1*
Y2533650D1*
Y2526030D1*
Y2518410D1*
Y2510790D1*
Y2503170D1*
Y2495550D1*
Y2487930D1*
Y2480310D1*
Y2472690D1*
Y2465070D1*
Y2457450D1*
Y2449830D1*
Y2442210D1*
Y2434590D1*
Y2426970D1*
Y2419350D1*
Y2411730D1*
Y2404110D1*
Y2396490D1*
Y2388870D1*
Y2381250D1*
Y2373630D1*
Y2366010D1*
Y2358390D1*
Y2350770D1*
Y2343150D1*
Y2335530D1*
Y2327910D1*
Y2320290D1*
Y2312670D1*
Y2305050D1*
Y2297430D1*
Y2289810D1*
Y2282190D1*
Y2274570D1*
Y2266950D1*
X5603230Y2807970D2*
Y2800350D1*
Y2792730D1*
Y2785110D1*
Y2777490D1*
Y2769870D1*
Y2762250D1*
Y2754630D1*
Y2747010D1*
Y2739390D1*
Y2731770D1*
Y2724150D1*
Y2716530D1*
Y2708910D1*
Y2701290D1*
Y2693670D1*
Y2686050D1*
Y2678430D1*
Y2670810D1*
Y2663190D1*
Y2655570D1*
Y2647950D1*
Y2640330D1*
Y2632710D1*
Y2625090D1*
Y2617470D1*
Y2609850D1*
Y2602230D1*
Y2594610D1*
Y2586990D1*
X5740390Y2807970D2*
Y2800350D1*
Y2792730D1*
Y2785110D1*
Y2777490D1*
Y2769870D1*
Y2762250D1*
Y2754630D1*
Y2747010D1*
Y2739390D1*
Y2731770D1*
Y2724150D1*
Y2716530D1*
Y2708910D1*
Y2701290D1*
Y2693670D1*
Y2686050D1*
Y2678430D1*
Y2670810D1*
Y2663190D1*
Y2655570D1*
Y2647950D1*
Y2640330D1*
Y2632710D1*
Y2625090D1*
Y2617470D1*
Y2609850D1*
Y2602230D1*
Y2594610D1*
Y2586990D1*
X5862310Y2807970D2*
Y2800350D1*
Y2792730D1*
Y2785110D1*
Y2777490D1*
Y2769870D1*
Y2762250D1*
Y2754630D1*
Y2747010D1*
Y2739390D1*
Y2731770D1*
Y2724150D1*
Y2716530D1*
Y2708910D1*
Y2701290D1*
Y2693670D1*
Y2686050D1*
Y2678430D1*
Y2670810D1*
Y2663190D1*
Y2655570D1*
Y2647950D1*
Y2640330D1*
Y2632710D1*
Y2625090D1*
Y2617470D1*
Y2609850D1*
Y2602230D1*
Y2594610D1*
Y2586990D1*
Y2579370D1*
Y2571750D1*
Y2564130D1*
Y2556510D1*
Y2548890D1*
Y2541270D1*
Y2533650D1*
Y2526030D1*
Y2518410D1*
Y2510790D1*
Y2503170D1*
Y2495550D1*
Y2487930D1*
Y2480310D1*
Y2472690D1*
Y2465070D1*
Y2457450D1*
Y2449830D1*
Y2442210D1*
Y2434590D1*
Y2426970D1*
Y2419350D1*
Y2411730D1*
Y2404110D1*
Y2396490D1*
Y2388870D1*
Y2381250D1*
Y2373630D1*
Y2366010D1*
Y2358390D1*
Y2350770D1*
Y2343150D1*
Y2335530D1*
Y2327910D1*
Y2320290D1*
Y2312670D1*
Y2305050D1*
Y2297430D1*
Y2289810D1*
Y2282190D1*
Y2274570D1*
Y2266950D1*
X6388090Y2807970D2*
Y2800350D1*
Y2792730D1*
Y2785110D1*
Y2777490D1*
Y2769870D1*
Y2762250D1*
Y2754630D1*
Y2747010D1*
Y2739390D1*
Y2731770D1*
Y2724150D1*
X6730990Y2807970D2*
Y2800350D1*
Y2792730D1*
Y2785110D1*
Y2777490D1*
Y2769870D1*
Y2762250D1*
Y2754630D1*
Y2747010D1*
Y2739390D1*
Y2731770D1*
Y2724150D1*
Y2716530D1*
Y2708910D1*
Y2701290D1*
Y2693670D1*
Y2686050D1*
Y2678430D1*
Y2670810D1*
Y2663190D1*
Y2655570D1*
Y2647950D1*
Y2640330D1*
Y2632710D1*
Y2625090D1*
Y2617470D1*
Y2609850D1*
Y2602230D1*
Y2594610D1*
Y2586990D1*
Y2579370D1*
Y2571750D1*
Y2564130D1*
Y2556510D1*
Y2548890D1*
Y2541270D1*
Y2533650D1*
Y2526030D1*
Y2518410D1*
Y2510790D1*
Y2503170D1*
Y2495550D1*
Y2487930D1*
Y2480310D1*
Y2472690D1*
Y2465070D1*
Y2457450D1*
Y2449830D1*
Y2442210D1*
Y2434590D1*
Y2426970D1*
Y2419350D1*
Y2411730D1*
Y2404110D1*
Y2396490D1*
Y2388870D1*
Y2381250D1*
Y2373630D1*
Y2366010D1*
Y2358390D1*
Y2350770D1*
Y2343150D1*
Y2335530D1*
Y2327910D1*
Y2320290D1*
Y2312670D1*
Y2305050D1*
Y2297430D1*
Y2289810D1*
Y2282190D1*
Y2274570D1*
Y2266950D1*
X6776710Y2807970D2*
Y2800350D1*
Y2792730D1*
Y2785110D1*
Y2777490D1*
Y2769870D1*
Y2762250D1*
Y2754630D1*
Y2747010D1*
Y2739390D1*
Y2731770D1*
Y2724150D1*
Y2716530D1*
Y2708910D1*
X7127230Y2807970D2*
Y2800350D1*
Y2792730D1*
Y2785110D1*
Y2777490D1*
Y2769870D1*
Y2762250D1*
Y2754630D1*
Y2747010D1*
Y2739390D1*
Y2731770D1*
Y2724150D1*
Y2716530D1*
Y2708910D1*
X8254990Y2747010D2*
X8242745Y2739390D1*
X8232443Y2731770D1*
X8228381Y2724150D1*
X8226166Y2716530D1*
X8225161Y2708910D1*
X8224751Y2701290D1*
X8224595Y2693670D1*
X8224539Y2686050D1*
X8224519Y2678430D1*
X8224510Y2670810D1*
X8249397Y2663190D1*
X8266685Y2655570D1*
X8278703Y2647950D1*
X8282779Y2640330D1*
X8283040Y2632710D1*
X8281587Y2625090D1*
X8278683Y2617470D1*
X8274669Y2609850D1*
X8270225Y2602230D1*
X8266633Y2594610D1*
X8264468Y2586990D1*
X8263359Y2579370D1*
X8262593Y2571750D1*
X8261224Y2564130D1*
X8258545Y2556510D1*
X8254990Y2548890D1*
X8258507Y2541270D1*
X8260726Y2533650D1*
X8262101Y2526030D1*
X8263593Y2518410D1*
X8265915Y2510790D1*
X8269183Y2503170D1*
X8273365Y2495550D1*
X8278187Y2487930D1*
X8283333Y2480310D1*
X8289627Y2472690D1*
X8298117Y2465070D1*
X8308865Y2457450D1*
X8321122Y2449830D1*
X8333255Y2442210D1*
X8344044Y2434590D1*
X8354050Y2426970D1*
X8254990Y2747010D2*
X8274855Y2739390D1*
X8291388Y2731770D1*
X8304082Y2724150D1*
X8313879Y2716530D1*
X8321301Y2708910D1*
X8327082Y2701290D1*
X8329223Y2693670D1*
X8330659Y2686050D1*
X8332355Y2678430D1*
X8335176Y2670810D1*
X8338810Y2663190D1*
X9504670Y2724150D2*
X9491218Y2716530D1*
X9480148Y2708910D1*
X9472100Y2701290D1*
X9466435Y2693670D1*
X9462435Y2686050D1*
X9459355Y2678430D1*
X9456262Y2670810D1*
X9452905Y2663190D1*
X9449579Y2655570D1*
X9446854Y2647950D1*
X9445179Y2640330D1*
X9444331Y2632710D1*
X9443954Y2625090D1*
X9443800Y2617470D1*
X9443742Y2609850D1*
X9443721Y2602230D1*
X9443714Y2594610D1*
X9443711Y2586990D1*
X9443710Y2579370D1*
Y2571750D1*
Y2564130D1*
Y2556510D1*
Y2548890D1*
Y2541270D1*
Y2533650D1*
Y2526030D1*
Y2518410D1*
Y2510790D1*
Y2503170D1*
Y2495550D1*
Y2487930D1*
Y2480310D1*
Y2472690D1*
Y2465070D1*
Y2457450D1*
X9443740Y2449830D1*
X9444008Y2442210D1*
X9445009Y2434590D1*
X9447101Y2426970D1*
X9450026Y2419350D1*
X9453210Y2411730D1*
X9456138Y2404110D1*
X9458791Y2396490D1*
X9461784Y2388870D1*
X9465670Y2381250D1*
X9471401Y2373630D1*
X9479685Y2366010D1*
X9489430Y2358390D1*
X9519910Y2724150D2*
X9533623Y2716530D1*
X9545431Y2708910D1*
X9554602Y2701290D1*
X9561337Y2693670D1*
X9566270Y2686050D1*
X9569680Y2678430D1*
X9571626Y2670810D1*
X9572605Y2663190D1*
X9573286Y2655570D1*
X9574422Y2647950D1*
X9576310Y2640330D1*
X9578286Y2632710D1*
X9579623Y2625090D1*
X9580332Y2617470D1*
X9580656Y2609850D1*
X9580790Y2602230D1*
X9580871Y2594610D1*
X9581158Y2586990D1*
X9582135Y2579370D1*
X9583963Y2571750D1*
X9585917Y2564130D1*
X9587246Y2556510D1*
X9587953Y2548890D1*
X9588276Y2541270D1*
X9588380Y2533650D1*
X9588164Y2526030D1*
X9587211Y2518410D1*
X9585393Y2510790D1*
X9583441Y2503170D1*
X9582113Y2495550D1*
X9581407Y2487930D1*
X9581084Y2480310D1*
X9580950Y2472690D1*
X9580869Y2465070D1*
X9580582Y2457450D1*
X9579605Y2449830D1*
X9577777Y2442210D1*
X9575823Y2434590D1*
X9574464Y2426970D1*
X9573489Y2419350D1*
X9572195Y2411730D1*
X9570177Y2404110D1*
X9567636Y2396490D1*
X9564286Y2388870D1*
X9559340Y2381250D1*
X9552713Y2373630D1*
X9544476Y2366010D1*
X9535150Y2358390D1*
X6106150Y2724150D2*
X6097643Y2716530D1*
X6089110Y2708910D1*
X6081373Y2701290D1*
X6074671Y2693670D1*
X6068940Y2686050D1*
X6064767Y2678430D1*
X6062116Y2670810D1*
X6059984Y2663190D1*
X6057654Y2655570D1*
X6055469Y2647950D1*
X6053797Y2640330D1*
X6052092Y2632710D1*
X6049933Y2625090D1*
X6047823Y2617470D1*
X6046325Y2609850D1*
X6045190Y2602230D1*
X6151870Y2724150D2*
X6160377Y2716530D1*
X6168910Y2708910D1*
X6176647Y2701290D1*
X6183349Y2693670D1*
X6189110Y2686050D1*
X6193521Y2678430D1*
X6196875Y2670810D1*
X6199861Y2663190D1*
X6202319Y2655570D1*
X6203850Y2647950D1*
X6204662Y2640330D1*
X6205280Y2632710D1*
X6206394Y2625090D1*
X6208274Y2617470D1*
X6210247Y2609850D1*
X6211583Y2602230D1*
X6212292Y2594610D1*
X6212616Y2586990D1*
X6212750Y2579370D1*
X6212801Y2571750D1*
X6212820Y2564130D1*
X6212827Y2556510D1*
X6212829Y2548890D1*
X6212830Y2541270D1*
Y2533650D1*
Y2526030D1*
Y2518410D1*
Y2510790D1*
Y2503170D1*
Y2495550D1*
Y2487930D1*
X6212800Y2480310D1*
X6212532Y2472690D1*
X6211561Y2465070D1*
X6209736Y2457450D1*
X6207783Y2449830D1*
X6206454Y2442210D1*
X6205717Y2434590D1*
X6205126Y2426970D1*
X6204021Y2419350D1*
X6202085Y2411730D1*
X6199577Y2404110D1*
X6196240Y2396490D1*
X6191298Y2388870D1*
X6184672Y2381250D1*
X6176435Y2373630D1*
X6167110Y2366010D1*
X6609070Y2724150D2*
Y2716530D1*
Y2708910D1*
Y2701290D1*
Y2693670D1*
Y2686050D1*
Y2678430D1*
Y2670810D1*
Y2663190D1*
Y2655570D1*
Y2647950D1*
Y2640330D1*
Y2632710D1*
Y2625090D1*
Y2617470D1*
Y2609850D1*
Y2602230D1*
Y2594610D1*
Y2586990D1*
X6891010Y2708910D2*
Y2701290D1*
Y2693670D1*
Y2686050D1*
Y2678430D1*
Y2670810D1*
Y2663190D1*
Y2655570D1*
Y2647950D1*
Y2640330D1*
Y2632710D1*
Y2625090D1*
Y2617470D1*
Y2609850D1*
Y2602230D1*
Y2594610D1*
Y2586990D1*
Y2579370D1*
Y2571750D1*
Y2564130D1*
Y2556510D1*
Y2548890D1*
Y2541270D1*
Y2533650D1*
Y2526030D1*
Y2518410D1*
Y2510790D1*
Y2503170D1*
Y2495550D1*
Y2487930D1*
Y2480310D1*
Y2472690D1*
Y2465070D1*
Y2457450D1*
Y2449830D1*
Y2442210D1*
Y2434590D1*
Y2426970D1*
Y2419350D1*
Y2411730D1*
Y2404110D1*
Y2396490D1*
Y2388870D1*
Y2381250D1*
Y2373630D1*
Y2366010D1*
Y2358390D1*
Y2350770D1*
Y2343150D1*
Y2335530D1*
Y2327910D1*
Y2320290D1*
Y2312670D1*
Y2305050D1*
Y2297430D1*
Y2289810D1*
Y2282190D1*
Y2274570D1*
Y2266950D1*
X7012930Y2708910D2*
Y2701290D1*
Y2693670D1*
Y2686050D1*
Y2678430D1*
Y2670810D1*
Y2663190D1*
Y2655570D1*
Y2647950D1*
Y2640330D1*
Y2632710D1*
Y2625090D1*
Y2617470D1*
Y2609850D1*
Y2602230D1*
Y2594610D1*
Y2586990D1*
Y2579370D1*
Y2571750D1*
Y2564130D1*
Y2556510D1*
Y2548890D1*
Y2541270D1*
Y2533650D1*
Y2526030D1*
Y2518410D1*
Y2510790D1*
Y2503170D1*
Y2495550D1*
Y2487930D1*
Y2480310D1*
Y2472690D1*
Y2465070D1*
Y2457450D1*
Y2449830D1*
Y2442210D1*
Y2434590D1*
Y2426970D1*
Y2419350D1*
Y2411730D1*
Y2404110D1*
Y2396490D1*
Y2388870D1*
Y2381250D1*
Y2373630D1*
Y2366010D1*
Y2358390D1*
Y2350770D1*
Y2343150D1*
Y2335530D1*
Y2327910D1*
Y2320290D1*
Y2312670D1*
Y2305050D1*
Y2297430D1*
Y2289810D1*
Y2282190D1*
Y2274570D1*
Y2266950D1*
X8475970Y2686050D2*
X8423415Y2678430D1*
X8378498Y2670810D1*
X8338810Y2663190D1*
X8369290Y2686050D2*
X8421525Y2678430D1*
X8464183Y2670810D1*
X8495322Y2663190D1*
X8517086Y2655570D1*
X8532522Y2647950D1*
X8544196Y2640330D1*
X8553016Y2632710D1*
X8559529Y2625090D1*
X8564624Y2617470D1*
X8568973Y2609850D1*
X8572975Y2602230D1*
X8576591Y2594610D1*
X8579435Y2586990D1*
X8581156Y2579370D1*
X8582020Y2571750D1*
X8582404Y2564130D1*
X8582559Y2556510D1*
X8582588Y2548890D1*
X8582341Y2541270D1*
X8581348Y2533650D1*
X8579257Y2526030D1*
X8576333Y2518410D1*
X8573150Y2510790D1*
X8570192Y2503170D1*
X8567271Y2495550D1*
X8563307Y2487930D1*
X8557647Y2480310D1*
X8550474Y2472690D1*
X8542943Y2465070D1*
X8536804Y2457450D1*
X8532047Y2449830D1*
X8541008Y2442210D1*
X8550110Y2434590D1*
X8558747Y2426970D1*
X8566670Y2419350D1*
X8573554Y2411730D1*
X8579162Y2404110D1*
X8583632Y2396490D1*
X8587113Y2388870D1*
X8589926Y2381250D1*
X8592405Y2373630D1*
X8594432Y2366010D1*
X8593328Y2358390D1*
X8591016Y2350770D1*
X8587878Y2343150D1*
X8584082Y2335530D1*
X8579358Y2327910D1*
X8573200Y2320290D1*
X8565279Y2312670D1*
X8555456Y2305050D1*
X8544550Y2297430D1*
X8553608Y2289810D1*
X8563826Y2282190D1*
X8574244Y2274570D1*
X8583060Y2266950D1*
X8589763Y2259330D1*
X8594962Y2251710D1*
X8599139Y2244090D1*
X8602489Y2236470D1*
X8605475Y2228850D1*
X8609019Y2221230D1*
X8613130Y2213610D1*
X8609322Y2205990D1*
X8606127Y2198370D1*
X8602896Y2190750D1*
X8599182Y2183130D1*
X8594530Y2175510D1*
X8588403Y2167890D1*
X8580378Y2160270D1*
X8569522Y2152650D1*
X8553425Y2145030D1*
X8527004Y2137410D1*
X8486629Y2129790D1*
X8437870Y2122170D1*
X7531090Y2678430D2*
X7522292Y2670810D1*
X7512813Y2663190D1*
X7503518Y2655570D1*
X7495802Y2647950D1*
X7490270Y2640330D1*
X7486135Y2632710D1*
X7481961Y2625090D1*
X7477594Y2617470D1*
X7474079Y2609850D1*
X7471957Y2602230D1*
X7470896Y2594610D1*
X7470429Y2586990D1*
X7470240Y2579370D1*
X7470169Y2571750D1*
X7470143Y2564130D1*
X7470134Y2556510D1*
X7470131Y2548890D1*
X7470130Y2541270D1*
Y2533650D1*
Y2526030D1*
Y2518410D1*
Y2510790D1*
Y2503170D1*
Y2495550D1*
Y2487930D1*
Y2480310D1*
Y2472690D1*
Y2465070D1*
Y2457450D1*
Y2449830D1*
Y2442210D1*
Y2434590D1*
Y2426970D1*
Y2419350D1*
Y2411730D1*
Y2404110D1*
Y2396490D1*
Y2388870D1*
Y2381250D1*
Y2373630D1*
Y2366010D1*
Y2358390D1*
Y2350770D1*
Y2343150D1*
Y2335530D1*
Y2327910D1*
Y2320290D1*
Y2312670D1*
Y2305050D1*
Y2297430D1*
Y2289810D1*
Y2282190D1*
Y2274570D1*
Y2266950D1*
Y2259330D1*
X7614910Y2678430D2*
X7629540Y2670810D1*
X7642559Y2663190D1*
X7653115Y2655570D1*
X7662039Y2647950D1*
X7670282Y2640330D1*
X7677375Y2632710D1*
X7683490Y2625090D1*
Y2678430D2*
Y2670810D1*
Y2663190D1*
Y2655570D1*
Y2647950D1*
Y2640330D1*
Y2632710D1*
Y2625090D1*
X7790170Y2678430D2*
X7796002Y2670810D1*
X7800521Y2663190D1*
X7800467Y2655570D1*
X7799556Y2647950D1*
X7798713Y2640330D1*
X7798208Y2632710D1*
X7797961Y2625090D1*
X7797856Y2617470D1*
X7797814Y2609850D1*
X7797798Y2602230D1*
X7797793Y2594610D1*
X7797791Y2586990D1*
X7797790Y2579370D1*
Y2571750D1*
Y2564130D1*
Y2556510D1*
Y2548890D1*
Y2541270D1*
Y2533650D1*
Y2526030D1*
Y2518410D1*
Y2510790D1*
Y2503170D1*
Y2495550D1*
Y2487930D1*
Y2480310D1*
Y2472690D1*
Y2465070D1*
Y2457450D1*
Y2449830D1*
Y2442210D1*
Y2434590D1*
Y2426970D1*
Y2419350D1*
Y2411730D1*
Y2404110D1*
Y2396490D1*
Y2388870D1*
Y2381250D1*
Y2373630D1*
Y2366010D1*
Y2358390D1*
Y2350770D1*
Y2343150D1*
Y2335530D1*
Y2327910D1*
Y2320290D1*
Y2312670D1*
Y2305050D1*
Y2297430D1*
Y2289810D1*
Y2282190D1*
Y2274570D1*
Y2266950D1*
Y2259330D1*
X7973050Y2678430D2*
X7963962Y2670810D1*
X7953476Y2663190D1*
X7942057Y2655570D1*
X7931148Y2647950D1*
X7921521Y2640330D1*
X7913138Y2632710D1*
X7906033Y2625090D1*
X7900082Y2617470D1*
X7894643Y2609850D1*
X7889566Y2602230D1*
X7885470Y2594610D1*
X7882246Y2586990D1*
X7879311Y2579370D1*
X7876871Y2571750D1*
X7875317Y2564130D1*
X7874269Y2556510D1*
X7872949Y2548890D1*
X7870981Y2541270D1*
X7868943Y2533650D1*
X7867326Y2526030D1*
X7865642Y2518410D1*
X7863491Y2510790D1*
X7861403Y2503170D1*
X7860022Y2495550D1*
X7859297Y2487930D1*
X7858967Y2480310D1*
X7858831Y2472690D1*
X7858779Y2465070D1*
X7858790Y2457450D1*
X7859051Y2449830D1*
X7860020Y2442210D1*
X7861844Y2434590D1*
X7863798Y2426970D1*
X7865156Y2419350D1*
X7866131Y2411730D1*
X7867425Y2404110D1*
X7869384Y2396490D1*
X7871419Y2388870D1*
X7873034Y2381250D1*
X7874719Y2373630D1*
X7876899Y2366010D1*
X7879255Y2358390D1*
X7881636Y2350770D1*
X7884455Y2343150D1*
X7887769Y2335530D1*
X7891624Y2327910D1*
X7896577Y2320290D1*
X7903196Y2312670D1*
X7911312Y2305050D1*
X7920396Y2297430D1*
X7930580Y2289810D1*
X7942750Y2282190D1*
X7959556Y2274570D1*
X7983247Y2266950D1*
X8011150Y2259330D1*
X8094970Y2678430D2*
X8104975Y2670810D1*
X8116641Y2663190D1*
X8129148Y2655570D1*
X8140995Y2647950D1*
X8151014Y2640330D1*
X8158755Y2632710D1*
X8165128Y2625090D1*
X8170844Y2617470D1*
X8175836Y2609850D1*
X8180243Y2602230D1*
X8184300Y2594610D1*
X8187948Y2586990D1*
X8190836Y2579370D1*
X8192830Y2571750D1*
X8194698Y2564130D1*
X8197175Y2556510D1*
X8200255Y2548890D1*
X8203468Y2541270D1*
X8206150Y2533650D1*
X8207809Y2526030D1*
X8208652Y2518410D1*
X8209027Y2510790D1*
X8209180Y2503170D1*
X8209238Y2495550D1*
X8209259Y2487930D1*
X8209266Y2480310D1*
X8209269Y2472690D1*
X8209270Y2465070D1*
Y2457450D1*
Y2449830D1*
Y2442210D1*
X8209240Y2434590D1*
X8208972Y2426970D1*
X8208001Y2419350D1*
X8206176Y2411730D1*
X8204193Y2404110D1*
X8202596Y2396490D1*
X8200918Y2388870D1*
X8198770Y2381250D1*
X8196653Y2373630D1*
X8194975Y2366010D1*
X8193010Y2358390D1*
X8189855Y2350770D1*
X8185642Y2343150D1*
X8181069Y2335530D1*
X8176188Y2327910D1*
X8171075Y2320290D1*
X8166035Y2312670D1*
X8160422Y2305050D1*
X8153006Y2297430D1*
X8142904Y2289810D1*
X8129129Y2282190D1*
X8109387Y2274570D1*
X8081734Y2266950D1*
X8049250Y2259330D1*
X8773150Y2678430D2*
X8758200Y2670810D1*
X8743967Y2663190D1*
X8730851Y2655570D1*
X8718834Y2647950D1*
X8708016Y2640330D1*
X8698560Y2632710D1*
X8690288Y2625090D1*
X8683265Y2617470D1*
X8677606Y2609850D1*
X8673117Y2602230D1*
X8669630Y2594610D1*
X8666756Y2586990D1*
X8663740Y2579370D1*
X8660411Y2571750D1*
X8657095Y2564130D1*
X8654373Y2556510D1*
X8652699Y2548890D1*
X8651851Y2541270D1*
X8651474Y2533650D1*
X8651290Y2526030D1*
X8650942Y2518410D1*
X8649743Y2510790D1*
X8647131Y2503170D1*
X8643610Y2495550D1*
X8651230Y2487930D1*
X8647713Y2480310D1*
X8645524Y2472690D1*
X8644417Y2465070D1*
X8643925Y2457450D1*
X8643720Y2449830D1*
X8643610Y2442210D1*
X8872210Y2678430D2*
X8881037Y2670810D1*
X8890814Y2663190D1*
X8901378Y2655570D1*
X8912158Y2647950D1*
X8922440Y2640330D1*
X8931683Y2632710D1*
X8939875Y2625090D1*
X8946869Y2617470D1*
X8952549Y2609850D1*
X8957272Y2602230D1*
X8961461Y2594610D1*
X8965189Y2586990D1*
X8968334Y2579370D1*
X8971068Y2571750D1*
X8974030Y2564130D1*
X8977339Y2556510D1*
X8980649Y2548890D1*
X8983368Y2541270D1*
X8985042Y2533650D1*
X8985889Y2526030D1*
X8986267Y2518410D1*
X8986420Y2510790D1*
X8986478Y2503170D1*
X8986499Y2495550D1*
X8986506Y2487930D1*
X8986509Y2480310D1*
X8986510Y2472690D1*
Y2465070D1*
Y2457450D1*
Y2449830D1*
Y2442210D1*
Y2434590D1*
Y2426970D1*
Y2419350D1*
X8986480Y2411730D1*
X8986212Y2404110D1*
X8985211Y2396490D1*
X8983119Y2388870D1*
X8980194Y2381250D1*
X8977010Y2373630D1*
X8974052Y2366010D1*
X8971161Y2358390D1*
X8967495Y2350770D1*
X8963073Y2343150D1*
X8958637Y2335530D1*
X8954421Y2327910D1*
X8950148Y2320290D1*
X8945231Y2312670D1*
X8938992Y2305050D1*
X8930952Y2297430D1*
X8920527Y2289810D1*
X8907142Y2282190D1*
X8889674Y2274570D1*
X8867196Y2266950D1*
X8841730Y2259330D1*
X8994130Y2678430D2*
X9000252Y2670810D1*
X9004709Y2663190D1*
X9007261Y2655570D1*
X9008498Y2647950D1*
X9009034Y2640330D1*
X9009247Y2632710D1*
X9009327Y2625090D1*
X9009355Y2617470D1*
X9009365Y2609850D1*
X9009368Y2602230D1*
X9009370Y2594610D1*
Y2586990D1*
Y2579370D1*
Y2571750D1*
X9034842Y2564130D1*
X9055344Y2556510D1*
X9070543Y2548890D1*
X9081208Y2541270D1*
X9088575Y2533650D1*
X9094003Y2526030D1*
X9098467Y2518410D1*
X9102266Y2510790D1*
X9105178Y2503170D1*
X9106923Y2495550D1*
X9107796Y2487930D1*
X9108182Y2480310D1*
X9108338Y2472690D1*
X9108398Y2465070D1*
X9108419Y2457450D1*
X9108426Y2449830D1*
X9108429Y2442210D1*
X9108430Y2434590D1*
Y2426970D1*
Y2419350D1*
Y2411730D1*
Y2404110D1*
Y2396490D1*
Y2388870D1*
Y2381250D1*
Y2373630D1*
Y2366010D1*
Y2358390D1*
Y2350770D1*
Y2343150D1*
Y2335530D1*
Y2327910D1*
Y2320290D1*
Y2312670D1*
Y2305050D1*
Y2297430D1*
Y2289810D1*
Y2282190D1*
Y2274570D1*
Y2266950D1*
Y2259330D1*
X9055090Y2678430D2*
X9063888Y2670810D1*
X9073397Y2663190D1*
X9082960Y2655570D1*
X9091647Y2647950D1*
X9098974Y2640330D1*
X9104795Y2632710D1*
X9109356Y2625090D1*
X9112873Y2617470D1*
X9115734Y2609850D1*
X9118552Y2602230D1*
X9121240Y2594610D1*
X9123670Y2586990D1*
Y2678430D2*
Y2670810D1*
Y2663190D1*
Y2655570D1*
Y2647950D1*
Y2640330D1*
Y2632710D1*
Y2625090D1*
Y2617470D1*
Y2609850D1*
Y2602230D1*
Y2594610D1*
Y2586990D1*
X9230350Y2678430D2*
X9231751Y2670810D1*
X9234425Y2663190D1*
X9237970Y2655570D1*
X9234453Y2647950D1*
X9232264Y2640330D1*
X9231157Y2632710D1*
X9230665Y2625090D1*
X9230467Y2617470D1*
X9230391Y2609850D1*
X9230364Y2602230D1*
X9230355Y2594610D1*
X9230352Y2586990D1*
X9230350Y2579370D1*
Y2571750D1*
Y2564130D1*
Y2556510D1*
Y2548890D1*
Y2541270D1*
Y2533650D1*
Y2526030D1*
Y2518410D1*
Y2510790D1*
Y2503170D1*
Y2495550D1*
Y2487930D1*
Y2480310D1*
Y2472690D1*
Y2465070D1*
Y2457450D1*
Y2449830D1*
Y2442210D1*
Y2434590D1*
Y2426970D1*
Y2419350D1*
Y2411730D1*
Y2404110D1*
Y2396490D1*
Y2388870D1*
Y2381250D1*
Y2373630D1*
Y2366010D1*
Y2358390D1*
Y2350770D1*
Y2343150D1*
Y2335530D1*
Y2327910D1*
Y2320290D1*
Y2312670D1*
Y2305050D1*
Y2297430D1*
Y2289810D1*
Y2282190D1*
Y2274570D1*
Y2266950D1*
Y2259330D1*
X8407390Y2617470D2*
X8400977Y2609850D1*
X8395544Y2602230D1*
X8391166Y2594610D1*
X8387974Y2586990D1*
X8386110Y2579370D1*
X8385190Y2571750D1*
X8384787Y2564130D1*
X8384625Y2556510D1*
X8384563Y2548890D1*
X8384571Y2541270D1*
X8384831Y2533650D1*
X8385830Y2526030D1*
X8387952Y2518410D1*
X8391172Y2510790D1*
X8395574Y2503170D1*
X8401193Y2495550D1*
X8407390Y2487930D1*
X8437870Y2617470D2*
X8440765Y2609850D1*
X8444010Y2602230D1*
X8447310Y2594610D1*
X8450279Y2586990D1*
X8452915Y2579370D1*
X8455585Y2571750D1*
X8457885Y2564130D1*
X8459099Y2556510D1*
X8458892Y2548890D1*
X8457382Y2541270D1*
X8455301Y2533650D1*
X8453025Y2526030D1*
X8450245Y2518410D1*
X8446998Y2510790D1*
X8443643Y2503170D1*
X8440576Y2495550D1*
X8437870Y2487930D1*
X8796010Y2602230D2*
X8786080Y2594610D1*
X8778429Y2586990D1*
X8772675Y2579370D1*
X8768021Y2571750D1*
X8764133Y2564130D1*
X8761184Y2556510D1*
X8759425Y2548890D1*
X8758546Y2541270D1*
X8758158Y2533650D1*
X8757997Y2526030D1*
X8757910Y2518410D1*
X8826490Y2602230D2*
X8836160Y2594610D1*
X8843072Y2586990D1*
X8847733Y2579370D1*
X8851554Y2571750D1*
X8855213Y2564130D1*
X8858656Y2556510D1*
X8861423Y2548890D1*
X8863114Y2541270D1*
X8863969Y2533650D1*
X8864362Y2526030D1*
X8864590Y2518410D1*
X8018770Y2594610D2*
X8011445Y2586990D1*
X8006091Y2579370D1*
X8002050Y2571750D1*
X7999114Y2564130D1*
X7997387Y2556510D1*
X7996529Y2548890D1*
X7996122Y2541270D1*
X7995702Y2533650D1*
X7994703Y2526030D1*
X7993146Y2518410D1*
X7991676Y2510790D1*
X7993334Y2503170D1*
X7995910Y2495550D1*
X7992393Y2487930D1*
X7990204Y2480310D1*
X7989097Y2472690D1*
X7988605Y2465070D1*
X7988407Y2457450D1*
X7988361Y2449830D1*
X7988602Y2442210D1*
X7989563Y2434590D1*
X7991385Y2426970D1*
X7993338Y2419350D1*
X7994667Y2411730D1*
X7995373Y2404110D1*
X7995696Y2396490D1*
X7995860Y2388870D1*
X7996179Y2381250D1*
X7997199Y2373630D1*
X7999387Y2366010D1*
X8003191Y2358390D1*
X8008513Y2350770D1*
X8020419Y2343150D1*
X8034010Y2335530D1*
X8049250Y2594610D2*
X8057977Y2586990D1*
X8065675Y2579370D1*
X8068971Y2571750D1*
X8071041Y2564130D1*
X8072838Y2556510D1*
X8075003Y2548890D1*
X8077086Y2541270D1*
X8078462Y2533650D1*
X8079185Y2526030D1*
X8079514Y2518410D1*
X8079649Y2510790D1*
X8079731Y2503170D1*
X8080018Y2495550D1*
X8080966Y2487930D1*
X8082525Y2480310D1*
X8083508Y2472690D1*
X8083013Y2465070D1*
X8081766Y2457450D1*
X8080760Y2449830D1*
X8080187Y2442210D1*
X8079915Y2434590D1*
X8079800Y2426970D1*
X8079726Y2419350D1*
X8079441Y2411730D1*
X8078464Y2404110D1*
X8076637Y2396490D1*
X8074683Y2388870D1*
X8073324Y2381250D1*
X8072320Y2373630D1*
X8070698Y2366010D1*
X8068063Y2358390D1*
X8061132Y2350770D1*
X8052025Y2343150D1*
X8041630Y2335530D1*
X6433810Y2586990D2*
Y2579370D1*
Y2571750D1*
Y2564130D1*
Y2556510D1*
Y2548890D1*
Y2541270D1*
Y2533650D1*
Y2526030D1*
Y2518410D1*
Y2510790D1*
Y2503170D1*
X7607290Y2586990D2*
X7602595Y2579370D1*
X7598517Y2571750D1*
X7595437Y2564130D1*
X7593611Y2556510D1*
X7592704Y2548890D1*
X7592305Y2541270D1*
X7592144Y2533650D1*
X7592083Y2526030D1*
X7592061Y2518410D1*
X7592054Y2510790D1*
X7592051Y2503170D1*
X7592050Y2495550D1*
Y2487930D1*
Y2480310D1*
Y2472690D1*
Y2465070D1*
Y2457450D1*
Y2449830D1*
Y2442210D1*
Y2434590D1*
Y2426970D1*
Y2419350D1*
Y2411730D1*
Y2404110D1*
Y2396490D1*
Y2388870D1*
Y2381250D1*
Y2373630D1*
Y2366010D1*
Y2358390D1*
Y2350770D1*
Y2343150D1*
Y2335530D1*
Y2327910D1*
Y2320290D1*
Y2312670D1*
Y2305050D1*
Y2297430D1*
Y2289810D1*
Y2282190D1*
Y2274570D1*
Y2266950D1*
Y2259330D1*
X7653010Y2586990D2*
X7659132Y2579370D1*
X7663619Y2571750D1*
X7666438Y2564130D1*
X7668647Y2556510D1*
X7671007Y2548890D1*
X7673174Y2541270D1*
X7674583Y2533650D1*
X7675318Y2526030D1*
X7675651Y2518410D1*
X7675788Y2510790D1*
X7675841Y2503170D1*
X7675860Y2495550D1*
X7675867Y2487930D1*
X7675869Y2480310D1*
X7675870Y2472690D1*
Y2465070D1*
Y2457450D1*
Y2449830D1*
Y2442210D1*
Y2434590D1*
Y2426970D1*
Y2419350D1*
Y2411730D1*
Y2404110D1*
Y2396490D1*
Y2388870D1*
Y2381250D1*
Y2373630D1*
Y2366010D1*
Y2358390D1*
Y2350770D1*
Y2343150D1*
Y2335530D1*
Y2327910D1*
Y2320290D1*
Y2312670D1*
Y2305050D1*
Y2297430D1*
Y2289810D1*
Y2282190D1*
Y2274570D1*
Y2266950D1*
Y2259330D1*
X6609070Y2503170D2*
Y2495550D1*
Y2487930D1*
Y2480310D1*
Y2472690D1*
Y2465070D1*
Y2457450D1*
Y2449830D1*
Y2442210D1*
Y2434590D1*
Y2426970D1*
Y2419350D1*
Y2411730D1*
Y2404110D1*
Y2396490D1*
Y2388870D1*
Y2381250D1*
Y2373630D1*
Y2366010D1*
Y2358390D1*
X5603230Y2487930D2*
Y2480310D1*
Y2472690D1*
Y2465070D1*
Y2457450D1*
Y2449830D1*
Y2442210D1*
Y2434590D1*
Y2426970D1*
Y2419350D1*
Y2411730D1*
Y2404110D1*
Y2396490D1*
Y2388870D1*
Y2381250D1*
Y2373630D1*
Y2366010D1*
Y2358390D1*
Y2350770D1*
Y2343150D1*
Y2335530D1*
Y2327910D1*
Y2320290D1*
Y2312670D1*
Y2305050D1*
Y2297430D1*
Y2289810D1*
Y2282190D1*
Y2274570D1*
Y2266950D1*
X5740390Y2487930D2*
Y2480310D1*
Y2472690D1*
Y2465070D1*
Y2457450D1*
Y2449830D1*
Y2442210D1*
Y2434590D1*
Y2426970D1*
Y2419350D1*
Y2411730D1*
Y2404110D1*
Y2396490D1*
Y2388870D1*
Y2381250D1*
Y2373630D1*
Y2366010D1*
Y2358390D1*
Y2350770D1*
Y2343150D1*
Y2335530D1*
Y2327910D1*
Y2320290D1*
Y2312670D1*
Y2305050D1*
Y2297430D1*
Y2289810D1*
Y2282190D1*
Y2274570D1*
Y2266950D1*
X6014710Y2465070D2*
X5938510Y2457450D1*
Y2449830D1*
Y2442210D1*
Y2434590D1*
X5938540Y2426970D1*
X5938837Y2419350D1*
X5940076Y2411730D1*
X5942873Y2404110D1*
X5946651Y2396490D1*
X5949964Y2388870D1*
X5952297Y2381250D1*
X5954566Y2373630D1*
X5957849Y2366010D1*
X5962080Y2358390D1*
X5966434Y2350770D1*
X5970618Y2343150D1*
X5974879Y2335530D1*
X5979761Y2327910D1*
X5985731Y2320290D1*
X5992740Y2312670D1*
X6000744Y2305050D1*
X6009630Y2297430D1*
X6019590Y2289810D1*
X6031774Y2282190D1*
X6046951Y2274570D1*
X6064525Y2266950D1*
X6083290Y2259330D1*
X6045190Y2465070D2*
X6046368Y2457450D1*
X6048287Y2449830D1*
X6050527Y2442210D1*
X6052833Y2434590D1*
X6055396Y2426970D1*
X6057971Y2419350D1*
X6060673Y2411730D1*
X6064257Y2404110D1*
X6068675Y2396490D1*
X6073365Y2388870D1*
X6078529Y2381250D1*
X6084504Y2373630D1*
X6090910Y2366010D1*
X8864590Y2442210D2*
Y2434590D1*
Y2426970D1*
Y2419350D1*
Y2411730D1*
X8864560Y2404110D1*
X8864292Y2396490D1*
X8863291Y2388870D1*
X8861199Y2381250D1*
X8858244Y2373630D1*
X8854733Y2366010D1*
X8850225Y2358390D1*
X8844503Y2350770D1*
X8832517Y2343150D1*
X8818870Y2335530D1*
X8475970Y2426970D2*
X8483005Y2419350D1*
X8488215Y2411730D1*
X8489497Y2404110D1*
X8490064Y2396490D1*
X8473480Y2388870D1*
X8444136Y2381250D1*
X8402010Y2373630D1*
X8354050Y2366010D1*
X8635990Y2404110D2*
X8642112Y2396490D1*
X8646599Y2388870D1*
X8649418Y2381250D1*
X8651657Y2373630D1*
X8654285Y2366010D1*
X8657423Y2358390D1*
X8660687Y2350770D1*
X8663644Y2343150D1*
X8666336Y2335530D1*
X8669570Y2327910D1*
X8674140Y2320290D1*
X8680570Y2312670D1*
X8688604Y2305050D1*
X8697654Y2297430D1*
X8707827Y2289810D1*
X8719992Y2282190D1*
X8736797Y2274570D1*
X8760487Y2266950D1*
X8788390Y2259330D1*
X8757910Y2404110D2*
X8757940Y2396490D1*
X8758237Y2388870D1*
X8759476Y2381250D1*
X8762302Y2373630D1*
X8766438Y2366010D1*
X8771569Y2358390D1*
X8779033Y2350770D1*
X8790199Y2343150D1*
X8803630Y2335530D1*
X8384530Y2373630D2*
X8344830Y2366010D1*
X8312062Y2358390D1*
X8287883Y2350770D1*
X8270786Y2343150D1*
X8258483Y2335530D1*
X8249064Y2327910D1*
X8241826Y2320290D1*
X8236704Y2312670D1*
X8233041Y2305050D1*
X8229931Y2297430D1*
X8227426Y2289810D1*
X8225879Y2282190D1*
X8225091Y2274570D1*
X8224739Y2266950D1*
X8224595Y2259330D1*
X8224570Y2251710D1*
X8224818Y2244090D1*
X8225782Y2236470D1*
X8227635Y2228850D1*
X8229855Y2221230D1*
X8232185Y2213610D1*
X8235014Y2205990D1*
X8238560Y2198370D1*
X8243116Y2190750D1*
X8248922Y2183130D1*
X8255670Y2175510D1*
X8263221Y2167890D1*
X8272247Y2160270D1*
X8284407Y2152650D1*
X8302468Y2145030D1*
X8330915Y2137410D1*
X8372754Y2129790D1*
X8422630Y2122170D1*
X6388090Y2358390D2*
Y2350770D1*
Y2343150D1*
Y2335530D1*
Y2327910D1*
Y2320290D1*
Y2312670D1*
Y2305050D1*
Y2297430D1*
Y2289810D1*
Y2282190D1*
Y2274570D1*
Y2266950D1*
X8460730Y2282190D2*
Y2274570D1*
X8475970Y2282190D2*
X8484183Y2274570D1*
X8490478Y2266950D1*
X8494957Y2259330D1*
X8498458Y2251710D1*
X8502221Y2244090D1*
X8506450Y2236470D1*
X8502583Y2228850D1*
X8498832Y2221230D1*
X8493476Y2213610D1*
X8485488Y2205990D1*
X8475970Y2198370D1*
X8354050Y2274570D2*
X8347637Y2266950D1*
X8342204Y2259330D1*
X8337826Y2251710D1*
X8334664Y2244090D1*
X8333068Y2236470D1*
X8332564Y2228850D1*
X8335341Y2221230D1*
X8339527Y2213610D1*
X8349712Y2205990D1*
X8361670Y2198370D1*
X9849569Y7931860D2*
D86*
Y7829772D1*
X9781511Y7931860D2*
X9849569Y7863801D1*
X9825311Y7888172D2*
X9781511Y7829772D1*
X9745309Y7839543D2*
X9750138Y7834601D1*
X9745309Y7829772D1*
X9740368Y7834601D1*
X9745309Y7839543D1*
X9610238Y7878401D2*
X9566438D1*
X9551950Y7883231D1*
X9547009Y7888172D1*
X9542179Y7897831D1*
Y7912431D1*
X9547009Y7922089D1*
X9551950Y7927031D1*
X9566438Y7931860D1*
X9610238D1*
Y7829772D1*
X9510807Y7931860D2*
X9505978Y7927031D1*
X9501036Y7931860D1*
X9505978Y7936801D1*
X9510807Y7931860D1*
X9505978Y7897831D2*
Y7829772D1*
X9469664Y7897831D2*
Y7829772D1*
Y7878401D2*
X9455064Y7893001D1*
X9445293Y7897831D1*
X9430805D1*
X9421034Y7893001D1*
X9416205Y7878401D1*
Y7829772D1*
X9370233Y7931860D2*
Y7849201D1*
X9365403Y7834714D1*
X9355633Y7829772D1*
X9345974D1*
X9384833Y7897831D2*
X9350803D1*
X9290343D2*
X9300001Y7893001D1*
X9309772Y7883231D1*
X9314601Y7868631D1*
Y7858972D1*
X9309772Y7844372D1*
X9300001Y7834714D1*
X9290343Y7829772D1*
X9275743D1*
X9265972Y7834714D1*
X9256314Y7844372D1*
X9251372Y7858972D1*
Y7868631D1*
X9256314Y7883231D1*
X9265972Y7893001D1*
X9275743Y7897831D1*
X9290343D1*
X9220000D2*
Y7829772D1*
Y7878401D2*
X9205400Y7893001D1*
X9195629Y7897831D1*
X9181141D1*
X9171370Y7893001D1*
X9166541Y7878401D1*
Y7829772D1*
X9076881Y7893001D2*
Y7815172D1*
X9081710Y7800685D1*
X9086539Y7795743D1*
X9096310Y7790914D1*
X9110910D1*
X9120569Y7795743D1*
X9076881Y7878401D2*
X9086539Y7888060D1*
X9096310Y7893001D1*
X9110910D1*
X9120569Y7888060D1*
X9130339Y7878401D1*
X9135169Y7863801D1*
Y7854031D1*
X9130339Y7839543D1*
X9120569Y7829772D1*
X9110910Y7824943D1*
X9096310D1*
X9086539Y7829772D1*
X9076881Y7839543D1*
X8941810Y7907489D2*
Y7912318D1*
X8936981Y7922089D1*
X8932151Y7926918D1*
X8922381Y7931748D1*
X8902951D1*
X8893293Y7926918D1*
X8888464Y7922089D1*
X8883522Y7912318D1*
Y7902660D1*
X8888464Y7892889D1*
X8898122Y7878401D1*
X8946751Y7829772D1*
X8878693D1*
X8818120Y7931748D2*
X8832720Y7926918D1*
X8842491Y7912318D1*
X8847320Y7888060D1*
Y7873460D1*
X8842491Y7849201D1*
X8832720Y7834601D1*
X8818120Y7829772D1*
X8808462D1*
X8793862Y7834601D1*
X8784203Y7849201D1*
X8779262Y7873460D1*
Y7888060D1*
X8784203Y7912318D1*
X8793862Y7926918D1*
X8808462Y7931748D1*
X8818120D1*
X8784203Y7912318D2*
X8842491Y7849201D1*
X8747889Y7912318D2*
X8738119Y7917260D1*
X8723519Y7931748D1*
Y7829772D1*
X8667887Y7931748D2*
X8682375Y7926918D1*
X8687317Y7917260D1*
Y7907489D1*
X8682375Y7897831D1*
X8672717Y7892889D1*
X8653287Y7888060D1*
X8638687Y7883231D1*
X8629029Y7873460D1*
X8624200Y7863801D1*
Y7849201D1*
X8629029Y7839543D1*
X8633858Y7834601D1*
X8648458Y7829772D1*
X8667887D1*
X8682375Y7834601D1*
X8687317Y7839543D1*
X8692146Y7849201D1*
Y7863801D1*
X8687317Y7873460D1*
X8677546Y7883231D1*
X8663058Y7888060D1*
X8643629Y7892889D1*
X8633858Y7897831D1*
X8629029Y7907489D1*
Y7917260D1*
X8633858Y7926918D1*
X8648458Y7931748D1*
X8667887D1*
X8626967Y7271190D2*
X8602597Y7169102D1*
X8578338Y7271190D1*
X8554080Y7169102D1*
X8529709Y7271190D1*
X8440049Y7237161D2*
Y7169102D1*
Y7222561D2*
X8449707Y7232331D1*
X8459478Y7237161D1*
X8473966D1*
X8483736Y7232331D1*
X8493395Y7222561D1*
X8498336Y7207961D1*
Y7198302D1*
X8493395Y7183702D1*
X8483736Y7174044D1*
X8473966Y7169102D1*
X8459478D1*
X8449707Y7174044D1*
X8440049Y7183702D1*
X8408676Y7237161D2*
Y7169102D1*
Y7207961D2*
X8403735Y7222561D1*
X8394076Y7232331D1*
X8384305Y7237161D1*
X8369705D1*
X8338333D2*
Y7169102D1*
Y7217731D2*
X8323733Y7232331D1*
X8313962Y7237161D1*
X8299474D1*
X8289704Y7232331D1*
X8284874Y7217731D1*
Y7169102D1*
X8253502Y7271190D2*
X8248673Y7266361D1*
X8243731Y7271190D1*
X8248673Y7276131D1*
X8253502Y7271190D1*
X8248673Y7237161D2*
Y7169102D1*
X8212358Y7237161D2*
Y7169102D1*
Y7217731D2*
X8197758Y7232331D1*
X8187988Y7237161D1*
X8173500D1*
X8163729Y7232331D1*
X8158900Y7217731D1*
Y7169102D1*
X8069240Y7232331D2*
Y7154502D1*
X8074069Y7140015D1*
X8078898Y7135073D1*
X8088669Y7130244D1*
X8103269D1*
X8112927Y7135073D1*
X8069240Y7217731D2*
X8078898Y7227390D1*
X8088669Y7232331D1*
X8103269D1*
X8112927Y7227390D1*
X8122698Y7217731D1*
X8127527Y7203131D1*
Y7193361D1*
X8122698Y7178873D1*
X8112927Y7169102D1*
X8103269Y7164273D1*
X8088669D1*
X8078898Y7169102D1*
X8069240Y7178873D1*
X8032926Y7271078D2*
Y7203131D1*
Y7178873D2*
X8037867Y7173931D1*
X8032926Y7169102D1*
X8028096Y7173931D1*
X8032926Y7178873D1*
X8543217Y7096143D2*
Y6994056D1*
X8611275Y7096143D1*
Y6994056D1*
X8487586Y7062114D2*
X8497244Y7057285D1*
X8507015Y7047514D1*
X8511844Y7032914D1*
Y7023256D1*
X8507015Y7008656D1*
X8497244Y6998997D1*
X8487586Y6994056D1*
X8472986D1*
X8463215Y6998997D1*
X8453557Y7008656D1*
X8448615Y7023256D1*
Y7032914D1*
X8453557Y7047514D1*
X8463215Y7057285D1*
X8472986Y7062114D1*
X8487586D1*
X8402643Y7096143D2*
Y7013485D1*
X8397813Y6998997D1*
X8388043Y6994056D1*
X8378384D1*
X8417243Y7062114D2*
X8383213D1*
X8248255D2*
Y6994056D1*
Y7032914D2*
X8243313Y7047514D1*
X8233655Y7057285D1*
X8223884Y7062114D1*
X8209284D1*
X8177911Y7032914D2*
X8119624D1*
Y7042685D1*
X8124453Y7052456D1*
X8129282Y7057285D1*
X8139053Y7062114D1*
X8153653D1*
X8163311Y7057285D1*
X8173082Y7047514D1*
X8177911Y7032914D1*
Y7023256D1*
X8173082Y7008656D1*
X8163311Y6998997D1*
X8153653Y6994056D1*
X8139053D1*
X8129282Y6998997D1*
X8119624Y7008656D1*
X8034793Y7047514D2*
X8039622Y7057285D1*
X8054222Y7062114D1*
X8068822D1*
X8083422Y7057285D1*
X8088251Y7047514D1*
X8083422Y7037856D1*
X8073651Y7032914D1*
X8049393Y7028085D1*
X8039622Y7023256D1*
X8034793Y7013485D1*
Y7008656D1*
X8039622Y6998997D1*
X8054222Y6994056D1*
X8068822D1*
X8083422Y6998997D1*
X8088251Y7008656D1*
X8003420Y7062114D2*
Y6960026D1*
Y7047514D2*
X7993649Y7057173D1*
X7983991Y7062114D1*
X7969391D1*
X7959620Y7057173D1*
X7949961Y7047514D1*
X7945020Y7032914D1*
Y7023143D1*
X7949961Y7008656D1*
X7959620Y6998885D1*
X7969391Y6994056D1*
X7983991D1*
X7993649Y6998885D1*
X8003420Y7008656D1*
X7889389Y7062114D2*
X7899047Y7057285D1*
X7908818Y7047514D1*
X7913647Y7032914D1*
Y7023256D1*
X7908818Y7008656D1*
X7899047Y6998997D1*
X7889389Y6994056D1*
X7874789D1*
X7865018Y6998997D1*
X7855360Y7008656D1*
X7850418Y7023256D1*
Y7032914D1*
X7855360Y7047514D1*
X7865018Y7057285D1*
X7874789Y7062114D1*
X7889389D1*
X7819046D2*
Y6994056D1*
Y7042685D2*
X7804446Y7057285D1*
X7794675Y7062114D1*
X7780187D1*
X7770416Y7057285D1*
X7765587Y7042685D1*
Y6994056D1*
X7680756Y7047514D2*
X7685585Y7057285D1*
X7700185Y7062114D1*
X7714785D1*
X7729385Y7057285D1*
X7734215Y7047514D1*
X7729385Y7037856D1*
X7719615Y7032914D1*
X7695356Y7028085D1*
X7685585Y7023256D1*
X7680756Y7013485D1*
Y7008656D1*
X7685585Y6998997D1*
X7700185Y6994056D1*
X7714785D1*
X7729385Y6998997D1*
X7734215Y7008656D1*
X7649384Y7096143D2*
X7644554Y7091314D1*
X7639613Y7096143D1*
X7644554Y7101085D1*
X7649384Y7096143D1*
X7644554Y7062114D2*
Y6994056D1*
X7608240Y7096143D2*
Y6994056D1*
Y7047514D2*
X7598470Y7057285D1*
X7588811Y7062114D1*
X7574211D1*
X7564553Y7057285D1*
X7554782Y7047514D1*
X7549953Y7032914D1*
Y7023256D1*
X7554782Y7008656D1*
X7564553Y6998997D1*
X7574211Y6994056D1*
X7588811D1*
X7598470Y6998997D1*
X7608240Y7008656D1*
X7518580Y7096143D2*
Y6994056D1*
X7487207Y7032914D2*
X7428920D1*
Y7042685D1*
X7433749Y7052456D1*
X7438578Y7057285D1*
X7448349Y7062114D1*
X7462949D1*
X7472607Y7057285D1*
X7482378Y7047514D1*
X7487207Y7032914D1*
Y7023256D1*
X7482378Y7008656D1*
X7472607Y6998997D1*
X7462949Y6994056D1*
X7448349D1*
X7438578Y6998997D1*
X7428920Y7008656D1*
X8564202Y6901933D2*
X8573860D1*
X8583631Y6897104D1*
X8588460Y6882504D1*
Y6799846D1*
X8603060Y6867904D2*
X8569031D1*
X8508571D2*
X8518229Y6863075D1*
X8528000Y6853304D1*
X8532829Y6838704D1*
Y6829046D1*
X8528000Y6814446D1*
X8518229Y6804787D1*
X8508571Y6799846D1*
X8493971D1*
X8484200Y6804787D1*
X8474541Y6814446D1*
X8469600Y6829046D1*
Y6838704D1*
X8474541Y6853304D1*
X8484200Y6863075D1*
X8493971Y6867904D1*
X8508571D1*
X8438227D2*
Y6799846D1*
Y6838704D2*
X8433286Y6853304D1*
X8423627Y6863075D1*
X8413857Y6867904D1*
X8399257D1*
X8210839Y6901933D2*
Y6799846D1*
Y6853304D2*
X8220498Y6863075D1*
X8230268Y6867904D1*
X8244868D1*
X8254527Y6863075D1*
X8264298Y6853304D1*
X8269127Y6838704D1*
Y6829046D1*
X8264298Y6814446D1*
X8254527Y6804787D1*
X8244868Y6799846D1*
X8230268D1*
X8220498Y6804787D1*
X8210839Y6814446D1*
X8121179Y6867904D2*
Y6799846D1*
Y6853304D2*
X8130837Y6863075D1*
X8140608Y6867904D1*
X8155096D1*
X8164867Y6863075D1*
X8174525Y6853304D1*
X8179467Y6838704D1*
Y6829046D1*
X8174525Y6814446D1*
X8164867Y6804787D1*
X8155096Y6799846D1*
X8140608D1*
X8130837Y6804787D1*
X8121179Y6814446D1*
X8089806Y6867904D2*
Y6799846D1*
Y6848475D2*
X8075206Y6863075D1*
X8065436Y6867904D1*
X8050948D1*
X8041177Y6863075D1*
X8036348Y6848475D1*
Y6799846D1*
Y6848475D2*
X8021748Y6863075D1*
X8011977Y6867904D1*
X7997489D1*
X7987719Y6863075D1*
X7982777Y6848475D1*
Y6799846D1*
X7893117Y6867904D2*
Y6799846D1*
Y6853304D2*
X7902775Y6863075D1*
X7912546Y6867904D1*
X7927034D1*
X7936805Y6863075D1*
X7946463Y6853304D1*
X7951405Y6838704D1*
Y6829046D1*
X7946463Y6814446D1*
X7936805Y6804787D1*
X7927034Y6799846D1*
X7912546D1*
X7902775Y6804787D1*
X7893117Y6814446D1*
X7803457Y6863075D2*
Y6785246D1*
X7808286Y6770758D1*
X7813115Y6765816D1*
X7822886Y6760987D1*
X7837486D1*
X7847144Y6765816D1*
X7803457Y6848475D2*
X7813115Y6858133D1*
X7822886Y6863075D1*
X7837486D1*
X7847144Y6858133D1*
X7856915Y6848475D1*
X7861744Y6833875D1*
Y6824104D1*
X7856915Y6809616D1*
X7847144Y6799846D1*
X7837486Y6795016D1*
X7822886D1*
X7813115Y6799846D1*
X7803457Y6809616D1*
X7772084Y6838704D2*
X7713796D1*
Y6848475D1*
X7718626Y6858246D1*
X7723455Y6863075D1*
X7733226Y6867904D1*
X7747826D1*
X7757484Y6863075D1*
X7767255Y6853304D1*
X7772084Y6838704D1*
Y6829046D1*
X7767255Y6814446D1*
X7757484Y6804787D1*
X7747826Y6799846D1*
X7733226D1*
X7723455Y6804787D1*
X7713796Y6814446D1*
X7569067Y6901933D2*
Y6819275D1*
X7564237Y6804787D1*
X7554467Y6799846D1*
X7544808D1*
X7583667Y6867904D2*
X7549637D1*
X7489177D2*
X7498836Y6863075D1*
X7508606Y6853304D1*
X7513436Y6838704D1*
Y6829046D1*
X7508606Y6814446D1*
X7498836Y6804787D1*
X7489177Y6799846D1*
X7474577D1*
X7464806Y6804787D1*
X7455148Y6814446D1*
X7450206Y6829046D1*
Y6838704D1*
X7455148Y6853304D1*
X7464806Y6863075D1*
X7474577Y6867904D1*
X7489177D1*
X8588958Y6705244D2*
X8559871Y6637186D1*
X8569529Y6617756D1*
X8579300Y6607986D1*
X8588958Y6603156D1*
X8593900D1*
X8530671Y6705244D2*
X8559871Y6637186D1*
X8475040Y6705244D2*
X8484698Y6700415D1*
X8494469Y6690644D1*
X8499298Y6676044D1*
Y6666386D1*
X8494469Y6651786D1*
X8484698Y6642127D1*
X8475040Y6637186D1*
X8460440D1*
X8450669Y6642127D1*
X8441010Y6651786D1*
X8436069Y6666386D1*
Y6676044D1*
X8441010Y6690644D1*
X8450669Y6700415D1*
X8460440Y6705244D1*
X8475040D1*
X8404696D2*
Y6656615D1*
X8399867Y6642127D1*
X8390096Y6637186D1*
X8375496D1*
X8365838Y6642127D1*
X8351238Y6656615D1*
Y6705244D2*
Y6637186D1*
X8319865Y6705244D2*
Y6637186D1*
Y6676044D2*
X8314924Y6690644D1*
X8305265Y6700415D1*
X8295495Y6705244D1*
X8280895D1*
X8092365Y6690644D2*
X8102136Y6700415D1*
X8111906Y6705244D1*
X8126394D1*
X8136165Y6700415D1*
X8145823Y6690644D1*
X8150765Y6676044D1*
Y6666386D1*
X8145823Y6651786D1*
X8136165Y6642127D1*
X8126394Y6637186D1*
X8111906D1*
X8102136Y6642127D1*
X8092365Y6651786D1*
X8036734Y6705244D2*
X8046392Y6700415D1*
X8056163Y6690644D1*
X8060992Y6676044D1*
Y6666386D1*
X8056163Y6651786D1*
X8046392Y6642127D1*
X8036734Y6637186D1*
X8022134D1*
X8012363Y6642127D1*
X8002705Y6651786D1*
X7997763Y6666386D1*
Y6676044D1*
X8002705Y6690644D1*
X8012363Y6700415D1*
X8022134Y6705244D1*
X8036734D1*
X7966390D2*
Y6637186D1*
Y6685815D2*
X7951790Y6700415D1*
X7942020Y6705244D1*
X7927532D1*
X7917761Y6700415D1*
X7912932Y6685815D1*
Y6637186D1*
Y6685815D2*
X7898332Y6700415D1*
X7888561Y6705244D1*
X7874074D1*
X7864303Y6700415D1*
X7859361Y6685815D1*
Y6637186D1*
X7827989Y6705244D2*
Y6603156D1*
Y6690644D2*
X7818218Y6700303D1*
X7808559Y6705244D1*
X7793959D1*
X7784189Y6700303D1*
X7774530Y6690644D1*
X7769589Y6676044D1*
Y6666273D1*
X7774530Y6651786D1*
X7784189Y6642015D1*
X7793959Y6637186D1*
X7808559D1*
X7818218Y6642015D1*
X7827989Y6651786D1*
X7738216Y6705244D2*
Y6656615D1*
X7733387Y6642127D1*
X7723616Y6637186D1*
X7709016D1*
X7699358Y6642127D1*
X7684758Y6656615D1*
Y6705244D2*
Y6637186D1*
X7638785Y6739273D2*
Y6656615D1*
X7633956Y6642127D1*
X7624185Y6637186D1*
X7614527D1*
X7653385Y6705244D2*
X7619356D1*
X7583154Y6676044D2*
X7524866D1*
Y6685815D1*
X7529696Y6695586D1*
X7534525Y6700415D1*
X7544296Y6705244D1*
X7558896D1*
X7568554Y6700415D1*
X7578325Y6690644D1*
X7583154Y6676044D1*
Y6666386D1*
X7578325Y6651786D1*
X7568554Y6642127D1*
X7558896Y6637186D1*
X7544296D1*
X7534525Y6642127D1*
X7524866Y6651786D1*
X7493494Y6705244D2*
Y6637186D1*
Y6676044D2*
X7488552Y6690644D1*
X7478894Y6700415D1*
X7469123Y6705244D1*
X7454523D1*
X9189815Y5933838D2*
D91*
X9135206D1*
X9116956Y5940015D1*
X9110779Y5946052D1*
X9104742Y5958125D1*
Y5970338D1*
X9110779Y5982411D1*
X9116956Y5988588D1*
X9135206Y5994625D1*
X9189815D1*
Y5867015D1*
X9147279Y5933838D2*
X9104742Y5867015D1*
X9065526Y5915588D2*
X8992667D1*
Y5927802D1*
X8998703Y5940015D1*
X9004740Y5946052D1*
X9016953Y5952088D1*
X9035203D1*
X9047276Y5946052D1*
X9059490Y5933838D1*
X9065526Y5915588D1*
Y5903515D1*
X9059490Y5885265D1*
X9047276Y5873192D1*
X9035203Y5867015D1*
X9016953D1*
X9004740Y5873192D1*
X8992667Y5885265D1*
X8880592Y5952088D2*
Y5867015D1*
Y5933838D2*
X8892665Y5946052D1*
X8904878Y5952088D1*
X8922988D1*
X8935201Y5946052D1*
X8947274Y5933838D1*
X8953451Y5915588D1*
Y5903515D1*
X8947274Y5885265D1*
X8935201Y5873192D1*
X8922988Y5867015D1*
X8904878D1*
X8892665Y5873192D1*
X8880592Y5885265D1*
X8768516Y5994625D2*
Y5867015D1*
Y5933838D2*
X8780589Y5946052D1*
X8792803Y5952088D1*
X8811053D1*
X8823126Y5946052D1*
X8835339Y5933838D1*
X8841376Y5915588D1*
Y5903515D1*
X8835339Y5885265D1*
X8823126Y5873192D1*
X8811053Y5867015D1*
X8792803D1*
X8780589Y5873192D1*
X8768516Y5885265D1*
X8605854Y5994625D2*
X8599818Y5988588D1*
X8593641Y5994625D1*
X8599818Y6000802D1*
X8605854Y5994625D1*
X8599818Y5952088D2*
Y5867015D1*
X8554425Y5952088D2*
Y5867015D1*
Y5927802D2*
X8536175Y5946052D1*
X8523961Y5952088D1*
X8505852D1*
X8493638Y5946052D1*
X8487602Y5927802D1*
Y5867015D1*
X8381563Y5933838D2*
X8387600Y5946052D1*
X8405850Y5952088D1*
X8424100D1*
X8442350Y5946052D1*
X8448386Y5933838D1*
X8442350Y5921765D1*
X8430136Y5915588D1*
X8399813Y5909552D1*
X8387600Y5903515D1*
X8381563Y5891302D1*
Y5885265D1*
X8387600Y5873192D1*
X8405850Y5867015D1*
X8424100D1*
X8442350Y5873192D1*
X8448386Y5885265D1*
X8324097Y5994625D2*
Y5891302D1*
X8318061Y5873192D1*
X8305847Y5867015D1*
X8293774D1*
X8342347Y5952088D2*
X8299811D1*
X8254559D2*
Y5867015D1*
Y5915588D2*
X8248382Y5933838D1*
X8236309Y5946052D1*
X8224095Y5952088D1*
X8205845D1*
X8166629D2*
Y5891302D1*
X8160593Y5873192D1*
X8148379Y5867015D1*
X8130129D1*
X8118056Y5873192D1*
X8099806Y5891302D1*
Y5952088D2*
Y5867015D1*
X7987591Y5933838D2*
X7999804Y5946052D1*
X8012018Y5952088D1*
X8030127D1*
X8042341Y5946052D1*
X8054414Y5933838D1*
X8060591Y5915588D1*
Y5903515D1*
X8054414Y5885265D1*
X8042341Y5873192D1*
X8030127Y5867015D1*
X8012018D1*
X7999804Y5873192D1*
X7987591Y5885265D1*
X7930125Y5994625D2*
Y5891302D1*
X7924089Y5873192D1*
X7911875Y5867015D1*
X7899802D1*
X7948375Y5952088D2*
X7905839D1*
X7860586Y5994625D2*
X7854550Y5988588D1*
X7848373Y5994625D1*
X7854550Y6000802D1*
X7860586Y5994625D1*
X7854550Y5952088D2*
Y5867015D1*
X7778834Y5952088D2*
X7790907Y5946052D1*
X7803121Y5933838D1*
X7809157Y5915588D1*
Y5903515D1*
X7803121Y5885265D1*
X7790907Y5873192D1*
X7778834Y5867015D1*
X7760584D1*
X7748371Y5873192D1*
X7736298Y5885265D1*
X7730121Y5903515D1*
Y5915588D1*
X7736298Y5933838D1*
X7748371Y5946052D1*
X7760584Y5952088D1*
X7778834D1*
X7690905D2*
Y5867015D1*
Y5927802D2*
X7672655Y5946052D1*
X7660441Y5952088D1*
X7642332D1*
X7630118Y5946052D1*
X7624082Y5927802D1*
Y5867015D1*
X7518043Y5933838D2*
X7524080Y5946052D1*
X7542330Y5952088D1*
X7560580D1*
X7578830Y5946052D1*
X7584866Y5933838D1*
X7578830Y5921765D1*
X7566616Y5915588D1*
X7536293Y5909552D1*
X7524080Y5903515D1*
X7518043Y5891302D1*
Y5885265D1*
X7524080Y5873192D1*
X7542330Y5867015D1*
X7560580D1*
X7578830Y5873192D1*
X7584866Y5885265D1*
X7472791Y5879229D2*
X7478827Y5873052D1*
X7472791Y5867015D1*
X7466614Y5873052D1*
X7472791Y5879229D1*
X5941722Y6622376D2*
D88*
X5876022D1*
X5854291Y6629619D1*
X5846879Y6637032D1*
X5839635Y6651519D1*
Y6673419D1*
X5846879Y6687907D1*
X5854291Y6695319D1*
X5876022Y6702563D1*
X5941722D1*
Y6549432D1*
X5792576Y6651519D2*
Y6549432D1*
Y6607719D2*
X5785164Y6629619D1*
X5770676Y6644276D1*
X5756020Y6651519D1*
X5734120D1*
X5650673D2*
X5665161Y6644276D1*
X5679817Y6629619D1*
X5687061Y6607719D1*
Y6593232D1*
X5679817Y6571332D1*
X5665161Y6556844D1*
X5650673Y6549432D1*
X5628773D1*
X5614117Y6556844D1*
X5599629Y6571332D1*
X5592217Y6593232D1*
Y6607719D1*
X5599629Y6629619D1*
X5614117Y6644276D1*
X5628773Y6651519D1*
X5650673D1*
X5457727Y6644276D2*
Y6527532D1*
X5464971Y6505800D1*
X5472214Y6498388D1*
X5486871Y6491144D1*
X5508771D1*
X5523258Y6498388D1*
X5457727Y6622376D2*
X5472214Y6636863D1*
X5486871Y6644276D1*
X5508771D1*
X5523258Y6636863D1*
X5537914Y6622376D1*
X5545158Y6600476D1*
Y6585819D1*
X5537914Y6564088D1*
X5523258Y6549432D1*
X5508771Y6542188D1*
X5486871D1*
X5472214Y6549432D1*
X5457727Y6564088D1*
X5410668Y6651519D2*
Y6549432D1*
Y6607719D2*
X5403256Y6629619D1*
X5388768Y6644276D1*
X5374112Y6651519D1*
X5352212D1*
X5217721D2*
Y6549432D1*
Y6629619D2*
X5232209Y6644276D1*
X5246865Y6651519D1*
X5268597D1*
X5283253Y6644276D1*
X5297741Y6629619D1*
X5305153Y6607719D1*
Y6593232D1*
X5297741Y6571332D1*
X5283253Y6556844D1*
X5268597Y6549432D1*
X5246865D1*
X5232209Y6556844D1*
X5217721Y6571332D1*
X5170663Y6651519D2*
Y6549432D1*
Y6622376D2*
X5148763Y6644276D1*
X5134106Y6651519D1*
X5112375D1*
X5097719Y6644276D1*
X5090475Y6622376D1*
Y6549432D1*
Y6622376D2*
X5068575Y6644276D1*
X5053919Y6651519D1*
X5032187D1*
X5017531Y6644276D1*
X5010119Y6622376D1*
Y6549432D1*
X4963060Y6651519D2*
Y6549432D1*
Y6622376D2*
X4941160Y6644276D1*
X4926504Y6651519D1*
X4904772D1*
X4890116Y6644276D1*
X4882872Y6622376D1*
Y6549432D1*
Y6622376D2*
X4860972Y6644276D1*
X4846316Y6651519D1*
X4824584D1*
X4809928Y6644276D1*
X4802516Y6622376D1*
Y6549432D1*
X4755457Y6702563D2*
X4748213Y6695319D1*
X4740801Y6702563D1*
X4748213Y6709976D1*
X4755457Y6702563D1*
X4748213Y6651519D2*
Y6549432D1*
X4693742Y6651519D2*
Y6549432D1*
Y6622376D2*
X4671842Y6644276D1*
X4657186Y6651519D1*
X4635454D1*
X4620798Y6644276D1*
X4613554Y6622376D1*
Y6549432D1*
X4479064Y6644276D2*
Y6527532D1*
X4486308Y6505800D1*
X4493552Y6498388D1*
X4508208Y6491144D1*
X4530108D1*
X4544596Y6498388D1*
X4479064Y6622376D2*
X4493552Y6636863D1*
X4508208Y6644276D1*
X4530108D1*
X4544596Y6636863D1*
X4559252Y6622376D1*
X4566496Y6600476D1*
Y6585819D1*
X4559252Y6564088D1*
X4544596Y6549432D1*
X4530108Y6542188D1*
X4508208D1*
X4493552Y6549432D1*
X4479064Y6564088D1*
X4283870Y6702563D2*
X4276626Y6695319D1*
X4269213Y6702563D1*
X4276626Y6709976D1*
X4283870Y6702563D1*
X4276626Y6651519D2*
Y6549432D1*
X4222155Y6651519D2*
Y6549432D1*
Y6622376D2*
X4200255Y6644276D1*
X4185598Y6651519D1*
X4163867D1*
X4149211Y6644276D1*
X4141967Y6622376D1*
Y6549432D1*
X4014720Y6629619D2*
X4021964Y6644276D1*
X4043864Y6651519D1*
X4065764D1*
X4087664Y6644276D1*
X4094908Y6629619D1*
X4087664Y6615132D1*
X4073008Y6607719D1*
X4036620Y6600476D1*
X4021964Y6593232D1*
X4014720Y6578576D1*
Y6571332D1*
X4021964Y6556844D1*
X4043864Y6549432D1*
X4065764D1*
X4087664Y6556844D1*
X4094908Y6571332D1*
X3945762Y6702563D2*
Y6578576D1*
X3938518Y6556844D1*
X3923862Y6549432D1*
X3909374D1*
X3967662Y6651519D2*
X3916618D1*
X3862315D2*
Y6549432D1*
Y6607719D2*
X3854903Y6629619D1*
X3840415Y6644276D1*
X3825759Y6651519D1*
X3803859D1*
X3756800D2*
Y6578576D1*
X3749556Y6556844D1*
X3734900Y6549432D1*
X3713000D1*
X3698512Y6556844D1*
X3676612Y6578576D1*
Y6651519D2*
Y6549432D1*
X3541954Y6629619D2*
X3556610Y6644276D1*
X3571266Y6651519D1*
X3592997D1*
X3607654Y6644276D1*
X3622141Y6629619D1*
X3629554Y6607719D1*
Y6593232D1*
X3622141Y6571332D1*
X3607654Y6556844D1*
X3592997Y6549432D1*
X3571266D1*
X3556610Y6556844D1*
X3541954Y6571332D1*
X3472995Y6702563D2*
Y6578576D1*
X3465751Y6556844D1*
X3451095Y6549432D1*
X3436607D1*
X3494895Y6651519D2*
X3443851D1*
X3389548Y6702563D2*
X3382304Y6695319D1*
X3374892Y6702563D1*
X3382304Y6709976D1*
X3389548Y6702563D1*
X3382304Y6651519D2*
Y6549432D1*
X3291446Y6651519D2*
X3305933Y6644276D1*
X3320589Y6629619D1*
X3327833Y6607719D1*
Y6593232D1*
X3320589Y6571332D1*
X3305933Y6556844D1*
X3291446Y6549432D1*
X3269546D1*
X3254889Y6556844D1*
X3240402Y6571332D1*
X3232989Y6593232D1*
Y6607719D1*
X3240402Y6629619D1*
X3254889Y6644276D1*
X3269546Y6651519D1*
X3291446D1*
X3185931D2*
Y6549432D1*
Y6622376D2*
X3164031Y6644276D1*
X3149374Y6651519D1*
X3127643D1*
X3112987Y6644276D1*
X3105743Y6622376D1*
Y6549432D1*
X2978496Y6629619D2*
X2985740Y6644276D1*
X3007640Y6651519D1*
X3029540D1*
X3051440Y6644276D1*
X3058684Y6629619D1*
X3051440Y6615132D1*
X3036784Y6607719D1*
X3000396Y6600476D1*
X2985740Y6593232D1*
X2978496Y6578576D1*
Y6571332D1*
X2985740Y6556844D1*
X3007640Y6549432D1*
X3029540D1*
X3051440Y6556844D1*
X3058684Y6571332D1*
X2924025Y6651519D2*
X2931438Y6644107D1*
X2924025Y6636863D1*
X2916781Y6644107D1*
X2924025Y6651519D1*
Y6564088D2*
X2931438Y6556676D1*
X2924025Y6549432D1*
X2916781Y6556676D1*
X2924025Y6564088D1*
X6443692Y6241356D2*
X6458179Y6234112D1*
X6472835Y6219456D1*
X6480079Y6197556D1*
Y6183068D1*
X6472835Y6161168D1*
X6458179Y6146681D1*
X6443692Y6139268D1*
X6421792D1*
X6407135Y6146681D1*
X6392648Y6161168D1*
X6385235Y6183068D1*
Y6197556D1*
X6392648Y6219456D1*
X6407135Y6234112D1*
X6421792Y6241356D1*
X6443692D1*
X6338177Y6292400D2*
X6330933Y6285156D1*
X6323520Y6292400D1*
X6330933Y6299812D1*
X6338177Y6292400D1*
X6330933Y6241356D2*
Y6139268D1*
X6254562Y6292400D2*
Y6168412D1*
X6247318Y6146681D1*
X6232662Y6139268D1*
X6218174D1*
X6276462Y6241356D2*
X6225418D1*
X6163871Y6153925D2*
X6171115Y6146512D1*
X6163871Y6139268D1*
X6156459Y6146512D1*
X6163871Y6153925D1*
X6109400Y6197556D2*
X6021969D1*
Y6212212D1*
X6029212Y6226868D1*
X6036456Y6234112D1*
X6051112Y6241356D1*
X6073012D1*
X6087500Y6234112D1*
X6102156Y6219456D1*
X6109400Y6197556D1*
Y6183068D1*
X6102156Y6161168D1*
X6087500Y6146681D1*
X6073012Y6139268D1*
X6051112D1*
X6036456Y6146681D1*
X6021969Y6161168D1*
X5887478Y6292400D2*
Y6139268D1*
Y6219456D2*
X5901966Y6234112D1*
X5916622Y6241356D1*
X5938522D1*
X5953010Y6234112D1*
X5967666Y6219456D1*
X5974910Y6197556D1*
Y6183068D1*
X5967666Y6161168D1*
X5953010Y6146681D1*
X5938522Y6139268D1*
X5916622D1*
X5901966Y6146681D1*
X5887478Y6161168D1*
X5840419Y6241356D2*
Y6168412D1*
X5833176Y6146681D1*
X5818519Y6139268D1*
X5796619D1*
X5782132Y6146681D1*
X5760232Y6168412D1*
Y6241356D2*
Y6139268D1*
X5713173D2*
X5611085Y6292231D1*
X5476426Y6219456D2*
X5491083Y6234112D1*
X5505739Y6241356D1*
X5527470D1*
X5542126Y6234112D1*
X5556614Y6219456D1*
X5564026Y6197556D1*
Y6183068D1*
X5556614Y6161168D1*
X5542126Y6146681D1*
X5527470Y6139268D1*
X5505739D1*
X5491083Y6146681D1*
X5476426Y6161168D1*
X5429368Y6197556D2*
X5341936D1*
Y6212212D1*
X5349180Y6226868D1*
X5356424Y6234112D1*
X5371080Y6241356D1*
X5392980D1*
X5407468Y6234112D1*
X5422124Y6219456D1*
X5429368Y6197556D1*
Y6183068D1*
X5422124Y6161168D1*
X5407468Y6146681D1*
X5392980Y6139268D1*
X5371080D1*
X5356424Y6146681D1*
X5341936Y6161168D1*
X5272977Y6292400D2*
Y6168412D1*
X5265733Y6146681D1*
X5251077Y6139268D1*
X5236589D1*
X5294877Y6241356D2*
X5243833D1*
X5189531Y6139268D2*
X5087443Y6292231D1*
X5003996Y6241356D2*
X5018484Y6234112D1*
X5033140Y6219456D1*
X5040384Y6197556D1*
Y6183068D1*
X5033140Y6161168D1*
X5018484Y6146681D1*
X5003996Y6139268D1*
X4982096D1*
X4967440Y6146681D1*
X4952953Y6161168D1*
X4945540Y6183068D1*
Y6197556D1*
X4952953Y6219456D1*
X4967440Y6234112D1*
X4982096Y6241356D1*
X5003996D1*
X4898481D2*
Y6088225D1*
Y6219456D2*
X4883825Y6233944D1*
X4869338Y6241356D1*
X4847438D1*
X4832781Y6233944D1*
X4818294Y6219456D1*
X4810881Y6197556D1*
Y6182900D1*
X4818294Y6161168D1*
X4832781Y6146512D1*
X4847438Y6139268D1*
X4869338D1*
X4883825Y6146512D1*
X4898481Y6161168D1*
X4763823Y6197556D2*
X4676391D1*
Y6212212D1*
X4683635Y6226868D1*
X4690879Y6234112D1*
X4705535Y6241356D1*
X4727435D1*
X4741923Y6234112D1*
X4756579Y6219456D1*
X4763823Y6197556D1*
Y6183068D1*
X4756579Y6161168D1*
X4741923Y6146681D1*
X4727435Y6139268D1*
X4705535D1*
X4690879Y6146681D1*
X4676391Y6161168D1*
X4629332Y6241356D2*
Y6139268D1*
Y6212212D2*
X4607432Y6234112D1*
X4592776Y6241356D1*
X4571045D1*
X4556388Y6234112D1*
X4549145Y6212212D1*
Y6139268D1*
X4502086Y6215750D2*
X4417855D1*
X4290608Y6219456D2*
X4297852Y6234112D1*
X4319752Y6241356D1*
X4341652D1*
X4363552Y6234112D1*
X4370796Y6219456D1*
X4363552Y6204968D1*
X4348896Y6197556D1*
X4312508Y6190312D1*
X4297852Y6183068D1*
X4290608Y6168412D1*
Y6161168D1*
X4297852Y6146681D1*
X4319752Y6139268D1*
X4341652D1*
X4363552Y6146681D1*
X4370796Y6161168D1*
X4207162Y6241356D2*
X4221650Y6234112D1*
X4236306Y6219456D1*
X4243550Y6197556D1*
Y6183068D1*
X4236306Y6161168D1*
X4221650Y6146681D1*
X4207162Y6139268D1*
X4185262D1*
X4170606Y6146681D1*
X4156118Y6161168D1*
X4148706Y6183068D1*
Y6197556D1*
X4156118Y6219456D1*
X4170606Y6234112D1*
X4185262Y6241356D1*
X4207162D1*
X4101647D2*
Y6168412D1*
X4094403Y6146681D1*
X4079747Y6139268D1*
X4057847D1*
X4043359Y6146681D1*
X4021459Y6168412D1*
Y6241356D2*
Y6139268D1*
X3974400Y6241356D2*
Y6139268D1*
Y6197556D2*
X3966988Y6219456D1*
X3952500Y6234112D1*
X3937844Y6241356D1*
X3915944D1*
X3781286Y6219456D2*
X3795942Y6234112D1*
X3810598Y6241356D1*
X3832329D1*
X3846986Y6234112D1*
X3861473Y6219456D1*
X3868886Y6197556D1*
Y6183068D1*
X3861473Y6161168D1*
X3846986Y6146681D1*
X3832329Y6139268D1*
X3810598D1*
X3795942Y6146681D1*
X3781286Y6161168D1*
X3734227Y6197556D2*
X3646795D1*
Y6212212D1*
X3654039Y6226868D1*
X3661283Y6234112D1*
X3675939Y6241356D1*
X3697839D1*
X3712327Y6234112D1*
X3726983Y6219456D1*
X3734227Y6197556D1*
Y6183068D1*
X3726983Y6161168D1*
X3712327Y6146681D1*
X3697839Y6139268D1*
X3675939D1*
X3661283Y6146681D1*
X3646795Y6161168D1*
X3599736Y6215750D2*
X3515506D1*
X3468447Y6241356D2*
Y6088225D1*
Y6219456D2*
X3453791Y6233944D1*
X3439303Y6241356D1*
X3417403D1*
X3402747Y6233944D1*
X3388259Y6219456D1*
X3380847Y6197556D1*
Y6182900D1*
X3388259Y6161168D1*
X3402747Y6146512D1*
X3417403Y6139268D1*
X3439303D1*
X3453791Y6146512D1*
X3468447Y6161168D1*
X3333788Y6241356D2*
Y6139268D1*
Y6197556D2*
X3326376Y6219456D1*
X3311888Y6234112D1*
X3297232Y6241356D1*
X3275332D1*
X3191885D2*
X3206373Y6234112D1*
X3221029Y6219456D1*
X3228273Y6197556D1*
Y6183068D1*
X3221029Y6161168D1*
X3206373Y6146681D1*
X3191885Y6139268D1*
X3169985D1*
X3155329Y6146681D1*
X3140841Y6161168D1*
X3133429Y6183068D1*
Y6197556D1*
X3140841Y6219456D1*
X3155329Y6234112D1*
X3169985Y6241356D1*
X3191885D1*
X3057226Y6292568D2*
X3049814Y6285325D1*
X3042570Y6292568D1*
X3049814Y6299812D1*
X3057226Y6292568D1*
X3049814Y6241525D2*
Y6117537D1*
X3057226Y6095637D1*
X3071714Y6088393D1*
X3086370D1*
X2995511Y6197556D2*
X2908080D1*
Y6212212D1*
X2915324Y6226868D1*
X2922568Y6234112D1*
X2937224Y6241356D1*
X2959124D1*
X2973611Y6234112D1*
X2988268Y6219456D1*
X2995511Y6197556D1*
Y6183068D1*
X2988268Y6161168D1*
X2973611Y6146681D1*
X2959124Y6139268D1*
X2937224D1*
X2922568Y6146681D1*
X2908080Y6161168D1*
X2773421Y6219456D2*
X2788077Y6234112D1*
X2802733Y6241356D1*
X2824465D1*
X2839121Y6234112D1*
X2853609Y6219456D1*
X2861021Y6197556D1*
Y6183068D1*
X2853609Y6161168D1*
X2839121Y6146681D1*
X2824465Y6139268D1*
X2802733D1*
X2788077Y6146681D1*
X2773421Y6161168D1*
X2704462Y6292400D2*
Y6168412D1*
X2697218Y6146681D1*
X2682562Y6139268D1*
X2668075D1*
X2726362Y6241356D2*
X2675318D1*
X2540828Y6219456D2*
X2548072Y6234112D1*
X2569972Y6241356D1*
X2591872D1*
X2613772Y6234112D1*
X2621016Y6219456D1*
X2613772Y6204968D1*
X2599116Y6197556D1*
X2562728Y6190312D1*
X2548072Y6183068D1*
X2540828Y6168412D1*
Y6161168D1*
X2548072Y6146681D1*
X2569972Y6139268D1*
X2591872D1*
X2613772Y6146681D1*
X2621016Y6161168D1*
X9897714Y1939472D2*
D89*
Y1760818D1*
X9838163D1*
X9812613Y1769466D1*
X9795514Y1786368D1*
X9787063Y1803467D1*
X9778612Y1828820D1*
Y1871469D1*
X9787063Y1897019D1*
X9795514Y1913922D1*
X9812613Y1931020D1*
X9838163Y1939472D1*
X9897714D1*
X9723710Y1828820D2*
X9621706D1*
Y1845919D1*
X9630157Y1863018D1*
X9638609Y1871469D1*
X9655707Y1879920D1*
X9681257D1*
X9698160Y1871469D1*
X9715259Y1854370D1*
X9723710Y1828820D1*
Y1811918D1*
X9715259Y1786368D1*
X9698160Y1769466D1*
X9681257Y1760818D1*
X9655707D1*
X9638609Y1769466D1*
X9621706Y1786368D1*
X9566804Y1879920D2*
Y1701267D1*
Y1854370D2*
X9549706Y1871273D1*
X9532803Y1879920D1*
X9507253D1*
X9490154Y1871273D1*
X9473252Y1854370D1*
X9464604Y1828820D1*
Y1811722D1*
X9473252Y1786368D1*
X9490154Y1769269D1*
X9507253Y1760818D1*
X9532803D1*
X9549706Y1769269D1*
X9566804Y1786368D1*
X9307699Y1879920D2*
Y1760818D1*
Y1854370D2*
X9324601Y1871469D1*
X9341700Y1879920D1*
X9367054D1*
X9384152Y1871469D1*
X9401055Y1854370D1*
X9409702Y1828820D1*
Y1811918D1*
X9401055Y1786368D1*
X9384152Y1769466D1*
X9367054Y1760818D1*
X9341700D1*
X9324601Y1769466D1*
X9307699Y1786368D1*
X9252797Y1879920D2*
Y1760818D1*
Y1828820D2*
X9244149Y1854370D1*
X9227247Y1871469D1*
X9210148Y1879920D1*
X9184598D1*
X9104146Y1939472D2*
Y1794819D1*
X9095695Y1769466D1*
X9078596Y1760818D1*
X9061694D1*
X9129696Y1879920D2*
X9070145D1*
X9006792D2*
Y1760818D1*
Y1845919D2*
X8981242Y1871469D1*
X8964143Y1879920D1*
X8938790D1*
X8921691Y1871469D1*
X8913240Y1845919D1*
Y1760818D1*
Y1845919D2*
X8887690Y1871469D1*
X8870591Y1879920D1*
X8845237D1*
X8828138Y1871469D1*
X8819491Y1845919D1*
Y1760818D1*
X8764589Y1828820D2*
X8662585D1*
Y1845919D1*
X8671036Y1863018D1*
X8679488Y1871469D1*
X8696586Y1879920D1*
X8722136D1*
X8739039Y1871469D1*
X8756138Y1854370D1*
X8764589Y1828820D1*
Y1811918D1*
X8756138Y1786368D1*
X8739039Y1769466D1*
X8722136Y1760818D1*
X8696586D1*
X8679488Y1769466D1*
X8662585Y1786368D1*
X8607683Y1879920D2*
Y1760818D1*
Y1845919D2*
X8582133Y1871469D1*
X8565035Y1879920D1*
X8539681D1*
X8522582Y1871469D1*
X8514131Y1845919D1*
Y1760818D1*
X8433679Y1939472D2*
Y1794819D1*
X8425228Y1769466D1*
X8408129Y1760818D1*
X8391227D1*
X8459229Y1879920D2*
X8399678D1*
X8121047D2*
X8137950Y1871469D1*
X8155049Y1854370D1*
X8163500Y1828820D1*
Y1811918D1*
X8155049Y1786368D1*
X8137950Y1769466D1*
X8121047Y1760818D1*
X8095497D1*
X8078399Y1769466D1*
X8061496Y1786368D1*
X8052849Y1811918D1*
Y1828820D1*
X8061496Y1854370D1*
X8078399Y1871469D1*
X8095497Y1879920D1*
X8121047D1*
X7929944Y1939472D2*
X7946847D1*
X7963946Y1931020D1*
X7972397Y1905470D1*
Y1760818D1*
X7997947Y1879920D2*
X7938396D1*
X7574664Y1897019D2*
X7583115Y1913922D1*
X7600214Y1931020D1*
X7617116Y1939472D1*
X7651117D1*
X7668216Y1931020D1*
X7685119Y1913922D1*
X7693766Y1897019D1*
X7702217Y1871469D1*
Y1828820D1*
X7693766Y1803467D1*
X7685119Y1786368D1*
X7668216Y1769466D1*
X7651117Y1760818D1*
X7617116D1*
X7600214Y1769466D1*
X7583115Y1786368D1*
X7574664Y1803467D1*
X7477310Y1879920D2*
X7494212Y1871469D1*
X7511311Y1854370D1*
X7519762Y1828820D1*
Y1811918D1*
X7511311Y1786368D1*
X7494212Y1769466D1*
X7477310Y1760818D1*
X7451760D1*
X7434661Y1769466D1*
X7417758Y1786368D1*
X7409111Y1811918D1*
Y1828820D1*
X7417758Y1854370D1*
X7434661Y1871469D1*
X7451760Y1879920D1*
X7477310D1*
X7354209D2*
Y1760818D1*
Y1845919D2*
X7328659Y1871469D1*
X7311560Y1879920D1*
X7286207D1*
X7269108Y1871469D1*
X7260657Y1845919D1*
Y1760818D1*
Y1845919D2*
X7235107Y1871469D1*
X7218008Y1879920D1*
X7192654D1*
X7175555Y1871469D1*
X7166908Y1845919D1*
Y1760818D1*
X7112006Y1879920D2*
Y1701267D1*
Y1854370D2*
X7094907Y1871273D1*
X7078005Y1879920D1*
X7052455D1*
X7035356Y1871273D1*
X7018453Y1854370D1*
X7009806Y1828820D1*
Y1811722D1*
X7018453Y1786368D1*
X7035356Y1769269D1*
X7052455Y1760818D1*
X7078005D1*
X7094907Y1769269D1*
X7112006Y1786368D1*
X6954904Y1879920D2*
Y1794819D1*
X6946453Y1769466D1*
X6929354Y1760818D1*
X6903804D1*
X6886901Y1769466D1*
X6861351Y1794819D1*
Y1879920D2*
Y1760818D1*
X6780899Y1939472D2*
Y1794819D1*
X6772448Y1769466D1*
X6755349Y1760818D1*
X6738447D1*
X6806449Y1879920D2*
X6746898D1*
X6683545Y1828820D2*
X6581542D1*
Y1845919D1*
X6589993Y1863018D1*
X6598444Y1871469D1*
X6615543Y1879920D1*
X6641093D1*
X6657995Y1871469D1*
X6675094Y1854370D1*
X6683545Y1828820D1*
Y1811918D1*
X6675094Y1786368D1*
X6657995Y1769466D1*
X6641093Y1760818D1*
X6615543D1*
X6598444Y1769466D1*
X6581542Y1786368D1*
X6526640Y1879920D2*
Y1760818D1*
Y1828820D2*
X6517992Y1854370D1*
X6501090Y1871469D1*
X6483991Y1879920D1*
X6458441D1*
X6111612Y1913922D2*
X6128514Y1931020D1*
X6154064Y1939472D1*
X6188065D1*
X6213615Y1931020D1*
X6230714Y1913922D1*
Y1897019D1*
X6222066Y1879920D1*
X6213615Y1871469D1*
X6196713Y1863018D1*
X6145613Y1845919D1*
X6128514Y1837468D1*
X6120063Y1828820D1*
X6111612Y1811918D1*
Y1786368D1*
X6128514Y1769466D1*
X6154064Y1760818D1*
X6188065D1*
X6213615Y1769466D1*
X6230714Y1786368D1*
X6048062Y1879920D2*
X5997159Y1760818D1*
X6014061Y1726817D1*
X6031160Y1709718D1*
X6048062Y1701267D1*
X6056710D1*
X5946059Y1879920D2*
X5997159Y1760818D1*
X5797604Y1854370D2*
X5806055Y1871469D1*
X5831605Y1879920D1*
X5857155D1*
X5882705Y1871469D1*
X5891157Y1854370D1*
X5882705Y1837468D1*
X5865607Y1828820D1*
X5823154Y1820369D1*
X5806055Y1811918D1*
X5797604Y1794819D1*
Y1786368D1*
X5806055Y1769466D1*
X5831605Y1760818D1*
X5857155D1*
X5882705Y1769466D1*
X5891157Y1786368D1*
X5717152Y1939472D2*
Y1794819D1*
X5708701Y1769466D1*
X5691602Y1760818D1*
X5674700D1*
X5742702Y1879920D2*
X5683151D1*
X5619798Y1828820D2*
X5517795D1*
Y1845919D1*
X5526246Y1863018D1*
X5534697Y1871469D1*
X5551796Y1879920D1*
X5577346D1*
X5594248Y1871469D1*
X5611347Y1854370D1*
X5619798Y1828820D1*
Y1811918D1*
X5611347Y1786368D1*
X5594248Y1769466D1*
X5577346Y1760818D1*
X5551796D1*
X5534697Y1769466D1*
X5517795Y1786368D1*
X5462893Y1879920D2*
Y1760818D1*
Y1845919D2*
X5437343Y1871469D1*
X5420244Y1879920D1*
X5394890D1*
X5377791Y1871469D1*
X5369340Y1845919D1*
Y1760818D1*
Y1845919D2*
X5343790Y1871469D1*
X5326691Y1879920D1*
X5301338D1*
X5284239Y1871469D1*
X5275591Y1845919D1*
Y1760818D1*
X5127137Y1854370D2*
X5135588Y1871469D1*
X5161138Y1879920D1*
X5186688D1*
X5212238Y1871469D1*
X5220690Y1854370D1*
X5212238Y1837468D1*
X5195140Y1828820D1*
X5152687Y1820369D1*
X5135588Y1811918D1*
X5127137Y1794819D1*
Y1786368D1*
X5135588Y1769466D1*
X5161138Y1760818D1*
X5186688D1*
X5212238Y1769466D1*
X5220690Y1786368D1*
X9783669Y1596112D2*
X9894124D1*
Y1417458D1*
X9783669D1*
X9894124Y1511010D2*
X9826121D1*
X9728767Y1536560D2*
Y1417458D1*
Y1502559D2*
X9703217Y1528109D1*
X9686118Y1536560D1*
X9660765D1*
X9643666Y1528109D1*
X9635215Y1502559D1*
Y1417458D1*
X9478309Y1528109D2*
Y1391908D1*
X9486761Y1366555D1*
X9495212Y1357907D1*
X9512311Y1349456D1*
X9537861D1*
X9554763Y1357907D1*
X9478309Y1502559D2*
X9495212Y1519462D1*
X9512311Y1528109D1*
X9537861D1*
X9554763Y1519462D1*
X9571862Y1502559D1*
X9580313Y1477009D1*
Y1459910D1*
X9571862Y1434557D1*
X9554763Y1417458D1*
X9537861Y1409007D1*
X9512311D1*
X9495212Y1417458D1*
X9478309Y1434557D1*
X9423407Y1596112D2*
X9414956Y1587660D1*
X9406309Y1596112D1*
X9414956Y1604759D1*
X9423407Y1596112D1*
X9414956Y1536560D2*
Y1417458D1*
X9351407Y1536560D2*
Y1417458D1*
Y1502559D2*
X9325857Y1528109D1*
X9308758Y1536560D1*
X9283404D1*
X9266305Y1528109D1*
X9257854Y1502559D1*
Y1417458D1*
X9202952Y1485460D2*
X9100949D1*
Y1502559D1*
X9109400Y1519658D1*
X9117851Y1528109D1*
X9134950Y1536560D1*
X9160500D1*
X9177402Y1528109D1*
X9194501Y1511010D1*
X9202952Y1485460D1*
Y1468558D1*
X9194501Y1443008D1*
X9177402Y1426106D1*
X9160500Y1417458D1*
X9134950D1*
X9117851Y1426106D1*
X9100949Y1443008D1*
X9046047Y1485460D2*
X8944043D1*
Y1502559D1*
X8952495Y1519658D1*
X8960946Y1528109D1*
X8978045Y1536560D1*
X9003595D1*
X9020497Y1528109D1*
X9037596Y1511010D1*
X9046047Y1485460D1*
Y1468558D1*
X9037596Y1443008D1*
X9020497Y1426106D1*
X9003595Y1417458D1*
X8978045D1*
X8960946Y1426106D1*
X8944043Y1443008D1*
X8889142Y1536560D2*
Y1417458D1*
Y1485460D2*
X8880494Y1511010D1*
X8863592Y1528109D1*
X8846493Y1536560D1*
X8820943D1*
X8766041Y1596112D2*
X8757590Y1587660D1*
X8748942Y1596112D1*
X8757590Y1604759D1*
X8766041Y1596112D1*
X8757590Y1536560D2*
Y1417458D1*
X8694040Y1536560D2*
Y1417458D1*
Y1502559D2*
X8668490Y1528109D1*
X8651391Y1536560D1*
X8626038D1*
X8608939Y1528109D1*
X8600488Y1502559D1*
Y1417458D1*
X8443582Y1528109D2*
Y1391908D1*
X8452033Y1366555D1*
X8460484Y1357907D1*
X8477583Y1349456D1*
X8503133D1*
X8520036Y1357907D1*
X8443582Y1502559D2*
X8460484Y1519462D1*
X8477583Y1528109D1*
X8503133D1*
X8520036Y1519462D1*
X8537134Y1502559D1*
X8545586Y1477009D1*
Y1459910D1*
X8537134Y1434557D1*
X8520036Y1417458D1*
X8503133Y1409007D1*
X8477583D1*
X8460484Y1417458D1*
X8443582Y1434557D1*
X8287248Y1558327D2*
D88*
Y1405195D1*
X8338292Y1558327D2*
X8236204D1*
X8189145Y1463483D2*
X8101714D1*
Y1478139D1*
X8108958Y1492795D1*
X8116201Y1500039D1*
X8130858Y1507283D1*
X8152758D1*
X8167245Y1500039D1*
X8181901Y1485383D1*
X8189145Y1463483D1*
Y1448995D1*
X8181901Y1427095D1*
X8167245Y1412607D1*
X8152758Y1405195D1*
X8130858D1*
X8116201Y1412607D1*
X8101714Y1427095D1*
X7967055Y1485383D2*
X7981711Y1500039D1*
X7996367Y1507283D1*
X8018099D1*
X8032755Y1500039D1*
X8047243Y1485383D1*
X8054655Y1463483D1*
Y1448995D1*
X8047243Y1427095D1*
X8032755Y1412607D1*
X8018099Y1405195D1*
X7996367D1*
X7981711Y1412607D1*
X7967055Y1427095D1*
X7919996Y1558327D2*
Y1405195D1*
Y1478139D2*
X7898096Y1500039D1*
X7883440Y1507283D1*
X7861540D1*
X7847052Y1500039D1*
X7839808Y1478139D1*
Y1405195D1*
X7792750Y1507283D2*
Y1405195D1*
Y1478139D2*
X7770850Y1500039D1*
X7756193Y1507283D1*
X7734462D1*
X7719806Y1500039D1*
X7712562Y1478139D1*
Y1405195D1*
X7629115Y1507283D2*
X7643603Y1500039D1*
X7658259Y1485383D1*
X7665503Y1463483D1*
Y1448995D1*
X7658259Y1427095D1*
X7643603Y1412607D1*
X7629115Y1405195D1*
X7607215D1*
X7592559Y1412607D1*
X7578072Y1427095D1*
X7570659Y1448995D1*
Y1463483D1*
X7578072Y1485383D1*
X7592559Y1500039D1*
X7607215Y1507283D1*
X7629115D1*
X7523600Y1558327D2*
Y1405195D1*
X7440154Y1507283D2*
X7454642Y1500039D1*
X7469298Y1485383D1*
X7476542Y1463483D1*
Y1448995D1*
X7469298Y1427095D1*
X7454642Y1412607D1*
X7440154Y1405195D1*
X7418254D1*
X7403598Y1412607D1*
X7389110Y1427095D1*
X7381698Y1448995D1*
Y1463483D1*
X7389110Y1485383D1*
X7403598Y1500039D1*
X7418254Y1507283D1*
X7440154D1*
X7247207Y1500039D2*
Y1383295D1*
X7254451Y1361563D1*
X7261695Y1354151D1*
X7276351Y1346907D1*
X7298251D1*
X7312739Y1354151D1*
X7247207Y1478139D2*
X7261695Y1492627D1*
X7276351Y1500039D1*
X7298251D1*
X7312739Y1492627D1*
X7327395Y1478139D1*
X7334639Y1456239D1*
Y1441583D1*
X7327395Y1419851D1*
X7312739Y1405195D1*
X7298251Y1397951D1*
X7276351D1*
X7261695Y1405195D1*
X7247207Y1419851D1*
X7192736Y1507283D2*
X7149105Y1405195D1*
X7163592Y1376051D1*
X7178249Y1361395D1*
X7192736Y1354151D1*
X7200149D1*
X7105305Y1507283D2*
X7149105Y1405195D1*
X4395008Y1858545D2*
D91*
Y1730935D1*
X4309935Y1858545D2*
Y1730935D1*
X4395008Y1797758D2*
X4309935D1*
X4197859Y1816008D2*
Y1730935D1*
Y1797758D2*
X4209932Y1809972D1*
X4222146Y1816008D1*
X4240255D1*
X4252469Y1809972D1*
X4264542Y1797758D1*
X4270719Y1779508D1*
Y1767435D1*
X4264542Y1749185D1*
X4252469Y1737112D1*
X4240255Y1730935D1*
X4222146D1*
X4209932Y1737112D1*
X4197859Y1749185D1*
X4158644Y1816008D2*
Y1730935D1*
Y1791722D2*
X4140394Y1809972D1*
X4128180Y1816008D1*
X4110071D1*
X4097857Y1809972D1*
X4091821Y1791722D1*
Y1730935D1*
X3979745Y1858545D2*
Y1730935D1*
Y1797758D2*
X3991818Y1809972D1*
X4004032Y1816008D1*
X4022282D1*
X4034355Y1809972D1*
X4046568Y1797758D1*
X4052605Y1779508D1*
Y1767435D1*
X4046568Y1749185D1*
X4034355Y1737112D1*
X4022282Y1730935D1*
X4004032D1*
X3991818Y1737112D1*
X3979745Y1749185D1*
X3873706Y1797758D2*
X3879743Y1809972D1*
X3897993Y1816008D1*
X3916243D1*
X3934493Y1809972D1*
X3940530Y1797758D1*
X3934493Y1785685D1*
X3922280Y1779508D1*
X3891956Y1773472D1*
X3879743Y1767435D1*
X3873706Y1755222D1*
Y1749185D1*
X3879743Y1737112D1*
X3897993Y1730935D1*
X3916243D1*
X3934493Y1737112D1*
X3940530Y1749185D1*
X3834491Y1794670D2*
X3764298D1*
X3694760Y1816008D2*
X3706833Y1809972D1*
X3719046Y1797758D1*
X3725083Y1779508D1*
Y1767435D1*
X3719046Y1749185D1*
X3706833Y1737112D1*
X3694760Y1730935D1*
X3676510D1*
X3664296Y1737112D1*
X3652223Y1749185D1*
X3646046Y1767435D1*
Y1779508D1*
X3652223Y1797758D1*
X3664296Y1809972D1*
X3676510Y1816008D1*
X3694760D1*
X3606831D2*
Y1730935D1*
Y1791722D2*
X3588581Y1809972D1*
X3576367Y1816008D1*
X3558258D1*
X3546044Y1809972D1*
X3540008Y1791722D1*
Y1730935D1*
X3377345Y1858545D2*
Y1730935D1*
X3338130Y1779508D2*
X3265270D1*
Y1791722D1*
X3271307Y1803935D1*
X3277343Y1809972D1*
X3289557Y1816008D1*
X3307807D1*
X3319880Y1809972D1*
X3332093Y1797758D1*
X3338130Y1779508D1*
Y1767435D1*
X3332093Y1749185D1*
X3319880Y1737112D1*
X3307807Y1730935D1*
X3289557D1*
X3277343Y1737112D1*
X3265270Y1749185D1*
X3153195Y1816008D2*
Y1730935D1*
Y1797758D2*
X3165268Y1809972D1*
X3177481Y1816008D1*
X3195591D1*
X3207804Y1809972D1*
X3219877Y1797758D1*
X3226054Y1779508D1*
Y1767435D1*
X3219877Y1749185D1*
X3207804Y1737112D1*
X3195591Y1730935D1*
X3177481D1*
X3165268Y1737112D1*
X3153195Y1749185D1*
X3113979Y1816008D2*
Y1730935D1*
Y1779508D2*
X3107802Y1797758D1*
X3095729Y1809972D1*
X3083516Y1816008D1*
X3065266D1*
X3026050D2*
Y1730935D1*
Y1791722D2*
X3007800Y1809972D1*
X2995586Y1816008D1*
X2977477D1*
X2965263Y1809972D1*
X2959227Y1791722D1*
Y1730935D1*
X2920011Y1858545D2*
X2913975Y1852508D1*
X2907798Y1858545D1*
X2913975Y1864722D1*
X2920011Y1858545D1*
X2913975Y1816008D2*
Y1730935D1*
X2868582Y1816008D2*
Y1730935D1*
Y1791722D2*
X2850332Y1809972D1*
X2838119Y1816008D1*
X2820009D1*
X2807795Y1809972D1*
X2801759Y1791722D1*
Y1730935D1*
X2689684Y1809972D2*
Y1712685D1*
X2695720Y1694576D1*
X2701757Y1688399D1*
X2713970Y1682362D1*
X2732220D1*
X2744293Y1688399D1*
X2689684Y1791722D2*
X2701757Y1803795D1*
X2713970Y1809972D1*
X2732220D1*
X2744293Y1803795D1*
X2756507Y1791722D1*
X2762543Y1773472D1*
Y1761258D1*
X2756507Y1743149D1*
X2744293Y1730935D1*
X2732220Y1724899D1*
X2713970D1*
X2701757Y1730935D1*
X2689684Y1743149D1*
X2478448Y1858545D2*
X2490521D1*
X2502735Y1852508D1*
X2508771Y1834258D1*
Y1730935D1*
X2527021Y1816008D2*
X2484485D1*
X2408910D2*
X2420983Y1809972D1*
X2433196Y1797758D1*
X2439233Y1779508D1*
Y1767435D1*
X2433196Y1749185D1*
X2420983Y1737112D1*
X2408910Y1730935D1*
X2390660D1*
X2378446Y1737112D1*
X2366373Y1749185D1*
X2360196Y1767435D1*
Y1779508D1*
X2366373Y1797758D1*
X2378446Y1809972D1*
X2390660Y1816008D1*
X2408910D1*
X2320981D2*
Y1730935D1*
Y1779508D2*
X2314804Y1797758D1*
X2302731Y1809972D1*
X2290517Y1816008D1*
X2272267D1*
X3682218Y1533382D2*
Y1448309D1*
Y1496882D2*
X3676041Y1515132D1*
X3663968Y1527345D1*
X3651755Y1533382D1*
X3633505D1*
X3594289Y1496882D2*
X3521429D1*
Y1509095D1*
X3527466Y1521309D1*
X3533502Y1527345D1*
X3545716Y1533382D1*
X3563966D1*
X3576039Y1527345D1*
X3588252Y1515132D1*
X3594289Y1496882D1*
Y1484809D1*
X3588252Y1466559D1*
X3576039Y1454486D1*
X3563966Y1448309D1*
X3545716D1*
X3533502Y1454486D1*
X3521429Y1466559D1*
X3409354Y1533382D2*
Y1448309D1*
Y1515132D2*
X3421427Y1527345D1*
X3433640Y1533382D1*
X3451750D1*
X3463964Y1527345D1*
X3476037Y1515132D1*
X3482214Y1496882D1*
Y1484809D1*
X3476037Y1466559D1*
X3463964Y1454486D1*
X3451750Y1448309D1*
X3433640D1*
X3421427Y1454486D1*
X3409354Y1466559D1*
X3370138Y1575918D2*
Y1448309D1*
X3330923Y1512043D2*
X3260730D1*
X3221515Y1533382D2*
X3197228Y1448309D1*
X3172941Y1533382D1*
X3148655Y1448309D1*
X3124368Y1533382D1*
X3054830D2*
X3066903Y1527345D1*
X3079116Y1515132D1*
X3085153Y1496882D1*
Y1484809D1*
X3079116Y1466559D1*
X3066903Y1454486D1*
X3054830Y1448309D1*
X3036580D1*
X3024366Y1454486D1*
X3012293Y1466559D1*
X3006116Y1484809D1*
Y1496882D1*
X3012293Y1515132D1*
X3024366Y1527345D1*
X3036580Y1533382D1*
X3054830D1*
X2966900D2*
Y1448309D1*
Y1496882D2*
X2960724Y1515132D1*
X2948650Y1527345D1*
X2936437Y1533382D1*
X2918187D1*
X2878971Y1575918D2*
Y1448309D1*
X2766896Y1575918D2*
Y1448309D1*
Y1515132D2*
X2778969Y1527345D1*
X2791183Y1533382D1*
X2809433D1*
X2821506Y1527345D1*
X2833719Y1515132D1*
X2839756Y1496882D1*
Y1484809D1*
X2833719Y1466559D1*
X2821506Y1454486D1*
X2809433Y1448309D1*
X2791183D1*
X2778969Y1454486D1*
X2766896Y1466559D1*
X2531374Y1533382D2*
Y1448309D1*
Y1515132D2*
X2543447Y1527345D1*
X2555661Y1533382D1*
X2573770D1*
X2585984Y1527345D1*
X2598057Y1515132D1*
X2604234Y1496882D1*
Y1484809D1*
X2598057Y1466559D1*
X2585984Y1454486D1*
X2573770Y1448309D1*
X2555661D1*
X2543447Y1454486D1*
X2531374Y1466559D1*
X2419159Y1515132D2*
X2431372Y1527345D1*
X2443586Y1533382D1*
X2461695D1*
X2473909Y1527345D1*
X2485982Y1515132D1*
X2492159Y1496882D1*
Y1484809D1*
X2485982Y1466559D1*
X2473909Y1454486D1*
X2461695Y1448309D1*
X2443586D1*
X2431372Y1454486D1*
X2419159Y1466559D1*
X2379943Y1575918D2*
Y1448309D1*
Y1509095D2*
X2361693Y1527345D1*
X2349479Y1533382D1*
X2331229D1*
X2319156Y1527345D1*
X2313120Y1509095D1*
Y1448309D1*
X2273904Y1575918D2*
X2267868Y1569882D1*
X2261691Y1575918D1*
X2267868Y1582095D1*
X2273904Y1575918D1*
X2267868Y1533382D2*
Y1448309D1*
X2222475Y1496882D2*
X2149615D1*
Y1509095D1*
X2155652Y1521309D1*
X2161688Y1527345D1*
X2173902Y1533382D1*
X2192152D1*
X2204225Y1527345D1*
X2216438Y1515132D1*
X2222475Y1496882D1*
Y1484809D1*
X2216438Y1466559D1*
X2204225Y1454486D1*
X2192152Y1448309D1*
X2173902D1*
X2161688Y1454486D1*
X2149615Y1466559D1*
X2110400Y1533382D2*
X2073900Y1448309D1*
X2037540Y1533382D1*
X1998324Y1496882D2*
X1925465D1*
Y1509095D1*
X1931501Y1521309D1*
X1937538Y1527345D1*
X1949751Y1533382D1*
X1968001D1*
X1980074Y1527345D1*
X1992288Y1515132D1*
X1998324Y1496882D1*
Y1484809D1*
X1992288Y1466559D1*
X1980074Y1454486D1*
X1968001Y1448309D1*
X1949751D1*
X1937538Y1454486D1*
X1925465Y1466559D1*
X1886249Y1533382D2*
Y1448309D1*
Y1509095D2*
X1867999Y1527345D1*
X1855786Y1533382D1*
X1837676D1*
X1825463Y1527345D1*
X1819426Y1509095D1*
Y1448309D1*
Y1509095D2*
X1801176Y1527345D1*
X1788963Y1533382D1*
X1770853D1*
X1758639Y1527345D1*
X1752463Y1509095D1*
Y1448309D1*
X1713247Y1496882D2*
X1640387D1*
Y1509095D1*
X1646424Y1521309D1*
X1652460Y1527345D1*
X1664674Y1533382D1*
X1682924D1*
X1694997Y1527345D1*
X1707210Y1515132D1*
X1713247Y1496882D1*
Y1484809D1*
X1707210Y1466559D1*
X1694997Y1454486D1*
X1682924Y1448309D1*
X1664674D1*
X1652460Y1454486D1*
X1640387Y1466559D1*
X1601172Y1533382D2*
Y1448309D1*
Y1509095D2*
X1582922Y1527345D1*
X1570708Y1533382D1*
X1552598D1*
X1540385Y1527345D1*
X1534348Y1509095D1*
Y1448309D1*
X1476883Y1575918D2*
Y1472595D1*
X1470846Y1454486D1*
X1458633Y1448309D1*
X1446560D1*
X1495133Y1533382D2*
X1452596D1*
X1401308Y1460522D2*
X1407344Y1454345D1*
X1401308Y1448309D1*
X1395131Y1454345D1*
X1401308Y1460522D1*
X5481340Y3631852D2*
D92*
X5510315Y3617364D1*
X5539628Y3588052D1*
X5554115Y3544252D1*
Y3515277D1*
X5539628Y3471477D1*
X5510315Y3442501D1*
X5481340Y3427677D1*
X5437540D1*
X5408228Y3442501D1*
X5379252Y3471477D1*
X5364428Y3515277D1*
Y3544252D1*
X5379252Y3588052D1*
X5408228Y3617364D1*
X5437540Y3631852D1*
X5481340D1*
X5270310Y3733940D2*
X5255822Y3719452D1*
X5240998Y3733940D1*
X5255822Y3748764D1*
X5270310Y3733940D1*
X5255822Y3631852D2*
Y3427677D1*
X5103080Y3733940D2*
Y3485964D1*
X5088592Y3442501D1*
X5059280Y3427677D1*
X5030305D1*
X5146880Y3631852D2*
X5044792D1*
X4921699Y3456989D2*
X4936187Y3442164D1*
X4921699Y3427677D1*
X4906875Y3442164D1*
X4921699Y3456989D1*
X4812757Y3544252D2*
X4637894D1*
Y3573564D1*
X4652382Y3602877D1*
X4666869Y3617364D1*
X4696182Y3631852D1*
X4739982D1*
X4768957Y3617364D1*
X4798269Y3588052D1*
X4812757Y3544252D1*
Y3515277D1*
X4798269Y3471477D1*
X4768957Y3442501D1*
X4739982Y3427677D1*
X4696182D1*
X4666869Y3442501D1*
X4637894Y3471477D1*
X4368913Y3733940D2*
Y3427677D1*
Y3588052D2*
X4397889Y3617364D1*
X4427201Y3631852D1*
X4471001D1*
X4499976Y3617364D1*
X4529289Y3588052D1*
X4543776Y3544252D1*
Y3515277D1*
X4529289Y3471477D1*
X4499976Y3442501D1*
X4471001Y3427677D1*
X4427201D1*
X4397889Y3442501D1*
X4368913Y3471477D1*
X4274796Y3631852D2*
Y3485964D1*
X4260308Y3442501D1*
X4230996Y3427677D1*
X4187196D1*
X4158220Y3442501D1*
X4114420Y3485964D1*
Y3631852D2*
Y3427677D1*
X4020303D2*
X3816127Y3733603D1*
X3546810Y3588052D2*
X3576122Y3617364D1*
X3605434Y3631852D1*
X3648897D1*
X3678210Y3617364D1*
X3707185Y3588052D1*
X3722010Y3544252D1*
Y3515277D1*
X3707185Y3471477D1*
X3678210Y3442501D1*
X3648897Y3427677D1*
X3605434D1*
X3576122Y3442501D1*
X3546810Y3471477D1*
X3292317Y3588052D2*
X3306804Y3617364D1*
X3350604Y3631852D1*
X3394404D1*
X3438204Y3617364D1*
X3452692Y3588052D1*
X3438204Y3559077D1*
X3408892Y3544252D1*
X3336117Y3529764D1*
X3306804Y3515277D1*
X3292317Y3485964D1*
Y3471477D1*
X3306804Y3442501D1*
X3350604Y3427677D1*
X3394404D1*
X3438204Y3442501D1*
X3452692Y3471477D1*
X3198199Y3544252D2*
X3023336D1*
Y3573564D1*
X3037823Y3602877D1*
X3052311Y3617364D1*
X3081623Y3631852D1*
X3125423D1*
X3154399Y3617364D1*
X3183711Y3588052D1*
X3198199Y3544252D1*
Y3515277D1*
X3183711Y3471477D1*
X3154399Y3442501D1*
X3125423Y3427677D1*
X3081623D1*
X3052311Y3442501D1*
X3023336Y3471477D1*
X2885418Y3733940D2*
Y3485964D1*
X2870930Y3442501D1*
X2841618Y3427677D1*
X2812643D1*
X2929218Y3631852D2*
X2827130D1*
X6516980Y4894449D2*
D89*
X6525431Y4911352D1*
X6542530Y4928450D1*
X6559432Y4936902D1*
X6593433D1*
X6610532Y4928450D1*
X6627435Y4911352D1*
X6636082Y4894449D1*
X6644533Y4868899D1*
Y4826250D1*
X6636082Y4800897D1*
X6627435Y4783798D1*
X6610532Y4766896D1*
X6593433Y4758248D1*
X6559432D1*
X6542530Y4766896D1*
X6525431Y4783798D1*
X6516980Y4800897D1*
X6419626Y4877350D2*
X6436528Y4868899D1*
X6453627Y4851800D1*
X6462078Y4826250D1*
Y4809348D1*
X6453627Y4783798D1*
X6436528Y4766896D1*
X6419626Y4758248D1*
X6394076D1*
X6376977Y4766896D1*
X6360074Y4783798D1*
X6351427Y4809348D1*
Y4826250D1*
X6360074Y4851800D1*
X6376977Y4868899D1*
X6394076Y4877350D1*
X6419626D1*
X6296525D2*
Y4758248D1*
Y4843349D2*
X6270975Y4868899D1*
X6253876Y4877350D1*
X6228523D1*
X6211424Y4868899D1*
X6202973Y4843349D1*
Y4758248D1*
Y4843349D2*
X6177423Y4868899D1*
X6160324Y4877350D1*
X6134970D1*
X6117871Y4868899D1*
X6109224Y4843349D1*
Y4758248D1*
X6054322Y4877350D2*
Y4698697D1*
Y4851800D2*
X6037223Y4868703D1*
X6020321Y4877350D1*
X5994771D1*
X5977672Y4868703D1*
X5960769Y4851800D1*
X5952122Y4826250D1*
Y4809152D1*
X5960769Y4783798D1*
X5977672Y4766699D1*
X5994771Y4758248D1*
X6020321D1*
X6037223Y4766699D1*
X6054322Y4783798D1*
X5897220Y4877350D2*
Y4792249D1*
X5888769Y4766896D1*
X5871670Y4758248D1*
X5846120D1*
X5829217Y4766896D1*
X5803667Y4792249D1*
Y4877350D2*
Y4758248D1*
X5723215Y4936902D2*
Y4792249D1*
X5714764Y4766896D1*
X5697665Y4758248D1*
X5680763D1*
X5748765Y4877350D2*
X5689214D1*
X5625861Y4826250D2*
X5523858D1*
Y4843349D1*
X5532309Y4860448D1*
X5540760Y4868899D1*
X5557859Y4877350D1*
X5583409D1*
X5600311Y4868899D1*
X5617410Y4851800D1*
X5625861Y4826250D1*
Y4809348D1*
X5617410Y4783798D1*
X5600311Y4766896D1*
X5583409Y4758248D1*
X5557859D1*
X5540760Y4766896D1*
X5523858Y4783798D1*
X5468956Y4877350D2*
Y4758248D1*
Y4826250D2*
X5460308Y4851800D1*
X5443406Y4868899D1*
X5426307Y4877350D1*
X5400757D1*
X5164579Y4775347D2*
X5173030Y4766699D1*
X5164579Y4758248D1*
X5155931Y4766699D1*
X5164579Y4775347D1*
X4809102Y4911352D2*
X4826004Y4928450D1*
X4851554Y4936902D1*
X4885555D1*
X4911105Y4928450D1*
X4928204Y4911352D1*
Y4894449D1*
X4919556Y4877350D1*
X4911105Y4868899D1*
X4894203Y4860448D1*
X4843103Y4843349D1*
X4826004Y4834898D1*
X4817553Y4826250D1*
X4809102Y4809348D1*
Y4783798D1*
X4826004Y4766896D1*
X4851554Y4758248D1*
X4885555D1*
X4911105Y4766896D1*
X4928204Y4783798D1*
X4711748Y4877350D2*
X4728650Y4868899D1*
X4745749Y4851800D1*
X4754200Y4826250D1*
Y4809348D1*
X4745749Y4783798D1*
X4728650Y4766896D1*
X4711748Y4758248D1*
X4686198D1*
X4669099Y4766896D1*
X4652196Y4783798D1*
X4643549Y4809348D1*
Y4826250D1*
X4652196Y4851800D1*
X4669099Y4868899D1*
X4686198Y4877350D1*
X4711748D1*
X4520644Y4936902D2*
X4537547D1*
X4554646Y4928450D1*
X4563097Y4902900D1*
Y4758248D1*
X4588647Y4877350D2*
X4529096D1*
X4440192Y4936902D2*
Y4792249D1*
X4431741Y4766896D1*
X4414642Y4758248D1*
X4397740D1*
X4465742Y4877350D2*
X4406191D1*
X4342838D2*
X4308837Y4758248D1*
X4274836Y4877350D1*
X4240835Y4758248D1*
X4206834Y4877350D1*
X4049928D2*
Y4758248D1*
Y4851800D2*
X4066830Y4868899D1*
X4083929Y4877350D1*
X4109283D1*
X4126382Y4868899D1*
X4143284Y4851800D1*
X4151932Y4826250D1*
Y4809348D1*
X4143284Y4783798D1*
X4126382Y4766896D1*
X4109283Y4758248D1*
X4083929D1*
X4066830Y4766896D1*
X4049928Y4783798D1*
X3995026Y4877350D2*
Y4758248D1*
Y4826250D2*
X3986379Y4851800D1*
X3969476Y4868899D1*
X3952377Y4877350D1*
X3926827D1*
X3871925Y4826250D2*
X3769922D1*
Y4843349D1*
X3778373Y4860448D1*
X3786824Y4868899D1*
X3803923Y4877350D1*
X3829473D1*
X3846375Y4868899D1*
X3863474Y4851800D1*
X3871925Y4826250D1*
Y4809348D1*
X3863474Y4783798D1*
X3846375Y4766896D1*
X3829473Y4758248D1*
X3803923D1*
X3786824Y4766896D1*
X3769922Y4783798D1*
X3533744Y4775347D2*
X3542195Y4766699D1*
X3533744Y4758248D1*
X3525096Y4766699D1*
X3533744Y4775347D1*
X3186914Y4936902D2*
X3297369D1*
Y4758248D1*
X3186914D1*
X3297369Y4851800D2*
X3229367D1*
X3132013Y4877350D2*
Y4758248D1*
Y4843349D2*
X3106463Y4868899D1*
X3089364Y4877350D1*
X3064010D1*
X3046911Y4868899D1*
X3038460Y4843349D1*
Y4758248D1*
Y4843349D2*
X3012910Y4868899D1*
X2995811Y4877350D1*
X2970458D1*
X2953359Y4868899D1*
X2944711Y4843349D1*
Y4758248D1*
X2889809Y4936902D2*
Y4758248D1*
Y4851800D2*
X2872711Y4868899D1*
X2855808Y4877350D1*
X2830258D1*
X2813356Y4868899D1*
X2796257Y4851800D1*
X2787806Y4826250D1*
Y4809348D1*
X2796257Y4783798D1*
X2813356Y4766896D1*
X2830258Y4758248D1*
X2855808D1*
X2872711Y4766896D1*
X2889809Y4783798D1*
X2732904Y4826250D2*
X2630901D1*
Y4843349D1*
X2639352Y4860448D1*
X2647803Y4868899D1*
X2664902Y4877350D1*
X2690452D1*
X2707354Y4868899D1*
X2724453Y4851800D1*
X2732904Y4826250D1*
Y4809348D1*
X2724453Y4783798D1*
X2707354Y4766896D1*
X2690452Y4758248D1*
X2664902D1*
X2647803Y4766896D1*
X2630901Y4783798D1*
X2473995Y4936902D2*
Y4758248D1*
Y4851800D2*
X2490897Y4868899D1*
X2507996Y4877350D1*
X2533546D1*
X2550449Y4868899D1*
X2567547Y4851800D1*
X2575999Y4826250D1*
Y4809348D1*
X2567547Y4783798D1*
X2550449Y4766896D1*
X2533546Y4758248D1*
X2507996D1*
X2490897Y4766896D1*
X2473995Y4783798D1*
X2317090Y4936902D2*
Y4758248D1*
Y4851800D2*
X2333992Y4868899D1*
X2351091Y4877350D1*
X2376641D1*
X2393543Y4868899D1*
X2410642Y4851800D1*
X2419093Y4826250D1*
Y4809348D1*
X2410642Y4783798D1*
X2393543Y4766896D1*
X2376641Y4758248D1*
X2351091D1*
X2333992Y4766896D1*
X2317090Y4783798D1*
X2262188Y4826250D2*
X2160184D1*
Y4843349D1*
X2168635Y4860448D1*
X2177087Y4868899D1*
X2194185Y4877350D1*
X2219735D1*
X2236638Y4868899D1*
X2253737Y4851800D1*
X2262188Y4826250D1*
Y4809348D1*
X2253737Y4783798D1*
X2236638Y4766896D1*
X2219735Y4758248D1*
X2194185D1*
X2177087Y4766896D1*
X2160184Y4783798D1*
X2003279Y4936902D2*
Y4758248D1*
Y4851800D2*
X2020181Y4868899D1*
X2037280Y4877350D1*
X2062830D1*
X2079732Y4868899D1*
X2096831Y4851800D1*
X2105282Y4826250D1*
Y4809348D1*
X2096831Y4783798D1*
X2079732Y4766896D1*
X2062830Y4758248D1*
X2037280D1*
X2020181Y4766896D1*
X2003279Y4783798D1*
X5642234Y4545288D2*
X5752689D1*
Y4366635D1*
X5642234D1*
X5752689Y4460187D2*
X5684686D1*
X5587332Y4485737D2*
Y4366635D1*
Y4451736D2*
X5561782Y4477286D1*
X5544683Y4485737D1*
X5519330D1*
X5502231Y4477286D1*
X5493780Y4451736D1*
Y4366635D1*
X5336874Y4477286D2*
Y4341085D1*
X5345326Y4315731D1*
X5353777Y4307084D1*
X5370876Y4298632D1*
X5396426D1*
X5413328Y4307084D1*
X5336874Y4451736D2*
X5353777Y4468638D1*
X5370876Y4477286D1*
X5396426D1*
X5413328Y4468638D1*
X5430427Y4451736D1*
X5438878Y4426186D1*
Y4409087D1*
X5430427Y4383734D1*
X5413328Y4366635D1*
X5396426Y4358184D1*
X5370876D1*
X5353777Y4366635D1*
X5336874Y4383734D1*
X5281972Y4545288D2*
X5273521Y4536837D1*
X5264874Y4545288D1*
X5273521Y4553936D1*
X5281972Y4545288D1*
X5273521Y4485737D2*
Y4366635D1*
X5209972Y4485737D2*
Y4366635D1*
Y4451736D2*
X5184422Y4477286D1*
X5167323Y4485737D1*
X5141969D1*
X5124870Y4477286D1*
X5116419Y4451736D1*
Y4366635D1*
X5061517Y4434637D2*
X4959514D1*
Y4451736D1*
X4967965Y4468835D1*
X4976416Y4477286D1*
X4993515Y4485737D1*
X5019065D1*
X5035967Y4477286D1*
X5053066Y4460187D1*
X5061517Y4434637D1*
Y4417735D1*
X5053066Y4392185D1*
X5035967Y4375282D1*
X5019065Y4366635D1*
X4993515D1*
X4976416Y4375282D1*
X4959514Y4392185D1*
X4904612Y4434637D2*
X4802608D1*
Y4451736D1*
X4811060Y4468835D1*
X4819511Y4477286D1*
X4836610Y4485737D1*
X4862160D1*
X4879062Y4477286D1*
X4896161Y4460187D1*
X4904612Y4434637D1*
Y4417735D1*
X4896161Y4392185D1*
X4879062Y4375282D1*
X4862160Y4366635D1*
X4836610D1*
X4819511Y4375282D1*
X4802608Y4392185D1*
X4747707Y4485737D2*
Y4366635D1*
Y4434637D2*
X4739059Y4460187D1*
X4722157Y4477286D1*
X4705058Y4485737D1*
X4679508D1*
X4624606Y4545288D2*
X4616155Y4536837D1*
X4607507Y4545288D1*
X4616155Y4553936D1*
X4624606Y4545288D1*
X4616155Y4485737D2*
Y4366635D1*
X4552605Y4485737D2*
Y4366635D1*
Y4451736D2*
X4527055Y4477286D1*
X4509956Y4485737D1*
X4484603D1*
X4467504Y4477286D1*
X4459053Y4451736D1*
Y4366635D1*
X4302147Y4477286D2*
Y4341085D1*
X4310598Y4315731D1*
X4319050Y4307084D1*
X4336148Y4298632D1*
X4361698D1*
X4378601Y4307084D1*
X4302147Y4451736D2*
X4319050Y4468638D1*
X4336148Y4477286D1*
X4361698D1*
X4378601Y4468638D1*
X4395700Y4451736D1*
X4404151Y4426186D1*
Y4409087D1*
X4395700Y4383734D1*
X4378601Y4366635D1*
X4361698Y4358184D1*
X4336148D1*
X4319050Y4366635D1*
X4302147Y4383734D1*
X4074141Y4515857D2*
D88*
Y4362725D1*
X4125185Y4515857D2*
X4023097D1*
X3976039Y4421013D2*
X3888607D1*
Y4435669D1*
X3895851Y4450325D1*
X3903095Y4457569D1*
X3917751Y4464813D1*
X3939651D1*
X3954139Y4457569D1*
X3968795Y4442913D1*
X3976039Y4421013D1*
Y4406525D1*
X3968795Y4384625D1*
X3954139Y4370137D1*
X3939651Y4362725D1*
X3917751D1*
X3903095Y4370137D1*
X3888607Y4384625D1*
X3753948Y4442913D2*
X3768604Y4457569D1*
X3783261Y4464813D1*
X3804992D1*
X3819648Y4457569D1*
X3834136Y4442913D1*
X3841548Y4421013D1*
Y4406525D1*
X3834136Y4384625D1*
X3819648Y4370137D1*
X3804992Y4362725D1*
X3783261D1*
X3768604Y4370137D1*
X3753948Y4384625D1*
X3706889Y4515857D2*
Y4362725D1*
Y4435669D2*
X3684989Y4457569D1*
X3670333Y4464813D1*
X3648433D1*
X3633946Y4457569D1*
X3626702Y4435669D1*
Y4362725D1*
X3579643Y4464813D2*
Y4362725D1*
Y4435669D2*
X3557743Y4457569D1*
X3543087Y4464813D1*
X3521355D1*
X3506699Y4457569D1*
X3499455Y4435669D1*
Y4362725D1*
X3416009Y4464813D2*
X3430496Y4457569D1*
X3445153Y4442913D1*
X3452396Y4421013D1*
Y4406525D1*
X3445153Y4384625D1*
X3430496Y4370137D1*
X3416009Y4362725D1*
X3394109D1*
X3379453Y4370137D1*
X3364965Y4384625D1*
X3357553Y4406525D1*
Y4421013D1*
X3364965Y4442913D1*
X3379453Y4457569D1*
X3394109Y4464813D1*
X3416009D1*
X3310494Y4515857D2*
Y4362725D1*
X3227047Y4464813D2*
X3241535Y4457569D1*
X3256191Y4442913D1*
X3263435Y4421013D1*
Y4406525D1*
X3256191Y4384625D1*
X3241535Y4370137D1*
X3227047Y4362725D1*
X3205147D1*
X3190491Y4370137D1*
X3176003Y4384625D1*
X3168591Y4406525D1*
Y4421013D1*
X3176003Y4442913D1*
X3190491Y4457569D1*
X3205147Y4464813D1*
X3227047D1*
X3034101Y4457569D2*
Y4340825D1*
X3041345Y4319093D1*
X3048588Y4311681D1*
X3063245Y4304437D1*
X3085145D1*
X3099632Y4311681D1*
X3034101Y4435669D2*
X3048588Y4450157D1*
X3063245Y4457569D1*
X3085145D1*
X3099632Y4450157D1*
X3114288Y4435669D1*
X3121532Y4413769D1*
Y4399113D1*
X3114288Y4377381D1*
X3099632Y4362725D1*
X3085145Y4355481D1*
X3063245D1*
X3048588Y4362725D1*
X3034101Y4377381D1*
X2979630Y4464813D2*
X2935998Y4362725D1*
X2950486Y4333581D1*
X2965142Y4318925D1*
X2979630Y4311681D1*
X2987042D1*
X2892198Y4464813D2*
X2935998Y4362725D1*
X5207506Y5242993D2*
D87*
X5119906D1*
X5090931Y5252651D1*
X5081048Y5262534D1*
X5071389Y5281851D1*
Y5311051D1*
X5081048Y5330368D1*
X5090931Y5340251D1*
X5119906Y5349910D1*
X5207506D1*
Y5145734D1*
X5008644Y5281851D2*
Y5145734D1*
Y5223451D2*
X4998761Y5252651D1*
X4979444Y5272193D1*
X4959903Y5281851D1*
X4930703D1*
X4819441D2*
X4838758Y5272193D1*
X4858299Y5252651D1*
X4867958Y5223451D1*
Y5204134D1*
X4858299Y5174934D1*
X4838758Y5155618D1*
X4819441Y5145734D1*
X4790241D1*
X4770699Y5155618D1*
X4751382Y5174934D1*
X4741499Y5204134D1*
Y5223451D1*
X4751382Y5252651D1*
X4770699Y5272193D1*
X4790241Y5281851D1*
X4819441D1*
X4562179Y5272193D2*
Y5116534D1*
X4571837Y5087559D1*
X4581496Y5077676D1*
X4601037Y5068018D1*
X4630237D1*
X4649554Y5077676D1*
X4562179Y5242993D2*
X4581496Y5262310D1*
X4601037Y5272193D1*
X4630237D1*
X4649554Y5262310D1*
X4669096Y5242993D1*
X4678754Y5213793D1*
Y5194251D1*
X4669096Y5165276D1*
X4649554Y5145734D1*
X4630237Y5136076D1*
X4601037D1*
X4581496Y5145734D1*
X4562179Y5165276D1*
X4499433Y5281851D2*
Y5145734D1*
Y5223451D2*
X4489550Y5252651D1*
X4470233Y5272193D1*
X4450692Y5281851D1*
X4421492D1*
X4242171D2*
Y5145734D1*
Y5252651D2*
X4261488Y5272193D1*
X4281030Y5281851D1*
X4310005D1*
X4329547Y5272193D1*
X4348864Y5252651D1*
X4358747Y5223451D1*
Y5204134D1*
X4348864Y5174934D1*
X4329547Y5155618D1*
X4310005Y5145734D1*
X4281030D1*
X4261488Y5155618D1*
X4242171Y5174934D1*
X4179426Y5281851D2*
Y5145734D1*
Y5242993D2*
X4150226Y5272193D1*
X4130685Y5281851D1*
X4101709D1*
X4082168Y5272193D1*
X4072509Y5242993D1*
Y5145734D1*
Y5242993D2*
X4043309Y5272193D1*
X4023768Y5281851D1*
X3994793D1*
X3975251Y5272193D1*
X3965368Y5242993D1*
Y5145734D1*
X3795706Y5252651D2*
X3805364Y5272193D1*
X3834564Y5281851D1*
X3863764D1*
X3892964Y5272193D1*
X3902623Y5252651D1*
X3892964Y5233334D1*
X3873423Y5223451D1*
X3824906Y5213793D1*
X3805364Y5204134D1*
X3795706Y5184593D1*
Y5174934D1*
X3805364Y5155618D1*
X3834564Y5145734D1*
X3863764D1*
X3892964Y5155618D1*
X3902623Y5174934D1*
X3535446Y5349910D2*
X3525788Y5340251D1*
X3515905Y5349910D1*
X3525788Y5359793D1*
X3535446Y5349910D1*
X3525788Y5281851D2*
Y5145734D1*
X3453160Y5281851D2*
Y5145734D1*
Y5242993D2*
X3423960Y5272193D1*
X3404418Y5281851D1*
X3375443D1*
X3355901Y5272193D1*
X3346243Y5242993D1*
Y5145734D1*
X3273615Y5281851D2*
X3283498Y5271968D1*
X3273615Y5262310D1*
X3263956Y5271968D1*
X3273615Y5281851D1*
Y5165276D2*
X3283498Y5155393D1*
X3273615Y5145734D1*
X3263956Y5155393D1*
X3273615Y5165276D1*
M02*
