G04 DipTrace 3.0.0.2*
G04 Bottom.gbr*
%MOMM*%
G04 #@! TF.FileFunction,Copper,L2,Bot*
G04 #@! TF.Part,Single*
G04 #@! TA.AperFunction,Conductor*
%ADD13C,0.254*%
%ADD14C,0.508*%
G04 #@! TA.AperFunction,ComponentPad*
%ADD17C,1.6*%
%ADD18R,1.6X1.6*%
%ADD19C,1.27*%
%ADD20R,1.27X1.27*%
%ADD21O,1.05X1.7*%
%ADD22R,1.05X1.7*%
%ADD23R,1.5X1.5*%
%ADD24C,1.5*%
%ADD25R,1.7X1.7*%
%ADD26C,1.7*%
%ADD27C,1.6*%
%ADD28C,3.3*%
%ADD29C,1.524*%
%ADD30C,1.524*%
%ADD32C,1.5*%
G04 #@! TA.AperFunction,ViaPad*
%ADD36C,1.016*%
%FSLAX35Y35*%
G04*
G71*
G90*
G75*
G01*
G04 Bottom*
%LPD*%
X6560007Y4590307D2*
D13*
X7748317D1*
X7758903Y4579720D1*
Y4325720D2*
X6570593D1*
X6560007Y4336307D1*
Y4082307D2*
X7748317D1*
X7758903Y4071720D1*
Y3817720D2*
X6570593D1*
X6560007Y3828307D1*
Y3574307D2*
X7748317D1*
X7758903Y3563720D1*
Y3309720D2*
X6570593D1*
X6560007Y3320307D1*
X9549330Y3313887D2*
X8525070D1*
X8520903Y3309720D1*
X9549330Y4329887D2*
X8525070D1*
X8520903Y4325720D1*
X1921463Y2972880D2*
X2683463D1*
X8225380D1*
X8315607Y3063107D1*
X9549330Y4075887D2*
X8525070D1*
X8520903Y4071720D1*
X1332147Y2151623D2*
X2094147D1*
X1723390Y3113590D2*
Y4809930D1*
X1972967Y5059507D1*
Y5658987D1*
X1953120Y5678833D1*
X1723390Y3113590D2*
X8133567D1*
X8252763Y3232787D1*
Y3803580D1*
X8520903Y4071720D1*
Y3563720D2*
X9545163D1*
X9549330Y3567887D1*
X8520903Y4579720D2*
X9545163D1*
X9549330Y4583887D1*
X8520903Y4579720D2*
X8368910D1*
X8256010Y4466820D1*
X6305987D1*
X6128817Y4643990D1*
X5942920D1*
X2094147Y1701623D2*
X1332147D1*
X1921463Y2522880D2*
X2683463D1*
X4201873D1*
X4687170Y2037583D1*
Y1686944D1*
X4683500Y1683273D1*
X6562600Y5324030D2*
X5828040D1*
X5763250Y5388820D1*
X7563300Y5360180D2*
X6598750D1*
X6562600Y5324030D1*
X7246527Y7489947D2*
D14*
X6450160D1*
X6264613Y7304400D1*
X5799117D1*
D13*
X5717750Y7223033D1*
X8520903Y4833720D2*
X9285157D1*
X9505810Y5054373D1*
X9568663Y7371780D2*
D14*
Y6167780D1*
X9297663Y6894780D2*
Y7100780D1*
X9568663Y7371780D1*
X8318860D1*
X8013857Y7676783D1*
X7687363D1*
X7500527Y7489947D1*
X5717750Y6969033D2*
X6979613D1*
X7500527Y7489947D1*
X3352883Y6855393D2*
Y6894770D1*
X3481900Y7023787D1*
X5308610D1*
X5482917Y6849480D1*
X5598197D1*
X5717750Y6969033D1*
X5763250Y6404820D2*
D13*
X7244747D1*
X7250340Y6410413D1*
X7355107D1*
X7510833Y6566140D1*
X7777557D1*
X3606883Y6855393D2*
X5222027D1*
X5324330Y6753090D1*
X8002270Y6380007D2*
X8198033D1*
X8356333Y6538307D1*
X8991190D1*
X9097663Y6644780D1*
X8442907Y6378413D2*
X9031297D1*
X9297663Y6644780D1*
X7171487Y6552017D2*
D14*
X7183293D1*
X7380230Y6748953D1*
X8757540D1*
X8520903Y3817720D2*
D13*
X9545163D1*
X9549330Y3821887D1*
X5424970Y1696733D2*
X5183540D1*
X4890073Y1403267D1*
X4445620D1*
X4365813Y1323459D1*
Y1163553D1*
D36*
X8315607Y3063107D3*
X1723390Y3113590D3*
D3*
X5942920Y4643990D3*
X7777557Y6566140D3*
X5324330Y6753090D3*
X7171487Y6552017D3*
X8757540Y6748953D3*
X5424970Y1696733D3*
D17*
X5717750Y6969033D3*
D18*
Y7223033D3*
D17*
X7500527Y7489947D3*
D18*
X7246527D3*
D19*
X8267857Y7676783D3*
D20*
X8013857D3*
D19*
X3606883Y6855393D3*
D20*
X3352883D3*
D21*
X4937500Y1683273D3*
X4683500D3*
D22*
X4556500D3*
D21*
X4810500D3*
D23*
X6562600Y5324030D3*
D24*
Y5070030D3*
D23*
X9505810Y5308373D3*
D24*
Y5054373D3*
D25*
X9549330Y4583887D3*
D26*
Y4329887D3*
Y4075887D3*
Y3821887D3*
Y3567887D3*
Y3313887D3*
D25*
X6560007Y4590307D3*
D26*
Y4336307D3*
Y4082307D3*
Y3828307D3*
Y3574307D3*
Y3320307D3*
D18*
X9097663Y6894780D3*
D27*
Y6644780D3*
X9297663D3*
Y6894780D3*
D28*
X9568663Y6167780D3*
Y7371780D3*
D29*
X5763250Y5388820D3*
D30*
Y6404820D3*
D29*
X5365023Y5377870D3*
D30*
Y6393870D3*
D29*
X1953120Y5678833D3*
D30*
Y4662833D3*
D29*
X1972533Y4371337D3*
D30*
Y3355337D3*
D29*
X7563300Y5360180D3*
D30*
Y6376180D3*
D29*
X8002270Y6380007D3*
D30*
Y5364007D3*
D29*
X8442907Y6378413D3*
D30*
Y5362413D3*
D29*
X5144047Y1419140D3*
D30*
X6160047D3*
D29*
X4699593Y1149293D3*
D30*
X5715593D3*
D29*
X3350361Y1196914D3*
D30*
X4365813Y1163553D3*
D23*
X1921463Y2972880D3*
D32*
Y2522880D3*
X2683463D3*
D23*
Y2972880D3*
X1332147Y2151623D3*
D32*
Y1701623D3*
X2094147D3*
D23*
Y2151623D3*
X7758903Y4833720D3*
D24*
Y4579720D3*
Y4325720D3*
Y4071720D3*
Y3817720D3*
Y3563720D3*
Y3309720D3*
X8520903D3*
Y3563720D3*
Y3817720D3*
Y4071720D3*
Y4325720D3*
Y4579720D3*
Y4833720D3*
M02*
