M48
METRIC,0000.00
T01C0.483
T02C0.711
T03C0.889
T04C0.9
T05C0.92
T06C0.965
T07C1.0
T08C1.1
T09C2.3
%
T01
X+008316Y+003063
X+005943Y+004644
X+005324Y+006753
X+007171Y+006552
X+007778Y+006566
X+008758Y+006749
X+005425Y+001697
X+001723Y+003114
T02
X+008268Y+007677
X+008014Y+007677
X+003607Y+006855
X+003353Y+006855
T03
X+004937Y+001683
X+004810Y+001683
X+004683Y+001683
X+004556Y+001683
T04
X+006563Y+005324
X+006563Y+005070
X+007759Y+004834
X+007759Y+004580
X+007759Y+004326
X+007759Y+004072
X+007759Y+003818
X+007759Y+003564
X+007759Y+003310
X+008521Y+003310
X+008521Y+003564
X+008521Y+003818
X+008521Y+004072
X+008521Y+004326
X+008521Y+004580
X+008521Y+004834
X+009506Y+005054
X+009506Y+005308
X+002683Y+002973
X+002683Y+002523
X+002094Y+002152
X+001921Y+002523
X+001921Y+002973
X+001332Y+002152
X+001332Y+001702
X+002094Y+001702
T05
X+009098Y+006895
X+009298Y+006895
X+009298Y+006645
X+009098Y+006645
T06
X+005763Y+005389
X+005365Y+005378
X+005365Y+006394
X+005763Y+006405
X+007563Y+006376
X+008002Y+006380
X+008443Y+006378
X+008443Y+005362
X+008002Y+005364
X+007563Y+005360
X+006160Y+001419
X+005716Y+001149
X+005144Y+001419
X+004700Y+001149
X+004366Y+001164
X+003350Y+001197
X+001973Y+003355
X+001973Y+004371
X+001953Y+004663
X+001953Y+005679
T07
X+005718Y+006969
X+005718Y+007223
X+007247Y+007490
X+007501Y+007490
T08
X+009549Y+004584
X+009549Y+004330
X+009549Y+004076
X+009549Y+003822
X+009549Y+003568
X+009549Y+003314
X+006560Y+003320
X+006560Y+003574
X+006560Y+003828
X+006560Y+004082
X+006560Y+004336
X+006560Y+004590
T09
X+009569Y+006168
X+009569Y+007372
T00
M30
