G04 DipTrace 3.0.0.2*
G04 Top.gbr*
%MOMM*%
G04 #@! TF.FileFunction,Copper,L1,Top*
G04 #@! TF.Part,Single*
G04 #@! TA.AperFunction,Conductor*
%ADD13C,0.254*%
G04 #@! TA.AperFunction,ComponentPad*
%ADD14C,1.6*%
%ADD15R,1.6X1.6*%
%ADD16C,1.27*%
%ADD17R,1.27X1.27*%
%ADD18O,1.05X1.7*%
%ADD19R,1.05X1.7*%
%ADD20R,1.5X1.5*%
%ADD21C,1.5*%
%ADD22R,1.7X1.7*%
%ADD23C,1.7*%
%ADD24C,1.6*%
%ADD25C,3.3*%
%ADD26C,1.27*%
%ADD27R,1.6X2.7*%
G04 #@! TA.AperFunction,ComponentPad*
%ADD28C,1.5*%
%ADD30R,0.95X2.15*%
%ADD31R,3.25X2.15*%
G04 #@! TA.AperFunction,ViaPad*
%ADD32C,1.016*%
%FSLAX35Y35*%
G04*
G71*
G90*
G75*
G01*
G04 Top*
%LPD*%
X7997507Y5552913D2*
D13*
Y4818323D1*
X7758903Y4579720D1*
X8428620Y5551320D2*
X8401827D1*
X8418713Y5534433D1*
Y5504127D1*
X8094257Y5179670D1*
Y4661073D1*
X7758903Y4325720D1*
X9549330Y3313887D2*
X9130237D1*
X9117523Y3301173D1*
X9080857D1*
X8515120Y2735437D1*
X6356940D1*
X6200217Y2578713D1*
Y1559670D1*
X6262650Y1497237D1*
Y1203223D1*
X6252040Y1192613D1*
X2683463Y2874880D2*
X1921463D1*
X1972533Y3482337D2*
Y2925950D1*
X1921463Y2874880D1*
X8315607Y3063107D2*
Y4120423D1*
X8520903Y4325720D1*
X2094147Y2053623D2*
X2085730D1*
Y2140553D1*
X1748827Y2477457D1*
Y3088153D1*
X1723390Y3113590D1*
X6125297Y1437290D2*
Y2603323D1*
X6321570Y2799597D1*
X8469273D1*
X9243243Y3573567D1*
X9543650D1*
X9549330Y3567887D1*
X5942920Y4643990D2*
Y4926973D1*
X5365023Y5504870D1*
X2094147Y1799623D2*
Y1807717D1*
X2254903Y1968473D1*
Y2620880D1*
X2683463D1*
X1921463D2*
X2683463D1*
X6562600Y5070030D2*
Y5324030D1*
X7572823Y5553847D2*
Y5519747D1*
X7609157Y5556080D1*
X7661107D1*
X7756350Y5460837D1*
Y4831167D1*
X7758903Y4833720D1*
X6658543Y6510770D2*
Y5419973D1*
X6562600Y5324030D1*
X6658543Y7090770D2*
Y6510770D1*
X5717750Y7223033D2*
X6526280D1*
X6658543Y7090770D1*
X4683500Y1683273D2*
Y1973010D1*
X6077147Y3366657D1*
Y4584577D1*
X6562600Y5070030D1*
X2005070Y4642643D2*
Y4276873D1*
X1972533Y4244337D1*
X9505810Y5308373D2*
Y5054373D1*
X9568663Y6167780D2*
Y5882263D1*
X9427287Y5740887D1*
Y5386897D1*
X9505810Y5308373D1*
X3352883Y6855393D2*
X2812443D1*
X2183163Y6226113D1*
Y5619513D1*
X2192797Y5629147D1*
Y5343570D1*
X1986377Y5137150D1*
Y4642643D1*
X2005070D1*
X5717750Y6969033D2*
X5970280D1*
X6428543Y6510770D1*
X7997990Y6510417D2*
Y7406917D1*
X8267857Y7676783D1*
X5324330Y6753090D2*
Y6307563D1*
X5365023Y6266870D1*
X7572823Y6315847D2*
X7996573D1*
X7997507Y6314913D1*
X4937500Y1683273D2*
X5279067D1*
X5374023Y1588317D1*
Y1437290D1*
X5363297D1*
X9097663Y6894780D2*
Y7701733D1*
X9083397Y7716000D1*
X6888543Y6510770D2*
X7130240D1*
X7171487Y6552017D1*
X8757540Y6689763D2*
Y7670143D1*
X8803397Y7716000D1*
X4810500Y1683273D2*
Y1764576D1*
X4858977Y1813053D1*
X5224553D1*
X5490040Y1547567D1*
Y1192613D1*
X4556500Y1683273D2*
X4112383D1*
X3646883Y1217773D1*
X9549330Y3821887D2*
X9383653D1*
X8444690Y2882923D1*
X6317650D1*
X6062473Y2627747D1*
Y1746867D1*
X5967030Y1651423D1*
D32*
X8315607Y3063107D3*
X1723390Y3113590D3*
D3*
X5942920Y4643990D3*
X7997990Y6510417D3*
X5324330Y6753090D3*
X7171487Y6552017D3*
X8757540Y6689763D3*
X5967030Y1651423D3*
D14*
X5717750Y6969033D3*
D15*
Y7223033D3*
D14*
X7500527Y7489947D3*
D15*
X7246527D3*
D16*
X8267857Y7676783D3*
D17*
X8013857D3*
D16*
X3606883Y6855393D3*
D17*
X3352883D3*
D18*
X4937500Y1683273D3*
X4683500D3*
D19*
X4556500D3*
D18*
X4810500D3*
D20*
X6562600Y5324030D3*
D21*
Y5070030D3*
D20*
X9505810Y5308373D3*
D21*
Y5054373D3*
D22*
X9549330Y4583887D3*
D23*
Y4329887D3*
Y4075887D3*
Y3821887D3*
Y3567887D3*
Y3313887D3*
D22*
X6560007Y4590307D3*
D23*
Y4336307D3*
Y4082307D3*
Y3828307D3*
Y3574307D3*
Y3320307D3*
D15*
X9097663Y6894780D3*
D24*
Y6644780D3*
X9297663D3*
Y6894780D3*
D25*
X9568663Y6167780D3*
Y7371780D3*
D16*
X5763250Y5515820D3*
D26*
Y6277820D3*
D16*
X5365023Y5504870D3*
D26*
Y6266870D3*
D16*
X2005070Y5404643D3*
D26*
Y4642643D3*
D16*
X1972533Y4244337D3*
D26*
Y3482337D3*
D16*
X7572823Y5553847D3*
D26*
Y6315847D3*
D16*
X7997507Y6314913D3*
D26*
Y5552913D3*
D16*
X8428620Y6313320D3*
D26*
Y5551320D3*
D27*
X9083397Y7716000D3*
X8803397D3*
D16*
X5363297Y1437290D3*
D26*
X6125297D3*
D16*
X5490040Y1192613D3*
D26*
X6252040D3*
D16*
X3646883Y1217773D3*
D26*
X4408883D3*
D20*
X1921463Y2874880D3*
D28*
Y2620880D3*
X2683463D3*
D20*
Y2874880D3*
X1332147Y2053623D3*
D28*
Y1799623D3*
X2094147D3*
D20*
Y2053623D3*
X7758903Y4833720D3*
D21*
Y4579720D3*
Y4325720D3*
Y4071720D3*
Y3817720D3*
Y3563720D3*
Y3309720D3*
X8520903D3*
Y3563720D3*
Y3817720D3*
Y4071720D3*
Y4325720D3*
Y4579720D3*
Y4833720D3*
D30*
X6428543Y6510770D3*
X6658543D3*
X6888543D3*
D31*
X6658543Y7090770D3*
M02*
