G04 DipTrace 3.0.0.2*
G04 TopMask.gbr*
%MOMM*%
G04 #@! TF.FileFunction,Soldermask,Top*
G04 #@! TF.Part,Single*
%ADD46R,3.4532X2.3532*%
%ADD48R,1.1532X2.3532*%
%ADD50C,1.7032*%
%ADD52R,1.8032X2.9032*%
%ADD54C,1.4732*%
%ADD56C,3.5032*%
%ADD58C,1.8032*%
%ADD60C,1.9032*%
%ADD62R,1.9032X1.9032*%
%ADD64C,1.7032*%
%ADD66R,1.7032X1.7032*%
%ADD68R,1.2532X1.9032*%
%ADD70O,1.2532X1.9032*%
%ADD72R,1.4732X1.4732*%
%ADD74C,1.4732*%
%ADD76R,1.8032X1.8032*%
%ADD78C,1.8032*%
%FSLAX35Y35*%
G04*
G71*
G90*
G75*
G01*
G04 TopMask*
%LPD*%
D78*
X5717750Y6969033D3*
D76*
Y7223033D3*
D78*
X7500527Y7489947D3*
D76*
X7246527D3*
D74*
X8267857Y7676783D3*
D72*
X8013857D3*
D74*
X3606883Y6855393D3*
D72*
X3352883D3*
D70*
X4937500Y1683273D3*
X4683500D3*
D68*
X4556500D3*
D70*
X4810500D3*
D66*
X6562600Y5324030D3*
D64*
Y5070030D3*
D66*
X9505810Y5308373D3*
D64*
Y5054373D3*
D62*
X9549330Y4583887D3*
D60*
Y4329887D3*
Y4075887D3*
Y3821887D3*
Y3567887D3*
Y3313887D3*
D62*
X6560007Y4590307D3*
D60*
Y4336307D3*
Y4082307D3*
Y3828307D3*
Y3574307D3*
Y3320307D3*
D76*
X9097663Y6894780D3*
D58*
Y6644780D3*
X9297663D3*
Y6894780D3*
D56*
X9568663Y6167780D3*
Y7371780D3*
D74*
X5763250Y5515820D3*
D54*
Y6277820D3*
D74*
X5365023Y5504870D3*
D54*
Y6266870D3*
D74*
X2005070Y5404643D3*
D54*
Y4642643D3*
D74*
X1972533Y4244337D3*
D54*
Y3482337D3*
D74*
X7572823Y5553847D3*
D54*
Y6315847D3*
D74*
X7997507Y6314913D3*
D54*
Y5552913D3*
D74*
X8428620Y6313320D3*
D54*
Y5551320D3*
D52*
X9083397Y7716000D3*
X8803397D3*
D74*
X5363297Y1437290D3*
D54*
X6125297D3*
D74*
X5490040Y1192613D3*
D54*
X6252040D3*
D74*
X3646883Y1217773D3*
D54*
X4408883D3*
D66*
X1921463Y2874880D3*
D50*
Y2620880D3*
X2683463D3*
D66*
Y2874880D3*
X1332147Y2053623D3*
D50*
Y1799623D3*
X2094147D3*
D66*
Y2053623D3*
X7758903Y4833720D3*
D64*
Y4579720D3*
Y4325720D3*
Y4071720D3*
Y3817720D3*
Y3563720D3*
Y3309720D3*
X8520903D3*
Y3563720D3*
Y3817720D3*
Y4071720D3*
Y4325720D3*
Y4579720D3*
Y4833720D3*
D48*
X6428543Y6510770D3*
X6658543D3*
X6888543D3*
D46*
X6658543Y7090770D3*
M02*
