G04 DipTrace 3.0.0.2*
G04 TopSilk.gbr*
%MOMM*%
G04 #@! TF.FileFunction,Legend,Top*
G04 #@! TF.Part,Single*
%ADD10C,0.25*%
%ADD12C,0.0762*%
%ADD33O,0.39124X0.39193*%
%ADD86C,0.15686*%
%ADD87C,0.31373*%
%ADD88C,0.23529*%
%ADD89C,0.27451*%
%ADD90C,0.39216*%
%FSLAX35Y35*%
G04*
G71*
G90*
G75*
G01*
G04 TopSilk*
%LPD*%
X5565350Y7273681D2*
D10*
Y6918386D1*
X5870150Y7273681D2*
Y6918386D1*
X5565350D2*
G03X5870150Y6918386I152400J-152D01*
G01*
Y7273681D2*
G03X5565350Y7273681I-152400J152D01*
G01*
X7195879Y7337547D2*
X7551174D1*
X7195879Y7642347D2*
X7551174D1*
Y7337547D2*
G03X7551174Y7642347I152J152400D01*
G01*
X7195879D2*
G03X7195879Y7337547I-152J-152400D01*
G01*
X7886873Y7486441D2*
Y7867125D1*
X7887445Y7485679D2*
G03X7887445Y7867887I253481J191104D01*
G01*
X3225900Y6665051D2*
Y7045735D1*
X3226472Y6664289D2*
G03X3226472Y7046497I253481J191104D01*
G01*
X4497000Y1838443D2*
Y1818383D1*
Y1548163D2*
Y1528103D1*
Y1838443D2*
G02X5042000Y1683273I250574J-154597D01*
G01*
X4497000Y1528103D2*
G03X5042000Y1683273I250574J154597D01*
G01*
X6435600Y4943030D2*
X6689600D1*
X6435600Y5451030D2*
Y4943030D1*
Y5451030D2*
X6689600D1*
Y4943030D1*
X9378810Y4927373D2*
X9632810D1*
X9378810Y5435373D2*
Y4927373D1*
Y5435373D2*
X9632810D1*
Y4927373D1*
X9676334Y4710817D2*
X9422330D1*
Y3186956D1*
X9676334D1*
Y4710817D1*
X6687011Y4717237D2*
X6433007D1*
Y3193376D1*
X6687011D1*
Y4717237D1*
X10598742Y6159708D2*
Y7379852D1*
Y6159708D2*
X9788723D1*
X9778663Y7379852D2*
X10598742D1*
X9348665Y6159708D2*
X9018621D1*
Y6539833D1*
Y7019822D2*
Y7379852D1*
X9358724D1*
X5842625Y6150363D2*
Y5643277D1*
X5683875Y5642810D2*
X5842625D1*
X5683875Y6150363D2*
Y5643277D1*
Y6150830D2*
X5842625D1*
X5444398Y6139413D2*
Y5632327D1*
X5285648Y5631860D2*
X5444398D1*
X5285648Y6139413D2*
Y5632327D1*
Y6139880D2*
X5444398D1*
X1873745Y4917291D2*
Y5424376D1*
X2032495Y5424843D2*
X1873745D1*
X2032495Y4917291D2*
Y5424376D1*
Y4916823D2*
X1873745D1*
X1893158Y3609794D2*
Y4116879D1*
X2051908Y4117347D2*
X1893158D1*
X2051908Y3609794D2*
Y4116879D1*
Y3609327D2*
X1893158D1*
X7642675Y6121723D2*
Y5614637D1*
X7483925Y5614170D2*
X7642675D1*
X7483925Y6121723D2*
Y5614637D1*
Y6122190D2*
X7642675D1*
X7922895Y5618464D2*
Y6125549D1*
X8081645Y6126017D2*
X7922895D1*
X8081645Y5618464D2*
Y6125549D1*
Y5617997D2*
X7922895D1*
X8363532Y5616871D2*
Y6123956D1*
X8522282Y6124423D2*
X8363532D1*
X8522282Y5616871D2*
Y6123956D1*
Y5616403D2*
X8363532D1*
X8973317Y7795920D2*
X8913477D1*
X8973317Y7636080D2*
X8913477D1*
X5905589Y1339765D2*
X5398504D1*
X5398037Y1498515D2*
Y1339765D1*
X5905589Y1498515D2*
X5398504D1*
X5906057D2*
Y1339765D1*
X5461136Y1069918D2*
X4954051D1*
X4953583Y1228668D2*
Y1069918D1*
X5461136Y1228668D2*
X4954051D1*
X5461603D2*
Y1069918D1*
X4108886Y1092576D2*
X3602074Y1109226D1*
X3606820Y1267906D2*
X3601607Y1109242D1*
X4114099Y1251240D2*
X3607287Y1267891D1*
X4114566Y1251225D2*
X4109353Y1092560D1*
X2048471Y3001860D2*
Y2493900D1*
X2556455D1*
Y3001860D1*
X2048471D2*
X2556455D1*
X2080209Y2747880D2*
X2080750Y2763383D1*
X2082372Y2778810D1*
X2085066Y2794086D1*
X2088819Y2809138D1*
X2093613Y2823891D1*
X2099424Y2838273D1*
X2106224Y2852215D1*
X2113981Y2865649D1*
X2122656Y2878509D1*
X2132207Y2890733D1*
X2142587Y2902261D1*
X2153746Y2913037D1*
X2165630Y2923008D1*
X2178180Y2932125D1*
X2191336Y2940345D1*
X2205033Y2947628D1*
X2219205Y2953937D1*
X2233783Y2959243D1*
X2248695Y2963519D1*
X2263869Y2966744D1*
X2279231Y2968903D1*
X2294707Y2969985D1*
X2310220D1*
X2325695Y2968903D1*
X2341057Y2966744D1*
X2356232Y2963519D1*
X2371144Y2959243D1*
X2385721Y2953937D1*
X2399893Y2947628D1*
X2413591Y2940345D1*
X2426746Y2932125D1*
X2439297Y2923008D1*
X2451181Y2913037D1*
X2462340Y2902261D1*
X2472720Y2890733D1*
X2482271Y2878509D1*
X2490946Y2865649D1*
X2498702Y2852215D1*
X2505503Y2838273D1*
X2511314Y2823891D1*
X2516108Y2809138D1*
X2519861Y2794086D1*
X2522555Y2778810D1*
X2524176Y2763383D1*
X2524718Y2747880D1*
X2524176Y2732377D1*
X2522555Y2716950D1*
X2519861Y2701674D1*
X2516108Y2686622D1*
X2511314Y2671869D1*
X2505503Y2657487D1*
X2498702Y2643545D1*
X2490946Y2630111D1*
X2482271Y2617251D1*
X2472720Y2605027D1*
X2462340Y2593499D1*
X2451181Y2582723D1*
X2439297Y2572752D1*
X2426746Y2563635D1*
X2413591Y2555415D1*
X2399893Y2548132D1*
X2385721Y2541823D1*
X2371144Y2536517D1*
X2356232Y2532241D1*
X2341057Y2529016D1*
X2325695Y2526857D1*
X2310220Y2525775D1*
X2294707D1*
X2279231Y2526857D1*
X2263869Y2529016D1*
X2248695Y2532241D1*
X2233783Y2536517D1*
X2219205Y2541823D1*
X2205033Y2548132D1*
X2191336Y2555415D1*
X2178180Y2563635D1*
X2165630Y2572752D1*
X2153746Y2582723D1*
X2142587Y2593499D1*
X2132207Y2605027D1*
X2122656Y2617251D1*
X2113981Y2630111D1*
X2106224Y2643545D1*
X2099424Y2657487D1*
X2093613Y2671869D1*
X2088819Y2686622D1*
X2085066Y2701674D1*
X2082372Y2716950D1*
X2080750Y2732377D1*
X2080209Y2747880D1*
X1459155Y2180603D2*
Y1672643D1*
X1967139D1*
Y2180603D1*
X1459155D2*
X1967139D1*
X1490892Y1926623D2*
X1491434Y1942126D1*
X1493055Y1957553D1*
X1495749Y1972830D1*
X1499502Y1987881D1*
X1504296Y2002634D1*
X1510107Y2017016D1*
X1516908Y2030959D1*
X1524664Y2044393D1*
X1533339Y2057253D1*
X1542890Y2069476D1*
X1553270Y2081004D1*
X1564429Y2091780D1*
X1576313Y2101751D1*
X1588864Y2110869D1*
X1602019Y2119089D1*
X1615717Y2126371D1*
X1629889Y2132681D1*
X1644466Y2137986D1*
X1659378Y2142262D1*
X1674553Y2145487D1*
X1689915Y2147646D1*
X1705390Y2148728D1*
X1720903D1*
X1736379Y2147646D1*
X1751741Y2145487D1*
X1766915Y2142262D1*
X1781827Y2137986D1*
X1796405Y2132681D1*
X1810577Y2126371D1*
X1824274Y2119089D1*
X1837430Y2110869D1*
X1849980Y2101751D1*
X1861864Y2091780D1*
X1873023Y2081004D1*
X1883403Y2069476D1*
X1892954Y2057253D1*
X1901629Y2044393D1*
X1909386Y2030959D1*
X1916186Y2017016D1*
X1921997Y2002634D1*
X1926791Y1987881D1*
X1930544Y1972830D1*
X1933238Y1957553D1*
X1934860Y1942126D1*
X1935401Y1926623D1*
X1934860Y1911121D1*
X1933238Y1895694D1*
X1930544Y1880417D1*
X1926791Y1865366D1*
X1921997Y1850613D1*
X1916186Y1836230D1*
X1909386Y1822288D1*
X1901629Y1808854D1*
X1892954Y1795994D1*
X1883403Y1783770D1*
X1873023Y1772242D1*
X1861864Y1761467D1*
X1849980Y1751496D1*
X1837430Y1742378D1*
X1824274Y1734158D1*
X1810577Y1726875D1*
X1796405Y1720566D1*
X1781827Y1715261D1*
X1766915Y1710985D1*
X1751741Y1707760D1*
X1736379Y1705601D1*
X1720903Y1704519D1*
X1705390D1*
X1689915Y1705601D1*
X1674553Y1707760D1*
X1659378Y1710985D1*
X1644466Y1715261D1*
X1629889Y1720566D1*
X1615717Y1726875D1*
X1602019Y1734158D1*
X1588864Y1742378D1*
X1576313Y1751496D1*
X1564429Y1761467D1*
X1553270Y1772242D1*
X1542890Y1783770D1*
X1533339Y1795994D1*
X1524664Y1808854D1*
X1516908Y1822288D1*
X1510107Y1836230D1*
X1504296Y1850613D1*
X1499502Y1865366D1*
X1495749Y1880417D1*
X1493055Y1895694D1*
X1491434Y1911121D1*
X1490892Y1926623D1*
X8399915Y5051720D2*
Y3091720D1*
X7879892D2*
X8399915D1*
X7879892Y5051720D2*
Y3091720D1*
Y5051720D2*
X8079894D1*
X8399915D2*
X8199913D1*
X8079894D2*
G03X8199913Y5051720I60010J34D01*
G01*
D33*
X6331187Y6434076D3*
X6328547Y6660771D2*
D10*
X6988515D1*
X6328547Y6940769D2*
X6988515D1*
Y6660771D2*
Y6940769D1*
X6328547Y6660771D2*
Y6940769D1*
X5865487Y2977270D2*
D12*
X8197207D1*
X5865487Y2969650D2*
X8197207D1*
X5865487Y2962030D2*
X8197207D1*
X5865487Y2954410D2*
X8197207D1*
X5865487Y2946790D2*
X8197207D1*
X5865487Y2939170D2*
X8197207D1*
X5865487Y2931550D2*
X8197207D1*
X5865487Y2923930D2*
X8197207D1*
X5865487Y2916310D2*
X8197207D1*
X5865487Y2908690D2*
X8197207D1*
X5865487Y2901070D2*
X8197207D1*
X5865487Y2893450D2*
X8197207D1*
X5865487Y2885830D2*
X8197207D1*
X5865487Y2878210D2*
X8197207D1*
X5865487Y2870590D2*
X8197207D1*
X5865487Y2862970D2*
X8197207D1*
X5865487Y2855350D2*
X8197207D1*
X5865487Y2847730D2*
X8197207D1*
X5865487Y2840110D2*
X8197207D1*
X5865487Y2832490D2*
X6158652D1*
X6204781D2*
X8197207D1*
X9164947D2*
X9264007D1*
X5865487Y2824870D2*
X6129160D1*
X6234273D2*
X8197207D1*
X8319127D2*
X8631547D1*
X8677267D2*
X8982067D1*
X9145336D2*
X9279839D1*
X9454507D2*
X9561187D1*
X9683107D2*
X9797407D1*
X5865487Y2817250D2*
X6106415D1*
X6256988D2*
X8197207D1*
X8319127D2*
X8631547D1*
X8677267D2*
X8982067D1*
X9128553D2*
X9293725D1*
X9454507D2*
X9561187D1*
X9683107D2*
X9797407D1*
X5865487Y2809630D2*
X6089351D1*
X6273785D2*
X8197207D1*
X8319127D2*
X8631547D1*
X8677267D2*
X8982067D1*
X9114752D2*
X9305533D1*
X9454507D2*
X9561187D1*
X9683107D2*
X9797407D1*
X5865487Y2802010D2*
X6076220D1*
X6285975D2*
X8197207D1*
X8319127D2*
X8631547D1*
X8677267D2*
X8982067D1*
X9103957D2*
X9315470D1*
X9454507D2*
X9561187D1*
X9683107D2*
X9797407D1*
X5865487Y2794390D2*
X6065800D1*
X6294837D2*
X8197207D1*
X8319127D2*
X8631547D1*
X8677267D2*
X8982067D1*
X9094954D2*
X9324166D1*
X9454507D2*
X9561187D1*
X9683107D2*
X9797407D1*
X5865487Y2786770D2*
X6057154D1*
X6302500D2*
X8197207D1*
X8319127D2*
X8631547D1*
X8677267D2*
X8982067D1*
X9086582D2*
X9331993D1*
X9454507D2*
X9561187D1*
X9683107D2*
X9797407D1*
X5865487Y2779150D2*
X6049965D1*
X6310156D2*
X8197207D1*
X8319127D2*
X8631547D1*
X8677267D2*
X8982067D1*
X9079270D2*
X9338800D1*
X9454507D2*
X9561187D1*
X9683107D2*
X9797407D1*
X5865487Y2771530D2*
X6043989D1*
X6317111D2*
X8197207D1*
X8319127D2*
X8631547D1*
X8677267D2*
X8982067D1*
X9073385D2*
X9344397D1*
X9454507D2*
X9561187D1*
X9683107D2*
X9797407D1*
X5865487Y2763910D2*
X6038543D1*
X6322622D2*
X8197207D1*
X8319127D2*
X8631547D1*
X8677267D2*
X8982067D1*
X9068534D2*
X9349088D1*
X9454507D2*
X9561187D1*
X9683107D2*
X9797407D1*
X5865487Y2756290D2*
X6033464D1*
X6326687D2*
X7293422D1*
X7317912D2*
X8197207D1*
X8319127D2*
X8631547D1*
X8677267D2*
X8982067D1*
X9064275D2*
X9353295D1*
X9454507D2*
X9561187D1*
X9683107D2*
X9797407D1*
X5865487Y2748670D2*
X6029367D1*
X6329835D2*
X7276919D1*
X7328214D2*
X8197207D1*
X8319127D2*
X8631547D1*
X8677267D2*
X8982067D1*
X9060276D2*
X9357256D1*
X9454507D2*
X9561187D1*
X9683107D2*
X9797407D1*
X5865487Y2741050D2*
X6026143D1*
X6170287D2*
X6185527D1*
X6332996D2*
X7264492D1*
X7332276D2*
X8197207D1*
X8319127D2*
X8631547D1*
X8677267D2*
X8982067D1*
X9056403D2*
X9361102D1*
X9454507D2*
X9561187D1*
X9683107D2*
X9797407D1*
X5865487Y2733430D2*
X6023177D1*
X6159439D2*
X6200152D1*
X6336638D2*
X7255636D1*
X7334490D2*
X8197207D1*
X8319127D2*
X8631547D1*
X8677267D2*
X8783947D1*
X9052591D2*
X9189594D1*
X9238471D2*
X9364660D1*
X9454507D2*
X9561187D1*
X9683107D2*
X9797407D1*
X5865487Y2725810D2*
X6020470D1*
X6150608D2*
X6211851D1*
X6340942D2*
X7249772D1*
X7335496D2*
X8197207D1*
X8418187D2*
X8532487D1*
X8677267D2*
X8783947D1*
X9049017D2*
X9178524D1*
X9248629D2*
X9367512D1*
X9454507D2*
X9561187D1*
X9683107D2*
X9797407D1*
X5865487Y2718190D2*
X6017945D1*
X6143736D2*
X6220447D1*
X6345495D2*
X7245802D1*
X7335906D2*
X8197207D1*
X8418187D2*
X8532487D1*
X8677267D2*
X8783947D1*
X9045931D2*
X9170447D1*
X9256560D2*
X9369494D1*
X9454507D2*
X9561187D1*
X9683107D2*
X9797407D1*
X5865487Y2710570D2*
X6015072D1*
X6137877D2*
X6226223D1*
X6349154D2*
X7242572D1*
X7336062D2*
X8197207D1*
X8418187D2*
X8532487D1*
X8677267D2*
X8783947D1*
X9043248D2*
X9164544D1*
X9263082D2*
X9371327D1*
X9454507D2*
X9561187D1*
X9683107D2*
X9797407D1*
X5865487Y2702950D2*
X6011798D1*
X6132656D2*
X6230165D1*
X6351600D2*
X7240004D1*
X7336118D2*
X8197207D1*
X8418187D2*
X8532487D1*
X8677267D2*
X8783947D1*
X9040561D2*
X9159841D1*
X9268407D2*
X9373534D1*
X9454507D2*
X9561187D1*
X9683107D2*
X9797407D1*
X5865487Y2695330D2*
X6008501D1*
X6128761D2*
X6233384D1*
X6353655D2*
X7238320D1*
X7336137D2*
X7501270D1*
X7503629D2*
X8197207D1*
X8418187D2*
X8532487D1*
X8677267D2*
X8783947D1*
X9038195D2*
X9155937D1*
X9272694D2*
X9375643D1*
X9454507D2*
X9561187D1*
X9683107D2*
X9797407D1*
X5865487Y2687710D2*
X6005786D1*
X6126455D2*
X6235929D1*
X6355956D2*
X6429367D1*
X6528427D2*
X6584181D1*
X6635107D2*
X6750614D1*
X6853382D2*
X7095272D1*
X7214227D2*
X7237087D1*
X7305667D2*
X7313287D1*
X7336147D2*
X7467321D1*
X7540144D2*
X7718934D1*
X7823827D2*
X7864312D1*
X7959489D2*
X8197207D1*
X8418187D2*
X8532487D1*
X8677267D2*
X8783947D1*
X9036444D2*
X9152953D1*
X9275837D2*
X9377031D1*
X9454507D2*
X9561187D1*
X9683107D2*
X9797407D1*
X5865487Y2680090D2*
X6004114D1*
X6125068D2*
X6237491D1*
X6358102D2*
X6429367D1*
X6528427D2*
X6573285D1*
X6635107D2*
X6737561D1*
X6870891D2*
X7078471D1*
X7296649D2*
X7442024D1*
X7566020D2*
X7714416D1*
X7823827D2*
X7853177D1*
X7971536D2*
X8197207D1*
X8418187D2*
X8532487D1*
X8677267D2*
X8783947D1*
X9034707D2*
X9150924D1*
X9277680D2*
X9377759D1*
X9454507D2*
X9561187D1*
X9683107D2*
X9797407D1*
X5865487Y2672470D2*
X6003237D1*
X6123608D2*
X6238283D1*
X6359504D2*
X6429367D1*
X6528427D2*
X6564261D1*
X6635107D2*
X6725563D1*
X6885412D2*
X7064806D1*
X7288978D2*
X7423752D1*
X7584225D2*
X7714469D1*
X7823827D2*
X7843441D1*
X7981440D2*
X8197207D1*
X8418187D2*
X8532487D1*
X8677267D2*
X8783947D1*
X9032538D2*
X9149074D1*
X9278621D2*
X9378119D1*
X9454507D2*
X9561187D1*
X9683107D2*
X9797407D1*
X5865487Y2664850D2*
X6002592D1*
X6121587D2*
X6238637D1*
X6360236D2*
X6429367D1*
X6528427D2*
X6556877D1*
X6635107D2*
X6714781D1*
X6897223D2*
X7053154D1*
X7283453D2*
X7410324D1*
X7597719D2*
X7715381D1*
X7823827D2*
X7835126D1*
X7989297D2*
X8197207D1*
X8418187D2*
X8532487D1*
X8677267D2*
X8783947D1*
X9030443D2*
X9146832D1*
X9279289D2*
X9378523D1*
X9454507D2*
X9561187D1*
X9683107D2*
X9797407D1*
X5865487Y2657230D2*
X6001468D1*
X6119559D2*
X6238811D1*
X6360569D2*
X6429367D1*
X6528427D2*
X6551055D1*
X6635107D2*
X6705534D1*
X6906510D2*
X7043510D1*
X7279585D2*
X7400394D1*
X7608241D2*
X7716223D1*
X7823827D2*
X7828860D1*
X7995329D2*
X8197207D1*
X8418187D2*
X8532487D1*
X8677267D2*
X8783947D1*
X9029060D2*
X9144453D1*
X9280421D2*
X9379552D1*
X9454507D2*
X9561187D1*
X9683107D2*
X9797407D1*
X5865487Y2649610D2*
X5999585D1*
X6118204D2*
X6239134D1*
X6360735D2*
X6429367D1*
X6528427D2*
X6546290D1*
X6635107D2*
X6697728D1*
X6914111D2*
X7036258D1*
X7280511D2*
X7392552D1*
X7616883D2*
X7716729D1*
X7823827D2*
D3*
X7999940D2*
X8197207D1*
X8418187D2*
X8532487D1*
X8677267D2*
X8783947D1*
X9028334D2*
X9142094D1*
X9282309D2*
X9381460D1*
X9454507D2*
X9561187D1*
X9683107D2*
X9797407D1*
X5865487Y2641990D2*
X5997610D1*
X6117488D2*
X6240125D1*
X6361055D2*
X6429367D1*
X6528427D2*
X6542300D1*
X6635107D2*
X6690856D1*
X6920846D2*
X7030964D1*
X7285055D2*
X7385731D1*
X7623810D2*
X7716975D1*
X8003217D2*
X8197207D1*
X8418187D2*
X8532487D1*
X8677267D2*
X8783947D1*
X9027974D2*
X9139541D1*
X9284303D2*
X9383735D1*
X9454507D2*
X9561187D1*
X9683107D2*
X9797407D1*
X5865487Y2634370D2*
X5996274D1*
X6117162D2*
X6241957D1*
X6362045D2*
X6429367D1*
X6528427D2*
X6539025D1*
X6635107D2*
X6684441D1*
X6926456D2*
X7027118D1*
X7145647D2*
X7176127D1*
X7289949D2*
X7380092D1*
X7628815D2*
X7717081D1*
X8005111D2*
X8197207D1*
X8418187D2*
X8532487D1*
X8677267D2*
X8783947D1*
X9027570D2*
X9137257D1*
X9285756D2*
X9385927D1*
X9454507D2*
X9561187D1*
X9683107D2*
X9797407D1*
X5865487Y2626750D2*
X5995565D1*
X6117027D2*
X6243913D1*
X6363877D2*
X6429367D1*
X6528427D2*
X6536067D1*
X6635107D2*
X6678961D1*
X6930693D2*
X7024128D1*
X7139524D2*
X7180822D1*
X7294078D2*
X7375845D1*
X7632467D2*
X7717123D1*
X8006042D2*
X8197207D1*
X8418187D2*
X8532487D1*
X8677267D2*
X8783947D1*
X9026547D2*
X9135791D1*
X9286867D2*
X9332587D1*
X9454507D2*
X9561187D1*
X9683107D2*
X9797407D1*
X5865487Y2619130D2*
X5995241D1*
X6116975D2*
X6245243D1*
X6365833D2*
X6429367D1*
X6528427D2*
X6532532D1*
X6635107D2*
X6674773D1*
X6787507D2*
X6833227D1*
X6934200D2*
X7021325D1*
X7135038D2*
X7184899D1*
X7297354D2*
X7372335D1*
X7488547D2*
X7519027D1*
X7635830D2*
X7717138D1*
X8006478D2*
X8197207D1*
X8418187D2*
X8532487D1*
X8677267D2*
X8783947D1*
X9024703D2*
X9135033D1*
X9454507D2*
X9561187D1*
X9683107D2*
X9797407D1*
X5865487Y2611510D2*
X5995107D1*
X6116957D2*
X6245950D1*
X6367163D2*
X6429367D1*
X6528427D2*
D3*
X6635107D2*
X6671284D1*
X6782521D2*
X6839349D1*
X6937157D2*
X7018917D1*
X7132218D2*
X7187980D1*
X7300321D2*
X7369377D1*
X7483561D2*
X7525439D1*
X7639301D2*
X7717144D1*
X7846687D2*
X7884787D1*
X8006909D2*
X8197207D1*
X8418187D2*
X8532487D1*
X8677267D2*
X8936347D1*
X9022743D2*
X9134690D1*
X9454507D2*
X9797407D1*
X5865487Y2603890D2*
X5995055D1*
X6116950D2*
X6246273D1*
X6367870D2*
X6429367D1*
X6635107D2*
X6668333D1*
X6777467D2*
X6843835D1*
X6939756D2*
X7017151D1*
X7130009D2*
X7189805D1*
X7302776D2*
X7366778D1*
X7478507D2*
X7530872D1*
X7642672D2*
X7717146D1*
X7841477D2*
X7889482D1*
X8007942D2*
X8197207D1*
X8418187D2*
X8532487D1*
X8677267D2*
X8936347D1*
X9021411D2*
X9134550D1*
X9454507D2*
X9797407D1*
X5865487Y2596270D2*
X5995037D1*
X6116948D2*
X6246407D1*
X6368193D2*
X6429367D1*
X6635107D2*
X6665737D1*
X6772560D2*
X6846655D1*
X6942401D2*
X7015439D1*
X7127649D2*
X7190713D1*
X7304306D2*
X7364132D1*
X7473600D2*
X7535251D1*
X7645414D2*
X7717146D1*
X7836911D2*
X7893589D1*
X8009789D2*
X8197207D1*
X8418187D2*
X8532487D1*
X8677267D2*
X8936347D1*
X9020704D2*
X9134496D1*
X9454507D2*
X9797407D1*
X5865487Y2588650D2*
X5995030D1*
X6116947D2*
X6246458D1*
X6368327D2*
X6429367D1*
X6610812D2*
X6663092D1*
X6768780D2*
X6848864D1*
X6944749D2*
X7013536D1*
X7125512D2*
X7191112D1*
X7305088D2*
X7361784D1*
X7469820D2*
X7538442D1*
X7647124D2*
X7717147D1*
X7833754D2*
X7896937D1*
X8011750D2*
X8197207D1*
X8418187D2*
X8532487D1*
X8677267D2*
X8936347D1*
X9020380D2*
X9134477D1*
X9454507D2*
X9797407D1*
X5865487Y2581030D2*
X5995028D1*
X6116947D2*
X6246477D1*
X6368378D2*
X6429367D1*
X6592170D2*
X6660774D1*
X6766544D2*
X6851224D1*
X6946494D2*
X7012412D1*
X7124371D2*
X7191273D1*
X7305439D2*
X7360040D1*
X7467584D2*
X7540307D1*
X7648242D2*
X7717147D1*
X7831290D2*
X7899734D1*
X8013082D2*
X8197207D1*
X8418187D2*
X8532487D1*
X8677267D2*
X8936347D1*
X9020247D2*
X9134470D1*
X9454507D2*
X9797407D1*
X5865487Y2573410D2*
X5995027D1*
X6116947D2*
X6246483D1*
X6368397D2*
X6429367D1*
X6578705D2*
X6659268D1*
X6765439D2*
X6853391D1*
X6948228D2*
X7012884D1*
X7124607D2*
X7191333D1*
X7305582D2*
X7358306D1*
X7466479D2*
X7541227D1*
X7649592D2*
X7717147D1*
X7828792D2*
X7902437D1*
X8013789D2*
X8197207D1*
X8418187D2*
X8532487D1*
X8677267D2*
X8936347D1*
X9020195D2*
X9134468D1*
X9454507D2*
X9797407D1*
X5865487Y2565790D2*
X5995027D1*
X6116947D2*
X6246486D1*
X6368403D2*
X6429367D1*
X6568672D2*
X6658237D1*
X6764954D2*
X6854800D1*
X6950396D2*
X7014379D1*
X7126099D2*
X7191326D1*
X7305607D2*
X7356137D1*
X7465995D2*
X7541660D1*
X7651570D2*
X7717147D1*
X7826563D2*
X7904521D1*
X8014113D2*
X8197207D1*
X8418187D2*
X8532487D1*
X8677267D2*
X8936347D1*
X9020177D2*
X9134467D1*
X9454507D2*
X9797407D1*
X5865487Y2558170D2*
X5995027D1*
X6116947D2*
X6246486D1*
X6368406D2*
X6429367D1*
X6561159D2*
X6656922D1*
X6764760D2*
X6855537D1*
X6952491D2*
X7016349D1*
X7127916D2*
X7191065D1*
X7305359D2*
X7354043D1*
X7465800D2*
X7542090D1*
X7653612D2*
X7717147D1*
X7825128D2*
X7905663D1*
X8014247D2*
X8197207D1*
X8418187D2*
X8532487D1*
X8677267D2*
X8936347D1*
X9020170D2*
X9134467D1*
X9454507D2*
X9797407D1*
X5865487Y2550550D2*
X5995027D1*
X6116947D2*
X6246487D1*
X6368406D2*
X6429367D1*
X6555926D2*
X6654956D1*
X6764685D2*
X6855883D1*
X6953873D2*
X7018774D1*
X7129252D2*
X7190067D1*
X7304365D2*
X7352660D1*
X7465727D2*
X7543122D1*
X7655230D2*
X7717147D1*
X7824384D2*
X7904138D1*
X8014298D2*
X8197207D1*
X8418187D2*
X8532487D1*
X8677267D2*
X8936347D1*
X9020168D2*
X9134467D1*
X9454507D2*
X9797407D1*
X5865487Y2542930D2*
X5995027D1*
X6116947D2*
X6246487D1*
X6368407D2*
X6429367D1*
X6552221D2*
X6652949D1*
X6764647D2*
X6856087D1*
X6954629D2*
X7021267D1*
X7130520D2*
X7187951D1*
X7302274D2*
X7351934D1*
X7465700D2*
X7544969D1*
X7656915D2*
X7717147D1*
X7824047D2*
X7902413D1*
X8014317D2*
X8197207D1*
X8418187D2*
X8532487D1*
X8677267D2*
X8936347D1*
X9020197D2*
X9134467D1*
X9454507D2*
X9797407D1*
X5865487Y2535310D2*
X5995027D1*
X6116947D2*
X6246487D1*
X6368407D2*
X6429367D1*
X6549095D2*
X6651600D1*
X6955227D2*
X7023712D1*
X7132296D2*
X7184801D1*
X7299320D2*
X7351604D1*
X7465691D2*
X7546930D1*
X7659066D2*
X7717147D1*
X7823909D2*
X7901196D1*
X8014323D2*
X8197207D1*
X8418187D2*
X8532487D1*
X8677267D2*
X8936347D1*
X9020464D2*
X9134467D1*
X9454507D2*
X9797407D1*
X5865487Y2527690D2*
X5995027D1*
X6116947D2*
X6246487D1*
X6368377D2*
X6429367D1*
X6546586D2*
X6650887D1*
X6956334D2*
X7026586D1*
X7138314D2*
X7180752D1*
X7295869D2*
X7351468D1*
X7465658D2*
X7548262D1*
X7661154D2*
X7717147D1*
X7823856D2*
X7900536D1*
X8014326D2*
X8197207D1*
X8418187D2*
X8532487D1*
X8677267D2*
X8936347D1*
X9021435D2*
X9134467D1*
X9454507D2*
X9797407D1*
X5865487Y2520070D2*
X5995027D1*
X6116947D2*
X6246457D1*
X6368109D2*
X6429367D1*
X6545036D2*
X6650532D1*
X6958211D2*
X7030148D1*
X7145647D2*
X7176127D1*
X7291970D2*
X7351416D1*
X7465389D2*
X7548969D1*
X7662534D2*
X7717147D1*
X7823837D2*
X7900231D1*
X8014326D2*
X8197207D1*
X8418187D2*
X8532487D1*
X8677267D2*
X8783947D1*
X9023260D2*
X9134467D1*
X9454507D2*
X9797407D1*
X5865487Y2512450D2*
X5995056D1*
X6116947D2*
X6246189D1*
X6367138D2*
X6429367D1*
X6544248D2*
X6650107D1*
X6960184D2*
X7034710D1*
X7287462D2*
X7351397D1*
X7464448D2*
X7549293D1*
X7663260D2*
X7717147D1*
X7823830D2*
X7900103D1*
X8014327D2*
X8197207D1*
X8418187D2*
X8532487D1*
X8677267D2*
X8783947D1*
X9025214D2*
X9134467D1*
X9454507D2*
X9561187D1*
X9683107D2*
X9797407D1*
X5865487Y2504830D2*
X5995324D1*
X6116947D2*
X6245218D1*
X6365313D2*
X6429367D1*
X6543895D2*
X6648878D1*
X6961520D2*
X7040488D1*
X7282248D2*
X7351390D1*
X7462891D2*
X7549427D1*
X7663590D2*
X7717147D1*
X7823828D2*
X7900054D1*
X8014327D2*
X8197207D1*
X8418187D2*
X8532487D1*
X8677267D2*
X8783947D1*
X9026543D2*
X9134496D1*
X9454507D2*
X9561187D1*
X9683107D2*
X9797407D1*
X5865487Y2497210D2*
X5996295D1*
X6116976D2*
X6243393D1*
X6363359D2*
X6429367D1*
X6543752D2*
X6646254D1*
X6962229D2*
X7046850D1*
X7276082D2*
X7351388D1*
X7461908D2*
X7549478D1*
X7663726D2*
X7717147D1*
X7823827D2*
X7900036D1*
X8014327D2*
X8197207D1*
X8418187D2*
X8532487D1*
X8677267D2*
X8783947D1*
X9027250D2*
X9134764D1*
X9454507D2*
X9561187D1*
X9683107D2*
X9797407D1*
X5865487Y2489590D2*
X5998120D1*
X6117244D2*
X6241439D1*
X6362030D2*
X6429367D1*
X6543697D2*
X6642727D1*
X6962553D2*
X7052704D1*
X7267915D2*
X7351387D1*
X7462404D2*
X7549497D1*
X7663778D2*
X7717147D1*
X7823827D2*
X7900030D1*
X8014327D2*
X8197207D1*
X8418187D2*
X8532487D1*
X8677267D2*
X8783947D1*
X9027573D2*
X9135735D1*
X9286867D2*
X9317347D1*
X9454507D2*
X9561187D1*
X9683107D2*
X9797407D1*
X5865487Y2481970D2*
X6000074D1*
X6118215D2*
X6240110D1*
X6361324D2*
X6429367D1*
X6543677D2*
X6646244D1*
X6962691D2*
X7057801D1*
X7257129D2*
X7351387D1*
X7463651D2*
X7549503D1*
X7663767D2*
X7717147D1*
X7823827D2*
X7900028D1*
X8014327D2*
X8197207D1*
X8418187D2*
X8532487D1*
X8677267D2*
X8783947D1*
X9027736D2*
X9137590D1*
X9284262D2*
X9385927D1*
X9454507D2*
X9561187D1*
X9683107D2*
X9797407D1*
X5865487Y2474350D2*
X6001403D1*
X6120040D2*
X6239404D1*
X6361000D2*
X6429367D1*
X6543670D2*
X6648433D1*
X6764647D2*
X7053079D1*
X7243436D2*
X7351387D1*
X7464657D2*
X7549476D1*
X7663506D2*
X7717147D1*
X7823827D2*
X7900027D1*
X8014327D2*
X8197207D1*
X8418187D2*
X8532487D1*
X8677267D2*
X8783947D1*
X9028056D2*
X9139812D1*
X9281994D2*
X9385636D1*
X9454507D2*
X9561187D1*
X9683107D2*
X9797407D1*
X5865487Y2466730D2*
X6002140D1*
X6121994D2*
X6239080D1*
X6360837D2*
X6429367D1*
X6543668D2*
X6649540D1*
X6764647D2*
X7046554D1*
X7226168D2*
X7351387D1*
X7465230D2*
X7549209D1*
X7662537D2*
X7717147D1*
X7823827D2*
X7900027D1*
X8014327D2*
X8197207D1*
X8418187D2*
X8532487D1*
X8677267D2*
X8783947D1*
X9029046D2*
X9142112D1*
X9280519D2*
X9384660D1*
X9454507D2*
X9561187D1*
X9683107D2*
X9797407D1*
X5865487Y2459110D2*
X6002731D1*
X6123323D2*
X6238917D1*
X6360518D2*
X6429367D1*
X6543667D2*
X6650061D1*
X6764647D2*
X7039374D1*
X7115167D2*
X7130407D1*
X7206607D2*
X7351416D1*
X7465502D2*
X7548238D1*
X7660713D2*
X7717147D1*
X7823827D2*
X7900027D1*
X8014327D2*
X8197207D1*
X8418187D2*
X8532487D1*
X8677267D2*
X8783947D1*
X9030877D2*
X9144644D1*
X9279505D2*
X9382833D1*
X9454507D2*
X9561187D1*
X9683107D2*
X9797407D1*
X5865487Y2451490D2*
X6003865D1*
X6124060D2*
X6238598D1*
X6359528D2*
X6429367D1*
X6543667D2*
X6650528D1*
X6764647D2*
X7032455D1*
X7106984D2*
X7351684D1*
X7465616D2*
X7546413D1*
X7658729D2*
X7717147D1*
X7823827D2*
X7900027D1*
X8014327D2*
X8197207D1*
X8418187D2*
X8532487D1*
X8677267D2*
X8783947D1*
X9032863D2*
X9146950D1*
X9278168D2*
X9380879D1*
X9454507D2*
X9561187D1*
X9683107D2*
X9797407D1*
X5865487Y2443870D2*
X6006010D1*
X6124680D2*
X6237578D1*
X6357696D2*
X6429367D1*
X6543667D2*
X6651574D1*
X6764647D2*
X7025935D1*
X7100116D2*
X7352655D1*
X7465661D2*
X7544459D1*
X7657133D2*
X7717147D1*
X7823827D2*
X7900027D1*
X8014327D2*
X8197207D1*
X8418187D2*
X8532487D1*
X8677267D2*
X8783947D1*
X9034460D2*
X9148681D1*
X9275937D2*
X9379520D1*
X9454507D2*
X9561187D1*
X9683107D2*
X9797407D1*
X5865487Y2436250D2*
X6008953D1*
X6126053D2*
X6235479D1*
X6355710D2*
X6429367D1*
X6543667D2*
X6653426D1*
X6764647D2*
X7019681D1*
X7096845D2*
X7354480D1*
X7465678D2*
X7543130D1*
X7655455D2*
X7717147D1*
X7823827D2*
X7900027D1*
X8014327D2*
X8197207D1*
X8418187D2*
X8532487D1*
X8677267D2*
X8783947D1*
X9036138D2*
X9150440D1*
X9272930D2*
X9378546D1*
X9454507D2*
X9561187D1*
X9683107D2*
X9797407D1*
X5865487Y2428630D2*
X6012143D1*
X6128930D2*
X6232522D1*
X6354083D2*
X6429367D1*
X6543667D2*
X6655419D1*
X6764647D2*
X6856057D1*
X6901807D2*
X7014486D1*
X7097799D2*
X7356434D1*
X7465684D2*
X7542424D1*
X7653307D2*
X7717147D1*
X7823827D2*
X7900027D1*
X8014327D2*
X8197207D1*
X8418187D2*
X8532487D1*
X8677267D2*
X8783947D1*
X9038316D2*
X9152934D1*
X9269459D2*
X9377252D1*
X9454507D2*
X9561187D1*
X9683107D2*
X9797407D1*
X5865487Y2421010D2*
X6015074D1*
X6133025D2*
X6229040D1*
X6352137D2*
X6429367D1*
X6543667D2*
X6657019D1*
X6764676D2*
X6855789D1*
X6955147D2*
X7011017D1*
X7103954D2*
X7357793D1*
X7465715D2*
X7542071D1*
X7651219D2*
X7717147D1*
X7823827D2*
X7900027D1*
X8014327D2*
X8197207D1*
X8418187D2*
X8532487D1*
X8677267D2*
X8783947D1*
X9040702D2*
X9156565D1*
X9265523D2*
X9375263D1*
X9454507D2*
X9561187D1*
X9683107D2*
X9797407D1*
X5865487Y2413390D2*
X6017698D1*
X6137643D2*
X6224813D1*
X6349018D2*
X6429367D1*
X6543667D2*
X6658698D1*
X6764974D2*
X6854818D1*
X6953969D2*
X7008446D1*
X7112646D2*
X7358767D1*
X7465984D2*
X7541669D1*
X7649809D2*
X7717147D1*
X7823827D2*
X7900027D1*
X8014327D2*
X8197207D1*
X8418187D2*
X8532487D1*
X8677267D2*
X8783947D1*
X9043321D2*
X9162017D1*
X9260775D2*
X9372990D1*
X9454507D2*
X9561187D1*
X9683107D2*
X9797407D1*
X5865487Y2405770D2*
X6020393D1*
X6143355D2*
X6218800D1*
X6345076D2*
X6429367D1*
X6543667D2*
X6660876D1*
X6766243D2*
X6852963D1*
X6952050D2*
X7006162D1*
X7122787D2*
X7360062D1*
X7466985D2*
X7540617D1*
X7648816D2*
X7717147D1*
X7823827D2*
X7900027D1*
X8014327D2*
X8197207D1*
X8418187D2*
X8532487D1*
X8677267D2*
X8783947D1*
X9046842D2*
X9169674D1*
X9254893D2*
X9370642D1*
X9454507D2*
X9561187D1*
X9683107D2*
X9797407D1*
X5865487Y2398150D2*
X6022989D1*
X6151782D2*
X6209852D1*
X6341474D2*
X6429367D1*
X6543667D2*
X6663232D1*
X6769366D2*
X6850652D1*
X6949809D2*
X7004265D1*
X7213151D2*
X7362050D1*
X7469138D2*
X7538446D1*
X7647515D2*
X7717147D1*
X7823827D2*
X7900027D1*
X8014327D2*
X8197207D1*
X8418187D2*
X8532487D1*
X8677267D2*
X8783947D1*
X9050981D2*
X9178603D1*
X9248186D2*
X9367806D1*
X9454507D2*
X9561187D1*
X9683107D2*
X9797407D1*
X5865487Y2390530D2*
X6025472D1*
X6163784D2*
X6198272D1*
X6338418D2*
X6429367D1*
X6543667D2*
X6665583D1*
X6774704D2*
X6847476D1*
X6947504D2*
X7005141D1*
X7248487D2*
X7364323D1*
X7472649D2*
X7534928D1*
X7645524D2*
X7717147D1*
X7823827D2*
X7900027D1*
X8014327D2*
X8197207D1*
X8418187D2*
X8532487D1*
X8677267D2*
X8982067D1*
X9054667D2*
X9187807D1*
X9241147D2*
X9364288D1*
X9454507D2*
X9561187D1*
X9683107D2*
X9797407D1*
X5865487Y2382910D2*
X6028359D1*
X6177907D2*
X6185527D1*
X6335259D2*
X6429367D1*
X6543667D2*
X6668193D1*
X6782256D2*
X6842860D1*
X6944941D2*
X7006761D1*
X7273245D2*
X7366672D1*
X7478228D2*
X7529347D1*
X7643250D2*
X7717147D1*
X7823827D2*
X7900027D1*
X8014327D2*
X8197207D1*
X8418187D2*
X8532487D1*
X8677267D2*
X8982067D1*
X9057756D2*
X9359998D1*
X9454507D2*
X9561187D1*
X9683107D2*
X9797407D1*
X5865487Y2375290D2*
X6031896D1*
X6331578D2*
X6429367D1*
X6543667D2*
X6671012D1*
X6791925D2*
X6831305D1*
X6942395D2*
X7009021D1*
X7290245D2*
X7369508D1*
X7486452D2*
X7521122D1*
X7640902D2*
X7717147D1*
X7823827D2*
X7900027D1*
X8014327D2*
X8197207D1*
X8418187D2*
X8532487D1*
X8677267D2*
X8982067D1*
X9060927D2*
X9355164D1*
X9454507D2*
X9561187D1*
X9683107D2*
X9797407D1*
X5865487Y2367670D2*
X6036192D1*
X6326999D2*
X6429367D1*
X6543667D2*
X6674449D1*
X6802747D2*
X6817987D1*
X6939902D2*
X7012452D1*
X7302375D2*
X7373026D1*
X7496167D2*
X7511407D1*
X7638066D2*
X7717147D1*
X7823827D2*
X7900027D1*
X8014327D2*
X8197207D1*
X8418187D2*
X8532487D1*
X8677267D2*
X8982067D1*
X9064613D2*
X9350300D1*
X9454507D2*
X9561187D1*
X9683107D2*
X9797407D1*
X5865487Y2360050D2*
X6041029D1*
X6321413D2*
X6429367D1*
X6543667D2*
X6679156D1*
X6936753D2*
X7017098D1*
X7311684D2*
X7377315D1*
X7634518D2*
X7717147D1*
X7823827D2*
X7900027D1*
X8014327D2*
X8197207D1*
X8418187D2*
X8532487D1*
X8677267D2*
X8982067D1*
X9069223D2*
X9345268D1*
X9454507D2*
X9561187D1*
X9683107D2*
X9797407D1*
X5865487Y2352430D2*
X6045953D1*
X6315420D2*
X6429367D1*
X6543667D2*
X6684644D1*
X6932248D2*
X7023030D1*
X7318867D2*
X7382150D1*
X7629961D2*
X7717147D1*
X7823827D2*
X7900027D1*
X8014327D2*
X8197207D1*
X8418187D2*
X8532487D1*
X8677267D2*
X8982067D1*
X9075048D2*
X9339841D1*
X9454507D2*
X9561187D1*
X9683107D2*
X9797407D1*
X5865487Y2344810D2*
X6051490D1*
X6309287D2*
X6429367D1*
X6543667D2*
X6690298D1*
X6926098D2*
X7031251D1*
X7323966D2*
X7387073D1*
X7624125D2*
X7717147D1*
X7823827D2*
X7900027D1*
X8014327D2*
X8197207D1*
X8418187D2*
X8532487D1*
X8677267D2*
X8982067D1*
X9081774D2*
X9333871D1*
X9454507D2*
X9561187D1*
X9683107D2*
X9797407D1*
X5865487Y2337190D2*
X6058652D1*
X6302628D2*
X6429367D1*
X6543667D2*
X6696139D1*
X6919010D2*
X7042096D1*
X7327620D2*
X7392611D1*
X7617139D2*
X7717147D1*
X7823827D2*
X7900027D1*
X8014327D2*
X8197207D1*
X8418187D2*
X8532487D1*
X8677267D2*
X8982067D1*
X9089029D2*
X9326934D1*
X9454507D2*
X9561187D1*
X9683107D2*
X9797407D1*
X5865487Y2329570D2*
X6067866D1*
X6295000D2*
X6429367D1*
X6543667D2*
X6702625D1*
X6911548D2*
X7054207D1*
X7330727D2*
X7399742D1*
X7608944D2*
X7717147D1*
X7823827D2*
X7900027D1*
X8014327D2*
X8197207D1*
X8418187D2*
X8532487D1*
X8677267D2*
X8982067D1*
X9096817D2*
X9319236D1*
X9454507D2*
X9561187D1*
X9683107D2*
X9797407D1*
X5865487Y2321950D2*
X6079215D1*
X6285520D2*
X6429367D1*
X6543667D2*
X6711212D1*
X6902626D2*
X7042809D1*
X7333231D2*
X7408837D1*
X7599510D2*
X7717147D1*
X7823827D2*
X7900027D1*
X8014327D2*
X8197207D1*
X8418187D2*
X8532487D1*
X8677267D2*
X8982067D1*
X9105913D2*
X9310632D1*
X9454507D2*
X9561187D1*
X9683107D2*
X9797407D1*
X5865487Y2314330D2*
X6093417D1*
X6272645D2*
X6429367D1*
X6543667D2*
X6723312D1*
X6890940D2*
X7032291D1*
X7115167D2*
X7122787D1*
X7334778D2*
X7420494D1*
X7588546D2*
X7717147D1*
X7823827D2*
X7900027D1*
X8014327D2*
X8197207D1*
X8418187D2*
X8532487D1*
X8677267D2*
X8982067D1*
X9117582D2*
X9299683D1*
X9454507D2*
X9561187D1*
X9683107D2*
X9797407D1*
X5865487Y2306710D2*
X6112703D1*
X6254462D2*
X6429367D1*
X6543667D2*
X6740089D1*
X6874760D2*
X7022709D1*
X7105237D2*
X7214227D1*
X7335566D2*
X7437084D1*
X7573725D2*
X7717147D1*
X7823827D2*
X7900027D1*
X8014327D2*
X8197207D1*
X8418187D2*
X8532487D1*
X8677267D2*
X8982067D1*
X9132123D2*
X9286202D1*
X9454507D2*
X9561187D1*
X9683107D2*
X9797407D1*
X5865487Y2299090D2*
X6139158D1*
X6229610D2*
X6429367D1*
X6543667D2*
X6762236D1*
X6852230D2*
X7014498D1*
X7097615D2*
X7222954D1*
X7335918D2*
X7460688D1*
X7552341D2*
X7717147D1*
X7823827D2*
X7900027D1*
X8014327D2*
X8197207D1*
X8418187D2*
X8532487D1*
X8677267D2*
X8982067D1*
X9148326D2*
X9271484D1*
X9454507D2*
X9561187D1*
X9683107D2*
X9797407D1*
X5865487Y2291470D2*
X6170287D1*
X6200767D2*
X6787507D1*
X6825607D2*
X7007602D1*
X7092129D2*
X7230652D1*
X7336062D2*
X7488547D1*
X7526647D2*
X8197207D1*
X9164947D2*
X9256387D1*
X5865487Y2283850D2*
X7001797D1*
X7088446D2*
X7233918D1*
X7336087D2*
X8197207D1*
X5865487Y2276230D2*
X6997627D1*
X7086413D2*
X7235720D1*
X7335839D2*
X8197207D1*
X5865487Y2268610D2*
X6995235D1*
X7085715D2*
X7236486D1*
X7334874D2*
X8197207D1*
X5865487Y2260990D2*
X6994071D1*
X7085893D2*
X7236201D1*
X7333022D2*
X8197207D1*
X5865487Y2253370D2*
X6993595D1*
X7089072D2*
X7234847D1*
X7330771D2*
X8197207D1*
X5865487Y2245750D2*
X6993661D1*
X7098603D2*
X7226578D1*
X7328204D2*
X8197207D1*
X5865487Y2238130D2*
X6994586D1*
X7112967D2*
X7213992D1*
X7324671D2*
X8197207D1*
X5865487Y2230510D2*
X6996652D1*
X7130407D2*
X7198987D1*
X7320272D2*
X8197207D1*
X5865487Y2222890D2*
X6999627D1*
X7315557D2*
X8197207D1*
X5865487Y2215270D2*
X7003343D1*
X7310108D2*
X8197207D1*
X5865487Y2207650D2*
X7008243D1*
X7303011D2*
X8197207D1*
X5865487Y2200030D2*
X7014903D1*
X7294019D2*
X8197207D1*
X5865487Y2192410D2*
X7023756D1*
X7283020D2*
X8197207D1*
X5865487Y2184790D2*
X7036798D1*
X7267822D2*
X8197207D1*
X5865487Y2177170D2*
X7058652D1*
X7243199D2*
X8197207D1*
X5865487Y2169550D2*
X7091486D1*
X7205837D2*
X8197207D1*
X5865487Y2161930D2*
X7130407D1*
X7145647D2*
D3*
X7160887D2*
X8197207D1*
X5865487Y2154310D2*
X8197207D1*
X5865487Y2146690D2*
X8197207D1*
X5865487Y2139070D2*
X8197207D1*
X5865487Y2131450D2*
X8197207D1*
X5865487Y2123830D2*
X8197207D1*
X5865487Y2977270D2*
Y2969650D1*
Y2962030D1*
Y2954410D1*
Y2946790D1*
Y2939170D1*
Y2931550D1*
Y2923930D1*
Y2916310D1*
Y2908690D1*
Y2901070D1*
Y2893450D1*
Y2885830D1*
Y2878210D1*
Y2870590D1*
Y2862970D1*
Y2855350D1*
Y2847730D1*
Y2840110D1*
Y2832490D1*
Y2824870D1*
Y2817250D1*
Y2809630D1*
Y2802010D1*
Y2794390D1*
Y2786770D1*
Y2779150D1*
Y2771530D1*
Y2763910D1*
Y2756290D1*
Y2748670D1*
Y2741050D1*
Y2733430D1*
Y2725810D1*
Y2718190D1*
Y2710570D1*
Y2702950D1*
Y2695330D1*
Y2687710D1*
Y2680090D1*
Y2672470D1*
Y2664850D1*
Y2657230D1*
Y2649610D1*
Y2641990D1*
Y2634370D1*
Y2626750D1*
Y2619130D1*
Y2611510D1*
Y2603890D1*
Y2596270D1*
Y2588650D1*
Y2581030D1*
Y2573410D1*
Y2565790D1*
Y2558170D1*
Y2550550D1*
Y2542930D1*
Y2535310D1*
Y2527690D1*
Y2520070D1*
Y2512450D1*
Y2504830D1*
Y2497210D1*
Y2489590D1*
Y2481970D1*
Y2474350D1*
Y2466730D1*
Y2459110D1*
Y2451490D1*
Y2443870D1*
Y2436250D1*
Y2428630D1*
Y2421010D1*
Y2413390D1*
Y2405770D1*
Y2398150D1*
Y2390530D1*
Y2382910D1*
Y2375290D1*
Y2367670D1*
Y2360050D1*
Y2352430D1*
Y2344810D1*
Y2337190D1*
Y2329570D1*
Y2321950D1*
Y2314330D1*
Y2306710D1*
Y2299090D1*
Y2291470D1*
Y2283850D1*
Y2276230D1*
Y2268610D1*
Y2260990D1*
Y2253370D1*
Y2245750D1*
Y2238130D1*
Y2230510D1*
Y2222890D1*
Y2215270D1*
Y2207650D1*
Y2200030D1*
Y2192410D1*
Y2184790D1*
Y2177170D1*
Y2169550D1*
Y2161930D1*
Y2154310D1*
Y2146690D1*
Y2139070D1*
Y2131450D1*
Y2123830D1*
X8197207Y2977270D2*
Y2969650D1*
Y2962030D1*
Y2954410D1*
Y2946790D1*
Y2939170D1*
Y2931550D1*
Y2923930D1*
Y2916310D1*
Y2908690D1*
Y2901070D1*
Y2893450D1*
Y2885830D1*
Y2878210D1*
Y2870590D1*
Y2862970D1*
Y2855350D1*
Y2847730D1*
Y2840110D1*
Y2832490D1*
Y2824870D1*
Y2817250D1*
Y2809630D1*
Y2802010D1*
Y2794390D1*
Y2786770D1*
Y2779150D1*
Y2771530D1*
Y2763910D1*
Y2756290D1*
Y2748670D1*
Y2741050D1*
Y2733430D1*
Y2725810D1*
Y2718190D1*
Y2710570D1*
Y2702950D1*
Y2695330D1*
Y2687710D1*
Y2680090D1*
Y2672470D1*
Y2664850D1*
Y2657230D1*
Y2649610D1*
Y2641990D1*
Y2634370D1*
Y2626750D1*
Y2619130D1*
Y2611510D1*
Y2603890D1*
Y2596270D1*
Y2588650D1*
Y2581030D1*
Y2573410D1*
Y2565790D1*
Y2558170D1*
Y2550550D1*
Y2542930D1*
Y2535310D1*
Y2527690D1*
Y2520070D1*
Y2512450D1*
Y2504830D1*
Y2497210D1*
Y2489590D1*
Y2481970D1*
Y2474350D1*
Y2466730D1*
Y2459110D1*
Y2451490D1*
Y2443870D1*
Y2436250D1*
Y2428630D1*
Y2421010D1*
Y2413390D1*
Y2405770D1*
Y2398150D1*
Y2390530D1*
Y2382910D1*
Y2375290D1*
Y2367670D1*
Y2360050D1*
Y2352430D1*
Y2344810D1*
Y2337190D1*
Y2329570D1*
Y2321950D1*
Y2314330D1*
Y2306710D1*
Y2299090D1*
Y2291470D1*
Y2283850D1*
Y2276230D1*
Y2268610D1*
Y2260990D1*
Y2253370D1*
Y2245750D1*
Y2238130D1*
Y2230510D1*
Y2222890D1*
Y2215270D1*
Y2207650D1*
Y2200030D1*
Y2192410D1*
Y2184790D1*
Y2177170D1*
Y2169550D1*
Y2161930D1*
Y2154310D1*
Y2146690D1*
Y2139070D1*
Y2131450D1*
Y2123830D1*
X6193147Y2840110D2*
X6158652Y2832490D1*
X6129160Y2824870D1*
X6106415Y2817250D1*
X6089351Y2809630D1*
X6076220Y2802010D1*
X6065800Y2794390D1*
X6057154Y2786770D1*
X6049965Y2779150D1*
X6043989Y2771530D1*
X6038543Y2763910D1*
X6033464Y2756290D1*
X6029367Y2748670D1*
X6026143Y2741050D1*
X6023177Y2733430D1*
X6020470Y2725810D1*
X6017945Y2718190D1*
X6015072Y2710570D1*
X6011798Y2702950D1*
X6008501Y2695330D1*
X6005786Y2687710D1*
X6004114Y2680090D1*
X6003237Y2672470D1*
X6002592Y2664850D1*
X6001468Y2657230D1*
X5999585Y2649610D1*
X5997610Y2641990D1*
X5996274Y2634370D1*
X5995565Y2626750D1*
X5995241Y2619130D1*
X5995107Y2611510D1*
X5995055Y2603890D1*
X5995037Y2596270D1*
X5995030Y2588650D1*
X5995028Y2581030D1*
X5995027Y2573410D1*
Y2565790D1*
Y2558170D1*
Y2550550D1*
Y2542930D1*
Y2535310D1*
Y2527690D1*
Y2520070D1*
X5995056Y2512450D1*
X5995324Y2504830D1*
X5996295Y2497210D1*
X5998120Y2489590D1*
X6000074Y2481970D1*
X6001403Y2474350D1*
X6002140Y2466730D1*
X6002731Y2459110D1*
X6003865Y2451490D1*
X6006010Y2443870D1*
X6008953Y2436250D1*
X6012143Y2428630D1*
X6015074Y2421010D1*
X6017698Y2413390D1*
X6020393Y2405770D1*
X6022989Y2398150D1*
X6025472Y2390530D1*
X6028359Y2382910D1*
X6031896Y2375290D1*
X6036192Y2367670D1*
X6041029Y2360050D1*
X6045953Y2352430D1*
X6051490Y2344810D1*
X6058652Y2337190D1*
X6067866Y2329570D1*
X6079215Y2321950D1*
X6093417Y2314330D1*
X6112703Y2306710D1*
X6139158Y2299090D1*
X6170287Y2291470D1*
Y2840110D2*
X6204781Y2832490D1*
X6234273Y2824870D1*
X6256988Y2817250D1*
X6273785Y2809630D1*
X6285975Y2802010D1*
X6294837Y2794390D1*
X6302500Y2786770D1*
X6310156Y2779150D1*
X6317111Y2771530D1*
X6322622Y2763910D1*
X6326687Y2756290D1*
X6329835Y2748670D1*
X6332996Y2741050D1*
X6336638Y2733430D1*
X6340942Y2725810D1*
X6345495Y2718190D1*
X6349154Y2710570D1*
X6351600Y2702950D1*
X6353655Y2695330D1*
X6355956Y2687710D1*
X6358102Y2680090D1*
X6359504Y2672470D1*
X6360236Y2664850D1*
X6360569Y2657230D1*
X6360735Y2649610D1*
X6361055Y2641990D1*
X6362045Y2634370D1*
X6363877Y2626750D1*
X6365833Y2619130D1*
X6367163Y2611510D1*
X6367870Y2603890D1*
X6368193Y2596270D1*
X6368327Y2588650D1*
X6368378Y2581030D1*
X6368397Y2573410D1*
X6368403Y2565790D1*
X6368406Y2558170D1*
Y2550550D1*
X6368407Y2542930D1*
Y2535310D1*
X6368377Y2527690D1*
X6368109Y2520070D1*
X6367138Y2512450D1*
X6365313Y2504830D1*
X6363359Y2497210D1*
X6362030Y2489590D1*
X6361324Y2481970D1*
X6361000Y2474350D1*
X6360837Y2466730D1*
X6360518Y2459110D1*
X6359528Y2451490D1*
X6357696Y2443870D1*
X6355710Y2436250D1*
X6354083Y2428630D1*
X6352137Y2421010D1*
X6349018Y2413390D1*
X6345076Y2405770D1*
X6341474Y2398150D1*
X6338418Y2390530D1*
X6335259Y2382910D1*
X6331578Y2375290D1*
X6326999Y2367670D1*
X6321413Y2360050D1*
X6315420Y2352430D1*
X6309287Y2344810D1*
X6302628Y2337190D1*
X6295000Y2329570D1*
X6285520Y2321950D1*
X6272645Y2314330D1*
X6254462Y2306710D1*
X6229610Y2299090D1*
X6200767Y2291470D1*
X9164947Y2832490D2*
X9145336Y2824870D1*
X9128553Y2817250D1*
X9114752Y2809630D1*
X9103957Y2802010D1*
X9094954Y2794390D1*
X9086582Y2786770D1*
X9079270Y2779150D1*
X9073385Y2771530D1*
X9068534Y2763910D1*
X9064275Y2756290D1*
X9060276Y2748670D1*
X9056403Y2741050D1*
X9052591Y2733430D1*
X9049017Y2725810D1*
X9045931Y2718190D1*
X9043248Y2710570D1*
X9040561Y2702950D1*
X9038195Y2695330D1*
X9036444Y2687710D1*
X9034707Y2680090D1*
X9032538Y2672470D1*
X9030443Y2664850D1*
X9029060Y2657230D1*
X9028334Y2649610D1*
X9027974Y2641990D1*
X9027570Y2634370D1*
X9026547Y2626750D1*
X9024703Y2619130D1*
X9022743Y2611510D1*
X9021411Y2603890D1*
X9020704Y2596270D1*
X9020380Y2588650D1*
X9020247Y2581030D1*
X9020195Y2573410D1*
X9020177Y2565790D1*
X9020170Y2558170D1*
X9020168Y2550550D1*
X9020197Y2542930D1*
X9020464Y2535310D1*
X9021435Y2527690D1*
X9023260Y2520070D1*
X9025214Y2512450D1*
X9026543Y2504830D1*
X9027250Y2497210D1*
X9027573Y2489590D1*
X9027736Y2481970D1*
X9028056Y2474350D1*
X9029046Y2466730D1*
X9030877Y2459110D1*
X9032863Y2451490D1*
X9034460Y2443870D1*
X9036138Y2436250D1*
X9038316Y2428630D1*
X9040702Y2421010D1*
X9043321Y2413390D1*
X9046842Y2405770D1*
X9050981Y2398150D1*
X9054667Y2390530D1*
X9057756Y2382910D1*
X9060927Y2375290D1*
X9064613Y2367670D1*
X9069223Y2360050D1*
X9075048Y2352430D1*
X9081774Y2344810D1*
X9089029Y2337190D1*
X9096817Y2329570D1*
X9105913Y2321950D1*
X9117582Y2314330D1*
X9132123Y2306710D1*
X9148326Y2299090D1*
X9164947Y2291470D1*
X9264007Y2832490D2*
X9279839Y2824870D1*
X9293725Y2817250D1*
X9305533Y2809630D1*
X9315470Y2802010D1*
X9324166Y2794390D1*
X9331993Y2786770D1*
X9338800Y2779150D1*
X9344397Y2771530D1*
X9349088Y2763910D1*
X9353295Y2756290D1*
X9357256Y2748670D1*
X9361102Y2741050D1*
X9364660Y2733430D1*
X9367512Y2725810D1*
X9369494Y2718190D1*
X9371327Y2710570D1*
X9373534Y2702950D1*
X9375643Y2695330D1*
X9377031Y2687710D1*
X9377759Y2680090D1*
X9378119Y2672470D1*
X9378523Y2664850D1*
X9379552Y2657230D1*
X9381460Y2649610D1*
X9383735Y2641990D1*
X9385927Y2634370D1*
X9332587Y2626750D1*
X8319127Y2824870D2*
Y2817250D1*
Y2809630D1*
Y2802010D1*
Y2794390D1*
Y2786770D1*
Y2779150D1*
Y2771530D1*
Y2763910D1*
Y2756290D1*
Y2748670D1*
Y2741050D1*
Y2733430D1*
X8631547Y2824870D2*
Y2817250D1*
Y2809630D1*
Y2802010D1*
Y2794390D1*
Y2786770D1*
Y2779150D1*
Y2771530D1*
Y2763910D1*
Y2756290D1*
Y2748670D1*
Y2741050D1*
Y2733430D1*
X8677267Y2824870D2*
Y2817250D1*
Y2809630D1*
Y2802010D1*
Y2794390D1*
Y2786770D1*
Y2779150D1*
Y2771530D1*
Y2763910D1*
Y2756290D1*
Y2748670D1*
Y2741050D1*
Y2733430D1*
Y2725810D1*
Y2718190D1*
Y2710570D1*
Y2702950D1*
Y2695330D1*
Y2687710D1*
Y2680090D1*
Y2672470D1*
Y2664850D1*
Y2657230D1*
Y2649610D1*
Y2641990D1*
Y2634370D1*
Y2626750D1*
Y2619130D1*
Y2611510D1*
Y2603890D1*
Y2596270D1*
Y2588650D1*
Y2581030D1*
Y2573410D1*
Y2565790D1*
Y2558170D1*
Y2550550D1*
Y2542930D1*
Y2535310D1*
Y2527690D1*
Y2520070D1*
Y2512450D1*
Y2504830D1*
Y2497210D1*
Y2489590D1*
Y2481970D1*
Y2474350D1*
Y2466730D1*
Y2459110D1*
Y2451490D1*
Y2443870D1*
Y2436250D1*
Y2428630D1*
Y2421010D1*
Y2413390D1*
Y2405770D1*
Y2398150D1*
Y2390530D1*
Y2382910D1*
Y2375290D1*
Y2367670D1*
Y2360050D1*
Y2352430D1*
Y2344810D1*
Y2337190D1*
Y2329570D1*
Y2321950D1*
Y2314330D1*
Y2306710D1*
Y2299090D1*
X8982067Y2824870D2*
Y2817250D1*
Y2809630D1*
Y2802010D1*
Y2794390D1*
Y2786770D1*
Y2779150D1*
Y2771530D1*
Y2763910D1*
Y2756290D1*
Y2748670D1*
Y2741050D1*
X9454507Y2824870D2*
Y2817250D1*
Y2809630D1*
Y2802010D1*
Y2794390D1*
Y2786770D1*
Y2779150D1*
Y2771530D1*
Y2763910D1*
Y2756290D1*
Y2748670D1*
Y2741050D1*
Y2733430D1*
Y2725810D1*
Y2718190D1*
Y2710570D1*
Y2702950D1*
Y2695330D1*
Y2687710D1*
Y2680090D1*
Y2672470D1*
Y2664850D1*
Y2657230D1*
Y2649610D1*
Y2641990D1*
Y2634370D1*
Y2626750D1*
Y2619130D1*
Y2611510D1*
Y2603890D1*
Y2596270D1*
Y2588650D1*
Y2581030D1*
Y2573410D1*
Y2565790D1*
Y2558170D1*
Y2550550D1*
Y2542930D1*
Y2535310D1*
Y2527690D1*
Y2520070D1*
Y2512450D1*
Y2504830D1*
Y2497210D1*
Y2489590D1*
Y2481970D1*
Y2474350D1*
Y2466730D1*
Y2459110D1*
Y2451490D1*
Y2443870D1*
Y2436250D1*
Y2428630D1*
Y2421010D1*
Y2413390D1*
Y2405770D1*
Y2398150D1*
Y2390530D1*
Y2382910D1*
Y2375290D1*
Y2367670D1*
Y2360050D1*
Y2352430D1*
Y2344810D1*
Y2337190D1*
Y2329570D1*
Y2321950D1*
Y2314330D1*
Y2306710D1*
Y2299090D1*
X9561187Y2824870D2*
Y2817250D1*
Y2809630D1*
Y2802010D1*
Y2794390D1*
Y2786770D1*
Y2779150D1*
Y2771530D1*
Y2763910D1*
Y2756290D1*
Y2748670D1*
Y2741050D1*
Y2733430D1*
Y2725810D1*
Y2718190D1*
Y2710570D1*
Y2702950D1*
Y2695330D1*
Y2687710D1*
Y2680090D1*
Y2672470D1*
Y2664850D1*
Y2657230D1*
Y2649610D1*
Y2641990D1*
Y2634370D1*
Y2626750D1*
Y2619130D1*
Y2611510D1*
X9683107Y2824870D2*
Y2817250D1*
Y2809630D1*
Y2802010D1*
Y2794390D1*
Y2786770D1*
Y2779150D1*
Y2771530D1*
Y2763910D1*
Y2756290D1*
Y2748670D1*
Y2741050D1*
Y2733430D1*
Y2725810D1*
Y2718190D1*
Y2710570D1*
Y2702950D1*
Y2695330D1*
Y2687710D1*
Y2680090D1*
Y2672470D1*
Y2664850D1*
Y2657230D1*
Y2649610D1*
Y2641990D1*
Y2634370D1*
Y2626750D1*
Y2619130D1*
Y2611510D1*
X9797407Y2824870D2*
Y2817250D1*
Y2809630D1*
Y2802010D1*
Y2794390D1*
Y2786770D1*
Y2779150D1*
Y2771530D1*
Y2763910D1*
Y2756290D1*
Y2748670D1*
Y2741050D1*
Y2733430D1*
Y2725810D1*
Y2718190D1*
Y2710570D1*
Y2702950D1*
Y2695330D1*
Y2687710D1*
Y2680090D1*
Y2672470D1*
Y2664850D1*
Y2657230D1*
Y2649610D1*
Y2641990D1*
Y2634370D1*
Y2626750D1*
Y2619130D1*
Y2611510D1*
Y2603890D1*
Y2596270D1*
Y2588650D1*
Y2581030D1*
Y2573410D1*
Y2565790D1*
Y2558170D1*
Y2550550D1*
Y2542930D1*
Y2535310D1*
Y2527690D1*
Y2520070D1*
Y2512450D1*
Y2504830D1*
Y2497210D1*
Y2489590D1*
Y2481970D1*
Y2474350D1*
Y2466730D1*
Y2459110D1*
Y2451490D1*
Y2443870D1*
Y2436250D1*
Y2428630D1*
Y2421010D1*
Y2413390D1*
Y2405770D1*
Y2398150D1*
Y2390530D1*
Y2382910D1*
Y2375290D1*
Y2367670D1*
Y2360050D1*
Y2352430D1*
Y2344810D1*
Y2337190D1*
Y2329570D1*
Y2321950D1*
Y2314330D1*
Y2306710D1*
Y2299090D1*
X7313287Y2763910D2*
X7293422Y2756290D1*
X7276919Y2748670D1*
X7264492Y2741050D1*
X7255636Y2733430D1*
X7249772Y2725810D1*
X7245802Y2718190D1*
X7242572Y2710570D1*
X7240004Y2702950D1*
X7238320Y2695330D1*
X7237087Y2687710D1*
X7305667Y2763910D2*
X7317912Y2756290D1*
X7328214Y2748670D1*
X7332276Y2741050D1*
X7334490Y2733430D1*
X7335496Y2725810D1*
X7335906Y2718190D1*
X7336062Y2710570D1*
X7336118Y2702950D1*
X7336137Y2695330D1*
X7336147Y2687710D1*
X6170287Y2741050D2*
X6159439Y2733430D1*
X6150608Y2725810D1*
X6143736Y2718190D1*
X6137877Y2710570D1*
X6132656Y2702950D1*
X6128761Y2695330D1*
X6126455Y2687710D1*
X6125068Y2680090D1*
X6123608Y2672470D1*
X6121587Y2664850D1*
X6119559Y2657230D1*
X6118204Y2649610D1*
X6117488Y2641990D1*
X6117162Y2634370D1*
X6117027Y2626750D1*
X6116975Y2619130D1*
X6116957Y2611510D1*
X6116950Y2603890D1*
X6116948Y2596270D1*
X6116947Y2588650D1*
Y2581030D1*
Y2573410D1*
Y2565790D1*
Y2558170D1*
Y2550550D1*
Y2542930D1*
Y2535310D1*
Y2527690D1*
Y2520070D1*
Y2512450D1*
Y2504830D1*
X6116976Y2497210D1*
X6117244Y2489590D1*
X6118215Y2481970D1*
X6120040Y2474350D1*
X6121994Y2466730D1*
X6123323Y2459110D1*
X6124060Y2451490D1*
X6124680Y2443870D1*
X6126053Y2436250D1*
X6128930Y2428630D1*
X6133025Y2421010D1*
X6137643Y2413390D1*
X6143355Y2405770D1*
X6151782Y2398150D1*
X6163784Y2390530D1*
X6177907Y2382910D1*
X6185527Y2741050D2*
X6200152Y2733430D1*
X6211851Y2725810D1*
X6220447Y2718190D1*
X6226223Y2710570D1*
X6230165Y2702950D1*
X6233384Y2695330D1*
X6235929Y2687710D1*
X6237491Y2680090D1*
X6238283Y2672470D1*
X6238637Y2664850D1*
X6238811Y2657230D1*
X6239134Y2649610D1*
X6240125Y2641990D1*
X6241957Y2634370D1*
X6243913Y2626750D1*
X6245243Y2619130D1*
X6245950Y2611510D1*
X6246273Y2603890D1*
X6246407Y2596270D1*
X6246458Y2588650D1*
X6246477Y2581030D1*
X6246483Y2573410D1*
X6246486Y2565790D1*
Y2558170D1*
X6246487Y2550550D1*
Y2542930D1*
Y2535310D1*
Y2527690D1*
X6246457Y2520070D1*
X6246189Y2512450D1*
X6245218Y2504830D1*
X6243393Y2497210D1*
X6241439Y2489590D1*
X6240110Y2481970D1*
X6239404Y2474350D1*
X6239080Y2466730D1*
X6238917Y2459110D1*
X6238598Y2451490D1*
X6237578Y2443870D1*
X6235479Y2436250D1*
X6232522Y2428630D1*
X6229040Y2421010D1*
X6224813Y2413390D1*
X6218800Y2405770D1*
X6209852Y2398150D1*
X6198272Y2390530D1*
X6185527Y2382910D1*
X8783947Y2741050D2*
Y2733430D1*
Y2725810D1*
Y2718190D1*
Y2710570D1*
Y2702950D1*
Y2695330D1*
Y2687710D1*
Y2680090D1*
Y2672470D1*
Y2664850D1*
Y2657230D1*
Y2649610D1*
Y2641990D1*
Y2634370D1*
Y2626750D1*
Y2619130D1*
Y2611510D1*
X9203047Y2741050D2*
X9189594Y2733430D1*
X9178524Y2725810D1*
X9170447Y2718190D1*
X9164544Y2710570D1*
X9159841Y2702950D1*
X9155937Y2695330D1*
X9152953Y2687710D1*
X9150924Y2680090D1*
X9149074Y2672470D1*
X9146832Y2664850D1*
X9144453Y2657230D1*
X9142094Y2649610D1*
X9139541Y2641990D1*
X9137257Y2634370D1*
X9135791Y2626750D1*
X9135033Y2619130D1*
X9134690Y2611510D1*
X9134550Y2603890D1*
X9134496Y2596270D1*
X9134477Y2588650D1*
X9134470Y2581030D1*
X9134468Y2573410D1*
X9134467Y2565790D1*
Y2558170D1*
Y2550550D1*
Y2542930D1*
Y2535310D1*
Y2527690D1*
Y2520070D1*
Y2512450D1*
X9134496Y2504830D1*
X9134764Y2497210D1*
X9135735Y2489590D1*
X9137590Y2481970D1*
X9139812Y2474350D1*
X9142112Y2466730D1*
X9144644Y2459110D1*
X9146950Y2451490D1*
X9148681Y2443870D1*
X9150440Y2436250D1*
X9152934Y2428630D1*
X9156565Y2421010D1*
X9162017Y2413390D1*
X9169674Y2405770D1*
X9178603Y2398150D1*
X9187807Y2390530D1*
X9225907Y2741050D2*
X9238471Y2733430D1*
X9248629Y2725810D1*
X9256560Y2718190D1*
X9263082Y2710570D1*
X9268407Y2702950D1*
X9272694Y2695330D1*
X9275837Y2687710D1*
X9277680Y2680090D1*
X9278621Y2672470D1*
X9279289Y2664850D1*
X9280421Y2657230D1*
X9282309Y2649610D1*
X9284303Y2641990D1*
X9285756Y2634370D1*
X9286867Y2626750D1*
X8418187Y2733430D2*
Y2725810D1*
Y2718190D1*
Y2710570D1*
Y2702950D1*
Y2695330D1*
Y2687710D1*
Y2680090D1*
Y2672470D1*
Y2664850D1*
Y2657230D1*
Y2649610D1*
Y2641990D1*
Y2634370D1*
Y2626750D1*
Y2619130D1*
Y2611510D1*
Y2603890D1*
Y2596270D1*
Y2588650D1*
Y2581030D1*
Y2573410D1*
Y2565790D1*
Y2558170D1*
Y2550550D1*
Y2542930D1*
Y2535310D1*
Y2527690D1*
Y2520070D1*
Y2512450D1*
Y2504830D1*
Y2497210D1*
Y2489590D1*
Y2481970D1*
Y2474350D1*
Y2466730D1*
Y2459110D1*
Y2451490D1*
Y2443870D1*
Y2436250D1*
Y2428630D1*
Y2421010D1*
Y2413390D1*
Y2405770D1*
Y2398150D1*
Y2390530D1*
Y2382910D1*
Y2375290D1*
Y2367670D1*
Y2360050D1*
Y2352430D1*
Y2344810D1*
Y2337190D1*
Y2329570D1*
Y2321950D1*
Y2314330D1*
Y2306710D1*
Y2299090D1*
X8532487Y2733430D2*
Y2725810D1*
Y2718190D1*
Y2710570D1*
Y2702950D1*
Y2695330D1*
Y2687710D1*
Y2680090D1*
Y2672470D1*
Y2664850D1*
Y2657230D1*
Y2649610D1*
Y2641990D1*
Y2634370D1*
Y2626750D1*
Y2619130D1*
Y2611510D1*
Y2603890D1*
Y2596270D1*
Y2588650D1*
Y2581030D1*
Y2573410D1*
Y2565790D1*
Y2558170D1*
Y2550550D1*
Y2542930D1*
Y2535310D1*
Y2527690D1*
Y2520070D1*
Y2512450D1*
Y2504830D1*
Y2497210D1*
Y2489590D1*
Y2481970D1*
Y2474350D1*
Y2466730D1*
Y2459110D1*
Y2451490D1*
Y2443870D1*
Y2436250D1*
Y2428630D1*
Y2421010D1*
Y2413390D1*
Y2405770D1*
Y2398150D1*
Y2390530D1*
Y2382910D1*
Y2375290D1*
Y2367670D1*
Y2360050D1*
Y2352430D1*
Y2344810D1*
Y2337190D1*
Y2329570D1*
Y2321950D1*
Y2314330D1*
Y2306710D1*
Y2299090D1*
X7541887Y2702950D2*
X7501270Y2695330D1*
X7467321Y2687710D1*
X7442024Y2680090D1*
X7423752Y2672470D1*
X7410324Y2664850D1*
X7400394Y2657230D1*
X7392552Y2649610D1*
X7385731Y2641990D1*
X7380092Y2634370D1*
X7375845Y2626750D1*
X7372335Y2619130D1*
X7369377Y2611510D1*
X7366778Y2603890D1*
X7364132Y2596270D1*
X7361784Y2588650D1*
X7360040Y2581030D1*
X7358306Y2573410D1*
X7356137Y2565790D1*
X7354043Y2558170D1*
X7352660Y2550550D1*
X7351934Y2542930D1*
X7351604Y2535310D1*
X7351468Y2527690D1*
X7351416Y2520070D1*
X7351397Y2512450D1*
X7351390Y2504830D1*
X7351388Y2497210D1*
X7351387Y2489590D1*
Y2481970D1*
Y2474350D1*
Y2466730D1*
X7351416Y2459110D1*
X7351684Y2451490D1*
X7352655Y2443870D1*
X7354480Y2436250D1*
X7356434Y2428630D1*
X7357793Y2421010D1*
X7358767Y2413390D1*
X7360062Y2405770D1*
X7362050Y2398150D1*
X7364323Y2390530D1*
X7366672Y2382910D1*
X7369508Y2375290D1*
X7373026Y2367670D1*
X7377315Y2360050D1*
X7382150Y2352430D1*
X7387073Y2344810D1*
X7392611Y2337190D1*
X7399742Y2329570D1*
X7408837Y2321950D1*
X7420494Y2314330D1*
X7437084Y2306710D1*
X7460688Y2299090D1*
X7488547Y2291470D1*
X7458067Y2702950D2*
X7503629Y2695330D1*
X7540144Y2687710D1*
X7566020Y2680090D1*
X7584225Y2672470D1*
X7597719Y2664850D1*
X7608241Y2657230D1*
X7616883Y2649610D1*
X7623810Y2641990D1*
X7628815Y2634370D1*
X7632467Y2626750D1*
X7635830Y2619130D1*
X7639301Y2611510D1*
X7642672Y2603890D1*
X7645414Y2596270D1*
X7647124Y2588650D1*
X7648242Y2581030D1*
X7649592Y2573410D1*
X7651570Y2565790D1*
X7653612Y2558170D1*
X7655230Y2550550D1*
X7656915Y2542930D1*
X7659066Y2535310D1*
X7661154Y2527690D1*
X7662534Y2520070D1*
X7663260Y2512450D1*
X7663590Y2504830D1*
X7663726Y2497210D1*
X7663778Y2489590D1*
X7663767Y2481970D1*
X7663506Y2474350D1*
X7662537Y2466730D1*
X7660713Y2459110D1*
X7658729Y2451490D1*
X7657133Y2443870D1*
X7655455Y2436250D1*
X7653307Y2428630D1*
X7651219Y2421010D1*
X7649809Y2413390D1*
X7648816Y2405770D1*
X7647515Y2398150D1*
X7645524Y2390530D1*
X7643250Y2382910D1*
X7640902Y2375290D1*
X7638066Y2367670D1*
X7634518Y2360050D1*
X7629961Y2352430D1*
X7624125Y2344810D1*
X7617139Y2337190D1*
X7608944Y2329570D1*
X7599510Y2321950D1*
X7588546Y2314330D1*
X7573725Y2306710D1*
X7552341Y2299090D1*
X7526647Y2291470D1*
X6429367Y2695330D2*
Y2687710D1*
Y2680090D1*
Y2672470D1*
Y2664850D1*
Y2657230D1*
Y2649610D1*
Y2641990D1*
Y2634370D1*
Y2626750D1*
Y2619130D1*
Y2611510D1*
Y2603890D1*
Y2596270D1*
Y2588650D1*
Y2581030D1*
Y2573410D1*
Y2565790D1*
Y2558170D1*
Y2550550D1*
Y2542930D1*
Y2535310D1*
Y2527690D1*
Y2520070D1*
Y2512450D1*
Y2504830D1*
Y2497210D1*
Y2489590D1*
Y2481970D1*
Y2474350D1*
Y2466730D1*
Y2459110D1*
Y2451490D1*
Y2443870D1*
Y2436250D1*
Y2428630D1*
Y2421010D1*
Y2413390D1*
Y2405770D1*
Y2398150D1*
Y2390530D1*
Y2382910D1*
Y2375290D1*
Y2367670D1*
Y2360050D1*
Y2352430D1*
Y2344810D1*
Y2337190D1*
Y2329570D1*
Y2321950D1*
Y2314330D1*
Y2306710D1*
Y2299090D1*
Y2291470D1*
X6528427Y2695330D2*
Y2687710D1*
Y2680090D1*
Y2672470D1*
Y2664850D1*
Y2657230D1*
Y2649610D1*
Y2641990D1*
Y2634370D1*
Y2626750D1*
Y2619130D1*
Y2611510D1*
X6597007Y2695330D2*
X6584181Y2687710D1*
X6573285Y2680090D1*
X6564261Y2672470D1*
X6556877Y2664850D1*
X6551055Y2657230D1*
X6546290Y2649610D1*
X6542300Y2641990D1*
X6539025Y2634370D1*
X6536067Y2626750D1*
X6532532Y2619130D1*
X6528427Y2611510D1*
X6635107Y2695330D2*
Y2687710D1*
Y2680090D1*
Y2672470D1*
Y2664850D1*
Y2657230D1*
Y2649610D1*
Y2641990D1*
Y2634370D1*
Y2626750D1*
Y2619130D1*
Y2611510D1*
Y2603890D1*
Y2596270D1*
X6610812Y2588650D1*
X6592170Y2581030D1*
X6578705Y2573410D1*
X6568672Y2565790D1*
X6561159Y2558170D1*
X6555926Y2550550D1*
X6552221Y2542930D1*
X6549095Y2535310D1*
X6546586Y2527690D1*
X6545036Y2520070D1*
X6544248Y2512450D1*
X6543895Y2504830D1*
X6543752Y2497210D1*
X6543697Y2489590D1*
X6543677Y2481970D1*
X6543670Y2474350D1*
X6543668Y2466730D1*
X6543667Y2459110D1*
Y2451490D1*
Y2443870D1*
Y2436250D1*
Y2428630D1*
Y2421010D1*
Y2413390D1*
Y2405770D1*
Y2398150D1*
Y2390530D1*
Y2382910D1*
Y2375290D1*
Y2367670D1*
Y2360050D1*
Y2352430D1*
Y2344810D1*
Y2337190D1*
Y2329570D1*
Y2321950D1*
Y2314330D1*
Y2306710D1*
Y2299090D1*
Y2291470D1*
X6764647Y2695330D2*
X6750614Y2687710D1*
X6737561Y2680090D1*
X6725563Y2672470D1*
X6714781Y2664850D1*
X6705534Y2657230D1*
X6697728Y2649610D1*
X6690856Y2641990D1*
X6684441Y2634370D1*
X6678961Y2626750D1*
X6674773Y2619130D1*
X6671284Y2611510D1*
X6668333Y2603890D1*
X6665737Y2596270D1*
X6663092Y2588650D1*
X6660774Y2581030D1*
X6659268Y2573410D1*
X6658237Y2565790D1*
X6656922Y2558170D1*
X6654956Y2550550D1*
X6652949Y2542930D1*
X6651600Y2535310D1*
X6650887Y2527690D1*
X6650532Y2520070D1*
X6650107Y2512450D1*
X6648878Y2504830D1*
X6646254Y2497210D1*
X6642727Y2489590D1*
X6646244Y2481970D1*
X6648433Y2474350D1*
X6649540Y2466730D1*
X6650061Y2459110D1*
X6650528Y2451490D1*
X6651574Y2443870D1*
X6653426Y2436250D1*
X6655419Y2428630D1*
X6657019Y2421010D1*
X6658698Y2413390D1*
X6660876Y2405770D1*
X6663232Y2398150D1*
X6665583Y2390530D1*
X6668193Y2382910D1*
X6671012Y2375290D1*
X6674449Y2367670D1*
X6679156Y2360050D1*
X6684644Y2352430D1*
X6690298Y2344810D1*
X6696139Y2337190D1*
X6702625Y2329570D1*
X6711212Y2321950D1*
X6723312Y2314330D1*
X6740089Y2306710D1*
X6762236Y2299090D1*
X6787507Y2291470D1*
X6833227Y2695330D2*
X6853382Y2687710D1*
X6870891Y2680090D1*
X6885412Y2672470D1*
X6897223Y2664850D1*
X6906510Y2657230D1*
X6914111Y2649610D1*
X6920846Y2641990D1*
X6926456Y2634370D1*
X6930693Y2626750D1*
X6934200Y2619130D1*
X6937157Y2611510D1*
X6939756Y2603890D1*
X6942401Y2596270D1*
X6944749Y2588650D1*
X6946494Y2581030D1*
X6948228Y2573410D1*
X6950396Y2565790D1*
X6952491Y2558170D1*
X6953873Y2550550D1*
X6954629Y2542930D1*
X6955227Y2535310D1*
X6956334Y2527690D1*
X6958211Y2520070D1*
X6960184Y2512450D1*
X6961520Y2504830D1*
X6962229Y2497210D1*
X6962553Y2489590D1*
X6962691Y2481970D1*
X6962767Y2474350D1*
X7115167Y2695330D2*
X7095272Y2687710D1*
X7078471Y2680090D1*
X7064806Y2672470D1*
X7053154Y2664850D1*
X7043510Y2657230D1*
X7036258Y2649610D1*
X7030964Y2641990D1*
X7027118Y2634370D1*
X7024128Y2626750D1*
X7021325Y2619130D1*
X7018917Y2611510D1*
X7017151Y2603890D1*
X7015439Y2596270D1*
X7013536Y2588650D1*
X7012412Y2581030D1*
X7012884Y2573410D1*
X7014379Y2565790D1*
X7016349Y2558170D1*
X7018774Y2550550D1*
X7021267Y2542930D1*
X7023712Y2535310D1*
X7026586Y2527690D1*
X7030148Y2520070D1*
X7034710Y2512450D1*
X7040488Y2504830D1*
X7046850Y2497210D1*
X7052704Y2489590D1*
X7057801Y2481970D1*
X7053079Y2474350D1*
X7046554Y2466730D1*
X7039374Y2459110D1*
X7032455Y2451490D1*
X7025935Y2443870D1*
X7019681Y2436250D1*
X7014486Y2428630D1*
X7011017Y2421010D1*
X7008446Y2413390D1*
X7006162Y2405770D1*
X7004265Y2398150D1*
X7005141Y2390530D1*
X7006761Y2382910D1*
X7009021Y2375290D1*
X7012452Y2367670D1*
X7017098Y2360050D1*
X7023030Y2352430D1*
X7031251Y2344810D1*
X7042096Y2337190D1*
X7054207Y2329570D1*
X7042809Y2321950D1*
X7032291Y2314330D1*
X7022709Y2306710D1*
X7014498Y2299090D1*
X7007602Y2291470D1*
X7001797Y2283850D1*
X6997627Y2276230D1*
X6995235Y2268610D1*
X6994071Y2260990D1*
X6993595Y2253370D1*
X6993661Y2245750D1*
X6994586Y2238130D1*
X6996652Y2230510D1*
X6999627Y2222890D1*
X7003343Y2215270D1*
X7008243Y2207650D1*
X7014903Y2200030D1*
X7023756Y2192410D1*
X7036798Y2184790D1*
X7058652Y2177170D1*
X7091486Y2169550D1*
X7130407Y2161930D1*
X7206607Y2695330D2*
X7214227Y2687710D1*
X7305667D2*
X7296649Y2680090D1*
X7288978Y2672470D1*
X7283453Y2664850D1*
X7279585Y2657230D1*
X7280511Y2649610D1*
X7285055Y2641990D1*
X7289949Y2634370D1*
X7294078Y2626750D1*
X7297354Y2619130D1*
X7300321Y2611510D1*
X7302776Y2603890D1*
X7304306Y2596270D1*
X7305088Y2588650D1*
X7305439Y2581030D1*
X7305582Y2573410D1*
X7305607Y2565790D1*
X7305359Y2558170D1*
X7304365Y2550550D1*
X7302274Y2542930D1*
X7299320Y2535310D1*
X7295869Y2527690D1*
X7291970Y2520070D1*
X7287462Y2512450D1*
X7282248Y2504830D1*
X7276082Y2497210D1*
X7267915Y2489590D1*
X7257129Y2481970D1*
X7243436Y2474350D1*
X7226168Y2466730D1*
X7206607Y2459110D1*
X7313287Y2687710D2*
X7724767Y2695330D2*
X7718934Y2687710D1*
X7714416Y2680090D1*
X7714469Y2672470D1*
X7715381Y2664850D1*
X7716223Y2657230D1*
X7716729Y2649610D1*
X7716975Y2641990D1*
X7717081Y2634370D1*
X7717123Y2626750D1*
X7717138Y2619130D1*
X7717144Y2611510D1*
X7717146Y2603890D1*
Y2596270D1*
X7717147Y2588650D1*
Y2581030D1*
Y2573410D1*
Y2565790D1*
Y2558170D1*
Y2550550D1*
Y2542930D1*
Y2535310D1*
Y2527690D1*
Y2520070D1*
Y2512450D1*
Y2504830D1*
Y2497210D1*
Y2489590D1*
Y2481970D1*
Y2474350D1*
Y2466730D1*
Y2459110D1*
Y2451490D1*
Y2443870D1*
Y2436250D1*
Y2428630D1*
Y2421010D1*
Y2413390D1*
Y2405770D1*
Y2398150D1*
Y2390530D1*
Y2382910D1*
Y2375290D1*
Y2367670D1*
Y2360050D1*
Y2352430D1*
Y2344810D1*
Y2337190D1*
Y2329570D1*
Y2321950D1*
Y2314330D1*
Y2306710D1*
Y2299090D1*
Y2291470D1*
X7823827Y2695330D2*
Y2687710D1*
Y2680090D1*
Y2672470D1*
Y2664850D1*
Y2657230D1*
Y2649610D1*
X7877167Y2695330D2*
X7864312Y2687710D1*
X7853177Y2680090D1*
X7843441Y2672470D1*
X7835126Y2664850D1*
X7828860Y2657230D1*
X7823827Y2649610D1*
X7945747Y2695330D2*
X7959489Y2687710D1*
X7971536Y2680090D1*
X7981440Y2672470D1*
X7989297Y2664850D1*
X7995329Y2657230D1*
X7999940Y2649610D1*
X8003217Y2641990D1*
X8005111Y2634370D1*
X8006042Y2626750D1*
X8006478Y2619130D1*
X8006909Y2611510D1*
X8007942Y2603890D1*
X8009789Y2596270D1*
X8011750Y2588650D1*
X8013082Y2581030D1*
X8013789Y2573410D1*
X8014113Y2565790D1*
X8014247Y2558170D1*
X8014298Y2550550D1*
X8014317Y2542930D1*
X8014323Y2535310D1*
X8014326Y2527690D1*
Y2520070D1*
X8014327Y2512450D1*
Y2504830D1*
Y2497210D1*
Y2489590D1*
Y2481970D1*
Y2474350D1*
Y2466730D1*
Y2459110D1*
Y2451490D1*
Y2443870D1*
Y2436250D1*
Y2428630D1*
Y2421010D1*
Y2413390D1*
Y2405770D1*
Y2398150D1*
Y2390530D1*
Y2382910D1*
Y2375290D1*
Y2367670D1*
Y2360050D1*
Y2352430D1*
Y2344810D1*
Y2337190D1*
Y2329570D1*
Y2321950D1*
Y2314330D1*
Y2306710D1*
Y2299090D1*
Y2291470D1*
X7145647Y2634370D2*
X7139524Y2626750D1*
X7135038Y2619130D1*
X7132218Y2611510D1*
X7130009Y2603890D1*
X7127649Y2596270D1*
X7125512Y2588650D1*
X7124371Y2581030D1*
X7124607Y2573410D1*
X7126099Y2565790D1*
X7127916Y2558170D1*
X7129252Y2550550D1*
X7130520Y2542930D1*
X7132296Y2535310D1*
X7138314Y2527690D1*
X7145647Y2520070D1*
X7176127Y2634370D2*
X7180822Y2626750D1*
X7184899Y2619130D1*
X7187980Y2611510D1*
X7189805Y2603890D1*
X7190713Y2596270D1*
X7191112Y2588650D1*
X7191273Y2581030D1*
X7191333Y2573410D1*
X7191326Y2565790D1*
X7191065Y2558170D1*
X7190067Y2550550D1*
X7187951Y2542930D1*
X7184801Y2535310D1*
X7180752Y2527690D1*
X7176127Y2520070D1*
X6787507Y2619130D2*
X6782521Y2611510D1*
X6777467Y2603890D1*
X6772560Y2596270D1*
X6768780Y2588650D1*
X6766544Y2581030D1*
X6765439Y2573410D1*
X6764954Y2565790D1*
X6764760Y2558170D1*
X6764685Y2550550D1*
X6764647Y2542930D1*
X6833227Y2619130D2*
X6839349Y2611510D1*
X6843835Y2603890D1*
X6846655Y2596270D1*
X6848864Y2588650D1*
X6851224Y2581030D1*
X6853391Y2573410D1*
X6854800Y2565790D1*
X6855537Y2558170D1*
X6855883Y2550550D1*
X6856087Y2542930D1*
X7488547Y2619130D2*
X7483561Y2611510D1*
X7478507Y2603890D1*
X7473600Y2596270D1*
X7469820Y2588650D1*
X7467584Y2581030D1*
X7466479Y2573410D1*
X7465995Y2565790D1*
X7465800Y2558170D1*
X7465727Y2550550D1*
X7465700Y2542930D1*
X7465691Y2535310D1*
X7465658Y2527690D1*
X7465389Y2520070D1*
X7464448Y2512450D1*
X7462891Y2504830D1*
X7461908Y2497210D1*
X7462404Y2489590D1*
X7463651Y2481970D1*
X7464657Y2474350D1*
X7465230Y2466730D1*
X7465502Y2459110D1*
X7465616Y2451490D1*
X7465661Y2443870D1*
X7465678Y2436250D1*
X7465684Y2428630D1*
X7465715Y2421010D1*
X7465984Y2413390D1*
X7466985Y2405770D1*
X7469138Y2398150D1*
X7472649Y2390530D1*
X7478228Y2382910D1*
X7486452Y2375290D1*
X7496167Y2367670D1*
X7519027Y2619130D2*
X7525439Y2611510D1*
X7530872Y2603890D1*
X7535251Y2596270D1*
X7538442Y2588650D1*
X7540307Y2581030D1*
X7541227Y2573410D1*
X7541660Y2565790D1*
X7542090Y2558170D1*
X7543122Y2550550D1*
X7544969Y2542930D1*
X7546930Y2535310D1*
X7548262Y2527690D1*
X7548969Y2520070D1*
X7549293Y2512450D1*
X7549427Y2504830D1*
X7549478Y2497210D1*
X7549497Y2489590D1*
X7549503Y2481970D1*
X7549476Y2474350D1*
X7549209Y2466730D1*
X7548238Y2459110D1*
X7546413Y2451490D1*
X7544459Y2443870D1*
X7543130Y2436250D1*
X7542424Y2428630D1*
X7542071Y2421010D1*
X7541669Y2413390D1*
X7540617Y2405770D1*
X7538446Y2398150D1*
X7534928Y2390530D1*
X7529347Y2382910D1*
X7521122Y2375290D1*
X7511407Y2367670D1*
X7846687Y2611510D2*
X7841477Y2603890D1*
X7836911Y2596270D1*
X7833754Y2588650D1*
X7831290Y2581030D1*
X7828792Y2573410D1*
X7826563Y2565790D1*
X7825128Y2558170D1*
X7824384Y2550550D1*
X7824047Y2542930D1*
X7823909Y2535310D1*
X7823856Y2527690D1*
X7823837Y2520070D1*
X7823830Y2512450D1*
X7823828Y2504830D1*
X7823827Y2497210D1*
Y2489590D1*
Y2481970D1*
Y2474350D1*
Y2466730D1*
Y2459110D1*
Y2451490D1*
Y2443870D1*
Y2436250D1*
Y2428630D1*
Y2421010D1*
Y2413390D1*
Y2405770D1*
Y2398150D1*
Y2390530D1*
Y2382910D1*
Y2375290D1*
Y2367670D1*
Y2360050D1*
Y2352430D1*
Y2344810D1*
Y2337190D1*
Y2329570D1*
Y2321950D1*
Y2314330D1*
Y2306710D1*
Y2299090D1*
Y2291470D1*
X7884787Y2611510D2*
X7889482Y2603890D1*
X7893589Y2596270D1*
X7896937Y2588650D1*
X7899734Y2581030D1*
X7902437Y2573410D1*
X7904521Y2565790D1*
X7905663Y2558170D1*
X7904138Y2550550D1*
X7902413Y2542930D1*
X7901196Y2535310D1*
X7900536Y2527690D1*
X7900231Y2520070D1*
X7900103Y2512450D1*
X7900054Y2504830D1*
X7900036Y2497210D1*
X7900030Y2489590D1*
X7900028Y2481970D1*
X7900027Y2474350D1*
Y2466730D1*
Y2459110D1*
Y2451490D1*
Y2443870D1*
Y2436250D1*
Y2428630D1*
Y2421010D1*
Y2413390D1*
Y2405770D1*
Y2398150D1*
Y2390530D1*
Y2382910D1*
Y2375290D1*
Y2367670D1*
Y2360050D1*
Y2352430D1*
Y2344810D1*
Y2337190D1*
Y2329570D1*
Y2321950D1*
Y2314330D1*
Y2306710D1*
Y2299090D1*
Y2291470D1*
X8936347Y2611510D2*
Y2603890D1*
Y2596270D1*
Y2588650D1*
Y2581030D1*
Y2573410D1*
Y2565790D1*
Y2558170D1*
Y2550550D1*
Y2542930D1*
Y2535310D1*
Y2527690D1*
X8783947D2*
Y2520070D1*
Y2512450D1*
Y2504830D1*
Y2497210D1*
Y2489590D1*
Y2481970D1*
Y2474350D1*
Y2466730D1*
Y2459110D1*
Y2451490D1*
Y2443870D1*
Y2436250D1*
Y2428630D1*
Y2421010D1*
Y2413390D1*
Y2405770D1*
Y2398150D1*
Y2390530D1*
X9561187Y2520070D2*
Y2512450D1*
Y2504830D1*
Y2497210D1*
Y2489590D1*
Y2481970D1*
Y2474350D1*
Y2466730D1*
Y2459110D1*
Y2451490D1*
Y2443870D1*
Y2436250D1*
Y2428630D1*
Y2421010D1*
Y2413390D1*
Y2405770D1*
Y2398150D1*
Y2390530D1*
Y2382910D1*
Y2375290D1*
Y2367670D1*
Y2360050D1*
Y2352430D1*
Y2344810D1*
Y2337190D1*
Y2329570D1*
Y2321950D1*
Y2314330D1*
Y2306710D1*
Y2299090D1*
X9683107Y2520070D2*
Y2512450D1*
Y2504830D1*
Y2497210D1*
Y2489590D1*
Y2481970D1*
Y2474350D1*
Y2466730D1*
Y2459110D1*
Y2451490D1*
Y2443870D1*
Y2436250D1*
Y2428630D1*
Y2421010D1*
Y2413390D1*
Y2405770D1*
Y2398150D1*
Y2390530D1*
Y2382910D1*
Y2375290D1*
Y2367670D1*
Y2360050D1*
Y2352430D1*
Y2344810D1*
Y2337190D1*
Y2329570D1*
Y2321950D1*
Y2314330D1*
Y2306710D1*
Y2299090D1*
X9286867Y2489590D2*
X9284262Y2481970D1*
X9281994Y2474350D1*
X9280519Y2466730D1*
X9279505Y2459110D1*
X9278168Y2451490D1*
X9275937Y2443870D1*
X9272930Y2436250D1*
X9269459Y2428630D1*
X9265523Y2421010D1*
X9260775Y2413390D1*
X9254893Y2405770D1*
X9248186Y2398150D1*
X9241147Y2390530D1*
X9317347Y2489590D2*
X9385927Y2481970D1*
X9385636Y2474350D1*
X9384660Y2466730D1*
X9382833Y2459110D1*
X9380879Y2451490D1*
X9379520Y2443870D1*
X9378546Y2436250D1*
X9377252Y2428630D1*
X9375263Y2421010D1*
X9372990Y2413390D1*
X9370642Y2405770D1*
X9367806Y2398150D1*
X9364288Y2390530D1*
X9359998Y2382910D1*
X9355164Y2375290D1*
X9350300Y2367670D1*
X9345268Y2360050D1*
X9339841Y2352430D1*
X9333871Y2344810D1*
X9326934Y2337190D1*
X9319236Y2329570D1*
X9310632Y2321950D1*
X9299683Y2314330D1*
X9286202Y2306710D1*
X9271484Y2299090D1*
X9256387Y2291470D1*
X6764647Y2474350D2*
Y2466730D1*
Y2459110D1*
Y2451490D1*
Y2443870D1*
Y2436250D1*
Y2428630D1*
X6764676Y2421010D1*
X6764974Y2413390D1*
X6766243Y2405770D1*
X6769366Y2398150D1*
X6774704Y2390530D1*
X6782256Y2382910D1*
X6791925Y2375290D1*
X6802747Y2367670D1*
X7115167Y2459110D2*
X7106984Y2451490D1*
X7100116Y2443870D1*
X7096845Y2436250D1*
X7097799Y2428630D1*
X7103954Y2421010D1*
X7112646Y2413390D1*
X7122787Y2405770D1*
X7130407Y2459110D2*
X6856087Y2436250D2*
X6856057Y2428630D1*
X6855789Y2421010D1*
X6854818Y2413390D1*
X6852963Y2405770D1*
X6850652Y2398150D1*
X6847476Y2390530D1*
X6842860Y2382910D1*
X6831305Y2375290D1*
X6817987Y2367670D1*
X6848467Y2436250D2*
X6901807Y2428630D1*
X6955147Y2421010D1*
X6953969Y2413390D1*
X6952050Y2405770D1*
X6949809Y2398150D1*
X6947504Y2390530D1*
X6944941Y2382910D1*
X6942395Y2375290D1*
X6939902Y2367670D1*
X6936753Y2360050D1*
X6932248Y2352430D1*
X6926098Y2344810D1*
X6919010Y2337190D1*
X6911548Y2329570D1*
X6902626Y2321950D1*
X6890940Y2314330D1*
X6874760Y2306710D1*
X6852230Y2299090D1*
X6825607Y2291470D1*
X7168507Y2405770D2*
X7213151Y2398150D1*
X7248487Y2390530D1*
X7273245Y2382910D1*
X7290245Y2375290D1*
X7302375Y2367670D1*
X7311684Y2360050D1*
X7318867Y2352430D1*
X7323966Y2344810D1*
X7327620Y2337190D1*
X7330727Y2329570D1*
X7333231Y2321950D1*
X7334778Y2314330D1*
X7335566Y2306710D1*
X7335918Y2299090D1*
X7336062Y2291470D1*
X7336087Y2283850D1*
X7335839Y2276230D1*
X7334874Y2268610D1*
X7333022Y2260990D1*
X7330771Y2253370D1*
X7328204Y2245750D1*
X7324671Y2238130D1*
X7320272Y2230510D1*
X7315557Y2222890D1*
X7310108Y2215270D1*
X7303011Y2207650D1*
X7294019Y2200030D1*
X7283020Y2192410D1*
X7267822Y2184790D1*
X7243199Y2177170D1*
X7205837Y2169550D1*
X7160887Y2161930D1*
X8982067Y2390530D2*
Y2382910D1*
Y2375290D1*
Y2367670D1*
Y2360050D1*
Y2352430D1*
Y2344810D1*
Y2337190D1*
Y2329570D1*
Y2321950D1*
Y2314330D1*
Y2306710D1*
Y2299090D1*
X7115167Y2314330D2*
X7105237Y2306710D1*
X7097615Y2299090D1*
X7092129Y2291470D1*
X7088446Y2283850D1*
X7086413Y2276230D1*
X7085715Y2268610D1*
X7085893Y2260990D1*
X7089072Y2253370D1*
X7098603Y2245750D1*
X7112967Y2238130D1*
X7130407Y2230510D1*
X7122787Y2314330D2*
Y2306710D1*
X7214227D2*
X7222954Y2299090D1*
X7230652Y2291470D1*
X7233918Y2283850D1*
X7235720Y2276230D1*
X7236486Y2268610D1*
X7236201Y2260990D1*
X7234847Y2253370D1*
X7226578Y2245750D1*
X7213992Y2238130D1*
X7198987Y2230510D1*
X7145647Y2161930D2*
X5410696Y7172707D2*
D86*
X5405866Y7182366D1*
X5396096Y7192137D1*
X5386437Y7196966D1*
X5367008D1*
X5357237Y7192137D1*
X5347579Y7182366D1*
X5342637Y7172707D1*
X5337808Y7158107D1*
Y7133737D1*
X5342637Y7119249D1*
X5347579Y7109478D1*
X5357237Y7099820D1*
X5367008Y7094878D1*
X5386437D1*
X5396096Y7099820D1*
X5405866Y7109478D1*
X5410696Y7119249D1*
X5442068Y7177424D2*
X5451839Y7182366D1*
X5466439Y7196854D1*
Y7094878D1*
X7464338Y7207434D2*
X7459509Y7217093D1*
X7449738Y7226863D1*
X7440080Y7231693D1*
X7420651D1*
X7410880Y7226863D1*
X7401221Y7217093D1*
X7396280Y7207434D1*
X7391451Y7192834D1*
Y7168463D1*
X7396280Y7153976D1*
X7401221Y7144205D1*
X7410880Y7134547D1*
X7420651Y7129605D1*
X7440080D1*
X7449738Y7134547D1*
X7459509Y7144205D1*
X7464338Y7153976D1*
X7500652Y7207322D2*
Y7212151D1*
X7505482Y7221922D1*
X7510311Y7226751D1*
X7520082Y7231580D1*
X7539511D1*
X7549169Y7226751D1*
X7553999Y7221922D1*
X7558940Y7212151D1*
Y7202493D1*
X7553999Y7192722D1*
X7544340Y7178234D1*
X7495711Y7129605D1*
X7563769D1*
X8090329Y7300617D2*
Y7198529D1*
X8124358D1*
X8138958Y7203471D1*
X8148729Y7213129D1*
X8153558Y7222900D1*
X8158388Y7237388D1*
Y7261759D1*
X8153558Y7276359D1*
X8148729Y7286017D1*
X8138958Y7295788D1*
X8124358Y7300617D1*
X8090329D1*
X8189760Y7281076D2*
X8199531Y7286017D1*
X8214131Y7300505D1*
Y7198529D1*
X2977412Y6902567D2*
Y6800479D1*
X3011441D1*
X3026041Y6805421D1*
X3035812Y6815079D1*
X3040641Y6824850D1*
X3045470Y6839338D1*
Y6863709D1*
X3040641Y6878309D1*
X3035812Y6887967D1*
X3026041Y6897738D1*
X3011441Y6902567D1*
X2977412D1*
X3081784Y6878196D2*
Y6883026D1*
X3086614Y6892796D1*
X3091443Y6897626D1*
X3101214Y6902455D1*
X3120643D1*
X3130301Y6897626D1*
X3135131Y6892796D1*
X3140072Y6883026D1*
Y6873367D1*
X3135131Y6863596D1*
X3125472Y6849109D1*
X3076843Y6800479D1*
X3144901D1*
X4272062Y1624633D2*
Y1522545D1*
X4306091D1*
X4320691Y1527487D1*
X4330462Y1537145D1*
X4335291Y1546916D1*
X4340120Y1561404D1*
Y1585774D1*
X4335291Y1600374D1*
X4330462Y1610033D1*
X4320691Y1619804D1*
X4306091Y1624633D1*
X4272062D1*
X4381264Y1624521D2*
X4434610D1*
X4405522Y1585662D1*
X4420122D1*
X4429781Y1580833D1*
X4434610Y1576004D1*
X4439551Y1561404D1*
Y1551745D1*
X4434610Y1537145D1*
X4424951Y1527374D1*
X4410351Y1522545D1*
X4395751D1*
X4381264Y1527374D1*
X4376434Y1532316D1*
X4371493Y1541974D1*
X9790626Y7685569D2*
Y7607852D1*
X9785797Y7593252D1*
X9780855Y7588423D1*
X9771197Y7583482D1*
X9761426D1*
X9751767Y7588423D1*
X9746938Y7593252D1*
X9741997Y7607852D1*
Y7617511D1*
X9880286Y7685457D2*
X9831769D1*
X9826940Y7641769D1*
X9831769Y7646599D1*
X9846369Y7651540D1*
X9860857D1*
X9875457Y7646599D1*
X9885228Y7636940D1*
X9890057Y7622340D1*
Y7612682D1*
X9885228Y7598082D1*
X9875457Y7588311D1*
X9860857Y7583482D1*
X9846369D1*
X9831769Y7588311D1*
X9826940Y7593252D1*
X9821998Y7602911D1*
X5960142Y5872143D2*
Y5915830D1*
X5955200Y5930430D1*
X5950371Y5935372D1*
X5940713Y5940201D1*
X5930942D1*
X5921283Y5935372D1*
X5916342Y5930430D1*
X5911512Y5915830D1*
Y5872143D1*
X6013600D1*
X5960142Y5906172D2*
X6013600Y5940201D1*
X5931054Y5971574D2*
X5926113Y5981344D1*
X5911625Y5995944D1*
X6013600D1*
X5158112Y5845632D2*
Y5889320D1*
X5153170Y5903920D1*
X5148341Y5908861D1*
X5138683Y5913691D1*
X5128912D1*
X5119253Y5908861D1*
X5114312Y5903920D1*
X5109482Y5889320D1*
Y5845632D1*
X5211570D1*
X5158112Y5879661D2*
X5211570Y5913690D1*
X5133853Y5950005D2*
X5129024D1*
X5119253Y5954834D1*
X5114424Y5959663D1*
X5109595Y5969434D1*
Y5988863D1*
X5114424Y5998522D1*
X5119253Y6003351D1*
X5129024Y6008292D1*
X5138683D1*
X5148453Y6003351D1*
X5162941Y5993692D1*
X5211570Y5945063D1*
Y6013121D1*
X1768332Y5108581D2*
Y5152269D1*
X1763390Y5166869D1*
X1758561Y5171810D1*
X1748903Y5176639D1*
X1739132D1*
X1729473Y5171810D1*
X1724532Y5166869D1*
X1719702Y5152269D1*
Y5108581D1*
X1821790D1*
X1768332Y5142610D2*
X1821790Y5176639D1*
Y5256641D2*
X1719815D1*
X1787761Y5208012D1*
Y5280899D1*
X1786252Y3799573D2*
Y3843261D1*
X1781310Y3857861D1*
X1776481Y3862802D1*
X1766823Y3867631D1*
X1757052D1*
X1747393Y3862802D1*
X1742452Y3857861D1*
X1737622Y3843261D1*
Y3799573D1*
X1839710D1*
X1786252Y3833602D2*
X1839710Y3867631D1*
X1752223Y3957292D2*
X1742564Y3952462D1*
X1737735Y3937862D1*
Y3928204D1*
X1742564Y3913604D1*
X1757164Y3903833D1*
X1781423Y3899004D1*
X1805681D1*
X1825110Y3903833D1*
X1834881Y3913604D1*
X1839710Y3928204D1*
Y3933033D1*
X1834881Y3947521D1*
X1825110Y3957291D1*
X1810510Y3962121D1*
X1805681D1*
X1791081Y3957291D1*
X1781423Y3947521D1*
X1776593Y3933033D1*
Y3928204D1*
X1781423Y3913604D1*
X1791081Y3903833D1*
X1805681Y3899004D1*
X7373885Y5794822D2*
Y5838510D1*
X7368944Y5853110D1*
X7364114Y5858051D1*
X7354456Y5862881D1*
X7344685D1*
X7335027Y5858051D1*
X7330085Y5853110D1*
X7325256Y5838510D1*
Y5794822D1*
X7427343D1*
X7373885Y5828851D2*
X7427344Y5862880D1*
X7427343Y5913682D2*
X7325368Y5962312D1*
Y5894253D1*
X7827608Y5794158D2*
Y5837846D1*
X7822667Y5852446D1*
X7817838Y5857388D1*
X7808179Y5862217D1*
X7798408D1*
X7788750Y5857388D1*
X7783808Y5852446D1*
X7778979Y5837846D1*
Y5794158D1*
X7881067D1*
X7827608Y5828188D2*
X7881067Y5862217D1*
X7779092Y5917848D2*
X7783921Y5903360D1*
X7793579Y5898419D1*
X7803350D1*
X7813008Y5903360D1*
X7817950Y5913018D1*
X7822779Y5932448D1*
X7827608Y5947048D1*
X7837379Y5956706D1*
X7847038Y5961535D1*
X7861638D1*
X7871296Y5956706D1*
X7876238Y5951877D1*
X7881067Y5937277D1*
Y5917848D1*
X7876238Y5903360D1*
X7871296Y5898418D1*
X7861638Y5893589D1*
X7847038D1*
X7837379Y5898418D1*
X7827608Y5908189D1*
X7822779Y5922677D1*
X7817950Y5942106D1*
X7813008Y5951877D1*
X7803350Y5956706D1*
X7793579D1*
X7783921Y5951877D1*
X7779092Y5937277D1*
Y5917848D1*
X8239802Y5797760D2*
Y5841448D1*
X8234860Y5856048D1*
X8230031Y5860989D1*
X8220373Y5865819D1*
X8210602D1*
X8200943Y5860989D1*
X8196002Y5856048D1*
X8191172Y5841448D1*
Y5797760D1*
X8293260D1*
X8239802Y5831789D2*
X8293260Y5865818D1*
X8225202Y5960420D2*
X8239802Y5955479D1*
X8249573Y5945820D1*
X8254402Y5931220D1*
Y5926391D1*
X8249573Y5911791D1*
X8239802Y5902133D1*
X8225202Y5897191D1*
X8220373D1*
X8205773Y5902133D1*
X8196114Y5911791D1*
X8191285Y5926391D1*
Y5931220D1*
X8196114Y5945820D1*
X8205773Y5955479D1*
X8225202Y5960420D1*
X8249573D1*
X8273831Y5955479D1*
X8288431Y5945820D1*
X8293260Y5931220D1*
Y5921562D1*
X8288431Y5906962D1*
X8278660Y5902132D1*
X6008387Y1271205D2*
X6052075D1*
X6066675Y1276147D1*
X6071616Y1280976D1*
X6076445Y1290634D1*
Y1300405D1*
X6071616Y1310064D1*
X6066675Y1315005D1*
X6052075Y1319834D1*
X6008387D1*
Y1217747D1*
X6042416Y1271205D2*
X6076445Y1217747D1*
X6107818Y1300293D2*
X6117589Y1305234D1*
X6132189Y1319722D1*
Y1217747D1*
X6168503Y1295464D2*
Y1300293D1*
X6173332Y1310064D1*
X6178161Y1314893D1*
X6187932Y1319722D1*
X6207361D1*
X6217020Y1314893D1*
X6221849Y1310064D1*
X6226790Y1300293D1*
Y1290634D1*
X6221849Y1280864D1*
X6212190Y1266376D1*
X6163561Y1217747D1*
X6231620D1*
X5862337Y1116935D2*
X5906025D1*
X5920625Y1121877D1*
X5925566Y1126706D1*
X5930395Y1136364D1*
Y1146135D1*
X5925566Y1155794D1*
X5920625Y1160735D1*
X5906025Y1165564D1*
X5862337D1*
Y1063477D1*
X5896366Y1116935D2*
X5930395Y1063477D1*
X5961768Y1146023D2*
X5971539Y1150964D1*
X5986139Y1165452D1*
Y1063477D1*
X6027282Y1165452D2*
X6080628D1*
X6051540Y1126594D1*
X6066140D1*
X6075799Y1121764D1*
X6080628Y1116935D1*
X6085570Y1102335D1*
Y1092677D1*
X6080628Y1078077D1*
X6070970Y1068306D1*
X6056370Y1063477D1*
X6041770D1*
X6027282Y1068306D1*
X6022453Y1073247D1*
X6017511Y1082906D1*
X2986889Y1205287D2*
X3030577D1*
X3045177Y1210229D1*
X3050118Y1215058D1*
X3054947Y1224717D1*
Y1234487D1*
X3050118Y1244146D1*
X3045177Y1249087D1*
X3030577Y1253917D1*
X2986889D1*
Y1151829D1*
X3020918Y1205287D2*
X3054947Y1151829D1*
X3086320Y1234375D2*
X3096091Y1239317D1*
X3110691Y1253804D1*
Y1151829D1*
X3190693D2*
Y1253804D1*
X3142063Y1185858D1*
X3214951D1*
X2308621Y3182069D2*
X2298962Y3191840D1*
X2284362Y3196669D1*
X2264933D1*
X2250333Y3191840D1*
X2240562Y3182069D1*
Y3172411D1*
X2245504Y3162640D1*
X2250333Y3157811D1*
X2259992Y3152982D1*
X2289192Y3143211D1*
X2298962Y3138382D1*
X2303792Y3133440D1*
X2308621Y3123782D1*
Y3109182D1*
X2298962Y3099523D1*
X2284362Y3094582D1*
X2264933D1*
X2250333Y3099523D1*
X2240562Y3109182D1*
X2339993Y3177128D2*
X2349764Y3182069D1*
X2364364Y3196557D1*
Y3094582D1*
X1697460Y2360813D2*
X1687802Y2370583D1*
X1673202Y2375413D1*
X1653773D1*
X1639173Y2370583D1*
X1629402Y2360813D1*
Y2351154D1*
X1634343Y2341383D1*
X1639173Y2336554D1*
X1648831Y2331725D1*
X1678031Y2321954D1*
X1687802Y2317125D1*
X1692631Y2312183D1*
X1697460Y2302525D1*
Y2287925D1*
X1687802Y2278266D1*
X1673202Y2273325D1*
X1653773D1*
X1639173Y2278266D1*
X1629402Y2287925D1*
X1733774Y2351042D2*
Y2355871D1*
X1738604Y2365642D1*
X1743433Y2370471D1*
X1753204Y2375300D1*
X1772633D1*
X1782291Y2370471D1*
X1787121Y2365642D1*
X1792062Y2355871D1*
Y2346213D1*
X1787121Y2336442D1*
X1777462Y2321954D1*
X1728833Y2273325D1*
X1796891D1*
X8078002Y5200509D2*
Y5127622D1*
X8082832Y5113022D1*
X8092602Y5103363D1*
X8107202Y5098422D1*
X8116861D1*
X8131461Y5103363D1*
X8141232Y5113022D1*
X8146061Y5127622D1*
Y5200509D1*
X8177433Y5180968D2*
X8187204Y5185909D1*
X8201804Y5200397D1*
Y5098422D1*
X6566325Y7347059D2*
Y7274172D1*
X6571154Y7259572D1*
X6580925Y7249913D1*
X6595525Y7244972D1*
X6605184D1*
X6619784Y7249913D1*
X6629554Y7259572D1*
X6634384Y7274172D1*
Y7347059D1*
X6675527Y7346947D2*
X6728873D1*
X6699786Y7308089D1*
X6714386D1*
X6724044Y7303259D1*
X6728873Y7298430D1*
X6733815Y7283830D1*
Y7274172D1*
X6728873Y7259572D1*
X6719215Y7249801D1*
X6704615Y7244972D1*
X6690015D1*
X6675527Y7249801D1*
X6670698Y7254742D1*
X6665756Y7264401D1*
X2522923Y2261207D2*
D87*
Y2057031D1*
X2659040Y2261207D2*
X2522923Y2125090D1*
X2571440Y2173831D2*
X2659040Y2057031D1*
X2721785Y2261207D2*
Y2057031D1*
X2901105Y2193148D2*
Y2057031D1*
Y2163948D2*
X2881789Y2183490D1*
X2862247Y2193148D1*
X2833272D1*
X2813730Y2183490D1*
X2794413Y2163948D1*
X2784530Y2134748D1*
Y2115431D1*
X2794413Y2086231D1*
X2813730Y2066914D1*
X2833272Y2057031D1*
X2862247D1*
X2881789Y2066914D1*
X2901105Y2086231D1*
X2963851Y2193148D2*
Y2057031D1*
Y2154290D2*
X2993051Y2183490D1*
X3012592Y2193148D1*
X3041567D1*
X3061109Y2183490D1*
X3070767Y2154290D1*
Y2057031D1*
Y2154290D2*
X3099967Y2183490D1*
X3119509Y2193148D1*
X3148484D1*
X3168026Y2183490D1*
X3177909Y2154290D1*
Y2057031D1*
X3357229Y2193148D2*
Y2057031D1*
Y2163948D2*
X3337913Y2183490D1*
X3318371Y2193148D1*
X3289396D1*
X3269854Y2183490D1*
X3250537Y2163948D1*
X3240654Y2134748D1*
Y2115431D1*
X3250537Y2086231D1*
X3269854Y2066914D1*
X3289396Y2057031D1*
X3318371D1*
X3337913Y2066914D1*
X3357229Y2086231D1*
X3449175Y2261207D2*
Y2095890D1*
X3458833Y2066914D1*
X3478375Y2057031D1*
X3497692D1*
X3419975Y2193148D2*
X3488033D1*
X3560437Y2261207D2*
Y2057031D1*
Y2154290D2*
X3589637Y2183490D1*
X3609178Y2193148D1*
X3638378D1*
X3657695Y2183490D1*
X3667354Y2154290D1*
Y2057031D1*
X4054071Y2261207D2*
X3927613D1*
Y2057031D1*
Y2163948D2*
X4005330D1*
X4233392Y2193148D2*
Y2057031D1*
Y2163948D2*
X4214075Y2183490D1*
X4194533Y2193148D1*
X4165558D1*
X4146017Y2183490D1*
X4126700Y2163948D1*
X4116817Y2134748D1*
Y2115431D1*
X4126700Y2086231D1*
X4146017Y2066914D1*
X4165558Y2057031D1*
X4194533D1*
X4214075Y2066914D1*
X4233392Y2086231D1*
X4296137Y2261207D2*
Y2057031D1*
X4358882Y2261207D2*
Y2057031D1*
X4528544Y2163948D2*
X4518886Y2183490D1*
X4489686Y2193148D1*
X4460486D1*
X4431286Y2183490D1*
X4421627Y2163948D1*
X4431286Y2144631D1*
X4450827Y2134748D1*
X4499344Y2125090D1*
X4518886Y2115431D1*
X4528544Y2095890D1*
Y2086231D1*
X4518886Y2066914D1*
X4489686Y2057031D1*
X4460486D1*
X4431286Y2066914D1*
X4421627Y2086231D1*
X2631275Y6392952D2*
D88*
X2690405D1*
X2709963Y6400196D1*
X2716634Y6407608D1*
X2723154Y6422096D1*
Y6443996D1*
X2716634Y6458484D1*
X2709963Y6465896D1*
X2690405Y6473140D1*
X2631275D1*
Y6320008D1*
X2798255Y6422096D2*
X2785217Y6414852D1*
X2772026Y6400196D1*
X2765507Y6378296D1*
Y6363808D1*
X2772026Y6341908D1*
X2785217Y6327421D1*
X2798255Y6320008D1*
X2817965D1*
X2831156Y6327421D1*
X2844195Y6341908D1*
X2850866Y6363808D1*
Y6378296D1*
X2844195Y6400196D1*
X2831156Y6414852D1*
X2817965Y6422096D1*
X2798255D1*
X2893219D2*
Y6320008D1*
Y6378296D2*
X2899890Y6400196D1*
X2912929Y6414852D1*
X2926120Y6422096D1*
X2945830D1*
X3007892Y6473140D2*
Y6349152D1*
X3014412Y6327421D1*
X3027602Y6320008D1*
X3040641D1*
X2988182Y6422096D2*
X3034122D1*
X3082994Y6473140D2*
Y6320008D1*
X3204036Y6422096D2*
Y6320008D1*
Y6400196D2*
X3190997Y6414852D1*
X3177806Y6422096D1*
X3158248D1*
X3145057Y6414852D1*
X3132018Y6400196D1*
X3125347Y6378296D1*
Y6363808D1*
X3132018Y6341908D1*
X3145057Y6327421D1*
X3158248Y6320008D1*
X3177806D1*
X3190997Y6327421D1*
X3204036Y6341908D1*
X3246389Y6422096D2*
Y6320008D1*
Y6392952D2*
X3266099Y6414852D1*
X3279289Y6422096D1*
X3298848D1*
X3312038Y6414852D1*
X3318558Y6392952D1*
Y6320008D1*
X3439599Y6473140D2*
Y6320008D1*
Y6400196D2*
X3426560Y6414852D1*
X3413369Y6422096D1*
X3393659D1*
X3380620Y6414852D1*
X3367430Y6400196D1*
X3360910Y6378296D1*
Y6363808D1*
X3367430Y6341908D1*
X3380620Y6327421D1*
X3393659Y6320008D1*
X3413369D1*
X3426560Y6327421D1*
X3439599Y6341908D1*
X3720192Y6320008D2*
Y6473140D1*
X3667733Y6320008D1*
X3615274Y6473140D1*
Y6320008D1*
X3762545Y6378296D2*
X3841233D1*
Y6392952D1*
X3834714Y6407608D1*
X3828194Y6414852D1*
X3815004Y6422096D1*
X3795294D1*
X3782255Y6414852D1*
X3769064Y6400196D1*
X3762545Y6378296D1*
Y6363808D1*
X3769064Y6341908D1*
X3782255Y6327421D1*
X3795294Y6320008D1*
X3815004D1*
X3828194Y6327421D1*
X3841233Y6341908D1*
X3903296Y6473140D2*
Y6349152D1*
X3909816Y6327421D1*
X3923006Y6320008D1*
X3936045D1*
X3883586Y6422096D2*
X3929526D1*
X3978398D2*
Y6320008D1*
Y6378296D2*
X3985069Y6400196D1*
X3998108Y6414852D1*
X4011298Y6422096D1*
X4031008D1*
X4106110D2*
X4093071Y6414852D1*
X4079881Y6400196D1*
X4073361Y6378296D1*
Y6363808D1*
X4079881Y6341908D1*
X4093071Y6327421D1*
X4106110Y6320008D1*
X4125820D1*
X4139011Y6327421D1*
X4152050Y6341908D1*
X4158721Y6363808D1*
Y6378296D1*
X4152050Y6400196D1*
X4139011Y6414852D1*
X4125820Y6422096D1*
X4106110D1*
X5602679Y1980335D2*
D89*
Y1801681D1*
X5656275D1*
X5679270Y1810329D1*
X5694659Y1827231D1*
X5702265Y1844330D1*
X5709871Y1869684D1*
Y1912333D1*
X5702265Y1937883D1*
X5694659Y1954785D1*
X5679270Y1971884D1*
X5656275Y1980335D1*
X5602679D1*
X5759283Y1869684D2*
X5851086D1*
Y1886783D1*
X5843480Y1903881D1*
X5835874Y1912333D1*
X5820485Y1920784D1*
X5797490D1*
X5782278Y1912333D1*
X5766889Y1895234D1*
X5759283Y1869684D1*
Y1852781D1*
X5766889Y1827231D1*
X5782278Y1810329D1*
X5797490Y1801681D1*
X5820485D1*
X5835874Y1810329D1*
X5851086Y1827231D1*
X5900498Y1920784D2*
Y1742130D1*
Y1895234D2*
X5915887Y1912136D1*
X5931099Y1920784D1*
X5954094D1*
X5969483Y1912136D1*
X5984695Y1895234D1*
X5992478Y1869684D1*
Y1852585D1*
X5984695Y1827231D1*
X5969483Y1810133D1*
X5954094Y1801681D1*
X5931099D1*
X5915887Y1810133D1*
X5900498Y1827231D1*
X6133692Y1920784D2*
Y1801681D1*
Y1895234D2*
X6118480Y1912333D1*
X6103091Y1920784D1*
X6080273D1*
X6064884Y1912333D1*
X6049672Y1895234D1*
X6041889Y1869684D1*
Y1852781D1*
X6049672Y1827231D1*
X6064884Y1810329D1*
X6080273Y1801681D1*
X6103091D1*
X6118480Y1810329D1*
X6133692Y1827231D1*
X6183104Y1920784D2*
Y1801681D1*
Y1869684D2*
X6190887Y1895234D1*
X6206099Y1912333D1*
X6221488Y1920784D1*
X6244483D1*
X6316890Y1980335D2*
Y1835683D1*
X6324496Y1810329D1*
X6339885Y1801681D1*
X6355097D1*
X6293895Y1920784D2*
X6347491D1*
X6404509D2*
Y1801681D1*
Y1886783D2*
X6427504Y1912333D1*
X6442893Y1920784D1*
X6465711D1*
X6481100Y1912333D1*
X6488706Y1886783D1*
Y1801681D1*
Y1886783D2*
X6511701Y1912333D1*
X6527090Y1920784D1*
X6549908D1*
X6565297Y1912333D1*
X6573080Y1886783D1*
Y1801681D1*
X6622492Y1869684D2*
X6714295D1*
Y1886783D1*
X6706689Y1903881D1*
X6699083Y1912333D1*
X6683694Y1920784D1*
X6660699D1*
X6645487Y1912333D1*
X6630098Y1895234D1*
X6622492Y1869684D1*
Y1852781D1*
X6630098Y1827231D1*
X6645487Y1810329D1*
X6660699Y1801681D1*
X6683694D1*
X6699083Y1810329D1*
X6714295Y1827231D1*
X6763706Y1920784D2*
Y1801681D1*
Y1886783D2*
X6786701Y1912333D1*
X6802090Y1920784D1*
X6824909D1*
X6840297Y1912333D1*
X6847904Y1886783D1*
Y1801681D1*
X6920310Y1980335D2*
Y1835683D1*
X6927916Y1810329D1*
X6943305Y1801681D1*
X6958517D1*
X6897315Y1920784D2*
X6950911D1*
X7201679D2*
X7186467Y1912333D1*
X7171078Y1895234D1*
X7163472Y1869684D1*
Y1852781D1*
X7171078Y1827231D1*
X7186467Y1810329D1*
X7201679Y1801681D1*
X7224674D1*
X7240063Y1810329D1*
X7255275Y1827231D1*
X7263058Y1852781D1*
Y1869684D1*
X7255275Y1895234D1*
X7240063Y1912333D1*
X7224674Y1920784D1*
X7201679D1*
X7373672Y1980335D2*
X7358459D1*
X7343070Y1971884D1*
X7335464Y1946334D1*
Y1801681D1*
X7312469Y1920784D2*
X7366065D1*
X7693424Y1937883D2*
X7685818Y1954785D1*
X7670429Y1971884D1*
X7655217Y1980335D1*
X7624616D1*
X7609227Y1971884D1*
X7594015Y1954785D1*
X7586232Y1937883D1*
X7578626Y1912333D1*
Y1869684D1*
X7586232Y1844330D1*
X7594015Y1827231D1*
X7609227Y1810329D1*
X7624616Y1801681D1*
X7655217D1*
X7670429Y1810329D1*
X7685818Y1827231D1*
X7693424Y1844330D1*
X7781043Y1920784D2*
X7765831Y1912333D1*
X7750442Y1895234D1*
X7742836Y1869684D1*
Y1852781D1*
X7750442Y1827231D1*
X7765831Y1810329D1*
X7781043Y1801681D1*
X7804038D1*
X7819427Y1810329D1*
X7834639Y1827231D1*
X7842422Y1852781D1*
Y1869684D1*
X7834639Y1895234D1*
X7819427Y1912333D1*
X7804038Y1920784D1*
X7781043D1*
X7891834D2*
Y1801681D1*
Y1886783D2*
X7914829Y1912333D1*
X7930217Y1920784D1*
X7953036D1*
X7968425Y1912333D1*
X7976031Y1886783D1*
Y1801681D1*
Y1886783D2*
X7999026Y1912333D1*
X8014415Y1920784D1*
X8037233D1*
X8052622Y1912333D1*
X8060405Y1886783D1*
Y1801681D1*
X8109816Y1920784D2*
Y1742130D1*
Y1895234D2*
X8125205Y1912136D1*
X8140417Y1920784D1*
X8163412D1*
X8178801Y1912136D1*
X8194013Y1895234D1*
X8201796Y1869684D1*
Y1852585D1*
X8194013Y1827231D1*
X8178801Y1810133D1*
X8163412Y1801681D1*
X8140417D1*
X8125205Y1810133D1*
X8109816Y1827231D1*
X8251208Y1920784D2*
Y1835683D1*
X8258814Y1810329D1*
X8274203Y1801681D1*
X8297198D1*
X8312410Y1810329D1*
X8335405Y1835683D1*
Y1920784D2*
Y1801681D1*
X8407812Y1980335D2*
Y1835683D1*
X8415418Y1810329D1*
X8430807Y1801681D1*
X8446019D1*
X8384817Y1920784D2*
X8438413D1*
X8495431Y1869684D2*
X8587234D1*
Y1886783D1*
X8579628Y1903881D1*
X8572022Y1912333D1*
X8556633Y1920784D1*
X8533638D1*
X8518426Y1912333D1*
X8503037Y1895234D1*
X8495431Y1869684D1*
Y1852781D1*
X8503037Y1827231D1*
X8518426Y1810329D1*
X8533638Y1801681D1*
X8556633D1*
X8572022Y1810329D1*
X8587234Y1827231D1*
X8636646Y1920784D2*
Y1801681D1*
Y1869684D2*
X8644429Y1895234D1*
X8659641Y1912333D1*
X8675030Y1920784D1*
X8698025D1*
X9010171Y1954785D2*
X8994959Y1971884D1*
X8971964Y1980335D1*
X8941363D1*
X8918368Y1971884D1*
X8902979Y1954785D1*
Y1937883D1*
X8910762Y1920784D1*
X8918368Y1912333D1*
X8933580Y1903881D1*
X8979570Y1886783D1*
X8994959Y1878331D1*
X9002565Y1869684D1*
X9010171Y1852781D1*
Y1827231D1*
X8994959Y1810329D1*
X8971964Y1801681D1*
X8941363D1*
X8918368Y1810329D1*
X8902979Y1827231D1*
X9067366Y1920784D2*
X9113179Y1801681D1*
X9097967Y1767680D1*
X9082578Y1750581D1*
X9067366Y1742130D1*
X9059583D1*
X9159169Y1920784D2*
X9113179Y1801681D1*
X9292778Y1895234D2*
X9285172Y1912333D1*
X9262177Y1920784D1*
X9239182D1*
X9216187Y1912333D1*
X9208581Y1895234D1*
X9216187Y1878331D1*
X9231576Y1869684D1*
X9269783Y1861233D1*
X9285172Y1852781D1*
X9292778Y1835683D1*
Y1827231D1*
X9285172Y1810329D1*
X9262177Y1801681D1*
X9239182D1*
X9216187Y1810329D1*
X9208581Y1827231D1*
X9365184Y1980335D2*
Y1835683D1*
X9372790Y1810329D1*
X9388179Y1801681D1*
X9403391D1*
X9342189Y1920784D2*
X9395785D1*
X9452803Y1869684D2*
X9544606D1*
Y1886783D1*
X9537000Y1903881D1*
X9529394Y1912333D1*
X9514005Y1920784D1*
X9491010D1*
X9475798Y1912333D1*
X9460409Y1895234D1*
X9452803Y1869684D1*
Y1852781D1*
X9460409Y1827231D1*
X9475798Y1810329D1*
X9491010Y1801681D1*
X9514005D1*
X9529394Y1810329D1*
X9544606Y1827231D1*
X9594018Y1920784D2*
Y1801681D1*
Y1886783D2*
X9617013Y1912333D1*
X9632402Y1920784D1*
X9655220D1*
X9670609Y1912333D1*
X9678215Y1886783D1*
Y1801681D1*
Y1886783D2*
X9701210Y1912333D1*
X9716599Y1920784D1*
X9739417D1*
X9754806Y1912333D1*
X9762589Y1886783D1*
Y1801681D1*
X9896198Y1895234D2*
X9888592Y1912333D1*
X9865597Y1920784D1*
X9842602D1*
X9819607Y1912333D1*
X9812001Y1895234D1*
X9819607Y1878331D1*
X9834996Y1869684D1*
X9873203Y1861233D1*
X9888592Y1852781D1*
X9896198Y1835683D1*
Y1827231D1*
X9888592Y1810329D1*
X9865597Y1801681D1*
X9842602D1*
X9819607Y1810329D1*
X9812001Y1827231D1*
X7178673Y1639798D2*
X7068219D1*
Y1461145D1*
X7178673D1*
X7068219Y1554697D2*
X7136221D1*
X7233575Y1580247D2*
Y1461145D1*
Y1546246D2*
X7259125Y1571796D1*
X7276224Y1580247D1*
X7301578D1*
X7318677Y1571796D1*
X7327128Y1546246D1*
Y1461145D1*
X7484033Y1571796D2*
Y1435595D1*
X7475582Y1410241D1*
X7467131Y1401594D1*
X7450032Y1393142D1*
X7424482D1*
X7407580Y1401594D1*
X7484033Y1546246D2*
X7467131Y1563148D1*
X7450032Y1571796D1*
X7424482D1*
X7407580Y1563148D1*
X7390481Y1546246D1*
X7382030Y1520696D1*
Y1503597D1*
X7390481Y1478244D1*
X7407580Y1461145D1*
X7424482Y1452694D1*
X7450032D1*
X7467131Y1461145D1*
X7484033Y1478244D1*
X7538935Y1639798D2*
X7547386Y1631347D1*
X7556034Y1639798D1*
X7547386Y1648446D1*
X7538935Y1639798D1*
X7547386Y1580247D2*
Y1461145D1*
X7610936Y1580247D2*
Y1461145D1*
Y1546246D2*
X7636486Y1571796D1*
X7653585Y1580247D1*
X7678938D1*
X7696037Y1571796D1*
X7704488Y1546246D1*
Y1461145D1*
X7759390Y1529147D2*
X7861394D1*
Y1546246D1*
X7852942Y1563345D1*
X7844491Y1571796D1*
X7827392Y1580247D1*
X7801842D1*
X7784940Y1571796D1*
X7767841Y1554697D1*
X7759390Y1529147D1*
Y1512245D1*
X7767841Y1486695D1*
X7784940Y1469792D1*
X7801842Y1461145D1*
X7827392D1*
X7844491Y1469792D1*
X7861394Y1486695D1*
X7916296Y1529147D2*
X8018299D1*
Y1546246D1*
X8009848Y1563345D1*
X8001397Y1571796D1*
X7984298Y1580247D1*
X7958748D1*
X7941846Y1571796D1*
X7924747Y1554697D1*
X7916296Y1529147D1*
Y1512245D1*
X7924747Y1486695D1*
X7941846Y1469792D1*
X7958748Y1461145D1*
X7984298D1*
X8001397Y1469792D1*
X8018299Y1486695D1*
X8073201Y1580247D2*
Y1461145D1*
Y1529147D2*
X8081849Y1554697D1*
X8098751Y1571796D1*
X8115850Y1580247D1*
X8141400D1*
X8196302Y1639798D2*
X8204753Y1631347D1*
X8213401Y1639798D1*
X8204753Y1648446D1*
X8196302Y1639798D1*
X8204753Y1580247D2*
Y1461145D1*
X8268303Y1580247D2*
Y1461145D1*
Y1546246D2*
X8293853Y1571796D1*
X8310951Y1580247D1*
X8336305D1*
X8353404Y1571796D1*
X8361855Y1546246D1*
Y1461145D1*
X8518760Y1571796D2*
Y1435595D1*
X8510309Y1410241D1*
X8501858Y1401594D1*
X8484759Y1393142D1*
X8459209D1*
X8442307Y1401594D1*
X8518760Y1546246D2*
X8501858Y1563148D1*
X8484759Y1571796D1*
X8459209D1*
X8442307Y1563148D1*
X8425208Y1546246D1*
X8416757Y1520696D1*
Y1503597D1*
X8425208Y1478244D1*
X8442307Y1461145D1*
X8459209Y1452694D1*
X8484759D1*
X8501858Y1461145D1*
X8518760Y1478244D1*
X8718225Y1608810D2*
D88*
Y1455678D1*
X8667181Y1608810D2*
X8769269D1*
X8816328Y1513966D2*
X8903759D1*
Y1528622D1*
X8896516Y1543278D1*
X8889272Y1550522D1*
X8874616Y1557766D1*
X8852716D1*
X8838228Y1550522D1*
X8823572Y1535866D1*
X8816328Y1513966D1*
Y1499478D1*
X8823572Y1477578D1*
X8838228Y1463091D1*
X8852716Y1455678D1*
X8874616D1*
X8889272Y1463091D1*
X8903759Y1477578D1*
X9038418Y1535866D2*
X9023762Y1550522D1*
X9009106Y1557766D1*
X8987374D1*
X8972718Y1550522D1*
X8958231Y1535866D1*
X8950818Y1513966D1*
Y1499478D1*
X8958231Y1477578D1*
X8972718Y1463091D1*
X8987374Y1455678D1*
X9009106D1*
X9023762Y1463091D1*
X9038418Y1477578D1*
X9085477Y1608810D2*
Y1455678D1*
Y1528622D2*
X9107377Y1550522D1*
X9122033Y1557766D1*
X9143933D1*
X9158421Y1550522D1*
X9165665Y1528622D1*
Y1455678D1*
X9212724Y1557766D2*
Y1455678D1*
Y1528622D2*
X9234624Y1550522D1*
X9249280Y1557766D1*
X9271011D1*
X9285667Y1550522D1*
X9292911Y1528622D1*
Y1455678D1*
X9376358Y1557766D2*
X9361870Y1550522D1*
X9347214Y1535866D1*
X9339970Y1513966D1*
Y1499478D1*
X9347214Y1477578D1*
X9361870Y1463091D1*
X9376358Y1455678D1*
X9398258D1*
X9412914Y1463091D1*
X9427402Y1477578D1*
X9434814Y1499478D1*
Y1513966D1*
X9427402Y1535866D1*
X9412914Y1550522D1*
X9398258Y1557766D1*
X9376358D1*
X9481873Y1608810D2*
Y1455678D1*
X9565319Y1557766D2*
X9550832Y1550522D1*
X9536175Y1535866D1*
X9528932Y1513966D1*
Y1499478D1*
X9536175Y1477578D1*
X9550832Y1463091D1*
X9565319Y1455678D1*
X9587219D1*
X9601875Y1463091D1*
X9616363Y1477578D1*
X9623775Y1499478D1*
Y1513966D1*
X9616363Y1535866D1*
X9601875Y1550522D1*
X9587219Y1557766D1*
X9565319D1*
X9758266Y1550522D2*
Y1433778D1*
X9751022Y1412047D1*
X9743778Y1404635D1*
X9729122Y1397391D1*
X9707222D1*
X9692734Y1404635D1*
X9758266Y1528622D2*
X9743778Y1543110D1*
X9729122Y1550522D1*
X9707222D1*
X9692734Y1543110D1*
X9678078Y1528622D1*
X9670834Y1506722D1*
Y1492066D1*
X9678078Y1470335D1*
X9692734Y1455678D1*
X9707222Y1448435D1*
X9729122D1*
X9743778Y1455678D1*
X9758266Y1470335D1*
X9812737Y1557766D2*
X9856368Y1455678D1*
X9841881Y1426535D1*
X9827225Y1411878D1*
X9812737Y1404635D1*
X9805325D1*
X9900168Y1557766D2*
X9856368Y1455678D1*
X3010344Y3496343D2*
D90*
X2986198Y3484270D1*
X2961771Y3459843D1*
X2949698Y3423343D1*
Y3399197D1*
X2961771Y3362697D1*
X2986198Y3338551D1*
X3010344Y3326197D1*
X3046844D1*
X3071271Y3338551D1*
X3095417Y3362697D1*
X3107771Y3399197D1*
Y3423343D1*
X3095417Y3459843D1*
X3071271Y3484270D1*
X3046844Y3496343D1*
X3010344D1*
X3186202Y3581417D2*
X3198275Y3569343D1*
X3210629Y3581417D1*
X3198275Y3593770D1*
X3186202Y3581417D1*
X3198275Y3496343D2*
Y3326197D1*
X3325561Y3581417D2*
Y3374770D1*
X3337634Y3338551D1*
X3362061Y3326197D1*
X3386207D1*
X3289061Y3496343D2*
X3374134D1*
X3476711Y3350624D2*
X3464638Y3338270D1*
X3476711Y3326197D1*
X3489065Y3338270D1*
X3476711Y3350624D1*
X3567496Y3423343D2*
X3713216D1*
Y3447770D1*
X3701143Y3472197D1*
X3689069Y3484270D1*
X3664643Y3496343D1*
X3628143D1*
X3603996Y3484270D1*
X3579569Y3459843D1*
X3567496Y3423343D1*
Y3399197D1*
X3579569Y3362697D1*
X3603996Y3338551D1*
X3628143Y3326197D1*
X3664643D1*
X3689069Y3338551D1*
X3713216Y3362697D1*
X3937366Y3581417D2*
Y3326197D1*
Y3459843D2*
X3913220Y3484270D1*
X3888793Y3496343D1*
X3852293D1*
X3828147Y3484270D1*
X3803720Y3459843D1*
X3791647Y3423343D1*
Y3399197D1*
X3803720Y3362697D1*
X3828147Y3338551D1*
X3852293Y3326197D1*
X3888793D1*
X3913220Y3338551D1*
X3937366Y3362697D1*
X4015798Y3496343D2*
Y3374770D1*
X4027871Y3338551D1*
X4052298Y3326197D1*
X4088798D1*
X4112944Y3338551D1*
X4149444Y3374770D1*
Y3496343D2*
Y3326197D1*
X4227875D2*
X4398021Y3581136D1*
X4622453Y3459843D2*
X4598026Y3484270D1*
X4573599Y3496343D1*
X4537380D1*
X4512953Y3484270D1*
X4488807Y3459843D1*
X4476453Y3423343D1*
Y3399197D1*
X4488807Y3362697D1*
X4512953Y3338551D1*
X4537380Y3326197D1*
X4573599D1*
X4598026Y3338551D1*
X4622453Y3362697D1*
X4834530Y3459843D2*
X4822457Y3484270D1*
X4785957Y3496343D1*
X4749457D1*
X4712957Y3484270D1*
X4700884Y3459843D1*
X4712957Y3435697D1*
X4737384Y3423343D1*
X4798030Y3411270D1*
X4822457Y3399197D1*
X4834530Y3374770D1*
Y3362697D1*
X4822457Y3338551D1*
X4785957Y3326197D1*
X4749457D1*
X4712957Y3338551D1*
X4700884Y3362697D1*
X4912962Y3423343D2*
X5058681D1*
Y3447770D1*
X5046608Y3472197D1*
X5034535Y3484270D1*
X5010108Y3496343D1*
X4973608D1*
X4949462Y3484270D1*
X4925035Y3459843D1*
X4912962Y3423343D1*
Y3399197D1*
X4925035Y3362697D1*
X4949462Y3338551D1*
X4973608Y3326197D1*
X5010108D1*
X5034535Y3338551D1*
X5058681Y3362697D1*
X5173612Y3581417D2*
Y3374770D1*
X5185685Y3338551D1*
X5210112Y3326197D1*
X5234258D1*
X5137112Y3496343D2*
X5222185D1*
X6324044Y5696605D2*
D88*
X6404063D1*
X6360432Y5638317D1*
X6382332D1*
X6396820Y5631073D1*
X6404063Y5623829D1*
X6411476Y5601929D1*
Y5587442D1*
X6404063Y5565542D1*
X6389576Y5550886D1*
X6367676Y5543642D1*
X6345776D1*
X6324044Y5550886D1*
X6316800Y5558298D1*
X6309388Y5572786D1*
X6465778Y5558298D2*
X6458535Y5550886D1*
X6465778Y5543642D1*
X6473191Y5550886D1*
X6465778Y5558298D1*
X6534906Y5696605D2*
X6614925D1*
X6571293Y5638317D1*
X6593193D1*
X6607681Y5631073D1*
X6614925Y5623829D1*
X6622337Y5601929D1*
Y5587442D1*
X6614925Y5565542D1*
X6600437Y5550886D1*
X6578537Y5543642D1*
X6556637D1*
X6534906Y5550886D1*
X6527662Y5558298D1*
X6520250Y5572786D1*
X6669396Y5696773D2*
X6727684Y5543642D1*
X6785971Y5696773D1*
X9382620Y5663539D2*
X9375376Y5678027D1*
X9360720Y5692683D1*
X9346232Y5699927D1*
X9317088D1*
X9302432Y5692683D1*
X9287944Y5678027D1*
X9280532Y5663539D1*
X9273288Y5641639D1*
Y5605083D1*
X9280532Y5583351D1*
X9287944Y5568695D1*
X9302432Y5554207D1*
X9317088Y5546795D1*
X9346232D1*
X9360720Y5554207D1*
X9375376Y5568695D1*
X9382620Y5583351D1*
Y5605083D1*
X9346232D1*
X9531766Y5699927D2*
Y5546795D1*
X9429678Y5699927D1*
Y5546795D1*
X9578825Y5699927D2*
Y5546795D1*
X9629869D1*
X9651769Y5554207D1*
X9666425Y5568695D1*
X9673669Y5583351D1*
X9680913Y5605083D1*
Y5641639D1*
X9673669Y5663539D1*
X9666425Y5678027D1*
X9651769Y5692683D1*
X9629869Y5699927D1*
X9578825D1*
X6898620Y4617425D2*
D86*
X6908391Y4622367D1*
X6922991Y4636854D1*
Y4534879D1*
X6983563Y4636854D2*
X6968963Y4632025D1*
X6959192Y4617425D1*
X6954363Y4593167D1*
Y4578567D1*
X6959192Y4554308D1*
X6968963Y4539708D1*
X6983563Y4534879D1*
X6993222D1*
X7007822Y4539708D1*
X7017480Y4554308D1*
X7022422Y4578567D1*
Y4593167D1*
X7017480Y4617425D1*
X7007822Y4632025D1*
X6993222Y4636854D1*
X6983563D1*
X7017480Y4617425D2*
X6959192Y4554308D1*
X6969719Y4339254D2*
X6964777Y4324654D1*
X6955119Y4314883D1*
X6940519Y4310054D1*
X6935690D1*
X6921090Y4314883D1*
X6911431Y4324654D1*
X6906490Y4339254D1*
Y4344083D1*
X6911431Y4358683D1*
X6921090Y4368342D1*
X6935690Y4373171D1*
X6940519D1*
X6955119Y4368342D1*
X6964777Y4358683D1*
X6969719Y4339254D1*
Y4314883D1*
X6964777Y4290625D1*
X6955119Y4276025D1*
X6940519Y4271196D1*
X6930861D1*
X6916261Y4276025D1*
X6911431Y4285796D1*
X6903561Y4125224D2*
Y4057278D1*
Y4033020D2*
X6898620Y4028078D1*
X6903561Y4023249D1*
X6908391Y4028078D1*
X6903561Y4033020D1*
X6939763Y4076707D2*
X6983451D1*
X6998051Y4081649D1*
X7002992Y4086478D1*
X7007822Y4096137D1*
Y4105907D1*
X7002992Y4115566D1*
X6998051Y4120507D1*
X6983451Y4125337D1*
X6939763D1*
Y4023249D1*
X6973792Y4076707D2*
X7007822Y4023249D1*
X7107253Y4110737D2*
X7097594Y4120507D1*
X7082994Y4125337D1*
X7063565D1*
X7048965Y4120507D1*
X7039194Y4110737D1*
Y4101078D1*
X7044136Y4091307D1*
X7048965Y4086478D1*
X7058623Y4081649D1*
X7087823Y4071878D1*
X7097594Y4067049D1*
X7102423Y4062107D1*
X7107253Y4052449D1*
Y4037849D1*
X7097594Y4028190D1*
X7082994Y4023249D1*
X7063565D1*
X7048965Y4028190D1*
X7039194Y4037849D1*
X7172654Y4125337D2*
Y4023249D1*
X7138625Y4125337D2*
X7206684D1*
X6942555Y3873348D2*
X6928067Y3868518D1*
X6923126Y3858860D1*
Y3849089D1*
X6928067Y3839431D1*
X6937726Y3834489D1*
X6957155Y3829660D1*
X6971755Y3824831D1*
X6981413Y3815060D1*
X6986243Y3805401D1*
Y3790801D1*
X6981413Y3781143D1*
X6976584Y3776201D1*
X6961984Y3771372D1*
X6942555D1*
X6928067Y3776201D1*
X6923126Y3781143D1*
X6918296Y3790801D1*
Y3805401D1*
X6923126Y3815060D1*
X6932896Y3824831D1*
X6947384Y3829660D1*
X6966813Y3834489D1*
X6976584Y3839431D1*
X6981413Y3849089D1*
Y3858860D1*
X6976584Y3868518D1*
X6961984Y3873348D1*
X6942555D1*
X6933792Y3503749D2*
X6982422Y3605724D1*
X6914363D1*
X6976584Y3355100D2*
X6971755Y3364758D1*
X6957155Y3369588D1*
X6947496D1*
X6932896Y3364758D1*
X6923126Y3350158D1*
X6918296Y3325900D1*
Y3301641D1*
X6923126Y3282212D1*
X6932896Y3272441D1*
X6947496Y3267612D1*
X6952326D1*
X6966813Y3272441D1*
X6976584Y3282212D1*
X6981413Y3296812D1*
Y3301641D1*
X6976584Y3316241D1*
X6966813Y3325900D1*
X6952326Y3330729D1*
X6947496D1*
X6932896Y3325900D1*
X6923126Y3316241D1*
X6918296Y3301641D1*
X9231856Y4634894D2*
X9217256Y4630065D1*
X9207486Y4615465D1*
X9202656Y4591207D1*
Y4576607D1*
X9207486Y4552348D1*
X9217256Y4537748D1*
X9231856Y4532919D1*
X9241515D1*
X9256115Y4537748D1*
X9265773Y4552348D1*
X9270715Y4576607D1*
Y4591207D1*
X9265773Y4615465D1*
X9256115Y4630065D1*
X9241515Y4634894D1*
X9231856D1*
X9265773Y4615465D2*
X9207486Y4552348D1*
X9228676Y4368268D2*
X9238447Y4373210D1*
X9253047Y4387698D1*
Y4285722D1*
X9220608Y4112993D2*
Y4117822D1*
X9225437Y4127593D1*
X9230266Y4132422D1*
X9240037Y4137251D1*
X9259466D1*
X9269125Y4132422D1*
X9273954Y4127593D1*
X9278896Y4117822D1*
Y4108163D1*
X9273954Y4098393D1*
X9264296Y4083905D1*
X9215666Y4035276D1*
X9283725D1*
X9218931Y3867288D2*
X9272277D1*
X9243189Y3828429D1*
X9257789D1*
X9267447Y3823600D1*
X9272277Y3818771D1*
X9277218Y3804171D1*
Y3794512D1*
X9272277Y3779912D1*
X9262618Y3770141D1*
X9248018Y3765312D1*
X9233418D1*
X9218931Y3770141D1*
X9214101Y3775083D1*
X9209160Y3784741D1*
X9251286Y3518116D2*
Y3620091D1*
X9202656Y3552145D1*
X9275544D1*
X9260944Y3358414D2*
X9212427D1*
X9207598Y3314727D1*
X9212427Y3319556D1*
X9227027Y3324497D1*
X9241515D1*
X9256115Y3319556D1*
X9265886Y3309897D1*
X9270715Y3295297D1*
Y3285639D1*
X9265886Y3271039D1*
X9256115Y3261268D1*
X9241515Y3256439D1*
X9227027D1*
X9212427Y3261268D1*
X9207598Y3266210D1*
X9202656Y3275868D1*
X7608047Y4916190D2*
Y4857903D1*
X7583676Y4901703D2*
X7632306Y4872503D1*
Y4901703D2*
X7583676Y4872503D1*
X2479807Y5553400D2*
D90*
X2467734Y5577547D1*
X2443307Y5601973D1*
X2419161Y5614047D1*
X2370588D1*
X2346161Y5601973D1*
X2322015Y5577547D1*
X2309661Y5553400D1*
X2297588Y5516900D1*
Y5455973D1*
X2309661Y5419754D1*
X2322015Y5395327D1*
X2346161Y5371181D1*
X2370588Y5358827D1*
X2419161D1*
X2443307Y5371181D1*
X2467734Y5395327D1*
X2479807Y5419754D1*
X2618885Y5528973D2*
X2594738Y5516900D1*
X2570312Y5492473D1*
X2558238Y5455973D1*
Y5431827D1*
X2570312Y5395327D1*
X2594738Y5371181D1*
X2618885Y5358827D1*
X2655385D1*
X2679812Y5371181D1*
X2703958Y5395327D1*
X2716312Y5431827D1*
Y5455973D1*
X2703958Y5492473D1*
X2679812Y5516900D1*
X2655385Y5528973D1*
X2618885D1*
X2794743D2*
Y5358827D1*
Y5480400D2*
X2831243Y5516900D1*
X2855670Y5528973D1*
X2891889D1*
X2916316Y5516900D1*
X2928389Y5480400D1*
Y5358827D1*
Y5480400D2*
X2964889Y5516900D1*
X2989316Y5528973D1*
X3025535D1*
X3049962Y5516900D1*
X3062316Y5480400D1*
Y5358827D1*
X3140747Y5528973D2*
Y5273754D1*
Y5492473D2*
X3165174Y5516620D1*
X3189320Y5528973D1*
X3225820D1*
X3250247Y5516620D1*
X3274393Y5492473D1*
X3286747Y5455973D1*
Y5431547D1*
X3274393Y5395327D1*
X3250247Y5370900D1*
X3225820Y5358827D1*
X3189320D1*
X3165174Y5370900D1*
X3140747Y5395327D1*
X3365179Y5528973D2*
Y5407400D1*
X3377252Y5371181D1*
X3401679Y5358827D1*
X3438179D1*
X3462325Y5371181D1*
X3498825Y5407400D1*
Y5528973D2*
Y5358827D1*
X3613756Y5614047D2*
Y5407400D1*
X3625829Y5371181D1*
X3650256Y5358827D1*
X3674402D1*
X3577256Y5528973D2*
X3662329D1*
X3752834Y5455973D2*
X3898553D1*
Y5480400D1*
X3886480Y5504827D1*
X3874407Y5516900D1*
X3849980Y5528973D1*
X3813480D1*
X3789334Y5516900D1*
X3764907Y5492473D1*
X3752834Y5455973D1*
Y5431827D1*
X3764907Y5395327D1*
X3789334Y5371181D1*
X3813480Y5358827D1*
X3849980D1*
X3874407Y5371181D1*
X3898553Y5395327D1*
X3976984Y5528973D2*
Y5358827D1*
Y5455973D2*
X3989338Y5492473D1*
X4013484Y5516900D1*
X4037911Y5528973D1*
X4074411D1*
X3450261Y4937033D2*
X3426115Y4961460D1*
X3389615Y4973533D1*
X3341041D1*
X3304541Y4961460D1*
X3280115Y4937033D1*
Y4912887D1*
X3292468Y4888460D1*
X3304541Y4876387D1*
X3328688Y4864314D1*
X3401688Y4839887D1*
X3426115Y4827814D1*
X3438188Y4815460D1*
X3450261Y4791314D1*
Y4754814D1*
X3426115Y4730668D1*
X3389615Y4718314D1*
X3341041D1*
X3304541Y4730668D1*
X3280115Y4754814D1*
X3589338Y4888460D2*
X3565192Y4876387D1*
X3540765Y4851960D1*
X3528692Y4815460D1*
Y4791314D1*
X3540765Y4754814D1*
X3565192Y4730668D1*
X3589338Y4718314D1*
X3625838D1*
X3650265Y4730668D1*
X3674411Y4754814D1*
X3686765Y4791314D1*
Y4815460D1*
X3674411Y4851960D1*
X3650265Y4876387D1*
X3625838Y4888460D1*
X3589338D1*
X3862343Y4973533D2*
X3838196D1*
X3813770Y4961460D1*
X3801696Y4924960D1*
Y4718314D1*
X3765196Y4888460D2*
X3850270D1*
X3977274Y4973533D2*
Y4766887D1*
X3989347Y4730668D1*
X4013774Y4718314D1*
X4037920D1*
X3940774Y4888460D2*
X4025847D1*
X4116352D2*
X4164925Y4718314D1*
X4213498Y4888460D1*
X4262071Y4718314D1*
X4310644Y4888460D1*
X4534794D2*
Y4718314D1*
Y4851960D2*
X4510648Y4876387D1*
X4486221Y4888460D1*
X4450002D1*
X4425575Y4876387D1*
X4401429Y4851960D1*
X4389075Y4815460D1*
Y4791314D1*
X4401429Y4754814D1*
X4425575Y4730668D1*
X4450002Y4718314D1*
X4486221D1*
X4510648Y4730668D1*
X4534794Y4754814D1*
X4613226Y4888460D2*
Y4718314D1*
Y4815460D2*
X4625580Y4851960D1*
X4649726Y4876387D1*
X4674153Y4888460D1*
X4710653D1*
X4789084Y4815460D2*
X4934803D1*
Y4839887D1*
X4922730Y4864314D1*
X4910657Y4876387D1*
X4886230Y4888460D1*
X4849730D1*
X4825584Y4876387D1*
X4801157Y4851960D1*
X4789084Y4815460D1*
Y4791314D1*
X4801157Y4754814D1*
X4825584Y4730668D1*
X4849730Y4718314D1*
X4886230D1*
X4910657Y4730668D1*
X4934803Y4754814D1*
X4275130Y4324430D2*
X4117338D1*
Y4069211D1*
X4275130D1*
X4117338Y4202857D2*
X4214484D1*
X4353562Y4239357D2*
Y4069211D1*
Y4190784D2*
X4390062Y4227284D1*
X4414488Y4239357D1*
X4450708D1*
X4475135Y4227284D1*
X4487208Y4190784D1*
Y4069211D1*
Y4190784D2*
X4523708Y4227284D1*
X4548135Y4239357D1*
X4584354D1*
X4608781Y4227284D1*
X4621135Y4190784D1*
Y4069211D1*
X4699566Y4324430D2*
Y4069211D1*
Y4202857D2*
X4723993Y4227284D1*
X4748139Y4239357D1*
X4784639D1*
X4808785Y4227284D1*
X4833212Y4202857D1*
X4845285Y4166357D1*
Y4142211D1*
X4833212Y4105711D1*
X4808785Y4081564D1*
X4784639Y4069211D1*
X4748139D1*
X4723993Y4081564D1*
X4699566Y4105711D1*
X4923717Y4166357D2*
X5069436D1*
Y4190784D1*
X5057363Y4215211D1*
X5045290Y4227284D1*
X5020863Y4239357D1*
X4984363D1*
X4960217Y4227284D1*
X4935790Y4202857D1*
X4923717Y4166357D1*
Y4142211D1*
X4935790Y4105711D1*
X4960217Y4081564D1*
X4984363Y4069211D1*
X5020863D1*
X5045290Y4081564D1*
X5069436Y4105711D1*
X5293586Y4324430D2*
Y4069211D1*
Y4202857D2*
X5269440Y4227284D1*
X5245013Y4239357D1*
X5208513D1*
X5184367Y4227284D1*
X5159940Y4202857D1*
X5147867Y4166357D1*
Y4142211D1*
X5159940Y4105711D1*
X5184367Y4081564D1*
X5208513Y4069211D1*
X5245013D1*
X5269440Y4081564D1*
X5293586Y4105711D1*
X5517737Y4324430D2*
Y4069211D1*
Y4202857D2*
X5493591Y4227284D1*
X5469164Y4239357D1*
X5432664D1*
X5408518Y4227284D1*
X5384091Y4202857D1*
X5372018Y4166357D1*
Y4142211D1*
X5384091Y4105711D1*
X5408518Y4081564D1*
X5432664Y4069211D1*
X5469164D1*
X5493591Y4081564D1*
X5517737Y4105711D1*
X5596168Y4166357D2*
X5741888D1*
Y4190784D1*
X5729815Y4215211D1*
X5717741Y4227284D1*
X5693315Y4239357D1*
X5656815D1*
X5632668Y4227284D1*
X5608241Y4202857D1*
X5596168Y4166357D1*
Y4142211D1*
X5608241Y4105711D1*
X5632668Y4081564D1*
X5656815Y4069211D1*
X5693315D1*
X5717741Y4081564D1*
X5741888Y4105711D1*
X5966038Y4324430D2*
Y4069211D1*
Y4202857D2*
X5941892Y4227284D1*
X5917465Y4239357D1*
X5880965D1*
X5856819Y4227284D1*
X5832392Y4202857D1*
X5820319Y4166357D1*
Y4142211D1*
X5832392Y4105711D1*
X5856819Y4081564D1*
X5880965Y4069211D1*
X5917465D1*
X5941892Y4081564D1*
X5966038Y4105711D1*
X8858789Y7977240D2*
D86*
X8795560D1*
Y7875152D1*
Y7928611D2*
X8834418D1*
X8890162Y7943211D2*
Y7894581D1*
X8894991Y7880094D1*
X8904762Y7875152D1*
X8919362D1*
X8929020Y7880094D1*
X8943620Y7894581D1*
Y7943211D2*
Y7875152D1*
X9028451Y7928611D2*
X9023622Y7938381D1*
X9009022Y7943211D1*
X8994422D1*
X8979822Y7938381D1*
X8974993Y7928611D1*
X8979822Y7918952D1*
X8989593Y7914011D1*
X9013851Y7909181D1*
X9023622Y7904352D1*
X9028451Y7894581D1*
Y7889752D1*
X9023622Y7880094D1*
X9009022Y7875152D1*
X8994422D1*
X8979822Y7880094D1*
X8974993Y7889752D1*
X9059824Y7914011D2*
X9118111D1*
Y7923781D1*
X9113282Y7933552D1*
X9108453Y7938381D1*
X9098682Y7943211D1*
X9084082D1*
X9074424Y7938381D1*
X9064653Y7928611D1*
X9059824Y7914011D1*
Y7904352D1*
X9064653Y7889752D1*
X9074424Y7880094D1*
X9084082Y7875152D1*
X9098682D1*
X9108453Y7880094D1*
X9118111Y7889752D1*
X7998940Y4486177D2*
D87*
Y4282001D1*
X8135057Y4486177D2*
Y4282001D1*
X7998940Y4388918D2*
X8135057D1*
X8197802Y4486177D2*
X8207460Y4476518D1*
X8217343Y4486177D1*
X8207460Y4496060D1*
X8197802Y4486177D1*
X8207460Y4418118D2*
Y4282001D1*
X8289747Y4301543D2*
X8280088Y4291660D1*
X8289747Y4282001D1*
X8299630Y4291660D1*
X8289747Y4301543D1*
X2151527Y2758658D2*
D86*
X2190386Y2792688D1*
X2229244Y2758658D1*
X2260617Y2673866D2*
X2352934D1*
X2384306Y2758658D2*
X2423165Y2792688D1*
X2462023Y2758658D1*
X1562211Y1937402D2*
X1601069Y1971431D1*
X1639928Y1937402D1*
X1671300Y1852609D2*
X1763617D1*
X1794990Y1937402D2*
X1833848Y1971431D1*
X1872706Y1937402D1*
M02*
