G04 DipTrace 3.0.0.2*
G04 TopSilk.gbr*
%MOMM*%
G04 #@! TF.FileFunction,Legend,Top*
G04 #@! TF.Part,Single*
%ADD10C,0.25*%
%ADD12C,0.0762*%
%ADD29O,0.39124X0.39193*%
%ADD80C,0.15686*%
%ADD81C,0.31373*%
%ADD82C,0.23529*%
%ADD83C,0.27451*%
%ADD84C,0.35294*%
%ADD86C,0.39216*%
%FSLAX35Y35*%
G04*
G71*
G90*
G75*
G01*
G04 TopSilk*
%LPD*%
X5565350Y7273681D2*
D10*
Y6918386D1*
X5870150Y7273681D2*
Y6918386D1*
X5565350D2*
G03X5870150Y6918386I152400J-152D01*
G01*
Y7273681D2*
G03X5565350Y7273681I-152400J152D01*
G01*
X7195879Y7337547D2*
X7551174D1*
X7195879Y7642347D2*
X7551174D1*
Y7337547D2*
G03X7551174Y7642347I152J152400D01*
G01*
X7195879D2*
G03X7195879Y7337547I-152J-152400D01*
G01*
X7886873Y7486441D2*
Y7867125D1*
X7887445Y7485679D2*
G03X7887445Y7867887I253481J191104D01*
G01*
X3225900Y6665051D2*
Y7045735D1*
X3226472Y6664289D2*
G03X3226472Y7046497I253481J191104D01*
G01*
X4497000Y1838443D2*
Y1818383D1*
Y1548163D2*
Y1528103D1*
Y1838443D2*
G02X5042000Y1683273I250574J-154597D01*
G01*
X4497000Y1528103D2*
G03X5042000Y1683273I250574J154597D01*
G01*
X6435600Y4943030D2*
X6689600D1*
X6435600Y5451030D2*
Y4943030D1*
Y5451030D2*
X6689600D1*
Y4943030D1*
X9378810Y4927373D2*
X9632810D1*
X9378810Y5435373D2*
Y4927373D1*
Y5435373D2*
X9632810D1*
Y4927373D1*
X9676334Y4710817D2*
X9422330D1*
Y3186956D1*
X9676334D1*
Y4710817D1*
X6687011Y4717237D2*
X6433007D1*
Y3193376D1*
X6687011D1*
Y4717237D1*
X10598742Y6159708D2*
Y7379852D1*
Y6159708D2*
X9788723D1*
X9778663Y7379852D2*
X10598742D1*
X9348665Y6159708D2*
X9018621D1*
Y6539833D1*
Y7019822D2*
Y7379852D1*
X9358724D1*
X5687050Y5693239D2*
X5839450D1*
X5687050Y6100401D2*
Y5693239D1*
Y6100401D2*
X5839450D1*
Y5693239D1*
X5288823Y5682289D2*
X5441223D1*
X5288823Y6089451D2*
Y5682289D1*
Y6089451D2*
X5441223D1*
Y5682289D1*
X2081270Y5227224D2*
X1928870D1*
X2081270Y4820062D2*
Y5227224D1*
Y4820062D2*
X1928870D1*
Y5227224D1*
X2048733Y4066918D2*
X1896333D1*
X2048733Y3659756D2*
Y4066918D1*
Y3659756D2*
X1896333D1*
Y4066918D1*
X7496623Y5731266D2*
X7649023D1*
X7496623Y6138428D2*
Y5731266D1*
Y6138428D2*
X7649023D1*
Y5731266D1*
X8073707Y6137494D2*
X7921307D1*
X8073707Y5730332D2*
Y6137494D1*
Y5730332D2*
X7921307D1*
Y6137494D1*
X8504820Y6135901D2*
X8352420D1*
X8504820Y5728739D2*
Y6135901D1*
Y5728739D2*
X8352420D1*
Y6135901D1*
X8973317Y7590990D2*
X8913477D1*
X8973317Y7841010D2*
X8913477D1*
X5540716Y1513490D2*
Y1361090D1*
X5947878Y1513490D2*
X5540716D1*
X5947878D2*
Y1361090D1*
X5540716D1*
X5667459Y1268813D2*
Y1116413D1*
X6074621Y1268813D2*
X5667459D1*
X6074621D2*
Y1116413D1*
X5667459D1*
X3824302Y1293973D2*
Y1141573D1*
X4231464Y1293973D2*
X3824302D1*
X4231464D2*
Y1141573D1*
X3824302D1*
X2048471Y3001880D2*
Y2493880D1*
X2556455D1*
Y3001880D1*
X2048471D2*
X2556455D1*
X2080209Y2747880D2*
G02X2080209Y2747880I222254J0D01*
G01*
X1459155Y2180623D2*
Y1672623D1*
X1967139D1*
Y2180623D1*
X1459155D2*
X1967139D1*
X1490892Y1926623D2*
G02X1490892Y1926623I222254J0D01*
G01*
X8399915Y5051720D2*
Y3091720D1*
X7879892D2*
X8399915D1*
X7879892Y5051720D2*
Y3091720D1*
Y5051720D2*
X8079894D1*
X8399915D2*
X8199913D1*
X8079894D2*
G03X8199913Y5051720I60010J34D01*
G01*
D29*
X6331187Y6434076D3*
X6328547Y6660771D2*
D10*
X6988515D1*
X6328547Y6940769D2*
X6988515D1*
Y6660771D2*
Y6940769D1*
X6328547Y6660771D2*
Y6940769D1*
X5865487Y2977270D2*
D12*
X8197207D1*
X5865487Y2969650D2*
X8197207D1*
X5865487Y2962030D2*
X8197207D1*
X5865487Y2954410D2*
X8197207D1*
X5865487Y2946790D2*
X8197207D1*
X5865487Y2939170D2*
X8197207D1*
X5865487Y2931550D2*
X8197207D1*
X5865487Y2923930D2*
X8197207D1*
X5865487Y2916310D2*
X8197207D1*
X5865487Y2908690D2*
X8197207D1*
X5865487Y2901070D2*
X8197207D1*
X5865487Y2893450D2*
X8197207D1*
X5865487Y2885830D2*
X8197207D1*
X5865487Y2878210D2*
X8197207D1*
X5865487Y2870590D2*
X8197207D1*
X5865487Y2862970D2*
X8197207D1*
X5865487Y2855350D2*
X8197207D1*
X5865487Y2847730D2*
X8197207D1*
X5865487Y2840110D2*
X8197207D1*
X5865487Y2832490D2*
X6158652D1*
X6204781D2*
X8197207D1*
X9164947D2*
X9264007D1*
X5865487Y2824870D2*
X6129160D1*
X6234273D2*
X8197207D1*
X8319127D2*
X8631547D1*
X8677267D2*
X8982067D1*
X9145336D2*
X9279839D1*
X9454507D2*
X9561187D1*
X9683107D2*
X9797407D1*
X5865487Y2817250D2*
X6106415D1*
X6256988D2*
X8197207D1*
X8319127D2*
X8631547D1*
X8677267D2*
X8982067D1*
X9128553D2*
X9293725D1*
X9454507D2*
X9561187D1*
X9683107D2*
X9797407D1*
X5865487Y2809630D2*
X6089351D1*
X6273785D2*
X8197207D1*
X8319127D2*
X8631547D1*
X8677267D2*
X8982067D1*
X9114752D2*
X9305533D1*
X9454507D2*
X9561187D1*
X9683107D2*
X9797407D1*
X5865487Y2802010D2*
X6076220D1*
X6285975D2*
X8197207D1*
X8319127D2*
X8631547D1*
X8677267D2*
X8982067D1*
X9103957D2*
X9315470D1*
X9454507D2*
X9561187D1*
X9683107D2*
X9797407D1*
X5865487Y2794390D2*
X6065800D1*
X6294837D2*
X8197207D1*
X8319127D2*
X8631547D1*
X8677267D2*
X8982067D1*
X9094954D2*
X9324166D1*
X9454507D2*
X9561187D1*
X9683107D2*
X9797407D1*
X5865487Y2786770D2*
X6057154D1*
X6302500D2*
X8197207D1*
X8319127D2*
X8631547D1*
X8677267D2*
X8982067D1*
X9086582D2*
X9331993D1*
X9454507D2*
X9561187D1*
X9683107D2*
X9797407D1*
X5865487Y2779150D2*
X6049965D1*
X6310156D2*
X8197207D1*
X8319127D2*
X8631547D1*
X8677267D2*
X8982067D1*
X9079270D2*
X9338800D1*
X9454507D2*
X9561187D1*
X9683107D2*
X9797407D1*
X5865487Y2771530D2*
X6043989D1*
X6317111D2*
X8197207D1*
X8319127D2*
X8631547D1*
X8677267D2*
X8982067D1*
X9073385D2*
X9344397D1*
X9454507D2*
X9561187D1*
X9683107D2*
X9797407D1*
X5865487Y2763910D2*
X6038543D1*
X6322622D2*
X8197207D1*
X8319127D2*
X8631547D1*
X8677267D2*
X8982067D1*
X9068534D2*
X9349088D1*
X9454507D2*
X9561187D1*
X9683107D2*
X9797407D1*
X5865487Y2756290D2*
X6033464D1*
X6326687D2*
X7293422D1*
X7317912D2*
X8197207D1*
X8319127D2*
X8631547D1*
X8677267D2*
X8982067D1*
X9064275D2*
X9353295D1*
X9454507D2*
X9561187D1*
X9683107D2*
X9797407D1*
X5865487Y2748670D2*
X6029367D1*
X6329835D2*
X7276919D1*
X7328214D2*
X8197207D1*
X8319127D2*
X8631547D1*
X8677267D2*
X8982067D1*
X9060276D2*
X9357256D1*
X9454507D2*
X9561187D1*
X9683107D2*
X9797407D1*
X5865487Y2741050D2*
X6026143D1*
X6170287D2*
X6185527D1*
X6332996D2*
X7264492D1*
X7332276D2*
X8197207D1*
X8319127D2*
X8631547D1*
X8677267D2*
X8982067D1*
X9056403D2*
X9361102D1*
X9454507D2*
X9561187D1*
X9683107D2*
X9797407D1*
X5865487Y2733430D2*
X6023177D1*
X6159439D2*
X6200152D1*
X6336638D2*
X7255636D1*
X7334490D2*
X8197207D1*
X8319127D2*
X8631547D1*
X8677267D2*
X8783947D1*
X9052591D2*
X9189594D1*
X9238471D2*
X9364660D1*
X9454507D2*
X9561187D1*
X9683107D2*
X9797407D1*
X5865487Y2725810D2*
X6020470D1*
X6150608D2*
X6211851D1*
X6340942D2*
X7249772D1*
X7335496D2*
X8197207D1*
X8418187D2*
X8532487D1*
X8677267D2*
X8783947D1*
X9049017D2*
X9178524D1*
X9248629D2*
X9367512D1*
X9454507D2*
X9561187D1*
X9683107D2*
X9797407D1*
X5865487Y2718190D2*
X6017945D1*
X6143736D2*
X6220447D1*
X6345495D2*
X7245802D1*
X7335906D2*
X8197207D1*
X8418187D2*
X8532487D1*
X8677267D2*
X8783947D1*
X9045931D2*
X9170447D1*
X9256560D2*
X9369494D1*
X9454507D2*
X9561187D1*
X9683107D2*
X9797407D1*
X5865487Y2710570D2*
X6015072D1*
X6137877D2*
X6226223D1*
X6349154D2*
X7242572D1*
X7336062D2*
X8197207D1*
X8418187D2*
X8532487D1*
X8677267D2*
X8783947D1*
X9043248D2*
X9164544D1*
X9263082D2*
X9371327D1*
X9454507D2*
X9561187D1*
X9683107D2*
X9797407D1*
X5865487Y2702950D2*
X6011798D1*
X6132656D2*
X6230165D1*
X6351600D2*
X7240004D1*
X7336118D2*
X8197207D1*
X8418187D2*
X8532487D1*
X8677267D2*
X8783947D1*
X9040561D2*
X9159841D1*
X9268407D2*
X9373534D1*
X9454507D2*
X9561187D1*
X9683107D2*
X9797407D1*
X5865487Y2695330D2*
X6008501D1*
X6128761D2*
X6233384D1*
X6353655D2*
X7238320D1*
X7336137D2*
X7501270D1*
X7503629D2*
X8197207D1*
X8418187D2*
X8532487D1*
X8677267D2*
X8783947D1*
X9038195D2*
X9155937D1*
X9272694D2*
X9375643D1*
X9454507D2*
X9561187D1*
X9683107D2*
X9797407D1*
X5865487Y2687710D2*
X6005786D1*
X6126455D2*
X6235929D1*
X6355956D2*
X6429367D1*
X6528427D2*
X6584181D1*
X6635107D2*
X6750614D1*
X6853382D2*
X7095272D1*
X7214227D2*
X7237087D1*
X7305667D2*
X7313287D1*
X7336147D2*
X7467321D1*
X7540144D2*
X7718934D1*
X7823827D2*
X7864312D1*
X7959489D2*
X8197207D1*
X8418187D2*
X8532487D1*
X8677267D2*
X8783947D1*
X9036444D2*
X9152953D1*
X9275837D2*
X9377031D1*
X9454507D2*
X9561187D1*
X9683107D2*
X9797407D1*
X5865487Y2680090D2*
X6004114D1*
X6125068D2*
X6237491D1*
X6358102D2*
X6429367D1*
X6528427D2*
X6573285D1*
X6635107D2*
X6737561D1*
X6870891D2*
X7078471D1*
X7296649D2*
X7442024D1*
X7566020D2*
X7714416D1*
X7823827D2*
X7853177D1*
X7971536D2*
X8197207D1*
X8418187D2*
X8532487D1*
X8677267D2*
X8783947D1*
X9034707D2*
X9150924D1*
X9277680D2*
X9377759D1*
X9454507D2*
X9561187D1*
X9683107D2*
X9797407D1*
X5865487Y2672470D2*
X6003237D1*
X6123608D2*
X6238283D1*
X6359504D2*
X6429367D1*
X6528427D2*
X6564261D1*
X6635107D2*
X6725563D1*
X6885412D2*
X7064806D1*
X7288978D2*
X7423752D1*
X7584225D2*
X7714469D1*
X7823827D2*
X7843441D1*
X7981440D2*
X8197207D1*
X8418187D2*
X8532487D1*
X8677267D2*
X8783947D1*
X9032538D2*
X9149074D1*
X9278621D2*
X9378119D1*
X9454507D2*
X9561187D1*
X9683107D2*
X9797407D1*
X5865487Y2664850D2*
X6002592D1*
X6121587D2*
X6238637D1*
X6360236D2*
X6429367D1*
X6528427D2*
X6556877D1*
X6635107D2*
X6714781D1*
X6897223D2*
X7053154D1*
X7283453D2*
X7410324D1*
X7597719D2*
X7715381D1*
X7823827D2*
X7835126D1*
X7989297D2*
X8197207D1*
X8418187D2*
X8532487D1*
X8677267D2*
X8783947D1*
X9030443D2*
X9146832D1*
X9279289D2*
X9378523D1*
X9454507D2*
X9561187D1*
X9683107D2*
X9797407D1*
X5865487Y2657230D2*
X6001468D1*
X6119559D2*
X6238811D1*
X6360569D2*
X6429367D1*
X6528427D2*
X6551055D1*
X6635107D2*
X6705534D1*
X6906510D2*
X7043510D1*
X7279585D2*
X7400394D1*
X7608241D2*
X7716223D1*
X7823827D2*
X7828860D1*
X7995329D2*
X8197207D1*
X8418187D2*
X8532487D1*
X8677267D2*
X8783947D1*
X9029060D2*
X9144453D1*
X9280421D2*
X9379552D1*
X9454507D2*
X9561187D1*
X9683107D2*
X9797407D1*
X5865487Y2649610D2*
X5999585D1*
X6118204D2*
X6239134D1*
X6360735D2*
X6429367D1*
X6528427D2*
X6546290D1*
X6635107D2*
X6697728D1*
X6914111D2*
X7036258D1*
X7280511D2*
X7392552D1*
X7616883D2*
X7716729D1*
X7823827D2*
D3*
X7999940D2*
X8197207D1*
X8418187D2*
X8532487D1*
X8677267D2*
X8783947D1*
X9028334D2*
X9142094D1*
X9282309D2*
X9381460D1*
X9454507D2*
X9561187D1*
X9683107D2*
X9797407D1*
X5865487Y2641990D2*
X5997610D1*
X6117488D2*
X6240125D1*
X6361055D2*
X6429367D1*
X6528427D2*
X6542300D1*
X6635107D2*
X6690856D1*
X6920846D2*
X7030964D1*
X7285055D2*
X7385731D1*
X7623810D2*
X7716975D1*
X8003217D2*
X8197207D1*
X8418187D2*
X8532487D1*
X8677267D2*
X8783947D1*
X9027974D2*
X9139541D1*
X9284303D2*
X9383735D1*
X9454507D2*
X9561187D1*
X9683107D2*
X9797407D1*
X5865487Y2634370D2*
X5996274D1*
X6117162D2*
X6241957D1*
X6362045D2*
X6429367D1*
X6528427D2*
X6539025D1*
X6635107D2*
X6684441D1*
X6926456D2*
X7027118D1*
X7145647D2*
X7176127D1*
X7289949D2*
X7380092D1*
X7628815D2*
X7717081D1*
X8005111D2*
X8197207D1*
X8418187D2*
X8532487D1*
X8677267D2*
X8783947D1*
X9027570D2*
X9137257D1*
X9285756D2*
X9385927D1*
X9454507D2*
X9561187D1*
X9683107D2*
X9797407D1*
X5865487Y2626750D2*
X5995565D1*
X6117027D2*
X6243913D1*
X6363877D2*
X6429367D1*
X6528427D2*
X6536067D1*
X6635107D2*
X6678961D1*
X6930693D2*
X7024128D1*
X7139524D2*
X7180822D1*
X7294078D2*
X7375845D1*
X7632467D2*
X7717123D1*
X8006042D2*
X8197207D1*
X8418187D2*
X8532487D1*
X8677267D2*
X8783947D1*
X9026547D2*
X9135791D1*
X9286867D2*
X9332587D1*
X9454507D2*
X9561187D1*
X9683107D2*
X9797407D1*
X5865487Y2619130D2*
X5995241D1*
X6116975D2*
X6245243D1*
X6365833D2*
X6429367D1*
X6528427D2*
X6532532D1*
X6635107D2*
X6674773D1*
X6787507D2*
X6833227D1*
X6934200D2*
X7021325D1*
X7135038D2*
X7184899D1*
X7297354D2*
X7372335D1*
X7488547D2*
X7519027D1*
X7635830D2*
X7717138D1*
X8006478D2*
X8197207D1*
X8418187D2*
X8532487D1*
X8677267D2*
X8783947D1*
X9024703D2*
X9135033D1*
X9454507D2*
X9561187D1*
X9683107D2*
X9797407D1*
X5865487Y2611510D2*
X5995107D1*
X6116957D2*
X6245950D1*
X6367163D2*
X6429367D1*
X6528427D2*
D3*
X6635107D2*
X6671284D1*
X6782521D2*
X6839349D1*
X6937157D2*
X7018917D1*
X7132218D2*
X7187980D1*
X7300321D2*
X7369377D1*
X7483561D2*
X7525439D1*
X7639301D2*
X7717144D1*
X7846687D2*
X7884787D1*
X8006909D2*
X8197207D1*
X8418187D2*
X8532487D1*
X8677267D2*
X8936347D1*
X9022743D2*
X9134690D1*
X9454507D2*
X9797407D1*
X5865487Y2603890D2*
X5995055D1*
X6116950D2*
X6246273D1*
X6367870D2*
X6429367D1*
X6635107D2*
X6668333D1*
X6777467D2*
X6843835D1*
X6939756D2*
X7017151D1*
X7130009D2*
X7189805D1*
X7302776D2*
X7366778D1*
X7478507D2*
X7530872D1*
X7642672D2*
X7717146D1*
X7841477D2*
X7889482D1*
X8007942D2*
X8197207D1*
X8418187D2*
X8532487D1*
X8677267D2*
X8936347D1*
X9021411D2*
X9134550D1*
X9454507D2*
X9797407D1*
X5865487Y2596270D2*
X5995037D1*
X6116948D2*
X6246407D1*
X6368193D2*
X6429367D1*
X6635107D2*
X6665737D1*
X6772560D2*
X6846655D1*
X6942401D2*
X7015439D1*
X7127649D2*
X7190713D1*
X7304306D2*
X7364132D1*
X7473600D2*
X7535251D1*
X7645414D2*
X7717146D1*
X7836911D2*
X7893589D1*
X8009789D2*
X8197207D1*
X8418187D2*
X8532487D1*
X8677267D2*
X8936347D1*
X9020704D2*
X9134496D1*
X9454507D2*
X9797407D1*
X5865487Y2588650D2*
X5995030D1*
X6116947D2*
X6246458D1*
X6368327D2*
X6429367D1*
X6610812D2*
X6663092D1*
X6768780D2*
X6848864D1*
X6944749D2*
X7013536D1*
X7125512D2*
X7191112D1*
X7305088D2*
X7361784D1*
X7469820D2*
X7538442D1*
X7647124D2*
X7717147D1*
X7833754D2*
X7896937D1*
X8011750D2*
X8197207D1*
X8418187D2*
X8532487D1*
X8677267D2*
X8936347D1*
X9020380D2*
X9134477D1*
X9454507D2*
X9797407D1*
X5865487Y2581030D2*
X5995028D1*
X6116947D2*
X6246477D1*
X6368378D2*
X6429367D1*
X6592170D2*
X6660774D1*
X6766544D2*
X6851224D1*
X6946494D2*
X7012412D1*
X7124371D2*
X7191273D1*
X7305439D2*
X7360040D1*
X7467584D2*
X7540307D1*
X7648242D2*
X7717147D1*
X7831290D2*
X7899734D1*
X8013082D2*
X8197207D1*
X8418187D2*
X8532487D1*
X8677267D2*
X8936347D1*
X9020247D2*
X9134470D1*
X9454507D2*
X9797407D1*
X5865487Y2573410D2*
X5995027D1*
X6116947D2*
X6246483D1*
X6368397D2*
X6429367D1*
X6578705D2*
X6659268D1*
X6765439D2*
X6853391D1*
X6948228D2*
X7012884D1*
X7124607D2*
X7191333D1*
X7305582D2*
X7358306D1*
X7466479D2*
X7541227D1*
X7649592D2*
X7717147D1*
X7828792D2*
X7902437D1*
X8013789D2*
X8197207D1*
X8418187D2*
X8532487D1*
X8677267D2*
X8936347D1*
X9020195D2*
X9134468D1*
X9454507D2*
X9797407D1*
X5865487Y2565790D2*
X5995027D1*
X6116947D2*
X6246486D1*
X6368403D2*
X6429367D1*
X6568672D2*
X6658237D1*
X6764954D2*
X6854800D1*
X6950396D2*
X7014379D1*
X7126099D2*
X7191326D1*
X7305607D2*
X7356137D1*
X7465995D2*
X7541660D1*
X7651570D2*
X7717147D1*
X7826563D2*
X7904521D1*
X8014113D2*
X8197207D1*
X8418187D2*
X8532487D1*
X8677267D2*
X8936347D1*
X9020177D2*
X9134467D1*
X9454507D2*
X9797407D1*
X5865487Y2558170D2*
X5995027D1*
X6116947D2*
X6246486D1*
X6368406D2*
X6429367D1*
X6561159D2*
X6656922D1*
X6764760D2*
X6855537D1*
X6952491D2*
X7016349D1*
X7127916D2*
X7191065D1*
X7305359D2*
X7354043D1*
X7465800D2*
X7542090D1*
X7653612D2*
X7717147D1*
X7825128D2*
X7905663D1*
X8014247D2*
X8197207D1*
X8418187D2*
X8532487D1*
X8677267D2*
X8936347D1*
X9020170D2*
X9134467D1*
X9454507D2*
X9797407D1*
X5865487Y2550550D2*
X5995027D1*
X6116947D2*
X6246487D1*
X6368406D2*
X6429367D1*
X6555926D2*
X6654956D1*
X6764685D2*
X6855883D1*
X6953873D2*
X7018774D1*
X7129252D2*
X7190067D1*
X7304365D2*
X7352660D1*
X7465727D2*
X7543122D1*
X7655230D2*
X7717147D1*
X7824384D2*
X7904138D1*
X8014298D2*
X8197207D1*
X8418187D2*
X8532487D1*
X8677267D2*
X8936347D1*
X9020168D2*
X9134467D1*
X9454507D2*
X9797407D1*
X5865487Y2542930D2*
X5995027D1*
X6116947D2*
X6246487D1*
X6368407D2*
X6429367D1*
X6552221D2*
X6652949D1*
X6764647D2*
X6856087D1*
X6954629D2*
X7021267D1*
X7130520D2*
X7187951D1*
X7302274D2*
X7351934D1*
X7465700D2*
X7544969D1*
X7656915D2*
X7717147D1*
X7824047D2*
X7902413D1*
X8014317D2*
X8197207D1*
X8418187D2*
X8532487D1*
X8677267D2*
X8936347D1*
X9020197D2*
X9134467D1*
X9454507D2*
X9797407D1*
X5865487Y2535310D2*
X5995027D1*
X6116947D2*
X6246487D1*
X6368407D2*
X6429367D1*
X6549095D2*
X6651600D1*
X6955227D2*
X7023712D1*
X7132296D2*
X7184801D1*
X7299320D2*
X7351604D1*
X7465691D2*
X7546930D1*
X7659066D2*
X7717147D1*
X7823909D2*
X7901196D1*
X8014323D2*
X8197207D1*
X8418187D2*
X8532487D1*
X8677267D2*
X8936347D1*
X9020464D2*
X9134467D1*
X9454507D2*
X9797407D1*
X5865487Y2527690D2*
X5995027D1*
X6116947D2*
X6246487D1*
X6368377D2*
X6429367D1*
X6546586D2*
X6650887D1*
X6956334D2*
X7026586D1*
X7138314D2*
X7180752D1*
X7295869D2*
X7351468D1*
X7465658D2*
X7548262D1*
X7661154D2*
X7717147D1*
X7823856D2*
X7900536D1*
X8014326D2*
X8197207D1*
X8418187D2*
X8532487D1*
X8677267D2*
X8936347D1*
X9021435D2*
X9134467D1*
X9454507D2*
X9797407D1*
X5865487Y2520070D2*
X5995027D1*
X6116947D2*
X6246457D1*
X6368109D2*
X6429367D1*
X6545036D2*
X6650532D1*
X6958211D2*
X7030148D1*
X7145647D2*
X7176127D1*
X7291970D2*
X7351416D1*
X7465389D2*
X7548969D1*
X7662534D2*
X7717147D1*
X7823837D2*
X7900231D1*
X8014326D2*
X8197207D1*
X8418187D2*
X8532487D1*
X8677267D2*
X8783947D1*
X9023260D2*
X9134467D1*
X9454507D2*
X9797407D1*
X5865487Y2512450D2*
X5995056D1*
X6116947D2*
X6246189D1*
X6367138D2*
X6429367D1*
X6544248D2*
X6650107D1*
X6960184D2*
X7034710D1*
X7287462D2*
X7351397D1*
X7464448D2*
X7549293D1*
X7663260D2*
X7717147D1*
X7823830D2*
X7900103D1*
X8014327D2*
X8197207D1*
X8418187D2*
X8532487D1*
X8677267D2*
X8783947D1*
X9025214D2*
X9134467D1*
X9454507D2*
X9561187D1*
X9683107D2*
X9797407D1*
X5865487Y2504830D2*
X5995324D1*
X6116947D2*
X6245218D1*
X6365313D2*
X6429367D1*
X6543895D2*
X6648878D1*
X6961520D2*
X7040488D1*
X7282248D2*
X7351390D1*
X7462891D2*
X7549427D1*
X7663590D2*
X7717147D1*
X7823828D2*
X7900054D1*
X8014327D2*
X8197207D1*
X8418187D2*
X8532487D1*
X8677267D2*
X8783947D1*
X9026543D2*
X9134496D1*
X9454507D2*
X9561187D1*
X9683107D2*
X9797407D1*
X5865487Y2497210D2*
X5996295D1*
X6116976D2*
X6243393D1*
X6363359D2*
X6429367D1*
X6543752D2*
X6646254D1*
X6962229D2*
X7046850D1*
X7276082D2*
X7351388D1*
X7461908D2*
X7549478D1*
X7663726D2*
X7717147D1*
X7823827D2*
X7900036D1*
X8014327D2*
X8197207D1*
X8418187D2*
X8532487D1*
X8677267D2*
X8783947D1*
X9027250D2*
X9134764D1*
X9454507D2*
X9561187D1*
X9683107D2*
X9797407D1*
X5865487Y2489590D2*
X5998120D1*
X6117244D2*
X6241439D1*
X6362030D2*
X6429367D1*
X6543697D2*
X6642727D1*
X6962553D2*
X7052704D1*
X7267915D2*
X7351387D1*
X7462404D2*
X7549497D1*
X7663778D2*
X7717147D1*
X7823827D2*
X7900030D1*
X8014327D2*
X8197207D1*
X8418187D2*
X8532487D1*
X8677267D2*
X8783947D1*
X9027573D2*
X9135735D1*
X9286867D2*
X9317347D1*
X9454507D2*
X9561187D1*
X9683107D2*
X9797407D1*
X5865487Y2481970D2*
X6000074D1*
X6118215D2*
X6240110D1*
X6361324D2*
X6429367D1*
X6543677D2*
X6646244D1*
X6962691D2*
X7057801D1*
X7257129D2*
X7351387D1*
X7463651D2*
X7549503D1*
X7663767D2*
X7717147D1*
X7823827D2*
X7900028D1*
X8014327D2*
X8197207D1*
X8418187D2*
X8532487D1*
X8677267D2*
X8783947D1*
X9027736D2*
X9137590D1*
X9284262D2*
X9385927D1*
X9454507D2*
X9561187D1*
X9683107D2*
X9797407D1*
X5865487Y2474350D2*
X6001403D1*
X6120040D2*
X6239404D1*
X6361000D2*
X6429367D1*
X6543670D2*
X6648433D1*
X6764647D2*
X7053079D1*
X7243436D2*
X7351387D1*
X7464657D2*
X7549476D1*
X7663506D2*
X7717147D1*
X7823827D2*
X7900027D1*
X8014327D2*
X8197207D1*
X8418187D2*
X8532487D1*
X8677267D2*
X8783947D1*
X9028056D2*
X9139812D1*
X9281994D2*
X9385636D1*
X9454507D2*
X9561187D1*
X9683107D2*
X9797407D1*
X5865487Y2466730D2*
X6002140D1*
X6121994D2*
X6239080D1*
X6360837D2*
X6429367D1*
X6543668D2*
X6649540D1*
X6764647D2*
X7046554D1*
X7226168D2*
X7351387D1*
X7465230D2*
X7549209D1*
X7662537D2*
X7717147D1*
X7823827D2*
X7900027D1*
X8014327D2*
X8197207D1*
X8418187D2*
X8532487D1*
X8677267D2*
X8783947D1*
X9029046D2*
X9142112D1*
X9280519D2*
X9384660D1*
X9454507D2*
X9561187D1*
X9683107D2*
X9797407D1*
X5865487Y2459110D2*
X6002731D1*
X6123323D2*
X6238917D1*
X6360518D2*
X6429367D1*
X6543667D2*
X6650061D1*
X6764647D2*
X7039374D1*
X7115167D2*
X7130407D1*
X7206607D2*
X7351416D1*
X7465502D2*
X7548238D1*
X7660713D2*
X7717147D1*
X7823827D2*
X7900027D1*
X8014327D2*
X8197207D1*
X8418187D2*
X8532487D1*
X8677267D2*
X8783947D1*
X9030877D2*
X9144644D1*
X9279505D2*
X9382833D1*
X9454507D2*
X9561187D1*
X9683107D2*
X9797407D1*
X5865487Y2451490D2*
X6003865D1*
X6124060D2*
X6238598D1*
X6359528D2*
X6429367D1*
X6543667D2*
X6650528D1*
X6764647D2*
X7032455D1*
X7106984D2*
X7351684D1*
X7465616D2*
X7546413D1*
X7658729D2*
X7717147D1*
X7823827D2*
X7900027D1*
X8014327D2*
X8197207D1*
X8418187D2*
X8532487D1*
X8677267D2*
X8783947D1*
X9032863D2*
X9146950D1*
X9278168D2*
X9380879D1*
X9454507D2*
X9561187D1*
X9683107D2*
X9797407D1*
X5865487Y2443870D2*
X6006010D1*
X6124680D2*
X6237578D1*
X6357696D2*
X6429367D1*
X6543667D2*
X6651574D1*
X6764647D2*
X7025935D1*
X7100116D2*
X7352655D1*
X7465661D2*
X7544459D1*
X7657133D2*
X7717147D1*
X7823827D2*
X7900027D1*
X8014327D2*
X8197207D1*
X8418187D2*
X8532487D1*
X8677267D2*
X8783947D1*
X9034460D2*
X9148681D1*
X9275937D2*
X9379520D1*
X9454507D2*
X9561187D1*
X9683107D2*
X9797407D1*
X5865487Y2436250D2*
X6008953D1*
X6126053D2*
X6235479D1*
X6355710D2*
X6429367D1*
X6543667D2*
X6653426D1*
X6764647D2*
X7019681D1*
X7096845D2*
X7354480D1*
X7465678D2*
X7543130D1*
X7655455D2*
X7717147D1*
X7823827D2*
X7900027D1*
X8014327D2*
X8197207D1*
X8418187D2*
X8532487D1*
X8677267D2*
X8783947D1*
X9036138D2*
X9150440D1*
X9272930D2*
X9378546D1*
X9454507D2*
X9561187D1*
X9683107D2*
X9797407D1*
X5865487Y2428630D2*
X6012143D1*
X6128930D2*
X6232522D1*
X6354083D2*
X6429367D1*
X6543667D2*
X6655419D1*
X6764647D2*
X6856057D1*
X6901807D2*
X7014486D1*
X7097799D2*
X7356434D1*
X7465684D2*
X7542424D1*
X7653307D2*
X7717147D1*
X7823827D2*
X7900027D1*
X8014327D2*
X8197207D1*
X8418187D2*
X8532487D1*
X8677267D2*
X8783947D1*
X9038316D2*
X9152934D1*
X9269459D2*
X9377252D1*
X9454507D2*
X9561187D1*
X9683107D2*
X9797407D1*
X5865487Y2421010D2*
X6015074D1*
X6133025D2*
X6229040D1*
X6352137D2*
X6429367D1*
X6543667D2*
X6657019D1*
X6764676D2*
X6855789D1*
X6955147D2*
X7011017D1*
X7103954D2*
X7357793D1*
X7465715D2*
X7542071D1*
X7651219D2*
X7717147D1*
X7823827D2*
X7900027D1*
X8014327D2*
X8197207D1*
X8418187D2*
X8532487D1*
X8677267D2*
X8783947D1*
X9040702D2*
X9156565D1*
X9265523D2*
X9375263D1*
X9454507D2*
X9561187D1*
X9683107D2*
X9797407D1*
X5865487Y2413390D2*
X6017698D1*
X6137643D2*
X6224813D1*
X6349018D2*
X6429367D1*
X6543667D2*
X6658698D1*
X6764974D2*
X6854818D1*
X6953969D2*
X7008446D1*
X7112646D2*
X7358767D1*
X7465984D2*
X7541669D1*
X7649809D2*
X7717147D1*
X7823827D2*
X7900027D1*
X8014327D2*
X8197207D1*
X8418187D2*
X8532487D1*
X8677267D2*
X8783947D1*
X9043321D2*
X9162017D1*
X9260775D2*
X9372990D1*
X9454507D2*
X9561187D1*
X9683107D2*
X9797407D1*
X5865487Y2405770D2*
X6020393D1*
X6143355D2*
X6218800D1*
X6345076D2*
X6429367D1*
X6543667D2*
X6660876D1*
X6766243D2*
X6852963D1*
X6952050D2*
X7006162D1*
X7122787D2*
X7360062D1*
X7466985D2*
X7540617D1*
X7648816D2*
X7717147D1*
X7823827D2*
X7900027D1*
X8014327D2*
X8197207D1*
X8418187D2*
X8532487D1*
X8677267D2*
X8783947D1*
X9046842D2*
X9169674D1*
X9254893D2*
X9370642D1*
X9454507D2*
X9561187D1*
X9683107D2*
X9797407D1*
X5865487Y2398150D2*
X6022989D1*
X6151782D2*
X6209852D1*
X6341474D2*
X6429367D1*
X6543667D2*
X6663232D1*
X6769366D2*
X6850652D1*
X6949809D2*
X7004265D1*
X7213151D2*
X7362050D1*
X7469138D2*
X7538446D1*
X7647515D2*
X7717147D1*
X7823827D2*
X7900027D1*
X8014327D2*
X8197207D1*
X8418187D2*
X8532487D1*
X8677267D2*
X8783947D1*
X9050981D2*
X9178603D1*
X9248186D2*
X9367806D1*
X9454507D2*
X9561187D1*
X9683107D2*
X9797407D1*
X5865487Y2390530D2*
X6025472D1*
X6163784D2*
X6198272D1*
X6338418D2*
X6429367D1*
X6543667D2*
X6665583D1*
X6774704D2*
X6847476D1*
X6947504D2*
X7005141D1*
X7248487D2*
X7364323D1*
X7472649D2*
X7534928D1*
X7645524D2*
X7717147D1*
X7823827D2*
X7900027D1*
X8014327D2*
X8197207D1*
X8418187D2*
X8532487D1*
X8677267D2*
X8982067D1*
X9054667D2*
X9187807D1*
X9241147D2*
X9364288D1*
X9454507D2*
X9561187D1*
X9683107D2*
X9797407D1*
X5865487Y2382910D2*
X6028359D1*
X6177907D2*
X6185527D1*
X6335259D2*
X6429367D1*
X6543667D2*
X6668193D1*
X6782256D2*
X6842860D1*
X6944941D2*
X7006761D1*
X7273245D2*
X7366672D1*
X7478228D2*
X7529347D1*
X7643250D2*
X7717147D1*
X7823827D2*
X7900027D1*
X8014327D2*
X8197207D1*
X8418187D2*
X8532487D1*
X8677267D2*
X8982067D1*
X9057756D2*
X9359998D1*
X9454507D2*
X9561187D1*
X9683107D2*
X9797407D1*
X5865487Y2375290D2*
X6031896D1*
X6331578D2*
X6429367D1*
X6543667D2*
X6671012D1*
X6791925D2*
X6831305D1*
X6942395D2*
X7009021D1*
X7290245D2*
X7369508D1*
X7486452D2*
X7521122D1*
X7640902D2*
X7717147D1*
X7823827D2*
X7900027D1*
X8014327D2*
X8197207D1*
X8418187D2*
X8532487D1*
X8677267D2*
X8982067D1*
X9060927D2*
X9355164D1*
X9454507D2*
X9561187D1*
X9683107D2*
X9797407D1*
X5865487Y2367670D2*
X6036192D1*
X6326999D2*
X6429367D1*
X6543667D2*
X6674449D1*
X6802747D2*
X6817987D1*
X6939902D2*
X7012452D1*
X7302375D2*
X7373026D1*
X7496167D2*
X7511407D1*
X7638066D2*
X7717147D1*
X7823827D2*
X7900027D1*
X8014327D2*
X8197207D1*
X8418187D2*
X8532487D1*
X8677267D2*
X8982067D1*
X9064613D2*
X9350300D1*
X9454507D2*
X9561187D1*
X9683107D2*
X9797407D1*
X5865487Y2360050D2*
X6041029D1*
X6321413D2*
X6429367D1*
X6543667D2*
X6679156D1*
X6936753D2*
X7017098D1*
X7311684D2*
X7377315D1*
X7634518D2*
X7717147D1*
X7823827D2*
X7900027D1*
X8014327D2*
X8197207D1*
X8418187D2*
X8532487D1*
X8677267D2*
X8982067D1*
X9069223D2*
X9345268D1*
X9454507D2*
X9561187D1*
X9683107D2*
X9797407D1*
X5865487Y2352430D2*
X6045953D1*
X6315420D2*
X6429367D1*
X6543667D2*
X6684644D1*
X6932248D2*
X7023030D1*
X7318867D2*
X7382150D1*
X7629961D2*
X7717147D1*
X7823827D2*
X7900027D1*
X8014327D2*
X8197207D1*
X8418187D2*
X8532487D1*
X8677267D2*
X8982067D1*
X9075048D2*
X9339841D1*
X9454507D2*
X9561187D1*
X9683107D2*
X9797407D1*
X5865487Y2344810D2*
X6051490D1*
X6309287D2*
X6429367D1*
X6543667D2*
X6690298D1*
X6926098D2*
X7031251D1*
X7323966D2*
X7387073D1*
X7624125D2*
X7717147D1*
X7823827D2*
X7900027D1*
X8014327D2*
X8197207D1*
X8418187D2*
X8532487D1*
X8677267D2*
X8982067D1*
X9081774D2*
X9333871D1*
X9454507D2*
X9561187D1*
X9683107D2*
X9797407D1*
X5865487Y2337190D2*
X6058652D1*
X6302628D2*
X6429367D1*
X6543667D2*
X6696139D1*
X6919010D2*
X7042096D1*
X7327620D2*
X7392611D1*
X7617139D2*
X7717147D1*
X7823827D2*
X7900027D1*
X8014327D2*
X8197207D1*
X8418187D2*
X8532487D1*
X8677267D2*
X8982067D1*
X9089029D2*
X9326934D1*
X9454507D2*
X9561187D1*
X9683107D2*
X9797407D1*
X5865487Y2329570D2*
X6067866D1*
X6295000D2*
X6429367D1*
X6543667D2*
X6702625D1*
X6911548D2*
X7054207D1*
X7330727D2*
X7399742D1*
X7608944D2*
X7717147D1*
X7823827D2*
X7900027D1*
X8014327D2*
X8197207D1*
X8418187D2*
X8532487D1*
X8677267D2*
X8982067D1*
X9096817D2*
X9319236D1*
X9454507D2*
X9561187D1*
X9683107D2*
X9797407D1*
X5865487Y2321950D2*
X6079215D1*
X6285520D2*
X6429367D1*
X6543667D2*
X6711212D1*
X6902626D2*
X7042809D1*
X7333231D2*
X7408837D1*
X7599510D2*
X7717147D1*
X7823827D2*
X7900027D1*
X8014327D2*
X8197207D1*
X8418187D2*
X8532487D1*
X8677267D2*
X8982067D1*
X9105913D2*
X9310632D1*
X9454507D2*
X9561187D1*
X9683107D2*
X9797407D1*
X5865487Y2314330D2*
X6093417D1*
X6272645D2*
X6429367D1*
X6543667D2*
X6723312D1*
X6890940D2*
X7032291D1*
X7115167D2*
X7122787D1*
X7334778D2*
X7420494D1*
X7588546D2*
X7717147D1*
X7823827D2*
X7900027D1*
X8014327D2*
X8197207D1*
X8418187D2*
X8532487D1*
X8677267D2*
X8982067D1*
X9117582D2*
X9299683D1*
X9454507D2*
X9561187D1*
X9683107D2*
X9797407D1*
X5865487Y2306710D2*
X6112703D1*
X6254462D2*
X6429367D1*
X6543667D2*
X6740089D1*
X6874760D2*
X7022709D1*
X7105237D2*
X7214227D1*
X7335566D2*
X7437084D1*
X7573725D2*
X7717147D1*
X7823827D2*
X7900027D1*
X8014327D2*
X8197207D1*
X8418187D2*
X8532487D1*
X8677267D2*
X8982067D1*
X9132123D2*
X9286202D1*
X9454507D2*
X9561187D1*
X9683107D2*
X9797407D1*
X5865487Y2299090D2*
X6139158D1*
X6229610D2*
X6429367D1*
X6543667D2*
X6762236D1*
X6852230D2*
X7014498D1*
X7097615D2*
X7222954D1*
X7335918D2*
X7460688D1*
X7552341D2*
X7717147D1*
X7823827D2*
X7900027D1*
X8014327D2*
X8197207D1*
X8418187D2*
X8532487D1*
X8677267D2*
X8982067D1*
X9148326D2*
X9271484D1*
X9454507D2*
X9561187D1*
X9683107D2*
X9797407D1*
X5865487Y2291470D2*
X6170287D1*
X6200767D2*
X6787507D1*
X6825607D2*
X7007602D1*
X7092129D2*
X7230652D1*
X7336062D2*
X7488547D1*
X7526647D2*
X8197207D1*
X9164947D2*
X9256387D1*
X5865487Y2283850D2*
X7001797D1*
X7088446D2*
X7233918D1*
X7336087D2*
X8197207D1*
X5865487Y2276230D2*
X6997627D1*
X7086413D2*
X7235720D1*
X7335839D2*
X8197207D1*
X5865487Y2268610D2*
X6995235D1*
X7085715D2*
X7236486D1*
X7334874D2*
X8197207D1*
X5865487Y2260990D2*
X6994071D1*
X7085893D2*
X7236201D1*
X7333022D2*
X8197207D1*
X5865487Y2253370D2*
X6993595D1*
X7089072D2*
X7234847D1*
X7330771D2*
X8197207D1*
X5865487Y2245750D2*
X6993661D1*
X7098603D2*
X7226578D1*
X7328204D2*
X8197207D1*
X5865487Y2238130D2*
X6994586D1*
X7112967D2*
X7213992D1*
X7324671D2*
X8197207D1*
X5865487Y2230510D2*
X6996652D1*
X7130407D2*
X7198987D1*
X7320272D2*
X8197207D1*
X5865487Y2222890D2*
X6999627D1*
X7315557D2*
X8197207D1*
X5865487Y2215270D2*
X7003343D1*
X7310108D2*
X8197207D1*
X5865487Y2207650D2*
X7008243D1*
X7303011D2*
X8197207D1*
X5865487Y2200030D2*
X7014903D1*
X7294019D2*
X8197207D1*
X5865487Y2192410D2*
X7023756D1*
X7283020D2*
X8197207D1*
X5865487Y2184790D2*
X7036798D1*
X7267822D2*
X8197207D1*
X5865487Y2177170D2*
X7058652D1*
X7243199D2*
X8197207D1*
X5865487Y2169550D2*
X7091486D1*
X7205837D2*
X8197207D1*
X5865487Y2161930D2*
X7130407D1*
X7145647D2*
D3*
X7160887D2*
X8197207D1*
X5865487Y2154310D2*
X8197207D1*
X5865487Y2146690D2*
X8197207D1*
X5865487Y2139070D2*
X8197207D1*
X5865487Y2131450D2*
X8197207D1*
X5865487Y2123830D2*
X8197207D1*
X5865487Y2977270D2*
Y2969650D1*
Y2962030D1*
Y2954410D1*
Y2946790D1*
Y2939170D1*
Y2931550D1*
Y2923930D1*
Y2916310D1*
Y2908690D1*
Y2901070D1*
Y2893450D1*
Y2885830D1*
Y2878210D1*
Y2870590D1*
Y2862970D1*
Y2855350D1*
Y2847730D1*
Y2840110D1*
Y2832490D1*
Y2824870D1*
Y2817250D1*
Y2809630D1*
Y2802010D1*
Y2794390D1*
Y2786770D1*
Y2779150D1*
Y2771530D1*
Y2763910D1*
Y2756290D1*
Y2748670D1*
Y2741050D1*
Y2733430D1*
Y2725810D1*
Y2718190D1*
Y2710570D1*
Y2702950D1*
Y2695330D1*
Y2687710D1*
Y2680090D1*
Y2672470D1*
Y2664850D1*
Y2657230D1*
Y2649610D1*
Y2641990D1*
Y2634370D1*
Y2626750D1*
Y2619130D1*
Y2611510D1*
Y2603890D1*
Y2596270D1*
Y2588650D1*
Y2581030D1*
Y2573410D1*
Y2565790D1*
Y2558170D1*
Y2550550D1*
Y2542930D1*
Y2535310D1*
Y2527690D1*
Y2520070D1*
Y2512450D1*
Y2504830D1*
Y2497210D1*
Y2489590D1*
Y2481970D1*
Y2474350D1*
Y2466730D1*
Y2459110D1*
Y2451490D1*
Y2443870D1*
Y2436250D1*
Y2428630D1*
Y2421010D1*
Y2413390D1*
Y2405770D1*
Y2398150D1*
Y2390530D1*
Y2382910D1*
Y2375290D1*
Y2367670D1*
Y2360050D1*
Y2352430D1*
Y2344810D1*
Y2337190D1*
Y2329570D1*
Y2321950D1*
Y2314330D1*
Y2306710D1*
Y2299090D1*
Y2291470D1*
Y2283850D1*
Y2276230D1*
Y2268610D1*
Y2260990D1*
Y2253370D1*
Y2245750D1*
Y2238130D1*
Y2230510D1*
Y2222890D1*
Y2215270D1*
Y2207650D1*
Y2200030D1*
Y2192410D1*
Y2184790D1*
Y2177170D1*
Y2169550D1*
Y2161930D1*
Y2154310D1*
Y2146690D1*
Y2139070D1*
Y2131450D1*
Y2123830D1*
X8197207Y2977270D2*
Y2969650D1*
Y2962030D1*
Y2954410D1*
Y2946790D1*
Y2939170D1*
Y2931550D1*
Y2923930D1*
Y2916310D1*
Y2908690D1*
Y2901070D1*
Y2893450D1*
Y2885830D1*
Y2878210D1*
Y2870590D1*
Y2862970D1*
Y2855350D1*
Y2847730D1*
Y2840110D1*
Y2832490D1*
Y2824870D1*
Y2817250D1*
Y2809630D1*
Y2802010D1*
Y2794390D1*
Y2786770D1*
Y2779150D1*
Y2771530D1*
Y2763910D1*
Y2756290D1*
Y2748670D1*
Y2741050D1*
Y2733430D1*
Y2725810D1*
Y2718190D1*
Y2710570D1*
Y2702950D1*
Y2695330D1*
Y2687710D1*
Y2680090D1*
Y2672470D1*
Y2664850D1*
Y2657230D1*
Y2649610D1*
Y2641990D1*
Y2634370D1*
Y2626750D1*
Y2619130D1*
Y2611510D1*
Y2603890D1*
Y2596270D1*
Y2588650D1*
Y2581030D1*
Y2573410D1*
Y2565790D1*
Y2558170D1*
Y2550550D1*
Y2542930D1*
Y2535310D1*
Y2527690D1*
Y2520070D1*
Y2512450D1*
Y2504830D1*
Y2497210D1*
Y2489590D1*
Y2481970D1*
Y2474350D1*
Y2466730D1*
Y2459110D1*
Y2451490D1*
Y2443870D1*
Y2436250D1*
Y2428630D1*
Y2421010D1*
Y2413390D1*
Y2405770D1*
Y2398150D1*
Y2390530D1*
Y2382910D1*
Y2375290D1*
Y2367670D1*
Y2360050D1*
Y2352430D1*
Y2344810D1*
Y2337190D1*
Y2329570D1*
Y2321950D1*
Y2314330D1*
Y2306710D1*
Y2299090D1*
Y2291470D1*
Y2283850D1*
Y2276230D1*
Y2268610D1*
Y2260990D1*
Y2253370D1*
Y2245750D1*
Y2238130D1*
Y2230510D1*
Y2222890D1*
Y2215270D1*
Y2207650D1*
Y2200030D1*
Y2192410D1*
Y2184790D1*
Y2177170D1*
Y2169550D1*
Y2161930D1*
Y2154310D1*
Y2146690D1*
Y2139070D1*
Y2131450D1*
Y2123830D1*
X6193147Y2840110D2*
X6158652Y2832490D1*
X6129160Y2824870D1*
X6106415Y2817250D1*
X6089351Y2809630D1*
X6076220Y2802010D1*
X6065800Y2794390D1*
X6057154Y2786770D1*
X6049965Y2779150D1*
X6043989Y2771530D1*
X6038543Y2763910D1*
X6033464Y2756290D1*
X6029367Y2748670D1*
X6026143Y2741050D1*
X6023177Y2733430D1*
X6020470Y2725810D1*
X6017945Y2718190D1*
X6015072Y2710570D1*
X6011798Y2702950D1*
X6008501Y2695330D1*
X6005786Y2687710D1*
X6004114Y2680090D1*
X6003237Y2672470D1*
X6002592Y2664850D1*
X6001468Y2657230D1*
X5999585Y2649610D1*
X5997610Y2641990D1*
X5996274Y2634370D1*
X5995565Y2626750D1*
X5995241Y2619130D1*
X5995107Y2611510D1*
X5995055Y2603890D1*
X5995037Y2596270D1*
X5995030Y2588650D1*
X5995028Y2581030D1*
X5995027Y2573410D1*
Y2565790D1*
Y2558170D1*
Y2550550D1*
Y2542930D1*
Y2535310D1*
Y2527690D1*
Y2520070D1*
X5995056Y2512450D1*
X5995324Y2504830D1*
X5996295Y2497210D1*
X5998120Y2489590D1*
X6000074Y2481970D1*
X6001403Y2474350D1*
X6002140Y2466730D1*
X6002731Y2459110D1*
X6003865Y2451490D1*
X6006010Y2443870D1*
X6008953Y2436250D1*
X6012143Y2428630D1*
X6015074Y2421010D1*
X6017698Y2413390D1*
X6020393Y2405770D1*
X6022989Y2398150D1*
X6025472Y2390530D1*
X6028359Y2382910D1*
X6031896Y2375290D1*
X6036192Y2367670D1*
X6041029Y2360050D1*
X6045953Y2352430D1*
X6051490Y2344810D1*
X6058652Y2337190D1*
X6067866Y2329570D1*
X6079215Y2321950D1*
X6093417Y2314330D1*
X6112703Y2306710D1*
X6139158Y2299090D1*
X6170287Y2291470D1*
Y2840110D2*
X6204781Y2832490D1*
X6234273Y2824870D1*
X6256988Y2817250D1*
X6273785Y2809630D1*
X6285975Y2802010D1*
X6294837Y2794390D1*
X6302500Y2786770D1*
X6310156Y2779150D1*
X6317111Y2771530D1*
X6322622Y2763910D1*
X6326687Y2756290D1*
X6329835Y2748670D1*
X6332996Y2741050D1*
X6336638Y2733430D1*
X6340942Y2725810D1*
X6345495Y2718190D1*
X6349154Y2710570D1*
X6351600Y2702950D1*
X6353655Y2695330D1*
X6355956Y2687710D1*
X6358102Y2680090D1*
X6359504Y2672470D1*
X6360236Y2664850D1*
X6360569Y2657230D1*
X6360735Y2649610D1*
X6361055Y2641990D1*
X6362045Y2634370D1*
X6363877Y2626750D1*
X6365833Y2619130D1*
X6367163Y2611510D1*
X6367870Y2603890D1*
X6368193Y2596270D1*
X6368327Y2588650D1*
X6368378Y2581030D1*
X6368397Y2573410D1*
X6368403Y2565790D1*
X6368406Y2558170D1*
Y2550550D1*
X6368407Y2542930D1*
Y2535310D1*
X6368377Y2527690D1*
X6368109Y2520070D1*
X6367138Y2512450D1*
X6365313Y2504830D1*
X6363359Y2497210D1*
X6362030Y2489590D1*
X6361324Y2481970D1*
X6361000Y2474350D1*
X6360837Y2466730D1*
X6360518Y2459110D1*
X6359528Y2451490D1*
X6357696Y2443870D1*
X6355710Y2436250D1*
X6354083Y2428630D1*
X6352137Y2421010D1*
X6349018Y2413390D1*
X6345076Y2405770D1*
X6341474Y2398150D1*
X6338418Y2390530D1*
X6335259Y2382910D1*
X6331578Y2375290D1*
X6326999Y2367670D1*
X6321413Y2360050D1*
X6315420Y2352430D1*
X6309287Y2344810D1*
X6302628Y2337190D1*
X6295000Y2329570D1*
X6285520Y2321950D1*
X6272645Y2314330D1*
X6254462Y2306710D1*
X6229610Y2299090D1*
X6200767Y2291470D1*
X9164947Y2832490D2*
X9145336Y2824870D1*
X9128553Y2817250D1*
X9114752Y2809630D1*
X9103957Y2802010D1*
X9094954Y2794390D1*
X9086582Y2786770D1*
X9079270Y2779150D1*
X9073385Y2771530D1*
X9068534Y2763910D1*
X9064275Y2756290D1*
X9060276Y2748670D1*
X9056403Y2741050D1*
X9052591Y2733430D1*
X9049017Y2725810D1*
X9045931Y2718190D1*
X9043248Y2710570D1*
X9040561Y2702950D1*
X9038195Y2695330D1*
X9036444Y2687710D1*
X9034707Y2680090D1*
X9032538Y2672470D1*
X9030443Y2664850D1*
X9029060Y2657230D1*
X9028334Y2649610D1*
X9027974Y2641990D1*
X9027570Y2634370D1*
X9026547Y2626750D1*
X9024703Y2619130D1*
X9022743Y2611510D1*
X9021411Y2603890D1*
X9020704Y2596270D1*
X9020380Y2588650D1*
X9020247Y2581030D1*
X9020195Y2573410D1*
X9020177Y2565790D1*
X9020170Y2558170D1*
X9020168Y2550550D1*
X9020197Y2542930D1*
X9020464Y2535310D1*
X9021435Y2527690D1*
X9023260Y2520070D1*
X9025214Y2512450D1*
X9026543Y2504830D1*
X9027250Y2497210D1*
X9027573Y2489590D1*
X9027736Y2481970D1*
X9028056Y2474350D1*
X9029046Y2466730D1*
X9030877Y2459110D1*
X9032863Y2451490D1*
X9034460Y2443870D1*
X9036138Y2436250D1*
X9038316Y2428630D1*
X9040702Y2421010D1*
X9043321Y2413390D1*
X9046842Y2405770D1*
X9050981Y2398150D1*
X9054667Y2390530D1*
X9057756Y2382910D1*
X9060927Y2375290D1*
X9064613Y2367670D1*
X9069223Y2360050D1*
X9075048Y2352430D1*
X9081774Y2344810D1*
X9089029Y2337190D1*
X9096817Y2329570D1*
X9105913Y2321950D1*
X9117582Y2314330D1*
X9132123Y2306710D1*
X9148326Y2299090D1*
X9164947Y2291470D1*
X9264007Y2832490D2*
X9279839Y2824870D1*
X9293725Y2817250D1*
X9305533Y2809630D1*
X9315470Y2802010D1*
X9324166Y2794390D1*
X9331993Y2786770D1*
X9338800Y2779150D1*
X9344397Y2771530D1*
X9349088Y2763910D1*
X9353295Y2756290D1*
X9357256Y2748670D1*
X9361102Y2741050D1*
X9364660Y2733430D1*
X9367512Y2725810D1*
X9369494Y2718190D1*
X9371327Y2710570D1*
X9373534Y2702950D1*
X9375643Y2695330D1*
X9377031Y2687710D1*
X9377759Y2680090D1*
X9378119Y2672470D1*
X9378523Y2664850D1*
X9379552Y2657230D1*
X9381460Y2649610D1*
X9383735Y2641990D1*
X9385927Y2634370D1*
X9332587Y2626750D1*
X8319127Y2824870D2*
Y2817250D1*
Y2809630D1*
Y2802010D1*
Y2794390D1*
Y2786770D1*
Y2779150D1*
Y2771530D1*
Y2763910D1*
Y2756290D1*
Y2748670D1*
Y2741050D1*
Y2733430D1*
X8631547Y2824870D2*
Y2817250D1*
Y2809630D1*
Y2802010D1*
Y2794390D1*
Y2786770D1*
Y2779150D1*
Y2771530D1*
Y2763910D1*
Y2756290D1*
Y2748670D1*
Y2741050D1*
Y2733430D1*
X8677267Y2824870D2*
Y2817250D1*
Y2809630D1*
Y2802010D1*
Y2794390D1*
Y2786770D1*
Y2779150D1*
Y2771530D1*
Y2763910D1*
Y2756290D1*
Y2748670D1*
Y2741050D1*
Y2733430D1*
Y2725810D1*
Y2718190D1*
Y2710570D1*
Y2702950D1*
Y2695330D1*
Y2687710D1*
Y2680090D1*
Y2672470D1*
Y2664850D1*
Y2657230D1*
Y2649610D1*
Y2641990D1*
Y2634370D1*
Y2626750D1*
Y2619130D1*
Y2611510D1*
Y2603890D1*
Y2596270D1*
Y2588650D1*
Y2581030D1*
Y2573410D1*
Y2565790D1*
Y2558170D1*
Y2550550D1*
Y2542930D1*
Y2535310D1*
Y2527690D1*
Y2520070D1*
Y2512450D1*
Y2504830D1*
Y2497210D1*
Y2489590D1*
Y2481970D1*
Y2474350D1*
Y2466730D1*
Y2459110D1*
Y2451490D1*
Y2443870D1*
Y2436250D1*
Y2428630D1*
Y2421010D1*
Y2413390D1*
Y2405770D1*
Y2398150D1*
Y2390530D1*
Y2382910D1*
Y2375290D1*
Y2367670D1*
Y2360050D1*
Y2352430D1*
Y2344810D1*
Y2337190D1*
Y2329570D1*
Y2321950D1*
Y2314330D1*
Y2306710D1*
Y2299090D1*
X8982067Y2824870D2*
Y2817250D1*
Y2809630D1*
Y2802010D1*
Y2794390D1*
Y2786770D1*
Y2779150D1*
Y2771530D1*
Y2763910D1*
Y2756290D1*
Y2748670D1*
Y2741050D1*
X9454507Y2824870D2*
Y2817250D1*
Y2809630D1*
Y2802010D1*
Y2794390D1*
Y2786770D1*
Y2779150D1*
Y2771530D1*
Y2763910D1*
Y2756290D1*
Y2748670D1*
Y2741050D1*
Y2733430D1*
Y2725810D1*
Y2718190D1*
Y2710570D1*
Y2702950D1*
Y2695330D1*
Y2687710D1*
Y2680090D1*
Y2672470D1*
Y2664850D1*
Y2657230D1*
Y2649610D1*
Y2641990D1*
Y2634370D1*
Y2626750D1*
Y2619130D1*
Y2611510D1*
Y2603890D1*
Y2596270D1*
Y2588650D1*
Y2581030D1*
Y2573410D1*
Y2565790D1*
Y2558170D1*
Y2550550D1*
Y2542930D1*
Y2535310D1*
Y2527690D1*
Y2520070D1*
Y2512450D1*
Y2504830D1*
Y2497210D1*
Y2489590D1*
Y2481970D1*
Y2474350D1*
Y2466730D1*
Y2459110D1*
Y2451490D1*
Y2443870D1*
Y2436250D1*
Y2428630D1*
Y2421010D1*
Y2413390D1*
Y2405770D1*
Y2398150D1*
Y2390530D1*
Y2382910D1*
Y2375290D1*
Y2367670D1*
Y2360050D1*
Y2352430D1*
Y2344810D1*
Y2337190D1*
Y2329570D1*
Y2321950D1*
Y2314330D1*
Y2306710D1*
Y2299090D1*
X9561187Y2824870D2*
Y2817250D1*
Y2809630D1*
Y2802010D1*
Y2794390D1*
Y2786770D1*
Y2779150D1*
Y2771530D1*
Y2763910D1*
Y2756290D1*
Y2748670D1*
Y2741050D1*
Y2733430D1*
Y2725810D1*
Y2718190D1*
Y2710570D1*
Y2702950D1*
Y2695330D1*
Y2687710D1*
Y2680090D1*
Y2672470D1*
Y2664850D1*
Y2657230D1*
Y2649610D1*
Y2641990D1*
Y2634370D1*
Y2626750D1*
Y2619130D1*
Y2611510D1*
X9683107Y2824870D2*
Y2817250D1*
Y2809630D1*
Y2802010D1*
Y2794390D1*
Y2786770D1*
Y2779150D1*
Y2771530D1*
Y2763910D1*
Y2756290D1*
Y2748670D1*
Y2741050D1*
Y2733430D1*
Y2725810D1*
Y2718190D1*
Y2710570D1*
Y2702950D1*
Y2695330D1*
Y2687710D1*
Y2680090D1*
Y2672470D1*
Y2664850D1*
Y2657230D1*
Y2649610D1*
Y2641990D1*
Y2634370D1*
Y2626750D1*
Y2619130D1*
Y2611510D1*
X9797407Y2824870D2*
Y2817250D1*
Y2809630D1*
Y2802010D1*
Y2794390D1*
Y2786770D1*
Y2779150D1*
Y2771530D1*
Y2763910D1*
Y2756290D1*
Y2748670D1*
Y2741050D1*
Y2733430D1*
Y2725810D1*
Y2718190D1*
Y2710570D1*
Y2702950D1*
Y2695330D1*
Y2687710D1*
Y2680090D1*
Y2672470D1*
Y2664850D1*
Y2657230D1*
Y2649610D1*
Y2641990D1*
Y2634370D1*
Y2626750D1*
Y2619130D1*
Y2611510D1*
Y2603890D1*
Y2596270D1*
Y2588650D1*
Y2581030D1*
Y2573410D1*
Y2565790D1*
Y2558170D1*
Y2550550D1*
Y2542930D1*
Y2535310D1*
Y2527690D1*
Y2520070D1*
Y2512450D1*
Y2504830D1*
Y2497210D1*
Y2489590D1*
Y2481970D1*
Y2474350D1*
Y2466730D1*
Y2459110D1*
Y2451490D1*
Y2443870D1*
Y2436250D1*
Y2428630D1*
Y2421010D1*
Y2413390D1*
Y2405770D1*
Y2398150D1*
Y2390530D1*
Y2382910D1*
Y2375290D1*
Y2367670D1*
Y2360050D1*
Y2352430D1*
Y2344810D1*
Y2337190D1*
Y2329570D1*
Y2321950D1*
Y2314330D1*
Y2306710D1*
Y2299090D1*
X7313287Y2763910D2*
X7293422Y2756290D1*
X7276919Y2748670D1*
X7264492Y2741050D1*
X7255636Y2733430D1*
X7249772Y2725810D1*
X7245802Y2718190D1*
X7242572Y2710570D1*
X7240004Y2702950D1*
X7238320Y2695330D1*
X7237087Y2687710D1*
X7305667Y2763910D2*
X7317912Y2756290D1*
X7328214Y2748670D1*
X7332276Y2741050D1*
X7334490Y2733430D1*
X7335496Y2725810D1*
X7335906Y2718190D1*
X7336062Y2710570D1*
X7336118Y2702950D1*
X7336137Y2695330D1*
X7336147Y2687710D1*
X6170287Y2741050D2*
X6159439Y2733430D1*
X6150608Y2725810D1*
X6143736Y2718190D1*
X6137877Y2710570D1*
X6132656Y2702950D1*
X6128761Y2695330D1*
X6126455Y2687710D1*
X6125068Y2680090D1*
X6123608Y2672470D1*
X6121587Y2664850D1*
X6119559Y2657230D1*
X6118204Y2649610D1*
X6117488Y2641990D1*
X6117162Y2634370D1*
X6117027Y2626750D1*
X6116975Y2619130D1*
X6116957Y2611510D1*
X6116950Y2603890D1*
X6116948Y2596270D1*
X6116947Y2588650D1*
Y2581030D1*
Y2573410D1*
Y2565790D1*
Y2558170D1*
Y2550550D1*
Y2542930D1*
Y2535310D1*
Y2527690D1*
Y2520070D1*
Y2512450D1*
Y2504830D1*
X6116976Y2497210D1*
X6117244Y2489590D1*
X6118215Y2481970D1*
X6120040Y2474350D1*
X6121994Y2466730D1*
X6123323Y2459110D1*
X6124060Y2451490D1*
X6124680Y2443870D1*
X6126053Y2436250D1*
X6128930Y2428630D1*
X6133025Y2421010D1*
X6137643Y2413390D1*
X6143355Y2405770D1*
X6151782Y2398150D1*
X6163784Y2390530D1*
X6177907Y2382910D1*
X6185527Y2741050D2*
X6200152Y2733430D1*
X6211851Y2725810D1*
X6220447Y2718190D1*
X6226223Y2710570D1*
X6230165Y2702950D1*
X6233384Y2695330D1*
X6235929Y2687710D1*
X6237491Y2680090D1*
X6238283Y2672470D1*
X6238637Y2664850D1*
X6238811Y2657230D1*
X6239134Y2649610D1*
X6240125Y2641990D1*
X6241957Y2634370D1*
X6243913Y2626750D1*
X6245243Y2619130D1*
X6245950Y2611510D1*
X6246273Y2603890D1*
X6246407Y2596270D1*
X6246458Y2588650D1*
X6246477Y2581030D1*
X6246483Y2573410D1*
X6246486Y2565790D1*
Y2558170D1*
X6246487Y2550550D1*
Y2542930D1*
Y2535310D1*
Y2527690D1*
X6246457Y2520070D1*
X6246189Y2512450D1*
X6245218Y2504830D1*
X6243393Y2497210D1*
X6241439Y2489590D1*
X6240110Y2481970D1*
X6239404Y2474350D1*
X6239080Y2466730D1*
X6238917Y2459110D1*
X6238598Y2451490D1*
X6237578Y2443870D1*
X6235479Y2436250D1*
X6232522Y2428630D1*
X6229040Y2421010D1*
X6224813Y2413390D1*
X6218800Y2405770D1*
X6209852Y2398150D1*
X6198272Y2390530D1*
X6185527Y2382910D1*
X8783947Y2741050D2*
Y2733430D1*
Y2725810D1*
Y2718190D1*
Y2710570D1*
Y2702950D1*
Y2695330D1*
Y2687710D1*
Y2680090D1*
Y2672470D1*
Y2664850D1*
Y2657230D1*
Y2649610D1*
Y2641990D1*
Y2634370D1*
Y2626750D1*
Y2619130D1*
Y2611510D1*
X9203047Y2741050D2*
X9189594Y2733430D1*
X9178524Y2725810D1*
X9170447Y2718190D1*
X9164544Y2710570D1*
X9159841Y2702950D1*
X9155937Y2695330D1*
X9152953Y2687710D1*
X9150924Y2680090D1*
X9149074Y2672470D1*
X9146832Y2664850D1*
X9144453Y2657230D1*
X9142094Y2649610D1*
X9139541Y2641990D1*
X9137257Y2634370D1*
X9135791Y2626750D1*
X9135033Y2619130D1*
X9134690Y2611510D1*
X9134550Y2603890D1*
X9134496Y2596270D1*
X9134477Y2588650D1*
X9134470Y2581030D1*
X9134468Y2573410D1*
X9134467Y2565790D1*
Y2558170D1*
Y2550550D1*
Y2542930D1*
Y2535310D1*
Y2527690D1*
Y2520070D1*
Y2512450D1*
X9134496Y2504830D1*
X9134764Y2497210D1*
X9135735Y2489590D1*
X9137590Y2481970D1*
X9139812Y2474350D1*
X9142112Y2466730D1*
X9144644Y2459110D1*
X9146950Y2451490D1*
X9148681Y2443870D1*
X9150440Y2436250D1*
X9152934Y2428630D1*
X9156565Y2421010D1*
X9162017Y2413390D1*
X9169674Y2405770D1*
X9178603Y2398150D1*
X9187807Y2390530D1*
X9225907Y2741050D2*
X9238471Y2733430D1*
X9248629Y2725810D1*
X9256560Y2718190D1*
X9263082Y2710570D1*
X9268407Y2702950D1*
X9272694Y2695330D1*
X9275837Y2687710D1*
X9277680Y2680090D1*
X9278621Y2672470D1*
X9279289Y2664850D1*
X9280421Y2657230D1*
X9282309Y2649610D1*
X9284303Y2641990D1*
X9285756Y2634370D1*
X9286867Y2626750D1*
X8418187Y2733430D2*
Y2725810D1*
Y2718190D1*
Y2710570D1*
Y2702950D1*
Y2695330D1*
Y2687710D1*
Y2680090D1*
Y2672470D1*
Y2664850D1*
Y2657230D1*
Y2649610D1*
Y2641990D1*
Y2634370D1*
Y2626750D1*
Y2619130D1*
Y2611510D1*
Y2603890D1*
Y2596270D1*
Y2588650D1*
Y2581030D1*
Y2573410D1*
Y2565790D1*
Y2558170D1*
Y2550550D1*
Y2542930D1*
Y2535310D1*
Y2527690D1*
Y2520070D1*
Y2512450D1*
Y2504830D1*
Y2497210D1*
Y2489590D1*
Y2481970D1*
Y2474350D1*
Y2466730D1*
Y2459110D1*
Y2451490D1*
Y2443870D1*
Y2436250D1*
Y2428630D1*
Y2421010D1*
Y2413390D1*
Y2405770D1*
Y2398150D1*
Y2390530D1*
Y2382910D1*
Y2375290D1*
Y2367670D1*
Y2360050D1*
Y2352430D1*
Y2344810D1*
Y2337190D1*
Y2329570D1*
Y2321950D1*
Y2314330D1*
Y2306710D1*
Y2299090D1*
X8532487Y2733430D2*
Y2725810D1*
Y2718190D1*
Y2710570D1*
Y2702950D1*
Y2695330D1*
Y2687710D1*
Y2680090D1*
Y2672470D1*
Y2664850D1*
Y2657230D1*
Y2649610D1*
Y2641990D1*
Y2634370D1*
Y2626750D1*
Y2619130D1*
Y2611510D1*
Y2603890D1*
Y2596270D1*
Y2588650D1*
Y2581030D1*
Y2573410D1*
Y2565790D1*
Y2558170D1*
Y2550550D1*
Y2542930D1*
Y2535310D1*
Y2527690D1*
Y2520070D1*
Y2512450D1*
Y2504830D1*
Y2497210D1*
Y2489590D1*
Y2481970D1*
Y2474350D1*
Y2466730D1*
Y2459110D1*
Y2451490D1*
Y2443870D1*
Y2436250D1*
Y2428630D1*
Y2421010D1*
Y2413390D1*
Y2405770D1*
Y2398150D1*
Y2390530D1*
Y2382910D1*
Y2375290D1*
Y2367670D1*
Y2360050D1*
Y2352430D1*
Y2344810D1*
Y2337190D1*
Y2329570D1*
Y2321950D1*
Y2314330D1*
Y2306710D1*
Y2299090D1*
X7541887Y2702950D2*
X7501270Y2695330D1*
X7467321Y2687710D1*
X7442024Y2680090D1*
X7423752Y2672470D1*
X7410324Y2664850D1*
X7400394Y2657230D1*
X7392552Y2649610D1*
X7385731Y2641990D1*
X7380092Y2634370D1*
X7375845Y2626750D1*
X7372335Y2619130D1*
X7369377Y2611510D1*
X7366778Y2603890D1*
X7364132Y2596270D1*
X7361784Y2588650D1*
X7360040Y2581030D1*
X7358306Y2573410D1*
X7356137Y2565790D1*
X7354043Y2558170D1*
X7352660Y2550550D1*
X7351934Y2542930D1*
X7351604Y2535310D1*
X7351468Y2527690D1*
X7351416Y2520070D1*
X7351397Y2512450D1*
X7351390Y2504830D1*
X7351388Y2497210D1*
X7351387Y2489590D1*
Y2481970D1*
Y2474350D1*
Y2466730D1*
X7351416Y2459110D1*
X7351684Y2451490D1*
X7352655Y2443870D1*
X7354480Y2436250D1*
X7356434Y2428630D1*
X7357793Y2421010D1*
X7358767Y2413390D1*
X7360062Y2405770D1*
X7362050Y2398150D1*
X7364323Y2390530D1*
X7366672Y2382910D1*
X7369508Y2375290D1*
X7373026Y2367670D1*
X7377315Y2360050D1*
X7382150Y2352430D1*
X7387073Y2344810D1*
X7392611Y2337190D1*
X7399742Y2329570D1*
X7408837Y2321950D1*
X7420494Y2314330D1*
X7437084Y2306710D1*
X7460688Y2299090D1*
X7488547Y2291470D1*
X7458067Y2702950D2*
X7503629Y2695330D1*
X7540144Y2687710D1*
X7566020Y2680090D1*
X7584225Y2672470D1*
X7597719Y2664850D1*
X7608241Y2657230D1*
X7616883Y2649610D1*
X7623810Y2641990D1*
X7628815Y2634370D1*
X7632467Y2626750D1*
X7635830Y2619130D1*
X7639301Y2611510D1*
X7642672Y2603890D1*
X7645414Y2596270D1*
X7647124Y2588650D1*
X7648242Y2581030D1*
X7649592Y2573410D1*
X7651570Y2565790D1*
X7653612Y2558170D1*
X7655230Y2550550D1*
X7656915Y2542930D1*
X7659066Y2535310D1*
X7661154Y2527690D1*
X7662534Y2520070D1*
X7663260Y2512450D1*
X7663590Y2504830D1*
X7663726Y2497210D1*
X7663778Y2489590D1*
X7663767Y2481970D1*
X7663506Y2474350D1*
X7662537Y2466730D1*
X7660713Y2459110D1*
X7658729Y2451490D1*
X7657133Y2443870D1*
X7655455Y2436250D1*
X7653307Y2428630D1*
X7651219Y2421010D1*
X7649809Y2413390D1*
X7648816Y2405770D1*
X7647515Y2398150D1*
X7645524Y2390530D1*
X7643250Y2382910D1*
X7640902Y2375290D1*
X7638066Y2367670D1*
X7634518Y2360050D1*
X7629961Y2352430D1*
X7624125Y2344810D1*
X7617139Y2337190D1*
X7608944Y2329570D1*
X7599510Y2321950D1*
X7588546Y2314330D1*
X7573725Y2306710D1*
X7552341Y2299090D1*
X7526647Y2291470D1*
X6429367Y2695330D2*
Y2687710D1*
Y2680090D1*
Y2672470D1*
Y2664850D1*
Y2657230D1*
Y2649610D1*
Y2641990D1*
Y2634370D1*
Y2626750D1*
Y2619130D1*
Y2611510D1*
Y2603890D1*
Y2596270D1*
Y2588650D1*
Y2581030D1*
Y2573410D1*
Y2565790D1*
Y2558170D1*
Y2550550D1*
Y2542930D1*
Y2535310D1*
Y2527690D1*
Y2520070D1*
Y2512450D1*
Y2504830D1*
Y2497210D1*
Y2489590D1*
Y2481970D1*
Y2474350D1*
Y2466730D1*
Y2459110D1*
Y2451490D1*
Y2443870D1*
Y2436250D1*
Y2428630D1*
Y2421010D1*
Y2413390D1*
Y2405770D1*
Y2398150D1*
Y2390530D1*
Y2382910D1*
Y2375290D1*
Y2367670D1*
Y2360050D1*
Y2352430D1*
Y2344810D1*
Y2337190D1*
Y2329570D1*
Y2321950D1*
Y2314330D1*
Y2306710D1*
Y2299090D1*
Y2291470D1*
X6528427Y2695330D2*
Y2687710D1*
Y2680090D1*
Y2672470D1*
Y2664850D1*
Y2657230D1*
Y2649610D1*
Y2641990D1*
Y2634370D1*
Y2626750D1*
Y2619130D1*
Y2611510D1*
X6597007Y2695330D2*
X6584181Y2687710D1*
X6573285Y2680090D1*
X6564261Y2672470D1*
X6556877Y2664850D1*
X6551055Y2657230D1*
X6546290Y2649610D1*
X6542300Y2641990D1*
X6539025Y2634370D1*
X6536067Y2626750D1*
X6532532Y2619130D1*
X6528427Y2611510D1*
X6635107Y2695330D2*
Y2687710D1*
Y2680090D1*
Y2672470D1*
Y2664850D1*
Y2657230D1*
Y2649610D1*
Y2641990D1*
Y2634370D1*
Y2626750D1*
Y2619130D1*
Y2611510D1*
Y2603890D1*
Y2596270D1*
X6610812Y2588650D1*
X6592170Y2581030D1*
X6578705Y2573410D1*
X6568672Y2565790D1*
X6561159Y2558170D1*
X6555926Y2550550D1*
X6552221Y2542930D1*
X6549095Y2535310D1*
X6546586Y2527690D1*
X6545036Y2520070D1*
X6544248Y2512450D1*
X6543895Y2504830D1*
X6543752Y2497210D1*
X6543697Y2489590D1*
X6543677Y2481970D1*
X6543670Y2474350D1*
X6543668Y2466730D1*
X6543667Y2459110D1*
Y2451490D1*
Y2443870D1*
Y2436250D1*
Y2428630D1*
Y2421010D1*
Y2413390D1*
Y2405770D1*
Y2398150D1*
Y2390530D1*
Y2382910D1*
Y2375290D1*
Y2367670D1*
Y2360050D1*
Y2352430D1*
Y2344810D1*
Y2337190D1*
Y2329570D1*
Y2321950D1*
Y2314330D1*
Y2306710D1*
Y2299090D1*
Y2291470D1*
X6764647Y2695330D2*
X6750614Y2687710D1*
X6737561Y2680090D1*
X6725563Y2672470D1*
X6714781Y2664850D1*
X6705534Y2657230D1*
X6697728Y2649610D1*
X6690856Y2641990D1*
X6684441Y2634370D1*
X6678961Y2626750D1*
X6674773Y2619130D1*
X6671284Y2611510D1*
X6668333Y2603890D1*
X6665737Y2596270D1*
X6663092Y2588650D1*
X6660774Y2581030D1*
X6659268Y2573410D1*
X6658237Y2565790D1*
X6656922Y2558170D1*
X6654956Y2550550D1*
X6652949Y2542930D1*
X6651600Y2535310D1*
X6650887Y2527690D1*
X6650532Y2520070D1*
X6650107Y2512450D1*
X6648878Y2504830D1*
X6646254Y2497210D1*
X6642727Y2489590D1*
X6646244Y2481970D1*
X6648433Y2474350D1*
X6649540Y2466730D1*
X6650061Y2459110D1*
X6650528Y2451490D1*
X6651574Y2443870D1*
X6653426Y2436250D1*
X6655419Y2428630D1*
X6657019Y2421010D1*
X6658698Y2413390D1*
X6660876Y2405770D1*
X6663232Y2398150D1*
X6665583Y2390530D1*
X6668193Y2382910D1*
X6671012Y2375290D1*
X6674449Y2367670D1*
X6679156Y2360050D1*
X6684644Y2352430D1*
X6690298Y2344810D1*
X6696139Y2337190D1*
X6702625Y2329570D1*
X6711212Y2321950D1*
X6723312Y2314330D1*
X6740089Y2306710D1*
X6762236Y2299090D1*
X6787507Y2291470D1*
X6833227Y2695330D2*
X6853382Y2687710D1*
X6870891Y2680090D1*
X6885412Y2672470D1*
X6897223Y2664850D1*
X6906510Y2657230D1*
X6914111Y2649610D1*
X6920846Y2641990D1*
X6926456Y2634370D1*
X6930693Y2626750D1*
X6934200Y2619130D1*
X6937157Y2611510D1*
X6939756Y2603890D1*
X6942401Y2596270D1*
X6944749Y2588650D1*
X6946494Y2581030D1*
X6948228Y2573410D1*
X6950396Y2565790D1*
X6952491Y2558170D1*
X6953873Y2550550D1*
X6954629Y2542930D1*
X6955227Y2535310D1*
X6956334Y2527690D1*
X6958211Y2520070D1*
X6960184Y2512450D1*
X6961520Y2504830D1*
X6962229Y2497210D1*
X6962553Y2489590D1*
X6962691Y2481970D1*
X6962767Y2474350D1*
X7115167Y2695330D2*
X7095272Y2687710D1*
X7078471Y2680090D1*
X7064806Y2672470D1*
X7053154Y2664850D1*
X7043510Y2657230D1*
X7036258Y2649610D1*
X7030964Y2641990D1*
X7027118Y2634370D1*
X7024128Y2626750D1*
X7021325Y2619130D1*
X7018917Y2611510D1*
X7017151Y2603890D1*
X7015439Y2596270D1*
X7013536Y2588650D1*
X7012412Y2581030D1*
X7012884Y2573410D1*
X7014379Y2565790D1*
X7016349Y2558170D1*
X7018774Y2550550D1*
X7021267Y2542930D1*
X7023712Y2535310D1*
X7026586Y2527690D1*
X7030148Y2520070D1*
X7034710Y2512450D1*
X7040488Y2504830D1*
X7046850Y2497210D1*
X7052704Y2489590D1*
X7057801Y2481970D1*
X7053079Y2474350D1*
X7046554Y2466730D1*
X7039374Y2459110D1*
X7032455Y2451490D1*
X7025935Y2443870D1*
X7019681Y2436250D1*
X7014486Y2428630D1*
X7011017Y2421010D1*
X7008446Y2413390D1*
X7006162Y2405770D1*
X7004265Y2398150D1*
X7005141Y2390530D1*
X7006761Y2382910D1*
X7009021Y2375290D1*
X7012452Y2367670D1*
X7017098Y2360050D1*
X7023030Y2352430D1*
X7031251Y2344810D1*
X7042096Y2337190D1*
X7054207Y2329570D1*
X7042809Y2321950D1*
X7032291Y2314330D1*
X7022709Y2306710D1*
X7014498Y2299090D1*
X7007602Y2291470D1*
X7001797Y2283850D1*
X6997627Y2276230D1*
X6995235Y2268610D1*
X6994071Y2260990D1*
X6993595Y2253370D1*
X6993661Y2245750D1*
X6994586Y2238130D1*
X6996652Y2230510D1*
X6999627Y2222890D1*
X7003343Y2215270D1*
X7008243Y2207650D1*
X7014903Y2200030D1*
X7023756Y2192410D1*
X7036798Y2184790D1*
X7058652Y2177170D1*
X7091486Y2169550D1*
X7130407Y2161930D1*
X7206607Y2695330D2*
X7214227Y2687710D1*
X7305667D2*
X7296649Y2680090D1*
X7288978Y2672470D1*
X7283453Y2664850D1*
X7279585Y2657230D1*
X7280511Y2649610D1*
X7285055Y2641990D1*
X7289949Y2634370D1*
X7294078Y2626750D1*
X7297354Y2619130D1*
X7300321Y2611510D1*
X7302776Y2603890D1*
X7304306Y2596270D1*
X7305088Y2588650D1*
X7305439Y2581030D1*
X7305582Y2573410D1*
X7305607Y2565790D1*
X7305359Y2558170D1*
X7304365Y2550550D1*
X7302274Y2542930D1*
X7299320Y2535310D1*
X7295869Y2527690D1*
X7291970Y2520070D1*
X7287462Y2512450D1*
X7282248Y2504830D1*
X7276082Y2497210D1*
X7267915Y2489590D1*
X7257129Y2481970D1*
X7243436Y2474350D1*
X7226168Y2466730D1*
X7206607Y2459110D1*
X7313287Y2687710D2*
X7724767Y2695330D2*
X7718934Y2687710D1*
X7714416Y2680090D1*
X7714469Y2672470D1*
X7715381Y2664850D1*
X7716223Y2657230D1*
X7716729Y2649610D1*
X7716975Y2641990D1*
X7717081Y2634370D1*
X7717123Y2626750D1*
X7717138Y2619130D1*
X7717144Y2611510D1*
X7717146Y2603890D1*
Y2596270D1*
X7717147Y2588650D1*
Y2581030D1*
Y2573410D1*
Y2565790D1*
Y2558170D1*
Y2550550D1*
Y2542930D1*
Y2535310D1*
Y2527690D1*
Y2520070D1*
Y2512450D1*
Y2504830D1*
Y2497210D1*
Y2489590D1*
Y2481970D1*
Y2474350D1*
Y2466730D1*
Y2459110D1*
Y2451490D1*
Y2443870D1*
Y2436250D1*
Y2428630D1*
Y2421010D1*
Y2413390D1*
Y2405770D1*
Y2398150D1*
Y2390530D1*
Y2382910D1*
Y2375290D1*
Y2367670D1*
Y2360050D1*
Y2352430D1*
Y2344810D1*
Y2337190D1*
Y2329570D1*
Y2321950D1*
Y2314330D1*
Y2306710D1*
Y2299090D1*
Y2291470D1*
X7823827Y2695330D2*
Y2687710D1*
Y2680090D1*
Y2672470D1*
Y2664850D1*
Y2657230D1*
Y2649610D1*
X7877167Y2695330D2*
X7864312Y2687710D1*
X7853177Y2680090D1*
X7843441Y2672470D1*
X7835126Y2664850D1*
X7828860Y2657230D1*
X7823827Y2649610D1*
X7945747Y2695330D2*
X7959489Y2687710D1*
X7971536Y2680090D1*
X7981440Y2672470D1*
X7989297Y2664850D1*
X7995329Y2657230D1*
X7999940Y2649610D1*
X8003217Y2641990D1*
X8005111Y2634370D1*
X8006042Y2626750D1*
X8006478Y2619130D1*
X8006909Y2611510D1*
X8007942Y2603890D1*
X8009789Y2596270D1*
X8011750Y2588650D1*
X8013082Y2581030D1*
X8013789Y2573410D1*
X8014113Y2565790D1*
X8014247Y2558170D1*
X8014298Y2550550D1*
X8014317Y2542930D1*
X8014323Y2535310D1*
X8014326Y2527690D1*
Y2520070D1*
X8014327Y2512450D1*
Y2504830D1*
Y2497210D1*
Y2489590D1*
Y2481970D1*
Y2474350D1*
Y2466730D1*
Y2459110D1*
Y2451490D1*
Y2443870D1*
Y2436250D1*
Y2428630D1*
Y2421010D1*
Y2413390D1*
Y2405770D1*
Y2398150D1*
Y2390530D1*
Y2382910D1*
Y2375290D1*
Y2367670D1*
Y2360050D1*
Y2352430D1*
Y2344810D1*
Y2337190D1*
Y2329570D1*
Y2321950D1*
Y2314330D1*
Y2306710D1*
Y2299090D1*
Y2291470D1*
X7145647Y2634370D2*
X7139524Y2626750D1*
X7135038Y2619130D1*
X7132218Y2611510D1*
X7130009Y2603890D1*
X7127649Y2596270D1*
X7125512Y2588650D1*
X7124371Y2581030D1*
X7124607Y2573410D1*
X7126099Y2565790D1*
X7127916Y2558170D1*
X7129252Y2550550D1*
X7130520Y2542930D1*
X7132296Y2535310D1*
X7138314Y2527690D1*
X7145647Y2520070D1*
X7176127Y2634370D2*
X7180822Y2626750D1*
X7184899Y2619130D1*
X7187980Y2611510D1*
X7189805Y2603890D1*
X7190713Y2596270D1*
X7191112Y2588650D1*
X7191273Y2581030D1*
X7191333Y2573410D1*
X7191326Y2565790D1*
X7191065Y2558170D1*
X7190067Y2550550D1*
X7187951Y2542930D1*
X7184801Y2535310D1*
X7180752Y2527690D1*
X7176127Y2520070D1*
X6787507Y2619130D2*
X6782521Y2611510D1*
X6777467Y2603890D1*
X6772560Y2596270D1*
X6768780Y2588650D1*
X6766544Y2581030D1*
X6765439Y2573410D1*
X6764954Y2565790D1*
X6764760Y2558170D1*
X6764685Y2550550D1*
X6764647Y2542930D1*
X6833227Y2619130D2*
X6839349Y2611510D1*
X6843835Y2603890D1*
X6846655Y2596270D1*
X6848864Y2588650D1*
X6851224Y2581030D1*
X6853391Y2573410D1*
X6854800Y2565790D1*
X6855537Y2558170D1*
X6855883Y2550550D1*
X6856087Y2542930D1*
X7488547Y2619130D2*
X7483561Y2611510D1*
X7478507Y2603890D1*
X7473600Y2596270D1*
X7469820Y2588650D1*
X7467584Y2581030D1*
X7466479Y2573410D1*
X7465995Y2565790D1*
X7465800Y2558170D1*
X7465727Y2550550D1*
X7465700Y2542930D1*
X7465691Y2535310D1*
X7465658Y2527690D1*
X7465389Y2520070D1*
X7464448Y2512450D1*
X7462891Y2504830D1*
X7461908Y2497210D1*
X7462404Y2489590D1*
X7463651Y2481970D1*
X7464657Y2474350D1*
X7465230Y2466730D1*
X7465502Y2459110D1*
X7465616Y2451490D1*
X7465661Y2443870D1*
X7465678Y2436250D1*
X7465684Y2428630D1*
X7465715Y2421010D1*
X7465984Y2413390D1*
X7466985Y2405770D1*
X7469138Y2398150D1*
X7472649Y2390530D1*
X7478228Y2382910D1*
X7486452Y2375290D1*
X7496167Y2367670D1*
X7519027Y2619130D2*
X7525439Y2611510D1*
X7530872Y2603890D1*
X7535251Y2596270D1*
X7538442Y2588650D1*
X7540307Y2581030D1*
X7541227Y2573410D1*
X7541660Y2565790D1*
X7542090Y2558170D1*
X7543122Y2550550D1*
X7544969Y2542930D1*
X7546930Y2535310D1*
X7548262Y2527690D1*
X7548969Y2520070D1*
X7549293Y2512450D1*
X7549427Y2504830D1*
X7549478Y2497210D1*
X7549497Y2489590D1*
X7549503Y2481970D1*
X7549476Y2474350D1*
X7549209Y2466730D1*
X7548238Y2459110D1*
X7546413Y2451490D1*
X7544459Y2443870D1*
X7543130Y2436250D1*
X7542424Y2428630D1*
X7542071Y2421010D1*
X7541669Y2413390D1*
X7540617Y2405770D1*
X7538446Y2398150D1*
X7534928Y2390530D1*
X7529347Y2382910D1*
X7521122Y2375290D1*
X7511407Y2367670D1*
X7846687Y2611510D2*
X7841477Y2603890D1*
X7836911Y2596270D1*
X7833754Y2588650D1*
X7831290Y2581030D1*
X7828792Y2573410D1*
X7826563Y2565790D1*
X7825128Y2558170D1*
X7824384Y2550550D1*
X7824047Y2542930D1*
X7823909Y2535310D1*
X7823856Y2527690D1*
X7823837Y2520070D1*
X7823830Y2512450D1*
X7823828Y2504830D1*
X7823827Y2497210D1*
Y2489590D1*
Y2481970D1*
Y2474350D1*
Y2466730D1*
Y2459110D1*
Y2451490D1*
Y2443870D1*
Y2436250D1*
Y2428630D1*
Y2421010D1*
Y2413390D1*
Y2405770D1*
Y2398150D1*
Y2390530D1*
Y2382910D1*
Y2375290D1*
Y2367670D1*
Y2360050D1*
Y2352430D1*
Y2344810D1*
Y2337190D1*
Y2329570D1*
Y2321950D1*
Y2314330D1*
Y2306710D1*
Y2299090D1*
Y2291470D1*
X7884787Y2611510D2*
X7889482Y2603890D1*
X7893589Y2596270D1*
X7896937Y2588650D1*
X7899734Y2581030D1*
X7902437Y2573410D1*
X7904521Y2565790D1*
X7905663Y2558170D1*
X7904138Y2550550D1*
X7902413Y2542930D1*
X7901196Y2535310D1*
X7900536Y2527690D1*
X7900231Y2520070D1*
X7900103Y2512450D1*
X7900054Y2504830D1*
X7900036Y2497210D1*
X7900030Y2489590D1*
X7900028Y2481970D1*
X7900027Y2474350D1*
Y2466730D1*
Y2459110D1*
Y2451490D1*
Y2443870D1*
Y2436250D1*
Y2428630D1*
Y2421010D1*
Y2413390D1*
Y2405770D1*
Y2398150D1*
Y2390530D1*
Y2382910D1*
Y2375290D1*
Y2367670D1*
Y2360050D1*
Y2352430D1*
Y2344810D1*
Y2337190D1*
Y2329570D1*
Y2321950D1*
Y2314330D1*
Y2306710D1*
Y2299090D1*
Y2291470D1*
X8936347Y2611510D2*
Y2603890D1*
Y2596270D1*
Y2588650D1*
Y2581030D1*
Y2573410D1*
Y2565790D1*
Y2558170D1*
Y2550550D1*
Y2542930D1*
Y2535310D1*
Y2527690D1*
X8783947D2*
Y2520070D1*
Y2512450D1*
Y2504830D1*
Y2497210D1*
Y2489590D1*
Y2481970D1*
Y2474350D1*
Y2466730D1*
Y2459110D1*
Y2451490D1*
Y2443870D1*
Y2436250D1*
Y2428630D1*
Y2421010D1*
Y2413390D1*
Y2405770D1*
Y2398150D1*
Y2390530D1*
X9561187Y2520070D2*
Y2512450D1*
Y2504830D1*
Y2497210D1*
Y2489590D1*
Y2481970D1*
Y2474350D1*
Y2466730D1*
Y2459110D1*
Y2451490D1*
Y2443870D1*
Y2436250D1*
Y2428630D1*
Y2421010D1*
Y2413390D1*
Y2405770D1*
Y2398150D1*
Y2390530D1*
Y2382910D1*
Y2375290D1*
Y2367670D1*
Y2360050D1*
Y2352430D1*
Y2344810D1*
Y2337190D1*
Y2329570D1*
Y2321950D1*
Y2314330D1*
Y2306710D1*
Y2299090D1*
X9683107Y2520070D2*
Y2512450D1*
Y2504830D1*
Y2497210D1*
Y2489590D1*
Y2481970D1*
Y2474350D1*
Y2466730D1*
Y2459110D1*
Y2451490D1*
Y2443870D1*
Y2436250D1*
Y2428630D1*
Y2421010D1*
Y2413390D1*
Y2405770D1*
Y2398150D1*
Y2390530D1*
Y2382910D1*
Y2375290D1*
Y2367670D1*
Y2360050D1*
Y2352430D1*
Y2344810D1*
Y2337190D1*
Y2329570D1*
Y2321950D1*
Y2314330D1*
Y2306710D1*
Y2299090D1*
X9286867Y2489590D2*
X9284262Y2481970D1*
X9281994Y2474350D1*
X9280519Y2466730D1*
X9279505Y2459110D1*
X9278168Y2451490D1*
X9275937Y2443870D1*
X9272930Y2436250D1*
X9269459Y2428630D1*
X9265523Y2421010D1*
X9260775Y2413390D1*
X9254893Y2405770D1*
X9248186Y2398150D1*
X9241147Y2390530D1*
X9317347Y2489590D2*
X9385927Y2481970D1*
X9385636Y2474350D1*
X9384660Y2466730D1*
X9382833Y2459110D1*
X9380879Y2451490D1*
X9379520Y2443870D1*
X9378546Y2436250D1*
X9377252Y2428630D1*
X9375263Y2421010D1*
X9372990Y2413390D1*
X9370642Y2405770D1*
X9367806Y2398150D1*
X9364288Y2390530D1*
X9359998Y2382910D1*
X9355164Y2375290D1*
X9350300Y2367670D1*
X9345268Y2360050D1*
X9339841Y2352430D1*
X9333871Y2344810D1*
X9326934Y2337190D1*
X9319236Y2329570D1*
X9310632Y2321950D1*
X9299683Y2314330D1*
X9286202Y2306710D1*
X9271484Y2299090D1*
X9256387Y2291470D1*
X6764647Y2474350D2*
Y2466730D1*
Y2459110D1*
Y2451490D1*
Y2443870D1*
Y2436250D1*
Y2428630D1*
X6764676Y2421010D1*
X6764974Y2413390D1*
X6766243Y2405770D1*
X6769366Y2398150D1*
X6774704Y2390530D1*
X6782256Y2382910D1*
X6791925Y2375290D1*
X6802747Y2367670D1*
X7115167Y2459110D2*
X7106984Y2451490D1*
X7100116Y2443870D1*
X7096845Y2436250D1*
X7097799Y2428630D1*
X7103954Y2421010D1*
X7112646Y2413390D1*
X7122787Y2405770D1*
X7130407Y2459110D2*
X6856087Y2436250D2*
X6856057Y2428630D1*
X6855789Y2421010D1*
X6854818Y2413390D1*
X6852963Y2405770D1*
X6850652Y2398150D1*
X6847476Y2390530D1*
X6842860Y2382910D1*
X6831305Y2375290D1*
X6817987Y2367670D1*
X6848467Y2436250D2*
X6901807Y2428630D1*
X6955147Y2421010D1*
X6953969Y2413390D1*
X6952050Y2405770D1*
X6949809Y2398150D1*
X6947504Y2390530D1*
X6944941Y2382910D1*
X6942395Y2375290D1*
X6939902Y2367670D1*
X6936753Y2360050D1*
X6932248Y2352430D1*
X6926098Y2344810D1*
X6919010Y2337190D1*
X6911548Y2329570D1*
X6902626Y2321950D1*
X6890940Y2314330D1*
X6874760Y2306710D1*
X6852230Y2299090D1*
X6825607Y2291470D1*
X7168507Y2405770D2*
X7213151Y2398150D1*
X7248487Y2390530D1*
X7273245Y2382910D1*
X7290245Y2375290D1*
X7302375Y2367670D1*
X7311684Y2360050D1*
X7318867Y2352430D1*
X7323966Y2344810D1*
X7327620Y2337190D1*
X7330727Y2329570D1*
X7333231Y2321950D1*
X7334778Y2314330D1*
X7335566Y2306710D1*
X7335918Y2299090D1*
X7336062Y2291470D1*
X7336087Y2283850D1*
X7335839Y2276230D1*
X7334874Y2268610D1*
X7333022Y2260990D1*
X7330771Y2253370D1*
X7328204Y2245750D1*
X7324671Y2238130D1*
X7320272Y2230510D1*
X7315557Y2222890D1*
X7310108Y2215270D1*
X7303011Y2207650D1*
X7294019Y2200030D1*
X7283020Y2192410D1*
X7267822Y2184790D1*
X7243199Y2177170D1*
X7205837Y2169550D1*
X7160887Y2161930D1*
X8982067Y2390530D2*
Y2382910D1*
Y2375290D1*
Y2367670D1*
Y2360050D1*
Y2352430D1*
Y2344810D1*
Y2337190D1*
Y2329570D1*
Y2321950D1*
Y2314330D1*
Y2306710D1*
Y2299090D1*
X7115167Y2314330D2*
X7105237Y2306710D1*
X7097615Y2299090D1*
X7092129Y2291470D1*
X7088446Y2283850D1*
X7086413Y2276230D1*
X7085715Y2268610D1*
X7085893Y2260990D1*
X7089072Y2253370D1*
X7098603Y2245750D1*
X7112967Y2238130D1*
X7130407Y2230510D1*
X7122787Y2314330D2*
Y2306710D1*
X7214227D2*
X7222954Y2299090D1*
X7230652Y2291470D1*
X7233918Y2283850D1*
X7235720Y2276230D1*
X7236486Y2268610D1*
X7236201Y2260990D1*
X7234847Y2253370D1*
X7226578Y2245750D1*
X7213992Y2238130D1*
X7198987Y2230510D1*
X7145647Y2161930D2*
X5801132Y6649801D2*
D80*
X5796303Y6659459D1*
X5786532Y6669230D1*
X5776874Y6674059D1*
X5757444D1*
X5747674Y6669230D1*
X5738015Y6659459D1*
X5733074Y6649801D1*
X5728244Y6635201D1*
Y6610830D1*
X5733074Y6596342D1*
X5738015Y6586572D1*
X5747674Y6576913D1*
X5757444Y6571972D1*
X5776874D1*
X5786532Y6576913D1*
X5796303Y6586572D1*
X5801132Y6596342D1*
X5832505Y6654518D2*
X5842276Y6659459D1*
X5856876Y6673947D1*
Y6571972D1*
X7464338Y7207434D2*
X7459509Y7217093D1*
X7449738Y7226863D1*
X7440080Y7231693D1*
X7420651D1*
X7410880Y7226863D1*
X7401221Y7217093D1*
X7396280Y7207434D1*
X7391451Y7192834D1*
Y7168463D1*
X7396280Y7153976D1*
X7401221Y7144205D1*
X7410880Y7134547D1*
X7420651Y7129605D1*
X7440080D1*
X7449738Y7134547D1*
X7459509Y7144205D1*
X7464338Y7153976D1*
X7500652Y7207322D2*
Y7212151D1*
X7505482Y7221922D1*
X7510311Y7226751D1*
X7520082Y7231580D1*
X7539511D1*
X7549169Y7226751D1*
X7553999Y7221922D1*
X7558940Y7212151D1*
Y7202493D1*
X7553999Y7192722D1*
X7544340Y7178234D1*
X7495711Y7129605D1*
X7563769D1*
X8090328Y7300618D2*
Y7198530D1*
X8124358D1*
X8138958Y7203472D1*
X8148728Y7213130D1*
X8153558Y7222901D1*
X8158387Y7237389D1*
Y7261759D1*
X8153558Y7276359D1*
X8148728Y7286018D1*
X8138958Y7295789D1*
X8124358Y7300618D1*
X8090328D1*
X8189759Y7281076D2*
X8199530Y7286018D1*
X8214130Y7300506D1*
Y7198530D1*
X2977412Y6902567D2*
Y6800479D1*
X3011441D1*
X3026041Y6805421D1*
X3035812Y6815079D1*
X3040641Y6824850D1*
X3045470Y6839338D1*
Y6863709D1*
X3040641Y6878309D1*
X3035812Y6887967D1*
X3026041Y6897738D1*
X3011441Y6902567D1*
X2977412D1*
X3081784Y6878196D2*
Y6883026D1*
X3086614Y6892796D1*
X3091443Y6897626D1*
X3101214Y6902455D1*
X3120643D1*
X3130301Y6897626D1*
X3135131Y6892796D1*
X3140072Y6883026D1*
Y6873367D1*
X3135131Y6863596D1*
X3125472Y6849109D1*
X3076843Y6800479D1*
X3144901D1*
X4240315Y1577013D2*
Y1474925D1*
X4274344D1*
X4288944Y1479867D1*
X4298715Y1489525D1*
X4303544Y1499296D1*
X4308374Y1513784D1*
Y1538154D1*
X4303544Y1552754D1*
X4298715Y1562413D1*
X4288944Y1572184D1*
X4274344Y1577013D1*
X4240315D1*
X4349517Y1576901D2*
X4402863D1*
X4373776Y1538042D1*
X4388376D1*
X4398034Y1533213D1*
X4402863Y1528384D1*
X4407805Y1513784D1*
Y1504125D1*
X4402863Y1489525D1*
X4393205Y1479754D1*
X4378605Y1474925D1*
X4364005D1*
X4349517Y1479754D1*
X4344688Y1484696D1*
X4339746Y1494354D1*
X9790626Y7685569D2*
Y7607852D1*
X9785797Y7593252D1*
X9780855Y7588423D1*
X9771197Y7583482D1*
X9761426D1*
X9751767Y7588423D1*
X9746938Y7593252D1*
X9741997Y7607852D1*
Y7617511D1*
X9880286Y7685457D2*
X9831769D1*
X9826940Y7641769D1*
X9831769Y7646599D1*
X9846369Y7651540D1*
X9860857D1*
X9875457Y7646599D1*
X9885228Y7636940D1*
X9890057Y7622340D1*
Y7612682D1*
X9885228Y7598082D1*
X9875457Y7588311D1*
X9860857Y7583482D1*
X9846369D1*
X9831769Y7588311D1*
X9826940Y7593252D1*
X9821998Y7602911D1*
X5586890Y5834919D2*
Y5878607D1*
X5581949Y5893207D1*
X5577119Y5898149D1*
X5567461Y5902978D1*
X5557690D1*
X5548032Y5898149D1*
X5543090Y5893207D1*
X5538261Y5878607D1*
Y5834919D1*
X5640348D1*
X5586890Y5868949D2*
X5640349Y5902978D1*
X5557802Y5934350D2*
X5552861Y5944121D1*
X5538373Y5958721D1*
X5640348D1*
X5188663Y5802126D2*
Y5845813D1*
X5183722Y5860413D1*
X5178893Y5865355D1*
X5169234Y5870184D1*
X5159463D1*
X5149805Y5865355D1*
X5144863Y5860413D1*
X5140034Y5845813D1*
Y5802126D1*
X5242122D1*
X5188663Y5836155D2*
X5242122Y5870184D1*
X5164405Y5906498D2*
X5159576D1*
X5149805Y5911327D1*
X5144976Y5916156D1*
X5140147Y5925927D1*
Y5945356D1*
X5144976Y5955015D1*
X5149805Y5959844D1*
X5159576Y5964786D1*
X5169234D1*
X5179005Y5959844D1*
X5193493Y5950186D1*
X5242122Y5901556D1*
Y5969615D1*
X1828710Y4937484D2*
Y4981172D1*
X1823769Y4995772D1*
X1818939Y5000713D1*
X1809281Y5005543D1*
X1799510D1*
X1789852Y5000713D1*
X1784910Y4995772D1*
X1780081Y4981172D1*
Y4937484D1*
X1882168D1*
X1828710Y4971514D2*
X1882169Y5005543D1*
X1882168Y5085544D2*
X1780193D1*
X1848139Y5036915D1*
Y5109803D1*
X1796173Y3782063D2*
Y3825751D1*
X1791232Y3840351D1*
X1786403Y3845292D1*
X1776744Y3850121D1*
X1766973D1*
X1757315Y3845292D1*
X1752373Y3840351D1*
X1747544Y3825751D1*
Y3782063D1*
X1849632D1*
X1796173Y3816092D2*
X1849632Y3850121D1*
X1762144Y3939782D2*
X1752486Y3934952D1*
X1747657Y3920352D1*
Y3910694D1*
X1752486Y3896094D1*
X1767086Y3886323D1*
X1791344Y3881494D1*
X1815603D1*
X1835032Y3886323D1*
X1844803Y3896094D1*
X1849632Y3910694D1*
Y3915523D1*
X1844803Y3930011D1*
X1835032Y3939781D1*
X1820432Y3944611D1*
X1815603D1*
X1801003Y3939781D1*
X1791344Y3930011D1*
X1786515Y3915523D1*
Y3910694D1*
X1791344Y3896094D1*
X1801003Y3886323D1*
X1815603Y3881494D1*
X7396463Y5851102D2*
Y5894790D1*
X7391522Y5909390D1*
X7386693Y5914331D1*
X7377034Y5919161D1*
X7367263D1*
X7357605Y5914331D1*
X7352663Y5909390D1*
X7347834Y5894790D1*
Y5851102D1*
X7449922D1*
X7396463Y5885131D2*
X7449922Y5919160D1*
Y5969962D2*
X7347947Y6018592D1*
Y5950533D1*
X7821147Y5850225D2*
Y5893913D1*
X7816205Y5908513D1*
X7811376Y5913454D1*
X7801718Y5918283D1*
X7791947D1*
X7782288Y5913454D1*
X7777347Y5908513D1*
X7772517Y5893913D1*
Y5850225D1*
X7874605D1*
X7821147Y5884254D2*
X7874605Y5918283D1*
X7772630Y5973914D2*
X7777459Y5959427D1*
X7787118Y5954485D1*
X7796888D1*
X7806547Y5959427D1*
X7811488Y5969085D1*
X7816318Y5988514D1*
X7821147Y6003114D1*
X7830918Y6012773D1*
X7840576Y6017602D1*
X7855176D1*
X7864834Y6012773D1*
X7869776Y6007943D1*
X7874605Y5993343D1*
Y5973914D1*
X7869776Y5959427D1*
X7864834Y5954485D1*
X7855176Y5949656D1*
X7840576D1*
X7830918Y5954485D1*
X7821147Y5964256D1*
X7816318Y5978744D1*
X7811488Y5998173D1*
X7806547Y6007944D1*
X7796888Y6012773D1*
X7787118D1*
X7777459Y6007944D1*
X7772630Y5993344D1*
Y5973914D1*
X8252260Y5850990D2*
Y5894678D1*
X8247319Y5909278D1*
X8242489Y5914219D1*
X8232831Y5919049D1*
X8223060D1*
X8213402Y5914219D1*
X8208460Y5909278D1*
X8203631Y5894678D1*
Y5850990D1*
X8305718D1*
X8252260Y5885019D2*
X8305719Y5919048D1*
X8237660Y6013650D2*
X8252260Y6008709D1*
X8262031Y5999050D1*
X8266860Y5984450D1*
Y5979621D1*
X8262031Y5965021D1*
X8252260Y5955363D1*
X8237660Y5950421D1*
X8232831D1*
X8218231Y5955363D1*
X8208572Y5965021D1*
X8203743Y5979621D1*
Y5984450D1*
X8208572Y5999050D1*
X8218231Y6008709D1*
X8237660Y6013650D1*
X8262031D1*
X8286289Y6008709D1*
X8300889Y5999050D1*
X8305718Y5984450D1*
Y5974792D1*
X8300889Y5960192D1*
X8291119Y5955362D1*
X4966627Y1333340D2*
X5010315D1*
X5024915Y1338282D1*
X5029856Y1343111D1*
X5034685Y1352769D1*
Y1362540D1*
X5029856Y1372199D1*
X5024915Y1377140D1*
X5010315Y1381969D1*
X4966627D1*
Y1279882D1*
X5000656Y1333340D2*
X5034685Y1279882D1*
X5066058Y1362428D2*
X5075829Y1367369D1*
X5090429Y1381857D1*
Y1279882D1*
X5126743Y1357599D2*
Y1362428D1*
X5131572Y1372199D1*
X5136401Y1377028D1*
X5146172Y1381857D1*
X5165601D1*
X5175260Y1377028D1*
X5180089Y1372199D1*
X5185030Y1362428D1*
Y1352769D1*
X5180089Y1342999D1*
X5170430Y1328511D1*
X5121801Y1279882D1*
X5189860D1*
X5086734Y1125080D2*
X5130421D1*
X5145021Y1130022D1*
X5149963Y1134851D1*
X5154792Y1144509D1*
Y1154280D1*
X5149963Y1163939D1*
X5145021Y1168880D1*
X5130421Y1173709D1*
X5086734D1*
Y1071622D1*
X5120763Y1125080D2*
X5154792Y1071622D1*
X5186165Y1154168D2*
X5195935Y1159109D1*
X5210535Y1173597D1*
Y1071622D1*
X5251679Y1173597D2*
X5305025D1*
X5275937Y1134739D1*
X5290537D1*
X5300196Y1129909D1*
X5305025Y1125080D1*
X5309966Y1110480D1*
Y1100822D1*
X5305025Y1086222D1*
X5295366Y1076451D1*
X5280766Y1071622D1*
X5266166D1*
X5251679Y1076451D1*
X5246849Y1081392D1*
X5241908Y1091051D1*
X3255819Y1157917D2*
X3299507D1*
X3314107Y1162858D1*
X3319048Y1167687D1*
X3323877Y1177346D1*
Y1187117D1*
X3319048Y1196775D1*
X3314107Y1201717D1*
X3299507Y1206546D1*
X3255819D1*
Y1104458D1*
X3289848Y1157917D2*
X3323877Y1104458D1*
X3355250Y1187004D2*
X3365021Y1191946D1*
X3379621Y1206434D1*
Y1104458D1*
X3459623D2*
Y1206434D1*
X3410993Y1138487D1*
X3483881D1*
X2308621Y3136069D2*
X2298962Y3145840D1*
X2284362Y3150669D1*
X2264933D1*
X2250333Y3145840D1*
X2240562Y3136069D1*
Y3126411D1*
X2245504Y3116640D1*
X2250333Y3111811D1*
X2259992Y3106982D1*
X2289192Y3097211D1*
X2298962Y3092382D1*
X2303792Y3087440D1*
X2308621Y3077782D1*
Y3063182D1*
X2298962Y3053523D1*
X2284362Y3048582D1*
X2264933D1*
X2250333Y3053523D1*
X2240562Y3063182D1*
X2339993Y3131128D2*
X2349764Y3136069D1*
X2364364Y3150557D1*
Y3048582D1*
X1697460Y2314813D2*
X1687802Y2324583D1*
X1673202Y2329413D1*
X1653773D1*
X1639173Y2324583D1*
X1629402Y2314813D1*
Y2305154D1*
X1634343Y2295383D1*
X1639173Y2290554D1*
X1648831Y2285725D1*
X1678031Y2275954D1*
X1687802Y2271125D1*
X1692631Y2266183D1*
X1697460Y2256525D1*
Y2241925D1*
X1687802Y2232266D1*
X1673202Y2227325D1*
X1653773D1*
X1639173Y2232266D1*
X1629402Y2241925D1*
X1733774Y2305042D2*
Y2309871D1*
X1738604Y2319642D1*
X1743433Y2324471D1*
X1753204Y2329300D1*
X1772633D1*
X1782291Y2324471D1*
X1787121Y2319642D1*
X1792062Y2309871D1*
Y2300213D1*
X1787121Y2290442D1*
X1777462Y2275954D1*
X1728833Y2227325D1*
X1796891D1*
X8078002Y5200509D2*
Y5127622D1*
X8082832Y5113022D1*
X8092602Y5103363D1*
X8107202Y5098422D1*
X8116861D1*
X8131461Y5103363D1*
X8141232Y5113022D1*
X8146061Y5127622D1*
Y5200509D1*
X8177433Y5180968D2*
X8187204Y5185909D1*
X8201804Y5200397D1*
Y5098422D1*
X6566325Y7347059D2*
Y7274172D1*
X6571154Y7259572D1*
X6580925Y7249913D1*
X6595525Y7244972D1*
X6605184D1*
X6619784Y7249913D1*
X6629554Y7259572D1*
X6634384Y7274172D1*
Y7347059D1*
X6675527Y7346947D2*
X6728873D1*
X6699786Y7308089D1*
X6714386D1*
X6724044Y7303259D1*
X6728873Y7298430D1*
X6733815Y7283830D1*
Y7274172D1*
X6728873Y7259572D1*
X6719215Y7249801D1*
X6704615Y7244972D1*
X6690015D1*
X6675527Y7249801D1*
X6670698Y7254742D1*
X6665756Y7264401D1*
X2522923Y2261207D2*
D81*
Y2057031D1*
X2659040Y2261207D2*
X2522923Y2125090D1*
X2571440Y2173831D2*
X2659040Y2057031D1*
X2721785Y2261207D2*
Y2057031D1*
X2901105Y2193148D2*
Y2057031D1*
Y2163948D2*
X2881789Y2183490D1*
X2862247Y2193148D1*
X2833272D1*
X2813730Y2183490D1*
X2794413Y2163948D1*
X2784530Y2134748D1*
Y2115431D1*
X2794413Y2086231D1*
X2813730Y2066914D1*
X2833272Y2057031D1*
X2862247D1*
X2881789Y2066914D1*
X2901105Y2086231D1*
X2963851Y2193148D2*
Y2057031D1*
Y2154290D2*
X2993051Y2183490D1*
X3012592Y2193148D1*
X3041567D1*
X3061109Y2183490D1*
X3070767Y2154290D1*
Y2057031D1*
Y2154290D2*
X3099967Y2183490D1*
X3119509Y2193148D1*
X3148484D1*
X3168026Y2183490D1*
X3177909Y2154290D1*
Y2057031D1*
X3357229Y2193148D2*
Y2057031D1*
Y2163948D2*
X3337913Y2183490D1*
X3318371Y2193148D1*
X3289396D1*
X3269854Y2183490D1*
X3250537Y2163948D1*
X3240654Y2134748D1*
Y2115431D1*
X3250537Y2086231D1*
X3269854Y2066914D1*
X3289396Y2057031D1*
X3318371D1*
X3337913Y2066914D1*
X3357229Y2086231D1*
X3449175Y2261207D2*
Y2095890D1*
X3458833Y2066914D1*
X3478375Y2057031D1*
X3497692D1*
X3419975Y2193148D2*
X3488033D1*
X3560437Y2261207D2*
Y2057031D1*
Y2154290D2*
X3589637Y2183490D1*
X3609178Y2193148D1*
X3638378D1*
X3657695Y2183490D1*
X3667354Y2154290D1*
Y2057031D1*
X4054071Y2261207D2*
X3927613D1*
Y2057031D1*
Y2163948D2*
X4005330D1*
X4233392Y2193148D2*
Y2057031D1*
Y2163948D2*
X4214075Y2183490D1*
X4194533Y2193148D1*
X4165558D1*
X4146017Y2183490D1*
X4126700Y2163948D1*
X4116817Y2134748D1*
Y2115431D1*
X4126700Y2086231D1*
X4146017Y2066914D1*
X4165558Y2057031D1*
X4194533D1*
X4214075Y2066914D1*
X4233392Y2086231D1*
X4296137Y2261207D2*
Y2057031D1*
X4358882Y2261207D2*
Y2057031D1*
X4528544Y2163948D2*
X4518886Y2183490D1*
X4489686Y2193148D1*
X4460486D1*
X4431286Y2183490D1*
X4421627Y2163948D1*
X4431286Y2144631D1*
X4450827Y2134748D1*
X4499344Y2125090D1*
X4518886Y2115431D1*
X4528544Y2095890D1*
Y2086231D1*
X4518886Y2066914D1*
X4489686Y2057031D1*
X4460486D1*
X4431286Y2066914D1*
X4421627Y2086231D1*
X2631275Y6392952D2*
D82*
X2690405D1*
X2709963Y6400196D1*
X2716634Y6407608D1*
X2723154Y6422096D1*
Y6443996D1*
X2716634Y6458484D1*
X2709963Y6465896D1*
X2690405Y6473140D1*
X2631275D1*
Y6320008D1*
X2798255Y6422096D2*
X2785217Y6414852D1*
X2772026Y6400196D1*
X2765507Y6378296D1*
Y6363808D1*
X2772026Y6341908D1*
X2785217Y6327421D1*
X2798255Y6320008D1*
X2817965D1*
X2831156Y6327421D1*
X2844195Y6341908D1*
X2850866Y6363808D1*
Y6378296D1*
X2844195Y6400196D1*
X2831156Y6414852D1*
X2817965Y6422096D1*
X2798255D1*
X2893219D2*
Y6320008D1*
Y6378296D2*
X2899890Y6400196D1*
X2912929Y6414852D1*
X2926120Y6422096D1*
X2945830D1*
X3007892Y6473140D2*
Y6349152D1*
X3014412Y6327421D1*
X3027602Y6320008D1*
X3040641D1*
X2988182Y6422096D2*
X3034122D1*
X3082994Y6473140D2*
Y6320008D1*
X3204036Y6422096D2*
Y6320008D1*
Y6400196D2*
X3190997Y6414852D1*
X3177806Y6422096D1*
X3158248D1*
X3145057Y6414852D1*
X3132018Y6400196D1*
X3125347Y6378296D1*
Y6363808D1*
X3132018Y6341908D1*
X3145057Y6327421D1*
X3158248Y6320008D1*
X3177806D1*
X3190997Y6327421D1*
X3204036Y6341908D1*
X3246389Y6422096D2*
Y6320008D1*
Y6392952D2*
X3266099Y6414852D1*
X3279289Y6422096D1*
X3298848D1*
X3312038Y6414852D1*
X3318558Y6392952D1*
Y6320008D1*
X3439599Y6473140D2*
Y6320008D1*
Y6400196D2*
X3426560Y6414852D1*
X3413369Y6422096D1*
X3393659D1*
X3380620Y6414852D1*
X3367430Y6400196D1*
X3360910Y6378296D1*
Y6363808D1*
X3367430Y6341908D1*
X3380620Y6327421D1*
X3393659Y6320008D1*
X3413369D1*
X3426560Y6327421D1*
X3439599Y6341908D1*
X3720192Y6320008D2*
Y6473140D1*
X3667733Y6320008D1*
X3615274Y6473140D1*
Y6320008D1*
X3762545Y6378296D2*
X3841233D1*
Y6392952D1*
X3834714Y6407608D1*
X3828194Y6414852D1*
X3815004Y6422096D1*
X3795294D1*
X3782255Y6414852D1*
X3769064Y6400196D1*
X3762545Y6378296D1*
Y6363808D1*
X3769064Y6341908D1*
X3782255Y6327421D1*
X3795294Y6320008D1*
X3815004D1*
X3828194Y6327421D1*
X3841233Y6341908D1*
X3903296Y6473140D2*
Y6349152D1*
X3909816Y6327421D1*
X3923006Y6320008D1*
X3936045D1*
X3883586Y6422096D2*
X3929526D1*
X3978398D2*
Y6320008D1*
Y6378296D2*
X3985069Y6400196D1*
X3998108Y6414852D1*
X4011298Y6422096D1*
X4031008D1*
X4106110D2*
X4093071Y6414852D1*
X4079881Y6400196D1*
X4073361Y6378296D1*
Y6363808D1*
X4079881Y6341908D1*
X4093071Y6327421D1*
X4106110Y6320008D1*
X4125820D1*
X4139011Y6327421D1*
X4152050Y6341908D1*
X4158721Y6363808D1*
Y6378296D1*
X4152050Y6400196D1*
X4139011Y6414852D1*
X4125820Y6422096D1*
X4106110D1*
X5597442Y2027478D2*
D83*
Y1848825D1*
X5651038D1*
X5674033Y1857472D1*
X5689422Y1874375D1*
X5697028Y1891474D1*
X5704634Y1916827D1*
Y1959476D1*
X5697028Y1985026D1*
X5689422Y2001928D1*
X5674033Y2019027D1*
X5651038Y2027478D1*
X5597442D1*
X5754046Y1916827D2*
X5845849D1*
Y1933926D1*
X5838243Y1951025D1*
X5830637Y1959476D1*
X5815248Y1967927D1*
X5792253D1*
X5777041Y1959476D1*
X5761652Y1942377D1*
X5754046Y1916827D1*
Y1899925D1*
X5761652Y1874375D1*
X5777041Y1857472D1*
X5792253Y1848825D1*
X5815248D1*
X5830637Y1857472D1*
X5845849Y1874375D1*
X5895261Y1967927D2*
Y1789274D1*
Y1942377D2*
X5910650Y1959279D1*
X5925862Y1967927D1*
X5948857D1*
X5964246Y1959279D1*
X5979458Y1942377D1*
X5987241Y1916827D1*
Y1899728D1*
X5979458Y1874375D1*
X5964246Y1857276D1*
X5948857Y1848825D1*
X5925862D1*
X5910650Y1857276D1*
X5895261Y1874375D1*
X6128456Y1967927D2*
Y1848825D1*
Y1942377D2*
X6113244Y1959476D1*
X6097855Y1967927D1*
X6075037D1*
X6059648Y1959476D1*
X6044436Y1942377D1*
X6036653Y1916827D1*
Y1899925D1*
X6044436Y1874375D1*
X6059648Y1857472D1*
X6075037Y1848825D1*
X6097855D1*
X6113244Y1857472D1*
X6128456Y1874375D1*
X6177868Y1967927D2*
Y1848825D1*
Y1916827D2*
X6185650Y1942377D1*
X6200863Y1959476D1*
X6216251Y1967927D1*
X6239246D1*
X6311653Y2027478D2*
Y1882826D1*
X6319259Y1857472D1*
X6334648Y1848825D1*
X6349860D1*
X6288658Y1967927D2*
X6342254D1*
X6399272D2*
Y1848825D1*
Y1933926D2*
X6422267Y1959476D1*
X6437656Y1967927D1*
X6460474D1*
X6475863Y1959476D1*
X6483469Y1933926D1*
Y1848825D1*
Y1933926D2*
X6506464Y1959476D1*
X6521853Y1967927D1*
X6544671D1*
X6560060Y1959476D1*
X6567843Y1933926D1*
Y1848825D1*
X6617255Y1916827D2*
X6709058D1*
Y1933926D1*
X6701452Y1951025D1*
X6693846Y1959476D1*
X6678457Y1967927D1*
X6655462D1*
X6640250Y1959476D1*
X6624861Y1942377D1*
X6617255Y1916827D1*
Y1899925D1*
X6624861Y1874375D1*
X6640250Y1857472D1*
X6655462Y1848825D1*
X6678457D1*
X6693846Y1857472D1*
X6709058Y1874375D1*
X6758470Y1967927D2*
Y1848825D1*
Y1933926D2*
X6781465Y1959476D1*
X6796854Y1967927D1*
X6819672D1*
X6835061Y1959476D1*
X6842667Y1933926D1*
Y1848825D1*
X6915074Y2027478D2*
Y1882826D1*
X6922680Y1857472D1*
X6938069Y1848825D1*
X6953281D1*
X6892079Y1967927D2*
X6945675D1*
X7196442D2*
X7181230Y1959476D1*
X7165841Y1942377D1*
X7158235Y1916827D1*
Y1899925D1*
X7165841Y1874375D1*
X7181230Y1857472D1*
X7196442Y1848825D1*
X7219437D1*
X7234826Y1857472D1*
X7250038Y1874375D1*
X7257821Y1899925D1*
Y1916827D1*
X7250038Y1942377D1*
X7234826Y1959476D1*
X7219437Y1967927D1*
X7196442D1*
X7368435Y2027478D2*
X7353223D1*
X7337834Y2019027D1*
X7330228Y1993477D1*
Y1848825D1*
X7307233Y1967927D2*
X7360829D1*
X7688187Y1985026D2*
X7680581Y2001928D1*
X7665192Y2019027D1*
X7649980Y2027478D1*
X7619379D1*
X7603990Y2019027D1*
X7588778Y2001928D1*
X7580995Y1985026D1*
X7573389Y1959476D1*
Y1916827D1*
X7580995Y1891474D1*
X7588778Y1874375D1*
X7603990Y1857472D1*
X7619379Y1848825D1*
X7649980D1*
X7665192Y1857472D1*
X7680581Y1874375D1*
X7688187Y1891474D1*
X7775806Y1967927D2*
X7760594Y1959476D1*
X7745205Y1942377D1*
X7737599Y1916827D1*
Y1899925D1*
X7745205Y1874375D1*
X7760594Y1857472D1*
X7775806Y1848825D1*
X7798801D1*
X7814190Y1857472D1*
X7829402Y1874375D1*
X7837185Y1899925D1*
Y1916827D1*
X7829402Y1942377D1*
X7814190Y1959476D1*
X7798801Y1967927D1*
X7775806D1*
X7886597D2*
Y1848825D1*
Y1933926D2*
X7909592Y1959476D1*
X7924981Y1967927D1*
X7947799D1*
X7963188Y1959476D1*
X7970794Y1933926D1*
Y1848825D1*
Y1933926D2*
X7993789Y1959476D1*
X8009178Y1967927D1*
X8031996D1*
X8047385Y1959476D1*
X8055168Y1933926D1*
Y1848825D1*
X8104580Y1967927D2*
Y1789274D1*
Y1942377D2*
X8119969Y1959279D1*
X8135181Y1967927D1*
X8158176D1*
X8173565Y1959279D1*
X8188777Y1942377D1*
X8196560Y1916827D1*
Y1899728D1*
X8188777Y1874375D1*
X8173565Y1857276D1*
X8158176Y1848825D1*
X8135181D1*
X8119969Y1857276D1*
X8104580Y1874375D1*
X8245971Y1967927D2*
Y1882826D1*
X8253577Y1857472D1*
X8268966Y1848825D1*
X8291961D1*
X8307173Y1857472D1*
X8330168Y1882826D1*
Y1967927D2*
Y1848825D1*
X8402575Y2027478D2*
Y1882826D1*
X8410181Y1857472D1*
X8425570Y1848825D1*
X8440782D1*
X8379580Y1967927D2*
X8433176D1*
X8490194Y1916827D2*
X8581997D1*
Y1933926D1*
X8574391Y1951025D1*
X8566785Y1959476D1*
X8551396Y1967927D1*
X8528401D1*
X8513189Y1959476D1*
X8497800Y1942377D1*
X8490194Y1916827D1*
Y1899925D1*
X8497800Y1874375D1*
X8513189Y1857472D1*
X8528401Y1848825D1*
X8551396D1*
X8566785Y1857472D1*
X8581997Y1874375D1*
X8631409Y1967927D2*
Y1848825D1*
Y1916827D2*
X8639192Y1942377D1*
X8654404Y1959476D1*
X8669793Y1967927D1*
X8692788D1*
X9004934Y2001928D2*
X8989722Y2019027D1*
X8966727Y2027478D1*
X8936126D1*
X8913131Y2019027D1*
X8897742Y2001928D1*
Y1985026D1*
X8905525Y1967927D1*
X8913131Y1959476D1*
X8928343Y1951025D1*
X8974333Y1933926D1*
X8989722Y1925475D1*
X8997328Y1916827D1*
X9004934Y1899925D1*
Y1874375D1*
X8989722Y1857472D1*
X8966727Y1848825D1*
X8936126D1*
X8913131Y1857472D1*
X8897742Y1874375D1*
X9062129Y1967927D2*
X9107942Y1848825D1*
X9092730Y1814824D1*
X9077341Y1797725D1*
X9062129Y1789274D1*
X9054346D1*
X9153932Y1967927D2*
X9107942Y1848825D1*
X9287541Y1942377D2*
X9279935Y1959476D1*
X9256940Y1967927D1*
X9233945D1*
X9210950Y1959476D1*
X9203344Y1942377D1*
X9210950Y1925475D1*
X9226339Y1916827D1*
X9264546Y1908376D1*
X9279935Y1899925D1*
X9287541Y1882826D1*
Y1874375D1*
X9279935Y1857472D1*
X9256940Y1848825D1*
X9233945D1*
X9210950Y1857472D1*
X9203344Y1874375D1*
X9359948Y2027478D2*
Y1882826D1*
X9367554Y1857472D1*
X9382943Y1848825D1*
X9398155D1*
X9336953Y1967927D2*
X9390549D1*
X9447567Y1916827D2*
X9539370D1*
Y1933926D1*
X9531764Y1951025D1*
X9524158Y1959476D1*
X9508769Y1967927D1*
X9485774D1*
X9470562Y1959476D1*
X9455173Y1942377D1*
X9447567Y1916827D1*
Y1899925D1*
X9455173Y1874375D1*
X9470562Y1857472D1*
X9485774Y1848825D1*
X9508769D1*
X9524158Y1857472D1*
X9539370Y1874375D1*
X9588781Y1967927D2*
Y1848825D1*
Y1933926D2*
X9611776Y1959476D1*
X9627165Y1967927D1*
X9649984D1*
X9665372Y1959476D1*
X9672979Y1933926D1*
Y1848825D1*
Y1933926D2*
X9695974Y1959476D1*
X9711362Y1967927D1*
X9734181D1*
X9749570Y1959476D1*
X9757352Y1933926D1*
Y1848825D1*
X9890961Y1942377D2*
X9883355Y1959476D1*
X9860360Y1967927D1*
X9837365D1*
X9814370Y1959476D1*
X9806764Y1942377D1*
X9814370Y1925475D1*
X9829759Y1916827D1*
X9867966Y1908376D1*
X9883355Y1899925D1*
X9890961Y1882826D1*
Y1874375D1*
X9883355Y1857472D1*
X9860360Y1848825D1*
X9837365D1*
X9814370Y1857472D1*
X9806764Y1874375D1*
X7178673Y1681705D2*
X7068219D1*
Y1503051D1*
X7178673D1*
X7068219Y1596604D2*
X7136221D1*
X7233575Y1622154D2*
Y1503051D1*
Y1588153D2*
X7259125Y1613703D1*
X7276224Y1622154D1*
X7301578D1*
X7318677Y1613703D1*
X7327128Y1588153D1*
Y1503051D1*
X7484033Y1613703D2*
Y1477501D1*
X7475582Y1452148D1*
X7467131Y1443500D1*
X7450032Y1435049D1*
X7424482D1*
X7407580Y1443500D1*
X7484033Y1588153D2*
X7467131Y1605055D1*
X7450032Y1613703D1*
X7424482D1*
X7407580Y1605055D1*
X7390481Y1588153D1*
X7382030Y1562603D1*
Y1545504D1*
X7390481Y1520150D1*
X7407580Y1503051D1*
X7424482Y1494600D1*
X7450032D1*
X7467131Y1503051D1*
X7484033Y1520150D1*
X7538935Y1681705D2*
X7547386Y1673254D1*
X7556034Y1681705D1*
X7547386Y1690353D1*
X7538935Y1681705D1*
X7547386Y1622154D2*
Y1503051D1*
X7610936Y1622154D2*
Y1503051D1*
Y1588153D2*
X7636486Y1613703D1*
X7653585Y1622154D1*
X7678938D1*
X7696037Y1613703D1*
X7704488Y1588153D1*
Y1503051D1*
X7759390Y1571054D2*
X7861394D1*
Y1588153D1*
X7852942Y1605251D1*
X7844491Y1613703D1*
X7827392Y1622154D1*
X7801842D1*
X7784940Y1613703D1*
X7767841Y1596604D1*
X7759390Y1571054D1*
Y1554151D1*
X7767841Y1528601D1*
X7784940Y1511699D1*
X7801842Y1503051D1*
X7827392D1*
X7844491Y1511699D1*
X7861394Y1528601D1*
X7916296Y1571054D2*
X8018299D1*
Y1588153D1*
X8009848Y1605251D1*
X8001397Y1613703D1*
X7984298Y1622154D1*
X7958748D1*
X7941846Y1613703D1*
X7924747Y1596604D1*
X7916296Y1571054D1*
Y1554151D1*
X7924747Y1528601D1*
X7941846Y1511699D1*
X7958748Y1503051D1*
X7984298D1*
X8001397Y1511699D1*
X8018299Y1528601D1*
X8073201Y1622154D2*
Y1503051D1*
Y1571054D2*
X8081849Y1596604D1*
X8098751Y1613703D1*
X8115850Y1622154D1*
X8141400D1*
X8196302Y1681705D2*
X8204753Y1673254D1*
X8213401Y1681705D1*
X8204753Y1690353D1*
X8196302Y1681705D1*
X8204753Y1622154D2*
Y1503051D1*
X8268303Y1622154D2*
Y1503051D1*
Y1588153D2*
X8293853Y1613703D1*
X8310951Y1622154D1*
X8336305D1*
X8353404Y1613703D1*
X8361855Y1588153D1*
Y1503051D1*
X8518760Y1613703D2*
Y1477501D1*
X8510309Y1452148D1*
X8501858Y1443500D1*
X8484759Y1435049D1*
X8459209D1*
X8442307Y1443500D1*
X8518760Y1588153D2*
X8501858Y1605055D1*
X8484759Y1613703D1*
X8459209D1*
X8442307Y1605055D1*
X8425208Y1588153D1*
X8416757Y1562603D1*
Y1545504D1*
X8425208Y1520150D1*
X8442307Y1503051D1*
X8459209Y1494600D1*
X8484759D1*
X8501858Y1503051D1*
X8518760Y1520150D1*
X8712989Y1640240D2*
D82*
Y1487108D1*
X8661945Y1640240D2*
X8764032D1*
X8811091Y1545396D2*
X8898523D1*
Y1560052D1*
X8891279Y1574708D1*
X8884035Y1581952D1*
X8869379Y1589196D1*
X8847479D1*
X8832991Y1581952D1*
X8818335Y1567296D1*
X8811091Y1545396D1*
Y1530908D1*
X8818335Y1509008D1*
X8832991Y1494521D1*
X8847479Y1487108D1*
X8869379D1*
X8884035Y1494521D1*
X8898523Y1509008D1*
X9033182Y1567296D2*
X9018525Y1581952D1*
X9003869Y1589196D1*
X8982138D1*
X8967482Y1581952D1*
X8952994Y1567296D1*
X8945582Y1545396D1*
Y1530908D1*
X8952994Y1509008D1*
X8967482Y1494521D1*
X8982138Y1487108D1*
X9003869D1*
X9018525Y1494521D1*
X9033182Y1509008D1*
X9080240Y1640240D2*
Y1487108D1*
Y1560052D2*
X9102140Y1581952D1*
X9116797Y1589196D1*
X9138697D1*
X9153184Y1581952D1*
X9160428Y1560052D1*
Y1487108D1*
X9207487Y1589196D2*
Y1487108D1*
Y1560052D2*
X9229387Y1581952D1*
X9244043Y1589196D1*
X9265775D1*
X9280431Y1581952D1*
X9287675Y1560052D1*
Y1487108D1*
X9371121Y1589196D2*
X9356633Y1581952D1*
X9341977Y1567296D1*
X9334733Y1545396D1*
Y1530908D1*
X9341977Y1509008D1*
X9356633Y1494521D1*
X9371121Y1487108D1*
X9393021D1*
X9407677Y1494521D1*
X9422165Y1509008D1*
X9429577Y1530908D1*
Y1545396D1*
X9422165Y1567296D1*
X9407677Y1581952D1*
X9393021Y1589196D1*
X9371121D1*
X9476636Y1640240D2*
Y1487108D1*
X9560083Y1589196D2*
X9545595Y1581952D1*
X9530939Y1567296D1*
X9523695Y1545396D1*
Y1530908D1*
X9530939Y1509008D1*
X9545595Y1494521D1*
X9560083Y1487108D1*
X9581983D1*
X9596639Y1494521D1*
X9611126Y1509008D1*
X9618539Y1530908D1*
Y1545396D1*
X9611126Y1567296D1*
X9596639Y1581952D1*
X9581983Y1589196D1*
X9560083D1*
X9753029Y1581952D2*
Y1465208D1*
X9745785Y1443477D1*
X9738541Y1436065D1*
X9723885Y1428821D1*
X9701985D1*
X9687498Y1436065D1*
X9753029Y1560052D2*
X9738541Y1574540D1*
X9723885Y1581952D1*
X9701985D1*
X9687498Y1574540D1*
X9672841Y1560052D1*
X9665598Y1538152D1*
Y1523496D1*
X9672841Y1501765D1*
X9687498Y1487108D1*
X9701985Y1479865D1*
X9723885D1*
X9738541Y1487108D1*
X9753029Y1501765D1*
X9807500Y1589196D2*
X9851132Y1487108D1*
X9836644Y1457965D1*
X9821988Y1443308D1*
X9807500Y1436065D1*
X9800088D1*
X9894932Y1589196D2*
X9851132Y1487108D1*
X3002319Y3513466D2*
D84*
X2980587Y3502600D1*
X2958603Y3480616D1*
X2947737Y3447766D1*
Y3426034D1*
X2958603Y3393184D1*
X2980587Y3371453D1*
X3002319Y3360334D1*
X3035169D1*
X3057153Y3371453D1*
X3078884Y3393184D1*
X3090003Y3426034D1*
Y3447766D1*
X3078884Y3480616D1*
X3057153Y3502600D1*
X3035169Y3513466D1*
X3002319D1*
X3160591Y3590032D2*
X3171457Y3579166D1*
X3182575Y3590032D1*
X3171457Y3601150D1*
X3160591Y3590032D1*
X3171457Y3513466D2*
Y3360334D1*
X3286014Y3590032D2*
Y3404050D1*
X3296879Y3371453D1*
X3318864Y3360334D1*
X3340595D1*
X3253164Y3513466D2*
X3329729D1*
X3422049Y3382318D2*
X3411183Y3371200D1*
X3422049Y3360334D1*
X3433168Y3371200D1*
X3422049Y3382318D1*
X3503756Y3447766D2*
X3634903D1*
Y3469750D1*
X3624037Y3491734D1*
X3613172Y3502600D1*
X3591187Y3513466D1*
X3558337D1*
X3536606Y3502600D1*
X3514622Y3480616D1*
X3503756Y3447766D1*
Y3426034D1*
X3514622Y3393184D1*
X3536606Y3371453D1*
X3558337Y3360334D1*
X3591187D1*
X3613172Y3371453D1*
X3634903Y3393184D1*
X3836639Y3590032D2*
Y3360334D1*
Y3480616D2*
X3814907Y3502600D1*
X3792923Y3513466D1*
X3760073D1*
X3738341Y3502600D1*
X3716357Y3480616D1*
X3705491Y3447766D1*
Y3426034D1*
X3716357Y3393184D1*
X3738341Y3371453D1*
X3760073Y3360334D1*
X3792923D1*
X3814907Y3371453D1*
X3836639Y3393184D1*
X3907227Y3513466D2*
Y3404050D1*
X3918093Y3371453D1*
X3940077Y3360334D1*
X3972927D1*
X3994658Y3371453D1*
X4027508Y3404050D1*
Y3513466D2*
Y3360334D1*
X4098097D2*
X4251228Y3589779D1*
X4453216Y3480616D2*
X4431232Y3502600D1*
X4409248Y3513466D1*
X4376651D1*
X4354666Y3502600D1*
X4332935Y3480616D1*
X4321816Y3447766D1*
Y3426034D1*
X4332935Y3393184D1*
X4354666Y3371453D1*
X4376651Y3360334D1*
X4409248D1*
X4431232Y3371453D1*
X4453216Y3393184D1*
X4644086Y3480616D2*
X4633220Y3502600D1*
X4600370Y3513466D1*
X4567520D1*
X4534670Y3502600D1*
X4523805Y3480616D1*
X4534670Y3458884D1*
X4556655Y3447766D1*
X4611236Y3436900D1*
X4633220Y3426034D1*
X4644086Y3404050D1*
Y3393184D1*
X4633220Y3371453D1*
X4600370Y3360334D1*
X4567520D1*
X4534670Y3371453D1*
X4523805Y3393184D1*
X4714674Y3447766D2*
X4845822D1*
Y3469750D1*
X4834956Y3491734D1*
X4824090Y3502600D1*
X4802106Y3513466D1*
X4769256D1*
X4747524Y3502600D1*
X4725540Y3480616D1*
X4714674Y3447766D1*
Y3426034D1*
X4725540Y3393184D1*
X4747524Y3371453D1*
X4769256Y3360334D1*
X4802106D1*
X4824090Y3371453D1*
X4845822Y3393184D1*
X4949260Y3590032D2*
Y3404050D1*
X4960126Y3371453D1*
X4982110Y3360334D1*
X5003841D1*
X4916410Y3513466D2*
X4992976D1*
X6324044Y5696605D2*
D82*
X6404063D1*
X6360432Y5638317D1*
X6382332D1*
X6396820Y5631073D1*
X6404063Y5623829D1*
X6411476Y5601929D1*
Y5587442D1*
X6404063Y5565542D1*
X6389576Y5550886D1*
X6367676Y5543642D1*
X6345776D1*
X6324044Y5550886D1*
X6316800Y5558298D1*
X6309388Y5572786D1*
X6465778Y5558298D2*
X6458535Y5550886D1*
X6465778Y5543642D1*
X6473191Y5550886D1*
X6465778Y5558298D1*
X6534906Y5696605D2*
X6614925D1*
X6571293Y5638317D1*
X6593193D1*
X6607681Y5631073D1*
X6614925Y5623829D1*
X6622337Y5601929D1*
Y5587442D1*
X6614925Y5565542D1*
X6600437Y5550886D1*
X6578537Y5543642D1*
X6556637D1*
X6534906Y5550886D1*
X6527662Y5558298D1*
X6520250Y5572786D1*
X6669396Y5696773D2*
X6727684Y5543642D1*
X6785971Y5696773D1*
X9382620Y5663539D2*
X9375376Y5678027D1*
X9360720Y5692683D1*
X9346232Y5699927D1*
X9317088D1*
X9302432Y5692683D1*
X9287944Y5678027D1*
X9280532Y5663539D1*
X9273288Y5641639D1*
Y5605083D1*
X9280532Y5583351D1*
X9287944Y5568695D1*
X9302432Y5554207D1*
X9317088Y5546795D1*
X9346232D1*
X9360720Y5554207D1*
X9375376Y5568695D1*
X9382620Y5583351D1*
Y5605083D1*
X9346232D1*
X9531766Y5699927D2*
Y5546795D1*
X9429678Y5699927D1*
Y5546795D1*
X9578825Y5699927D2*
Y5546795D1*
X9629869D1*
X9651769Y5554207D1*
X9666425Y5568695D1*
X9673669Y5583351D1*
X9680913Y5605083D1*
Y5641639D1*
X9673669Y5663539D1*
X9666425Y5678027D1*
X9651769Y5692683D1*
X9629869Y5699927D1*
X9578825D1*
X6898620Y4617425D2*
D80*
X6908391Y4622367D1*
X6922991Y4636854D1*
Y4534879D1*
X6983563Y4636854D2*
X6968963Y4632025D1*
X6959192Y4617425D1*
X6954363Y4593167D1*
Y4578567D1*
X6959192Y4554308D1*
X6968963Y4539708D1*
X6983563Y4534879D1*
X6993222D1*
X7007822Y4539708D1*
X7017480Y4554308D1*
X7022422Y4578567D1*
Y4593167D1*
X7017480Y4617425D1*
X7007822Y4632025D1*
X6993222Y4636854D1*
X6983563D1*
X7017480Y4617425D2*
X6959192Y4554308D1*
X6969719Y4339254D2*
X6964777Y4324654D1*
X6955119Y4314883D1*
X6940519Y4310054D1*
X6935690D1*
X6921090Y4314883D1*
X6911431Y4324654D1*
X6906490Y4339254D1*
Y4344083D1*
X6911431Y4358683D1*
X6921090Y4368342D1*
X6935690Y4373171D1*
X6940519D1*
X6955119Y4368342D1*
X6964777Y4358683D1*
X6969719Y4339254D1*
Y4314883D1*
X6964777Y4290625D1*
X6955119Y4276025D1*
X6940519Y4271196D1*
X6930861D1*
X6916261Y4276025D1*
X6911431Y4285796D1*
X6903561Y4125224D2*
Y4057278D1*
Y4033020D2*
X6898620Y4028078D1*
X6903561Y4023249D1*
X6908391Y4028078D1*
X6903561Y4033020D1*
X6939763Y4076707D2*
X6983451D1*
X6998051Y4081649D1*
X7002992Y4086478D1*
X7007822Y4096137D1*
Y4105907D1*
X7002992Y4115566D1*
X6998051Y4120507D1*
X6983451Y4125337D1*
X6939763D1*
Y4023249D1*
X6973792Y4076707D2*
X7007822Y4023249D1*
X7107253Y4110737D2*
X7097594Y4120507D1*
X7082994Y4125337D1*
X7063565D1*
X7048965Y4120507D1*
X7039194Y4110737D1*
Y4101078D1*
X7044136Y4091307D1*
X7048965Y4086478D1*
X7058623Y4081649D1*
X7087823Y4071878D1*
X7097594Y4067049D1*
X7102423Y4062107D1*
X7107253Y4052449D1*
Y4037849D1*
X7097594Y4028190D1*
X7082994Y4023249D1*
X7063565D1*
X7048965Y4028190D1*
X7039194Y4037849D1*
X7172654Y4125337D2*
Y4023249D1*
X7138625Y4125337D2*
X7206684D1*
X6942555Y3873348D2*
X6928067Y3868518D1*
X6923126Y3858860D1*
Y3849089D1*
X6928067Y3839431D1*
X6937726Y3834489D1*
X6957155Y3829660D1*
X6971755Y3824831D1*
X6981413Y3815060D1*
X6986243Y3805401D1*
Y3790801D1*
X6981413Y3781143D1*
X6976584Y3776201D1*
X6961984Y3771372D1*
X6942555D1*
X6928067Y3776201D1*
X6923126Y3781143D1*
X6918296Y3790801D1*
Y3805401D1*
X6923126Y3815060D1*
X6932896Y3824831D1*
X6947384Y3829660D1*
X6966813Y3834489D1*
X6976584Y3839431D1*
X6981413Y3849089D1*
Y3858860D1*
X6976584Y3868518D1*
X6961984Y3873348D1*
X6942555D1*
X6933792Y3503749D2*
X6982422Y3605724D1*
X6914363D1*
X6976584Y3355100D2*
X6971755Y3364758D1*
X6957155Y3369588D1*
X6947496D1*
X6932896Y3364758D1*
X6923126Y3350158D1*
X6918296Y3325900D1*
Y3301641D1*
X6923126Y3282212D1*
X6932896Y3272441D1*
X6947496Y3267612D1*
X6952326D1*
X6966813Y3272441D1*
X6976584Y3282212D1*
X6981413Y3296812D1*
Y3301641D1*
X6976584Y3316241D1*
X6966813Y3325900D1*
X6952326Y3330729D1*
X6947496D1*
X6932896Y3325900D1*
X6923126Y3316241D1*
X6918296Y3301641D1*
X9231856Y4634894D2*
X9217256Y4630065D1*
X9207486Y4615465D1*
X9202656Y4591207D1*
Y4576607D1*
X9207486Y4552348D1*
X9217256Y4537748D1*
X9231856Y4532919D1*
X9241515D1*
X9256115Y4537748D1*
X9265773Y4552348D1*
X9270715Y4576607D1*
Y4591207D1*
X9265773Y4615465D1*
X9256115Y4630065D1*
X9241515Y4634894D1*
X9231856D1*
X9265773Y4615465D2*
X9207486Y4552348D1*
X9228676Y4368268D2*
X9238447Y4373210D1*
X9253047Y4387698D1*
Y4285722D1*
X9220608Y4112993D2*
Y4117822D1*
X9225437Y4127593D1*
X9230266Y4132422D1*
X9240037Y4137251D1*
X9259466D1*
X9269125Y4132422D1*
X9273954Y4127593D1*
X9278896Y4117822D1*
Y4108163D1*
X9273954Y4098393D1*
X9264296Y4083905D1*
X9215666Y4035276D1*
X9283725D1*
X9218931Y3867288D2*
X9272277D1*
X9243189Y3828429D1*
X9257789D1*
X9267447Y3823600D1*
X9272277Y3818771D1*
X9277218Y3804171D1*
Y3794512D1*
X9272277Y3779912D1*
X9262618Y3770141D1*
X9248018Y3765312D1*
X9233418D1*
X9218931Y3770141D1*
X9214101Y3775083D1*
X9209160Y3784741D1*
X9251286Y3518116D2*
Y3620091D1*
X9202656Y3552145D1*
X9275544D1*
X9260944Y3358414D2*
X9212427D1*
X9207598Y3314727D1*
X9212427Y3319556D1*
X9227027Y3324497D1*
X9241515D1*
X9256115Y3319556D1*
X9265886Y3309897D1*
X9270715Y3295297D1*
Y3285639D1*
X9265886Y3271039D1*
X9256115Y3261268D1*
X9241515Y3256439D1*
X9227027D1*
X9212427Y3261268D1*
X9207598Y3266210D1*
X9202656Y3275868D1*
X7608047Y4916190D2*
Y4857903D1*
X7583676Y4901703D2*
X7632306Y4872503D1*
Y4901703D2*
X7583676Y4872503D1*
X2479807Y5553400D2*
D86*
X2467734Y5577547D1*
X2443307Y5601973D1*
X2419161Y5614047D1*
X2370588D1*
X2346161Y5601973D1*
X2322015Y5577547D1*
X2309661Y5553400D1*
X2297588Y5516900D1*
Y5455973D1*
X2309661Y5419754D1*
X2322015Y5395327D1*
X2346161Y5371181D1*
X2370588Y5358827D1*
X2419161D1*
X2443307Y5371181D1*
X2467734Y5395327D1*
X2479807Y5419754D1*
X2618885Y5528973D2*
X2594738Y5516900D1*
X2570312Y5492473D1*
X2558238Y5455973D1*
Y5431827D1*
X2570312Y5395327D1*
X2594738Y5371181D1*
X2618885Y5358827D1*
X2655385D1*
X2679812Y5371181D1*
X2703958Y5395327D1*
X2716312Y5431827D1*
Y5455973D1*
X2703958Y5492473D1*
X2679812Y5516900D1*
X2655385Y5528973D1*
X2618885D1*
X2794743D2*
Y5358827D1*
Y5480400D2*
X2831243Y5516900D1*
X2855670Y5528973D1*
X2891889D1*
X2916316Y5516900D1*
X2928389Y5480400D1*
Y5358827D1*
Y5480400D2*
X2964889Y5516900D1*
X2989316Y5528973D1*
X3025535D1*
X3049962Y5516900D1*
X3062316Y5480400D1*
Y5358827D1*
X3140747Y5528973D2*
Y5273754D1*
Y5492473D2*
X3165174Y5516620D1*
X3189320Y5528973D1*
X3225820D1*
X3250247Y5516620D1*
X3274393Y5492473D1*
X3286747Y5455973D1*
Y5431547D1*
X3274393Y5395327D1*
X3250247Y5370900D1*
X3225820Y5358827D1*
X3189320D1*
X3165174Y5370900D1*
X3140747Y5395327D1*
X3365179Y5528973D2*
Y5407400D1*
X3377252Y5371181D1*
X3401679Y5358827D1*
X3438179D1*
X3462325Y5371181D1*
X3498825Y5407400D1*
Y5528973D2*
Y5358827D1*
X3613756Y5614047D2*
Y5407400D1*
X3625829Y5371181D1*
X3650256Y5358827D1*
X3674402D1*
X3577256Y5528973D2*
X3662329D1*
X3752834Y5455973D2*
X3898553D1*
Y5480400D1*
X3886480Y5504827D1*
X3874407Y5516900D1*
X3849980Y5528973D1*
X3813480D1*
X3789334Y5516900D1*
X3764907Y5492473D1*
X3752834Y5455973D1*
Y5431827D1*
X3764907Y5395327D1*
X3789334Y5371181D1*
X3813480Y5358827D1*
X3849980D1*
X3874407Y5371181D1*
X3898553Y5395327D1*
X3976984Y5528973D2*
Y5358827D1*
Y5455973D2*
X3989338Y5492473D1*
X4013484Y5516900D1*
X4037911Y5528973D1*
X4074411D1*
X3450261Y4937033D2*
X3426115Y4961460D1*
X3389615Y4973533D1*
X3341041D1*
X3304541Y4961460D1*
X3280115Y4937033D1*
Y4912887D1*
X3292468Y4888460D1*
X3304541Y4876387D1*
X3328688Y4864314D1*
X3401688Y4839887D1*
X3426115Y4827814D1*
X3438188Y4815460D1*
X3450261Y4791314D1*
Y4754814D1*
X3426115Y4730668D1*
X3389615Y4718314D1*
X3341041D1*
X3304541Y4730668D1*
X3280115Y4754814D1*
X3589338Y4888460D2*
X3565192Y4876387D1*
X3540765Y4851960D1*
X3528692Y4815460D1*
Y4791314D1*
X3540765Y4754814D1*
X3565192Y4730668D1*
X3589338Y4718314D1*
X3625838D1*
X3650265Y4730668D1*
X3674411Y4754814D1*
X3686765Y4791314D1*
Y4815460D1*
X3674411Y4851960D1*
X3650265Y4876387D1*
X3625838Y4888460D1*
X3589338D1*
X3862343Y4973533D2*
X3838196D1*
X3813770Y4961460D1*
X3801696Y4924960D1*
Y4718314D1*
X3765196Y4888460D2*
X3850270D1*
X3977274Y4973533D2*
Y4766887D1*
X3989347Y4730668D1*
X4013774Y4718314D1*
X4037920D1*
X3940774Y4888460D2*
X4025847D1*
X4116352D2*
X4164925Y4718314D1*
X4213498Y4888460D1*
X4262071Y4718314D1*
X4310644Y4888460D1*
X4534794D2*
Y4718314D1*
Y4851960D2*
X4510648Y4876387D1*
X4486221Y4888460D1*
X4450002D1*
X4425575Y4876387D1*
X4401429Y4851960D1*
X4389075Y4815460D1*
Y4791314D1*
X4401429Y4754814D1*
X4425575Y4730668D1*
X4450002Y4718314D1*
X4486221D1*
X4510648Y4730668D1*
X4534794Y4754814D1*
X4613226Y4888460D2*
Y4718314D1*
Y4815460D2*
X4625580Y4851960D1*
X4649726Y4876387D1*
X4674153Y4888460D1*
X4710653D1*
X4789084Y4815460D2*
X4934803D1*
Y4839887D1*
X4922730Y4864314D1*
X4910657Y4876387D1*
X4886230Y4888460D1*
X4849730D1*
X4825584Y4876387D1*
X4801157Y4851960D1*
X4789084Y4815460D1*
Y4791314D1*
X4801157Y4754814D1*
X4825584Y4730668D1*
X4849730Y4718314D1*
X4886230D1*
X4910657Y4730668D1*
X4934803Y4754814D1*
X4275130Y4324430D2*
X4117338D1*
Y4069211D1*
X4275130D1*
X4117338Y4202857D2*
X4214484D1*
X4353562Y4239357D2*
Y4069211D1*
Y4190784D2*
X4390062Y4227284D1*
X4414488Y4239357D1*
X4450708D1*
X4475135Y4227284D1*
X4487208Y4190784D1*
Y4069211D1*
Y4190784D2*
X4523708Y4227284D1*
X4548135Y4239357D1*
X4584354D1*
X4608781Y4227284D1*
X4621135Y4190784D1*
Y4069211D1*
X4699566Y4324430D2*
Y4069211D1*
Y4202857D2*
X4723993Y4227284D1*
X4748139Y4239357D1*
X4784639D1*
X4808785Y4227284D1*
X4833212Y4202857D1*
X4845285Y4166357D1*
Y4142211D1*
X4833212Y4105711D1*
X4808785Y4081564D1*
X4784639Y4069211D1*
X4748139D1*
X4723993Y4081564D1*
X4699566Y4105711D1*
X4923717Y4166357D2*
X5069436D1*
Y4190784D1*
X5057363Y4215211D1*
X5045290Y4227284D1*
X5020863Y4239357D1*
X4984363D1*
X4960217Y4227284D1*
X4935790Y4202857D1*
X4923717Y4166357D1*
Y4142211D1*
X4935790Y4105711D1*
X4960217Y4081564D1*
X4984363Y4069211D1*
X5020863D1*
X5045290Y4081564D1*
X5069436Y4105711D1*
X5293586Y4324430D2*
Y4069211D1*
Y4202857D2*
X5269440Y4227284D1*
X5245013Y4239357D1*
X5208513D1*
X5184367Y4227284D1*
X5159940Y4202857D1*
X5147867Y4166357D1*
Y4142211D1*
X5159940Y4105711D1*
X5184367Y4081564D1*
X5208513Y4069211D1*
X5245013D1*
X5269440Y4081564D1*
X5293586Y4105711D1*
X5517737Y4324430D2*
Y4069211D1*
Y4202857D2*
X5493591Y4227284D1*
X5469164Y4239357D1*
X5432664D1*
X5408518Y4227284D1*
X5384091Y4202857D1*
X5372018Y4166357D1*
Y4142211D1*
X5384091Y4105711D1*
X5408518Y4081564D1*
X5432664Y4069211D1*
X5469164D1*
X5493591Y4081564D1*
X5517737Y4105711D1*
X5596168Y4166357D2*
X5741888D1*
Y4190784D1*
X5729815Y4215211D1*
X5717741Y4227284D1*
X5693315Y4239357D1*
X5656815D1*
X5632668Y4227284D1*
X5608241Y4202857D1*
X5596168Y4166357D1*
Y4142211D1*
X5608241Y4105711D1*
X5632668Y4081564D1*
X5656815Y4069211D1*
X5693315D1*
X5717741Y4081564D1*
X5741888Y4105711D1*
X5966038Y4324430D2*
Y4069211D1*
Y4202857D2*
X5941892Y4227284D1*
X5917465Y4239357D1*
X5880965D1*
X5856819Y4227284D1*
X5832392Y4202857D1*
X5820319Y4166357D1*
Y4142211D1*
X5832392Y4105711D1*
X5856819Y4081564D1*
X5880965Y4069211D1*
X5917465D1*
X5941892Y4081564D1*
X5966038Y4105711D1*
X8858791Y7977240D2*
D80*
X8795561D1*
Y7875152D1*
Y7928610D2*
X8834420D1*
X8890163Y7943210D2*
Y7894581D1*
X8894992Y7880093D1*
X8904763Y7875152D1*
X8919363D1*
X8929022Y7880093D1*
X8943622Y7894581D1*
Y7943210D2*
Y7875152D1*
X9028453Y7928610D2*
X9023623Y7938381D1*
X9009023Y7943210D1*
X8994423D1*
X8979823Y7938381D1*
X8974994Y7928610D1*
X8979823Y7918952D1*
X8989594Y7914010D1*
X9013853Y7909181D1*
X9023623Y7904352D1*
X9028453Y7894581D1*
Y7889752D1*
X9023623Y7880093D1*
X9009023Y7875152D1*
X8994423D1*
X8979823Y7880093D1*
X8974994Y7889752D1*
X9059825Y7914010D2*
X9118113D1*
Y7923781D1*
X9113284Y7933552D1*
X9108454Y7938381D1*
X9098684Y7943210D1*
X9084084D1*
X9074425Y7938381D1*
X9064654Y7928610D1*
X9059825Y7914010D1*
Y7904352D1*
X9064654Y7889752D1*
X9074425Y7880093D1*
X9084084Y7875152D1*
X9098684D1*
X9108454Y7880093D1*
X9118113Y7889752D1*
X2151527Y2758679D2*
X2190386Y2792708D1*
X2229244Y2758679D1*
X2260617Y2673886D2*
X2352934D1*
X2384306Y2758679D2*
X2423165Y2792708D1*
X2462023Y2758679D1*
X1562211Y1937422D2*
X1601069Y1971451D1*
X1639928Y1937422D1*
X1671300Y1852630D2*
X1763617D1*
X1794990Y1937422D2*
X1833848Y1971451D1*
X1872706Y1937422D1*
M02*
