G04 DipTrace 3.0.0.2*
G04 BoardOutline.gbr*
%MOMM*%
G04 #@! TF.FileFunction,Profile*
G04 #@! TF.Part,Single*
%ADD11C,0.1524*%
%FSLAX35Y35*%
G04*
G71*
G90*
G75*
G01*
G04 BoardOutline*
%LPD*%
X4609537Y1127747D2*
D11*
X4577790Y1461087D1*
X5054833Y1400887D1*
X5204600Y2303820D1*
X5460840Y2118457D1*
X5488100Y2145717D1*
X5752517Y2846283D1*
X5946910Y4495740D1*
X5527707Y5873123D1*
X5005840Y6506207D1*
X5399380Y7199177D1*
X5348047Y8131693D1*
X4868957Y8687780D1*
X4722967Y9029410D1*
X4846110Y9637580D1*
X4799867Y9766850D1*
X4766233Y9781563D1*
X4608590Y9819397D1*
X4494033Y9835163D1*
X4376323Y9674363D1*
X3613243Y9218693D1*
X3135930Y9313480D1*
X2392223Y9123907D1*
X1745673Y9560920D1*
X1542917Y9515863D1*
X1518137Y9524877D1*
X1459563Y9432510D1*
X1619560Y8574707D1*
X1276687Y7879307D1*
X1112497Y7386730D1*
X1238053Y6691327D1*
X1749947Y6208410D1*
X1250430Y5409910D1*
X1000760Y4830893D1*
X1011387Y3927837D1*
X1399170Y2557317D1*
X2010060Y1739253D1*
X2163737Y1933603D1*
X2308377Y1939760D1*
X2379123Y1224373D1*
X3053950Y1397593D1*
Y1270607D1*
Y1222987D1*
X3069823Y1000760D1*
X4609537Y1127747D1*
X5959350Y4493147D2*
M02*
