G04 DipTrace 3.0.0.2*
G04 Bottom.gbr*
%MOMM*%
G04 #@! TF.FileFunction,Copper,L2,Bot*
G04 #@! TF.Part,Single*
%AMOUTLINE0*5,1,4,0,0,2.26276,30.00054*%
%AMOUTLINE3*5,1,4,0,0,2.26276,-30.00054*%
%AMOUTLINE6*5,1,4,0,0,2.12133,-90.0*%
%AMOUTLINE9*5,1,4,0,0,2.12133,-180.0*%
%AMOUTLINE12*5,1,4,0,0,2.12129,-124.13655*%
%AMOUTLINE15*5,1,4,0,0,2.12134,-123.01836*%
%AMOUTLINE18*
4,1,16,
-0.68573,-0.80917,
-0.58493,-1.12737,
-0.35607,-1.37033,
-0.04443,-1.4899,
0.2882,-1.46243,
0.576,-1.29337,
0.76193,-1.01617,
0.80917,-0.68573,
0.68573,0.80917,
0.58493,1.12737,
0.35607,1.37033,
0.04443,1.4899,
-0.2882,1.46243,
-0.576,1.29337,
-0.76193,1.01617,
-0.80917,0.68573,
-0.68573,-0.80917,
0*%
G04 #@! TA.AperFunction,Conductor*
%ADD13C,0.254*%
%ADD14C,0.508*%
G04 #@! TA.AperFunction,CopperBalancing*
%ADD15C,0.635*%
%ADD16C,0.3302*%
G04 #@! TA.AperFunction,ComponentPad*
%ADD17C,1.6*%
%ADD18C,1.27*%
%ADD19R,1.27X1.27*%
%ADD20O,1.05X1.7*%
%ADD21R,1.05X1.7*%
%ADD22C,1.5*%
%ADD23R,1.7X1.7*%
%ADD24C,1.7*%
%ADD25C,1.27*%
%ADD26C,1.524*%
%ADD27C,1.524*%
%ADD28R,2.7X1.6*%
G04 #@! TA.AperFunction,ComponentPad*
%ADD29C,1.5*%
%ADD30R,1.5X1.5*%
%ADD32R,0.95X2.15*%
%ADD33R,3.25X2.15*%
G04 #@! TA.AperFunction,ViaPad*
%ADD34C,1.016*%
G04 #@! TA.AperFunction,ComponentPad*
%ADD88OUTLINE0*%
%ADD91OUTLINE3*%
%ADD94OUTLINE6*%
%ADD97OUTLINE9*%
%ADD100OUTLINE12*%
%ADD103OUTLINE15*%
%ADD106OUTLINE18*%
%FSLAX35Y35*%
G04*
G71*
G90*
G75*
G01*
G04 Bottom*
%LPD*%
X3225560Y3598747D2*
D13*
X4179127D1*
X4208653Y3628273D1*
X4429430D1*
X4634727Y3833570D1*
X4765193Y4043360D2*
X5297020D1*
X5493647Y4239987D1*
Y4310880D1*
X3225560Y4614747D2*
X4179127D1*
X4208653Y4644273D1*
Y4619880D1*
X4595733D1*
X4939587Y4276027D1*
X5587397Y3944638D2*
Y3835801D1*
X5466697Y3715100D1*
X4924975D1*
X4839054Y3801021D1*
X4208653Y4390273D2*
X3255087D1*
X3225560Y4360747D1*
X4720967Y3025065D2*
X5308170D1*
X5466363Y3183258D1*
X2895217Y3111913D2*
X2572670Y2789367D1*
X2400067D1*
X4208653Y3882273D2*
X3255087D1*
X3225560Y3852747D1*
X5763493Y4342627D2*
X5745010D1*
X5350503Y3948120D1*
X4574713D1*
X4508867Y3882273D1*
X4208653D1*
X3225560Y4868747D2*
X4179127D1*
X4208653Y4898273D1*
X3502743Y8557823D2*
X3483887D1*
X2958710Y8032647D1*
Y5135597D1*
X3225560Y4868747D1*
X3598667Y2297293D2*
Y2877293D1*
Y2297293D2*
X3590567D1*
Y2540473D1*
X4210680D1*
D14*
X4637093Y2114060D1*
X4942047D1*
X4923867Y3359083D2*
D13*
X5528590D1*
X5672210Y3502703D1*
X4814383Y2584873D2*
X5401593D1*
X5559783Y2743063D1*
X1753827Y9183070D2*
X1933433Y9003463D1*
X2051387D1*
X2564000Y8490850D1*
X2855560D1*
X2879717Y8515007D1*
X2847597D1*
Y7477080D1*
X2879717Y7444960D1*
Y5538903D1*
X2463560Y5122747D1*
X2847597Y7461207D2*
Y7477080D1*
X2463560Y5122747D2*
X2693943D1*
X3006330Y4810360D1*
Y3445253D1*
X3574290Y2877293D1*
X3598667D1*
X2821333D1*
X2590547Y2646507D1*
X2431813D1*
X2182920Y2397613D1*
X1680690D1*
X1669893Y2408407D1*
X4471873Y9412100D2*
X4292267Y9232493D1*
X4288567D1*
X3899737Y8843663D1*
Y8250300D1*
X3885237Y8235800D1*
X3225560Y5122747D2*
X4415980D1*
X4542967Y5249733D1*
Y5202113D1*
X4574713D1*
X4558840Y5217987D1*
X2625370Y2984927D2*
X2548007D1*
X2511180Y2948100D1*
X2193713D1*
X2156887Y2984927D1*
X1461333D1*
X1413620Y3032640D1*
X3885237Y8235800D2*
X3272977D1*
X3038077Y8000900D1*
Y5310230D1*
X3225560Y5122747D1*
X3455607Y1535764D2*
Y1551247D1*
X2844520D1*
X3638187Y1948080D2*
D14*
X3840277D1*
X4693983D1*
X4773350Y1868713D1*
X4876307D1*
X3828667Y2297293D2*
Y1959690D1*
X3840277Y1948080D1*
X2143683Y8712227D2*
D13*
X2176983D1*
X2679337Y8209873D1*
Y8045497D1*
X2665323Y8031483D1*
X4162657Y8938823D2*
X4149210D1*
Y8245773D1*
X4139237Y8235800D1*
X2648580Y2135587D2*
Y1985287D1*
X2892140Y1741727D1*
X3735143D1*
X3904080Y1572790D1*
X1332883Y4873297D2*
X2459010D1*
X2463560Y4868747D1*
X1332883Y4619297D2*
X2459010D1*
X2463560Y4614747D1*
X2669913Y1678233D2*
X3582857D1*
X3704757Y1556334D1*
X3609400Y7090623D2*
X3733843D1*
X5416000Y5408467D1*
Y5297353D1*
X3482400Y7090623D2*
Y7021457D1*
X3596280Y6907577D1*
X3789903D1*
X5146153Y5551327D1*
Y5265607D1*
X1332883Y3603297D2*
X2459010D1*
X2463560Y3598747D1*
X1332883Y3857297D2*
X2459010D1*
X2463560Y3852747D1*
X1332883Y4111297D2*
X2459010D1*
X2463560Y4106747D1*
Y4360747D2*
X1337433D1*
X1332883Y4365297D1*
X3228400Y7090623D2*
Y7016437D1*
X3429453Y6815383D1*
X3723363D1*
X4860433Y5678313D1*
Y5233860D1*
X4153233Y1593363D2*
Y1631670D1*
D14*
X3958730Y1826173D1*
X3014047D1*
X2987380Y1852840D1*
Y1963953D1*
X3368667Y2297293D2*
X3064743D1*
X3011403Y2243953D1*
D13*
X2987380D1*
X3225560Y4106747D2*
X4179127D1*
X4208653Y4136273D1*
X5207927Y4279133D2*
Y4200373D1*
X5146153Y4138600D1*
X4210980D1*
X4208653Y4136273D1*
D34*
X4634727Y3833570D3*
X4765193Y4043360D3*
X2895217Y3111913D3*
X2847597Y7461207D3*
X2625370Y2984927D3*
X3638187Y1948080D3*
X2669913Y1678233D3*
X3029983Y3397957D2*
D15*
X4681057D1*
X3030975Y3334790D2*
X4680189D1*
X3031967Y3271623D2*
X4679197D1*
X3032835Y3208457D2*
X4678205D1*
X3033828Y3145290D2*
X4589156D1*
X3034820Y3082123D2*
X4553313D1*
X3035688Y3018957D2*
X3357479D1*
X3839856D2*
X4565219D1*
X3036680Y2955790D2*
X3357479D1*
X3839856D2*
X4578738D1*
X3037672Y2892623D2*
X3357479D1*
X3839856D2*
X4598954D1*
X3038665Y2829457D2*
X3357479D1*
X3839856D2*
X4672500D1*
X3039533Y2766290D2*
X3357479D1*
X3839856D2*
X4671508D1*
X3040525Y2703123D2*
X3357479D1*
X3839856D2*
X4670639D1*
X3041517Y2639957D2*
X4669647D1*
X3042385Y2576790D2*
X4660842D1*
X3043377Y2513623D2*
X4667663D1*
X4585766Y2952159D2*
X4560256Y3073436D1*
X4560039Y3090452D1*
X4563800Y3107048D1*
X4571331Y3122308D1*
X4582217Y3135387D1*
X4595855Y3145565D1*
X4611492Y3152277D1*
X4684093Y3167913D1*
X4688417Y3461226D1*
X3278381Y3461123D1*
X3259968Y3455429D1*
X3237124Y3451811D1*
X3213996D1*
X3191152Y3455429D1*
X3173016Y3461152D1*
X3022645Y3461123D1*
X3038080Y2476984D1*
X3718557Y2477183D1*
X4673577Y2476984D1*
X4674207Y2539326D1*
X4668808Y2561815D1*
X4666993Y2584872D1*
X4668808Y2607929D1*
X4674207Y2630418D1*
X4675916Y2636192D1*
X4679390Y2865485D1*
X4661252Y2863764D1*
X4644412Y2866211D1*
X4628608Y2872522D1*
X4614714Y2882348D1*
X4603498Y2895145D1*
X4595580Y2910208D1*
X4592357Y2921100D1*
X4585766Y2952159D1*
X3370127Y3057183D2*
X3833557D1*
Y2697403D1*
X3363777D1*
Y3057183D1*
X3370127D1*
X3363876Y3057108D2*
D16*
X3833459Y2697478D1*
Y3057108D2*
X3363876Y2697478D1*
D17*
X4876307Y1868713D3*
D88*
X4942047Y2114060D3*
D17*
X2844520Y1551247D3*
D91*
X2599173Y1485507D3*
D18*
X2665323Y8031483D3*
D19*
X2411323D3*
D18*
X4139237Y8235800D3*
D19*
X3885237D3*
D20*
X3609400Y7090623D3*
X3355400D3*
D21*
X3228400D3*
D20*
X3482400D3*
D94*
X1753827Y9183070D3*
D22*
X1933433Y9003463D3*
D97*
X4471873Y9412100D3*
D22*
X4292267Y9232493D3*
D23*
X4208653Y4898273D3*
D24*
Y4644273D3*
Y4390273D3*
Y4136273D3*
Y3882273D3*
Y3628273D3*
D23*
X1332883Y4873297D3*
D24*
Y4619297D3*
Y4365297D3*
Y4111297D3*
Y3857297D3*
Y3603297D3*
D18*
X2879717Y8515007D3*
D25*
X2143683Y8712227D3*
D18*
X3502743Y8557823D3*
D25*
X4162657Y8938823D3*
D26*
X2400067Y2789367D3*
D27*
X1413620Y3032640D3*
D26*
X4558840Y5217987D3*
D27*
X4939587Y4276027D3*
D26*
X1669893Y2408407D3*
D27*
X2648580Y2135587D3*
D26*
X2495307Y2487773D3*
D27*
X1507793Y2726667D3*
D26*
X2304827Y3090960D3*
D27*
X1319180Y3337460D3*
D28*
X2987380Y1963953D3*
Y2243953D3*
D26*
X5416000Y5297353D3*
D27*
X5763493Y4342627D3*
D26*
X5146153Y5265607D3*
D27*
X5493647Y4310880D3*
D26*
X4860433Y5233860D3*
D27*
X5207927Y4279133D3*
D100*
X4839054Y3801021D3*
D29*
X4923867Y3359084D3*
X5672211Y3502704D3*
D100*
X5587397Y3944638D3*
D103*
X4720967Y3025065D3*
D29*
X4814383Y2584872D3*
X5559783Y2743062D3*
D103*
X5466363Y3183258D3*
D30*
X2463560Y5122747D3*
D22*
Y4868747D3*
Y4614747D3*
Y4360747D3*
Y4106747D3*
Y3852747D3*
Y3598747D3*
X3225560D3*
Y3852747D3*
Y4106747D3*
Y4360747D3*
Y4614747D3*
Y4868747D3*
Y5122747D3*
D32*
X3828667Y2297293D3*
X3598667D3*
X3368667D3*
D33*
X3598667Y2877293D3*
D22*
X3704757Y1556334D3*
X3904080Y1572794D3*
X4153230Y1593364D3*
X3455607Y1535764D3*
D106*
X3238683Y1307138D3*
X4404713Y1403414D3*
M02*
