G04 DipTrace 3.0.0.2*
G04 BottomSilk.gbr*
%MOMM*%
G04 #@! TF.FileFunction,Legend,Bot*
G04 #@! TF.Part,Single*
%ADD10C,0.25*%
%ADD12C,0.0762*%
%ADD22O,0.39124X0.39193*%
%ADD70C,0.11765*%
%ADD71C,0.19608*%
%ADD72C,0.15686*%
%ADD73C,0.23529*%
%ADD75C,0.39216*%
%FSLAX35Y35*%
G04*
G71*
G90*
G75*
G01*
G04 BotSilk*
%LPD*%
D22*
X3865606Y2019326D3*
X3868246Y2246021D2*
D10*
X3208278D1*
X3868246Y2526019D2*
X3208278D1*
Y2246021D2*
Y2526019D1*
X3868246Y2246021D2*
Y2526019D1*
X2862437Y2366420D2*
X2922277D1*
X2862437Y2206580D2*
X2922277D1*
X3313380Y4645027D2*
D12*
X3648660D1*
X3732480D2*
X4060140D1*
X3313380Y4637407D2*
X3646055D1*
X3733658D2*
X4060140D1*
X3313380Y4629787D2*
X3643787D1*
X3735547D2*
X4060140D1*
X3313380Y4622167D2*
X3642343D1*
X3737520D2*
X4060140D1*
X3313380Y4614547D2*
X3641566D1*
X3738884D2*
X4060140D1*
X3313380Y4606927D2*
X3640962D1*
X3739860D2*
X4060140D1*
X3313380Y4599307D2*
X3639823D1*
X3741185D2*
X4060140D1*
X3313380Y4591687D2*
X3637588D1*
X3743501D2*
X4060140D1*
X3313380Y4584067D2*
X3496260D1*
X3527947D2*
X3633751D1*
X3747370D2*
X3855607D1*
X3884880D2*
X4060140D1*
X3313380Y4576447D2*
X3488640D1*
X3537748D2*
X3628373D1*
X3752764D2*
X3842548D1*
X3892500D2*
X4060140D1*
X3313380Y4568827D2*
X3481050D1*
X3548538D2*
X3615301D1*
X3765838D2*
X3830478D1*
X3900090D2*
X4060140D1*
X3313380Y4561207D2*
X3473727D1*
X3560213D2*
X3598603D1*
X3782536D2*
X3819293D1*
X3907383D2*
X4060140D1*
X3313380Y4553587D2*
X3467406D1*
X3572460D2*
X3580080D1*
X3801060D2*
X3808680D1*
X3913466D2*
X4060140D1*
X3313380Y4545967D2*
X3462253D1*
X3918084D2*
X4060140D1*
X3313380Y4538347D2*
X3460798D1*
X3917714D2*
X4060140D1*
X3313380Y4530727D2*
X3463425D1*
X3915560D2*
X4060140D1*
X3313380Y4523107D2*
X3467870D1*
X3911891D2*
X4060140D1*
X3313380Y4515487D2*
X3473112D1*
X3907309D2*
X4060140D1*
X3313380Y4507867D2*
X3478273D1*
X3902541D2*
X4060140D1*
X3313380Y4500247D2*
X3483372D1*
X3897604D2*
X4060140D1*
X3313380Y4492627D2*
X3488038D1*
X3892783D2*
X4060140D1*
X3313380Y4485007D2*
X3491755D1*
X3888571D2*
X4060140D1*
X3313380Y4477387D2*
X3491203D1*
X3887257D2*
X4060140D1*
X3313380Y4469767D2*
X3489210D1*
X3888858D2*
X4060140D1*
X3313380Y4462147D2*
X3486467D1*
X3891482D2*
X4060140D1*
X3313380Y4454527D2*
X3483722D1*
X3679140D2*
X3702000D1*
X3894748D2*
X4060140D1*
X3313380Y4446907D2*
X3481021D1*
X3661880D2*
X3719260D1*
X3898465D2*
X4060140D1*
X3313380Y4439287D2*
X3477916D1*
X3647615D2*
X3733495D1*
X3903436D2*
X4060140D1*
X3313380Y4431667D2*
X3470598D1*
X3636366D2*
X3744507D1*
X3910263D2*
X4060140D1*
X3313380Y4424047D2*
X3450593D1*
X3627314D2*
X3752854D1*
X3930419D2*
X4060140D1*
X3313380Y4416427D2*
X3422316D1*
X3620229D2*
X3759086D1*
X3958776D2*
X4060140D1*
X3313380Y4408807D2*
X3389580D1*
X3614622D2*
X3763772D1*
X3991560D2*
X4060140D1*
X3313380Y4401187D2*
X3389580D1*
X3612507D2*
X3767076D1*
X3991560D2*
X4060140D1*
X3313380Y4393567D2*
X3389580D1*
X3611084D2*
X3768980D1*
X3991560D2*
X4060140D1*
X3313380Y4385947D2*
X3389580D1*
X3609393D2*
X3769913D1*
X3991560D2*
X4060140D1*
X3313380Y4378327D2*
X3389580D1*
X3606573D2*
X3770321D1*
X3991560D2*
X4060140D1*
X3313380Y4370707D2*
X3389580D1*
X3602940D2*
X3770485D1*
X3991560D2*
X4060140D1*
X3313380Y4363087D2*
X3389580D1*
X3606487D2*
X3770517D1*
X3991560D2*
X4060140D1*
X3313380Y4355467D2*
X3389580D1*
X3608973D2*
X3770241D1*
X3991560D2*
X4060140D1*
X3313380Y4347847D2*
X3389580D1*
X3611320D2*
X3768980D1*
X3991560D2*
X4060140D1*
X3313380Y4340227D2*
X3389580D1*
X3614667D2*
X3765889D1*
X3991560D2*
X4060140D1*
X3313380Y4332607D2*
X3421399D1*
X3619210D2*
X3760842D1*
X3959741D2*
X4060140D1*
X3313380Y4324987D2*
X3445839D1*
X3624808D2*
X3754466D1*
X3935301D2*
X4060140D1*
X3313380Y4317367D2*
X3463972D1*
X3631790D2*
X3747413D1*
X3917168D2*
X4060140D1*
X3313380Y4309747D2*
X3471527D1*
X3639844D2*
X3740334D1*
X3909352D2*
X4060140D1*
X3313380Y4302127D2*
X3476678D1*
X3648083D2*
X3734331D1*
X3903463D2*
X4060140D1*
X3313380Y4294507D2*
X3480284D1*
X3656280D2*
X3729750D1*
X3898764D2*
X4060140D1*
X3313380Y4286887D2*
X3483612D1*
X3651585D2*
X3730093D1*
X3894657D2*
X4060140D1*
X3313380Y4279267D2*
X3487273D1*
X3647478D2*
X3732011D1*
X3891290D2*
X4060140D1*
X3313380Y4271647D2*
X3491528D1*
X3644129D2*
X3734947D1*
X3888744D2*
X4060140D1*
X3313380Y4264027D2*
X3496260D1*
X3641303D2*
X3738408D1*
X3890538D2*
X4060140D1*
X3313380Y4256407D2*
X3489818D1*
X3638303D2*
X3742076D1*
X3893921D2*
X4060140D1*
X3313380Y4248787D2*
X3484117D1*
X3634949D2*
X3745814D1*
X3898103D2*
X4060140D1*
X3313380Y4241167D2*
X3478737D1*
X3631366D2*
X3749362D1*
X3902819D2*
X4060140D1*
X3313380Y4233547D2*
X3473423D1*
X3627644D2*
X3752440D1*
X3907840D2*
X4060140D1*
X3313380Y4225927D2*
X3468338D1*
X3623877D2*
X3755150D1*
X3912500D2*
X4060140D1*
X3313380Y4218307D2*
X3463015D1*
X3620104D2*
X3758104D1*
X3916241D2*
X4060140D1*
X3313380Y4210687D2*
X3456977D1*
X3616572D2*
X3761416D1*
X3919022D2*
X4060140D1*
X3313380Y4203067D2*
X3450540D1*
X3613737D2*
X3764795D1*
X3917810D2*
X4060140D1*
X3313380Y4195447D2*
X3460765D1*
X3611897D2*
X3767870D1*
X3912860D2*
X4060140D1*
X3313380Y4187827D2*
X3470653D1*
X3564840D2*
X3580080D1*
X3610560D2*
X3770580D1*
X3801060D2*
X3816300D1*
X3906679D2*
X4060140D1*
X3313380Y4180207D2*
X3479723D1*
X3552274D2*
X3828621D1*
X3899706D2*
X4060140D1*
X3313380Y4172587D2*
X3488130D1*
X3539624D2*
X3840391D1*
X3892348D2*
X4060140D1*
X3313380Y4164967D2*
X3496260D1*
X3526740D2*
X3851462D1*
X3884829D2*
X4060140D1*
X3313380Y4157347D2*
X3862020D1*
X3877260D2*
X4060140D1*
X3313380Y4149727D2*
X4060140D1*
X3313380Y4142107D2*
X4060140D1*
X3313380Y4134487D2*
X4060140D1*
X3313380Y4126867D2*
X4060140D1*
X3313380Y4119247D2*
X4060140D1*
X3313380Y4111627D2*
X4060080D1*
X3313410Y4104007D2*
X4059500D1*
X3313678Y4096387D2*
X4058116D1*
X3314649Y4088767D2*
X3328620D1*
X3343860D2*
X3397200D1*
X3412440D2*
X3450540D1*
X3465780D2*
X3481020D1*
X3496260D2*
X3511500D1*
X3526740D2*
X3613265D1*
X3625830D2*
X3686760D1*
X3702000D2*
X3796435D1*
X3809000D2*
X3877260D1*
X3892500D2*
X4037250D1*
X4052520D2*
X4052178D1*
X3316475Y4081147D2*
X3313380D1*
X3328620D2*
X3343860D1*
X3359100D2*
X3381960D1*
X3397200D2*
X3412440D1*
X3427360D2*
X3465780D1*
X3496260D2*
X3511500D1*
X3526740D2*
X3557220D1*
X3572460D2*
X3603375D1*
X3618507D2*
X3625800D1*
X3649838D2*
X3671520D1*
X3686760D2*
X3709144D1*
X3724451D2*
X3786133D1*
X3802654D2*
X3814802D1*
X3839160D2*
X3863518D1*
X3877260D2*
X3892500D1*
X3906533D2*
X3939718D1*
X3954958D2*
X3967202D1*
X3999180D2*
X4013242D1*
X4037280D2*
X4044573D1*
X3325075Y4073527D2*
X3351480D1*
X3366720D2*
X3418533D1*
X3433676D2*
X3469297D1*
X3496260D2*
X3511500D1*
X3526740D2*
X3557220D1*
X3572460D2*
X3596445D1*
X3612156D2*
X3631922D1*
X3651727D2*
X3705810D1*
X3723461D2*
X3782071D1*
X3798129D2*
X3819259D1*
X3839160D2*
X3859061D1*
X3873212D2*
X3896548D1*
X3911936D2*
X3935261D1*
X3950501D2*
X3971659D1*
X3999180D2*
X4011352D1*
X4031156D2*
X4050924D1*
X3322719Y4065907D2*
X3423595D1*
X3438827D2*
X3471486D1*
X3496260D2*
X3511500D1*
X3526740D2*
X3557220D1*
X3572460D2*
X3591251D1*
X3607660D2*
X3636349D1*
X3653670D2*
X3696077D1*
X3718118D2*
X3779856D1*
X3795557D2*
X3821811D1*
X3839160D2*
X3856501D1*
X3869640D2*
X3900120D1*
X3916046D2*
X3932709D1*
X3947979D2*
X3974211D1*
X3999180D2*
X4009360D1*
X4026672D2*
X4055420D1*
X3374340Y4058287D2*
X3425163D1*
X3440401D2*
X3472593D1*
X3496260D2*
X3511500D1*
X3526740D2*
X3557101D1*
X3572430D2*
X3589715D1*
X3604655D2*
X3639327D1*
X3654707D2*
X3685197D1*
X3706588D2*
X3778851D1*
X3794314D2*
X3823048D1*
X3839160D2*
X3855204D1*
X3919093D2*
X3931501D1*
X3947099D2*
X3975448D1*
X3999180D2*
X4007910D1*
X4023946D2*
X4058425D1*
X3313380Y4050667D2*
X3359100D1*
X3374340D2*
X3423566D1*
X3438855D2*
X3473085D1*
X3496260D2*
X3511500D1*
X3526740D2*
X3556744D1*
X3572140D2*
X3589708D1*
X3604926D2*
X3638852D1*
X3654854D2*
X3676316D1*
X3695150D2*
X3778441D1*
X3793777D2*
X3823584D1*
X3839160D2*
X3900120D1*
X3918199D2*
X3931256D1*
X3947323D2*
X3975984D1*
X3999180D2*
X4006800D1*
X4022040D2*
X4058154D1*
X3313380Y4043047D2*
X3417169D1*
X3436074D2*
X3473284D1*
X3496260D2*
X3511500D1*
X3526740D2*
X3553172D1*
X3570962D2*
X3591151D1*
X3610146D2*
X3636667D1*
X3651582D2*
X3669826D1*
X3686277D2*
X3778285D1*
X3793563D2*
X3823797D1*
X3839160D2*
X3898719D1*
X3915810D2*
X3932221D1*
X3951898D2*
X3976197D1*
X3999180D2*
X4052934D1*
X3313380Y4035427D2*
X3351480D1*
X3366720D2*
X3401133D1*
X3432202D2*
X3473361D1*
X3496260D2*
X3511500D1*
X3526740D2*
X3541295D1*
X3568357D2*
X3593232D1*
X3624327D2*
X3633420D1*
X3646715D2*
X3669369D1*
X3679140D2*
X3778228D1*
X3793481D2*
X3823879D1*
X3839160D2*
X3896045D1*
X3912138D2*
X3934744D1*
X3963190D2*
X3976277D1*
X3999180D2*
X4018810D1*
X4029660D2*
X4038753D1*
X3313380Y4027807D2*
D3*
X3328620D2*
X3343860D1*
X3359100D2*
X3381960D1*
X3427680D2*
X3473400D1*
X3496260D2*
X3511500D1*
X3526740D2*
D3*
X3564840D2*
X3595320D1*
X3641040D2*
X3671520D1*
X3694380D2*
X3702000D1*
X3724860D2*
X3778200D1*
X3793440D2*
X3823920D1*
X3839160D2*
X3862020D1*
X3877260D2*
X3892500D1*
X3907740D2*
X3938220D1*
X3976320D2*
X3976305D1*
X3999180D2*
X4032713D1*
X3313380Y4020187D2*
X3976315D1*
X3999180D2*
X4045129D1*
X3313380Y4012567D2*
X3976318D1*
X3999180D2*
X4054507D1*
X3313380Y4004947D2*
X3976320D1*
X3999180D2*
X4057483D1*
X3313380Y3997327D2*
X3717240D1*
X3732480D2*
X3976320D1*
X3999180D2*
X4059039D1*
X3313380Y3989707D2*
X3717240D1*
X3732510D2*
X3976320D1*
X3999180D2*
X4059719D1*
X3313380Y3982087D2*
X3717240D1*
X3732800D2*
X3976320D1*
X3999180D2*
X4059988D1*
X3313380Y3974467D2*
X3717240D1*
X3733978D2*
X3976320D1*
X3999180D2*
X4060087D1*
X3313380Y3966847D2*
X3406027D1*
X3442600D2*
X3462465D1*
X3496260D2*
D3*
X3511500D2*
X3543187D1*
X3587700D2*
X3603230D1*
X3618470D2*
X3648660D1*
X3663900D2*
X3695848D1*
X3711088D2*
X3717240D1*
X3736583D2*
X3735897D1*
X3770260D2*
X3785820D1*
X3816300D2*
X3823920D1*
X3839160D2*
X3863518D1*
X3907740D2*
X3939718D1*
X3976320D2*
D3*
X3999180D2*
X4060122D1*
X3313380Y3959227D2*
X3400594D1*
X3412440D2*
X3435300D1*
X3448946D2*
X3477723D1*
X3511500D2*
X3537754D1*
X3549600D2*
X3604207D1*
X3619447D2*
X3641040D1*
X3663900D2*
X3691123D1*
X3706363D2*
X3717240D1*
X3740100D2*
X3750244D1*
X3776606D2*
X3816300D1*
X3839160D2*
X3859061D1*
X3869640D2*
X3935261D1*
X3953460D2*
X3976320D1*
X3999180D2*
X4060134D1*
X3313380Y3951607D2*
X3396214D1*
X3412440D2*
X3439348D1*
X3453471D2*
X3489098D1*
X3511500D2*
X3533376D1*
X3549600D2*
X3606035D1*
X3621275D2*
X3687600D1*
X3702840D2*
X3717240D1*
X3736612D2*
X3761109D1*
X3781131D2*
X3819817D1*
X3839160D2*
X3856509D1*
X3869640D2*
X3932709D1*
X3949943D2*
X3976320D1*
X3999180D2*
X4060138D1*
X3313380Y3943987D2*
X3393001D1*
X3412440D2*
X3442920D1*
X3456013D2*
X3492836D1*
X3511500D2*
X3530184D1*
X3549600D2*
X3608008D1*
X3623248D2*
X3656280D1*
X3671520D2*
X3684536D1*
X3699748D2*
X3717240D1*
X3734692D2*
X3766323D1*
X3783673D2*
X3822006D1*
X3839160D2*
X3855272D1*
X3869640D2*
X3931472D1*
X3947754D2*
X3976320D1*
X3999180D2*
X4060139D1*
X3313380Y3936367D2*
X3391002D1*
X3456966D2*
X3494823D1*
X3511500D2*
X3528320D1*
X3569796D2*
X3609452D1*
X3624692D2*
X3633420D1*
X3648660D2*
X3656280D1*
X3671520D2*
X3682028D1*
X3696969D2*
X3717240D1*
X3734561D2*
X3768039D1*
X3784626D2*
X3823113D1*
X3839160D2*
X3854736D1*
X3891441D2*
X3930936D1*
X3946647D2*
X3976320D1*
X3999180D2*
X4060140D1*
X3313380Y3928747D2*
X3442920D1*
X3456326D2*
X3495705D1*
X3511500D2*
X3527398D1*
X3549600D2*
X3580080D1*
X3585378D2*
X3610560D1*
X3625800D2*
X3680364D1*
X3694243D2*
X3717240D1*
X3735958D2*
X3766759D1*
X3783986D2*
X3823605D1*
X3839160D2*
X3854523D1*
X3869640D2*
X3900120D1*
X3908484D2*
X3930723D1*
X3946155D2*
X3976320D1*
X3999180D2*
X4060140D1*
X3313380Y3921127D2*
X3439348D1*
X3453941D2*
X3496068D1*
X3511500D2*
X3526980D1*
X3549600D2*
X3580080D1*
X3591026D2*
X3625800D1*
X3641040D2*
X3663900D1*
X3679140D2*
D3*
X3690810D2*
X3717240D1*
X3738022D2*
X3764888D1*
X3781601D2*
X3823810D1*
X3839160D2*
X3854441D1*
X3869640D2*
X3907740D1*
X3922980D2*
X3930641D1*
X3945950D2*
X3976320D1*
X3999180D2*
X4060140D1*
X3313380Y3913507D2*
X3397200D1*
X3412440D2*
X3435300D1*
X3450540D2*
X3496260D1*
X3511500D2*
X3526740D1*
X3549600D2*
X3580080D1*
X3595320D2*
X3618180D1*
X3641040D2*
X3663900D1*
X3686760D2*
X3717240D1*
X3740100D2*
X3762960D1*
X3778200D2*
X3823920D1*
X3839160D2*
X3854400D1*
X3869640D2*
X3900120D1*
X3915360D2*
X3930600D1*
X3945840D2*
X3976320D1*
X3999180D2*
X4060140D1*
X3257550Y6359020D2*
X5010150D1*
X3257550Y6351400D2*
X5010150D1*
X3257550Y6343780D2*
X5010150D1*
X3257550Y6336160D2*
X5010150D1*
X3257550Y6328540D2*
X5010150D1*
X3257550Y6320920D2*
X5010150D1*
X3257550Y6313300D2*
X5010150D1*
X3257550Y6305680D2*
X5010150D1*
X3257550Y6298060D2*
X5010150D1*
X3257550Y6290440D2*
X5010150D1*
X3257550Y6282820D2*
X5010150D1*
X3257550Y6275200D2*
X5010150D1*
X2449830Y6267580D2*
X2526030D1*
X3257550D2*
X5010150D1*
X2045970Y6259960D2*
X2129790D1*
X2221230D2*
X2305050D1*
X2433483D2*
X2543580D1*
X2663190D2*
X2891790D1*
X2929890D2*
X3166110D1*
X3257550D2*
X4728530D1*
X4826980D2*
X5010150D1*
X2045970Y6252340D2*
X2129790D1*
X2221230D2*
X2305050D1*
X2419138D2*
X2558792D1*
X2663190D2*
X2891790D1*
X2929890D2*
X3166110D1*
X3257550D2*
X4714564D1*
X4841184D2*
X5010150D1*
X2045970Y6244720D2*
X2129790D1*
X2221230D2*
X2305050D1*
X2407552D2*
X2571630D1*
X2663190D2*
X2891790D1*
X2929890D2*
X3166110D1*
X3257550D2*
X4702419D1*
X4854032D2*
X5010150D1*
X2045970Y6237100D2*
X2129790D1*
X2221230D2*
X2305050D1*
X2398245D2*
X2581962D1*
X2663190D2*
X2891790D1*
X2929890D2*
X3166110D1*
X3257550D2*
X4692257D1*
X4865078D2*
X5010150D1*
X2045970Y6229480D2*
X2129790D1*
X2221230D2*
X2305050D1*
X2390993D2*
X2589790D1*
X2663190D2*
X2891790D1*
X2929890D2*
X3166110D1*
X3257550D2*
X4683662D1*
X4874040D2*
X5010150D1*
X2045970Y6221860D2*
X2129790D1*
X2221230D2*
X2305050D1*
X2385847D2*
X2596184D1*
X2663190D2*
X2891790D1*
X2929890D2*
X3166110D1*
X3257550D2*
X4676476D1*
X4881304D2*
X5010150D1*
X2045970Y6214240D2*
X2129790D1*
X2221230D2*
X2305050D1*
X2382141D2*
X2601904D1*
X2663190D2*
X2891790D1*
X2929890D2*
X3166110D1*
X3257550D2*
X3923485D1*
X3939147D2*
X4670497D1*
X4887515D2*
X5010150D1*
X2045970Y6206620D2*
X2129790D1*
X2221230D2*
X2305050D1*
X2378757D2*
X2606866D1*
X2663190D2*
X2891790D1*
X2929890D2*
X3166110D1*
X3257550D2*
X3913183D1*
X3953523D2*
X4665048D1*
X4773930D2*
X4781550D1*
X4892709D2*
X5010150D1*
X2045970Y6199000D2*
X2129790D1*
X2221230D2*
X2305050D1*
X2375279D2*
X2467775D1*
X2508085D2*
X2611035D1*
X2815590D2*
X2891790D1*
X2929890D2*
X3166110D1*
X3257550D2*
X3908439D1*
X3963273D2*
X4659968D1*
X4760482D2*
X4794998D1*
X4896975D2*
X5010150D1*
X2045970Y6191380D2*
X2129790D1*
X2221230D2*
X2305050D1*
X2371876D2*
X2457885D1*
X2518004D2*
X2614389D1*
X2815590D2*
X2891790D1*
X3006090D2*
X3089910D1*
X3257550D2*
X3907398D1*
X3969917D2*
X4655870D1*
X4750672D2*
X4804808D1*
X4900368D2*
X5010150D1*
X2045970Y6183760D2*
X2129790D1*
X2221230D2*
X2305050D1*
X2368866D2*
X2450925D1*
X2525203D2*
X2617183D1*
X2815590D2*
X2891790D1*
X3006090D2*
X3089910D1*
X3257550D2*
X3907352D1*
X3974749D2*
X4652647D1*
X4744079D2*
X4811401D1*
X4903175D2*
X5010150D1*
X2045970Y6176140D2*
X2129790D1*
X2221230D2*
X2305050D1*
X2366213D2*
X2446228D1*
X2530603D2*
X2619912D1*
X2815590D2*
X2891790D1*
X3006090D2*
X3089910D1*
X3257550D2*
X3918147D1*
X3978421D2*
X4649681D1*
X4739905D2*
X4815605D1*
X4905910D2*
X5010150D1*
X2045970Y6168520D2*
X2129790D1*
X2221230D2*
X2305050D1*
X2363538D2*
X2442857D1*
X2534828D2*
X2622293D1*
X2815590D2*
X2891790D1*
X3006090D2*
X3089910D1*
X3257550D2*
X3434337D1*
X3507514D2*
X3539490D1*
X3615690D2*
X3730310D1*
X3818695D2*
X3929462D1*
X3981450D2*
X3996690D1*
X4085395D2*
X4263710D1*
X4344215D2*
X4438650D1*
X4465845D2*
X4514850D1*
X4591050D2*
X4646973D1*
X4737643D2*
X4818135D1*
X4908292D2*
X5010150D1*
X2045970Y6160900D2*
X2129790D1*
X2221230D2*
X2305050D1*
X2361206D2*
X2439899D1*
X2537944D2*
X2624050D1*
X2815590D2*
X2891790D1*
X3006090D2*
X3089910D1*
X3257550D2*
X3422529D1*
X3519618D2*
X3539490D1*
X3615690D2*
X3716374D1*
X3835937D2*
X3938511D1*
X4102637D2*
X4249744D1*
X4360748D2*
X4438650D1*
X4481401D2*
X4514850D1*
X4591050D2*
X4644478D1*
X4736543D2*
X4820176D1*
X4910050D2*
X5010150D1*
X2045970Y6153280D2*
X2129790D1*
X2221230D2*
X2305050D1*
X2359724D2*
X2437462D1*
X2540024D2*
X2625789D1*
X2815590D2*
X2891790D1*
X3006090D2*
X3089910D1*
X3257550D2*
X3413358D1*
X3529964D2*
X3539490D1*
X3615690D2*
X3704497D1*
X3849486D2*
X3945121D1*
X4116186D2*
X4237629D1*
X4373442D2*
X4438650D1*
X4492269D2*
X4514850D1*
X4591050D2*
X4641873D1*
X4735817D2*
X4822459D1*
X4911789D2*
X5010150D1*
X2045970Y6145660D2*
X2129790D1*
X2221230D2*
X2305050D1*
X2358957D2*
X2435937D1*
X2541892D2*
X2627959D1*
X2815590D2*
X2891790D1*
X3006090D2*
X3089910D1*
X3257550D2*
X3406623D1*
X3539490D2*
D3*
X3615690D2*
X3695306D1*
X3859443D2*
X3945981D1*
X4126143D2*
X4227705D1*
X4383269D2*
X4438650D1*
X4500112D2*
X4514850D1*
X4591050D2*
X4639570D1*
X4734665D2*
X4824593D1*
X4913959D2*
X5010150D1*
X2045970Y6138040D2*
X2129790D1*
X2221230D2*
X2305050D1*
X2358599D2*
X2435118D1*
X2544112D2*
X2630054D1*
X2815590D2*
X2891790D1*
X3006090D2*
X3089910D1*
X3257550D2*
X3401690D1*
X3615690D2*
X3688535D1*
X3866538D2*
X3943813D1*
X4027170D2*
X4050030D1*
X4133208D2*
X4219842D1*
X4390989D2*
X4438650D1*
X4506206D2*
X4514850D1*
X4591050D2*
X4638098D1*
X4732773D2*
X4825990D1*
X4916054D2*
X5010150D1*
X2045970Y6130420D2*
X2129790D1*
X2221230D2*
X2305050D1*
X2358390D2*
X2434590D1*
X2546224D2*
X2631437D1*
X2815590D2*
X2891790D1*
X3006090D2*
X3089910D1*
X3257550D2*
X3398280D1*
X3615690D2*
X3683333D1*
X3872107D2*
X3940859D1*
X4022475D2*
X4056152D1*
X4138509D2*
X4213808D1*
X4397180D2*
X4438650D1*
X4510478D2*
X4514850D1*
X4591050D2*
X4637337D1*
X4730795D2*
X4826721D1*
X4917437D2*
X5010150D1*
X2045970Y6122800D2*
X2305050D1*
X2547614D2*
X2632163D1*
X2693670D2*
X2891790D1*
X3006090D2*
X3089910D1*
X3257550D2*
X3396334D1*
X3501390D2*
X3509010D1*
X3615690D2*
X3678951D1*
X3760470D2*
X3798570D1*
X3877252D2*
X3937439D1*
X4018397D2*
X4060609D1*
X4142683D2*
X4209167D1*
X4278630D2*
X4324350D1*
X4402709D2*
X4438650D1*
X4513052D2*
X4514850D1*
X4591050D2*
X4636994D1*
X4729458D2*
X4827052D1*
X4918163D2*
X5010150D1*
X2045970Y6115180D2*
X2305050D1*
X2548342D2*
X2632493D1*
X2693670D2*
X2891790D1*
X3006090D2*
X3089910D1*
X3257550D2*
X3395385D1*
X3491750D2*
X3518650D1*
X3615690D2*
X3675150D1*
X3756953D2*
X3801175D1*
X3882142D2*
X3934046D1*
X4015317D2*
X4063161D1*
X4145748D2*
X4205622D1*
X4276025D2*
X4328158D1*
X4407818D2*
X4438650D1*
X4514850D2*
D3*
X4591050D2*
X4636853D1*
X4728748D2*
X4827189D1*
X4918493D2*
X5010150D1*
X2045970Y6107560D2*
X2305050D1*
X2548673D2*
X2632629D1*
X2693670D2*
X2891790D1*
X3006090D2*
X3089910D1*
X3257550D2*
X3394972D1*
X3483994D2*
X3526406D1*
X3615690D2*
X3671980D1*
X3754764D2*
X3803443D1*
X3885928D2*
X3931283D1*
X4013491D2*
X4064398D1*
X4147551D2*
X4202756D1*
X4273757D2*
X4331323D1*
X4411925D2*
X4438650D1*
X4591050D2*
X4636800D1*
X4728424D2*
X4827241D1*
X4918629D2*
X5010150D1*
X2045970Y6099940D2*
X2305050D1*
X2548809D2*
X2632681D1*
X2693670D2*
X2891790D1*
X3006090D2*
X3089910D1*
X3257550D2*
X3394806D1*
X3481168D2*
X3529232D1*
X3615690D2*
X3669267D1*
X3753627D2*
X3804887D1*
X3888420D2*
X3929620D1*
X4012584D2*
X4064934D1*
X4148416D2*
X4200001D1*
X4272313D2*
X4334257D1*
X4415152D2*
X4460310D1*
X4591050D2*
X4636780D1*
X4728290D2*
X4827260D1*
X4918681D2*
X5010150D1*
X2045970Y6092320D2*
X2305050D1*
X2548861D2*
X2632700D1*
X2693670D2*
X2891790D1*
X3006090D2*
X3089910D1*
X3257550D2*
X3394744D1*
X3479648D2*
X3530752D1*
X3615690D2*
X3666569D1*
X3752868D2*
X3805634D1*
X3890490D2*
X3929033D1*
X4012215D2*
X4065117D1*
X4148541D2*
X4197641D1*
X4271566D2*
X4336702D1*
X4418089D2*
X4476386D1*
X4591050D2*
X4636773D1*
X4728239D2*
X4827267D1*
X4918700D2*
X5010150D1*
X2045970Y6084700D2*
X2305050D1*
X2548880D2*
X2632707D1*
X2693670D2*
X2891790D1*
X3006090D2*
X3089910D1*
X3257550D2*
X3394722D1*
X3478966D2*
X3531434D1*
X3615690D2*
X3664230D1*
X3751698D2*
X3805970D1*
X3892797D2*
X3929654D1*
X4012352D2*
X4064899D1*
X4147699D2*
X4196149D1*
X4271229D2*
X4338236D1*
X4420529D2*
X4488714D1*
X4591050D2*
X4636771D1*
X4728220D2*
X4827269D1*
X4918707D2*
X5010150D1*
X2045970Y6077080D2*
X2305050D1*
X2548887D2*
X2632709D1*
X2693670D2*
X2891790D1*
X3006090D2*
X3089910D1*
X3257550D2*
X3394714D1*
X3478690D2*
X3531710D1*
X3615690D2*
X3662745D1*
X3749797D2*
X3806138D1*
X3894945D2*
X3931592D1*
X4013558D2*
X4063661D1*
X4145636D2*
X4195351D1*
X4271087D2*
X4339060D1*
X4422053D2*
X4494335D1*
X4591050D2*
X4636770D1*
X4728213D2*
X4827270D1*
X4918709D2*
X5010150D1*
X2045970Y6069460D2*
X2305050D1*
X2548889D2*
X2632710D1*
X2693670D2*
X2891790D1*
X3006090D2*
X3089910D1*
X3257550D2*
X3394711D1*
X3478586D2*
X3531814D1*
X3615690D2*
X3661979D1*
X3747817D2*
X3806459D1*
X3896347D2*
X3934518D1*
X4016602D2*
X4060604D1*
X4142405D2*
X4194737D1*
X4271010D2*
X4339590D1*
X4422833D2*
X4498390D1*
X4591050D2*
X4636770D1*
X4728241D2*
X4827270D1*
X4918710D2*
X5010150D1*
X2045970Y6061840D2*
X2305050D1*
X2548860D2*
X2632710D1*
X2693670D2*
X2891790D1*
X3006090D2*
X3089910D1*
X3257550D2*
X3394710D1*
X3478549D2*
X3531851D1*
X3615690D2*
X3661635D1*
X3746478D2*
X3807419D1*
X3897080D2*
X3938246D1*
X4021468D2*
X4055734D1*
X4137752D2*
X4193625D1*
X4423183D2*
X4501689D1*
X4591050D2*
X4636770D1*
X4728508D2*
X4827270D1*
X4918680D2*
X5010150D1*
X2045970Y6054220D2*
X2305050D1*
X2548592D2*
X2632680D1*
X2815590D2*
X2891790D1*
X3006090D2*
X3089910D1*
X3257550D2*
X3394710D1*
X3478536D2*
X3531864D1*
X3615690D2*
X3661494D1*
X3745768D2*
X3808983D1*
X3897412D2*
X3943437D1*
X4027170D2*
X4050030D1*
X4131314D2*
X4191745D1*
X4423325D2*
X4504270D1*
X4591050D2*
X4636800D1*
X4729479D2*
X4827240D1*
X4918412D2*
X5010150D1*
X2045970Y6046600D2*
X2129790D1*
X2221230D2*
X2305050D1*
X2547621D2*
X2632412D1*
X2815590D2*
X2891790D1*
X3006090D2*
X3089910D1*
X3257550D2*
X3394710D1*
X3478532D2*
X3531868D1*
X3615690D2*
X3661440D1*
X3745444D2*
X3809968D1*
X3897549D2*
X3951274D1*
X4123905D2*
X4189752D1*
X4423380D2*
X4505846D1*
X4591050D2*
X4637068D1*
X4731304D2*
X4826972D1*
X4917441D2*
X5010150D1*
X2045970Y6038980D2*
X2129790D1*
X2221230D2*
X2305050D1*
X2358390D2*
X2434590D1*
X2545796D2*
X2631441D1*
X2815590D2*
X2891790D1*
X3006090D2*
X3089910D1*
X3257550D2*
X3394710D1*
X3478531D2*
X3531869D1*
X3615690D2*
X3661420D1*
X3745340D2*
X3809472D1*
X3897601D2*
X3962208D1*
X4117041D2*
X4188301D1*
X4423400D2*
X4506644D1*
X4591050D2*
X4638039D1*
X4733257D2*
X4826001D1*
X4915616D2*
X5010150D1*
X2045970Y6031360D2*
X2129790D1*
X2221230D2*
X2305050D1*
X2358390D2*
X2435797D1*
X2543813D2*
X2629586D1*
X2815590D2*
X2891790D1*
X3006090D2*
X3089910D1*
X3257550D2*
X3394710D1*
X3478530D2*
X3531870D1*
X3615690D2*
X3661413D1*
X3745556D2*
X3808225D1*
X3897590D2*
X3975331D1*
X4110990D2*
X4339590D1*
X4423407D2*
X4507000D1*
X4591050D2*
X4639864D1*
X4734586D2*
X4824176D1*
X4913633D2*
X5010150D1*
X2045970Y6023740D2*
X2129790D1*
X2221230D2*
X2305050D1*
X2358420D2*
X2437954D1*
X2542216D2*
X2627365D1*
X2815590D2*
X2891790D1*
X3006090D2*
X3089910D1*
X3257550D2*
X3394710D1*
X3478530D2*
X3531870D1*
X3615690D2*
X3661441D1*
X3746509D2*
X3807220D1*
X3897329D2*
X3989616D1*
X4122098D2*
X4339590D1*
X4423409D2*
X4507145D1*
X4591050D2*
X4641847D1*
X4735323D2*
X4822193D1*
X4912036D2*
X5010150D1*
X2045970Y6016120D2*
X2129790D1*
X2221230D2*
X2305050D1*
X2358688D2*
X2440928D1*
X2540508D2*
X2625065D1*
X2815590D2*
X2891790D1*
X3006090D2*
X3089910D1*
X3257550D2*
X3394710D1*
X3478530D2*
X3531870D1*
X3615690D2*
X3661708D1*
X3748327D2*
X3806647D1*
X3896360D2*
X4080510D1*
X4131638D2*
X4339590D1*
X4423380D2*
X4507200D1*
X4591050D2*
X4643444D1*
X4735914D2*
X4820596D1*
X4910358D2*
X5010150D1*
X2045970Y6008500D2*
X2129790D1*
X2221230D2*
X2305050D1*
X2359689D2*
X2444385D1*
X2538063D2*
X2622503D1*
X2815590D2*
X2891790D1*
X3006090D2*
X3089910D1*
X3257550D2*
X3394710D1*
X3478530D2*
X3531870D1*
X3615690D2*
X3662679D1*
X3750279D2*
X3806375D1*
X3894536D2*
X4083715D1*
X4139365D2*
X4339560D1*
X4423112D2*
X4507220D1*
X4591050D2*
X4645152D1*
X4737049D2*
X4818888D1*
X4908180D2*
X5010150D1*
X2045970Y6000880D2*
X2129790D1*
X2221230D2*
X2305050D1*
X2361781D2*
X2448315D1*
X2534708D2*
X2619959D1*
X2815590D2*
X2891790D1*
X3006090D2*
X3089910D1*
X3257550D2*
X3394710D1*
X3478530D2*
X3531870D1*
X3615690D2*
X3664534D1*
X3751607D2*
X3806230D1*
X3892553D2*
X4085622D1*
X4145353D2*
X4339292D1*
X4422111D2*
X4507227D1*
X4591050D2*
X4647568D1*
X4739223D2*
X4816443D1*
X4905825D2*
X5010150D1*
X2045970Y5993260D2*
X2129790D1*
X2221230D2*
X2305050D1*
X2364736D2*
X2453040D1*
X2530255D2*
X2617495D1*
X2815590D2*
X2891790D1*
X3006090D2*
X3089910D1*
X3257550D2*
X3394710D1*
X3478530D2*
X3531870D1*
X3615690D2*
X3666755D1*
X3752343D2*
X3805918D1*
X3890956D2*
X4083510D1*
X4149950D2*
X4195100D1*
X4262183D2*
X4338291D1*
X4420019D2*
X4507229D1*
X4591050D2*
X4650656D1*
X4742462D2*
X4813088D1*
X4903444D2*
X5010150D1*
X2045970Y5985640D2*
X2129790D1*
X2221230D2*
X2305050D1*
X2368158D2*
X2458798D1*
X2524616D2*
X2614614D1*
X2815590D2*
X2891790D1*
X3006090D2*
X3089910D1*
X3257550D2*
X3394710D1*
X3478530D2*
X3531870D1*
X3615690D2*
X3669055D1*
X3752994D2*
X3804870D1*
X3889248D2*
X4080510D1*
X4153193D2*
X4196107D1*
X4267705D2*
X4336139D1*
X4417064D2*
X4507230D1*
X4591050D2*
X4654129D1*
X4746870D2*
X4808635D1*
X4900596D2*
X5010150D1*
X2045970Y5978020D2*
X2129790D1*
X2221230D2*
X2305050D1*
X2371819D2*
X2465070D1*
X2518410D2*
X2611080D1*
X2815590D2*
X2891790D1*
X3006090D2*
X3089910D1*
X3257550D2*
X3394710D1*
X3478530D2*
X3531870D1*
X3615690D2*
X3671617D1*
X3753965D2*
X3802458D1*
X3886803D2*
X3993883D1*
X4154788D2*
X4198201D1*
X4272956D2*
X4332628D1*
X4413642D2*
X4507230D1*
X4591050D2*
X4657809D1*
X4752492D2*
X4802996D1*
X4897073D2*
X5010150D1*
X2045970Y5970400D2*
X2129790D1*
X2221230D2*
X2305050D1*
X2375594D2*
X2606785D1*
X2663190D2*
X2891790D1*
X3006090D2*
X3089910D1*
X3257550D2*
X3394710D1*
X3478530D2*
X3531870D1*
X3615690D2*
X3674191D1*
X3757813D2*
X3798128D1*
X3883476D2*
X3966548D1*
X4155215D2*
X4201156D1*
X4279701D2*
X4327049D1*
X4409981D2*
X4507230D1*
X4591050D2*
X4661591D1*
X4758690D2*
X4796790D1*
X4892782D2*
X5010150D1*
X2045970Y5962780D2*
X2129790D1*
X2221230D2*
X2305050D1*
X2379657D2*
X2601948D1*
X2663190D2*
X2891790D1*
X3006090D2*
X3089910D1*
X3257550D2*
X3394710D1*
X3478530D2*
X3531870D1*
X3615690D2*
X3676923D1*
X3766186D2*
X3791473D1*
X3879240D2*
X3946777D1*
X4151923D2*
X4204637D1*
X4289515D2*
X4318825D1*
X4406176D2*
X4507230D1*
X4591050D2*
X4665685D1*
X4887917D2*
X5010150D1*
X2045970Y5955160D2*
X2129790D1*
X2221230D2*
X2305050D1*
X2384484D2*
X2597024D1*
X2663190D2*
X2891790D1*
X3006090D2*
X3089910D1*
X3257550D2*
X3394710D1*
X3478530D2*
X3531870D1*
X3615690D2*
X3680804D1*
X3775710D2*
X3783330D1*
X3874170D2*
X3933140D1*
X4146605D2*
X4208834D1*
X4301490D2*
X4309110D1*
X4401846D2*
X4507230D1*
X4591050D2*
X4670751D1*
X4882756D2*
X5010150D1*
X2045970Y5947540D2*
X2129790D1*
X2221230D2*
X2305050D1*
X2390658D2*
X2591456D1*
X2663190D2*
X2891790D1*
X3006090D2*
X3089910D1*
X3257550D2*
X3394710D1*
X3478530D2*
X3531870D1*
X3615690D2*
X3686491D1*
X3868259D2*
X3923671D1*
X4139079D2*
X4214581D1*
X4396047D2*
X4507230D1*
X4591050D2*
X4677689D1*
X4876456D2*
X5010150D1*
X2045970Y5939920D2*
X2129790D1*
X2221230D2*
X2305050D1*
X2398476D2*
X2584027D1*
X2663190D2*
X2891790D1*
X3006090D2*
X3089910D1*
X3257550D2*
X3394710D1*
X3478530D2*
X3531870D1*
X3615690D2*
X3694336D1*
X3860543D2*
X3916998D1*
X4129424D2*
X4222651D1*
X4387959D2*
X4507230D1*
X4591050D2*
X4686897D1*
X4867845D2*
X5010150D1*
X2045970Y5932300D2*
X2129790D1*
X2221230D2*
X2305050D1*
X2408411D2*
X2573791D1*
X2663190D2*
X2891790D1*
X3006090D2*
X3089910D1*
X3257550D2*
X3394710D1*
X3478530D2*
X3531870D1*
X3615690D2*
X3705147D1*
X3849636D2*
X3912147D1*
X4118610D2*
X4233204D1*
X4377400D2*
X4507230D1*
X4591050D2*
X4698912D1*
X4855924D2*
X5010150D1*
X2045970Y5924680D2*
X2129790D1*
X2221230D2*
X2305050D1*
X2421382D2*
X2560299D1*
X2663190D2*
X2891790D1*
X3006090D2*
X3089910D1*
X3257550D2*
X3394710D1*
X3478530D2*
X3531870D1*
X3615690D2*
X3719967D1*
X3834139D2*
X3908784D1*
X4065270D2*
X4072890D1*
X4130635D2*
X4247195D1*
X4363406D2*
X4507230D1*
X4591050D2*
X4715023D1*
X4838826D2*
X5010150D1*
X2045970Y5917060D2*
X2129790D1*
X2221230D2*
X2305050D1*
X2438201D2*
X2543902D1*
X2663190D2*
X2891790D1*
X3006090D2*
X3089910D1*
X3257550D2*
X3394710D1*
X3478530D2*
X3531870D1*
X3615690D2*
X3739040D1*
X3813781D2*
X3906889D1*
X4027490D2*
X4081103D1*
X4141326D2*
X4265484D1*
X4345116D2*
X4507230D1*
X4591050D2*
X4735680D1*
X4815649D2*
X5010150D1*
X2457450Y5909440D2*
X2526030D1*
X3257550D2*
X3760470D1*
X3790950D2*
X3906217D1*
X3998895D2*
X4087339D1*
X4149902D2*
X4286250D1*
X4324350D2*
X4758690D1*
X4789170D2*
X5010150D1*
X3257550Y5901820D2*
X3906809D1*
X3988071D2*
X4092134D1*
X4156125D2*
X5010150D1*
X3257550Y5894200D2*
X3908737D1*
X3983912D2*
X4093309D1*
X4160200D2*
X5010150D1*
X3257550Y5886580D2*
X3911630D1*
X3983250D2*
X4090578D1*
X4162842D2*
X5010150D1*
X3257550Y5878960D2*
X3915059D1*
X3985752D2*
X4086003D1*
X4162438D2*
X5010150D1*
X3257550Y5871340D2*
X3919010D1*
X3989070D2*
X4080510D1*
X4160659D2*
X5010150D1*
X3257550Y5863720D2*
X3924051D1*
X4157531D2*
X5010150D1*
X3257550Y5856100D2*
X3931296D1*
X4152544D2*
X5010150D1*
X3257550Y5848480D2*
X3942011D1*
X4145669D2*
X5010150D1*
X3257550Y5840860D2*
X3957819D1*
X4130408D2*
X5010150D1*
X3257550Y5833240D2*
X3979410D1*
X4110543D2*
X5010150D1*
X3257550Y5825620D2*
X4004310D1*
X4088130D2*
X5010150D1*
X3257550Y5818000D2*
X5010150D1*
X3257550Y5810380D2*
X5010150D1*
X3257550Y5802760D2*
X5010150D1*
X1480017Y4869643D2*
X2310597D1*
X1480017Y4862023D2*
X2314114D1*
X1480017Y4854403D2*
X2316303D1*
X1480017Y4846783D2*
X2317410D1*
X1480017Y4839163D2*
X2317901D1*
X1480017Y4831543D2*
X2318100D1*
X1480017Y4823923D2*
X2318175D1*
X1480017Y4816303D2*
X2318203D1*
X1480017Y4808683D2*
X1906707D1*
X2060344D2*
X2318212D1*
X1480017Y4801063D2*
X1906439D1*
X2054881D2*
X2258144D1*
X2272497D2*
X2318215D1*
X1480017Y4793443D2*
X1905468D1*
X2050235D2*
X2251437D1*
X2272497D2*
X2318216D1*
X1480017Y4785823D2*
X1903643D1*
X2046042D2*
X2243963D1*
X2272497D2*
X2318217D1*
X1480017Y4778203D2*
X1901689D1*
X2042085D2*
X2235753D1*
X2272497D2*
X2318217D1*
X1480017Y4770583D2*
X1900360D1*
X2038240D2*
X2227780D1*
X2272497D2*
X2318217D1*
X1480017Y4762963D2*
X1899654D1*
X2034683D2*
X2220748D1*
X2272497D2*
X2318217D1*
X1480017Y4755343D2*
X1899330D1*
X2031831D2*
X2214764D1*
X2272497D2*
X2318217D1*
X1480017Y4747723D2*
X1899197D1*
X2029850D2*
X2209016D1*
X2272497D2*
X2318217D1*
X1480017Y4740103D2*
X1899145D1*
X2027986D2*
X2202692D1*
X2272497D2*
X2318217D1*
X1480017Y4732483D2*
X1899127D1*
X2025511D2*
X2195766D1*
X2272497D2*
X2318217D1*
X1480017Y4724863D2*
X1899120D1*
X2022402D2*
X2188465D1*
X2272497D2*
X2318217D1*
X1480017Y4717243D2*
X1899118D1*
X2018921D2*
X2181007D1*
X2272497D2*
X2318217D1*
X1480017Y4709623D2*
X1899117D1*
X2015268D2*
X2173766D1*
X2272497D2*
X2318217D1*
X1480017Y4702003D2*
X1899117D1*
X2011754D2*
X2167701D1*
X2272497D2*
X2318217D1*
X1480017Y4694383D2*
X1899117D1*
X2008690D2*
X2163092D1*
X2272497D2*
X2318217D1*
X1480017Y4686763D2*
X1899117D1*
X2006014D2*
X2163462D1*
X2272497D2*
X2318217D1*
X1480017Y4679143D2*
X1899087D1*
X2003300D2*
X2165616D1*
X2272497D2*
X2318217D1*
X1480017Y4671523D2*
X1898819D1*
X2000697D2*
X2169285D1*
X2272497D2*
X2318217D1*
X1480017Y4663903D2*
X1897848D1*
X1998242D2*
X2173838D1*
X2272497D2*
X2318217D1*
X1480017Y4656283D2*
X1896023D1*
X1995652D2*
X2178368D1*
X2272497D2*
X2318217D1*
X1480017Y4648663D2*
X1894069D1*
X1993384D2*
X2182602D1*
X2272497D2*
X2318217D1*
X1480017Y4641043D2*
X1892710D1*
X1992182D2*
X2186628D1*
X2272497D2*
X2318217D1*
X1480017Y4633423D2*
X1891736D1*
X1992392D2*
X2190523D1*
X2272497D2*
X2318217D1*
X1480017Y4625803D2*
X1890412D1*
X1993874D2*
X2194374D1*
X2272497D2*
X2318217D1*
X1480017Y4618183D2*
X1888156D1*
X1995688D2*
X2198192D1*
X2272497D2*
X2318217D1*
X1480017Y4610563D2*
X1884911D1*
X1996963D2*
X2081997D1*
X2106324D2*
X2201983D1*
X2272497D2*
X2318217D1*
X1480017Y4602943D2*
X1880738D1*
X1997620D2*
X2074377D1*
X2109190D2*
X2205520D1*
X2272497D2*
X2318217D1*
X1480017Y4595323D2*
X1875948D1*
X1997639D2*
X2066757D1*
X2113019D2*
X2208366D1*
X2272497D2*
X2318217D1*
X1480017Y4587703D2*
X1871071D1*
X1996502D2*
X2059137D1*
X2116576D2*
X2210345D1*
X2272497D2*
X2318217D1*
X1480017Y4580083D2*
X1865808D1*
X1993488D2*
X2051546D1*
X2119614D2*
X2212177D1*
X2272497D2*
X2318217D1*
X1480017Y4572463D2*
X1859708D1*
X1988727D2*
X2044254D1*
X2122737D2*
X2214384D1*
X2272497D2*
X2318217D1*
X1480017Y4564843D2*
X1853124D1*
X1983328D2*
X2038171D1*
X2126119D2*
X2216493D1*
X2272497D2*
X2318217D1*
X1480017Y4557223D2*
X1846820D1*
X1978072D2*
X2033553D1*
X2129458D2*
X2217911D1*
X2272497D2*
X2318217D1*
X1480017Y4549603D2*
X1841167D1*
X1972621D2*
X2033632D1*
X2132219D2*
X2218906D1*
X2272497D2*
X2318217D1*
X1480017Y4541983D2*
X1835554D1*
X1966410D2*
X2034809D1*
X2134164D2*
X2220208D1*
X2272497D2*
X2318217D1*
X1480017Y4534363D2*
X1829313D1*
X1959525D2*
X2036622D1*
X2135984D2*
X2222169D1*
X2272497D2*
X2318217D1*
X1480017Y4526743D2*
X1822674D1*
X1952268D2*
X2038953D1*
X2138187D2*
X2224175D1*
X2272497D2*
X2318217D1*
X1480017Y4519123D2*
X1816351D1*
X1945023D2*
X2041153D1*
X2140294D2*
X2225523D1*
X2272497D2*
X2318217D1*
X1480017Y4511503D2*
X1810690D1*
X1938159D2*
X2042588D1*
X2141681D2*
X2226236D1*
X2272497D2*
X2318217D1*
X1480017Y4503883D2*
X1805075D1*
X1931412D2*
X2043336D1*
X2142409D2*
X2226562D1*
X2272497D2*
X2318217D1*
X1480017Y4496263D2*
X1798803D1*
X1923957D2*
X2043675D1*
X2142739D2*
X2226696D1*
X2272497D2*
X2318217D1*
X1480017Y4488643D2*
X1791926D1*
X1915982D2*
X2043814D1*
X2142875D2*
X2226748D1*
X2272497D2*
X2318217D1*
X1480017Y4481023D2*
X1784900D1*
X1908712D2*
X2043837D1*
X2142928D2*
X2226767D1*
X2272497D2*
X2318217D1*
X1480017Y4473403D2*
X1778385D1*
X1902534D2*
X2043589D1*
X2142947D2*
X2226773D1*
X2272497D2*
X2318217D1*
X1480017Y4465783D2*
X1772642D1*
X1896678D2*
X2042625D1*
X2142953D2*
X2226776D1*
X2272497D2*
X2318217D1*
X1480017Y4458163D2*
X1766994D1*
X1890305D2*
X2040772D1*
X2142956D2*
X2226776D1*
X2272497D2*
X2318217D1*
X1480017Y4450543D2*
X1760710D1*
X1883358D2*
X2038551D1*
X2142927D2*
X2226747D1*
X2272497D2*
X2318217D1*
X1480017Y4442923D2*
X1753799D1*
X1876050D2*
X2036251D1*
X2142659D2*
X2226479D1*
X2272497D2*
X2318217D1*
X1480017Y4435303D2*
X1746503D1*
X1868559D2*
X1925002D1*
X1936867D2*
X2033690D1*
X2141688D2*
X2225508D1*
X2272497D2*
X2318217D1*
X1480017Y4427683D2*
X1739017D1*
X1861019D2*
X1914788D1*
X1942924D2*
X2031115D1*
X2139833D2*
X2223683D1*
X2272497D2*
X2318217D1*
X1480017Y4420063D2*
X1731478D1*
X1853685D2*
X1910934D1*
X1947478D2*
X2028384D1*
X2137612D2*
X2221699D1*
X2272497D2*
X2318217D1*
X1480017Y4412443D2*
X1724144D1*
X1847042D2*
X1912072D1*
X1946735D2*
X2024532D1*
X2135311D2*
X2220103D1*
X2272497D2*
X2318217D1*
X1480017Y4404823D2*
X1717502D1*
X1841249D2*
X1914357D1*
X1944837D2*
X2019143D1*
X2132750D2*
X2218425D1*
X2272497D2*
X2318217D1*
X1480017Y4397203D2*
X1711709D1*
X1835584D2*
X2012626D1*
X2130205D2*
X2216277D1*
X2272497D2*
X2318217D1*
X1480017Y4389583D2*
X1706044D1*
X1829293D2*
X2005430D1*
X2127742D2*
X2214159D1*
X2272497D2*
X2318217D1*
X1480017Y4381963D2*
X1699753D1*
X1822380D2*
X1997438D1*
X2124891D2*
X2212511D1*
X2272497D2*
X2318217D1*
X1480017Y4374343D2*
X1692840D1*
X1815083D2*
X1987648D1*
X2121594D2*
X2210815D1*
X2272497D2*
X2318217D1*
X1480017Y4366723D2*
X1685543D1*
X1807597D2*
X1975098D1*
X2118002D2*
X2208630D1*
X2272497D2*
X2318217D1*
X1480017Y4359103D2*
X1678057D1*
X1800028D2*
X1853687D1*
X1883877D2*
X1960347D1*
X2114020D2*
X2206273D1*
X2272497D2*
X2318217D1*
X1480017Y4351483D2*
X1670488D1*
X1792427D2*
X1847044D1*
X1906737D2*
X1944837D1*
X2109284D2*
X2203891D1*
X2272497D2*
X2318217D1*
X1480017Y4343863D2*
X1662887D1*
X1784813D2*
X1841250D1*
X2103657D2*
X2201042D1*
X2272497D2*
X2318217D1*
X1480017Y4336243D2*
X1655244D1*
X1777196D2*
X1835584D1*
X2097875D2*
X2197520D1*
X2272497D2*
X2318217D1*
X1480017Y4328623D2*
X1647388D1*
X1769576D2*
X1829299D1*
X2092434D2*
X2193259D1*
X2272497D2*
X2318217D1*
X1480017Y4321003D2*
X1639035D1*
X1761986D2*
X1822426D1*
X2086655D2*
X2188691D1*
X2272497D2*
X2318217D1*
X1480017Y4313383D2*
X1630294D1*
X1754634D2*
X1815297D1*
X2079452D2*
X2184769D1*
X2272497D2*
X2318217D1*
X1480017Y4305763D2*
X1621574D1*
X1747985D2*
X1823237D1*
X2070705D2*
X2181324D1*
X2272497D2*
X2318217D1*
X1480017Y4298143D2*
X1612784D1*
X1742190D2*
X1832131D1*
X2061164D2*
X2177147D1*
X2272497D2*
X2318217D1*
X1480017Y4290523D2*
X1604160D1*
X1736524D2*
X1842906D1*
X2051023D2*
X2171653D1*
X2272497D2*
X2318217D1*
X1480017Y4282903D2*
X1597161D1*
X1730263D2*
X1856154D1*
X2039075D2*
X2165352D1*
X2272497D2*
X2318217D1*
X1480017Y4275283D2*
X1592006D1*
X1723647D2*
X1872503D1*
X2023756D2*
X2159168D1*
X2272497D2*
X2318217D1*
X1480017Y4267663D2*
X1592372D1*
X1717649D2*
X1892397D1*
X2004477D2*
X2153531D1*
X2272497D2*
X2318217D1*
X1480017Y4260043D2*
X1596755D1*
X1712664D2*
X1914357D1*
X1982937D2*
X2147668D1*
X2272497D2*
X2318217D1*
X1480017Y4252423D2*
X1601792D1*
X1711121D2*
X2140431D1*
X2272497D2*
X2318217D1*
X1480017Y4244803D2*
X1606613D1*
X1712391D2*
X2131672D1*
X2272497D2*
X2318217D1*
X1480017Y4237183D2*
X1610995D1*
X1714242D2*
X2122156D1*
X2272497D2*
X2318217D1*
X1480017Y4229563D2*
X1615086D1*
X1716371D2*
X2112371D1*
X2272497D2*
X2318217D1*
X1480017Y4221943D2*
X1619037D1*
X1718833D2*
X2102241D1*
X2272497D2*
X2318217D1*
X1480017Y4214323D2*
X1623137D1*
X1721114D2*
X1809174D1*
X1821739D2*
X2092066D1*
X2272497D2*
X2318217D1*
X1480017Y4206703D2*
X1627691D1*
X1722835D2*
X1812308D1*
X1835149D2*
X2081661D1*
X2272497D2*
X2318217D1*
X1480017Y4199083D2*
X1533357D1*
X1550064D2*
X1632605D1*
X1724591D2*
X1817108D1*
X1848997D2*
X2069612D1*
X2272497D2*
X2318217D1*
X1480017Y4191463D2*
X1533357D1*
X1552960D2*
X1637272D1*
X1727025D2*
X1822519D1*
X1865252D2*
X2054255D1*
X2272497D2*
X2318217D1*
X1480017Y4183843D2*
X1533357D1*
X1557057D2*
X1641586D1*
X1730120D2*
X1827779D1*
X1884953D2*
X2034963D1*
X2272497D2*
X2318217D1*
X1480017Y4176223D2*
X1533357D1*
X1561585D2*
X1645897D1*
X1733595D2*
X1833232D1*
X1906737D2*
X2013417D1*
X2272497D2*
X2318217D1*
X1480017Y4168603D2*
X1533357D1*
X1566448D2*
X1650769D1*
X1737276D2*
X1839443D1*
X2272497D2*
X2318217D1*
X1480017Y4160983D2*
X1533357D1*
X1571555D2*
X1656447D1*
X1741057D2*
X1846298D1*
X2272497D2*
X2318217D1*
X1480017Y4153363D2*
X1533357D1*
X1576533D2*
X1662219D1*
X1745093D2*
X1853347D1*
X2272497D2*
X2318217D1*
X1480017Y4145743D2*
X1533357D1*
X1581580D2*
X1667339D1*
X1749623D2*
X1860127D1*
X2272497D2*
X2318217D1*
X1480017Y4138123D2*
X1533357D1*
X1586756D2*
X1671583D1*
X1754558D2*
X1866841D1*
X2272497D2*
X2318217D1*
X1480017Y4130503D2*
X1533357D1*
X1591790D2*
X1674722D1*
X1759461D2*
X1874343D1*
X2272497D2*
X2318217D1*
X1480017Y4122883D2*
X1533357D1*
X1597083D2*
X1676567D1*
X1764478D2*
X1882849D1*
X2272497D2*
X2318217D1*
X1480017Y4115263D2*
X1533357D1*
X1602966D2*
X1677450D1*
X1769643D2*
X1892060D1*
X2272497D2*
X2318217D1*
X1480017Y4107643D2*
X1533357D1*
X1608849D2*
X1677583D1*
X1774672D2*
X1901917D1*
X2272437D2*
X2318217D1*
X1480017Y4100023D2*
X1533357D1*
X1614237D2*
X1676774D1*
X1779994D2*
X1911978D1*
X2271842D2*
X2318217D1*
X1480017Y4092403D2*
X1533357D1*
X1619444D2*
X1674980D1*
X1786144D2*
X1922308D1*
X2270413D2*
X2318217D1*
X1480017Y4084783D2*
X1533357D1*
X1624797D2*
X1672780D1*
X1793003D2*
X1934029D1*
X2263364D2*
X2318217D1*
X1480017Y4077163D2*
X1533357D1*
X1621249D2*
X1670488D1*
X1800281D2*
X1948062D1*
X2252764D2*
X2318217D1*
X1480017Y4069543D2*
X1533357D1*
X1618793D2*
X1667929D1*
X1807760D2*
X1964706D1*
X2238541D2*
X2318217D1*
X1480017Y4061923D2*
X1533357D1*
X1616714D2*
X1665385D1*
X1815356D2*
X1984821D1*
X2219818D2*
X2318217D1*
X1480017Y4054303D2*
X1533357D1*
X1614369D2*
X1662951D1*
X1823225D2*
X2010867D1*
X2194074D2*
X2318217D1*
X1480017Y4046683D2*
X1533357D1*
X1611948D2*
X1660339D1*
X1831839D2*
X2044339D1*
X2159655D2*
X2318217D1*
X1480017Y4039063D2*
X1533357D1*
X1609573D2*
X1657775D1*
X1841579D2*
X2081997D1*
X2120097D2*
X2318217D1*
X1480017Y4031443D2*
X1533357D1*
X1606984D2*
X1655335D1*
X1852391D2*
X2318217D1*
X1480017Y4023823D2*
X1533357D1*
X1604430D2*
X1652749D1*
X1864195D2*
X2318217D1*
X1480017Y4016203D2*
X1533357D1*
X1601993D2*
X1650423D1*
X1876866D2*
X2318217D1*
X1480017Y4008583D2*
X1533357D1*
X1599379D2*
X1648686D1*
X1890362D2*
X2318217D1*
X1480017Y4000963D2*
X1533357D1*
X1596815D2*
X1646955D1*
X1905367D2*
X2318217D1*
X1480017Y3993343D2*
X1533357D1*
X1594375D2*
X1644757D1*
X1922368D2*
X2318217D1*
X1480017Y3985723D2*
X1533357D1*
X1591789D2*
X1642395D1*
X1941650D2*
X2249227D1*
X2272497D2*
X2318217D1*
X1480017Y3978103D2*
X1533357D1*
X1589463D2*
X1640011D1*
X1964436D2*
X2224224D1*
X2272497D2*
X2318217D1*
X1480017Y3970483D2*
X1533357D1*
X1587726D2*
X1637192D1*
X1992833D2*
X2194763D1*
X2272497D2*
X2318217D1*
X1480017Y3962863D2*
X1533357D1*
X1585995D2*
X1633938D1*
X2027907D2*
X2159215D1*
X2272497D2*
X2318217D1*
X1480017Y3955243D2*
X1533357D1*
X1583797D2*
X1630618D1*
X2066757D2*
X2120097D1*
X2272497D2*
X2318217D1*
X1480017Y3947623D2*
X1533357D1*
X1581435D2*
X1627637D1*
X2272497D2*
X2318217D1*
X1480017Y3940003D2*
X1533357D1*
X1579081D2*
X1624995D1*
X2272497D2*
X2318217D1*
X1480017Y3932383D2*
X1533357D1*
X1576500D2*
X1622323D1*
X2272497D2*
X2318217D1*
X1480017Y3924763D2*
X1533357D1*
X1573949D2*
X1619993D1*
X2272497D2*
X2318217D1*
X1480017Y3917143D2*
X1533357D1*
X1571513D2*
X1618481D1*
X2272497D2*
X2318217D1*
X1480017Y3909523D2*
X1533357D1*
X1568899D2*
X1617448D1*
X2272467D2*
X2318217D1*
X1480017Y3901903D2*
X1533357D1*
X1566335D2*
X1616103D1*
X1906737D2*
D3*
X2272169D2*
X2318217D1*
X1480017Y3894283D2*
X1533357D1*
X1563895D2*
X1613869D1*
X1906707D2*
X1929597D1*
X2270811D2*
X2318217D1*
X1480017Y3886663D2*
X1533357D1*
X1561280D2*
X1610890D1*
X1906439D2*
X1945216D1*
X2268166D2*
X2318217D1*
X1480017Y3879043D2*
X1533357D1*
X1558715D2*
X1607687D1*
X1905468D2*
X1962326D1*
X2257986D2*
X2318217D1*
X1480017Y3871423D2*
X1533357D1*
X1556275D2*
X1604752D1*
X1903643D2*
X1983194D1*
X2240806D2*
X2318217D1*
X1480017Y3863803D2*
X1533357D1*
X1553690D2*
X1602126D1*
X1901689D2*
X2009608D1*
X2215473D2*
X2318217D1*
X1480017Y3856183D2*
X1533357D1*
X1551393D2*
X1599430D1*
X1900330D2*
X2040911D1*
X2184232D2*
X2318217D1*
X1480017Y3848563D2*
X1533357D1*
X1549918D2*
X1596834D1*
X1899356D2*
X2318217D1*
X1480017Y3840943D2*
X1533357D1*
X1549116D2*
X1594381D1*
X1898056D2*
X2318217D1*
X1480017Y3833323D2*
X1533357D1*
X1548597D2*
X1591792D1*
X1822917D2*
X1845777D1*
X1896033D2*
X2318217D1*
X1480017Y3825703D2*
X1589464D1*
X1819109D2*
X1853397D1*
X1893712D2*
X2318217D1*
X1480017Y3818083D2*
X1587726D1*
X1815944D2*
X1861017D1*
X1891497D2*
X2318217D1*
X1480017Y3810463D2*
X1585995D1*
X1813010D2*
X2318217D1*
X1480017Y3802843D2*
X1583797D1*
X1810565D2*
X2318217D1*
X1480017Y3795223D2*
X1581435D1*
X1809037D2*
X2318217D1*
X1480017Y3787603D2*
X1579081D1*
X1808255D2*
X2318217D1*
X1480017Y3779983D2*
X1576500D1*
X1807875D2*
X2318217D1*
X1480017Y3772363D2*
X1573949D1*
X1807464D2*
X2318217D1*
X1480017Y3764743D2*
X1571513D1*
X1806438D2*
X2318217D1*
X1480017Y3757123D2*
X1568899D1*
X1804563D2*
X2318217D1*
X1480017Y3749503D2*
X1566335D1*
X1802335D2*
X2318217D1*
X1480017Y3741883D2*
X1563895D1*
X1708617D2*
X1731477D1*
X1800003D2*
X2318217D1*
X1480017Y3734263D2*
X1561280D1*
X1707439D2*
X1739409D1*
X1797179D2*
X2318217D1*
X1480017Y3726643D2*
X1558715D1*
X1705550D2*
X1748212D1*
X1793704D2*
X2318217D1*
X1480017Y3719023D2*
X1556275D1*
X1703577D2*
X1758439D1*
X1789517D2*
X2318217D1*
X1480017Y3711403D2*
X1553690D1*
X1702242D2*
X1769577D1*
X1784817D2*
X2318217D1*
X1480017Y3703783D2*
X1551363D1*
X1701534D2*
X2318217D1*
X1480017Y3696163D2*
X1549626D1*
X1701211D2*
X2318217D1*
X1480017Y3688543D2*
X1547865D1*
X1701077D2*
X2318217D1*
X1480017Y3680923D2*
X1545429D1*
X1701025D2*
X2318217D1*
X1480017Y3673303D2*
X1542364D1*
X1701007D2*
X2318217D1*
X1480017Y3665683D2*
X1539126D1*
X1700970D2*
X2318217D1*
X1480017Y3658063D2*
X1536179D1*
X1700700D2*
X2318217D1*
X1480017Y3650443D2*
X1533549D1*
X1699728D2*
X2318217D1*
X1480017Y3642823D2*
X1530881D1*
X1697903D2*
X2318217D1*
X1480017Y3635203D2*
X1528551D1*
X1695949D2*
X2318217D1*
X1480017Y3627583D2*
X1527064D1*
X1694614D2*
X2318217D1*
X1480017Y3619963D2*
X1526258D1*
X1693868D2*
X2318217D1*
X1480017Y3612343D2*
X2318217D1*
X1480017Y3604723D2*
X2318217D1*
X1480017Y3597103D2*
X2318217D1*
X1480017Y3589483D2*
X2318217D1*
X1480017Y3581863D2*
X2318217D1*
X1480017Y3574243D2*
X2318217D1*
X1480017Y3566623D2*
X2318217D1*
X1480017Y3559003D2*
X2318217D1*
X3313380Y4645027D2*
Y4637407D1*
Y4629787D1*
Y4622167D1*
Y4614547D1*
Y4606927D1*
Y4599307D1*
Y4591687D1*
Y4584067D1*
Y4576447D1*
Y4568827D1*
Y4561207D1*
Y4553587D1*
Y4545967D1*
Y4538347D1*
Y4530727D1*
Y4523107D1*
Y4515487D1*
Y4507867D1*
Y4500247D1*
Y4492627D1*
Y4485007D1*
Y4477387D1*
Y4469767D1*
Y4462147D1*
Y4454527D1*
Y4446907D1*
Y4439287D1*
Y4431667D1*
Y4424047D1*
Y4416427D1*
Y4408807D1*
Y4401187D1*
Y4393567D1*
Y4385947D1*
Y4378327D1*
Y4370707D1*
Y4363087D1*
Y4355467D1*
Y4347847D1*
Y4340227D1*
Y4332607D1*
Y4324987D1*
Y4317367D1*
Y4309747D1*
Y4302127D1*
Y4294507D1*
Y4286887D1*
Y4279267D1*
Y4271647D1*
Y4264027D1*
Y4256407D1*
Y4248787D1*
Y4241167D1*
Y4233547D1*
Y4225927D1*
Y4218307D1*
Y4210687D1*
Y4203067D1*
Y4195447D1*
Y4187827D1*
Y4180207D1*
Y4172587D1*
Y4164967D1*
Y4157347D1*
Y4149727D1*
Y4142107D1*
Y4134487D1*
Y4126867D1*
Y4119247D1*
Y4111627D1*
X3313410Y4104007D1*
X3313678Y4096387D1*
X3314649Y4088767D1*
X3316475Y4081147D1*
X3318448Y4073527D1*
X3319893Y4065907D1*
X3321000Y4058287D1*
X3374340D1*
Y4050667D1*
X3648660Y4645027D2*
X3646055Y4637407D1*
X3643787Y4629787D1*
X3642343Y4622167D1*
X3641566Y4614547D1*
X3640962Y4606927D1*
X3639823Y4599307D1*
X3637588Y4591687D1*
X3633751Y4584067D1*
X3628373Y4576447D1*
X3615301Y4568827D1*
X3598603Y4561207D1*
X3580080Y4553587D1*
X3732480Y4645027D2*
X3733658Y4637407D1*
X3735547Y4629787D1*
X3737520Y4622167D1*
X3738884Y4614547D1*
X3739860Y4606927D1*
X3741185Y4599307D1*
X3743501Y4591687D1*
X3747370Y4584067D1*
X3752764Y4576447D1*
X3765838Y4568827D1*
X3782536Y4561207D1*
X3801060Y4553587D1*
X4060140Y4645027D2*
Y4637407D1*
Y4629787D1*
Y4622167D1*
Y4614547D1*
Y4606927D1*
Y4599307D1*
Y4591687D1*
Y4584067D1*
Y4576447D1*
Y4568827D1*
Y4561207D1*
Y4553587D1*
Y4545967D1*
Y4538347D1*
Y4530727D1*
Y4523107D1*
Y4515487D1*
Y4507867D1*
Y4500247D1*
Y4492627D1*
Y4485007D1*
Y4477387D1*
Y4469767D1*
Y4462147D1*
Y4454527D1*
Y4446907D1*
Y4439287D1*
Y4431667D1*
Y4424047D1*
Y4416427D1*
Y4408807D1*
Y4401187D1*
Y4393567D1*
Y4385947D1*
Y4378327D1*
Y4370707D1*
Y4363087D1*
Y4355467D1*
Y4347847D1*
Y4340227D1*
Y4332607D1*
Y4324987D1*
Y4317367D1*
Y4309747D1*
Y4302127D1*
Y4294507D1*
Y4286887D1*
Y4279267D1*
Y4271647D1*
Y4264027D1*
Y4256407D1*
Y4248787D1*
Y4241167D1*
Y4233547D1*
Y4225927D1*
Y4218307D1*
Y4210687D1*
Y4203067D1*
Y4195447D1*
Y4187827D1*
Y4180207D1*
Y4172587D1*
Y4164967D1*
Y4157347D1*
Y4149727D1*
Y4142107D1*
Y4134487D1*
Y4126867D1*
Y4119247D1*
X4060080Y4111627D1*
X4059500Y4104007D1*
X4058116Y4096387D1*
X4052178Y4088767D1*
X4044900Y4081147D1*
X4051022Y4073527D1*
X4055449Y4065907D1*
X4058427Y4058287D1*
X4058154Y4050667D1*
X4052935Y4043047D1*
X4038753Y4035427D1*
X4022040Y4027807D1*
X4060140Y4020187D1*
Y4012567D1*
Y4004947D1*
Y3997327D1*
Y3989707D1*
Y3982087D1*
Y3974467D1*
Y3966847D1*
Y3959227D1*
Y3951607D1*
Y3943987D1*
Y3936367D1*
Y3928747D1*
Y3921127D1*
Y3913507D1*
X3503880Y4591687D2*
X3496260Y4584067D1*
X3488640Y4576447D1*
X3481050Y4568827D1*
X3473727Y4561207D1*
X3467406Y4553587D1*
X3462253Y4545967D1*
X3460798Y4538347D1*
X3463425Y4530727D1*
X3467870Y4523107D1*
X3473112Y4515487D1*
X3478273Y4507867D1*
X3483372Y4500247D1*
X3488038Y4492627D1*
X3491755Y4485007D1*
X3491203Y4477387D1*
X3489210Y4469767D1*
X3486467Y4462147D1*
X3483722Y4454527D1*
X3481021Y4446907D1*
X3477916Y4439287D1*
X3470598Y4431667D1*
X3450593Y4424047D1*
X3422316Y4416427D1*
X3389580Y4408807D1*
Y4401187D1*
Y4393567D1*
Y4385947D1*
Y4378327D1*
Y4370707D1*
Y4363087D1*
Y4355467D1*
Y4347847D1*
Y4340227D1*
X3421399Y4332607D1*
X3445839Y4324987D1*
X3463972Y4317367D1*
X3471527Y4309747D1*
X3476678Y4302127D1*
X3480284Y4294507D1*
X3483612Y4286887D1*
X3487273Y4279267D1*
X3491528Y4271647D1*
X3496260Y4264027D1*
X3489818Y4256407D1*
X3484117Y4248787D1*
X3478737Y4241167D1*
X3473423Y4233547D1*
X3468338Y4225927D1*
X3463015Y4218307D1*
X3456977Y4210687D1*
X3450540Y4203067D1*
X3460765Y4195447D1*
X3470653Y4187827D1*
X3479723Y4180207D1*
X3488130Y4172587D1*
X3496260Y4164967D1*
X3519120Y4591687D2*
X3527947Y4584067D1*
X3537748Y4576447D1*
X3548538Y4568827D1*
X3560213Y4561207D1*
X3572460Y4553587D1*
X3869640Y4591687D2*
X3855607Y4584067D1*
X3842548Y4576447D1*
X3830478Y4568827D1*
X3819293Y4561207D1*
X3808680Y4553587D1*
X3877260Y4591687D2*
X3884880Y4584067D1*
X3892500Y4576447D1*
X3900090Y4568827D1*
X3907383Y4561207D1*
X3913466Y4553587D1*
X3918084Y4545967D1*
X3917714Y4538347D1*
X3915560Y4530727D1*
X3911891Y4523107D1*
X3907309Y4515487D1*
X3902541Y4507867D1*
X3897604Y4500247D1*
X3892783Y4492627D1*
X3888571Y4485007D1*
X3887257Y4477387D1*
X3888858Y4469767D1*
X3891482Y4462147D1*
X3894748Y4454527D1*
X3898465Y4446907D1*
X3903436Y4439287D1*
X3910263Y4431667D1*
X3930419Y4424047D1*
X3958776Y4416427D1*
X3991560Y4408807D1*
Y4401187D1*
Y4393567D1*
Y4385947D1*
Y4378327D1*
Y4370707D1*
Y4363087D1*
Y4355467D1*
Y4347847D1*
Y4340227D1*
X3959741Y4332607D1*
X3935301Y4324987D1*
X3917168Y4317367D1*
X3909352Y4309747D1*
X3903463Y4302127D1*
X3898764Y4294507D1*
X3894657Y4286887D1*
X3891290Y4279267D1*
X3888744Y4271647D1*
X3890538Y4264027D1*
X3893921Y4256407D1*
X3898103Y4248787D1*
X3902819Y4241167D1*
X3907840Y4233547D1*
X3912500Y4225927D1*
X3916241Y4218307D1*
X3919022Y4210687D1*
X3917810Y4203067D1*
X3912860Y4195447D1*
X3906679Y4187827D1*
X3899706Y4180207D1*
X3892348Y4172587D1*
X3884829Y4164967D1*
X3877260Y4157347D1*
X3679140Y4454527D2*
X3661880Y4446907D1*
X3647615Y4439287D1*
X3636366Y4431667D1*
X3627314Y4424047D1*
X3620229Y4416427D1*
X3614622Y4408807D1*
X3612507Y4401187D1*
X3611084Y4393567D1*
X3609393Y4385947D1*
X3606573Y4378327D1*
X3602940Y4370707D1*
X3606487Y4363087D1*
X3608973Y4355467D1*
X3611320Y4347847D1*
X3614667Y4340227D1*
X3619210Y4332607D1*
X3624808Y4324987D1*
X3631790Y4317367D1*
X3639844Y4309747D1*
X3648083Y4302127D1*
X3656280Y4294507D1*
X3651585Y4286887D1*
X3647478Y4279267D1*
X3644129Y4271647D1*
X3641303Y4264027D1*
X3638303Y4256407D1*
X3634949Y4248787D1*
X3631366Y4241167D1*
X3627644Y4233547D1*
X3623877Y4225927D1*
X3620104Y4218307D1*
X3616572Y4210687D1*
X3613737Y4203067D1*
X3611897Y4195447D1*
X3610560Y4187827D1*
X3702000Y4454527D2*
X3719260Y4446907D1*
X3733495Y4439287D1*
X3744507Y4431667D1*
X3752854Y4424047D1*
X3759086Y4416427D1*
X3763772Y4408807D1*
X3767076Y4401187D1*
X3768980Y4393567D1*
X3769913Y4385947D1*
X3770321Y4378327D1*
X3770485Y4370707D1*
X3770517Y4363087D1*
X3770241Y4355467D1*
X3768980Y4347847D1*
X3765889Y4340227D1*
X3760842Y4332607D1*
X3754466Y4324987D1*
X3747413Y4317367D1*
X3740334Y4309747D1*
X3734331Y4302127D1*
X3729750Y4294507D1*
X3730093Y4286887D1*
X3732011Y4279267D1*
X3734947Y4271647D1*
X3738408Y4264027D1*
X3742076Y4256407D1*
X3745814Y4248787D1*
X3749362Y4241167D1*
X3752440Y4233547D1*
X3755150Y4225927D1*
X3758104Y4218307D1*
X3761416Y4210687D1*
X3764795Y4203067D1*
X3767870Y4195447D1*
X3770580Y4187827D1*
X3564840D2*
X3552274Y4180207D1*
X3539624Y4172587D1*
X3526740Y4164967D1*
X3580080Y4187827D2*
X3801060D2*
X3816300D2*
X3828621Y4180207D1*
X3840391Y4172587D1*
X3851462Y4164967D1*
X3862020Y4157347D1*
X3336240Y4096387D2*
X3328620Y4088767D1*
X3336240Y4096387D2*
X3343860Y4088767D1*
X3404820Y4096387D2*
X3397200Y4088767D1*
X3404820Y4096387D2*
X3412440Y4088767D1*
X3458160Y4096387D2*
X3450540Y4088767D1*
X3458160Y4096387D2*
X3465780Y4088767D1*
X3496260Y4096387D2*
X3481020Y4088767D1*
X3465780Y4081147D1*
X3469297Y4073527D1*
X3471486Y4065907D1*
X3472593Y4058287D1*
X3473085Y4050667D1*
X3473284Y4043047D1*
X3473361Y4035427D1*
X3473400Y4027807D1*
X3496260Y4096387D2*
Y4088767D1*
Y4081147D1*
Y4073527D1*
Y4065907D1*
Y4058287D1*
Y4050667D1*
Y4043047D1*
Y4035427D1*
Y4027807D1*
X3511500Y4096387D2*
Y4088767D1*
Y4081147D1*
Y4073527D1*
Y4065907D1*
Y4058287D1*
Y4050667D1*
Y4043047D1*
Y4035427D1*
Y4027807D1*
X3526740Y4096387D2*
Y4088767D1*
Y4081147D1*
Y4073527D1*
Y4065907D1*
Y4058287D1*
Y4050667D1*
Y4043047D1*
Y4035427D1*
Y4027807D1*
X3625800Y4096387D2*
X3613265Y4088767D1*
X3603375Y4081147D1*
X3596445Y4073527D1*
X3591251Y4065907D1*
X3589715Y4058287D1*
X3589708Y4050667D1*
X3591151Y4043047D1*
X3593232Y4035427D1*
X3595320Y4027807D1*
X3633420Y4096387D2*
X3625830Y4088767D1*
X3618507Y4081147D1*
X3612156Y4073527D1*
X3607660Y4065907D1*
X3604655Y4058287D1*
X3604926Y4050667D1*
X3610146Y4043047D1*
X3624327Y4035427D1*
X3641040Y4027807D1*
X3694380Y4096387D2*
X3686760Y4088767D1*
X3694380Y4096387D2*
X3702000Y4088767D1*
X3808680Y4096387D2*
X3796435Y4088767D1*
X3786133Y4081147D1*
X3782071Y4073527D1*
X3779856Y4065907D1*
X3778851Y4058287D1*
X3778441Y4050667D1*
X3778285Y4043047D1*
X3778228Y4035427D1*
X3778200Y4027807D1*
X3816300Y4096387D2*
X3809000Y4088767D1*
X3802654Y4081147D1*
X3798129Y4073527D1*
X3795557Y4065907D1*
X3794314Y4058287D1*
X3793777Y4050667D1*
X3793563Y4043047D1*
X3793481Y4035427D1*
X3793440Y4027807D1*
X3884880Y4096387D2*
X3877260Y4088767D1*
X3884880Y4096387D2*
X3892500Y4088767D1*
X4029660Y4096387D2*
X4037250Y4088767D1*
X4044573Y4081147D1*
X4050924Y4073527D1*
X4055420Y4065907D1*
X4058425Y4058287D1*
X4058154Y4050667D1*
X4052934Y4043047D1*
X4038753Y4035427D1*
X4022040Y4027807D1*
X4060140Y4020187D1*
Y4012567D1*
Y4004947D1*
Y3997327D1*
Y3989707D1*
Y3982087D1*
Y3974467D1*
Y3966847D1*
Y3959227D1*
Y3951607D1*
Y3943987D1*
Y3936367D1*
Y3928747D1*
Y3921127D1*
Y3913507D1*
X4044900Y4096387D2*
X4052520Y4088767D1*
X3328620Y4081147D2*
X3325075Y4073527D1*
X3322719Y4065907D1*
X3321000Y4058287D1*
X3374340D1*
Y4050667D1*
X3343860Y4081147D2*
X3351480Y4073527D1*
Y4088767D2*
X3359100Y4081147D1*
X3366720Y4073527D1*
X3389580Y4088767D2*
X3381960Y4081147D1*
X3397200D2*
X3412440D2*
X3418533Y4073527D1*
X3423595Y4065907D1*
X3425163Y4058287D1*
X3423566Y4050667D1*
X3417169Y4043047D1*
X3401133Y4035427D1*
X3381960Y4027807D1*
X3420060Y4088767D2*
X3427360Y4081147D1*
X3433676Y4073527D1*
X3438827Y4065907D1*
X3440401Y4058287D1*
X3438855Y4050667D1*
X3436074Y4043047D1*
X3432202Y4035427D1*
X3427680Y4027807D1*
X3557220Y4088767D2*
Y4081147D1*
Y4073527D1*
Y4065907D1*
X3557101Y4058287D1*
X3556744Y4050667D1*
X3553172Y4043047D1*
X3541295Y4035427D1*
X3526740Y4027807D1*
X3572460Y4088767D2*
Y4081147D1*
Y4073527D1*
Y4065907D1*
X3572430Y4058287D1*
X3572140Y4050667D1*
X3570962Y4043047D1*
X3568357Y4035427D1*
X3564840Y4027807D1*
X3625800Y4081147D2*
X3631922Y4073527D1*
X3636349Y4065907D1*
X3639327Y4058287D1*
X3638852Y4050667D1*
X3636667Y4043047D1*
X3633420Y4035427D1*
X3648660Y4088767D2*
X3649838Y4081147D1*
X3651727Y4073527D1*
X3653670Y4065907D1*
X3654707Y4058287D1*
X3654854Y4050667D1*
X3651582Y4043047D1*
X3646715Y4035427D1*
X3641040Y4027807D1*
X3679140Y4088767D2*
X3671520Y4081147D1*
X3686760D2*
X3709620Y4088767D2*
X3709144Y4081147D1*
X3705810Y4073527D1*
X3696077Y4065907D1*
X3685197Y4058287D1*
X3676316Y4050667D1*
X3669826Y4043047D1*
X3669369Y4035427D1*
X3671520Y4027807D1*
X3724860Y4088767D2*
X3724451Y4081147D1*
X3723461Y4073527D1*
X3718118Y4065907D1*
X3706588Y4058287D1*
X3695150Y4050667D1*
X3686277Y4043047D1*
X3679140Y4035427D1*
X3694380Y4027807D1*
X3808680Y4088767D2*
X3814802Y4081147D1*
X3819259Y4073527D1*
X3821811Y4065907D1*
X3823048Y4058287D1*
X3823584Y4050667D1*
X3823797Y4043047D1*
X3823879Y4035427D1*
X3823920Y4027807D1*
X3839160Y4088767D2*
Y4081147D1*
Y4073527D1*
Y4065907D1*
Y4058287D1*
Y4050667D1*
Y4043047D1*
Y4035427D1*
Y4027807D1*
X3869640Y4088767D2*
X3863518Y4081147D1*
X3859061Y4073527D1*
X3856501Y4065907D1*
X3855204Y4058287D1*
X3854400Y4050667D1*
X3900120D1*
X3898719Y4043047D1*
X3896045Y4035427D1*
X3892500Y4027807D1*
X3877260Y4081147D2*
X3873212Y4073527D1*
X3869640Y4065907D1*
X3892500Y4081147D2*
X3896548Y4073527D1*
X3900120Y4065907D1*
Y4088767D2*
X3906533Y4081147D1*
X3911936Y4073527D1*
X3916046Y4065907D1*
X3919093Y4058287D1*
X3918199Y4050667D1*
X3915810Y4043047D1*
X3912138Y4035427D1*
X3907740Y4027807D1*
X3945840Y4088767D2*
X3939718Y4081147D1*
X3935261Y4073527D1*
X3932709Y4065907D1*
X3931501Y4058287D1*
X3931256Y4050667D1*
X3932221Y4043047D1*
X3934744Y4035427D1*
X3938220Y4027807D1*
X3961080Y4088767D2*
X3954958Y4081147D1*
X3950501Y4073527D1*
X3947979Y4065907D1*
X3947099Y4058287D1*
X3947323Y4050667D1*
X3951898Y4043047D1*
X3963190Y4035427D1*
X3976320Y4027807D1*
X3961080Y4088767D2*
X3967202Y4081147D1*
X3971659Y4073527D1*
X3974211Y4065907D1*
X3975448Y4058287D1*
X3975984Y4050667D1*
X3976197Y4043047D1*
X3976277Y4035427D1*
X3976305Y4027807D1*
X3976315Y4020187D1*
X3976318Y4012567D1*
X3976320Y4004947D1*
Y3997327D1*
Y3989707D1*
Y3982087D1*
Y3974467D1*
Y3966847D1*
Y3959227D1*
Y3951607D1*
Y3943987D1*
Y3936367D1*
Y3928747D1*
Y3921127D1*
Y3913507D1*
X3999180Y4088767D2*
Y4081147D1*
Y4073527D1*
Y4065907D1*
Y4058287D1*
Y4050667D1*
Y4043047D1*
Y4035427D1*
Y4027807D1*
Y4020187D1*
Y4012567D1*
Y4004947D1*
Y3997327D1*
Y3989707D1*
Y3982087D1*
Y3974467D1*
Y3966847D1*
Y3959227D1*
Y3951607D1*
Y3943987D1*
Y3936367D1*
Y3928747D1*
Y3921127D1*
Y3913507D1*
X4014420Y4088767D2*
X4013242Y4081147D1*
X4011352Y4073527D1*
X4009360Y4065907D1*
X4007910Y4058287D1*
X4006800Y4050667D1*
X4037280Y4081147D2*
X4031156Y4073527D1*
X4026672Y4065907D1*
X4023946Y4058287D1*
X4022040Y4050667D1*
X3313380D2*
Y4043047D1*
Y4035427D1*
Y4027807D1*
Y4020187D1*
Y4012567D1*
Y4004947D1*
Y3997327D1*
Y3989707D1*
Y3982087D1*
Y3974467D1*
Y3966847D1*
Y3959227D1*
Y3951607D1*
Y3943987D1*
Y3936367D1*
Y3928747D1*
Y3921127D1*
Y3913507D1*
X3359100Y4050667D2*
Y4043047D2*
X3351480Y4035427D1*
X3343860Y4027807D1*
X3374340Y4043047D2*
X3366720Y4035427D1*
X3359100Y4027807D1*
X4006800Y4043047D2*
X4018810Y4035427D1*
X4032713Y4027807D1*
X4045129Y4020187D1*
X4054507Y4012567D1*
X4057483Y4004947D1*
X4059039Y3997327D1*
X4059719Y3989707D1*
X4059988Y3982087D1*
X4060087Y3974467D1*
X4060122Y3966847D1*
X4060134Y3959227D1*
X4060138Y3951607D1*
X4060139Y3943987D1*
X4060140Y3936367D1*
Y3928747D1*
Y3921127D1*
Y3913507D1*
X4022040Y4043047D2*
X4029660Y4035427D1*
X3321000D2*
X3328620Y4027807D1*
X3709620Y4035427D2*
X3702000Y4027807D1*
X3717240Y4035427D2*
X3724860Y4027807D1*
X3869640Y4035427D2*
X3862020Y4027807D1*
X3869640Y4035427D2*
X3877260Y4027807D1*
X3717240Y4004947D2*
Y3997327D1*
Y3989707D1*
Y3982087D1*
Y3974467D1*
Y3966847D1*
Y3959227D1*
Y3951607D1*
Y3943987D1*
Y3936367D1*
Y3928747D1*
Y3921127D1*
Y3913507D1*
X3732480Y4004947D2*
Y3997327D1*
X3732510Y3989707D1*
X3732800Y3982087D1*
X3733978Y3974467D1*
X3736583Y3966847D1*
X3740100Y3959227D1*
X3736612Y3951607D1*
X3734692Y3943987D1*
X3734561Y3936367D1*
X3735958Y3928747D1*
X3738022Y3921127D1*
X3740100Y3913507D1*
X3412440Y3974467D2*
X3406027Y3966847D1*
X3400594Y3959227D1*
X3396214Y3951607D1*
X3393001Y3943987D1*
X3391002Y3936367D1*
X3389580Y3928747D1*
X3442920D1*
X3439348Y3921127D1*
X3435300Y3913507D1*
Y3974467D2*
X3442600Y3966847D1*
X3448946Y3959227D1*
X3453471Y3951607D1*
X3456013Y3943987D1*
X3456966Y3936367D1*
X3456326Y3928747D1*
X3453941Y3921127D1*
X3450540Y3913507D1*
X3442920Y3974467D2*
X3462465Y3966847D1*
X3477723Y3959227D1*
X3489098Y3951607D1*
X3492836Y3943987D1*
X3494823Y3936367D1*
X3495705Y3928747D1*
X3496068Y3921127D1*
X3496260Y3913507D1*
X3488640Y3974467D2*
X3496260Y3966847D1*
X3511500Y3974467D2*
Y3966847D1*
Y3959227D1*
Y3951607D1*
Y3943987D1*
Y3936367D1*
Y3928747D1*
Y3921127D1*
Y3913507D1*
X3549600Y3974467D2*
X3543187Y3966847D1*
X3537754Y3959227D1*
X3533376Y3951607D1*
X3530184Y3943987D1*
X3528320Y3936367D1*
X3527398Y3928747D1*
X3526980Y3921127D1*
X3526740Y3913507D1*
X3625800Y3974467D2*
X3587700Y3966847D1*
X3549600Y3959227D1*
Y3951607D1*
Y3943987D1*
X3569796Y3936367D1*
X3585378Y3928747D1*
X3591026Y3921127D1*
X3595320Y3913507D1*
X3602940Y3974467D2*
X3603230Y3966847D1*
X3604207Y3959227D1*
X3606035Y3951607D1*
X3608008Y3943987D1*
X3609452Y3936367D1*
X3610560Y3928747D1*
X3618180Y3974467D2*
X3618470Y3966847D1*
X3619447Y3959227D1*
X3621275Y3951607D1*
X3623248Y3943987D1*
X3624692Y3936367D1*
X3625800Y3928747D1*
X3656280Y3974467D2*
X3648660Y3966847D1*
X3641040Y3959227D1*
X3663900Y3974467D2*
Y3966847D1*
Y3959227D1*
X3702000Y3974467D2*
X3695848Y3966847D1*
X3691123Y3959227D1*
X3687600Y3951607D1*
X3684536Y3943987D1*
X3682028Y3936367D1*
X3680364Y3928747D1*
X3679140Y3921127D1*
X3717240Y3974467D2*
X3711088Y3966847D1*
X3706363Y3959227D1*
X3702840Y3951607D1*
X3699748Y3943987D1*
X3696969Y3936367D1*
X3694243Y3928747D1*
X3690810Y3921127D1*
X3686760Y3913507D1*
X3717240Y3974467D2*
X3735897Y3966847D1*
X3750244Y3959227D1*
X3761109Y3951607D1*
X3766323Y3943987D1*
X3768039Y3936367D1*
X3766759Y3928747D1*
X3764888Y3921127D1*
X3762960Y3913507D1*
Y3974467D2*
X3770260Y3966847D1*
X3776606Y3959227D1*
X3781131Y3951607D1*
X3783673Y3943987D1*
X3784626Y3936367D1*
X3783986Y3928747D1*
X3781601Y3921127D1*
X3778200Y3913507D1*
X3793440Y3974467D2*
X3785820Y3966847D1*
X3808680Y3974467D2*
X3816300Y3966847D1*
X3831540Y3974467D2*
X3823920Y3966847D1*
X3816300Y3959227D1*
X3819817Y3951607D1*
X3822006Y3943987D1*
X3823113Y3936367D1*
X3823605Y3928747D1*
X3823810Y3921127D1*
X3823920Y3913507D1*
X3839160Y3974467D2*
Y3966847D1*
Y3959227D1*
Y3951607D1*
Y3943987D1*
Y3936367D1*
Y3928747D1*
Y3921127D1*
Y3913507D1*
X3869640Y3974467D2*
X3863518Y3966847D1*
X3859061Y3959227D1*
X3856509Y3951607D1*
X3855272Y3943987D1*
X3854736Y3936367D1*
X3854523Y3928747D1*
X3854441Y3921127D1*
X3854400Y3913507D1*
X3945840Y3974467D2*
X3907740Y3966847D1*
X3869640Y3959227D1*
Y3951607D1*
Y3943987D1*
X3891441Y3936367D1*
X3908484Y3928747D1*
X3922980Y3921127D1*
X3915360Y3913507D1*
X3945840Y3974467D2*
X3939718Y3966847D1*
X3935261Y3959227D1*
X3932709Y3951607D1*
X3931472Y3943987D1*
X3930936Y3936367D1*
X3930723Y3928747D1*
X3930641Y3921127D1*
X3930600Y3913507D1*
X3412440Y3959227D2*
Y3951607D1*
Y3943987D1*
X3435300Y3959227D2*
X3439348Y3951607D1*
X3442920Y3943987D1*
X3953460Y3959227D2*
X3949943Y3951607D1*
X3947754Y3943987D1*
X3946647Y3936367D1*
X3946155Y3928747D1*
X3945950Y3921127D1*
X3945840Y3913507D1*
X3656280Y3951607D2*
Y3943987D1*
Y3936367D1*
X3671520Y3951607D2*
Y3943987D1*
Y3936367D1*
X3641040Y3943987D2*
X3633420Y3936367D1*
X3641040Y3943987D2*
X3648660Y3936367D1*
X3549600Y3928747D2*
Y3921127D1*
Y3913507D1*
X3580080Y3928747D2*
Y3921127D1*
Y3913507D1*
X3869640Y3928747D2*
Y3921127D1*
Y3913507D1*
X3900120Y3928747D2*
X3907740Y3921127D1*
X3900120Y3913507D1*
X3625800Y3921127D2*
X3618180Y3913507D1*
X3641040Y3928747D2*
Y3921127D1*
Y3913507D1*
X3663900Y3928747D2*
Y3921127D1*
Y3913507D1*
X3404820Y3921127D2*
X3397200Y3913507D1*
X3404820Y3921127D2*
X3412440Y3913507D1*
X3257550Y6359020D2*
Y6351400D1*
Y6343780D1*
Y6336160D1*
Y6328540D1*
Y6320920D1*
Y6313300D1*
Y6305680D1*
Y6298060D1*
Y6290440D1*
Y6282820D1*
Y6275200D1*
Y6267580D1*
Y6259960D1*
Y6252340D1*
Y6244720D1*
Y6237100D1*
Y6229480D1*
Y6221860D1*
Y6214240D1*
Y6206620D1*
Y6199000D1*
Y6191380D1*
Y6183760D1*
Y6176140D1*
Y6168520D1*
Y6160900D1*
Y6153280D1*
Y6145660D1*
Y6138040D1*
Y6130420D1*
Y6122800D1*
Y6115180D1*
Y6107560D1*
Y6099940D1*
Y6092320D1*
Y6084700D1*
Y6077080D1*
Y6069460D1*
Y6061840D1*
Y6054220D1*
Y6046600D1*
Y6038980D1*
Y6031360D1*
Y6023740D1*
Y6016120D1*
Y6008500D1*
Y6000880D1*
Y5993260D1*
Y5985640D1*
Y5978020D1*
Y5970400D1*
Y5962780D1*
Y5955160D1*
Y5947540D1*
Y5939920D1*
Y5932300D1*
Y5924680D1*
Y5917060D1*
Y5909440D1*
Y5901820D1*
Y5894200D1*
Y5886580D1*
Y5878960D1*
Y5871340D1*
Y5863720D1*
Y5856100D1*
Y5848480D1*
Y5840860D1*
Y5833240D1*
Y5825620D1*
Y5818000D1*
Y5810380D1*
Y5802760D1*
X5010150Y6359020D2*
Y6351400D1*
Y6343780D1*
Y6336160D1*
Y6328540D1*
Y6320920D1*
Y6313300D1*
Y6305680D1*
Y6298060D1*
Y6290440D1*
Y6282820D1*
Y6275200D1*
Y6267580D1*
Y6259960D1*
Y6252340D1*
Y6244720D1*
Y6237100D1*
Y6229480D1*
Y6221860D1*
Y6214240D1*
Y6206620D1*
Y6199000D1*
Y6191380D1*
Y6183760D1*
Y6176140D1*
Y6168520D1*
Y6160900D1*
Y6153280D1*
Y6145660D1*
Y6138040D1*
Y6130420D1*
Y6122800D1*
Y6115180D1*
Y6107560D1*
Y6099940D1*
Y6092320D1*
Y6084700D1*
Y6077080D1*
Y6069460D1*
Y6061840D1*
Y6054220D1*
Y6046600D1*
Y6038980D1*
Y6031360D1*
Y6023740D1*
Y6016120D1*
Y6008500D1*
Y6000880D1*
Y5993260D1*
Y5985640D1*
Y5978020D1*
Y5970400D1*
Y5962780D1*
Y5955160D1*
Y5947540D1*
Y5939920D1*
Y5932300D1*
Y5924680D1*
Y5917060D1*
Y5909440D1*
Y5901820D1*
Y5894200D1*
Y5886580D1*
Y5878960D1*
Y5871340D1*
Y5863720D1*
Y5856100D1*
Y5848480D1*
Y5840860D1*
Y5833240D1*
Y5825620D1*
Y5818000D1*
Y5810380D1*
Y5802760D1*
X2449830Y6267580D2*
X2433483Y6259960D1*
X2419138Y6252340D1*
X2407552Y6244720D1*
X2398245Y6237100D1*
X2390993Y6229480D1*
X2385847Y6221860D1*
X2382141Y6214240D1*
X2378757Y6206620D1*
X2375279Y6199000D1*
X2371876Y6191380D1*
X2368866Y6183760D1*
X2366213Y6176140D1*
X2363538Y6168520D1*
X2361206Y6160900D1*
X2359724Y6153280D1*
X2358957Y6145660D1*
X2358599Y6138040D1*
X2358390Y6130420D1*
X2526030Y6267580D2*
X2543580Y6259960D1*
X2558792Y6252340D1*
X2571630Y6244720D1*
X2581962Y6237100D1*
X2589790Y6229480D1*
X2596184Y6221860D1*
X2601904Y6214240D1*
X2606866Y6206620D1*
X2611035Y6199000D1*
X2614389Y6191380D1*
X2617183Y6183760D1*
X2619912Y6176140D1*
X2622293Y6168520D1*
X2624050Y6160900D1*
X2625789Y6153280D1*
X2627959Y6145660D1*
X2630054Y6138040D1*
X2631437Y6130420D1*
X2632163Y6122800D1*
X2632493Y6115180D1*
X2632629Y6107560D1*
X2632681Y6099940D1*
X2632700Y6092320D1*
X2632707Y6084700D1*
X2632709Y6077080D1*
X2632710Y6069460D1*
Y6061840D1*
X2632680Y6054220D1*
X2632412Y6046600D1*
X2631441Y6038980D1*
X2629586Y6031360D1*
X2627365Y6023740D1*
X2625065Y6016120D1*
X2622503Y6008500D1*
X2619959Y6000880D1*
X2617495Y5993260D1*
X2614614Y5985640D1*
X2611080Y5978020D1*
X2606785Y5970400D1*
X2601948Y5962780D1*
X2597024Y5955160D1*
X2591456Y5947540D1*
X2584027Y5939920D1*
X2573791Y5932300D1*
X2560299Y5924680D1*
X2543902Y5917060D1*
X2526030Y5909440D1*
X2045970Y6259960D2*
Y6252340D1*
Y6244720D1*
Y6237100D1*
Y6229480D1*
Y6221860D1*
Y6214240D1*
Y6206620D1*
Y6199000D1*
Y6191380D1*
Y6183760D1*
Y6176140D1*
Y6168520D1*
Y6160900D1*
Y6153280D1*
Y6145660D1*
Y6138040D1*
Y6130420D1*
Y6122800D1*
Y6115180D1*
Y6107560D1*
Y6099940D1*
Y6092320D1*
Y6084700D1*
Y6077080D1*
Y6069460D1*
Y6061840D1*
Y6054220D1*
Y6046600D1*
Y6038980D1*
Y6031360D1*
Y6023740D1*
Y6016120D1*
Y6008500D1*
Y6000880D1*
Y5993260D1*
Y5985640D1*
Y5978020D1*
Y5970400D1*
Y5962780D1*
Y5955160D1*
Y5947540D1*
Y5939920D1*
Y5932300D1*
Y5924680D1*
Y5917060D1*
X2129790Y6259960D2*
Y6252340D1*
Y6244720D1*
Y6237100D1*
Y6229480D1*
Y6221860D1*
Y6214240D1*
Y6206620D1*
Y6199000D1*
Y6191380D1*
Y6183760D1*
Y6176140D1*
Y6168520D1*
Y6160900D1*
Y6153280D1*
Y6145660D1*
Y6138040D1*
Y6130420D1*
X2221230Y6259960D2*
Y6252340D1*
Y6244720D1*
Y6237100D1*
Y6229480D1*
Y6221860D1*
Y6214240D1*
Y6206620D1*
Y6199000D1*
Y6191380D1*
Y6183760D1*
Y6176140D1*
Y6168520D1*
Y6160900D1*
Y6153280D1*
Y6145660D1*
Y6138040D1*
Y6130420D1*
X2305050Y6259960D2*
Y6252340D1*
Y6244720D1*
Y6237100D1*
Y6229480D1*
Y6221860D1*
Y6214240D1*
Y6206620D1*
Y6199000D1*
Y6191380D1*
Y6183760D1*
Y6176140D1*
Y6168520D1*
Y6160900D1*
Y6153280D1*
Y6145660D1*
Y6138040D1*
Y6130420D1*
Y6122800D1*
Y6115180D1*
Y6107560D1*
Y6099940D1*
Y6092320D1*
Y6084700D1*
Y6077080D1*
Y6069460D1*
Y6061840D1*
Y6054220D1*
Y6046600D1*
Y6038980D1*
Y6031360D1*
Y6023740D1*
Y6016120D1*
Y6008500D1*
Y6000880D1*
Y5993260D1*
Y5985640D1*
Y5978020D1*
Y5970400D1*
Y5962780D1*
Y5955160D1*
Y5947540D1*
Y5939920D1*
Y5932300D1*
Y5924680D1*
Y5917060D1*
X2663190Y6259960D2*
Y6252340D1*
Y6244720D1*
Y6237100D1*
Y6229480D1*
Y6221860D1*
Y6214240D1*
Y6206620D1*
X2891790Y6259960D2*
Y6252340D1*
Y6244720D1*
Y6237100D1*
Y6229480D1*
Y6221860D1*
Y6214240D1*
Y6206620D1*
Y6199000D1*
Y6191380D1*
Y6183760D1*
Y6176140D1*
Y6168520D1*
Y6160900D1*
Y6153280D1*
Y6145660D1*
Y6138040D1*
Y6130420D1*
Y6122800D1*
Y6115180D1*
Y6107560D1*
Y6099940D1*
Y6092320D1*
Y6084700D1*
Y6077080D1*
Y6069460D1*
Y6061840D1*
Y6054220D1*
Y6046600D1*
Y6038980D1*
Y6031360D1*
Y6023740D1*
Y6016120D1*
Y6008500D1*
Y6000880D1*
Y5993260D1*
Y5985640D1*
Y5978020D1*
Y5970400D1*
Y5962780D1*
Y5955160D1*
Y5947540D1*
Y5939920D1*
Y5932300D1*
Y5924680D1*
Y5917060D1*
X2929890Y6259960D2*
Y6252340D1*
Y6244720D1*
Y6237100D1*
Y6229480D1*
Y6221860D1*
Y6214240D1*
Y6206620D1*
Y6199000D1*
Y6191380D1*
X3006090D1*
Y6183760D1*
Y6176140D1*
Y6168520D1*
Y6160900D1*
Y6153280D1*
Y6145660D1*
Y6138040D1*
Y6130420D1*
Y6122800D1*
Y6115180D1*
Y6107560D1*
Y6099940D1*
Y6092320D1*
Y6084700D1*
Y6077080D1*
Y6069460D1*
Y6061840D1*
Y6054220D1*
Y6046600D1*
Y6038980D1*
Y6031360D1*
Y6023740D1*
Y6016120D1*
Y6008500D1*
Y6000880D1*
Y5993260D1*
Y5985640D1*
Y5978020D1*
Y5970400D1*
Y5962780D1*
Y5955160D1*
Y5947540D1*
Y5939920D1*
Y5932300D1*
Y5924680D1*
Y5917060D1*
X3166110Y6259960D2*
Y6252340D1*
Y6244720D1*
Y6237100D1*
Y6229480D1*
Y6221860D1*
Y6214240D1*
Y6206620D1*
Y6199000D1*
Y6191380D1*
X3089910D1*
Y6183760D1*
Y6176140D1*
Y6168520D1*
Y6160900D1*
Y6153280D1*
Y6145660D1*
Y6138040D1*
Y6130420D1*
Y6122800D1*
Y6115180D1*
Y6107560D1*
Y6099940D1*
Y6092320D1*
Y6084700D1*
Y6077080D1*
Y6069460D1*
Y6061840D1*
Y6054220D1*
Y6046600D1*
Y6038980D1*
Y6031360D1*
Y6023740D1*
Y6016120D1*
Y6008500D1*
Y6000880D1*
Y5993260D1*
Y5985640D1*
Y5978020D1*
Y5970400D1*
Y5962780D1*
Y5955160D1*
Y5947540D1*
Y5939920D1*
Y5932300D1*
Y5924680D1*
Y5917060D1*
X4743450Y6267580D2*
X4728530Y6259960D1*
X4714564Y6252340D1*
X4702419Y6244720D1*
X4692257Y6237100D1*
X4683662Y6229480D1*
X4676476Y6221860D1*
X4670497Y6214240D1*
X4665048Y6206620D1*
X4659968Y6199000D1*
X4655870Y6191380D1*
X4652647Y6183760D1*
X4649681Y6176140D1*
X4646973Y6168520D1*
X4644478Y6160900D1*
X4641873Y6153280D1*
X4639570Y6145660D1*
X4638098Y6138040D1*
X4637337Y6130420D1*
X4636994Y6122800D1*
X4636853Y6115180D1*
X4636800Y6107560D1*
X4636780Y6099940D1*
X4636773Y6092320D1*
X4636771Y6084700D1*
X4636770Y6077080D1*
Y6069460D1*
Y6061840D1*
X4636800Y6054220D1*
X4637068Y6046600D1*
X4638039Y6038980D1*
X4639864Y6031360D1*
X4641847Y6023740D1*
X4643444Y6016120D1*
X4645152Y6008500D1*
X4647568Y6000880D1*
X4650656Y5993260D1*
X4654129Y5985640D1*
X4657809Y5978020D1*
X4661591Y5970400D1*
X4665685Y5962780D1*
X4670751Y5955160D1*
X4677689Y5947540D1*
X4686897Y5939920D1*
X4698912Y5932300D1*
X4715023Y5924680D1*
X4735680Y5917060D1*
X4758690Y5909440D1*
X4812030Y6267580D2*
X4826980Y6259960D1*
X4841184Y6252340D1*
X4854032Y6244720D1*
X4865078Y6237100D1*
X4874040Y6229480D1*
X4881304Y6221860D1*
X4887515Y6214240D1*
X4892709Y6206620D1*
X4896975Y6199000D1*
X4900368Y6191380D1*
X4903175Y6183760D1*
X4905910Y6176140D1*
X4908292Y6168520D1*
X4910050Y6160900D1*
X4911789Y6153280D1*
X4913959Y6145660D1*
X4916054Y6138040D1*
X4917437Y6130420D1*
X4918163Y6122800D1*
X4918493Y6115180D1*
X4918629Y6107560D1*
X4918681Y6099940D1*
X4918700Y6092320D1*
X4918707Y6084700D1*
X4918709Y6077080D1*
X4918710Y6069460D1*
X4918680Y6061840D1*
X4918412Y6054220D1*
X4917441Y6046600D1*
X4915616Y6038980D1*
X4913633Y6031360D1*
X4912036Y6023740D1*
X4910358Y6016120D1*
X4908180Y6008500D1*
X4905825Y6000880D1*
X4903444Y5993260D1*
X4900596Y5985640D1*
X4897073Y5978020D1*
X4892782Y5970400D1*
X4887917Y5962780D1*
X4882756Y5955160D1*
X4876456Y5947540D1*
X4867845Y5939920D1*
X4855924Y5932300D1*
X4838826Y5924680D1*
X4815649Y5917060D1*
X4789170Y5909440D1*
X3935730Y6221860D2*
X3923485Y6214240D1*
X3913183Y6206620D1*
X3908439Y6199000D1*
X3907398Y6191380D1*
X3907352Y6183760D1*
X3918147Y6176140D1*
X3929462Y6168520D1*
X3938511Y6160900D1*
X3945121Y6153280D1*
X3945981Y6145660D1*
X3943813Y6138040D1*
X3940859Y6130420D1*
X3937439Y6122800D1*
X3934046Y6115180D1*
X3931283Y6107560D1*
X3929620Y6099940D1*
X3929033Y6092320D1*
X3929654Y6084700D1*
X3931592Y6077080D1*
X3934518Y6069460D1*
X3938246Y6061840D1*
X3943437Y6054220D1*
X3951274Y6046600D1*
X3962208Y6038980D1*
X3975331Y6031360D1*
X3989616Y6023740D1*
X4004310Y6016120D1*
X3920490Y6221860D2*
X3939147Y6214240D1*
X3953523Y6206620D1*
X3963273Y6199000D1*
X3969917Y6191380D1*
X3974749Y6183760D1*
X3978421Y6176140D1*
X3981450Y6168520D1*
X4773930Y6206620D2*
X4760482Y6199000D1*
X4750672Y6191380D1*
X4744079Y6183760D1*
X4739905Y6176140D1*
X4737643Y6168520D1*
X4736543Y6160900D1*
X4735817Y6153280D1*
X4734665Y6145660D1*
X4732773Y6138040D1*
X4730795Y6130420D1*
X4729458Y6122800D1*
X4728748Y6115180D1*
X4728424Y6107560D1*
X4728290Y6099940D1*
X4728239Y6092320D1*
X4728220Y6084700D1*
X4728213Y6077080D1*
X4728241Y6069460D1*
X4728508Y6061840D1*
X4729479Y6054220D1*
X4731304Y6046600D1*
X4733257Y6038980D1*
X4734586Y6031360D1*
X4735323Y6023740D1*
X4735914Y6016120D1*
X4737049Y6008500D1*
X4739223Y6000880D1*
X4742462Y5993260D1*
X4746870Y5985640D1*
X4752492Y5978020D1*
X4758690Y5970400D1*
X4781550Y6206620D2*
X4794998Y6199000D1*
X4804808Y6191380D1*
X4811401Y6183760D1*
X4815605Y6176140D1*
X4818135Y6168520D1*
X4820176Y6160900D1*
X4822459Y6153280D1*
X4824593Y6145660D1*
X4825990Y6138040D1*
X4826721Y6130420D1*
X4827052Y6122800D1*
X4827189Y6115180D1*
X4827241Y6107560D1*
X4827260Y6099940D1*
X4827267Y6092320D1*
X4827269Y6084700D1*
X4827270Y6077080D1*
Y6069460D1*
Y6061840D1*
X4827240Y6054220D1*
X4826972Y6046600D1*
X4826001Y6038980D1*
X4824176Y6031360D1*
X4822193Y6023740D1*
X4820596Y6016120D1*
X4818888Y6008500D1*
X4816443Y6000880D1*
X4813088Y5993260D1*
X4808635Y5985640D1*
X4802996Y5978020D1*
X4796790Y5970400D1*
X2480310Y6206620D2*
X2467775Y6199000D1*
X2457885Y6191380D1*
X2450925Y6183760D1*
X2446228Y6176140D1*
X2442857Y6168520D1*
X2439899Y6160900D1*
X2437462Y6153280D1*
X2435937Y6145660D1*
X2435118Y6138040D1*
X2434590Y6130420D1*
X2495550Y6206620D2*
X2508085Y6199000D1*
X2518004Y6191380D1*
X2525203Y6183760D1*
X2530603Y6176140D1*
X2534828Y6168520D1*
X2537944Y6160900D1*
X2540024Y6153280D1*
X2541892Y6145660D1*
X2544112Y6138040D1*
X2546224Y6130420D1*
X2547614Y6122800D1*
X2548342Y6115180D1*
X2548673Y6107560D1*
X2548809Y6099940D1*
X2548861Y6092320D1*
X2548880Y6084700D1*
X2548887Y6077080D1*
X2548889Y6069460D1*
X2548860Y6061840D1*
X2548592Y6054220D1*
X2547621Y6046600D1*
X2545796Y6038980D1*
X2543813Y6031360D1*
X2542216Y6023740D1*
X2540508Y6016120D1*
X2538063Y6008500D1*
X2534708Y6000880D1*
X2530255Y5993260D1*
X2524616Y5985640D1*
X2518410Y5978020D1*
X2815590Y6206620D2*
Y6199000D1*
Y6191380D1*
Y6183760D1*
Y6176140D1*
Y6168520D1*
Y6160900D1*
Y6153280D1*
Y6145660D1*
Y6138040D1*
Y6130420D1*
Y6122800D1*
X3448050Y6176140D2*
X3434337Y6168520D1*
X3422529Y6160900D1*
X3413358Y6153280D1*
X3406623Y6145660D1*
X3401690Y6138040D1*
X3398280Y6130420D1*
X3396334Y6122800D1*
X3395385Y6115180D1*
X3394972Y6107560D1*
X3394806Y6099940D1*
X3394744Y6092320D1*
X3394722Y6084700D1*
X3394714Y6077080D1*
X3394711Y6069460D1*
X3394710Y6061840D1*
Y6054220D1*
Y6046600D1*
Y6038980D1*
Y6031360D1*
Y6023740D1*
Y6016120D1*
Y6008500D1*
Y6000880D1*
Y5993260D1*
Y5985640D1*
Y5978020D1*
Y5970400D1*
Y5962780D1*
Y5955160D1*
Y5947540D1*
Y5939920D1*
Y5932300D1*
Y5924680D1*
Y5917060D1*
X3493770Y6176140D2*
X3507514Y6168520D1*
X3519618Y6160900D1*
X3529964Y6153280D1*
X3539490Y6145660D1*
Y6176140D2*
Y6168520D1*
Y6160900D1*
Y6153280D1*
Y6145660D1*
X3615690Y6176140D2*
Y6168520D1*
Y6160900D1*
Y6153280D1*
Y6145660D1*
Y6138040D1*
Y6130420D1*
Y6122800D1*
Y6115180D1*
Y6107560D1*
Y6099940D1*
Y6092320D1*
Y6084700D1*
Y6077080D1*
Y6069460D1*
Y6061840D1*
Y6054220D1*
Y6046600D1*
Y6038980D1*
Y6031360D1*
Y6023740D1*
Y6016120D1*
Y6008500D1*
Y6000880D1*
Y5993260D1*
Y5985640D1*
Y5978020D1*
Y5970400D1*
Y5962780D1*
Y5955160D1*
Y5947540D1*
Y5939920D1*
Y5932300D1*
Y5924680D1*
Y5917060D1*
X3745230Y6176140D2*
X3730310Y6168520D1*
X3716374Y6160900D1*
X3704497Y6153280D1*
X3695306Y6145660D1*
X3688535Y6138040D1*
X3683333Y6130420D1*
X3678951Y6122800D1*
X3675150Y6115180D1*
X3671980Y6107560D1*
X3669267Y6099940D1*
X3666569Y6092320D1*
X3664230Y6084700D1*
X3662745Y6077080D1*
X3661979Y6069460D1*
X3661635Y6061840D1*
X3661494Y6054220D1*
X3661440Y6046600D1*
X3661420Y6038980D1*
X3661413Y6031360D1*
X3661441Y6023740D1*
X3661708Y6016120D1*
X3662679Y6008500D1*
X3664534Y6000880D1*
X3666755Y5993260D1*
X3669055Y5985640D1*
X3671617Y5978020D1*
X3674191Y5970400D1*
X3676923Y5962780D1*
X3680804Y5955160D1*
X3686491Y5947540D1*
X3694336Y5939920D1*
X3705147Y5932300D1*
X3719967Y5924680D1*
X3739040Y5917060D1*
X3760470Y5909440D1*
X3798570Y6176140D2*
X3818695Y6168520D1*
X3835937Y6160900D1*
X3849486Y6153280D1*
X3859443Y6145660D1*
X3866538Y6138040D1*
X3872107Y6130420D1*
X3877252Y6122800D1*
X3882142Y6115180D1*
X3885928Y6107560D1*
X3888420Y6099940D1*
X3890490Y6092320D1*
X3892797Y6084700D1*
X3894945Y6077080D1*
X3896347Y6069460D1*
X3897080Y6061840D1*
X3897412Y6054220D1*
X3897549Y6046600D1*
X3897601Y6038980D1*
X3897590Y6031360D1*
X3897329Y6023740D1*
X3896360Y6016120D1*
X3894536Y6008500D1*
X3892553Y6000880D1*
X3890956Y5993260D1*
X3889248Y5985640D1*
X3886803Y5978020D1*
X3883476Y5970400D1*
X3879240Y5962780D1*
X3874170Y5955160D1*
X3868259Y5947540D1*
X3860543Y5939920D1*
X3849636Y5932300D1*
X3834139Y5924680D1*
X3813781Y5917060D1*
X3790950Y5909440D1*
X4004310Y6176140D2*
X3996690Y6168520D1*
X4065270Y6176140D2*
X4085395Y6168520D1*
X4102637Y6160900D1*
X4116186Y6153280D1*
X4126143Y6145660D1*
X4133208Y6138040D1*
X4138509Y6130420D1*
X4142683Y6122800D1*
X4145748Y6115180D1*
X4147551Y6107560D1*
X4148416Y6099940D1*
X4148541Y6092320D1*
X4147699Y6084700D1*
X4145636Y6077080D1*
X4142405Y6069460D1*
X4137752Y6061840D1*
X4131314Y6054220D1*
X4123905Y6046600D1*
X4117041Y6038980D1*
X4110990Y6031360D1*
X4122098Y6023740D1*
X4131638Y6016120D1*
X4139365Y6008500D1*
X4145353Y6000880D1*
X4149950Y5993260D1*
X4153193Y5985640D1*
X4154788Y5978020D1*
X4155215Y5970400D1*
X4151923Y5962780D1*
X4146605Y5955160D1*
X4139079Y5947540D1*
X4129424Y5939920D1*
X4118610Y5932300D1*
X4130635Y5924680D1*
X4141326Y5917060D1*
X4149902Y5909440D1*
X4156125Y5901820D1*
X4160200Y5894200D1*
X4162842Y5886580D1*
X4162438Y5878960D1*
X4160659Y5871340D1*
X4157531Y5863720D1*
X4152544Y5856100D1*
X4145669Y5848480D1*
X4130408Y5840860D1*
X4110543Y5833240D1*
X4088130Y5825620D1*
X4278630Y6176140D2*
X4263710Y6168520D1*
X4249744Y6160900D1*
X4237629Y6153280D1*
X4227705Y6145660D1*
X4219842Y6138040D1*
X4213808Y6130420D1*
X4209167Y6122800D1*
X4205622Y6115180D1*
X4202756Y6107560D1*
X4200001Y6099940D1*
X4197641Y6092320D1*
X4196149Y6084700D1*
X4195351Y6077080D1*
X4194737Y6069460D1*
X4193625Y6061840D1*
X4191745Y6054220D1*
X4189752Y6046600D1*
X4188301Y6038980D1*
X4187190Y6031360D1*
X4324350Y6176140D2*
X4344215Y6168520D1*
X4360748Y6160900D1*
X4373442Y6153280D1*
X4383269Y6145660D1*
X4390989Y6138040D1*
X4397180Y6130420D1*
X4402709Y6122800D1*
X4407818Y6115180D1*
X4411925Y6107560D1*
X4415152Y6099940D1*
X4418089Y6092320D1*
X4420529Y6084700D1*
X4422053Y6077080D1*
X4422833Y6069460D1*
X4423183Y6061840D1*
X4423325Y6054220D1*
X4423380Y6046600D1*
X4423400Y6038980D1*
X4423407Y6031360D1*
X4423409Y6023740D1*
X4423380Y6016120D1*
X4423112Y6008500D1*
X4422111Y6000880D1*
X4420019Y5993260D1*
X4417064Y5985640D1*
X4413642Y5978020D1*
X4409981Y5970400D1*
X4406176Y5962780D1*
X4401846Y5955160D1*
X4396047Y5947540D1*
X4387959Y5939920D1*
X4377400Y5932300D1*
X4363406Y5924680D1*
X4345116Y5917060D1*
X4324350Y5909440D1*
X4438650Y6176140D2*
Y6168520D1*
Y6160900D1*
Y6153280D1*
Y6145660D1*
Y6138040D1*
Y6130420D1*
Y6122800D1*
Y6115180D1*
Y6107560D1*
X4460310Y6099940D1*
X4476386Y6092320D1*
X4488714Y6084700D1*
X4494335Y6077080D1*
X4498390Y6069460D1*
X4501689Y6061840D1*
X4504270Y6054220D1*
X4505846Y6046600D1*
X4506644Y6038980D1*
X4507000Y6031360D1*
X4507145Y6023740D1*
X4507200Y6016120D1*
X4507220Y6008500D1*
X4507227Y6000880D1*
X4507229Y5993260D1*
X4507230Y5985640D1*
Y5978020D1*
Y5970400D1*
Y5962780D1*
Y5955160D1*
Y5947540D1*
Y5939920D1*
Y5932300D1*
Y5924680D1*
Y5917060D1*
X4446270Y6176140D2*
X4465845Y6168520D1*
X4481401Y6160900D1*
X4492269Y6153280D1*
X4500112Y6145660D1*
X4506206Y6138040D1*
X4510478Y6130420D1*
X4513052Y6122800D1*
X4514850Y6115180D1*
Y6176140D2*
Y6168520D1*
Y6160900D1*
Y6153280D1*
Y6145660D1*
Y6138040D1*
Y6130420D1*
Y6122800D1*
Y6115180D1*
X4591050Y6176140D2*
Y6168520D1*
Y6160900D1*
Y6153280D1*
Y6145660D1*
Y6138040D1*
Y6130420D1*
Y6122800D1*
Y6115180D1*
Y6107560D1*
Y6099940D1*
Y6092320D1*
Y6084700D1*
Y6077080D1*
Y6069460D1*
Y6061840D1*
Y6054220D1*
Y6046600D1*
Y6038980D1*
Y6031360D1*
Y6023740D1*
Y6016120D1*
Y6008500D1*
Y6000880D1*
Y5993260D1*
Y5985640D1*
Y5978020D1*
Y5970400D1*
Y5962780D1*
Y5955160D1*
Y5947540D1*
Y5939920D1*
Y5932300D1*
Y5924680D1*
Y5917060D1*
X4027170Y6138040D2*
X4022475Y6130420D1*
X4018397Y6122800D1*
X4015317Y6115180D1*
X4013491Y6107560D1*
X4012584Y6099940D1*
X4012215Y6092320D1*
X4012352Y6084700D1*
X4013558Y6077080D1*
X4016602Y6069460D1*
X4021468Y6061840D1*
X4027170Y6054220D1*
X4050030Y6138040D2*
X4056152Y6130420D1*
X4060609Y6122800D1*
X4063161Y6115180D1*
X4064398Y6107560D1*
X4064934Y6099940D1*
X4065117Y6092320D1*
X4064899Y6084700D1*
X4063661Y6077080D1*
X4060604Y6069460D1*
X4055734Y6061840D1*
X4050030Y6054220D1*
X2693670Y6122800D2*
Y6115180D1*
Y6107560D1*
Y6099940D1*
Y6092320D1*
Y6084700D1*
Y6077080D1*
Y6069460D1*
Y6061840D1*
X3501390Y6122800D2*
X3491750Y6115180D1*
X3483994Y6107560D1*
X3481168Y6099940D1*
X3479648Y6092320D1*
X3478966Y6084700D1*
X3478690Y6077080D1*
X3478586Y6069460D1*
X3478549Y6061840D1*
X3478536Y6054220D1*
X3478532Y6046600D1*
X3478531Y6038980D1*
X3478530Y6031360D1*
Y6023740D1*
Y6016120D1*
Y6008500D1*
Y6000880D1*
Y5993260D1*
Y5985640D1*
Y5978020D1*
Y5970400D1*
Y5962780D1*
Y5955160D1*
Y5947540D1*
Y5939920D1*
Y5932300D1*
Y5924680D1*
Y5917060D1*
X3509010Y6122800D2*
X3518650Y6115180D1*
X3526406Y6107560D1*
X3529232Y6099940D1*
X3530752Y6092320D1*
X3531434Y6084700D1*
X3531710Y6077080D1*
X3531814Y6069460D1*
X3531851Y6061840D1*
X3531864Y6054220D1*
X3531868Y6046600D1*
X3531869Y6038980D1*
X3531870Y6031360D1*
Y6023740D1*
Y6016120D1*
Y6008500D1*
Y6000880D1*
Y5993260D1*
Y5985640D1*
Y5978020D1*
Y5970400D1*
Y5962780D1*
Y5955160D1*
Y5947540D1*
Y5939920D1*
Y5932300D1*
Y5924680D1*
Y5917060D1*
X3760470Y6122800D2*
X3756953Y6115180D1*
X3754764Y6107560D1*
X3753627Y6099940D1*
X3752868Y6092320D1*
X3751698Y6084700D1*
X3749797Y6077080D1*
X3747817Y6069460D1*
X3746478Y6061840D1*
X3745768Y6054220D1*
X3745444Y6046600D1*
X3745340Y6038980D1*
X3745556Y6031360D1*
X3746509Y6023740D1*
X3748327Y6016120D1*
X3750279Y6008500D1*
X3751607Y6000880D1*
X3752343Y5993260D1*
X3752994Y5985640D1*
X3753965Y5978020D1*
X3757813Y5970400D1*
X3766186Y5962780D1*
X3775710Y5955160D1*
X3798570Y6122800D2*
X3801175Y6115180D1*
X3803443Y6107560D1*
X3804887Y6099940D1*
X3805634Y6092320D1*
X3805970Y6084700D1*
X3806138Y6077080D1*
X3806459Y6069460D1*
X3807419Y6061840D1*
X3808983Y6054220D1*
X3809968Y6046600D1*
X3809472Y6038980D1*
X3808225Y6031360D1*
X3807220Y6023740D1*
X3806647Y6016120D1*
X3806375Y6008500D1*
X3806230Y6000880D1*
X3805918Y5993260D1*
X3804870Y5985640D1*
X3802458Y5978020D1*
X3798128Y5970400D1*
X3791473Y5962780D1*
X3783330Y5955160D1*
X4278630Y6122800D2*
X4276025Y6115180D1*
X4273757Y6107560D1*
X4272313Y6099940D1*
X4271566Y6092320D1*
X4271229Y6084700D1*
X4271087Y6077080D1*
X4271010Y6069460D1*
X4324350Y6122800D2*
X4328158Y6115180D1*
X4331323Y6107560D1*
X4334257Y6099940D1*
X4336702Y6092320D1*
X4338236Y6084700D1*
X4339060Y6077080D1*
X4339590Y6069460D1*
X2815590Y6061840D2*
Y6054220D1*
Y6046600D1*
Y6038980D1*
Y6031360D1*
Y6023740D1*
Y6016120D1*
Y6008500D1*
Y6000880D1*
Y5993260D1*
Y5985640D1*
Y5978020D1*
Y5970400D1*
X2129790Y6054220D2*
Y6046600D1*
Y6038980D1*
Y6031360D1*
Y6023740D1*
Y6016120D1*
Y6008500D1*
Y6000880D1*
Y5993260D1*
Y5985640D1*
Y5978020D1*
Y5970400D1*
Y5962780D1*
Y5955160D1*
Y5947540D1*
Y5939920D1*
Y5932300D1*
Y5924680D1*
Y5917060D1*
X2221230Y6054220D2*
Y6046600D1*
Y6038980D1*
Y6031360D1*
Y6023740D1*
Y6016120D1*
Y6008500D1*
Y6000880D1*
Y5993260D1*
Y5985640D1*
Y5978020D1*
Y5970400D1*
Y5962780D1*
Y5955160D1*
Y5947540D1*
Y5939920D1*
Y5932300D1*
Y5924680D1*
Y5917060D1*
X2358390Y6038980D2*
Y6031360D1*
X2358420Y6023740D1*
X2358688Y6016120D1*
X2359689Y6008500D1*
X2361781Y6000880D1*
X2364736Y5993260D1*
X2368158Y5985640D1*
X2371819Y5978020D1*
X2375594Y5970400D1*
X2379657Y5962780D1*
X2384484Y5955160D1*
X2390658Y5947540D1*
X2398476Y5939920D1*
X2408411Y5932300D1*
X2421382Y5924680D1*
X2438201Y5917060D1*
X2457450Y5909440D1*
X2434590Y6038980D2*
X2435797Y6031360D1*
X2437954Y6023740D1*
X2440928Y6016120D1*
X2444385Y6008500D1*
X2448315Y6000880D1*
X2453040Y5993260D1*
X2458798Y5985640D1*
X2465070Y5978020D1*
X4339590Y6031360D2*
Y6023740D1*
Y6016120D1*
X4339560Y6008500D1*
X4339292Y6000880D1*
X4338291Y5993260D1*
X4336139Y5985640D1*
X4332628Y5978020D1*
X4327049Y5970400D1*
X4318825Y5962780D1*
X4309110Y5955160D1*
X4080510Y6016120D2*
X4083715Y6008500D1*
X4085622Y6000880D1*
X4083510Y5993260D1*
X4080510Y5985640D1*
X4194810Y6000880D2*
X4195100Y5993260D1*
X4196107Y5985640D1*
X4198201Y5978020D1*
X4201156Y5970400D1*
X4204637Y5962780D1*
X4208834Y5955160D1*
X4214581Y5947540D1*
X4222651Y5939920D1*
X4233204Y5932300D1*
X4247195Y5924680D1*
X4265484Y5917060D1*
X4286250Y5909440D1*
X4255770Y6000880D2*
X4262183Y5993260D1*
X4267705Y5985640D1*
X4272956Y5978020D1*
X4279701Y5970400D1*
X4289515Y5962780D1*
X4301490Y5955160D1*
X4027170Y5985640D2*
X3993883Y5978020D1*
X3966548Y5970400D1*
X3946777Y5962780D1*
X3933140Y5955160D1*
X3923671Y5947540D1*
X3916998Y5939920D1*
X3912147Y5932300D1*
X3908784Y5924680D1*
X3906889Y5917060D1*
X3906217Y5909440D1*
X3906809Y5901820D1*
X3908737Y5894200D1*
X3911630Y5886580D1*
X3915059Y5878960D1*
X3919010Y5871340D1*
X3924051Y5863720D1*
X3931296Y5856100D1*
X3942011Y5848480D1*
X3957819Y5840860D1*
X3979410Y5833240D1*
X4004310Y5825620D1*
X2663190Y5970400D2*
Y5962780D1*
Y5955160D1*
Y5947540D1*
Y5939920D1*
Y5932300D1*
Y5924680D1*
Y5917060D1*
X4065270Y5924680D2*
X4027490Y5917060D1*
X3998895Y5909440D1*
X3988071Y5901820D1*
X3983912Y5894200D1*
X3983250Y5886580D1*
X3985752Y5878960D1*
X3989070Y5871340D1*
X4072890Y5924680D2*
X4081103Y5917060D1*
X4087339Y5909440D1*
X4092134Y5901820D1*
X4093309Y5894200D1*
X4090578Y5886580D1*
X4086003Y5878960D1*
X4080510Y5871340D1*
X1480017Y4869643D2*
Y4862023D1*
Y4854403D1*
Y4846783D1*
Y4839163D1*
Y4831543D1*
Y4823923D1*
Y4816303D1*
Y4808683D1*
Y4801063D1*
Y4793443D1*
Y4785823D1*
Y4778203D1*
Y4770583D1*
Y4762963D1*
Y4755343D1*
Y4747723D1*
Y4740103D1*
Y4732483D1*
Y4724863D1*
Y4717243D1*
Y4709623D1*
Y4702003D1*
Y4694383D1*
Y4686763D1*
Y4679143D1*
Y4671523D1*
Y4663903D1*
Y4656283D1*
Y4648663D1*
Y4641043D1*
Y4633423D1*
Y4625803D1*
Y4618183D1*
Y4610563D1*
Y4602943D1*
Y4595323D1*
Y4587703D1*
Y4580083D1*
Y4572463D1*
Y4564843D1*
Y4557223D1*
Y4549603D1*
Y4541983D1*
Y4534363D1*
Y4526743D1*
Y4519123D1*
Y4511503D1*
Y4503883D1*
Y4496263D1*
Y4488643D1*
Y4481023D1*
Y4473403D1*
Y4465783D1*
Y4458163D1*
Y4450543D1*
Y4442923D1*
Y4435303D1*
Y4427683D1*
Y4420063D1*
Y4412443D1*
Y4404823D1*
Y4397203D1*
Y4389583D1*
Y4381963D1*
Y4374343D1*
Y4366723D1*
Y4359103D1*
Y4351483D1*
Y4343863D1*
Y4336243D1*
Y4328623D1*
Y4321003D1*
Y4313383D1*
Y4305763D1*
Y4298143D1*
Y4290523D1*
Y4282903D1*
Y4275283D1*
Y4267663D1*
Y4260043D1*
Y4252423D1*
Y4244803D1*
Y4237183D1*
Y4229563D1*
Y4221943D1*
Y4214323D1*
Y4206703D1*
Y4199083D1*
Y4191463D1*
Y4183843D1*
Y4176223D1*
Y4168603D1*
Y4160983D1*
Y4153363D1*
Y4145743D1*
Y4138123D1*
Y4130503D1*
Y4122883D1*
Y4115263D1*
Y4107643D1*
Y4100023D1*
Y4092403D1*
Y4084783D1*
Y4077163D1*
Y4069543D1*
Y4061923D1*
Y4054303D1*
Y4046683D1*
Y4039063D1*
Y4031443D1*
Y4023823D1*
Y4016203D1*
Y4008583D1*
Y4000963D1*
Y3993343D1*
Y3985723D1*
Y3978103D1*
Y3970483D1*
Y3962863D1*
Y3955243D1*
Y3947623D1*
Y3940003D1*
Y3932383D1*
Y3924763D1*
Y3917143D1*
Y3909523D1*
Y3901903D1*
Y3894283D1*
Y3886663D1*
Y3879043D1*
Y3871423D1*
Y3863803D1*
Y3856183D1*
Y3848563D1*
Y3840943D1*
Y3833323D1*
Y3825703D1*
Y3818083D1*
Y3810463D1*
Y3802843D1*
Y3795223D1*
Y3787603D1*
Y3779983D1*
Y3772363D1*
Y3764743D1*
Y3757123D1*
Y3749503D1*
Y3741883D1*
Y3734263D1*
Y3726643D1*
Y3719023D1*
Y3711403D1*
Y3703783D1*
Y3696163D1*
Y3688543D1*
Y3680923D1*
Y3673303D1*
Y3665683D1*
Y3658063D1*
Y3650443D1*
Y3642823D1*
Y3635203D1*
Y3627583D1*
Y3619963D1*
Y3612343D1*
Y3604723D1*
Y3597103D1*
Y3589483D1*
Y3581863D1*
Y3574243D1*
Y3566623D1*
Y3559003D1*
X2310597Y4869643D2*
X2314114Y4862023D1*
X2316303Y4854403D1*
X2317410Y4846783D1*
X2317901Y4839163D1*
X2318100Y4831543D1*
X2318175Y4823923D1*
X2318203Y4816303D1*
X2318212Y4808683D1*
X2318215Y4801063D1*
X2318216Y4793443D1*
X2318217Y4785823D1*
Y4778203D1*
Y4770583D1*
Y4762963D1*
Y4755343D1*
Y4747723D1*
Y4740103D1*
Y4732483D1*
Y4724863D1*
Y4717243D1*
Y4709623D1*
Y4702003D1*
Y4694383D1*
Y4686763D1*
Y4679143D1*
Y4671523D1*
Y4663903D1*
Y4656283D1*
Y4648663D1*
Y4641043D1*
Y4633423D1*
Y4625803D1*
Y4618183D1*
Y4610563D1*
Y4602943D1*
Y4595323D1*
Y4587703D1*
Y4580083D1*
Y4572463D1*
Y4564843D1*
Y4557223D1*
Y4549603D1*
Y4541983D1*
Y4534363D1*
Y4526743D1*
Y4519123D1*
Y4511503D1*
Y4503883D1*
Y4496263D1*
Y4488643D1*
Y4481023D1*
Y4473403D1*
Y4465783D1*
Y4458163D1*
Y4450543D1*
Y4442923D1*
Y4435303D1*
Y4427683D1*
Y4420063D1*
Y4412443D1*
Y4404823D1*
Y4397203D1*
Y4389583D1*
Y4381963D1*
Y4374343D1*
Y4366723D1*
Y4359103D1*
Y4351483D1*
Y4343863D1*
Y4336243D1*
Y4328623D1*
Y4321003D1*
Y4313383D1*
Y4305763D1*
Y4298143D1*
Y4290523D1*
Y4282903D1*
Y4275283D1*
Y4267663D1*
Y4260043D1*
Y4252423D1*
Y4244803D1*
Y4237183D1*
Y4229563D1*
Y4221943D1*
Y4214323D1*
Y4206703D1*
Y4199083D1*
Y4191463D1*
Y4183843D1*
Y4176223D1*
Y4168603D1*
Y4160983D1*
Y4153363D1*
Y4145743D1*
Y4138123D1*
Y4130503D1*
Y4122883D1*
Y4115263D1*
Y4107643D1*
Y4100023D1*
Y4092403D1*
Y4084783D1*
Y4077163D1*
Y4069543D1*
Y4061923D1*
Y4054303D1*
Y4046683D1*
Y4039063D1*
Y4031443D1*
Y4023823D1*
Y4016203D1*
Y4008583D1*
Y4000963D1*
Y3993343D1*
Y3985723D1*
Y3978103D1*
Y3970483D1*
Y3962863D1*
Y3955243D1*
Y3947623D1*
Y3940003D1*
Y3932383D1*
Y3924763D1*
Y3917143D1*
Y3909523D1*
Y3901903D1*
Y3894283D1*
Y3886663D1*
Y3879043D1*
Y3871423D1*
Y3863803D1*
Y3856183D1*
Y3848563D1*
Y3840943D1*
Y3833323D1*
Y3825703D1*
Y3818083D1*
Y3810463D1*
Y3802843D1*
Y3795223D1*
Y3787603D1*
Y3779983D1*
Y3772363D1*
Y3764743D1*
Y3757123D1*
Y3749503D1*
Y3741883D1*
Y3734263D1*
Y3726643D1*
Y3719023D1*
Y3711403D1*
Y3703783D1*
Y3696163D1*
Y3688543D1*
Y3680923D1*
Y3673303D1*
Y3665683D1*
Y3658063D1*
Y3650443D1*
Y3642823D1*
Y3635203D1*
Y3627583D1*
Y3619963D1*
Y3612343D1*
Y3604723D1*
Y3597103D1*
Y3589483D1*
Y3581863D1*
Y3574243D1*
Y3566623D1*
Y3559003D1*
X1906737Y4816303D2*
X1906707Y4808683D1*
X1906439Y4801063D1*
X1905468Y4793443D1*
X1903643Y4785823D1*
X1901689Y4778203D1*
X1900360Y4770583D1*
X1899654Y4762963D1*
X1899330Y4755343D1*
X1899197Y4747723D1*
X1899145Y4740103D1*
X1899127Y4732483D1*
X1899120Y4724863D1*
X1899118Y4717243D1*
X1899117Y4709623D1*
Y4702003D1*
Y4694383D1*
Y4686763D1*
X1899087Y4679143D1*
X1898819Y4671523D1*
X1897848Y4663903D1*
X1896023Y4656283D1*
X1894069Y4648663D1*
X1892710Y4641043D1*
X1891736Y4633423D1*
X1890412Y4625803D1*
X1888156Y4618183D1*
X1884911Y4610563D1*
X1880738Y4602943D1*
X1875948Y4595323D1*
X1871071Y4587703D1*
X1865808Y4580083D1*
X1859708Y4572463D1*
X1853124Y4564843D1*
X1846820Y4557223D1*
X1841167Y4549603D1*
X1835554Y4541983D1*
X1829313Y4534363D1*
X1822674Y4526743D1*
X1816351Y4519123D1*
X1810690Y4511503D1*
X1805075Y4503883D1*
X1798803Y4496263D1*
X1791926Y4488643D1*
X1784900Y4481023D1*
X1778385Y4473403D1*
X1772642Y4465783D1*
X1766994Y4458163D1*
X1760710Y4450543D1*
X1753799Y4442923D1*
X1746503Y4435303D1*
X1739017Y4427683D1*
X1731478Y4420063D1*
X1724144Y4412443D1*
X1717502Y4404823D1*
X1711709Y4397203D1*
X1706044Y4389583D1*
X1699753Y4381963D1*
X1692840Y4374343D1*
X1685543Y4366723D1*
X1678057Y4359103D1*
X1670488Y4351483D1*
X1662887Y4343863D1*
X1655244Y4336243D1*
X1647388Y4328623D1*
X1639035Y4321003D1*
X1630294Y4313383D1*
X1621574Y4305763D1*
X1612784Y4298143D1*
X1604160Y4290523D1*
X1597161Y4282903D1*
X1592006Y4275283D1*
X1592372Y4267663D1*
X1596755Y4260043D1*
X1601792Y4252423D1*
X1606613Y4244803D1*
X1610995Y4237183D1*
X1615086Y4229563D1*
X1619037Y4221943D1*
X1623137Y4214323D1*
X1627691Y4206703D1*
X1632605Y4199083D1*
X1637272Y4191463D1*
X1641586Y4183843D1*
X1645897Y4176223D1*
X1650769Y4168603D1*
X1656447Y4160983D1*
X1662219Y4153363D1*
X1667339Y4145743D1*
X1671583Y4138123D1*
X1674722Y4130503D1*
X1676567Y4122883D1*
X1677450Y4115263D1*
X1677583Y4107643D1*
X1676774Y4100023D1*
X1674980Y4092403D1*
X1672780Y4084783D1*
X1670488Y4077163D1*
X1667929Y4069543D1*
X1665385Y4061923D1*
X1662951Y4054303D1*
X1660339Y4046683D1*
X1657775Y4039063D1*
X1655335Y4031443D1*
X1652749Y4023823D1*
X1650423Y4016203D1*
X1648686Y4008583D1*
X1646955Y4000963D1*
X1644757Y3993343D1*
X1642395Y3985723D1*
X1640011Y3978103D1*
X1637192Y3970483D1*
X1633938Y3962863D1*
X1630618Y3955243D1*
X1627637Y3947623D1*
X1624995Y3940003D1*
X1622323Y3932383D1*
X1619993Y3924763D1*
X1618481Y3917143D1*
X1617448Y3909523D1*
X1616103Y3901903D1*
X1613869Y3894283D1*
X1610890Y3886663D1*
X1607687Y3879043D1*
X1604752Y3871423D1*
X1602126Y3863803D1*
X1599430Y3856183D1*
X1596834Y3848563D1*
X1594381Y3840943D1*
X1591792Y3833323D1*
X1589464Y3825703D1*
X1587726Y3818083D1*
X1585995Y3810463D1*
X1583797Y3802843D1*
X1581435Y3795223D1*
X1579081Y3787603D1*
X1576500Y3779983D1*
X1573949Y3772363D1*
X1571513Y3764743D1*
X1568899Y3757123D1*
X1566335Y3749503D1*
X1563895Y3741883D1*
X1561280Y3734263D1*
X1558715Y3726643D1*
X1556275Y3719023D1*
X1553690Y3711403D1*
X1551363Y3703783D1*
X1549626Y3696163D1*
X1547865Y3688543D1*
X1545429Y3680923D1*
X1542364Y3673303D1*
X1539126Y3665683D1*
X1536179Y3658063D1*
X1533549Y3650443D1*
X1530881Y3642823D1*
X1528551Y3635203D1*
X1527064Y3627583D1*
X1526258Y3619963D1*
X1525737Y3612343D1*
X2066757Y4816303D2*
X2060344Y4808683D1*
X2054881Y4801063D1*
X2050235Y4793443D1*
X2046042Y4785823D1*
X2042085Y4778203D1*
X2038240Y4770583D1*
X2034683Y4762963D1*
X2031831Y4755343D1*
X2029850Y4747723D1*
X2027986Y4740103D1*
X2025511Y4732483D1*
X2022402Y4724863D1*
X2018921Y4717243D1*
X2015268Y4709623D1*
X2011754Y4702003D1*
X2008690Y4694383D1*
X2006014Y4686763D1*
X2003300Y4679143D1*
X2000697Y4671523D1*
X1998242Y4663903D1*
X1995652Y4656283D1*
X1993384Y4648663D1*
X1992182Y4641043D1*
X1992392Y4633423D1*
X1993874Y4625803D1*
X1995688Y4618183D1*
X1996963Y4610563D1*
X1997620Y4602943D1*
X1997639Y4595323D1*
X1996502Y4587703D1*
X1993488Y4580083D1*
X1988727Y4572463D1*
X1983328Y4564843D1*
X1978072Y4557223D1*
X1972621Y4549603D1*
X1966410Y4541983D1*
X1959525Y4534363D1*
X1952268Y4526743D1*
X1945023Y4519123D1*
X1938159Y4511503D1*
X1931412Y4503883D1*
X1923957Y4496263D1*
X1915982Y4488643D1*
X1908712Y4481023D1*
X1902534Y4473403D1*
X1896678Y4465783D1*
X1890305Y4458163D1*
X1883358Y4450543D1*
X1876050Y4442923D1*
X1868559Y4435303D1*
X1861019Y4427683D1*
X1853685Y4420063D1*
X1847042Y4412443D1*
X1841249Y4404823D1*
X1835584Y4397203D1*
X1829293Y4389583D1*
X1822380Y4381963D1*
X1815083Y4374343D1*
X1807597Y4366723D1*
X1800028Y4359103D1*
X1792427Y4351483D1*
X1784813Y4343863D1*
X1777196Y4336243D1*
X1769576Y4328623D1*
X1761986Y4321003D1*
X1754634Y4313383D1*
X1747985Y4305763D1*
X1742190Y4298143D1*
X1736524Y4290523D1*
X1730263Y4282903D1*
X1723647Y4275283D1*
X1717649Y4267663D1*
X1712664Y4260043D1*
X1711121Y4252423D1*
X1712391Y4244803D1*
X1714242Y4237183D1*
X1716371Y4229563D1*
X1718833Y4221943D1*
X1721114Y4214323D1*
X1722835Y4206703D1*
X1724591Y4199083D1*
X1727025Y4191463D1*
X1730120Y4183843D1*
X1733595Y4176223D1*
X1737276Y4168603D1*
X1741057Y4160983D1*
X1745093Y4153363D1*
X1749623Y4145743D1*
X1754558Y4138123D1*
X1759461Y4130503D1*
X1764478Y4122883D1*
X1769643Y4115263D1*
X1774672Y4107643D1*
X1779994Y4100023D1*
X1786144Y4092403D1*
X1793003Y4084783D1*
X1800281Y4077163D1*
X1807760Y4069543D1*
X1815356Y4061923D1*
X1823225Y4054303D1*
X1831839Y4046683D1*
X1841579Y4039063D1*
X1852391Y4031443D1*
X1864195Y4023823D1*
X1876866Y4016203D1*
X1890362Y4008583D1*
X1905367Y4000963D1*
X1922368Y3993343D1*
X1941650Y3985723D1*
X1964436Y3978103D1*
X1992833Y3970483D1*
X2027907Y3962863D1*
X2066757Y3955243D1*
X2264877Y4808683D2*
X2258144Y4801063D1*
X2251437Y4793443D1*
X2243963Y4785823D1*
X2235753Y4778203D1*
X2227780Y4770583D1*
X2220748Y4762963D1*
X2214764Y4755343D1*
X2209016Y4747723D1*
X2202692Y4740103D1*
X2195766Y4732483D1*
X2188465Y4724863D1*
X2181007Y4717243D1*
X2173766Y4709623D1*
X2167701Y4702003D1*
X2163092Y4694383D1*
X2163462Y4686763D1*
X2165616Y4679143D1*
X2169285Y4671523D1*
X2173838Y4663903D1*
X2178368Y4656283D1*
X2182602Y4648663D1*
X2186628Y4641043D1*
X2190523Y4633423D1*
X2194374Y4625803D1*
X2198192Y4618183D1*
X2201983Y4610563D1*
X2205520Y4602943D1*
X2208366Y4595323D1*
X2210345Y4587703D1*
X2212177Y4580083D1*
X2214384Y4572463D1*
X2216493Y4564843D1*
X2217911Y4557223D1*
X2218906Y4549603D1*
X2220208Y4541983D1*
X2222169Y4534363D1*
X2224175Y4526743D1*
X2225523Y4519123D1*
X2226236Y4511503D1*
X2226562Y4503883D1*
X2226696Y4496263D1*
X2226748Y4488643D1*
X2226767Y4481023D1*
X2226773Y4473403D1*
X2226776Y4465783D1*
Y4458163D1*
X2226747Y4450543D1*
X2226479Y4442923D1*
X2225508Y4435303D1*
X2223683Y4427683D1*
X2221699Y4420063D1*
X2220103Y4412443D1*
X2218425Y4404823D1*
X2216277Y4397203D1*
X2214159Y4389583D1*
X2212511Y4381963D1*
X2210815Y4374343D1*
X2208630Y4366723D1*
X2206273Y4359103D1*
X2203891Y4351483D1*
X2201042Y4343863D1*
X2197520Y4336243D1*
X2193259Y4328623D1*
X2188691Y4321003D1*
X2184769Y4313383D1*
X2181324Y4305763D1*
X2177147Y4298143D1*
X2171653Y4290523D1*
X2165352Y4282903D1*
X2159168Y4275283D1*
X2153531Y4267663D1*
X2147668Y4260043D1*
X2140431Y4252423D1*
X2131672Y4244803D1*
X2122156Y4237183D1*
X2112371Y4229563D1*
X2102241Y4221943D1*
X2092066Y4214323D1*
X2081661Y4206703D1*
X2069612Y4199083D1*
X2054255Y4191463D1*
X2034963Y4183843D1*
X2013417Y4176223D1*
X2272497Y4808683D2*
Y4801063D1*
Y4793443D1*
Y4785823D1*
Y4778203D1*
Y4770583D1*
Y4762963D1*
Y4755343D1*
Y4747723D1*
Y4740103D1*
Y4732483D1*
Y4724863D1*
Y4717243D1*
Y4709623D1*
Y4702003D1*
Y4694383D1*
Y4686763D1*
Y4679143D1*
Y4671523D1*
Y4663903D1*
Y4656283D1*
Y4648663D1*
Y4641043D1*
Y4633423D1*
Y4625803D1*
Y4618183D1*
Y4610563D1*
Y4602943D1*
Y4595323D1*
Y4587703D1*
Y4580083D1*
Y4572463D1*
Y4564843D1*
Y4557223D1*
Y4549603D1*
Y4541983D1*
Y4534363D1*
Y4526743D1*
Y4519123D1*
Y4511503D1*
Y4503883D1*
Y4496263D1*
Y4488643D1*
Y4481023D1*
Y4473403D1*
Y4465783D1*
Y4458163D1*
Y4450543D1*
Y4442923D1*
Y4435303D1*
Y4427683D1*
Y4420063D1*
Y4412443D1*
Y4404823D1*
Y4397203D1*
Y4389583D1*
Y4381963D1*
Y4374343D1*
Y4366723D1*
Y4359103D1*
Y4351483D1*
Y4343863D1*
Y4336243D1*
Y4328623D1*
Y4321003D1*
Y4313383D1*
Y4305763D1*
Y4298143D1*
Y4290523D1*
Y4282903D1*
Y4275283D1*
Y4267663D1*
Y4260043D1*
Y4252423D1*
Y4244803D1*
Y4237183D1*
Y4229563D1*
Y4221943D1*
Y4214323D1*
Y4206703D1*
Y4199083D1*
Y4191463D1*
Y4183843D1*
Y4176223D1*
Y4168603D1*
Y4160983D1*
Y4153363D1*
Y4145743D1*
Y4138123D1*
Y4130503D1*
Y4122883D1*
Y4115263D1*
X2272437Y4107643D1*
X2271842Y4100023D1*
X2270413Y4092403D1*
X2263364Y4084783D1*
X2252764Y4077163D1*
X2238541Y4069543D1*
X2219818Y4061923D1*
X2194074Y4054303D1*
X2159655Y4046683D1*
X2120097Y4039063D1*
X2089617Y4618183D2*
X2081997Y4610563D1*
X2074377Y4602943D1*
X2066757Y4595323D1*
X2059137Y4587703D1*
X2051546Y4580083D1*
X2044254Y4572463D1*
X2038171Y4564843D1*
X2033553Y4557223D1*
X2033632Y4549603D1*
X2034809Y4541983D1*
X2036622Y4534363D1*
X2038953Y4526743D1*
X2041153Y4519123D1*
X2042588Y4511503D1*
X2043336Y4503883D1*
X2043675Y4496263D1*
X2043814Y4488643D1*
X2043837Y4481023D1*
X2043589Y4473403D1*
X2042625Y4465783D1*
X2040772Y4458163D1*
X2038551Y4450543D1*
X2036251Y4442923D1*
X2033690Y4435303D1*
X2031115Y4427683D1*
X2028384Y4420063D1*
X2024532Y4412443D1*
X2019143Y4404823D1*
X2012626Y4397203D1*
X2005430Y4389583D1*
X1997438Y4381963D1*
X1987648Y4374343D1*
X1975098Y4366723D1*
X1960347Y4359103D1*
X1944837Y4351483D1*
X2104857Y4618183D2*
X2106324Y4610563D1*
X2109190Y4602943D1*
X2113019Y4595323D1*
X2116576Y4587703D1*
X2119614Y4580083D1*
X2122737Y4572463D1*
X2126119Y4564843D1*
X2129458Y4557223D1*
X2132219Y4549603D1*
X2134164Y4541983D1*
X2135984Y4534363D1*
X2138187Y4526743D1*
X2140294Y4519123D1*
X2141681Y4511503D1*
X2142409Y4503883D1*
X2142739Y4496263D1*
X2142875Y4488643D1*
X2142928Y4481023D1*
X2142947Y4473403D1*
X2142953Y4465783D1*
X2142956Y4458163D1*
X2142927Y4450543D1*
X2142659Y4442923D1*
X2141688Y4435303D1*
X2139833Y4427683D1*
X2137612Y4420063D1*
X2135311Y4412443D1*
X2132750Y4404823D1*
X2130205Y4397203D1*
X2127742Y4389583D1*
X2124891Y4381963D1*
X2121594Y4374343D1*
X2118002Y4366723D1*
X2114020Y4359103D1*
X2109284Y4351483D1*
X2103657Y4343863D1*
X2097875Y4336243D1*
X2092434Y4328623D1*
X2086655Y4321003D1*
X2079452Y4313383D1*
X2070705Y4305763D1*
X2061164Y4298143D1*
X2051023Y4290523D1*
X2039075Y4282903D1*
X2023756Y4275283D1*
X2004477Y4267663D1*
X1982937Y4260043D1*
X1937217Y4442923D2*
X1925002Y4435303D1*
X1914788Y4427683D1*
X1910934Y4420063D1*
X1912072Y4412443D1*
X1914357Y4404823D1*
X1929597Y4442923D2*
X1936867Y4435303D1*
X1942924Y4427683D1*
X1947478Y4420063D1*
X1946735Y4412443D1*
X1944837Y4404823D1*
X1861017Y4366723D2*
X1853687Y4359103D1*
X1847044Y4351483D1*
X1841250Y4343863D1*
X1835584Y4336243D1*
X1829299Y4328623D1*
X1822426Y4321003D1*
X1815297Y4313383D1*
X1823237Y4305763D1*
X1832131Y4298143D1*
X1842906Y4290523D1*
X1856154Y4282903D1*
X1872503Y4275283D1*
X1892397Y4267663D1*
X1914357Y4260043D1*
X1861017Y4366723D2*
X1883877Y4359103D1*
X1906737Y4351483D1*
X1807677Y4221943D2*
X1809174Y4214323D1*
X1812308Y4206703D1*
X1817108Y4199083D1*
X1822519Y4191463D1*
X1827779Y4183843D1*
X1833232Y4176223D1*
X1839443Y4168603D1*
X1846298Y4160983D1*
X1853347Y4153363D1*
X1860127Y4145743D1*
X1866841Y4138123D1*
X1874343Y4130503D1*
X1882849Y4122883D1*
X1892060Y4115263D1*
X1901917Y4107643D1*
X1911978Y4100023D1*
X1922308Y4092403D1*
X1934029Y4084783D1*
X1948062Y4077163D1*
X1964706Y4069543D1*
X1984821Y4061923D1*
X2010867Y4054303D1*
X2044339Y4046683D1*
X2081997Y4039063D1*
X1807677Y4221943D2*
X1821739Y4214323D1*
X1835149Y4206703D1*
X1848997Y4199083D1*
X1865252Y4191463D1*
X1884953Y4183843D1*
X1906737Y4176223D1*
X1533357Y4206703D2*
Y4199083D1*
Y4191463D1*
Y4183843D1*
Y4176223D1*
Y4168603D1*
Y4160983D1*
Y4153363D1*
Y4145743D1*
Y4138123D1*
Y4130503D1*
Y4122883D1*
Y4115263D1*
Y4107643D1*
Y4100023D1*
Y4092403D1*
Y4084783D1*
Y4077163D1*
Y4069543D1*
Y4061923D1*
Y4054303D1*
Y4046683D1*
Y4039063D1*
Y4031443D1*
Y4023823D1*
Y4016203D1*
Y4008583D1*
Y4000963D1*
Y3993343D1*
Y3985723D1*
Y3978103D1*
Y3970483D1*
Y3962863D1*
Y3955243D1*
Y3947623D1*
Y3940003D1*
Y3932383D1*
Y3924763D1*
Y3917143D1*
Y3909523D1*
Y3901903D1*
Y3894283D1*
Y3886663D1*
Y3879043D1*
Y3871423D1*
Y3863803D1*
Y3856183D1*
Y3848563D1*
Y3840943D1*
Y3833323D1*
X1548597Y4206703D2*
X1550064Y4199083D1*
X1552960Y4191463D1*
X1557057Y4183843D1*
X1561585Y4176223D1*
X1566448Y4168603D1*
X1571555Y4160983D1*
X1576533Y4153363D1*
X1581580Y4145743D1*
X1586756Y4138123D1*
X1591790Y4130503D1*
X1597083Y4122883D1*
X1602966Y4115263D1*
X1608849Y4107643D1*
X1614237Y4100023D1*
X1619444Y4092403D1*
X1624797Y4084783D1*
X1621249Y4077163D1*
X1618793Y4069543D1*
X1616714Y4061923D1*
X1614369Y4054303D1*
X1611948Y4046683D1*
X1609573Y4039063D1*
X1606984Y4031443D1*
X1604430Y4023823D1*
X1601993Y4016203D1*
X1599379Y4008583D1*
X1596815Y4000963D1*
X1594375Y3993343D1*
X1591789Y3985723D1*
X1589463Y3978103D1*
X1587726Y3970483D1*
X1585995Y3962863D1*
X1583797Y3955243D1*
X1581435Y3947623D1*
X1579081Y3940003D1*
X1576500Y3932383D1*
X1573949Y3924763D1*
X1571513Y3917143D1*
X1568899Y3909523D1*
X1566335Y3901903D1*
X1563895Y3894283D1*
X1561280Y3886663D1*
X1558715Y3879043D1*
X1556275Y3871423D1*
X1553690Y3863803D1*
X1551393Y3856183D1*
X1549918Y3848563D1*
X1549116Y3840943D1*
X1548597Y3833323D1*
X2272497Y3993343D2*
X2249227Y3985723D1*
X2224224Y3978103D1*
X2194763Y3970483D1*
X2159215Y3962863D1*
X2120097Y3955243D1*
X2272497Y3993343D2*
Y3985723D1*
Y3978103D1*
Y3970483D1*
Y3962863D1*
Y3955243D1*
Y3947623D1*
Y3940003D1*
Y3932383D1*
Y3924763D1*
Y3917143D1*
X2272467Y3909523D1*
X2272169Y3901903D1*
X2270811Y3894283D1*
X2268166Y3886663D1*
X2257986Y3879043D1*
X2240806Y3871423D1*
X2215473Y3863803D1*
X2184232Y3856183D1*
X2150577Y3848563D1*
X1906737Y3901903D2*
X1906707Y3894283D1*
X1906439Y3886663D1*
X1905468Y3879043D1*
X1903643Y3871423D1*
X1901689Y3863803D1*
X1900330Y3856183D1*
X1899356Y3848563D1*
X1898056Y3840943D1*
X1896033Y3833323D1*
X1893712Y3825703D1*
X1891497Y3818083D1*
X1929597Y3894283D2*
X1945216Y3886663D1*
X1962326Y3879043D1*
X1983194Y3871423D1*
X2009608Y3863803D1*
X2040911Y3856183D1*
X2074377Y3848563D1*
X1822917Y3833323D2*
X1819109Y3825703D1*
X1815944Y3818083D1*
X1813010Y3810463D1*
X1810565Y3802843D1*
X1809037Y3795223D1*
X1808255Y3787603D1*
X1807875Y3779983D1*
X1807464Y3772363D1*
X1806438Y3764743D1*
X1804563Y3757123D1*
X1802335Y3749503D1*
X1800003Y3741883D1*
X1797179Y3734263D1*
X1793704Y3726643D1*
X1789517Y3719023D1*
X1784817Y3711403D1*
X1845777Y3833323D2*
X1853397Y3825703D1*
X1861017Y3818083D1*
X1708617Y3741883D2*
X1707439Y3734263D1*
X1705550Y3726643D1*
X1703577Y3719023D1*
X1702242Y3711403D1*
X1701534Y3703783D1*
X1701211Y3696163D1*
X1701077Y3688543D1*
X1701025Y3680923D1*
X1701007Y3673303D1*
X1700970Y3665683D1*
X1700700Y3658063D1*
X1699728Y3650443D1*
X1697903Y3642823D1*
X1695949Y3635203D1*
X1694614Y3627583D1*
X1693868Y3619963D1*
X1693377Y3612343D1*
X1731477Y3741883D2*
X1739409Y3734263D1*
X1748212Y3726643D1*
X1758439Y3719023D1*
X1769577Y3711403D1*
X3304019Y2671935D2*
D70*
Y2617270D1*
X3300397Y2606320D1*
X3293069Y2599076D1*
X3282119Y2595370D1*
X3274875D1*
X3263925Y2599076D1*
X3256597Y2606320D1*
X3252975Y2617270D1*
Y2671935D1*
X3222117Y2671851D2*
X3182108D1*
X3203923Y2642707D1*
X3192973D1*
X3185730Y2639085D1*
X3182108Y2635463D1*
X3178401Y2624513D1*
Y2617270D1*
X3182108Y2606320D1*
X3189351Y2598991D1*
X3200301Y2595370D1*
X3211251D1*
X3222117Y2598991D1*
X3225739Y2602698D1*
X3229445Y2609941D1*
X2959686Y2451620D2*
X2926920D1*
X2915970Y2455326D1*
X2912264Y2458948D1*
X2908642Y2466192D1*
Y2473520D1*
X2912264Y2480764D1*
X2915970Y2484470D1*
X2926920Y2488092D1*
X2959686D1*
Y2411526D1*
X2934164Y2451620D2*
X2908642Y2411526D1*
X2885113Y2473436D2*
X2877785Y2477142D1*
X2866835Y2488008D1*
Y2411526D1*
X2843305Y2473436D2*
X2835977Y2477142D1*
X2825027Y2488008D1*
Y2411526D1*
X4722558Y3451628D2*
D72*
X4678758D1*
X4664270Y3456457D1*
X4659328Y3461399D1*
X4654499Y3471057D1*
Y3485657D1*
X4659328Y3495316D1*
X4664270Y3500257D1*
X4678758Y3505087D1*
X4722558D1*
Y3402999D1*
X4623127Y3471057D2*
Y3402999D1*
Y3441857D2*
X4618185Y3456457D1*
X4608527Y3466228D1*
X4598756Y3471057D1*
X4584156D1*
X4528525D2*
X4538183Y3466228D1*
X4547954Y3456457D1*
X4552783Y3441857D1*
Y3432199D1*
X4547954Y3417599D1*
X4538183Y3407940D1*
X4528525Y3402999D1*
X4513925D1*
X4504154Y3407940D1*
X4494496Y3417599D1*
X4489554Y3432199D1*
Y3441857D1*
X4494496Y3456457D1*
X4504154Y3466228D1*
X4513925Y3471057D1*
X4528525D1*
X4399894Y3466228D2*
Y3388399D1*
X4404723Y3373911D1*
X4409552Y3368970D1*
X4419323Y3364140D1*
X4433923D1*
X4443582Y3368970D1*
X4399894Y3451628D2*
X4409552Y3461287D1*
X4419323Y3466228D1*
X4433923D1*
X4443582Y3461287D1*
X4453352Y3451628D1*
X4458182Y3437028D1*
Y3427257D1*
X4453352Y3412770D1*
X4443582Y3402999D1*
X4433923Y3398170D1*
X4419323D1*
X4409552Y3402999D1*
X4399894Y3412770D1*
X4368521Y3471057D2*
Y3402999D1*
Y3441857D2*
X4363580Y3456457D1*
X4353921Y3466228D1*
X4344151Y3471057D1*
X4329551D1*
X4239890D2*
Y3402999D1*
Y3456457D2*
X4249549Y3466228D1*
X4259320Y3471057D1*
X4273807D1*
X4283578Y3466228D1*
X4293236Y3456457D1*
X4298178Y3441857D1*
Y3432199D1*
X4293236Y3417599D1*
X4283578Y3407940D1*
X4273807Y3402999D1*
X4259320D1*
X4249549Y3407940D1*
X4239890Y3417599D1*
X4208518Y3471057D2*
Y3402999D1*
Y3451628D2*
X4193918Y3466228D1*
X4184147Y3471057D1*
X4169659D1*
X4159888Y3466228D1*
X4155059Y3451628D1*
Y3402999D1*
Y3451628D2*
X4140459Y3466228D1*
X4130688Y3471057D1*
X4116201D1*
X4106430Y3466228D1*
X4101488Y3451628D1*
Y3402999D1*
X4070116Y3471057D2*
Y3402999D1*
Y3451628D2*
X4055516Y3466228D1*
X4045745Y3471057D1*
X4031257D1*
X4021487Y3466228D1*
X4016657Y3451628D1*
Y3402999D1*
Y3451628D2*
X4002057Y3466228D1*
X3992287Y3471057D1*
X3977799D1*
X3968028Y3466228D1*
X3963087Y3451628D1*
Y3402999D1*
X3931714Y3505087D2*
X3926885Y3500257D1*
X3921943Y3505087D1*
X3926885Y3510028D1*
X3931714Y3505087D1*
X3926885Y3471057D2*
Y3402999D1*
X3890571Y3471057D2*
Y3402999D1*
Y3451628D2*
X3875971Y3466228D1*
X3866200Y3471057D1*
X3851712D1*
X3841942Y3466228D1*
X3837112Y3451628D1*
Y3402999D1*
X3747452Y3466228D2*
Y3388399D1*
X3752281Y3373911D1*
X3757111Y3368970D1*
X3766881Y3364140D1*
X3781481D1*
X3791140Y3368970D1*
X3747452Y3451628D2*
X3757111Y3461287D1*
X3766881Y3466228D1*
X3781481D1*
X3791140Y3461287D1*
X3800911Y3451628D1*
X3805740Y3437028D1*
Y3427257D1*
X3800911Y3412770D1*
X3791140Y3402999D1*
X3781481Y3398170D1*
X3766881D1*
X3757111Y3402999D1*
X3747452Y3412770D1*
X3617322Y3505087D2*
X3612493Y3500257D1*
X3607552Y3505087D1*
X3612493Y3510028D1*
X3617322Y3505087D1*
X3612493Y3471057D2*
Y3402999D1*
X3576179Y3471057D2*
Y3402999D1*
Y3451628D2*
X3561579Y3466228D1*
X3551808Y3471057D1*
X3537321D1*
X3527550Y3466228D1*
X3522721Y3451628D1*
Y3402999D1*
X3437890Y3456457D2*
X3442719Y3466228D1*
X3457319Y3471057D1*
X3471919D1*
X3486519Y3466228D1*
X3491348Y3456457D1*
X3486519Y3446799D1*
X3476748Y3441857D1*
X3452490Y3437028D1*
X3442719Y3432199D1*
X3437890Y3422428D1*
Y3417599D1*
X3442719Y3407940D1*
X3457319Y3402999D1*
X3471919D1*
X3486519Y3407940D1*
X3491348Y3417599D1*
X3391917Y3505087D2*
Y3422428D1*
X3387088Y3407940D1*
X3377317Y3402999D1*
X3367659D1*
X3406517Y3471057D2*
X3372488D1*
X3336286D2*
Y3402999D1*
Y3441857D2*
X3331345Y3456457D1*
X3321686Y3466228D1*
X3311915Y3471057D1*
X3297315D1*
X3265943D2*
Y3422428D1*
X3261114Y3407940D1*
X3251343Y3402999D1*
X3236743D1*
X3227084Y3407940D1*
X3212484Y3422428D1*
Y3471057D2*
Y3402999D1*
X3122712Y3456457D2*
X3132483Y3466228D1*
X3142253Y3471057D1*
X3156741D1*
X3166512Y3466228D1*
X3176170Y3456457D1*
X3181112Y3441857D1*
Y3432199D1*
X3176170Y3417599D1*
X3166512Y3407940D1*
X3156741Y3402999D1*
X3142253D1*
X3132483Y3407940D1*
X3122712Y3417599D1*
X3076739Y3505087D2*
Y3422428D1*
X3071910Y3407940D1*
X3062139Y3402999D1*
X3052481D1*
X3091339Y3471057D2*
X3057310D1*
X3021108Y3505087D2*
X3016279Y3500257D1*
X3011337Y3505087D1*
X3016279Y3510028D1*
X3021108Y3505087D1*
X3016279Y3471057D2*
Y3402999D1*
X2955706Y3471057D2*
X2965365Y3466228D1*
X2975136Y3456457D1*
X2979965Y3441857D1*
Y3432199D1*
X2975136Y3417599D1*
X2965365Y3407940D1*
X2955706Y3402999D1*
X2941106D1*
X2931336Y3407940D1*
X2921677Y3417599D1*
X2916736Y3432199D1*
Y3441857D1*
X2921677Y3456457D1*
X2931336Y3466228D1*
X2941106Y3471057D1*
X2955706D1*
X2885363D2*
Y3402999D1*
Y3451628D2*
X2870763Y3466228D1*
X2860992Y3471057D1*
X2846505D1*
X2836734Y3466228D1*
X2831905Y3451628D1*
Y3402999D1*
X2747074Y3456457D2*
X2751903Y3466228D1*
X2766503Y3471057D1*
X2781103D1*
X2795703Y3466228D1*
X2800532Y3456457D1*
X2795703Y3446799D1*
X2785932Y3441857D1*
X2761674Y3437028D1*
X2751903Y3432199D1*
X2747074Y3422428D1*
Y3417599D1*
X2751903Y3407940D1*
X2766503Y3402999D1*
X2781103D1*
X2795703Y3407940D1*
X2800532Y3417599D1*
X2710760Y3471057D2*
X2715701Y3466116D1*
X2710760Y3461287D1*
X2705930Y3466116D1*
X2710760Y3471057D1*
Y3412770D2*
X2715701Y3407828D1*
X2710760Y3402999D1*
X2705930Y3407828D1*
X2710760Y3412770D1*
X4823772Y3279354D2*
X4833431Y3274525D1*
X4843201Y3264754D1*
X4848031Y3250154D1*
Y3240496D1*
X4843201Y3225896D1*
X4833431Y3216237D1*
X4823772Y3211296D1*
X4809172D1*
X4799401Y3216237D1*
X4789743Y3225896D1*
X4784801Y3240496D1*
Y3250154D1*
X4789743Y3264754D1*
X4799401Y3274525D1*
X4809172Y3279354D1*
X4823772D1*
X4753429Y3313383D2*
X4748600Y3308554D1*
X4743658Y3313383D1*
X4748600Y3318325D1*
X4753429Y3313383D1*
X4748600Y3279354D2*
Y3211296D1*
X4697686Y3313383D2*
Y3230725D1*
X4692856Y3216237D1*
X4683086Y3211296D1*
X4673427D1*
X4712286Y3279354D2*
X4678256D1*
X4637225Y3221066D2*
X4642055Y3216125D1*
X4637225Y3211296D1*
X4632284Y3216125D1*
X4637225Y3221066D1*
X4600911Y3250154D2*
X4542623D1*
Y3259925D1*
X4547453Y3269696D1*
X4552282Y3274525D1*
X4562053Y3279354D1*
X4576653D1*
X4586311Y3274525D1*
X4596082Y3264754D1*
X4600911Y3250154D1*
Y3240496D1*
X4596082Y3225896D1*
X4586311Y3216237D1*
X4576653Y3211296D1*
X4562053D1*
X4552282Y3216237D1*
X4542623Y3225896D1*
X4452963Y3313383D2*
Y3211296D1*
Y3264754D2*
X4462622Y3274525D1*
X4472392Y3279354D1*
X4486992D1*
X4496651Y3274525D1*
X4506422Y3264754D1*
X4511251Y3250154D1*
Y3240496D1*
X4506422Y3225896D1*
X4496651Y3216237D1*
X4486992Y3211296D1*
X4472392D1*
X4462622Y3216237D1*
X4452963Y3225896D1*
X4421591Y3279354D2*
Y3230725D1*
X4416761Y3216237D1*
X4406991Y3211296D1*
X4392391D1*
X4382732Y3216237D1*
X4368132Y3230725D1*
Y3279354D2*
Y3211296D1*
X4336760D2*
X4268701Y3313271D1*
X4178929Y3264754D2*
X4188699Y3274525D1*
X4198470Y3279354D1*
X4212958D1*
X4222729Y3274525D1*
X4232387Y3264754D1*
X4237329Y3250154D1*
Y3240496D1*
X4232387Y3225896D1*
X4222729Y3216237D1*
X4212958Y3211296D1*
X4198470D1*
X4188699Y3216237D1*
X4178929Y3225896D1*
X4147556Y3250154D2*
X4089268D1*
Y3259925D1*
X4094098Y3269696D1*
X4098927Y3274525D1*
X4108698Y3279354D1*
X4123298D1*
X4132956Y3274525D1*
X4142727Y3264754D1*
X4147556Y3250154D1*
Y3240496D1*
X4142727Y3225896D1*
X4132956Y3216237D1*
X4123298Y3211296D1*
X4108698D1*
X4098927Y3216237D1*
X4089268Y3225896D1*
X4043296Y3313383D2*
Y3230725D1*
X4038467Y3216237D1*
X4028696Y3211296D1*
X4019037D1*
X4057896Y3279354D2*
X4023867D1*
X3987665Y3211296D2*
X3919606Y3313271D1*
X3863975Y3279354D2*
X3873634Y3274525D1*
X3883405Y3264754D1*
X3888234Y3250154D1*
Y3240496D1*
X3883405Y3225896D1*
X3873634Y3216237D1*
X3863975Y3211296D1*
X3849375D1*
X3839605Y3216237D1*
X3829946Y3225896D1*
X3825005Y3240496D1*
Y3250154D1*
X3829946Y3264754D1*
X3839605Y3274525D1*
X3849375Y3279354D1*
X3863975D1*
X3793632D2*
Y3177266D1*
Y3264754D2*
X3783861Y3274413D1*
X3774203Y3279354D1*
X3759603D1*
X3749832Y3274413D1*
X3740174Y3264754D1*
X3735232Y3250154D1*
Y3240383D1*
X3740174Y3225896D1*
X3749832Y3216125D1*
X3759603Y3211296D1*
X3774203D1*
X3783861Y3216125D1*
X3793632Y3225896D1*
X3703860Y3250154D2*
X3645572D1*
Y3259925D1*
X3650401Y3269696D1*
X3655230Y3274525D1*
X3665001Y3279354D1*
X3679601D1*
X3689260Y3274525D1*
X3699030Y3264754D1*
X3703860Y3250154D1*
Y3240496D1*
X3699030Y3225896D1*
X3689260Y3216237D1*
X3679601Y3211296D1*
X3665001D1*
X3655230Y3216237D1*
X3645572Y3225896D1*
X3614199Y3279354D2*
Y3211296D1*
Y3259925D2*
X3599599Y3274525D1*
X3589829Y3279354D1*
X3575341D1*
X3565570Y3274525D1*
X3560741Y3259925D1*
Y3211296D1*
X3529368Y3262283D2*
X3473214D1*
X3388383Y3264754D2*
X3393213Y3274525D1*
X3407813Y3279354D1*
X3422413D1*
X3437013Y3274525D1*
X3441842Y3264754D1*
X3437013Y3255096D1*
X3427242Y3250154D1*
X3402983Y3245325D1*
X3393213Y3240496D1*
X3388383Y3230725D1*
Y3225896D1*
X3393213Y3216237D1*
X3407813Y3211296D1*
X3422413D1*
X3437013Y3216237D1*
X3441842Y3225896D1*
X3332752Y3279354D2*
X3342411Y3274525D1*
X3352182Y3264754D1*
X3357011Y3250154D1*
Y3240496D1*
X3352182Y3225896D1*
X3342411Y3216237D1*
X3332752Y3211296D1*
X3318152D1*
X3308382Y3216237D1*
X3298723Y3225896D1*
X3293782Y3240496D1*
Y3250154D1*
X3298723Y3264754D1*
X3308382Y3274525D1*
X3318152Y3279354D1*
X3332752D1*
X3262409D2*
Y3230725D1*
X3257580Y3216237D1*
X3247809Y3211296D1*
X3233209D1*
X3223551Y3216237D1*
X3208951Y3230725D1*
Y3279354D2*
Y3211296D1*
X3177578Y3279354D2*
Y3211296D1*
Y3250154D2*
X3172637Y3264754D1*
X3162978Y3274525D1*
X3153207Y3279354D1*
X3138607D1*
X3048835Y3264754D2*
X3058606Y3274525D1*
X3068376Y3279354D1*
X3082864D1*
X3092635Y3274525D1*
X3102293Y3264754D1*
X3107235Y3250154D1*
Y3240496D1*
X3102293Y3225896D1*
X3092635Y3216237D1*
X3082864Y3211296D1*
X3068376D1*
X3058606Y3216237D1*
X3048835Y3225896D1*
X3017462Y3250154D2*
X2959175D1*
Y3259925D1*
X2964004Y3269696D1*
X2968833Y3274525D1*
X2978604Y3279354D1*
X2993204D1*
X3002862Y3274525D1*
X3012633Y3264754D1*
X3017462Y3250154D1*
Y3240496D1*
X3012633Y3225896D1*
X3002862Y3216237D1*
X2993204Y3211296D1*
X2978604D1*
X2968833Y3216237D1*
X2959175Y3225896D1*
X2927802Y3262283D2*
X2871648D1*
X2840276Y3279354D2*
Y3177266D1*
Y3264754D2*
X2830505Y3274413D1*
X2820846Y3279354D1*
X2806246D1*
X2796476Y3274413D1*
X2786817Y3264754D1*
X2781876Y3250154D1*
Y3240383D1*
X2786817Y3225896D1*
X2796476Y3216125D1*
X2806246Y3211296D1*
X2820846D1*
X2830505Y3216125D1*
X2840276Y3225896D1*
X2750503Y3279354D2*
Y3211296D1*
Y3250154D2*
X2745562Y3264754D1*
X2735903Y3274525D1*
X2726132Y3279354D1*
X2711532D1*
X2655901D2*
X2665560Y3274525D1*
X2675330Y3264754D1*
X2680160Y3250154D1*
Y3240496D1*
X2675330Y3225896D1*
X2665560Y3216237D1*
X2655901Y3211296D1*
X2641301D1*
X2631530Y3216237D1*
X2621872Y3225896D1*
X2616930Y3240496D1*
Y3250154D1*
X2621872Y3264754D1*
X2631530Y3274525D1*
X2641301Y3279354D1*
X2655901D1*
X2566129Y3313496D2*
X2561187Y3308666D1*
X2556358Y3313496D1*
X2561187Y3318325D1*
X2566129Y3313496D1*
X2561187Y3279466D2*
Y3196808D1*
X2566129Y3182208D1*
X2575787Y3177379D1*
X2585558D1*
X2524985Y3250154D2*
X2466698D1*
Y3259925D1*
X2471527Y3269696D1*
X2476356Y3274525D1*
X2486127Y3279354D1*
X2500727D1*
X2510385Y3274525D1*
X2520156Y3264754D1*
X2524985Y3250154D1*
Y3240496D1*
X2520156Y3225896D1*
X2510385Y3216237D1*
X2500727Y3211296D1*
X2486127D1*
X2476356Y3216237D1*
X2466698Y3225896D1*
X2376925Y3264754D2*
X2386696Y3274525D1*
X2396467Y3279354D1*
X2410954D1*
X2420725Y3274525D1*
X2430384Y3264754D1*
X2435325Y3250154D1*
Y3240496D1*
X2430384Y3225896D1*
X2420725Y3216237D1*
X2410954Y3211296D1*
X2396467D1*
X2386696Y3216237D1*
X2376925Y3225896D1*
X2330953Y3313383D2*
Y3230725D1*
X2326123Y3216237D1*
X2316353Y3211296D1*
X2306694D1*
X2345553Y3279354D2*
X2311523D1*
X2221863Y3264754D2*
X2226692Y3274525D1*
X2241292Y3279354D1*
X2255892D1*
X2270492Y3274525D1*
X2275322Y3264754D1*
X2270492Y3255096D1*
X2260722Y3250154D1*
X2236463Y3245325D1*
X2226692Y3240496D1*
X2221863Y3230725D1*
Y3225896D1*
X2226692Y3216237D1*
X2241292Y3211296D1*
X2255892D1*
X2270492Y3216237D1*
X2275322Y3225896D1*
X4610939Y5518350D2*
D75*
X4635085Y5506277D1*
X4659512Y5481850D1*
X4671585Y5445350D1*
Y5421204D1*
X4659512Y5384704D1*
X4635085Y5360558D1*
X4610939Y5348204D1*
X4574439D1*
X4550012Y5360558D1*
X4525866Y5384704D1*
X4513512Y5421204D1*
Y5445350D1*
X4525866Y5481850D1*
X4550012Y5506277D1*
X4574439Y5518350D1*
X4610939D1*
X4435081Y5603423D2*
X4423007Y5591350D1*
X4410654Y5603423D1*
X4423007Y5615777D1*
X4435081Y5603423D1*
X4423007Y5518350D2*
Y5348204D1*
X4295722Y5603423D2*
Y5396777D1*
X4283649Y5360558D1*
X4259222Y5348204D1*
X4235076D1*
X4332222Y5518350D2*
X4247149D1*
X4144572Y5372631D2*
X4156645Y5360277D1*
X4144572Y5348204D1*
X4132218Y5360277D1*
X4144572Y5372631D1*
X4053786Y5445350D2*
X3908067D1*
Y5469777D1*
X3920140Y5494204D1*
X3932213Y5506277D1*
X3956640Y5518350D1*
X3993140D1*
X4017286Y5506277D1*
X4041713Y5481850D1*
X4053786Y5445350D1*
Y5421204D1*
X4041713Y5384704D1*
X4017286Y5360558D1*
X3993140Y5348204D1*
X3956640D1*
X3932213Y5360558D1*
X3908067Y5384704D1*
X3683917Y5603423D2*
Y5348204D1*
Y5481850D2*
X3708063Y5506277D1*
X3732490Y5518350D1*
X3768990D1*
X3793136Y5506277D1*
X3817563Y5481850D1*
X3829636Y5445350D1*
Y5421204D1*
X3817563Y5384704D1*
X3793136Y5360558D1*
X3768990Y5348204D1*
X3732490D1*
X3708063Y5360558D1*
X3683917Y5384704D1*
X3605485Y5518350D2*
Y5396777D1*
X3593412Y5360558D1*
X3568985Y5348204D1*
X3532485D1*
X3508339Y5360558D1*
X3471839Y5396777D1*
Y5518350D2*
Y5348204D1*
X3393408D2*
X3223262Y5603142D1*
X2998830Y5481850D2*
X3023257Y5506277D1*
X3047684Y5518350D1*
X3083903D1*
X3108330Y5506277D1*
X3132476Y5481850D1*
X3144830Y5445350D1*
Y5421204D1*
X3132476Y5384704D1*
X3108330Y5360558D1*
X3083903Y5348204D1*
X3047684D1*
X3023257Y5360558D1*
X2998830Y5384704D1*
X2786753Y5481850D2*
X2798826Y5506277D1*
X2835326Y5518350D1*
X2871826D1*
X2908326Y5506277D1*
X2920399Y5481850D1*
X2908326Y5457704D1*
X2883899Y5445350D1*
X2823253Y5433277D1*
X2798826Y5421204D1*
X2786753Y5396777D1*
Y5384704D1*
X2798826Y5360558D1*
X2835326Y5348204D1*
X2871826D1*
X2908326Y5360558D1*
X2920399Y5384704D1*
X2708321Y5445350D2*
X2562602D1*
Y5469777D1*
X2574675Y5494204D1*
X2586748Y5506277D1*
X2611175Y5518350D1*
X2647675D1*
X2671821Y5506277D1*
X2696248Y5481850D1*
X2708321Y5445350D1*
Y5421204D1*
X2696248Y5384704D1*
X2671821Y5360558D1*
X2647675Y5348204D1*
X2611175D1*
X2586748Y5360558D1*
X2562602Y5384704D1*
X2447671Y5603423D2*
Y5396777D1*
X2435598Y5360558D1*
X2411171Y5348204D1*
X2387025D1*
X2484171Y5518350D2*
X2399098D1*
X4572160Y2865525D2*
D71*
X4544743Y2737915D1*
X4517452Y2865525D1*
X4490162Y2737915D1*
X4462745Y2865525D1*
X4361877Y2822988D2*
Y2737915D1*
Y2804738D2*
X4372743Y2816952D1*
X4383735Y2822988D1*
X4400033D1*
X4411025Y2816952D1*
X4421891Y2804738D1*
X4427450Y2786488D1*
Y2774415D1*
X4421891Y2756165D1*
X4411025Y2744092D1*
X4400033Y2737915D1*
X4383735D1*
X4372743Y2744092D1*
X4361877Y2756165D1*
X4326583Y2822988D2*
Y2737915D1*
Y2786488D2*
X4321023Y2804738D1*
X4310158Y2816952D1*
X4299166Y2822988D1*
X4282741D1*
X4247446D2*
Y2737915D1*
Y2798702D2*
X4231021Y2816952D1*
X4220029Y2822988D1*
X4203731D1*
X4192739Y2816952D1*
X4187306Y2798702D1*
Y2737915D1*
X4152012Y2865525D2*
X4146579Y2859488D1*
X4141019Y2865525D1*
X4146579Y2871702D1*
X4152012Y2865525D1*
X4146579Y2822988D2*
Y2737915D1*
X4105725Y2822988D2*
Y2737915D1*
Y2798702D2*
X4089300Y2816952D1*
X4078308Y2822988D1*
X4062010D1*
X4051017Y2816952D1*
X4045585Y2798702D1*
Y2737915D1*
X3944717Y2816952D2*
Y2719665D1*
X3950150Y2701556D1*
X3955583Y2695379D1*
X3966575Y2689342D1*
X3983000D1*
X3993865Y2695379D1*
X3944717Y2798702D2*
X3955583Y2810775D1*
X3966575Y2816952D1*
X3983000D1*
X3993865Y2810775D1*
X4004858Y2798702D1*
X4010290Y2780452D1*
Y2768238D1*
X4004858Y2750129D1*
X3993865Y2737915D1*
X3983000Y2731879D1*
X3966575D1*
X3955583Y2737915D1*
X3944717Y2750129D1*
X3903863Y2865385D2*
Y2780452D1*
Y2750129D2*
X3909423Y2743952D1*
X3903863Y2737915D1*
X3898431Y2743952D1*
X3903863Y2750129D1*
X5270537Y7924610D2*
D73*
Y7771478D1*
X5168449Y7924610D2*
Y7771478D1*
X5270537Y7851666D2*
X5168449D1*
X5033959Y7873566D2*
Y7771478D1*
Y7851666D2*
X5048447Y7866322D1*
X5063103Y7873566D1*
X5084834D1*
X5099490Y7866322D1*
X5113978Y7851666D1*
X5121390Y7829766D1*
Y7815278D1*
X5113978Y7793378D1*
X5099490Y7778891D1*
X5084834Y7771478D1*
X5063103D1*
X5048447Y7778891D1*
X5033959Y7793378D1*
X4986900Y7873566D2*
Y7771478D1*
Y7844422D2*
X4965000Y7866322D1*
X4950344Y7873566D1*
X4928612D1*
X4913956Y7866322D1*
X4906712Y7844422D1*
Y7771478D1*
X4772222Y7924610D2*
Y7771478D1*
Y7851666D2*
X4786710Y7866322D1*
X4801366Y7873566D1*
X4823266D1*
X4837754Y7866322D1*
X4852410Y7851666D1*
X4859654Y7829766D1*
Y7815278D1*
X4852410Y7793378D1*
X4837754Y7778891D1*
X4823266Y7771478D1*
X4801366D1*
X4786710Y7778891D1*
X4772222Y7793378D1*
X4644975Y7851666D2*
X4652219Y7866322D1*
X4674119Y7873566D1*
X4696019D1*
X4717919Y7866322D1*
X4725163Y7851666D1*
X4717919Y7837178D1*
X4703263Y7829766D1*
X4666875Y7822522D1*
X4652219Y7815278D1*
X4644975Y7800622D1*
Y7793378D1*
X4652219Y7778891D1*
X4674119Y7771478D1*
X4696019D1*
X4717919Y7778891D1*
X4725163Y7793378D1*
X4597917Y7847960D2*
X4513686D1*
X4430239Y7873566D2*
X4444727Y7866322D1*
X4459383Y7851666D1*
X4466627Y7829766D1*
Y7815278D1*
X4459383Y7793378D1*
X4444727Y7778891D1*
X4430239Y7771478D1*
X4408339D1*
X4393683Y7778891D1*
X4379196Y7793378D1*
X4371783Y7815278D1*
Y7829766D1*
X4379196Y7851666D1*
X4393683Y7866322D1*
X4408339Y7873566D1*
X4430239D1*
X4324724D2*
Y7771478D1*
Y7844422D2*
X4302824Y7866322D1*
X4288168Y7873566D1*
X4266437D1*
X4251781Y7866322D1*
X4244537Y7844422D1*
Y7771478D1*
X4049342Y7924610D2*
Y7771478D1*
X4002283Y7829766D2*
X3914852D1*
Y7844422D1*
X3922096Y7859078D1*
X3929339Y7866322D1*
X3943996Y7873566D1*
X3965896D1*
X3980383Y7866322D1*
X3995039Y7851666D1*
X4002283Y7829766D1*
Y7815278D1*
X3995039Y7793378D1*
X3980383Y7778891D1*
X3965896Y7771478D1*
X3943996D1*
X3929339Y7778891D1*
X3914852Y7793378D1*
X3780361Y7873566D2*
Y7771478D1*
Y7851666D2*
X3794849Y7866322D1*
X3809505Y7873566D1*
X3831237D1*
X3845893Y7866322D1*
X3860381Y7851666D1*
X3867793Y7829766D1*
Y7815278D1*
X3860381Y7793378D1*
X3845893Y7778891D1*
X3831237Y7771478D1*
X3809505D1*
X3794849Y7778891D1*
X3780361Y7793378D1*
X3733303Y7873566D2*
Y7771478D1*
Y7829766D2*
X3725890Y7851666D1*
X3711403Y7866322D1*
X3696746Y7873566D1*
X3674846D1*
X3627788D2*
Y7771478D1*
Y7844422D2*
X3605888Y7866322D1*
X3591231Y7873566D1*
X3569500D1*
X3554844Y7866322D1*
X3547600Y7844422D1*
Y7771478D1*
X3500541Y7924610D2*
X3493297Y7917366D1*
X3485885Y7924610D1*
X3493297Y7932022D1*
X3500541Y7924610D1*
X3493297Y7873566D2*
Y7771478D1*
X3438826Y7873566D2*
Y7771478D1*
Y7844422D2*
X3416926Y7866322D1*
X3402270Y7873566D1*
X3380538D1*
X3365882Y7866322D1*
X3358638Y7844422D1*
Y7771478D1*
X3224148Y7866322D2*
Y7749578D1*
X3231392Y7727847D1*
X3238636Y7720435D1*
X3253292Y7713191D1*
X3275192D1*
X3289680Y7720435D1*
X3224148Y7844422D2*
X3238636Y7858910D1*
X3253292Y7866322D1*
X3275192D1*
X3289680Y7858910D1*
X3304336Y7844422D1*
X3311580Y7822522D1*
Y7807866D1*
X3304336Y7786135D1*
X3289680Y7771478D1*
X3275192Y7764235D1*
X3253292D1*
X3238636Y7771478D1*
X3224148Y7786135D1*
X5326988Y2437793D2*
D72*
Y2335706D1*
Y2389164D2*
X5336646Y2398935D1*
X5346417Y2403764D1*
X5361017D1*
X5370675Y2398935D1*
X5380446Y2389164D1*
X5385275Y2374564D1*
Y2364906D1*
X5380446Y2350306D1*
X5370675Y2340647D1*
X5361017Y2335706D1*
X5346417D1*
X5336646Y2340647D1*
X5326988Y2350306D1*
X5237327Y2403764D2*
Y2335706D1*
Y2389164D2*
X5246986Y2398935D1*
X5256757Y2403764D1*
X5271244D1*
X5281015Y2398935D1*
X5290673Y2389164D1*
X5295615Y2374564D1*
Y2364906D1*
X5290673Y2350306D1*
X5281015Y2340647D1*
X5271244Y2335706D1*
X5256757D1*
X5246986Y2340647D1*
X5237327Y2350306D1*
X5205955Y2403764D2*
Y2335706D1*
Y2384335D2*
X5191355Y2398935D1*
X5181584Y2403764D1*
X5167096D1*
X5157326Y2398935D1*
X5152496Y2384335D1*
Y2335706D1*
Y2384335D2*
X5137896Y2398935D1*
X5128126Y2403764D1*
X5113638D1*
X5103867Y2398935D1*
X5098926Y2384335D1*
Y2335706D1*
X5009265Y2403764D2*
Y2335706D1*
Y2389164D2*
X5018924Y2398935D1*
X5028695Y2403764D1*
X5043182D1*
X5052953Y2398935D1*
X5062611Y2389164D1*
X5067553Y2374564D1*
Y2364906D1*
X5062611Y2350306D1*
X5052953Y2340647D1*
X5043182Y2335706D1*
X5028695D1*
X5018924Y2340647D1*
X5009265Y2350306D1*
X4919605Y2398935D2*
Y2321106D1*
X4924434Y2306618D1*
X4929264Y2301676D1*
X4939034Y2296847D1*
X4953634D1*
X4963293Y2301676D1*
X4919605Y2384335D2*
X4929264Y2393993D1*
X4939034Y2398935D1*
X4953634D1*
X4963293Y2393993D1*
X4973064Y2384335D1*
X4977893Y2369735D1*
Y2359964D1*
X4973064Y2345476D1*
X4963293Y2335706D1*
X4953634Y2330876D1*
X4939034D1*
X4929264Y2335706D1*
X4919605Y2345476D1*
X4888233Y2374564D2*
X4829945D1*
Y2384335D1*
X4834774Y2394106D1*
X4839603Y2398935D1*
X4849374Y2403764D1*
X4863974D1*
X4873633Y2398935D1*
X4883403Y2389164D1*
X4888233Y2374564D1*
Y2364906D1*
X4883403Y2350306D1*
X4873633Y2340647D1*
X4863974Y2335706D1*
X4849374D1*
X4839603Y2340647D1*
X4829945Y2350306D1*
X4685215Y2437793D2*
Y2355135D1*
X4680386Y2340647D1*
X4670615Y2335706D1*
X4660957D1*
X4699815Y2403764D2*
X4665786D1*
X4605326D2*
X4614984Y2398935D1*
X4624755Y2389164D1*
X4629584Y2374564D1*
Y2364906D1*
X4624755Y2350306D1*
X4614984Y2340647D1*
X4605326Y2335706D1*
X4590726D1*
X4580955Y2340647D1*
X4571296Y2350306D1*
X4566355Y2364906D1*
Y2374564D1*
X4571296Y2389164D1*
X4580955Y2398935D1*
X4590726Y2403764D1*
X4605326D1*
X4431284D2*
X4402196Y2335706D1*
X4411854Y2316276D1*
X4421625Y2306506D1*
X4431284Y2301676D1*
X4436225D1*
X4372996Y2403764D2*
X4402196Y2335706D1*
X4317365Y2403764D2*
X4327023Y2398935D1*
X4336794Y2389164D1*
X4341623Y2374564D1*
Y2364906D1*
X4336794Y2350306D1*
X4327023Y2340647D1*
X4317365Y2335706D1*
X4302765D1*
X4292994Y2340647D1*
X4283336Y2350306D1*
X4278394Y2364906D1*
Y2374564D1*
X4283336Y2389164D1*
X4292994Y2398935D1*
X4302765Y2403764D1*
X4317365D1*
X4247022D2*
Y2355135D1*
X4242192Y2340647D1*
X4232422Y2335706D1*
X4217822D1*
X4208163Y2340647D1*
X4193563Y2355135D1*
Y2403764D2*
Y2335706D1*
X4162191Y2403764D2*
Y2335706D1*
Y2374564D2*
X4157249Y2389164D1*
X4147591Y2398935D1*
X4137820Y2403764D1*
X4123220D1*
X3963558Y7584495D2*
D71*
X3975631D1*
X3987845Y7578458D1*
X3993881Y7560208D1*
Y7456885D1*
X4012131Y7541958D2*
X3969595D1*
X3894019D2*
X3906092Y7535922D1*
X3918306Y7523708D1*
X3924342Y7505458D1*
Y7493385D1*
X3918306Y7475135D1*
X3906092Y7463062D1*
X3894019Y7456885D1*
X3875769D1*
X3863556Y7463062D1*
X3851483Y7475135D1*
X3845306Y7493385D1*
Y7505458D1*
X3851483Y7523708D1*
X3863556Y7535922D1*
X3875769Y7541958D1*
X3894019D1*
X3806090D2*
Y7456885D1*
Y7505458D2*
X3799913Y7523708D1*
X3787840Y7535922D1*
X3775627Y7541958D1*
X3757377D1*
X3594715D2*
Y7456885D1*
Y7505458D2*
X3588538Y7523708D1*
X3576465Y7535922D1*
X3564251Y7541958D1*
X3546001D1*
X3506786Y7505458D2*
X3433926D1*
Y7517672D1*
X3439962Y7529885D1*
X3445999Y7535922D1*
X3458212Y7541958D1*
X3476462D1*
X3488536Y7535922D1*
X3500749Y7523708D1*
X3506786Y7505458D1*
Y7493385D1*
X3500749Y7475135D1*
X3488536Y7463062D1*
X3476462Y7456885D1*
X3458212D1*
X3445999Y7463062D1*
X3433926Y7475135D1*
X3321851Y7541958D2*
Y7456885D1*
Y7523708D2*
X3333924Y7535922D1*
X3346137Y7541958D1*
X3364247D1*
X3376460Y7535922D1*
X3388533Y7523708D1*
X3394710Y7505458D1*
Y7493385D1*
X3388533Y7475135D1*
X3376460Y7463062D1*
X3364247Y7456885D1*
X3346137D1*
X3333924Y7463062D1*
X3321851Y7475135D1*
X3282635Y7584495D2*
Y7456885D1*
X3243419Y7520620D2*
X3173227D1*
X3134011Y7541958D2*
X3109725Y7456885D1*
X3085438Y7541958D1*
X3061152Y7456885D1*
X3036865Y7541958D1*
X2967326D2*
X2979399Y7535922D1*
X2991613Y7523708D1*
X2997649Y7505458D1*
Y7493385D1*
X2991613Y7475135D1*
X2979399Y7463062D1*
X2967326Y7456885D1*
X2949076D1*
X2936863Y7463062D1*
X2924790Y7475135D1*
X2918613Y7493385D1*
Y7505458D1*
X2924790Y7523708D1*
X2936863Y7535922D1*
X2949076Y7541958D1*
X2967326D1*
X2879397D2*
Y7456885D1*
Y7505458D2*
X2873220Y7523708D1*
X2861147Y7535922D1*
X2848934Y7541958D1*
X2830684D1*
X2791468Y7584495D2*
Y7456885D1*
X2679393Y7584495D2*
Y7456885D1*
Y7523708D2*
X2691466Y7535922D1*
X2703679Y7541958D1*
X2721929D1*
X2734002Y7535922D1*
X2746216Y7523708D1*
X2752252Y7505458D1*
Y7493385D1*
X2746216Y7475135D1*
X2734002Y7463062D1*
X2721929Y7456885D1*
X2703679D1*
X2691466Y7463062D1*
X2679393Y7475135D1*
X2443871Y7541958D2*
Y7456885D1*
Y7523708D2*
X2455944Y7535922D1*
X2468157Y7541958D1*
X2486267D1*
X2498481Y7535922D1*
X2510554Y7523708D1*
X2516731Y7505458D1*
Y7493385D1*
X2510554Y7475135D1*
X2498481Y7463062D1*
X2486267Y7456885D1*
X2468157D1*
X2455944Y7463062D1*
X2443871Y7475135D1*
X2331655Y7523708D2*
X2343869Y7535922D1*
X2356082Y7541958D1*
X2374192D1*
X2386405Y7535922D1*
X2398478Y7523708D1*
X2404655Y7505458D1*
Y7493385D1*
X2398478Y7475135D1*
X2386405Y7463062D1*
X2374192Y7456885D1*
X2356082D1*
X2343869Y7463062D1*
X2331655Y7475135D1*
X2292440Y7584495D2*
Y7456885D1*
Y7517672D2*
X2274190Y7535922D1*
X2261976Y7541958D1*
X2243726D1*
X2231653Y7535922D1*
X2225617Y7517672D1*
Y7456885D1*
X2186401Y7584495D2*
X2180364Y7578458D1*
X2174187Y7584495D1*
X2180364Y7590672D1*
X2186401Y7584495D1*
X2180364Y7541958D2*
Y7456885D1*
X2134972Y7505458D2*
X2062112D1*
Y7517672D1*
X2068149Y7529885D1*
X2074185Y7535922D1*
X2086399Y7541958D1*
X2104649D1*
X2116722Y7535922D1*
X2128935Y7523708D1*
X2134972Y7505458D1*
Y7493385D1*
X2128935Y7475135D1*
X2116722Y7463062D1*
X2104649Y7456885D1*
X2086399D1*
X2074185Y7463062D1*
X2062112Y7475135D1*
X2022896Y7541958D2*
X1986396Y7456885D1*
X1950037Y7541958D1*
X1910821Y7505458D2*
X1837961D1*
Y7517672D1*
X1843998Y7529885D1*
X1850035Y7535922D1*
X1862248Y7541958D1*
X1880498D1*
X1892571Y7535922D1*
X1904785Y7523708D1*
X1910821Y7505458D1*
Y7493385D1*
X1904785Y7475135D1*
X1892571Y7463062D1*
X1880498Y7456885D1*
X1862248D1*
X1850035Y7463062D1*
X1837961Y7475135D1*
X1798746Y7541958D2*
Y7456885D1*
Y7517672D2*
X1780496Y7535922D1*
X1768282Y7541958D1*
X1750173D1*
X1737959Y7535922D1*
X1731923Y7517672D1*
Y7456885D1*
Y7517672D2*
X1713673Y7535922D1*
X1701459Y7541958D1*
X1683350D1*
X1671136Y7535922D1*
X1664959Y7517672D1*
Y7456885D1*
X1625744Y7505458D2*
X1552884D1*
Y7517672D1*
X1558920Y7529885D1*
X1564957Y7535922D1*
X1577170Y7541958D1*
X1595420D1*
X1607494Y7535922D1*
X1619707Y7523708D1*
X1625744Y7505458D1*
Y7493385D1*
X1619707Y7475135D1*
X1607494Y7463062D1*
X1595420Y7456885D1*
X1577170D1*
X1564957Y7463062D1*
X1552884Y7475135D1*
X1513668Y7541958D2*
Y7456885D1*
Y7517672D2*
X1495418Y7535922D1*
X1483205Y7541958D1*
X1465095D1*
X1452882Y7535922D1*
X1446845Y7517672D1*
Y7456885D1*
X1389379Y7584495D2*
Y7481172D1*
X1383343Y7463062D1*
X1371129Y7456885D1*
X1359056D1*
X1407629Y7541958D2*
X1365093D1*
X1313804Y7469099D2*
X1319841Y7462922D1*
X1313804Y7456885D1*
X1307627Y7462922D1*
X1313804Y7469099D1*
X4044906Y1772364D2*
D72*
Y1704306D1*
Y1743164D2*
X4039965Y1757764D1*
X4030306Y1767535D1*
X4020536Y1772364D1*
X4005936D1*
X3974563Y1743164D2*
X3916275D1*
Y1752935D1*
X3921105Y1762706D1*
X3925934Y1767535D1*
X3935705Y1772364D1*
X3950305D1*
X3959963Y1767535D1*
X3969734Y1757764D1*
X3974563Y1743164D1*
Y1733506D1*
X3969734Y1718906D1*
X3959963Y1709247D1*
X3950305Y1704306D1*
X3935705D1*
X3925934Y1709247D1*
X3916275Y1718906D1*
X3826615Y1772364D2*
Y1704306D1*
Y1757764D2*
X3836274Y1767535D1*
X3846044Y1772364D1*
X3860532D1*
X3870303Y1767535D1*
X3879961Y1757764D1*
X3884903Y1743164D1*
Y1733506D1*
X3879961Y1718906D1*
X3870303Y1709247D1*
X3860532Y1704306D1*
X3846044D1*
X3836274Y1709247D1*
X3826615Y1718906D1*
X3736955Y1806393D2*
Y1704306D1*
Y1757764D2*
X3746613Y1767535D1*
X3756384Y1772364D1*
X3770984D1*
X3780643Y1767535D1*
X3790413Y1757764D1*
X3795243Y1743164D1*
Y1733506D1*
X3790413Y1718906D1*
X3780643Y1709247D1*
X3770984Y1704306D1*
X3756384D1*
X3746613Y1709247D1*
X3736955Y1718906D1*
X3606825Y1806393D2*
X3601996Y1801564D1*
X3597054Y1806393D1*
X3601996Y1811335D1*
X3606825Y1806393D1*
X3601996Y1772364D2*
Y1704306D1*
X3565682Y1772364D2*
Y1704306D1*
Y1752935D2*
X3551082Y1767535D1*
X3541311Y1772364D1*
X3526823D1*
X3517053Y1767535D1*
X3512223Y1752935D1*
Y1704306D1*
X3427392Y1757764D2*
X3432222Y1767535D1*
X3446822Y1772364D1*
X3461422D1*
X3476022Y1767535D1*
X3480851Y1757764D1*
X3476022Y1748106D1*
X3466251Y1743164D1*
X3441992Y1738335D1*
X3432222Y1733506D1*
X3427392Y1723735D1*
Y1718906D1*
X3432222Y1709247D1*
X3446822Y1704306D1*
X3461422D1*
X3476022Y1709247D1*
X3480851Y1718906D1*
X3381420Y1806393D2*
Y1723735D1*
X3376591Y1709247D1*
X3366820Y1704306D1*
X3357161D1*
X3396020Y1772364D2*
X3361991D1*
X3325789D2*
Y1704306D1*
Y1743164D2*
X3320847Y1757764D1*
X3311189Y1767535D1*
X3301418Y1772364D1*
X3286818D1*
X3255446D2*
Y1723735D1*
X3250616Y1709247D1*
X3240846Y1704306D1*
X3226246D1*
X3216587Y1709247D1*
X3201987Y1723735D1*
Y1772364D2*
Y1704306D1*
X3112215Y1757764D2*
X3121985Y1767535D1*
X3131756Y1772364D1*
X3146244D1*
X3156015Y1767535D1*
X3165673Y1757764D1*
X3170615Y1743164D1*
Y1733506D1*
X3165673Y1718906D1*
X3156015Y1709247D1*
X3146244Y1704306D1*
X3131756D1*
X3121985Y1709247D1*
X3112215Y1718906D1*
X3066242Y1806393D2*
Y1723735D1*
X3061413Y1709247D1*
X3051642Y1704306D1*
X3041984D1*
X3080842Y1772364D2*
X3046813D1*
X3010611Y1806393D2*
X3005782Y1801564D1*
X3000840Y1806393D1*
X3005782Y1811335D1*
X3010611Y1806393D1*
X3005782Y1772364D2*
Y1704306D1*
X2945209Y1772364D2*
X2954868Y1767535D1*
X2964638Y1757764D1*
X2969468Y1743164D1*
Y1733506D1*
X2964638Y1718906D1*
X2954868Y1709247D1*
X2945209Y1704306D1*
X2930609D1*
X2920838Y1709247D1*
X2911180Y1718906D1*
X2906238Y1733506D1*
Y1743164D1*
X2911180Y1757764D1*
X2920838Y1767535D1*
X2930609Y1772364D1*
X2945209D1*
X2874866D2*
Y1704306D1*
Y1752935D2*
X2860266Y1767535D1*
X2850495Y1772364D1*
X2836007D1*
X2826237Y1767535D1*
X2821407Y1752935D1*
Y1704306D1*
X2736576Y1757764D2*
X2741406Y1767535D1*
X2756006Y1772364D1*
X2770606D1*
X2785206Y1767535D1*
X2790035Y1757764D1*
X2785206Y1748106D1*
X2775435Y1743164D1*
X2751176Y1738335D1*
X2741406Y1733506D1*
X2736576Y1723735D1*
Y1718906D1*
X2741406Y1709247D1*
X2756006Y1704306D1*
X2770606D1*
X2785206Y1709247D1*
X2790035Y1718906D1*
X2700262Y1806281D2*
Y1738335D1*
Y1714076D2*
X2705204Y1709135D1*
X2700262Y1704306D1*
X2695433Y1709135D1*
X2700262Y1714076D1*
X4691848Y2183847D2*
X4701619Y2193618D1*
X4711390Y2198447D1*
X4725877D1*
X4735648Y2193618D1*
X4745307Y2183847D1*
X4750248Y2169247D1*
Y2159589D1*
X4745307Y2144989D1*
X4735648Y2135330D1*
X4725877Y2130389D1*
X4711390D1*
X4701619Y2135330D1*
X4691848Y2144989D1*
X4636217Y2198447D2*
X4645876Y2193618D1*
X4655646Y2183847D1*
X4660476Y2169247D1*
Y2159589D1*
X4655646Y2144989D1*
X4645876Y2135330D1*
X4636217Y2130389D1*
X4621617D1*
X4611846Y2135330D1*
X4602188Y2144989D1*
X4597246Y2159589D1*
Y2169247D1*
X4602188Y2183847D1*
X4611846Y2193618D1*
X4621617Y2198447D1*
X4636217D1*
X4565874D2*
Y2130389D1*
Y2179018D2*
X4551274Y2193618D1*
X4541503Y2198447D1*
X4527015D1*
X4517245Y2193618D1*
X4512415Y2179018D1*
Y2130389D1*
Y2179018D2*
X4497815Y2193618D1*
X4488045Y2198447D1*
X4473557D1*
X4463786Y2193618D1*
X4458845Y2179018D1*
Y2130389D1*
X4427472Y2198447D2*
Y2096360D1*
Y2183847D2*
X4417701Y2193506D1*
X4408043Y2198447D1*
X4393443D1*
X4383672Y2193506D1*
X4374014Y2183847D1*
X4369072Y2169247D1*
Y2159477D1*
X4374014Y2144989D1*
X4383672Y2135218D1*
X4393443Y2130389D1*
X4408043D1*
X4417701Y2135218D1*
X4427472Y2144989D1*
X4337700Y2198447D2*
Y2149818D1*
X4332870Y2135330D1*
X4323100Y2130389D1*
X4308500D1*
X4298841Y2135330D1*
X4284241Y2149818D1*
Y2198447D2*
Y2130389D1*
X4238268Y2232477D2*
Y2149818D1*
X4233439Y2135330D1*
X4223668Y2130389D1*
X4214010D1*
X4252868Y2198447D2*
X4218839D1*
X4182637Y2169247D2*
X4124350D1*
Y2179018D1*
X4129179Y2188789D1*
X4134008Y2193618D1*
X4143779Y2198447D1*
X4158379D1*
X4168037Y2193618D1*
X4177808Y2183847D1*
X4182637Y2169247D1*
Y2159589D1*
X4177808Y2144989D1*
X4168037Y2135330D1*
X4158379Y2130389D1*
X4143779D1*
X4134008Y2135330D1*
X4124350Y2144989D1*
X4092977Y2198447D2*
Y2130389D1*
Y2169247D2*
X4088036Y2183847D1*
X4078377Y2193618D1*
X4068606Y2198447D1*
X4054006D1*
X5469621Y2607517D2*
Y2505429D1*
X5537679Y2607517D1*
Y2505429D1*
X5413990Y2573487D2*
X5423648Y2568658D1*
X5433419Y2558887D1*
X5438248Y2544287D1*
Y2534629D1*
X5433419Y2520029D1*
X5423648Y2510370D1*
X5413990Y2505429D1*
X5399390D1*
X5389619Y2510370D1*
X5379961Y2520029D1*
X5375019Y2534629D1*
Y2544287D1*
X5379961Y2558887D1*
X5389619Y2568658D1*
X5399390Y2573487D1*
X5413990D1*
X5329046Y2607517D2*
Y2524858D1*
X5324217Y2510370D1*
X5314446Y2505429D1*
X5304788D1*
X5343646Y2573487D2*
X5309617D1*
X5174658D2*
Y2505429D1*
Y2544287D2*
X5169717Y2558887D1*
X5160058Y2568658D1*
X5150288Y2573487D1*
X5135688D1*
X5104315Y2544287D2*
X5046027D1*
Y2554058D1*
X5050857Y2563829D1*
X5055686Y2568658D1*
X5065457Y2573487D1*
X5080057D1*
X5089715Y2568658D1*
X5099486Y2558887D1*
X5104315Y2544287D1*
Y2534629D1*
X5099486Y2520029D1*
X5089715Y2510370D1*
X5080057Y2505429D1*
X5065457D1*
X5055686Y2510370D1*
X5046027Y2520029D1*
X4961196Y2558887D2*
X4966026Y2568658D1*
X4980626Y2573487D1*
X4995226D1*
X5009826Y2568658D1*
X5014655Y2558887D1*
X5009826Y2549229D1*
X5000055Y2544287D1*
X4975796Y2539458D1*
X4966026Y2534629D1*
X4961196Y2524858D1*
Y2520029D1*
X4966026Y2510370D1*
X4980626Y2505429D1*
X4995226D1*
X5009826Y2510370D1*
X5014655Y2520029D1*
X4929824Y2573487D2*
Y2471400D1*
Y2558887D2*
X4920053Y2568546D1*
X4910394Y2573487D1*
X4895794D1*
X4886024Y2568546D1*
X4876365Y2558887D1*
X4871424Y2544287D1*
Y2534517D1*
X4876365Y2520029D1*
X4886024Y2510258D1*
X4895794Y2505429D1*
X4910394D1*
X4920053Y2510258D1*
X4929824Y2520029D1*
X4815793Y2573487D2*
X4825451Y2568658D1*
X4835222Y2558887D1*
X4840051Y2544287D1*
Y2534629D1*
X4835222Y2520029D1*
X4825451Y2510370D1*
X4815793Y2505429D1*
X4801193D1*
X4791422Y2510370D1*
X4781763Y2520029D1*
X4776822Y2534629D1*
Y2544287D1*
X4781763Y2558887D1*
X4791422Y2568658D1*
X4801193Y2573487D1*
X4815793D1*
X4745449D2*
Y2505429D1*
Y2554058D2*
X4730849Y2568658D1*
X4721079Y2573487D1*
X4706591D1*
X4696820Y2568658D1*
X4691991Y2554058D1*
Y2505429D1*
X4607160Y2558887D2*
X4611989Y2568658D1*
X4626589Y2573487D1*
X4641189D1*
X4655789Y2568658D1*
X4660618Y2558887D1*
X4655789Y2549229D1*
X4646018Y2544287D1*
X4621760Y2539458D1*
X4611989Y2534629D1*
X4607160Y2524858D1*
Y2520029D1*
X4611989Y2510370D1*
X4626589Y2505429D1*
X4641189D1*
X4655789Y2510370D1*
X4660618Y2520029D1*
X4575787Y2607517D2*
X4570958Y2602687D1*
X4566017Y2607517D1*
X4570958Y2612458D1*
X4575787Y2607517D1*
X4570958Y2573487D2*
Y2505429D1*
X4534644Y2607517D2*
Y2505429D1*
Y2558887D2*
X4524873Y2568658D1*
X4515215Y2573487D1*
X4500615D1*
X4490956Y2568658D1*
X4481186Y2558887D1*
X4476356Y2544287D1*
Y2534629D1*
X4481186Y2520029D1*
X4490956Y2510370D1*
X4500615Y2505429D1*
X4515215D1*
X4524873Y2510370D1*
X4534644Y2520029D1*
X4444984Y2607517D2*
Y2505429D1*
X4413611Y2544287D2*
X4355324D1*
Y2554058D1*
X4360153Y2563829D1*
X4364982Y2568658D1*
X4374753Y2573487D1*
X4389353D1*
X4399011Y2568658D1*
X4408782Y2558887D1*
X4413611Y2544287D1*
Y2534629D1*
X4408782Y2520029D1*
X4399011Y2510370D1*
X4389353Y2505429D1*
X4374753D1*
X4364982Y2510370D1*
X4355324Y2520029D1*
X4186335Y2607517D2*
X4195994D1*
X4205765Y2602687D1*
X4210594Y2588087D1*
Y2505429D1*
X4225194Y2573487D2*
X4191165D1*
X4130704D2*
X4140363Y2568658D1*
X4150134Y2558887D1*
X4154963Y2544287D1*
Y2534629D1*
X4150134Y2520029D1*
X4140363Y2510370D1*
X4130704Y2505429D1*
X4116104D1*
X4106334Y2510370D1*
X4096675Y2520029D1*
X4091734Y2534629D1*
Y2544287D1*
X4096675Y2558887D1*
X4106334Y2568658D1*
X4116104Y2573487D1*
X4130704D1*
X4060361D2*
Y2505429D1*
Y2544287D2*
X4055420Y2558887D1*
X4045761Y2568658D1*
X4035990Y2573487D1*
X4021390D1*
M02*
