M48
METRIC,0000.00
T01C0.483
T02C0.559
T03C0.711
T04C0.889
T05C0.9
T06C1.0
T07C1.1
T08C1.2
%
T01
X+002848Y+007461
X+004800Y+004112
X+004635Y+003834
X+003006Y+003033
X+002625Y+002985
X+002530Y+001985
X+003562Y+001890
T02
X+002880Y+008515
X+003503Y+008558
X+004163Y+008939
X+002144Y+008712
X+004662Y+005094
X+004934Y+005194
X+005211Y+005279
X+005452Y+005375
X+005713Y+004659
X+005472Y+004563
X+005194Y+004478
X+004947Y+004387
X+002102Y+003112
X+002197Y+002810
X+002276Y+002525
X+002439Y+002177
X+001705Y+002382
X+001536Y+002704
X+001457Y+002993
X+001362Y+003297
T03
X+002665Y+008031
X+002411Y+008031
X+003885Y+008236
X+004139Y+008236
T04
X+003609Y+007091
X+003482Y+007091
X+003355Y+007091
X+003228Y+007091
T05
X+001754Y+009183
X+001933Y+009003
X+004292Y+009232
X+004472Y+009412
X+003226Y+005123
X+003226Y+004869
X+003226Y+004615
X+003226Y+004361
X+003226Y+004107
X+003226Y+003853
X+003226Y+003599
X+002464Y+003599
X+002464Y+003853
X+002464Y+004107
X+002464Y+004361
X+002464Y+004615
X+002464Y+004869
X+002464Y+005123
X+004858Y+003705
X+004905Y+003455
X+004741Y+002929
X+004794Y+002681
X+005539Y+002839
X+005487Y+003087
X+005654Y+003599
X+005606Y+003848
T06
X+004909Y+001914
X+004975Y+002160
X+004411Y+001329G85X+004399Y+001478
X+004153Y+001593
X+003904Y+001573
X+003705Y+001556
X+003456Y+001536
X+003245Y+001232G85X+003233Y+001382
X+002863Y+001556
X+002618Y+001491
T07
X+004209Y+004898
X+004209Y+004644
X+004209Y+004390
X+004209Y+004136
X+004209Y+003882
X+004209Y+003628
X+001333Y+003603
X+001333Y+003857
X+001333Y+004111
X+001333Y+004365
X+001333Y+004619
X+001333Y+004873
T08
X+004051Y+001374
X+003592Y+001336
T00
M30
