G04 DipTrace 3.0.0.2*
G04 Top.gbr*
%MOMM*%
G04 #@! TF.FileFunction,Copper,L1,Top*
G04 #@! TF.Part,Single*
%AMOUTLINE0*5,1,4,0,0,2.26274,30.0*%
%AMOUTLINE3*5,1,4,0,0,2.26274,-30.0*%
%AMOUTLINE6*5,1,4,0,0,2.12132,-90.0*%
%AMOUTLINE9*5,1,4,0,0,2.12132,-180.0*%
%AMOUTLINE12*5,1,4,0,0,2.12132,-124.1361*%
%AMOUTLINE15*5,1,4,0,0,2.12132,-123.0183*%
%AMOUTLINE18*
4,1,16,
-0.93489,-0.82974,
-0.80049,-1.25401,
-0.49532,-1.57794,
-0.07983,-1.73739,
0.36371,-1.70077,
0.74743,-1.47533,
0.99533,-1.10573,
1.05832,-0.66517,
0.93489,0.82974,
0.80049,1.25401,
0.49532,1.57794,
0.07983,1.73739,
-0.36371,1.70077,
-0.74743,1.47533,
-0.99533,1.10573,
-1.05832,0.66517,
-0.93489,-0.82974,
0*%
G04 #@! TA.AperFunction,Conductor*
%ADD13C,0.254*%
G04 #@! TA.AperFunction,ComponentPad*
%ADD14C,1.6*%
%ADD15C,1.27*%
%ADD16R,1.27X1.27*%
%ADD17O,1.05X1.7*%
%ADD18R,1.05X1.7*%
%ADD19C,1.5*%
%ADD20R,1.7X1.7*%
%ADD21C,1.7*%
%ADD25C,1.27*%
%ADD27C,1.5*%
%ADD28R,1.5X1.5*%
G04 #@! TA.AperFunction,ViaPad*
%ADD29C,1.016*%
G04 #@! TA.AperFunction,ComponentPad*
%ADD77OUTLINE0*%
%ADD80OUTLINE3*%
%ADD83OUTLINE6*%
%ADD86OUTLINE9*%
%ADD89OUTLINE12*%
%ADD92OUTLINE15*%
%ADD95OUTLINE18*%
%FSLAX35Y35*%
G04*
G71*
G90*
G75*
G01*
G04 Top*
%LPD*%
X4905386Y3455327D2*
D13*
X4911130D1*
Y2797829D1*
X4794039Y2680738D1*
Y2340097D1*
X4974623Y2159513D1*
X1704717Y2381739D2*
X1974565D1*
X2466637Y1889667D1*
Y1642074D1*
X2618124Y1490587D1*
X3355400Y7090623D2*
Y7254997D1*
X3212683Y7397713D1*
X2911090D1*
X2847597Y7461207D1*
X2411323Y8031483D2*
Y8108853D1*
X2515630Y8213160D1*
X3862597D1*
X3885237Y8235800D1*
X3225560Y5122747D2*
X2810770D1*
X2704737Y5016713D1*
Y3064293D1*
X2625370Y2984927D1*
Y1794426D1*
X2863469Y1556327D1*
X3455606Y1535758D2*
Y1783376D1*
X3561897Y1889667D1*
X4947413Y4387172D2*
Y3794674D1*
X4857513Y3704774D1*
X4208653Y4390273D2*
X4368463D1*
X4482297Y4276440D1*
Y3188217D1*
X4741309Y2929205D1*
X3225560Y4360747D2*
X3048577D1*
X3006330Y4318500D1*
Y3032547D1*
X2276158Y2524599D2*
Y2339693D1*
X2438730Y2177121D1*
X1332883Y4873297D2*
X1530667D1*
X1736463Y4667500D1*
Y2904710D1*
X1535522Y2703768D1*
X1332883Y4619297D2*
X1444617D1*
X1551760Y4512153D1*
Y3486231D1*
X1362317Y3296788D1*
X2101550Y3111912D2*
X2196791D1*
X2355523Y2953180D1*
Y2667460D1*
X2466637Y2556347D1*
Y2365867D1*
X2546003Y2286500D1*
Y2000780D1*
X2530130Y1984907D1*
X4634727Y3833570D2*
Y3946643D1*
X4800017Y4111933D1*
D29*
X2847597Y7461207D3*
X2625370Y2984927D3*
X3561897Y1889667D3*
X3006330Y3032547D3*
X2530130Y1984907D3*
X4634727Y3833570D3*
X4800017Y4111933D3*
D14*
X4908883Y1914167D3*
D77*
X4974623Y2159513D3*
D14*
X2863469Y1556327D3*
D80*
X2618124Y1490587D3*
D15*
X2665323Y8031483D3*
D16*
X2411323D3*
D15*
X4139237Y8235800D3*
D16*
X3885237D3*
D17*
X3609400Y7090623D3*
X3355400D3*
D18*
X3228400D3*
D17*
X3482400D3*
D83*
X1753827Y9183069D3*
D19*
X1933433Y9003464D3*
D86*
X4471873Y9412099D3*
D19*
X4292267Y9232494D3*
D20*
X4208653Y4898273D3*
D21*
Y4644273D3*
Y4390273D3*
Y4136273D3*
Y3882273D3*
Y3628273D3*
D20*
X1332883Y4873297D3*
D21*
Y4619297D3*
Y4365297D3*
Y4111297D3*
Y3857297D3*
Y3603297D3*
D15*
X2879718Y8515007D3*
D25*
X2143682Y8712227D3*
D15*
X3502744Y8557823D3*
D25*
X4162656Y8938823D3*
D15*
X2196790Y2810321D3*
D25*
X1456957Y2992779D3*
D15*
X4661854Y5093642D3*
D25*
X4947413Y4387172D3*
D15*
X1704717Y2381739D3*
D25*
X2438730Y2177121D3*
D15*
X2276158Y2524599D3*
D25*
X1535522Y2703768D3*
D15*
X2101550Y3111912D3*
D25*
X1362317Y3296788D3*
D89*
X4857513Y3704774D3*
D27*
X4905386Y3455327D3*
X5653729Y3598946D3*
D89*
X5605856Y3848393D3*
D92*
X4741309Y2929205D3*
D27*
X4794039Y2680738D3*
X5539438Y2838929D3*
D92*
X5486708Y3087395D3*
D28*
X2463560Y5122747D3*
D19*
Y4868747D3*
Y4614747D3*
Y4360747D3*
Y4106747D3*
Y3852747D3*
Y3598747D3*
X3225560D3*
Y3852747D3*
Y4106747D3*
Y4360747D3*
Y4614747D3*
Y4868747D3*
Y5122747D3*
D15*
X5452444Y5374736D3*
D25*
X5713063Y4658690D3*
D15*
X5211170Y5279183D3*
D25*
X5471790Y4563137D3*
D15*
X4933757Y5193686D3*
D25*
X5194376Y4477640D3*
D19*
X3704758Y1556330D3*
X3904080Y1572787D3*
X4153232Y1593359D3*
X3455606Y1535758D3*
D95*
X3238684Y1307132D3*
X4404716Y1403409D3*
M02*
