G04 DipTrace 3.0.0.2*
G04 TopMask.gbr*
%MOMM*%
G04 #@! TF.FileFunction,Soldermask,Top*
G04 #@! TF.Part,Single*
%AMOUTLINE1*5,1,4,0,0,2.55011,30.0*%
%AMOUTLINE4*5,1,4,0,0,2.55011,-30.0*%
%AMOUTLINE7*5,1,4,0,0,2.40869,-90.0*%
%AMOUTLINE10*5,1,4,0,0,2.40869,-180.0*%
%AMOUTLINE13*5,1,4,0,0,2.40869,-124.1361*%
%AMOUTLINE16*5,1,4,0,0,2.40869,-123.0183*%
%AMOUTLINE19*
4,1,16,
-1.03521,-0.84951,
-0.89035,-1.3068,
-0.55337,-1.66449,
-0.09458,-1.84055,
0.39518,-1.80011,
0.81889,-1.55118,
1.09263,-1.14307,
1.16052,-0.66822,
1.03521,0.84951,
0.89035,1.3068,
0.55337,1.66449,
0.09458,1.84055,
-0.39518,1.80011,
-0.81889,1.55118,
-1.09263,1.14307,
-1.16052,0.66822,
-1.03521,-0.84951,
0*%
%ADD31C,1.2*%
%ADD42R,1.7032X1.7032*%
%ADD44C,1.7032*%
%ADD48C,1.4732*%
%ADD54C,1.9032*%
%ADD56R,1.9032X1.9032*%
%ADD58C,1.7032*%
%ADD60R,1.2532X1.9032*%
%ADD62O,1.2532X1.9032*%
%ADD64R,1.4732X1.4732*%
%ADD66C,1.4732*%
%ADD68C,1.8032*%
%ADD78OUTLINE1*%
%ADD81OUTLINE4*%
%ADD84OUTLINE7*%
%ADD87OUTLINE10*%
%ADD90OUTLINE13*%
%ADD93OUTLINE16*%
%ADD96OUTLINE19*%
%FSLAX35Y35*%
G04*
G71*
G90*
G75*
G01*
G04 TopMask*
%LPD*%
D68*
X4908883Y1914167D3*
D78*
X4974623Y2159513D3*
D68*
X2863469Y1556327D3*
D81*
X2618124Y1490587D3*
D66*
X2665323Y8031483D3*
D64*
X2411323D3*
D66*
X4139237Y8235800D3*
D64*
X3885237D3*
D62*
X3609400Y7090623D3*
X3355400D3*
D60*
X3228400D3*
D62*
X3482400D3*
D84*
X1753827Y9183069D3*
D58*
X1933433Y9003464D3*
D87*
X4471873Y9412099D3*
D58*
X4292267Y9232494D3*
D56*
X4208653Y4898273D3*
D54*
Y4644273D3*
Y4390273D3*
Y4136273D3*
Y3882273D3*
Y3628273D3*
D56*
X1332883Y4873297D3*
D54*
Y4619297D3*
Y4365297D3*
Y4111297D3*
Y3857297D3*
Y3603297D3*
D66*
X2879718Y8515007D3*
D48*
X2143682Y8712227D3*
D66*
X3502744Y8557823D3*
D48*
X4162656Y8938823D3*
D66*
X2196790Y2810321D3*
D48*
X1456957Y2992779D3*
D66*
X4661854Y5093642D3*
D48*
X4947413Y4387172D3*
D66*
X1704717Y2381739D3*
D48*
X2438730Y2177121D3*
D66*
X2276158Y2524599D3*
D48*
X1535522Y2703768D3*
D66*
X2101550Y3111912D3*
D48*
X1362317Y3296788D3*
D90*
X4857513Y3704774D3*
D44*
X4905386Y3455327D3*
X5653729Y3598946D3*
D90*
X5605856Y3848393D3*
D93*
X4741309Y2929205D3*
D44*
X4794039Y2680738D3*
X5539438Y2838929D3*
D93*
X5486708Y3087395D3*
D42*
X2463560Y5122747D3*
D58*
Y4868747D3*
Y4614747D3*
Y4360747D3*
Y4106747D3*
Y3852747D3*
Y3598747D3*
X3225560D3*
Y3852747D3*
Y4106747D3*
Y4360747D3*
Y4614747D3*
Y4868747D3*
Y5122747D3*
D66*
X5452444Y5374736D3*
D48*
X5713063Y4658690D3*
D66*
X5211170Y5279183D3*
D48*
X5471790Y4563137D3*
D66*
X4933757Y5193686D3*
D48*
X5194376Y4477640D3*
D58*
X3704758Y1556330D3*
X3904080Y1572787D3*
X4153232Y1593359D3*
X3455606Y1535758D3*
D96*
X3238684Y1307132D3*
X4404716Y1403409D3*
D31*
X4050920Y1374197D3*
X3592480Y1336344D3*
M02*
