G04 DipTrace 3.0.0.2*
G04 TopSilk.gbr*
%MOMM*%
G04 #@! TF.FileFunction,Legend,Top*
G04 #@! TF.Part,Single*
%ADD10C,0.25*%
%ADD12C,0.0762*%
%ADD70C,0.11765*%
%ADD71C,0.19608*%
%ADD72C,0.15686*%
%ADD73C,0.23529*%
%ADD74C,0.27451*%
%FSLAX35Y35*%
G04*
G71*
G90*
G75*
G01*
G04 TopSilk*
%LPD*%
X4840525Y2247878D2*
D10*
X4748568Y1904690D1*
X5134939Y2168990D2*
X5042982Y1825802D1*
X4748568Y1904690D2*
G03X5042982Y1825802I147168J-39591D01*
G01*
X5134939Y2168990D2*
G03X4840525Y2247878I-147168J39591D01*
G01*
X2608646Y1330271D2*
X2951835Y1422228D1*
X2529758Y1624685D2*
X2872947Y1716642D1*
X2951835Y1422228D2*
G03X2872947Y1716642I-39297J147247D01*
G01*
X2529758Y1624685D2*
G03X2608646Y1330271I39297J-147247D01*
G01*
X2284340Y7841141D2*
Y8221825D1*
X2284912Y7840379D2*
G03X2284912Y8222587I253481J191104D01*
G01*
X3758253Y8045458D2*
Y8426142D1*
X3758825Y8044696D2*
G03X3758825Y8426904I253481J191104D01*
G01*
X3168900Y7245793D2*
Y7225733D1*
Y6955513D2*
Y6935453D1*
Y7245793D2*
G02X3713900Y7090623I250574J-154597D01*
G01*
X3168900Y6935453D2*
G03X3713900Y7090623I250574J154597D01*
G01*
X1933433Y8823859D2*
X2113038Y9003464D1*
X1574222Y9183069D2*
X1933433Y8823859D1*
X1574222Y9183069D2*
X1753827Y9362674D1*
X2113038Y9003464D1*
X4112662Y9232494D2*
X4292267Y9052889D1*
X4471873Y9591704D2*
X4112662Y9232494D1*
X4471873Y9591704D2*
X4651478Y9412099D1*
X4292267Y9052889D1*
X4335658Y5025204D2*
X4081653D1*
Y3501343D1*
X4335658D1*
Y5025204D1*
X1459888Y5000227D2*
X1205883D1*
Y3476366D1*
X1459888D1*
Y5000227D1*
X2688622Y8487322D2*
X2728066Y8634530D1*
X2295334Y8592704D2*
X2688622Y8487322D1*
X2295334Y8592704D2*
X2334778Y8739911D1*
X2728066Y8634530D1*
X3618294Y8712524D2*
X3694494Y8580542D1*
X3970906Y8916105D2*
X3618294Y8712524D1*
X3970906Y8916105D2*
X4047106Y8784123D1*
X3694494Y8580542D1*
X2006286Y2778820D2*
X2042778Y2926787D1*
X1610969Y2876313D2*
X2006286Y2778820D1*
X1610969Y2876313D2*
X1647460Y3024280D1*
X2042778Y2926787D1*
X4798989Y4957708D2*
X4657695Y4900596D1*
X4951572Y4580217D2*
X4798989Y4957708D1*
X4951572Y4580217D2*
X4810278Y4523105D1*
X4657695Y4900596D1*
X1896081Y2407498D2*
X1855158Y2260696D1*
X2288289Y2298164D2*
X1896081Y2407498D1*
X2288289Y2298164D2*
X2247366Y2151362D1*
X1855158Y2260696D1*
X2085796Y2492252D2*
X2121630Y2640379D1*
X1690050Y2587988D2*
X2085796Y2492252D1*
X1690050Y2587988D2*
X1725884Y2736115D1*
X2121630Y2640379D1*
X1910944Y3081034D2*
X1947919Y3228881D1*
X1515947Y3179819D2*
X1910944Y3081034D1*
X1515947Y3179819D2*
X1552923Y3327666D1*
X1947919Y3228881D1*
X4958308Y3853436D2*
X5054054Y3354541D1*
X5552934Y3450284D1*
X5457188Y3949179D1*
X4958308Y3853436D2*
X5457188Y3949179D1*
X5033366Y3651860D2*
G02X5033366Y3651860I222254J0D01*
G01*
X4839185Y3079804D2*
X4944645Y2582872D1*
X5441562Y2688329D1*
X5336102Y3185262D1*
X4839185Y3079804D2*
X5336102Y3185262D1*
X4918119Y2884067D2*
G02X4918119Y2884067I222254J0D01*
G01*
X3104571Y5340747D2*
Y3380747D1*
X2584549D2*
X3104571D1*
X2584549Y5340747D2*
Y3380747D1*
Y5340747D2*
X2784550D1*
X3104571D2*
X2904570D1*
X2784550D2*
G03X2904570Y5340747I60010J34D01*
G01*
X5584729Y5234079D2*
X5441520Y5181955D1*
X5723987Y4851472D2*
X5584729Y5234079D1*
X5723987Y4851472D2*
X5580778Y4799348D1*
X5441520Y5181955D1*
X5343456Y5138525D2*
X5200247Y5086402D1*
X5482713Y4755918D2*
X5343456Y5138525D1*
X5482713Y4755918D2*
X5339504Y4703795D1*
X5200247Y5086402D1*
X5066042Y5053029D2*
X4922833Y5000905D1*
X5205300Y4670422D2*
X5066042Y5053029D1*
X5205300Y4670422D2*
X5062091Y4618298D1*
X4922833Y5000905D1*
X1616587Y5850863D2*
D12*
X2729107D1*
X1616587Y5843243D2*
X2729107D1*
X1616587Y5835623D2*
X2729107D1*
X1616587Y5828003D2*
X2729107D1*
X1616587Y5820383D2*
X2729107D1*
X1616587Y5812763D2*
X2729107D1*
X1616587Y5805143D2*
X2729107D1*
X1616587Y5797523D2*
X2729107D1*
X1616587Y5789903D2*
X2729107D1*
X3201547D2*
X3232027D1*
X1616587Y5782283D2*
X1738827D1*
X1790349D2*
X2729107D1*
X2790067D2*
X2934847D1*
X2957707D2*
X3102487D1*
X3184287D2*
X3245739D1*
X3331087D2*
X3384427D1*
X3437767D2*
X3491107D1*
X1616587Y5774663D2*
X1724891D1*
X1802426D2*
X2729107D1*
X2790067D2*
X2934847D1*
X2957707D2*
X3102487D1*
X3170052D2*
X3257548D1*
X3331087D2*
X3384427D1*
X3437767D2*
X3491107D1*
X1616587Y5767043D2*
X1713014D1*
X1812568D2*
X2729107D1*
X2790067D2*
X2934847D1*
X2957707D2*
X3102487D1*
X3159040D2*
X3266719D1*
X3331087D2*
X3384427D1*
X3437767D2*
X3491107D1*
X1616587Y5759423D2*
X1703823D1*
X1821157D2*
X2729107D1*
X2790067D2*
X2934847D1*
X2957707D2*
X3102487D1*
X3150692D2*
X3273484D1*
X3331087D2*
X3384427D1*
X3437767D2*
X3491107D1*
X1616587Y5751803D2*
X1697082D1*
X1828312D2*
X2729107D1*
X2790067D2*
X2934847D1*
X2957707D2*
X3102487D1*
X3144461D2*
X3278684D1*
X3331087D2*
X3384427D1*
X3437767D2*
X3491107D1*
X1616587Y5744183D2*
X1692118D1*
X1761367D2*
X1768987D1*
X1834022D2*
X2287467D1*
X2317537D2*
X2729107D1*
X2790067D2*
X2934847D1*
X2957707D2*
X3102487D1*
X3139745D2*
X3283066D1*
X3331087D2*
X3384427D1*
X3437767D2*
X3491107D1*
X1616587Y5736563D2*
X1688439D1*
X1753154D2*
X1776287D1*
X1838500D2*
X2281119D1*
X2316704D2*
X2729107D1*
X2790067D2*
X2934847D1*
X2957707D2*
X3011047D1*
X3136173D2*
X3201837D1*
X3233494D2*
X3286837D1*
X3331087D2*
X3384427D1*
X3437767D2*
X3491107D1*
X1616587Y5728943D2*
X1685522D1*
X1746858D2*
X1782632D1*
X1841755D2*
X2276567D1*
X2314739D2*
X2729107D1*
X2835787D2*
X2889127D1*
X2957707D2*
X3011047D1*
X3133298D2*
X3195223D1*
X3236360D2*
X3289739D1*
X3331087D2*
X3384427D1*
X3437767D2*
X3491107D1*
X1616587Y5721323D2*
X1682748D1*
X1742402D2*
X1787157D1*
X1843899D2*
X2273821D1*
X2307411D2*
X2729107D1*
X2835787D2*
X2889127D1*
X2957707D2*
X3011047D1*
X3130539D2*
X3189727D1*
X3240160D2*
X3291511D1*
X3331087D2*
X3384427D1*
X3437767D2*
X3491107D1*
X1616587Y5713703D2*
X1680381D1*
X1739115D2*
X1789729D1*
X1845794D2*
X1883287D1*
X1929007D2*
X1961274D1*
X1982347D2*
X2037184D1*
X2087529D2*
X2206612D1*
X2256667D2*
X2271907D1*
X2299764D2*
X2372464D1*
X2422809D2*
X2500507D1*
X2546227D2*
X2571888D1*
X2612102D2*
X2729107D1*
X2835787D2*
X2889127D1*
X2957707D2*
X3011047D1*
X3128178D2*
X3185330D1*
X3243448D2*
X3292673D1*
X3331087D2*
X3384427D1*
X3437767D2*
X3491107D1*
X1616587Y5706083D2*
X1678886D1*
X1736184D2*
X1790973D1*
X1848023D2*
X1883287D1*
X1929007D2*
X1950204D1*
X1982347D2*
X2025138D1*
X2099576D2*
X2191086D1*
X2293473D2*
X2360418D1*
X2434856D2*
X2500507D1*
X2546227D2*
X2561996D1*
X2621991D2*
X2729107D1*
X2835787D2*
X2889127D1*
X2957707D2*
X3011047D1*
X3126686D2*
X3182133D1*
X3245486D2*
X3294237D1*
X3331087D2*
X3384427D1*
X3437767D2*
X3491107D1*
X1616587Y5698463D2*
X1678088D1*
X1733755D2*
X1791510D1*
X1850139D2*
X1883287D1*
X1929007D2*
X1942150D1*
X1982257D2*
X2015263D1*
X2109450D2*
X2180486D1*
X2292359D2*
X2350513D1*
X2444730D2*
X2500507D1*
X2546227D2*
X2553847D1*
X2628922D2*
X2729107D1*
X2835787D2*
X2889127D1*
X2957707D2*
X3011047D1*
X3125917D2*
X3180267D1*
X3246518D2*
X3297003D1*
X3331087D2*
X3384427D1*
X3437767D2*
X3491107D1*
X1616587Y5690843D2*
X1677474D1*
X1732238D2*
X1791723D1*
X1851530D2*
X1883287D1*
X1929007D2*
X1936441D1*
X1981424D2*
X2007645D1*
X2117069D2*
X2173613D1*
X2226187D2*
X2241427D1*
X2294382D2*
X2342657D1*
X2452349D2*
X2500507D1*
X2634115D2*
X2729107D1*
X2835787D2*
X2889127D1*
X2957707D2*
X3011047D1*
X3125572D2*
X3179347D1*
X3246992D2*
X3300607D1*
X3331087D2*
X3384427D1*
X3437767D2*
X3491107D1*
X1616587Y5683223D2*
X1676362D1*
X1731462D2*
X1791803D1*
X1852258D2*
X1883287D1*
X1929007D2*
X1932316D1*
X1979459D2*
X2002315D1*
X2050927D2*
X2081407D1*
X2122398D2*
X2168598D1*
X2222669D2*
X2244032D1*
X2297006D2*
X2336624D1*
X2386207D2*
X2409067D1*
X2457678D2*
X2500507D1*
X2569087D2*
X2576707D1*
X2635942D2*
X2729107D1*
X2835787D2*
X2889127D1*
X2957707D2*
X3079627D1*
X3125430D2*
X3178944D1*
X3247267D2*
X3270127D1*
X3331087D2*
X3491107D1*
X1616587Y5675603D2*
X1674512D1*
X1731113D2*
X1791832D1*
X1852589D2*
X1883287D1*
X1929007D2*
D3*
X1971781D2*
X1998558D1*
X2047409D2*
X2082584D1*
X2126155D2*
X2166866D1*
X2220481D2*
X2246300D1*
X2299427D2*
X2332013D1*
X2382689D2*
X2411672D1*
X2461435D2*
X2500507D1*
X2562052D2*
X2581372D1*
X2636931D2*
X2729107D1*
X2835787D2*
X2889127D1*
X2957707D2*
X3079627D1*
X3125376D2*
X3178781D1*
X3331087D2*
X3491107D1*
X1616587Y5667983D2*
X1672807D1*
X1730971D2*
X1791842D1*
X1852725D2*
X1883287D1*
X1962622D2*
X1995410D1*
X2045221D2*
X2084475D1*
X2129303D2*
X2165956D1*
X2219373D2*
X2247714D1*
X2300954D2*
X2328736D1*
X2380501D2*
X2413940D1*
X2464583D2*
X2500507D1*
X2556842D2*
X2585182D1*
X2637378D2*
X2729107D1*
X2835787D2*
X2889127D1*
X2957707D2*
X3079627D1*
X3125357D2*
X3178720D1*
X3331087D2*
X3491107D1*
X1616587Y5660363D2*
X1672442D1*
X1730917D2*
X1791845D1*
X1852778D2*
X1883287D1*
X1953827D2*
X1992891D1*
X2044111D2*
X2086467D1*
X2131822D2*
X2165799D1*
X2218882D2*
X2248171D1*
X2301461D2*
X2326842D1*
X2379393D2*
X2415384D1*
X2467102D2*
X2500507D1*
X2555252D2*
X2588086D1*
X2637560D2*
X2729107D1*
X2835787D2*
X2889127D1*
X2957707D2*
X3079627D1*
X3125350D2*
X3178698D1*
X3331087D2*
X3491107D1*
X1616587Y5652743D2*
X1673558D1*
X1730897D2*
X1791846D1*
X1852797D2*
X1883287D1*
X1946585D2*
X1991338D1*
X2043601D2*
X2087917D1*
X2133375D2*
X2166627D1*
X2218683D2*
X2247330D1*
X2301197D2*
X2325912D1*
X2378902D2*
X2416131D1*
X2468655D2*
X2500507D1*
X2554425D2*
X2587490D1*
X2637629D2*
X2729107D1*
X2835787D2*
X2889127D1*
X2957707D2*
X3079627D1*
X3125348D2*
X3178690D1*
X3331087D2*
X3491107D1*
X1616587Y5645123D2*
X1675188D1*
X1730890D2*
X1791847D1*
X1852803D2*
X1883287D1*
X1940805D2*
X1990548D1*
X2043307D2*
X2089027D1*
X2134165D2*
X2168684D1*
X2218606D2*
X2244867D1*
X2297740D2*
X2325505D1*
X2378703D2*
X2416467D1*
X2469445D2*
X2500507D1*
X2554067D2*
X2586295D1*
X2637654D2*
X2729107D1*
X2835787D2*
X2889127D1*
X2957707D2*
X3079627D1*
X3125347D2*
X3178688D1*
X3331087D2*
X3491107D1*
X1616587Y5637503D2*
X1676383D1*
X1730918D2*
X1791847D1*
X1852776D2*
X1883287D1*
X1938657D2*
X1990196D1*
X2134518D2*
X2171881D1*
X2218567D2*
X2241427D1*
X2292152D2*
X2325342D1*
X2378628D2*
X2416605D1*
X2469798D2*
X2500507D1*
X2553926D2*
X2585328D1*
X2637662D2*
X2729107D1*
X2835787D2*
X2889127D1*
X2957707D2*
X3079627D1*
X3125347D2*
X3178687D1*
X3331087D2*
X3491107D1*
X1616587Y5629883D2*
X1677038D1*
X1731185D2*
X1791847D1*
X1852509D2*
X1883287D1*
X1937492D2*
X1990052D1*
X2134662D2*
X2176274D1*
X2284798D2*
X2325280D1*
X2378601D2*
X2416658D1*
X2469942D2*
X2500507D1*
X2553874D2*
X2584773D1*
X2637665D2*
X2729107D1*
X2835787D2*
X2889127D1*
X2957707D2*
X3011047D1*
X3125347D2*
X3178717D1*
X3331087D2*
X3384427D1*
X3437767D2*
X3491107D1*
X1616587Y5622263D2*
X1677373D1*
X1732156D2*
X1791847D1*
X1851538D2*
X1883287D1*
X1936966D2*
X1989997D1*
X2134718D2*
X2181891D1*
X2266053D2*
X2325258D1*
X2378591D2*
X2416677D1*
X2469996D2*
X2500507D1*
X2553856D2*
X2584508D1*
X2637666D2*
X2729107D1*
X2835787D2*
X2889127D1*
X2957707D2*
X3011047D1*
X3125376D2*
X3178984D1*
X3247267D2*
X3300607D1*
X3331087D2*
X3384427D1*
X3437767D2*
X3491107D1*
X1616587Y5614643D2*
X1677768D1*
X1734010D2*
X1791817D1*
X1849713D2*
X1883287D1*
X1936752D2*
X1989977D1*
X2043307D2*
X2188087D1*
X2237768D2*
X2325250D1*
X2378588D2*
X2416683D1*
X2470016D2*
X2500507D1*
X2553850D2*
X2584396D1*
X2637667D2*
X2729107D1*
X2835787D2*
X2889127D1*
X2957707D2*
X3011047D1*
X3125644D2*
X3179985D1*
X3246059D2*
X3299429D1*
X3331087D2*
X3384427D1*
X3437767D2*
X3491107D1*
X1616587Y5607023D2*
X1678788D1*
X1736232D2*
X1791519D1*
X1847729D2*
X1883287D1*
X1936671D2*
X1990000D1*
X2043307D2*
X2179584D1*
X2203327D2*
X2325278D1*
X2378587D2*
X2416686D1*
X2469993D2*
X2500507D1*
X2553848D2*
X2584352D1*
X2637667D2*
X2729107D1*
X2835787D2*
X2889127D1*
X2957707D2*
X3011047D1*
X3126615D2*
X3182108D1*
X3243872D2*
X3297510D1*
X3331087D2*
X3384427D1*
X3437767D2*
X3491107D1*
X1616587Y5599403D2*
X1680661D1*
X1738591D2*
X1790250D1*
X1846133D2*
X1883287D1*
X1936642D2*
X1990265D1*
X2043336D2*
X2172341D1*
X2203327D2*
X2325545D1*
X2378587D2*
X2416657D1*
X2469728D2*
X2500507D1*
X2553847D2*
X2584335D1*
X2637667D2*
X2729107D1*
X2835787D2*
X2889127D1*
X2957707D2*
X3011047D1*
X3128470D2*
X3185329D1*
X3240632D2*
X3295269D1*
X3331087D2*
X3384427D1*
X3437767D2*
X3491107D1*
X1616587Y5591783D2*
X1682889D1*
X1741705D2*
X1787157D1*
X1844425D2*
X1883287D1*
X1936632D2*
X1991236D1*
X2043634D2*
X2087790D1*
X2098663D2*
X2166357D1*
X2203327D2*
X2326516D1*
X2378646D2*
X2416359D1*
X2468758D2*
X2500507D1*
X2553847D2*
X2584330D1*
X2637667D2*
X2729107D1*
X2835787D2*
X2889127D1*
X2957707D2*
X3011047D1*
X3130722D2*
X3189730D1*
X3236225D2*
X3292934D1*
X3331087D2*
X3384427D1*
X3437767D2*
X3491107D1*
X1616587Y5584163D2*
X1685221D1*
X1746357D2*
X1782117D1*
X1841979D2*
X1883287D1*
X1936628D2*
X1993090D1*
X2044901D2*
X2085319D1*
X2118448D2*
X2161503D1*
X2203327D2*
X2328370D1*
X2379227D2*
X2415092D1*
X2466903D2*
X2500507D1*
X2553847D2*
X2584328D1*
X2637667D2*
X2729107D1*
X2835787D2*
X2889127D1*
X2957707D2*
X3011047D1*
X3133290D2*
X3195350D1*
X3230604D2*
X3290133D1*
X3331087D2*
X3384427D1*
X3437767D2*
X3491107D1*
X1616587Y5576543D2*
X1688051D1*
X1753149D2*
X1775800D1*
X1838623D2*
X1883287D1*
X1936627D2*
X1995342D1*
X2047968D2*
X2080971D1*
X2134747D2*
X2160171D1*
X2241927D2*
X2330622D1*
X2380611D2*
X2412026D1*
X2464652D2*
X2500507D1*
X2553847D2*
X2584327D1*
X2637667D2*
X2729107D1*
X2835787D2*
X2889127D1*
X2957707D2*
X3102487D1*
X3136822D2*
X3201547D1*
X3224407D2*
X3286855D1*
X3331087D2*
X3384427D1*
X3437767D2*
X3491107D1*
X1616587Y5568923D2*
X1691626D1*
X1761367D2*
X1768987D1*
X1834149D2*
X1883287D1*
X1936627D2*
X1997969D1*
X2052841D2*
X2074311D1*
X2129732D2*
X2162868D1*
X2271023D2*
X2333219D1*
X2386549D2*
X2407153D1*
X2462054D2*
X2500507D1*
X2553847D2*
X2584327D1*
X2637667D2*
X2729107D1*
X2835787D2*
X2889127D1*
X2957707D2*
X3102487D1*
X3141222D2*
X3283269D1*
X3331087D2*
X3384427D1*
X3437767D2*
X3491107D1*
X1616587Y5561303D2*
X1696480D1*
X1828346D2*
X1883287D1*
X1936627D2*
X2002067D1*
X2058547D2*
X2066167D1*
X2124350D2*
X2167592D1*
X2290257D2*
X2337049D1*
X2393827D2*
X2401447D1*
X2458194D2*
X2500507D1*
X2553847D2*
X2584327D1*
X2637667D2*
X2729107D1*
X2835787D2*
X2889127D1*
X2957707D2*
X3102487D1*
X3145937D2*
X3279259D1*
X3331087D2*
X3384427D1*
X3437767D2*
X3491107D1*
X1616587Y5553683D2*
X1703553D1*
X1821350D2*
X1883287D1*
X1936627D2*
X2008705D1*
X2117884D2*
X2173748D1*
X2303797D2*
X2342710D1*
X2452243D2*
X2500507D1*
X2553847D2*
X2584327D1*
X2637667D2*
X2729107D1*
X2835787D2*
X2889127D1*
X2957707D2*
X3102487D1*
X3151445D2*
X3274167D1*
X3331087D2*
X3384427D1*
X3437767D2*
X3491107D1*
X1616587Y5546063D2*
X1713336D1*
X1812954D2*
X1883287D1*
X1936627D2*
X2018279D1*
X2109835D2*
X2180467D1*
X2309634D2*
X2350396D1*
X2443380D2*
X2500507D1*
X2553847D2*
X2584327D1*
X2637667D2*
X2729107D1*
X2835787D2*
X2889127D1*
X2957707D2*
X3102487D1*
X3159098D2*
X3266715D1*
X3331087D2*
X3384427D1*
X3437767D2*
X3491107D1*
X1616587Y5538443D2*
X1725418D1*
X1802895D2*
X1883287D1*
X1936627D2*
X2030269D1*
X2099959D2*
X2171449D1*
X2203327D2*
X2241427D1*
X2313595D2*
X2360117D1*
X2431053D2*
X2500507D1*
X2553847D2*
X2584327D1*
X2637667D2*
X2729107D1*
X2835787D2*
X2889127D1*
X2957707D2*
X3102487D1*
X3170181D2*
X3255719D1*
X3331087D2*
X3384427D1*
X3437767D2*
X3491107D1*
X1616587Y5530823D2*
X1738507D1*
X1791847D2*
X2043307D1*
X2089027D2*
X2163748D1*
X2199839D2*
X2254554D1*
X2316174D2*
X2370967D1*
X2416687D2*
X2729107D1*
X2835787D2*
X2889127D1*
X2957707D2*
X3102487D1*
X3184915D2*
X3241020D1*
X3331087D2*
X3384427D1*
X3437767D2*
X3491107D1*
X1616587Y5523203D2*
X2157955D1*
X2197941D2*
X2264826D1*
X2315752D2*
X2729107D1*
X3201547D2*
X3224407D1*
X1616587Y5515583D2*
X2153462D1*
X2197277D2*
X2268186D1*
X2313993D2*
X2729107D1*
X1616587Y5507963D2*
X2152260D1*
X2199921D2*
X2266782D1*
X2311158D2*
X2729107D1*
X1616587Y5500343D2*
X2154263D1*
X2203327D2*
X2264287D1*
X2307438D2*
X2729107D1*
X1616587Y5492723D2*
X2157485D1*
X2301975D2*
X2729107D1*
X1616587Y5485103D2*
X2165540D1*
X2293014D2*
X2729107D1*
X1616587Y5477483D2*
X2176155D1*
X2279781D2*
X2729107D1*
X1616587Y5469863D2*
X2188087D1*
X2264287D2*
X2729107D1*
X1616587Y5462243D2*
X2729107D1*
X1616587Y5454623D2*
X2729107D1*
X1616587Y5850863D2*
Y5843243D1*
Y5835623D1*
Y5828003D1*
Y5820383D1*
Y5812763D1*
Y5805143D1*
Y5797523D1*
Y5789903D1*
Y5782283D1*
Y5774663D1*
Y5767043D1*
Y5759423D1*
Y5751803D1*
Y5744183D1*
Y5736563D1*
Y5728943D1*
Y5721323D1*
Y5713703D1*
Y5706083D1*
Y5698463D1*
Y5690843D1*
Y5683223D1*
Y5675603D1*
Y5667983D1*
Y5660363D1*
Y5652743D1*
Y5645123D1*
Y5637503D1*
Y5629883D1*
Y5622263D1*
Y5614643D1*
Y5607023D1*
Y5599403D1*
Y5591783D1*
Y5584163D1*
Y5576543D1*
Y5568923D1*
Y5561303D1*
Y5553683D1*
Y5546063D1*
Y5538443D1*
Y5530823D1*
Y5523203D1*
Y5515583D1*
Y5507963D1*
Y5500343D1*
Y5492723D1*
Y5485103D1*
Y5477483D1*
Y5469863D1*
Y5462243D1*
Y5454623D1*
X2729107Y5850863D2*
Y5843243D1*
Y5835623D1*
Y5828003D1*
Y5820383D1*
Y5812763D1*
Y5805143D1*
Y5797523D1*
Y5789903D1*
Y5782283D1*
Y5774663D1*
Y5767043D1*
Y5759423D1*
Y5751803D1*
Y5744183D1*
Y5736563D1*
Y5728943D1*
Y5721323D1*
Y5713703D1*
Y5706083D1*
Y5698463D1*
Y5690843D1*
Y5683223D1*
Y5675603D1*
Y5667983D1*
Y5660363D1*
Y5652743D1*
Y5645123D1*
Y5637503D1*
Y5629883D1*
Y5622263D1*
Y5614643D1*
Y5607023D1*
Y5599403D1*
Y5591783D1*
Y5584163D1*
Y5576543D1*
Y5568923D1*
Y5561303D1*
Y5553683D1*
Y5546063D1*
Y5538443D1*
Y5530823D1*
Y5523203D1*
Y5515583D1*
Y5507963D1*
Y5500343D1*
Y5492723D1*
Y5485103D1*
Y5477483D1*
Y5469863D1*
Y5462243D1*
Y5454623D1*
X3201547Y5789903D2*
X3184287Y5782283D1*
X3170052Y5774663D1*
X3159040Y5767043D1*
X3150692Y5759423D1*
X3144461Y5751803D1*
X3139745Y5744183D1*
X3136173Y5736563D1*
X3133298Y5728943D1*
X3130539Y5721323D1*
X3128178Y5713703D1*
X3126686Y5706083D1*
X3125917Y5698463D1*
X3125572Y5690843D1*
X3125430Y5683223D1*
X3125376Y5675603D1*
X3125357Y5667983D1*
X3125350Y5660363D1*
X3125348Y5652743D1*
X3125347Y5645123D1*
Y5637503D1*
Y5629883D1*
X3125376Y5622263D1*
X3125644Y5614643D1*
X3126615Y5607023D1*
X3128470Y5599403D1*
X3130722Y5591783D1*
X3133290Y5584163D1*
X3136822Y5576543D1*
X3141222Y5568923D1*
X3145937Y5561303D1*
X3151445Y5553683D1*
X3159098Y5546063D1*
X3170181Y5538443D1*
X3184915Y5530823D1*
X3201547Y5523203D1*
X3232027Y5789903D2*
X3245739Y5782283D1*
X3257548Y5774663D1*
X3266719Y5767043D1*
X3273484Y5759423D1*
X3278684Y5751803D1*
X3283066Y5744183D1*
X3286837Y5736563D1*
X3289739Y5728943D1*
X3291511Y5721323D1*
X3292673Y5713703D1*
X3294237Y5706083D1*
X3297003Y5698463D1*
X3300607Y5690843D1*
X3270127Y5683223D1*
X1753747Y5789903D2*
X1738827Y5782283D1*
X1724891Y5774663D1*
X1713014Y5767043D1*
X1703823Y5759423D1*
X1697082Y5751803D1*
X1692118Y5744183D1*
X1688439Y5736563D1*
X1685522Y5728943D1*
X1682748Y5721323D1*
X1680381Y5713703D1*
X1678886Y5706083D1*
X1678088Y5698463D1*
X1677474Y5690843D1*
X1676362Y5683223D1*
X1674512Y5675603D1*
X1672807Y5667983D1*
X1672442Y5660363D1*
X1673558Y5652743D1*
X1675188Y5645123D1*
X1676383Y5637503D1*
X1677038Y5629883D1*
X1677373Y5622263D1*
X1677768Y5614643D1*
X1678788Y5607023D1*
X1680661Y5599403D1*
X1682889Y5591783D1*
X1685221Y5584163D1*
X1688051Y5576543D1*
X1691626Y5568923D1*
X1696480Y5561303D1*
X1703553Y5553683D1*
X1713336Y5546063D1*
X1725418Y5538443D1*
X1738507Y5530823D1*
X1776607Y5789903D2*
X1790349Y5782283D1*
X1802426Y5774663D1*
X1812568Y5767043D1*
X1821157Y5759423D1*
X1828312Y5751803D1*
X1834022Y5744183D1*
X1838500Y5736563D1*
X1841755Y5728943D1*
X1843899Y5721323D1*
X1845794Y5713703D1*
X1848023Y5706083D1*
X1850139Y5698463D1*
X1851530Y5690843D1*
X1852258Y5683223D1*
X1852589Y5675603D1*
X1852725Y5667983D1*
X1852778Y5660363D1*
X1852797Y5652743D1*
X1852803Y5645123D1*
X1852776Y5637503D1*
X1852509Y5629883D1*
X1851538Y5622263D1*
X1849713Y5614643D1*
X1847729Y5607023D1*
X1846133Y5599403D1*
X1844425Y5591783D1*
X1841979Y5584163D1*
X1838623Y5576543D1*
X1834149Y5568923D1*
X1828346Y5561303D1*
X1821350Y5553683D1*
X1812954Y5546063D1*
X1802895Y5538443D1*
X1791847Y5530823D1*
X2790067Y5782283D2*
Y5774663D1*
Y5767043D1*
Y5759423D1*
Y5751803D1*
Y5744183D1*
Y5736563D1*
Y5728943D1*
X2835787D1*
Y5721323D1*
Y5713703D1*
Y5706083D1*
Y5698463D1*
Y5690843D1*
Y5683223D1*
Y5675603D1*
Y5667983D1*
Y5660363D1*
Y5652743D1*
Y5645123D1*
Y5637503D1*
Y5629883D1*
Y5622263D1*
Y5614643D1*
Y5607023D1*
Y5599403D1*
Y5591783D1*
Y5584163D1*
Y5576543D1*
Y5568923D1*
Y5561303D1*
Y5553683D1*
Y5546063D1*
Y5538443D1*
Y5530823D1*
X2934847Y5782283D2*
Y5774663D1*
Y5767043D1*
Y5759423D1*
Y5751803D1*
Y5744183D1*
Y5736563D1*
Y5728943D1*
X2889127D1*
Y5721323D1*
Y5713703D1*
Y5706083D1*
Y5698463D1*
Y5690843D1*
Y5683223D1*
Y5675603D1*
Y5667983D1*
Y5660363D1*
Y5652743D1*
Y5645123D1*
Y5637503D1*
Y5629883D1*
Y5622263D1*
Y5614643D1*
Y5607023D1*
Y5599403D1*
Y5591783D1*
Y5584163D1*
Y5576543D1*
Y5568923D1*
Y5561303D1*
Y5553683D1*
Y5546063D1*
Y5538443D1*
Y5530823D1*
X2957707Y5782283D2*
Y5774663D1*
Y5767043D1*
Y5759423D1*
Y5751803D1*
Y5744183D1*
Y5736563D1*
Y5728943D1*
Y5721323D1*
Y5713703D1*
Y5706083D1*
Y5698463D1*
Y5690843D1*
Y5683223D1*
Y5675603D1*
Y5667983D1*
Y5660363D1*
Y5652743D1*
Y5645123D1*
Y5637503D1*
Y5629883D1*
Y5622263D1*
Y5614643D1*
Y5607023D1*
Y5599403D1*
Y5591783D1*
Y5584163D1*
Y5576543D1*
Y5568923D1*
Y5561303D1*
Y5553683D1*
Y5546063D1*
Y5538443D1*
Y5530823D1*
X3102487Y5782283D2*
Y5774663D1*
Y5767043D1*
Y5759423D1*
Y5751803D1*
Y5744183D1*
X3331087Y5782283D2*
Y5774663D1*
Y5767043D1*
Y5759423D1*
Y5751803D1*
Y5744183D1*
Y5736563D1*
Y5728943D1*
Y5721323D1*
Y5713703D1*
Y5706083D1*
Y5698463D1*
Y5690843D1*
Y5683223D1*
Y5675603D1*
Y5667983D1*
Y5660363D1*
Y5652743D1*
Y5645123D1*
Y5637503D1*
Y5629883D1*
Y5622263D1*
Y5614643D1*
Y5607023D1*
Y5599403D1*
Y5591783D1*
Y5584163D1*
Y5576543D1*
Y5568923D1*
Y5561303D1*
Y5553683D1*
Y5546063D1*
Y5538443D1*
Y5530823D1*
X3384427Y5782283D2*
Y5774663D1*
Y5767043D1*
Y5759423D1*
Y5751803D1*
Y5744183D1*
Y5736563D1*
Y5728943D1*
Y5721323D1*
Y5713703D1*
Y5706083D1*
Y5698463D1*
Y5690843D1*
X3437767Y5782283D2*
Y5774663D1*
Y5767043D1*
Y5759423D1*
Y5751803D1*
Y5744183D1*
Y5736563D1*
Y5728943D1*
Y5721323D1*
Y5713703D1*
Y5706083D1*
Y5698463D1*
Y5690843D1*
X3491107Y5782283D2*
Y5774663D1*
Y5767043D1*
Y5759423D1*
Y5751803D1*
Y5744183D1*
Y5736563D1*
Y5728943D1*
Y5721323D1*
Y5713703D1*
Y5706083D1*
Y5698463D1*
Y5690843D1*
Y5683223D1*
Y5675603D1*
Y5667983D1*
Y5660363D1*
Y5652743D1*
Y5645123D1*
Y5637503D1*
Y5629883D1*
Y5622263D1*
Y5614643D1*
Y5607023D1*
Y5599403D1*
Y5591783D1*
Y5584163D1*
Y5576543D1*
Y5568923D1*
Y5561303D1*
Y5553683D1*
Y5546063D1*
Y5538443D1*
Y5530823D1*
X1761367Y5744183D2*
X1753154Y5736563D1*
X1746858Y5728943D1*
X1742402Y5721323D1*
X1739115Y5713703D1*
X1736184Y5706083D1*
X1733755Y5698463D1*
X1732238Y5690843D1*
X1731462Y5683223D1*
X1731113Y5675603D1*
X1730971Y5667983D1*
X1730917Y5660363D1*
X1730897Y5652743D1*
X1730890Y5645123D1*
X1730918Y5637503D1*
X1731185Y5629883D1*
X1732156Y5622263D1*
X1734010Y5614643D1*
X1736232Y5607023D1*
X1738591Y5599403D1*
X1741705Y5591783D1*
X1746357Y5584163D1*
X1753149Y5576543D1*
X1761367Y5568923D1*
X1768987Y5744183D2*
X1776287Y5736563D1*
X1782632Y5728943D1*
X1787157Y5721323D1*
X1789729Y5713703D1*
X1790973Y5706083D1*
X1791510Y5698463D1*
X1791723Y5690843D1*
X1791803Y5683223D1*
X1791832Y5675603D1*
X1791842Y5667983D1*
X1791845Y5660363D1*
X1791846Y5652743D1*
X1791847Y5645123D1*
Y5637503D1*
Y5629883D1*
Y5622263D1*
X1791817Y5614643D1*
X1791519Y5607023D1*
X1790250Y5599403D1*
X1787157Y5591783D1*
X1782117Y5584163D1*
X1775800Y5576543D1*
X1768987Y5568923D1*
X2294767Y5751803D2*
X2287467Y5744183D1*
X2281119Y5736563D1*
X2276567Y5728943D1*
X2273821Y5721323D1*
X2271907Y5713703D1*
X2317627Y5751803D2*
X2317537Y5744183D1*
X2316704Y5736563D1*
X2314739Y5728943D1*
X2307411Y5721323D1*
X2299764Y5713703D1*
X2293473Y5706083D1*
X2292359Y5698463D1*
X2294382Y5690843D1*
X2297006Y5683223D1*
X2299427Y5675603D1*
X2300954Y5667983D1*
X2301461Y5660363D1*
X2301197Y5652743D1*
X2297740Y5645123D1*
X2292152Y5637503D1*
X2284798Y5629883D1*
X2266053Y5622263D1*
X2237768Y5614643D1*
X2203327Y5607023D1*
Y5599403D1*
Y5591783D1*
Y5584163D1*
X2241927Y5576543D1*
X2271023Y5568923D1*
X2290257Y5561303D1*
X2303797Y5553683D1*
X2309634Y5546063D1*
X2313595Y5538443D1*
X2316174Y5530823D1*
X2315752Y5523203D1*
X2313993Y5515583D1*
X2311158Y5507963D1*
X2307438Y5500343D1*
X2301975Y5492723D1*
X2293014Y5485103D1*
X2279781Y5477483D1*
X2264287Y5469863D1*
X3011047Y5744183D2*
Y5736563D1*
Y5728943D1*
Y5721323D1*
Y5713703D1*
Y5706083D1*
Y5698463D1*
Y5690843D1*
Y5683223D1*
X3079627D1*
Y5675603D1*
Y5667983D1*
Y5660363D1*
Y5652743D1*
Y5645123D1*
Y5637503D1*
Y5629883D1*
X3011047D1*
Y5622263D1*
Y5614643D1*
Y5607023D1*
Y5599403D1*
Y5591783D1*
Y5584163D1*
Y5576543D1*
X3209167Y5744183D2*
X3201837Y5736563D1*
X3195223Y5728943D1*
X3189727Y5721323D1*
X3185330Y5713703D1*
X3182133Y5706083D1*
X3180267Y5698463D1*
X3179347Y5690843D1*
X3178944Y5683223D1*
X3178781Y5675603D1*
X3178720Y5667983D1*
X3178698Y5660363D1*
X3178690Y5652743D1*
X3178688Y5645123D1*
X3178687Y5637503D1*
X3178717Y5629883D1*
X3178984Y5622263D1*
X3179985Y5614643D1*
X3182108Y5607023D1*
X3185329Y5599403D1*
X3189730Y5591783D1*
X3195350Y5584163D1*
X3201547Y5576543D1*
X3232027Y5744183D2*
X3233494Y5736563D1*
X3236360Y5728943D1*
X3240160Y5721323D1*
X3243448Y5713703D1*
X3245486Y5706083D1*
X3246518Y5698463D1*
X3246992Y5690843D1*
X3247267Y5683223D1*
X1883287Y5721323D2*
Y5713703D1*
Y5706083D1*
Y5698463D1*
Y5690843D1*
Y5683223D1*
Y5675603D1*
Y5667983D1*
Y5660363D1*
Y5652743D1*
Y5645123D1*
Y5637503D1*
Y5629883D1*
Y5622263D1*
Y5614643D1*
Y5607023D1*
Y5599403D1*
Y5591783D1*
Y5584163D1*
Y5576543D1*
Y5568923D1*
Y5561303D1*
Y5553683D1*
Y5546063D1*
Y5538443D1*
X1929007Y5721323D2*
Y5713703D1*
Y5706083D1*
Y5698463D1*
Y5690843D1*
Y5683223D1*
Y5675603D1*
X1974727Y5721323D2*
X1961274Y5713703D1*
X1950204Y5706083D1*
X1942150Y5698463D1*
X1936441Y5690843D1*
X1932316Y5683223D1*
X1929007Y5675603D1*
X1982347Y5721323D2*
Y5713703D1*
Y5706083D1*
X1982257Y5698463D1*
X1981424Y5690843D1*
X1979459Y5683223D1*
X1971781Y5675603D1*
X1962622Y5667983D1*
X1953827Y5660363D1*
X1946585Y5652743D1*
X1940805Y5645123D1*
X1938657Y5637503D1*
X1937492Y5629883D1*
X1936966Y5622263D1*
X1936752Y5614643D1*
X1936671Y5607023D1*
X1936642Y5599403D1*
X1936632Y5591783D1*
X1936628Y5584163D1*
X1936627Y5576543D1*
Y5568923D1*
Y5561303D1*
Y5553683D1*
Y5546063D1*
Y5538443D1*
X2050927Y5721323D2*
X2037184Y5713703D1*
X2025138Y5706083D1*
X2015263Y5698463D1*
X2007645Y5690843D1*
X2002315Y5683223D1*
X1998558Y5675603D1*
X1995410Y5667983D1*
X1992891Y5660363D1*
X1991338Y5652743D1*
X1990548Y5645123D1*
X1990196Y5637503D1*
X1990052Y5629883D1*
X1989997Y5622263D1*
X1989977Y5614643D1*
X1990000Y5607023D1*
X1990265Y5599403D1*
X1991236Y5591783D1*
X1993090Y5584163D1*
X1995342Y5576543D1*
X1997969Y5568923D1*
X2002067Y5561303D1*
X2008705Y5553683D1*
X2018279Y5546063D1*
X2030269Y5538443D1*
X2043307Y5530823D1*
X2073787Y5721323D2*
X2087529Y5713703D1*
X2099576Y5706083D1*
X2109450Y5698463D1*
X2117069Y5690843D1*
X2122398Y5683223D1*
X2126155Y5675603D1*
X2129303Y5667983D1*
X2131822Y5660363D1*
X2133375Y5652743D1*
X2134165Y5645123D1*
X2134518Y5637503D1*
X2134662Y5629883D1*
X2134718Y5622263D1*
X2134747Y5614643D1*
X2226187Y5721323D2*
X2206612Y5713703D1*
X2191086Y5706083D1*
X2180486Y5698463D1*
X2173613Y5690843D1*
X2168598Y5683223D1*
X2166866Y5675603D1*
X2165956Y5667983D1*
X2165799Y5660363D1*
X2166627Y5652743D1*
X2168684Y5645123D1*
X2171881Y5637503D1*
X2176274Y5629883D1*
X2181891Y5622263D1*
X2188087Y5614643D1*
X2179584Y5607023D1*
X2172341Y5599403D1*
X2166357Y5591783D1*
X2161503Y5584163D1*
X2160171Y5576543D1*
X2162868Y5568923D1*
X2167592Y5561303D1*
X2173748Y5553683D1*
X2180467Y5546063D1*
X2171449Y5538443D1*
X2163748Y5530823D1*
X2157955Y5523203D1*
X2153462Y5515583D1*
X2152260Y5507963D1*
X2154263Y5500343D1*
X2157485Y5492723D1*
X2165540Y5485103D1*
X2176155Y5477483D1*
X2188087Y5469863D1*
X2249047Y5721323D2*
X2256667Y5713703D1*
X2386207Y5721323D2*
X2372464Y5713703D1*
X2360418Y5706083D1*
X2350513Y5698463D1*
X2342657Y5690843D1*
X2336624Y5683223D1*
X2332013Y5675603D1*
X2328736Y5667983D1*
X2326842Y5660363D1*
X2325912Y5652743D1*
X2325505Y5645123D1*
X2325342Y5637503D1*
X2325280Y5629883D1*
X2325258Y5622263D1*
X2325250Y5614643D1*
X2325278Y5607023D1*
X2325545Y5599403D1*
X2326516Y5591783D1*
X2328370Y5584163D1*
X2330622Y5576543D1*
X2333219Y5568923D1*
X2337049Y5561303D1*
X2342710Y5553683D1*
X2350396Y5546063D1*
X2360117Y5538443D1*
X2370967Y5530823D1*
X2409067Y5721323D2*
X2422809Y5713703D1*
X2434856Y5706083D1*
X2444730Y5698463D1*
X2452349Y5690843D1*
X2457678Y5683223D1*
X2461435Y5675603D1*
X2464583Y5667983D1*
X2467102Y5660363D1*
X2468655Y5652743D1*
X2469445Y5645123D1*
X2469798Y5637503D1*
X2469942Y5629883D1*
X2469996Y5622263D1*
X2470016Y5614643D1*
X2469993Y5607023D1*
X2469728Y5599403D1*
X2468758Y5591783D1*
X2466903Y5584163D1*
X2464652Y5576543D1*
X2462054Y5568923D1*
X2458194Y5561303D1*
X2452243Y5553683D1*
X2443380Y5546063D1*
X2431053Y5538443D1*
X2416687Y5530823D1*
X2500507Y5721323D2*
Y5713703D1*
Y5706083D1*
Y5698463D1*
Y5690843D1*
Y5683223D1*
Y5675603D1*
Y5667983D1*
Y5660363D1*
Y5652743D1*
Y5645123D1*
Y5637503D1*
Y5629883D1*
Y5622263D1*
Y5614643D1*
Y5607023D1*
Y5599403D1*
Y5591783D1*
Y5584163D1*
Y5576543D1*
Y5568923D1*
Y5561303D1*
Y5553683D1*
Y5546063D1*
Y5538443D1*
X2546227Y5721323D2*
Y5713703D1*
Y5706083D1*
Y5698463D1*
X2584327Y5721323D2*
X2571888Y5713703D1*
X2561996Y5706083D1*
X2553847Y5698463D1*
X2599567Y5721323D2*
X2612102Y5713703D1*
X2621991Y5706083D1*
X2628922Y5698463D1*
X2634115Y5690843D1*
X2635942Y5683223D1*
X2636931Y5675603D1*
X2637378Y5667983D1*
X2637560Y5660363D1*
X2637629Y5652743D1*
X2637654Y5645123D1*
X2637662Y5637503D1*
X2637665Y5629883D1*
X2637666Y5622263D1*
X2637667Y5614643D1*
Y5607023D1*
Y5599403D1*
Y5591783D1*
Y5584163D1*
Y5576543D1*
Y5568923D1*
Y5561303D1*
Y5553683D1*
Y5546063D1*
Y5538443D1*
X2226187Y5690843D2*
X2222669Y5683223D1*
X2220481Y5675603D1*
X2219373Y5667983D1*
X2218882Y5660363D1*
X2218683Y5652743D1*
X2218606Y5645123D1*
X2218567Y5637503D1*
X2241427Y5690843D2*
X2244032Y5683223D1*
X2246300Y5675603D1*
X2247714Y5667983D1*
X2248171Y5660363D1*
X2247330Y5652743D1*
X2244867Y5645123D1*
X2241427Y5637503D1*
X2050927Y5683223D2*
X2047409Y5675603D1*
X2045221Y5667983D1*
X2044111Y5660363D1*
X2043601Y5652743D1*
X2043307Y5645123D1*
X2081407Y5683223D2*
X2082584Y5675603D1*
X2084475Y5667983D1*
X2086467Y5660363D1*
X2087917Y5652743D1*
X2089027Y5645123D1*
X2386207Y5683223D2*
X2382689Y5675603D1*
X2380501Y5667983D1*
X2379393Y5660363D1*
X2378902Y5652743D1*
X2378703Y5645123D1*
X2378628Y5637503D1*
X2378601Y5629883D1*
X2378591Y5622263D1*
X2378588Y5614643D1*
X2378587Y5607023D1*
Y5599403D1*
X2378646Y5591783D1*
X2379227Y5584163D1*
X2380611Y5576543D1*
X2386549Y5568923D1*
X2393827Y5561303D1*
X2409067Y5683223D2*
X2411672Y5675603D1*
X2413940Y5667983D1*
X2415384Y5660363D1*
X2416131Y5652743D1*
X2416467Y5645123D1*
X2416605Y5637503D1*
X2416658Y5629883D1*
X2416677Y5622263D1*
X2416683Y5614643D1*
X2416686Y5607023D1*
X2416657Y5599403D1*
X2416359Y5591783D1*
X2415092Y5584163D1*
X2412026Y5576543D1*
X2407153Y5568923D1*
X2401447Y5561303D1*
X2569087Y5683223D2*
X2562052Y5675603D1*
X2556842Y5667983D1*
X2555252Y5660363D1*
X2554425Y5652743D1*
X2554067Y5645123D1*
X2553926Y5637503D1*
X2553874Y5629883D1*
X2553856Y5622263D1*
X2553850Y5614643D1*
X2553848Y5607023D1*
X2553847Y5599403D1*
Y5591783D1*
Y5584163D1*
Y5576543D1*
Y5568923D1*
Y5561303D1*
Y5553683D1*
Y5546063D1*
Y5538443D1*
X2576707Y5683223D2*
X2581372Y5675603D1*
X2585182Y5667983D1*
X2588086Y5660363D1*
X2587490Y5652743D1*
X2586295Y5645123D1*
X2585328Y5637503D1*
X2584773Y5629883D1*
X2584508Y5622263D1*
X2584396Y5614643D1*
X2584352Y5607023D1*
X2584335Y5599403D1*
X2584330Y5591783D1*
X2584328Y5584163D1*
X2584327Y5576543D1*
Y5568923D1*
Y5561303D1*
Y5553683D1*
Y5546063D1*
Y5538443D1*
X3384427Y5637503D2*
Y5629883D1*
Y5622263D1*
Y5614643D1*
Y5607023D1*
Y5599403D1*
Y5591783D1*
Y5584163D1*
Y5576543D1*
Y5568923D1*
Y5561303D1*
Y5553683D1*
Y5546063D1*
Y5538443D1*
Y5530823D1*
X3437767Y5637503D2*
Y5629883D1*
Y5622263D1*
Y5614643D1*
Y5607023D1*
Y5599403D1*
Y5591783D1*
Y5584163D1*
Y5576543D1*
Y5568923D1*
Y5561303D1*
Y5553683D1*
Y5546063D1*
Y5538443D1*
Y5530823D1*
X3247267Y5622263D2*
X3246059Y5614643D1*
X3243872Y5607023D1*
X3240632Y5599403D1*
X3236225Y5591783D1*
X3230604Y5584163D1*
X3224407Y5576543D1*
X3300607Y5622263D2*
X3299429Y5614643D1*
X3297510Y5607023D1*
X3295269Y5599403D1*
X3292934Y5591783D1*
X3290133Y5584163D1*
X3286855Y5576543D1*
X3283269Y5568923D1*
X3279259Y5561303D1*
X3274167Y5553683D1*
X3266715Y5546063D1*
X3255719Y5538443D1*
X3241020Y5530823D1*
X3224407Y5523203D1*
X2043307Y5614643D2*
Y5607023D1*
X2043336Y5599403D1*
X2043634Y5591783D1*
X2044901Y5584163D1*
X2047968Y5576543D1*
X2052841Y5568923D1*
X2058547Y5561303D1*
X2089027Y5599403D2*
X2087790Y5591783D1*
X2085319Y5584163D1*
X2080971Y5576543D1*
X2074311Y5568923D1*
X2066167Y5561303D1*
X2073787Y5599403D2*
X2098663Y5591783D1*
X2118448Y5584163D1*
X2134747Y5576543D1*
X2129732Y5568923D1*
X2124350Y5561303D1*
X2117884Y5553683D1*
X2109835Y5546063D1*
X2099959Y5538443D1*
X2089027Y5530823D1*
X3102487Y5576543D2*
Y5568923D1*
Y5561303D1*
Y5553683D1*
Y5546063D1*
Y5538443D1*
Y5530823D1*
X2203327Y5538443D2*
X2199839Y5530823D1*
X2197941Y5523203D1*
X2197277Y5515583D1*
X2199921Y5507963D1*
X2203327Y5500343D1*
X2241427Y5538443D2*
X2254554Y5530823D1*
X2264826Y5523203D1*
X2268186Y5515583D1*
X2266782Y5507963D1*
X2264287Y5500343D1*
X5253729Y2403980D2*
D70*
X5250107Y2411224D1*
X5242779Y2418552D1*
X5235535Y2422174D1*
X5220963D1*
X5213635Y2418552D1*
X5206391Y2411224D1*
X5202685Y2403980D1*
X5199063Y2393030D1*
Y2374752D1*
X5202685Y2363886D1*
X5206391Y2356558D1*
X5213635Y2349314D1*
X5220963Y2345608D1*
X5235535D1*
X5242779Y2349314D1*
X5250107Y2356558D1*
X5253729Y2363886D1*
X5277259Y2407517D2*
X5284587Y2411224D1*
X5295537Y2422089D1*
Y2345608D1*
X2518680Y1755226D2*
X2515058Y1762470D1*
X2507730Y1769798D1*
X2500486Y1773420D1*
X2485914D1*
X2478586Y1769798D1*
X2471342Y1762470D1*
X2467636Y1755226D1*
X2464014Y1744276D1*
Y1725998D1*
X2467636Y1715132D1*
X2471342Y1707804D1*
X2478586Y1700560D1*
X2485914Y1696854D1*
X2500486D1*
X2507730Y1700560D1*
X2515058Y1707804D1*
X2518680Y1715132D1*
X2545915Y1755142D2*
Y1758764D1*
X2549537Y1766092D1*
X2553159Y1769714D1*
X2560487Y1773336D1*
X2575059D1*
X2582303Y1769714D1*
X2585925Y1766092D1*
X2589631Y1758764D1*
Y1751520D1*
X2585925Y1744192D1*
X2578681Y1733326D1*
X2542209Y1696854D1*
X2593253D1*
X2492031Y8196156D2*
Y8119591D1*
X2517553D1*
X2528503Y8123297D1*
X2535831Y8130541D1*
X2539453Y8137869D1*
X2543075Y8148735D1*
Y8167013D1*
X2539453Y8177963D1*
X2535831Y8185206D1*
X2528503Y8192535D1*
X2517553Y8196156D1*
X2492031D1*
X2566604Y8181500D2*
X2573932Y8185206D1*
X2584882Y8196072D1*
Y8119591D1*
X3958601Y8392083D2*
Y8315517D1*
X3984123D1*
X3995073Y8319224D1*
X4002401Y8326467D1*
X4006023Y8333795D1*
X4009645Y8344661D1*
Y8362939D1*
X4006023Y8373889D1*
X4002401Y8381133D1*
X3995073Y8388461D1*
X3984123Y8392083D1*
X3958601D1*
X4036881Y8373805D2*
Y8377427D1*
X4040503Y8384755D1*
X4044125Y8388377D1*
X4051453Y8391999D1*
X4066025D1*
X4073269Y8388377D1*
X4076890Y8384755D1*
X4080597Y8377427D1*
Y8370183D1*
X4076890Y8362855D1*
X4069647Y8351989D1*
X4033175Y8315517D1*
X4084219D1*
X3378591Y6913752D2*
Y6837186D1*
X3404113D1*
X3415063Y6840893D1*
X3422391Y6848136D1*
X3426013Y6855465D1*
X3429635Y6866330D1*
Y6884608D1*
X3426013Y6895558D1*
X3422391Y6902802D1*
X3415063Y6910130D1*
X3404113Y6913752D1*
X3378591D1*
X3460493Y6913668D2*
X3500502D1*
X3478687Y6884524D1*
X3489637D1*
X3496880Y6880902D1*
X3500502Y6877280D1*
X3504209Y6866330D1*
Y6859086D1*
X3500502Y6848136D1*
X3493259Y6840808D1*
X3482309Y6837186D1*
X3471359D1*
X3460493Y6840808D1*
X3456871Y6844515D1*
X3453165Y6851758D1*
X4259353Y5210865D2*
Y5152578D1*
X4255731Y5141628D1*
X4252025Y5138006D1*
X4244781Y5134300D1*
X4237453D1*
X4230209Y5138006D1*
X4226587Y5141628D1*
X4222881Y5152578D1*
Y5159821D1*
X4290210Y5210781D2*
X4330220D1*
X4308404Y5181637D1*
X4319354D1*
X4326598Y5178015D1*
X4330220Y5174393D1*
X4333926Y5163443D1*
Y5156200D1*
X4330220Y5145250D1*
X4322976Y5137921D1*
X4312026Y5134300D1*
X4301076D1*
X4290210Y5137921D1*
X4286588Y5141628D1*
X4282882Y5148871D1*
X1381772Y5185889D2*
Y5127601D1*
X1378150Y5116651D1*
X1374444Y5113029D1*
X1367200Y5109323D1*
X1359872D1*
X1352628Y5113029D1*
X1349006Y5116651D1*
X1345300Y5127601D1*
Y5134845D1*
X1441773Y5109323D2*
Y5185804D1*
X1405301Y5134845D1*
X1459967D1*
X2528781Y8819093D2*
X2561547D1*
X2572497Y8822800D1*
X2576203Y8826422D1*
X2579825Y8833665D1*
Y8840993D1*
X2576203Y8848237D1*
X2572497Y8851943D1*
X2561547Y8855565D1*
X2528781D1*
Y8779000D1*
X2554303Y8819093D2*
X2579825Y8779000D1*
X2603354Y8840909D2*
X2610682Y8844615D1*
X2621632Y8855481D1*
Y8779000D1*
X3627001Y8902800D2*
X3659767D1*
X3670717Y8906506D1*
X3674423Y8910128D1*
X3678045Y8917372D1*
Y8924700D1*
X3674423Y8931944D1*
X3670717Y8935650D1*
X3659767Y8939272D1*
X3627001D1*
Y8862706D1*
X3652523Y8902800D2*
X3678045Y8862706D1*
X3705281Y8920994D2*
Y8924616D1*
X3708903Y8931944D1*
X3712525Y8935566D1*
X3719853Y8939188D1*
X3734425D1*
X3741669Y8935566D1*
X3745290Y8931944D1*
X3748997Y8924616D1*
Y8917372D1*
X3745290Y8910044D1*
X3738047Y8899178D1*
X3701575Y8862706D1*
X3752619D1*
X1427667Y2861429D2*
X1460433D1*
X1471383Y2865135D1*
X1475089Y2868757D1*
X1478711Y2876001D1*
Y2883329D1*
X1475089Y2890573D1*
X1471383Y2894279D1*
X1460433Y2897901D1*
X1427667D1*
Y2821335D1*
X1453189Y2861429D2*
X1478711Y2821335D1*
X1538712D2*
Y2897816D1*
X1502240Y2846857D1*
X1556906D1*
X4931098Y4264852D2*
X4963864D1*
X4974814Y4268558D1*
X4978520Y4272180D1*
X4982142Y4279424D1*
Y4286752D1*
X4978520Y4293996D1*
X4974814Y4297702D1*
X4963864Y4301324D1*
X4931098D1*
Y4224758D1*
X4956620Y4264852D2*
X4982142Y4224758D1*
X5049387Y4290374D2*
X5045765Y4297618D1*
X5034815Y4301240D1*
X5027571D1*
X5016621Y4297618D1*
X5009293Y4286668D1*
X5005671Y4268474D1*
Y4250280D1*
X5009293Y4235708D1*
X5016621Y4228380D1*
X5027571Y4224758D1*
X5031193D1*
X5042059Y4228380D1*
X5049387Y4235708D1*
X5053009Y4246658D1*
Y4250280D1*
X5049387Y4261230D1*
X5042059Y4268474D1*
X5031193Y4272096D1*
X5027571D1*
X5016621Y4268474D1*
X5009293Y4261230D1*
X5005671Y4250280D1*
X1769138Y2170069D2*
X1801904D1*
X1812854Y2173775D1*
X1816560Y2177397D1*
X1820182Y2184641D1*
Y2191969D1*
X1816560Y2199212D1*
X1812854Y2202919D1*
X1801904Y2206541D1*
X1769138D1*
Y2129975D1*
X1794660Y2170069D2*
X1820182Y2129975D1*
X1858283D2*
X1894755Y2206456D1*
X1843711D1*
X1508000Y2556778D2*
X1540766D1*
X1551716Y2560484D1*
X1555422Y2564106D1*
X1559044Y2571350D1*
Y2578678D1*
X1555422Y2585922D1*
X1551716Y2589628D1*
X1540766Y2593250D1*
X1508000D1*
Y2516684D1*
X1533522Y2556778D2*
X1559044Y2516684D1*
X1600767Y2593166D2*
X1589902Y2589544D1*
X1586195Y2582300D1*
Y2574972D1*
X1589902Y2567728D1*
X1597145Y2564022D1*
X1611717Y2560400D1*
X1622667Y2556778D1*
X1629911Y2549450D1*
X1633533Y2542206D1*
Y2531256D1*
X1629911Y2524012D1*
X1626289Y2520306D1*
X1615339Y2516684D1*
X1600767D1*
X1589902Y2520306D1*
X1586195Y2524012D1*
X1582573Y2531256D1*
Y2542206D1*
X1586195Y2549450D1*
X1593523Y2556778D1*
X1604389Y2560400D1*
X1618961Y2564022D1*
X1626289Y2567728D1*
X1629911Y2574972D1*
Y2582300D1*
X1626289Y2589544D1*
X1615339Y2593166D1*
X1600767D1*
X1333119Y3170785D2*
X1365885D1*
X1376835Y3174491D1*
X1380541Y3178113D1*
X1384163Y3185357D1*
Y3192685D1*
X1380541Y3199929D1*
X1376835Y3203635D1*
X1365885Y3207257D1*
X1333119D1*
Y3130691D1*
X1358641Y3170785D2*
X1384163Y3130691D1*
X1455114Y3181735D2*
X1451408Y3170785D1*
X1444164Y3163457D1*
X1433214Y3159835D1*
X1429592D1*
X1418642Y3163457D1*
X1411398Y3170785D1*
X1407692Y3181735D1*
Y3185357D1*
X1411398Y3196307D1*
X1418642Y3203551D1*
X1429592Y3207172D1*
X1433214D1*
X1444164Y3203551D1*
X1451408Y3196307D1*
X1455114Y3181735D1*
Y3163457D1*
X1451408Y3145263D1*
X1444164Y3134313D1*
X1433214Y3130691D1*
X1425970D1*
X1415020Y3134313D1*
X1411398Y3141641D1*
X5206147Y4018021D2*
X5198903Y4025349D1*
X5187953Y4028971D1*
X5173381D1*
X5162431Y4025349D1*
X5155103Y4018021D1*
Y4010777D1*
X5158809Y4003449D1*
X5162431Y3999827D1*
X5169675Y3996206D1*
X5191575Y3988877D1*
X5198903Y3985256D1*
X5202525Y3981549D1*
X5206147Y3974306D1*
Y3963356D1*
X5198903Y3956112D1*
X5187953Y3952406D1*
X5173381D1*
X5162431Y3956112D1*
X5155103Y3963356D1*
X5229676Y4014315D2*
X5237004Y4018021D1*
X5247954Y4028887D1*
Y3952406D1*
X5105664Y3269957D2*
X5098420Y3277285D1*
X5087470Y3280907D1*
X5072898D1*
X5061948Y3277285D1*
X5054620Y3269957D1*
Y3262713D1*
X5058326Y3255385D1*
X5061948Y3251763D1*
X5069192Y3248141D1*
X5091092Y3240813D1*
X5098420Y3237191D1*
X5102042Y3233485D1*
X5105664Y3226241D1*
Y3215291D1*
X5098420Y3208047D1*
X5087470Y3204341D1*
X5072898D1*
X5061948Y3208047D1*
X5054620Y3215291D1*
X5132900Y3262629D2*
Y3266251D1*
X5136521Y3273579D1*
X5140143Y3277201D1*
X5147471Y3280823D1*
X5162043D1*
X5169287Y3277201D1*
X5172909Y3273579D1*
X5176615Y3266251D1*
Y3259007D1*
X5172909Y3251679D1*
X5165665Y3240813D1*
X5129193Y3204341D1*
X5180237D1*
X2181081Y5201662D2*
Y5146996D1*
X2184703Y5136046D1*
X2192031Y5128802D1*
X2202981Y5125096D1*
X2210225D1*
X2221175Y5128802D1*
X2228503Y5136046D1*
X2232125Y5146996D1*
Y5201662D1*
X2255654Y5187006D2*
X2262982Y5190712D1*
X2273932Y5201578D1*
Y5125096D1*
X5689108Y4523850D2*
X5721873D1*
X5732823Y4527556D1*
X5736530Y4531178D1*
X5740152Y4538422D1*
Y4545750D1*
X5736530Y4552993D1*
X5732823Y4556700D1*
X5721873Y4560322D1*
X5689108D1*
Y4483756D1*
X5714630Y4523850D2*
X5740152Y4483756D1*
X5763681Y4545665D2*
X5771009Y4549372D1*
X5781959Y4560237D1*
Y4483756D1*
X5809195Y4542043D2*
Y4545665D1*
X5812817Y4552993D1*
X5816438Y4556615D1*
X5823767Y4560237D1*
X5838338D1*
X5845582Y4556615D1*
X5849204Y4552993D1*
X5852910Y4545665D1*
Y4538422D1*
X5849204Y4531093D1*
X5841960Y4520228D1*
X5805488Y4483756D1*
X5856532D1*
X5422684Y4444170D2*
X5455450D1*
X5466400Y4447876D1*
X5470106Y4451498D1*
X5473728Y4458742D1*
Y4466070D1*
X5470106Y4473313D1*
X5466400Y4477020D1*
X5455450Y4480642D1*
X5422684D1*
Y4404076D1*
X5448206Y4444170D2*
X5473728Y4404076D1*
X5497258Y4465985D2*
X5504586Y4469692D1*
X5515536Y4480557D1*
Y4404076D1*
X5546393Y4480557D2*
X5586403D1*
X5564587Y4451413D1*
X5575537D1*
X5582781Y4447792D1*
X5586403Y4444170D1*
X5590109Y4433220D1*
Y4425976D1*
X5586403Y4415026D1*
X5579159Y4407698D1*
X5568209Y4404076D1*
X5557259D1*
X5546393Y4407698D1*
X5542771Y4411404D1*
X5539065Y4418648D1*
X5142840Y4342180D2*
X5175606D1*
X5186556Y4345886D1*
X5190262Y4349508D1*
X5193884Y4356752D1*
Y4364080D1*
X5190262Y4371323D1*
X5186556Y4375030D1*
X5175606Y4378652D1*
X5142840D1*
Y4302086D1*
X5168362Y4342180D2*
X5193884Y4302086D1*
X5217413Y4363995D2*
X5224741Y4367702D1*
X5235691Y4378567D1*
Y4302086D1*
X5295693D2*
Y4378567D1*
X5259221Y4327608D1*
X5313887D1*
X3757209Y1779951D2*
Y1725286D1*
X3760831Y1714336D1*
X3768159Y1707092D1*
X3779109Y1703386D1*
X3786353D1*
X3797303Y1707092D1*
X3804631Y1714336D1*
X3808253Y1725286D1*
Y1779951D1*
X3868254Y1703386D2*
Y1779867D1*
X3831782Y1728907D1*
X3886448D1*
X1691767Y6610385D2*
D71*
X1685730Y6622458D1*
X1673517Y6634672D1*
X1661444Y6640708D1*
X1637157D1*
X1624944Y6634672D1*
X1612871Y6622458D1*
X1606694Y6610385D1*
X1600657Y6592135D1*
Y6561672D1*
X1606694Y6543562D1*
X1612871Y6531349D1*
X1624944Y6519276D1*
X1637157Y6513099D1*
X1661444D1*
X1673517Y6519276D1*
X1685730Y6531349D1*
X1691767Y6543562D1*
X1761306Y6598172D2*
X1749233Y6592135D1*
X1737019Y6579922D1*
X1730983Y6561672D1*
Y6549599D1*
X1737019Y6531349D1*
X1749233Y6519276D1*
X1761306Y6513099D1*
X1779556D1*
X1791769Y6519276D1*
X1803842Y6531349D1*
X1810019Y6549599D1*
Y6561672D1*
X1803842Y6579922D1*
X1791769Y6592135D1*
X1779556Y6598172D1*
X1761306D1*
X1849235D2*
Y6513099D1*
Y6573885D2*
X1867485Y6592135D1*
X1879698Y6598172D1*
X1897808D1*
X1910021Y6592135D1*
X1916058Y6573885D1*
Y6513099D1*
Y6573885D2*
X1934308Y6592135D1*
X1946521Y6598172D1*
X1964631D1*
X1976844Y6592135D1*
X1983021Y6573885D1*
Y6513099D1*
X2022237Y6598172D2*
Y6470562D1*
Y6579922D2*
X2034450Y6591995D1*
X2046524Y6598172D1*
X2064774D1*
X2076987Y6591995D1*
X2089060Y6579922D1*
X2095237Y6561672D1*
Y6549458D1*
X2089060Y6531349D1*
X2076987Y6519135D1*
X2064774Y6513099D1*
X2046524D1*
X2034450Y6519135D1*
X2022237Y6531349D1*
X2134453Y6598172D2*
Y6537385D1*
X2140489Y6519276D1*
X2152703Y6513099D1*
X2170953D1*
X2183026Y6519276D1*
X2201276Y6537385D1*
Y6598172D2*
Y6513099D1*
X2258741Y6640708D2*
Y6537385D1*
X2264778Y6519276D1*
X2276991Y6513099D1*
X2289065D1*
X2240491Y6598172D2*
X2283028D1*
X2328280Y6561672D2*
X2401140D1*
Y6573885D1*
X2395103Y6586099D1*
X2389067Y6592135D1*
X2376853Y6598172D1*
X2358603D1*
X2346530Y6592135D1*
X2334317Y6579922D1*
X2328280Y6561672D1*
Y6549599D1*
X2334317Y6531349D1*
X2346530Y6519276D1*
X2358603Y6513099D1*
X2376853D1*
X2389067Y6519276D1*
X2401140Y6531349D1*
X2440356Y6598172D2*
Y6513099D1*
Y6561672D2*
X2446532Y6579922D1*
X2458606Y6592135D1*
X2470819Y6598172D1*
X2489069D1*
X2657768Y6525312D2*
X2651731Y6519135D1*
X2657768Y6513099D1*
X2663945Y6519135D1*
X2657768Y6525312D1*
X2911680Y6622458D2*
X2899607Y6634672D1*
X2881357Y6640708D1*
X2857070D1*
X2838820Y6634672D1*
X2826607Y6622458D1*
Y6610385D1*
X2832784Y6598172D1*
X2838820Y6592135D1*
X2850893Y6586099D1*
X2887393Y6573885D1*
X2899607Y6567849D1*
X2905643Y6561672D1*
X2911680Y6549599D1*
Y6531349D1*
X2899607Y6519276D1*
X2881357Y6513099D1*
X2857070D1*
X2838820Y6519276D1*
X2826607Y6531349D1*
X2981219Y6598172D2*
X2969145Y6592135D1*
X2956932Y6579922D1*
X2950895Y6561672D1*
Y6549599D1*
X2956932Y6531349D1*
X2969145Y6519276D1*
X2981219Y6513099D1*
X2999469D1*
X3011682Y6519276D1*
X3023755Y6531349D1*
X3029932Y6549599D1*
Y6561672D1*
X3023755Y6579922D1*
X3011682Y6592135D1*
X2999469Y6598172D1*
X2981219D1*
X3117721Y6640708D2*
X3105648D1*
X3093434Y6634672D1*
X3087398Y6616422D1*
Y6513099D1*
X3069148Y6598172D2*
X3111684D1*
X3175186Y6640708D2*
Y6537385D1*
X3181223Y6519276D1*
X3193436Y6513099D1*
X3205510D1*
X3156936Y6598172D2*
X3199473D1*
X3244725D2*
X3269012Y6513099D1*
X3293298Y6598172D1*
X3317585Y6513099D1*
X3341871Y6598172D1*
X3453947D2*
Y6513099D1*
Y6579922D2*
X3441874Y6592135D1*
X3429660Y6598172D1*
X3411551D1*
X3399337Y6592135D1*
X3387264Y6579922D1*
X3381087Y6561672D1*
Y6549599D1*
X3387264Y6531349D1*
X3399337Y6519276D1*
X3411551Y6513099D1*
X3429660D1*
X3441874Y6519276D1*
X3453947Y6531349D1*
X3493162Y6598172D2*
Y6513099D1*
Y6561672D2*
X3499339Y6579922D1*
X3511412Y6592135D1*
X3523626Y6598172D1*
X3541876D1*
X3581092Y6561672D2*
X3653951D1*
Y6573885D1*
X3647915Y6586099D1*
X3641878Y6592135D1*
X3629665Y6598172D1*
X3611415D1*
X3599342Y6592135D1*
X3587128Y6579922D1*
X3581092Y6561672D1*
Y6549599D1*
X3587128Y6531349D1*
X3599342Y6519276D1*
X3611415Y6513099D1*
X3629665D1*
X3641878Y6519276D1*
X3653951Y6531349D1*
X3822650Y6525312D2*
X3816613Y6519135D1*
X3822650Y6513099D1*
X3828827Y6519135D1*
X3822650Y6525312D1*
X4070385Y6640708D2*
X3991489D1*
Y6513099D1*
X4070385D1*
X3991489Y6579922D2*
X4040062D1*
X4109601Y6598172D2*
Y6513099D1*
Y6573885D2*
X4127851Y6592135D1*
X4140064Y6598172D1*
X4158174D1*
X4170387Y6592135D1*
X4176424Y6573885D1*
Y6513099D1*
Y6573885D2*
X4194674Y6592135D1*
X4206887Y6598172D1*
X4224997D1*
X4237210Y6592135D1*
X4243387Y6573885D1*
Y6513099D1*
X4282603Y6640708D2*
Y6513099D1*
Y6579922D2*
X4294816Y6592135D1*
X4306889Y6598172D1*
X4325139D1*
X4337213Y6592135D1*
X4349426Y6579922D1*
X4355463Y6561672D1*
Y6549599D1*
X4349426Y6531349D1*
X4337213Y6519276D1*
X4325139Y6513099D1*
X4306889D1*
X4294816Y6519276D1*
X4282603Y6531349D1*
X4394678Y6561672D2*
X4467538D1*
Y6573885D1*
X4461501Y6586099D1*
X4455465Y6592135D1*
X4443251Y6598172D1*
X4425001D1*
X4412928Y6592135D1*
X4400715Y6579922D1*
X4394678Y6561672D1*
Y6549599D1*
X4400715Y6531349D1*
X4412928Y6519276D1*
X4425001Y6513099D1*
X4443251D1*
X4455465Y6519276D1*
X4467538Y6531349D1*
X4579613Y6640708D2*
Y6513099D1*
Y6579922D2*
X4567540Y6592135D1*
X4555327Y6598172D1*
X4537077D1*
X4525004Y6592135D1*
X4512790Y6579922D1*
X4506754Y6561672D1*
Y6549599D1*
X4512790Y6531349D1*
X4525004Y6519276D1*
X4537077Y6513099D1*
X4555327D1*
X4567540Y6519276D1*
X4579613Y6531349D1*
X4691688Y6640708D2*
Y6513099D1*
Y6579922D2*
X4679615Y6592135D1*
X4667402Y6598172D1*
X4649152D1*
X4637079Y6592135D1*
X4624865Y6579922D1*
X4618829Y6561672D1*
Y6549599D1*
X4624865Y6531349D1*
X4637079Y6519276D1*
X4649152Y6513099D1*
X4667402D1*
X4679615Y6519276D1*
X4691688Y6531349D1*
X4730904Y6561672D2*
X4803764D1*
Y6573885D1*
X4797727Y6586099D1*
X4791691Y6592135D1*
X4779477Y6598172D1*
X4761227D1*
X4749154Y6592135D1*
X4736941Y6579922D1*
X4730904Y6561672D1*
Y6549599D1*
X4736941Y6531349D1*
X4749154Y6519276D1*
X4761227Y6513099D1*
X4779477D1*
X4791691Y6519276D1*
X4803764Y6531349D1*
X4915839Y6640708D2*
Y6513099D1*
Y6579922D2*
X4903766Y6592135D1*
X4891553Y6598172D1*
X4873303D1*
X4861229Y6592135D1*
X4849016Y6579922D1*
X4842979Y6561672D1*
Y6549599D1*
X4849016Y6531349D1*
X4861229Y6519276D1*
X4873303Y6513099D1*
X4891553D1*
X4903766Y6519276D1*
X4915839Y6531349D1*
X1533191Y9475291D2*
D72*
X1586537D1*
X1557449Y9436433D1*
X1572049D1*
X1581707Y9431603D1*
X1586537Y9426774D1*
X1591478Y9412174D1*
Y9402516D1*
X1586537Y9387916D1*
X1576878Y9378145D1*
X1562278Y9373316D1*
X1547678D1*
X1533191Y9378145D1*
X1528361Y9383086D1*
X1523420Y9392745D1*
X1627680Y9383086D2*
X1622851Y9378145D1*
X1627680Y9373316D1*
X1632622Y9378145D1*
X1627680Y9383086D1*
X1673765Y9475291D2*
X1727111D1*
X1698023Y9436433D1*
X1712623D1*
X1722282Y9431603D1*
X1727111Y9426774D1*
X1732053Y9412174D1*
Y9402516D1*
X1727111Y9387916D1*
X1717453Y9378145D1*
X1702853Y9373316D1*
X1688253D1*
X1673765Y9378145D1*
X1668936Y9383086D1*
X1663994Y9392745D1*
X1763425Y9475403D2*
X1802284Y9373316D1*
X1841142Y9475403D1*
X2481071Y2930143D2*
D73*
Y2777012D1*
X2583159Y2930143D2*
Y2777012D1*
X2481071Y2857199D2*
X2583159D1*
X2717649Y2879099D2*
Y2777012D1*
Y2857199D2*
X2703162Y2871856D1*
X2688506Y2879099D1*
X2666774D1*
X2652118Y2871856D1*
X2637630Y2857199D1*
X2630218Y2835299D1*
Y2820812D1*
X2637630Y2798912D1*
X2652118Y2784424D1*
X2666774Y2777012D1*
X2688506D1*
X2703162Y2784424D1*
X2717649Y2798912D1*
X2764708Y2879099D2*
Y2777012D1*
Y2849956D2*
X2786608Y2871856D1*
X2801264Y2879099D1*
X2822996D1*
X2837652Y2871856D1*
X2844896Y2849956D1*
Y2777012D1*
X2979386Y2930143D2*
Y2777012D1*
Y2857199D2*
X2964899Y2871856D1*
X2950242Y2879099D1*
X2928342D1*
X2913855Y2871856D1*
X2899199Y2857199D1*
X2891955Y2835299D1*
Y2820812D1*
X2899199Y2798912D1*
X2913855Y2784424D1*
X2928342Y2777012D1*
X2950242D1*
X2964899Y2784424D1*
X2979386Y2798912D1*
X3106633Y2857199D2*
X3099389Y2871856D1*
X3077489Y2879099D1*
X3055589D1*
X3033689Y2871856D1*
X3026445Y2857199D1*
X3033689Y2842712D1*
X3048345Y2835299D1*
X3084733Y2828056D1*
X3099389Y2820812D1*
X3106633Y2806156D1*
Y2798912D1*
X3099389Y2784424D1*
X3077489Y2777012D1*
X3055589D1*
X3033689Y2784424D1*
X3026445Y2798912D1*
X3153692Y2853493D2*
X3237922D1*
X3321369Y2879099D2*
X3306881Y2871856D1*
X3292225Y2857199D1*
X3284981Y2835299D1*
Y2820812D1*
X3292225Y2798912D1*
X3306881Y2784424D1*
X3321369Y2777012D1*
X3343269D1*
X3357925Y2784424D1*
X3372413Y2798912D1*
X3379825Y2820812D1*
Y2835299D1*
X3372413Y2857199D1*
X3357925Y2871856D1*
X3343269Y2879099D1*
X3321369D1*
X3426884D2*
Y2777012D1*
Y2849956D2*
X3448784Y2871856D1*
X3463440Y2879099D1*
X3485172D1*
X3499828Y2871856D1*
X3507072Y2849956D1*
Y2777012D1*
X3702266Y2930143D2*
Y2777012D1*
X3749325Y2835299D2*
X3836757D1*
Y2849956D1*
X3829513Y2864612D1*
X3822269Y2871856D1*
X3807613Y2879099D1*
X3785713D1*
X3771225Y2871856D1*
X3756569Y2857199D1*
X3749325Y2835299D1*
Y2820812D1*
X3756569Y2798912D1*
X3771225Y2784424D1*
X3785713Y2777012D1*
X3807613D1*
X3822269Y2784424D1*
X3836757Y2798912D1*
X3971247Y2879099D2*
Y2777012D1*
Y2857199D2*
X3956759Y2871856D1*
X3942103Y2879099D1*
X3920372D1*
X3905715Y2871856D1*
X3891228Y2857199D1*
X3883815Y2835299D1*
Y2820812D1*
X3891228Y2798912D1*
X3905715Y2784424D1*
X3920372Y2777012D1*
X3942103D1*
X3956759Y2784424D1*
X3971247Y2798912D1*
X4018306Y2879099D2*
Y2777012D1*
Y2835299D2*
X4025718Y2857199D1*
X4040206Y2871856D1*
X4054862Y2879099D1*
X4076762D1*
X4123821D2*
Y2777012D1*
Y2849956D2*
X4145721Y2871856D1*
X4160377Y2879099D1*
X4182108D1*
X4196765Y2871856D1*
X4204008Y2849956D1*
Y2777012D1*
X4251067Y2930143D2*
X4258311Y2922899D1*
X4265723Y2930143D1*
X4258311Y2937556D1*
X4251067Y2930143D1*
X4258311Y2879099D2*
Y2777012D1*
X4312782Y2879099D2*
Y2777012D1*
Y2849956D2*
X4334682Y2871856D1*
X4349338Y2879099D1*
X4371070D1*
X4385726Y2871856D1*
X4392970Y2849956D1*
Y2777012D1*
X4527460Y2871856D2*
Y2755112D1*
X4520216Y2733380D1*
X4512973Y2725968D1*
X4498316Y2718724D1*
X4476416D1*
X4461929Y2725968D1*
X4527460Y2849956D2*
X4512973Y2864443D1*
X4498316Y2871856D1*
X4476416D1*
X4461929Y2864443D1*
X4447273Y2849956D1*
X4440029Y2828056D1*
Y2813399D1*
X4447273Y2791668D1*
X4461929Y2777012D1*
X4476416Y2769768D1*
X4498316D1*
X4512973Y2777012D1*
X4527460Y2791668D1*
X4595034Y9687078D2*
D72*
X4590205Y9696737D1*
X4580434Y9706507D1*
X4570776Y9711337D1*
X4551346D1*
X4541576Y9706507D1*
X4531917Y9696737D1*
X4526976Y9687078D1*
X4522146Y9672478D1*
Y9648107D1*
X4526976Y9633620D1*
X4531917Y9623849D1*
X4541576Y9614190D1*
X4551346Y9609249D1*
X4570776D1*
X4580434Y9614190D1*
X4590205Y9623849D1*
X4595034Y9633620D1*
Y9648107D1*
X4570776D1*
X4694465Y9711337D2*
Y9609249D1*
X4626407Y9711337D1*
Y9609249D1*
X4725838Y9711337D2*
Y9609249D1*
X4759867D1*
X4774467Y9614190D1*
X4784238Y9623849D1*
X4789067Y9633620D1*
X4793896Y9648107D1*
Y9672478D1*
X4789067Y9687078D1*
X4784238Y9696737D1*
X4774467Y9706507D1*
X4759867Y9711337D1*
X4725838D1*
X3905499Y5693604D2*
D74*
X3889441Y5685153D1*
X3873197Y5668054D1*
X3865169Y5642504D1*
Y5625601D1*
X3873197Y5600051D1*
X3889441Y5583149D1*
X3905499Y5574501D1*
X3929771D1*
X3946015Y5583149D1*
X3962072Y5600051D1*
X3970287Y5625601D1*
Y5642504D1*
X3962072Y5668054D1*
X3946015Y5685153D1*
X3929771Y5693604D1*
X3905499D1*
X4022444Y5753155D2*
X4030473Y5744704D1*
X4038688Y5753155D1*
X4030473Y5761803D1*
X4022444Y5753155D1*
X4030473Y5693604D2*
Y5574501D1*
X4115118Y5753155D2*
Y5608503D1*
X4123146Y5583149D1*
X4139390Y5574501D1*
X4155447D1*
X4090845Y5693604D2*
X4147419D1*
X4215633Y5591600D2*
X4207604Y5582953D1*
X4215633Y5574501D1*
X4223848Y5582953D1*
X4215633Y5591600D1*
X4276005Y5642504D2*
X4372908D1*
Y5659603D1*
X4364880Y5676701D1*
X4356851Y5685153D1*
X4340607Y5693604D1*
X4316335D1*
X4300277Y5685153D1*
X4284033Y5668054D1*
X4276005Y5642504D1*
Y5625601D1*
X4284033Y5600051D1*
X4300277Y5583149D1*
X4316335Y5574501D1*
X4340607D1*
X4356851Y5583149D1*
X4372908Y5600051D1*
X4521968Y5753155D2*
Y5574501D1*
Y5668054D2*
X4505911Y5685153D1*
X4489667Y5693604D1*
X4465395D1*
X4449338Y5685153D1*
X4433094Y5668054D1*
X4425065Y5642504D1*
Y5625601D1*
X4433094Y5600051D1*
X4449338Y5583149D1*
X4465395Y5574501D1*
X4489667D1*
X4505911Y5583149D1*
X4521968Y5600051D1*
X4574125Y5693604D2*
Y5608503D1*
X4582154Y5583149D1*
X4598398Y5574501D1*
X4622670D1*
X4638727Y5583149D1*
X4663000Y5608503D1*
Y5693604D2*
Y5574501D1*
X4715157D2*
X4828304Y5752958D1*
X4977551Y5668054D2*
X4961307Y5685153D1*
X4945063Y5693604D1*
X4920977D1*
X4904733Y5685153D1*
X4888676Y5668054D1*
X4880461Y5642504D1*
Y5625601D1*
X4888676Y5600051D1*
X4904733Y5583149D1*
X4920977Y5574501D1*
X4945063D1*
X4961307Y5583149D1*
X4977551Y5600051D1*
X5118582Y5668054D2*
X5110554Y5685153D1*
X5086281Y5693604D1*
X5062009D1*
X5037736Y5685153D1*
X5029708Y5668054D1*
X5037736Y5651151D1*
X5053980Y5642504D1*
X5094310Y5634053D1*
X5110554Y5625601D1*
X5118582Y5608503D1*
Y5600051D1*
X5110554Y5583149D1*
X5086281Y5574501D1*
X5062009D1*
X5037736Y5583149D1*
X5029708Y5600051D1*
X5170739Y5642504D2*
X5267642D1*
Y5659603D1*
X5259614Y5676701D1*
X5251585Y5685153D1*
X5235341Y5693604D1*
X5211069D1*
X5195012Y5685153D1*
X5178768Y5668054D1*
X5170739Y5642504D1*
Y5625601D1*
X5178768Y5600051D1*
X5195012Y5583149D1*
X5211069Y5574501D1*
X5235341D1*
X5251585Y5583149D1*
X5267642Y5600051D1*
X5344072Y5753155D2*
Y5608503D1*
X5352100Y5583149D1*
X5368344Y5574501D1*
X5384402D1*
X5319799Y5693604D2*
X5376373D1*
X1649280Y4906682D2*
D72*
X1659051Y4911623D1*
X1673651Y4926111D1*
Y4824136D1*
X1734223Y4926111D2*
X1719623Y4921282D1*
X1709852Y4906682D1*
X1705023Y4882423D1*
Y4867823D1*
X1709852Y4843565D1*
X1719623Y4828965D1*
X1734223Y4824136D1*
X1743882D1*
X1758482Y4828965D1*
X1768140Y4843565D1*
X1773082Y4867823D1*
Y4882423D1*
X1768140Y4906682D1*
X1758482Y4921282D1*
X1743882Y4926111D1*
X1734223D1*
X1768140Y4906682D2*
X1709852Y4843565D1*
X1718569Y4626711D2*
X1713627Y4612111D1*
X1703969Y4602340D1*
X1689369Y4597511D1*
X1684540D1*
X1669940Y4602340D1*
X1660281Y4612111D1*
X1655340Y4626711D1*
Y4631540D1*
X1660281Y4646140D1*
X1669940Y4655798D1*
X1684540Y4660628D1*
X1689369D1*
X1703969Y4655798D1*
X1713627Y4646140D1*
X1718569Y4626711D1*
Y4602340D1*
X1713627Y4578081D1*
X1703969Y4563481D1*
X1689369Y4558652D1*
X1679711D1*
X1665111Y4563481D1*
X1660281Y4573252D1*
X1652298Y4409184D2*
Y4341238D1*
Y4316980D2*
X1647356Y4312038D1*
X1652298Y4307209D1*
X1657127Y4312038D1*
X1652298Y4316980D1*
X1688500Y4360667D2*
X1732187D1*
X1746787Y4365609D1*
X1751729Y4370438D1*
X1756558Y4380097D1*
Y4389867D1*
X1751729Y4399526D1*
X1746787Y4404467D1*
X1732187Y4409297D1*
X1688500D1*
Y4307209D1*
X1722529Y4360667D2*
X1756558Y4307209D1*
X1855989Y4394697D2*
X1846331Y4404467D1*
X1831731Y4409297D1*
X1812302D1*
X1797702Y4404467D1*
X1787931Y4394697D1*
Y4385038D1*
X1792872Y4375267D1*
X1797702Y4370438D1*
X1807360Y4365609D1*
X1836560Y4355838D1*
X1846331Y4351009D1*
X1851160Y4346067D1*
X1855989Y4336409D1*
Y4321809D1*
X1846331Y4312150D1*
X1831731Y4307209D1*
X1812302D1*
X1797702Y4312150D1*
X1787931Y4321809D1*
X1921391Y4409297D2*
Y4307209D1*
X1887362Y4409297D2*
X1955420D1*
X1667625Y4165728D2*
X1653137Y4160898D1*
X1648196Y4151240D1*
Y4141469D1*
X1653137Y4131811D1*
X1662796Y4126869D1*
X1682225Y4122040D1*
X1696825Y4117211D1*
X1706483Y4107440D1*
X1711313Y4097781D1*
Y4083181D1*
X1706483Y4073523D1*
X1701654Y4068581D1*
X1687054Y4063752D1*
X1667625D1*
X1653137Y4068581D1*
X1648196Y4073523D1*
X1643366Y4083181D1*
Y4097781D1*
X1648196Y4107440D1*
X1657966Y4117211D1*
X1672454Y4122040D1*
X1691883Y4126869D1*
X1701654Y4131811D1*
X1706483Y4141469D1*
Y4151240D1*
X1701654Y4160898D1*
X1687054Y4165728D1*
X1667625D1*
X1668606Y3794062D2*
X1717235Y3896038D1*
X1649176D1*
X1715444Y3638093D2*
X1710615Y3647752D1*
X1696015Y3652581D1*
X1686356D1*
X1671756Y3647752D1*
X1661986Y3633152D1*
X1657156Y3608893D1*
Y3584635D1*
X1661986Y3565206D1*
X1671756Y3555435D1*
X1686356Y3550606D1*
X1691186D1*
X1705673Y3555435D1*
X1715444Y3565206D1*
X1720273Y3579806D1*
Y3584635D1*
X1715444Y3599235D1*
X1705673Y3608893D1*
X1691186Y3613723D1*
X1686356D1*
X1671756Y3608893D1*
X1661986Y3599235D1*
X1657156Y3584635D1*
X3797666Y4933734D2*
X3783066Y4928905D1*
X3773296Y4914305D1*
X3768466Y4890047D1*
Y4875447D1*
X3773296Y4851188D1*
X3783066Y4836588D1*
X3797666Y4831759D1*
X3807325D1*
X3821925Y4836588D1*
X3831583Y4851188D1*
X3836525Y4875447D1*
Y4890047D1*
X3831583Y4914305D1*
X3821925Y4928905D1*
X3807325Y4933734D1*
X3797666D1*
X3831583Y4914305D2*
X3773296Y4851188D1*
X2187313Y6396653D2*
Y6294566D1*
X2221342D1*
X2235942Y6299507D1*
X2245713Y6309166D1*
X2250542Y6318936D1*
X2255372Y6333424D1*
Y6357795D1*
X2250542Y6372395D1*
X2245713Y6382053D1*
X2235942Y6391824D1*
X2221342Y6396653D1*
X2187313D1*
X2286744Y6333424D2*
X2345032D1*
Y6343195D1*
X2340203Y6352966D1*
X2335373Y6357795D1*
X2325603Y6362624D1*
X2311003D1*
X2301344Y6357795D1*
X2291573Y6348024D1*
X2286744Y6333424D1*
Y6323766D1*
X2291573Y6309166D1*
X2301344Y6299507D1*
X2311003Y6294566D1*
X2325603D1*
X2335373Y6299507D1*
X2345032Y6309166D1*
X2376404Y6362624D2*
Y6260536D1*
Y6348024D2*
X2386175Y6357683D1*
X2395834Y6362624D1*
X2410434D1*
X2420204Y6357683D1*
X2429863Y6348024D1*
X2434804Y6333424D1*
Y6323653D1*
X2429863Y6309166D1*
X2420204Y6299395D1*
X2410434Y6294566D1*
X2395834D1*
X2386175Y6299395D1*
X2376404Y6309166D1*
X2524465Y6362624D2*
Y6294566D1*
Y6348024D2*
X2514806Y6357795D1*
X2505035Y6362624D1*
X2490548D1*
X2480777Y6357795D1*
X2471118Y6348024D1*
X2466177Y6333424D1*
Y6323766D1*
X2471118Y6309166D1*
X2480777Y6299507D1*
X2490548Y6294566D1*
X2505035D1*
X2514806Y6299507D1*
X2524465Y6309166D1*
X2555837Y6362624D2*
Y6294566D1*
Y6333424D2*
X2560779Y6348024D1*
X2570437Y6357795D1*
X2580208Y6362624D1*
X2594808D1*
X2640780Y6396653D2*
Y6313995D1*
X2645610Y6299507D1*
X2655380Y6294566D1*
X2665039D1*
X2626180Y6362624D2*
X2660210D1*
X2696412D2*
Y6294566D1*
Y6343195D2*
X2711012Y6357795D1*
X2720782Y6362624D1*
X2735270D1*
X2745041Y6357795D1*
X2749870Y6343195D1*
Y6294566D1*
Y6343195D2*
X2764470Y6357795D1*
X2774241Y6362624D1*
X2788728D1*
X2798499Y6357795D1*
X2803441Y6343195D1*
Y6294566D1*
X2834813Y6333424D2*
X2893101D1*
Y6343195D1*
X2888272Y6352966D1*
X2883443Y6357795D1*
X2873672Y6362624D1*
X2859072D1*
X2849413Y6357795D1*
X2839643Y6348024D1*
X2834813Y6333424D1*
Y6323766D1*
X2839643Y6309166D1*
X2849413Y6299507D1*
X2859072Y6294566D1*
X2873672D1*
X2883443Y6299507D1*
X2893101Y6309166D1*
X2924474Y6362624D2*
Y6294566D1*
Y6343195D2*
X2939074Y6357795D1*
X2948844Y6362624D1*
X2963332D1*
X2973103Y6357795D1*
X2977932Y6343195D1*
Y6294566D1*
X3023905Y6396653D2*
Y6313995D1*
X3028734Y6299507D1*
X3038505Y6294566D1*
X3048163D1*
X3009305Y6362624D2*
X3043334D1*
X3202551D2*
X3192893Y6357795D1*
X3183122Y6348024D1*
X3178293Y6333424D1*
Y6323766D1*
X3183122Y6309166D1*
X3192893Y6299507D1*
X3202551Y6294566D1*
X3217151D1*
X3226922Y6299507D1*
X3236580Y6309166D1*
X3241522Y6323766D1*
Y6333424D1*
X3236580Y6348024D1*
X3226922Y6357795D1*
X3217151Y6362624D1*
X3202551D1*
X3311753Y6396653D2*
X3302094D1*
X3292324Y6391824D1*
X3287494Y6377224D1*
Y6294566D1*
X3272894Y6362624D2*
X3306924D1*
X3514770Y6372395D2*
X3509941Y6382053D1*
X3500170Y6391824D1*
X3490512Y6396653D1*
X3471083D1*
X3461312Y6391824D1*
X3451653Y6382053D1*
X3446712Y6372395D1*
X3441883Y6357795D1*
Y6333424D1*
X3446712Y6318936D1*
X3451653Y6309166D1*
X3461312Y6299507D1*
X3471083Y6294566D1*
X3490512D1*
X3500170Y6299507D1*
X3509941Y6309166D1*
X3514770Y6318936D1*
X3570401Y6362624D2*
X3560743Y6357795D1*
X3550972Y6348024D1*
X3546143Y6333424D1*
Y6323766D1*
X3550972Y6309166D1*
X3560743Y6299507D1*
X3570401Y6294566D1*
X3585001D1*
X3594772Y6299507D1*
X3604431Y6309166D1*
X3609372Y6323766D1*
Y6333424D1*
X3604431Y6348024D1*
X3594772Y6357795D1*
X3585001Y6362624D1*
X3570401D1*
X3640745D2*
Y6294566D1*
Y6343195D2*
X3655345Y6357795D1*
X3665115Y6362624D1*
X3679603D1*
X3689374Y6357795D1*
X3694203Y6343195D1*
Y6294566D1*
Y6343195D2*
X3708803Y6357795D1*
X3718574Y6362624D1*
X3733062D1*
X3742832Y6357795D1*
X3747774Y6343195D1*
Y6294566D1*
X3779146Y6362624D2*
Y6260536D1*
Y6348024D2*
X3788917Y6357683D1*
X3798576Y6362624D1*
X3813176D1*
X3822946Y6357683D1*
X3832605Y6348024D1*
X3837546Y6333424D1*
Y6323653D1*
X3832605Y6309166D1*
X3822946Y6299395D1*
X3813176Y6294566D1*
X3798576D1*
X3788917Y6299395D1*
X3779146Y6309166D1*
X3868919Y6362624D2*
Y6313995D1*
X3873748Y6299507D1*
X3883519Y6294566D1*
X3898119D1*
X3907777Y6299507D1*
X3922377Y6313995D1*
Y6362624D2*
Y6294566D1*
X3968350Y6396653D2*
Y6313995D1*
X3973179Y6299507D1*
X3982950Y6294566D1*
X3992608D1*
X3953750Y6362624D2*
X3987779D1*
X4023981Y6333424D2*
X4082269D1*
Y6343195D1*
X4077440Y6352966D1*
X4072610Y6357795D1*
X4062840Y6362624D1*
X4048240D1*
X4038581Y6357795D1*
X4028810Y6348024D1*
X4023981Y6333424D1*
Y6323766D1*
X4028810Y6309166D1*
X4038581Y6299507D1*
X4048240Y6294566D1*
X4062840D1*
X4072610Y6299507D1*
X4082269Y6309166D1*
X4113641Y6362624D2*
Y6294566D1*
Y6333424D2*
X4118583Y6348024D1*
X4128241Y6357795D1*
X4138012Y6362624D1*
X4152612D1*
X4350800Y6382053D2*
X4341142Y6391824D1*
X4326542Y6396653D1*
X4307113D1*
X4292513Y6391824D1*
X4282742Y6382053D1*
Y6372395D1*
X4287683Y6362624D1*
X4292513Y6357795D1*
X4302171Y6352966D1*
X4331371Y6343195D1*
X4341142Y6338366D1*
X4345971Y6333424D1*
X4350800Y6323766D1*
Y6309166D1*
X4341142Y6299507D1*
X4326542Y6294566D1*
X4307113D1*
X4292513Y6299507D1*
X4282742Y6309166D1*
X4387114Y6362624D2*
X4416202Y6294566D1*
X4406544Y6275136D1*
X4396773Y6265366D1*
X4387114Y6260536D1*
X4382173D1*
X4445402Y6362624D2*
X4416202Y6294566D1*
X4530233Y6348024D2*
X4525404Y6357795D1*
X4510804Y6362624D1*
X4496204D1*
X4481604Y6357795D1*
X4476775Y6348024D1*
X4481604Y6338366D1*
X4491375Y6333424D1*
X4515633Y6328595D1*
X4525404Y6323766D1*
X4530233Y6313995D1*
Y6309166D1*
X4525404Y6299507D1*
X4510804Y6294566D1*
X4496204D1*
X4481604Y6299507D1*
X4476775Y6309166D1*
X4576206Y6396653D2*
Y6313995D1*
X4581035Y6299507D1*
X4590806Y6294566D1*
X4600464D1*
X4561606Y6362624D2*
X4595635D1*
X4631837Y6333424D2*
X4690124D1*
Y6343195D1*
X4685295Y6352966D1*
X4680466Y6357795D1*
X4670695Y6362624D1*
X4656095D1*
X4646437Y6357795D1*
X4636666Y6348024D1*
X4631837Y6333424D1*
Y6323766D1*
X4636666Y6309166D1*
X4646437Y6299507D1*
X4656095Y6294566D1*
X4670695D1*
X4680466Y6299507D1*
X4690124Y6309166D1*
X4721497Y6362624D2*
Y6294566D1*
Y6343195D2*
X4736097Y6357795D1*
X4745868Y6362624D1*
X4760355D1*
X4770126Y6357795D1*
X4774955Y6343195D1*
Y6294566D1*
Y6343195D2*
X4789555Y6357795D1*
X4799326Y6362624D1*
X4813814D1*
X4823585Y6357795D1*
X4828526Y6343195D1*
Y6294566D1*
X4913357Y6348024D2*
X4908528Y6357795D1*
X4893928Y6362624D1*
X4879328D1*
X4864728Y6357795D1*
X4859899Y6348024D1*
X4864728Y6338366D1*
X4874499Y6333424D1*
X4898757Y6328595D1*
X4908528Y6323766D1*
X4913357Y6313995D1*
Y6309166D1*
X4908528Y6299507D1*
X4893928Y6294566D1*
X4879328D1*
X4864728Y6299507D1*
X4859899Y6309166D1*
X3780440Y4674835D2*
X3790211Y4679777D1*
X3804811Y4694264D1*
Y4592289D1*
X3777398Y4422556D2*
Y4427385D1*
X3782227Y4437156D1*
X3787056Y4441985D1*
X3796827Y4446814D1*
X3816256D1*
X3825915Y4441985D1*
X3830744Y4437156D1*
X3835686Y4427385D1*
Y4417727D1*
X3830744Y4407956D1*
X3821086Y4393468D1*
X3772456Y4344839D1*
X3840515D1*
X3786217Y4183401D2*
X3839563D1*
X3810476Y4144543D1*
X3825076D1*
X3834734Y4139713D1*
X3839563Y4134884D1*
X3844505Y4120284D1*
Y4110626D1*
X3839563Y4096026D1*
X3829905Y4086255D1*
X3815305Y4081426D1*
X3800705D1*
X3786217Y4086255D1*
X3781388Y4091196D1*
X3776446Y4100855D1*
X3825076Y3837966D2*
Y3939941D1*
X3776446Y3871995D1*
X3849334D1*
X3830744Y3656571D2*
X3782227D1*
X3777398Y3612883D1*
X3782227Y3617713D1*
X3796827Y3622654D1*
X3811315D1*
X3825915Y3617713D1*
X3835686Y3608054D1*
X3840515Y3593454D1*
Y3583796D1*
X3835686Y3569196D1*
X3825915Y3559425D1*
X3811315Y3554596D1*
X3796827D1*
X3782227Y3559425D1*
X3777398Y3564366D1*
X3772456Y3574025D1*
X3410720Y6171003D2*
X3347603D1*
Y6068916D1*
X3410720D1*
X3347603Y6122374D2*
X3386462D1*
X3442093Y6136974D2*
Y6068916D1*
Y6117545D2*
X3456693Y6132145D1*
X3466463Y6136974D1*
X3480951D1*
X3490722Y6132145D1*
X3495551Y6117545D1*
Y6068916D1*
X3585211Y6132145D2*
Y6054316D1*
X3580382Y6039828D1*
X3575553Y6034886D1*
X3565782Y6030057D1*
X3551182D1*
X3541524Y6034886D1*
X3585211Y6117545D2*
X3575553Y6127203D1*
X3565782Y6132145D1*
X3551182D1*
X3541524Y6127203D1*
X3531753Y6117545D1*
X3526924Y6102945D1*
Y6093174D1*
X3531753Y6078686D1*
X3541524Y6068916D1*
X3551182Y6064086D1*
X3565782D1*
X3575553Y6068916D1*
X3585211Y6078686D1*
X3616584Y6171003D2*
X3621413Y6166174D1*
X3626355Y6171003D1*
X3621413Y6175945D1*
X3616584Y6171003D1*
X3621413Y6136974D2*
Y6068916D1*
X3657727Y6136974D2*
Y6068916D1*
Y6117545D2*
X3672327Y6132145D1*
X3682098Y6136974D1*
X3696586D1*
X3706356Y6132145D1*
X3711186Y6117545D1*
Y6068916D1*
X3742558Y6107774D2*
X3800846D1*
Y6117545D1*
X3796017Y6127316D1*
X3791187Y6132145D1*
X3781417Y6136974D1*
X3766817D1*
X3757158Y6132145D1*
X3747387Y6122374D1*
X3742558Y6107774D1*
Y6098116D1*
X3747387Y6083516D1*
X3757158Y6073857D1*
X3766817Y6068916D1*
X3781417D1*
X3791187Y6073857D1*
X3800846Y6083516D1*
X3832218Y6107774D2*
X3890506D1*
Y6117545D1*
X3885677Y6127316D1*
X3880848Y6132145D1*
X3871077Y6136974D1*
X3856477D1*
X3846818Y6132145D1*
X3837048Y6122374D1*
X3832218Y6107774D1*
Y6098116D1*
X3837048Y6083516D1*
X3846818Y6073857D1*
X3856477Y6068916D1*
X3871077D1*
X3880848Y6073857D1*
X3890506Y6083516D1*
X3921879Y6136974D2*
Y6068916D1*
Y6107774D2*
X3926820Y6122374D1*
X3936479Y6132145D1*
X3946249Y6136974D1*
X3960849D1*
X3992222Y6171003D2*
X3997051Y6166174D1*
X4001993Y6171003D1*
X3997051Y6175945D1*
X3992222Y6171003D1*
X3997051Y6136974D2*
Y6068916D1*
X4033365Y6136974D2*
Y6068916D1*
Y6117545D2*
X4047965Y6132145D1*
X4057736Y6136974D1*
X4072224D1*
X4081995Y6132145D1*
X4086824Y6117545D1*
Y6068916D1*
X4176484Y6132145D2*
Y6054316D1*
X4171655Y6039828D1*
X4166826Y6034886D1*
X4157055Y6030057D1*
X4142455D1*
X4132796Y6034886D1*
X4176484Y6117545D2*
X4166826Y6127203D1*
X4157055Y6132145D1*
X4142455D1*
X4132796Y6127203D1*
X4123026Y6117545D1*
X4118196Y6102945D1*
Y6093174D1*
X4123026Y6078686D1*
X4132796Y6068916D1*
X4142455Y6064086D1*
X4157055D1*
X4166826Y6068916D1*
X4176484Y6078686D1*
X4320708Y6147408D2*
D70*
Y6070843D1*
X4295186Y6147408D2*
X4346230D1*
X4369759Y6099986D2*
X4413475D1*
Y6107314D1*
X4409853Y6114643D1*
X4406231Y6118264D1*
X4398903Y6121886D1*
X4387953D1*
X4380709Y6118264D1*
X4373381Y6110936D1*
X4369759Y6099986D1*
Y6092743D1*
X4373381Y6081793D1*
X4380709Y6074549D1*
X4387953Y6070843D1*
X4398903D1*
X4406231Y6074549D1*
X4413475Y6081793D1*
X4480804Y6110936D2*
X4473476Y6118264D1*
X4466148Y6121886D1*
X4455282D1*
X4447954Y6118264D1*
X4440710Y6110936D1*
X4437004Y6099986D1*
Y6092743D1*
X4440710Y6081793D1*
X4447954Y6074549D1*
X4455282Y6070843D1*
X4466148D1*
X4473476Y6074549D1*
X4480804Y6081793D1*
X4504334Y6147408D2*
Y6070843D1*
Y6107314D2*
X4515284Y6118264D1*
X4522612Y6121886D1*
X4533562D1*
X4540805Y6118264D1*
X4544427Y6107314D1*
Y6070843D1*
X4567957Y6121886D2*
Y6070843D1*
Y6107314D2*
X4578907Y6118264D1*
X4586235Y6121886D1*
X4597101D1*
X4604429Y6118264D1*
X4608051Y6107314D1*
Y6070843D1*
X4649774Y6121886D2*
X4642530Y6118264D1*
X4635202Y6110936D1*
X4631580Y6099986D1*
Y6092743D1*
X4635202Y6081793D1*
X4642530Y6074549D1*
X4649774Y6070843D1*
X4660724D1*
X4668052Y6074549D1*
X4675296Y6081793D1*
X4679002Y6092743D1*
Y6099986D1*
X4675296Y6110936D1*
X4668052Y6118264D1*
X4660724Y6121886D1*
X4649774D1*
X4702531Y6147408D2*
Y6070843D1*
X4744255Y6121886D2*
X4737011Y6118264D1*
X4729683Y6110936D1*
X4726061Y6099986D1*
Y6092743D1*
X4729683Y6081793D1*
X4737011Y6074549D1*
X4744255Y6070843D1*
X4755205D1*
X4762533Y6074549D1*
X4769777Y6081793D1*
X4773483Y6092743D1*
Y6099986D1*
X4769777Y6110936D1*
X4762533Y6118264D1*
X4755205Y6121886D1*
X4744255D1*
X4840728Y6118264D2*
Y6059893D1*
X4837106Y6049027D1*
X4833484Y6045321D1*
X4826156Y6041699D1*
X4815206D1*
X4807962Y6045321D1*
X4840728Y6107314D2*
X4833484Y6114558D1*
X4826156Y6118264D1*
X4815206D1*
X4807962Y6114558D1*
X4800634Y6107314D1*
X4797012Y6096364D1*
Y6089036D1*
X4800634Y6078171D1*
X4807962Y6070843D1*
X4815206Y6067221D1*
X4826156D1*
X4833484Y6070843D1*
X4840728Y6078171D1*
X4867963Y6121886D2*
X4889779Y6070843D1*
X4882535Y6056271D1*
X4875207Y6048943D1*
X4867963Y6045321D1*
X4864257D1*
X4911679Y6121886D2*
X4889779Y6070843D1*
X2806162Y2200667D2*
D73*
X2791675Y2215323D1*
X2769775Y2222567D1*
X2740631D1*
X2718731Y2215323D1*
X2704075Y2200667D1*
Y2186179D1*
X2711487Y2171523D1*
X2718731Y2164279D1*
X2733219Y2157035D1*
X2777019Y2142379D1*
X2791675Y2135135D1*
X2798919Y2127723D1*
X2806162Y2113235D1*
Y2091335D1*
X2791675Y2076847D1*
X2769775Y2069435D1*
X2740631D1*
X2718731Y2076847D1*
X2704075Y2091335D1*
X2853221Y2171523D2*
Y2069435D1*
Y2142379D2*
X2875121Y2164279D1*
X2889777Y2171523D1*
X2911509D1*
X2926165Y2164279D1*
X2933409Y2142379D1*
Y2069435D1*
Y2142379D2*
X2955309Y2164279D1*
X2969965Y2171523D1*
X2991697D1*
X3006353Y2164279D1*
X3013765Y2142379D1*
Y2069435D1*
X3148255Y2171523D2*
Y2069435D1*
Y2149623D2*
X3133768Y2164279D1*
X3119112Y2171523D1*
X3097380D1*
X3082724Y2164279D1*
X3068236Y2149623D1*
X3060824Y2127723D1*
Y2113235D1*
X3068236Y2091335D1*
X3082724Y2076847D1*
X3097380Y2069435D1*
X3119112D1*
X3133768Y2076847D1*
X3148255Y2091335D1*
X3195314Y2222567D2*
Y2069435D1*
X3242373Y2222567D2*
Y2069435D1*
X3525168Y2149623D2*
X3510511Y2164279D1*
X3495855Y2171523D1*
X3474124D1*
X3459468Y2164279D1*
X3444980Y2149623D1*
X3437568Y2127723D1*
Y2113235D1*
X3444980Y2091335D1*
X3459468Y2076847D1*
X3474124Y2069435D1*
X3495855D1*
X3510511Y2076847D1*
X3525168Y2091335D1*
X3572226Y2222567D2*
Y2069435D1*
X3706717Y2171523D2*
Y2069435D1*
Y2149623D2*
X3692229Y2164279D1*
X3677573Y2171523D1*
X3655841D1*
X3641185Y2164279D1*
X3626698Y2149623D1*
X3619285Y2127723D1*
Y2113235D1*
X3626698Y2091335D1*
X3641185Y2076847D1*
X3655841Y2069435D1*
X3677573D1*
X3692229Y2076847D1*
X3706717Y2091335D1*
X3833963Y2149623D2*
X3826720Y2164279D1*
X3804820Y2171523D1*
X3782920D1*
X3761020Y2164279D1*
X3753776Y2149623D1*
X3761020Y2135135D1*
X3775676Y2127723D1*
X3812063Y2120479D1*
X3826720Y2113235D1*
X3833963Y2098579D1*
Y2091335D1*
X3826720Y2076847D1*
X3804820Y2069435D1*
X3782920D1*
X3761020Y2076847D1*
X3753776Y2091335D1*
X3961210Y2149623D2*
X3953966Y2164279D1*
X3932066Y2171523D1*
X3910166D1*
X3888266Y2164279D1*
X3881022Y2149623D1*
X3888266Y2135135D1*
X3902922Y2127723D1*
X3939310Y2120479D1*
X3953966Y2113235D1*
X3961210Y2098579D1*
Y2091335D1*
X3953966Y2076847D1*
X3932066Y2069435D1*
X3910166D1*
X3888266Y2076847D1*
X3881022Y2091335D1*
X4236592Y2149623D2*
X4229348Y2164279D1*
X4207448Y2171523D1*
X4185548D1*
X4163648Y2164279D1*
X4156404Y2149623D1*
X4163648Y2135135D1*
X4178304Y2127723D1*
X4214692Y2120479D1*
X4229348Y2113235D1*
X4236592Y2098579D1*
Y2091335D1*
X4229348Y2076847D1*
X4207448Y2069435D1*
X4185548D1*
X4163648Y2076847D1*
X4156404Y2091335D1*
X4283651Y2222567D2*
X4290895Y2215323D1*
X4298307Y2222567D1*
X4290895Y2229979D1*
X4283651Y2222567D1*
X4290895Y2171523D2*
Y2069435D1*
X4345366Y2171523D2*
X4425554D1*
X4345366Y2069435D1*
X4425554D1*
X4472612Y2127723D2*
X4560044D1*
Y2142379D1*
X4552800Y2157035D1*
X4545556Y2164279D1*
X4530900Y2171523D1*
X4509000D1*
X4494512Y2164279D1*
X4479856Y2149623D1*
X4472612Y2127723D1*
Y2113235D1*
X4479856Y2091335D1*
X4494512Y2076847D1*
X4509000Y2069435D1*
X4530900D1*
X4545556Y2076847D1*
X4560044Y2091335D1*
X4687290Y2149623D2*
X4680047Y2164279D1*
X4658147Y2171523D1*
X4636247D1*
X4614347Y2164279D1*
X4607103Y2149623D1*
X4614347Y2135135D1*
X4629003Y2127723D1*
X4665390Y2120479D1*
X4680047Y2113235D1*
X4687290Y2098579D1*
Y2091335D1*
X4680047Y2076847D1*
X4658147Y2069435D1*
X4636247D1*
X4614347Y2076847D1*
X4607103Y2091335D1*
X4626000Y1584831D2*
D72*
X4655200Y1516772D1*
X4684287Y1584831D1*
X4773948Y1618748D2*
X4725431D1*
X4720602Y1575060D1*
X4725431Y1579889D1*
X4740031Y1584831D1*
X4754519D1*
X4769119Y1579889D1*
X4778889Y1570231D1*
X4783719Y1555631D1*
Y1545972D1*
X4778889Y1531372D1*
X4769119Y1521601D1*
X4754519Y1516772D1*
X4740031D1*
X4725431Y1521601D1*
X4720602Y1526543D1*
X4715660Y1536201D1*
X4819920Y1526543D2*
X4815091Y1521601D1*
X4819920Y1516772D1*
X4824862Y1521601D1*
X4819920Y1526543D1*
X4885434Y1618748D2*
X4870834Y1613918D1*
X4861064Y1599318D1*
X4856234Y1575060D1*
Y1560460D1*
X4861064Y1536201D1*
X4870834Y1521601D1*
X4885434Y1516772D1*
X4895093D1*
X4909693Y1521601D1*
X4919351Y1536201D1*
X4924293Y1560460D1*
Y1575060D1*
X4919351Y1599318D1*
X4909693Y1613918D1*
X4895093Y1618748D1*
X4885434D1*
X4919351Y1599318D2*
X4861064Y1536201D1*
X5014065Y1570231D2*
X5004295Y1580001D1*
X4994524Y1584831D1*
X4980036D1*
X4970265Y1580001D1*
X4960607Y1570231D1*
X4955665Y1555631D1*
Y1545972D1*
X4960607Y1531372D1*
X4970265Y1521714D1*
X4980036Y1516772D1*
X4994524D1*
X5004295Y1521714D1*
X5014065Y1531372D1*
X2806686Y3508862D2*
D73*
X2755642Y3561321D1*
X2806686Y3613779D1*
X2933874Y3656132D2*
Y3780760D1*
X2806686Y3823113D2*
X2755642Y3875572D1*
X2806686Y3928031D1*
X2908605Y4208775D2*
X2755474Y4156165D1*
X2908605Y4103706D1*
X2857561Y4123416D2*
Y4189065D1*
X2755474Y4297068D2*
X2908605D1*
X2755474Y4251128D2*
Y4343007D1*
X2755473Y4431300D2*
X2908605D1*
X2755473Y4385360D2*
Y4477239D1*
Y4519592D2*
X2908605D1*
X2755473Y4653824D2*
X2908605D1*
X2755473Y4561945D1*
X2908605D1*
X2755473Y4696177D2*
X2828417Y4748636D1*
X2908605D1*
X2755473Y4801095D2*
X2828417Y4748636D1*
X2755642Y4876197D2*
X2762886Y4856638D1*
X2777373Y4849967D1*
X2792030D1*
X2806517Y4856638D1*
X2813930Y4869677D1*
X2821173Y4895907D1*
X2828417Y4915617D1*
X2843073Y4928655D1*
X2857561Y4935175D1*
X2879461D1*
X2893949Y4928655D1*
X2901361Y4922136D1*
X2908605Y4902426D1*
Y4876197D1*
X2901361Y4856638D1*
X2893949Y4849967D1*
X2879461Y4843448D1*
X2857561D1*
X2843073Y4849967D1*
X2828417Y4863158D1*
X2821173Y4882716D1*
X2813930Y4908945D1*
X2806517Y4922136D1*
X2792030Y4928655D1*
X2777373D1*
X2762886Y4922136D1*
X2755642Y4902426D1*
Y4876197D1*
X2908605Y5043177D2*
X2755642D1*
X2857561Y4977528D1*
Y5075926D1*
X5092565Y3631310D2*
D72*
X5131424Y3665339D1*
X5170282Y3631310D1*
X5201655Y3546517D2*
X5293972D1*
X5325344Y3631310D2*
X5364203Y3665339D1*
X5403061Y3631310D1*
X4976413Y2860173D2*
X5015271Y2894202D1*
X5054130Y2860173D1*
X5085502Y2775381D2*
X5177819D1*
X5209192Y2860173D2*
X5248050Y2894202D1*
X5286909Y2860173D1*
M02*
