G04 DipTrace 3.0.0.2*
G04 TopSilk.gbr*
%MOMM*%
G04 #@! TF.FileFunction,Legend,Top*
G04 #@! TF.Part,Single*
%ADD10C,0.25*%
%ADD12C,0.076*%
%ADD33O,0.39124X0.39193*%
%ADD86C,0.15686*%
%ADD87C,0.31373*%
%ADD88C,0.23529*%
%ADD89C,0.27451*%
%ADD90C,0.39216*%
%ADD94C,0.11765*%
%FSLAX35Y35*%
G04*
G71*
G90*
G75*
G01*
G04 TopSilk*
%LPD*%
X5565390Y7273721D2*
D10*
Y6918426D1*
X5870190Y7273721D2*
Y6918426D1*
X5565390D2*
G03X5870190Y6918426I152400J-152D01*
G01*
Y7273721D2*
G03X5565390Y7273721I-152400J152D01*
G01*
X7195919Y7337587D2*
X7551214D1*
X7195919Y7642387D2*
X7551214D1*
Y7337587D2*
G03X7551214Y7642387I152J152400D01*
G01*
X7195919D2*
G03X7195919Y7337587I-152J-152400D01*
G01*
X7886913Y7486481D2*
Y7867165D1*
X7887485Y7485719D2*
G03X7887485Y7867927I253481J191104D01*
G01*
X3225940Y6665091D2*
Y7045775D1*
X3226512Y6664329D2*
G03X3226512Y7046537I253481J191104D01*
G01*
X4497040Y1838483D2*
Y1818423D1*
Y1548203D2*
Y1528143D1*
Y1838483D2*
G02X5042040Y1683313I250574J-154597D01*
G01*
X4497040Y1528143D2*
G03X5042040Y1683313I250574J154597D01*
G01*
X6435640Y4943070D2*
X6689640D1*
X6435640Y5451070D2*
Y4943070D1*
Y5451070D2*
X6689640D1*
Y4943070D1*
X9378850Y4927413D2*
X9632850D1*
X9378850Y5435413D2*
Y4927413D1*
Y5435413D2*
X9632850D1*
Y4927413D1*
X9676374Y4710857D2*
X9422370D1*
Y3186996D1*
X9676374D1*
Y4710857D1*
X6687051Y4717277D2*
X6433047D1*
Y3193416D1*
X6687051D1*
Y4717277D1*
X10598782Y6159748D2*
Y7379892D1*
Y6159748D2*
X9788763D1*
X9778703Y7379892D2*
X10598782D1*
X9348705Y6159748D2*
X9018661D1*
Y6539873D1*
Y7019862D2*
Y7379892D1*
X9358764D1*
X5842665Y6150403D2*
Y5643317D1*
X5683915Y5642850D2*
X5842665D1*
X5683915Y6150403D2*
Y5643317D1*
Y6150870D2*
X5842665D1*
X5444438Y6139453D2*
Y5632367D1*
X5285688Y5631900D2*
X5444438D1*
X5285688Y6139453D2*
Y5632367D1*
Y6139920D2*
X5444438D1*
X1873785Y4917331D2*
Y5424416D1*
X2032535Y5424883D2*
X1873785D1*
X2032535Y4917331D2*
Y5424416D1*
Y4916863D2*
X1873785D1*
X1893198Y3609834D2*
Y4116919D1*
X2051948Y4117387D2*
X1893198D1*
X2051948Y3609834D2*
Y4116919D1*
Y3609367D2*
X1893198D1*
X7642715Y6121763D2*
Y5614677D1*
X7483965Y5614210D2*
X7642715D1*
X7483965Y6121763D2*
Y5614677D1*
Y6122230D2*
X7642715D1*
X7922935Y5618504D2*
Y6125589D1*
X8081685Y6126057D2*
X7922935D1*
X8081685Y5618504D2*
Y6125589D1*
Y5618037D2*
X7922935D1*
X8363572Y5616911D2*
Y6123996D1*
X8522322Y6124463D2*
X8363572D1*
X8522322Y5616911D2*
Y6123996D1*
Y5616443D2*
X8363572D1*
X8973357Y7591030D2*
X8913517D1*
X8973357Y7841050D2*
X8913517D1*
X5905629Y1339805D2*
X5398544D1*
X5398077Y1498555D2*
Y1339805D1*
X5905629Y1498555D2*
X5398544D1*
X5906097D2*
Y1339805D1*
X5461176Y1069958D2*
X4954091D1*
X4953623Y1228708D2*
Y1069958D1*
X5461176Y1228708D2*
X4954091D1*
X5461643D2*
Y1069958D1*
X4108982Y1092613D2*
X3602133Y1109276D1*
X3606805Y1267952D2*
X3601666Y1109276D1*
X4114120Y1251271D2*
X3607272Y1267933D1*
X4114587Y1251271D2*
X4109449Y1092595D1*
X2096103Y3001900D2*
Y2525680D1*
Y2509780D2*
X2524743D1*
Y3001900D1*
X2096103D2*
X2524743D1*
X2127863Y2739970D2*
X2128308Y2752704D1*
X2129640Y2765376D1*
X2131853Y2777924D1*
X2134935Y2790288D1*
X2138873Y2802406D1*
X2143646Y2814220D1*
X2149232Y2825672D1*
X2155604Y2836707D1*
X2162729Y2847270D1*
X2170574Y2857311D1*
X2179101Y2866780D1*
X2188267Y2875631D1*
X2198028Y2883821D1*
X2208337Y2891311D1*
X2219143Y2898063D1*
X2230394Y2904045D1*
X2242035Y2909227D1*
X2254009Y2913585D1*
X2266258Y2917097D1*
X2278722Y2919747D1*
X2291341Y2921520D1*
X2304052Y2922409D1*
X2316795D1*
X2329506Y2921520D1*
X2342125Y2919747D1*
X2354589Y2917097D1*
X2366837Y2913585D1*
X2378812Y2909227D1*
X2390452Y2904045D1*
X2401703Y2898063D1*
X2412510Y2891311D1*
X2422818Y2883821D1*
X2432580Y2875631D1*
X2441746Y2866780D1*
X2450272Y2857311D1*
X2458117Y2847270D1*
X2465243Y2836707D1*
X2471614Y2825672D1*
X2477200Y2814220D1*
X2481974Y2802406D1*
X2485911Y2790288D1*
X2488994Y2777924D1*
X2491207Y2765376D1*
X2492539Y2752704D1*
X2492983Y2739970D1*
X2492539Y2727236D1*
X2491207Y2714564D1*
X2488994Y2702016D1*
X2485911Y2689652D1*
X2481974Y2677534D1*
X2477200Y2665720D1*
X2471614Y2654268D1*
X2465243Y2643233D1*
X2458117Y2632670D1*
X2450272Y2622629D1*
X2441746Y2613160D1*
X2432580Y2604309D1*
X2422818Y2596119D1*
X2412510Y2588629D1*
X2401703Y2581877D1*
X2390452Y2575895D1*
X2378812Y2570713D1*
X2366837Y2566355D1*
X2354589Y2562843D1*
X2342125Y2560193D1*
X2329506Y2558420D1*
X2316795Y2557531D1*
X2304052D1*
X2291341Y2558420D1*
X2278722Y2560193D1*
X2266258Y2562843D1*
X2254009Y2566355D1*
X2242035Y2570713D1*
X2230394Y2575895D1*
X2219143Y2581877D1*
X2208337Y2588629D1*
X2198028Y2596119D1*
X2188267Y2604309D1*
X2179101Y2613160D1*
X2170574Y2622629D1*
X2162729Y2632670D1*
X2155604Y2643233D1*
X2149232Y2654268D1*
X2143646Y2665720D1*
X2138873Y2677534D1*
X2134935Y2689652D1*
X2131853Y2702016D1*
X2129640Y2714564D1*
X2128308Y2727236D1*
X2127863Y2739970D1*
X1506787Y2180643D2*
Y1704423D1*
Y1688523D2*
X1935427D1*
Y2180643D1*
X1506787D2*
X1935427D1*
X1538547Y1918713D2*
X1538991Y1931447D1*
X1540323Y1944119D1*
X1542536Y1956668D1*
X1545619Y1969031D1*
X1549556Y1981149D1*
X1554330Y1992963D1*
X1559916Y2004415D1*
X1566287Y2015450D1*
X1573413Y2026014D1*
X1581258Y2036054D1*
X1589784Y2045523D1*
X1598950Y2054374D1*
X1608712Y2062565D1*
X1619020Y2070054D1*
X1629827Y2076806D1*
X1641078Y2082788D1*
X1652718Y2087971D1*
X1664693Y2092329D1*
X1676941Y2095841D1*
X1689405Y2098490D1*
X1702024Y2100263D1*
X1714735Y2101152D1*
X1727478D1*
X1740189Y2100263D1*
X1752808Y2098490D1*
X1765272Y2095841D1*
X1777521Y2092329D1*
X1789495Y2087971D1*
X1801136Y2082788D1*
X1812387Y2076806D1*
X1823193Y2070054D1*
X1833502Y2062565D1*
X1843263Y2054374D1*
X1852429Y2045523D1*
X1860956Y2036054D1*
X1868801Y2026014D1*
X1875926Y2015450D1*
X1882298Y2004415D1*
X1887884Y1992963D1*
X1892657Y1981149D1*
X1896595Y1969031D1*
X1899677Y1956668D1*
X1901890Y1944119D1*
X1903222Y1931447D1*
X1903667Y1918713D1*
X1903222Y1905979D1*
X1901890Y1893307D1*
X1899677Y1880759D1*
X1896595Y1868396D1*
X1892657Y1856278D1*
X1887884Y1844464D1*
X1882298Y1833011D1*
X1875926Y1821977D1*
X1868801Y1811413D1*
X1860956Y1801372D1*
X1852429Y1791903D1*
X1843263Y1783052D1*
X1833502Y1774862D1*
X1823193Y1767373D1*
X1812387Y1760620D1*
X1801136Y1754638D1*
X1789495Y1749456D1*
X1777521Y1745098D1*
X1765272Y1741586D1*
X1752808Y1738937D1*
X1740189Y1737163D1*
X1727478Y1736275D1*
X1714735D1*
X1702024Y1737163D1*
X1689405Y1738937D1*
X1676941Y1741586D1*
X1664693Y1745098D1*
X1652718Y1749456D1*
X1641078Y1754638D1*
X1629827Y1760620D1*
X1619020Y1767373D1*
X1608712Y1774862D1*
X1598950Y1783052D1*
X1589784Y1791903D1*
X1581258Y1801372D1*
X1573413Y1811413D1*
X1566287Y1821977D1*
X1559916Y1833011D1*
X1554330Y1844464D1*
X1549556Y1856278D1*
X1545619Y1868396D1*
X1542536Y1880759D1*
X1540323Y1893307D1*
X1538991Y1905979D1*
X1538547Y1918713D1*
X8399955Y5051760D2*
Y3091760D1*
X7879932D2*
X8399955D1*
X7879932Y5051760D2*
Y3091760D1*
Y5051760D2*
X8079934D1*
X8399955D2*
X8199953D1*
X8079934D2*
G03X8199953Y5051760I60010J34D01*
G01*
D33*
X6331227Y6434116D3*
X6328587Y6660811D2*
D10*
X6988555D1*
X6328587Y6940809D2*
X6988555D1*
Y6660811D2*
Y6940809D1*
X6328587Y6660811D2*
Y6940809D1*
X5865507Y2977330D2*
D12*
X8198707D1*
X5865507Y2969730D2*
X8198707D1*
X5865507Y2962130D2*
X8198707D1*
X5865507Y2954530D2*
X8198707D1*
X5865507Y2946930D2*
X8198707D1*
X5865507Y2939330D2*
X8198707D1*
X5865507Y2931730D2*
X8198707D1*
X5865507Y2924130D2*
X8198707D1*
X5865507Y2916530D2*
X8198707D1*
X5865507Y2908930D2*
X8198707D1*
X5865507Y2901330D2*
X8198707D1*
X5865507Y2893730D2*
X8198707D1*
X5865507Y2886130D2*
X8198707D1*
X5865507Y2878530D2*
X8198707D1*
X5865507Y2870930D2*
X8198707D1*
X5865507Y2863330D2*
X8198707D1*
X5865507Y2855730D2*
X8198707D1*
X5865507Y2848130D2*
X8198707D1*
X5865507Y2840530D2*
X8198707D1*
X5865507Y2832930D2*
X6157903D1*
X6201243D2*
X8198707D1*
X9163907D2*
X9262707D1*
X5865507Y2825330D2*
X6128488D1*
X6233218D2*
X8198707D1*
X8320307D2*
X8631907D1*
X8677507D2*
X8981507D1*
X9142894D2*
X9278498D1*
X9452707D2*
X9559107D1*
X9680707D2*
X9794707D1*
X5865507Y2817730D2*
X6105803D1*
X6256451D2*
X8198707D1*
X8320307D2*
X8631907D1*
X8677507D2*
X8981507D1*
X9125510D2*
X9292347D1*
X9452707D2*
X9559107D1*
X9680707D2*
X9794707D1*
X5865507Y2810130D2*
X6088783D1*
X6273136D2*
X8198707D1*
X8320307D2*
X8631907D1*
X8677507D2*
X8981507D1*
X9111334D2*
X9304124D1*
X9452707D2*
X9559107D1*
X9680707D2*
X9794707D1*
X5865507Y2802530D2*
X6075686D1*
X6285359D2*
X8198707D1*
X8320307D2*
X8631907D1*
X8677507D2*
X8981507D1*
X9099601D2*
X9314035D1*
X9452707D2*
X9559107D1*
X9680707D2*
X9794707D1*
X5865507Y2794930D2*
X6065294D1*
X6294789D2*
X8198707D1*
X8320307D2*
X8631907D1*
X8677507D2*
X8981507D1*
X9090012D2*
X9322708D1*
X9452707D2*
X9559107D1*
X9680707D2*
X9794707D1*
X5865507Y2787330D2*
X6056671D1*
X6303230D2*
X8198707D1*
X8320307D2*
X8631907D1*
X8677507D2*
X8981507D1*
X9082313D2*
X9330514D1*
X9452707D2*
X9559107D1*
X9680707D2*
X9794707D1*
X5865507Y2779730D2*
X6049501D1*
X6310971D2*
X8198707D1*
X8320307D2*
X8631907D1*
X8677507D2*
X8981507D1*
X9076106D2*
X9337304D1*
X9452707D2*
X9559107D1*
X9680707D2*
X9794707D1*
X5865507Y2772130D2*
X6043541D1*
X6317276D2*
X8198707D1*
X8320307D2*
X8631907D1*
X8677507D2*
X8981507D1*
X9070542D2*
X9342857D1*
X9452707D2*
X9559107D1*
X9680707D2*
X9794707D1*
X5865507Y2764530D2*
X6038109D1*
X6322178D2*
X8198707D1*
X8320307D2*
X8631907D1*
X8677507D2*
X8981507D1*
X9065198D2*
X9347297D1*
X9452707D2*
X9559107D1*
X9680707D2*
X9794707D1*
X5865507Y2756930D2*
X6033043D1*
X6326116D2*
X7289724D1*
X7317107D2*
D3*
X7330813D2*
X8198707D1*
X8320307D2*
X8631907D1*
X8677507D2*
X8981507D1*
X9060396D2*
X9350792D1*
X9452707D2*
X9559107D1*
X9680707D2*
X9794707D1*
X5865507Y2749330D2*
X6028956D1*
X6330005D2*
X7273501D1*
X7335258D2*
X8198707D1*
X8320307D2*
X8631907D1*
X8677507D2*
X8981507D1*
X9056294D2*
X9353891D1*
X9452707D2*
X9559107D1*
X9680707D2*
X9794707D1*
X5865507Y2741730D2*
X6025741D1*
X6169507D2*
X6192307D1*
X6334629D2*
X7261809D1*
X7337803D2*
X8198707D1*
X8320307D2*
X8631907D1*
X8677507D2*
X8981507D1*
X9052969D2*
X9357599D1*
X9452707D2*
X9559107D1*
X9680707D2*
X9794707D1*
X5865507Y2734130D2*
X6022784D1*
X6158688D2*
X6203385D1*
X6339209D2*
X7253857D1*
X7339037D2*
X8198707D1*
X8320307D2*
X8631907D1*
X8677507D2*
X8783907D1*
X9050190D2*
X9188519D1*
X9237209D2*
X9361770D1*
X9452707D2*
X9559107D1*
X9680707D2*
X9794707D1*
X5865507Y2726530D2*
X6020083D1*
X6149909D2*
X6212871D1*
X6342995D2*
X7248404D1*
X7339571D2*
X8198707D1*
X8419107D2*
X8533107D1*
X8677507D2*
X8783907D1*
X9047440D2*
X9177743D1*
X9247102D2*
X9365236D1*
X9452707D2*
X9559107D1*
X9680707D2*
X9794707D1*
X5865507Y2718930D2*
X6017565D1*
X6143323D2*
X6220340D1*
X6346287D2*
X7244790D1*
X7339784D2*
X8198707D1*
X8419107D2*
X8533107D1*
X8677507D2*
X8783907D1*
X9044799D2*
X9169451D1*
X9254311D2*
X9367594D1*
X9452707D2*
X9559107D1*
X9680707D2*
X9794707D1*
X5865507Y2711330D2*
X6014700D1*
X6138418D2*
X6225611D1*
X6348933D2*
X7242769D1*
X7339864D2*
X8198707D1*
X8419107D2*
X8533107D1*
X8677507D2*
X8783907D1*
X9042078D2*
X9166318D1*
X9259965D2*
X9369612D1*
X9452707D2*
X9559107D1*
X9680707D2*
X9794707D1*
X5865507Y2703730D2*
X6011434D1*
X6134763D2*
X6229344D1*
X6350800D2*
X7241793D1*
X7339892D2*
X8198707D1*
X8419107D2*
X8533107D1*
X8677507D2*
X8783907D1*
X9038524D2*
X9148707D1*
X9265147D2*
X9371896D1*
X9452707D2*
X9559107D1*
X9680707D2*
X9794707D1*
X5865507Y2696130D2*
X6008146D1*
X6131859D2*
X6232480D1*
X6352578D2*
X7156490D1*
X7165107D2*
X7241355D1*
X7339902D2*
X8198707D1*
X8419107D2*
X8533107D1*
X8677507D2*
X8783907D1*
X9034411D2*
X9147532D1*
X9270045D2*
X9374031D1*
X9452707D2*
X9559107D1*
X9680707D2*
X9794707D1*
X5865507Y2688530D2*
X6005438D1*
X6129064D2*
X6234991D1*
X6354759D2*
X6435507D1*
X6526707D2*
X6591668D1*
X6633107D2*
X6748311D1*
X6857234D2*
X7118186D1*
X7218307D2*
X7241107D1*
X7309507D2*
D3*
X7339907D2*
X7449005D1*
X7557609D2*
X7719907D1*
X7818707D2*
X7865800D1*
X7963366D2*
X8198707D1*
X8419107D2*
X8533107D1*
X8677507D2*
X8783907D1*
X9030996D2*
X9145648D1*
X9273801D2*
X9375428D1*
X9452707D2*
X9559107D1*
X9680707D2*
X9794707D1*
X5865507Y2680930D2*
X6003770D1*
X6126436D2*
X6236539D1*
X6356854D2*
X6435507D1*
X6526707D2*
X6577063D1*
X6633107D2*
X6735292D1*
X6872814D2*
X7090410D1*
X7298718D2*
X7431541D1*
X7575072D2*
X7712307D1*
X7818707D2*
X7853756D1*
X7971673D2*
X8198707D1*
X8419107D2*
X8533107D1*
X8677507D2*
X8783907D1*
X9028912D2*
X9143680D1*
X9276022D2*
X9376158D1*
X9452707D2*
X9559107D1*
X9680707D2*
X9794707D1*
X5865507Y2673330D2*
X6002896D1*
X6123977D2*
X6237326D1*
X6358236D2*
X6435507D1*
X6526707D2*
X6566370D1*
X6633107D2*
X6723325D1*
X6885358D2*
X7070922D1*
X7290206D2*
X7417058D1*
X7589555D2*
X7715815D1*
X7818707D2*
X7843610D1*
X7980097D2*
X8198707D1*
X8419107D2*
X8533107D1*
X8677507D2*
X8783907D1*
X9027836D2*
X9142349D1*
X9277150D2*
X9376519D1*
X9452707D2*
X9559107D1*
X9680707D2*
X9794707D1*
X5865507Y2665730D2*
X6002253D1*
X6121390D2*
X6237678D1*
X6358961D2*
X6435507D1*
X6526707D2*
X6557900D1*
X6633107D2*
X6712572D1*
X6896045D2*
X7056757D1*
X7283627D2*
X7405308D1*
X7601305D2*
X7717998D1*
X7818707D2*
X7834774D1*
X7987529D2*
X8198707D1*
X8419107D2*
X8533107D1*
X8677507D2*
X8783907D1*
X9027106D2*
X9141613D1*
X9277898D2*
X9376922D1*
X9452707D2*
X9559107D1*
X9680707D2*
X9794707D1*
X5865507Y2658130D2*
X6001131D1*
X6119097D2*
X6237852D1*
X6359290D2*
X6435507D1*
X6526707D2*
X6550937D1*
X6633107D2*
X6703379D1*
X6905302D2*
X7045940D1*
X7281612D2*
X7396283D1*
X7610330D2*
X7719102D1*
X7818707D2*
X7826621D1*
X7993270D2*
X8198707D1*
X8419107D2*
X8533107D1*
X8677507D2*
X8783907D1*
X9025951D2*
X9141023D1*
X9279060D2*
X9377949D1*
X9452707D2*
X9559107D1*
X9680707D2*
X9794707D1*
X5865507Y2650530D2*
X5999253D1*
X6117631D2*
X6238173D1*
X6359455D2*
X6435507D1*
X6526707D2*
X6545351D1*
X6633107D2*
X6695860D1*
X6913412D2*
X7037187D1*
X7280796D2*
X7389403D1*
X7617210D2*
X7719592D1*
X7818707D2*
D3*
X7997431D2*
X8198707D1*
X8419107D2*
X8533107D1*
X8677507D2*
X8783907D1*
X9024060D2*
X9139921D1*
X9280954D2*
X9379852D1*
X9452707D2*
X9559107D1*
X9680707D2*
X9794707D1*
X5865507Y2642930D2*
X5997283D1*
X6116872D2*
X6239162D1*
X6359775D2*
X6435507D1*
X6526707D2*
X6540910D1*
X6633107D2*
X6689945D1*
X6920125D2*
X7030227D1*
X7283650D2*
X7383567D1*
X7623047D2*
X7719790D1*
X8000583D2*
X8198707D1*
X8419107D2*
X8533107D1*
X8677507D2*
X8783907D1*
X9022086D2*
X9138050D1*
X9282948D2*
X9382121D1*
X9452707D2*
X9559107D1*
X9680707D2*
X9794707D1*
X5865507Y2635330D2*
X5995951D1*
X6116530D2*
X6240989D1*
X6360762D2*
X6435507D1*
X6526707D2*
X6537425D1*
X6633107D2*
X6685130D1*
X6925075D2*
X7025216D1*
X7142307D2*
X7180307D1*
X7287607D2*
X7378338D1*
X7628276D2*
X7719866D1*
X8003454D2*
X8198707D1*
X8419107D2*
X8533107D1*
X8677507D2*
X8783907D1*
X9020751D2*
X9136082D1*
X9284398D2*
X9384307D1*
X9452707D2*
X9559107D1*
X9680707D2*
X9794707D1*
X5865507Y2627730D2*
X5995243D1*
X6116390D2*
X6242940D1*
X6362589D2*
X6435507D1*
X6526707D2*
X6534383D1*
X6633107D2*
X6680912D1*
X6928929D2*
X7021598D1*
X7137624D2*
X7182905D1*
X7291800D2*
X7374190D1*
X7632423D2*
X7719893D1*
X8005856D2*
X8198707D1*
X8419107D2*
X8533107D1*
X8677507D2*
X8783907D1*
X9020044D2*
X9134750D1*
X9285507D2*
X9331107D1*
X9452707D2*
X9559107D1*
X9680707D2*
X9794707D1*
X5865507Y2620130D2*
X5994920D1*
X6116336D2*
X6244266D1*
X6364540D2*
X6435507D1*
X6526707D2*
X6530821D1*
X6633107D2*
X6677179D1*
X6785107D2*
X6830707D1*
X6932976D2*
X7018508D1*
X7133557D2*
X7185167D1*
X7295629D2*
X7370953D1*
X7491907D2*
X7514707D1*
X7635660D2*
X7719902D1*
X8007362D2*
X8198707D1*
X8419107D2*
X8533107D1*
X8677507D2*
X8783907D1*
X9019720D2*
X9134043D1*
X9452707D2*
X9559107D1*
X9680707D2*
X9794707D1*
X5865507Y2612530D2*
X5994787D1*
X6116317D2*
X6244971D1*
X6365866D2*
X6435507D1*
X6526707D2*
D3*
X6633107D2*
X6674008D1*
X6780424D2*
X6836564D1*
X6937317D2*
X7016013D1*
X7130485D2*
X7186607D1*
X7298597D2*
X7368017D1*
X7484626D2*
X7522013D1*
X7638626D2*
X7719905D1*
X7849107D2*
X7887107D1*
X8008135D2*
X8198707D1*
X8419107D2*
X8533107D1*
X8677507D2*
X8935907D1*
X9019587D2*
X9133720D1*
X9452707D2*
X9794707D1*
X5865507Y2604930D2*
X5994735D1*
X6116310D2*
X6245294D1*
X6366571D2*
X6435507D1*
X6633107D2*
X6671042D1*
X6776327D2*
X6842515D1*
X6941074D2*
X7014471D1*
X7128664D2*
X7187352D1*
X7300375D2*
X7365552D1*
X7478297D2*
X7527382D1*
X7641329D2*
X7719906D1*
X7841826D2*
X7890879D1*
X8008481D2*
X8198707D1*
X8419107D2*
X8533107D1*
X8677507D2*
X8935907D1*
X9019535D2*
X9133587D1*
X9452707D2*
X9794707D1*
X5865507Y2597330D2*
X5994716D1*
X6116308D2*
X6245427D1*
X6366894D2*
X6435507D1*
X6633107D2*
X6667386D1*
X6772988D2*
X6847555D1*
X6944153D2*
X7013686D1*
X7127759D2*
X7187687D1*
X7301263D2*
X7363764D1*
X7473754D2*
X7531680D1*
X7643818D2*
X7719907D1*
X7835497D2*
X7895026D1*
X8008623D2*
X8198707D1*
X8419107D2*
X8533107D1*
X8677507D2*
X8935907D1*
X9019516D2*
X9133535D1*
X9452707D2*
X9794707D1*
X5865507Y2589730D2*
X5994710D1*
X6116307D2*
X6245478D1*
X6367027D2*
X6435507D1*
X6610299D2*
X6663233D1*
X6770198D2*
X6850707D1*
X6947029D2*
X7013335D1*
X7127361D2*
X7187825D1*
X7301655D2*
X7361987D1*
X7470922D2*
X7535577D1*
X7646446D2*
X7719907D1*
X7830984D2*
X7898434D1*
X8008677D2*
X8198707D1*
X8419107D2*
X8533107D1*
X8677507D2*
X8935907D1*
X9019510D2*
X9133516D1*
X9452707D2*
X9794707D1*
X5865507Y2582130D2*
X5994708D1*
X6116307D2*
X6245497D1*
X6367078D2*
X6435507D1*
X6592114D2*
X6659804D1*
X6767473D2*
X6852318D1*
X6949443D2*
X7013191D1*
X7127201D2*
X7187878D1*
X7301814D2*
X7359551D1*
X7468713D2*
X7539119D1*
X7649011D2*
X7719907D1*
X7828418D2*
X7900510D1*
X8008696D2*
X8198707D1*
X8419107D2*
X8533107D1*
X8677507D2*
X8935907D1*
X9019508D2*
X9133510D1*
X9452707D2*
X9794707D1*
X5865507Y2574530D2*
X5994707D1*
X6116307D2*
X6245503D1*
X6367097D2*
X6435507D1*
X6578395D2*
X6657685D1*
X6765127D2*
X6853039D1*
X6950957D2*
X7013166D1*
X7127140D2*
X7187897D1*
X7301874D2*
X7356491D1*
X7466357D2*
X7541923D1*
X7651448D2*
X7719907D1*
X7827178D2*
X7901551D1*
X8008703D2*
X8198707D1*
X8419107D2*
X8533107D1*
X8677507D2*
X8935907D1*
X9019507D2*
X9133508D1*
X9452707D2*
X9794707D1*
X5865507Y2566930D2*
X5994707D1*
X6116307D2*
X6245506D1*
X6367103D2*
X6435507D1*
X6568503D2*
X6656369D1*
X6763641D2*
X6853333D1*
X6951732D2*
X7013414D1*
X7127148D2*
X7187903D1*
X7301895D2*
X7353291D1*
X7464195D2*
X7543625D1*
X7654027D2*
X7719907D1*
X7826643D2*
X7902012D1*
X8008706D2*
X8198707D1*
X8419107D2*
X8533107D1*
X8677507D2*
X8935907D1*
X9019507D2*
X9133507D1*
X9452707D2*
X9794707D1*
X5865507Y2559330D2*
X5994707D1*
X6116307D2*
X6245506D1*
X6367106D2*
X6435507D1*
X6561490D2*
X6654938D1*
X6762874D2*
X6853445D1*
X6952080D2*
X7014376D1*
X7127407D2*
X7187906D1*
X7301873D2*
X7350618D1*
X7462790D2*
X7544482D1*
X7656317D2*
X7719907D1*
X7826430D2*
X7902198D1*
X8008706D2*
X8198707D1*
X8419107D2*
X8533107D1*
X8677507D2*
X8935907D1*
X9019507D2*
X9133507D1*
X9452707D2*
X9794707D1*
X5865507Y2551730D2*
X5994707D1*
X6116307D2*
X6245507D1*
X6367106D2*
X6435507D1*
X6556214D2*
X6652931D1*
X6762516D2*
X6853486D1*
X6952222D2*
X7016223D1*
X7128403D2*
X7187877D1*
X7301579D2*
X7348963D1*
X7462057D2*
X7544862D1*
X7657783D2*
X7719907D1*
X7826350D2*
X7902268D1*
X8008707D2*
X8198707D1*
X8419107D2*
X8533107D1*
X8677507D2*
X8935907D1*
X9019507D2*
X9133507D1*
X9452707D2*
X9794707D1*
X5865507Y2544130D2*
X5994707D1*
X6116307D2*
X6245507D1*
X6367107D2*
X6435507D1*
X6551815D2*
X6650911D1*
X6762307D2*
X6853507D1*
X6952306D2*
X7018438D1*
X7130513D2*
X7187587D1*
X7300344D2*
X7348123D1*
X7461725D2*
X7545016D1*
X7658542D2*
X7719907D1*
X7826321D2*
X7902294D1*
X8008707D2*
X8198707D1*
X8419107D2*
X8533107D1*
X8677507D2*
X8935907D1*
X9019507D2*
X9133507D1*
X9452707D2*
X9794707D1*
X5865507Y2536530D2*
X5994707D1*
X6116307D2*
X6245507D1*
X6367107D2*
X6435507D1*
X6548045D2*
X6649560D1*
X6952593D2*
X7020762D1*
X7133655D2*
X7186413D1*
X7297526D2*
X7347749D1*
X7461588D2*
X7545075D1*
X7658883D2*
X7719907D1*
X7826312D2*
X7902302D1*
X8008707D2*
X8198707D1*
X8419107D2*
X8533107D1*
X8677507D2*
X8935907D1*
X9019507D2*
X9133507D1*
X9452707D2*
X9794707D1*
X5865507Y2528930D2*
X5994707D1*
X6116307D2*
X6245507D1*
X6367077D2*
X6435507D1*
X6545147D2*
X6648847D1*
X6953569D2*
X7023583D1*
X7137694D2*
X7183815D1*
X7293490D2*
X7347596D1*
X7461536D2*
X7545096D1*
X7659023D2*
X7719907D1*
X7826308D2*
X7902305D1*
X8008707D2*
X8198707D1*
X8419107D2*
X8533107D1*
X8677507D2*
X8935907D1*
X9019507D2*
X9133507D1*
X9452707D2*
X9794707D1*
X5865507Y2521330D2*
X5994707D1*
X6116307D2*
X6245477D1*
X6366810D2*
X6435507D1*
X6543408D2*
X6648521D1*
X6955391D2*
X7027120D1*
X7142307D2*
X7180307D1*
X7289218D2*
X7347538D1*
X7461517D2*
X7545103D1*
X7659077D2*
X7719907D1*
X7826307D2*
X7902306D1*
X8008707D2*
X8198707D1*
X8419107D2*
X8533107D1*
X8677507D2*
X8783907D1*
X9019507D2*
X9133507D1*
X9452707D2*
X9794707D1*
X5865507Y2513730D2*
X5994736D1*
X6116307D2*
X6245210D1*
X6365841D2*
X6435507D1*
X6542538D2*
X6648387D1*
X6957341D2*
X7031694D1*
X7285041D2*
X7347518D1*
X7461510D2*
X7545105D1*
X7659097D2*
X7719907D1*
X7826307D2*
X7902307D1*
X8008707D2*
X8198707D1*
X8419107D2*
X8533107D1*
X8677507D2*
X8783907D1*
X9019507D2*
X9133507D1*
X9452707D2*
X9559107D1*
X9680707D2*
X9794707D1*
X5865507Y2506130D2*
X5995004D1*
X6116307D2*
X6244241D1*
X6364021D2*
X6435507D1*
X6542154D2*
X6648335D1*
X6958666D2*
X7037722D1*
X7280532D2*
X7347510D1*
X7461508D2*
X7545106D1*
X7659103D2*
X7719907D1*
X7826307D2*
X7902307D1*
X8008707D2*
X8198707D1*
X8419107D2*
X8533107D1*
X8677507D2*
X8783907D1*
X9019536D2*
X9133536D1*
X9452707D2*
X9559107D1*
X9680707D2*
X9794707D1*
X5865507Y2498530D2*
X5995972D1*
X6116336D2*
X6242421D1*
X6362072D2*
X6435507D1*
X6541998D2*
X6648317D1*
X6959371D2*
X7045094D1*
X7274667D2*
X7347508D1*
X7461507D2*
X7545107D1*
X7659106D2*
X7719907D1*
X7826307D2*
X7902307D1*
X8008707D2*
X8198707D1*
X8419107D2*
X8533107D1*
X8677507D2*
X8783907D1*
X9019804D2*
X9133804D1*
X9452707D2*
X9559107D1*
X9680707D2*
X9794707D1*
X5865507Y2490930D2*
X5997792D1*
X6116604D2*
X6240472D1*
X6360747D2*
X6435507D1*
X6541939D2*
X6648310D1*
X6959694D2*
X7052857D1*
X7266597D2*
X7347507D1*
X7461507D2*
X7545107D1*
X7659106D2*
X7719907D1*
X7826307D2*
X7902307D1*
X8008707D2*
X8198707D1*
X8419107D2*
X8533107D1*
X8677507D2*
X8783907D1*
X9020772D2*
X9134772D1*
X9285507D2*
X9315907D1*
X9452707D2*
X9559107D1*
X9680707D2*
X9794707D1*
X5865507Y2483330D2*
X5999741D1*
X6117572D2*
X6239147D1*
X6360042D2*
X6435507D1*
X6541918D2*
X6648308D1*
X6959832D2*
X7059206D1*
X7256343D2*
X7347507D1*
X7461507D2*
X7545107D1*
X7659107D2*
X7719907D1*
X7826307D2*
X7902307D1*
X8008707D2*
X8198707D1*
X8419107D2*
X8533107D1*
X8677507D2*
X8783907D1*
X9022592D2*
X9136592D1*
X9282909D2*
X9384307D1*
X9452707D2*
X9559107D1*
X9680707D2*
X9794707D1*
X5865507Y2475730D2*
X6001066D1*
X6119422D2*
X6238442D1*
X6359720D2*
X6435507D1*
X6541910D2*
X6648307D1*
X6762307D2*
X7063324D1*
X7243556D2*
X7347507D1*
X7461507D2*
X7545107D1*
X7659107D2*
X7719907D1*
X7826307D2*
X7902307D1*
X8008707D2*
X8198707D1*
X8419107D2*
X8533107D1*
X8677507D2*
X8783907D1*
X9024541D2*
X9138541D1*
X9280646D2*
X9384017D1*
X9452707D2*
X9559107D1*
X9680707D2*
X9794707D1*
X5865507Y2468130D2*
X6001801D1*
X6121638D2*
X6238120D1*
X6359557D2*
X6435507D1*
X6541908D2*
X6648307D1*
X6762307D2*
X7043507D1*
X7227911D2*
X7347507D1*
X7461507D2*
X7545107D1*
X7659107D2*
X7719907D1*
X7826307D2*
X7902307D1*
X8008707D2*
X8198707D1*
X8419107D2*
X8533107D1*
X8677507D2*
X8783907D1*
X9025866D2*
X9139896D1*
X9279176D2*
X9383043D1*
X9452707D2*
X9559107D1*
X9680707D2*
X9794707D1*
X5865507Y2460530D2*
X6002390D1*
X6123932D2*
X6237957D1*
X6359238D2*
X6435507D1*
X6541907D2*
X6648336D1*
X6762307D2*
X7038530D1*
X7111907D2*
X7127107D1*
X7210707D2*
X7347536D1*
X7461507D2*
X7545107D1*
X7659107D2*
X7719907D1*
X7826307D2*
X7902307D1*
X8008707D2*
X8198707D1*
X8419107D2*
X8533107D1*
X8677507D2*
X8783907D1*
X9026601D2*
X9140868D1*
X9278135D2*
X9381221D1*
X9452707D2*
X9559107D1*
X9680707D2*
X9794707D1*
X5865507Y2452930D2*
X6003522D1*
X6126457D2*
X6237638D1*
X6358251D2*
X6435507D1*
X6541907D2*
X6648604D1*
X6762307D2*
X7032232D1*
X7105800D2*
X7347804D1*
X7461507D2*
X7545107D1*
X7659077D2*
X7719907D1*
X7826307D2*
X7902307D1*
X8008707D2*
X8198707D1*
X8419107D2*
X8533107D1*
X8677507D2*
X8783907D1*
X9027220D2*
X9142159D1*
X9276564D2*
X9379273D1*
X9452707D2*
X9559107D1*
X9680707D2*
X9794707D1*
X5865507Y2445330D2*
X6005661D1*
X6128757D2*
X6236621D1*
X6356424D2*
X6435507D1*
X6541907D2*
X6649572D1*
X6762307D2*
X7025858D1*
X7101385D2*
X7348772D1*
X7461536D2*
X7545107D1*
X7658810D2*
X7719907D1*
X7826307D2*
X7902307D1*
X8008707D2*
X8198707D1*
X8419107D2*
X8533107D1*
X8677507D2*
X8783907D1*
X9028589D2*
X9144142D1*
X9273637D2*
X9377917D1*
X9452707D2*
X9559107D1*
X9680707D2*
X9794707D1*
X5865507Y2437730D2*
X6008597D1*
X6130483D2*
X6234527D1*
X6354444D2*
X6435507D1*
X6541907D2*
X6651392D1*
X6762336D2*
X7020364D1*
X7098416D2*
X7350622D1*
X7461804D2*
X7545077D1*
X7657841D2*
X7719907D1*
X7826307D2*
X7902307D1*
X8008707D2*
X8198707D1*
X8419107D2*
X8533107D1*
X8677507D2*
X8783907D1*
X9031429D2*
X9146439D1*
X9269786D2*
X9376945D1*
X9452707D2*
X9559107D1*
X9680707D2*
X9794707D1*
X5865507Y2430130D2*
X6011778D1*
X6132238D2*
X6231578D1*
X6352850D2*
X6435507D1*
X6541907D2*
X6653371D1*
X6762604D2*
X6859932D1*
X6899107D2*
X7015698D1*
X7098450D2*
X7352838D1*
X7462772D2*
X7544810D1*
X7655991D2*
X7719907D1*
X7826307D2*
X7902307D1*
X8008707D2*
X8198707D1*
X8419107D2*
X8533107D1*
X8677507D2*
X8783907D1*
X9035246D2*
X9149049D1*
X9266196D2*
X9375654D1*
X9452707D2*
X9559107D1*
X9680707D2*
X9794707D1*
X5865507Y2422530D2*
X6014701D1*
X6134726D2*
X6228105D1*
X6351177D2*
X6435507D1*
X6541907D2*
X6654963D1*
X6763572D2*
X6858018D1*
X6952307D2*
X7011770D1*
X7101874D2*
X7355132D1*
X7464592D2*
X7543812D1*
X7653776D2*
X7719907D1*
X7826307D2*
X7902307D1*
X8008707D2*
X8198707D1*
X8419107D2*
X8533107D1*
X8677507D2*
X8783907D1*
X9038794D2*
X9152875D1*
X9262864D2*
X9373671D1*
X9452707D2*
X9559107D1*
X9680707D2*
X9794707D1*
X5865507Y2414930D2*
X6017318D1*
X6138376D2*
X6223919D1*
X6349004D2*
X6435507D1*
X6541907D2*
X6656666D1*
X6765422D2*
X6855783D1*
X6952277D2*
X7008797D1*
X7110096D2*
X7357657D1*
X7466541D2*
X7541724D1*
X7651482D2*
X7719907D1*
X7826307D2*
X7902307D1*
X8008707D2*
X8198707D1*
X8419107D2*
X8533107D1*
X8677507D2*
X8783907D1*
X9041795D2*
X9158523D1*
X9258460D2*
X9371374D1*
X9452707D2*
X9559107D1*
X9680707D2*
X9794707D1*
X5865507Y2407330D2*
X6020007D1*
X6144104D2*
X6218212D1*
X6346626D2*
X6435507D1*
X6541907D2*
X6659076D1*
X6767667D2*
X6853454D1*
X6952010D2*
X7007027D1*
X7119507D2*
X7359957D1*
X7467926D2*
X7538777D1*
X7648927D2*
X7719907D1*
X7826307D2*
X7902307D1*
X8008707D2*
X8198707D1*
X8419107D2*
X8533107D1*
X8677507D2*
X8783907D1*
X9044673D2*
X9166190D1*
X9251802D2*
X9368794D1*
X9452707D2*
X9559107D1*
X9680707D2*
X9794707D1*
X5865507Y2399730D2*
X6022596D1*
X6152915D2*
X6210461D1*
X6344013D2*
X6435507D1*
X6541907D2*
X6662127D1*
X6770288D2*
X6850571D1*
X6951041D2*
X7006145D1*
X7209924D2*
X7361683D1*
X7469224D2*
X7535305D1*
X7646389D2*
X7719907D1*
X7826307D2*
X7902307D1*
X8008707D2*
X8198707D1*
X8419107D2*
X8533107D1*
X8677507D2*
X8783907D1*
X9047374D2*
X9175886D1*
X9242713D2*
X9365265D1*
X9452707D2*
X9559107D1*
X9680707D2*
X9794707D1*
X5865507Y2392130D2*
X6025072D1*
X6164419D2*
X6201510D1*
X6340471D2*
X6435507D1*
X6541907D2*
X6665353D1*
X6774367D2*
X6846457D1*
X6949191D2*
X7005786D1*
X7246111D2*
X7363438D1*
X7471049D2*
X7531098D1*
X7643961D2*
X7719907D1*
X7826307D2*
X7902307D1*
X8008707D2*
X8198707D1*
X8419107D2*
X8533107D1*
X8677507D2*
X8981507D1*
X9050120D2*
X9186707D1*
X9232307D2*
X9360904D1*
X9452707D2*
X9559107D1*
X9680707D2*
X9794707D1*
X5865507Y2384530D2*
X6027952D1*
X6177107D2*
X6192307D1*
X6336077D2*
X6435507D1*
X6541907D2*
X6668322D1*
X6780891D2*
X6840982D1*
X6946946D2*
X7005925D1*
X7272358D2*
X7365866D1*
X7478069D2*
X7525211D1*
X7641355D2*
X7719907D1*
X7826307D2*
X7902307D1*
X8008707D2*
X8198707D1*
X8419107D2*
X8533107D1*
X8677507D2*
X8981507D1*
X9053714D2*
X9356498D1*
X9452707D2*
X9559107D1*
X9680707D2*
X9794707D1*
X5865507Y2376930D2*
X6031479D1*
X6331431D2*
X6435507D1*
X6541907D2*
X6671212D1*
X6789928D2*
X6829080D1*
X6944385D2*
X7007102D1*
X7290294D2*
X7368953D1*
X7488034D2*
X7516871D1*
X7638769D2*
X7719907D1*
X7826307D2*
X7902307D1*
X8008707D2*
X8198707D1*
X8419107D2*
X8533107D1*
X8677507D2*
X8981507D1*
X9058127D2*
X9352299D1*
X9452707D2*
X9559107D1*
X9680707D2*
X9794707D1*
X5865507Y2369330D2*
X6035764D1*
X6326531D2*
X6435507D1*
X6541907D2*
X6674871D1*
X6800307D2*
X6815507D1*
X6940861D2*
X7009928D1*
X7301898D2*
X7372449D1*
X7499507D2*
X7507107D1*
X7636038D2*
X7719907D1*
X7826307D2*
X7902307D1*
X8008707D2*
X8198707D1*
X8419107D2*
X8533107D1*
X8677507D2*
X8981507D1*
X9062779D2*
X9348039D1*
X9452707D2*
X9559107D1*
X9680707D2*
X9794707D1*
X5865507Y2361730D2*
X6040588D1*
X6321389D2*
X6435507D1*
X6541907D2*
X6679311D1*
X6936473D2*
X7014283D1*
X7309968D2*
X7376387D1*
X7632194D2*
X7719907D1*
X7826307D2*
X7902307D1*
X8008707D2*
X8198707D1*
X8419107D2*
X8533107D1*
X8677507D2*
X8981507D1*
X9067682D2*
X9343166D1*
X9452707D2*
X9559107D1*
X9680707D2*
X9794707D1*
X5865507Y2354130D2*
X6045499D1*
X6316150D2*
X6435507D1*
X6541907D2*
X6684003D1*
X6931801D2*
X7020083D1*
X7316367D2*
X7381098D1*
X7626848D2*
X7719907D1*
X7826307D2*
X7902307D1*
X8008707D2*
X8198707D1*
X8419107D2*
X8533107D1*
X8677507D2*
X8981507D1*
X9072824D2*
X9337240D1*
X9452707D2*
X9559107D1*
X9680707D2*
X9794707D1*
X5865507Y2346530D2*
X6051022D1*
X6310116D2*
X6435507D1*
X6541907D2*
X6689177D1*
X6926604D2*
X7028237D1*
X7321583D2*
X7386735D1*
X7620585D2*
X7719907D1*
X7826307D2*
X7902307D1*
X8008707D2*
X8198707D1*
X8419107D2*
X8533107D1*
X8677507D2*
X8981507D1*
X9078093D2*
X9330517D1*
X9452707D2*
X9559107D1*
X9680707D2*
X9794707D1*
X5865507Y2338930D2*
X6058165D1*
X6302835D2*
X6435507D1*
X6541907D2*
X6695318D1*
X6920256D2*
X7039037D1*
X7325808D2*
X7392797D1*
X7614139D2*
X7719907D1*
X7826307D2*
X7902307D1*
X8008707D2*
X8198707D1*
X8419107D2*
X8533107D1*
X8677507D2*
X8981507D1*
X9084394D2*
X9323501D1*
X9452707D2*
X9559107D1*
X9680707D2*
X9794707D1*
X5865507Y2331330D2*
X6067355D1*
X6294601D2*
X6435507D1*
X6541907D2*
X6702675D1*
X6912436D2*
X7051107D1*
X7328920D2*
X7399430D1*
X7607317D2*
X7719907D1*
X7826307D2*
X7902307D1*
X8008707D2*
X8198707D1*
X8419107D2*
X8533107D1*
X8677507D2*
X8981507D1*
X9092673D2*
X9316459D1*
X9452707D2*
X9559107D1*
X9680707D2*
X9794707D1*
X5865507Y2323730D2*
X6078674D1*
X6284761D2*
X6435507D1*
X6541907D2*
X6711983D1*
X6902979D2*
X7042072D1*
X7330749D2*
X7407893D1*
X7598802D2*
X7719907D1*
X7826307D2*
X7902307D1*
X8008707D2*
X8198707D1*
X8419107D2*
X8533107D1*
X8677507D2*
X8981507D1*
X9102995D2*
X9308503D1*
X9452707D2*
X9559107D1*
X9680707D2*
X9794707D1*
X5865507Y2316130D2*
X6092839D1*
X6271730D2*
X6435507D1*
X6541907D2*
X6724242D1*
X6891440D2*
X7031881D1*
X7111907D2*
X7127107D1*
X7331655D2*
X7419616D1*
X7587336D2*
X7719907D1*
X7826307D2*
X7902307D1*
X8008707D2*
X8198707D1*
X8419107D2*
X8533107D1*
X8677507D2*
X8981507D1*
X9115638D2*
X9297966D1*
X9452707D2*
X9559107D1*
X9680707D2*
X9794707D1*
X5865507Y2308530D2*
X6112074D1*
X6253512D2*
X6435507D1*
X6541907D2*
X6740421D1*
X6875981D2*
X7021460D1*
X7103426D2*
X7218307D1*
X7332053D2*
X7436834D1*
X7571280D2*
X7719907D1*
X7826307D2*
X7902307D1*
X8008707D2*
X8198707D1*
X8419107D2*
X8533107D1*
X8677507D2*
X8981507D1*
X9130715D2*
X9284710D1*
X9452707D2*
X9559107D1*
X9680707D2*
X9794707D1*
X5865507Y2300930D2*
X6138460D1*
X6228692D2*
X6435507D1*
X6541907D2*
X6761274D1*
X6855002D2*
X7012430D1*
X7096202D2*
X7225588D1*
X7332213D2*
X7461865D1*
X7548842D2*
X7719907D1*
X7826307D2*
X7902307D1*
X8008707D2*
X8198707D1*
X8419107D2*
X8533107D1*
X8677507D2*
X8981507D1*
X9147158D2*
X9270116D1*
X9452707D2*
X9559107D1*
X9680707D2*
X9794707D1*
X5865507Y2293330D2*
X6169507D1*
X6199907D2*
X6785107D1*
X6830707D2*
X7005044D1*
X7090204D2*
X7231917D1*
X7332274D2*
X7491907D1*
X7522307D2*
X8198707D1*
X9163907D2*
X9255107D1*
X5865507Y2285730D2*
X6999007D1*
X7085944D2*
X7236400D1*
X7332295D2*
X8198707D1*
X5865507Y2278130D2*
X6994742D1*
X7083545D2*
X7239396D1*
X7332303D2*
X8198707D1*
X5865507Y2270530D2*
X6992314D1*
X7082694D2*
X7239085D1*
X7332276D2*
X8198707D1*
X5865507Y2262930D2*
X6991137D1*
X7082859D2*
X7237742D1*
X7331980D2*
X8198707D1*
X5865507Y2255330D2*
X6990657D1*
X7086692D2*
X7232635D1*
X7330744D2*
X8198707D1*
X5865507Y2247730D2*
X6990721D1*
X7097014D2*
X7223953D1*
X7327926D2*
X8198707D1*
X5865507Y2240130D2*
X6991643D1*
X7111030D2*
X7210884D1*
X7323860D2*
X8198707D1*
X5865507Y2232530D2*
X6993733D1*
X7127107D2*
X7195507D1*
X7319350D2*
X8198707D1*
X5865507Y2224930D2*
X6996938D1*
X7314472D2*
X8198707D1*
X5865507Y2217330D2*
X7001375D1*
X7309082D2*
X8198707D1*
X5865507Y2209730D2*
X7007380D1*
X7302822D2*
X8198707D1*
X5865507Y2202130D2*
X7015090D1*
X7294406D2*
X8198707D1*
X5865507Y2194530D2*
X7024702D1*
X7282943D2*
X8198707D1*
X5865507Y2186930D2*
X7036616D1*
X7268479D2*
X8198707D1*
X5865507Y2179330D2*
X7051603D1*
X7251099D2*
X8198707D1*
X5865507Y2171730D2*
X7069646D1*
X7231403D2*
X8198707D1*
X5865507Y2164130D2*
X8198707D1*
X5865507Y2156530D2*
X8198707D1*
X5865507Y2148930D2*
X8198707D1*
X5865507Y2141330D2*
X8198707D1*
X5865507Y2133730D2*
X8198707D1*
X5865507Y2126130D2*
X8198707D1*
X5865507Y2977330D2*
Y2969730D1*
Y2962130D1*
Y2954530D1*
Y2946930D1*
Y2939330D1*
Y2931730D1*
Y2924130D1*
Y2916530D1*
Y2908930D1*
Y2901330D1*
Y2893730D1*
Y2886130D1*
Y2878530D1*
Y2870930D1*
Y2863330D1*
Y2855730D1*
Y2848130D1*
Y2840530D1*
Y2832930D1*
Y2825330D1*
Y2817730D1*
Y2810130D1*
Y2802530D1*
Y2794930D1*
Y2787330D1*
Y2779730D1*
Y2772130D1*
Y2764530D1*
Y2756930D1*
Y2749330D1*
Y2741730D1*
Y2734130D1*
Y2726530D1*
Y2718930D1*
Y2711330D1*
Y2703730D1*
Y2696130D1*
Y2688530D1*
Y2680930D1*
Y2673330D1*
Y2665730D1*
Y2658130D1*
Y2650530D1*
Y2642930D1*
Y2635330D1*
Y2627730D1*
Y2620130D1*
Y2612530D1*
Y2604930D1*
Y2597330D1*
Y2589730D1*
Y2582130D1*
Y2574530D1*
Y2566930D1*
Y2559330D1*
Y2551730D1*
Y2544130D1*
Y2536530D1*
Y2528930D1*
Y2521330D1*
Y2513730D1*
Y2506130D1*
Y2498530D1*
Y2490930D1*
Y2483330D1*
Y2475730D1*
Y2468130D1*
Y2460530D1*
Y2452930D1*
Y2445330D1*
Y2437730D1*
Y2430130D1*
Y2422530D1*
Y2414930D1*
Y2407330D1*
Y2399730D1*
Y2392130D1*
Y2384530D1*
Y2376930D1*
Y2369330D1*
Y2361730D1*
Y2354130D1*
Y2346530D1*
Y2338930D1*
Y2331330D1*
Y2323730D1*
Y2316130D1*
Y2308530D1*
Y2300930D1*
Y2293330D1*
Y2285730D1*
Y2278130D1*
Y2270530D1*
Y2262930D1*
Y2255330D1*
Y2247730D1*
Y2240130D1*
Y2232530D1*
Y2224930D1*
Y2217330D1*
Y2209730D1*
Y2202130D1*
Y2194530D1*
Y2186930D1*
Y2179330D1*
Y2171730D1*
Y2164130D1*
Y2156530D1*
Y2148930D1*
Y2141330D1*
Y2133730D1*
Y2126130D1*
X8198707Y2977330D2*
Y2969730D1*
Y2962130D1*
Y2954530D1*
Y2946930D1*
Y2939330D1*
Y2931730D1*
Y2924130D1*
Y2916530D1*
Y2908930D1*
Y2901330D1*
Y2893730D1*
Y2886130D1*
Y2878530D1*
Y2870930D1*
Y2863330D1*
Y2855730D1*
Y2848130D1*
Y2840530D1*
Y2832930D1*
Y2825330D1*
Y2817730D1*
Y2810130D1*
Y2802530D1*
Y2794930D1*
Y2787330D1*
Y2779730D1*
Y2772130D1*
Y2764530D1*
Y2756930D1*
Y2749330D1*
Y2741730D1*
Y2734130D1*
Y2726530D1*
Y2718930D1*
Y2711330D1*
Y2703730D1*
Y2696130D1*
Y2688530D1*
Y2680930D1*
Y2673330D1*
Y2665730D1*
Y2658130D1*
Y2650530D1*
Y2642930D1*
Y2635330D1*
Y2627730D1*
Y2620130D1*
Y2612530D1*
Y2604930D1*
Y2597330D1*
Y2589730D1*
Y2582130D1*
Y2574530D1*
Y2566930D1*
Y2559330D1*
Y2551730D1*
Y2544130D1*
Y2536530D1*
Y2528930D1*
Y2521330D1*
Y2513730D1*
Y2506130D1*
Y2498530D1*
Y2490930D1*
Y2483330D1*
Y2475730D1*
Y2468130D1*
Y2460530D1*
Y2452930D1*
Y2445330D1*
Y2437730D1*
Y2430130D1*
Y2422530D1*
Y2414930D1*
Y2407330D1*
Y2399730D1*
Y2392130D1*
Y2384530D1*
Y2376930D1*
Y2369330D1*
Y2361730D1*
Y2354130D1*
Y2346530D1*
Y2338930D1*
Y2331330D1*
Y2323730D1*
Y2316130D1*
Y2308530D1*
Y2300930D1*
Y2293330D1*
Y2285730D1*
Y2278130D1*
Y2270530D1*
Y2262930D1*
Y2255330D1*
Y2247730D1*
Y2240130D1*
Y2232530D1*
Y2224930D1*
Y2217330D1*
Y2209730D1*
Y2202130D1*
Y2194530D1*
Y2186930D1*
Y2179330D1*
Y2171730D1*
Y2164130D1*
Y2156530D1*
Y2148930D1*
Y2141330D1*
Y2133730D1*
Y2126130D1*
X6192307Y2840530D2*
X6157903Y2832930D1*
X6128488Y2825330D1*
X6105803Y2817730D1*
X6088783Y2810130D1*
X6075686Y2802530D1*
X6065294Y2794930D1*
X6056671Y2787330D1*
X6049501Y2779730D1*
X6043541Y2772130D1*
X6038109Y2764530D1*
X6033043Y2756930D1*
X6028956Y2749330D1*
X6025741Y2741730D1*
X6022784Y2734130D1*
X6020083Y2726530D1*
X6017565Y2718930D1*
X6014700Y2711330D1*
X6011434Y2703730D1*
X6008146Y2696130D1*
X6005438Y2688530D1*
X6003770Y2680930D1*
X6002896Y2673330D1*
X6002253Y2665730D1*
X6001131Y2658130D1*
X5999253Y2650530D1*
X5997283Y2642930D1*
X5995951Y2635330D1*
X5995243Y2627730D1*
X5994920Y2620130D1*
X5994787Y2612530D1*
X5994735Y2604930D1*
X5994716Y2597330D1*
X5994710Y2589730D1*
X5994708Y2582130D1*
X5994707Y2574530D1*
Y2566930D1*
Y2559330D1*
Y2551730D1*
Y2544130D1*
Y2536530D1*
Y2528930D1*
Y2521330D1*
X5994736Y2513730D1*
X5995004Y2506130D1*
X5995972Y2498530D1*
X5997792Y2490930D1*
X5999741Y2483330D1*
X6001066Y2475730D1*
X6001801Y2468130D1*
X6002390Y2460530D1*
X6003522Y2452930D1*
X6005661Y2445330D1*
X6008597Y2437730D1*
X6011778Y2430130D1*
X6014701Y2422530D1*
X6017318Y2414930D1*
X6020007Y2407330D1*
X6022596Y2399730D1*
X6025072Y2392130D1*
X6027952Y2384530D1*
X6031479Y2376930D1*
X6035764Y2369330D1*
X6040588Y2361730D1*
X6045499Y2354130D1*
X6051022Y2346530D1*
X6058165Y2338930D1*
X6067355Y2331330D1*
X6078674Y2323730D1*
X6092839Y2316130D1*
X6112074Y2308530D1*
X6138460Y2300930D1*
X6169507Y2293330D1*
X6161907Y2840530D2*
X6201243Y2832930D1*
X6233218Y2825330D1*
X6256451Y2817730D1*
X6273136Y2810130D1*
X6285359Y2802530D1*
X6294789Y2794930D1*
X6303230Y2787330D1*
X6310971Y2779730D1*
X6317276Y2772130D1*
X6322178Y2764530D1*
X6326116Y2756930D1*
X6330005Y2749330D1*
X6334629Y2741730D1*
X6339209Y2734130D1*
X6342995Y2726530D1*
X6346287Y2718930D1*
X6348933Y2711330D1*
X6350800Y2703730D1*
X6352578Y2696130D1*
X6354759Y2688530D1*
X6356854Y2680930D1*
X6358236Y2673330D1*
X6358961Y2665730D1*
X6359290Y2658130D1*
X6359455Y2650530D1*
X6359775Y2642930D1*
X6360762Y2635330D1*
X6362589Y2627730D1*
X6364540Y2620130D1*
X6365866Y2612530D1*
X6366571Y2604930D1*
X6366894Y2597330D1*
X6367027Y2589730D1*
X6367078Y2582130D1*
X6367097Y2574530D1*
X6367103Y2566930D1*
X6367106Y2559330D1*
Y2551730D1*
X6367107Y2544130D1*
Y2536530D1*
X6367077Y2528930D1*
X6366810Y2521330D1*
X6365841Y2513730D1*
X6364021Y2506130D1*
X6362072Y2498530D1*
X6360747Y2490930D1*
X6360042Y2483330D1*
X6359720Y2475730D1*
X6359557Y2468130D1*
X6359238Y2460530D1*
X6358251Y2452930D1*
X6356424Y2445330D1*
X6354444Y2437730D1*
X6352850Y2430130D1*
X6351177Y2422530D1*
X6349004Y2414930D1*
X6346626Y2407330D1*
X6344013Y2399730D1*
X6340471Y2392130D1*
X6336077Y2384530D1*
X6331431Y2376930D1*
X6326531Y2369330D1*
X6321389Y2361730D1*
X6316150Y2354130D1*
X6310116Y2346530D1*
X6302835Y2338930D1*
X6294601Y2331330D1*
X6284761Y2323730D1*
X6271730Y2316130D1*
X6253512Y2308530D1*
X6228692Y2300930D1*
X6199907Y2293330D1*
X9163907Y2832930D2*
X9142894Y2825330D1*
X9125510Y2817730D1*
X9111334Y2810130D1*
X9099601Y2802530D1*
X9090012Y2794930D1*
X9082313Y2787330D1*
X9076106Y2779730D1*
X9070542Y2772130D1*
X9065198Y2764530D1*
X9060396Y2756930D1*
X9056294Y2749330D1*
X9052969Y2741730D1*
X9050190Y2734130D1*
X9047440Y2726530D1*
X9044799Y2718930D1*
X9042078Y2711330D1*
X9038524Y2703730D1*
X9034411Y2696130D1*
X9030996Y2688530D1*
X9028912Y2680930D1*
X9027836Y2673330D1*
X9027106Y2665730D1*
X9025951Y2658130D1*
X9024060Y2650530D1*
X9022086Y2642930D1*
X9020751Y2635330D1*
X9020044Y2627730D1*
X9019720Y2620130D1*
X9019587Y2612530D1*
X9019535Y2604930D1*
X9019516Y2597330D1*
X9019510Y2589730D1*
X9019508Y2582130D1*
X9019507Y2574530D1*
Y2566930D1*
Y2559330D1*
Y2551730D1*
Y2544130D1*
Y2536530D1*
Y2528930D1*
Y2521330D1*
Y2513730D1*
X9019536Y2506130D1*
X9019804Y2498530D1*
X9020772Y2490930D1*
X9022592Y2483330D1*
X9024541Y2475730D1*
X9025866Y2468130D1*
X9026601Y2460530D1*
X9027220Y2452930D1*
X9028589Y2445330D1*
X9031429Y2437730D1*
X9035246Y2430130D1*
X9038794Y2422530D1*
X9041795Y2414930D1*
X9044673Y2407330D1*
X9047374Y2399730D1*
X9050120Y2392130D1*
X9053714Y2384530D1*
X9058127Y2376930D1*
X9062779Y2369330D1*
X9067682Y2361730D1*
X9072824Y2354130D1*
X9078093Y2346530D1*
X9084394Y2338930D1*
X9092673Y2331330D1*
X9102995Y2323730D1*
X9115638Y2316130D1*
X9130715Y2308530D1*
X9147158Y2300930D1*
X9163907Y2293330D1*
X9262707Y2832930D2*
X9278498Y2825330D1*
X9292347Y2817730D1*
X9304124Y2810130D1*
X9314035Y2802530D1*
X9322708Y2794930D1*
X9330514Y2787330D1*
X9337304Y2779730D1*
X9342857Y2772130D1*
X9347297Y2764530D1*
X9350792Y2756930D1*
X9353891Y2749330D1*
X9357599Y2741730D1*
X9361770Y2734130D1*
X9365236Y2726530D1*
X9367594Y2718930D1*
X9369612Y2711330D1*
X9371896Y2703730D1*
X9374031Y2696130D1*
X9375428Y2688530D1*
X9376158Y2680930D1*
X9376519Y2673330D1*
X9376922Y2665730D1*
X9377949Y2658130D1*
X9379852Y2650530D1*
X9382121Y2642930D1*
X9384307Y2635330D1*
X9331107Y2627730D1*
X8320307Y2825330D2*
Y2817730D1*
Y2810130D1*
Y2802530D1*
Y2794930D1*
Y2787330D1*
Y2779730D1*
Y2772130D1*
Y2764530D1*
Y2756930D1*
Y2749330D1*
Y2741730D1*
Y2734130D1*
X8631907Y2825330D2*
Y2817730D1*
Y2810130D1*
Y2802530D1*
Y2794930D1*
Y2787330D1*
Y2779730D1*
Y2772130D1*
Y2764530D1*
Y2756930D1*
Y2749330D1*
Y2741730D1*
Y2734130D1*
X8677507Y2825330D2*
Y2817730D1*
Y2810130D1*
Y2802530D1*
Y2794930D1*
Y2787330D1*
Y2779730D1*
Y2772130D1*
Y2764530D1*
Y2756930D1*
Y2749330D1*
Y2741730D1*
Y2734130D1*
Y2726530D1*
Y2718930D1*
Y2711330D1*
Y2703730D1*
Y2696130D1*
Y2688530D1*
Y2680930D1*
Y2673330D1*
Y2665730D1*
Y2658130D1*
Y2650530D1*
Y2642930D1*
Y2635330D1*
Y2627730D1*
Y2620130D1*
Y2612530D1*
Y2604930D1*
Y2597330D1*
Y2589730D1*
Y2582130D1*
Y2574530D1*
Y2566930D1*
Y2559330D1*
Y2551730D1*
Y2544130D1*
Y2536530D1*
Y2528930D1*
Y2521330D1*
Y2513730D1*
Y2506130D1*
Y2498530D1*
Y2490930D1*
Y2483330D1*
Y2475730D1*
Y2468130D1*
Y2460530D1*
Y2452930D1*
Y2445330D1*
Y2437730D1*
Y2430130D1*
Y2422530D1*
Y2414930D1*
Y2407330D1*
Y2399730D1*
Y2392130D1*
Y2384530D1*
Y2376930D1*
Y2369330D1*
Y2361730D1*
Y2354130D1*
Y2346530D1*
Y2338930D1*
Y2331330D1*
Y2323730D1*
Y2316130D1*
Y2308530D1*
Y2300930D1*
X8981507Y2825330D2*
Y2817730D1*
Y2810130D1*
Y2802530D1*
Y2794930D1*
Y2787330D1*
Y2779730D1*
Y2772130D1*
Y2764530D1*
Y2756930D1*
Y2749330D1*
Y2741730D1*
X9452707Y2825330D2*
Y2817730D1*
Y2810130D1*
Y2802530D1*
Y2794930D1*
Y2787330D1*
Y2779730D1*
Y2772130D1*
Y2764530D1*
Y2756930D1*
Y2749330D1*
Y2741730D1*
Y2734130D1*
Y2726530D1*
Y2718930D1*
Y2711330D1*
Y2703730D1*
Y2696130D1*
Y2688530D1*
Y2680930D1*
Y2673330D1*
Y2665730D1*
Y2658130D1*
Y2650530D1*
Y2642930D1*
Y2635330D1*
Y2627730D1*
Y2620130D1*
Y2612530D1*
Y2604930D1*
Y2597330D1*
Y2589730D1*
Y2582130D1*
Y2574530D1*
Y2566930D1*
Y2559330D1*
Y2551730D1*
Y2544130D1*
Y2536530D1*
Y2528930D1*
Y2521330D1*
Y2513730D1*
Y2506130D1*
Y2498530D1*
Y2490930D1*
Y2483330D1*
Y2475730D1*
Y2468130D1*
Y2460530D1*
Y2452930D1*
Y2445330D1*
Y2437730D1*
Y2430130D1*
Y2422530D1*
Y2414930D1*
Y2407330D1*
Y2399730D1*
Y2392130D1*
Y2384530D1*
Y2376930D1*
Y2369330D1*
Y2361730D1*
Y2354130D1*
Y2346530D1*
Y2338930D1*
Y2331330D1*
Y2323730D1*
Y2316130D1*
Y2308530D1*
Y2300930D1*
X9559107Y2825330D2*
Y2817730D1*
Y2810130D1*
Y2802530D1*
Y2794930D1*
Y2787330D1*
Y2779730D1*
Y2772130D1*
Y2764530D1*
Y2756930D1*
Y2749330D1*
Y2741730D1*
Y2734130D1*
Y2726530D1*
Y2718930D1*
Y2711330D1*
Y2703730D1*
Y2696130D1*
Y2688530D1*
Y2680930D1*
Y2673330D1*
Y2665730D1*
Y2658130D1*
Y2650530D1*
Y2642930D1*
Y2635330D1*
Y2627730D1*
Y2620130D1*
Y2612530D1*
X9680707Y2825330D2*
Y2817730D1*
Y2810130D1*
Y2802530D1*
Y2794930D1*
Y2787330D1*
Y2779730D1*
Y2772130D1*
Y2764530D1*
Y2756930D1*
Y2749330D1*
Y2741730D1*
Y2734130D1*
Y2726530D1*
Y2718930D1*
Y2711330D1*
Y2703730D1*
Y2696130D1*
Y2688530D1*
Y2680930D1*
Y2673330D1*
Y2665730D1*
Y2658130D1*
Y2650530D1*
Y2642930D1*
Y2635330D1*
Y2627730D1*
Y2620130D1*
Y2612530D1*
X9794707Y2825330D2*
Y2817730D1*
Y2810130D1*
Y2802530D1*
Y2794930D1*
Y2787330D1*
Y2779730D1*
Y2772130D1*
Y2764530D1*
Y2756930D1*
Y2749330D1*
Y2741730D1*
Y2734130D1*
Y2726530D1*
Y2718930D1*
Y2711330D1*
Y2703730D1*
Y2696130D1*
Y2688530D1*
Y2680930D1*
Y2673330D1*
Y2665730D1*
Y2658130D1*
Y2650530D1*
Y2642930D1*
Y2635330D1*
Y2627730D1*
Y2620130D1*
Y2612530D1*
Y2604930D1*
Y2597330D1*
Y2589730D1*
Y2582130D1*
Y2574530D1*
Y2566930D1*
Y2559330D1*
Y2551730D1*
Y2544130D1*
Y2536530D1*
Y2528930D1*
Y2521330D1*
Y2513730D1*
Y2506130D1*
Y2498530D1*
Y2490930D1*
Y2483330D1*
Y2475730D1*
Y2468130D1*
Y2460530D1*
Y2452930D1*
Y2445330D1*
Y2437730D1*
Y2430130D1*
Y2422530D1*
Y2414930D1*
Y2407330D1*
Y2399730D1*
Y2392130D1*
Y2384530D1*
Y2376930D1*
Y2369330D1*
Y2361730D1*
Y2354130D1*
Y2346530D1*
Y2338930D1*
Y2331330D1*
Y2323730D1*
Y2316130D1*
Y2308530D1*
Y2300930D1*
X7309507Y2764530D2*
X7289724Y2756930D1*
X7273501Y2749330D1*
X7261809Y2741730D1*
X7253857Y2734130D1*
X7248404Y2726530D1*
X7244790Y2718930D1*
X7242769Y2711330D1*
X7241793Y2703730D1*
X7241355Y2696130D1*
X7241107Y2688530D1*
X7309507Y2764530D2*
X7317107Y2756930D1*
X7324707Y2764530D2*
X7330813Y2756930D1*
X7335258Y2749330D1*
X7337803Y2741730D1*
X7339037Y2734130D1*
X7339571Y2726530D1*
X7339784Y2718930D1*
X7339864Y2711330D1*
X7339892Y2703730D1*
X7339902Y2696130D1*
X7339907Y2688530D1*
X6169507Y2741730D2*
X6158688Y2734130D1*
X6149909Y2726530D1*
X6143323Y2718930D1*
X6138418Y2711330D1*
X6134763Y2703730D1*
X6131859Y2696130D1*
X6129064Y2688530D1*
X6126436Y2680930D1*
X6123977Y2673330D1*
X6121390Y2665730D1*
X6119097Y2658130D1*
X6117631Y2650530D1*
X6116872Y2642930D1*
X6116530Y2635330D1*
X6116390Y2627730D1*
X6116336Y2620130D1*
X6116317Y2612530D1*
X6116310Y2604930D1*
X6116308Y2597330D1*
X6116307Y2589730D1*
Y2582130D1*
Y2574530D1*
Y2566930D1*
Y2559330D1*
Y2551730D1*
Y2544130D1*
Y2536530D1*
Y2528930D1*
Y2521330D1*
Y2513730D1*
Y2506130D1*
X6116336Y2498530D1*
X6116604Y2490930D1*
X6117572Y2483330D1*
X6119422Y2475730D1*
X6121638Y2468130D1*
X6123932Y2460530D1*
X6126457Y2452930D1*
X6128757Y2445330D1*
X6130483Y2437730D1*
X6132238Y2430130D1*
X6134726Y2422530D1*
X6138376Y2414930D1*
X6144104Y2407330D1*
X6152915Y2399730D1*
X6164419Y2392130D1*
X6177107Y2384530D1*
X6192307Y2741730D2*
X6203385Y2734130D1*
X6212871Y2726530D1*
X6220340Y2718930D1*
X6225611Y2711330D1*
X6229344Y2703730D1*
X6232480Y2696130D1*
X6234991Y2688530D1*
X6236539Y2680930D1*
X6237326Y2673330D1*
X6237678Y2665730D1*
X6237852Y2658130D1*
X6238173Y2650530D1*
X6239162Y2642930D1*
X6240989Y2635330D1*
X6242940Y2627730D1*
X6244266Y2620130D1*
X6244971Y2612530D1*
X6245294Y2604930D1*
X6245427Y2597330D1*
X6245478Y2589730D1*
X6245497Y2582130D1*
X6245503Y2574530D1*
X6245506Y2566930D1*
Y2559330D1*
X6245507Y2551730D1*
Y2544130D1*
Y2536530D1*
Y2528930D1*
X6245477Y2521330D1*
X6245210Y2513730D1*
X6244241Y2506130D1*
X6242421Y2498530D1*
X6240472Y2490930D1*
X6239147Y2483330D1*
X6238442Y2475730D1*
X6238120Y2468130D1*
X6237957Y2460530D1*
X6237638Y2452930D1*
X6236621Y2445330D1*
X6234527Y2437730D1*
X6231578Y2430130D1*
X6228105Y2422530D1*
X6223919Y2414930D1*
X6218212Y2407330D1*
X6210461Y2399730D1*
X6201510Y2392130D1*
X6192307Y2384530D1*
X8783907Y2741730D2*
Y2734130D1*
Y2726530D1*
Y2718930D1*
Y2711330D1*
Y2703730D1*
Y2696130D1*
Y2688530D1*
Y2680930D1*
Y2673330D1*
Y2665730D1*
Y2658130D1*
Y2650530D1*
Y2642930D1*
Y2635330D1*
Y2627730D1*
Y2620130D1*
Y2612530D1*
X9201907Y2741730D2*
X9188519Y2734130D1*
X9177743Y2726530D1*
X9169451Y2718930D1*
X9166318Y2711330D1*
X9163907Y2703730D1*
X9148707D1*
X9147532Y2696130D1*
X9145648Y2688530D1*
X9143680Y2680930D1*
X9142349Y2673330D1*
X9141613Y2665730D1*
X9141023Y2658130D1*
X9139921Y2650530D1*
X9138050Y2642930D1*
X9136082Y2635330D1*
X9134750Y2627730D1*
X9134043Y2620130D1*
X9133720Y2612530D1*
X9133587Y2604930D1*
X9133535Y2597330D1*
X9133516Y2589730D1*
X9133510Y2582130D1*
X9133508Y2574530D1*
X9133507Y2566930D1*
Y2559330D1*
Y2551730D1*
Y2544130D1*
Y2536530D1*
Y2528930D1*
Y2521330D1*
Y2513730D1*
X9133536Y2506130D1*
X9133804Y2498530D1*
X9134772Y2490930D1*
X9136592Y2483330D1*
X9138541Y2475730D1*
X9139896Y2468130D1*
X9140868Y2460530D1*
X9142159Y2452930D1*
X9144142Y2445330D1*
X9146439Y2437730D1*
X9149049Y2430130D1*
X9152875Y2422530D1*
X9158523Y2414930D1*
X9166190Y2407330D1*
X9175886Y2399730D1*
X9186707Y2392130D1*
X9224707Y2741730D2*
X9237209Y2734130D1*
X9247102Y2726530D1*
X9254311Y2718930D1*
X9259965Y2711330D1*
X9265147Y2703730D1*
X9270045Y2696130D1*
X9273801Y2688530D1*
X9276022Y2680930D1*
X9277150Y2673330D1*
X9277898Y2665730D1*
X9279060Y2658130D1*
X9280954Y2650530D1*
X9282948Y2642930D1*
X9284398Y2635330D1*
X9285507Y2627730D1*
X8419107Y2734130D2*
Y2726530D1*
Y2718930D1*
Y2711330D1*
Y2703730D1*
Y2696130D1*
Y2688530D1*
Y2680930D1*
Y2673330D1*
Y2665730D1*
Y2658130D1*
Y2650530D1*
Y2642930D1*
Y2635330D1*
Y2627730D1*
Y2620130D1*
Y2612530D1*
Y2604930D1*
Y2597330D1*
Y2589730D1*
Y2582130D1*
Y2574530D1*
Y2566930D1*
Y2559330D1*
Y2551730D1*
Y2544130D1*
Y2536530D1*
Y2528930D1*
Y2521330D1*
Y2513730D1*
Y2506130D1*
Y2498530D1*
Y2490930D1*
Y2483330D1*
Y2475730D1*
Y2468130D1*
Y2460530D1*
Y2452930D1*
Y2445330D1*
Y2437730D1*
Y2430130D1*
Y2422530D1*
Y2414930D1*
Y2407330D1*
Y2399730D1*
Y2392130D1*
Y2384530D1*
Y2376930D1*
Y2369330D1*
Y2361730D1*
Y2354130D1*
Y2346530D1*
Y2338930D1*
Y2331330D1*
Y2323730D1*
Y2316130D1*
Y2308530D1*
Y2300930D1*
X8533107Y2734130D2*
Y2726530D1*
Y2718930D1*
Y2711330D1*
Y2703730D1*
Y2696130D1*
Y2688530D1*
Y2680930D1*
Y2673330D1*
Y2665730D1*
Y2658130D1*
Y2650530D1*
Y2642930D1*
Y2635330D1*
Y2627730D1*
Y2620130D1*
Y2612530D1*
Y2604930D1*
Y2597330D1*
Y2589730D1*
Y2582130D1*
Y2574530D1*
Y2566930D1*
Y2559330D1*
Y2551730D1*
Y2544130D1*
Y2536530D1*
Y2528930D1*
Y2521330D1*
Y2513730D1*
Y2506130D1*
Y2498530D1*
Y2490930D1*
Y2483330D1*
Y2475730D1*
Y2468130D1*
Y2460530D1*
Y2452930D1*
Y2445330D1*
Y2437730D1*
Y2430130D1*
Y2422530D1*
Y2414930D1*
Y2407330D1*
Y2399730D1*
Y2392130D1*
Y2384530D1*
Y2376930D1*
Y2369330D1*
Y2361730D1*
Y2354130D1*
Y2346530D1*
Y2338930D1*
Y2331330D1*
Y2323730D1*
Y2316130D1*
Y2308530D1*
Y2300930D1*
X7203107Y2703730D2*
X7156490Y2696130D1*
X7118186Y2688530D1*
X7090410Y2680930D1*
X7070922Y2673330D1*
X7056757Y2665730D1*
X7045940Y2658130D1*
X7037187Y2650530D1*
X7030227Y2642930D1*
X7025216Y2635330D1*
X7021598Y2627730D1*
X7018508Y2620130D1*
X7016013Y2612530D1*
X7014471Y2604930D1*
X7013686Y2597330D1*
X7013335Y2589730D1*
X7013191Y2582130D1*
X7013166Y2574530D1*
X7013414Y2566930D1*
X7014376Y2559330D1*
X7016223Y2551730D1*
X7018438Y2544130D1*
X7020762Y2536530D1*
X7023583Y2528930D1*
X7027120Y2521330D1*
X7031694Y2513730D1*
X7037722Y2506130D1*
X7045094Y2498530D1*
X7052857Y2490930D1*
X7059206Y2483330D1*
X7063324Y2475730D1*
X7066307Y2468130D1*
X7043507D1*
X7038530Y2460530D1*
X7032232Y2452930D1*
X7025858Y2445330D1*
X7020364Y2437730D1*
X7015698Y2430130D1*
X7011770Y2422530D1*
X7008797Y2414930D1*
X7007027Y2407330D1*
X7006145Y2399730D1*
X7005786Y2392130D1*
X7005925Y2384530D1*
X7007102Y2376930D1*
X7009928Y2369330D1*
X7014283Y2361730D1*
X7020083Y2354130D1*
X7028237Y2346530D1*
X7039037Y2338930D1*
X7051107Y2331330D1*
X7042072Y2323730D1*
X7031881Y2316130D1*
X7021460Y2308530D1*
X7012430Y2300930D1*
X7005044Y2293330D1*
X6999007Y2285730D1*
X6994742Y2278130D1*
X6992314Y2270530D1*
X6991137Y2262930D1*
X6990657Y2255330D1*
X6990721Y2247730D1*
X6991643Y2240130D1*
X6993733Y2232530D1*
X6996938Y2224930D1*
X7001375Y2217330D1*
X7007380Y2209730D1*
X7015090Y2202130D1*
X7024702Y2194530D1*
X7036616Y2186930D1*
X7051603Y2179330D1*
X7069646Y2171730D1*
X7089107Y2164130D1*
X7111907Y2703730D2*
X7165107Y2696130D1*
X7218307Y2688530D1*
X6435507Y2696130D2*
Y2688530D1*
Y2680930D1*
Y2673330D1*
Y2665730D1*
Y2658130D1*
Y2650530D1*
Y2642930D1*
Y2635330D1*
Y2627730D1*
Y2620130D1*
Y2612530D1*
Y2604930D1*
Y2597330D1*
Y2589730D1*
Y2582130D1*
Y2574530D1*
Y2566930D1*
Y2559330D1*
Y2551730D1*
Y2544130D1*
Y2536530D1*
Y2528930D1*
Y2521330D1*
Y2513730D1*
Y2506130D1*
Y2498530D1*
Y2490930D1*
Y2483330D1*
Y2475730D1*
Y2468130D1*
Y2460530D1*
Y2452930D1*
Y2445330D1*
Y2437730D1*
Y2430130D1*
Y2422530D1*
Y2414930D1*
Y2407330D1*
Y2399730D1*
Y2392130D1*
Y2384530D1*
Y2376930D1*
Y2369330D1*
Y2361730D1*
Y2354130D1*
Y2346530D1*
Y2338930D1*
Y2331330D1*
Y2323730D1*
Y2316130D1*
Y2308530D1*
Y2300930D1*
Y2293330D1*
X6526707Y2696130D2*
Y2688530D1*
Y2680930D1*
Y2673330D1*
Y2665730D1*
Y2658130D1*
Y2650530D1*
Y2642930D1*
Y2635330D1*
Y2627730D1*
Y2620130D1*
Y2612530D1*
X6610307Y2696130D2*
X6591668Y2688530D1*
X6577063Y2680930D1*
X6566370Y2673330D1*
X6557900Y2665730D1*
X6550937Y2658130D1*
X6545351Y2650530D1*
X6540910Y2642930D1*
X6537425Y2635330D1*
X6534383Y2627730D1*
X6530821Y2620130D1*
X6526707Y2612530D1*
X6633107Y2696130D2*
Y2688530D1*
Y2680930D1*
Y2673330D1*
Y2665730D1*
Y2658130D1*
Y2650530D1*
Y2642930D1*
Y2635330D1*
Y2627730D1*
Y2620130D1*
Y2612530D1*
Y2604930D1*
Y2597330D1*
X6610299Y2589730D1*
X6592114Y2582130D1*
X6578395Y2574530D1*
X6568503Y2566930D1*
X6561490Y2559330D1*
X6556214Y2551730D1*
X6551815Y2544130D1*
X6548045Y2536530D1*
X6545147Y2528930D1*
X6543408Y2521330D1*
X6542538Y2513730D1*
X6542154Y2506130D1*
X6541998Y2498530D1*
X6541939Y2490930D1*
X6541918Y2483330D1*
X6541910Y2475730D1*
X6541908Y2468130D1*
X6541907Y2460530D1*
Y2452930D1*
Y2445330D1*
Y2437730D1*
Y2430130D1*
Y2422530D1*
Y2414930D1*
Y2407330D1*
Y2399730D1*
Y2392130D1*
Y2384530D1*
Y2376930D1*
Y2369330D1*
Y2361730D1*
Y2354130D1*
Y2346530D1*
Y2338930D1*
Y2331330D1*
Y2323730D1*
Y2316130D1*
Y2308530D1*
Y2300930D1*
Y2293330D1*
X6762307Y2696130D2*
X6748311Y2688530D1*
X6735292Y2680930D1*
X6723325Y2673330D1*
X6712572Y2665730D1*
X6703379Y2658130D1*
X6695860Y2650530D1*
X6689945Y2642930D1*
X6685130Y2635330D1*
X6680912Y2627730D1*
X6677179Y2620130D1*
X6674008Y2612530D1*
X6671042Y2604930D1*
X6667386Y2597330D1*
X6663233Y2589730D1*
X6659804Y2582130D1*
X6657685Y2574530D1*
X6656369Y2566930D1*
X6654938Y2559330D1*
X6652931Y2551730D1*
X6650911Y2544130D1*
X6649560Y2536530D1*
X6648847Y2528930D1*
X6648521Y2521330D1*
X6648387Y2513730D1*
X6648335Y2506130D1*
X6648317Y2498530D1*
X6648310Y2490930D1*
X6648308Y2483330D1*
X6648307Y2475730D1*
Y2468130D1*
X6648336Y2460530D1*
X6648604Y2452930D1*
X6649572Y2445330D1*
X6651392Y2437730D1*
X6653371Y2430130D1*
X6654963Y2422530D1*
X6656666Y2414930D1*
X6659076Y2407330D1*
X6662127Y2399730D1*
X6665353Y2392130D1*
X6668322Y2384530D1*
X6671212Y2376930D1*
X6674871Y2369330D1*
X6679311Y2361730D1*
X6684003Y2354130D1*
X6689177Y2346530D1*
X6695318Y2338930D1*
X6702675Y2331330D1*
X6711983Y2323730D1*
X6724242Y2316130D1*
X6740421Y2308530D1*
X6761274Y2300930D1*
X6785107Y2293330D1*
X6838307Y2696130D2*
X6857234Y2688530D1*
X6872814Y2680930D1*
X6885358Y2673330D1*
X6896045Y2665730D1*
X6905302Y2658130D1*
X6913412Y2650530D1*
X6920125Y2642930D1*
X6925075Y2635330D1*
X6928929Y2627730D1*
X6932976Y2620130D1*
X6937317Y2612530D1*
X6941074Y2604930D1*
X6944153Y2597330D1*
X6947029Y2589730D1*
X6949443Y2582130D1*
X6950957Y2574530D1*
X6951732Y2566930D1*
X6952080Y2559330D1*
X6952222Y2551730D1*
X6952306Y2544130D1*
X6952593Y2536530D1*
X6953569Y2528930D1*
X6955391Y2521330D1*
X6957341Y2513730D1*
X6958666Y2506130D1*
X6959371Y2498530D1*
X6959694Y2490930D1*
X6959832Y2483330D1*
X6959907Y2475730D1*
X7309507Y2688530D2*
X7298718Y2680930D1*
X7290206Y2673330D1*
X7283627Y2665730D1*
X7281612Y2658130D1*
X7280796Y2650530D1*
X7283650Y2642930D1*
X7287607Y2635330D1*
X7291800Y2627730D1*
X7295629Y2620130D1*
X7298597Y2612530D1*
X7300375Y2604930D1*
X7301263Y2597330D1*
X7301655Y2589730D1*
X7301814Y2582130D1*
X7301874Y2574530D1*
X7301895Y2566930D1*
X7301873Y2559330D1*
X7301579Y2551730D1*
X7300344Y2544130D1*
X7297526Y2536530D1*
X7293490Y2528930D1*
X7289218Y2521330D1*
X7285041Y2513730D1*
X7280532Y2506130D1*
X7274667Y2498530D1*
X7266597Y2490930D1*
X7256343Y2483330D1*
X7243556Y2475730D1*
X7227911Y2468130D1*
X7210707Y2460530D1*
X7469107Y2696130D2*
X7449005Y2688530D1*
X7431541Y2680930D1*
X7417058Y2673330D1*
X7405308Y2665730D1*
X7396283Y2658130D1*
X7389403Y2650530D1*
X7383567Y2642930D1*
X7378338Y2635330D1*
X7374190Y2627730D1*
X7370953Y2620130D1*
X7368017Y2612530D1*
X7365552Y2604930D1*
X7363764Y2597330D1*
X7361987Y2589730D1*
X7359551Y2582130D1*
X7356491Y2574530D1*
X7353291Y2566930D1*
X7350618Y2559330D1*
X7348963Y2551730D1*
X7348123Y2544130D1*
X7347749Y2536530D1*
X7347596Y2528930D1*
X7347538Y2521330D1*
X7347518Y2513730D1*
X7347510Y2506130D1*
X7347508Y2498530D1*
X7347507Y2490930D1*
Y2483330D1*
Y2475730D1*
Y2468130D1*
X7347536Y2460530D1*
X7347804Y2452930D1*
X7348772Y2445330D1*
X7350622Y2437730D1*
X7352838Y2430130D1*
X7355132Y2422530D1*
X7357657Y2414930D1*
X7359957Y2407330D1*
X7361683Y2399730D1*
X7363438Y2392130D1*
X7365866Y2384530D1*
X7368953Y2376930D1*
X7372449Y2369330D1*
X7376387Y2361730D1*
X7381098Y2354130D1*
X7386735Y2346530D1*
X7392797Y2338930D1*
X7399430Y2331330D1*
X7407893Y2323730D1*
X7419616Y2316130D1*
X7436834Y2308530D1*
X7461865Y2300930D1*
X7491907Y2293330D1*
X7537507Y2696130D2*
X7557609Y2688530D1*
X7575072Y2680930D1*
X7589555Y2673330D1*
X7601305Y2665730D1*
X7610330Y2658130D1*
X7617210Y2650530D1*
X7623047Y2642930D1*
X7628276Y2635330D1*
X7632423Y2627730D1*
X7635660Y2620130D1*
X7638626Y2612530D1*
X7641329Y2604930D1*
X7643818Y2597330D1*
X7646446Y2589730D1*
X7649011Y2582130D1*
X7651448Y2574530D1*
X7654027Y2566930D1*
X7656317Y2559330D1*
X7657783Y2551730D1*
X7658542Y2544130D1*
X7658883Y2536530D1*
X7659023Y2528930D1*
X7659077Y2521330D1*
X7659097Y2513730D1*
X7659103Y2506130D1*
X7659106Y2498530D1*
Y2490930D1*
X7659107Y2483330D1*
Y2475730D1*
Y2468130D1*
Y2460530D1*
X7659077Y2452930D1*
X7658810Y2445330D1*
X7657841Y2437730D1*
X7655991Y2430130D1*
X7653776Y2422530D1*
X7651482Y2414930D1*
X7648927Y2407330D1*
X7646389Y2399730D1*
X7643961Y2392130D1*
X7641355Y2384530D1*
X7638769Y2376930D1*
X7636038Y2369330D1*
X7632194Y2361730D1*
X7626848Y2354130D1*
X7620585Y2346530D1*
X7614139Y2338930D1*
X7607317Y2331330D1*
X7598802Y2323730D1*
X7587336Y2316130D1*
X7571280Y2308530D1*
X7548842Y2300930D1*
X7522307Y2293330D1*
X7727507Y2696130D2*
X7719907Y2688530D1*
X7712307Y2680930D1*
X7715815Y2673330D1*
X7717998Y2665730D1*
X7719102Y2658130D1*
X7719592Y2650530D1*
X7719790Y2642930D1*
X7719866Y2635330D1*
X7719893Y2627730D1*
X7719902Y2620130D1*
X7719905Y2612530D1*
X7719906Y2604930D1*
X7719907Y2597330D1*
Y2589730D1*
Y2582130D1*
Y2574530D1*
Y2566930D1*
Y2559330D1*
Y2551730D1*
Y2544130D1*
Y2536530D1*
Y2528930D1*
Y2521330D1*
Y2513730D1*
Y2506130D1*
Y2498530D1*
Y2490930D1*
Y2483330D1*
Y2475730D1*
Y2468130D1*
Y2460530D1*
Y2452930D1*
Y2445330D1*
Y2437730D1*
Y2430130D1*
Y2422530D1*
Y2414930D1*
Y2407330D1*
Y2399730D1*
Y2392130D1*
Y2384530D1*
Y2376930D1*
Y2369330D1*
Y2361730D1*
Y2354130D1*
Y2346530D1*
Y2338930D1*
Y2331330D1*
Y2323730D1*
Y2316130D1*
Y2308530D1*
Y2300930D1*
Y2293330D1*
X7818707Y2696130D2*
Y2688530D1*
Y2680930D1*
Y2673330D1*
Y2665730D1*
Y2658130D1*
Y2650530D1*
X7879507Y2696130D2*
X7865800Y2688530D1*
X7853756Y2680930D1*
X7843610Y2673330D1*
X7834774Y2665730D1*
X7826621Y2658130D1*
X7818707Y2650530D1*
X7955507Y2696130D2*
X7963366Y2688530D1*
X7971673Y2680930D1*
X7980097Y2673330D1*
X7987529Y2665730D1*
X7993270Y2658130D1*
X7997431Y2650530D1*
X8000583Y2642930D1*
X8003454Y2635330D1*
X8005856Y2627730D1*
X8007362Y2620130D1*
X8008135Y2612530D1*
X8008481Y2604930D1*
X8008623Y2597330D1*
X8008677Y2589730D1*
X8008696Y2582130D1*
X8008703Y2574530D1*
X8008706Y2566930D1*
Y2559330D1*
X8008707Y2551730D1*
Y2544130D1*
Y2536530D1*
Y2528930D1*
Y2521330D1*
Y2513730D1*
Y2506130D1*
Y2498530D1*
Y2490930D1*
Y2483330D1*
Y2475730D1*
Y2468130D1*
Y2460530D1*
Y2452930D1*
Y2445330D1*
Y2437730D1*
Y2430130D1*
Y2422530D1*
Y2414930D1*
Y2407330D1*
Y2399730D1*
Y2392130D1*
Y2384530D1*
Y2376930D1*
Y2369330D1*
Y2361730D1*
Y2354130D1*
Y2346530D1*
Y2338930D1*
Y2331330D1*
Y2323730D1*
Y2316130D1*
Y2308530D1*
Y2300930D1*
Y2293330D1*
X7142307Y2635330D2*
X7137624Y2627730D1*
X7133557Y2620130D1*
X7130485Y2612530D1*
X7128664Y2604930D1*
X7127759Y2597330D1*
X7127361Y2589730D1*
X7127201Y2582130D1*
X7127140Y2574530D1*
X7127148Y2566930D1*
X7127407Y2559330D1*
X7128403Y2551730D1*
X7130513Y2544130D1*
X7133655Y2536530D1*
X7137694Y2528930D1*
X7142307Y2521330D1*
X7180307Y2635330D2*
X7182905Y2627730D1*
X7185167Y2620130D1*
X7186607Y2612530D1*
X7187352Y2604930D1*
X7187687Y2597330D1*
X7187825Y2589730D1*
X7187878Y2582130D1*
X7187897Y2574530D1*
X7187903Y2566930D1*
X7187906Y2559330D1*
X7187877Y2551730D1*
X7187587Y2544130D1*
X7186413Y2536530D1*
X7183815Y2528930D1*
X7180307Y2521330D1*
X6785107Y2620130D2*
X6780424Y2612530D1*
X6776327Y2604930D1*
X6772988Y2597330D1*
X6770198Y2589730D1*
X6767473Y2582130D1*
X6765127Y2574530D1*
X6763641Y2566930D1*
X6762874Y2559330D1*
X6762516Y2551730D1*
X6762307Y2544130D1*
X6830707Y2620130D2*
X6836564Y2612530D1*
X6842515Y2604930D1*
X6847555Y2597330D1*
X6850707Y2589730D1*
X6852318Y2582130D1*
X6853039Y2574530D1*
X6853333Y2566930D1*
X6853445Y2559330D1*
X6853486Y2551730D1*
X6853507Y2544130D1*
X7491907Y2620130D2*
X7484626Y2612530D1*
X7478297Y2604930D1*
X7473754Y2597330D1*
X7470922Y2589730D1*
X7468713Y2582130D1*
X7466357Y2574530D1*
X7464195Y2566930D1*
X7462790Y2559330D1*
X7462057Y2551730D1*
X7461725Y2544130D1*
X7461588Y2536530D1*
X7461536Y2528930D1*
X7461517Y2521330D1*
X7461510Y2513730D1*
X7461508Y2506130D1*
X7461507Y2498530D1*
Y2490930D1*
Y2483330D1*
Y2475730D1*
Y2468130D1*
Y2460530D1*
Y2452930D1*
X7461536Y2445330D1*
X7461804Y2437730D1*
X7462772Y2430130D1*
X7464592Y2422530D1*
X7466541Y2414930D1*
X7467926Y2407330D1*
X7469224Y2399730D1*
X7471049Y2392130D1*
X7478069Y2384530D1*
X7488034Y2376930D1*
X7499507Y2369330D1*
X7514707Y2620130D2*
X7522013Y2612530D1*
X7527382Y2604930D1*
X7531680Y2597330D1*
X7535577Y2589730D1*
X7539119Y2582130D1*
X7541923Y2574530D1*
X7543625Y2566930D1*
X7544482Y2559330D1*
X7544862Y2551730D1*
X7545016Y2544130D1*
X7545075Y2536530D1*
X7545096Y2528930D1*
X7545103Y2521330D1*
X7545105Y2513730D1*
X7545106Y2506130D1*
X7545107Y2498530D1*
Y2490930D1*
Y2483330D1*
Y2475730D1*
Y2468130D1*
Y2460530D1*
Y2452930D1*
Y2445330D1*
X7545077Y2437730D1*
X7544810Y2430130D1*
X7543812Y2422530D1*
X7541724Y2414930D1*
X7538777Y2407330D1*
X7535305Y2399730D1*
X7531098Y2392130D1*
X7525211Y2384530D1*
X7516871Y2376930D1*
X7507107Y2369330D1*
X7849107Y2612530D2*
X7841826Y2604930D1*
X7835497Y2597330D1*
X7830984Y2589730D1*
X7828418Y2582130D1*
X7827178Y2574530D1*
X7826643Y2566930D1*
X7826430Y2559330D1*
X7826350Y2551730D1*
X7826321Y2544130D1*
X7826312Y2536530D1*
X7826308Y2528930D1*
X7826307Y2521330D1*
Y2513730D1*
Y2506130D1*
Y2498530D1*
Y2490930D1*
Y2483330D1*
Y2475730D1*
Y2468130D1*
Y2460530D1*
Y2452930D1*
Y2445330D1*
Y2437730D1*
Y2430130D1*
Y2422530D1*
Y2414930D1*
Y2407330D1*
Y2399730D1*
Y2392130D1*
Y2384530D1*
Y2376930D1*
Y2369330D1*
Y2361730D1*
Y2354130D1*
Y2346530D1*
Y2338930D1*
Y2331330D1*
Y2323730D1*
Y2316130D1*
Y2308530D1*
Y2300930D1*
Y2293330D1*
X7887107Y2612530D2*
X7890879Y2604930D1*
X7895026Y2597330D1*
X7898434Y2589730D1*
X7900510Y2582130D1*
X7901551Y2574530D1*
X7902012Y2566930D1*
X7902198Y2559330D1*
X7902268Y2551730D1*
X7902294Y2544130D1*
X7902302Y2536530D1*
X7902305Y2528930D1*
X7902306Y2521330D1*
X7902307Y2513730D1*
Y2506130D1*
Y2498530D1*
Y2490930D1*
Y2483330D1*
Y2475730D1*
Y2468130D1*
Y2460530D1*
Y2452930D1*
Y2445330D1*
Y2437730D1*
Y2430130D1*
Y2422530D1*
Y2414930D1*
Y2407330D1*
Y2399730D1*
Y2392130D1*
Y2384530D1*
Y2376930D1*
Y2369330D1*
Y2361730D1*
Y2354130D1*
Y2346530D1*
Y2338930D1*
Y2331330D1*
Y2323730D1*
Y2316130D1*
Y2308530D1*
Y2300930D1*
Y2293330D1*
X8935907Y2612530D2*
Y2604930D1*
Y2597330D1*
Y2589730D1*
Y2582130D1*
Y2574530D1*
Y2566930D1*
Y2559330D1*
Y2551730D1*
Y2544130D1*
Y2536530D1*
Y2528930D1*
X8783907D2*
Y2521330D1*
Y2513730D1*
Y2506130D1*
Y2498530D1*
Y2490930D1*
Y2483330D1*
Y2475730D1*
Y2468130D1*
Y2460530D1*
Y2452930D1*
Y2445330D1*
Y2437730D1*
Y2430130D1*
Y2422530D1*
Y2414930D1*
Y2407330D1*
Y2399730D1*
Y2392130D1*
X9559107Y2521330D2*
Y2513730D1*
Y2506130D1*
Y2498530D1*
Y2490930D1*
Y2483330D1*
Y2475730D1*
Y2468130D1*
Y2460530D1*
Y2452930D1*
Y2445330D1*
Y2437730D1*
Y2430130D1*
Y2422530D1*
Y2414930D1*
Y2407330D1*
Y2399730D1*
Y2392130D1*
Y2384530D1*
Y2376930D1*
Y2369330D1*
Y2361730D1*
Y2354130D1*
Y2346530D1*
Y2338930D1*
Y2331330D1*
Y2323730D1*
Y2316130D1*
Y2308530D1*
Y2300930D1*
X9680707Y2521330D2*
Y2513730D1*
Y2506130D1*
Y2498530D1*
Y2490930D1*
Y2483330D1*
Y2475730D1*
Y2468130D1*
Y2460530D1*
Y2452930D1*
Y2445330D1*
Y2437730D1*
Y2430130D1*
Y2422530D1*
Y2414930D1*
Y2407330D1*
Y2399730D1*
Y2392130D1*
Y2384530D1*
Y2376930D1*
Y2369330D1*
Y2361730D1*
Y2354130D1*
Y2346530D1*
Y2338930D1*
Y2331330D1*
Y2323730D1*
Y2316130D1*
Y2308530D1*
Y2300930D1*
X9285507Y2490930D2*
X9282909Y2483330D1*
X9280646Y2475730D1*
X9279176Y2468130D1*
X9278135Y2460530D1*
X9276564Y2452930D1*
X9273637Y2445330D1*
X9269786Y2437730D1*
X9266196Y2430130D1*
X9262864Y2422530D1*
X9258460Y2414930D1*
X9251802Y2407330D1*
X9242713Y2399730D1*
X9232307Y2392130D1*
X9315907Y2490930D2*
X9384307Y2483330D1*
X9384017Y2475730D1*
X9383043Y2468130D1*
X9381221Y2460530D1*
X9379273Y2452930D1*
X9377917Y2445330D1*
X9376945Y2437730D1*
X9375654Y2430130D1*
X9373671Y2422530D1*
X9371374Y2414930D1*
X9368794Y2407330D1*
X9365265Y2399730D1*
X9360904Y2392130D1*
X9356498Y2384530D1*
X9352299Y2376930D1*
X9348039Y2369330D1*
X9343166Y2361730D1*
X9337240Y2354130D1*
X9330517Y2346530D1*
X9323501Y2338930D1*
X9316459Y2331330D1*
X9308503Y2323730D1*
X9297966Y2316130D1*
X9284710Y2308530D1*
X9270116Y2300930D1*
X9255107Y2293330D1*
X6762307Y2475730D2*
Y2468130D1*
Y2460530D1*
Y2452930D1*
Y2445330D1*
X6762336Y2437730D1*
X6762604Y2430130D1*
X6763572Y2422530D1*
X6765422Y2414930D1*
X6767667Y2407330D1*
X6770288Y2399730D1*
X6774367Y2392130D1*
X6780891Y2384530D1*
X6789928Y2376930D1*
X6800307Y2369330D1*
X7111907Y2460530D2*
X7105800Y2452930D1*
X7101385Y2445330D1*
X7098416Y2437730D1*
X7098450Y2430130D1*
X7101874Y2422530D1*
X7110096Y2414930D1*
X7119507Y2407330D1*
X7127107Y2460530D2*
X6861107Y2437730D2*
X6859932Y2430130D1*
X6858018Y2422530D1*
X6855783Y2414930D1*
X6853454Y2407330D1*
X6850571Y2399730D1*
X6846457Y2392130D1*
X6840982Y2384530D1*
X6829080Y2376930D1*
X6815507Y2369330D1*
X6845907Y2437730D2*
X6899107Y2430130D1*
X6952307Y2422530D1*
X6952277Y2414930D1*
X6952010Y2407330D1*
X6951041Y2399730D1*
X6949191Y2392130D1*
X6946946Y2384530D1*
X6944385Y2376930D1*
X6940861Y2369330D1*
X6936473Y2361730D1*
X6931801Y2354130D1*
X6926604Y2346530D1*
X6920256Y2338930D1*
X6912436Y2331330D1*
X6902979Y2323730D1*
X6891440Y2316130D1*
X6875981Y2308530D1*
X6855002Y2300930D1*
X6830707Y2293330D1*
X7165107Y2407330D2*
X7209924Y2399730D1*
X7246111Y2392130D1*
X7272358Y2384530D1*
X7290294Y2376930D1*
X7301898Y2369330D1*
X7309968Y2361730D1*
X7316367Y2354130D1*
X7321583Y2346530D1*
X7325808Y2338930D1*
X7328920Y2331330D1*
X7330749Y2323730D1*
X7331655Y2316130D1*
X7332053Y2308530D1*
X7332213Y2300930D1*
X7332274Y2293330D1*
X7332295Y2285730D1*
X7332303Y2278130D1*
X7332276Y2270530D1*
X7331980Y2262930D1*
X7330744Y2255330D1*
X7327926Y2247730D1*
X7323860Y2240130D1*
X7319350Y2232530D1*
X7314472Y2224930D1*
X7309082Y2217330D1*
X7302822Y2209730D1*
X7294406Y2202130D1*
X7282943Y2194530D1*
X7268479Y2186930D1*
X7251099Y2179330D1*
X7231403Y2171730D1*
X7210707Y2164130D1*
X8981507Y2392130D2*
Y2384530D1*
Y2376930D1*
Y2369330D1*
Y2361730D1*
Y2354130D1*
Y2346530D1*
Y2338930D1*
Y2331330D1*
Y2323730D1*
Y2316130D1*
Y2308530D1*
Y2300930D1*
X7111907Y2316130D2*
X7103426Y2308530D1*
X7096202Y2300930D1*
X7090204Y2293330D1*
X7085944Y2285730D1*
X7083545Y2278130D1*
X7082694Y2270530D1*
X7082859Y2262930D1*
X7086692Y2255330D1*
X7097014Y2247730D1*
X7111030Y2240130D1*
X7127107Y2232530D1*
Y2316130D2*
Y2308530D1*
X7218307D2*
X7225588Y2300930D1*
X7231917Y2293330D1*
X7236400Y2285730D1*
X7239396Y2278130D1*
X7239085Y2270530D1*
X7237742Y2262930D1*
X7232635Y2255330D1*
X7223953Y2247730D1*
X7210884Y2240130D1*
X7195507Y2232530D1*
X5410736Y7172747D2*
D86*
X5405906Y7182406D1*
X5396136Y7192177D1*
X5386477Y7197006D1*
X5367048D1*
X5357277Y7192177D1*
X5347619Y7182406D1*
X5342677Y7172747D1*
X5337848Y7158147D1*
Y7133777D1*
X5342677Y7119289D1*
X5347619Y7109518D1*
X5357277Y7099860D1*
X5367048Y7094918D1*
X5386477D1*
X5396136Y7099860D1*
X5405906Y7109518D1*
X5410736Y7119289D1*
X5442108Y7177464D2*
X5451879Y7182406D1*
X5466479Y7196894D1*
Y7094918D1*
X7464378Y7207474D2*
X7459549Y7217133D1*
X7449778Y7226903D1*
X7440120Y7231733D1*
X7420691D1*
X7410920Y7226903D1*
X7401261Y7217133D1*
X7396320Y7207474D1*
X7391491Y7192874D1*
Y7168503D1*
X7396320Y7154016D1*
X7401261Y7144245D1*
X7410920Y7134587D1*
X7420691Y7129645D1*
X7440120D1*
X7449778Y7134587D1*
X7459549Y7144245D1*
X7464378Y7154016D1*
X7500692Y7207362D2*
Y7212191D1*
X7505522Y7221962D1*
X7510351Y7226791D1*
X7520122Y7231620D1*
X7539551D1*
X7549209Y7226791D1*
X7554039Y7221962D1*
X7558980Y7212191D1*
Y7202533D1*
X7554039Y7192762D1*
X7544380Y7178274D1*
X7495751Y7129645D1*
X7563809D1*
X8090369Y7300657D2*
Y7198569D1*
X8124398D1*
X8138998Y7203511D1*
X8148769Y7213169D1*
X8153598Y7222940D1*
X8158428Y7237428D1*
Y7261799D1*
X8153598Y7276399D1*
X8148769Y7286057D1*
X8138998Y7295828D1*
X8124398Y7300657D1*
X8090369D1*
X8189800Y7281116D2*
X8199571Y7286057D1*
X8214171Y7300545D1*
Y7198569D1*
X2977452Y6902607D2*
Y6800519D1*
X3011481D1*
X3026081Y6805461D1*
X3035852Y6815119D1*
X3040681Y6824890D1*
X3045510Y6839378D1*
Y6863749D1*
X3040681Y6878349D1*
X3035852Y6888007D1*
X3026081Y6897778D1*
X3011481Y6902607D1*
X2977452D1*
X3081824Y6878236D2*
Y6883066D1*
X3086654Y6892836D1*
X3091483Y6897666D1*
X3101254Y6902495D1*
X3120683D1*
X3130341Y6897666D1*
X3135171Y6892836D1*
X3140112Y6883066D1*
Y6873407D1*
X3135171Y6863636D1*
X3125512Y6849149D1*
X3076883Y6800519D1*
X3144941D1*
X4272102Y1624673D2*
Y1522585D1*
X4306131D1*
X4320731Y1527527D1*
X4330502Y1537185D1*
X4335331Y1546956D1*
X4340160Y1561444D1*
Y1585814D1*
X4335331Y1600414D1*
X4330502Y1610073D1*
X4320731Y1619844D1*
X4306131Y1624673D1*
X4272102D1*
X4381304Y1624561D2*
X4434650D1*
X4405562Y1585702D1*
X4420162D1*
X4429821Y1580873D1*
X4434650Y1576044D1*
X4439591Y1561444D1*
Y1551785D1*
X4434650Y1537185D1*
X4424991Y1527414D1*
X4410391Y1522585D1*
X4395791D1*
X4381304Y1527414D1*
X4376474Y1532356D1*
X4371533Y1542014D1*
X9790666Y7685609D2*
Y7607892D1*
X9785837Y7593292D1*
X9780895Y7588463D1*
X9771237Y7583522D1*
X9761466D1*
X9751807Y7588463D1*
X9746978Y7593292D1*
X9742037Y7607892D1*
Y7617551D1*
X9880326Y7685497D2*
X9831809D1*
X9826980Y7641809D1*
X9831809Y7646639D1*
X9846409Y7651580D1*
X9860897D1*
X9875497Y7646639D1*
X9885268Y7636980D1*
X9890097Y7622380D1*
Y7612722D1*
X9885268Y7598122D1*
X9875497Y7588351D1*
X9860897Y7583522D1*
X9846409D1*
X9831809Y7588351D1*
X9826980Y7593292D1*
X9822038Y7602951D1*
X5960182Y5872183D2*
Y5915870D1*
X5955240Y5930470D1*
X5950411Y5935412D1*
X5940753Y5940241D1*
X5930982D1*
X5921323Y5935412D1*
X5916382Y5930470D1*
X5911552Y5915870D1*
Y5872183D1*
X6013640D1*
X5960182Y5906212D2*
X6013640Y5940241D1*
X5931094Y5971614D2*
X5926153Y5981384D1*
X5911665Y5995984D1*
X6013640D1*
X5158152Y5845672D2*
Y5889360D1*
X5153210Y5903960D1*
X5148381Y5908901D1*
X5138723Y5913731D1*
X5128952D1*
X5119293Y5908901D1*
X5114352Y5903960D1*
X5109522Y5889360D1*
Y5845672D1*
X5211610D1*
X5158152Y5879701D2*
X5211610Y5913730D1*
X5133893Y5950045D2*
X5129064D1*
X5119293Y5954874D1*
X5114464Y5959703D1*
X5109635Y5969474D1*
Y5988903D1*
X5114464Y5998562D1*
X5119293Y6003391D1*
X5129064Y6008332D1*
X5138723D1*
X5148493Y6003391D1*
X5162981Y5993732D1*
X5211610Y5945103D1*
Y6013161D1*
X1768372Y5108621D2*
Y5152309D1*
X1763430Y5166909D1*
X1758601Y5171850D1*
X1748943Y5176679D1*
X1739172D1*
X1729513Y5171850D1*
X1724572Y5166909D1*
X1719742Y5152309D1*
Y5108621D1*
X1821830D1*
X1768372Y5142650D2*
X1821830Y5176679D1*
Y5256681D2*
X1719855D1*
X1787801Y5208052D1*
Y5280939D1*
X1786292Y3799613D2*
Y3843301D1*
X1781350Y3857901D1*
X1776521Y3862842D1*
X1766863Y3867671D1*
X1757092D1*
X1747433Y3862842D1*
X1742492Y3857901D1*
X1737662Y3843301D1*
Y3799613D1*
X1839750D1*
X1786292Y3833642D2*
X1839750Y3867671D1*
X1752263Y3957332D2*
X1742604Y3952502D1*
X1737775Y3937902D1*
Y3928244D1*
X1742604Y3913644D1*
X1757204Y3903873D1*
X1781463Y3899044D1*
X1805721D1*
X1825150Y3903873D1*
X1834921Y3913644D1*
X1839750Y3928244D1*
Y3933073D1*
X1834921Y3947561D1*
X1825150Y3957331D1*
X1810550Y3962161D1*
X1805721D1*
X1791121Y3957331D1*
X1781463Y3947561D1*
X1776633Y3933073D1*
Y3928244D1*
X1781463Y3913644D1*
X1791121Y3903873D1*
X1805721Y3899044D1*
X7373925Y5794862D2*
Y5838550D1*
X7368984Y5853150D1*
X7364154Y5858091D1*
X7354496Y5862921D1*
X7344725D1*
X7335067Y5858091D1*
X7330125Y5853150D1*
X7325296Y5838550D1*
Y5794862D1*
X7427383D1*
X7373925Y5828891D2*
X7427384Y5862920D1*
X7427383Y5913722D2*
X7325408Y5962352D1*
Y5894293D1*
X7827648Y5794198D2*
Y5837886D1*
X7822707Y5852486D1*
X7817878Y5857428D1*
X7808219Y5862257D1*
X7798448D1*
X7788790Y5857428D1*
X7783848Y5852486D1*
X7779019Y5837886D1*
Y5794198D1*
X7881107D1*
X7827648Y5828228D2*
X7881107Y5862257D1*
X7779132Y5917888D2*
X7783961Y5903400D1*
X7793619Y5898459D1*
X7803390D1*
X7813048Y5903400D1*
X7817990Y5913058D1*
X7822819Y5932488D1*
X7827648Y5947088D1*
X7837419Y5956746D1*
X7847078Y5961575D1*
X7861678D1*
X7871336Y5956746D1*
X7876278Y5951917D1*
X7881107Y5937317D1*
Y5917888D1*
X7876278Y5903400D1*
X7871336Y5898458D1*
X7861678Y5893629D1*
X7847078D1*
X7837419Y5898458D1*
X7827648Y5908229D1*
X7822819Y5922717D1*
X7817990Y5942146D1*
X7813048Y5951917D1*
X7803390Y5956746D1*
X7793619D1*
X7783961Y5951917D1*
X7779132Y5937317D1*
Y5917888D1*
X8239842Y5797800D2*
Y5841488D1*
X8234900Y5856088D1*
X8230071Y5861029D1*
X8220413Y5865859D1*
X8210642D1*
X8200983Y5861029D1*
X8196042Y5856088D1*
X8191212Y5841488D1*
Y5797800D1*
X8293300D1*
X8239842Y5831829D2*
X8293300Y5865858D1*
X8225242Y5960460D2*
X8239842Y5955519D1*
X8249613Y5945860D1*
X8254442Y5931260D1*
Y5926431D1*
X8249613Y5911831D1*
X8239842Y5902173D1*
X8225242Y5897231D1*
X8220413D1*
X8205813Y5902173D1*
X8196154Y5911831D1*
X8191325Y5926431D1*
Y5931260D1*
X8196154Y5945860D1*
X8205813Y5955519D1*
X8225242Y5960460D1*
X8249613D1*
X8273871Y5955519D1*
X8288471Y5945860D1*
X8293300Y5931260D1*
Y5921602D1*
X8288471Y5907002D1*
X8278700Y5902172D1*
X6008427Y1271245D2*
X6052115D1*
X6066715Y1276187D1*
X6071656Y1281016D1*
X6076485Y1290674D1*
Y1300445D1*
X6071656Y1310104D1*
X6066715Y1315045D1*
X6052115Y1319874D1*
X6008427D1*
Y1217787D1*
X6042456Y1271245D2*
X6076485Y1217787D1*
X6107858Y1300333D2*
X6117629Y1305274D1*
X6132229Y1319762D1*
Y1217787D1*
X6168543Y1295504D2*
Y1300333D1*
X6173372Y1310104D1*
X6178201Y1314933D1*
X6187972Y1319762D1*
X6207401D1*
X6217060Y1314933D1*
X6221889Y1310104D1*
X6226830Y1300333D1*
Y1290674D1*
X6221889Y1280904D1*
X6212230Y1266416D1*
X6163601Y1217787D1*
X6231660D1*
X5862377Y1116975D2*
X5906065D1*
X5920665Y1121917D1*
X5925606Y1126746D1*
X5930435Y1136404D1*
Y1146175D1*
X5925606Y1155834D1*
X5920665Y1160775D1*
X5906065Y1165604D1*
X5862377D1*
Y1063517D1*
X5896406Y1116975D2*
X5930435Y1063517D1*
X5961808Y1146063D2*
X5971579Y1151004D1*
X5986179Y1165492D1*
Y1063517D1*
X6027322Y1165492D2*
X6080668D1*
X6051580Y1126634D1*
X6066180D1*
X6075839Y1121804D1*
X6080668Y1116975D1*
X6085610Y1102375D1*
Y1092717D1*
X6080668Y1078117D1*
X6071010Y1068346D1*
X6056410Y1063517D1*
X6041810D1*
X6027322Y1068346D1*
X6022493Y1073287D1*
X6017551Y1082946D1*
X2986929Y1205327D2*
X3030617D1*
X3045217Y1210268D1*
X3050158Y1215097D1*
X3054987Y1224756D1*
Y1234527D1*
X3050158Y1244185D1*
X3045217Y1249127D1*
X3030617Y1253956D1*
X2986929D1*
Y1151868D1*
X3020958Y1205327D2*
X3054987Y1151868D1*
X3086360Y1234414D2*
X3096131Y1239356D1*
X3110731Y1253844D1*
Y1151868D1*
X3190733D2*
Y1253844D1*
X3142103Y1185897D1*
X3214991D1*
X2308661Y3182109D2*
X2299002Y3191880D1*
X2284402Y3196709D1*
X2264973D1*
X2250373Y3191880D1*
X2240602Y3182109D1*
Y3172451D1*
X2245544Y3162680D1*
X2250373Y3157851D1*
X2260032Y3153022D1*
X2289232Y3143251D1*
X2299002Y3138422D1*
X2303832Y3133480D1*
X2308661Y3123822D1*
Y3109222D1*
X2299002Y3099563D1*
X2284402Y3094622D1*
X2264973D1*
X2250373Y3099563D1*
X2240602Y3109222D1*
X2340033Y3177168D2*
X2349804Y3182109D1*
X2364404Y3196597D1*
Y3094622D1*
X1697500Y2360853D2*
X1687842Y2370623D1*
X1673242Y2375453D1*
X1653813D1*
X1639213Y2370623D1*
X1629442Y2360853D1*
Y2351194D1*
X1634383Y2341423D1*
X1639213Y2336594D1*
X1648871Y2331765D1*
X1678071Y2321994D1*
X1687842Y2317165D1*
X1692671Y2312223D1*
X1697500Y2302565D1*
Y2287965D1*
X1687842Y2278306D1*
X1673242Y2273365D1*
X1653813D1*
X1639213Y2278306D1*
X1629442Y2287965D1*
X1733814Y2351082D2*
Y2355911D1*
X1738644Y2365682D1*
X1743473Y2370511D1*
X1753244Y2375340D1*
X1772673D1*
X1782331Y2370511D1*
X1787161Y2365682D1*
X1792102Y2355911D1*
Y2346253D1*
X1787161Y2336482D1*
X1777502Y2321994D1*
X1728873Y2273365D1*
X1796931D1*
X8078042Y5200549D2*
Y5127662D1*
X8082872Y5113062D1*
X8092642Y5103403D1*
X8107242Y5098462D1*
X8116901D1*
X8131501Y5103403D1*
X8141272Y5113062D1*
X8146101Y5127662D1*
Y5200549D1*
X8177473Y5181008D2*
X8187244Y5185949D1*
X8201844Y5200437D1*
Y5098462D1*
X6566365Y7347099D2*
Y7274212D1*
X6571194Y7259612D1*
X6580965Y7249953D1*
X6595565Y7245012D1*
X6605224D1*
X6619824Y7249953D1*
X6629594Y7259612D1*
X6634424Y7274212D1*
Y7347099D1*
X6675567Y7346987D2*
X6728913D1*
X6699826Y7308129D1*
X6714426D1*
X6724084Y7303299D1*
X6728913Y7298470D1*
X6733855Y7283870D1*
Y7274212D1*
X6728913Y7259612D1*
X6719255Y7249841D1*
X6704655Y7245012D1*
X6690055D1*
X6675567Y7249841D1*
X6670738Y7254782D1*
X6665796Y7264441D1*
X2522963Y2261247D2*
D87*
Y2057071D1*
X2659080Y2261247D2*
X2522963Y2125130D1*
X2571480Y2173871D2*
X2659080Y2057071D1*
X2721825Y2261247D2*
Y2057071D1*
X2901145Y2193188D2*
Y2057071D1*
Y2163988D2*
X2881829Y2183530D1*
X2862287Y2193188D1*
X2833312D1*
X2813770Y2183530D1*
X2794453Y2163988D1*
X2784570Y2134788D1*
Y2115471D1*
X2794453Y2086271D1*
X2813770Y2066954D1*
X2833312Y2057071D1*
X2862287D1*
X2881829Y2066954D1*
X2901145Y2086271D1*
X2963891Y2193188D2*
Y2057071D1*
Y2154330D2*
X2993091Y2183530D1*
X3012632Y2193188D1*
X3041607D1*
X3061149Y2183530D1*
X3070807Y2154330D1*
Y2057071D1*
Y2154330D2*
X3100007Y2183530D1*
X3119549Y2193188D1*
X3148524D1*
X3168066Y2183530D1*
X3177949Y2154330D1*
Y2057071D1*
X3357269Y2193188D2*
Y2057071D1*
Y2163988D2*
X3337953Y2183530D1*
X3318411Y2193188D1*
X3289436D1*
X3269894Y2183530D1*
X3250577Y2163988D1*
X3240694Y2134788D1*
Y2115471D1*
X3250577Y2086271D1*
X3269894Y2066954D1*
X3289436Y2057071D1*
X3318411D1*
X3337953Y2066954D1*
X3357269Y2086271D1*
X3449215Y2261247D2*
Y2095930D1*
X3458873Y2066954D1*
X3478415Y2057071D1*
X3497732D1*
X3420015Y2193188D2*
X3488073D1*
X3560477Y2261247D2*
Y2057071D1*
Y2154330D2*
X3589677Y2183530D1*
X3609218Y2193188D1*
X3638418D1*
X3657735Y2183530D1*
X3667394Y2154330D1*
Y2057071D1*
X4054111Y2261247D2*
X3927653D1*
Y2057071D1*
Y2163988D2*
X4005370D1*
X4233432Y2193188D2*
Y2057071D1*
Y2163988D2*
X4214115Y2183530D1*
X4194573Y2193188D1*
X4165598D1*
X4146057Y2183530D1*
X4126740Y2163988D1*
X4116857Y2134788D1*
Y2115471D1*
X4126740Y2086271D1*
X4146057Y2066954D1*
X4165598Y2057071D1*
X4194573D1*
X4214115Y2066954D1*
X4233432Y2086271D1*
X4296177Y2261247D2*
Y2057071D1*
X4358922Y2261247D2*
Y2057071D1*
X4528584Y2163988D2*
X4518926Y2183530D1*
X4489726Y2193188D1*
X4460526D1*
X4431326Y2183530D1*
X4421667Y2163988D1*
X4431326Y2144671D1*
X4450867Y2134788D1*
X4499384Y2125130D1*
X4518926Y2115471D1*
X4528584Y2095930D1*
Y2086271D1*
X4518926Y2066954D1*
X4489726Y2057071D1*
X4460526D1*
X4431326Y2066954D1*
X4421667Y2086271D1*
X2631315Y6392992D2*
D88*
X2690445D1*
X2710003Y6400236D1*
X2716674Y6407648D1*
X2723194Y6422136D1*
Y6444036D1*
X2716674Y6458524D1*
X2710003Y6465936D1*
X2690445Y6473180D1*
X2631315D1*
Y6320048D1*
X2798295Y6422136D2*
X2785257Y6414892D1*
X2772066Y6400236D1*
X2765547Y6378336D1*
Y6363848D1*
X2772066Y6341948D1*
X2785257Y6327461D1*
X2798295Y6320048D1*
X2818005D1*
X2831196Y6327461D1*
X2844235Y6341948D1*
X2850906Y6363848D1*
Y6378336D1*
X2844235Y6400236D1*
X2831196Y6414892D1*
X2818005Y6422136D1*
X2798295D1*
X2893259D2*
Y6320048D1*
Y6378336D2*
X2899930Y6400236D1*
X2912969Y6414892D1*
X2926160Y6422136D1*
X2945870D1*
X3007932Y6473180D2*
Y6349192D1*
X3014452Y6327461D1*
X3027642Y6320048D1*
X3040681D1*
X2988222Y6422136D2*
X3034162D1*
X3083034Y6473180D2*
Y6320048D1*
X3204076Y6422136D2*
Y6320048D1*
Y6400236D2*
X3191037Y6414892D1*
X3177846Y6422136D1*
X3158288D1*
X3145097Y6414892D1*
X3132058Y6400236D1*
X3125387Y6378336D1*
Y6363848D1*
X3132058Y6341948D1*
X3145097Y6327461D1*
X3158288Y6320048D1*
X3177846D1*
X3191037Y6327461D1*
X3204076Y6341948D1*
X3246429Y6422136D2*
Y6320048D1*
Y6392992D2*
X3266139Y6414892D1*
X3279329Y6422136D1*
X3298888D1*
X3312078Y6414892D1*
X3318598Y6392992D1*
Y6320048D1*
X3439639Y6473180D2*
Y6320048D1*
Y6400236D2*
X3426600Y6414892D1*
X3413409Y6422136D1*
X3393699D1*
X3380660Y6414892D1*
X3367470Y6400236D1*
X3360950Y6378336D1*
Y6363848D1*
X3367470Y6341948D1*
X3380660Y6327461D1*
X3393699Y6320048D1*
X3413409D1*
X3426600Y6327461D1*
X3439639Y6341948D1*
X3720232Y6320048D2*
Y6473180D1*
X3667773Y6320048D1*
X3615314Y6473180D1*
Y6320048D1*
X3762585Y6378336D2*
X3841273D1*
Y6392992D1*
X3834754Y6407648D1*
X3828234Y6414892D1*
X3815044Y6422136D1*
X3795334D1*
X3782295Y6414892D1*
X3769104Y6400236D1*
X3762585Y6378336D1*
Y6363848D1*
X3769104Y6341948D1*
X3782295Y6327461D1*
X3795334Y6320048D1*
X3815044D1*
X3828234Y6327461D1*
X3841273Y6341948D1*
X3903336Y6473180D2*
Y6349192D1*
X3909856Y6327461D1*
X3923046Y6320048D1*
X3936085D1*
X3883626Y6422136D2*
X3929566D1*
X3978438D2*
Y6320048D1*
Y6378336D2*
X3985109Y6400236D1*
X3998148Y6414892D1*
X4011338Y6422136D1*
X4031048D1*
X4106150D2*
X4093111Y6414892D1*
X4079921Y6400236D1*
X4073401Y6378336D1*
Y6363848D1*
X4079921Y6341948D1*
X4093111Y6327461D1*
X4106150Y6320048D1*
X4125860D1*
X4139051Y6327461D1*
X4152090Y6341948D1*
X4158761Y6363848D1*
Y6378336D1*
X4152090Y6400236D1*
X4139051Y6414892D1*
X4125860Y6422136D1*
X4106150D1*
X5602719Y1980375D2*
D89*
Y1801721D1*
X5656315D1*
X5679310Y1810369D1*
X5694699Y1827271D1*
X5702305Y1844370D1*
X5709911Y1869724D1*
Y1912373D1*
X5702305Y1937923D1*
X5694699Y1954825D1*
X5679310Y1971924D1*
X5656315Y1980375D1*
X5602719D1*
X5759323Y1869724D2*
X5851126D1*
Y1886823D1*
X5843520Y1903921D1*
X5835914Y1912373D1*
X5820525Y1920824D1*
X5797530D1*
X5782318Y1912373D1*
X5766929Y1895274D1*
X5759323Y1869724D1*
Y1852821D1*
X5766929Y1827271D1*
X5782318Y1810369D1*
X5797530Y1801721D1*
X5820525D1*
X5835914Y1810369D1*
X5851126Y1827271D1*
X5900538Y1920824D2*
Y1742170D1*
Y1895274D2*
X5915927Y1912176D1*
X5931139Y1920824D1*
X5954134D1*
X5969523Y1912176D1*
X5984735Y1895274D1*
X5992518Y1869724D1*
Y1852625D1*
X5984735Y1827271D1*
X5969523Y1810173D1*
X5954134Y1801721D1*
X5931139D1*
X5915927Y1810173D1*
X5900538Y1827271D1*
X6133732Y1920824D2*
Y1801721D1*
Y1895274D2*
X6118520Y1912373D1*
X6103131Y1920824D1*
X6080313D1*
X6064924Y1912373D1*
X6049712Y1895274D1*
X6041929Y1869724D1*
Y1852821D1*
X6049712Y1827271D1*
X6064924Y1810369D1*
X6080313Y1801721D1*
X6103131D1*
X6118520Y1810369D1*
X6133732Y1827271D1*
X6183144Y1920824D2*
Y1801721D1*
Y1869724D2*
X6190927Y1895274D1*
X6206139Y1912373D1*
X6221528Y1920824D1*
X6244523D1*
X6316930Y1980375D2*
Y1835723D1*
X6324536Y1810369D1*
X6339925Y1801721D1*
X6355137D1*
X6293935Y1920824D2*
X6347531D1*
X6404549D2*
Y1801721D1*
Y1886823D2*
X6427544Y1912373D1*
X6442933Y1920824D1*
X6465751D1*
X6481140Y1912373D1*
X6488746Y1886823D1*
Y1801721D1*
Y1886823D2*
X6511741Y1912373D1*
X6527130Y1920824D1*
X6549948D1*
X6565337Y1912373D1*
X6573120Y1886823D1*
Y1801721D1*
X6622532Y1869724D2*
X6714335D1*
Y1886823D1*
X6706729Y1903921D1*
X6699123Y1912373D1*
X6683734Y1920824D1*
X6660739D1*
X6645527Y1912373D1*
X6630138Y1895274D1*
X6622532Y1869724D1*
Y1852821D1*
X6630138Y1827271D1*
X6645527Y1810369D1*
X6660739Y1801721D1*
X6683734D1*
X6699123Y1810369D1*
X6714335Y1827271D1*
X6763746Y1920824D2*
Y1801721D1*
Y1886823D2*
X6786741Y1912373D1*
X6802130Y1920824D1*
X6824949D1*
X6840337Y1912373D1*
X6847944Y1886823D1*
Y1801721D1*
X6920350Y1980375D2*
Y1835723D1*
X6927956Y1810369D1*
X6943345Y1801721D1*
X6958557D1*
X6897355Y1920824D2*
X6950951D1*
X7201719D2*
X7186507Y1912373D1*
X7171118Y1895274D1*
X7163512Y1869724D1*
Y1852821D1*
X7171118Y1827271D1*
X7186507Y1810369D1*
X7201719Y1801721D1*
X7224714D1*
X7240103Y1810369D1*
X7255315Y1827271D1*
X7263098Y1852821D1*
Y1869724D1*
X7255315Y1895274D1*
X7240103Y1912373D1*
X7224714Y1920824D1*
X7201719D1*
X7373712Y1980375D2*
X7358499D1*
X7343110Y1971924D1*
X7335504Y1946374D1*
Y1801721D1*
X7312509Y1920824D2*
X7366105D1*
X7693464Y1937923D2*
X7685858Y1954825D1*
X7670469Y1971924D1*
X7655257Y1980375D1*
X7624656D1*
X7609267Y1971924D1*
X7594055Y1954825D1*
X7586272Y1937923D1*
X7578666Y1912373D1*
Y1869724D1*
X7586272Y1844370D1*
X7594055Y1827271D1*
X7609267Y1810369D1*
X7624656Y1801721D1*
X7655257D1*
X7670469Y1810369D1*
X7685858Y1827271D1*
X7693464Y1844370D1*
X7781083Y1920824D2*
X7765871Y1912373D1*
X7750482Y1895274D1*
X7742876Y1869724D1*
Y1852821D1*
X7750482Y1827271D1*
X7765871Y1810369D1*
X7781083Y1801721D1*
X7804078D1*
X7819467Y1810369D1*
X7834679Y1827271D1*
X7842462Y1852821D1*
Y1869724D1*
X7834679Y1895274D1*
X7819467Y1912373D1*
X7804078Y1920824D1*
X7781083D1*
X7891874D2*
Y1801721D1*
Y1886823D2*
X7914869Y1912373D1*
X7930257Y1920824D1*
X7953076D1*
X7968465Y1912373D1*
X7976071Y1886823D1*
Y1801721D1*
Y1886823D2*
X7999066Y1912373D1*
X8014455Y1920824D1*
X8037273D1*
X8052662Y1912373D1*
X8060445Y1886823D1*
Y1801721D1*
X8109856Y1920824D2*
Y1742170D1*
Y1895274D2*
X8125245Y1912176D1*
X8140457Y1920824D1*
X8163452D1*
X8178841Y1912176D1*
X8194053Y1895274D1*
X8201836Y1869724D1*
Y1852625D1*
X8194053Y1827271D1*
X8178841Y1810173D1*
X8163452Y1801721D1*
X8140457D1*
X8125245Y1810173D1*
X8109856Y1827271D1*
X8251248Y1920824D2*
Y1835723D1*
X8258854Y1810369D1*
X8274243Y1801721D1*
X8297238D1*
X8312450Y1810369D1*
X8335445Y1835723D1*
Y1920824D2*
Y1801721D1*
X8407852Y1980375D2*
Y1835723D1*
X8415458Y1810369D1*
X8430847Y1801721D1*
X8446059D1*
X8384857Y1920824D2*
X8438453D1*
X8495471Y1869724D2*
X8587274D1*
Y1886823D1*
X8579668Y1903921D1*
X8572062Y1912373D1*
X8556673Y1920824D1*
X8533678D1*
X8518466Y1912373D1*
X8503077Y1895274D1*
X8495471Y1869724D1*
Y1852821D1*
X8503077Y1827271D1*
X8518466Y1810369D1*
X8533678Y1801721D1*
X8556673D1*
X8572062Y1810369D1*
X8587274Y1827271D1*
X8636686Y1920824D2*
Y1801721D1*
Y1869724D2*
X8644469Y1895274D1*
X8659681Y1912373D1*
X8675070Y1920824D1*
X8698065D1*
X9010211Y1954825D2*
X8994999Y1971924D1*
X8972004Y1980375D1*
X8941403D1*
X8918408Y1971924D1*
X8903019Y1954825D1*
Y1937923D1*
X8910802Y1920824D1*
X8918408Y1912373D1*
X8933620Y1903921D1*
X8979610Y1886823D1*
X8994999Y1878371D1*
X9002605Y1869724D1*
X9010211Y1852821D1*
Y1827271D1*
X8994999Y1810369D1*
X8972004Y1801721D1*
X8941403D1*
X8918408Y1810369D1*
X8903019Y1827271D1*
X9067406Y1920824D2*
X9113219Y1801721D1*
X9098007Y1767720D1*
X9082618Y1750621D1*
X9067406Y1742170D1*
X9059623D1*
X9159209Y1920824D2*
X9113219Y1801721D1*
X9292818Y1895274D2*
X9285212Y1912373D1*
X9262217Y1920824D1*
X9239222D1*
X9216227Y1912373D1*
X9208621Y1895274D1*
X9216227Y1878371D1*
X9231616Y1869724D1*
X9269823Y1861273D1*
X9285212Y1852821D1*
X9292818Y1835723D1*
Y1827271D1*
X9285212Y1810369D1*
X9262217Y1801721D1*
X9239222D1*
X9216227Y1810369D1*
X9208621Y1827271D1*
X9365224Y1980375D2*
Y1835723D1*
X9372830Y1810369D1*
X9388219Y1801721D1*
X9403431D1*
X9342229Y1920824D2*
X9395825D1*
X9452843Y1869724D2*
X9544646D1*
Y1886823D1*
X9537040Y1903921D1*
X9529434Y1912373D1*
X9514045Y1920824D1*
X9491050D1*
X9475838Y1912373D1*
X9460449Y1895274D1*
X9452843Y1869724D1*
Y1852821D1*
X9460449Y1827271D1*
X9475838Y1810369D1*
X9491050Y1801721D1*
X9514045D1*
X9529434Y1810369D1*
X9544646Y1827271D1*
X9594058Y1920824D2*
Y1801721D1*
Y1886823D2*
X9617053Y1912373D1*
X9632442Y1920824D1*
X9655260D1*
X9670649Y1912373D1*
X9678255Y1886823D1*
Y1801721D1*
Y1886823D2*
X9701250Y1912373D1*
X9716639Y1920824D1*
X9739457D1*
X9754846Y1912373D1*
X9762629Y1886823D1*
Y1801721D1*
X9896238Y1895274D2*
X9888632Y1912373D1*
X9865637Y1920824D1*
X9842642D1*
X9819647Y1912373D1*
X9812041Y1895274D1*
X9819647Y1878371D1*
X9835036Y1869724D1*
X9873243Y1861273D1*
X9888632Y1852821D1*
X9896238Y1835723D1*
Y1827271D1*
X9888632Y1810369D1*
X9865637Y1801721D1*
X9842642D1*
X9819647Y1810369D1*
X9812041Y1827271D1*
X7178713Y1639838D2*
X7068259D1*
Y1461185D1*
X7178713D1*
X7068259Y1554737D2*
X7136261D1*
X7233615Y1580287D2*
Y1461185D1*
Y1546286D2*
X7259165Y1571836D1*
X7276264Y1580287D1*
X7301618D1*
X7318717Y1571836D1*
X7327168Y1546286D1*
Y1461185D1*
X7484073Y1571836D2*
Y1435635D1*
X7475622Y1410281D1*
X7467171Y1401634D1*
X7450072Y1393182D1*
X7424522D1*
X7407620Y1401634D1*
X7484073Y1546286D2*
X7467171Y1563188D1*
X7450072Y1571836D1*
X7424522D1*
X7407620Y1563188D1*
X7390521Y1546286D1*
X7382070Y1520736D1*
Y1503637D1*
X7390521Y1478284D1*
X7407620Y1461185D1*
X7424522Y1452734D1*
X7450072D1*
X7467171Y1461185D1*
X7484073Y1478284D1*
X7538975Y1639838D2*
X7547426Y1631387D1*
X7556074Y1639838D1*
X7547426Y1648486D1*
X7538975Y1639838D1*
X7547426Y1580287D2*
Y1461185D1*
X7610976Y1580287D2*
Y1461185D1*
Y1546286D2*
X7636526Y1571836D1*
X7653625Y1580287D1*
X7678978D1*
X7696077Y1571836D1*
X7704528Y1546286D1*
Y1461185D1*
X7759430Y1529187D2*
X7861434D1*
Y1546286D1*
X7852982Y1563385D1*
X7844531Y1571836D1*
X7827432Y1580287D1*
X7801882D1*
X7784980Y1571836D1*
X7767881Y1554737D1*
X7759430Y1529187D1*
Y1512285D1*
X7767881Y1486735D1*
X7784980Y1469832D1*
X7801882Y1461185D1*
X7827432D1*
X7844531Y1469832D1*
X7861434Y1486735D1*
X7916336Y1529187D2*
X8018339D1*
Y1546286D1*
X8009888Y1563385D1*
X8001437Y1571836D1*
X7984338Y1580287D1*
X7958788D1*
X7941886Y1571836D1*
X7924787Y1554737D1*
X7916336Y1529187D1*
Y1512285D1*
X7924787Y1486735D1*
X7941886Y1469832D1*
X7958788Y1461185D1*
X7984338D1*
X8001437Y1469832D1*
X8018339Y1486735D1*
X8073241Y1580287D2*
Y1461185D1*
Y1529187D2*
X8081889Y1554737D1*
X8098791Y1571836D1*
X8115890Y1580287D1*
X8141440D1*
X8196342Y1639838D2*
X8204793Y1631387D1*
X8213441Y1639838D1*
X8204793Y1648486D1*
X8196342Y1639838D1*
X8204793Y1580287D2*
Y1461185D1*
X8268343Y1580287D2*
Y1461185D1*
Y1546286D2*
X8293893Y1571836D1*
X8310991Y1580287D1*
X8336345D1*
X8353444Y1571836D1*
X8361895Y1546286D1*
Y1461185D1*
X8518800Y1571836D2*
Y1435635D1*
X8510349Y1410281D1*
X8501898Y1401634D1*
X8484799Y1393182D1*
X8459249D1*
X8442347Y1401634D1*
X8518800Y1546286D2*
X8501898Y1563188D1*
X8484799Y1571836D1*
X8459249D1*
X8442347Y1563188D1*
X8425248Y1546286D1*
X8416797Y1520736D1*
Y1503637D1*
X8425248Y1478284D1*
X8442347Y1461185D1*
X8459249Y1452734D1*
X8484799D1*
X8501898Y1461185D1*
X8518800Y1478284D1*
X8718265Y1608850D2*
D88*
Y1455718D1*
X8667221Y1608850D2*
X8769309D1*
X8816368Y1514006D2*
X8903799D1*
Y1528662D1*
X8896556Y1543318D1*
X8889312Y1550562D1*
X8874656Y1557806D1*
X8852756D1*
X8838268Y1550562D1*
X8823612Y1535906D1*
X8816368Y1514006D1*
Y1499518D1*
X8823612Y1477618D1*
X8838268Y1463131D1*
X8852756Y1455718D1*
X8874656D1*
X8889312Y1463131D1*
X8903799Y1477618D1*
X9038458Y1535906D2*
X9023802Y1550562D1*
X9009146Y1557806D1*
X8987414D1*
X8972758Y1550562D1*
X8958271Y1535906D1*
X8950858Y1514006D1*
Y1499518D1*
X8958271Y1477618D1*
X8972758Y1463131D1*
X8987414Y1455718D1*
X9009146D1*
X9023802Y1463131D1*
X9038458Y1477618D1*
X9085517Y1608850D2*
Y1455718D1*
Y1528662D2*
X9107417Y1550562D1*
X9122073Y1557806D1*
X9143973D1*
X9158461Y1550562D1*
X9165705Y1528662D1*
Y1455718D1*
X9212764Y1557806D2*
Y1455718D1*
Y1528662D2*
X9234664Y1550562D1*
X9249320Y1557806D1*
X9271051D1*
X9285707Y1550562D1*
X9292951Y1528662D1*
Y1455718D1*
X9376398Y1557806D2*
X9361910Y1550562D1*
X9347254Y1535906D1*
X9340010Y1514006D1*
Y1499518D1*
X9347254Y1477618D1*
X9361910Y1463131D1*
X9376398Y1455718D1*
X9398298D1*
X9412954Y1463131D1*
X9427442Y1477618D1*
X9434854Y1499518D1*
Y1514006D1*
X9427442Y1535906D1*
X9412954Y1550562D1*
X9398298Y1557806D1*
X9376398D1*
X9481913Y1608850D2*
Y1455718D1*
X9565359Y1557806D2*
X9550872Y1550562D1*
X9536215Y1535906D1*
X9528972Y1514006D1*
Y1499518D1*
X9536215Y1477618D1*
X9550872Y1463131D1*
X9565359Y1455718D1*
X9587259D1*
X9601915Y1463131D1*
X9616403Y1477618D1*
X9623815Y1499518D1*
Y1514006D1*
X9616403Y1535906D1*
X9601915Y1550562D1*
X9587259Y1557806D1*
X9565359D1*
X9758306Y1550562D2*
Y1433818D1*
X9751062Y1412087D1*
X9743818Y1404675D1*
X9729162Y1397431D1*
X9707262D1*
X9692774Y1404675D1*
X9758306Y1528662D2*
X9743818Y1543150D1*
X9729162Y1550562D1*
X9707262D1*
X9692774Y1543150D1*
X9678118Y1528662D1*
X9670874Y1506762D1*
Y1492106D1*
X9678118Y1470375D1*
X9692774Y1455718D1*
X9707262Y1448475D1*
X9729162D1*
X9743818Y1455718D1*
X9758306Y1470375D1*
X9812777Y1557806D2*
X9856408Y1455718D1*
X9841921Y1426575D1*
X9827265Y1411918D1*
X9812777Y1404675D1*
X9805365D1*
X9900208Y1557806D2*
X9856408Y1455718D1*
X3010384Y3496383D2*
D90*
X2986238Y3484310D1*
X2961811Y3459883D1*
X2949738Y3423383D1*
Y3399237D1*
X2961811Y3362737D1*
X2986238Y3338591D1*
X3010384Y3326237D1*
X3046884D1*
X3071311Y3338591D1*
X3095457Y3362737D1*
X3107811Y3399237D1*
Y3423383D1*
X3095457Y3459883D1*
X3071311Y3484310D1*
X3046884Y3496383D1*
X3010384D1*
X3186242Y3581457D2*
X3198315Y3569383D1*
X3210669Y3581457D1*
X3198315Y3593810D1*
X3186242Y3581457D1*
X3198315Y3496383D2*
Y3326237D1*
X3325601Y3581457D2*
Y3374810D1*
X3337674Y3338591D1*
X3362101Y3326237D1*
X3386247D1*
X3289101Y3496383D2*
X3374174D1*
X3476751Y3350664D2*
X3464678Y3338310D1*
X3476751Y3326237D1*
X3489105Y3338310D1*
X3476751Y3350664D1*
X3567536Y3423383D2*
X3713256D1*
Y3447810D1*
X3701183Y3472237D1*
X3689109Y3484310D1*
X3664683Y3496383D1*
X3628183D1*
X3604036Y3484310D1*
X3579609Y3459883D1*
X3567536Y3423383D1*
Y3399237D1*
X3579609Y3362737D1*
X3604036Y3338591D1*
X3628183Y3326237D1*
X3664683D1*
X3689109Y3338591D1*
X3713256Y3362737D1*
X3937406Y3581457D2*
Y3326237D1*
Y3459883D2*
X3913260Y3484310D1*
X3888833Y3496383D1*
X3852333D1*
X3828187Y3484310D1*
X3803760Y3459883D1*
X3791687Y3423383D1*
Y3399237D1*
X3803760Y3362737D1*
X3828187Y3338591D1*
X3852333Y3326237D1*
X3888833D1*
X3913260Y3338591D1*
X3937406Y3362737D1*
X4015838Y3496383D2*
Y3374810D1*
X4027911Y3338591D1*
X4052338Y3326237D1*
X4088838D1*
X4112984Y3338591D1*
X4149484Y3374810D1*
Y3496383D2*
Y3326237D1*
X4227915D2*
X4398061Y3581176D1*
X4622493Y3459883D2*
X4598066Y3484310D1*
X4573639Y3496383D1*
X4537420D1*
X4512993Y3484310D1*
X4488847Y3459883D1*
X4476493Y3423383D1*
Y3399237D1*
X4488847Y3362737D1*
X4512993Y3338591D1*
X4537420Y3326237D1*
X4573639D1*
X4598066Y3338591D1*
X4622493Y3362737D1*
X4834570Y3459883D2*
X4822497Y3484310D1*
X4785997Y3496383D1*
X4749497D1*
X4712997Y3484310D1*
X4700924Y3459883D1*
X4712997Y3435737D1*
X4737424Y3423383D1*
X4798070Y3411310D1*
X4822497Y3399237D1*
X4834570Y3374810D1*
Y3362737D1*
X4822497Y3338591D1*
X4785997Y3326237D1*
X4749497D1*
X4712997Y3338591D1*
X4700924Y3362737D1*
X4913002Y3423383D2*
X5058721D1*
Y3447810D1*
X5046648Y3472237D1*
X5034575Y3484310D1*
X5010148Y3496383D1*
X4973648D1*
X4949502Y3484310D1*
X4925075Y3459883D1*
X4913002Y3423383D1*
Y3399237D1*
X4925075Y3362737D1*
X4949502Y3338591D1*
X4973648Y3326237D1*
X5010148D1*
X5034575Y3338591D1*
X5058721Y3362737D1*
X5173652Y3581457D2*
Y3374810D1*
X5185725Y3338591D1*
X5210152Y3326237D1*
X5234298D1*
X5137152Y3496383D2*
X5222225D1*
X6324084Y5696645D2*
D88*
X6404103D1*
X6360472Y5638357D1*
X6382372D1*
X6396860Y5631113D1*
X6404103Y5623869D1*
X6411516Y5601969D1*
Y5587482D1*
X6404103Y5565582D1*
X6389616Y5550926D1*
X6367716Y5543682D1*
X6345816D1*
X6324084Y5550926D1*
X6316840Y5558338D1*
X6309428Y5572826D1*
X6465818Y5558338D2*
X6458575Y5550926D1*
X6465818Y5543682D1*
X6473231Y5550926D1*
X6465818Y5558338D1*
X6534946Y5696645D2*
X6614965D1*
X6571333Y5638357D1*
X6593233D1*
X6607721Y5631113D1*
X6614965Y5623869D1*
X6622377Y5601969D1*
Y5587482D1*
X6614965Y5565582D1*
X6600477Y5550926D1*
X6578577Y5543682D1*
X6556677D1*
X6534946Y5550926D1*
X6527702Y5558338D1*
X6520290Y5572826D1*
X6669436Y5696813D2*
X6727724Y5543682D1*
X6786011Y5696813D1*
X9382660Y5663579D2*
X9375416Y5678067D1*
X9360760Y5692723D1*
X9346272Y5699967D1*
X9317128D1*
X9302472Y5692723D1*
X9287984Y5678067D1*
X9280572Y5663579D1*
X9273328Y5641679D1*
Y5605123D1*
X9280572Y5583391D1*
X9287984Y5568735D1*
X9302472Y5554247D1*
X9317128Y5546835D1*
X9346272D1*
X9360760Y5554247D1*
X9375416Y5568735D1*
X9382660Y5583391D1*
Y5605123D1*
X9346272D1*
X9531806Y5699967D2*
Y5546835D1*
X9429718Y5699967D1*
Y5546835D1*
X9578865Y5699967D2*
Y5546835D1*
X9629909D1*
X9651809Y5554247D1*
X9666465Y5568735D1*
X9673709Y5583391D1*
X9680953Y5605123D1*
Y5641679D1*
X9673709Y5663579D1*
X9666465Y5678067D1*
X9651809Y5692723D1*
X9629909Y5699967D1*
X9578865D1*
X6898660Y4617465D2*
D86*
X6908431Y4622407D1*
X6923031Y4636894D1*
Y4534919D1*
X6983603Y4636894D2*
X6969003Y4632065D1*
X6959232Y4617465D1*
X6954403Y4593207D1*
Y4578607D1*
X6959232Y4554348D1*
X6969003Y4539748D1*
X6983603Y4534919D1*
X6993262D1*
X7007862Y4539748D1*
X7017520Y4554348D1*
X7022462Y4578607D1*
Y4593207D1*
X7017520Y4617465D1*
X7007862Y4632065D1*
X6993262Y4636894D1*
X6983603D1*
X7017520Y4617465D2*
X6959232Y4554348D1*
X6969759Y4339294D2*
X6964817Y4324694D1*
X6955159Y4314923D1*
X6940559Y4310094D1*
X6935730D1*
X6921130Y4314923D1*
X6911471Y4324694D1*
X6906530Y4339294D1*
Y4344123D1*
X6911471Y4358723D1*
X6921130Y4368382D1*
X6935730Y4373211D1*
X6940559D1*
X6955159Y4368382D1*
X6964817Y4358723D1*
X6969759Y4339294D1*
Y4314923D1*
X6964817Y4290665D1*
X6955159Y4276065D1*
X6940559Y4271236D1*
X6930901D1*
X6916301Y4276065D1*
X6911471Y4285836D1*
X6903601Y4125264D2*
Y4057318D1*
Y4033060D2*
X6898660Y4028118D1*
X6903601Y4023289D1*
X6908431Y4028118D1*
X6903601Y4033060D1*
X6939803Y4076747D2*
X6983491D1*
X6998091Y4081689D1*
X7003032Y4086518D1*
X7007862Y4096177D1*
Y4105947D1*
X7003032Y4115606D1*
X6998091Y4120547D1*
X6983491Y4125377D1*
X6939803D1*
Y4023289D1*
X6973832Y4076747D2*
X7007862Y4023289D1*
X7107293Y4110777D2*
X7097634Y4120547D1*
X7083034Y4125377D1*
X7063605D1*
X7049005Y4120547D1*
X7039234Y4110777D1*
Y4101118D1*
X7044176Y4091347D1*
X7049005Y4086518D1*
X7058663Y4081689D1*
X7087863Y4071918D1*
X7097634Y4067089D1*
X7102463Y4062147D1*
X7107293Y4052489D1*
Y4037889D1*
X7097634Y4028230D1*
X7083034Y4023289D1*
X7063605D1*
X7049005Y4028230D1*
X7039234Y4037889D1*
X7172694Y4125377D2*
Y4023289D1*
X7138665Y4125377D2*
X7206724D1*
X6942595Y3873388D2*
X6928107Y3868558D1*
X6923166Y3858900D1*
Y3849129D1*
X6928107Y3839471D1*
X6937766Y3834529D1*
X6957195Y3829700D1*
X6971795Y3824871D1*
X6981453Y3815100D1*
X6986283Y3805441D1*
Y3790841D1*
X6981453Y3781183D1*
X6976624Y3776241D1*
X6962024Y3771412D1*
X6942595D1*
X6928107Y3776241D1*
X6923166Y3781183D1*
X6918336Y3790841D1*
Y3805441D1*
X6923166Y3815100D1*
X6932936Y3824871D1*
X6947424Y3829700D1*
X6966853Y3834529D1*
X6976624Y3839471D1*
X6981453Y3849129D1*
Y3858900D1*
X6976624Y3868558D1*
X6962024Y3873388D1*
X6942595D1*
X6933832Y3503789D2*
X6982462Y3605764D1*
X6914403D1*
X6976624Y3355140D2*
X6971795Y3364798D1*
X6957195Y3369628D1*
X6947536D1*
X6932936Y3364798D1*
X6923166Y3350198D1*
X6918336Y3325940D1*
Y3301681D1*
X6923166Y3282252D1*
X6932936Y3272481D1*
X6947536Y3267652D1*
X6952366D1*
X6966853Y3272481D1*
X6976624Y3282252D1*
X6981453Y3296852D1*
Y3301681D1*
X6976624Y3316281D1*
X6966853Y3325940D1*
X6952366Y3330769D1*
X6947536D1*
X6932936Y3325940D1*
X6923166Y3316281D1*
X6918336Y3301681D1*
X9231896Y4634934D2*
X9217296Y4630105D1*
X9207526Y4615505D1*
X9202696Y4591247D1*
Y4576647D1*
X9207526Y4552388D1*
X9217296Y4537788D1*
X9231896Y4532959D1*
X9241555D1*
X9256155Y4537788D1*
X9265813Y4552388D1*
X9270755Y4576647D1*
Y4591247D1*
X9265813Y4615505D1*
X9256155Y4630105D1*
X9241555Y4634934D1*
X9231896D1*
X9265813Y4615505D2*
X9207526Y4552388D1*
X9228716Y4368308D2*
X9238487Y4373250D1*
X9253087Y4387738D1*
Y4285762D1*
X9220648Y4113033D2*
Y4117862D1*
X9225477Y4127633D1*
X9230306Y4132462D1*
X9240077Y4137291D1*
X9259506D1*
X9269165Y4132462D1*
X9273994Y4127633D1*
X9278936Y4117862D1*
Y4108203D1*
X9273994Y4098433D1*
X9264336Y4083945D1*
X9215706Y4035316D1*
X9283765D1*
X9218971Y3867328D2*
X9272317D1*
X9243229Y3828469D1*
X9257829D1*
X9267487Y3823640D1*
X9272317Y3818811D1*
X9277258Y3804211D1*
Y3794552D1*
X9272317Y3779952D1*
X9262658Y3770181D1*
X9248058Y3765352D1*
X9233458D1*
X9218971Y3770181D1*
X9214141Y3775123D1*
X9209200Y3784781D1*
X9251326Y3518156D2*
Y3620131D1*
X9202696Y3552185D1*
X9275584D1*
X9260984Y3358454D2*
X9212467D1*
X9207638Y3314767D1*
X9212467Y3319596D1*
X9227067Y3324537D1*
X9241555D1*
X9256155Y3319596D1*
X9265926Y3309937D1*
X9270755Y3295337D1*
Y3285679D1*
X9265926Y3271079D1*
X9256155Y3261308D1*
X9241555Y3256479D1*
X9227067D1*
X9212467Y3261308D1*
X9207638Y3266250D1*
X9202696Y3275908D1*
X7608087Y4916230D2*
Y4857943D1*
X7583716Y4901743D2*
X7632346Y4872543D1*
Y4901743D2*
X7583716Y4872543D1*
X2479847Y5553440D2*
D90*
X2467774Y5577587D1*
X2443347Y5602013D1*
X2419201Y5614087D1*
X2370628D1*
X2346201Y5602013D1*
X2322055Y5577587D1*
X2309701Y5553440D1*
X2297628Y5516940D1*
Y5456013D1*
X2309701Y5419794D1*
X2322055Y5395367D1*
X2346201Y5371221D1*
X2370628Y5358867D1*
X2419201D1*
X2443347Y5371221D1*
X2467774Y5395367D1*
X2479847Y5419794D1*
X2618925Y5529013D2*
X2594778Y5516940D1*
X2570352Y5492513D1*
X2558278Y5456013D1*
Y5431867D1*
X2570352Y5395367D1*
X2594778Y5371221D1*
X2618925Y5358867D1*
X2655425D1*
X2679852Y5371221D1*
X2703998Y5395367D1*
X2716352Y5431867D1*
Y5456013D1*
X2703998Y5492513D1*
X2679852Y5516940D1*
X2655425Y5529013D1*
X2618925D1*
X2794783D2*
Y5358867D1*
Y5480440D2*
X2831283Y5516940D1*
X2855710Y5529013D1*
X2891929D1*
X2916356Y5516940D1*
X2928429Y5480440D1*
Y5358867D1*
Y5480440D2*
X2964929Y5516940D1*
X2989356Y5529013D1*
X3025575D1*
X3050002Y5516940D1*
X3062356Y5480440D1*
Y5358867D1*
X3140787Y5529013D2*
Y5273794D1*
Y5492513D2*
X3165214Y5516660D1*
X3189360Y5529013D1*
X3225860D1*
X3250287Y5516660D1*
X3274433Y5492513D1*
X3286787Y5456013D1*
Y5431587D1*
X3274433Y5395367D1*
X3250287Y5370940D1*
X3225860Y5358867D1*
X3189360D1*
X3165214Y5370940D1*
X3140787Y5395367D1*
X3365219Y5529013D2*
Y5407440D1*
X3377292Y5371221D1*
X3401719Y5358867D1*
X3438219D1*
X3462365Y5371221D1*
X3498865Y5407440D1*
Y5529013D2*
Y5358867D1*
X3613796Y5614087D2*
Y5407440D1*
X3625869Y5371221D1*
X3650296Y5358867D1*
X3674442D1*
X3577296Y5529013D2*
X3662369D1*
X3752874Y5456013D2*
X3898593D1*
Y5480440D1*
X3886520Y5504867D1*
X3874447Y5516940D1*
X3850020Y5529013D1*
X3813520D1*
X3789374Y5516940D1*
X3764947Y5492513D1*
X3752874Y5456013D1*
Y5431867D1*
X3764947Y5395367D1*
X3789374Y5371221D1*
X3813520Y5358867D1*
X3850020D1*
X3874447Y5371221D1*
X3898593Y5395367D1*
X3977024Y5529013D2*
Y5358867D1*
Y5456013D2*
X3989378Y5492513D1*
X4013524Y5516940D1*
X4037951Y5529013D1*
X4074451D1*
X3450301Y4937073D2*
X3426155Y4961500D1*
X3389655Y4973573D1*
X3341081D1*
X3304581Y4961500D1*
X3280155Y4937073D1*
Y4912927D1*
X3292508Y4888500D1*
X3304581Y4876427D1*
X3328728Y4864354D1*
X3401728Y4839927D1*
X3426155Y4827854D1*
X3438228Y4815500D1*
X3450301Y4791354D1*
Y4754854D1*
X3426155Y4730708D1*
X3389655Y4718354D1*
X3341081D1*
X3304581Y4730708D1*
X3280155Y4754854D1*
X3589378Y4888500D2*
X3565232Y4876427D1*
X3540805Y4852000D1*
X3528732Y4815500D1*
Y4791354D1*
X3540805Y4754854D1*
X3565232Y4730708D1*
X3589378Y4718354D1*
X3625878D1*
X3650305Y4730708D1*
X3674451Y4754854D1*
X3686805Y4791354D1*
Y4815500D1*
X3674451Y4852000D1*
X3650305Y4876427D1*
X3625878Y4888500D1*
X3589378D1*
X3862383Y4973573D2*
X3838236D1*
X3813810Y4961500D1*
X3801736Y4925000D1*
Y4718354D1*
X3765236Y4888500D2*
X3850310D1*
X3977314Y4973573D2*
Y4766927D1*
X3989387Y4730708D1*
X4013814Y4718354D1*
X4037960D1*
X3940814Y4888500D2*
X4025887D1*
X4116392D2*
X4164965Y4718354D1*
X4213538Y4888500D1*
X4262111Y4718354D1*
X4310684Y4888500D1*
X4534834D2*
Y4718354D1*
Y4852000D2*
X4510688Y4876427D1*
X4486261Y4888500D1*
X4450042D1*
X4425615Y4876427D1*
X4401469Y4852000D1*
X4389115Y4815500D1*
Y4791354D1*
X4401469Y4754854D1*
X4425615Y4730708D1*
X4450042Y4718354D1*
X4486261D1*
X4510688Y4730708D1*
X4534834Y4754854D1*
X4613266Y4888500D2*
Y4718354D1*
Y4815500D2*
X4625620Y4852000D1*
X4649766Y4876427D1*
X4674193Y4888500D1*
X4710693D1*
X4789124Y4815500D2*
X4934843D1*
Y4839927D1*
X4922770Y4864354D1*
X4910697Y4876427D1*
X4886270Y4888500D1*
X4849770D1*
X4825624Y4876427D1*
X4801197Y4852000D1*
X4789124Y4815500D1*
Y4791354D1*
X4801197Y4754854D1*
X4825624Y4730708D1*
X4849770Y4718354D1*
X4886270D1*
X4910697Y4730708D1*
X4934843Y4754854D1*
X4275170Y4324470D2*
X4117378D1*
Y4069251D1*
X4275170D1*
X4117378Y4202897D2*
X4214524D1*
X4353602Y4239397D2*
Y4069251D1*
Y4190824D2*
X4390102Y4227324D1*
X4414528Y4239397D1*
X4450748D1*
X4475175Y4227324D1*
X4487248Y4190824D1*
Y4069251D1*
Y4190824D2*
X4523748Y4227324D1*
X4548175Y4239397D1*
X4584394D1*
X4608821Y4227324D1*
X4621175Y4190824D1*
Y4069251D1*
X4699606Y4324470D2*
Y4069251D1*
Y4202897D2*
X4724033Y4227324D1*
X4748179Y4239397D1*
X4784679D1*
X4808825Y4227324D1*
X4833252Y4202897D1*
X4845325Y4166397D1*
Y4142251D1*
X4833252Y4105751D1*
X4808825Y4081604D1*
X4784679Y4069251D1*
X4748179D1*
X4724033Y4081604D1*
X4699606Y4105751D1*
X4923757Y4166397D2*
X5069476D1*
Y4190824D1*
X5057403Y4215251D1*
X5045330Y4227324D1*
X5020903Y4239397D1*
X4984403D1*
X4960257Y4227324D1*
X4935830Y4202897D1*
X4923757Y4166397D1*
Y4142251D1*
X4935830Y4105751D1*
X4960257Y4081604D1*
X4984403Y4069251D1*
X5020903D1*
X5045330Y4081604D1*
X5069476Y4105751D1*
X5293626Y4324470D2*
Y4069251D1*
Y4202897D2*
X5269480Y4227324D1*
X5245053Y4239397D1*
X5208553D1*
X5184407Y4227324D1*
X5159980Y4202897D1*
X5147907Y4166397D1*
Y4142251D1*
X5159980Y4105751D1*
X5184407Y4081604D1*
X5208553Y4069251D1*
X5245053D1*
X5269480Y4081604D1*
X5293626Y4105751D1*
X5517777Y4324470D2*
Y4069251D1*
Y4202897D2*
X5493631Y4227324D1*
X5469204Y4239397D1*
X5432704D1*
X5408558Y4227324D1*
X5384131Y4202897D1*
X5372058Y4166397D1*
Y4142251D1*
X5384131Y4105751D1*
X5408558Y4081604D1*
X5432704Y4069251D1*
X5469204D1*
X5493631Y4081604D1*
X5517777Y4105751D1*
X5596208Y4166397D2*
X5741928D1*
Y4190824D1*
X5729855Y4215251D1*
X5717781Y4227324D1*
X5693355Y4239397D1*
X5656855D1*
X5632708Y4227324D1*
X5608281Y4202897D1*
X5596208Y4166397D1*
Y4142251D1*
X5608281Y4105751D1*
X5632708Y4081604D1*
X5656855Y4069251D1*
X5693355D1*
X5717781Y4081604D1*
X5741928Y4105751D1*
X5966078Y4324470D2*
Y4069251D1*
Y4202897D2*
X5941932Y4227324D1*
X5917505Y4239397D1*
X5881005D1*
X5856859Y4227324D1*
X5832432Y4202897D1*
X5820359Y4166397D1*
Y4142251D1*
X5832432Y4105751D1*
X5856859Y4081604D1*
X5881005Y4069251D1*
X5917505D1*
X5941932Y4081604D1*
X5966078Y4105751D1*
X8858829Y7977280D2*
D86*
X8795600D1*
Y7875192D1*
Y7928651D2*
X8834458D1*
X8890202Y7943251D2*
Y7894621D1*
X8895031Y7880134D1*
X8904802Y7875192D1*
X8919402D1*
X8929060Y7880134D1*
X8943660Y7894621D1*
Y7943251D2*
Y7875192D1*
X9028491Y7928651D2*
X9023662Y7938421D1*
X9009062Y7943251D1*
X8994462D1*
X8979862Y7938421D1*
X8975033Y7928651D1*
X8979862Y7918992D1*
X8989633Y7914051D1*
X9013891Y7909221D1*
X9023662Y7904392D1*
X9028491Y7894621D1*
Y7889792D1*
X9023662Y7880134D1*
X9009062Y7875192D1*
X8994462D1*
X8979862Y7880134D1*
X8975033Y7889792D1*
X9059864Y7914051D2*
X9118151D1*
Y7923821D1*
X9113322Y7933592D1*
X9108493Y7938421D1*
X9098722Y7943251D1*
X9084122D1*
X9074464Y7938421D1*
X9064693Y7928651D1*
X9059864Y7914051D1*
Y7904392D1*
X9064693Y7889792D1*
X9074464Y7880134D1*
X9084122Y7875192D1*
X9098722D1*
X9108493Y7880134D1*
X9118151Y7889792D1*
X7998980Y4486217D2*
D87*
Y4282041D1*
X8135097Y4486217D2*
Y4282041D1*
X7998980Y4388958D2*
X8135097D1*
X8197842Y4486217D2*
X8207500Y4476558D1*
X8217383Y4486217D1*
X8207500Y4496100D1*
X8197842Y4486217D1*
X8207500Y4418158D2*
Y4282041D1*
X8289787Y4301583D2*
X8280128Y4291700D1*
X8289787Y4282041D1*
X8299670Y4291700D1*
X8289787Y4301583D1*
X2197266Y2759949D2*
D94*
X2226410Y2785471D1*
X2255553Y2759949D1*
X2279083Y2696355D2*
X2348320D1*
X2371850Y2759949D2*
X2400994Y2785471D1*
X2430138Y2759949D1*
X1607949Y1938692D2*
X1637093Y1964214D1*
X1666237Y1938692D1*
X1689766Y1875098D2*
X1759004D1*
X1782533Y1938692D2*
X1811677Y1964214D1*
X1840821Y1938692D1*
M02*
