G04 DipTrace 3.3.1.3*
G04 BottomSilk.gbr*
%MOIN*%
G04 #@! TF.FileFunction,Legend,Bot*
G04 #@! TF.Part,Single*
%ADD10C,0.009843*%
%ADD12C,0.003*%
%ADD31C,0.015403*%
%ADD77C,0.004632*%
%ADD78C,0.00772*%
%ADD79C,0.006176*%
%ADD80C,0.009264*%
%ADD82C,0.016983*%
%FSLAX26Y26*%
G04*
G70*
G90*
G75*
G01*
G04 BotSilk*
%LPD*%
X1306292Y891241D2*
D10*
Y914800D1*
X1207859Y891241D2*
Y914800D1*
D31*
X1707861Y855216D3*
X1708901Y944448D2*
D10*
X1449071D1*
X1708901Y1054696D2*
X1449071D1*
Y944448D2*
Y1054696D1*
X1708901Y944448D2*
Y1054696D1*
X1335427Y1828451D2*
D12*
X1467427D1*
X1500427D2*
X1629427D1*
X1335427Y1825451D2*
X1466401D1*
X1500891D2*
X1629427D1*
X1335427Y1822451D2*
X1465509D1*
X1501634D2*
X1629427D1*
X1335427Y1819451D2*
X1464940D1*
X1502411D2*
X1629427D1*
X1335427Y1816451D2*
X1464634D1*
X1502948D2*
X1629427D1*
X1335427Y1813451D2*
X1464396D1*
X1503333D2*
X1629427D1*
X1335427Y1810451D2*
X1463948D1*
X1503854D2*
X1629427D1*
X1335427Y1807451D2*
X1463068D1*
X1504766D2*
X1629427D1*
X1335427Y1804451D2*
X1407427D1*
X1419902D2*
X1461558D1*
X1506289D2*
X1548902D1*
X1560427D2*
X1629427D1*
X1335427Y1801451D2*
X1404427D1*
X1423761D2*
X1459440D1*
X1508413D2*
X1543761D1*
X1563427D2*
X1629427D1*
X1335427Y1798451D2*
X1401439D1*
X1428009D2*
X1454294D1*
X1513560D2*
X1539009D1*
X1566415D2*
X1629427D1*
X1335427Y1795451D2*
X1398556D1*
X1432605D2*
X1447720D1*
X1520134D2*
X1534605D1*
X1569286D2*
X1629427D1*
X1335427Y1792451D2*
X1396067D1*
X1437427D2*
X1440427D1*
X1527427D2*
X1530427D1*
X1571681D2*
X1629427D1*
X1335427Y1789451D2*
X1394038D1*
X1573499D2*
X1629427D1*
X1335427Y1786451D2*
X1393466D1*
X1573354D2*
X1629427D1*
X1335427Y1783451D2*
X1394500D1*
X1572506D2*
X1629427D1*
X1335427Y1780451D2*
X1396250D1*
X1571061D2*
X1629427D1*
X1335427Y1777451D2*
X1398314D1*
X1569257D2*
X1629427D1*
X1335427Y1774451D2*
X1400345D1*
X1567380D2*
X1629427D1*
X1335427Y1771451D2*
X1402353D1*
X1565436D2*
X1629427D1*
X1335427Y1768451D2*
X1404190D1*
X1563538D2*
X1629427D1*
X1335427Y1765451D2*
X1405653D1*
X1561880D2*
X1629427D1*
X1335427Y1762451D2*
X1405436D1*
X1561363D2*
X1629427D1*
X1335427Y1759451D2*
X1404651D1*
X1561993D2*
X1629427D1*
X1335427Y1756451D2*
X1403571D1*
X1563026D2*
X1629427D1*
X1335427Y1753451D2*
X1402491D1*
X1479427D2*
X1488427D1*
X1564312D2*
X1629427D1*
X1335427Y1750451D2*
X1401427D1*
X1472632D2*
X1495222D1*
X1565775D2*
X1629427D1*
X1335427Y1747451D2*
X1400205D1*
X1467016D2*
X1500827D1*
X1567733D2*
X1629427D1*
X1335427Y1744451D2*
X1397324D1*
X1462587D2*
X1505162D1*
X1570420D2*
X1629427D1*
X1335427Y1741451D2*
X1389448D1*
X1459023D2*
X1508448D1*
X1578356D2*
X1629427D1*
X1335427Y1738451D2*
X1378315D1*
X1456234D2*
X1510902D1*
X1589520D2*
X1629427D1*
X1335427Y1735451D2*
X1365427D1*
X1454026D2*
X1512747D1*
X1602427D2*
X1629427D1*
X1335427Y1732451D2*
X1365427D1*
X1453194D2*
X1514048D1*
X1602427D2*
X1629427D1*
X1335427Y1729451D2*
X1365427D1*
X1452633D2*
X1514797D1*
X1602427D2*
X1629427D1*
X1335427Y1726451D2*
X1365427D1*
X1451967D2*
X1515165D1*
X1602427D2*
X1629427D1*
X1335427Y1723451D2*
X1365427D1*
X1450857D2*
X1515325D1*
X1602427D2*
X1629427D1*
X1335427Y1720451D2*
X1365427D1*
X1449427D2*
X1515389D1*
X1602427D2*
X1629427D1*
X1335427Y1717451D2*
X1365427D1*
X1450824D2*
X1515402D1*
X1602427D2*
X1629427D1*
X1335427Y1714451D2*
X1365427D1*
X1451802D2*
X1515294D1*
X1602427D2*
X1629427D1*
X1335427Y1711451D2*
X1365427D1*
X1452726D2*
X1514797D1*
X1602427D2*
X1629427D1*
X1335427Y1708451D2*
X1365427D1*
X1454044D2*
X1513580D1*
X1602427D2*
X1629427D1*
X1335427Y1705451D2*
X1377954D1*
X1455832D2*
X1511593D1*
X1589900D2*
X1629427D1*
X1335427Y1702451D2*
X1387576D1*
X1458036D2*
X1509083D1*
X1580278D2*
X1629427D1*
X1335427Y1699451D2*
X1394715D1*
X1460785D2*
X1506306D1*
X1573139D2*
X1629427D1*
X1335427Y1696451D2*
X1397690D1*
X1463956D2*
X1503519D1*
X1570062D2*
X1629427D1*
X1335427Y1693451D2*
X1399717D1*
X1467200D2*
X1501156D1*
X1567743D2*
X1629427D1*
X1335427Y1690451D2*
X1401137D1*
X1470427D2*
X1499352D1*
X1565893D2*
X1629427D1*
X1335427Y1687451D2*
X1402447D1*
X1468579D2*
X1499487D1*
X1564276D2*
X1629427D1*
X1335427Y1684451D2*
X1403889D1*
X1466961D2*
X1500242D1*
X1562951D2*
X1629427D1*
X1335427Y1681451D2*
X1405564D1*
X1465643D2*
X1501398D1*
X1561948D2*
X1629427D1*
X1335427Y1678451D2*
X1407427D1*
X1464530D2*
X1502761D1*
X1562654D2*
X1629427D1*
X1335427Y1675451D2*
X1404891D1*
X1463349D2*
X1504205D1*
X1563987D2*
X1629427D1*
X1335427Y1672451D2*
X1402646D1*
X1462029D2*
X1505677D1*
X1565633D2*
X1629427D1*
X1335427Y1669451D2*
X1400528D1*
X1460618D2*
X1507074D1*
X1567490D2*
X1629427D1*
X1335427Y1666451D2*
X1398436D1*
X1459153D2*
X1508285D1*
X1569466D2*
X1629427D1*
X1335427Y1663451D2*
X1396434D1*
X1457670D2*
X1509352D1*
X1571301D2*
X1629427D1*
X1335427Y1660451D2*
X1394338D1*
X1456185D2*
X1510515D1*
X1572774D2*
X1629427D1*
X1335427Y1657451D2*
X1391961D1*
X1454794D2*
X1511819D1*
X1573869D2*
X1629427D1*
X1335427Y1654451D2*
X1389427D1*
X1453678D2*
X1513149D1*
X1573391D2*
X1629427D1*
X1335427Y1651451D2*
X1393453D1*
X1452953D2*
X1514360D1*
X1571443D2*
X1629427D1*
X1335427Y1648451D2*
X1397346D1*
X1434427D2*
X1440427D1*
X1452427D2*
X1515427D1*
X1527427D2*
X1533427D1*
X1569010D2*
X1629427D1*
X1335427Y1645451D2*
X1400917D1*
X1429480D2*
X1538278D1*
X1566264D2*
X1629427D1*
X1335427Y1642451D2*
X1404226D1*
X1424500D2*
X1542912D1*
X1563367D2*
X1629427D1*
X1335427Y1639451D2*
X1407427D1*
X1419427D2*
X1547270D1*
X1560407D2*
X1629427D1*
X1335427Y1636451D2*
X1551427D1*
X1557427D2*
X1629427D1*
X1335427Y1633451D2*
X1629427D1*
X1335427Y1630451D2*
X1629427D1*
X1335427Y1627451D2*
X1629427D1*
X1335427Y1624451D2*
X1629427D1*
X1335427Y1621451D2*
X1629427D1*
X1335427Y1618451D2*
X1629404D1*
X1335439Y1615451D2*
X1629175D1*
X1335544Y1612451D2*
X1628630D1*
X1335927Y1609451D2*
X1341427D1*
X1347427D2*
X1368427D1*
X1374427D2*
X1389427D1*
X1395427D2*
X1401427D1*
X1407427D2*
X1413427D1*
X1419427D2*
X1453492D1*
X1458439D2*
X1482427D1*
X1488427D2*
X1525606D1*
X1530553D2*
X1557427D1*
X1563427D2*
X1620415D1*
X1626427D2*
X1626292D1*
X1336646Y1606451D2*
X1335427D1*
X1341427D2*
X1347427D1*
X1353427D2*
X1362427D1*
X1368427D2*
X1374427D1*
X1380301D2*
X1395427D1*
X1407427D2*
X1413427D1*
X1419427D2*
X1431427D1*
X1437427D2*
X1449598D1*
X1455556D2*
X1458427D1*
X1467891D2*
X1476427D1*
X1482427D2*
X1491240D1*
X1497266D2*
X1521550D1*
X1528055D2*
X1532837D1*
X1542427D2*
X1552017D1*
X1557427D2*
X1563427D1*
X1568952D2*
X1582017D1*
X1588017D2*
X1592837D1*
X1605427D2*
X1610963D1*
X1620427D2*
X1623298D1*
X1340031Y1603451D2*
X1350427D1*
X1356427D2*
X1376826D1*
X1382788D2*
X1396812D1*
X1407427D2*
X1413427D1*
X1419427D2*
X1431427D1*
X1437427D2*
X1446870D1*
X1453055D2*
X1460837D1*
X1468634D2*
X1489927D1*
X1496876D2*
X1519951D1*
X1526273D2*
X1534592D1*
X1542427D2*
X1550262D1*
X1555833D2*
X1565021D1*
X1571079D2*
X1580262D1*
X1586262D2*
X1594592D1*
X1605427D2*
X1610219D1*
X1618016D2*
X1625799D1*
X1339104Y1600451D2*
X1378819D1*
X1384816D2*
X1397673D1*
X1407427D2*
X1413427D1*
X1419427D2*
X1431427D1*
X1437427D2*
X1444825D1*
X1451285D2*
X1462580D1*
X1469399D2*
X1486095D1*
X1494773D2*
X1519079D1*
X1525261D2*
X1535597D1*
X1542427D2*
X1549254D1*
X1554427D2*
X1566427D1*
X1572697D2*
X1579257D1*
X1585269D2*
X1595597D1*
X1605427D2*
X1609435D1*
X1616251D2*
X1627569D1*
X1359427Y1597451D2*
X1379436D1*
X1385435D2*
X1398109D1*
X1407427D2*
X1413427D1*
X1419427D2*
X1431380D1*
X1437415D2*
X1444220D1*
X1450102D2*
X1463752D1*
X1469808D2*
X1481812D1*
X1490233D2*
X1518683D1*
X1524771D2*
X1536084D1*
X1542427D2*
X1548744D1*
X1573897D2*
X1578782D1*
X1584923D2*
X1596084D1*
X1605427D2*
X1608864D1*
X1615177D2*
X1628752D1*
X1335427Y1594451D2*
X1353427D1*
X1359427D2*
X1378807D1*
X1384827D2*
X1398303D1*
X1407427D2*
X1413427D1*
X1419427D2*
X1431240D1*
X1437301D2*
X1444218D1*
X1450209D2*
X1463566D1*
X1469866D2*
X1478315D1*
X1485730D2*
X1518522D1*
X1524560D2*
X1536295D1*
X1542427D2*
X1566427D1*
X1573545D2*
X1578685D1*
X1585011D2*
X1596295D1*
X1605427D2*
X1608427D1*
X1614427D2*
X1628645D1*
X1335427Y1591451D2*
X1376289D1*
X1383732D2*
X1398381D1*
X1407427D2*
X1413427D1*
X1419427D2*
X1429833D1*
X1436837D2*
X1444786D1*
X1452264D2*
X1462706D1*
X1468577D2*
X1475760D1*
X1482237D2*
X1518460D1*
X1524476D2*
X1536379D1*
X1542427D2*
X1565876D1*
X1572604D2*
X1579065D1*
X1586812D2*
X1596379D1*
X1605427D2*
X1626590D1*
X1335427Y1588451D2*
X1350427D1*
X1356427D2*
X1369976D1*
X1382208D2*
X1398412D1*
X1407427D2*
X1413427D1*
X1419427D2*
X1425158D1*
X1435812D2*
X1445605D1*
X1457847D2*
X1461427D1*
X1466661D2*
X1475580D1*
X1479427D2*
X1518438D1*
X1524443D2*
X1536411D1*
X1542427D2*
X1564823D1*
X1571159D2*
X1580058D1*
X1591258D2*
X1596410D1*
X1605427D2*
X1613156D1*
X1617427D2*
X1621007D1*
X1335427Y1585451D2*
D3*
X1341427D2*
X1347427D1*
X1353427D2*
X1362427D1*
X1380427D2*
X1398427D1*
X1407427D2*
X1413427D1*
X1419427D2*
D3*
X1434427D2*
X1446427D1*
X1464427D2*
X1476427D1*
X1485427D2*
X1488427D1*
X1497427D2*
X1518427D1*
X1524427D2*
X1536427D1*
X1542427D2*
X1551427D1*
X1557427D2*
X1563427D1*
X1569427D2*
X1581427D1*
X1596427D2*
X1596421D1*
X1605427D2*
X1618629D1*
X1335427Y1582451D2*
X1596425D1*
X1605427D2*
X1623517D1*
X1335427Y1579451D2*
X1596426D1*
X1605427D2*
X1627209D1*
X1335427Y1576451D2*
X1596427D1*
X1605427D2*
X1628381D1*
X1335427Y1573451D2*
X1494427D1*
X1500427D2*
X1596427D1*
X1605427D2*
X1628994D1*
X1335427Y1570451D2*
X1494427D1*
X1500439D2*
X1596427D1*
X1605427D2*
X1629261D1*
X1335427Y1567451D2*
X1494427D1*
X1500553D2*
X1596427D1*
X1605427D2*
X1629367D1*
X1335427Y1564451D2*
X1494427D1*
X1501017D2*
X1596427D1*
X1605427D2*
X1629406D1*
X1335427Y1561451D2*
X1371902D1*
X1386301D2*
X1394122D1*
X1407427D2*
D3*
X1413427D2*
X1425902D1*
X1443427D2*
X1449541D1*
X1455541D2*
X1467427D1*
X1473427D2*
X1486005D1*
X1492005D2*
X1494427D1*
X1502042D2*
X1501772D1*
X1515301D2*
X1521427D1*
X1533427D2*
X1536427D1*
X1542427D2*
X1552017D1*
X1569427D2*
X1582017D1*
X1596427D2*
D3*
X1605427D2*
X1629420D1*
X1335427Y1558451D2*
X1369763D1*
X1374427D2*
X1383427D1*
X1388799D2*
X1400129D1*
X1413427D2*
X1423763D1*
X1428427D2*
X1449926D1*
X1455926D2*
X1464427D1*
X1473427D2*
X1484145D1*
X1490145D2*
X1494427D1*
X1503427D2*
X1507421D1*
X1517799D2*
X1533427D1*
X1542427D2*
X1550262D1*
X1554427D2*
X1580262D1*
X1587427D2*
X1596427D1*
X1605427D2*
X1629425D1*
X1335427Y1555451D2*
X1368039D1*
X1374427D2*
X1385021D1*
X1390581D2*
X1404607D1*
X1413427D2*
X1422040D1*
X1428427D2*
X1450645D1*
X1456645D2*
X1482758D1*
X1488758D2*
X1494427D1*
X1502054D2*
X1511698D1*
X1519581D2*
X1534812D1*
X1542427D2*
X1549257D1*
X1554427D2*
X1579257D1*
X1586042D2*
X1596427D1*
X1605427D2*
X1629426D1*
X1335427Y1552451D2*
X1366774D1*
X1374427D2*
X1386427D1*
X1391582D2*
X1406079D1*
X1413427D2*
X1420783D1*
X1428427D2*
X1451422D1*
X1457422D2*
X1470427D1*
X1476427D2*
X1481552D1*
X1487540D2*
X1494427D1*
X1501298D2*
X1513751D1*
X1520582D2*
X1535673D1*
X1542427D2*
X1548770D1*
X1554427D2*
X1578770D1*
X1585181D2*
X1596427D1*
X1605427D2*
X1629427D1*
X1335427Y1549451D2*
X1365987D1*
X1391957D2*
X1406861D1*
X1413427D2*
X1420049D1*
X1436378D2*
X1451991D1*
X1457991D2*
X1461427D1*
X1467427D2*
X1470427D1*
X1476427D2*
X1480564D1*
X1486446D2*
X1494427D1*
X1501246D2*
X1514427D1*
X1520957D2*
X1536109D1*
X1542427D2*
X1548559D1*
X1563010D2*
X1578559D1*
X1584745D2*
X1596427D1*
X1605427D2*
X1629427D1*
X1335427Y1546451D2*
X1386427D1*
X1391705D2*
X1407209D1*
X1413427D2*
X1419686D1*
X1428427D2*
X1440427D1*
X1442513D2*
X1452427D1*
X1458427D2*
X1479909D1*
X1485373D2*
X1494427D1*
X1501796D2*
X1513923D1*
X1520705D2*
X1536303D1*
X1542427D2*
X1548475D1*
X1554427D2*
X1566427D1*
X1569720D2*
X1578475D1*
X1584551D2*
X1596427D1*
X1605427D2*
X1629427D1*
X1335427Y1543451D2*
X1385021D1*
X1390766D2*
X1407351D1*
X1413427D2*
X1419522D1*
X1428427D2*
X1440427D1*
X1444737D2*
X1458427D1*
X1464427D2*
X1473427D1*
X1479427D2*
D3*
X1484021D2*
X1494427D1*
X1502609D2*
X1513186D1*
X1519766D2*
X1536384D1*
X1542427D2*
X1548443D1*
X1554427D2*
X1569427D1*
X1575427D2*
X1578443D1*
X1584470D2*
X1596427D1*
X1605427D2*
X1629427D1*
X1335427Y1540451D2*
X1368427D1*
X1374427D2*
X1383427D1*
X1389427D2*
X1407427D1*
X1413427D2*
X1419427D1*
X1428427D2*
X1440427D1*
X1446427D2*
X1455427D1*
X1464427D2*
X1473427D1*
X1482427D2*
X1494427D1*
X1503427D2*
X1512427D1*
X1518427D2*
X1536427D1*
X1542427D2*
X1548427D1*
X1554427D2*
X1566427D1*
X1572427D2*
X1578427D1*
X1584427D2*
X1596427D1*
X1605427D2*
X1629427D1*
X1325945Y2509501D2*
X2015945D1*
X1325945Y2506501D2*
X2015945D1*
X1325945Y2503501D2*
X2015945D1*
X1325945Y2500501D2*
X2015945D1*
X1325945Y2497501D2*
X2015945D1*
X1325945Y2494501D2*
X2015945D1*
X1325945Y2491501D2*
X2015945D1*
X1325945Y2488501D2*
X2015945D1*
X1325945Y2485501D2*
X2015945D1*
X1325945Y2482501D2*
X2015945D1*
X1325945Y2479501D2*
X2015945D1*
X1325945Y2476501D2*
X2015945D1*
X1007945Y2473501D2*
X1037945D1*
X1325945D2*
X2015945D1*
X848945Y2470501D2*
X881945D1*
X917945D2*
X950945D1*
X1001509D2*
X1044855D1*
X1091945D2*
X1181945D1*
X1196945D2*
X1289945D1*
X1325945D2*
X1905071D1*
X1943831D2*
X2015945D1*
X848945Y2467501D2*
X881945D1*
X917945D2*
X950945D1*
X995862D2*
X1050844D1*
X1091945D2*
X1181945D1*
X1196945D2*
X1289945D1*
X1325945D2*
X1899573D1*
X1949423D2*
X2015945D1*
X848945Y2464501D2*
X881945D1*
X917945D2*
X950945D1*
X991300D2*
X1055898D1*
X1091945D2*
X1181945D1*
X1196945D2*
X1289945D1*
X1325945D2*
X1894792D1*
X1954481D2*
X2015945D1*
X848945Y2461501D2*
X881945D1*
X917945D2*
X950945D1*
X987636D2*
X1059966D1*
X1091945D2*
X1181945D1*
X1196945D2*
X1289945D1*
X1325945D2*
X1890791D1*
X1958830D2*
X2015945D1*
X848945Y2458501D2*
X881945D1*
X917945D2*
X950945D1*
X984781D2*
X1063048D1*
X1091945D2*
X1181945D1*
X1196945D2*
X1289945D1*
X1325945D2*
X1887407D1*
X1962359D2*
X2015945D1*
X848945Y2455501D2*
X881945D1*
X917945D2*
X950945D1*
X982755D2*
X1065565D1*
X1091945D2*
X1181945D1*
X1196945D2*
X1289945D1*
X1325945D2*
X1884578D1*
X1965219D2*
X2015945D1*
X848945Y2452501D2*
X881945D1*
X917945D2*
X950945D1*
X981296D2*
X1067817D1*
X1091945D2*
X1181945D1*
X1196945D2*
X1289945D1*
X1325945D2*
X1588125D1*
X1594291D2*
X1882224D1*
X1967664D2*
X2015945D1*
X848945Y2449501D2*
X881945D1*
X917945D2*
X950945D1*
X979964D2*
X1069771D1*
X1091945D2*
X1181945D1*
X1196945D2*
X1289945D1*
X1325945D2*
X1584068D1*
X1599951D2*
X1880079D1*
X1922945D2*
X1925945D1*
X1969709D2*
X2015945D1*
X848945Y2446501D2*
X881945D1*
X917945D2*
X950945D1*
X978595D2*
X1015010D1*
X1030880D2*
X1071412D1*
X1151945D2*
X1181945D1*
X1196945D2*
X1289945D1*
X1325945D2*
X1582201D1*
X1603789D2*
X1878078D1*
X1917651D2*
X1931240D1*
X1971388D2*
X2015945D1*
X848945Y2443501D2*
X881945D1*
X917945D2*
X950945D1*
X977255D2*
X1011117D1*
X1034786D2*
X1072733D1*
X1151945D2*
X1181945D1*
X1226945D2*
X1259945D1*
X1325945D2*
X1581791D1*
X1606405D2*
X1876465D1*
X1913789D2*
X1935102D1*
X1972724D2*
X2015945D1*
X848945Y2440501D2*
X881945D1*
X917945D2*
X950945D1*
X976070D2*
X1008377D1*
X1037620D2*
X1073832D1*
X1151945D2*
X1181945D1*
X1226945D2*
X1259945D1*
X1325945D2*
X1581773D1*
X1608307D2*
X1875196D1*
X1911193D2*
X1937698D1*
X1973829D2*
X2015945D1*
X848945Y2437501D2*
X881945D1*
X917945D2*
X950945D1*
X975025D2*
X1006527D1*
X1039746D2*
X1074907D1*
X1151945D2*
X1181945D1*
X1226945D2*
X1259945D1*
X1325945D2*
X1586023D1*
X1609753D2*
X1874028D1*
X1909550D2*
X1939353D1*
X1974906D2*
X2015945D1*
X848945Y2434501D2*
X881945D1*
X917945D2*
X950945D1*
X973972D2*
X1005200D1*
X1041409D2*
X1075844D1*
X1151945D2*
X1181945D1*
X1226945D2*
X1259945D1*
X1325945D2*
X1395547D1*
X1424357D2*
X1436945D1*
X1466945D2*
X1512071D1*
X1546869D2*
X1590478D1*
X1610945D2*
X1616945D1*
X1651869D2*
X1722071D1*
X1753766D2*
X1790945D1*
X1801652D2*
X1820945D1*
X1850945D2*
X1872962D1*
X1908659D2*
X1940349D1*
X1975844D2*
X2015945D1*
X848945Y2431501D2*
X881945D1*
X917945D2*
X950945D1*
X973054D2*
X1004036D1*
X1042636D2*
X1076536D1*
X1151945D2*
X1181945D1*
X1226945D2*
X1259945D1*
X1325945D2*
X1390898D1*
X1429122D2*
X1436945D1*
X1466945D2*
X1506585D1*
X1553657D2*
X1594040D1*
X1658657D2*
X1716573D1*
X1760275D2*
X1790945D1*
X1807776D2*
X1820945D1*
X1850945D2*
X1871980D1*
X1908226D2*
X1941153D1*
X1976536D2*
X2015945D1*
X848945Y2428501D2*
X881945D1*
X917945D2*
X950945D1*
X972471D2*
X1003076D1*
X1043455D2*
X1077220D1*
X1151945D2*
X1181945D1*
X1226945D2*
X1259945D1*
X1325945D2*
X1387287D1*
X1433195D2*
X1436945D1*
X1466945D2*
X1501909D1*
X1558991D2*
X1596642D1*
X1663991D2*
X1711803D1*
X1765273D2*
X1790945D1*
X1812055D2*
X1820945D1*
X1850945D2*
X1870955D1*
X1907940D2*
X1942051D1*
X1977220D2*
X2015945D1*
X848945Y2425501D2*
X881945D1*
X917945D2*
X950945D1*
X972169D2*
X1002476D1*
X1044190D2*
X1078075D1*
X1151945D2*
X1181945D1*
X1226945D2*
X1259945D1*
X1325945D2*
X1384635D1*
X1436945D2*
D3*
X1466945D2*
X1498290D1*
X1562911D2*
X1596981D1*
X1667911D2*
X1707896D1*
X1769142D2*
X1790945D1*
X1815143D2*
X1820945D1*
X1850945D2*
X1870048D1*
X1907487D2*
X1942892D1*
X1978075D2*
X2015945D1*
X848945Y2422501D2*
X881945D1*
X917945D2*
X950945D1*
X972028D2*
X1002153D1*
X1045064D2*
X1078900D1*
X1151945D2*
X1181945D1*
X1226945D2*
X1259945D1*
X1325945D2*
X1382693D1*
X1466945D2*
X1495625D1*
X1565704D2*
X1596128D1*
X1628945D2*
X1637945D1*
X1670693D2*
X1704801D1*
X1772181D2*
X1790945D1*
X1817542D2*
X1820945D1*
X1850945D2*
X1869468D1*
X1906742D2*
X1943441D1*
X1978900D2*
X2015945D1*
X848945Y2419501D2*
X881945D1*
X917945D2*
X950945D1*
X971945D2*
X1001945D1*
X1045896D2*
X1079444D1*
X1151945D2*
X1181945D1*
X1226945D2*
X1259945D1*
X1325945D2*
X1381351D1*
X1466945D2*
X1493577D1*
X1567897D2*
X1594965D1*
X1627097D2*
X1640356D1*
X1672780D2*
X1702425D1*
X1774619D2*
X1790945D1*
X1819224D2*
X1820945D1*
X1850945D2*
X1869169D1*
X1905963D2*
X1943729D1*
X1979444D2*
X2015945D1*
X848945Y2416501D2*
X950945D1*
X1046443D2*
X1079730D1*
X1103945D2*
X1181945D1*
X1226945D2*
X1259945D1*
X1325945D2*
X1380585D1*
X1421945D2*
X1424945D1*
X1466945D2*
X1491851D1*
X1523945D2*
X1538945D1*
X1569923D2*
X1593618D1*
X1625492D2*
X1642110D1*
X1674423D2*
X1700598D1*
X1727945D2*
X1745945D1*
X1776795D2*
X1790945D1*
X1820238D2*
X1820945D1*
X1850945D2*
X1869034D1*
X1905437D2*
X1943860D1*
X1979730D2*
X2015945D1*
X848945Y2413501D2*
X950945D1*
X1046730D2*
X1079860D1*
X1103945D2*
X1181945D1*
X1226945D2*
X1259945D1*
X1325945D2*
X1380211D1*
X1418150D2*
X1428741D1*
X1466945D2*
X1490355D1*
X1522561D2*
X1539971D1*
X1571848D2*
X1592282D1*
X1624279D2*
X1643115D1*
X1675630D2*
X1699202D1*
X1726920D2*
X1747444D1*
X1778807D2*
X1790945D1*
X1820945D2*
D3*
X1850945D2*
X1868978D1*
X1905157D2*
X1943913D1*
X1979860D2*
X2015945D1*
X848945Y2410501D2*
X950945D1*
X1046860D2*
X1079913D1*
X1103945D2*
X1181945D1*
X1226945D2*
X1259945D1*
X1325945D2*
X1380048D1*
X1415097D2*
X1431794D1*
X1466945D2*
X1489107D1*
X1521699D2*
X1540864D1*
X1573339D2*
X1591195D1*
X1623560D2*
X1643602D1*
X1676340D2*
X1698074D1*
X1726027D2*
X1748691D1*
X1780424D2*
X1790945D1*
X1850945D2*
X1868957D1*
X1905030D2*
X1943934D1*
X1979913D2*
X2015945D1*
X848945Y2407501D2*
X950945D1*
X1046913D2*
X1079934D1*
X1103945D2*
X1181945D1*
X1226945D2*
X1259945D1*
X1325945D2*
X1379983D1*
X1413984D2*
X1432907D1*
X1466945D2*
X1488039D1*
X1521251D2*
X1541433D1*
X1574319D2*
X1590540D1*
X1623203D2*
X1643813D1*
X1676680D2*
X1696989D1*
X1725458D2*
X1749846D1*
X1781694D2*
X1799473D1*
X1850945D2*
X1868949D1*
X1904977D2*
X1943941D1*
X1979934D2*
X2015945D1*
X848945Y2404501D2*
X950945D1*
X1046934D2*
X1079941D1*
X1103945D2*
X1181945D1*
X1226945D2*
X1259945D1*
X1325945D2*
X1379959D1*
X1413385D2*
X1433505D1*
X1466945D2*
X1486977D1*
X1520952D2*
X1541726D1*
X1575135D2*
X1590309D1*
X1623058D2*
X1643885D1*
X1676729D2*
X1696060D1*
X1725164D2*
X1750809D1*
X1782850D2*
X1805802D1*
X1850945D2*
X1868947D1*
X1904957D2*
X1943944D1*
X1979941D2*
X2015945D1*
X848945Y2401501D2*
X950945D1*
X1046941D2*
X1079944D1*
X1103945D2*
X1181945D1*
X1226945D2*
X1259945D1*
X1325945D2*
X1379950D1*
X1413117D2*
X1433774D1*
X1466945D2*
X1486056D1*
X1520492D2*
X1541859D1*
X1576043D2*
X1590553D1*
X1623111D2*
X1643799D1*
X1676398D2*
X1695472D1*
X1725032D2*
X1751412D1*
X1783811D2*
X1810656D1*
X1850945D2*
X1868946D1*
X1904949D2*
X1943945D1*
X1979944D2*
X2015945D1*
X848945Y2398501D2*
X950945D1*
X1046944D2*
X1079945D1*
X1103945D2*
X1181945D1*
X1226945D2*
X1259945D1*
X1325945D2*
X1379947D1*
X1413008D2*
X1433882D1*
X1466945D2*
X1485471D1*
X1519744D2*
X1541925D1*
X1576888D2*
X1591316D1*
X1623586D2*
X1643312D1*
X1675586D2*
X1695158D1*
X1724976D2*
X1751737D1*
X1784411D2*
X1812869D1*
X1850945D2*
X1868946D1*
X1904947D2*
X1943945D1*
X1979945D2*
X2015945D1*
X848945Y2395501D2*
X950945D1*
X1046945D2*
X1079945D1*
X1103945D2*
X1181945D1*
X1226945D2*
X1259945D1*
X1325945D2*
X1379946D1*
X1412968D2*
X1433923D1*
X1466945D2*
X1485170D1*
X1518964D2*
X1542051D1*
X1577440D2*
X1592468D1*
X1624785D2*
X1642108D1*
X1674314D2*
X1694917D1*
X1724945D2*
X1751945D1*
X1784718D2*
X1814465D1*
X1850945D2*
X1868945D1*
X1904958D2*
X1943945D1*
X1979945D2*
X2015945D1*
X848945Y2392501D2*
X950945D1*
X1046934D2*
X1079945D1*
X1103945D2*
X1181945D1*
X1226945D2*
X1259945D1*
X1325945D2*
X1379946D1*
X1412953D2*
X1433938D1*
X1466945D2*
X1485034D1*
X1518437D2*
X1542429D1*
X1577729D2*
X1593936D1*
X1626700D2*
X1640191D1*
X1672482D2*
X1694479D1*
X1784856D2*
X1815764D1*
X1850945D2*
X1868945D1*
X1905063D2*
X1943945D1*
X1979934D2*
X2015945D1*
X848945Y2389501D2*
X950945D1*
X1046828D2*
X1079934D1*
X1151945D2*
X1181945D1*
X1226945D2*
X1259945D1*
X1325945D2*
X1379945D1*
X1412948D2*
X1433943D1*
X1466945D2*
X1484978D1*
X1518157D2*
X1543045D1*
X1577860D2*
X1595979D1*
X1628945D2*
X1637945D1*
X1669947D2*
X1693739D1*
X1784912D2*
X1816780D1*
X1850945D2*
X1868957D1*
X1905445D2*
X1943934D1*
X1979828D2*
X2015945D1*
X848945Y2386501D2*
X881945D1*
X917945D2*
X950945D1*
X1046446D2*
X1079828D1*
X1151945D2*
X1181945D1*
X1226945D2*
X1259945D1*
X1325945D2*
X1379945D1*
X1412946D2*
X1433945D1*
X1466945D2*
X1484957D1*
X1518030D2*
X1543433D1*
X1577913D2*
X1599065D1*
X1667030D2*
X1692954D1*
X1784934D2*
X1817401D1*
X1850945D2*
X1869063D1*
X1906163D2*
X1943828D1*
X1979446D2*
X2015945D1*
X848945Y2383501D2*
X881945D1*
X917945D2*
X950945D1*
X971945D2*
X1001945D1*
X1045727D2*
X1079446D1*
X1151945D2*
X1181945D1*
X1226945D2*
X1259945D1*
X1325945D2*
X1379945D1*
X1412946D2*
X1433945D1*
X1466945D2*
X1484949D1*
X1517989D2*
X1543238D1*
X1577934D2*
X1603370D1*
X1664328D2*
X1692383D1*
X1784941D2*
X1817715D1*
X1850945D2*
X1869445D1*
X1906933D2*
X1943446D1*
X1978727D2*
X2015945D1*
X848945Y2380501D2*
X881945D1*
X917945D2*
X950945D1*
X971945D2*
X1002421D1*
X1044946D2*
X1078716D1*
X1151945D2*
X1181945D1*
X1226945D2*
X1259945D1*
X1325945D2*
X1379945D1*
X1412945D2*
X1433945D1*
X1466945D2*
X1484947D1*
X1518074D2*
X1542747D1*
X1577930D2*
X1608537D1*
X1661945D2*
X1751945D1*
X1784944D2*
X1817855D1*
X1850945D2*
X1870163D1*
X1907456D2*
X1942727D1*
X1977946D2*
X2015945D1*
X848945Y2377501D2*
X881945D1*
X917945D2*
X950945D1*
X971957D2*
X1003270D1*
X1044318D2*
X1077841D1*
X1151945D2*
X1181945D1*
X1226945D2*
X1259945D1*
X1325945D2*
X1379945D1*
X1412945D2*
X1433945D1*
X1466945D2*
X1484958D1*
X1518449D2*
X1542351D1*
X1577827D2*
X1614160D1*
X1666319D2*
X1751945D1*
X1784945D2*
X1817912D1*
X1850945D2*
X1870944D1*
X1907746D2*
X1941946D1*
X1977318D2*
X2015945D1*
X848945Y2374501D2*
X881945D1*
X917945D2*
X950945D1*
X972063D2*
X1004441D1*
X1043646D2*
X1076935D1*
X1151945D2*
X1181945D1*
X1226945D2*
X1259945D1*
X1325945D2*
X1379945D1*
X1412945D2*
X1433945D1*
X1466945D2*
X1485063D1*
X1519165D2*
X1542125D1*
X1577445D2*
X1649945D1*
X1670075D2*
X1751945D1*
X1784934D2*
X1817933D1*
X1850945D2*
X1871573D1*
X1907978D2*
X1941318D1*
X1976657D2*
X2015945D1*
X848945Y2371501D2*
X881945D1*
X917945D2*
X950945D1*
X972457D2*
X1005802D1*
X1042683D2*
X1075927D1*
X1151945D2*
X1181945D1*
X1226945D2*
X1259945D1*
X1325945D2*
X1379945D1*
X1412945D2*
X1433945D1*
X1466945D2*
X1485445D1*
X1519933D2*
X1542018D1*
X1576727D2*
X1651207D1*
X1673117D2*
X1751934D1*
X1784828D2*
X1817941D1*
X1850945D2*
X1872245D1*
X1908425D2*
X1940646D1*
X1975800D2*
X2015945D1*
X848945Y2368501D2*
X881945D1*
X917945D2*
X950945D1*
X973281D2*
X1007349D1*
X1041362D2*
X1074925D1*
X1151945D2*
X1181945D1*
X1226945D2*
X1259945D1*
X1325945D2*
X1379945D1*
X1412945D2*
X1433945D1*
X1466945D2*
X1486175D1*
X1520456D2*
X1541961D1*
X1575946D2*
X1651958D1*
X1675474D2*
X1751828D1*
X1784434D2*
X1817944D1*
X1850945D2*
X1873196D1*
X1909281D2*
X1939683D1*
X1974873D2*
X2015945D1*
X848945Y2365501D2*
X881945D1*
X917945D2*
X950945D1*
X974444D2*
X1009209D1*
X1039609D2*
X1073955D1*
X1151945D2*
X1181945D1*
X1226945D2*
X1259945D1*
X1325945D2*
X1379945D1*
X1412945D2*
X1433945D1*
X1466945D2*
X1487050D1*
X1520746D2*
X1541838D1*
X1575318D2*
X1651126D1*
X1677284D2*
X1695060D1*
X1721470D2*
X1751434D1*
X1783610D2*
X1817945D1*
X1850945D2*
X1874412D1*
X1910557D2*
X1938362D1*
X1973935D2*
X2015945D1*
X848945Y2362501D2*
X881945D1*
X917945D2*
X950945D1*
X975791D2*
X1011476D1*
X1037389D2*
X1072821D1*
X1151945D2*
X1181945D1*
X1226945D2*
X1259945D1*
X1325945D2*
X1379945D1*
X1412945D2*
X1433945D1*
X1466945D2*
X1487955D1*
X1521002D2*
X1541426D1*
X1574646D2*
X1649945D1*
X1678561D2*
X1695456D1*
X1723644D2*
X1750587D1*
X1782447D2*
X1817945D1*
X1850945D2*
X1875780D1*
X1912292D2*
X1936609D1*
X1972814D2*
X2015945D1*
X848945Y2359501D2*
X881945D1*
X917945D2*
X950945D1*
X977232D2*
X1013945D1*
X1034945D2*
X1071430D1*
X1151945D2*
X1181945D1*
X1226945D2*
X1259945D1*
X1325945D2*
X1379945D1*
X1412945D2*
X1433945D1*
X1466945D2*
X1488964D1*
X1521384D2*
X1540476D1*
X1573683D2*
X1615840D1*
X1679189D2*
X1696280D1*
X1725711D2*
X1749204D1*
X1781100D2*
X1817945D1*
X1850945D2*
X1877229D1*
X1914505D2*
X1934389D1*
X1971427D2*
X2015945D1*
X848945Y2356501D2*
X881945D1*
X917945D2*
X950945D1*
X978719D2*
X1069739D1*
X1091945D2*
X1181945D1*
X1226945D2*
X1259945D1*
X1325945D2*
X1379945D1*
X1412945D2*
X1433945D1*
X1466945D2*
X1489977D1*
X1522900D2*
X1538771D1*
X1572373D2*
X1605078D1*
X1679357D2*
X1697444D1*
X1728367D2*
X1747008D1*
X1779658D2*
X1817945D1*
X1850945D2*
X1878717D1*
X1916945D2*
X1931945D1*
X1969738D2*
X2015945D1*
X848945Y2353501D2*
X881945D1*
X917945D2*
X950945D1*
X980318D2*
X1067834D1*
X1091945D2*
X1181945D1*
X1226945D2*
X1259945D1*
X1325945D2*
X1379945D1*
X1412945D2*
X1433945D1*
X1466945D2*
X1491053D1*
X1526196D2*
X1536151D1*
X1570705D2*
X1597295D1*
X1678061D2*
X1698814D1*
X1732231D2*
X1743770D1*
X1778160D2*
X1817945D1*
X1850945D2*
X1880329D1*
X1967822D2*
X2015945D1*
X848945Y2350501D2*
X881945D1*
X917945D2*
X950945D1*
X982219D2*
X1065896D1*
X1091945D2*
X1181945D1*
X1226945D2*
X1259945D1*
X1325945D2*
X1379945D1*
X1412945D2*
X1433945D1*
X1466945D2*
X1492581D1*
X1529945D2*
X1532945D1*
X1568709D2*
X1591926D1*
X1675967D2*
X1700467D1*
X1736945D2*
X1739945D1*
X1776455D2*
X1817945D1*
X1850945D2*
X1882324D1*
X1965790D2*
X2015945D1*
X848945Y2347501D2*
X881945D1*
X917945D2*
X950945D1*
X984649D2*
X1063704D1*
X1091945D2*
X1181945D1*
X1226945D2*
X1259945D1*
X1325945D2*
X1379945D1*
X1412945D2*
X1433945D1*
X1466945D2*
X1494820D1*
X1566382D2*
X1588198D1*
X1673004D2*
X1702729D1*
X1774173D2*
X1817945D1*
X1850945D2*
X1885055D1*
X1963310D2*
X2015945D1*
X848945Y2344501D2*
X881945D1*
X917945D2*
X950945D1*
X987727D2*
X1060779D1*
X1091945D2*
X1181945D1*
X1226945D2*
X1259945D1*
X1325945D2*
X1379945D1*
X1412945D2*
X1433945D1*
X1466945D2*
X1497909D1*
X1563344D2*
X1585570D1*
X1669203D2*
X1705907D1*
X1770988D2*
X1817945D1*
X1850945D2*
X1888680D1*
X1959920D2*
X2015945D1*
X848945Y2341501D2*
X881945D1*
X917945D2*
X950945D1*
X991639D2*
X1056749D1*
X1091945D2*
X1181945D1*
X1226945D2*
X1259945D1*
X1325945D2*
X1379945D1*
X1412945D2*
X1433945D1*
X1466945D2*
X1502165D1*
X1559050D2*
X1583661D1*
X1664945D2*
X1710061D1*
X1766831D2*
X1817945D1*
X1850945D2*
X1893411D1*
X1955226D2*
X2015945D1*
X848945Y2338501D2*
X881945D1*
X917945D2*
X950945D1*
X996745D2*
X1051437D1*
X1091945D2*
X1181945D1*
X1226945D2*
X1259945D1*
X1325945D2*
X1379945D1*
X1412945D2*
X1433945D1*
X1466945D2*
X1507999D1*
X1552949D2*
X1582337D1*
X1643945D2*
X1646945D1*
X1669680D2*
X1715570D1*
X1761322D2*
X1817945D1*
X1850945D2*
X1899754D1*
X1948495D2*
X2015945D1*
X848945Y2335501D2*
X881945D1*
X917945D2*
X950945D1*
X1003367D2*
X1044982D1*
X1091945D2*
X1181945D1*
X1226945D2*
X1259945D1*
X1325945D2*
X1379945D1*
X1412945D2*
X1433945D1*
X1466945D2*
X1515508D1*
X1544934D2*
X1581591D1*
X1629072D2*
X1650179D1*
X1673889D2*
X1722770D1*
X1754121D2*
X1817945D1*
X1850945D2*
X1907886D1*
X1939370D2*
X2015945D1*
X1010945Y2332501D2*
X1037945D1*
X1325945D2*
X1523945D1*
X1535945D2*
X1581326D1*
X1617813D2*
X1652634D1*
X1677265D2*
X1730945D1*
X1745945D2*
X1916945D1*
X1928945D2*
X2015945D1*
X1325945Y2329501D2*
X1581559D1*
X1613552D2*
X1654522D1*
X1679715D2*
X2015945D1*
X1325945Y2326501D2*
X1582318D1*
X1611915D2*
X1654984D1*
X1681319D2*
X2015945D1*
X1325945Y2323501D2*
X1583457D1*
X1611654D2*
X1653909D1*
X1682360D2*
X2015945D1*
X1325945Y2320501D2*
X1584807D1*
X1612639D2*
X1652108D1*
X1682201D2*
X2015945D1*
X1325945Y2317501D2*
X1586363D1*
X1613945D2*
X1649945D1*
X1681500D2*
X2015945D1*
X1325945Y2314501D2*
X1588348D1*
X1680269D2*
X2015945D1*
X1325945Y2311501D2*
X1591200D1*
X1678305D2*
X2015945D1*
X1325945Y2308501D2*
X1595418D1*
X1675599D2*
X2015945D1*
X1325945Y2305501D2*
X1601642D1*
X1669590D2*
X2015945D1*
X1325945Y2302501D2*
X1610142D1*
X1661769D2*
X2015945D1*
X1325945Y2299501D2*
X1619945D1*
X1652945D2*
X2015945D1*
X1325945Y2296501D2*
X2015945D1*
X1325945Y2293501D2*
X2015945D1*
X1325945Y2290501D2*
X2015945D1*
X613630Y1848140D2*
X940630D1*
X613630Y1845140D2*
X942015D1*
X613630Y1842140D2*
X942877D1*
X613630Y1839140D2*
X943313D1*
X613630Y1836140D2*
X943506D1*
X613630Y1833140D2*
X943585D1*
X613630Y1830140D2*
X943614D1*
X613630Y1827140D2*
X943625D1*
X613630Y1824140D2*
X781619D1*
X842106D2*
X943629D1*
X613630Y1821140D2*
X781513D1*
X839955D2*
X919980D1*
X925630D2*
X943630D1*
X613630Y1818140D2*
X781131D1*
X838126D2*
X917339D1*
X925630D2*
X943630D1*
X613630Y1815140D2*
X780412D1*
X836475D2*
X914397D1*
X925630D2*
X943630D1*
X613630Y1812140D2*
X779643D1*
X834917D2*
X911165D1*
X925630D2*
X943630D1*
X613630Y1809140D2*
X779120D1*
X833404D2*
X908026D1*
X925630D2*
X943630D1*
X613630Y1806140D2*
X778842D1*
X832003D2*
X905257D1*
X925630D2*
X943630D1*
X613630Y1803140D2*
X778715D1*
X830880D2*
X902901D1*
X925630D2*
X943630D1*
X613630Y1800140D2*
X778662D1*
X830100D2*
X900638D1*
X925630D2*
X943630D1*
X613630Y1797140D2*
X778642D1*
X829367D2*
X898148D1*
X925630D2*
X943630D1*
X613630Y1794140D2*
X778634D1*
X828392D2*
X895422D1*
X925630D2*
X943630D1*
X613630Y1791140D2*
X778632D1*
X827168D2*
X892547D1*
X925630D2*
X943630D1*
X613630Y1788140D2*
X778631D1*
X825798D2*
X889611D1*
X925630D2*
X943630D1*
X613630Y1785140D2*
X778631D1*
X824359D2*
X886760D1*
X925630D2*
X943630D1*
X613630Y1782140D2*
X778630D1*
X822976D2*
X884372D1*
X925630D2*
X943630D1*
X613630Y1779140D2*
X778630D1*
X821769D2*
X882558D1*
X925630D2*
X943630D1*
X613630Y1776140D2*
X778630D1*
X820716D2*
X882703D1*
X925630D2*
X943630D1*
X613630Y1773140D2*
X778619D1*
X819648D2*
X883551D1*
X925630D2*
X943630D1*
X613630Y1770140D2*
X778513D1*
X818623D2*
X884996D1*
X925630D2*
X943630D1*
X613630Y1767140D2*
X778131D1*
X817656D2*
X886788D1*
X925630D2*
X943630D1*
X613630Y1764140D2*
X777412D1*
X816636D2*
X888572D1*
X925630D2*
X943630D1*
X613630Y1761140D2*
X776643D1*
X815743D2*
X890239D1*
X925630D2*
X943630D1*
X613630Y1758140D2*
X776108D1*
X815270D2*
X891824D1*
X925630D2*
X943630D1*
X613630Y1755140D2*
X775725D1*
X815353D2*
X893357D1*
X925630D2*
X943630D1*
X613630Y1752140D2*
X775203D1*
X815937D2*
X894874D1*
X925630D2*
X943630D1*
X613630Y1749140D2*
X774315D1*
X816650D2*
X896376D1*
X925630D2*
X943630D1*
X613630Y1746140D2*
X773038D1*
X817153D2*
X850630D1*
X860208D2*
X897869D1*
X925630D2*
X943630D1*
X613630Y1743140D2*
X771395D1*
X817411D2*
X847630D1*
X861337D2*
X899262D1*
X925630D2*
X943630D1*
X613630Y1740140D2*
X769509D1*
X817419D2*
X844630D1*
X862844D2*
X900382D1*
X925630D2*
X943630D1*
X613630Y1737140D2*
X767589D1*
X816971D2*
X841630D1*
X864244D2*
X901161D1*
X925630D2*
X943630D1*
X613630Y1734140D2*
X765517D1*
X815785D2*
X838642D1*
X865440D2*
X901883D1*
X925630D2*
X943630D1*
X613630Y1731140D2*
X763115D1*
X813910D2*
X835771D1*
X866670D2*
X902752D1*
X925630D2*
X943630D1*
X613630Y1728140D2*
X760523D1*
X811785D2*
X833376D1*
X868002D2*
X903582D1*
X925630D2*
X943630D1*
X613630Y1725140D2*
X758041D1*
X809715D2*
X831558D1*
X869316D2*
X904140D1*
X925630D2*
X943630D1*
X613630Y1722140D2*
X755815D1*
X807569D2*
X831589D1*
X870403D2*
X904532D1*
X925630D2*
X943630D1*
X613630Y1719140D2*
X753606D1*
X805124D2*
X832053D1*
X871169D2*
X905044D1*
X925630D2*
X943630D1*
X613630Y1716140D2*
X751149D1*
X802413D2*
X832767D1*
X871885D2*
X905816D1*
X925630D2*
X943630D1*
X613630Y1713140D2*
X748535D1*
X799556D2*
X833684D1*
X872753D2*
X906606D1*
X925630D2*
X943630D1*
X613630Y1710140D2*
X746045D1*
X796704D2*
X834550D1*
X873582D2*
X907137D1*
X925630D2*
X943630D1*
X613630Y1707140D2*
X743817D1*
X794001D2*
X835115D1*
X874128D2*
X907418D1*
X925630D2*
X943630D1*
X613630Y1704140D2*
X741606D1*
X791345D2*
X835410D1*
X874415D2*
X907546D1*
X925630D2*
X943630D1*
X613630Y1701140D2*
X739137D1*
X788410D2*
X835543D1*
X874545D2*
X907599D1*
X925630D2*
X943630D1*
X613630Y1698140D2*
X736429D1*
X785270D2*
X835598D1*
X874598D2*
X907619D1*
X925630D2*
X943630D1*
X613630Y1695140D2*
X733663D1*
X782408D2*
X835607D1*
X874619D2*
X907627D1*
X925630D2*
X943630D1*
X613630Y1692140D2*
X731098D1*
X779976D2*
X835509D1*
X874627D2*
X907629D1*
X925630D2*
X943630D1*
X613630Y1689140D2*
X728837D1*
X777670D2*
X835130D1*
X874629D2*
X907630D1*
X925630D2*
X943630D1*
X613630Y1686140D2*
X726614D1*
X775161D2*
X834400D1*
X874630D2*
X907630D1*
X925630D2*
X943630D1*
X613630Y1683140D2*
X724140D1*
X772426D2*
X833526D1*
X874619D2*
X907619D1*
X925630D2*
X943630D1*
X613630Y1680140D2*
X721419D1*
X769549D2*
X832620D1*
X874513D2*
X907513D1*
X925630D2*
X943630D1*
X613630Y1677140D2*
X718546D1*
X766600D2*
X788821D1*
X793493D2*
X831612D1*
X874131D2*
X907131D1*
X925630D2*
X943630D1*
X613630Y1674140D2*
X715599D1*
X763631D2*
X784800D1*
X795878D2*
X830598D1*
X873401D2*
X906412D1*
X925630D2*
X943630D1*
X613630Y1671140D2*
X712631D1*
X760744D2*
X783283D1*
X797670D2*
X829523D1*
X872526D2*
X905632D1*
X925630D2*
X943630D1*
X613630Y1668140D2*
X709744D1*
X758129D2*
X783731D1*
X797378D2*
X828007D1*
X871621D2*
X905003D1*
X925630D2*
X943630D1*
X613630Y1665140D2*
X707129D1*
X755848D2*
X784630D1*
X796630D2*
X825885D1*
X870612D2*
X904342D1*
X925630D2*
X943630D1*
X613630Y1662140D2*
X704848D1*
X753618D2*
X823319D1*
X869610D2*
X903497D1*
X925630D2*
X943630D1*
X613630Y1659140D2*
X702618D1*
X751141D2*
X820486D1*
X868640D2*
X902663D1*
X925630D2*
X943630D1*
X613630Y1656140D2*
X700141D1*
X748419D2*
X817340D1*
X867518D2*
X902014D1*
X925630D2*
X943630D1*
X613630Y1653140D2*
X697419D1*
X745546D2*
X813485D1*
X866220D2*
X901346D1*
X925630D2*
X943630D1*
X613630Y1650140D2*
X694546D1*
X742599D2*
X808545D1*
X864806D2*
X900486D1*
X925630D2*
X943630D1*
X613630Y1647140D2*
X691599D1*
X739619D2*
X760745D1*
X772630D2*
X802737D1*
X863238D2*
X899558D1*
X925630D2*
X943630D1*
X613630Y1644140D2*
X688619D1*
X736627D2*
X758129D1*
X781630D2*
X796630D1*
X861373D2*
X898620D1*
X925630D2*
X943630D1*
X613630Y1641140D2*
X685627D1*
X733629D2*
X755848D1*
X859158D2*
X897499D1*
X925630D2*
X943630D1*
X613630Y1638140D2*
X682617D1*
X730630D2*
X753618D1*
X856882D2*
X896112D1*
X925630D2*
X943630D1*
X613630Y1635140D2*
X679525D1*
X727630D2*
X751143D1*
X854740D2*
X894434D1*
X925630D2*
X943630D1*
X613630Y1632140D2*
X676236D1*
X724642D2*
X748437D1*
X852465D2*
X892636D1*
X925630D2*
X943630D1*
X613630Y1629140D2*
X672795D1*
X721748D2*
X745630D1*
X849629D2*
X891092D1*
X925630D2*
X943630D1*
X613630Y1626140D2*
X669362D1*
X719130D2*
X748756D1*
X846185D2*
X889736D1*
X925630D2*
X943630D1*
X613630Y1623140D2*
X665901D1*
X716848D2*
X752258D1*
X842429D2*
X888091D1*
X925630D2*
X943630D1*
X613630Y1620140D2*
X662506D1*
X714618D2*
X756500D1*
X838436D2*
X885928D1*
X925630D2*
X943630D1*
X613630Y1617140D2*
X659750D1*
X712153D2*
X761716D1*
X833732D2*
X883448D1*
X925630D2*
X943630D1*
X613630Y1614140D2*
X657721D1*
X709548D2*
X768153D1*
X827701D2*
X881013D1*
X925630D2*
X943630D1*
X613630Y1611140D2*
X657865D1*
X707186D2*
X775985D1*
X820111D2*
X878794D1*
X925630D2*
X943630D1*
X613630Y1608140D2*
X659591D1*
X705224D2*
X784630D1*
X811630D2*
X876485D1*
X925630D2*
X943630D1*
X613630Y1605140D2*
X661573D1*
X704616D2*
X873636D1*
X925630D2*
X943630D1*
X613630Y1602140D2*
X663472D1*
X705116D2*
X870188D1*
X925630D2*
X943630D1*
X613630Y1599140D2*
X665197D1*
X705845D2*
X866441D1*
X925630D2*
X943630D1*
X613630Y1596140D2*
X666807D1*
X706683D2*
X862589D1*
X925630D2*
X943630D1*
X613630Y1593140D2*
X668363D1*
X707653D2*
X858601D1*
X925630D2*
X943630D1*
X613630Y1590140D2*
X669977D1*
X708551D2*
X743220D1*
X748167D2*
X854595D1*
X925630D2*
X943630D1*
X613630Y1587140D2*
X671770D1*
X709228D2*
X744454D1*
X753446D2*
X850498D1*
X925630D2*
X943630D1*
X613630Y1584140D2*
X634630D1*
X641208D2*
X673704D1*
X709920D2*
X746344D1*
X758898D2*
X845754D1*
X925630D2*
X943630D1*
X613630Y1581140D2*
X634630D1*
X642348D2*
X675542D1*
X710878D2*
X748474D1*
X765298D2*
X839709D1*
X925630D2*
X943630D1*
X613630Y1578140D2*
X634630D1*
X643961D2*
X677240D1*
X712096D2*
X750545D1*
X773054D2*
X832113D1*
X925630D2*
X943630D1*
X613630Y1575140D2*
X634630D1*
X645744D2*
X678938D1*
X713464D2*
X752692D1*
X781630D2*
X823630D1*
X925630D2*
X943630D1*
X613630Y1572140D2*
X634630D1*
X647658D2*
X680856D1*
X714913D2*
X755137D1*
X925630D2*
X943630D1*
X613630Y1569140D2*
X634630D1*
X649669D2*
X683091D1*
X716402D2*
X757836D1*
X925630D2*
X943630D1*
X613630Y1566140D2*
X634630D1*
X651629D2*
X685364D1*
X717991D2*
X760611D1*
X925630D2*
X943630D1*
X613630Y1563140D2*
X634630D1*
X653616D2*
X687379D1*
X719775D2*
X763280D1*
X925630D2*
X943630D1*
X613630Y1560140D2*
X634630D1*
X655654D2*
X689050D1*
X721718D2*
X765923D1*
X925630D2*
X943630D1*
X613630Y1557140D2*
X634630D1*
X657636D2*
X690286D1*
X723648D2*
X768877D1*
X925630D2*
X943630D1*
X613630Y1554140D2*
X634630D1*
X659720D2*
X691013D1*
X725623D2*
X772226D1*
X925630D2*
X943630D1*
X613630Y1551140D2*
X634630D1*
X662036D2*
X691360D1*
X727656D2*
X775852D1*
X925630D2*
X943630D1*
X613630Y1548140D2*
X634630D1*
X664352D2*
X691413D1*
X729637D2*
X779733D1*
X925607D2*
X943630D1*
X613630Y1545140D2*
X634630D1*
X666473D2*
X691094D1*
X731732D2*
X783694D1*
X925373D2*
X943630D1*
X613630Y1542140D2*
X634630D1*
X668523D2*
X690388D1*
X734153D2*
X787761D1*
X924810D2*
X943630D1*
X613630Y1539140D2*
X634630D1*
X670630D2*
X689522D1*
X736854D2*
X792375D1*
X922035D2*
X943630D1*
X613630Y1536140D2*
X634630D1*
X669234D2*
X688619D1*
X739719D2*
X797900D1*
X917862D2*
X943630D1*
X613630Y1533140D2*
X634630D1*
X668267D2*
X687612D1*
X742663D2*
X804453D1*
X912262D2*
X943630D1*
X613630Y1530140D2*
X634630D1*
X667448D2*
X686610D1*
X745654D2*
X812372D1*
X904891D2*
X943630D1*
X613630Y1527140D2*
X634630D1*
X666525D2*
X685652D1*
X748752D2*
X822627D1*
X894756D2*
X943630D1*
X613630Y1524140D2*
X634630D1*
X665572D2*
X684623D1*
X752143D2*
X835805D1*
X881205D2*
X943630D1*
X613630Y1521140D2*
X634630D1*
X664637D2*
X683614D1*
X755978D2*
X850630D1*
X865630D2*
X943630D1*
X613630Y1518140D2*
X634630D1*
X663618D2*
X682653D1*
X760234D2*
X943630D1*
X613630Y1515140D2*
X634630D1*
X662612D2*
X681635D1*
X764882D2*
X943630D1*
X613630Y1512140D2*
X634630D1*
X661653D2*
X680720D1*
X769870D2*
X943630D1*
X613630Y1509140D2*
X634630D1*
X660624D2*
X680036D1*
X775184D2*
X943630D1*
X613630Y1506140D2*
X634630D1*
X659614D2*
X679354D1*
X781091D2*
X943630D1*
X613630Y1503140D2*
X634630D1*
X658653D2*
X678489D1*
X787785D2*
X943630D1*
X613630Y1500140D2*
X634630D1*
X657635D2*
X677559D1*
X795376D2*
X916469D1*
X925630D2*
X943630D1*
X613630Y1497140D2*
X634630D1*
X656720D2*
X676620D1*
X804347D2*
X906626D1*
X925630D2*
X943630D1*
X613630Y1494140D2*
X634630D1*
X656036D2*
X675511D1*
X815526D2*
X895027D1*
X925630D2*
X943630D1*
X613630Y1491140D2*
X634630D1*
X655354D2*
X674229D1*
X829335D2*
X881031D1*
X925630D2*
X943630D1*
X613630Y1488140D2*
X634630D1*
X654489D2*
X672922D1*
X844630D2*
X865630D1*
X925630D2*
X943630D1*
X613630Y1485140D2*
X634630D1*
X653559D2*
X671749D1*
X925630D2*
X943630D1*
X613630Y1482140D2*
X634630D1*
X652632D2*
X670709D1*
X925630D2*
X943630D1*
X613630Y1479140D2*
X634630D1*
X651616D2*
X669657D1*
X925630D2*
X943630D1*
X613630Y1476140D2*
X634630D1*
X650612D2*
X668739D1*
X925630D2*
X943630D1*
X613630Y1473140D2*
X634630D1*
X649652D2*
X668144D1*
X925630D2*
X943630D1*
X613630Y1470140D2*
X634630D1*
X648623D2*
X667737D1*
X925619D2*
X943630D1*
X613630Y1467140D2*
X634630D1*
X647614D2*
X667208D1*
X781630D2*
D3*
X925502D2*
X943630D1*
X613630Y1464140D2*
X634630D1*
X646653D2*
X666328D1*
X781619D2*
X790630D1*
X924967D2*
X943630D1*
X613630Y1461140D2*
X634630D1*
X645624D2*
X665155D1*
X781513D2*
X796780D1*
X923925D2*
X943630D1*
X613630Y1458140D2*
X634630D1*
X644614D2*
X663894D1*
X781131D2*
X803516D1*
X919918D2*
X943630D1*
X613630Y1455140D2*
X634630D1*
X643653D2*
X662739D1*
X780412D2*
X811732D1*
X913154D2*
X943630D1*
X613630Y1452140D2*
X634630D1*
X642636D2*
X661705D1*
X779643D2*
X822131D1*
X903180D2*
X943630D1*
X613630Y1449140D2*
X634630D1*
X641731D2*
X660644D1*
X779108D2*
X834455D1*
X890880D2*
X943630D1*
X613630Y1446140D2*
X634630D1*
X641150D2*
X659621D1*
X778725D2*
X943630D1*
X613630Y1443140D2*
X634630D1*
X640835D2*
X658656D1*
X778213D2*
X943630D1*
X613630Y1440140D2*
X634630D1*
X640630D2*
X657636D1*
X748630D2*
X757630D1*
X777416D2*
X943630D1*
X613630Y1437140D2*
X656720D1*
X747131D2*
X760630D1*
X776503D2*
X943630D1*
X613630Y1434140D2*
X656036D1*
X745885D2*
X763630D1*
X775630D2*
X943630D1*
X613630Y1431140D2*
X655354D1*
X744730D2*
X943630D1*
X613630Y1428140D2*
X654489D1*
X743767D2*
X943630D1*
X613630Y1425140D2*
X653559D1*
X743166D2*
X943630D1*
X613630Y1422140D2*
X652632D1*
X742858D2*
X943630D1*
X613630Y1419140D2*
X651616D1*
X742708D2*
X943630D1*
X613630Y1416140D2*
X650612D1*
X742547D2*
X943630D1*
X613630Y1413140D2*
X649652D1*
X742143D2*
X943630D1*
X613630Y1410140D2*
X648623D1*
X741405D2*
X943630D1*
X613630Y1407140D2*
X647614D1*
X740527D2*
X943630D1*
X613630Y1404140D2*
X646653D1*
X703630D2*
X712630D1*
X739609D2*
X943630D1*
X613630Y1401140D2*
X645624D1*
X703167D2*
X715753D1*
X738497D2*
X943630D1*
X613630Y1398140D2*
X644614D1*
X702423D2*
X719219D1*
X737130D2*
X943630D1*
X613630Y1395140D2*
X643653D1*
X701646D2*
X723245D1*
X735481D2*
X943630D1*
X613630Y1392140D2*
X642636D1*
X701121D2*
X727630D1*
X733630D2*
X943630D1*
X613630Y1389140D2*
X641720D1*
X700842D2*
X943630D1*
X613630Y1386140D2*
X641036D1*
X700715D2*
X943630D1*
X613630Y1383140D2*
X640342D1*
X700662D2*
X943630D1*
X613630Y1380140D2*
X639383D1*
X700642D2*
X943630D1*
X613630Y1377140D2*
X638177D1*
X700634D2*
X943630D1*
X613630Y1374140D2*
X636902D1*
X700620D2*
X943630D1*
X613630Y1371140D2*
X635741D1*
X700514D2*
X943630D1*
X613630Y1368140D2*
X634706D1*
X700131D2*
X943630D1*
X613630Y1365140D2*
X633656D1*
X699412D2*
X943630D1*
X613630Y1362140D2*
X632739D1*
X698643D2*
X943630D1*
X613630Y1359140D2*
X632153D1*
X698118D2*
X943630D1*
X613630Y1356140D2*
X631836D1*
X697824D2*
X943630D1*
X613630Y1353140D2*
X943630D1*
X613630Y1350140D2*
X943630D1*
X613630Y1347140D2*
X943630D1*
X613630Y1344140D2*
X943630D1*
X613630Y1341140D2*
X943630D1*
X613630Y1338140D2*
X943630D1*
X613630Y1335140D2*
X943630D1*
X613630Y1332140D2*
X943630D1*
X1335427Y1828451D2*
Y1825451D1*
Y1822451D1*
Y1819451D1*
Y1816451D1*
Y1813451D1*
Y1810451D1*
Y1807451D1*
Y1804451D1*
Y1801451D1*
Y1798451D1*
Y1795451D1*
Y1792451D1*
Y1789451D1*
Y1786451D1*
Y1783451D1*
Y1780451D1*
Y1777451D1*
Y1774451D1*
Y1771451D1*
Y1768451D1*
Y1765451D1*
Y1762451D1*
Y1759451D1*
Y1756451D1*
Y1753451D1*
Y1750451D1*
Y1747451D1*
Y1744451D1*
Y1741451D1*
Y1738451D1*
Y1735451D1*
Y1732451D1*
Y1729451D1*
Y1726451D1*
Y1723451D1*
Y1720451D1*
Y1717451D1*
Y1714451D1*
Y1711451D1*
Y1708451D1*
Y1705451D1*
Y1702451D1*
Y1699451D1*
Y1696451D1*
Y1693451D1*
Y1690451D1*
Y1687451D1*
Y1684451D1*
Y1681451D1*
Y1678451D1*
Y1675451D1*
Y1672451D1*
Y1669451D1*
Y1666451D1*
Y1663451D1*
Y1660451D1*
Y1657451D1*
Y1654451D1*
Y1651451D1*
Y1648451D1*
Y1645451D1*
Y1642451D1*
Y1639451D1*
Y1636451D1*
Y1633451D1*
Y1630451D1*
Y1627451D1*
Y1624451D1*
Y1621451D1*
Y1618451D1*
X1335439Y1615451D1*
X1335544Y1612451D1*
X1335927Y1609451D1*
X1336646Y1606451D1*
X1337422Y1603451D1*
X1337991Y1600451D1*
X1338427Y1597451D1*
X1359427D1*
Y1594451D1*
X1467427Y1828451D2*
X1466401Y1825451D1*
X1465509Y1822451D1*
X1464940Y1819451D1*
X1464634Y1816451D1*
X1464396Y1813451D1*
X1463948Y1810451D1*
X1463068Y1807451D1*
X1461558Y1804451D1*
X1459440Y1801451D1*
X1454294Y1798451D1*
X1447720Y1795451D1*
X1440427Y1792451D1*
X1500427Y1828451D2*
X1500891Y1825451D1*
X1501634Y1822451D1*
X1502411Y1819451D1*
X1502948Y1816451D1*
X1503333Y1813451D1*
X1503854Y1810451D1*
X1504766Y1807451D1*
X1506289Y1804451D1*
X1508413Y1801451D1*
X1513560Y1798451D1*
X1520134Y1795451D1*
X1527427Y1792451D1*
X1629427Y1828451D2*
Y1825451D1*
Y1822451D1*
Y1819451D1*
Y1816451D1*
Y1813451D1*
Y1810451D1*
Y1807451D1*
Y1804451D1*
Y1801451D1*
Y1798451D1*
Y1795451D1*
Y1792451D1*
Y1789451D1*
Y1786451D1*
Y1783451D1*
Y1780451D1*
Y1777451D1*
Y1774451D1*
Y1771451D1*
Y1768451D1*
Y1765451D1*
Y1762451D1*
Y1759451D1*
Y1756451D1*
Y1753451D1*
Y1750451D1*
Y1747451D1*
Y1744451D1*
Y1741451D1*
Y1738451D1*
Y1735451D1*
Y1732451D1*
Y1729451D1*
Y1726451D1*
Y1723451D1*
Y1720451D1*
Y1717451D1*
Y1714451D1*
Y1711451D1*
Y1708451D1*
Y1705451D1*
Y1702451D1*
Y1699451D1*
Y1696451D1*
Y1693451D1*
Y1690451D1*
Y1687451D1*
Y1684451D1*
Y1681451D1*
Y1678451D1*
Y1675451D1*
Y1672451D1*
Y1669451D1*
Y1666451D1*
Y1663451D1*
Y1660451D1*
Y1657451D1*
Y1654451D1*
Y1651451D1*
Y1648451D1*
Y1645451D1*
Y1642451D1*
Y1639451D1*
Y1636451D1*
Y1633451D1*
Y1630451D1*
Y1627451D1*
Y1624451D1*
Y1621451D1*
X1629404Y1618451D1*
X1629175Y1615451D1*
X1628630Y1612451D1*
X1626292Y1609451D1*
X1623427Y1606451D1*
X1625837Y1603451D1*
X1627580Y1600451D1*
X1628752Y1597451D1*
X1628645Y1594451D1*
X1626590Y1591451D1*
X1621007Y1588451D1*
X1614427Y1585451D1*
X1629427Y1582451D1*
Y1579451D1*
Y1576451D1*
Y1573451D1*
Y1570451D1*
Y1567451D1*
Y1564451D1*
Y1561451D1*
Y1558451D1*
Y1555451D1*
Y1552451D1*
Y1549451D1*
Y1546451D1*
Y1543451D1*
Y1540451D1*
X1410427Y1807451D2*
X1407427Y1804451D1*
X1404427Y1801451D1*
X1401439Y1798451D1*
X1398556Y1795451D1*
X1396067Y1792451D1*
X1394038Y1789451D1*
X1393466Y1786451D1*
X1394500Y1783451D1*
X1396250Y1780451D1*
X1398314Y1777451D1*
X1400345Y1774451D1*
X1402353Y1771451D1*
X1404190Y1768451D1*
X1405653Y1765451D1*
X1405436Y1762451D1*
X1404651Y1759451D1*
X1403571Y1756451D1*
X1402491Y1753451D1*
X1401427Y1750451D1*
X1400205Y1747451D1*
X1397324Y1744451D1*
X1389448Y1741451D1*
X1378315Y1738451D1*
X1365427Y1735451D1*
Y1732451D1*
Y1729451D1*
Y1726451D1*
Y1723451D1*
Y1720451D1*
Y1717451D1*
Y1714451D1*
Y1711451D1*
Y1708451D1*
X1377954Y1705451D1*
X1387576Y1702451D1*
X1394715Y1699451D1*
X1397690Y1696451D1*
X1399717Y1693451D1*
X1401137Y1690451D1*
X1402447Y1687451D1*
X1403889Y1684451D1*
X1405564Y1681451D1*
X1407427Y1678451D1*
X1404891Y1675451D1*
X1402646Y1672451D1*
X1400528Y1669451D1*
X1398436Y1666451D1*
X1396434Y1663451D1*
X1394338Y1660451D1*
X1391961Y1657451D1*
X1389427Y1654451D1*
X1393453Y1651451D1*
X1397346Y1648451D1*
X1400917Y1645451D1*
X1404226Y1642451D1*
X1407427Y1639451D1*
X1416427Y1807451D2*
X1419902Y1804451D1*
X1423761Y1801451D1*
X1428009Y1798451D1*
X1432605Y1795451D1*
X1437427Y1792451D1*
X1554427Y1807451D2*
X1548902Y1804451D1*
X1543761Y1801451D1*
X1539009Y1798451D1*
X1534605Y1795451D1*
X1530427Y1792451D1*
X1557427Y1807451D2*
X1560427Y1804451D1*
X1563427Y1801451D1*
X1566415Y1798451D1*
X1569286Y1795451D1*
X1571681Y1792451D1*
X1573499Y1789451D1*
X1573354Y1786451D1*
X1572506Y1783451D1*
X1571061Y1780451D1*
X1569257Y1777451D1*
X1567380Y1774451D1*
X1565436Y1771451D1*
X1563538Y1768451D1*
X1561880Y1765451D1*
X1561363Y1762451D1*
X1561993Y1759451D1*
X1563026Y1756451D1*
X1564312Y1753451D1*
X1565775Y1750451D1*
X1567733Y1747451D1*
X1570420Y1744451D1*
X1578356Y1741451D1*
X1589520Y1738451D1*
X1602427Y1735451D1*
Y1732451D1*
Y1729451D1*
Y1726451D1*
Y1723451D1*
Y1720451D1*
Y1717451D1*
Y1714451D1*
Y1711451D1*
Y1708451D1*
X1589900Y1705451D1*
X1580278Y1702451D1*
X1573139Y1699451D1*
X1570062Y1696451D1*
X1567743Y1693451D1*
X1565893Y1690451D1*
X1564276Y1687451D1*
X1562951Y1684451D1*
X1561948Y1681451D1*
X1562654Y1678451D1*
X1563987Y1675451D1*
X1565633Y1672451D1*
X1567490Y1669451D1*
X1569466Y1666451D1*
X1571301Y1663451D1*
X1572774Y1660451D1*
X1573869Y1657451D1*
X1573391Y1654451D1*
X1571443Y1651451D1*
X1569010Y1648451D1*
X1566264Y1645451D1*
X1563367Y1642451D1*
X1560407Y1639451D1*
X1557427Y1636451D1*
X1479427Y1753451D2*
X1472632Y1750451D1*
X1467016Y1747451D1*
X1462587Y1744451D1*
X1459023Y1741451D1*
X1456234Y1738451D1*
X1454026Y1735451D1*
X1453194Y1732451D1*
X1452633Y1729451D1*
X1451967Y1726451D1*
X1450857Y1723451D1*
X1449427Y1720451D1*
X1450824Y1717451D1*
X1451802Y1714451D1*
X1452726Y1711451D1*
X1454044Y1708451D1*
X1455832Y1705451D1*
X1458036Y1702451D1*
X1460785Y1699451D1*
X1463956Y1696451D1*
X1467200Y1693451D1*
X1470427Y1690451D1*
X1468579Y1687451D1*
X1466961Y1684451D1*
X1465643Y1681451D1*
X1464530Y1678451D1*
X1463349Y1675451D1*
X1462029Y1672451D1*
X1460618Y1669451D1*
X1459153Y1666451D1*
X1457670Y1663451D1*
X1456185Y1660451D1*
X1454794Y1657451D1*
X1453678Y1654451D1*
X1452953Y1651451D1*
X1452427Y1648451D1*
X1488427Y1753451D2*
X1495222Y1750451D1*
X1500827Y1747451D1*
X1505162Y1744451D1*
X1508448Y1741451D1*
X1510902Y1738451D1*
X1512747Y1735451D1*
X1514048Y1732451D1*
X1514797Y1729451D1*
X1515165Y1726451D1*
X1515325Y1723451D1*
X1515389Y1720451D1*
X1515402Y1717451D1*
X1515294Y1714451D1*
X1514797Y1711451D1*
X1513580Y1708451D1*
X1511593Y1705451D1*
X1509083Y1702451D1*
X1506306Y1699451D1*
X1503519Y1696451D1*
X1501156Y1693451D1*
X1499352Y1690451D1*
X1499487Y1687451D1*
X1500242Y1684451D1*
X1501398Y1681451D1*
X1502761Y1678451D1*
X1504205Y1675451D1*
X1505677Y1672451D1*
X1507074Y1669451D1*
X1508285Y1666451D1*
X1509352Y1663451D1*
X1510515Y1660451D1*
X1511819Y1657451D1*
X1513149Y1654451D1*
X1514360Y1651451D1*
X1515427Y1648451D1*
X1434427D2*
X1429480Y1645451D1*
X1424500Y1642451D1*
X1419427Y1639451D1*
X1440427Y1648451D2*
X1527427D2*
X1533427D2*
X1538278Y1645451D1*
X1542912Y1642451D1*
X1547270Y1639451D1*
X1551427Y1636451D1*
X1344427Y1612451D2*
X1341427Y1609451D1*
X1344427Y1612451D2*
X1347427Y1609451D1*
X1371427Y1612451D2*
X1368427Y1609451D1*
X1371427Y1612451D2*
X1374427Y1609451D1*
X1392427Y1612451D2*
X1389427Y1609451D1*
X1392427Y1612451D2*
X1395427Y1609451D1*
X1407427Y1612451D2*
X1401427Y1609451D1*
X1395427Y1606451D1*
X1396812Y1603451D1*
X1397673Y1600451D1*
X1398109Y1597451D1*
X1398303Y1594451D1*
X1398381Y1591451D1*
X1398412Y1588451D1*
X1398427Y1585451D1*
X1407427Y1612451D2*
Y1609451D1*
Y1606451D1*
Y1603451D1*
Y1600451D1*
Y1597451D1*
Y1594451D1*
Y1591451D1*
Y1588451D1*
Y1585451D1*
X1413427Y1612451D2*
Y1609451D1*
Y1606451D1*
Y1603451D1*
Y1600451D1*
Y1597451D1*
Y1594451D1*
Y1591451D1*
Y1588451D1*
Y1585451D1*
X1419427Y1612451D2*
Y1609451D1*
Y1606451D1*
Y1603451D1*
Y1600451D1*
Y1597451D1*
Y1594451D1*
Y1591451D1*
Y1588451D1*
Y1585451D1*
X1458427Y1612451D2*
X1453492Y1609451D1*
X1449598Y1606451D1*
X1446870Y1603451D1*
X1444825Y1600451D1*
X1444220Y1597451D1*
X1444218Y1594451D1*
X1444786Y1591451D1*
X1445605Y1588451D1*
X1446427Y1585451D1*
X1461427Y1612451D2*
X1458439Y1609451D1*
X1455556Y1606451D1*
X1453055Y1603451D1*
X1451285Y1600451D1*
X1450102Y1597451D1*
X1450209Y1594451D1*
X1452264Y1591451D1*
X1457847Y1588451D1*
X1464427Y1585451D1*
X1485427Y1612451D2*
X1482427Y1609451D1*
X1485427Y1612451D2*
X1488427Y1609451D1*
X1530427Y1612451D2*
X1525606Y1609451D1*
X1521550Y1606451D1*
X1519951Y1603451D1*
X1519079Y1600451D1*
X1518683Y1597451D1*
X1518522Y1594451D1*
X1518460Y1591451D1*
X1518438Y1588451D1*
X1518427Y1585451D1*
X1533427Y1612451D2*
X1530553Y1609451D1*
X1528055Y1606451D1*
X1526273Y1603451D1*
X1525261Y1600451D1*
X1524771Y1597451D1*
X1524560Y1594451D1*
X1524476Y1591451D1*
X1524443Y1588451D1*
X1524427Y1585451D1*
X1560427Y1612451D2*
X1557427Y1609451D1*
X1560427Y1612451D2*
X1563427Y1609451D1*
X1617427Y1612451D2*
X1620415Y1609451D1*
X1623298Y1606451D1*
X1625799Y1603451D1*
X1627569Y1600451D1*
X1628752Y1597451D1*
X1628645Y1594451D1*
X1626590Y1591451D1*
X1621007Y1588451D1*
X1614427Y1585451D1*
X1629427Y1582451D1*
Y1579451D1*
Y1576451D1*
Y1573451D1*
Y1570451D1*
Y1567451D1*
Y1564451D1*
Y1561451D1*
Y1558451D1*
Y1555451D1*
Y1552451D1*
Y1549451D1*
Y1546451D1*
Y1543451D1*
Y1540451D1*
X1623427Y1612451D2*
X1626427Y1609451D1*
X1341427Y1606451D2*
X1340031Y1603451D1*
X1339104Y1600451D1*
X1338427Y1597451D1*
X1359427D1*
Y1594451D1*
X1347427Y1606451D2*
X1350427Y1603451D1*
Y1609451D2*
X1353427Y1606451D1*
X1356427Y1603451D1*
X1365427Y1609451D2*
X1362427Y1606451D1*
X1368427D2*
X1374427D2*
X1376826Y1603451D1*
X1378819Y1600451D1*
X1379436Y1597451D1*
X1378807Y1594451D1*
X1376289Y1591451D1*
X1369976Y1588451D1*
X1362427Y1585451D1*
X1377427Y1609451D2*
X1380301Y1606451D1*
X1382788Y1603451D1*
X1384816Y1600451D1*
X1385435Y1597451D1*
X1384827Y1594451D1*
X1383732Y1591451D1*
X1382208Y1588451D1*
X1380427Y1585451D1*
X1431427Y1609451D2*
Y1606451D1*
Y1603451D1*
Y1600451D1*
X1431380Y1597451D1*
X1431240Y1594451D1*
X1429833Y1591451D1*
X1425158Y1588451D1*
X1419427Y1585451D1*
X1437427Y1609451D2*
Y1606451D1*
Y1603451D1*
Y1600451D1*
X1437415Y1597451D1*
X1437301Y1594451D1*
X1436837Y1591451D1*
X1435812Y1588451D1*
X1434427Y1585451D1*
X1458427Y1606451D2*
X1460837Y1603451D1*
X1462580Y1600451D1*
X1463752Y1597451D1*
X1463566Y1594451D1*
X1462706Y1591451D1*
X1461427Y1588451D1*
X1467427Y1609451D2*
X1467891Y1606451D1*
X1468634Y1603451D1*
X1469399Y1600451D1*
X1469808Y1597451D1*
X1469866Y1594451D1*
X1468577Y1591451D1*
X1466661Y1588451D1*
X1464427Y1585451D1*
X1479427Y1609451D2*
X1476427Y1606451D1*
X1482427D2*
X1491427Y1609451D2*
X1491240Y1606451D1*
X1489927Y1603451D1*
X1486095Y1600451D1*
X1481812Y1597451D1*
X1478315Y1594451D1*
X1475760Y1591451D1*
X1475580Y1588451D1*
X1476427Y1585451D1*
X1497427Y1609451D2*
X1497266Y1606451D1*
X1496876Y1603451D1*
X1494773Y1600451D1*
X1490233Y1597451D1*
X1485730Y1594451D1*
X1482237Y1591451D1*
X1479427Y1588451D1*
X1485427Y1585451D1*
X1530427Y1609451D2*
X1532837Y1606451D1*
X1534592Y1603451D1*
X1535597Y1600451D1*
X1536084Y1597451D1*
X1536295Y1594451D1*
X1536379Y1591451D1*
X1536411Y1588451D1*
X1536427Y1585451D1*
X1542427Y1609451D2*
Y1606451D1*
Y1603451D1*
Y1600451D1*
Y1597451D1*
Y1594451D1*
Y1591451D1*
Y1588451D1*
Y1585451D1*
X1554427Y1609451D2*
X1552017Y1606451D1*
X1550262Y1603451D1*
X1549254Y1600451D1*
X1548744Y1597451D1*
X1548427Y1594451D1*
X1566427D1*
X1565876Y1591451D1*
X1564823Y1588451D1*
X1563427Y1585451D1*
X1557427Y1606451D2*
X1555833Y1603451D1*
X1554427Y1600451D1*
X1563427Y1606451D2*
X1565021Y1603451D1*
X1566427Y1600451D1*
Y1609451D2*
X1568952Y1606451D1*
X1571079Y1603451D1*
X1572697Y1600451D1*
X1573897Y1597451D1*
X1573545Y1594451D1*
X1572604Y1591451D1*
X1571159Y1588451D1*
X1569427Y1585451D1*
X1584427Y1609451D2*
X1582017Y1606451D1*
X1580262Y1603451D1*
X1579257Y1600451D1*
X1578782Y1597451D1*
X1578685Y1594451D1*
X1579065Y1591451D1*
X1580058Y1588451D1*
X1581427Y1585451D1*
X1590427Y1609451D2*
X1588017Y1606451D1*
X1586262Y1603451D1*
X1585269Y1600451D1*
X1584923Y1597451D1*
X1585011Y1594451D1*
X1586812Y1591451D1*
X1591258Y1588451D1*
X1596427Y1585451D1*
X1590427Y1609451D2*
X1592837Y1606451D1*
X1594592Y1603451D1*
X1595597Y1600451D1*
X1596084Y1597451D1*
X1596295Y1594451D1*
X1596379Y1591451D1*
X1596410Y1588451D1*
X1596421Y1585451D1*
X1596425Y1582451D1*
X1596426Y1579451D1*
X1596427Y1576451D1*
Y1573451D1*
Y1570451D1*
Y1567451D1*
Y1564451D1*
Y1561451D1*
Y1558451D1*
Y1555451D1*
Y1552451D1*
Y1549451D1*
Y1546451D1*
Y1543451D1*
Y1540451D1*
X1605427Y1609451D2*
Y1606451D1*
Y1603451D1*
Y1600451D1*
Y1597451D1*
Y1594451D1*
Y1591451D1*
Y1588451D1*
Y1585451D1*
Y1582451D1*
Y1579451D1*
Y1576451D1*
Y1573451D1*
Y1570451D1*
Y1567451D1*
Y1564451D1*
Y1561451D1*
Y1558451D1*
Y1555451D1*
Y1552451D1*
Y1549451D1*
Y1546451D1*
Y1543451D1*
Y1540451D1*
X1611427Y1609451D2*
X1610963Y1606451D1*
X1610219Y1603451D1*
X1609435Y1600451D1*
X1608864Y1597451D1*
X1608427Y1594451D1*
X1620427Y1606451D2*
X1618016Y1603451D1*
X1616251Y1600451D1*
X1615177Y1597451D1*
X1614427Y1594451D1*
X1335427D2*
Y1591451D1*
Y1588451D1*
Y1585451D1*
Y1582451D1*
Y1579451D1*
Y1576451D1*
Y1573451D1*
Y1570451D1*
Y1567451D1*
Y1564451D1*
Y1561451D1*
Y1558451D1*
Y1555451D1*
Y1552451D1*
Y1549451D1*
Y1546451D1*
Y1543451D1*
Y1540451D1*
X1353427Y1594451D2*
Y1591451D2*
X1350427Y1588451D1*
X1347427Y1585451D1*
X1359427Y1591451D2*
X1356427Y1588451D1*
X1353427Y1585451D1*
X1608427Y1591451D2*
X1613156Y1588451D1*
X1618629Y1585451D1*
X1623517Y1582451D1*
X1627209Y1579451D1*
X1628381Y1576451D1*
X1628994Y1573451D1*
X1629261Y1570451D1*
X1629367Y1567451D1*
X1629406Y1564451D1*
X1629420Y1561451D1*
X1629425Y1558451D1*
X1629426Y1555451D1*
X1629427Y1552451D1*
Y1549451D1*
Y1546451D1*
Y1543451D1*
Y1540451D1*
X1614427Y1591451D2*
X1617427Y1588451D1*
X1338427D2*
X1341427Y1585451D1*
X1491427Y1588451D2*
X1488427Y1585451D1*
X1494427Y1588451D2*
X1497427Y1585451D1*
X1554427Y1588451D2*
X1551427Y1585451D1*
X1554427Y1588451D2*
X1557427Y1585451D1*
X1494427Y1576451D2*
Y1573451D1*
Y1570451D1*
Y1567451D1*
Y1564451D1*
Y1561451D1*
Y1558451D1*
Y1555451D1*
Y1552451D1*
Y1549451D1*
Y1546451D1*
Y1543451D1*
Y1540451D1*
X1500427Y1576451D2*
Y1573451D1*
X1500439Y1570451D1*
X1500553Y1567451D1*
X1501017Y1564451D1*
X1502042Y1561451D1*
X1503427Y1558451D1*
X1502054Y1555451D1*
X1501298Y1552451D1*
X1501246Y1549451D1*
X1501796Y1546451D1*
X1502609Y1543451D1*
X1503427Y1540451D1*
X1374427Y1564451D2*
X1371902Y1561451D1*
X1369763Y1558451D1*
X1368039Y1555451D1*
X1366774Y1552451D1*
X1365987Y1549451D1*
X1365427Y1546451D1*
X1386427D1*
X1385021Y1543451D1*
X1383427Y1540451D1*
Y1564451D2*
X1386301Y1561451D1*
X1388799Y1558451D1*
X1390581Y1555451D1*
X1391582Y1552451D1*
X1391957Y1549451D1*
X1391705Y1546451D1*
X1390766Y1543451D1*
X1389427Y1540451D1*
X1386427Y1564451D2*
X1394122Y1561451D1*
X1400129Y1558451D1*
X1404607Y1555451D1*
X1406079Y1552451D1*
X1406861Y1549451D1*
X1407209Y1546451D1*
X1407351Y1543451D1*
X1407427Y1540451D1*
X1404427Y1564451D2*
X1407427Y1561451D1*
X1413427Y1564451D2*
Y1561451D1*
Y1558451D1*
Y1555451D1*
Y1552451D1*
Y1549451D1*
Y1546451D1*
Y1543451D1*
Y1540451D1*
X1428427Y1564451D2*
X1425902Y1561451D1*
X1423763Y1558451D1*
X1422040Y1555451D1*
X1420783Y1552451D1*
X1420049Y1549451D1*
X1419686Y1546451D1*
X1419522Y1543451D1*
X1419427Y1540451D1*
X1458427Y1564451D2*
X1443427Y1561451D1*
X1428427Y1558451D1*
Y1555451D1*
Y1552451D1*
X1436378Y1549451D1*
X1442513Y1546451D1*
X1444737Y1543451D1*
X1446427Y1540451D1*
X1449427Y1564451D2*
X1449541Y1561451D1*
X1449926Y1558451D1*
X1450645Y1555451D1*
X1451422Y1552451D1*
X1451991Y1549451D1*
X1452427Y1546451D1*
X1455427Y1564451D2*
X1455541Y1561451D1*
X1455926Y1558451D1*
X1456645Y1555451D1*
X1457422Y1552451D1*
X1457991Y1549451D1*
X1458427Y1546451D1*
X1470427Y1564451D2*
X1467427Y1561451D1*
X1464427Y1558451D1*
X1473427Y1564451D2*
Y1561451D1*
Y1558451D1*
X1488427Y1564451D2*
X1486005Y1561451D1*
X1484145Y1558451D1*
X1482758Y1555451D1*
X1481552Y1552451D1*
X1480564Y1549451D1*
X1479909Y1546451D1*
X1479427Y1543451D1*
X1494427Y1564451D2*
X1492005Y1561451D1*
X1490145Y1558451D1*
X1488758Y1555451D1*
X1487540Y1552451D1*
X1486446Y1549451D1*
X1485373Y1546451D1*
X1484021Y1543451D1*
X1482427Y1540451D1*
X1494427Y1564451D2*
X1501772Y1561451D1*
X1507421Y1558451D1*
X1511698Y1555451D1*
X1513751Y1552451D1*
X1514427Y1549451D1*
X1513923Y1546451D1*
X1513186Y1543451D1*
X1512427Y1540451D1*
Y1564451D2*
X1515301Y1561451D1*
X1517799Y1558451D1*
X1519581Y1555451D1*
X1520582Y1552451D1*
X1520957Y1549451D1*
X1520705Y1546451D1*
X1519766Y1543451D1*
X1518427Y1540451D1*
X1524427Y1564451D2*
X1521427Y1561451D1*
X1530427Y1564451D2*
X1533427Y1561451D1*
X1539427Y1564451D2*
X1536427Y1561451D1*
X1533427Y1558451D1*
X1534812Y1555451D1*
X1535673Y1552451D1*
X1536109Y1549451D1*
X1536303Y1546451D1*
X1536384Y1543451D1*
X1536427Y1540451D1*
X1542427Y1564451D2*
Y1561451D1*
Y1558451D1*
Y1555451D1*
Y1552451D1*
Y1549451D1*
Y1546451D1*
Y1543451D1*
Y1540451D1*
X1554427Y1564451D2*
X1552017Y1561451D1*
X1550262Y1558451D1*
X1549257Y1555451D1*
X1548770Y1552451D1*
X1548559Y1549451D1*
X1548475Y1546451D1*
X1548443Y1543451D1*
X1548427Y1540451D1*
X1584427Y1564451D2*
X1569427Y1561451D1*
X1554427Y1558451D1*
Y1555451D1*
Y1552451D1*
X1563010Y1549451D1*
X1569720Y1546451D1*
X1575427Y1543451D1*
X1572427Y1540451D1*
X1584427Y1564451D2*
X1582017Y1561451D1*
X1580262Y1558451D1*
X1579257Y1555451D1*
X1578770Y1552451D1*
X1578559Y1549451D1*
X1578475Y1546451D1*
X1578443Y1543451D1*
X1578427Y1540451D1*
X1374427Y1558451D2*
Y1555451D1*
Y1552451D1*
X1383427Y1558451D2*
X1385021Y1555451D1*
X1386427Y1552451D1*
X1587427Y1558451D2*
X1586042Y1555451D1*
X1585181Y1552451D1*
X1584745Y1549451D1*
X1584551Y1546451D1*
X1584470Y1543451D1*
X1584427Y1540451D1*
X1470427Y1555451D2*
Y1552451D1*
Y1549451D1*
X1476427Y1555451D2*
Y1552451D1*
Y1549451D1*
X1464427Y1552451D2*
X1461427Y1549451D1*
X1464427Y1552451D2*
X1467427Y1549451D1*
X1428427Y1546451D2*
Y1543451D1*
Y1540451D1*
X1440427Y1546451D2*
Y1543451D1*
Y1540451D1*
X1554427Y1546451D2*
Y1543451D1*
Y1540451D1*
X1566427Y1546451D2*
X1569427Y1543451D1*
X1566427Y1540451D1*
X1458427Y1543451D2*
X1455427Y1540451D1*
X1464427Y1546451D2*
Y1543451D1*
Y1540451D1*
X1473427Y1546451D2*
Y1543451D1*
Y1540451D1*
X1371427Y1543451D2*
X1368427Y1540451D1*
X1371427Y1543451D2*
X1374427Y1540451D1*
X1325945Y2509501D2*
Y2506501D1*
Y2503501D1*
Y2500501D1*
Y2497501D1*
Y2494501D1*
Y2491501D1*
Y2488501D1*
Y2485501D1*
Y2482501D1*
Y2479501D1*
Y2476501D1*
Y2473501D1*
Y2470501D1*
Y2467501D1*
Y2464501D1*
Y2461501D1*
Y2458501D1*
Y2455501D1*
Y2452501D1*
Y2449501D1*
Y2446501D1*
Y2443501D1*
Y2440501D1*
Y2437501D1*
Y2434501D1*
Y2431501D1*
Y2428501D1*
Y2425501D1*
Y2422501D1*
Y2419501D1*
Y2416501D1*
Y2413501D1*
Y2410501D1*
Y2407501D1*
Y2404501D1*
Y2401501D1*
Y2398501D1*
Y2395501D1*
Y2392501D1*
Y2389501D1*
Y2386501D1*
Y2383501D1*
Y2380501D1*
Y2377501D1*
Y2374501D1*
Y2371501D1*
Y2368501D1*
Y2365501D1*
Y2362501D1*
Y2359501D1*
Y2356501D1*
Y2353501D1*
Y2350501D1*
Y2347501D1*
Y2344501D1*
Y2341501D1*
Y2338501D1*
Y2335501D1*
Y2332501D1*
Y2329501D1*
Y2326501D1*
Y2323501D1*
Y2320501D1*
Y2317501D1*
Y2314501D1*
Y2311501D1*
Y2308501D1*
Y2305501D1*
Y2302501D1*
Y2299501D1*
Y2296501D1*
Y2293501D1*
Y2290501D1*
X2015945Y2509501D2*
Y2506501D1*
Y2503501D1*
Y2500501D1*
Y2497501D1*
Y2494501D1*
Y2491501D1*
Y2488501D1*
Y2485501D1*
Y2482501D1*
Y2479501D1*
Y2476501D1*
Y2473501D1*
Y2470501D1*
Y2467501D1*
Y2464501D1*
Y2461501D1*
Y2458501D1*
Y2455501D1*
Y2452501D1*
Y2449501D1*
Y2446501D1*
Y2443501D1*
Y2440501D1*
Y2437501D1*
Y2434501D1*
Y2431501D1*
Y2428501D1*
Y2425501D1*
Y2422501D1*
Y2419501D1*
Y2416501D1*
Y2413501D1*
Y2410501D1*
Y2407501D1*
Y2404501D1*
Y2401501D1*
Y2398501D1*
Y2395501D1*
Y2392501D1*
Y2389501D1*
Y2386501D1*
Y2383501D1*
Y2380501D1*
Y2377501D1*
Y2374501D1*
Y2371501D1*
Y2368501D1*
Y2365501D1*
Y2362501D1*
Y2359501D1*
Y2356501D1*
Y2353501D1*
Y2350501D1*
Y2347501D1*
Y2344501D1*
Y2341501D1*
Y2338501D1*
Y2335501D1*
Y2332501D1*
Y2329501D1*
Y2326501D1*
Y2323501D1*
Y2320501D1*
Y2317501D1*
Y2314501D1*
Y2311501D1*
Y2308501D1*
Y2305501D1*
Y2302501D1*
Y2299501D1*
Y2296501D1*
Y2293501D1*
Y2290501D1*
X1007945Y2473501D2*
X1001509Y2470501D1*
X995862Y2467501D1*
X991300Y2464501D1*
X987636Y2461501D1*
X984781Y2458501D1*
X982755Y2455501D1*
X981296Y2452501D1*
X979964Y2449501D1*
X978595Y2446501D1*
X977255Y2443501D1*
X976070Y2440501D1*
X975025Y2437501D1*
X973972Y2434501D1*
X973054Y2431501D1*
X972471Y2428501D1*
X972169Y2425501D1*
X972028Y2422501D1*
X971945Y2419501D1*
X1037945Y2473501D2*
X1044855Y2470501D1*
X1050844Y2467501D1*
X1055898Y2464501D1*
X1059966Y2461501D1*
X1063048Y2458501D1*
X1065565Y2455501D1*
X1067817Y2452501D1*
X1069771Y2449501D1*
X1071412Y2446501D1*
X1072733Y2443501D1*
X1073832Y2440501D1*
X1074907Y2437501D1*
X1075844Y2434501D1*
X1076536Y2431501D1*
X1077220Y2428501D1*
X1078075Y2425501D1*
X1078900Y2422501D1*
X1079444Y2419501D1*
X1079730Y2416501D1*
X1079860Y2413501D1*
X1079913Y2410501D1*
X1079934Y2407501D1*
X1079941Y2404501D1*
X1079944Y2401501D1*
X1079945Y2398501D1*
Y2395501D1*
Y2392501D1*
X1079934Y2389501D1*
X1079828Y2386501D1*
X1079446Y2383501D1*
X1078716Y2380501D1*
X1077841Y2377501D1*
X1076935Y2374501D1*
X1075927Y2371501D1*
X1074925Y2368501D1*
X1073955Y2365501D1*
X1072821Y2362501D1*
X1071430Y2359501D1*
X1069739Y2356501D1*
X1067834Y2353501D1*
X1065896Y2350501D1*
X1063704Y2347501D1*
X1060779Y2344501D1*
X1056749Y2341501D1*
X1051437Y2338501D1*
X1044982Y2335501D1*
X1037945Y2332501D1*
X848945Y2470501D2*
Y2467501D1*
Y2464501D1*
Y2461501D1*
Y2458501D1*
Y2455501D1*
Y2452501D1*
Y2449501D1*
Y2446501D1*
Y2443501D1*
Y2440501D1*
Y2437501D1*
Y2434501D1*
Y2431501D1*
Y2428501D1*
Y2425501D1*
Y2422501D1*
Y2419501D1*
Y2416501D1*
Y2413501D1*
Y2410501D1*
Y2407501D1*
Y2404501D1*
Y2401501D1*
Y2398501D1*
Y2395501D1*
Y2392501D1*
Y2389501D1*
Y2386501D1*
Y2383501D1*
Y2380501D1*
Y2377501D1*
Y2374501D1*
Y2371501D1*
Y2368501D1*
Y2365501D1*
Y2362501D1*
Y2359501D1*
Y2356501D1*
Y2353501D1*
Y2350501D1*
Y2347501D1*
Y2344501D1*
Y2341501D1*
Y2338501D1*
Y2335501D1*
X881945Y2470501D2*
Y2467501D1*
Y2464501D1*
Y2461501D1*
Y2458501D1*
Y2455501D1*
Y2452501D1*
Y2449501D1*
Y2446501D1*
Y2443501D1*
Y2440501D1*
Y2437501D1*
Y2434501D1*
Y2431501D1*
Y2428501D1*
Y2425501D1*
Y2422501D1*
Y2419501D1*
X917945Y2470501D2*
Y2467501D1*
Y2464501D1*
Y2461501D1*
Y2458501D1*
Y2455501D1*
Y2452501D1*
Y2449501D1*
Y2446501D1*
Y2443501D1*
Y2440501D1*
Y2437501D1*
Y2434501D1*
Y2431501D1*
Y2428501D1*
Y2425501D1*
Y2422501D1*
Y2419501D1*
X950945Y2470501D2*
Y2467501D1*
Y2464501D1*
Y2461501D1*
Y2458501D1*
Y2455501D1*
Y2452501D1*
Y2449501D1*
Y2446501D1*
Y2443501D1*
Y2440501D1*
Y2437501D1*
Y2434501D1*
Y2431501D1*
Y2428501D1*
Y2425501D1*
Y2422501D1*
Y2419501D1*
Y2416501D1*
Y2413501D1*
Y2410501D1*
Y2407501D1*
Y2404501D1*
Y2401501D1*
Y2398501D1*
Y2395501D1*
Y2392501D1*
Y2389501D1*
Y2386501D1*
Y2383501D1*
Y2380501D1*
Y2377501D1*
Y2374501D1*
Y2371501D1*
Y2368501D1*
Y2365501D1*
Y2362501D1*
Y2359501D1*
Y2356501D1*
Y2353501D1*
Y2350501D1*
Y2347501D1*
Y2344501D1*
Y2341501D1*
Y2338501D1*
Y2335501D1*
X1091945Y2470501D2*
Y2467501D1*
Y2464501D1*
Y2461501D1*
Y2458501D1*
Y2455501D1*
Y2452501D1*
Y2449501D1*
X1181945Y2470501D2*
Y2467501D1*
Y2464501D1*
Y2461501D1*
Y2458501D1*
Y2455501D1*
Y2452501D1*
Y2449501D1*
Y2446501D1*
Y2443501D1*
Y2440501D1*
Y2437501D1*
Y2434501D1*
Y2431501D1*
Y2428501D1*
Y2425501D1*
Y2422501D1*
Y2419501D1*
Y2416501D1*
Y2413501D1*
Y2410501D1*
Y2407501D1*
Y2404501D1*
Y2401501D1*
Y2398501D1*
Y2395501D1*
Y2392501D1*
Y2389501D1*
Y2386501D1*
Y2383501D1*
Y2380501D1*
Y2377501D1*
Y2374501D1*
Y2371501D1*
Y2368501D1*
Y2365501D1*
Y2362501D1*
Y2359501D1*
Y2356501D1*
Y2353501D1*
Y2350501D1*
Y2347501D1*
Y2344501D1*
Y2341501D1*
Y2338501D1*
Y2335501D1*
X1196945Y2470501D2*
Y2467501D1*
Y2464501D1*
Y2461501D1*
Y2458501D1*
Y2455501D1*
Y2452501D1*
Y2449501D1*
Y2446501D1*
Y2443501D1*
X1226945D1*
Y2440501D1*
Y2437501D1*
Y2434501D1*
Y2431501D1*
Y2428501D1*
Y2425501D1*
Y2422501D1*
Y2419501D1*
Y2416501D1*
Y2413501D1*
Y2410501D1*
Y2407501D1*
Y2404501D1*
Y2401501D1*
Y2398501D1*
Y2395501D1*
Y2392501D1*
Y2389501D1*
Y2386501D1*
Y2383501D1*
Y2380501D1*
Y2377501D1*
Y2374501D1*
Y2371501D1*
Y2368501D1*
Y2365501D1*
Y2362501D1*
Y2359501D1*
Y2356501D1*
Y2353501D1*
Y2350501D1*
Y2347501D1*
Y2344501D1*
Y2341501D1*
Y2338501D1*
Y2335501D1*
X1289945Y2470501D2*
Y2467501D1*
Y2464501D1*
Y2461501D1*
Y2458501D1*
Y2455501D1*
Y2452501D1*
Y2449501D1*
Y2446501D1*
Y2443501D1*
X1259945D1*
Y2440501D1*
Y2437501D1*
Y2434501D1*
Y2431501D1*
Y2428501D1*
Y2425501D1*
Y2422501D1*
Y2419501D1*
Y2416501D1*
Y2413501D1*
Y2410501D1*
Y2407501D1*
Y2404501D1*
Y2401501D1*
Y2398501D1*
Y2395501D1*
Y2392501D1*
Y2389501D1*
Y2386501D1*
Y2383501D1*
Y2380501D1*
Y2377501D1*
Y2374501D1*
Y2371501D1*
Y2368501D1*
Y2365501D1*
Y2362501D1*
Y2359501D1*
Y2356501D1*
Y2353501D1*
Y2350501D1*
Y2347501D1*
Y2344501D1*
Y2341501D1*
Y2338501D1*
Y2335501D1*
X1910945Y2473501D2*
X1905071Y2470501D1*
X1899573Y2467501D1*
X1894792Y2464501D1*
X1890791Y2461501D1*
X1887407Y2458501D1*
X1884578Y2455501D1*
X1882224Y2452501D1*
X1880079Y2449501D1*
X1878078Y2446501D1*
X1876465Y2443501D1*
X1875196Y2440501D1*
X1874028Y2437501D1*
X1872962Y2434501D1*
X1871980Y2431501D1*
X1870955Y2428501D1*
X1870048Y2425501D1*
X1869468Y2422501D1*
X1869169Y2419501D1*
X1869034Y2416501D1*
X1868978Y2413501D1*
X1868957Y2410501D1*
X1868949Y2407501D1*
X1868947Y2404501D1*
X1868946Y2401501D1*
Y2398501D1*
X1868945Y2395501D1*
Y2392501D1*
X1868957Y2389501D1*
X1869063Y2386501D1*
X1869445Y2383501D1*
X1870163Y2380501D1*
X1870944Y2377501D1*
X1871573Y2374501D1*
X1872245Y2371501D1*
X1873196Y2368501D1*
X1874412Y2365501D1*
X1875780Y2362501D1*
X1877229Y2359501D1*
X1878717Y2356501D1*
X1880329Y2353501D1*
X1882324Y2350501D1*
X1885055Y2347501D1*
X1888680Y2344501D1*
X1893411Y2341501D1*
X1899754Y2338501D1*
X1907886Y2335501D1*
X1916945Y2332501D1*
X1937945Y2473501D2*
X1943831Y2470501D1*
X1949423Y2467501D1*
X1954481Y2464501D1*
X1958830Y2461501D1*
X1962359Y2458501D1*
X1965219Y2455501D1*
X1967664Y2452501D1*
X1969709Y2449501D1*
X1971388Y2446501D1*
X1972724Y2443501D1*
X1973829Y2440501D1*
X1974906Y2437501D1*
X1975844Y2434501D1*
X1976536Y2431501D1*
X1977220Y2428501D1*
X1978075Y2425501D1*
X1978900Y2422501D1*
X1979444Y2419501D1*
X1979730Y2416501D1*
X1979860Y2413501D1*
X1979913Y2410501D1*
X1979934Y2407501D1*
X1979941Y2404501D1*
X1979944Y2401501D1*
X1979945Y2398501D1*
Y2395501D1*
X1979934Y2392501D1*
X1979828Y2389501D1*
X1979446Y2386501D1*
X1978727Y2383501D1*
X1977946Y2380501D1*
X1977318Y2377501D1*
X1976657Y2374501D1*
X1975800Y2371501D1*
X1974873Y2368501D1*
X1973935Y2365501D1*
X1972814Y2362501D1*
X1971427Y2359501D1*
X1969738Y2356501D1*
X1967822Y2353501D1*
X1965790Y2350501D1*
X1963310Y2347501D1*
X1959920Y2344501D1*
X1955226Y2341501D1*
X1948495Y2338501D1*
X1939370Y2335501D1*
X1928945Y2332501D1*
X1592945Y2455501D2*
X1588125Y2452501D1*
X1584068Y2449501D1*
X1582201Y2446501D1*
X1581791Y2443501D1*
X1581773Y2440501D1*
X1586023Y2437501D1*
X1590478Y2434501D1*
X1594040Y2431501D1*
X1596642Y2428501D1*
X1596981Y2425501D1*
X1596128Y2422501D1*
X1594965Y2419501D1*
X1593618Y2416501D1*
X1592282Y2413501D1*
X1591195Y2410501D1*
X1590540Y2407501D1*
X1590309Y2404501D1*
X1590553Y2401501D1*
X1591316Y2398501D1*
X1592468Y2395501D1*
X1593936Y2392501D1*
X1595979Y2389501D1*
X1599065Y2386501D1*
X1603370Y2383501D1*
X1608537Y2380501D1*
X1614160Y2377501D1*
X1619945Y2374501D1*
X1586945Y2455501D2*
X1594291Y2452501D1*
X1599951Y2449501D1*
X1603789Y2446501D1*
X1606405Y2443501D1*
X1608307Y2440501D1*
X1609753Y2437501D1*
X1610945Y2434501D1*
X1922945Y2449501D2*
X1917651Y2446501D1*
X1913789Y2443501D1*
X1911193Y2440501D1*
X1909550Y2437501D1*
X1908659Y2434501D1*
X1908226Y2431501D1*
X1907940Y2428501D1*
X1907487Y2425501D1*
X1906742Y2422501D1*
X1905963Y2419501D1*
X1905437Y2416501D1*
X1905157Y2413501D1*
X1905030Y2410501D1*
X1904977Y2407501D1*
X1904957Y2404501D1*
X1904949Y2401501D1*
X1904947Y2398501D1*
X1904958Y2395501D1*
X1905063Y2392501D1*
X1905445Y2389501D1*
X1906163Y2386501D1*
X1906933Y2383501D1*
X1907456Y2380501D1*
X1907746Y2377501D1*
X1907978Y2374501D1*
X1908425Y2371501D1*
X1909281Y2368501D1*
X1910557Y2365501D1*
X1912292Y2362501D1*
X1914505Y2359501D1*
X1916945Y2356501D1*
X1925945Y2449501D2*
X1931240Y2446501D1*
X1935102Y2443501D1*
X1937698Y2440501D1*
X1939353Y2437501D1*
X1940349Y2434501D1*
X1941153Y2431501D1*
X1942051Y2428501D1*
X1942892Y2425501D1*
X1943441Y2422501D1*
X1943729Y2419501D1*
X1943860Y2416501D1*
X1943913Y2413501D1*
X1943934Y2410501D1*
X1943941Y2407501D1*
X1943944Y2404501D1*
X1943945Y2401501D1*
Y2398501D1*
Y2395501D1*
Y2392501D1*
X1943934Y2389501D1*
X1943828Y2386501D1*
X1943446Y2383501D1*
X1942727Y2380501D1*
X1941946Y2377501D1*
X1941318Y2374501D1*
X1940646Y2371501D1*
X1939683Y2368501D1*
X1938362Y2365501D1*
X1936609Y2362501D1*
X1934389Y2359501D1*
X1931945Y2356501D1*
X1019945Y2449501D2*
X1015010Y2446501D1*
X1011117Y2443501D1*
X1008377Y2440501D1*
X1006527Y2437501D1*
X1005200Y2434501D1*
X1004036Y2431501D1*
X1003076Y2428501D1*
X1002476Y2425501D1*
X1002153Y2422501D1*
X1001945Y2419501D1*
X1025945Y2449501D2*
X1030880Y2446501D1*
X1034786Y2443501D1*
X1037620Y2440501D1*
X1039746Y2437501D1*
X1041409Y2434501D1*
X1042636Y2431501D1*
X1043455Y2428501D1*
X1044190Y2425501D1*
X1045064Y2422501D1*
X1045896Y2419501D1*
X1046443Y2416501D1*
X1046730Y2413501D1*
X1046860Y2410501D1*
X1046913Y2407501D1*
X1046934Y2404501D1*
X1046941Y2401501D1*
X1046944Y2398501D1*
X1046945Y2395501D1*
X1046934Y2392501D1*
X1046828Y2389501D1*
X1046446Y2386501D1*
X1045727Y2383501D1*
X1044946Y2380501D1*
X1044318Y2377501D1*
X1043646Y2374501D1*
X1042683Y2371501D1*
X1041362Y2368501D1*
X1039609Y2365501D1*
X1037389Y2362501D1*
X1034945Y2359501D1*
X1151945Y2449501D2*
Y2446501D1*
Y2443501D1*
Y2440501D1*
Y2437501D1*
Y2434501D1*
Y2431501D1*
Y2428501D1*
Y2425501D1*
Y2422501D1*
Y2419501D1*
Y2416501D1*
X1400945Y2437501D2*
X1395547Y2434501D1*
X1390898Y2431501D1*
X1387287Y2428501D1*
X1384635Y2425501D1*
X1382693Y2422501D1*
X1381351Y2419501D1*
X1380585Y2416501D1*
X1380211Y2413501D1*
X1380048Y2410501D1*
X1379983Y2407501D1*
X1379959Y2404501D1*
X1379950Y2401501D1*
X1379947Y2398501D1*
X1379946Y2395501D1*
Y2392501D1*
X1379945Y2389501D1*
Y2386501D1*
Y2383501D1*
Y2380501D1*
Y2377501D1*
Y2374501D1*
Y2371501D1*
Y2368501D1*
Y2365501D1*
Y2362501D1*
Y2359501D1*
Y2356501D1*
Y2353501D1*
Y2350501D1*
Y2347501D1*
Y2344501D1*
Y2341501D1*
Y2338501D1*
Y2335501D1*
X1418945Y2437501D2*
X1424357Y2434501D1*
X1429122Y2431501D1*
X1433195Y2428501D1*
X1436945Y2425501D1*
Y2437501D2*
Y2434501D1*
Y2431501D1*
Y2428501D1*
Y2425501D1*
X1466945Y2437501D2*
Y2434501D1*
Y2431501D1*
Y2428501D1*
Y2425501D1*
Y2422501D1*
Y2419501D1*
Y2416501D1*
Y2413501D1*
Y2410501D1*
Y2407501D1*
Y2404501D1*
Y2401501D1*
Y2398501D1*
Y2395501D1*
Y2392501D1*
Y2389501D1*
Y2386501D1*
Y2383501D1*
Y2380501D1*
Y2377501D1*
Y2374501D1*
Y2371501D1*
Y2368501D1*
Y2365501D1*
Y2362501D1*
Y2359501D1*
Y2356501D1*
Y2353501D1*
Y2350501D1*
Y2347501D1*
Y2344501D1*
Y2341501D1*
Y2338501D1*
Y2335501D1*
X1517945Y2437501D2*
X1512071Y2434501D1*
X1506585Y2431501D1*
X1501909Y2428501D1*
X1498290Y2425501D1*
X1495625Y2422501D1*
X1493577Y2419501D1*
X1491851Y2416501D1*
X1490355Y2413501D1*
X1489107Y2410501D1*
X1488039Y2407501D1*
X1486977Y2404501D1*
X1486056Y2401501D1*
X1485471Y2398501D1*
X1485170Y2395501D1*
X1485034Y2392501D1*
X1484978Y2389501D1*
X1484957Y2386501D1*
X1484949Y2383501D1*
X1484947Y2380501D1*
X1484958Y2377501D1*
X1485063Y2374501D1*
X1485445Y2371501D1*
X1486175Y2368501D1*
X1487050Y2365501D1*
X1487955Y2362501D1*
X1488964Y2359501D1*
X1489977Y2356501D1*
X1491053Y2353501D1*
X1492581Y2350501D1*
X1494820Y2347501D1*
X1497909Y2344501D1*
X1502165Y2341501D1*
X1507999Y2338501D1*
X1515508Y2335501D1*
X1523945Y2332501D1*
X1538945Y2437501D2*
X1546869Y2434501D1*
X1553657Y2431501D1*
X1558991Y2428501D1*
X1562911Y2425501D1*
X1565704Y2422501D1*
X1567897Y2419501D1*
X1569923Y2416501D1*
X1571848Y2413501D1*
X1573339Y2410501D1*
X1574319Y2407501D1*
X1575135Y2404501D1*
X1576043Y2401501D1*
X1576888Y2398501D1*
X1577440Y2395501D1*
X1577729Y2392501D1*
X1577860Y2389501D1*
X1577913Y2386501D1*
X1577934Y2383501D1*
X1577930Y2380501D1*
X1577827Y2377501D1*
X1577445Y2374501D1*
X1576727Y2371501D1*
X1575946Y2368501D1*
X1575318Y2365501D1*
X1574646Y2362501D1*
X1573683Y2359501D1*
X1572373Y2356501D1*
X1570705Y2353501D1*
X1568709Y2350501D1*
X1566382Y2347501D1*
X1563344Y2344501D1*
X1559050Y2341501D1*
X1552949Y2338501D1*
X1544934Y2335501D1*
X1535945Y2332501D1*
X1619945Y2437501D2*
X1616945Y2434501D1*
X1643945Y2437501D2*
X1651869Y2434501D1*
X1658657Y2431501D1*
X1663991Y2428501D1*
X1667911Y2425501D1*
X1670693Y2422501D1*
X1672780Y2419501D1*
X1674423Y2416501D1*
X1675630Y2413501D1*
X1676340Y2410501D1*
X1676680Y2407501D1*
X1676729Y2404501D1*
X1676398Y2401501D1*
X1675586Y2398501D1*
X1674314Y2395501D1*
X1672482Y2392501D1*
X1669947Y2389501D1*
X1667030Y2386501D1*
X1664328Y2383501D1*
X1661945Y2380501D1*
X1666319Y2377501D1*
X1670075Y2374501D1*
X1673117Y2371501D1*
X1675474Y2368501D1*
X1677284Y2365501D1*
X1678561Y2362501D1*
X1679189Y2359501D1*
X1679357Y2356501D1*
X1678061Y2353501D1*
X1675967Y2350501D1*
X1673004Y2347501D1*
X1669203Y2344501D1*
X1664945Y2341501D1*
X1669680Y2338501D1*
X1673889Y2335501D1*
X1677265Y2332501D1*
X1679715Y2329501D1*
X1681319Y2326501D1*
X1682360Y2323501D1*
X1682201Y2320501D1*
X1681500Y2317501D1*
X1680269Y2314501D1*
X1678305Y2311501D1*
X1675599Y2308501D1*
X1669590Y2305501D1*
X1661769Y2302501D1*
X1652945Y2299501D1*
X1727945Y2437501D2*
X1722071Y2434501D1*
X1716573Y2431501D1*
X1711803Y2428501D1*
X1707896Y2425501D1*
X1704801Y2422501D1*
X1702425Y2419501D1*
X1700598Y2416501D1*
X1699202Y2413501D1*
X1698074Y2410501D1*
X1696989Y2407501D1*
X1696060Y2404501D1*
X1695472Y2401501D1*
X1695158Y2398501D1*
X1694917Y2395501D1*
X1694479Y2392501D1*
X1693739Y2389501D1*
X1692954Y2386501D1*
X1692383Y2383501D1*
X1691945Y2380501D1*
X1745945Y2437501D2*
X1753766Y2434501D1*
X1760275Y2431501D1*
X1765273Y2428501D1*
X1769142Y2425501D1*
X1772181Y2422501D1*
X1774619Y2419501D1*
X1776795Y2416501D1*
X1778807Y2413501D1*
X1780424Y2410501D1*
X1781694Y2407501D1*
X1782850Y2404501D1*
X1783811Y2401501D1*
X1784411Y2398501D1*
X1784718Y2395501D1*
X1784856Y2392501D1*
X1784912Y2389501D1*
X1784934Y2386501D1*
X1784941Y2383501D1*
X1784944Y2380501D1*
X1784945Y2377501D1*
X1784934Y2374501D1*
X1784828Y2371501D1*
X1784434Y2368501D1*
X1783610Y2365501D1*
X1782447Y2362501D1*
X1781100Y2359501D1*
X1779658Y2356501D1*
X1778160Y2353501D1*
X1776455Y2350501D1*
X1774173Y2347501D1*
X1770988Y2344501D1*
X1766831Y2341501D1*
X1761322Y2338501D1*
X1754121Y2335501D1*
X1745945Y2332501D1*
X1790945Y2437501D2*
Y2434501D1*
Y2431501D1*
Y2428501D1*
Y2425501D1*
Y2422501D1*
Y2419501D1*
Y2416501D1*
Y2413501D1*
Y2410501D1*
X1799473Y2407501D1*
X1805802Y2404501D1*
X1810656Y2401501D1*
X1812869Y2398501D1*
X1814465Y2395501D1*
X1815764Y2392501D1*
X1816780Y2389501D1*
X1817401Y2386501D1*
X1817715Y2383501D1*
X1817855Y2380501D1*
X1817912Y2377501D1*
X1817933Y2374501D1*
X1817941Y2371501D1*
X1817944Y2368501D1*
X1817945Y2365501D1*
Y2362501D1*
Y2359501D1*
Y2356501D1*
Y2353501D1*
Y2350501D1*
Y2347501D1*
Y2344501D1*
Y2341501D1*
Y2338501D1*
Y2335501D1*
X1793945Y2437501D2*
X1801652Y2434501D1*
X1807776Y2431501D1*
X1812055Y2428501D1*
X1815143Y2425501D1*
X1817542Y2422501D1*
X1819224Y2419501D1*
X1820238Y2416501D1*
X1820945Y2413501D1*
Y2437501D2*
Y2434501D1*
Y2431501D1*
Y2428501D1*
Y2425501D1*
Y2422501D1*
Y2419501D1*
Y2416501D1*
Y2413501D1*
X1850945Y2437501D2*
Y2434501D1*
Y2431501D1*
Y2428501D1*
Y2425501D1*
Y2422501D1*
Y2419501D1*
Y2416501D1*
Y2413501D1*
Y2410501D1*
Y2407501D1*
Y2404501D1*
Y2401501D1*
Y2398501D1*
Y2395501D1*
Y2392501D1*
Y2389501D1*
Y2386501D1*
Y2383501D1*
Y2380501D1*
Y2377501D1*
Y2374501D1*
Y2371501D1*
Y2368501D1*
Y2365501D1*
Y2362501D1*
Y2359501D1*
Y2356501D1*
Y2353501D1*
Y2350501D1*
Y2347501D1*
Y2344501D1*
Y2341501D1*
Y2338501D1*
Y2335501D1*
X1628945Y2422501D2*
X1627097Y2419501D1*
X1625492Y2416501D1*
X1624279Y2413501D1*
X1623560Y2410501D1*
X1623203Y2407501D1*
X1623058Y2404501D1*
X1623111Y2401501D1*
X1623586Y2398501D1*
X1624785Y2395501D1*
X1626700Y2392501D1*
X1628945Y2389501D1*
X1637945Y2422501D2*
X1640356Y2419501D1*
X1642110Y2416501D1*
X1643115Y2413501D1*
X1643602Y2410501D1*
X1643813Y2407501D1*
X1643885Y2404501D1*
X1643799Y2401501D1*
X1643312Y2398501D1*
X1642108Y2395501D1*
X1640191Y2392501D1*
X1637945Y2389501D1*
X1103945Y2416501D2*
Y2413501D1*
Y2410501D1*
Y2407501D1*
Y2404501D1*
Y2401501D1*
Y2398501D1*
Y2395501D1*
Y2392501D1*
X1421945Y2416501D2*
X1418150Y2413501D1*
X1415097Y2410501D1*
X1413984Y2407501D1*
X1413385Y2404501D1*
X1413117Y2401501D1*
X1413008Y2398501D1*
X1412968Y2395501D1*
X1412953Y2392501D1*
X1412948Y2389501D1*
X1412946Y2386501D1*
Y2383501D1*
X1412945Y2380501D1*
Y2377501D1*
Y2374501D1*
Y2371501D1*
Y2368501D1*
Y2365501D1*
Y2362501D1*
Y2359501D1*
Y2356501D1*
Y2353501D1*
Y2350501D1*
Y2347501D1*
Y2344501D1*
Y2341501D1*
Y2338501D1*
Y2335501D1*
X1424945Y2416501D2*
X1428741Y2413501D1*
X1431794Y2410501D1*
X1432907Y2407501D1*
X1433505Y2404501D1*
X1433774Y2401501D1*
X1433882Y2398501D1*
X1433923Y2395501D1*
X1433938Y2392501D1*
X1433943Y2389501D1*
X1433945Y2386501D1*
Y2383501D1*
Y2380501D1*
Y2377501D1*
Y2374501D1*
Y2371501D1*
Y2368501D1*
Y2365501D1*
Y2362501D1*
Y2359501D1*
Y2356501D1*
Y2353501D1*
Y2350501D1*
Y2347501D1*
Y2344501D1*
Y2341501D1*
Y2338501D1*
Y2335501D1*
X1523945Y2416501D2*
X1522561Y2413501D1*
X1521699Y2410501D1*
X1521251Y2407501D1*
X1520952Y2404501D1*
X1520492Y2401501D1*
X1519744Y2398501D1*
X1518964Y2395501D1*
X1518437Y2392501D1*
X1518157Y2389501D1*
X1518030Y2386501D1*
X1517989Y2383501D1*
X1518074Y2380501D1*
X1518449Y2377501D1*
X1519165Y2374501D1*
X1519933Y2371501D1*
X1520456Y2368501D1*
X1520746Y2365501D1*
X1521002Y2362501D1*
X1521384Y2359501D1*
X1522900Y2356501D1*
X1526196Y2353501D1*
X1529945Y2350501D1*
X1538945Y2416501D2*
X1539971Y2413501D1*
X1540864Y2410501D1*
X1541433Y2407501D1*
X1541726Y2404501D1*
X1541859Y2401501D1*
X1541925Y2398501D1*
X1542051Y2395501D1*
X1542429Y2392501D1*
X1543045Y2389501D1*
X1543433Y2386501D1*
X1543238Y2383501D1*
X1542747Y2380501D1*
X1542351Y2377501D1*
X1542125Y2374501D1*
X1542018Y2371501D1*
X1541961Y2368501D1*
X1541838Y2365501D1*
X1541426Y2362501D1*
X1540476Y2359501D1*
X1538771Y2356501D1*
X1536151Y2353501D1*
X1532945Y2350501D1*
X1727945Y2416501D2*
X1726920Y2413501D1*
X1726027Y2410501D1*
X1725458Y2407501D1*
X1725164Y2404501D1*
X1725032Y2401501D1*
X1724976Y2398501D1*
X1724945Y2395501D1*
X1745945Y2416501D2*
X1747444Y2413501D1*
X1748691Y2410501D1*
X1749846Y2407501D1*
X1750809Y2404501D1*
X1751412Y2401501D1*
X1751737Y2398501D1*
X1751945Y2395501D1*
X1151945Y2392501D2*
Y2389501D1*
Y2386501D1*
Y2383501D1*
Y2380501D1*
Y2377501D1*
Y2374501D1*
Y2371501D1*
Y2368501D1*
Y2365501D1*
Y2362501D1*
Y2359501D1*
Y2356501D1*
X881945Y2389501D2*
Y2386501D1*
Y2383501D1*
Y2380501D1*
Y2377501D1*
Y2374501D1*
Y2371501D1*
Y2368501D1*
Y2365501D1*
Y2362501D1*
Y2359501D1*
Y2356501D1*
Y2353501D1*
Y2350501D1*
Y2347501D1*
Y2344501D1*
Y2341501D1*
Y2338501D1*
Y2335501D1*
X917945Y2389501D2*
Y2386501D1*
Y2383501D1*
Y2380501D1*
Y2377501D1*
Y2374501D1*
Y2371501D1*
Y2368501D1*
Y2365501D1*
Y2362501D1*
Y2359501D1*
Y2356501D1*
Y2353501D1*
Y2350501D1*
Y2347501D1*
Y2344501D1*
Y2341501D1*
Y2338501D1*
Y2335501D1*
X971945Y2383501D2*
Y2380501D1*
X971957Y2377501D1*
X972063Y2374501D1*
X972457Y2371501D1*
X973281Y2368501D1*
X974444Y2365501D1*
X975791Y2362501D1*
X977232Y2359501D1*
X978719Y2356501D1*
X980318Y2353501D1*
X982219Y2350501D1*
X984649Y2347501D1*
X987727Y2344501D1*
X991639Y2341501D1*
X996745Y2338501D1*
X1003367Y2335501D1*
X1010945Y2332501D1*
X1001945Y2383501D2*
X1002421Y2380501D1*
X1003270Y2377501D1*
X1004441Y2374501D1*
X1005802Y2371501D1*
X1007349Y2368501D1*
X1009209Y2365501D1*
X1011476Y2362501D1*
X1013945Y2359501D1*
X1751945Y2380501D2*
Y2377501D1*
Y2374501D1*
X1751934Y2371501D1*
X1751828Y2368501D1*
X1751434Y2365501D1*
X1750587Y2362501D1*
X1749204Y2359501D1*
X1747008Y2356501D1*
X1743770Y2353501D1*
X1739945Y2350501D1*
X1649945Y2374501D2*
X1651207Y2371501D1*
X1651958Y2368501D1*
X1651126Y2365501D1*
X1649945Y2362501D1*
X1694945Y2368501D2*
X1695060Y2365501D1*
X1695456Y2362501D1*
X1696280Y2359501D1*
X1697444Y2356501D1*
X1698814Y2353501D1*
X1700467Y2350501D1*
X1702729Y2347501D1*
X1705907Y2344501D1*
X1710061Y2341501D1*
X1715570Y2338501D1*
X1722770Y2335501D1*
X1730945Y2332501D1*
X1718945Y2368501D2*
X1721470Y2365501D1*
X1723644Y2362501D1*
X1725711Y2359501D1*
X1728367Y2356501D1*
X1732231Y2353501D1*
X1736945Y2350501D1*
X1628945Y2362501D2*
X1615840Y2359501D1*
X1605078Y2356501D1*
X1597295Y2353501D1*
X1591926Y2350501D1*
X1588198Y2347501D1*
X1585570Y2344501D1*
X1583661Y2341501D1*
X1582337Y2338501D1*
X1581591Y2335501D1*
X1581326Y2332501D1*
X1581559Y2329501D1*
X1582318Y2326501D1*
X1583457Y2323501D1*
X1584807Y2320501D1*
X1586363Y2317501D1*
X1588348Y2314501D1*
X1591200Y2311501D1*
X1595418Y2308501D1*
X1601642Y2305501D1*
X1610142Y2302501D1*
X1619945Y2299501D1*
X1091945Y2356501D2*
Y2353501D1*
Y2350501D1*
Y2347501D1*
Y2344501D1*
Y2341501D1*
Y2338501D1*
Y2335501D1*
X1643945Y2338501D2*
X1629072Y2335501D1*
X1617813Y2332501D1*
X1613552Y2329501D1*
X1611915Y2326501D1*
X1611654Y2323501D1*
X1612639Y2320501D1*
X1613945Y2317501D1*
X1646945Y2338501D2*
X1650179Y2335501D1*
X1652634Y2332501D1*
X1654522Y2329501D1*
X1654984Y2326501D1*
X1653909Y2323501D1*
X1652108Y2320501D1*
X1649945Y2317501D1*
X613630Y1848140D2*
Y1845140D1*
Y1842140D1*
Y1839140D1*
Y1836140D1*
Y1833140D1*
Y1830140D1*
Y1827140D1*
Y1824140D1*
Y1821140D1*
Y1818140D1*
Y1815140D1*
Y1812140D1*
Y1809140D1*
Y1806140D1*
Y1803140D1*
Y1800140D1*
Y1797140D1*
Y1794140D1*
Y1791140D1*
Y1788140D1*
Y1785140D1*
Y1782140D1*
Y1779140D1*
Y1776140D1*
Y1773140D1*
Y1770140D1*
Y1767140D1*
Y1764140D1*
Y1761140D1*
Y1758140D1*
Y1755140D1*
Y1752140D1*
Y1749140D1*
Y1746140D1*
Y1743140D1*
Y1740140D1*
Y1737140D1*
Y1734140D1*
Y1731140D1*
Y1728140D1*
Y1725140D1*
Y1722140D1*
Y1719140D1*
Y1716140D1*
Y1713140D1*
Y1710140D1*
Y1707140D1*
Y1704140D1*
Y1701140D1*
Y1698140D1*
Y1695140D1*
Y1692140D1*
Y1689140D1*
Y1686140D1*
Y1683140D1*
Y1680140D1*
Y1677140D1*
Y1674140D1*
Y1671140D1*
Y1668140D1*
Y1665140D1*
Y1662140D1*
Y1659140D1*
Y1656140D1*
Y1653140D1*
Y1650140D1*
Y1647140D1*
Y1644140D1*
Y1641140D1*
Y1638140D1*
Y1635140D1*
Y1632140D1*
Y1629140D1*
Y1626140D1*
Y1623140D1*
Y1620140D1*
Y1617140D1*
Y1614140D1*
Y1611140D1*
Y1608140D1*
Y1605140D1*
Y1602140D1*
Y1599140D1*
Y1596140D1*
Y1593140D1*
Y1590140D1*
Y1587140D1*
Y1584140D1*
Y1581140D1*
Y1578140D1*
Y1575140D1*
Y1572140D1*
Y1569140D1*
Y1566140D1*
Y1563140D1*
Y1560140D1*
Y1557140D1*
Y1554140D1*
Y1551140D1*
Y1548140D1*
Y1545140D1*
Y1542140D1*
Y1539140D1*
Y1536140D1*
Y1533140D1*
Y1530140D1*
Y1527140D1*
Y1524140D1*
Y1521140D1*
Y1518140D1*
Y1515140D1*
Y1512140D1*
Y1509140D1*
Y1506140D1*
Y1503140D1*
Y1500140D1*
Y1497140D1*
Y1494140D1*
Y1491140D1*
Y1488140D1*
Y1485140D1*
Y1482140D1*
Y1479140D1*
Y1476140D1*
Y1473140D1*
Y1470140D1*
Y1467140D1*
Y1464140D1*
Y1461140D1*
Y1458140D1*
Y1455140D1*
Y1452140D1*
Y1449140D1*
Y1446140D1*
Y1443140D1*
Y1440140D1*
Y1437140D1*
Y1434140D1*
Y1431140D1*
Y1428140D1*
Y1425140D1*
Y1422140D1*
Y1419140D1*
Y1416140D1*
Y1413140D1*
Y1410140D1*
Y1407140D1*
Y1404140D1*
Y1401140D1*
Y1398140D1*
Y1395140D1*
Y1392140D1*
Y1389140D1*
Y1386140D1*
Y1383140D1*
Y1380140D1*
Y1377140D1*
Y1374140D1*
Y1371140D1*
Y1368140D1*
Y1365140D1*
Y1362140D1*
Y1359140D1*
Y1356140D1*
Y1353140D1*
Y1350140D1*
Y1347140D1*
Y1344140D1*
Y1341140D1*
Y1338140D1*
Y1335140D1*
Y1332140D1*
X940630Y1848140D2*
X942015Y1845140D1*
X942877Y1842140D1*
X943313Y1839140D1*
X943506Y1836140D1*
X943585Y1833140D1*
X943614Y1830140D1*
X943625Y1827140D1*
X943629Y1824140D1*
X943630Y1821140D1*
Y1818140D1*
Y1815140D1*
Y1812140D1*
Y1809140D1*
Y1806140D1*
Y1803140D1*
Y1800140D1*
Y1797140D1*
Y1794140D1*
Y1791140D1*
Y1788140D1*
Y1785140D1*
Y1782140D1*
Y1779140D1*
Y1776140D1*
Y1773140D1*
Y1770140D1*
Y1767140D1*
Y1764140D1*
Y1761140D1*
Y1758140D1*
Y1755140D1*
Y1752140D1*
Y1749140D1*
Y1746140D1*
Y1743140D1*
Y1740140D1*
Y1737140D1*
Y1734140D1*
Y1731140D1*
Y1728140D1*
Y1725140D1*
Y1722140D1*
Y1719140D1*
Y1716140D1*
Y1713140D1*
Y1710140D1*
Y1707140D1*
Y1704140D1*
Y1701140D1*
Y1698140D1*
Y1695140D1*
Y1692140D1*
Y1689140D1*
Y1686140D1*
Y1683140D1*
Y1680140D1*
Y1677140D1*
Y1674140D1*
Y1671140D1*
Y1668140D1*
Y1665140D1*
Y1662140D1*
Y1659140D1*
Y1656140D1*
Y1653140D1*
Y1650140D1*
Y1647140D1*
Y1644140D1*
Y1641140D1*
Y1638140D1*
Y1635140D1*
Y1632140D1*
Y1629140D1*
Y1626140D1*
Y1623140D1*
Y1620140D1*
Y1617140D1*
Y1614140D1*
Y1611140D1*
Y1608140D1*
Y1605140D1*
Y1602140D1*
Y1599140D1*
Y1596140D1*
Y1593140D1*
Y1590140D1*
Y1587140D1*
Y1584140D1*
Y1581140D1*
Y1578140D1*
Y1575140D1*
Y1572140D1*
Y1569140D1*
Y1566140D1*
Y1563140D1*
Y1560140D1*
Y1557140D1*
Y1554140D1*
Y1551140D1*
Y1548140D1*
Y1545140D1*
Y1542140D1*
Y1539140D1*
Y1536140D1*
Y1533140D1*
Y1530140D1*
Y1527140D1*
Y1524140D1*
Y1521140D1*
Y1518140D1*
Y1515140D1*
Y1512140D1*
Y1509140D1*
Y1506140D1*
Y1503140D1*
Y1500140D1*
Y1497140D1*
Y1494140D1*
Y1491140D1*
Y1488140D1*
Y1485140D1*
Y1482140D1*
Y1479140D1*
Y1476140D1*
Y1473140D1*
Y1470140D1*
Y1467140D1*
Y1464140D1*
Y1461140D1*
Y1458140D1*
Y1455140D1*
Y1452140D1*
Y1449140D1*
Y1446140D1*
Y1443140D1*
Y1440140D1*
Y1437140D1*
Y1434140D1*
Y1431140D1*
Y1428140D1*
Y1425140D1*
Y1422140D1*
Y1419140D1*
Y1416140D1*
Y1413140D1*
Y1410140D1*
Y1407140D1*
Y1404140D1*
Y1401140D1*
Y1398140D1*
Y1395140D1*
Y1392140D1*
Y1389140D1*
Y1386140D1*
Y1383140D1*
Y1380140D1*
Y1377140D1*
Y1374140D1*
Y1371140D1*
Y1368140D1*
Y1365140D1*
Y1362140D1*
Y1359140D1*
Y1356140D1*
Y1353140D1*
Y1350140D1*
Y1347140D1*
Y1344140D1*
Y1341140D1*
Y1338140D1*
Y1335140D1*
Y1332140D1*
X781630Y1827140D2*
X781619Y1824140D1*
X781513Y1821140D1*
X781131Y1818140D1*
X780412Y1815140D1*
X779643Y1812140D1*
X779120Y1809140D1*
X778842Y1806140D1*
X778715Y1803140D1*
X778662Y1800140D1*
X778642Y1797140D1*
X778634Y1794140D1*
X778632Y1791140D1*
X778631Y1788140D1*
Y1785140D1*
X778630Y1782140D1*
Y1779140D1*
Y1776140D1*
X778619Y1773140D1*
X778513Y1770140D1*
X778131Y1767140D1*
X777412Y1764140D1*
X776643Y1761140D1*
X776108Y1758140D1*
X775725Y1755140D1*
X775203Y1752140D1*
X774315Y1749140D1*
X773038Y1746140D1*
X771395Y1743140D1*
X769509Y1740140D1*
X767589Y1737140D1*
X765517Y1734140D1*
X763115Y1731140D1*
X760523Y1728140D1*
X758041Y1725140D1*
X755815Y1722140D1*
X753606Y1719140D1*
X751149Y1716140D1*
X748535Y1713140D1*
X746045Y1710140D1*
X743817Y1707140D1*
X741606Y1704140D1*
X739137Y1701140D1*
X736429Y1698140D1*
X733663Y1695140D1*
X731098Y1692140D1*
X728837Y1689140D1*
X726614Y1686140D1*
X724140Y1683140D1*
X721419Y1680140D1*
X718546Y1677140D1*
X715599Y1674140D1*
X712631Y1671140D1*
X709744Y1668140D1*
X707129Y1665140D1*
X704848Y1662140D1*
X702618Y1659140D1*
X700141Y1656140D1*
X697419Y1653140D1*
X694546Y1650140D1*
X691599Y1647140D1*
X688619Y1644140D1*
X685627Y1641140D1*
X682617Y1638140D1*
X679525Y1635140D1*
X676236Y1632140D1*
X672795Y1629140D1*
X669362Y1626140D1*
X665901Y1623140D1*
X662506Y1620140D1*
X659750Y1617140D1*
X657721Y1614140D1*
X657865Y1611140D1*
X659591Y1608140D1*
X661573Y1605140D1*
X663472Y1602140D1*
X665197Y1599140D1*
X666807Y1596140D1*
X668363Y1593140D1*
X669977Y1590140D1*
X671770Y1587140D1*
X673704Y1584140D1*
X675542Y1581140D1*
X677240Y1578140D1*
X678938Y1575140D1*
X680856Y1572140D1*
X683091Y1569140D1*
X685364Y1566140D1*
X687379Y1563140D1*
X689050Y1560140D1*
X690286Y1557140D1*
X691013Y1554140D1*
X691360Y1551140D1*
X691413Y1548140D1*
X691094Y1545140D1*
X690388Y1542140D1*
X689522Y1539140D1*
X688619Y1536140D1*
X687612Y1533140D1*
X686610Y1530140D1*
X685652Y1527140D1*
X684623Y1524140D1*
X683614Y1521140D1*
X682653Y1518140D1*
X681635Y1515140D1*
X680720Y1512140D1*
X680036Y1509140D1*
X679354Y1506140D1*
X678489Y1503140D1*
X677559Y1500140D1*
X676620Y1497140D1*
X675511Y1494140D1*
X674229Y1491140D1*
X672922Y1488140D1*
X671749Y1485140D1*
X670709Y1482140D1*
X669657Y1479140D1*
X668739Y1476140D1*
X668144Y1473140D1*
X667737Y1470140D1*
X667208Y1467140D1*
X666328Y1464140D1*
X665155Y1461140D1*
X663894Y1458140D1*
X662739Y1455140D1*
X661705Y1452140D1*
X660644Y1449140D1*
X659621Y1446140D1*
X658656Y1443140D1*
X657636Y1440140D1*
X656720Y1437140D1*
X656036Y1434140D1*
X655354Y1431140D1*
X654489Y1428140D1*
X653559Y1425140D1*
X652632Y1422140D1*
X651616Y1419140D1*
X650612Y1416140D1*
X649652Y1413140D1*
X648623Y1410140D1*
X647614Y1407140D1*
X646653Y1404140D1*
X645624Y1401140D1*
X644614Y1398140D1*
X643653Y1395140D1*
X642636Y1392140D1*
X641720Y1389140D1*
X641036Y1386140D1*
X640342Y1383140D1*
X639383Y1380140D1*
X638177Y1377140D1*
X636902Y1374140D1*
X635741Y1371140D1*
X634706Y1368140D1*
X633656Y1365140D1*
X632739Y1362140D1*
X632153Y1359140D1*
X631836Y1356140D1*
X631630Y1353140D1*
X844630Y1827140D2*
X842106Y1824140D1*
X839955Y1821140D1*
X838126Y1818140D1*
X836475Y1815140D1*
X834917Y1812140D1*
X833404Y1809140D1*
X832003Y1806140D1*
X830880Y1803140D1*
X830100Y1800140D1*
X829367Y1797140D1*
X828392Y1794140D1*
X827168Y1791140D1*
X825798Y1788140D1*
X824359Y1785140D1*
X822976Y1782140D1*
X821769Y1779140D1*
X820716Y1776140D1*
X819648Y1773140D1*
X818623Y1770140D1*
X817656Y1767140D1*
X816636Y1764140D1*
X815743Y1761140D1*
X815270Y1758140D1*
X815353Y1755140D1*
X815937Y1752140D1*
X816650Y1749140D1*
X817153Y1746140D1*
X817411Y1743140D1*
X817419Y1740140D1*
X816971Y1737140D1*
X815785Y1734140D1*
X813910Y1731140D1*
X811785Y1728140D1*
X809715Y1725140D1*
X807569Y1722140D1*
X805124Y1719140D1*
X802413Y1716140D1*
X799556Y1713140D1*
X796704Y1710140D1*
X794001Y1707140D1*
X791345Y1704140D1*
X788410Y1701140D1*
X785270Y1698140D1*
X782408Y1695140D1*
X779976Y1692140D1*
X777670Y1689140D1*
X775161Y1686140D1*
X772426Y1683140D1*
X769549Y1680140D1*
X766600Y1677140D1*
X763631Y1674140D1*
X760744Y1671140D1*
X758129Y1668140D1*
X755848Y1665140D1*
X753618Y1662140D1*
X751141Y1659140D1*
X748419Y1656140D1*
X745546Y1653140D1*
X742599Y1650140D1*
X739619Y1647140D1*
X736627Y1644140D1*
X733629Y1641140D1*
X730630Y1638140D1*
X727630Y1635140D1*
X724642Y1632140D1*
X721748Y1629140D1*
X719130Y1626140D1*
X716848Y1623140D1*
X714618Y1620140D1*
X712153Y1617140D1*
X709548Y1614140D1*
X707186Y1611140D1*
X705224Y1608140D1*
X704616Y1605140D1*
X705116Y1602140D1*
X705845Y1599140D1*
X706683Y1596140D1*
X707653Y1593140D1*
X708551Y1590140D1*
X709228Y1587140D1*
X709920Y1584140D1*
X710878Y1581140D1*
X712096Y1578140D1*
X713464Y1575140D1*
X714913Y1572140D1*
X716402Y1569140D1*
X717991Y1566140D1*
X719775Y1563140D1*
X721718Y1560140D1*
X723648Y1557140D1*
X725623Y1554140D1*
X727656Y1551140D1*
X729637Y1548140D1*
X731732Y1545140D1*
X734153Y1542140D1*
X736854Y1539140D1*
X739719Y1536140D1*
X742663Y1533140D1*
X745654Y1530140D1*
X748752Y1527140D1*
X752143Y1524140D1*
X755978Y1521140D1*
X760234Y1518140D1*
X764882Y1515140D1*
X769870Y1512140D1*
X775184Y1509140D1*
X781091Y1506140D1*
X787785Y1503140D1*
X795376Y1500140D1*
X804347Y1497140D1*
X815526Y1494140D1*
X829335Y1491140D1*
X844630Y1488140D1*
X922630Y1824140D2*
X919980Y1821140D1*
X917339Y1818140D1*
X914397Y1815140D1*
X911165Y1812140D1*
X908026Y1809140D1*
X905257Y1806140D1*
X902901Y1803140D1*
X900638Y1800140D1*
X898148Y1797140D1*
X895422Y1794140D1*
X892547Y1791140D1*
X889611Y1788140D1*
X886760Y1785140D1*
X884372Y1782140D1*
X882558Y1779140D1*
X882703Y1776140D1*
X883551Y1773140D1*
X884996Y1770140D1*
X886788Y1767140D1*
X888572Y1764140D1*
X890239Y1761140D1*
X891824Y1758140D1*
X893357Y1755140D1*
X894874Y1752140D1*
X896376Y1749140D1*
X897869Y1746140D1*
X899262Y1743140D1*
X900382Y1740140D1*
X901161Y1737140D1*
X901883Y1734140D1*
X902752Y1731140D1*
X903582Y1728140D1*
X904140Y1725140D1*
X904532Y1722140D1*
X905044Y1719140D1*
X905816Y1716140D1*
X906606Y1713140D1*
X907137Y1710140D1*
X907418Y1707140D1*
X907546Y1704140D1*
X907599Y1701140D1*
X907619Y1698140D1*
X907627Y1695140D1*
X907629Y1692140D1*
X907630Y1689140D1*
Y1686140D1*
X907619Y1683140D1*
X907513Y1680140D1*
X907131Y1677140D1*
X906412Y1674140D1*
X905632Y1671140D1*
X905003Y1668140D1*
X904342Y1665140D1*
X903497Y1662140D1*
X902663Y1659140D1*
X902014Y1656140D1*
X901346Y1653140D1*
X900486Y1650140D1*
X899558Y1647140D1*
X898620Y1644140D1*
X897499Y1641140D1*
X896112Y1638140D1*
X894434Y1635140D1*
X892636Y1632140D1*
X891092Y1629140D1*
X889736Y1626140D1*
X888091Y1623140D1*
X885928Y1620140D1*
X883448Y1617140D1*
X881013Y1614140D1*
X878794Y1611140D1*
X876485Y1608140D1*
X873636Y1605140D1*
X870188Y1602140D1*
X866441Y1599140D1*
X862589Y1596140D1*
X858601Y1593140D1*
X854595Y1590140D1*
X850498Y1587140D1*
X845754Y1584140D1*
X839709Y1581140D1*
X832113Y1578140D1*
X823630Y1575140D1*
X925630Y1824140D2*
Y1821140D1*
Y1818140D1*
Y1815140D1*
Y1812140D1*
Y1809140D1*
Y1806140D1*
Y1803140D1*
Y1800140D1*
Y1797140D1*
Y1794140D1*
Y1791140D1*
Y1788140D1*
Y1785140D1*
Y1782140D1*
Y1779140D1*
Y1776140D1*
Y1773140D1*
Y1770140D1*
Y1767140D1*
Y1764140D1*
Y1761140D1*
Y1758140D1*
Y1755140D1*
Y1752140D1*
Y1749140D1*
Y1746140D1*
Y1743140D1*
Y1740140D1*
Y1737140D1*
Y1734140D1*
Y1731140D1*
Y1728140D1*
Y1725140D1*
Y1722140D1*
Y1719140D1*
Y1716140D1*
Y1713140D1*
Y1710140D1*
Y1707140D1*
Y1704140D1*
Y1701140D1*
Y1698140D1*
Y1695140D1*
Y1692140D1*
Y1689140D1*
Y1686140D1*
Y1683140D1*
Y1680140D1*
Y1677140D1*
Y1674140D1*
Y1671140D1*
Y1668140D1*
Y1665140D1*
Y1662140D1*
Y1659140D1*
Y1656140D1*
Y1653140D1*
Y1650140D1*
Y1647140D1*
Y1644140D1*
Y1641140D1*
Y1638140D1*
Y1635140D1*
Y1632140D1*
Y1629140D1*
Y1626140D1*
Y1623140D1*
Y1620140D1*
Y1617140D1*
Y1614140D1*
Y1611140D1*
Y1608140D1*
Y1605140D1*
Y1602140D1*
Y1599140D1*
Y1596140D1*
Y1593140D1*
Y1590140D1*
Y1587140D1*
Y1584140D1*
Y1581140D1*
Y1578140D1*
Y1575140D1*
Y1572140D1*
Y1569140D1*
Y1566140D1*
Y1563140D1*
Y1560140D1*
Y1557140D1*
Y1554140D1*
Y1551140D1*
X925607Y1548140D1*
X925373Y1545140D1*
X924810Y1542140D1*
X922035Y1539140D1*
X917862Y1536140D1*
X912262Y1533140D1*
X904891Y1530140D1*
X894756Y1527140D1*
X881205Y1524140D1*
X865630Y1521140D1*
X853630Y1749140D2*
X850630Y1746140D1*
X847630Y1743140D1*
X844630Y1740140D1*
X841630Y1737140D1*
X838642Y1734140D1*
X835771Y1731140D1*
X833376Y1728140D1*
X831558Y1725140D1*
X831589Y1722140D1*
X832053Y1719140D1*
X832767Y1716140D1*
X833684Y1713140D1*
X834550Y1710140D1*
X835115Y1707140D1*
X835410Y1704140D1*
X835543Y1701140D1*
X835598Y1698140D1*
X835607Y1695140D1*
X835509Y1692140D1*
X835130Y1689140D1*
X834400Y1686140D1*
X833526Y1683140D1*
X832620Y1680140D1*
X831612Y1677140D1*
X830598Y1674140D1*
X829523Y1671140D1*
X828007Y1668140D1*
X825885Y1665140D1*
X823319Y1662140D1*
X820486Y1659140D1*
X817340Y1656140D1*
X813485Y1653140D1*
X808545Y1650140D1*
X802737Y1647140D1*
X796630Y1644140D1*
X859630Y1749140D2*
X860208Y1746140D1*
X861337Y1743140D1*
X862844Y1740140D1*
X864244Y1737140D1*
X865440Y1734140D1*
X866670Y1731140D1*
X868002Y1728140D1*
X869316Y1725140D1*
X870403Y1722140D1*
X871169Y1719140D1*
X871885Y1716140D1*
X872753Y1713140D1*
X873582Y1710140D1*
X874128Y1707140D1*
X874415Y1704140D1*
X874545Y1701140D1*
X874598Y1698140D1*
X874619Y1695140D1*
X874627Y1692140D1*
X874629Y1689140D1*
X874630Y1686140D1*
X874619Y1683140D1*
X874513Y1680140D1*
X874131Y1677140D1*
X873401Y1674140D1*
X872526Y1671140D1*
X871621Y1668140D1*
X870612Y1665140D1*
X869610Y1662140D1*
X868640Y1659140D1*
X867518Y1656140D1*
X866220Y1653140D1*
X864806Y1650140D1*
X863238Y1647140D1*
X861373Y1644140D1*
X859158Y1641140D1*
X856882Y1638140D1*
X854740Y1635140D1*
X852465Y1632140D1*
X849629Y1629140D1*
X846185Y1626140D1*
X842429Y1623140D1*
X838436Y1620140D1*
X833732Y1617140D1*
X827701Y1614140D1*
X820111Y1611140D1*
X811630Y1608140D1*
X793630Y1680140D2*
X788821Y1677140D1*
X784800Y1674140D1*
X783283Y1671140D1*
X783731Y1668140D1*
X784630Y1665140D1*
X790630Y1680140D2*
X793493Y1677140D1*
X795878Y1674140D1*
X797670Y1671140D1*
X797378Y1668140D1*
X796630Y1665140D1*
X763630Y1650140D2*
X760745Y1647140D1*
X758129Y1644140D1*
X755848Y1641140D1*
X753618Y1638140D1*
X751143Y1635140D1*
X748437Y1632140D1*
X745630Y1629140D1*
X748756Y1626140D1*
X752258Y1623140D1*
X756500Y1620140D1*
X761716Y1617140D1*
X768153Y1614140D1*
X775985Y1611140D1*
X784630Y1608140D1*
X763630Y1650140D2*
X772630Y1647140D1*
X781630Y1644140D1*
X742630Y1593140D2*
X743220Y1590140D1*
X744454Y1587140D1*
X746344Y1584140D1*
X748474Y1581140D1*
X750545Y1578140D1*
X752692Y1575140D1*
X755137Y1572140D1*
X757836Y1569140D1*
X760611Y1566140D1*
X763280Y1563140D1*
X765923Y1560140D1*
X768877Y1557140D1*
X772226Y1554140D1*
X775852Y1551140D1*
X779733Y1548140D1*
X783694Y1545140D1*
X787761Y1542140D1*
X792375Y1539140D1*
X797900Y1536140D1*
X804453Y1533140D1*
X812372Y1530140D1*
X822627Y1527140D1*
X835805Y1524140D1*
X850630Y1521140D1*
X742630Y1593140D2*
X748167Y1590140D1*
X753446Y1587140D1*
X758898Y1584140D1*
X765298Y1581140D1*
X773054Y1578140D1*
X781630Y1575140D1*
X634630Y1587140D2*
Y1584140D1*
Y1581140D1*
Y1578140D1*
Y1575140D1*
Y1572140D1*
Y1569140D1*
Y1566140D1*
Y1563140D1*
Y1560140D1*
Y1557140D1*
Y1554140D1*
Y1551140D1*
Y1548140D1*
Y1545140D1*
Y1542140D1*
Y1539140D1*
Y1536140D1*
Y1533140D1*
Y1530140D1*
Y1527140D1*
Y1524140D1*
Y1521140D1*
Y1518140D1*
Y1515140D1*
Y1512140D1*
Y1509140D1*
Y1506140D1*
Y1503140D1*
Y1500140D1*
Y1497140D1*
Y1494140D1*
Y1491140D1*
Y1488140D1*
Y1485140D1*
Y1482140D1*
Y1479140D1*
Y1476140D1*
Y1473140D1*
Y1470140D1*
Y1467140D1*
Y1464140D1*
Y1461140D1*
Y1458140D1*
Y1455140D1*
Y1452140D1*
Y1449140D1*
Y1446140D1*
Y1443140D1*
Y1440140D1*
X640630Y1587140D2*
X641208Y1584140D1*
X642348Y1581140D1*
X643961Y1578140D1*
X645744Y1575140D1*
X647658Y1572140D1*
X649669Y1569140D1*
X651629Y1566140D1*
X653616Y1563140D1*
X655654Y1560140D1*
X657636Y1557140D1*
X659720Y1554140D1*
X662036Y1551140D1*
X664352Y1548140D1*
X666473Y1545140D1*
X668523Y1542140D1*
X670630Y1539140D1*
X669234Y1536140D1*
X668267Y1533140D1*
X667448Y1530140D1*
X666525Y1527140D1*
X665572Y1524140D1*
X664637Y1521140D1*
X663618Y1518140D1*
X662612Y1515140D1*
X661653Y1512140D1*
X660624Y1509140D1*
X659614Y1506140D1*
X658653Y1503140D1*
X657635Y1500140D1*
X656720Y1497140D1*
X656036Y1494140D1*
X655354Y1491140D1*
X654489Y1488140D1*
X653559Y1485140D1*
X652632Y1482140D1*
X651616Y1479140D1*
X650612Y1476140D1*
X649652Y1473140D1*
X648623Y1470140D1*
X647614Y1467140D1*
X646653Y1464140D1*
X645624Y1461140D1*
X644614Y1458140D1*
X643653Y1455140D1*
X642636Y1452140D1*
X641731Y1449140D1*
X641150Y1446140D1*
X640835Y1443140D1*
X640630Y1440140D1*
X925630Y1503140D2*
X916469Y1500140D1*
X906626Y1497140D1*
X895027Y1494140D1*
X881031Y1491140D1*
X865630Y1488140D1*
X925630Y1503140D2*
Y1500140D1*
Y1497140D1*
Y1494140D1*
Y1491140D1*
Y1488140D1*
Y1485140D1*
Y1482140D1*
Y1479140D1*
Y1476140D1*
Y1473140D1*
X925619Y1470140D1*
X925502Y1467140D1*
X924967Y1464140D1*
X923925Y1461140D1*
X919918Y1458140D1*
X913154Y1455140D1*
X903180Y1452140D1*
X890880Y1449140D1*
X877630Y1446140D1*
X781630Y1467140D2*
X781619Y1464140D1*
X781513Y1461140D1*
X781131Y1458140D1*
X780412Y1455140D1*
X779643Y1452140D1*
X779108Y1449140D1*
X778725Y1446140D1*
X778213Y1443140D1*
X777416Y1440140D1*
X776503Y1437140D1*
X775630Y1434140D1*
X790630Y1464140D2*
X796780Y1461140D1*
X803516Y1458140D1*
X811732Y1455140D1*
X822131Y1452140D1*
X834455Y1449140D1*
X847630Y1446140D1*
X748630Y1440140D2*
X747131Y1437140D1*
X745885Y1434140D1*
X744730Y1431140D1*
X743767Y1428140D1*
X743166Y1425140D1*
X742858Y1422140D1*
X742708Y1419140D1*
X742547Y1416140D1*
X742143Y1413140D1*
X741405Y1410140D1*
X740527Y1407140D1*
X739609Y1404140D1*
X738497Y1401140D1*
X737130Y1398140D1*
X735481Y1395140D1*
X733630Y1392140D1*
X757630Y1440140D2*
X760630Y1437140D1*
X763630Y1434140D1*
X703630Y1404140D2*
X703167Y1401140D1*
X702423Y1398140D1*
X701646Y1395140D1*
X701121Y1392140D1*
X700842Y1389140D1*
X700715Y1386140D1*
X700662Y1383140D1*
X700642Y1380140D1*
X700634Y1377140D1*
X700620Y1374140D1*
X700514Y1371140D1*
X700131Y1368140D1*
X699412Y1365140D1*
X698643Y1362140D1*
X698118Y1359140D1*
X697824Y1356140D1*
X697630Y1353140D1*
X712630Y1404140D2*
X715753Y1401140D1*
X719219Y1398140D1*
X723245Y1395140D1*
X727630Y1392140D1*
X1283583Y1019209D2*
D77*
X1270683D1*
X1266372Y1020668D1*
X1264913Y1022094D1*
X1263487Y1024946D1*
Y1027831D1*
X1264913Y1030683D1*
X1266372Y1032142D1*
X1270683Y1033568D1*
X1283583D1*
Y1003424D1*
X1273535Y1019209D2*
X1263487Y1003424D1*
X1254223Y1027798D2*
X1251338Y1029257D1*
X1247027Y1033535D1*
Y1003424D1*
X1237764Y1027798D2*
X1234879Y1029257D1*
X1230568Y1033535D1*
Y1003424D1*
X1486764Y1116073D2*
Y1094552D1*
X1485338Y1090240D1*
X1482453Y1087389D1*
X1478142Y1085929D1*
X1475290D1*
X1470979Y1087389D1*
X1468094Y1090240D1*
X1466668Y1094552D1*
Y1116073D1*
X1454519Y1116040D2*
X1438767D1*
X1447356Y1104566D1*
X1443045D1*
X1440193Y1103140D1*
X1438767Y1101714D1*
X1437308Y1097403D1*
Y1094552D1*
X1438767Y1090240D1*
X1441619Y1087355D1*
X1445930Y1085929D1*
X1450241D1*
X1454519Y1087355D1*
X1455945Y1088815D1*
X1457404Y1091666D1*
X1858975Y1358609D2*
D79*
X1841731D1*
X1836027Y1360510D1*
X1834081Y1362455D1*
X1832180Y1366258D1*
Y1372006D1*
X1834081Y1375809D1*
X1836027Y1377754D1*
X1841731Y1379655D1*
X1858975D1*
Y1339463D1*
X1819829Y1366258D2*
Y1339463D1*
Y1354762D2*
X1817883Y1360510D1*
X1814081Y1364357D1*
X1810234Y1366258D1*
X1804486D1*
X1782584D2*
X1786386Y1364357D1*
X1790233Y1360510D1*
X1792134Y1354762D1*
Y1350959D1*
X1790233Y1345211D1*
X1786386Y1341409D1*
X1782584Y1339463D1*
X1776836D1*
X1772989Y1341409D1*
X1769186Y1345211D1*
X1767241Y1350959D1*
Y1354762D1*
X1769186Y1360510D1*
X1772989Y1364357D1*
X1776836Y1366258D1*
X1782584D1*
X1731942Y1364357D2*
Y1333715D1*
X1733843Y1328012D1*
X1735744Y1326066D1*
X1739591Y1324165D1*
X1745339D1*
X1749142Y1326066D1*
X1731942Y1358609D2*
X1735744Y1362411D1*
X1739591Y1364357D1*
X1745339D1*
X1749142Y1362411D1*
X1752988Y1358609D1*
X1754890Y1352861D1*
Y1349014D1*
X1752988Y1343310D1*
X1749142Y1339463D1*
X1745339Y1337562D1*
X1739591D1*
X1735744Y1339463D1*
X1731942Y1343310D1*
X1719590Y1366258D2*
Y1339463D1*
Y1354762D2*
X1717645Y1360510D1*
X1713842Y1364357D1*
X1709995Y1366258D1*
X1704247D1*
X1668948D2*
Y1339463D1*
Y1360510D2*
X1672751Y1364357D1*
X1676597Y1366258D1*
X1682301D1*
X1686148Y1364357D1*
X1689951Y1360510D1*
X1691896Y1354762D1*
Y1350959D1*
X1689951Y1345211D1*
X1686148Y1341409D1*
X1682301Y1339463D1*
X1676597D1*
X1672751Y1341409D1*
X1668948Y1345211D1*
X1656597Y1366258D2*
Y1339463D1*
Y1358609D2*
X1650849Y1364357D1*
X1647002Y1366258D1*
X1641298D1*
X1637451Y1364357D1*
X1635550Y1358609D1*
Y1339463D1*
Y1358609D2*
X1629802Y1364357D1*
X1625955Y1366258D1*
X1620251D1*
X1616405Y1364357D1*
X1614459Y1358609D1*
Y1339463D1*
X1602108Y1366258D2*
Y1339463D1*
Y1358609D2*
X1596360Y1364357D1*
X1592513Y1366258D1*
X1586809D1*
X1582962Y1364357D1*
X1581061Y1358609D1*
Y1339463D1*
Y1358609D2*
X1575313Y1364357D1*
X1571466Y1366258D1*
X1565763D1*
X1561916Y1364357D1*
X1559970Y1358609D1*
Y1339463D1*
X1547619Y1379655D2*
X1545718Y1377754D1*
X1543772Y1379655D1*
X1545718Y1381601D1*
X1547619Y1379655D1*
X1545718Y1366258D2*
Y1339463D1*
X1531421Y1366258D2*
Y1339463D1*
Y1358609D2*
X1525673Y1364357D1*
X1521826Y1366258D1*
X1516122D1*
X1512275Y1364357D1*
X1510374Y1358609D1*
Y1339463D1*
X1475075Y1364357D2*
Y1333715D1*
X1476976Y1328012D1*
X1478877Y1326066D1*
X1482724Y1324165D1*
X1488472D1*
X1492275Y1326066D1*
X1475075Y1358609D2*
X1478877Y1362411D1*
X1482724Y1364357D1*
X1488472D1*
X1492275Y1362411D1*
X1496121Y1358609D1*
X1498023Y1352861D1*
Y1349014D1*
X1496121Y1343310D1*
X1492275Y1339463D1*
X1488472Y1337562D1*
X1482724D1*
X1478877Y1339463D1*
X1475075Y1343310D1*
X1423843Y1379655D2*
X1421941Y1377754D1*
X1419996Y1379655D1*
X1421941Y1381601D1*
X1423843Y1379655D1*
X1421941Y1366258D2*
Y1339463D1*
X1407645Y1366258D2*
Y1339463D1*
Y1358609D2*
X1401897Y1364357D1*
X1398050Y1366258D1*
X1392346D1*
X1388499Y1364357D1*
X1386598Y1358609D1*
Y1339463D1*
X1353200Y1360510D2*
X1355101Y1364357D1*
X1360849Y1366258D1*
X1366597D1*
X1372345Y1364357D1*
X1374246Y1360510D1*
X1372345Y1356707D1*
X1368498Y1354762D1*
X1358948Y1352861D1*
X1355101Y1350959D1*
X1353200Y1347113D1*
Y1345211D1*
X1355101Y1341409D1*
X1360849Y1339463D1*
X1366597D1*
X1372345Y1341409D1*
X1374246Y1345211D1*
X1335100Y1379655D2*
Y1347113D1*
X1333199Y1341409D1*
X1329352Y1339463D1*
X1325550D1*
X1340848Y1366258D2*
X1327451D1*
X1313198D2*
Y1339463D1*
Y1354762D2*
X1311253Y1360510D1*
X1307450Y1364357D1*
X1303604Y1366258D1*
X1297856D1*
X1285504D2*
Y1347113D1*
X1283603Y1341409D1*
X1279756Y1339463D1*
X1274008D1*
X1270206Y1341409D1*
X1264458Y1347113D1*
Y1366258D2*
Y1339463D1*
X1229114Y1360510D2*
X1232961Y1364357D1*
X1236808Y1366258D1*
X1242511D1*
X1246358Y1364357D1*
X1250161Y1360510D1*
X1252106Y1354762D1*
Y1350959D1*
X1250161Y1345211D1*
X1246358Y1341409D1*
X1242511Y1339463D1*
X1236808D1*
X1232961Y1341409D1*
X1229114Y1345211D1*
X1211015Y1379655D2*
Y1347113D1*
X1209113Y1341409D1*
X1205267Y1339463D1*
X1201464D1*
X1216763Y1366258D2*
X1203365D1*
X1189113Y1379655D2*
X1187211Y1377754D1*
X1185266Y1379655D1*
X1187211Y1381601D1*
X1189113Y1379655D1*
X1187211Y1366258D2*
Y1339463D1*
X1163364Y1366258D2*
X1167166Y1364357D1*
X1171013Y1360510D1*
X1172915Y1354762D1*
Y1350959D1*
X1171013Y1345211D1*
X1167166Y1341409D1*
X1163364Y1339463D1*
X1157616D1*
X1153769Y1341409D1*
X1149967Y1345211D1*
X1148021Y1350959D1*
Y1354762D1*
X1149967Y1360510D1*
X1153769Y1364357D1*
X1157616Y1366258D1*
X1163364D1*
X1135670D2*
Y1339463D1*
Y1358609D2*
X1129922Y1364357D1*
X1126075Y1366258D1*
X1120371D1*
X1116524Y1364357D1*
X1114623Y1358609D1*
Y1339463D1*
X1081225Y1360510D2*
X1083126Y1364357D1*
X1088874Y1366258D1*
X1094622D1*
X1100370Y1364357D1*
X1102272Y1360510D1*
X1100370Y1356707D1*
X1096524Y1354762D1*
X1086973Y1352861D1*
X1083126Y1350959D1*
X1081225Y1347113D1*
Y1345211D1*
X1083126Y1341409D1*
X1088874Y1339463D1*
X1094622D1*
X1100370Y1341409D1*
X1102272Y1345211D1*
X1066928Y1366258D2*
X1068874Y1364313D1*
X1066928Y1362411D1*
X1065027Y1364313D1*
X1066928Y1366258D1*
Y1343310D2*
X1068874Y1341365D1*
X1066928Y1339463D1*
X1065027Y1341365D1*
X1066928Y1343310D1*
X1898823Y1290784D2*
X1902625Y1288883D1*
X1906472Y1285036D1*
X1908373Y1279288D1*
Y1275486D1*
X1906472Y1269738D1*
X1902625Y1265935D1*
X1898823Y1263990D1*
X1893075D1*
X1889228Y1265935D1*
X1885426Y1269738D1*
X1883480Y1275486D1*
Y1279288D1*
X1885426Y1285036D1*
X1889228Y1288883D1*
X1893075Y1290784D1*
X1898823D1*
X1871129Y1304182D2*
X1869227Y1302280D1*
X1867282Y1304182D1*
X1869227Y1306127D1*
X1871129Y1304182D1*
X1869227Y1290784D2*
Y1263990D1*
X1849182Y1304182D2*
Y1271639D1*
X1847281Y1265935D1*
X1843434Y1263990D1*
X1839632D1*
X1854931Y1290784D2*
X1841533D1*
X1825379Y1267836D2*
X1827281Y1265891D1*
X1825379Y1263990D1*
X1823434Y1265891D1*
X1825379Y1267836D1*
X1811082Y1279288D2*
X1788134D1*
Y1283135D1*
X1790036Y1286982D1*
X1791937Y1288883D1*
X1795784Y1290784D1*
X1801532D1*
X1805334Y1288883D1*
X1809181Y1285036D1*
X1811082Y1279288D1*
Y1275486D1*
X1809181Y1269738D1*
X1805334Y1265935D1*
X1801532Y1263990D1*
X1795784D1*
X1791937Y1265935D1*
X1788134Y1269738D1*
X1752835Y1304182D2*
Y1263990D1*
Y1285036D2*
X1756638Y1288883D1*
X1760484Y1290784D1*
X1766232D1*
X1770035Y1288883D1*
X1773882Y1285036D1*
X1775783Y1279288D1*
Y1275486D1*
X1773882Y1269738D1*
X1770035Y1265935D1*
X1766232Y1263990D1*
X1760484D1*
X1756638Y1265935D1*
X1752835Y1269738D1*
X1740484Y1290784D2*
Y1271639D1*
X1738582Y1265935D1*
X1734736Y1263990D1*
X1728988D1*
X1725185Y1265935D1*
X1719437Y1271639D1*
Y1290784D2*
Y1263990D1*
X1707086D2*
X1680291Y1304137D1*
X1644948Y1285036D2*
X1648794Y1288883D1*
X1652641Y1290784D1*
X1658345D1*
X1662192Y1288883D1*
X1665994Y1285036D1*
X1667940Y1279288D1*
Y1275486D1*
X1665994Y1269738D1*
X1662192Y1265935D1*
X1658345Y1263990D1*
X1652641D1*
X1648794Y1265935D1*
X1644948Y1269738D1*
X1632596Y1279288D2*
X1609648D1*
Y1283135D1*
X1611549Y1286982D1*
X1613451Y1288883D1*
X1617298Y1290784D1*
X1623046D1*
X1626848Y1288883D1*
X1630695Y1285036D1*
X1632596Y1279288D1*
Y1275486D1*
X1630695Y1269738D1*
X1626848Y1265935D1*
X1623046Y1263990D1*
X1617298D1*
X1613451Y1265935D1*
X1609648Y1269738D1*
X1591549Y1304182D2*
Y1271639D1*
X1589648Y1265935D1*
X1585801Y1263990D1*
X1581998D1*
X1597297Y1290784D2*
X1583899D1*
X1569647Y1263990D2*
X1542852Y1304137D1*
X1520950Y1290784D2*
X1524753Y1288883D1*
X1528599Y1285036D1*
X1530501Y1279288D1*
Y1275486D1*
X1528599Y1269738D1*
X1524753Y1265935D1*
X1520950Y1263990D1*
X1515202D1*
X1511355Y1265935D1*
X1507553Y1269738D1*
X1505607Y1275486D1*
Y1279288D1*
X1507553Y1285036D1*
X1511355Y1288883D1*
X1515202Y1290784D1*
X1520950D1*
X1493256D2*
Y1250592D1*
Y1285036D2*
X1489409Y1288839D1*
X1485607Y1290784D1*
X1479859D1*
X1476012Y1288839D1*
X1472209Y1285036D1*
X1470264Y1279288D1*
Y1275441D1*
X1472209Y1269738D1*
X1476012Y1265891D1*
X1479859Y1263990D1*
X1485607D1*
X1489409Y1265891D1*
X1493256Y1269738D1*
X1457912Y1279288D2*
X1434965D1*
Y1283135D1*
X1436866Y1286982D1*
X1438767Y1288883D1*
X1442614Y1290784D1*
X1448362D1*
X1452164Y1288883D1*
X1456011Y1285036D1*
X1457912Y1279288D1*
Y1275486D1*
X1456011Y1269738D1*
X1452164Y1265935D1*
X1448362Y1263990D1*
X1442614D1*
X1438767Y1265935D1*
X1434965Y1269738D1*
X1422613Y1290784D2*
Y1263990D1*
Y1283135D2*
X1416865Y1288883D1*
X1413018Y1290784D1*
X1407315D1*
X1403468Y1288883D1*
X1401566Y1283135D1*
Y1263990D1*
X1389215Y1284063D2*
X1367107D1*
X1333709Y1285036D2*
X1335610Y1288883D1*
X1341359Y1290784D1*
X1347107D1*
X1352855Y1288883D1*
X1354756Y1285036D1*
X1352855Y1281234D1*
X1349008Y1279288D1*
X1339457Y1277387D1*
X1335610Y1275486D1*
X1333709Y1271639D1*
Y1269738D1*
X1335610Y1265935D1*
X1341359Y1263990D1*
X1347107D1*
X1352855Y1265935D1*
X1354756Y1269738D1*
X1311807Y1290784D2*
X1315610Y1288883D1*
X1319457Y1285036D1*
X1321358Y1279288D1*
Y1275486D1*
X1319457Y1269738D1*
X1315610Y1265935D1*
X1311807Y1263990D1*
X1306059D1*
X1302212Y1265935D1*
X1298410Y1269738D1*
X1296464Y1275486D1*
Y1279288D1*
X1298410Y1285036D1*
X1302212Y1288883D1*
X1306059Y1290784D1*
X1311807D1*
X1284113D2*
Y1271639D1*
X1282212Y1265935D1*
X1278365Y1263990D1*
X1272617D1*
X1268814Y1265935D1*
X1263066Y1271639D1*
Y1290784D2*
Y1263990D1*
X1250715Y1290784D2*
Y1263990D1*
Y1279288D2*
X1248770Y1285036D1*
X1244967Y1288883D1*
X1241120Y1290784D1*
X1235372D1*
X1200029Y1285036D2*
X1203875Y1288883D1*
X1207722Y1290784D1*
X1213426D1*
X1217273Y1288883D1*
X1221075Y1285036D1*
X1223021Y1279288D1*
Y1275486D1*
X1221075Y1269738D1*
X1217273Y1265935D1*
X1213426Y1263990D1*
X1207722D1*
X1203875Y1265935D1*
X1200029Y1269738D1*
X1187677Y1279288D2*
X1164729D1*
Y1283135D1*
X1166631Y1286982D1*
X1168532Y1288883D1*
X1172379Y1290784D1*
X1178127D1*
X1181929Y1288883D1*
X1185776Y1285036D1*
X1187677Y1279288D1*
Y1275486D1*
X1185776Y1269738D1*
X1181929Y1265935D1*
X1178127Y1263990D1*
X1172379D1*
X1168532Y1265935D1*
X1164729Y1269738D1*
X1152378Y1284063D2*
X1130270D1*
X1117919Y1290784D2*
Y1250592D1*
Y1285036D2*
X1114072Y1288839D1*
X1110269Y1290784D1*
X1104521D1*
X1100675Y1288839D1*
X1096872Y1285036D1*
X1094927Y1279288D1*
Y1275441D1*
X1096872Y1269738D1*
X1100675Y1265891D1*
X1104521Y1263990D1*
X1110269D1*
X1114072Y1265891D1*
X1117919Y1269738D1*
X1082575Y1290784D2*
Y1263990D1*
Y1279288D2*
X1080630Y1285036D1*
X1076827Y1288883D1*
X1072980Y1290784D1*
X1067232D1*
X1045330D2*
X1049133Y1288883D1*
X1052980Y1285036D1*
X1054881Y1279288D1*
Y1275486D1*
X1052980Y1269738D1*
X1049133Y1265935D1*
X1045330Y1263990D1*
X1039582D1*
X1035736Y1265935D1*
X1031933Y1269738D1*
X1029988Y1275486D1*
Y1279288D1*
X1031933Y1285036D1*
X1035736Y1288883D1*
X1039582Y1290784D1*
X1045330D1*
X1009987Y1304226D2*
X1008041Y1302325D1*
X1006140Y1304226D1*
X1008041Y1306127D1*
X1009987Y1304226D1*
X1008041Y1290828D2*
Y1258286D1*
X1009987Y1252538D1*
X1013789Y1250636D1*
X1017636D1*
X993789Y1279288D2*
X970841D1*
Y1283135D1*
X972742Y1286982D1*
X974643Y1288883D1*
X978490Y1290784D1*
X984238D1*
X988041Y1288883D1*
X991887Y1285036D1*
X993789Y1279288D1*
Y1275486D1*
X991887Y1269738D1*
X988041Y1265935D1*
X984238Y1263990D1*
X978490D1*
X974643Y1265935D1*
X970841Y1269738D1*
X935497Y1285036D2*
X939344Y1288883D1*
X943191Y1290784D1*
X948895D1*
X952741Y1288883D1*
X956544Y1285036D1*
X958489Y1279288D1*
Y1275486D1*
X956544Y1269738D1*
X952741Y1265935D1*
X948895Y1263990D1*
X943191D1*
X939344Y1265935D1*
X935497Y1269738D1*
X917398Y1304182D2*
Y1271639D1*
X915497Y1265935D1*
X911650Y1263990D1*
X907847D1*
X923146Y1290784D2*
X909749D1*
X874449Y1285036D2*
X876351Y1288883D1*
X882099Y1290784D1*
X887847D1*
X893595Y1288883D1*
X895496Y1285036D1*
X893595Y1281234D1*
X889748Y1279288D1*
X880197Y1277387D1*
X876351Y1275486D1*
X874449Y1271639D1*
Y1269738D1*
X876351Y1265935D1*
X882099Y1263990D1*
X887847D1*
X893595Y1265935D1*
X895496Y1269738D1*
X1834615Y2203034D2*
D82*
X1845072Y2197805D1*
X1855651Y2187227D1*
X1860879Y2171420D1*
Y2160963D1*
X1855651Y2145156D1*
X1845072Y2134699D1*
X1834615Y2129348D1*
X1818808D1*
X1808229Y2134699D1*
X1797772Y2145156D1*
X1792422Y2160963D1*
Y2171420D1*
X1797772Y2187227D1*
X1808229Y2197805D1*
X1818808Y2203034D1*
X1834615D1*
X1758456Y2239876D2*
X1753228Y2234648D1*
X1747877Y2239876D1*
X1753228Y2245227D1*
X1758456Y2239876D1*
X1753228Y2203034D2*
Y2129348D1*
X1698104Y2239876D2*
Y2150384D1*
X1692875Y2134699D1*
X1682297Y2129348D1*
X1671840D1*
X1713911Y2203034D2*
X1677068D1*
X1632645Y2139927D2*
X1637874Y2134577D1*
X1632645Y2129348D1*
X1627295Y2134577D1*
X1632645Y2139927D1*
X1593329Y2171420D2*
X1530222D1*
Y2181998D1*
X1535450Y2192577D1*
X1540679Y2197805D1*
X1551257Y2203034D1*
X1567065D1*
X1577522Y2197805D1*
X1588100Y2187227D1*
X1593329Y2171420D1*
Y2160963D1*
X1588100Y2145156D1*
X1577522Y2134699D1*
X1567065Y2129348D1*
X1551257D1*
X1540679Y2134699D1*
X1530222Y2145156D1*
X1433149Y2239876D2*
Y2129348D1*
Y2187227D2*
X1443606Y2197805D1*
X1454184Y2203034D1*
X1469991D1*
X1480448Y2197805D1*
X1491027Y2187227D1*
X1496256Y2171420D1*
Y2160963D1*
X1491027Y2145156D1*
X1480448Y2134699D1*
X1469991Y2129348D1*
X1454184D1*
X1443606Y2134699D1*
X1433149Y2145156D1*
X1399182Y2203034D2*
Y2150384D1*
X1393954Y2134699D1*
X1383375Y2129348D1*
X1367568D1*
X1357111Y2134699D1*
X1341304Y2150384D1*
Y2203034D2*
Y2129348D1*
X1307338D2*
X1233653Y2239755D1*
X1136458Y2187227D2*
X1147036Y2197805D1*
X1157615Y2203034D1*
X1173300D1*
X1183879Y2197805D1*
X1194336Y2187227D1*
X1199686Y2171420D1*
Y2160963D1*
X1194336Y2145156D1*
X1183879Y2134699D1*
X1173300Y2129348D1*
X1157615D1*
X1147036Y2134699D1*
X1136458Y2145156D1*
X1044613Y2187227D2*
X1049842Y2197805D1*
X1065649Y2203034D1*
X1081456D1*
X1097263Y2197805D1*
X1102491Y2187227D1*
X1097263Y2176770D1*
X1086684Y2171420D1*
X1060420Y2166191D1*
X1049842Y2160963D1*
X1044613Y2150384D1*
Y2145156D1*
X1049842Y2134699D1*
X1065649Y2129348D1*
X1081456D1*
X1097263Y2134699D1*
X1102491Y2145156D1*
X1010647Y2171420D2*
X947540D1*
Y2181998D1*
X952769Y2192577D1*
X957997Y2197805D1*
X968576Y2203034D1*
X984383D1*
X994840Y2197805D1*
X1005418Y2187227D1*
X1010647Y2171420D1*
Y2160963D1*
X1005418Y2145156D1*
X994840Y2134699D1*
X984383Y2129348D1*
X968576D1*
X957997Y2134699D1*
X947540Y2145156D1*
X897767Y2239876D2*
Y2150384D1*
X892538Y2134699D1*
X881960Y2129348D1*
X871503D1*
X913574Y2203034D2*
X876731D1*
X2141702Y2002768D2*
D78*
X2129709Y1952528D1*
X2117771Y2002768D1*
X2105832Y1952528D1*
X2093839Y2002768D1*
X2049715Y1986021D2*
Y1952528D1*
Y1978836D2*
X2054468Y1983644D1*
X2059276Y1986021D1*
X2066406D1*
X2071215Y1983644D1*
X2075968Y1978836D1*
X2078400Y1971651D1*
Y1966898D1*
X2075968Y1959713D1*
X2071215Y1954959D1*
X2066406Y1952528D1*
X2059276D1*
X2054468Y1954959D1*
X2049715Y1959713D1*
X2034276Y1986021D2*
Y1952528D1*
Y1971651D2*
X2031844Y1978836D1*
X2027090Y1983644D1*
X2022282Y1986021D1*
X2015097D1*
X1999658D2*
Y1952528D1*
Y1976459D2*
X1992473Y1983644D1*
X1987664Y1986021D1*
X1980534D1*
X1975726Y1983644D1*
X1973349Y1976459D1*
Y1952528D1*
X1957910Y2002768D2*
X1955534Y2000391D1*
X1953102Y2002768D1*
X1955534Y2005199D1*
X1957910Y2002768D1*
X1955534Y1986021D2*
Y1952528D1*
X1937663Y1986021D2*
Y1952528D1*
Y1976459D2*
X1930477Y1983644D1*
X1925669Y1986021D1*
X1918539D1*
X1913731Y1983644D1*
X1911354Y1976459D1*
Y1952528D1*
X1867230Y1983644D2*
Y1945343D1*
X1869607Y1938213D1*
X1871983Y1935781D1*
X1876792Y1933404D1*
X1883977D1*
X1888730Y1935781D1*
X1867230Y1976459D2*
X1871983Y1981212D1*
X1876792Y1983644D1*
X1883977D1*
X1888730Y1981212D1*
X1893538Y1976459D1*
X1895915Y1969274D1*
Y1964466D1*
X1893538Y1957336D1*
X1888730Y1952528D1*
X1883977Y1950151D1*
X1876792D1*
X1871983Y1952528D1*
X1867230Y1957336D1*
X1849359Y2002712D2*
Y1969274D1*
Y1957336D2*
X1851791Y1954904D1*
X1849359Y1952528D1*
X1846982Y1954904D1*
X1849359Y1957336D1*
X2074715Y3119625D2*
D80*
Y3059337D1*
X2034523Y3119625D2*
Y3059337D1*
X2074715Y3090907D2*
X2034523D1*
X1981574Y3099529D2*
Y3059337D1*
Y3090907D2*
X1987277Y3096677D1*
X1993048Y3099529D1*
X2001603D1*
X2007373Y3096677D1*
X2013077Y3090907D1*
X2015995Y3082285D1*
Y3076581D1*
X2013077Y3067959D1*
X2007373Y3062255D1*
X2001603Y3059337D1*
X1993048D1*
X1987277Y3062255D1*
X1981574Y3067959D1*
X1963046Y3099529D2*
Y3059337D1*
Y3088055D2*
X1954424Y3096677D1*
X1948654Y3099529D1*
X1940099D1*
X1934328Y3096677D1*
X1931477Y3088055D1*
Y3059337D1*
X1878528Y3119625D2*
Y3059337D1*
Y3090907D2*
X1884231Y3096677D1*
X1890002Y3099529D1*
X1898624D1*
X1904327Y3096677D1*
X1910098Y3090907D1*
X1912949Y3082285D1*
Y3076581D1*
X1910098Y3067959D1*
X1904327Y3062255D1*
X1898624Y3059337D1*
X1890002D1*
X1884231Y3062255D1*
X1878528Y3067959D1*
X1828430Y3090907D2*
X1831282Y3096677D1*
X1839904Y3099529D1*
X1848526D1*
X1857149Y3096677D1*
X1860000Y3090907D1*
X1857149Y3085203D1*
X1851378Y3082285D1*
X1837053Y3079433D1*
X1831282Y3076581D1*
X1828430Y3070811D1*
Y3067959D1*
X1831282Y3062255D1*
X1839904Y3059337D1*
X1848526D1*
X1857149Y3062255D1*
X1860000Y3067959D1*
X1809903Y3089448D2*
X1776742D1*
X1743889Y3099529D2*
X1749593Y3096677D1*
X1755363Y3090907D1*
X1758215Y3082285D1*
Y3076581D1*
X1755363Y3067959D1*
X1749593Y3062255D1*
X1743889Y3059337D1*
X1735267D1*
X1729497Y3062255D1*
X1723793Y3067959D1*
X1720874Y3076581D1*
Y3082285D1*
X1723793Y3090907D1*
X1729497Y3096677D1*
X1735267Y3099529D1*
X1743889D1*
X1702347D2*
Y3059337D1*
Y3088055D2*
X1693725Y3096677D1*
X1687955Y3099529D1*
X1679399D1*
X1673629Y3096677D1*
X1670777Y3088055D1*
Y3059337D1*
X1593929Y3119625D2*
Y3059337D1*
X1575402Y3082285D2*
X1540980D1*
Y3088055D1*
X1543832Y3093825D1*
X1546684Y3096677D1*
X1552454Y3099529D1*
X1561076D1*
X1566780Y3096677D1*
X1572550Y3090907D1*
X1575402Y3082285D1*
Y3076581D1*
X1572550Y3067959D1*
X1566780Y3062255D1*
X1561076Y3059337D1*
X1552454D1*
X1546684Y3062255D1*
X1540980Y3067959D1*
X1488031Y3099529D2*
Y3059337D1*
Y3090907D2*
X1493735Y3096677D1*
X1499505Y3099529D1*
X1508061D1*
X1513831Y3096677D1*
X1519535Y3090907D1*
X1522453Y3082285D1*
Y3076581D1*
X1519535Y3067959D1*
X1513831Y3062255D1*
X1508061Y3059337D1*
X1499505D1*
X1493735Y3062255D1*
X1488031Y3067959D1*
X1469504Y3099529D2*
Y3059337D1*
Y3082285D2*
X1466586Y3090907D1*
X1460882Y3096677D1*
X1455112Y3099529D1*
X1446490D1*
X1427963D2*
Y3059337D1*
Y3088055D2*
X1419341Y3096677D1*
X1413571Y3099529D1*
X1405015D1*
X1399245Y3096677D1*
X1396393Y3088055D1*
Y3059337D1*
X1377866Y3119625D2*
X1375014Y3116773D1*
X1372096Y3119625D1*
X1375014Y3122543D1*
X1377866Y3119625D1*
X1375014Y3099529D2*
Y3059337D1*
X1353569Y3099529D2*
Y3059337D1*
Y3088055D2*
X1344946Y3096677D1*
X1339176Y3099529D1*
X1330621D1*
X1324850Y3096677D1*
X1321999Y3088055D1*
Y3059337D1*
X1269050Y3096677D2*
Y3050715D1*
X1271902Y3042159D1*
X1274753Y3039241D1*
X1280524Y3036389D1*
X1289146D1*
X1294849Y3039241D1*
X1269050Y3088055D2*
X1274753Y3093759D1*
X1280524Y3096677D1*
X1289146D1*
X1294849Y3093759D1*
X1300620Y3088055D1*
X1303471Y3079433D1*
Y3073663D1*
X1300620Y3065107D1*
X1294849Y3059337D1*
X1289146Y3056485D1*
X1280524D1*
X1274753Y3059337D1*
X1269050Y3065107D1*
X2246923Y1853117D2*
D79*
Y1812925D1*
Y1833972D2*
X2250726Y1837819D1*
X2254573Y1839720D1*
X2260321D1*
X2264123Y1837819D1*
X2267970Y1833972D1*
X2269871Y1828224D1*
Y1824421D1*
X2267970Y1818673D1*
X2264123Y1814871D1*
X2260321Y1812925D1*
X2254573D1*
X2250726Y1814871D1*
X2246923Y1818673D1*
X2211624Y1839720D2*
Y1812925D1*
Y1833972D2*
X2215427Y1837819D1*
X2219273Y1839720D1*
X2224977D1*
X2228824Y1837819D1*
X2232627Y1833972D1*
X2234572Y1828224D1*
Y1824421D1*
X2232627Y1818673D1*
X2228824Y1814871D1*
X2224977Y1812925D1*
X2219273D1*
X2215427Y1814871D1*
X2211624Y1818673D1*
X2199273Y1839720D2*
Y1812925D1*
Y1832071D2*
X2193525Y1837819D1*
X2189678Y1839720D1*
X2183974D1*
X2180127Y1837819D1*
X2178226Y1832071D1*
Y1812925D1*
Y1832071D2*
X2172478Y1837819D1*
X2168631Y1839720D1*
X2162927D1*
X2159081Y1837819D1*
X2157135Y1832071D1*
Y1812925D1*
X2121836Y1839720D2*
Y1812925D1*
Y1833972D2*
X2125638Y1837819D1*
X2129485Y1839720D1*
X2135189D1*
X2139036Y1837819D1*
X2142838Y1833972D1*
X2144784Y1828224D1*
Y1824421D1*
X2142838Y1818673D1*
X2139036Y1814871D1*
X2135189Y1812925D1*
X2129485D1*
X2125638Y1814871D1*
X2121836Y1818673D1*
X2086537Y1837819D2*
Y1807177D1*
X2088438Y1801473D1*
X2090339Y1799528D1*
X2094186Y1797627D1*
X2099934D1*
X2103737Y1799528D1*
X2086537Y1832071D2*
X2090339Y1835873D1*
X2094186Y1837819D1*
X2099934D1*
X2103737Y1835873D1*
X2107583Y1832071D1*
X2109485Y1826323D1*
Y1822476D1*
X2107583Y1816772D1*
X2103737Y1812925D1*
X2099934Y1811024D1*
X2094186D1*
X2090339Y1812925D1*
X2086537Y1816772D1*
X2074185Y1828224D2*
X2051237D1*
Y1832071D1*
X2053139Y1835917D1*
X2055040Y1837819D1*
X2058887Y1839720D1*
X2064635D1*
X2068437Y1837819D1*
X2072284Y1833972D1*
X2074185Y1828224D1*
Y1824421D1*
X2072284Y1818673D1*
X2068437Y1814871D1*
X2064635Y1812925D1*
X2058887D1*
X2055040Y1814871D1*
X2051237Y1818673D1*
X1994257Y1853117D2*
Y1820575D1*
X1992356Y1814871D1*
X1988509Y1812925D1*
X1984707D1*
X2000005Y1839720D2*
X1986608D1*
X1962805D2*
X1966607Y1837819D1*
X1970454Y1833972D1*
X1972355Y1828224D1*
Y1824421D1*
X1970454Y1818673D1*
X1966607Y1814871D1*
X1962805Y1812925D1*
X1957057D1*
X1953210Y1814871D1*
X1949407Y1818673D1*
X1947462Y1824421D1*
Y1828224D1*
X1949407Y1833972D1*
X1953210Y1837819D1*
X1957057Y1839720D1*
X1962805D1*
X1894284D2*
X1882832Y1812925D1*
X1886635Y1805276D1*
X1890482Y1801429D1*
X1894284Y1799528D1*
X1896230D1*
X1871336Y1839720D2*
X1882832Y1812925D1*
X1849434Y1839720D2*
X1853237Y1837819D1*
X1857084Y1833972D1*
X1858985Y1828224D1*
Y1824421D1*
X1857084Y1818673D1*
X1853237Y1814871D1*
X1849434Y1812925D1*
X1843686D1*
X1839839Y1814871D1*
X1836037Y1818673D1*
X1834091Y1824421D1*
Y1828224D1*
X1836037Y1833972D1*
X1839839Y1837819D1*
X1843686Y1839720D1*
X1849434D1*
X1821740D2*
Y1820575D1*
X1819839Y1814871D1*
X1815992Y1812925D1*
X1810244D1*
X1806441Y1814871D1*
X1800693Y1820575D1*
Y1839720D2*
Y1812925D1*
X1788342Y1839720D2*
Y1812925D1*
Y1828224D2*
X1786396Y1833972D1*
X1782594Y1837819D1*
X1778747Y1839720D1*
X1772999D1*
X1770056Y2982330D2*
D80*
X1775760D1*
X1781530Y2979478D1*
X1784382Y2970856D1*
Y2922042D1*
X1793004Y2962234D2*
X1772908D1*
X1737203D2*
X1742907Y2959382D1*
X1748677Y2953612D1*
X1751529Y2944990D1*
Y2939286D1*
X1748677Y2930664D1*
X1742907Y2924960D1*
X1737203Y2922042D1*
X1728581D1*
X1722811Y2924960D1*
X1717107Y2930664D1*
X1714189Y2939286D1*
Y2944990D1*
X1717107Y2953612D1*
X1722811Y2959382D1*
X1728581Y2962234D1*
X1737203D1*
X1695662D2*
Y2922042D1*
Y2944990D2*
X1692744Y2953612D1*
X1687040Y2959382D1*
X1681270Y2962234D1*
X1672648D1*
X1595800D2*
Y2922042D1*
Y2944990D2*
X1592881Y2953612D1*
X1587178Y2959382D1*
X1581407Y2962234D1*
X1572785D1*
X1554258Y2944990D2*
X1519836D1*
Y2950760D1*
X1522688Y2956530D1*
X1525540Y2959382D1*
X1531310Y2962234D1*
X1539932D1*
X1545636Y2959382D1*
X1551406Y2953612D1*
X1554258Y2944990D1*
Y2939286D1*
X1551406Y2930664D1*
X1545636Y2924960D1*
X1539932Y2922042D1*
X1531310D1*
X1525540Y2924960D1*
X1519836Y2930664D1*
X1466887Y2962234D2*
Y2922042D1*
Y2953612D2*
X1472591Y2959382D1*
X1478361Y2962234D1*
X1486917D1*
X1492687Y2959382D1*
X1498391Y2953612D1*
X1501309Y2944990D1*
Y2939286D1*
X1498391Y2930664D1*
X1492687Y2924960D1*
X1486917Y2922042D1*
X1478361D1*
X1472591Y2924960D1*
X1466887Y2930664D1*
X1448360Y2982330D2*
Y2922042D1*
X1429833Y2952153D2*
X1396672D1*
X1378144Y2962234D2*
X1366670Y2922042D1*
X1355197Y2962234D1*
X1343723Y2922042D1*
X1332249Y2962234D1*
X1299396D2*
X1305099Y2959382D1*
X1310870Y2953612D1*
X1313721Y2944990D1*
Y2939286D1*
X1310870Y2930664D1*
X1305099Y2924960D1*
X1299396Y2922042D1*
X1290774D1*
X1285003Y2924960D1*
X1279300Y2930664D1*
X1276381Y2939286D1*
Y2944990D1*
X1279300Y2953612D1*
X1285003Y2959382D1*
X1290774Y2962234D1*
X1299396D1*
X1257854D2*
Y2922042D1*
Y2944990D2*
X1254936Y2953612D1*
X1249232Y2959382D1*
X1243462Y2962234D1*
X1234840D1*
X1216313Y2982330D2*
Y2922042D1*
X1163364Y2982330D2*
Y2922042D1*
Y2953612D2*
X1169068Y2959382D1*
X1174838Y2962234D1*
X1183460D1*
X1189164Y2959382D1*
X1194934Y2953612D1*
X1197786Y2944990D1*
Y2939286D1*
X1194934Y2930664D1*
X1189164Y2924960D1*
X1183460Y2922042D1*
X1174838D1*
X1169068Y2924960D1*
X1163364Y2930664D1*
X1052094Y2962234D2*
Y2922042D1*
Y2953612D2*
X1057798Y2959382D1*
X1063568Y2962234D1*
X1072124D1*
X1077894Y2959382D1*
X1083598Y2953612D1*
X1086516Y2944990D1*
Y2939286D1*
X1083598Y2930664D1*
X1077894Y2924960D1*
X1072124Y2922042D1*
X1063568D1*
X1057798Y2924960D1*
X1052094Y2930664D1*
X999079Y2953612D2*
X1004849Y2959382D1*
X1010619Y2962234D1*
X1019175D1*
X1024945Y2959382D1*
X1030649Y2953612D1*
X1033567Y2944990D1*
Y2939286D1*
X1030649Y2930664D1*
X1024945Y2924960D1*
X1019175Y2922042D1*
X1010619D1*
X1004849Y2924960D1*
X999079Y2930664D1*
X980552Y2982330D2*
Y2922042D1*
Y2950760D2*
X971929Y2959382D1*
X966159Y2962234D1*
X957537D1*
X951833Y2959382D1*
X948982Y2950760D1*
Y2922042D1*
X930454Y2982330D2*
X927603Y2979478D1*
X924684Y2982330D1*
X927603Y2985248D1*
X930454Y2982330D1*
X927603Y2962234D2*
Y2922042D1*
X906157Y2944990D2*
X871735D1*
Y2950760D1*
X874587Y2956530D1*
X877439Y2959382D1*
X883209Y2962234D1*
X891831D1*
X897535Y2959382D1*
X903305Y2953612D1*
X906157Y2944990D1*
Y2939286D1*
X903305Y2930664D1*
X897535Y2924960D1*
X891831Y2922042D1*
X883209D1*
X877439Y2924960D1*
X871735Y2930664D1*
X853208Y2962234D2*
X835964Y2922042D1*
X818786Y2962234D1*
X800259Y2944990D2*
X765837D1*
Y2950760D1*
X768689Y2956530D1*
X771541Y2959382D1*
X777311Y2962234D1*
X785933D1*
X791637Y2959382D1*
X797407Y2953612D1*
X800259Y2944990D1*
Y2939286D1*
X797407Y2930664D1*
X791637Y2924960D1*
X785933Y2922042D1*
X777311D1*
X771541Y2924960D1*
X765837Y2930664D1*
X747310Y2962234D2*
Y2922042D1*
Y2950760D2*
X738688Y2959382D1*
X732918Y2962234D1*
X724362D1*
X718592Y2959382D1*
X715740Y2950760D1*
Y2922042D1*
Y2950760D2*
X707118Y2959382D1*
X701348Y2962234D1*
X692792D1*
X687022Y2959382D1*
X684104Y2950760D1*
Y2922042D1*
X665577Y2944990D2*
X631155D1*
Y2950760D1*
X634007Y2956530D1*
X636859Y2959382D1*
X642629Y2962234D1*
X651251D1*
X656955Y2959382D1*
X662725Y2953612D1*
X665577Y2944990D1*
Y2939286D1*
X662725Y2930664D1*
X656955Y2924960D1*
X651251Y2922042D1*
X642629D1*
X636859Y2924960D1*
X631155Y2930664D1*
X612628Y2962234D2*
Y2922042D1*
Y2950760D2*
X604006Y2959382D1*
X598236Y2962234D1*
X589680D1*
X583910Y2959382D1*
X581058Y2950760D1*
Y2922042D1*
X553909Y2982330D2*
Y2933516D1*
X551057Y2924960D1*
X545287Y2922042D1*
X539583D1*
X562531Y2962234D2*
X542435D1*
X518204Y2927812D2*
X521056Y2924894D1*
X518204Y2922042D1*
X515286Y2924894D1*
X518204Y2927812D1*
X1779663Y1222426D2*
D79*
Y1195631D1*
Y1210930D2*
X1777718Y1216678D1*
X1773915Y1220525D1*
X1770068Y1222426D1*
X1764320D1*
X1751969Y1210930D2*
X1729021D1*
Y1214777D1*
X1730922Y1218623D1*
X1732824Y1220525D1*
X1736670Y1222426D1*
X1742418D1*
X1746221Y1220525D1*
X1750068Y1216678D1*
X1751969Y1210930D1*
Y1207127D1*
X1750068Y1201379D1*
X1746221Y1197577D1*
X1742418Y1195631D1*
X1736670D1*
X1732824Y1197577D1*
X1729021Y1201379D1*
X1693722Y1222426D2*
Y1195631D1*
Y1216678D2*
X1697524Y1220525D1*
X1701371Y1222426D1*
X1707075D1*
X1710922Y1220525D1*
X1714724Y1216678D1*
X1716670Y1210930D1*
Y1207127D1*
X1714724Y1201379D1*
X1710922Y1197577D1*
X1707075Y1195631D1*
X1701371D1*
X1697524Y1197577D1*
X1693722Y1201379D1*
X1658422Y1235823D2*
Y1195631D1*
Y1216678D2*
X1662225Y1220525D1*
X1666072Y1222426D1*
X1671820D1*
X1675622Y1220525D1*
X1679469Y1216678D1*
X1681370Y1210930D1*
Y1207127D1*
X1679469Y1201379D1*
X1675622Y1197577D1*
X1671820Y1195631D1*
X1666072D1*
X1662225Y1197577D1*
X1658422Y1201379D1*
X1607190Y1235823D2*
X1605289Y1233922D1*
X1603344Y1235823D1*
X1605289Y1237769D1*
X1607190Y1235823D1*
X1605289Y1222426D2*
Y1195631D1*
X1590992Y1222426D2*
Y1195631D1*
Y1214777D2*
X1585244Y1220525D1*
X1581397Y1222426D1*
X1575693D1*
X1571847Y1220525D1*
X1569945Y1214777D1*
Y1195631D1*
X1536547Y1216678D2*
X1538449Y1220525D1*
X1544197Y1222426D1*
X1549945D1*
X1555693Y1220525D1*
X1557594Y1216678D1*
X1555693Y1212875D1*
X1551846Y1210930D1*
X1542295Y1209029D1*
X1538449Y1207127D1*
X1536547Y1203281D1*
Y1201379D1*
X1538449Y1197577D1*
X1544197Y1195631D1*
X1549945D1*
X1555693Y1197577D1*
X1557594Y1201379D1*
X1518448Y1235823D2*
Y1203281D1*
X1516547Y1197577D1*
X1512700Y1195631D1*
X1508897D1*
X1524196Y1222426D2*
X1510799D1*
X1496546D2*
Y1195631D1*
Y1210930D2*
X1494601Y1216678D1*
X1490798Y1220525D1*
X1486951Y1222426D1*
X1481203D1*
X1468852D2*
Y1203281D1*
X1466951Y1197577D1*
X1463104Y1195631D1*
X1457356D1*
X1453553Y1197577D1*
X1447805Y1203281D1*
Y1222426D2*
Y1195631D1*
X1412462Y1216678D2*
X1416308Y1220525D1*
X1420155Y1222426D1*
X1425859D1*
X1429706Y1220525D1*
X1433508Y1216678D1*
X1435454Y1210930D1*
Y1207127D1*
X1433508Y1201379D1*
X1429706Y1197577D1*
X1425859Y1195631D1*
X1420155D1*
X1416308Y1197577D1*
X1412462Y1201379D1*
X1394362Y1235823D2*
Y1203281D1*
X1392461Y1197577D1*
X1388614Y1195631D1*
X1384812D1*
X1400110Y1222426D2*
X1386713D1*
X1372460Y1235823D2*
X1370559Y1233922D1*
X1368613Y1235823D1*
X1370559Y1237769D1*
X1372460Y1235823D1*
X1370559Y1222426D2*
Y1195631D1*
X1346712Y1222426D2*
X1350514Y1220525D1*
X1354361Y1216678D1*
X1356262Y1210930D1*
Y1207127D1*
X1354361Y1201379D1*
X1350514Y1197577D1*
X1346712Y1195631D1*
X1340963D1*
X1337117Y1197577D1*
X1333314Y1201379D1*
X1331369Y1207127D1*
Y1210930D1*
X1333314Y1216678D1*
X1337117Y1220525D1*
X1340963Y1222426D1*
X1346712D1*
X1319017D2*
Y1195631D1*
Y1214777D2*
X1313269Y1220525D1*
X1309423Y1222426D1*
X1303719D1*
X1299872Y1220525D1*
X1297971Y1214777D1*
Y1195631D1*
X1264573Y1216678D2*
X1266474Y1220525D1*
X1272222Y1222426D1*
X1277970D1*
X1283718Y1220525D1*
X1285619Y1216678D1*
X1283718Y1212875D1*
X1279871Y1210930D1*
X1270321Y1209029D1*
X1266474Y1207127D1*
X1264573Y1203281D1*
Y1201379D1*
X1266474Y1197577D1*
X1272222Y1195631D1*
X1277970D1*
X1283718Y1197577D1*
X1285619Y1201379D1*
X1250276Y1235779D2*
Y1209029D1*
Y1199478D2*
X1252221Y1197533D1*
X1250276Y1195631D1*
X1248374Y1197533D1*
X1250276Y1199478D1*
X2103107Y1765637D2*
X2106954Y1769484D1*
X2110801Y1771385D1*
X2116505D1*
X2120352Y1769484D1*
X2124154Y1765637D1*
X2126100Y1759889D1*
Y1756087D1*
X2124154Y1750339D1*
X2120352Y1746536D1*
X2116505Y1744591D1*
X2110801D1*
X2106954Y1746536D1*
X2103107Y1750339D1*
X2081205Y1771385D2*
X2085008Y1769484D1*
X2088855Y1765637D1*
X2090756Y1759889D1*
Y1756087D1*
X2088855Y1750339D1*
X2085008Y1746536D1*
X2081205Y1744591D1*
X2075457D1*
X2071611Y1746536D1*
X2067808Y1750339D1*
X2065863Y1756087D1*
Y1759889D1*
X2067808Y1765637D1*
X2071611Y1769484D1*
X2075457Y1771385D1*
X2081205D1*
X2053511D2*
Y1744591D1*
Y1763736D2*
X2047763Y1769484D1*
X2043916Y1771385D1*
X2038213D1*
X2034366Y1769484D1*
X2032465Y1763736D1*
Y1744591D1*
Y1763736D2*
X2026717Y1769484D1*
X2022870Y1771385D1*
X2017166D1*
X2013319Y1769484D1*
X2011374Y1763736D1*
Y1744591D1*
X1999022Y1771385D2*
Y1731193D1*
Y1765637D2*
X1995176Y1769440D1*
X1991373Y1771385D1*
X1985625D1*
X1981778Y1769440D1*
X1977976Y1765637D1*
X1976030Y1759889D1*
Y1756042D1*
X1977976Y1750339D1*
X1981778Y1746492D1*
X1985625Y1744591D1*
X1991373D1*
X1995176Y1746492D1*
X1999022Y1750339D1*
X1963679Y1771385D2*
Y1752240D1*
X1961778Y1746536D1*
X1957931Y1744591D1*
X1952183D1*
X1948380Y1746536D1*
X1942632Y1752240D1*
Y1771385D2*
Y1744591D1*
X1924533Y1784783D2*
Y1752240D1*
X1922631Y1746536D1*
X1918785Y1744591D1*
X1914982D1*
X1930281Y1771385D2*
X1916883D1*
X1902631Y1759889D2*
X1879683D1*
Y1763736D1*
X1881584Y1767583D1*
X1883485Y1769484D1*
X1887332Y1771385D1*
X1893080D1*
X1896883Y1769484D1*
X1900729Y1765637D1*
X1902631Y1759889D1*
Y1756087D1*
X1900729Y1750339D1*
X1896883Y1746536D1*
X1893080Y1744591D1*
X1887332D1*
X1883485Y1746536D1*
X1879683Y1750339D1*
X1867331Y1771385D2*
Y1744591D1*
Y1759889D2*
X1865386Y1765637D1*
X1861583Y1769484D1*
X1857737Y1771385D1*
X1851989D1*
X2248423Y1913688D2*
Y1873496D1*
X2272538Y1913688D1*
Y1873496D1*
X2228711Y1900291D2*
X2232133Y1898390D1*
X2235595Y1894543D1*
X2237306Y1888795D1*
Y1884992D1*
X2235595Y1879244D1*
X2232133Y1875442D1*
X2228711Y1873496D1*
X2223538D1*
X2220075Y1875442D1*
X2216653Y1879244D1*
X2214902Y1884992D1*
Y1888795D1*
X2216653Y1894543D1*
X2220075Y1898390D1*
X2223538Y1900291D1*
X2228711D1*
X2198613Y1913688D2*
Y1881145D1*
X2196902Y1875442D1*
X2193440Y1873496D1*
X2190017D1*
X2203786Y1900291D2*
X2191728D1*
X2143908D2*
Y1873496D1*
Y1888795D2*
X2142157Y1894543D1*
X2138735Y1898390D1*
X2135273Y1900291D1*
X2130100D1*
X2118984Y1888795D2*
X2098330D1*
Y1892642D1*
X2100042Y1896488D1*
X2101753Y1898390D1*
X2105215Y1900291D1*
X2110388D1*
X2113810Y1898390D1*
X2117272Y1894543D1*
X2118984Y1888795D1*
Y1884992D1*
X2117272Y1879244D1*
X2113810Y1875442D1*
X2110388Y1873496D1*
X2105215D1*
X2101753Y1875442D1*
X2098330Y1879244D1*
X2068272Y1894543D2*
X2069983Y1898390D1*
X2075157Y1900291D1*
X2080330D1*
X2085503Y1898390D1*
X2087214Y1894543D1*
X2085503Y1890740D1*
X2082041Y1888795D1*
X2073445Y1886893D1*
X2069983Y1884992D1*
X2068272Y1881145D1*
Y1879244D1*
X2069983Y1875442D1*
X2075157Y1873496D1*
X2080330D1*
X2085503Y1875442D1*
X2087214Y1879244D1*
X2057156Y1900291D2*
Y1860099D1*
Y1894543D2*
X2053694Y1898345D1*
X2050272Y1900291D1*
X2045098D1*
X2041636Y1898345D1*
X2038214Y1894543D1*
X2036463Y1888795D1*
Y1884948D1*
X2038214Y1879244D1*
X2041636Y1875397D1*
X2045098Y1873496D1*
X2050272D1*
X2053694Y1875397D1*
X2057156Y1879244D1*
X2016751Y1900291D2*
X2020174Y1898390D1*
X2023636Y1894543D1*
X2025347Y1888795D1*
Y1884992D1*
X2023636Y1879244D1*
X2020174Y1875442D1*
X2016751Y1873496D1*
X2011578D1*
X2008116Y1875442D1*
X2004694Y1879244D1*
X2002943Y1884992D1*
Y1888795D1*
X2004694Y1894543D1*
X2008116Y1898390D1*
X2011578Y1900291D1*
X2016751D1*
X1991826D2*
Y1873496D1*
Y1892642D2*
X1986653Y1898390D1*
X1983191Y1900291D1*
X1978058D1*
X1974596Y1898390D1*
X1972884Y1892642D1*
Y1873496D1*
X1942826Y1894543D2*
X1944537Y1898390D1*
X1949711Y1900291D1*
X1954884D1*
X1960057Y1898390D1*
X1961768Y1894543D1*
X1960057Y1890740D1*
X1956595Y1888795D1*
X1947999Y1886893D1*
X1944537Y1884992D1*
X1942826Y1881145D1*
Y1879244D1*
X1944537Y1875442D1*
X1949711Y1873496D1*
X1954884D1*
X1960057Y1875442D1*
X1961768Y1879244D1*
X1931710Y1913688D2*
X1929999Y1911787D1*
X1928248Y1913688D1*
X1929999Y1915634D1*
X1931710Y1913688D1*
X1929999Y1900291D2*
Y1873496D1*
X1917132Y1913688D2*
Y1873496D1*
Y1894543D2*
X1913670Y1898390D1*
X1910247Y1900291D1*
X1905074D1*
X1901652Y1898390D1*
X1898190Y1894543D1*
X1896478Y1888795D1*
Y1884992D1*
X1898190Y1879244D1*
X1901652Y1875442D1*
X1905074Y1873496D1*
X1910247D1*
X1913670Y1875442D1*
X1917132Y1879244D1*
X1885362Y1913688D2*
Y1873496D1*
X1874246Y1888795D2*
X1853593D1*
Y1892642D1*
X1855304Y1896488D1*
X1857015Y1898390D1*
X1860477Y1900291D1*
X1865650D1*
X1869073Y1898390D1*
X1872535Y1894543D1*
X1874246Y1888795D1*
Y1884992D1*
X1872535Y1879244D1*
X1869073Y1875442D1*
X1865650Y1873496D1*
X1860477D1*
X1857015Y1875442D1*
X1853593Y1879244D1*
X1793715Y1913688D2*
X1797137D1*
X1800600Y1911787D1*
X1802311Y1906039D1*
Y1873496D1*
X1807484Y1900291D2*
X1795426D1*
X1774003D2*
X1777426Y1898390D1*
X1780888Y1894543D1*
X1782599Y1888795D1*
Y1884992D1*
X1780888Y1879244D1*
X1777426Y1875442D1*
X1774003Y1873496D1*
X1768830D1*
X1765368Y1875442D1*
X1761946Y1879244D1*
X1760195Y1884992D1*
Y1888795D1*
X1761946Y1894543D1*
X1765368Y1898390D1*
X1768830Y1900291D1*
X1774003D1*
X1749079D2*
Y1873496D1*
Y1888795D2*
X1747328Y1894543D1*
X1743905Y1898390D1*
X1740443Y1900291D1*
X1735270D1*
X2008319Y1418045D2*
X2048511D1*
X2008319Y1393930D2*
X2035114Y1418045D1*
X2025519Y1409450D2*
X2048511Y1393930D1*
X2044665Y1381103D2*
X2046610Y1382814D1*
X2048511Y1381103D1*
X2046610Y1379352D1*
X2044665Y1381103D1*
X2029366Y1333243D2*
Y1317723D1*
X2027465Y1312590D1*
X2025519Y1310839D1*
X2021717Y1309128D1*
X2015969D1*
X2012166Y1310839D1*
X2010221Y1312590D1*
X2008319Y1317723D1*
Y1333243D1*
X2048511D1*
X2008319Y1298011D2*
X2010221Y1296300D1*
X2008319Y1294549D1*
X2006374Y1296300D1*
X2008319Y1298011D1*
X2021717Y1296300D2*
X2048511D1*
X2021717Y1283433D2*
X2048511D1*
X2029366D2*
X2023618Y1278260D1*
X2021717Y1274798D1*
Y1269664D1*
X2023618Y1266202D1*
X2029366Y1264491D1*
X2048511D1*
X2008319Y1248202D2*
X2040862D1*
X2046566Y1246490D1*
X2048511Y1243028D1*
Y1239606D1*
X2021717Y1253375D2*
Y1241317D1*
Y1219894D2*
X2023618Y1223317D1*
X2027465Y1226779D1*
X2033213Y1228490D1*
X2037015D1*
X2042763Y1226779D1*
X2046566Y1223317D1*
X2048511Y1219894D1*
Y1214721D1*
X2046566Y1211259D1*
X2042763Y1207837D1*
X2037015Y1206086D1*
X2033213D1*
X2027465Y1207837D1*
X2023618Y1211259D1*
X2021717Y1214721D1*
Y1219894D1*
Y1194969D2*
X2048511D1*
X2029366D2*
X2023618Y1189796D1*
X2021717Y1186334D1*
Y1181201D1*
X2023618Y1177739D1*
X2029366Y1176028D1*
X2048511D1*
X2023618Y1144258D2*
X2054259D1*
X2059963Y1145969D1*
X2061909Y1147680D1*
X2063810Y1151143D1*
Y1156316D1*
X2061909Y1159738D1*
X2029366Y1144258D2*
X2025564Y1147680D1*
X2023618Y1151143D1*
Y1156316D1*
X2025564Y1159738D1*
X2029366Y1163200D1*
X2035114Y1164911D1*
X2038961D1*
X2044665Y1163200D1*
X2048511Y1159738D1*
X2050413Y1156316D1*
Y1151143D1*
X2048511Y1147680D1*
X2044665Y1144258D1*
X2017914Y1096398D2*
X2016013D1*
X2012166Y1094687D1*
X2010265Y1092976D1*
X2008364Y1089514D1*
Y1082630D1*
X2010265Y1079207D1*
X2012166Y1077496D1*
X2016013Y1075745D1*
X2019816D1*
X2023662Y1077496D1*
X2029366Y1080918D1*
X2048511Y1098149D1*
Y1074034D1*
X2008364Y1052571D2*
X2010265Y1057745D1*
X2016013Y1061207D1*
X2025564Y1062918D1*
X2031312D1*
X2040862Y1061207D1*
X2046610Y1057744D1*
X2048511Y1052571D1*
Y1049149D1*
X2046610Y1043976D1*
X2040862Y1040553D1*
X2031312Y1038803D1*
X2025564D1*
X2016013Y1040554D1*
X2010265Y1043976D1*
X2008364Y1049149D1*
Y1052571D1*
X2016013Y1040554D2*
X2040862Y1061207D1*
X2016013Y1027686D2*
X2014068Y1024224D1*
X2008364Y1019051D1*
X2048512D1*
X2021717Y985531D2*
X2027465Y987282D1*
X2031312Y990704D1*
X2033213Y995877D1*
Y997588D1*
X2031312Y1002762D1*
X2027465Y1006184D1*
X2021717Y1007935D1*
X2019816D1*
X2014068Y1006184D1*
X2010265Y1002762D1*
X2008364Y997588D1*
Y995877D1*
X2010265Y990704D1*
X2014067Y987282D1*
X2021717Y985531D1*
X2031312D1*
X2040862Y987282D1*
X2046610Y990704D1*
X2048512Y995877D1*
Y999299D1*
X2046610Y1004473D1*
X2042763Y1006184D1*
M02*
