M48
INCH
T01C0.019
T02C0.028
T03C0.035
T04C0.0354
T05C0.038
T06C0.0394
T07C0.0433
T08C0.0472
%
T01
X+015445Y+027977
X+011208Y+029372
X+013758Y+020915
X+012258Y+020228
X+011446Y+020540
X+011633Y+017103
X+012071Y+013978
X+011133Y+010479
X+010758Y+008791
X+011383Y+007479
X+011196Y+006167
X+013946Y+008104
X+014321Y+007667
X+018445Y+015041
X+018758Y+015916
X+006946Y+018166
T02
X+010428Y+031367
X+009428Y+031367
X+015293Y+031984
X+016293Y+031984
T03
X+014270Y+027913
X+013707Y+027913
X+013145Y+027913
X+012582Y+027913
T04
X+019066Y+006871
X+019583Y+008803
X+019167Y+010219
X+018799Y+011952
X+019599Y+013263
X+019265Y+015003
X+021778Y+015485
X+022112Y+013746
X+021302Y+012484
X+021670Y+010751
X+013009Y+014165
X+013009Y+015165
X+013009Y+016165
X+013009Y+017165
X+013009Y+018165
X+013009Y+019165
X+013009Y+020165
X+010009Y+020165
X+010009Y+019165
X+010009Y+018165
X+010009Y+017165
X+010009Y+016165
X+010009Y+015165
X+010009Y+014165
X+012008Y+007042
X+010225Y+006136
X+007609Y+035444
X+006902Y+036151
X+016896Y+036345
X+017603Y+037053
T05
X+011883Y+032976
X+013383Y+033039
X+016847Y+035039
X+008020Y+034012
X+017945Y+020540
X+019133Y+020603
X+020257Y+020728
X+021320Y+020853
X+021626Y+016969
X+022688Y+017094
X+020501Y+016844
X+019444Y+016832
X+009571Y+011416
X+009884Y+010354
X+010108Y+009195
X+010821Y+007917
X+007007Y+009121
X+006272Y+010328
X+006045Y+011478
X+005709Y+012456
T06
X+014583Y+006124
X+015367Y+006189
X+016348Y+006270
X+017363Y+005228G85X+017314Y+005817
X+013602Y+006043
X+012772Y+004849G85X+012723Y+005438
T07
X+016941Y+019282
X+016941Y+018282
X+016941Y+017282
X+016941Y+016282
X+016941Y+015282
X+016941Y+014282
X+008134Y+019853
X+008134Y+020853
X+007134Y+020853
X+007134Y+019853
X+006134Y+019853
X+006134Y+020853
X+005370Y+018746
X+005370Y+017746
X+005370Y+016746
X+005370Y+015746
X+005370Y+014746
X+005370Y+013746
T08
X+015946Y+005407
X+014141Y+005258
T00
M30
