G04 DipTrace 3.3.1.2*
G04 TopSilk.gbr*
%MOIN*%
G04 #@! TF.FileFunction,Legend,Top*
G04 #@! TF.Part,Single*
%ADD10C,0.009843*%
%ADD12C,0.003*%
%ADD77C,0.004632*%
%ADD78C,0.00772*%
%ADD79C,0.006176*%
%ADD80C,0.009264*%
%ADD81C,0.012351*%
%FSLAX26Y26*%
G04*
G70*
G90*
G75*
G01*
G04 TopSilk*
%LPD*%
X2021429Y883977D2*
D10*
X1959375Y652386D1*
X1905518Y915035D2*
X1843464Y683444D1*
G03X1959375Y652386I57925J-15645D01*
G01*
X2021429Y883977D2*
G03X1905518Y915035I-57925J15645D01*
G01*
X977607Y658140D2*
X1191399Y766667D1*
X1031925Y551138D2*
X1245717Y659664D1*
G03X1191399Y766667I-27052J53556D01*
G01*
X977607Y658140D2*
G03X1031925Y551138I27052J-53556D01*
G01*
X892797Y3061766D2*
Y3211642D1*
X893022Y3061466D2*
G03X893022Y3211942I99796J75238D01*
G01*
X1479327Y3123458D2*
Y3273333D1*
X1479552Y3123158D2*
G03X1479552Y3273633I99796J75238D01*
G01*
X1247297Y2852375D2*
Y2844477D1*
X1220724Y2866288D2*
Y2716280D1*
X1247297Y2738091D2*
Y2730193D1*
Y2852375D2*
G02X1461865Y2791284I98651J-60865D01*
G01*
X1247297Y2730193D2*
G03X1461865Y2791284I98651J60865D01*
G01*
X760894Y3473660D2*
X831605Y3544371D1*
X619473Y3615082D2*
X760894Y3473660D1*
X619473Y3615082D2*
X690183Y3685792D1*
X831605Y3544371D1*
X1618858Y3634540D2*
X1689569Y3563830D1*
X1760280Y3775962D2*
X1618858Y3634540D1*
X1760280Y3775962D2*
X1830990Y3705251D1*
X1689569Y3563830D1*
X1744148Y1978127D2*
X1644146D1*
Y1378181D1*
X1744148D1*
Y1978127D1*
X586958Y1924548D2*
X486956D1*
Y1324603D1*
X586958D1*
Y1924548D1*
X863393Y1935283D2*
X563393D1*
Y2135283D1*
X863393D1*
Y1935283D1*
X911670Y3423540D2*
X1104507Y3371870D1*
X1078625Y3275277D2*
X1104507Y3371870D1*
X885788Y3326948D2*
X1078625Y3275277D1*
X885788Y3326948D2*
X911670Y3423540D1*
X1622969Y3410503D2*
X1450075Y3310683D1*
X1400075Y3397285D2*
X1450075Y3310683D1*
X1572969Y3497105D2*
X1400075Y3397285D1*
X1572969Y3497105D2*
X1622969Y3410503D1*
X709388Y1149605D2*
X900988Y1093518D1*
X883606Y1033484D2*
X901164Y1093466D1*
X691830Y1089622D2*
X883429Y1033535D1*
X691653Y1089674D2*
X709212Y1149657D1*
X1877904Y1764344D2*
X1803089Y1949435D1*
X1860965Y1973028D2*
X1803020Y1949606D1*
X1935849Y1787765D2*
X1861034Y1972857D1*
X1935918Y1787595D2*
X1877973Y1764173D1*
X805591Y911719D2*
X995969Y851617D1*
X977329Y791961D2*
X996144Y851562D1*
X786775Y852119D2*
X977153Y792017D1*
X786599Y852174D2*
X805415Y911775D1*
X732085Y1034424D2*
X923542Y977854D1*
X906008Y917863D2*
X923719Y977801D1*
X714375Y974486D2*
X905832Y917915D1*
X714198Y974538D2*
X731909Y1034477D1*
X675712Y1249721D2*
X868491Y1197834D1*
X852425Y1137434D2*
X868669Y1197787D1*
X659468Y1189369D2*
X852247Y1137482D1*
X659290Y1189417D2*
X675534Y1249769D1*
X2205163Y1792846D2*
X2136882Y1980446D1*
X2195550Y2001995D2*
X2136819Y1980619D1*
X2263894Y1814222D2*
X2195613Y2001822D1*
X2263956Y1814049D2*
X2205226Y1792673D1*
X2098924Y1780347D2*
X2030643Y1967947D1*
X2089311Y1989496D2*
X2030580Y1968120D1*
X2157655Y1801723D2*
X2089374Y1989323D1*
X2157718Y1801550D2*
X2098987Y1780174D1*
X1986436Y1767848D2*
X1918155Y1955448D1*
X1976823Y1976998D2*
X1918092Y1955621D1*
X2045166Y1789224D2*
X1976886Y1976825D1*
X2045229Y1789052D2*
X1986499Y1767675D1*
X1970209Y1520314D2*
X2005547Y1336186D1*
X2006726Y1330038D2*
X2172458Y1361845D1*
X2135941Y1552120D1*
X1970209Y1520314D2*
X2135941Y1552120D1*
X2000637Y1434943D2*
G02X2000637Y1434943I71874J0D01*
G01*
X1923221Y1216104D2*
X1962144Y1032700D1*
X1963443Y1026576D2*
X2128523Y1061610D1*
X2088301Y1251137D1*
X1923221Y1216104D2*
X2088301Y1251137D1*
X1955295Y1132745D2*
G02X1955295Y1132745I71874J0D01*
G01*
X1253219Y2102356D2*
Y1330703D1*
X1048486D2*
X1253219D1*
X1048486Y2102356D2*
Y1330703D1*
Y2102356D2*
X1127226D1*
X1253219D2*
X1174478D1*
X1127226D2*
G03X1174478Y2102356I23626J13D01*
G01*
X636151Y2321938D2*
D12*
X1077151D1*
X636151Y2318938D2*
X1077151D1*
X636151Y2315938D2*
X1077151D1*
X636151Y2312938D2*
X1077151D1*
X636151Y2309938D2*
X1077151D1*
X636151Y2306938D2*
X1077151D1*
X636151Y2303938D2*
X1077151D1*
X636151Y2300938D2*
X1077151D1*
X636151Y2297938D2*
X1077151D1*
X1266151D2*
X1275151D1*
X636151Y2294938D2*
X684289D1*
X704911D2*
X1077151D1*
X1101151D2*
X1161151D1*
X1167151D2*
X1227151D1*
X1259356D2*
X1281935D1*
X1317151D2*
X1338151D1*
X1359151D2*
X1380151D1*
X636151Y2291938D2*
X678896D1*
X710025D2*
X1077151D1*
X1101151D2*
X1161151D1*
X1167151D2*
X1227151D1*
X1253740D2*
X1287446D1*
X1317151D2*
X1338151D1*
X1359151D2*
X1380151D1*
X636151Y2288938D2*
X674497D1*
X714087D2*
X1077151D1*
X1101151D2*
X1161151D1*
X1167151D2*
X1227151D1*
X1249311D2*
X1291492D1*
X1317151D2*
X1338151D1*
X1359151D2*
X1380151D1*
X636151Y2285938D2*
X671215D1*
X717319D2*
X1077151D1*
X1101151D2*
X1161151D1*
X1167151D2*
X1227151D1*
X1245736D2*
X1294337D1*
X1317151D2*
X1338151D1*
X1359151D2*
X1380151D1*
X636151Y2282938D2*
X668612D1*
X720168D2*
X1077151D1*
X1101151D2*
X1161151D1*
X1167151D2*
X1227151D1*
X1242841D2*
X1296369D1*
X1317151D2*
X1338151D1*
X1359151D2*
X1380151D1*
X636151Y2279938D2*
X666411D1*
X693151D2*
X696151D1*
X722602D2*
X904216D1*
X915116D2*
X1077151D1*
X1101151D2*
X1161151D1*
X1167151D2*
X1227151D1*
X1240563D2*
X1297847D1*
X1317151D2*
X1338151D1*
X1359151D2*
X1380151D1*
X636151Y2276938D2*
X664718D1*
X689918D2*
X699385D1*
X724352D2*
X900320D1*
X914788D2*
X1077151D1*
X1101151D2*
X1161151D1*
X1167151D2*
X1188151D1*
X1238790D2*
X1267216D1*
X1275037D2*
X1299006D1*
X1317151D2*
X1338151D1*
X1359151D2*
X1380151D1*
X636151Y2273938D2*
X663418D1*
X687451D2*
X701852D1*
X725449D2*
X897560D1*
X914015D2*
X1077151D1*
X1119151D2*
X1140151D1*
X1167151D2*
X1188151D1*
X1237504D2*
X1263323D1*
X1277641D2*
X1300102D1*
X1317151D2*
X1338151D1*
X1359151D2*
X1380151D1*
X636151Y2270938D2*
X662252D1*
X685802D2*
X703500D1*
X726312D2*
X895646D1*
X911118D2*
X1077151D1*
X1119151D2*
X1140151D1*
X1167151D2*
X1188151D1*
X1236659D2*
X1260594D1*
X1279805D2*
X1301035D1*
X1317151D2*
X1338151D1*
X1359151D2*
X1380151D1*
X636151Y2267938D2*
X661288D1*
X684890D2*
X704424D1*
X727239D2*
X741151D1*
X759151D2*
X772216D1*
X780151D2*
X804289D1*
X820611D2*
X867753D1*
X891151D2*
X894151D1*
X908013D2*
X937342D1*
X956550D2*
X987151D1*
X1005151D2*
X1015254D1*
X1031087D2*
X1077151D1*
X1119151D2*
X1140151D1*
X1167151D2*
X1188151D1*
X1235913D2*
X1258550D1*
X1281536D2*
X1301589D1*
X1317151D2*
X1338151D1*
X1359151D2*
X1380151D1*
X636151Y2264938D2*
X660686D1*
X684455D2*
X704965D1*
X728091D2*
X741151D1*
X759151D2*
X768311D1*
X780151D2*
X798896D1*
X826655D2*
X863104D1*
X905326D2*
X930939D1*
X961199D2*
X987151D1*
X1005151D2*
X1011360D1*
X1034980D2*
X1077151D1*
X1119151D2*
X1140151D1*
X1167151D2*
X1188151D1*
X1235035D2*
X1257831D1*
X1282795D2*
X1301853D1*
X1317151D2*
X1338151D1*
X1359151D2*
X1380151D1*
X636151Y2261938D2*
X660379D1*
X684256D2*
X705534D1*
X728645D2*
X741151D1*
X759151D2*
X765468D1*
X780116D2*
X794509D1*
X831213D2*
X859493D1*
X904365D2*
X926323D1*
X964810D2*
X987151D1*
X1005151D2*
X1008151D1*
X1037709D2*
X1077151D1*
X1119151D2*
X1140151D1*
X1167151D2*
X1188151D1*
X1234202D2*
X1257441D1*
X1283532D2*
X1300901D1*
X1317151D2*
X1338151D1*
X1359151D2*
X1380151D1*
X636151Y2258938D2*
X660241D1*
X684077D2*
X706327D1*
X728934D2*
X741151D1*
X759151D2*
X763251D1*
X779788D2*
X791332D1*
X834596D2*
X856842D1*
X876151D2*
X885151D1*
X904845D2*
X923185D1*
X967473D2*
X987151D1*
X1039753D2*
X1077151D1*
X1119151D2*
X1140151D1*
X1167151D2*
X1188151D1*
X1233654D2*
X1257265D1*
X1283912D2*
X1297426D1*
X1317151D2*
X1338151D1*
X1359151D2*
X1380151D1*
X636151Y2255938D2*
X660185D1*
X683667D2*
X707124D1*
X729065D2*
X741151D1*
X759151D2*
X761220D1*
X779015D2*
X789099D1*
X807151D2*
X819151D1*
X836993D2*
X854899D1*
X874767D2*
X885151D1*
X905790D2*
X921032D1*
X942151D2*
X951151D1*
X969521D2*
X987151D1*
X1014151D2*
X1017151D1*
X1040472D2*
X1077151D1*
X1119151D2*
X1140151D1*
X1167151D2*
X1218151D1*
X1233367D2*
X1257193D1*
X1284151D2*
X1293151D1*
X1317151D2*
X1380151D1*
X636151Y2252938D2*
X660163D1*
X682938D2*
X707657D1*
X729119D2*
X741151D1*
X759151D2*
D3*
X776003D2*
X787524D1*
X806688D2*
X820536D1*
X838570D2*
X853568D1*
X873905D2*
X885151D1*
X906927D2*
X919605D1*
X940767D2*
X951615D1*
X971246D2*
X987151D1*
X1011382D2*
X1018988D1*
X1040862D2*
X1077151D1*
X1119151D2*
X1140151D1*
X1167151D2*
X1218151D1*
X1233237D2*
X1257166D1*
X1317151D2*
X1380151D1*
X636151Y2249938D2*
X660155D1*
X682178D2*
X707938D1*
X729140D2*
X741151D1*
X772503D2*
X786323D1*
X805943D2*
X821398D1*
X839443D2*
X852908D1*
X873481D2*
X885151D1*
X907831D2*
X918808D1*
X939905D2*
X952359D1*
X972730D2*
X987151D1*
X1009331D2*
X1020488D1*
X1041038D2*
X1077151D1*
X1119151D2*
X1140151D1*
X1167151D2*
X1218151D1*
X1233183D2*
X1257156D1*
X1317151D2*
X1380151D1*
X636151Y2246938D2*
X660153D1*
X681759D2*
X708067D1*
X729148D2*
X741151D1*
X769411D2*
X785210D1*
X805159D2*
X821835D1*
X839871D2*
X852928D1*
X873402D2*
X885151D1*
X908341D2*
X918423D1*
X939457D2*
X953136D1*
X973873D2*
X987151D1*
X1008705D2*
X1021631D1*
X1041110D2*
X1077151D1*
X1119151D2*
X1140151D1*
X1167151D2*
X1218151D1*
X1233163D2*
X1257153D1*
X1317151D2*
X1380151D1*
X636151Y2243938D2*
X660152D1*
X681863D2*
X708108D1*
X729150D2*
X741151D1*
X767173D2*
X784271D1*
X804588D2*
X822035D1*
X840156D2*
X853601D1*
X873787D2*
X885151D1*
X907631D2*
X918256D1*
X939158D2*
X953661D1*
X974559D2*
X987151D1*
X1008379D2*
X1021397D1*
X1041137D2*
X1077151D1*
X1119151D2*
X1140151D1*
X1167151D2*
X1218151D1*
X1233155D2*
X1257152D1*
X1317151D2*
X1380151D1*
X636151Y2240938D2*
X660152D1*
X682454D2*
X708023D1*
X729151D2*
X741151D1*
X765606D2*
X783680D1*
X804151D2*
X822151D1*
X840610D2*
X854793D1*
X874782D2*
X885151D1*
X906446D2*
X918190D1*
X938710D2*
X953940D1*
X974902D2*
X987151D1*
X1008238D2*
X1020926D1*
X1041146D2*
X1077151D1*
X1119151D2*
X1140151D1*
X1167151D2*
X1218151D1*
X1233153D2*
X1257152D1*
X1317151D2*
X1380151D1*
X636151Y2237938D2*
X660151D1*
X683170D2*
X707648D1*
X729151D2*
X741151D1*
X764324D2*
X783377D1*
X841356D2*
X856381D1*
X876151D2*
X885151D1*
X904564D2*
X918165D1*
X938067D2*
X954067D1*
X975054D2*
X987151D1*
X1008183D2*
X1020545D1*
X1041150D2*
X1077151D1*
X1119151D2*
X1140151D1*
X1167151D2*
X1218151D1*
X1233164D2*
X1257151D1*
X1317151D2*
X1380151D1*
X636151Y2234938D2*
X660151D1*
X683673D2*
X706932D1*
X729140D2*
X741151D1*
X763314D2*
X783240D1*
X842142D2*
X858021D1*
X901976D2*
X918156D1*
X937669D2*
X954120D1*
X975115D2*
X987151D1*
X1008162D2*
X1020327D1*
X1041151D2*
X1077151D1*
X1119151D2*
X1140151D1*
X1167151D2*
X1188151D1*
X1233269D2*
X1257151D1*
X1317151D2*
X1338151D1*
X1359151D2*
X1380151D1*
X636151Y2231938D2*
X660163D1*
X683944D2*
X706164D1*
X729034D2*
X741151D1*
X762695D2*
X783184D1*
X842714D2*
X859355D1*
X895379D2*
X918153D1*
X937861D2*
X954140D1*
X975139D2*
X987151D1*
X1008155D2*
X1020223D1*
X1041151D2*
X1077151D1*
X1119151D2*
X1140151D1*
X1167151D2*
X1188151D1*
X1233651D2*
X1257163D1*
X1284151D2*
X1302151D1*
X1317151D2*
X1338151D1*
X1359151D2*
X1380151D1*
X636151Y2228938D2*
X660269D1*
X684080D2*
X705629D1*
X728652D2*
X741151D1*
X762382D2*
X783175D1*
X804151D2*
X859021D1*
X886725D2*
X918152D1*
X938351D2*
X954148D1*
X975147D2*
X987151D1*
X1008153D2*
X1020179D1*
X1041151D2*
X1077151D1*
X1119151D2*
X1140151D1*
X1167151D2*
X1188151D1*
X1234369D2*
X1257269D1*
X1283676D2*
X1302140D1*
X1317151D2*
X1338151D1*
X1359151D2*
X1380151D1*
X636151Y2225938D2*
X660651D1*
X684238D2*
X705246D1*
X727933D2*
X741151D1*
X762242D2*
X783273D1*
X804163D2*
X857237D1*
X878394D2*
X918152D1*
X938746D2*
X954138D1*
X975138D2*
X987151D1*
X1008152D2*
X1020161D1*
X1041151D2*
X1077151D1*
X1119151D2*
X1140151D1*
X1167151D2*
X1188151D1*
X1235150D2*
X1257674D1*
X1282815D2*
X1302034D1*
X1317151D2*
X1338151D1*
X1359151D2*
X1380151D1*
X636151Y2222938D2*
X661381D1*
X684663D2*
X704713D1*
X727153D2*
X741151D1*
X762185D2*
X783664D1*
X804269D2*
X855217D1*
X872573D2*
X918163D1*
X938972D2*
X954034D1*
X975034D2*
X987151D1*
X1008152D2*
X1020155D1*
X1041151D2*
X1077151D1*
X1119151D2*
X1140151D1*
X1167151D2*
X1188151D1*
X1235779D2*
X1258622D1*
X1281539D2*
X1301652D1*
X1317151D2*
X1338151D1*
X1359151D2*
X1380151D1*
X636151Y2219938D2*
X662268D1*
X685618D2*
X703712D1*
X726512D2*
X741151D1*
X762163D2*
X784487D1*
X804674D2*
X822128D1*
X829371D2*
X853227D1*
X868344D2*
X918269D1*
X939102D2*
X953640D1*
X974640D2*
X987151D1*
X1008151D2*
X1020153D1*
X1041151D2*
X1077151D1*
X1119151D2*
X1140151D1*
X1167151D2*
X1188151D1*
X1236451D2*
X1260326D1*
X1279804D2*
X1300922D1*
X1317151D2*
X1338151D1*
X1359151D2*
X1380151D1*
X636151Y2216938D2*
X663279D1*
X687325D2*
X701988D1*
X725734D2*
X741151D1*
X762156D2*
X785650D1*
X805622D2*
X821899D1*
X834736D2*
X851231D1*
X878440D2*
X918663D1*
X939376D2*
X952807D1*
X973816D2*
X987151D1*
X1008151D2*
X1020152D1*
X1041151D2*
X1077151D1*
X1119151D2*
X1140151D1*
X1167151D2*
X1188151D1*
X1237414D2*
X1262946D1*
X1277591D2*
X1300047D1*
X1317151D2*
X1338151D1*
X1359151D2*
X1380151D1*
X636151Y2213938D2*
X664669D1*
X689945D2*
X699361D1*
X724401D2*
X741151D1*
X762153D2*
X786997D1*
X807326D2*
X821355D1*
X838733D2*
X849151D1*
X888966D2*
X919498D1*
X939943D2*
X951567D1*
X972653D2*
X987151D1*
X1008151D2*
X1020152D1*
X1041151D2*
X1077151D1*
X1119151D2*
X1140151D1*
X1167151D2*
X1227151D1*
X1238736D2*
X1266151D1*
X1275151D2*
X1299118D1*
X1317151D2*
X1338151D1*
X1359151D2*
X1380151D1*
X636151Y2210938D2*
X666413D1*
X693151D2*
X696151D1*
X722455D2*
X741151D1*
X762152D2*
X788450D1*
X809946D2*
X819017D1*
X838276D2*
X851248D1*
X897860D2*
X920767D1*
X942284D2*
X949972D1*
X971282D2*
X987151D1*
X1008151D2*
X1020151D1*
X1041151D2*
X1077151D1*
X1119151D2*
X1140151D1*
X1167151D2*
X1227151D1*
X1240497D2*
X1297910D1*
X1317151D2*
X1338151D1*
X1359151D2*
X1380151D1*
X636151Y2207938D2*
X668375D1*
X720189D2*
X741151D1*
X762152D2*
X790054D1*
X813151D2*
X816151D1*
X837167D2*
X853814D1*
X904056D2*
X922520D1*
X945151D2*
X948151D1*
X969618D2*
X987151D1*
X1008151D2*
X1020151D1*
X1041151D2*
X1077151D1*
X1119151D2*
X1140151D1*
X1167151D2*
X1227151D1*
X1242782D2*
X1296226D1*
X1317151D2*
X1338151D1*
X1359151D2*
X1380151D1*
X636151Y2204938D2*
X670913D1*
X717614D2*
X741151D1*
X762151D2*
X792151D1*
X835507D2*
X857225D1*
X908510D2*
X924900D1*
X967251D2*
X987151D1*
X1008151D2*
X1020151D1*
X1041151D2*
X1077151D1*
X1119151D2*
X1140151D1*
X1167151D2*
X1227151D1*
X1245551D2*
X1293967D1*
X1317151D2*
X1338151D1*
X1359151D2*
X1380151D1*
X636151Y2201938D2*
X674518D1*
X714264D2*
X741151D1*
X762151D2*
X795239D1*
X831769D2*
X861151D1*
X910294D2*
X928000D1*
X963728D2*
X987151D1*
X1008151D2*
X1020151D1*
X1041151D2*
X1077151D1*
X1119151D2*
X1140151D1*
X1167151D2*
X1227151D1*
X1249006D2*
X1291018D1*
X1317151D2*
X1338151D1*
X1359151D2*
X1380151D1*
X636151Y2198938D2*
X679113D1*
X709946D2*
X741151D1*
X762151D2*
X799432D1*
X827173D2*
X857252D1*
X870151D2*
X885151D1*
X911321D2*
X931861D1*
X959169D2*
X987151D1*
X1008151D2*
X1020151D1*
X1041151D2*
X1077151D1*
X1119151D2*
X1140151D1*
X1167151D2*
X1227151D1*
X1253613D2*
X1286954D1*
X1317151D2*
X1338151D1*
X1359151D2*
X1380151D1*
X636151Y2195938D2*
X684151D1*
X705151D2*
X804151D1*
X822151D2*
X853861D1*
X868204D2*
X889294D1*
X911813D2*
X936151D1*
X954151D2*
X1077151D1*
X1119151D2*
X1140151D1*
X1167151D2*
X1227151D1*
X1259533D2*
X1281447D1*
X1317151D2*
X1338151D1*
X1359151D2*
X1380151D1*
X636151Y2192938D2*
X851124D1*
X866224D2*
X892336D1*
X912010D2*
X1077151D1*
X1266151D2*
X1275151D1*
X636151Y2189938D2*
X850119D1*
X864151D2*
X893094D1*
X911976D2*
X1077151D1*
X636151Y2186938D2*
X849687D1*
X867151D2*
X892309D1*
X911507D2*
X1077151D1*
X636151Y2183938D2*
X849660D1*
X870151D2*
X891151D1*
X910585D2*
X1077151D1*
X636151Y2180938D2*
X850842D1*
X908141D2*
X1077151D1*
X636151Y2177938D2*
X854065D1*
X904648D2*
X1077151D1*
X636151Y2174938D2*
X858677D1*
X899802D2*
X1077151D1*
X636151Y2171938D2*
X864151D1*
X894151D2*
X1077151D1*
X636151Y2168938D2*
X1077151D1*
X636151Y2165938D2*
X1077151D1*
X636151Y2321938D2*
Y2318938D1*
Y2315938D1*
Y2312938D1*
Y2309938D1*
Y2306938D1*
Y2303938D1*
Y2300938D1*
Y2297938D1*
Y2294938D1*
Y2291938D1*
Y2288938D1*
Y2285938D1*
Y2282938D1*
Y2279938D1*
Y2276938D1*
Y2273938D1*
Y2270938D1*
Y2267938D1*
Y2264938D1*
Y2261938D1*
Y2258938D1*
Y2255938D1*
Y2252938D1*
Y2249938D1*
Y2246938D1*
Y2243938D1*
Y2240938D1*
Y2237938D1*
Y2234938D1*
Y2231938D1*
Y2228938D1*
Y2225938D1*
Y2222938D1*
Y2219938D1*
Y2216938D1*
Y2213938D1*
Y2210938D1*
Y2207938D1*
Y2204938D1*
Y2201938D1*
Y2198938D1*
Y2195938D1*
Y2192938D1*
Y2189938D1*
Y2186938D1*
Y2183938D1*
Y2180938D1*
Y2177938D1*
Y2174938D1*
Y2171938D1*
Y2168938D1*
Y2165938D1*
X1077151Y2321938D2*
Y2318938D1*
Y2315938D1*
Y2312938D1*
Y2309938D1*
Y2306938D1*
Y2303938D1*
Y2300938D1*
Y2297938D1*
Y2294938D1*
Y2291938D1*
Y2288938D1*
Y2285938D1*
Y2282938D1*
Y2279938D1*
Y2276938D1*
Y2273938D1*
Y2270938D1*
Y2267938D1*
Y2264938D1*
Y2261938D1*
Y2258938D1*
Y2255938D1*
Y2252938D1*
Y2249938D1*
Y2246938D1*
Y2243938D1*
Y2240938D1*
Y2237938D1*
Y2234938D1*
Y2231938D1*
Y2228938D1*
Y2225938D1*
Y2222938D1*
Y2219938D1*
Y2216938D1*
Y2213938D1*
Y2210938D1*
Y2207938D1*
Y2204938D1*
Y2201938D1*
Y2198938D1*
Y2195938D1*
Y2192938D1*
Y2189938D1*
Y2186938D1*
Y2183938D1*
Y2180938D1*
Y2177938D1*
Y2174938D1*
Y2171938D1*
Y2168938D1*
Y2165938D1*
X1266151Y2297938D2*
X1259356Y2294938D1*
X1253740Y2291938D1*
X1249311Y2288938D1*
X1245736Y2285938D1*
X1242841Y2282938D1*
X1240563Y2279938D1*
X1238790Y2276938D1*
X1237504Y2273938D1*
X1236659Y2270938D1*
X1235913Y2267938D1*
X1235035Y2264938D1*
X1234202Y2261938D1*
X1233654Y2258938D1*
X1233367Y2255938D1*
X1233237Y2252938D1*
X1233183Y2249938D1*
X1233163Y2246938D1*
X1233155Y2243938D1*
X1233153Y2240938D1*
X1233164Y2237938D1*
X1233269Y2234938D1*
X1233651Y2231938D1*
X1234369Y2228938D1*
X1235150Y2225938D1*
X1235779Y2222938D1*
X1236451Y2219938D1*
X1237414Y2216938D1*
X1238736Y2213938D1*
X1240497Y2210938D1*
X1242782Y2207938D1*
X1245551Y2204938D1*
X1249006Y2201938D1*
X1253613Y2198938D1*
X1259533Y2195938D1*
X1266151Y2192938D1*
X1275151Y2297938D2*
X1281935Y2294938D1*
X1287446Y2291938D1*
X1291492Y2288938D1*
X1294337Y2285938D1*
X1296369Y2282938D1*
X1297847Y2279938D1*
X1299006Y2276938D1*
X1300102Y2273938D1*
X1301035Y2270938D1*
X1301589Y2267938D1*
X1301853Y2264938D1*
X1300901Y2261938D1*
X1297426Y2258938D1*
X1293151Y2255938D1*
X690151Y2297938D2*
X684289Y2294938D1*
X678896Y2291938D1*
X674497Y2288938D1*
X671215Y2285938D1*
X668612Y2282938D1*
X666411Y2279938D1*
X664718Y2276938D1*
X663418Y2273938D1*
X662252Y2270938D1*
X661288Y2267938D1*
X660686Y2264938D1*
X660379Y2261938D1*
X660241Y2258938D1*
X660185Y2255938D1*
X660163Y2252938D1*
X660155Y2249938D1*
X660153Y2246938D1*
X660152Y2243938D1*
Y2240938D1*
X660151Y2237938D1*
Y2234938D1*
X660163Y2231938D1*
X660269Y2228938D1*
X660651Y2225938D1*
X661381Y2222938D1*
X662268Y2219938D1*
X663279Y2216938D1*
X664669Y2213938D1*
X666413Y2210938D1*
X668375Y2207938D1*
X670913Y2204938D1*
X674518Y2201938D1*
X679113Y2198938D1*
X684151Y2195938D1*
X699151Y2297938D2*
X704911Y2294938D1*
X710025Y2291938D1*
X714087Y2288938D1*
X717319Y2285938D1*
X720168Y2282938D1*
X722602Y2279938D1*
X724352Y2276938D1*
X725449Y2273938D1*
X726312Y2270938D1*
X727239Y2267938D1*
X728091Y2264938D1*
X728645Y2261938D1*
X728934Y2258938D1*
X729065Y2255938D1*
X729119Y2252938D1*
X729140Y2249938D1*
X729148Y2246938D1*
X729150Y2243938D1*
X729151Y2240938D1*
Y2237938D1*
X729140Y2234938D1*
X729034Y2231938D1*
X728652Y2228938D1*
X727933Y2225938D1*
X727153Y2222938D1*
X726512Y2219938D1*
X725734Y2216938D1*
X724401Y2213938D1*
X722455Y2210938D1*
X720189Y2207938D1*
X717614Y2204938D1*
X714264Y2201938D1*
X709946Y2198938D1*
X705151Y2195938D1*
X1101151Y2294938D2*
Y2291938D1*
Y2288938D1*
Y2285938D1*
Y2282938D1*
Y2279938D1*
Y2276938D1*
Y2273938D1*
X1119151D1*
Y2270938D1*
Y2267938D1*
Y2264938D1*
Y2261938D1*
Y2258938D1*
Y2255938D1*
Y2252938D1*
Y2249938D1*
Y2246938D1*
Y2243938D1*
Y2240938D1*
Y2237938D1*
Y2234938D1*
Y2231938D1*
Y2228938D1*
Y2225938D1*
Y2222938D1*
Y2219938D1*
Y2216938D1*
Y2213938D1*
Y2210938D1*
Y2207938D1*
Y2204938D1*
Y2201938D1*
Y2198938D1*
Y2195938D1*
X1161151Y2294938D2*
Y2291938D1*
Y2288938D1*
Y2285938D1*
Y2282938D1*
Y2279938D1*
Y2276938D1*
Y2273938D1*
X1140151D1*
Y2270938D1*
Y2267938D1*
Y2264938D1*
Y2261938D1*
Y2258938D1*
Y2255938D1*
Y2252938D1*
Y2249938D1*
Y2246938D1*
Y2243938D1*
Y2240938D1*
Y2237938D1*
Y2234938D1*
Y2231938D1*
Y2228938D1*
Y2225938D1*
Y2222938D1*
Y2219938D1*
Y2216938D1*
Y2213938D1*
Y2210938D1*
Y2207938D1*
Y2204938D1*
Y2201938D1*
Y2198938D1*
Y2195938D1*
X1167151Y2294938D2*
Y2291938D1*
Y2288938D1*
Y2285938D1*
Y2282938D1*
Y2279938D1*
Y2276938D1*
Y2273938D1*
Y2270938D1*
Y2267938D1*
Y2264938D1*
Y2261938D1*
Y2258938D1*
Y2255938D1*
Y2252938D1*
Y2249938D1*
Y2246938D1*
Y2243938D1*
Y2240938D1*
Y2237938D1*
Y2234938D1*
Y2231938D1*
Y2228938D1*
Y2225938D1*
Y2222938D1*
Y2219938D1*
Y2216938D1*
Y2213938D1*
Y2210938D1*
Y2207938D1*
Y2204938D1*
Y2201938D1*
Y2198938D1*
Y2195938D1*
X1227151Y2294938D2*
Y2291938D1*
Y2288938D1*
Y2285938D1*
Y2282938D1*
Y2279938D1*
X1317151Y2294938D2*
Y2291938D1*
Y2288938D1*
Y2285938D1*
Y2282938D1*
Y2279938D1*
Y2276938D1*
Y2273938D1*
Y2270938D1*
Y2267938D1*
Y2264938D1*
Y2261938D1*
Y2258938D1*
Y2255938D1*
Y2252938D1*
Y2249938D1*
Y2246938D1*
Y2243938D1*
Y2240938D1*
Y2237938D1*
Y2234938D1*
Y2231938D1*
Y2228938D1*
Y2225938D1*
Y2222938D1*
Y2219938D1*
Y2216938D1*
Y2213938D1*
Y2210938D1*
Y2207938D1*
Y2204938D1*
Y2201938D1*
Y2198938D1*
Y2195938D1*
X1338151Y2294938D2*
Y2291938D1*
Y2288938D1*
Y2285938D1*
Y2282938D1*
Y2279938D1*
Y2276938D1*
Y2273938D1*
Y2270938D1*
Y2267938D1*
Y2264938D1*
Y2261938D1*
Y2258938D1*
X1359151Y2294938D2*
Y2291938D1*
Y2288938D1*
Y2285938D1*
Y2282938D1*
Y2279938D1*
Y2276938D1*
Y2273938D1*
Y2270938D1*
Y2267938D1*
Y2264938D1*
Y2261938D1*
Y2258938D1*
X1380151Y2294938D2*
Y2291938D1*
Y2288938D1*
Y2285938D1*
Y2282938D1*
Y2279938D1*
Y2276938D1*
Y2273938D1*
Y2270938D1*
Y2267938D1*
Y2264938D1*
Y2261938D1*
Y2258938D1*
Y2255938D1*
Y2252938D1*
Y2249938D1*
Y2246938D1*
Y2243938D1*
Y2240938D1*
Y2237938D1*
Y2234938D1*
Y2231938D1*
Y2228938D1*
Y2225938D1*
Y2222938D1*
Y2219938D1*
Y2216938D1*
Y2213938D1*
Y2210938D1*
Y2207938D1*
Y2204938D1*
Y2201938D1*
Y2198938D1*
Y2195938D1*
X693151Y2279938D2*
X689918Y2276938D1*
X687451Y2273938D1*
X685802Y2270938D1*
X684890Y2267938D1*
X684455Y2264938D1*
X684256Y2261938D1*
X684077Y2258938D1*
X683667Y2255938D1*
X682938Y2252938D1*
X682178Y2249938D1*
X681759Y2246938D1*
X681863Y2243938D1*
X682454Y2240938D1*
X683170Y2237938D1*
X683673Y2234938D1*
X683944Y2231938D1*
X684080Y2228938D1*
X684238Y2225938D1*
X684663Y2222938D1*
X685618Y2219938D1*
X687325Y2216938D1*
X689945Y2213938D1*
X693151Y2210938D1*
X696151Y2279938D2*
X699385Y2276938D1*
X701852Y2273938D1*
X703500Y2270938D1*
X704424Y2267938D1*
X704965Y2264938D1*
X705534Y2261938D1*
X706327Y2258938D1*
X707124Y2255938D1*
X707657Y2252938D1*
X707938Y2249938D1*
X708067Y2246938D1*
X708108Y2243938D1*
X708023Y2240938D1*
X707648Y2237938D1*
X706932Y2234938D1*
X706164Y2231938D1*
X705629Y2228938D1*
X705246Y2225938D1*
X704713Y2222938D1*
X703712Y2219938D1*
X701988Y2216938D1*
X699361Y2213938D1*
X696151Y2210938D1*
X909151Y2282938D2*
X904216Y2279938D1*
X900320Y2276938D1*
X897560Y2273938D1*
X895646Y2270938D1*
X894151Y2267938D1*
X915151Y2282938D2*
X915116Y2279938D1*
X914788Y2276938D1*
X914015Y2273938D1*
X911118Y2270938D1*
X908013Y2267938D1*
X905326Y2264938D1*
X904365Y2261938D1*
X904845Y2258938D1*
X905790Y2255938D1*
X906927Y2252938D1*
X907831Y2249938D1*
X908341Y2246938D1*
X907631Y2243938D1*
X906446Y2240938D1*
X904564Y2237938D1*
X901976Y2234938D1*
X895379Y2231938D1*
X886725Y2228938D1*
X878394Y2225938D1*
X872573Y2222938D1*
X868344Y2219938D1*
X878440Y2216938D1*
X888966Y2213938D1*
X897860Y2210938D1*
X904056Y2207938D1*
X908510Y2204938D1*
X910294Y2201938D1*
X911321Y2198938D1*
X911813Y2195938D1*
X912010Y2192938D1*
X911976Y2189938D1*
X911507Y2186938D1*
X910585Y2183938D1*
X908141Y2180938D1*
X904648Y2177938D1*
X899802Y2174938D1*
X894151Y2171938D1*
X1188151Y2279938D2*
Y2276938D1*
Y2273938D1*
Y2270938D1*
Y2267938D1*
Y2264938D1*
Y2261938D1*
Y2258938D1*
Y2255938D1*
X1218151D1*
Y2252938D1*
Y2249938D1*
Y2246938D1*
Y2243938D1*
Y2240938D1*
Y2237938D1*
Y2234938D1*
X1188151D1*
Y2231938D1*
Y2228938D1*
Y2225938D1*
Y2222938D1*
Y2219938D1*
Y2216938D1*
Y2213938D1*
X1272151Y2279938D2*
X1267216Y2276938D1*
X1263323Y2273938D1*
X1260594Y2270938D1*
X1258550Y2267938D1*
X1257831Y2264938D1*
X1257441Y2261938D1*
X1257265Y2258938D1*
X1257193Y2255938D1*
X1257166Y2252938D1*
X1257156Y2249938D1*
X1257153Y2246938D1*
X1257152Y2243938D1*
Y2240938D1*
X1257151Y2237938D1*
Y2234938D1*
X1257163Y2231938D1*
X1257269Y2228938D1*
X1257674Y2225938D1*
X1258622Y2222938D1*
X1260326Y2219938D1*
X1262946Y2216938D1*
X1266151Y2213938D1*
X1272151Y2279938D2*
X1275037Y2276938D1*
X1277641Y2273938D1*
X1279805Y2270938D1*
X1281536Y2267938D1*
X1282795Y2264938D1*
X1283532Y2261938D1*
X1283912Y2258938D1*
X1284151Y2255938D1*
X741151Y2270938D2*
Y2267938D1*
Y2264938D1*
Y2261938D1*
Y2258938D1*
Y2255938D1*
Y2252938D1*
Y2249938D1*
Y2246938D1*
Y2243938D1*
Y2240938D1*
Y2237938D1*
Y2234938D1*
Y2231938D1*
Y2228938D1*
Y2225938D1*
Y2222938D1*
Y2219938D1*
Y2216938D1*
Y2213938D1*
Y2210938D1*
Y2207938D1*
Y2204938D1*
Y2201938D1*
Y2198938D1*
X759151Y2270938D2*
Y2267938D1*
Y2264938D1*
Y2261938D1*
Y2258938D1*
Y2255938D1*
Y2252938D1*
X777151Y2270938D2*
X772216Y2267938D1*
X768311Y2264938D1*
X765468Y2261938D1*
X763251Y2258938D1*
X761220Y2255938D1*
X759151Y2252938D1*
X780151Y2270938D2*
Y2267938D1*
Y2264938D1*
X780116Y2261938D1*
X779788Y2258938D1*
X779015Y2255938D1*
X776003Y2252938D1*
X772503Y2249938D1*
X769411Y2246938D1*
X767173Y2243938D1*
X765606Y2240938D1*
X764324Y2237938D1*
X763314Y2234938D1*
X762695Y2231938D1*
X762382Y2228938D1*
X762242Y2225938D1*
X762185Y2222938D1*
X762163Y2219938D1*
X762156Y2216938D1*
X762153Y2213938D1*
X762152Y2210938D1*
Y2207938D1*
X762151Y2204938D1*
Y2201938D1*
Y2198938D1*
X810151Y2270938D2*
X804289Y2267938D1*
X798896Y2264938D1*
X794509Y2261938D1*
X791332Y2258938D1*
X789099Y2255938D1*
X787524Y2252938D1*
X786323Y2249938D1*
X785210Y2246938D1*
X784271Y2243938D1*
X783680Y2240938D1*
X783377Y2237938D1*
X783240Y2234938D1*
X783184Y2231938D1*
X783175Y2228938D1*
X783273Y2225938D1*
X783664Y2222938D1*
X784487Y2219938D1*
X785650Y2216938D1*
X786997Y2213938D1*
X788450Y2210938D1*
X790054Y2207938D1*
X792151Y2204938D1*
X795239Y2201938D1*
X799432Y2198938D1*
X804151Y2195938D1*
X813151Y2270938D2*
X820611Y2267938D1*
X826655Y2264938D1*
X831213Y2261938D1*
X834596Y2258938D1*
X836993Y2255938D1*
X838570Y2252938D1*
X839443Y2249938D1*
X839871Y2246938D1*
X840156Y2243938D1*
X840610Y2240938D1*
X841356Y2237938D1*
X842142Y2234938D1*
X842714Y2231938D1*
X843151Y2228938D1*
X873151Y2270938D2*
X867753Y2267938D1*
X863104Y2264938D1*
X859493Y2261938D1*
X856842Y2258938D1*
X854899Y2255938D1*
X853568Y2252938D1*
X852908Y2249938D1*
X852928Y2246938D1*
X853601Y2243938D1*
X854793Y2240938D1*
X856381Y2237938D1*
X858021Y2234938D1*
X859355Y2231938D1*
X859021Y2228938D1*
X857237Y2225938D1*
X855217Y2222938D1*
X853227Y2219938D1*
X851231Y2216938D1*
X849151Y2213938D1*
X851248Y2210938D1*
X853814Y2207938D1*
X857225Y2204938D1*
X861151Y2201938D1*
X857252Y2198938D1*
X853861Y2195938D1*
X851124Y2192938D1*
X850119Y2189938D1*
X849687Y2186938D1*
X849660Y2183938D1*
X850842Y2180938D1*
X854065Y2177938D1*
X858677Y2174938D1*
X864151Y2171938D1*
X888151Y2270938D2*
X891151Y2267938D1*
X945151Y2270938D2*
X937342Y2267938D1*
X930939Y2264938D1*
X926323Y2261938D1*
X923185Y2258938D1*
X921032Y2255938D1*
X919605Y2252938D1*
X918808Y2249938D1*
X918423Y2246938D1*
X918256Y2243938D1*
X918190Y2240938D1*
X918165Y2237938D1*
X918156Y2234938D1*
X918153Y2231938D1*
X918152Y2228938D1*
Y2225938D1*
X918163Y2222938D1*
X918269Y2219938D1*
X918663Y2216938D1*
X919498Y2213938D1*
X920767Y2210938D1*
X922520Y2207938D1*
X924900Y2204938D1*
X928000Y2201938D1*
X931861Y2198938D1*
X936151Y2195938D1*
X951151Y2270938D2*
X956550Y2267938D1*
X961199Y2264938D1*
X964810Y2261938D1*
X967473Y2258938D1*
X969521Y2255938D1*
X971246Y2252938D1*
X972730Y2249938D1*
X973873Y2246938D1*
X974559Y2243938D1*
X974902Y2240938D1*
X975054Y2237938D1*
X975115Y2234938D1*
X975139Y2231938D1*
X975147Y2228938D1*
X975138Y2225938D1*
X975034Y2222938D1*
X974640Y2219938D1*
X973816Y2216938D1*
X972653Y2213938D1*
X971282Y2210938D1*
X969618Y2207938D1*
X967251Y2204938D1*
X963728Y2201938D1*
X959169Y2198938D1*
X954151Y2195938D1*
X987151Y2270938D2*
Y2267938D1*
Y2264938D1*
Y2261938D1*
Y2258938D1*
Y2255938D1*
Y2252938D1*
Y2249938D1*
Y2246938D1*
Y2243938D1*
Y2240938D1*
Y2237938D1*
Y2234938D1*
Y2231938D1*
Y2228938D1*
Y2225938D1*
Y2222938D1*
Y2219938D1*
Y2216938D1*
Y2213938D1*
Y2210938D1*
Y2207938D1*
Y2204938D1*
Y2201938D1*
Y2198938D1*
X1005151Y2270938D2*
Y2267938D1*
Y2264938D1*
Y2261938D1*
X1020151Y2270938D2*
X1015254Y2267938D1*
X1011360Y2264938D1*
X1008151Y2261938D1*
X1026151Y2270938D2*
X1031087Y2267938D1*
X1034980Y2264938D1*
X1037709Y2261938D1*
X1039753Y2258938D1*
X1040472Y2255938D1*
X1040862Y2252938D1*
X1041038Y2249938D1*
X1041110Y2246938D1*
X1041137Y2243938D1*
X1041146Y2240938D1*
X1041150Y2237938D1*
X1041151Y2234938D1*
Y2231938D1*
Y2228938D1*
Y2225938D1*
Y2222938D1*
Y2219938D1*
Y2216938D1*
Y2213938D1*
Y2210938D1*
Y2207938D1*
Y2204938D1*
Y2201938D1*
Y2198938D1*
X876151Y2258938D2*
X874767Y2255938D1*
X873905Y2252938D1*
X873481Y2249938D1*
X873402Y2246938D1*
X873787Y2243938D1*
X874782Y2240938D1*
X876151Y2237938D1*
X885151Y2258938D2*
Y2255938D1*
Y2252938D1*
Y2249938D1*
Y2246938D1*
Y2243938D1*
Y2240938D1*
Y2237938D1*
X807151Y2255938D2*
X806688Y2252938D1*
X805943Y2249938D1*
X805159Y2246938D1*
X804588Y2243938D1*
X804151Y2240938D1*
X819151Y2255938D2*
X820536Y2252938D1*
X821398Y2249938D1*
X821835Y2246938D1*
X822035Y2243938D1*
X822151Y2240938D1*
X942151Y2255938D2*
X940767Y2252938D1*
X939905Y2249938D1*
X939457Y2246938D1*
X939158Y2243938D1*
X938710Y2240938D1*
X938067Y2237938D1*
X937669Y2234938D1*
X937861Y2231938D1*
X938351Y2228938D1*
X938746Y2225938D1*
X938972Y2222938D1*
X939102Y2219938D1*
X939376Y2216938D1*
X939943Y2213938D1*
X942284Y2210938D1*
X945151Y2207938D1*
X951151Y2255938D2*
X951615Y2252938D1*
X952359Y2249938D1*
X953136Y2246938D1*
X953661Y2243938D1*
X953940Y2240938D1*
X954067Y2237938D1*
X954120Y2234938D1*
X954140Y2231938D1*
X954148Y2228938D1*
X954138Y2225938D1*
X954034Y2222938D1*
X953640Y2219938D1*
X952807Y2216938D1*
X951567Y2213938D1*
X949972Y2210938D1*
X948151Y2207938D1*
X1014151Y2255938D2*
X1011382Y2252938D1*
X1009331Y2249938D1*
X1008705Y2246938D1*
X1008379Y2243938D1*
X1008238Y2240938D1*
X1008183Y2237938D1*
X1008162Y2234938D1*
X1008155Y2231938D1*
X1008153Y2228938D1*
X1008152Y2225938D1*
Y2222938D1*
X1008151Y2219938D1*
Y2216938D1*
Y2213938D1*
Y2210938D1*
Y2207938D1*
Y2204938D1*
Y2201938D1*
Y2198938D1*
X1017151Y2255938D2*
X1018988Y2252938D1*
X1020488Y2249938D1*
X1021631Y2246938D1*
X1021397Y2243938D1*
X1020926Y2240938D1*
X1020545Y2237938D1*
X1020327Y2234938D1*
X1020223Y2231938D1*
X1020179Y2228938D1*
X1020161Y2225938D1*
X1020155Y2222938D1*
X1020153Y2219938D1*
X1020152Y2216938D1*
Y2213938D1*
X1020151Y2210938D1*
Y2207938D1*
Y2204938D1*
Y2201938D1*
Y2198938D1*
X1338151Y2237938D2*
Y2234938D1*
Y2231938D1*
Y2228938D1*
Y2225938D1*
Y2222938D1*
Y2219938D1*
Y2216938D1*
Y2213938D1*
Y2210938D1*
Y2207938D1*
Y2204938D1*
Y2201938D1*
Y2198938D1*
Y2195938D1*
X1359151Y2237938D2*
Y2234938D1*
Y2231938D1*
Y2228938D1*
Y2225938D1*
Y2222938D1*
Y2219938D1*
Y2216938D1*
Y2213938D1*
Y2210938D1*
Y2207938D1*
Y2204938D1*
Y2201938D1*
Y2198938D1*
Y2195938D1*
X1284151Y2231938D2*
X1283676Y2228938D1*
X1282815Y2225938D1*
X1281539Y2222938D1*
X1279804Y2219938D1*
X1277591Y2216938D1*
X1275151Y2213938D1*
X1302151Y2231938D2*
X1302140Y2228938D1*
X1302034Y2225938D1*
X1301652Y2222938D1*
X1300922Y2219938D1*
X1300047Y2216938D1*
X1299118Y2213938D1*
X1297910Y2210938D1*
X1296226Y2207938D1*
X1293967Y2204938D1*
X1291018Y2201938D1*
X1286954Y2198938D1*
X1281447Y2195938D1*
X1275151Y2192938D1*
X804151Y2228938D2*
X804163Y2225938D1*
X804269Y2222938D1*
X804674Y2219938D1*
X805622Y2216938D1*
X807326Y2213938D1*
X809946Y2210938D1*
X813151Y2207938D1*
X822151Y2222938D2*
X822128Y2219938D1*
X821899Y2216938D1*
X821355Y2213938D1*
X819017Y2210938D1*
X816151Y2207938D1*
X822151Y2222938D2*
X829371Y2219938D1*
X834736Y2216938D1*
X838733Y2213938D1*
X838276Y2210938D1*
X837167Y2207938D1*
X835507Y2204938D1*
X831769Y2201938D1*
X827173Y2198938D1*
X822151Y2195938D1*
X1227151Y2213938D2*
Y2210938D1*
Y2207938D1*
Y2204938D1*
Y2201938D1*
Y2198938D1*
Y2195938D1*
X870151Y2198938D2*
X868204Y2195938D1*
X866224Y2192938D1*
X864151Y2189938D1*
X867151Y2186938D1*
X870151Y2183938D1*
X885151Y2198938D2*
X889294Y2195938D1*
X892336Y2192938D1*
X893094Y2189938D1*
X892309Y2186938D1*
X891151Y2183938D1*
X2017776Y989049D2*
D77*
X2016350Y991901D1*
X2013465Y994786D1*
X2010613Y996212D1*
X2004876D1*
X2001991Y994786D1*
X1999139Y991901D1*
X1997680Y989049D1*
X1996254Y984738D1*
Y977542D1*
X1997680Y973264D1*
X1999139Y970379D1*
X2001991Y967527D1*
X2004876Y966068D1*
X2010613D1*
X2013465Y967527D1*
X2016350Y970379D1*
X2017776Y973264D1*
X2027039Y990441D2*
X2029924Y991901D1*
X2034235Y996178D1*
Y966068D1*
X961721Y705109D2*
X960295Y707960D1*
X957410Y710846D1*
X954558Y712272D1*
X948821D1*
X945936Y710846D1*
X943084Y707960D1*
X941625Y705109D1*
X940199Y700798D1*
Y693601D1*
X941625Y689324D1*
X943084Y686439D1*
X945936Y683587D1*
X948821Y682127D1*
X954558D1*
X957410Y683587D1*
X960295Y686439D1*
X961721Y689324D1*
X972443Y705075D2*
Y706501D1*
X973869Y709386D1*
X975295Y710812D1*
X978180Y712238D1*
X983917D1*
X986769Y710812D1*
X988195Y709386D1*
X989654Y706501D1*
Y703649D1*
X988195Y700764D1*
X985343Y696487D1*
X970984Y682127D1*
X991080D1*
X974565Y3201536D2*
Y3171392D1*
X984613D1*
X988924Y3172851D1*
X991809Y3175703D1*
X993235Y3178588D1*
X994661Y3182866D1*
Y3190062D1*
X993235Y3194373D1*
X991809Y3197225D1*
X988924Y3200110D1*
X984613Y3201536D1*
X974565D1*
X1003925Y3195766D2*
X1006810Y3197225D1*
X1011121Y3201503D1*
Y3171392D1*
X1558205Y3259924D2*
Y3229780D1*
X1568253D1*
X1572564Y3231239D1*
X1575449Y3234091D1*
X1576875Y3236976D1*
X1578301Y3241254D1*
Y3248450D1*
X1576875Y3252761D1*
X1575449Y3255613D1*
X1572564Y3258498D1*
X1568253Y3259924D1*
X1558205D1*
X1589023Y3252728D2*
Y3254154D1*
X1590449Y3257039D1*
X1591875Y3258465D1*
X1594760Y3259891D1*
X1600497D1*
X1603349Y3258465D1*
X1604775Y3257039D1*
X1606234Y3254154D1*
Y3251302D1*
X1604775Y3248417D1*
X1601923Y3244139D1*
X1587564Y3229780D1*
X1607660D1*
X1316567Y2721650D2*
Y2691506D1*
X1326615D1*
X1330926Y2692965D1*
X1333811Y2695817D1*
X1335237Y2698702D1*
X1336663Y2702980D1*
Y2710176D1*
X1335237Y2714487D1*
X1333811Y2717339D1*
X1330926Y2720224D1*
X1326615Y2721650D1*
X1316567D1*
X1348811Y2721617D2*
X1364563D1*
X1355974Y2710143D1*
X1360285D1*
X1363137Y2708717D1*
X1364563Y2707291D1*
X1366022Y2702980D1*
Y2700128D1*
X1364563Y2695817D1*
X1361711Y2692932D1*
X1357400Y2691506D1*
X1353089D1*
X1348811Y2692932D1*
X1347385Y2694391D1*
X1345926Y2697243D1*
X1714107Y2051222D2*
Y2028274D1*
X1712681Y2023963D1*
X1711221Y2022537D1*
X1708370Y2021078D1*
X1705485D1*
X1702633Y2022537D1*
X1701207Y2023963D1*
X1699748Y2028274D1*
Y2031126D1*
X1726255Y2051189D2*
X1742007D1*
X1733418Y2039715D1*
X1737729D1*
X1740581Y2038289D1*
X1742007Y2036863D1*
X1743466Y2032552D1*
Y2029700D1*
X1742007Y2025389D1*
X1739155Y2022504D1*
X1734844Y2021078D1*
X1730533D1*
X1726255Y2022504D1*
X1724829Y2023963D1*
X1723370Y2026815D1*
X437466Y1910152D2*
Y1887204D1*
X436040Y1882893D1*
X434581Y1881467D1*
X431729Y1880008D1*
X428844D1*
X425992Y1881467D1*
X424566Y1882893D1*
X423107Y1887204D1*
Y1890056D1*
X461088Y1880008D2*
Y1910119D1*
X446729Y1890056D1*
X468251D1*
X569137Y2179217D2*
Y2156269D1*
X567711Y2151958D1*
X566252Y2150532D1*
X563400Y2149073D1*
X560515D1*
X557663Y2150532D1*
X556237Y2151958D1*
X554778Y2156269D1*
Y2159121D1*
X595611Y2174905D2*
X594185Y2177757D1*
X589874Y2179183D1*
X587022D1*
X582711Y2177757D1*
X579826Y2173446D1*
X578400Y2166283D1*
Y2159121D1*
X579826Y2153384D1*
X582711Y2150498D1*
X587022Y2149073D1*
X588448D1*
X592726Y2150498D1*
X595611Y2153384D1*
X597037Y2157695D1*
Y2159121D1*
X595611Y2163432D1*
X592726Y2166283D1*
X588448Y2167709D1*
X587022D1*
X582711Y2166283D1*
X579826Y2163432D1*
X578400Y2159121D1*
X1001872Y3448246D2*
X1014772D1*
X1019083Y3449705D1*
X1020542Y3451131D1*
X1021968Y3453983D1*
Y3456868D1*
X1020542Y3459720D1*
X1019083Y3461179D1*
X1014772Y3462605D1*
X1001872D1*
Y3432461D1*
X1011920Y3448246D2*
X1021968Y3432461D1*
X1031232Y3456835D2*
X1034117Y3458294D1*
X1038428Y3462572D1*
Y3432461D1*
X1430538Y3494712D2*
X1443438D1*
X1447749Y3496171D1*
X1449208Y3497597D1*
X1450634Y3500449D1*
Y3503334D1*
X1449208Y3506186D1*
X1447749Y3507645D1*
X1443438Y3509071D1*
X1430538D1*
Y3478927D1*
X1440586Y3494712D2*
X1450634Y3478927D1*
X1461357Y3501875D2*
Y3503301D1*
X1462783Y3506186D1*
X1464209Y3507612D1*
X1467094Y3509038D1*
X1472831D1*
X1475683Y3507612D1*
X1477109Y3506186D1*
X1478568Y3503301D1*
Y3500449D1*
X1477109Y3497564D1*
X1474257Y3493286D1*
X1459898Y3478927D1*
X1479994D1*
X520503Y1176038D2*
X533403D1*
X537714Y1177497D1*
X539173Y1178923D1*
X540599Y1181775D1*
Y1184660D1*
X539173Y1187512D1*
X537714Y1188971D1*
X533403Y1190397D1*
X520503D1*
Y1160253D1*
X530551Y1176038D2*
X540599Y1160253D1*
X564222D2*
Y1190363D1*
X549863Y1170301D1*
X571385D1*
X1900510Y1738980D2*
X1913410D1*
X1917721Y1740439D1*
X1919180Y1741865D1*
X1920606Y1744717D1*
Y1747602D1*
X1919180Y1750454D1*
X1917721Y1751913D1*
X1913410Y1753339D1*
X1900510D1*
Y1723195D1*
X1910558Y1738980D2*
X1920606Y1723195D1*
X1947081Y1749028D2*
X1945655Y1751880D1*
X1941344Y1753305D1*
X1938492D1*
X1934181Y1751880D1*
X1931296Y1747568D1*
X1929870Y1740406D1*
Y1733243D1*
X1931296Y1727506D1*
X1934181Y1724621D1*
X1938492Y1723195D1*
X1939918D1*
X1944196Y1724621D1*
X1947081Y1727506D1*
X1948507Y1731817D1*
Y1733243D1*
X1947081Y1737554D1*
X1944196Y1740406D1*
X1939918Y1741832D1*
X1938492D1*
X1934181Y1740406D1*
X1931296Y1737554D1*
X1929870Y1733243D1*
X634758Y958731D2*
X647658D1*
X651969Y960190D1*
X653428Y961616D1*
X654854Y964468D1*
Y967353D1*
X653428Y970205D1*
X651969Y971664D1*
X647658Y973090D1*
X634758D1*
Y942946D1*
X644806Y958731D2*
X654854Y942946D1*
X669855D2*
X684214Y973056D1*
X664118D1*
X562339Y1079962D2*
X575239D1*
X579550Y1081421D1*
X581009Y1082847D1*
X582435Y1085699D1*
Y1088584D1*
X581009Y1091436D1*
X579550Y1092895D1*
X575239Y1094321D1*
X562339D1*
Y1064177D1*
X572387Y1079962D2*
X582435Y1064177D1*
X598862Y1094288D2*
X594584Y1092862D1*
X593125Y1090010D1*
Y1087125D1*
X594584Y1084273D1*
X597436Y1082814D1*
X603173Y1081388D1*
X607484Y1079962D1*
X610336Y1077077D1*
X611762Y1074225D1*
Y1069914D1*
X610336Y1067062D1*
X608910Y1065603D1*
X604599Y1064177D1*
X598862D1*
X594584Y1065603D1*
X593125Y1067062D1*
X591699Y1069914D1*
Y1074225D1*
X593125Y1077077D1*
X596010Y1079962D1*
X600288Y1081388D1*
X606025Y1082814D1*
X608910Y1084273D1*
X610336Y1087125D1*
Y1090010D1*
X608910Y1092862D1*
X604599Y1094288D1*
X598862D1*
X500727Y1288465D2*
X513627D1*
X517938Y1289924D1*
X519397Y1291350D1*
X520823Y1294202D1*
Y1297087D1*
X519397Y1299939D1*
X517938Y1301398D1*
X513627Y1302824D1*
X500727D1*
Y1272680D1*
X510775Y1288465D2*
X520823Y1272680D1*
X548757Y1292776D2*
X547298Y1288465D1*
X544446Y1285580D1*
X540135Y1284154D1*
X538709D1*
X534398Y1285580D1*
X531546Y1288465D1*
X530087Y1292776D1*
Y1294202D1*
X531546Y1298513D1*
X534398Y1301365D1*
X538709Y1302791D1*
X540135D1*
X544446Y1301365D1*
X547298Y1298513D1*
X548757Y1292776D1*
Y1285580D1*
X547298Y1278417D1*
X544446Y1274106D1*
X540135Y1272680D1*
X537283D1*
X532972Y1274106D1*
X531546Y1276991D1*
X2229761Y1767776D2*
X2242661D1*
X2246972Y1769235D1*
X2248431Y1770661D1*
X2249857Y1773513D1*
Y1776398D1*
X2248431Y1779250D1*
X2246972Y1780709D1*
X2242661Y1782135D1*
X2229761D1*
Y1751991D1*
X2239809Y1767776D2*
X2249857Y1751991D1*
X2259120Y1776365D2*
X2262005Y1777824D1*
X2266316Y1782102D1*
Y1751991D1*
X2277039Y1774939D2*
Y1776365D1*
X2278465Y1779250D1*
X2279891Y1780676D1*
X2282776Y1782102D1*
X2288513D1*
X2291365Y1780676D1*
X2292791Y1779250D1*
X2294250Y1776365D1*
Y1773513D1*
X2292791Y1770628D1*
X2289939Y1766350D1*
X2275580Y1751991D1*
X2295676D1*
X2113620Y1755278D2*
X2126520D1*
X2130831Y1756737D1*
X2132290Y1758163D1*
X2133716Y1761015D1*
Y1763900D1*
X2132290Y1766752D1*
X2130831Y1768211D1*
X2126520Y1769637D1*
X2113620D1*
Y1739493D1*
X2123668Y1755278D2*
X2133716Y1739493D1*
X2142980Y1763867D2*
X2145865Y1765326D1*
X2150176Y1769604D1*
Y1739493D1*
X2162325Y1769604D2*
X2178076D1*
X2169488Y1758130D1*
X2173799D1*
X2176650Y1756704D1*
X2178076Y1755278D1*
X2179536Y1750967D1*
Y1748115D1*
X2178076Y1743804D1*
X2175225Y1740919D1*
X2170914Y1739493D1*
X2166602D1*
X2162325Y1740919D1*
X2160899Y1742378D1*
X2159440Y1745230D1*
X2000175Y1742535D2*
X2013075D1*
X2017386Y1743994D1*
X2018845Y1745420D1*
X2020271Y1748272D1*
Y1751157D1*
X2018845Y1754009D1*
X2017386Y1755468D1*
X2013075Y1756894D1*
X2000175D1*
Y1726750D1*
X2010223Y1742535D2*
X2020271Y1726750D1*
X2029535Y1751124D2*
X2032420Y1752583D1*
X2036731Y1756861D1*
Y1726750D1*
X2060353D2*
Y1756861D1*
X2045994Y1736798D1*
X2067516D1*
X2049381Y1578961D2*
X2046529Y1581846D1*
X2042218Y1583272D1*
X2036481D1*
X2032170Y1581846D1*
X2029285Y1578961D1*
Y1576109D1*
X2030744Y1573224D1*
X2032170Y1571798D1*
X2035022Y1570372D1*
X2043644Y1567487D1*
X2046529Y1566061D1*
X2047955Y1564602D1*
X2049381Y1561750D1*
Y1557439D1*
X2046529Y1554587D1*
X2042218Y1553128D1*
X2036481D1*
X2032170Y1554587D1*
X2029285Y1557439D1*
X2058645Y1577501D2*
X2061530Y1578961D1*
X2065841Y1583238D1*
Y1553128D1*
X1997305Y1279238D2*
X1994453Y1282123D1*
X1990142Y1283549D1*
X1984405D1*
X1980094Y1282123D1*
X1977209Y1279238D1*
Y1276386D1*
X1978668Y1273501D1*
X1980094Y1272075D1*
X1982946Y1270649D1*
X1991568Y1267764D1*
X1994453Y1266338D1*
X1995879Y1264879D1*
X1997305Y1262027D1*
Y1257716D1*
X1994453Y1254864D1*
X1990142Y1253405D1*
X1984405D1*
X1980094Y1254864D1*
X1977209Y1257716D1*
X2008028Y1276353D2*
Y1277779D1*
X2009454Y1280664D1*
X2010880Y1282090D1*
X2013765Y1283516D1*
X2019502D1*
X2022354Y1282090D1*
X2023780Y1280664D1*
X2025239Y1277779D1*
Y1274927D1*
X2023780Y1272042D1*
X2020928Y1267764D1*
X2006569Y1253405D1*
X2026665D1*
X983380Y2091344D2*
Y2069822D1*
X984806Y2065511D1*
X987691Y2062659D1*
X992002Y2061200D1*
X994854D1*
X999165Y2062659D1*
X1002050Y2065511D1*
X1003476Y2069822D1*
Y2091344D1*
X1012740Y2085574D2*
X1015625Y2087033D1*
X1019936Y2091311D1*
Y2061200D1*
X1478916Y700481D2*
Y678959D1*
X1480342Y674648D1*
X1483227Y671796D1*
X1487538Y670337D1*
X1490390D1*
X1494701Y671796D1*
X1497586Y674648D1*
X1499012Y678959D1*
Y700481D1*
X1522634Y670337D2*
Y700448D1*
X1508275Y680385D1*
X1529797D1*
X665750Y2602214D2*
D78*
X663373Y2606967D1*
X658565Y2611775D1*
X653812Y2614152D1*
X644250D1*
X639442Y2611775D1*
X634688Y2606967D1*
X632257Y2602214D1*
X629880Y2595029D1*
Y2583035D1*
X632257Y2575906D1*
X634688Y2571097D1*
X639442Y2566344D1*
X644250Y2563912D1*
X653812D1*
X658565Y2566344D1*
X663373Y2571097D1*
X665750Y2575906D1*
X693127Y2597405D2*
X688374Y2595029D1*
X683566Y2590220D1*
X681189Y2583035D1*
Y2578282D1*
X683566Y2571097D1*
X688374Y2566344D1*
X693127Y2563912D1*
X700312D1*
X705121Y2566344D1*
X709874Y2571097D1*
X712306Y2578282D1*
Y2583035D1*
X709874Y2590220D1*
X705121Y2595029D1*
X700312Y2597405D1*
X693127D1*
X727745D2*
Y2563912D1*
Y2587844D2*
X734930Y2595029D1*
X739739Y2597405D1*
X746868D1*
X751677Y2595029D1*
X754053Y2587844D1*
Y2563912D1*
Y2587844D2*
X761239Y2595029D1*
X766047Y2597405D1*
X773177D1*
X777985Y2595029D1*
X780417Y2587844D1*
Y2563912D1*
X795856Y2597405D2*
Y2547165D1*
Y2590220D2*
X800665Y2594974D1*
X805418Y2597405D1*
X812603D1*
X817411Y2594974D1*
X822165Y2590220D1*
X824596Y2583035D1*
Y2578227D1*
X822165Y2571097D1*
X817411Y2566289D1*
X812603Y2563912D1*
X805418D1*
X800665Y2566289D1*
X795856Y2571097D1*
X840036Y2597405D2*
Y2573474D1*
X842412Y2566344D1*
X847221Y2563912D1*
X854406D1*
X859159Y2566344D1*
X866344Y2573474D1*
Y2597405D2*
Y2563912D1*
X888968Y2614152D2*
Y2573474D1*
X891345Y2566344D1*
X896153Y2563912D1*
X900907D1*
X881783Y2597405D2*
X898530D1*
X916346Y2583035D2*
X945031D1*
Y2587844D1*
X942654Y2592652D1*
X940277Y2595029D1*
X935469Y2597405D1*
X928284D1*
X923531Y2595029D1*
X918722Y2590220D1*
X916346Y2583035D1*
Y2578282D1*
X918722Y2571097D1*
X923531Y2566344D1*
X928284Y2563912D1*
X935469D1*
X940277Y2566344D1*
X945031Y2571097D1*
X960470Y2597405D2*
Y2563912D1*
Y2583035D2*
X962902Y2590220D1*
X967655Y2595029D1*
X972463Y2597405D1*
X979648D1*
X1046065Y2568721D2*
X1043689Y2566289D1*
X1046065Y2563912D1*
X1048497Y2566289D1*
X1046065Y2568721D1*
X1146031Y2606967D2*
X1141277Y2611775D1*
X1134092Y2614152D1*
X1124531D1*
X1117346Y2611775D1*
X1112537Y2606967D1*
Y2602214D1*
X1114969Y2597405D1*
X1117346Y2595029D1*
X1122099Y2592652D1*
X1136469Y2587844D1*
X1141277Y2585467D1*
X1143654Y2583035D1*
X1146031Y2578282D1*
Y2571097D1*
X1141277Y2566344D1*
X1134092Y2563912D1*
X1124531D1*
X1117346Y2566344D1*
X1112537Y2571097D1*
X1173408Y2597405D2*
X1168655Y2595029D1*
X1163846Y2590220D1*
X1161470Y2583035D1*
Y2578282D1*
X1163846Y2571097D1*
X1168655Y2566344D1*
X1173408Y2563912D1*
X1180593D1*
X1185402Y2566344D1*
X1190155Y2571097D1*
X1192587Y2578282D1*
Y2583035D1*
X1190155Y2590220D1*
X1185402Y2595029D1*
X1180593Y2597405D1*
X1173408D1*
X1227149Y2614152D2*
X1222396D1*
X1217588Y2611775D1*
X1215211Y2604590D1*
Y2563912D1*
X1208026Y2597405D2*
X1224773D1*
X1249773Y2614152D2*
Y2573474D1*
X1252150Y2566344D1*
X1256958Y2563912D1*
X1261712D1*
X1242588Y2597405D2*
X1259335D1*
X1277151D2*
X1286713Y2563912D1*
X1296274Y2597405D1*
X1305836Y2563912D1*
X1315397Y2597405D1*
X1359522D2*
Y2563912D1*
Y2590220D2*
X1354768Y2595029D1*
X1349960Y2597405D1*
X1342830D1*
X1338022Y2595029D1*
X1333269Y2590220D1*
X1330837Y2583035D1*
Y2578282D1*
X1333269Y2571097D1*
X1338022Y2566344D1*
X1342830Y2563912D1*
X1349960D1*
X1354768Y2566344D1*
X1359522Y2571097D1*
X1374961Y2597405D2*
Y2563912D1*
Y2583035D2*
X1377393Y2590220D1*
X1382146Y2595029D1*
X1386954Y2597405D1*
X1394139D1*
X1409579Y2583035D2*
X1438263D1*
Y2587844D1*
X1435887Y2592652D1*
X1433510Y2595029D1*
X1428702Y2597405D1*
X1421517D1*
X1416764Y2595029D1*
X1411955Y2590220D1*
X1409579Y2583035D1*
Y2578282D1*
X1411955Y2571097D1*
X1416764Y2566344D1*
X1421517Y2563912D1*
X1428702D1*
X1433510Y2566344D1*
X1438263Y2571097D1*
X1504680Y2568721D2*
X1502304Y2566289D1*
X1504680Y2563912D1*
X1507112Y2566289D1*
X1504680Y2568721D1*
X1602214Y2614152D2*
X1571152D1*
Y2563912D1*
X1602214D1*
X1571152Y2590220D2*
X1590276D1*
X1617653Y2597405D2*
Y2563912D1*
Y2587844D2*
X1624838Y2595029D1*
X1629647Y2597405D1*
X1636776D1*
X1641585Y2595029D1*
X1643961Y2587844D1*
Y2563912D1*
Y2587844D2*
X1651146Y2595029D1*
X1655955Y2597405D1*
X1663085D1*
X1667893Y2595029D1*
X1670325Y2587844D1*
Y2563912D1*
X1685764Y2614152D2*
Y2563912D1*
Y2590220D2*
X1690573Y2595029D1*
X1695326Y2597405D1*
X1702511D1*
X1707264Y2595029D1*
X1712072Y2590220D1*
X1714449Y2583035D1*
Y2578282D1*
X1712072Y2571097D1*
X1707264Y2566344D1*
X1702511Y2563912D1*
X1695326D1*
X1690573Y2566344D1*
X1685764Y2571097D1*
X1729888Y2583035D2*
X1758573D1*
Y2587844D1*
X1756197Y2592652D1*
X1753820Y2595029D1*
X1749012Y2597405D1*
X1741827D1*
X1737073Y2595029D1*
X1732265Y2590220D1*
X1729888Y2583035D1*
Y2578282D1*
X1732265Y2571097D1*
X1737073Y2566344D1*
X1741827Y2563912D1*
X1749012D1*
X1753820Y2566344D1*
X1758573Y2571097D1*
X1802697Y2614152D2*
Y2563912D1*
Y2590220D2*
X1797944Y2595029D1*
X1793136Y2597405D1*
X1785951D1*
X1781197Y2595029D1*
X1776389Y2590220D1*
X1774012Y2583035D1*
Y2578282D1*
X1776389Y2571097D1*
X1781197Y2566344D1*
X1785951Y2563912D1*
X1793136D1*
X1797944Y2566344D1*
X1802697Y2571097D1*
X1846821Y2614152D2*
Y2563912D1*
Y2590220D2*
X1842068Y2595029D1*
X1837260Y2597405D1*
X1830075D1*
X1825322Y2595029D1*
X1820513Y2590220D1*
X1818137Y2583035D1*
Y2578282D1*
X1820513Y2571097D1*
X1825322Y2566344D1*
X1830075Y2563912D1*
X1837260D1*
X1842068Y2566344D1*
X1846821Y2571097D1*
X1862261Y2583035D2*
X1890946D1*
Y2587844D1*
X1888569Y2592652D1*
X1886192Y2595029D1*
X1881384Y2597405D1*
X1874199D1*
X1869446Y2595029D1*
X1864637Y2590220D1*
X1862261Y2583035D1*
Y2578282D1*
X1864637Y2571097D1*
X1869446Y2566344D1*
X1874199Y2563912D1*
X1881384D1*
X1886192Y2566344D1*
X1890946Y2571097D1*
X1935070Y2614152D2*
Y2563912D1*
Y2590220D2*
X1930317Y2595029D1*
X1925508Y2597405D1*
X1918323D1*
X1913570Y2595029D1*
X1908761Y2590220D1*
X1906385Y2583035D1*
Y2578282D1*
X1908761Y2571097D1*
X1913570Y2566344D1*
X1918323Y2563912D1*
X1925508D1*
X1930317Y2566344D1*
X1935070Y2571097D1*
X603318Y3730130D2*
D79*
X624321D1*
X612869Y3714831D1*
X618617D1*
X622419Y3712930D1*
X624321Y3711028D1*
X626266Y3705280D1*
Y3701478D1*
X624321Y3695730D1*
X620518Y3691883D1*
X614770Y3689982D1*
X609022D1*
X603318Y3691883D1*
X601417Y3693828D1*
X599472Y3697631D1*
X640519Y3693828D2*
X638618Y3691883D1*
X640519Y3689982D1*
X642464Y3691883D1*
X640519Y3693828D1*
X658663Y3730130D2*
X679665D1*
X668213Y3714831D1*
X673961D1*
X677764Y3712930D1*
X679665Y3711028D1*
X681610Y3705280D1*
Y3701478D1*
X679665Y3695730D1*
X675862Y3691883D1*
X670114Y3689982D1*
X664366D1*
X658663Y3691883D1*
X656761Y3693828D1*
X654816Y3697631D1*
X693962Y3730174D2*
X709260Y3689982D1*
X724559Y3730174D1*
X964001Y1290785D2*
D80*
Y1230497D1*
X1004193Y1290785D2*
Y1230497D1*
X964001Y1262067D2*
X1004193D1*
X1057142Y1270689D2*
Y1230497D1*
Y1262067D2*
X1051438Y1267837D1*
X1045668Y1270689D1*
X1037112D1*
X1031342Y1267837D1*
X1025638Y1262067D1*
X1022720Y1253445D1*
Y1247741D1*
X1025638Y1239119D1*
X1031342Y1233415D1*
X1037112Y1230497D1*
X1045668D1*
X1051438Y1233415D1*
X1057142Y1239119D1*
X1075669Y1270689D2*
Y1230497D1*
Y1259215D2*
X1084291Y1267837D1*
X1090061Y1270689D1*
X1098617D1*
X1104387Y1267837D1*
X1107239Y1259215D1*
Y1230497D1*
X1160188Y1290785D2*
Y1230497D1*
Y1262067D2*
X1154484Y1267837D1*
X1148714Y1270689D1*
X1140092D1*
X1134388Y1267837D1*
X1128618Y1262067D1*
X1125766Y1253445D1*
Y1247741D1*
X1128618Y1239119D1*
X1134388Y1233415D1*
X1140092Y1230497D1*
X1148714D1*
X1154484Y1233415D1*
X1160188Y1239119D1*
X1210285Y1262067D2*
X1207433Y1267837D1*
X1198811Y1270689D1*
X1190189D1*
X1181567Y1267837D1*
X1178715Y1262067D1*
X1181567Y1256363D1*
X1187337Y1253445D1*
X1201663Y1250593D1*
X1207433Y1247741D1*
X1210285Y1241971D1*
Y1239119D1*
X1207433Y1233415D1*
X1198811Y1230497D1*
X1190189D1*
X1181567Y1233415D1*
X1178715Y1239119D1*
X1228812Y1260608D2*
X1261974D1*
X1294827Y1270689D2*
X1289123Y1267837D1*
X1283353Y1262067D1*
X1280501Y1253445D1*
Y1247741D1*
X1283353Y1239119D1*
X1289123Y1233415D1*
X1294827Y1230497D1*
X1303449D1*
X1309219Y1233415D1*
X1314923Y1239119D1*
X1317841Y1247741D1*
Y1253445D1*
X1314923Y1262067D1*
X1309219Y1267837D1*
X1303449Y1270689D1*
X1294827D1*
X1336368D2*
Y1230497D1*
Y1259215D2*
X1344990Y1267837D1*
X1350760Y1270689D1*
X1359316D1*
X1365086Y1267837D1*
X1367938Y1259215D1*
Y1230497D1*
X1444786Y1290785D2*
Y1230497D1*
X1463314Y1253445D2*
X1497735D1*
Y1259215D1*
X1494883Y1264985D1*
X1492032Y1267837D1*
X1486261Y1270689D1*
X1477639D1*
X1471936Y1267837D1*
X1466165Y1262067D1*
X1463314Y1253445D1*
Y1247741D1*
X1466165Y1239119D1*
X1471936Y1233415D1*
X1477639Y1230497D1*
X1486261D1*
X1492032Y1233415D1*
X1497735Y1239119D1*
X1550684Y1270689D2*
Y1230497D1*
Y1262067D2*
X1544981Y1267837D1*
X1539210Y1270689D1*
X1530655D1*
X1524885Y1267837D1*
X1519181Y1262067D1*
X1516262Y1253445D1*
Y1247741D1*
X1519181Y1239119D1*
X1524885Y1233415D1*
X1530655Y1230497D1*
X1539210D1*
X1544981Y1233415D1*
X1550684Y1239119D1*
X1569211Y1270689D2*
Y1230497D1*
Y1253445D2*
X1572130Y1262067D1*
X1577833Y1267837D1*
X1583604Y1270689D1*
X1592226D1*
X1610753D2*
Y1230497D1*
Y1259215D2*
X1619375Y1267837D1*
X1625145Y1270689D1*
X1633701D1*
X1639471Y1267837D1*
X1642323Y1259215D1*
Y1230497D1*
X1660850Y1290785D2*
X1663702Y1287933D1*
X1666620Y1290785D1*
X1663702Y1293703D1*
X1660850Y1290785D1*
X1663702Y1270689D2*
Y1230497D1*
X1685147Y1270689D2*
Y1230497D1*
Y1259215D2*
X1693769Y1267837D1*
X1699539Y1270689D1*
X1708095D1*
X1713865Y1267837D1*
X1716717Y1259215D1*
Y1230497D1*
X1769666Y1267837D2*
Y1221875D1*
X1766814Y1213319D1*
X1763962Y1210401D1*
X1758192Y1207549D1*
X1749570D1*
X1743866Y1210401D1*
X1769666Y1259215D2*
X1763962Y1264919D1*
X1758192Y1267837D1*
X1749570D1*
X1743866Y1264919D1*
X1738096Y1259215D1*
X1735244Y1250593D1*
Y1244823D1*
X1738096Y1236267D1*
X1743866Y1230497D1*
X1749570Y1227645D1*
X1758192D1*
X1763962Y1230497D1*
X1769666Y1236267D1*
X1808769Y3813510D2*
D79*
X1806867Y3817313D1*
X1803021Y3821160D1*
X1799218Y3823061D1*
X1791569D1*
X1787722Y3821160D1*
X1783919Y3817313D1*
X1781974Y3813510D1*
X1780073Y3807762D1*
Y3798167D1*
X1781974Y3792464D1*
X1783919Y3788617D1*
X1787722Y3784814D1*
X1791569Y3782869D1*
X1799218D1*
X1803021Y3784814D1*
X1806867Y3788617D1*
X1808769Y3792464D1*
Y3798167D1*
X1799218D1*
X1847915Y3823061D2*
Y3782869D1*
X1821120Y3823061D1*
Y3782869D1*
X1860266Y3823061D2*
Y3782869D1*
X1873663D1*
X1879411Y3784814D1*
X1883258Y3788617D1*
X1885159Y3792464D1*
X1887061Y3798167D1*
Y3807762D1*
X1885159Y3813510D1*
X1883258Y3817313D1*
X1879411Y3821160D1*
X1873663Y3823061D1*
X1860266D1*
X1490343Y2259533D2*
D81*
X1483118Y2255730D1*
X1475810Y2248037D1*
X1472197Y2236540D1*
Y2228935D1*
X1475810Y2217439D1*
X1483118Y2209834D1*
X1490343Y2205943D1*
X1501265D1*
X1508573Y2209834D1*
X1515798Y2217439D1*
X1519495Y2228935D1*
Y2236540D1*
X1515798Y2248037D1*
X1508573Y2255730D1*
X1501265Y2259533D1*
X1490343D1*
X1542962Y2286327D2*
X1546575Y2282525D1*
X1550271Y2286327D1*
X1546575Y2290218D1*
X1542962Y2286327D1*
X1546575Y2259533D2*
Y2205943D1*
X1584660Y2286327D2*
Y2221242D1*
X1588273Y2209834D1*
X1595581Y2205943D1*
X1602806D1*
X1573739Y2259533D2*
X1599194D1*
X1629886Y2213637D2*
X1626274Y2209746D1*
X1629886Y2205943D1*
X1633583Y2209746D1*
X1629886Y2213637D1*
X1657050Y2236540D2*
X1700651D1*
Y2244234D1*
X1697039Y2251927D1*
X1693427Y2255730D1*
X1686118Y2259533D1*
X1675196D1*
X1667972Y2255730D1*
X1660663Y2248037D1*
X1657050Y2236540D1*
Y2228935D1*
X1660663Y2217439D1*
X1667972Y2209834D1*
X1675196Y2205943D1*
X1686118D1*
X1693427Y2209834D1*
X1700651Y2217439D1*
X1767720Y2286327D2*
Y2205943D1*
Y2248037D2*
X1760495Y2255730D1*
X1753186Y2259533D1*
X1742265D1*
X1735040Y2255730D1*
X1727731Y2248037D1*
X1724119Y2236540D1*
Y2228935D1*
X1727731Y2217439D1*
X1735040Y2209834D1*
X1742265Y2205943D1*
X1753186D1*
X1760495Y2209834D1*
X1767720Y2217439D1*
X1791188Y2259533D2*
Y2221242D1*
X1794800Y2209834D1*
X1802109Y2205943D1*
X1813030D1*
X1820255Y2209834D1*
X1831176Y2221242D1*
Y2259533D2*
Y2205943D1*
X1854644D2*
X1905554Y2286239D1*
X1972707Y2248037D2*
X1965398Y2255730D1*
X1958089Y2259533D1*
X1947252D1*
X1939943Y2255730D1*
X1932718Y2248037D1*
X1929021Y2236540D1*
Y2228935D1*
X1932718Y2217439D1*
X1939943Y2209834D1*
X1947252Y2205943D1*
X1958089D1*
X1965398Y2209834D1*
X1972707Y2217439D1*
X2036163Y2248037D2*
X2032550Y2255730D1*
X2021629Y2259533D1*
X2010708D1*
X1999787Y2255730D1*
X1996174Y2248037D1*
X1999787Y2240431D1*
X2007095Y2236540D1*
X2025242Y2232738D1*
X2032550Y2228935D1*
X2036163Y2221242D1*
Y2217439D1*
X2032550Y2209834D1*
X2021629Y2205943D1*
X2010708D1*
X1999787Y2209834D1*
X1996174Y2217439D1*
X2059630Y2236540D2*
X2103231D1*
Y2244234D1*
X2099619Y2251927D1*
X2096007Y2255730D1*
X2088698Y2259533D1*
X2077777D1*
X2070552Y2255730D1*
X2063243Y2248037D1*
X2059630Y2236540D1*
Y2228935D1*
X2063243Y2217439D1*
X2070552Y2209834D1*
X2077777Y2205943D1*
X2088698D1*
X2096007Y2209834D1*
X2103231Y2217439D1*
X2137620Y2286327D2*
Y2221242D1*
X2141233Y2209834D1*
X2148542Y2205943D1*
X2155766D1*
X2126699Y2259533D2*
X2152154D1*
X649023Y1893968D2*
D79*
X652870Y1895914D1*
X658618Y1901618D1*
Y1861470D1*
X682465Y1901618D2*
X676717Y1899716D1*
X672870Y1893968D1*
X670969Y1884418D1*
Y1878670D1*
X672870Y1869119D1*
X676717Y1863371D1*
X682465Y1861470D1*
X686268D1*
X692016Y1863371D1*
X695818Y1869119D1*
X697764Y1878670D1*
Y1884418D1*
X695818Y1893968D1*
X692016Y1899716D1*
X686268Y1901618D1*
X682465D1*
X695818Y1893968D2*
X672870Y1869119D1*
X676302Y1783744D2*
X674356Y1777996D1*
X670554Y1774149D1*
X664806Y1772248D1*
X662905D1*
X657157Y1774149D1*
X653354Y1777996D1*
X651409Y1783744D1*
Y1785645D1*
X653354Y1791393D1*
X657157Y1795195D1*
X662905Y1797097D1*
X664806D1*
X670554Y1795195D1*
X674356Y1791393D1*
X676302Y1783744D1*
Y1774149D1*
X674356Y1764598D1*
X670554Y1758850D1*
X664806Y1756949D1*
X661003D1*
X655255Y1758850D1*
X653354Y1762697D1*
X650211Y1698103D2*
Y1671353D1*
Y1661802D2*
X648266Y1659857D1*
X650211Y1657955D1*
X652112Y1659857D1*
X650211Y1661802D1*
X664464Y1679002D2*
X681664D1*
X687412Y1680948D1*
X689357Y1682849D1*
X691258Y1686651D1*
Y1690498D1*
X689357Y1694301D1*
X687412Y1696246D1*
X681664Y1698147D1*
X664464D1*
Y1657955D1*
X677861Y1679002D2*
X691258Y1657955D1*
X730404Y1692399D2*
X726602Y1696246D1*
X720854Y1698147D1*
X713205D1*
X707457Y1696246D1*
X703610Y1692399D1*
Y1688597D1*
X705555Y1684750D1*
X707457Y1682849D1*
X711259Y1680948D1*
X722755Y1677101D1*
X726602Y1675200D1*
X728503Y1673254D1*
X730404Y1669452D1*
Y1663704D1*
X726602Y1659901D1*
X720854Y1657955D1*
X713205D1*
X707457Y1659901D1*
X703610Y1663704D1*
X756153Y1698147D2*
Y1657955D1*
X742756Y1698147D2*
X769551D1*
X656245Y1602254D2*
X650541Y1600353D1*
X648596Y1596550D1*
Y1592704D1*
X650541Y1588901D1*
X654344Y1586956D1*
X661993Y1585054D1*
X667741Y1583153D1*
X671544Y1579306D1*
X673445Y1575504D1*
Y1569756D1*
X671544Y1565953D1*
X669643Y1564008D1*
X663895Y1562106D1*
X656245D1*
X650541Y1564008D1*
X648596Y1565953D1*
X646695Y1569756D1*
Y1575504D1*
X648596Y1579306D1*
X652443Y1583153D1*
X658147Y1585054D1*
X665796Y1586956D1*
X669643Y1588901D1*
X671544Y1592704D1*
Y1596550D1*
X669643Y1600353D1*
X663895Y1602254D1*
X656245D1*
X656631Y1455929D2*
X675777Y1496077D1*
X648982D1*
X675072Y1394524D2*
X673170Y1398327D1*
X667422Y1400228D1*
X663620D1*
X657872Y1398327D1*
X654025Y1392579D1*
X652124Y1383028D1*
Y1373477D1*
X654025Y1365828D1*
X657872Y1361981D1*
X663620Y1360080D1*
X665521D1*
X671225Y1361981D1*
X675072Y1365828D1*
X676973Y1371576D1*
Y1373477D1*
X675072Y1379226D1*
X671225Y1383028D1*
X665521Y1384929D1*
X663620D1*
X657872Y1383028D1*
X654025Y1379226D1*
X652124Y1373477D1*
X1594834Y1942115D2*
X1589086Y1940214D1*
X1585239Y1934466D1*
X1583338Y1924915D1*
Y1919167D1*
X1585239Y1909617D1*
X1589086Y1903869D1*
X1594834Y1901967D1*
X1598636D1*
X1604384Y1903869D1*
X1608187Y1909617D1*
X1610132Y1919167D1*
Y1924915D1*
X1608187Y1934466D1*
X1604384Y1940214D1*
X1598636Y1942115D1*
X1594834D1*
X1608187Y1934466D2*
X1585239Y1909617D1*
X860847Y2518067D2*
Y2477875D1*
X874244D1*
X879992Y2479821D1*
X883839Y2483623D1*
X885740Y2487470D1*
X887642Y2493174D1*
Y2502769D1*
X885740Y2508517D1*
X883839Y2512319D1*
X879992Y2516166D1*
X874244Y2518067D1*
X860847D1*
X899993Y2493174D2*
X922941D1*
Y2497021D1*
X921040Y2500868D1*
X919138Y2502769D1*
X915292Y2504670D1*
X909544D1*
X905741Y2502769D1*
X901894Y2498922D1*
X899993Y2493174D1*
Y2489371D1*
X901894Y2483623D1*
X905741Y2479821D1*
X909544Y2477875D1*
X915292D1*
X919138Y2479821D1*
X922941Y2483623D1*
X935292Y2504670D2*
Y2464478D1*
Y2498922D2*
X939139Y2502725D1*
X942942Y2504670D1*
X948690D1*
X952536Y2502725D1*
X956339Y2498922D1*
X958284Y2493174D1*
Y2489327D1*
X956339Y2483623D1*
X952536Y2479777D1*
X948690Y2477875D1*
X942942D1*
X939139Y2479777D1*
X935292Y2483623D1*
X993584Y2504670D2*
Y2477875D1*
Y2498922D2*
X989781Y2502769D1*
X985934Y2504670D1*
X980231D1*
X976384Y2502769D1*
X972581Y2498922D1*
X970636Y2493174D1*
Y2489371D1*
X972581Y2483623D1*
X976384Y2479821D1*
X980231Y2477875D1*
X985934D1*
X989781Y2479821D1*
X993584Y2483623D1*
X1005935Y2504670D2*
Y2477875D1*
Y2493174D2*
X1007881Y2498922D1*
X1011683Y2502769D1*
X1015530Y2504670D1*
X1021278D1*
X1039377Y2518067D2*
Y2485525D1*
X1041279Y2479821D1*
X1045125Y2477875D1*
X1048928D1*
X1033629Y2504670D2*
X1047027D1*
X1061279D2*
Y2477875D1*
Y2497021D2*
X1067027Y2502769D1*
X1070874Y2504670D1*
X1076578D1*
X1080425Y2502769D1*
X1082326Y2497021D1*
Y2477875D1*
Y2497021D2*
X1088074Y2502769D1*
X1091921Y2504670D1*
X1097625D1*
X1101471Y2502769D1*
X1103417Y2497021D1*
Y2477875D1*
X1115768Y2493174D2*
X1138716D1*
Y2497021D1*
X1136815Y2500868D1*
X1134914Y2502769D1*
X1131067Y2504670D1*
X1125319D1*
X1121516Y2502769D1*
X1117669Y2498922D1*
X1115768Y2493174D1*
Y2489371D1*
X1117669Y2483623D1*
X1121516Y2479821D1*
X1125319Y2477875D1*
X1131067D1*
X1134914Y2479821D1*
X1138716Y2483623D1*
X1151068Y2504670D2*
Y2477875D1*
Y2497021D2*
X1156816Y2502769D1*
X1160662Y2504670D1*
X1166366D1*
X1170213Y2502769D1*
X1172114Y2497021D1*
Y2477875D1*
X1190214Y2518067D2*
Y2485525D1*
X1192115Y2479821D1*
X1195962Y2477875D1*
X1199764D1*
X1184466Y2504670D2*
X1197863D1*
X1260547D2*
X1256744Y2502769D1*
X1252898Y2498922D1*
X1250996Y2493174D1*
Y2489371D1*
X1252898Y2483623D1*
X1256744Y2479821D1*
X1260547Y2477875D1*
X1266295D1*
X1270142Y2479821D1*
X1273944Y2483623D1*
X1275890Y2489371D1*
Y2493174D1*
X1273944Y2498922D1*
X1270142Y2502769D1*
X1266295Y2504670D1*
X1260547D1*
X1303540Y2518067D2*
X1299737D1*
X1295890Y2516166D1*
X1293989Y2510418D1*
Y2477875D1*
X1288241Y2504670D2*
X1301638D1*
X1383468Y2508517D2*
X1381567Y2512319D1*
X1377720Y2516166D1*
X1373917Y2518067D1*
X1366268D1*
X1362421Y2516166D1*
X1358619Y2512319D1*
X1356673Y2508517D1*
X1354772Y2502769D1*
Y2493174D1*
X1356673Y2487470D1*
X1358619Y2483623D1*
X1362421Y2479821D1*
X1366268Y2477875D1*
X1373917D1*
X1377720Y2479821D1*
X1381567Y2483623D1*
X1383468Y2487470D1*
X1405370Y2504670D2*
X1401567Y2502769D1*
X1397721Y2498922D1*
X1395819Y2493174D1*
Y2489371D1*
X1397721Y2483623D1*
X1401567Y2479821D1*
X1405370Y2477875D1*
X1411118D1*
X1414965Y2479821D1*
X1418767Y2483623D1*
X1420713Y2489371D1*
Y2493174D1*
X1418767Y2498922D1*
X1414965Y2502769D1*
X1411118Y2504670D1*
X1405370D1*
X1433064D2*
Y2477875D1*
Y2497021D2*
X1438812Y2502769D1*
X1442659Y2504670D1*
X1448363D1*
X1452209Y2502769D1*
X1454111Y2497021D1*
Y2477875D1*
Y2497021D2*
X1459859Y2502769D1*
X1463705Y2504670D1*
X1469409D1*
X1473256Y2502769D1*
X1475202Y2497021D1*
Y2477875D1*
X1487553Y2504670D2*
Y2464478D1*
Y2498922D2*
X1491400Y2502725D1*
X1495202Y2504670D1*
X1500950D1*
X1504797Y2502725D1*
X1508600Y2498922D1*
X1510545Y2493174D1*
Y2489327D1*
X1508600Y2483623D1*
X1504797Y2479777D1*
X1500950Y2477875D1*
X1495202D1*
X1491400Y2479777D1*
X1487553Y2483623D1*
X1522896Y2504670D2*
Y2485525D1*
X1524798Y2479821D1*
X1528644Y2477875D1*
X1534393D1*
X1538195Y2479821D1*
X1543943Y2485525D1*
Y2504670D2*
Y2477875D1*
X1562043Y2518067D2*
Y2485525D1*
X1563944Y2479821D1*
X1567791Y2477875D1*
X1571593D1*
X1556295Y2504670D2*
X1569692D1*
X1583945Y2493174D2*
X1606892D1*
Y2497021D1*
X1604991Y2500868D1*
X1603090Y2502769D1*
X1599243Y2504670D1*
X1593495D1*
X1589693Y2502769D1*
X1585846Y2498922D1*
X1583945Y2493174D1*
Y2489371D1*
X1585846Y2483623D1*
X1589693Y2479821D1*
X1593495Y2477875D1*
X1599243D1*
X1603090Y2479821D1*
X1606892Y2483623D1*
X1619244Y2504670D2*
Y2477875D1*
Y2493174D2*
X1621189Y2498922D1*
X1624992Y2502769D1*
X1628839Y2504670D1*
X1634587D1*
X1712613Y2512319D2*
X1708811Y2516166D1*
X1703063Y2518067D1*
X1695414D1*
X1689666Y2516166D1*
X1685819Y2512319D1*
Y2508517D1*
X1687764Y2504670D1*
X1689666Y2502769D1*
X1693468Y2500868D1*
X1704964Y2497021D1*
X1708811Y2495120D1*
X1710712Y2493174D1*
X1712613Y2489371D1*
Y2483623D1*
X1708811Y2479821D1*
X1703063Y2477875D1*
X1695414D1*
X1689666Y2479821D1*
X1685819Y2483623D1*
X1726910Y2504670D2*
X1738362Y2477875D1*
X1734560Y2470226D1*
X1730713Y2466379D1*
X1726910Y2464478D1*
X1724965D1*
X1749858Y2504670D2*
X1738362Y2477875D1*
X1783256Y2498922D2*
X1781355Y2502769D1*
X1775607Y2504670D1*
X1769859D1*
X1764111Y2502769D1*
X1762210Y2498922D1*
X1764111Y2495120D1*
X1767958Y2493174D1*
X1777508Y2491273D1*
X1781355Y2489371D1*
X1783256Y2485525D1*
Y2483623D1*
X1781355Y2479821D1*
X1775607Y2477875D1*
X1769859D1*
X1764111Y2479821D1*
X1762210Y2483623D1*
X1801356Y2518067D2*
Y2485525D1*
X1803257Y2479821D1*
X1807104Y2477875D1*
X1810906D1*
X1795608Y2504670D2*
X1809005D1*
X1823258Y2493174D2*
X1846206D1*
Y2497021D1*
X1844304Y2500868D1*
X1842403Y2502769D1*
X1838556Y2504670D1*
X1832808D1*
X1829006Y2502769D1*
X1825159Y2498922D1*
X1823258Y2493174D1*
Y2489371D1*
X1825159Y2483623D1*
X1829006Y2479821D1*
X1832808Y2477875D1*
X1838556D1*
X1842403Y2479821D1*
X1846206Y2483623D1*
X1858557Y2504670D2*
Y2477875D1*
Y2497021D2*
X1864305Y2502769D1*
X1868152Y2504670D1*
X1873856D1*
X1877702Y2502769D1*
X1879604Y2497021D1*
Y2477875D1*
Y2497021D2*
X1885352Y2502769D1*
X1889198Y2504670D1*
X1894902D1*
X1898749Y2502769D1*
X1900695Y2497021D1*
Y2477875D1*
X1934093Y2498922D2*
X1932191Y2502769D1*
X1926443Y2504670D1*
X1920695D1*
X1914947Y2502769D1*
X1913046Y2498922D1*
X1914947Y2495120D1*
X1918794Y2493174D1*
X1928345Y2491273D1*
X1932191Y2489371D1*
X1934093Y2485525D1*
Y2483623D1*
X1932191Y2479821D1*
X1926443Y2477875D1*
X1920695D1*
X1914947Y2479821D1*
X1913046Y2483623D1*
X1588052Y1840186D2*
X1591898Y1842132D1*
X1597646Y1847836D1*
Y1807688D1*
X1586854Y1740864D2*
Y1742765D1*
X1588755Y1746612D1*
X1590657Y1748513D1*
X1594503Y1750414D1*
X1602153D1*
X1605955Y1748513D1*
X1607856Y1746612D1*
X1609802Y1742765D1*
Y1738962D1*
X1607856Y1735116D1*
X1604054Y1729412D1*
X1584909Y1710267D1*
X1611703D1*
X1590326Y1646708D2*
X1611329D1*
X1599877Y1631410D1*
X1605625D1*
X1609427Y1629508D1*
X1611329Y1627607D1*
X1613274Y1621859D1*
Y1618057D1*
X1611329Y1612308D1*
X1607526Y1608462D1*
X1601778Y1606560D1*
X1596030D1*
X1590326Y1608462D1*
X1588425Y1610407D1*
X1586479Y1614210D1*
X1605625Y1510710D2*
Y1550858D1*
X1586479Y1524107D1*
X1615175D1*
X1614106Y1439295D2*
X1595005D1*
X1593103Y1422095D1*
X1595005Y1423996D1*
X1600753Y1425942D1*
X1606457D1*
X1612205Y1423996D1*
X1616051Y1420194D1*
X1617953Y1414446D1*
Y1410643D1*
X1616051Y1404895D1*
X1612205Y1401048D1*
X1606457Y1399147D1*
X1600753D1*
X1595005Y1401048D1*
X1593103Y1402994D1*
X1591158Y1406796D1*
X1342503Y2429229D2*
X1317654D1*
Y2389037D1*
X1342503D1*
X1317654Y2410083D2*
X1332953D1*
X1354855Y2415832D2*
Y2389037D1*
Y2408182D2*
X1360603Y2413930D1*
X1364449Y2415832D1*
X1370153D1*
X1374000Y2413930D1*
X1375901Y2408182D1*
Y2389037D1*
X1411201Y2413930D2*
Y2383289D1*
X1409299Y2377585D1*
X1407398Y2375640D1*
X1403551Y2373738D1*
X1397803D1*
X1394001Y2375640D1*
X1411201Y2408182D2*
X1407398Y2411985D1*
X1403551Y2413930D1*
X1397803D1*
X1394001Y2411985D1*
X1390154Y2408182D1*
X1388253Y2402434D1*
Y2398587D1*
X1390154Y2392884D1*
X1394001Y2389037D1*
X1397803Y2387136D1*
X1403551D1*
X1407398Y2389037D1*
X1411201Y2392884D1*
X1423552Y2429229D2*
X1425453Y2427328D1*
X1427399Y2429229D1*
X1425453Y2431174D1*
X1423552Y2429229D1*
X1425453Y2415832D2*
Y2389037D1*
X1439750Y2415832D2*
Y2389037D1*
Y2408182D2*
X1445498Y2413930D1*
X1449345Y2415832D1*
X1455049D1*
X1458895Y2413930D1*
X1460797Y2408182D1*
Y2389037D1*
X1473148Y2404335D2*
X1496096D1*
Y2408182D1*
X1494195Y2412029D1*
X1492293Y2413930D1*
X1488447Y2415832D1*
X1482699D1*
X1478896Y2413930D1*
X1475049Y2410083D1*
X1473148Y2404335D1*
Y2400533D1*
X1475049Y2394785D1*
X1478896Y2390982D1*
X1482699Y2389037D1*
X1488447D1*
X1492293Y2390982D1*
X1496096Y2394785D1*
X1508447Y2404335D2*
X1531395D1*
Y2408182D1*
X1529494Y2412029D1*
X1527593Y2413930D1*
X1523746Y2415832D1*
X1517998D1*
X1514195Y2413930D1*
X1510349Y2410083D1*
X1508447Y2404335D1*
Y2400533D1*
X1510349Y2394785D1*
X1514195Y2390982D1*
X1517998Y2389037D1*
X1523746D1*
X1527593Y2390982D1*
X1531395Y2394785D1*
X1543747Y2415832D2*
Y2389037D1*
Y2404335D2*
X1545692Y2410083D1*
X1549495Y2413930D1*
X1553342Y2415832D1*
X1559090D1*
X1571441Y2429229D2*
X1573342Y2427328D1*
X1575288Y2429229D1*
X1573342Y2431174D1*
X1571441Y2429229D1*
X1573342Y2415832D2*
Y2389037D1*
X1587639Y2415832D2*
Y2389037D1*
Y2408182D2*
X1593387Y2413930D1*
X1597234Y2415832D1*
X1602938D1*
X1606784Y2413930D1*
X1608686Y2408182D1*
Y2389037D1*
X1643985Y2413930D2*
Y2383289D1*
X1642084Y2377585D1*
X1640183Y2375640D1*
X1636336Y2373738D1*
X1630588D1*
X1626785Y2375640D1*
X1643985Y2408182D2*
X1640183Y2411985D1*
X1636336Y2413930D1*
X1630588D1*
X1626785Y2411985D1*
X1622938Y2408182D1*
X1621037Y2402434D1*
Y2398587D1*
X1622938Y2392884D1*
X1626785Y2389037D1*
X1630588Y2387136D1*
X1636336D1*
X1640183Y2389037D1*
X1643985Y2392884D1*
X1700766Y2419939D2*
D77*
Y2389795D1*
X1690718Y2419939D2*
X1710814D1*
X1720078Y2401269D2*
X1737288D1*
Y2404155D1*
X1735863Y2407040D1*
X1734437Y2408466D1*
X1731551Y2409891D1*
X1727240D1*
X1724389Y2408466D1*
X1721503Y2405580D1*
X1720078Y2401269D1*
Y2398418D1*
X1721503Y2394107D1*
X1724389Y2391255D1*
X1727240Y2389795D1*
X1731551D1*
X1734437Y2391255D1*
X1737288Y2394107D1*
X1763796Y2405580D2*
X1760911Y2408466D1*
X1758026Y2409891D1*
X1753748D1*
X1750863Y2408466D1*
X1748011Y2405580D1*
X1746552Y2401269D1*
Y2398418D1*
X1748011Y2394107D1*
X1750863Y2391255D1*
X1753748Y2389795D1*
X1758026D1*
X1760911Y2391255D1*
X1763796Y2394107D1*
X1773060Y2419939D2*
Y2389795D1*
Y2404155D2*
X1777371Y2408466D1*
X1780256Y2409891D1*
X1784567D1*
X1787419Y2408466D1*
X1788845Y2404155D1*
Y2389795D1*
X1798108Y2409891D2*
Y2389795D1*
Y2404155D2*
X1802419Y2408466D1*
X1805304Y2409891D1*
X1809582D1*
X1812467Y2408466D1*
X1813893Y2404155D1*
Y2389795D1*
X1830320Y2409891D2*
X1827468Y2408466D1*
X1824583Y2405580D1*
X1823157Y2401269D1*
Y2398418D1*
X1824583Y2394107D1*
X1827468Y2391255D1*
X1830320Y2389795D1*
X1834631D1*
X1837516Y2391255D1*
X1840368Y2394107D1*
X1841827Y2398418D1*
Y2401269D1*
X1840368Y2405580D1*
X1837516Y2408466D1*
X1834631Y2409891D1*
X1830320D1*
X1851090Y2419939D2*
Y2389795D1*
X1867517Y2409891D2*
X1864665Y2408466D1*
X1861780Y2405580D1*
X1860354Y2401269D1*
Y2398418D1*
X1861780Y2394107D1*
X1864665Y2391255D1*
X1867517Y2389795D1*
X1871828D1*
X1874713Y2391255D1*
X1877565Y2394107D1*
X1879024Y2398418D1*
Y2401269D1*
X1877565Y2405580D1*
X1874713Y2408466D1*
X1871828Y2409891D1*
X1867517D1*
X1905498Y2408466D2*
Y2385484D1*
X1904072Y2381207D1*
X1902646Y2379747D1*
X1899761Y2378322D1*
X1895450D1*
X1892598Y2379747D1*
X1905498Y2404155D2*
X1902646Y2407006D1*
X1899761Y2408466D1*
X1895450D1*
X1892598Y2407006D1*
X1889713Y2404155D1*
X1888287Y2399843D1*
Y2396958D1*
X1889713Y2392681D1*
X1892598Y2389795D1*
X1895450Y2388370D1*
X1899761D1*
X1902646Y2389795D1*
X1905498Y2392681D1*
X1916221Y2409891D2*
X1924810Y2389795D1*
X1921958Y2384059D1*
X1919073Y2381173D1*
X1916221Y2379747D1*
X1914762D1*
X1933432Y2409891D2*
X1924810Y2389795D1*
X1060743Y1166073D2*
D80*
X1055039Y1171843D1*
X1046417Y1174695D1*
X1034943D1*
X1026321Y1171843D1*
X1020551Y1166073D1*
Y1160369D1*
X1023469Y1154599D1*
X1026321Y1151747D1*
X1032025Y1148895D1*
X1049269Y1143125D1*
X1055039Y1140273D1*
X1057891Y1137355D1*
X1060743Y1131651D1*
Y1123029D1*
X1055039Y1117325D1*
X1046417Y1114407D1*
X1034943D1*
X1026321Y1117325D1*
X1020551Y1123029D1*
X1079270Y1154599D2*
Y1114407D1*
Y1143125D2*
X1087892Y1151747D1*
X1093662Y1154599D1*
X1102218D1*
X1107988Y1151747D1*
X1110840Y1143125D1*
Y1114407D1*
Y1143125D2*
X1119462Y1151747D1*
X1125232Y1154599D1*
X1133788D1*
X1139558Y1151747D1*
X1142476Y1143125D1*
Y1114407D1*
X1195425Y1154599D2*
Y1114407D1*
Y1145977D2*
X1189721Y1151747D1*
X1183951Y1154599D1*
X1175396D1*
X1169625Y1151747D1*
X1163922Y1145977D1*
X1161003Y1137355D1*
Y1131651D1*
X1163922Y1123029D1*
X1169625Y1117325D1*
X1175396Y1114407D1*
X1183951D1*
X1189721Y1117325D1*
X1195425Y1123029D1*
X1213952Y1174695D2*
Y1114407D1*
X1232479Y1174695D2*
Y1114407D1*
X1343816Y1145977D2*
X1338046Y1151747D1*
X1332276Y1154599D1*
X1323720D1*
X1317950Y1151747D1*
X1312246Y1145977D1*
X1309328Y1137355D1*
Y1131651D1*
X1312246Y1123029D1*
X1317950Y1117325D1*
X1323720Y1114407D1*
X1332276D1*
X1338046Y1117325D1*
X1343816Y1123029D1*
X1362343Y1174695D2*
Y1114407D1*
X1415292Y1154599D2*
Y1114407D1*
Y1145977D2*
X1409588Y1151747D1*
X1403818Y1154599D1*
X1395262D1*
X1389492Y1151747D1*
X1383788Y1145977D1*
X1380870Y1137355D1*
Y1131651D1*
X1383788Y1123029D1*
X1389492Y1117325D1*
X1395262Y1114407D1*
X1403818D1*
X1409588Y1117325D1*
X1415292Y1123029D1*
X1465389Y1145977D2*
X1462537Y1151747D1*
X1453915Y1154599D1*
X1445293D1*
X1436671Y1151747D1*
X1433819Y1145977D1*
X1436671Y1140273D1*
X1442441Y1137355D1*
X1456767Y1134503D1*
X1462537Y1131651D1*
X1465389Y1125881D1*
Y1123029D1*
X1462537Y1117325D1*
X1453915Y1114407D1*
X1445293D1*
X1436671Y1117325D1*
X1433819Y1123029D1*
X1515486Y1145977D2*
X1512634Y1151747D1*
X1504012Y1154599D1*
X1495390D1*
X1486768Y1151747D1*
X1483916Y1145977D1*
X1486768Y1140273D1*
X1492538Y1137355D1*
X1506864Y1134503D1*
X1512634Y1131651D1*
X1515486Y1125881D1*
Y1123029D1*
X1512634Y1117325D1*
X1504012Y1114407D1*
X1495390D1*
X1486768Y1117325D1*
X1483916Y1123029D1*
X1623904Y1145977D2*
X1621052Y1151747D1*
X1612430Y1154599D1*
X1603808D1*
X1595186Y1151747D1*
X1592334Y1145977D1*
X1595186Y1140273D1*
X1600956Y1137355D1*
X1615282Y1134503D1*
X1621052Y1131651D1*
X1623904Y1125881D1*
Y1123029D1*
X1621052Y1117325D1*
X1612430Y1114407D1*
X1603808D1*
X1595186Y1117325D1*
X1592334Y1123029D1*
X1642431Y1174695D2*
X1645283Y1171843D1*
X1648201Y1174695D1*
X1645283Y1177613D1*
X1642431Y1174695D1*
X1645283Y1154599D2*
Y1114407D1*
X1666729Y1154599D2*
X1698299D1*
X1666729Y1114407D1*
X1698299D1*
X1716826Y1137355D2*
X1751247D1*
Y1143125D1*
X1748396Y1148895D1*
X1745544Y1151747D1*
X1739774Y1154599D1*
X1731151D1*
X1725448Y1151747D1*
X1719678Y1145977D1*
X1716826Y1137355D1*
Y1131651D1*
X1719678Y1123029D1*
X1725448Y1117325D1*
X1731151Y1114407D1*
X1739774D1*
X1745544Y1117325D1*
X1751247Y1123029D1*
X1801345Y1145977D2*
X1798493Y1151747D1*
X1789871Y1154599D1*
X1781249D1*
X1772627Y1151747D1*
X1769775Y1145977D1*
X1772627Y1140273D1*
X1778397Y1137355D1*
X1792723Y1134503D1*
X1798493Y1131651D1*
X1801345Y1125881D1*
Y1123029D1*
X1798493Y1117325D1*
X1789871Y1114407D1*
X1781249D1*
X1772627Y1117325D1*
X1769775Y1123029D1*
X1677225Y729888D2*
D79*
X1688721Y703093D1*
X1700173Y729888D1*
X1735472Y743241D2*
X1716371D1*
X1714470Y726041D1*
X1716371Y727942D1*
X1722119Y729888D1*
X1727823D1*
X1733571Y727942D1*
X1737418Y724140D1*
X1739319Y718392D1*
Y714589D1*
X1737418Y708841D1*
X1733571Y704995D1*
X1727823Y703093D1*
X1722119D1*
X1716371Y704995D1*
X1714470Y706940D1*
X1712524Y710743D1*
X1753572Y706940D2*
X1751670Y704995D1*
X1753572Y703093D1*
X1755517Y704995D1*
X1753572Y706940D1*
X1769814Y733690D2*
Y735592D1*
X1771715Y739439D1*
X1773616Y741340D1*
X1777463Y743241D1*
X1785112D1*
X1788915Y741340D1*
X1790816Y739439D1*
X1792762Y735592D1*
Y731789D1*
X1790816Y727942D1*
X1787014Y722239D1*
X1767868Y703093D1*
X1794663D1*
X1148440Y1381142D2*
D80*
X1128344Y1401795D1*
X1148440Y1422448D1*
X1198514Y1439122D2*
Y1488188D1*
X1148440Y1504863D2*
X1128344Y1525516D1*
X1148440Y1546169D1*
X1188565Y1656698D2*
X1128278Y1635985D1*
X1188565Y1615332D1*
X1168469Y1623092D2*
Y1648938D1*
X1128277Y1691459D2*
X1188565D1*
X1128277Y1673373D2*
Y1709545D1*
Y1744306D2*
X1188565D1*
X1128277Y1726220D2*
Y1762393D1*
Y1779067D2*
X1188565D1*
X1128277Y1831914D2*
X1188565D1*
X1128277Y1795741D1*
X1188565D1*
X1128277Y1848589D2*
X1156996Y1869242D1*
X1188565D1*
X1128277Y1889895D2*
X1156996Y1869242D1*
X1128344Y1919462D2*
X1131196Y1911762D1*
X1136900Y1909136D1*
X1142670D1*
X1148373Y1911762D1*
X1151292Y1916896D1*
X1154144Y1927222D1*
X1156996Y1934982D1*
X1162766Y1940116D1*
X1168469Y1942682D1*
X1177092D1*
X1182795Y1940116D1*
X1185714Y1937549D1*
X1188565Y1929789D1*
Y1919462D1*
X1185714Y1911762D1*
X1182795Y1909136D1*
X1177092Y1906569D1*
X1168469D1*
X1162766Y1909136D1*
X1156996Y1914329D1*
X1154144Y1922029D1*
X1151292Y1932356D1*
X1148373Y1937549D1*
X1142670Y1940116D1*
X1136900D1*
X1131196Y1937549D1*
X1128344Y1929789D1*
Y1919462D1*
X1188565Y1985203D2*
X1128344D1*
X1168469Y1959357D1*
Y1998096D1*
X522400Y1966840D2*
D79*
Y1982360D1*
X520499Y1987494D1*
X518554Y1989244D1*
X514751Y1990956D1*
X509003D1*
X505200Y1989245D1*
X503255Y1987494D1*
X501354Y1982360D1*
Y1966840D1*
X541546D1*
X520499Y2002072D2*
Y2017552D1*
X518554Y2022725D1*
X516652Y2024476D1*
X512850Y2026187D1*
X509003D1*
X505200Y2024476D1*
X503255Y2022725D1*
X501354Y2017552D1*
Y2002072D1*
X541546D1*
X520499Y2014129D2*
X541546Y2026187D1*
X501354Y2047650D2*
X503255Y2044188D1*
X507102Y2040765D1*
X510904Y2039014D1*
X516652Y2037303D1*
X526247D1*
X531951Y2039014D1*
X535798Y2040765D1*
X539600Y2044188D1*
X541546Y2047650D1*
Y2054534D1*
X539600Y2057956D1*
X535798Y2061418D1*
X531951Y2063130D1*
X526247Y2064841D1*
X516652D1*
X510904Y2063130D1*
X507102Y2061418D1*
X503255Y2057956D1*
X501354Y2054534D1*
Y2047650D1*
X510904Y2101783D2*
X507102Y2100072D1*
X503255Y2096610D1*
X501354Y2093188D1*
Y2086303D1*
X503255Y2082841D1*
X507102Y2079419D1*
X510904Y2077668D1*
X516652Y2075957D1*
X526247D1*
X531951Y2077668D1*
X535798Y2079419D1*
X539600Y2082841D1*
X541546Y2086303D1*
Y2093188D1*
X539600Y2096610D1*
X535798Y2100072D1*
X531951Y2101783D1*
X526247D1*
Y2093188D1*
X2023501Y1433472D2*
D77*
X2034975Y1443520D1*
X2046449Y1433472D1*
X2055712Y1408435D2*
X2082971D1*
X2092235Y1433472D2*
X2103709Y1443520D1*
X2115182Y1433472D1*
X1977802Y1130269D2*
X1989276Y1140317D1*
X2000750Y1130269D1*
X2010013Y1105231D2*
X2037272D1*
X2046536Y1130269D2*
X2058010Y1140317D1*
X2069483Y1130269D1*
M02*
